<?xml version="1.0" encoding="UTF-8" standalone="no"?>
<!DOCTYPE svg PUBLIC "-//W3C//DTD SVG 1.1//EN"
 "http://www.w3.org/Graphics/SVG/1.1/DTD/svg11.dtd">
<!-- Generated by graphviz version 2.36.0 (20140111.2315)
 -->
<!-- Title: include/shad/data_structures/abstract_data_structure.h Pages: 1 -->
<svg width="1032pt" height="424pt"
 viewBox="0.00 0.00 1031.61 424.00" xmlns="http://www.w3.org/2000/svg" xmlns:xlink="http://www.w3.org/1999/xlink">
<g id="graph0" class="graph" transform="scale(1 1) rotate(0) translate(4 420)">
<title>include/shad/data_structures/abstract_data_structure.h</title>
<polygon fill="white" stroke="none" points="-4,4 -4,-420 1027.61,-420 1027.61,4 -4,4"/>
<!-- Node1 -->
<g id="node1" class="node"><title>Node1</title>
<polygon fill="#bfbfbf" stroke="black" points="191,-385 191,-415 333,-415 333,-385 191,-385"/>
<text text-anchor="start" x="199" y="-403" font-family="Helvetica,sans-Serif" font-size="10.00">include/shad/data_structures</text>
<text text-anchor="middle" x="262" y="-392" font-family="Helvetica,sans-Serif" font-size="10.00">/abstract_data_structure.h</text>
</g>
<!-- Node2 -->
<g id="node2" class="node"><title>Node2</title>
<polygon fill="white" stroke="#bfbfbf" points="82.5,-322.5 82.5,-341.5 125.5,-341.5 125.5,-322.5 82.5,-322.5"/>
<text text-anchor="middle" x="104" y="-329.5" font-family="Helvetica,sans-Serif" font-size="10.00">deque</text>
</g>
<!-- Node1&#45;&gt;Node2 -->
<g id="edge1" class="edge"><title>Node1&#45;&gt;Node2</title>
<path fill="none" stroke="midnightblue" d="M228.105,-384.841C200.163,-373.169 160.899,-356.768 134.064,-345.558"/>
<polygon fill="midnightblue" stroke="midnightblue" points="135.36,-342.307 124.784,-341.682 132.662,-348.766 135.36,-342.307"/>
</g>
<!-- Node3 -->
<g id="node3" class="node"><title>Node3</title>
<polygon fill="white" stroke="#bfbfbf" points="276,-260.5 276,-279.5 316,-279.5 316,-260.5 276,-260.5"/>
<text text-anchor="middle" x="296" y="-267.5" font-family="Helvetica,sans-Serif" font-size="10.00">limits</text>
</g>
<!-- Node1&#45;&gt;Node3 -->
<g id="edge2" class="edge"><title>Node1&#45;&gt;Node3</title>
<path fill="none" stroke="midnightblue" d="M265.769,-384.813C271.943,-361.566 284.214,-315.371 291.071,-289.556"/>
<polygon fill="midnightblue" stroke="midnightblue" points="294.538,-290.137 293.723,-279.574 287.773,-288.34 294.538,-290.137"/>
</g>
<!-- Node4 -->
<g id="node4" class="node"><title>Node4</title>
<polygon fill="white" stroke="#bfbfbf" points="804,-130.5 804,-149.5 856,-149.5 856,-130.5 804,-130.5"/>
<text text-anchor="middle" x="830" y="-137.5" font-family="Helvetica,sans-Serif" font-size="10.00">memory</text>
</g>
<!-- Node1&#45;&gt;Node4 -->
<g id="edge3" class="edge"><title>Node1&#45;&gt;Node4</title>
<path fill="none" stroke="midnightblue" d="M333.301,-393.431C504.343,-378.443 930.066,-330.936 1015,-224 1057.1,-170.993 931.571,-150.787 866.488,-144.014"/>
<polygon fill="midnightblue" stroke="midnightblue" points="866.515,-140.5 856.22,-143.004 865.829,-147.466 866.515,-140.5"/>
</g>
<!-- Node5 -->
<g id="node5" class="node"><title>Node5</title>
<polygon fill="white" stroke="#bfbfbf" points="220,-322.5 220,-341.5 258,-341.5 258,-322.5 220,-322.5"/>
<text text-anchor="middle" x="239" y="-329.5" font-family="Helvetica,sans-Serif" font-size="10.00">tuple</text>
</g>
<!-- Node1&#45;&gt;Node5 -->
<g id="edge4" class="edge"><title>Node1&#45;&gt;Node5</title>
<path fill="none" stroke="midnightblue" d="M257.009,-384.679C253.601,-374.898 249.054,-361.852 245.382,-351.315"/>
<polygon fill="midnightblue" stroke="midnightblue" points="248.672,-350.12 242.077,-341.828 242.062,-352.423 248.672,-350.12"/>
</g>
<!-- Node6 -->
<g id="node6" class="node"><title>Node6</title>
<polygon fill="white" stroke="#bfbfbf" points="38,-198.5 38,-217.5 78,-217.5 78,-198.5 38,-198.5"/>
<text text-anchor="middle" x="58" y="-205.5" font-family="Helvetica,sans-Serif" font-size="10.00">utility</text>
</g>
<!-- Node1&#45;&gt;Node6 -->
<g id="edge5" class="edge"><title>Node1&#45;&gt;Node6</title>
<path fill="none" stroke="midnightblue" d="M239.406,-384.947C224.52,-375.278 204.912,-361.744 189,-348 142.352,-307.709 94.38,-252.644 71.6006,-225.503"/>
<polygon fill="midnightblue" stroke="midnightblue" points="74.2127,-223.17 65.1236,-217.726 68.8339,-227.65 74.2127,-223.17"/>
</g>
<!-- Node7 -->
<g id="node7" class="node"><title>Node7</title>
<polygon fill="white" stroke="#bfbfbf" points="96,-198.5 96,-217.5 140,-217.5 140,-198.5 96,-198.5"/>
<text text-anchor="middle" x="118" y="-205.5" font-family="Helvetica,sans-Serif" font-size="10.00">vector</text>
</g>
<!-- Node1&#45;&gt;Node7 -->
<g id="edge6" class="edge"><title>Node1&#45;&gt;Node7</title>
<path fill="none" stroke="midnightblue" d="M244.934,-384.596C234.265,-374.99 220.749,-361.657 211,-348 185.709,-312.57 193.116,-295.554 168,-260 158.742,-246.894 146.068,-234.007 135.796,-224.465"/>
<polygon fill="midnightblue" stroke="midnightblue" points="137.952,-221.696 128.185,-217.591 133.26,-226.891 137.952,-221.696"/>
</g>
<!-- Node8 -->
<g id="node8" class="node"><title>Node8</title>
<g id="a_node8"><a xlink:href="object__identifier_8h.html" target="_top" xlink:title="shad/data_structures\l/object_identifier.h">
<polygon fill="white" stroke="black" points="314,-317 314,-347 422,-347 422,-317 314,-317"/>
<text text-anchor="start" x="322" y="-335" font-family="Helvetica,sans-Serif" font-size="10.00">shad/data_structures</text>
<text text-anchor="middle" x="368" y="-324" font-family="Helvetica,sans-Serif" font-size="10.00">/object_identifier.h</text>
</a>
</g>
</g>
<!-- Node1&#45;&gt;Node8 -->
<g id="edge7" class="edge"><title>Node1&#45;&gt;Node8</title>
<path fill="none" stroke="midnightblue" d="M284.74,-384.841C299.83,-375.446 319.842,-362.985 336.465,-352.635"/>
<polygon fill="midnightblue" stroke="midnightblue" points="338.659,-355.392 345.298,-347.135 334.959,-349.45 338.659,-355.392"/>
</g>
<!-- Node10 -->
<g id="node10" class="node"><title>Node10</title>
<g id="a_node10"><a xlink:href="runtime_8h.html" target="_top" xlink:title="shad/runtime/runtime.h">
<polygon fill="white" stroke="black" points="405,-260.5 405,-279.5 521,-279.5 521,-260.5 405,-260.5"/>
<text text-anchor="middle" x="463" y="-267.5" font-family="Helvetica,sans-Serif" font-size="10.00">shad/runtime/runtime.h</text>
</a>
</g>
</g>
<!-- Node1&#45;&gt;Node10 -->
<g id="edge43" class="edge"><title>Node1&#45;&gt;Node10</title>
<path fill="none" stroke="midnightblue" d="M333.417,-391.574C366.493,-384.873 404.287,-372.148 431,-348 447.914,-332.71 456.128,-307.088 459.945,-289.635"/>
<polygon fill="midnightblue" stroke="midnightblue" points="463.436,-290.014 461.866,-279.536 456.559,-288.706 463.436,-290.014"/>
</g>
<!-- Node8&#45;&gt;Node3 -->
<g id="edge9" class="edge"><title>Node8&#45;&gt;Node3</title>
<path fill="none" stroke="midnightblue" d="M350.937,-316.781C339.935,-307.613 325.635,-295.696 314.382,-286.319"/>
<polygon fill="midnightblue" stroke="midnightblue" points="316.4,-283.444 306.477,-279.731 311.918,-288.821 316.4,-283.444"/>
</g>
<!-- Node9 -->
<g id="node9" class="node"><title>Node9</title>
<polygon fill="white" stroke="#bfbfbf" points="341,-260.5 341,-279.5 387,-279.5 387,-260.5 341,-260.5"/>
<text text-anchor="middle" x="364" y="-267.5" font-family="Helvetica,sans-Serif" font-size="10.00">atomic</text>
</g>
<!-- Node8&#45;&gt;Node9 -->
<g id="edge8" class="edge"><title>Node8&#45;&gt;Node9</title>
<path fill="none" stroke="midnightblue" d="M367.052,-316.781C366.513,-308.691 365.831,-298.462 365.248,-289.725"/>
<polygon fill="midnightblue" stroke="midnightblue" points="368.74,-289.476 364.582,-279.731 361.755,-289.941 368.74,-289.476"/>
</g>
<!-- Node8&#45;&gt;Node10 -->
<g id="edge10" class="edge"><title>Node8&#45;&gt;Node10</title>
<path fill="none" stroke="midnightblue" d="M390.514,-316.781C405.69,-307.196 425.624,-294.606 440.745,-285.056"/>
<polygon fill="midnightblue" stroke="midnightblue" points="442.868,-287.855 449.453,-279.556 439.13,-281.936 442.868,-287.855"/>
</g>
<!-- Node10&#45;&gt;Node4 -->
<g id="edge17" class="edge"><title>Node10&#45;&gt;Node4</title>
<path fill="none" stroke="midnightblue" d="M521.326,-269.253C609.197,-268.383 769.674,-261.521 811,-224 828.757,-207.878 831.638,-178.853 831.366,-159.756"/>
<polygon fill="midnightblue" stroke="midnightblue" points="834.855,-159.425 830.913,-149.591 827.862,-159.737 834.855,-159.425"/>
</g>
<!-- Node10&#45;&gt;Node6 -->
<g id="edge20" class="edge"><title>Node10&#45;&gt;Node6</title>
<path fill="none" stroke="midnightblue" d="M404.903,-261.133C401.893,-260.745 398.911,-260.365 396,-260 258.812,-242.796 219.223,-264.418 87,-224 85.0892,-223.416 83.1548,-222.708 81.2394,-221.922"/>
<polygon fill="midnightblue" stroke="midnightblue" points="82.5549,-218.672 72.02,-217.547 79.5536,-224.996 82.5549,-218.672"/>
</g>
<!-- Node10&#45;&gt;Node7 -->
<g id="edge21" class="edge"><title>Node10&#45;&gt;Node7</title>
<path fill="none" stroke="midnightblue" d="M404.976,-261.153C317.601,-249.27 161.097,-227.696 149,-224 146.863,-223.347 144.689,-222.565 142.535,-221.706"/>
<polygon fill="midnightblue" stroke="midnightblue" points="143.946,-218.503 133.39,-217.602 141.08,-224.889 143.946,-218.503"/>
</g>
<!-- Node11 -->
<g id="node11" class="node"><title>Node11</title>
<polygon fill="white" stroke="#bfbfbf" points="488.5,-130.5 488.5,-149.5 537.5,-149.5 537.5,-130.5 488.5,-130.5"/>
<text text-anchor="middle" x="513" y="-137.5" font-family="Helvetica,sans-Serif" font-size="10.00">cstddef</text>
</g>
<!-- Node10&#45;&gt;Node11 -->
<g id="edge11" class="edge"><title>Node10&#45;&gt;Node11</title>
<path fill="none" stroke="midnightblue" d="M455.251,-260.084C443.435,-245.342 423.532,-215.212 436,-192 441.698,-181.391 467.22,-165.673 487.34,-154.494"/>
<polygon fill="midnightblue" stroke="midnightblue" points="489.285,-157.42 496.392,-149.563 485.936,-151.273 489.285,-157.42"/>
</g>
<!-- Node12 -->
<g id="node12" class="node"><title>Node12</title>
<polygon fill="white" stroke="#bfbfbf" points="543,-62.5 543,-81.5 589,-81.5 589,-62.5 543,-62.5"/>
<text text-anchor="middle" x="566" y="-69.5" font-family="Helvetica,sans-Serif" font-size="10.00">cstdint</text>
</g>
<!-- Node10&#45;&gt;Node12 -->
<g id="edge12" class="edge"><title>Node10&#45;&gt;Node12</title>
<path fill="none" stroke="midnightblue" d="M521.186,-261.869C544.723,-255.803 569.674,-244.613 584,-224 612.169,-183.469 589.594,-121.604 575.369,-91.1814"/>
<polygon fill="midnightblue" stroke="midnightblue" points="578.324,-89.2591 570.782,-81.8186 572.038,-92.3387 578.324,-89.2591"/>
</g>
<!-- Node13 -->
<g id="node13" class="node"><title>Node13</title>
<polygon fill="white" stroke="#bfbfbf" points="670.5,-198.5 670.5,-217.5 729.5,-217.5 729.5,-198.5 670.5,-198.5"/>
<text text-anchor="middle" x="700" y="-205.5" font-family="Helvetica,sans-Serif" font-size="10.00">functional</text>
</g>
<!-- Node10&#45;&gt;Node13 -->
<g id="edge13" class="edge"><title>Node10&#45;&gt;Node13</title>
<path fill="none" stroke="midnightblue" d="M505.099,-260.447C544.406,-252.164 604.565,-238.724 656,-224 659.545,-222.985 663.226,-221.855 666.881,-220.683"/>
<polygon fill="midnightblue" stroke="midnightblue" points="667.997,-224 676.388,-217.532 665.795,-217.356 667.997,-224"/>
</g>
<!-- Node14 -->
<g id="node14" class="node"><title>Node14</title>
<polygon fill="white" stroke="#bfbfbf" points="748,-198.5 748,-217.5 802,-217.5 802,-198.5 748,-198.5"/>
<text text-anchor="middle" x="775" y="-205.5" font-family="Helvetica,sans-Serif" font-size="10.00">iostream</text>
</g>
<!-- Node10&#45;&gt;Node14 -->
<g id="edge14" class="edge"><title>Node10&#45;&gt;Node14</title>
<path fill="none" stroke="midnightblue" d="M521.226,-263.287C577.456,-256.881 664.64,-244.594 738,-224 740.815,-223.21 743.708,-222.272 746.575,-221.258"/>
<polygon fill="midnightblue" stroke="midnightblue" points="747.995,-224.462 756.08,-217.615 745.49,-217.926 747.995,-224.462"/>
</g>
<!-- Node15 -->
<g id="node15" class="node"><title>Node15</title>
<polygon fill="white" stroke="#bfbfbf" points="858.5,-198.5 858.5,-217.5 905.5,-217.5 905.5,-198.5 858.5,-198.5"/>
<text text-anchor="middle" x="882" y="-205.5" font-family="Helvetica,sans-Serif" font-size="10.00">iterator</text>
</g>
<!-- Node10&#45;&gt;Node15 -->
<g id="edge15" class="edge"><title>Node10&#45;&gt;Node15</title>
<path fill="none" stroke="midnightblue" d="M521.289,-266.787C596.771,-262.863 731.94,-252.228 844,-224 847.065,-223.228 850.214,-222.27 853.326,-221.215"/>
<polygon fill="midnightblue" stroke="midnightblue" points="854.836,-224.387 862.986,-217.618 852.393,-217.827 854.836,-224.387"/>
</g>
<!-- Node16 -->
<g id="node16" class="node"><title>Node16</title>
<polygon fill="white" stroke="#bfbfbf" points="923.5,-198.5 923.5,-217.5 958.5,-217.5 958.5,-198.5 923.5,-198.5"/>
<text text-anchor="middle" x="941" y="-205.5" font-family="Helvetica,sans-Serif" font-size="10.00">map</text>
</g>
<!-- Node10&#45;&gt;Node16 -->
<g id="edge16" class="edge"><title>Node10&#45;&gt;Node16</title>
<path fill="none" stroke="midnightblue" d="M521.179,-266.133C625.964,-260.483 842.189,-246.472 914,-224 915.654,-223.483 917.32,-222.857 918.969,-222.158"/>
<polygon fill="midnightblue" stroke="midnightblue" points="920.661,-225.225 928.027,-217.61 917.52,-218.97 920.661,-225.225"/>
</g>
<!-- Node17 -->
<g id="node17" class="node"><title>Node17</title>
<polygon fill="white" stroke="#bfbfbf" points="977,-198.5 977,-217.5 1007,-217.5 1007,-198.5 977,-198.5"/>
<text text-anchor="middle" x="992" y="-205.5" font-family="Helvetica,sans-Serif" font-size="10.00">set</text>
</g>
<!-- Node10&#45;&gt;Node17 -->
<g id="edge18" class="edge"><title>Node10&#45;&gt;Node17</title>
<path fill="none" stroke="midnightblue" d="M521.338,-267.069C635.758,-262.746 885.555,-250.515 967,-224 968.414,-223.54 969.832,-222.988 971.236,-222.371"/>
<polygon fill="midnightblue" stroke="midnightblue" points="972.902,-225.449 980.072,-217.649 969.603,-219.275 972.902,-225.449"/>
</g>
<!-- Node18 -->
<g id="node18" class="node"><title>Node18</title>
<polygon fill="white" stroke="#bfbfbf" points="158,-198.5 158,-217.5 236,-217.5 236,-198.5 158,-198.5"/>
<text text-anchor="middle" x="197" y="-205.5" font-family="Helvetica,sans-Serif" font-size="10.00">unordered_set</text>
</g>
<!-- Node10&#45;&gt;Node18 -->
<g id="edge19" class="edge"><title>Node10&#45;&gt;Node18</title>
<path fill="none" stroke="midnightblue" d="M418.333,-260.477C375.097,-252.011 307.793,-238.266 250,-224 245.314,-222.843 240.416,-221.56 235.572,-220.244"/>
<polygon fill="midnightblue" stroke="midnightblue" points="236.36,-216.831 225.788,-217.53 234.488,-223.576 236.36,-216.831"/>
</g>
<!-- Node19 -->
<g id="node19" class="node"><title>Node19</title>
<polygon fill="white" stroke="#bfbfbf" points="267,-0.5 267,-19.5 371,-19.5 371,-0.5 267,-0.5"/>
<text text-anchor="middle" x="319" y="-7.5" font-family="Helvetica,sans-Serif" font-size="10.00">shad/config/config.h</text>
</g>
<!-- Node10&#45;&gt;Node19 -->
<g id="edge22" class="edge"><title>Node10&#45;&gt;Node19</title>
<path fill="none" stroke="midnightblue" d="M521.154,-265.804C550.876,-260.894 584.751,-249.552 604,-224 648.956,-164.324 649.688,-109.949 598,-56 568.986,-25.7166 454.298,-15.8117 381.304,-12.5728"/>
<polygon fill="midnightblue" stroke="midnightblue" points="381.43,-9.07512 371.294,-12.1586 381.141,-16.0691 381.43,-9.07512"/>
</g>
<!-- Node20 -->
<g id="node20" class="node"><title>Node20</title>
<g id="a_node20"><a xlink:href="handle_8h.html" target="_top" xlink:title="shad/runtime/handle.h">
<polygon fill="white" stroke="black" points="87.5,-130.5 87.5,-149.5 200.5,-149.5 200.5,-130.5 87.5,-130.5"/>
<text text-anchor="middle" x="144" y="-137.5" font-family="Helvetica,sans-Serif" font-size="10.00">shad/runtime/handle.h</text>
</a>
</g>
</g>
<!-- Node10&#45;&gt;Node20 -->
<g id="edge23" class="edge"><title>Node10&#45;&gt;Node20</title>
<path fill="none" stroke="midnightblue" d="M440.16,-260.351C417.052,-251.514 380.361,-237.248 349,-224 317.116,-210.531 309.966,-205.273 278,-192 244.012,-177.888 204.589,-163.066 177.345,-153.061"/>
<polygon fill="midnightblue" stroke="midnightblue" points="178.485,-149.751 167.891,-149.603 176.08,-156.325 178.485,-149.751"/>
</g>
<!-- Node22 -->
<g id="node22" class="node"><title>Node22</title>
<g id="a_node22"><a xlink:href="mapping__traits_8h.html" target="_top" xlink:title="shad/runtime/mapping\l_traits.h">
<polygon fill="white" stroke="black" points="-0.5,-57 -0.5,-87 112.5,-87 112.5,-57 -0.5,-57"/>
<text text-anchor="start" x="7.5" y="-75" font-family="Helvetica,sans-Serif" font-size="10.00">shad/runtime/mapping</text>
<text text-anchor="middle" x="56" y="-64" font-family="Helvetica,sans-Serif" font-size="10.00">_traits.h</text>
</a>
</g>
</g>
<!-- Node10&#45;&gt;Node22 -->
<g id="edge35" class="edge"><title>Node10&#45;&gt;Node22</title>
<path fill="none" stroke="midnightblue" d="M415.97,-260.487C369.298,-251.521 301.441,-236.937 278,-224 260.113,-214.128 263.015,-201.636 245,-192 178.049,-156.189 132.93,-208.418 78,-156 62.2231,-140.944 57.2934,-115.992 55.9656,-97.3706"/>
<polygon fill="midnightblue" stroke="midnightblue" points="59.4578,-97.1066 55.5453,-87.2606 52.4638,-97.3974 59.4578,-97.1066"/>
</g>
<!-- Node25 -->
<g id="node25" class="node"><title>Node25</title>
<g id="a_node25"><a xlink:href="locality_8h.html" target="_top" xlink:title="shad/runtime/locality.h">
<polygon fill="white" stroke="black" points="355.5,-130.5 355.5,-149.5 470.5,-149.5 470.5,-130.5 355.5,-130.5"/>
<text text-anchor="middle" x="413" y="-137.5" font-family="Helvetica,sans-Serif" font-size="10.00">shad/runtime/locality.h</text>
</a>
</g>
</g>
<!-- Node10&#45;&gt;Node25 -->
<g id="edge30" class="edge"><title>Node10&#45;&gt;Node25</title>
<path fill="none" stroke="midnightblue" d="M454.032,-260.219C445.914,-251.725 434.295,-238.098 428,-224 418.784,-203.359 415.228,-177.43 413.858,-160.096"/>
<polygon fill="midnightblue" stroke="midnightblue" points="417.322,-159.406 413.215,-149.64 410.335,-159.836 417.322,-159.406"/>
</g>
<!-- Node26 -->
<g id="node26" class="node"><title>Node26</title>
<g id="a_node26"><a xlink:href="available__mappings_8h.html" target="_top" xlink:title="shad/runtime/mappings\l/available_mappings.h">
<polygon fill="white" stroke="black" points="219,-125 219,-155 337,-155 337,-125 219,-125"/>
<text text-anchor="start" x="227" y="-143" font-family="Helvetica,sans-Serif" font-size="10.00">shad/runtime/mappings</text>
<text text-anchor="middle" x="278" y="-132" font-family="Helvetica,sans-Serif" font-size="10.00">/available_mappings.h</text>
</a>
</g>
</g>
<!-- Node10&#45;&gt;Node26 -->
<g id="edge36" class="edge"><title>Node10&#45;&gt;Node26</title>
<path fill="none" stroke="midnightblue" d="M450.574,-260.403C421.379,-240.203 347.79,-189.287 306.762,-160.9"/>
<polygon fill="midnightblue" stroke="midnightblue" points="308.744,-158.015 298.529,-155.204 304.761,-163.772 308.744,-158.015"/>
</g>
<!-- Node27 -->
<g id="node27" class="node"><title>Node27</title>
<g id="a_node27"><a xlink:href="synchronous__interface_8h.html" target="_top" xlink:title="shad/runtime/synchronous\l_interface.h">
<polygon fill="white" stroke="black" points="444.5,-193 444.5,-223 575.5,-223 575.5,-193 444.5,-193"/>
<text text-anchor="start" x="452.5" y="-211" font-family="Helvetica,sans-Serif" font-size="10.00">shad/runtime/synchronous</text>
<text text-anchor="middle" x="510" y="-200" font-family="Helvetica,sans-Serif" font-size="10.00">_interface.h</text>
</a>
</g>
</g>
<!-- Node10&#45;&gt;Node27 -->
<g id="edge38" class="edge"><title>Node10&#45;&gt;Node27</title>
<path fill="none" stroke="midnightblue" d="M469.734,-260.403C475.683,-252.809 484.623,-241.396 492.569,-231.252"/>
<polygon fill="midnightblue" stroke="midnightblue" points="495.512,-233.171 498.923,-223.141 490.001,-228.855 495.512,-233.171"/>
</g>
<!-- Node20&#45;&gt;Node19 -->
<g id="edge25" class="edge"><title>Node20&#45;&gt;Node19</title>
<path fill="none" stroke="midnightblue" d="M153.496,-130.37C174.019,-111.789 222.099,-68.6542 240,-56 256.758,-44.1539 276.871,-32.7334 292.609,-24.3616"/>
<polygon fill="midnightblue" stroke="midnightblue" points="294.535,-27.3037 301.773,-19.5665 291.29,-21.1014 294.535,-27.3037"/>
</g>
<!-- Node21 -->
<g id="node21" class="node"><title>Node21</title>
<polygon fill="white" stroke="#bfbfbf" points="131,-62.5 131,-81.5 193,-81.5 193,-62.5 131,-62.5"/>
<text text-anchor="middle" x="162" y="-69.5" font-family="Helvetica,sans-Serif" font-size="10.00">type_traits</text>
</g>
<!-- Node20&#45;&gt;Node21 -->
<g id="edge24" class="edge"><title>Node20&#45;&gt;Node21</title>
<path fill="none" stroke="midnightblue" d="M146.353,-130.372C149.007,-120.643 153.401,-104.528 156.859,-91.8504"/>
<polygon fill="midnightblue" stroke="midnightblue" points="160.334,-92.4097 159.589,-81.8411 153.581,-90.5678 160.334,-92.4097"/>
</g>
<!-- Node20&#45;&gt;Node22 -->
<g id="edge26" class="edge"><title>Node20&#45;&gt;Node22</title>
<path fill="none" stroke="midnightblue" d="M132.496,-130.372C120.038,-121.029 99.7289,-105.797 83.1666,-93.375"/>
<polygon fill="midnightblue" stroke="midnightblue" points="85.0086,-90.3815 74.9086,-87.1815 80.8086,-95.9815 85.0086,-90.3815"/>
</g>
<!-- Node24 -->
<g id="node24" class="node"><title>Node24</title>
<g id="a_node24"><a xlink:href="available__traits__mappings_8h.html" target="_top" xlink:title="shad/runtime/mappings\l/available_traits_mappings.h">
<polygon fill="white" stroke="black" points="249,-57 249,-87 389,-87 389,-57 249,-57"/>
<text text-anchor="start" x="257" y="-75" font-family="Helvetica,sans-Serif" font-size="10.00">shad/runtime/mappings</text>
<text text-anchor="middle" x="319" y="-64" font-family="Helvetica,sans-Serif" font-size="10.00">/available_traits_mappings.h</text>
</a>
</g>
</g>
<!-- Node20&#45;&gt;Node24 -->
<g id="edge29" class="edge"><title>Node20&#45;&gt;Node24</title>
<path fill="none" stroke="midnightblue" d="M166.878,-130.372C193.44,-120.354 237.954,-103.566 271.985,-90.7312"/>
<polygon fill="midnightblue" stroke="midnightblue" points="273.608,-93.8599 281.73,-87.0562 271.138,-87.3103 273.608,-93.8599"/>
</g>
<!-- Node22&#45;&gt;Node19 -->
<g id="edge28" class="edge"><title>Node22&#45;&gt;Node19</title>
<path fill="none" stroke="midnightblue" d="M112.743,-58.0548C160.095,-47.2522 226.811,-32.0317 271.411,-21.8568"/>
<polygon fill="midnightblue" stroke="midnightblue" points="272.44,-25.212 281.411,-19.5754 270.883,-18.3873 272.44,-25.212"/>
</g>
<!-- Node23 -->
<g id="node23" class="node"><title>Node23</title>
<polygon fill="white" stroke="#bfbfbf" points="35.5,-0.5 35.5,-19.5 76.5,-19.5 76.5,-0.5 35.5,-0.5"/>
<text text-anchor="middle" x="56" y="-7.5" font-family="Helvetica,sans-Serif" font-size="10.00">string</text>
</g>
<!-- Node22&#45;&gt;Node23 -->
<g id="edge27" class="edge"><title>Node22&#45;&gt;Node23</title>
<path fill="none" stroke="midnightblue" d="M56,-56.7808C56,-48.7812 56,-38.6887 56,-30.0168"/>
<polygon fill="midnightblue" stroke="midnightblue" points="59.5001,-29.7305 56,-19.7305 52.5001,-29.7306 59.5001,-29.7305"/>
</g>
<!-- Node25&#45;&gt;Node12 -->
<g id="edge31" class="edge"><title>Node25&#45;&gt;Node12</title>
<path fill="none" stroke="midnightblue" d="M433.002,-130.372C459.461,-118.958 506.293,-98.7562 536.732,-85.6252"/>
<polygon fill="midnightblue" stroke="midnightblue" points="538.197,-88.8052 545.993,-81.6305 535.425,-82.3777 538.197,-88.8052"/>
</g>
<!-- Node25&#45;&gt;Node19 -->
<g id="edge32" class="edge"><title>Node25&#45;&gt;Node19</title>
<path fill="none" stroke="midnightblue" d="M413.702,-130.334C414.558,-114.162 414.242,-78.9488 398,-56 387.579,-41.2761 370.719,-30.7302 355.245,-23.5665"/>
<polygon fill="midnightblue" stroke="midnightblue" points="356.43,-20.266 345.86,-19.5359 353.667,-26.698 356.43,-20.266"/>
</g>
<!-- Node25&#45;&gt;Node22 -->
<g id="edge33" class="edge"><title>Node25&#45;&gt;Node22</title>
<path fill="none" stroke="midnightblue" d="M376.921,-130.5C366.931,-128.261 356.067,-125.934 346,-124 250.072,-105.571 222.687,-107.066 122.737,-88.064"/>
<polygon fill="midnightblue" stroke="midnightblue" points="123.314,-84.6109 112.833,-86.1598 121.992,-91.485 123.314,-84.6109"/>
</g>
<!-- Node25&#45;&gt;Node24 -->
<g id="edge34" class="edge"><title>Node25&#45;&gt;Node24</title>
<path fill="none" stroke="midnightblue" d="M400.711,-130.372C387.282,-120.943 365.312,-105.517 347.533,-93.0338"/>
<polygon fill="midnightblue" stroke="midnightblue" points="349.393,-90.0633 339.198,-87.1815 345.371,-95.7922 349.393,-90.0633"/>
</g>
<!-- Node26&#45;&gt;Node24 -->
<g id="edge37" class="edge"><title>Node26&#45;&gt;Node24</title>
<path fill="none" stroke="midnightblue" d="M286.896,-124.679C292.108,-116.29 298.811,-105.499 304.744,-95.9495"/>
<polygon fill="midnightblue" stroke="midnightblue" points="307.817,-97.6344 310.121,-87.2931 301.871,-93.9406 307.817,-97.6344"/>
</g>
<!-- Node27&#45;&gt;Node4 -->
<g id="edge41" class="edge"><title>Node27&#45;&gt;Node4</title>
<path fill="none" stroke="midnightblue" d="M575.529,-193.485C641.527,-179.873 740.936,-159.369 793.851,-148.456"/>
<polygon fill="midnightblue" stroke="midnightblue" points="794.704,-151.854 803.791,-146.406 793.29,-144.998 794.704,-151.854"/>
</g>
<!-- Node27&#45;&gt;Node11 -->
<g id="edge39" class="edge"><title>Node27&#45;&gt;Node11</title>
<path fill="none" stroke="midnightblue" d="M510.651,-192.679C511.086,-183.101 511.664,-170.394 512.137,-159.977"/>
<polygon fill="midnightblue" stroke="midnightblue" points="515.641,-159.977 512.599,-149.828 508.648,-159.659 515.641,-159.977"/>
</g>
<!-- Node27&#45;&gt;Node12 -->
<g id="edge40" class="edge"><title>Node27&#45;&gt;Node12</title>
<path fill="none" stroke="midnightblue" d="M522.304,-192.737C530.135,-182.979 539.915,-169.425 546,-156 555.537,-134.959 560.875,-108.773 563.591,-91.5061"/>
<polygon fill="midnightblue" stroke="midnightblue" points="567.058,-91.9872 565.016,-81.5911 560.129,-90.9917 567.058,-91.9872"/>
</g>
<!-- Node27&#45;&gt;Node25 -->
<g id="edge42" class="edge"><title>Node27&#45;&gt;Node25</title>
<path fill="none" stroke="midnightblue" d="M488.952,-192.679C472.686,-181.611 450.276,-166.363 434.017,-155.3"/>
<polygon fill="midnightblue" stroke="midnightblue" points="435.932,-152.37 425.695,-149.638 431.994,-158.157 435.932,-152.37"/>
</g>
</g>
</svg>
