<?xml version="1.0" encoding="UTF-8" standalone="no"?>
<!DOCTYPE svg PUBLIC "-//W3C//DTD SVG 1.1//EN"
 "http://www.w3.org/Graphics/SVG/1.1/DTD/svg11.dtd">
<!-- Generated by graphviz version 2.36.0 (20140111.2315)
 -->
<!-- Title: include/shad/data_structures/abstract_data_structure.h Pages: 1 -->
<svg width="1088pt" height="186pt"
 viewBox="0.00 0.00 1088.00 186.00" xmlns="http://www.w3.org/2000/svg" xmlns:xlink="http://www.w3.org/1999/xlink">
<g id="graph0" class="graph" transform="scale(1 1) rotate(0) translate(4 182)">
<title>include/shad/data_structures/abstract_data_structure.h</title>
<polygon fill="white" stroke="none" points="-4,4 -4,-182 1084,-182 1084,4 -4,4"/>
<!-- Node1 -->
<g id="node1" class="node"><title>Node1</title>
<polygon fill="#bfbfbf" stroke="black" points="464,-147 464,-177 606,-177 606,-147 464,-147"/>
<text text-anchor="start" x="472" y="-165" font-family="Helvetica,sans-Serif" font-size="10.00">include/shad/data_structures</text>
<text text-anchor="middle" x="535" y="-154" font-family="Helvetica,sans-Serif" font-size="10.00">/abstract_data_structure.h</text>
</g>
<!-- Node2 -->
<g id="node2" class="node"><title>Node2</title>
<g id="a_node2"><a xlink:href="core_2array_8h.html" target="_top" xlink:title="include/shad/core/array.h">
<polygon fill="white" stroke="black" points="0,-84.5 0,-103.5 126,-103.5 126,-84.5 0,-84.5"/>
<text text-anchor="middle" x="63" y="-91.5" font-family="Helvetica,sans-Serif" font-size="10.00">include/shad/core/array.h</text>
</a>
</g>
</g>
<!-- Node1&#45;&gt;Node2 -->
<g id="edge1" class="edge"><title>Node1&#45;&gt;Node2</title>
<path fill="none" stroke="midnightblue" d="M453.811,-152.542C372.802,-143.657 244.911,-128.427 135,-110 123.918,-108.142 111.948,-105.789 101.008,-103.501"/>
<polygon fill="midnightblue" stroke="midnightblue" points="453.622,-156.042 463.943,-153.646 454.381,-149.083 453.622,-156.042"/>
</g>
<!-- Node3 -->
<g id="node3" class="node"><title>Node3</title>
<g id="a_node3"><a xlink:href="data__structures_2array_8h.html" target="_top" xlink:title="include/shad/data_structures\l/array.h">
<polygon fill="white" stroke="black" points="624,-79 624,-109 766,-109 766,-79 624,-79"/>
<text text-anchor="start" x="632" y="-97" font-family="Helvetica,sans-Serif" font-size="10.00">include/shad/data_structures</text>
<text text-anchor="middle" x="695" y="-86" font-family="Helvetica,sans-Serif" font-size="10.00">/array.h</text>
</a>
</g>
</g>
<!-- Node1&#45;&gt;Node3 -->
<g id="edge2" class="edge"><title>Node1&#45;&gt;Node3</title>
<path fill="none" stroke="midnightblue" d="M578.903,-142.89C604.793,-132.21 637.065,-118.898 661.008,-109.022"/>
<polygon fill="midnightblue" stroke="midnightblue" points="577.234,-139.792 569.324,-146.841 579.903,-146.264 577.234,-139.792"/>
</g>
<!-- Node5 -->
<g id="node5" class="node"><title>Node5</title>
<g id="a_node5"><a xlink:href="hashmap_8h.html" target="_top" xlink:title="include/shad/data_structures\l/hashmap.h">
<polygon fill="white" stroke="black" points="144,-79 144,-109 286,-109 286,-79 144,-79"/>
<text text-anchor="start" x="152" y="-97" font-family="Helvetica,sans-Serif" font-size="10.00">include/shad/data_structures</text>
<text text-anchor="middle" x="215" y="-86" font-family="Helvetica,sans-Serif" font-size="10.00">/hashmap.h</text>
</a>
</g>
</g>
<!-- Node1&#45;&gt;Node5 -->
<g id="edge4" class="edge"><title>Node1&#45;&gt;Node5</title>
<path fill="none" stroke="midnightblue" d="M456.685,-144.848C403.552,-133.889 333.995,-119.543 283.151,-109.056"/>
<polygon fill="midnightblue" stroke="midnightblue" points="456.244,-148.33 466.744,-146.922 457.658,-141.474 456.244,-148.33"/>
</g>
<!-- Node7 -->
<g id="node7" class="node"><title>Node7</title>
<g id="a_node7"><a xlink:href="one__per__locality_8h.html" target="_top" xlink:title="include/shad/data_structures\l/one_per_locality.h">
<polygon fill="white" stroke="black" points="464,-79 464,-109 606,-109 606,-79 464,-79"/>
<text text-anchor="start" x="472" y="-97" font-family="Helvetica,sans-Serif" font-size="10.00">include/shad/data_structures</text>
<text text-anchor="middle" x="535" y="-86" font-family="Helvetica,sans-Serif" font-size="10.00">/one_per_locality.h</text>
</a>
</g>
</g>
<!-- Node1&#45;&gt;Node7 -->
<g id="edge6" class="edge"><title>Node1&#45;&gt;Node7</title>
<path fill="none" stroke="midnightblue" d="M535,-136.532C535,-127.361 535,-117.245 535,-109.293"/>
<polygon fill="midnightblue" stroke="midnightblue" points="531.5,-136.679 535,-146.679 538.5,-136.679 531.5,-136.679"/>
</g>
<!-- Node8 -->
<g id="node8" class="node"><title>Node8</title>
<g id="a_node8"><a xlink:href="set_8h.html" target="_top" xlink:title="include/shad/data_structures\l/set.h">
<polygon fill="white" stroke="black" points="304,-79 304,-109 446,-109 446,-79 304,-79"/>
<text text-anchor="start" x="312" y="-97" font-family="Helvetica,sans-Serif" font-size="10.00">include/shad/data_structures</text>
<text text-anchor="middle" x="375" y="-86" font-family="Helvetica,sans-Serif" font-size="10.00">/set.h</text>
</a>
</g>
</g>
<!-- Node1&#45;&gt;Node8 -->
<g id="edge7" class="edge"><title>Node1&#45;&gt;Node8</title>
<path fill="none" stroke="midnightblue" d="M491.097,-142.89C465.207,-132.21 432.935,-118.898 408.992,-109.022"/>
<polygon fill="midnightblue" stroke="midnightblue" points="490.097,-146.264 500.676,-146.841 492.766,-139.792 490.097,-146.264"/>
</g>
<!-- Node10 -->
<g id="node10" class="node"><title>Node10</title>
<g id="a_node10"><a xlink:href="vector_8h.html" target="_top" xlink:title="include/shad/data_structures\l/vector.h">
<polygon fill="white" stroke="black" points="784,-79 784,-109 926,-109 926,-79 784,-79"/>
<text text-anchor="start" x="792" y="-97" font-family="Helvetica,sans-Serif" font-size="10.00">include/shad/data_structures</text>
<text text-anchor="middle" x="855" y="-86" font-family="Helvetica,sans-Serif" font-size="10.00">/vector.h</text>
</a>
</g>
</g>
<!-- Node1&#45;&gt;Node10 -->
<g id="edge10" class="edge"><title>Node1&#45;&gt;Node10</title>
<path fill="none" stroke="midnightblue" d="M613.315,-144.848C666.448,-133.889 736.005,-119.543 786.849,-109.056"/>
<polygon fill="midnightblue" stroke="midnightblue" points="612.342,-141.474 603.256,-146.922 613.756,-148.33 612.342,-141.474"/>
</g>
<!-- Node11 -->
<g id="node11" class="node"><title>Node11</title>
<g id="a_node11"><a xlink:href="edge__index_8h.html" target="_top" xlink:title="include/shad/extensions\l/graph_library/edge_index.h">
<polygon fill="white" stroke="black" points="944,-79 944,-109 1080,-109 1080,-79 944,-79"/>
<text text-anchor="start" x="952" y="-97" font-family="Helvetica,sans-Serif" font-size="10.00">include/shad/extensions</text>
<text text-anchor="middle" x="1012" y="-86" font-family="Helvetica,sans-Serif" font-size="10.00">/graph_library/edge_index.h</text>
</a>
</g>
</g>
<!-- Node1&#45;&gt;Node11 -->
<g id="edge11" class="edge"><title>Node1&#45;&gt;Node11</title>
<path fill="none" stroke="midnightblue" d="M616.139,-152.235C697.109,-143.117 824.972,-127.712 935,-110 937.824,-109.545 940.702,-109.065 943.608,-108.565"/>
<polygon fill="midnightblue" stroke="midnightblue" points="615.56,-148.778 606.012,-153.37 616.34,-155.734 615.56,-148.778"/>
</g>
<!-- Node4 -->
<g id="node4" class="node"><title>Node4</title>
<g id="a_node4"><a xlink:href="sssp_8h.html" target="_top" xlink:title="include/shad/extensions\l/graph_library/algorithms\l/sssp.h">
<polygon fill="white" stroke="black" points="633.5,-0.5 633.5,-41.5 756.5,-41.5 756.5,-0.5 633.5,-0.5"/>
<text text-anchor="start" x="641.5" y="-29.5" font-family="Helvetica,sans-Serif" font-size="10.00">include/shad/extensions</text>
<text text-anchor="start" x="641.5" y="-18.5" font-family="Helvetica,sans-Serif" font-size="10.00">/graph_library/algorithms</text>
<text text-anchor="middle" x="695" y="-7.5" font-family="Helvetica,sans-Serif" font-size="10.00">/sssp.h</text>
</a>
</g>
</g>
<!-- Node3&#45;&gt;Node4 -->
<g id="edge3" class="edge"><title>Node3&#45;&gt;Node4</title>
<path fill="none" stroke="midnightblue" d="M695,-68.8534C695,-59.9872 695,-50.065 695,-41.642"/>
<polygon fill="midnightblue" stroke="midnightblue" points="691.5,-68.9727 695,-78.9727 698.5,-68.9727 691.5,-68.9727"/>
</g>
<!-- Node6 -->
<g id="node6" class="node"><title>Node6</title>
<g id="a_node6"><a xlink:href="unordered__map_8h.html" target="_top" xlink:title="include/shad/core/unordered\l_map.h">
<polygon fill="white" stroke="black" points="145.5,-6 145.5,-36 284.5,-36 284.5,-6 145.5,-6"/>
<text text-anchor="start" x="153.5" y="-24" font-family="Helvetica,sans-Serif" font-size="10.00">include/shad/core/unordered</text>
<text text-anchor="middle" x="215" y="-13" font-family="Helvetica,sans-Serif" font-size="10.00">_map.h</text>
</a>
</g>
</g>
<!-- Node5&#45;&gt;Node6 -->
<g id="edge5" class="edge"><title>Node5&#45;&gt;Node6</title>
<path fill="none" stroke="midnightblue" d="M215,-68.8976C215,-58.1314 215,-45.8005 215,-36.4856"/>
<polygon fill="midnightblue" stroke="midnightblue" points="211.5,-68.9727 215,-78.9727 218.5,-68.9727 211.5,-68.9727"/>
</g>
<!-- Node8&#45;&gt;Node4 -->
<g id="edge9" class="edge"><title>Node8&#45;&gt;Node4</title>
<path fill="none" stroke="midnightblue" d="M448.071,-76.7874C504.027,-64.3721 580.351,-47.4377 633.27,-35.6964"/>
<polygon fill="midnightblue" stroke="midnightblue" points="447.226,-73.3896 438.222,-78.9727 448.742,-80.2234 447.226,-73.3896"/>
</g>
<!-- Node9 -->
<g id="node9" class="node"><title>Node9</title>
<g id="a_node9"><a xlink:href="unordered__set_8h.html" target="_top" xlink:title="include/shad/core/unordered\l_set.h">
<polygon fill="white" stroke="black" points="305.5,-6 305.5,-36 444.5,-36 444.5,-6 305.5,-6"/>
<text text-anchor="start" x="313.5" y="-24" font-family="Helvetica,sans-Serif" font-size="10.00">include/shad/core/unordered</text>
<text text-anchor="middle" x="375" y="-13" font-family="Helvetica,sans-Serif" font-size="10.00">_set.h</text>
</a>
</g>
</g>
<!-- Node8&#45;&gt;Node9 -->
<g id="edge8" class="edge"><title>Node8&#45;&gt;Node9</title>
<path fill="none" stroke="midnightblue" d="M375,-68.8976C375,-58.1314 375,-45.8005 375,-36.4856"/>
<polygon fill="midnightblue" stroke="midnightblue" points="371.5,-68.9727 375,-78.9727 378.5,-68.9727 371.5,-68.9727"/>
</g>
<!-- Node11&#45;&gt;Node4 -->
<g id="edge12" class="edge"><title>Node11&#45;&gt;Node4</title>
<path fill="none" stroke="midnightblue" d="M939.303,-76.7177C884.089,-64.3512 808.991,-47.5312 756.689,-35.8168"/>
<polygon fill="midnightblue" stroke="midnightblue" points="938.848,-80.2024 949.371,-78.9727 940.378,-73.3716 938.848,-80.2024"/>
</g>
<!-- Node12 -->
<g id="node12" class="node"><title>Node12</title>
<g id="a_node12"><a xlink:href="attributed__edge__index_8h.html" target="_top" xlink:title="include/shad/extensions\l/graph_library/attributed\l_edge_index.h">
<polygon fill="white" stroke="black" points="951,-0.5 951,-41.5 1073,-41.5 1073,-0.5 951,-0.5"/>
<text text-anchor="start" x="959" y="-29.5" font-family="Helvetica,sans-Serif" font-size="10.00">include/shad/extensions</text>
<text text-anchor="start" x="959" y="-18.5" font-family="Helvetica,sans-Serif" font-size="10.00">/graph_library/attributed</text>
<text text-anchor="middle" x="1012" y="-7.5" font-family="Helvetica,sans-Serif" font-size="10.00">_edge_index.h</text>
</a>
</g>
</g>
<!-- Node11&#45;&gt;Node12 -->
<g id="edge13" class="edge"><title>Node11&#45;&gt;Node12</title>
<path fill="none" stroke="midnightblue" d="M1012,-68.8534C1012,-59.9872 1012,-50.065 1012,-41.642"/>
<polygon fill="midnightblue" stroke="midnightblue" points="1008.5,-68.9727 1012,-78.9727 1015.5,-68.9727 1008.5,-68.9727"/>
</g>
</g>
</svg>
