<?xml version="1.0" encoding="UTF-8" standalone="no"?>
<!DOCTYPE svg PUBLIC "-//W3C//DTD SVG 1.1//EN"
 "http://www.w3.org/Graphics/SVG/1.1/DTD/svg11.dtd">
<!-- Generated by graphviz version 2.36.0 (20140111.2315)
 -->
<!-- Title: include/shad/core/algorithm.h Pages: 1 -->
<svg width="1756pt" height="548pt"
 viewBox="0.00 0.00 1755.50 548.00" xmlns="http://www.w3.org/2000/svg" xmlns:xlink="http://www.w3.org/1999/xlink">
<g id="graph0" class="graph" transform="scale(1 1) rotate(0) translate(4 544)">
<title>include/shad/core/algorithm.h</title>
<polygon fill="white" stroke="none" points="-4,4 -4,-544 1751.5,-544 1751.5,4 -4,4"/>
<!-- Node1 -->
<g id="node1" class="node"><title>Node1</title>
<polygon fill="#bfbfbf" stroke="black" points="774.505,-520.5 774.505,-539.5 918.505,-539.5 918.505,-520.5 774.505,-520.5"/>
<text text-anchor="middle" x="846.505" y="-527.5" font-family="Helvetica,sans-Serif" font-size="10.00">include/shad/core/algorithm.h</text>
</g>
<!-- Node2 -->
<g id="node2" class="node"><title>Node2</title>
<polygon fill="white" stroke="#bfbfbf" points="488.505,-328.5 488.505,-347.5 544.505,-347.5 544.505,-328.5 488.505,-328.5"/>
<text text-anchor="middle" x="516.505" y="-335.5" font-family="Helvetica,sans-Serif" font-size="10.00">algorithm</text>
</g>
<!-- Node1&#45;&gt;Node2 -->
<g id="edge1" class="edge"><title>Node1&#45;&gt;Node2</title>
<path fill="none" stroke="midnightblue" d="M824.588,-520.374C783.455,-503.644 692.779,-464.164 625.505,-416 608.893,-404.107 608.74,-396.401 592.505,-384 576.763,-371.975 557.554,-360.627 542.387,-352.335"/>
<polygon fill="midnightblue" stroke="midnightblue" points="544,-349.228 533.533,-347.588 540.693,-355.398 544,-349.228"/>
</g>
<!-- Node3 -->
<g id="node3" class="node"><title>Node3</title>
<polygon fill="white" stroke="#bfbfbf" points="15.0049,-198.5 15.0049,-217.5 74.0049,-217.5 74.0049,-198.5 15.0049,-198.5"/>
<text text-anchor="middle" x="44.5049" y="-205.5" font-family="Helvetica,sans-Serif" font-size="10.00">functional</text>
</g>
<!-- Node1&#45;&gt;Node3 -->
<g id="edge2" class="edge"><title>Node1&#45;&gt;Node3</title>
<path fill="none" stroke="midnightblue" d="M774.242,-526.939C631.63,-522.364 318.777,-509.68 214.505,-484 125.028,-461.964 24.5049,-493.15 24.5049,-401 24.5049,-401 24.5049,-401 24.5049,-337 24.5049,-297.601 33.8693,-252.188 39.7826,-227.44"/>
<polygon fill="midnightblue" stroke="midnightblue" points="43.2083,-228.166 42.2107,-217.619 36.4129,-226.486 43.2083,-228.166"/>
</g>
<!-- Node4 -->
<g id="node4" class="node"><title>Node4</title>
<polygon fill="white" stroke="#bfbfbf" points="1326,-198.5 1326,-217.5 1373,-217.5 1373,-198.5 1326,-198.5"/>
<text text-anchor="middle" x="1349.5" y="-205.5" font-family="Helvetica,sans-Serif" font-size="10.00">iterator</text>
</g>
<!-- Node1&#45;&gt;Node4 -->
<g id="edge3" class="edge"><title>Node1&#45;&gt;Node4</title>
<path fill="none" stroke="midnightblue" d="M918.635,-527.85C1067.35,-524.873 1403.35,-514.852 1513.5,-484 1588.75,-462.925 1668.5,-479.144 1668.5,-401 1668.5,-401 1668.5,-401 1668.5,-337 1668.5,-290.75 1638.7,-282.88 1598.5,-260 1529.19,-220.545 1433.64,-211.38 1383.44,-209.402"/>
<polygon fill="midnightblue" stroke="midnightblue" points="1383.26,-205.894 1373.15,-209.073 1383.04,-212.891 1383.26,-205.894"/>
</g>
<!-- Node5 -->
<g id="node5" class="node"><title>Node5</title>
<polygon fill="white" stroke="#bfbfbf" points="1697,-458.5 1697,-477.5 1748,-477.5 1748,-458.5 1697,-458.5"/>
<text text-anchor="middle" x="1722.5" y="-465.5" font-family="Helvetica,sans-Serif" font-size="10.00">numeric</text>
</g>
<!-- Node1&#45;&gt;Node5 -->
<g id="edge4" class="edge"><title>Node1&#45;&gt;Node5</title>
<path fill="none" stroke="midnightblue" d="M918.653,-527.932C1093.77,-524.885 1537.57,-514.328 1682.5,-484 1686.21,-483.225 1690.02,-482.164 1693.76,-480.961"/>
<polygon fill="midnightblue" stroke="midnightblue" points="1695.09,-484.203 1703.33,-477.545 1692.73,-477.61 1695.09,-484.203"/>
</g>
<!-- Node6 -->
<g id="node6" class="node"><title>Node6</title>
<polygon fill="white" stroke="#bfbfbf" points="1399.5,-266.5 1399.5,-285.5 1437.5,-285.5 1437.5,-266.5 1399.5,-266.5"/>
<text text-anchor="middle" x="1418.5" y="-273.5" font-family="Helvetica,sans-Serif" font-size="10.00">tuple</text>
</g>
<!-- Node1&#45;&gt;Node6 -->
<g id="edge5" class="edge"><title>Node1&#45;&gt;Node6</title>
<path fill="none" stroke="midnightblue" d="M918.701,-524.153C1008.32,-517.416 1155.57,-503.776 1206.5,-484 1304.38,-446.002 1380.94,-337.015 1407.97,-294.388"/>
<polygon fill="midnightblue" stroke="midnightblue" points="1411.06,-296.04 1413.37,-285.699 1405.11,-292.346 1411.06,-296.04"/>
</g>
<!-- Node7 -->
<g id="node7" class="node"><title>Node7</title>
<polygon fill="white" stroke="#bfbfbf" points="1100.5,-198.5 1100.5,-217.5 1140.5,-217.5 1140.5,-198.5 1100.5,-198.5"/>
<text text-anchor="middle" x="1120.5" y="-205.5" font-family="Helvetica,sans-Serif" font-size="10.00">utility</text>
</g>
<!-- Node1&#45;&gt;Node7 -->
<g id="edge6" class="edge"><title>Node1&#45;&gt;Node7</title>
<path fill="none" stroke="midnightblue" d="M918.617,-523.487C1098.84,-508.746 1554.5,-465.133 1554.5,-401 1554.5,-401 1554.5,-401 1554.5,-337 1554.5,-278.05 1501.47,-281.317 1446.5,-260 1322.54,-211.918 1276.57,-263.165 1149.5,-224 1147.6,-223.411 1145.66,-222.701 1143.75,-221.912"/>
<polygon fill="midnightblue" stroke="midnightblue" points="1145.06,-218.663 1134.53,-217.533 1142.06,-224.985 1145.06,-218.663"/>
</g>
<!-- Node8 -->
<g id="node8" class="node"><title>Node8</title>
<polygon fill="white" stroke="#bfbfbf" points="1158.5,-198.5 1158.5,-217.5 1202.5,-217.5 1202.5,-198.5 1158.5,-198.5"/>
<text text-anchor="middle" x="1180.5" y="-205.5" font-family="Helvetica,sans-Serif" font-size="10.00">vector</text>
</g>
<!-- Node1&#45;&gt;Node8 -->
<g id="edge7" class="edge"><title>Node1&#45;&gt;Node8</title>
<path fill="none" stroke="midnightblue" d="M918.811,-528.389C1022.52,-526.285 1219.02,-517.712 1382.5,-484 1496.34,-460.526 1630.5,-517.231 1630.5,-401 1630.5,-401 1630.5,-401 1630.5,-337 1630.5,-213.421 1307.84,-234.444 1249.5,-224 1237.49,-221.85 1224.39,-219.104 1212.86,-216.551"/>
<polygon fill="midnightblue" stroke="midnightblue" points="1213.32,-213.066 1202.8,-214.283 1211.78,-219.895 1213.32,-213.066"/>
</g>
<!-- Node9 -->
<g id="node9" class="node"><title>Node9</title>
<g id="a_node9"><a xlink:href="execution_8h.html" target="_top" xlink:title="shad/core/execution.h">
<polygon fill="white" stroke="black" points="129.005,-328.5 129.005,-347.5 242.005,-347.5 242.005,-328.5 129.005,-328.5"/>
<text text-anchor="middle" x="185.505" y="-335.5" font-family="Helvetica,sans-Serif" font-size="10.00">shad/core/execution.h</text>
</a>
</g>
</g>
<!-- Node1&#45;&gt;Node9 -->
<g id="edge8" class="edge"><title>Node1&#45;&gt;Node9</title>
<path fill="none" stroke="midnightblue" d="M774.37,-524.24C630.006,-513.392 312.219,-482.462 228.505,-416 209.438,-400.863 197.468,-374.825 191.135,-357.267"/>
<polygon fill="midnightblue" stroke="midnightblue" points="194.395,-355.98 187.907,-347.604 187.756,-358.198 194.395,-355.98"/>
</g>
<!-- Node11 -->
<g id="node11" class="node"><title>Node11</title>
<g id="a_node11"><a xlink:href="comparison__ops_8h.html" target="_top" xlink:title="shad/core/impl/comparison\l_ops.h">
<polygon fill="white" stroke="black" points="449.505,-385 449.505,-415 583.505,-415 583.505,-385 449.505,-385"/>
<text text-anchor="start" x="457.505" y="-403" font-family="Helvetica,sans-Serif" font-size="10.00">shad/core/impl/comparison</text>
<text text-anchor="middle" x="516.505" y="-392" font-family="Helvetica,sans-Serif" font-size="10.00">_ops.h</text>
</a>
</g>
</g>
<!-- Node1&#45;&gt;Node11 -->
<g id="edge10" class="edge"><title>Node1&#45;&gt;Node11</title>
<path fill="none" stroke="midnightblue" d="M774.3,-527.524C722.439,-523.79 652.307,-513.104 597.505,-484 570.21,-469.505 546.527,-442.554 531.937,-423.294"/>
<polygon fill="midnightblue" stroke="midnightblue" points="534.631,-421.05 525.893,-415.059 528.988,-425.191 534.631,-421.05"/>
</g>
<!-- Node12 -->
<g id="node12" class="node"><title>Node12</title>
<g id="a_node12"><a xlink:href="distributed__iterator__traits_8h.html" target="_top" xlink:title="shad/distributed_iterator\l_traits.h">
<polygon fill="white" stroke="black" points="1048,-261 1048,-291 1169,-291 1169,-261 1048,-261"/>
<text text-anchor="start" x="1056" y="-279" font-family="Helvetica,sans-Serif" font-size="10.00">shad/distributed_iterator</text>
<text text-anchor="middle" x="1108.5" y="-268" font-family="Helvetica,sans-Serif" font-size="10.00">_traits.h</text>
</a>
</g>
</g>
<!-- Node1&#45;&gt;Node12 -->
<g id="edge102" class="edge"><title>Node1&#45;&gt;Node12</title>
<path fill="none" stroke="midnightblue" d="M918.551,-528.625C1032.47,-523.488 1249,-494.016 1324.5,-348 1328.59,-340.104 1330.02,-334.97 1324.5,-328 1306.52,-305.28 1235.13,-291.654 1179.28,-284.278"/>
<polygon fill="midnightblue" stroke="midnightblue" points="1179.41,-280.766 1169.05,-282.972 1178.52,-287.71 1179.41,-280.766"/>
</g>
<!-- Node20 -->
<g id="node20" class="node"><title>Node20</title>
<g id="a_node20"><a xlink:href="runtime_8h.html" target="_top" xlink:title="shad/runtime/runtime.h">
<polygon fill="white" stroke="black" points="645.505,-266.5 645.505,-285.5 761.505,-285.5 761.505,-266.5 645.505,-266.5"/>
<text text-anchor="middle" x="703.505" y="-273.5" font-family="Helvetica,sans-Serif" font-size="10.00">shad/runtime/runtime.h</text>
</a>
</g>
</g>
<!-- Node1&#45;&gt;Node20 -->
<g id="edge103" class="edge"><title>Node1&#45;&gt;Node20</title>
<path fill="none" stroke="midnightblue" d="M774.394,-527.458C647.055,-524.004 387.755,-513.488 302.505,-484 206.738,-450.874 162.038,-439.976 119.505,-348 115.774,-339.932 113.499,-334.553 119.505,-328 153.753,-290.631 488.363,-280.538 635.113,-277.899"/>
<polygon fill="midnightblue" stroke="midnightblue" points="635.41,-281.394 645.348,-277.721 635.288,-274.395 635.41,-281.394"/>
</g>
<!-- Node30 -->
<g id="node30" class="node"><title>Node30</title>
<g id="a_node30"><a xlink:href="minimum__maximum__ops_8h.html" target="_top" xlink:title="shad/core/impl/minimum\l_maximum_ops.h">
<polygon fill="white" stroke="black" points="678.005,-385 678.005,-415 801.005,-415 801.005,-385 678.005,-385"/>
<text text-anchor="start" x="686.005" y="-403" font-family="Helvetica,sans-Serif" font-size="10.00">shad/core/impl/minimum</text>
<text text-anchor="middle" x="739.505" y="-392" font-family="Helvetica,sans-Serif" font-size="10.00">_maximum_ops.h</text>
</a>
</g>
</g>
<!-- Node1&#45;&gt;Node30 -->
<g id="edge52" class="edge"><title>Node1&#45;&gt;Node30</title>
<path fill="none" stroke="midnightblue" d="M839.15,-520.202C822.563,-500.359 781.823,-451.623 757.886,-422.988"/>
<polygon fill="midnightblue" stroke="midnightblue" points="760.427,-420.571 751.328,-415.143 755.056,-425.06 760.427,-420.571"/>
</g>
<!-- Node32 -->
<g id="node32" class="node"><title>Node32</title>
<g id="a_node32"><a xlink:href="modifyng__sequence__ops_8h.html" target="_top" xlink:title="shad/core/impl/modifyng\l_sequence_ops.h">
<polygon fill="white" stroke="black" points="851.005,-453 851.005,-483 974.005,-483 974.005,-453 851.005,-453"/>
<text text-anchor="start" x="859.005" y="-471" font-family="Helvetica,sans-Serif" font-size="10.00">shad/core/impl/modifyng</text>
<text text-anchor="middle" x="912.505" y="-460" font-family="Helvetica,sans-Serif" font-size="10.00">_sequence_ops.h</text>
</a>
</g>
</g>
<!-- Node1&#45;&gt;Node32 -->
<g id="edge71" class="edge"><title>Node1&#45;&gt;Node32</title>
<path fill="none" stroke="midnightblue" d="M855.961,-520.403C864.649,-512.505 877.88,-500.477 889.36,-490.041"/>
<polygon fill="midnightblue" stroke="midnightblue" points="891.905,-492.457 896.95,-483.141 887.196,-487.278 891.905,-492.457"/>
</g>
<!-- Node36 -->
<g id="node36" class="node"><title>Node36</title>
<g id="a_node36"><a xlink:href="non__modifyng__sequence__ops_8h.html" target="_top" xlink:title="shad/core/impl/non\l_modifyng_sequence_ops.h">
<polygon fill="white" stroke="black" points="293.505,-385 293.505,-415 431.505,-415 431.505,-385 293.505,-385"/>
<text text-anchor="start" x="301.505" y="-403" font-family="Helvetica,sans-Serif" font-size="10.00">shad/core/impl/non</text>
<text text-anchor="middle" x="362.505" y="-392" font-family="Helvetica,sans-Serif" font-size="10.00">_modifyng_sequence_ops.h</text>
</a>
</g>
</g>
<!-- Node1&#45;&gt;Node36 -->
<g id="edge92" class="edge"><title>Node1&#45;&gt;Node36</title>
<path fill="none" stroke="midnightblue" d="M774.301,-523.044C714.523,-516.889 627.822,-505.12 554.505,-484 497.887,-467.69 435.912,-438.714 398.114,-419.679"/>
<polygon fill="midnightblue" stroke="midnightblue" points="399.543,-416.479 389.043,-415.067 396.371,-422.719 399.543,-416.479"/>
</g>
<!-- Node10 -->
<g id="node10" class="node"><title>Node10</title>
<polygon fill="white" stroke="#bfbfbf" points="80.5049,-130.5 80.5049,-149.5 142.505,-149.5 142.505,-130.5 80.5049,-130.5"/>
<text text-anchor="middle" x="111.505" y="-137.5" font-family="Helvetica,sans-Serif" font-size="10.00">type_traits</text>
</g>
<!-- Node9&#45;&gt;Node10 -->
<g id="edge9" class="edge"><title>Node9&#45;&gt;Node10</title>
<path fill="none" stroke="midnightblue" d="M155.829,-328.403C113.576,-314.375 37.6432,-282.122 5.50494,-224 -1.37713,-211.554 -2.0639,-204.041 5.50494,-192 19.7695,-169.307 47.2701,-156.478 70.6851,-149.363"/>
<polygon fill="midnightblue" stroke="midnightblue" points="71.7254,-152.706 80.4195,-146.651 69.847,-145.963 71.7254,-152.706"/>
</g>
<!-- Node11&#45;&gt;Node2 -->
<g id="edge11" class="edge"><title>Node11&#45;&gt;Node2</title>
<path fill="none" stroke="midnightblue" d="M516.505,-384.781C516.505,-376.781 516.505,-366.689 516.505,-358.017"/>
<polygon fill="midnightblue" stroke="midnightblue" points="520.005,-357.73 516.505,-347.731 513.005,-357.731 520.005,-357.73"/>
</g>
<!-- Node11&#45;&gt;Node3 -->
<g id="edge12" class="edge"><title>Node11&#45;&gt;Node3</title>
<path fill="none" stroke="midnightblue" d="M482.212,-384.812C420.825,-359.462 288.049,-304.842 175.505,-260 141.73,-246.543 102.904,-231.478 76.3423,-221.233"/>
<polygon fill="midnightblue" stroke="midnightblue" points="77.3885,-217.885 66.7988,-217.556 74.8718,-224.417 77.3885,-217.885"/>
</g>
<!-- Node11&#45;&gt;Node4 -->
<g id="edge13" class="edge"><title>Node11&#45;&gt;Node4</title>
<path fill="none" stroke="midnightblue" d="M583.612,-392.127C709.85,-379.151 971.817,-351.985 991.505,-348 1033.81,-339.437 1140.13,-313.59 1177.5,-292 1195.47,-281.621 1193.74,-270.717 1211.5,-260 1253.75,-234.522 1270.66,-242.228 1316.5,-224 1318.35,-223.268 1320.24,-222.488 1322.13,-221.685"/>
<polygon fill="midnightblue" stroke="midnightblue" points="1323.74,-224.8 1331.48,-217.57 1320.92,-218.393 1323.74,-224.8"/>
</g>
<!-- Node11&#45;&gt;Node9 -->
<g id="edge14" class="edge"><title>Node11&#45;&gt;Node9</title>
<path fill="none" stroke="midnightblue" d="M449.382,-385.676C446.383,-385.105 443.413,-384.544 440.505,-384 374.013,-371.573 297.59,-358.208 245.881,-349.301"/>
<polygon fill="midnightblue" stroke="midnightblue" points="246.327,-345.826 235.878,-347.581 245.14,-352.725 246.327,-345.826"/>
</g>
<!-- Node11&#45;&gt;Node12 -->
<g id="edge15" class="edge"><title>Node11&#45;&gt;Node12</title>
<path fill="none" stroke="midnightblue" d="M583.65,-392.36C697.541,-380.92 919.681,-357.786 954.505,-348 966.362,-344.668 1028.52,-315.353 1070.15,-295.449"/>
<polygon fill="midnightblue" stroke="midnightblue" points="1071.71,-298.585 1079.22,-291.11 1068.69,-292.271 1071.71,-298.585"/>
</g>
<!-- Node11&#45;&gt;Node20 -->
<g id="edge25" class="edge"><title>Node11&#45;&gt;Node20</title>
<path fill="none" stroke="midnightblue" d="M500.095,-384.985C484.471,-369.945 465.287,-345.818 479.505,-328 498.787,-303.834 576.865,-290.233 635.455,-283.265"/>
<polygon fill="midnightblue" stroke="midnightblue" points="635.877,-286.739 645.412,-282.121 635.078,-279.785 635.877,-286.739"/>
</g>
<!-- Node12&#45;&gt;Node4 -->
<g id="edge17" class="edge"><title>Node12&#45;&gt;Node4</title>
<path fill="none" stroke="midnightblue" d="M1169.12,-261.455C1220.36,-249.764 1289.59,-233.327 1316.5,-224 1318.63,-223.263 1320.81,-222.44 1322.98,-221.568"/>
<polygon fill="midnightblue" stroke="midnightblue" points="1324.48,-224.73 1332.28,-217.559 1321.71,-218.301 1324.48,-224.73"/>
</g>
<!-- Node13 -->
<g id="node13" class="node"><title>Node13</title>
<polygon fill="white" stroke="#bfbfbf" points="1259,-198.5 1259,-217.5 1308,-217.5 1308,-198.5 1259,-198.5"/>
<text text-anchor="middle" x="1283.5" y="-205.5" font-family="Helvetica,sans-Serif" font-size="10.00">cassert</text>
</g>
<!-- Node12&#45;&gt;Node13 -->
<g id="edge16" class="edge"><title>Node12&#45;&gt;Node13</title>
<path fill="none" stroke="midnightblue" d="M1146.35,-260.905C1173.65,-250.713 1211.38,-236.579 1244.5,-224 1246.88,-223.099 1249.33,-222.163 1251.8,-221.22"/>
<polygon fill="midnightblue" stroke="midnightblue" points="1253.16,-224.447 1261.24,-217.599 1250.65,-217.911 1253.16,-224.447"/>
</g>
<!-- Node14 -->
<g id="node14" class="node"><title>Node14</title>
<g id="a_node14"><a xlink:href="locality_8h.html" target="_top" xlink:title="shad/runtime/locality.h">
<polygon fill="white" stroke="black" points="845.005,-130.5 845.005,-149.5 960.005,-149.5 960.005,-130.5 845.005,-130.5"/>
<text text-anchor="middle" x="902.505" y="-137.5" font-family="Helvetica,sans-Serif" font-size="10.00">shad/runtime/locality.h</text>
</a>
</g>
</g>
<!-- Node12&#45;&gt;Node14 -->
<g id="edge18" class="edge"><title>Node12&#45;&gt;Node14</title>
<path fill="none" stroke="midnightblue" d="M1162.23,-260.937C1180.82,-253.216 1199.68,-241.515 1210.5,-224 1217.98,-211.902 1219.74,-202.816 1210.5,-192 1177.34,-153.159 1033.84,-164.651 983.505,-156 975.096,-154.555 966.208,-152.969 957.52,-151.386"/>
<polygon fill="midnightblue" stroke="midnightblue" points="957.922,-147.901 947.455,-149.538 956.658,-154.786 957.922,-147.901"/>
</g>
<!-- Node15 -->
<g id="node15" class="node"><title>Node15</title>
<polygon fill="white" stroke="#bfbfbf" points="514.505,-62.5 514.505,-81.5 560.505,-81.5 560.505,-62.5 514.505,-62.5"/>
<text text-anchor="middle" x="537.505" y="-69.5" font-family="Helvetica,sans-Serif" font-size="10.00">cstdint</text>
</g>
<!-- Node14&#45;&gt;Node15 -->
<g id="edge19" class="edge"><title>Node14&#45;&gt;Node15</title>
<path fill="none" stroke="midnightblue" d="M862.564,-130.434C852.142,-128.266 840.914,-125.99 830.505,-124 736.603,-106.051 625.261,-87.3872 570.828,-78.4317"/>
<polygon fill="midnightblue" stroke="midnightblue" points="571.157,-74.939 560.722,-76.7732 570.023,-81.8466 571.157,-74.939"/>
</g>
<!-- Node16 -->
<g id="node16" class="node"><title>Node16</title>
<polygon fill="white" stroke="#bfbfbf" points="415.505,-0.5 415.505,-19.5 519.505,-19.5 519.505,-0.5 415.505,-0.5"/>
<text text-anchor="middle" x="467.505" y="-7.5" font-family="Helvetica,sans-Serif" font-size="10.00">shad/config/config.h</text>
</g>
<!-- Node14&#45;&gt;Node16 -->
<g id="edge20" class="edge"><title>Node14&#45;&gt;Node16</title>
<path fill="none" stroke="midnightblue" d="M873.288,-130.403C797.061,-107.973 592.121,-47.6687 506.223,-22.3928"/>
<polygon fill="midnightblue" stroke="midnightblue" points="507.176,-19.025 496.595,-19.5598 505.2,-25.7404 507.176,-19.025"/>
</g>
<!-- Node17 -->
<g id="node17" class="node"><title>Node17</title>
<g id="a_node17"><a xlink:href="mapping__traits_8h.html" target="_top" xlink:title="shad/runtime/mapping\l_traits.h">
<polygon fill="white" stroke="black" points="813.005,-57 813.005,-87 926.005,-87 926.005,-57 813.005,-57"/>
<text text-anchor="start" x="821.005" y="-75" font-family="Helvetica,sans-Serif" font-size="10.00">shad/runtime/mapping</text>
<text text-anchor="middle" x="869.505" y="-64" font-family="Helvetica,sans-Serif" font-size="10.00">_traits.h</text>
</a>
</g>
</g>
<!-- Node14&#45;&gt;Node17 -->
<g id="edge21" class="edge"><title>Node14&#45;&gt;Node17</title>
<path fill="none" stroke="midnightblue" d="M898.191,-130.372C893.862,-121.714 887.005,-108.001 881.081,-96.152"/>
<polygon fill="midnightblue" stroke="midnightblue" points="884.198,-94.5605 876.596,-87.1815 877.937,-97.691 884.198,-94.5605"/>
</g>
<!-- Node19 -->
<g id="node19" class="node"><title>Node19</title>
<g id="a_node19"><a xlink:href="available__traits__mappings_8h.html" target="_top" xlink:title="shad/runtime/mappings\l/available_traits_mappings.h">
<polygon fill="white" stroke="black" points="309.505,-57 309.505,-87 449.505,-87 449.505,-57 309.505,-57"/>
<text text-anchor="start" x="317.505" y="-75" font-family="Helvetica,sans-Serif" font-size="10.00">shad/runtime/mappings</text>
<text text-anchor="middle" x="379.505" y="-64" font-family="Helvetica,sans-Serif" font-size="10.00">/available_traits_mappings.h</text>
</a>
</g>
</g>
<!-- Node14&#45;&gt;Node19 -->
<g id="edge24" class="edge"><title>Node14&#45;&gt;Node19</title>
<path fill="none" stroke="midnightblue" d="M844.768,-130.628C829.115,-128.413 812.167,-126.066 796.505,-124 733.349,-115.67 562.224,-94.962 459.882,-82.6469"/>
<polygon fill="midnightblue" stroke="midnightblue" points="460.24,-79.1648 449.893,-81.4453 459.404,-86.1147 460.24,-79.1648"/>
</g>
<!-- Node17&#45;&gt;Node16 -->
<g id="edge23" class="edge"><title>Node17&#45;&gt;Node16</title>
<path fill="none" stroke="midnightblue" d="M812.761,-62.5307C738.091,-51.3859 607.283,-31.8624 529.899,-20.3126"/>
<polygon fill="midnightblue" stroke="midnightblue" points="530.216,-16.8212 519.809,-18.8066 529.183,-23.7445 530.216,-16.8212"/>
</g>
<!-- Node18 -->
<g id="node18" class="node"><title>Node18</title>
<polygon fill="white" stroke="#bfbfbf" points="849.005,-0.5 849.005,-19.5 890.005,-19.5 890.005,-0.5 849.005,-0.5"/>
<text text-anchor="middle" x="869.505" y="-7.5" font-family="Helvetica,sans-Serif" font-size="10.00">string</text>
</g>
<!-- Node17&#45;&gt;Node18 -->
<g id="edge22" class="edge"><title>Node17&#45;&gt;Node18</title>
<path fill="none" stroke="midnightblue" d="M869.505,-56.7808C869.505,-48.7812 869.505,-38.6887 869.505,-30.0168"/>
<polygon fill="midnightblue" stroke="midnightblue" points="873.005,-29.7305 869.505,-19.7305 866.005,-29.7306 873.005,-29.7305"/>
</g>
<!-- Node20&#45;&gt;Node3 -->
<g id="edge28" class="edge"><title>Node20&#45;&gt;Node3</title>
<path fill="none" stroke="midnightblue" d="M645.221,-270.063C546.292,-261.553 339.225,-243.182 164.505,-224 137.72,-221.059 107.63,-217.297 84.2819,-214.276"/>
<polygon fill="midnightblue" stroke="midnightblue" points="84.433,-210.766 74.0648,-212.946 83.5292,-217.708 84.433,-210.766"/>
</g>
<!-- Node20&#45;&gt;Node4 -->
<g id="edge30" class="edge"><title>Node20&#45;&gt;Node4</title>
<path fill="none" stroke="midnightblue" d="M761.747,-270.697C909.641,-259.696 1289.91,-230.927 1316.5,-224 1319.01,-223.348 1321.56,-222.518 1324.08,-221.584"/>
<polygon fill="midnightblue" stroke="midnightblue" points="1325.61,-224.738 1333.46,-217.627 1322.89,-218.288 1325.61,-224.738"/>
</g>
<!-- Node20&#45;&gt;Node7 -->
<g id="edge35" class="edge"><title>Node20&#45;&gt;Node7</title>
<path fill="none" stroke="midnightblue" d="M761.811,-268.157C861.261,-256.349 1055.95,-232.586 1086.5,-224 1089,-223.298 1091.56,-222.445 1094.09,-221.507"/>
<polygon fill="midnightblue" stroke="midnightblue" points="1095.65,-224.651 1103.56,-217.604 1092.98,-218.179 1095.65,-224.651"/>
</g>
<!-- Node20&#45;&gt;Node8 -->
<g id="edge36" class="edge"><title>Node20&#45;&gt;Node8</title>
<path fill="none" stroke="midnightblue" d="M761.622,-269.454C873.953,-258.572 1113.06,-234.569 1149.5,-224 1151.7,-223.364 1153.93,-222.584 1156.13,-221.717"/>
<polygon fill="midnightblue" stroke="midnightblue" points="1157.76,-224.821 1165.46,-217.537 1154.9,-218.433 1157.76,-224.821"/>
</g>
<!-- Node20&#45;&gt;Node14 -->
<g id="edge43" class="edge"><title>Node20&#45;&gt;Node14</title>
<path fill="none" stroke="midnightblue" d="M761.559,-268.116C837.586,-258.51 962.874,-240.413 976.505,-224 985.591,-213.059 983.119,-204.591 976.505,-192 967.528,-174.911 949.945,-162.428 934.17,-154.09"/>
<polygon fill="midnightblue" stroke="midnightblue" points="935.687,-150.936 925.17,-149.657 932.594,-157.215 935.687,-150.936"/>
</g>
<!-- Node20&#45;&gt;Node15 -->
<g id="edge27" class="edge"><title>Node20&#45;&gt;Node15</title>
<path fill="none" stroke="midnightblue" d="M645.386,-269.742C586.612,-263.079 501.644,-249.29 481.505,-224 464.39,-202.508 506.554,-125.027 527.07,-90.1842"/>
<polygon fill="midnightblue" stroke="midnightblue" points="530.092,-91.9495 532.215,-81.5695 524.083,-88.3602 530.092,-91.9495"/>
</g>
<!-- Node20&#45;&gt;Node16 -->
<g id="edge37" class="edge"><title>Node20&#45;&gt;Node16</title>
<path fill="none" stroke="midnightblue" d="M645.049,-271.195C515.078,-262.455 212.365,-240.433 197.505,-224 150.98,-172.55 148.428,-148.749 269.505,-56 308.284,-26.2937 363.097,-15.5622 405.222,-11.9675"/>
<polygon fill="midnightblue" stroke="midnightblue" points="405.653,-15.4454 415.367,-11.2173 405.136,-8.46441 405.653,-15.4454"/>
</g>
<!-- Node20&#45;&gt;Node17 -->
<g id="edge44" class="edge"><title>Node20&#45;&gt;Node17</title>
<path fill="none" stroke="midnightblue" d="M761.58,-268.394C846.584,-258.301 997.061,-238.671 1017.5,-224 1045.29,-204.062 1045.26,-189.188 1053.5,-156 1056.93,-142.197 1062.11,-135.32 1053.5,-124 1039.06,-105.011 982.692,-91.2524 936.108,-82.8458"/>
<polygon fill="midnightblue" stroke="midnightblue" points="936.486,-79.3588 926.032,-81.0818 935.279,-86.254 936.486,-79.3588"/>
</g>
<!-- Node21 -->
<g id="node21" class="node"><title>Node21</title>
<polygon fill="white" stroke="#bfbfbf" points="739.005,-130.5 739.005,-149.5 788.005,-149.5 788.005,-130.5 739.005,-130.5"/>
<text text-anchor="middle" x="763.505" y="-137.5" font-family="Helvetica,sans-Serif" font-size="10.00">cstddef</text>
</g>
<!-- Node20&#45;&gt;Node21 -->
<g id="edge26" class="edge"><title>Node20&#45;&gt;Node21</title>
<path fill="none" stroke="midnightblue" d="M715.127,-266.256C726.417,-257.064 743.054,-241.523 751.505,-224 761.362,-203.56 763.665,-177.243 763.958,-159.782"/>
<polygon fill="midnightblue" stroke="midnightblue" points="767.458,-159.724 763.919,-149.737 760.458,-159.751 767.458,-159.724"/>
</g>
<!-- Node22 -->
<g id="node22" class="node"><title>Node22</title>
<polygon fill="white" stroke="#bfbfbf" points="490.505,-198.5 490.505,-217.5 544.505,-217.5 544.505,-198.5 490.505,-198.5"/>
<text text-anchor="middle" x="517.505" y="-205.5" font-family="Helvetica,sans-Serif" font-size="10.00">iostream</text>
</g>
<!-- Node20&#45;&gt;Node22 -->
<g id="edge29" class="edge"><title>Node20&#45;&gt;Node22</title>
<path fill="none" stroke="midnightblue" d="M676.486,-266.418C646.304,-256.691 596.088,-240.09 553.505,-224 551.395,-223.203 549.225,-222.359 547.045,-221.494"/>
<polygon fill="midnightblue" stroke="midnightblue" points="548.174,-218.175 537.592,-217.649 545.536,-224.659 548.174,-218.175"/>
</g>
<!-- Node23 -->
<g id="node23" class="node"><title>Node23</title>
<polygon fill="white" stroke="#bfbfbf" points="563.005,-198.5 563.005,-217.5 598.005,-217.5 598.005,-198.5 563.005,-198.5"/>
<text text-anchor="middle" x="580.505" y="-205.5" font-family="Helvetica,sans-Serif" font-size="10.00">map</text>
</g>
<!-- Node20&#45;&gt;Node23 -->
<g id="edge31" class="edge"><title>Node20&#45;&gt;Node23</title>
<path fill="none" stroke="midnightblue" d="M687.148,-266.43C668.002,-256.371 635.364,-239.137 607.505,-224 606.68,-223.552 605.842,-223.095 604.997,-222.633"/>
<polygon fill="midnightblue" stroke="midnightblue" points="606.345,-219.38 595.898,-217.617 602.966,-225.51 606.345,-219.38"/>
</g>
<!-- Node24 -->
<g id="node24" class="node"><title>Node24</title>
<polygon fill="white" stroke="#bfbfbf" points="992.505,-130.5 992.505,-149.5 1044.5,-149.5 1044.5,-130.5 992.505,-130.5"/>
<text text-anchor="middle" x="1018.5" y="-137.5" font-family="Helvetica,sans-Serif" font-size="10.00">memory</text>
</g>
<!-- Node20&#45;&gt;Node24 -->
<g id="edge32" class="edge"><title>Node20&#45;&gt;Node24</title>
<path fill="none" stroke="midnightblue" d="M761.788,-268.056C841.432,-258.072 976.4,-239.19 993.505,-224 1011.76,-207.787 1016.92,-178.786 1018.25,-159.719"/>
<polygon fill="midnightblue" stroke="midnightblue" points="1021.75,-159.707 1018.66,-149.573 1014.76,-159.422 1021.75,-159.707"/>
</g>
<!-- Node25 -->
<g id="node25" class="node"><title>Node25</title>
<polygon fill="white" stroke="#bfbfbf" points="616.505,-198.5 616.505,-217.5 646.505,-217.5 646.505,-198.5 616.505,-198.5"/>
<text text-anchor="middle" x="631.505" y="-205.5" font-family="Helvetica,sans-Serif" font-size="10.00">set</text>
</g>
<!-- Node20&#45;&gt;Node25 -->
<g id="edge33" class="edge"><title>Node20&#45;&gt;Node25</title>
<path fill="none" stroke="midnightblue" d="M694.092,-266.372C682.621,-255.856 663.013,-237.882 648.795,-224.85"/>
<polygon fill="midnightblue" stroke="midnightblue" points="650.886,-222.018 641.15,-217.841 646.156,-227.178 650.886,-222.018"/>
</g>
<!-- Node26 -->
<g id="node26" class="node"><title>Node26</title>
<polygon fill="white" stroke="#bfbfbf" points="664.505,-198.5 664.505,-217.5 742.505,-217.5 742.505,-198.5 664.505,-198.5"/>
<text text-anchor="middle" x="703.505" y="-205.5" font-family="Helvetica,sans-Serif" font-size="10.00">unordered_set</text>
</g>
<!-- Node20&#45;&gt;Node26 -->
<g id="edge34" class="edge"><title>Node20&#45;&gt;Node26</title>
<path fill="none" stroke="midnightblue" d="M703.505,-266.372C703.505,-256.643 703.505,-240.528 703.505,-227.85"/>
<polygon fill="midnightblue" stroke="midnightblue" points="707.005,-227.841 703.505,-217.841 700.005,-227.841 707.005,-227.841"/>
</g>
<!-- Node27 -->
<g id="node27" class="node"><title>Node27</title>
<g id="a_node27"><a xlink:href="handle_8h.html" target="_top" xlink:title="shad/runtime/handle.h">
<polygon fill="white" stroke="black" points="207.005,-198.5 207.005,-217.5 320.005,-217.5 320.005,-198.5 207.005,-198.5"/>
<text text-anchor="middle" x="263.505" y="-205.5" font-family="Helvetica,sans-Serif" font-size="10.00">shad/runtime/handle.h</text>
</a>
</g>
</g>
<!-- Node20&#45;&gt;Node27 -->
<g id="edge38" class="edge"><title>Node20&#45;&gt;Node27</title>
<path fill="none" stroke="midnightblue" d="M645.467,-268.269C572.614,-259.524 443.925,-243.095 334.505,-224 326.997,-222.69 319.073,-221.161 311.349,-219.591"/>
<polygon fill="midnightblue" stroke="midnightblue" points="311.864,-216.123 301.361,-217.517 310.441,-222.977 311.864,-216.123"/>
</g>
<!-- Node28 -->
<g id="node28" class="node"><title>Node28</title>
<g id="a_node28"><a xlink:href="available__mappings_8h.html" target="_top" xlink:title="shad/runtime/mappings\l/available_mappings.h">
<polygon fill="white" stroke="black" points="320.505,-125 320.505,-155 438.505,-155 438.505,-125 320.505,-125"/>
<text text-anchor="start" x="328.505" y="-143" font-family="Helvetica,sans-Serif" font-size="10.00">shad/runtime/mappings</text>
<text text-anchor="middle" x="379.505" y="-132" font-family="Helvetica,sans-Serif" font-size="10.00">/available_mappings.h</text>
</a>
</g>
</g>
<!-- Node20&#45;&gt;Node28 -->
<g id="edge45" class="edge"><title>Node20&#45;&gt;Node28</title>
<path fill="none" stroke="midnightblue" d="M645.471,-271.651C570.488,-266.206 445.416,-252.981 410.505,-224 393.011,-209.478 385.384,-184.055 382.062,-165.161"/>
<polygon fill="midnightblue" stroke="midnightblue" points="385.512,-164.568 380.592,-155.185 378.587,-165.588 385.512,-164.568"/>
</g>
<!-- Node29 -->
<g id="node29" class="node"><title>Node29</title>
<g id="a_node29"><a xlink:href="synchronous__interface_8h.html" target="_top" xlink:title="shad/runtime/synchronous\l_interface.h">
<polygon fill="white" stroke="black" points="837.005,-193 837.005,-223 968.005,-223 968.005,-193 837.005,-193"/>
<text text-anchor="start" x="845.005" y="-211" font-family="Helvetica,sans-Serif" font-size="10.00">shad/runtime/synchronous</text>
<text text-anchor="middle" x="902.505" y="-200" font-family="Helvetica,sans-Serif" font-size="10.00">_interface.h</text>
</a>
</g>
</g>
<!-- Node20&#45;&gt;Node29 -->
<g id="edge47" class="edge"><title>Node20&#45;&gt;Node29</title>
<path fill="none" stroke="midnightblue" d="M729.521,-266.372C760.115,-256.225 811.65,-239.133 850.531,-226.237"/>
<polygon fill="midnightblue" stroke="midnightblue" points="851.734,-229.526 860.123,-223.056 849.53,-222.882 851.734,-229.526"/>
</g>
<!-- Node27&#45;&gt;Node10 -->
<g id="edge39" class="edge"><title>Node27&#45;&gt;Node10</title>
<path fill="none" stroke="midnightblue" d="M243.634,-198.372C217.348,-186.958 170.822,-166.756 140.581,-153.625"/>
<polygon fill="midnightblue" stroke="midnightblue" points="141.948,-150.403 131.381,-149.63 139.16,-156.824 141.948,-150.403"/>
</g>
<!-- Node27&#45;&gt;Node16 -->
<g id="edge40" class="edge"><title>Node27&#45;&gt;Node16</title>
<path fill="none" stroke="midnightblue" d="M263.062,-198.34C262.567,-188.196 261.797,-170.884 261.505,-156 261.226,-141.781 257.844,-137.743 261.505,-124 270.474,-90.3342 272.91,-77.2684 300.505,-56 330.464,-32.9095 371.375,-21.6473 405.206,-16.1637"/>
<polygon fill="midnightblue" stroke="midnightblue" points="406.08,-19.5722 415.458,-14.6407 405.052,-12.6482 406.08,-19.5722"/>
</g>
<!-- Node27&#45;&gt;Node17 -->
<g id="edge41" class="edge"><title>Node27&#45;&gt;Node17</title>
<path fill="none" stroke="midnightblue" d="M265.649,-198.355C270.483,-180.891 284.016,-141.573 311.505,-124 352.035,-98.0895 663.058,-81.772 802.382,-75.6917"/>
<polygon fill="midnightblue" stroke="midnightblue" points="802.672,-79.1826 812.512,-75.2545 802.37,-72.1891 802.672,-79.1826"/>
</g>
<!-- Node27&#45;&gt;Node19 -->
<g id="edge42" class="edge"><title>Node27&#45;&gt;Node19</title>
<path fill="none" stroke="midnightblue" d="M262.696,-198.256C261.661,-181.955 261.692,-146.534 278.505,-124 289.257,-109.589 305.233,-98.9627 321.322,-91.2578"/>
<polygon fill="midnightblue" stroke="midnightblue" points="323.058,-94.3165 330.77,-87.0522 320.211,-87.9215 323.058,-94.3165"/>
</g>
<!-- Node28&#45;&gt;Node19 -->
<g id="edge46" class="edge"><title>Node28&#45;&gt;Node19</title>
<path fill="none" stroke="midnightblue" d="M379.505,-124.679C379.505,-116.722 379.505,-106.605 379.505,-97.4356"/>
<polygon fill="midnightblue" stroke="midnightblue" points="383.005,-97.293 379.505,-87.2931 376.005,-97.2931 383.005,-97.293"/>
</g>
<!-- Node29&#45;&gt;Node14 -->
<g id="edge51" class="edge"><title>Node29&#45;&gt;Node14</title>
<path fill="none" stroke="midnightblue" d="M902.505,-192.679C902.505,-183.101 902.505,-170.394 902.505,-159.977"/>
<polygon fill="midnightblue" stroke="midnightblue" points="906.005,-159.828 902.505,-149.828 899.005,-159.828 906.005,-159.828"/>
</g>
<!-- Node29&#45;&gt;Node15 -->
<g id="edge49" class="edge"><title>Node29&#45;&gt;Node15</title>
<path fill="none" stroke="midnightblue" d="M883.592,-192.893C870.093,-182.754 851.561,-168.691 835.505,-156 817.915,-142.096 816.783,-133.566 796.505,-124 721.048,-88.4048 621.931,-77.6442 570.965,-74.3977"/>
<polygon fill="midnightblue" stroke="midnightblue" points="571.032,-70.8958 560.846,-73.8127 570.627,-77.8841 571.032,-70.8958"/>
</g>
<!-- Node29&#45;&gt;Node21 -->
<g id="edge48" class="edge"><title>Node29&#45;&gt;Node21</title>
<path fill="none" stroke="midnightblue" d="M872.686,-192.841C848.427,-181.323 814.469,-165.199 790.891,-154.004"/>
<polygon fill="midnightblue" stroke="midnightblue" points="792.324,-150.809 781.79,-149.682 789.322,-157.133 792.324,-150.809"/>
</g>
<!-- Node29&#45;&gt;Node24 -->
<g id="edge50" class="edge"><title>Node29&#45;&gt;Node24</title>
<path fill="none" stroke="midnightblue" d="M927.39,-192.841C947.184,-181.579 974.718,-165.913 994.326,-154.757"/>
<polygon fill="midnightblue" stroke="midnightblue" points="996.285,-157.669 1003.25,-149.682 992.823,-151.585 996.285,-157.669"/>
</g>
<!-- Node30&#45;&gt;Node2 -->
<g id="edge53" class="edge"><title>Node30&#45;&gt;Node2</title>
<path fill="none" stroke="midnightblue" d="M687.221,-384.933C646.507,-373.978 590.953,-359.031 554.427,-349.203"/>
<polygon fill="midnightblue" stroke="midnightblue" points="555.224,-345.793 544.658,-346.575 553.405,-352.553 555.224,-345.793"/>
</g>
<!-- Node30&#45;&gt;Node3 -->
<g id="edge54" class="edge"><title>Node30&#45;&gt;Node3</title>
<path fill="none" stroke="midnightblue" d="M697.232,-384.968C668.578,-375.202 629.977,-361.548 596.505,-348 576.593,-339.941 573.13,-334.002 552.505,-328 442.183,-295.898 406.792,-324.221 296.505,-292 263.67,-282.407 258.732,-271.472 226.505,-260 166.79,-238.743 149.21,-242.239 88.5049,-224 85.1572,-222.994 81.6828,-221.899 78.2203,-220.774"/>
<polygon fill="midnightblue" stroke="midnightblue" points="79.2029,-217.413 68.6093,-217.573 76.9908,-224.054 79.2029,-217.413"/>
</g>
<!-- Node30&#45;&gt;Node4 -->
<g id="edge55" class="edge"><title>Node30&#45;&gt;Node4</title>
<path fill="none" stroke="midnightblue" d="M801.02,-385.685C804.223,-385.091 807.399,-384.525 810.505,-384 935.085,-362.924 971.195,-383.331 1092.5,-348 1148.63,-331.655 1159.95,-319.543 1211.5,-292 1253.42,-269.609 1300.5,-240.365 1327.42,-223.237"/>
<polygon fill="midnightblue" stroke="midnightblue" points="1329.52,-226.05 1336.06,-217.715 1325.75,-220.152 1329.52,-226.05"/>
</g>
<!-- Node30&#45;&gt;Node6 -->
<g id="edge56" class="edge"><title>Node30&#45;&gt;Node6</title>
<path fill="none" stroke="midnightblue" d="M801.373,-385.413C804.454,-384.898 807.511,-384.423 810.505,-384 1029.36,-353.085 1096.61,-417.259 1306.5,-348 1343.21,-335.89 1379.93,-309.132 1400.87,-292.144"/>
<polygon fill="midnightblue" stroke="midnightblue" points="1403.13,-294.822 1408.59,-285.742 1398.66,-289.435 1403.13,-294.822"/>
</g>
<!-- Node30&#45;&gt;Node8 -->
<g id="edge58" class="edge"><title>Node30&#45;&gt;Node8</title>
<path fill="none" stroke="midnightblue" d="M785.052,-384.967C813.541,-375.651 850.732,-362.498 882.505,-348 954.925,-314.953 965.614,-291.994 1038.5,-260 1085.99,-239.155 1101.38,-243.34 1149.5,-224 1151.14,-223.341 1152.82,-222.634 1154.5,-221.899"/>
<polygon fill="midnightblue" stroke="midnightblue" points="1156.35,-224.897 1163.96,-217.522 1153.42,-218.544 1156.35,-224.897"/>
</g>
<!-- Node30&#45;&gt;Node9 -->
<g id="edge59" class="edge"><title>Node30&#45;&gt;Node9</title>
<path fill="none" stroke="midnightblue" d="M677.834,-392.321C572.916,-380.958 360.56,-357.959 252.272,-346.231"/>
<polygon fill="midnightblue" stroke="midnightblue" points="252.443,-342.729 242.125,-345.132 251.69,-349.689 252.443,-342.729"/>
</g>
<!-- Node30&#45;&gt;Node10 -->
<g id="edge57" class="edge"><title>Node30&#45;&gt;Node10</title>
<path fill="none" stroke="midnightblue" d="M714.974,-384.88C685.777,-368.695 635.103,-342.534 588.505,-328 495.595,-299.022 466.995,-315.314 372.505,-292 328.43,-281.125 319.111,-272.625 275.505,-260 212.138,-241.654 177.953,-270.846 131.505,-224 114.66,-207.01 111.106,-178.448 110.779,-159.661"/>
<polygon fill="midnightblue" stroke="midnightblue" points="114.279,-159.693 110.893,-149.654 107.28,-159.613 114.279,-159.693"/>
</g>
<!-- Node30&#45;&gt;Node12 -->
<g id="edge60" class="edge"><title>Node30&#45;&gt;Node12</title>
<path fill="none" stroke="midnightblue" d="M801.028,-385.729C804.229,-385.124 807.403,-384.543 810.505,-384 924.546,-364.022 972.831,-413.2 1068.5,-348 1084.81,-336.889 1095.22,-316.815 1101.32,-300.839"/>
<polygon fill="midnightblue" stroke="midnightblue" points="1104.74,-301.664 1104.72,-291.069 1098.13,-299.36 1104.74,-301.664"/>
</g>
<!-- Node30&#45;&gt;Node20 -->
<g id="edge61" class="edge"><title>Node30&#45;&gt;Node20</title>
<path fill="none" stroke="midnightblue" d="M729.128,-384.59C722.622,-374.77 714.7,-361.202 710.505,-348 705.059,-330.861 703.539,-310.326 703.243,-295.759"/>
<polygon fill="midnightblue" stroke="midnightblue" points="706.743,-295.526 703.217,-285.535 699.743,-295.544 706.743,-295.526"/>
</g>
<!-- Node31 -->
<g id="node31" class="node"><title>Node31</title>
<g id="a_node31"><a xlink:href="impl__patterns_8h.html" target="_top" xlink:title="impl_patterns.h">
<polygon fill="white" stroke="black" points="791.005,-328.5 791.005,-347.5 874.005,-347.5 874.005,-328.5 791.005,-328.5"/>
<text text-anchor="middle" x="832.505" y="-335.5" font-family="Helvetica,sans-Serif" font-size="10.00">impl_patterns.h</text>
</a>
</g>
</g>
<!-- Node30&#45;&gt;Node31 -->
<g id="edge62" class="edge"><title>Node30&#45;&gt;Node31</title>
<path fill="none" stroke="midnightblue" d="M761.545,-384.781C776.401,-375.196 795.915,-362.606 810.719,-353.056"/>
<polygon fill="midnightblue" stroke="midnightblue" points="812.738,-355.918 819.244,-347.556 808.943,-350.036 812.738,-355.918"/>
</g>
<!-- Node31&#45;&gt;Node4 -->
<g id="edge64" class="edge"><title>Node31&#45;&gt;Node4</title>
<path fill="none" stroke="midnightblue" d="M847.101,-328.42C861.829,-319.636 885.104,-305.411 904.505,-292 923.809,-278.656 924.66,-268.574 946.505,-260 1100.3,-199.633 1156.91,-266.764 1316.5,-224 1319,-223.33 1321.55,-222.488 1324.07,-221.547"/>
<polygon fill="midnightblue" stroke="midnightblue" points="1325.6,-224.699 1333.45,-217.579 1322.88,-218.252 1325.6,-224.699"/>
</g>
<!-- Node31&#45;&gt;Node6 -->
<g id="edge65" class="edge"><title>Node31&#45;&gt;Node6</title>
<path fill="none" stroke="midnightblue" d="M874.179,-332.733C986.345,-321.248 1292.65,-289.886 1389.05,-280.016"/>
<polygon fill="midnightblue" stroke="midnightblue" points="1389.65,-283.473 1399.24,-278.973 1388.93,-276.51 1389.65,-283.473"/>
</g>
<!-- Node31&#45;&gt;Node7 -->
<g id="edge67" class="edge"><title>Node31&#45;&gt;Node7</title>
<path fill="none" stroke="midnightblue" d="M834.134,-328.168C837.64,-311.845 847.526,-277.064 870.505,-260 948.641,-201.976 993.254,-251.86 1086.5,-224 1088.94,-223.273 1091.43,-222.414 1093.9,-221.482"/>
<polygon fill="midnightblue" stroke="midnightblue" points="1095.27,-224.702 1103.17,-217.645 1092.6,-218.234 1095.27,-224.702"/>
</g>
<!-- Node31&#45;&gt;Node8 -->
<g id="edge68" class="edge"><title>Node31&#45;&gt;Node8</title>
<path fill="none" stroke="midnightblue" d="M839.888,-328.231C855.529,-309.879 891.927,-268.423 908.505,-260 1005.06,-210.942 1046.03,-255.95 1149.5,-224 1151.64,-223.341 1153.81,-222.554 1155.97,-221.692"/>
<polygon fill="midnightblue" stroke="midnightblue" points="1157.42,-224.874 1165.11,-217.583 1154.55,-218.49 1157.42,-224.874"/>
</g>
<!-- Node31&#45;&gt;Node10 -->
<g id="edge66" class="edge"><title>Node31&#45;&gt;Node10</title>
<path fill="none" stroke="midnightblue" d="M790.931,-330.197C645.956,-306.445 171.151,-228.402 164.505,-224 141.053,-208.466 125.854,-178.615 117.987,-159.267"/>
<polygon fill="midnightblue" stroke="midnightblue" points="121.194,-157.855 114.364,-149.756 114.653,-160.347 121.194,-157.855"/>
</g>
<!-- Node31&#45;&gt;Node12 -->
<g id="edge69" class="edge"><title>Node31&#45;&gt;Node12</title>
<path fill="none" stroke="midnightblue" d="M871.756,-328.467C914.889,-319.09 985.05,-303.838 1037.82,-292.367"/>
<polygon fill="midnightblue" stroke="midnightblue" points="1038.76,-295.743 1047.79,-290.198 1037.28,-288.902 1038.76,-295.743"/>
</g>
<!-- Node31&#45;&gt;Node20 -->
<g id="edge70" class="edge"><title>Node31&#45;&gt;Node20</title>
<path fill="none" stroke="midnightblue" d="M814.022,-328.403C792.373,-318.334 756.292,-301.552 731.272,-289.915"/>
<polygon fill="midnightblue" stroke="midnightblue" points="732.497,-286.624 721.953,-285.581 729.544,-292.971 732.497,-286.624"/>
</g>
<!-- Node31&#45;&gt;Node21 -->
<g id="edge63" class="edge"><title>Node31&#45;&gt;Node21</title>
<path fill="none" stroke="midnightblue" d="M829.451,-328.325C818.965,-298.538 784.28,-200.013 769.869,-159.079"/>
<polygon fill="midnightblue" stroke="midnightblue" points="773.146,-157.845 766.524,-149.575 766.543,-160.169 773.146,-157.845"/>
</g>
<!-- Node32&#45;&gt;Node2 -->
<g id="edge72" class="edge"><title>Node32&#45;&gt;Node2</title>
<path fill="none" stroke="midnightblue" d="M850.821,-461.558C800.072,-455.356 727.207,-442.42 668.505,-416 646.781,-406.223 646.23,-395.747 625.505,-384 602.028,-370.693 573.83,-359.159 551.996,-351.101"/>
<polygon fill="midnightblue" stroke="midnightblue" points="553.047,-347.759 542.452,-347.649 550.666,-354.341 553.047,-347.759"/>
</g>
<!-- Node32&#45;&gt;Node3 -->
<g id="edge74" class="edge"><title>Node32&#45;&gt;Node3</title>
<path fill="none" stroke="midnightblue" d="M850.925,-466.169C705.277,-463.601 343.241,-453.526 228.505,-416 174.235,-398.25 158.589,-389.626 119.505,-348 85.0537,-311.308 61.4491,-255.775 50.8479,-227.281"/>
<polygon fill="midnightblue" stroke="midnightblue" points="54.1075,-226.002 47.426,-217.78 47.5217,-228.374 54.1075,-226.002"/>
</g>
<!-- Node32&#45;&gt;Node4 -->
<g id="edge75" class="edge"><title>Node32&#45;&gt;Node4</title>
<path fill="none" stroke="midnightblue" d="M974.136,-466.973C1047.5,-464.995 1172.51,-455.4 1271.5,-416 1360.07,-380.75 1402.73,-376.676 1446.5,-292 1453.04,-279.366 1453.86,-272.174 1446.5,-260 1432.77,-237.262 1405.17,-224.157 1382.9,-216.94"/>
<polygon fill="midnightblue" stroke="midnightblue" points="1383.7,-213.526 1373.12,-214.025 1381.71,-220.235 1383.7,-213.526"/>
</g>
<!-- Node32&#45;&gt;Node6 -->
<g id="edge76" class="edge"><title>Node32&#45;&gt;Node6</title>
<path fill="none" stroke="midnightblue" d="M974.121,-465.272C1039.48,-461.585 1144.66,-450.283 1228.5,-416 1301.43,-386.18 1372.27,-322.452 1402.81,-292.791"/>
<polygon fill="midnightblue" stroke="midnightblue" points="1405.33,-295.215 1410,-285.705 1400.42,-290.228 1405.33,-295.215"/>
</g>
<!-- Node32&#45;&gt;Node9 -->
<g id="edge77" class="edge"><title>Node32&#45;&gt;Node9</title>
<path fill="none" stroke="midnightblue" d="M850.907,-466.451C713.629,-464.513 386.639,-455.736 284.505,-416 250.366,-402.718 218.342,-373.639 200.397,-355.262"/>
<polygon fill="midnightblue" stroke="midnightblue" points="202.609,-352.509 193.185,-347.667 197.533,-357.328 202.609,-352.509"/>
</g>
<!-- Node32&#45;&gt;Node12 -->
<g id="edge90" class="edge"><title>Node32&#45;&gt;Node12</title>
<path fill="none" stroke="midnightblue" d="M974.305,-457.8C1075.39,-441.301 1268.67,-403.175 1306.5,-348 1340.51,-298.41 1248.86,-283.239 1179.13,-278.727"/>
<polygon fill="midnightblue" stroke="midnightblue" points="1179.21,-275.225 1169.02,-278.135 1178.8,-282.213 1179.21,-275.225"/>
</g>
<!-- Node32&#45;&gt;Node20 -->
<g id="edge91" class="edge"><title>Node32&#45;&gt;Node20</title>
<path fill="none" stroke="midnightblue" d="M909.811,-452.766C905.561,-434.238 895.521,-402.098 874.505,-384 830.696,-346.274 795.94,-382.441 749.505,-348 731.312,-334.507 718.345,-311.504 710.91,-295.346"/>
<polygon fill="midnightblue" stroke="midnightblue" points="714.002,-293.678 706.823,-285.885 707.575,-296.454 714.002,-293.678"/>
</g>
<!-- Node32&#45;&gt;Node31 -->
<g id="edge78" class="edge"><title>Node32&#45;&gt;Node31</title>
<path fill="none" stroke="midnightblue" d="M915.403,-452.913C918.213,-435.399 920.383,-405.229 907.505,-384 898.654,-369.41 883.12,-358.957 868.477,-351.821"/>
<polygon fill="midnightblue" stroke="midnightblue" points="869.619,-348.498 859.062,-347.601 866.756,-354.885 869.619,-348.498"/>
</g>
<!-- Node33 -->
<g id="node33" class="node"><title>Node33</title>
<polygon fill="white" stroke="#bfbfbf" points="819.505,-390.5 819.505,-409.5 865.505,-409.5 865.505,-390.5 819.505,-390.5"/>
<text text-anchor="middle" x="842.505" y="-397.5" font-family="Helvetica,sans-Serif" font-size="10.00">cstring</text>
</g>
<!-- Node32&#45;&gt;Node33 -->
<g id="edge73" class="edge"><title>Node32&#45;&gt;Node33</title>
<path fill="none" stroke="midnightblue" d="M897.316,-452.679C886.077,-442.082 870.775,-427.655 859.195,-416.736"/>
<polygon fill="midnightblue" stroke="midnightblue" points="861.545,-414.142 851.868,-409.828 856.743,-419.235 861.545,-414.142"/>
</g>
<!-- Node34 -->
<g id="node34" class="node"><title>Node34</title>
<g id="a_node34"><a xlink:href="utils_8h.html" target="_top" xlink:title="shad/core/impl/utils.h">
<polygon fill="white" stroke="black" points="959.505,-390.5 959.505,-409.5 1069.5,-409.5 1069.5,-390.5 959.505,-390.5"/>
<text text-anchor="middle" x="1014.5" y="-397.5" font-family="Helvetica,sans-Serif" font-size="10.00">shad/core/impl/utils.h</text>
</a>
</g>
</g>
<!-- Node32&#45;&gt;Node34 -->
<g id="edge79" class="edge"><title>Node32&#45;&gt;Node34</title>
<path fill="none" stroke="midnightblue" d="M934.386,-452.841C951.476,-441.784 975.125,-426.481 992.297,-415.37"/>
<polygon fill="midnightblue" stroke="midnightblue" points="994.593,-418.053 1001.09,-409.682 990.79,-412.176 994.593,-418.053"/>
</g>
<!-- Node35 -->
<g id="node35" class="node"><title>Node35</title>
<g id="a_node35"><a xlink:href="iterator_8h.html" target="_top" xlink:title="shad/core/iterator.h">
<polygon fill="white" stroke="black" points="1197,-328.5 1197,-347.5 1298,-347.5 1298,-328.5 1197,-328.5"/>
<text text-anchor="middle" x="1247.5" y="-335.5" font-family="Helvetica,sans-Serif" font-size="10.00">shad/core/iterator.h</text>
</a>
</g>
</g>
<!-- Node32&#45;&gt;Node35 -->
<g id="edge89" class="edge"><title>Node32&#45;&gt;Node35</title>
<path fill="none" stroke="midnightblue" d="M964.31,-452.955C997.35,-443.539 1040.88,-430.284 1078.5,-416 1130.14,-396.401 1188.33,-368.559 1221.19,-352.278"/>
<polygon fill="midnightblue" stroke="midnightblue" points="1223.15,-355.211 1230.54,-347.618 1220.03,-348.946 1223.15,-355.211"/>
</g>
<!-- Node34&#45;&gt;Node2 -->
<g id="edge80" class="edge"><title>Node34&#45;&gt;Node2</title>
<path fill="none" stroke="midnightblue" d="M959.307,-392.35C857.344,-380.065 641.912,-354.109 554.529,-343.581"/>
<polygon fill="midnightblue" stroke="midnightblue" points="554.87,-340.097 544.524,-342.376 554.033,-347.047 554.87,-340.097"/>
</g>
<!-- Node34&#45;&gt;Node3 -->
<g id="edge81" class="edge"><title>Node34&#45;&gt;Node3</title>
<path fill="none" stroke="midnightblue" d="M963.322,-390.47C811.227,-365.12 372.505,-292 372.505,-292 328.43,-281.125 319.44,-271.426 275.505,-260 193.592,-238.698 170.311,-245.707 88.5049,-224 84.8581,-223.032 81.0759,-221.918 77.3294,-220.742"/>
<polygon fill="midnightblue" stroke="midnightblue" points="78.2057,-217.346 67.6128,-217.548 76.0193,-223.996 78.2057,-217.346"/>
</g>
<!-- Node34&#45;&gt;Node4 -->
<g id="edge82" class="edge"><title>Node34&#45;&gt;Node4</title>
<path fill="none" stroke="midnightblue" d="M1069.73,-396.11C1144.39,-391.099 1272.13,-378.264 1306.5,-348 1341.64,-317.067 1348.44,-258.075 1349.52,-227.86"/>
<polygon fill="midnightblue" stroke="midnightblue" points="1353.02,-227.869 1349.7,-217.808 1346.02,-227.744 1353.02,-227.869"/>
</g>
<!-- Node34&#45;&gt;Node12 -->
<g id="edge87" class="edge"><title>Node34&#45;&gt;Node12</title>
<path fill="none" stroke="midnightblue" d="M1046.32,-390.37C1067.33,-382.86 1093.31,-369.689 1106.5,-348 1114.88,-334.231 1115.22,-316.017 1113.56,-301.484"/>
<polygon fill="midnightblue" stroke="midnightblue" points="1116.96,-300.58 1111.99,-291.224 1110.04,-301.638 1116.96,-300.58"/>
</g>
<!-- Node34&#45;&gt;Node20 -->
<g id="edge88" class="edge"><title>Node34&#45;&gt;Node20</title>
<path fill="none" stroke="midnightblue" d="M960.211,-390.461C901.48,-380.639 812.13,-363.826 781.505,-348 755.184,-334.398 730.977,-309.629 716.725,-293.241"/>
<polygon fill="midnightblue" stroke="midnightblue" points="719.348,-290.922 710.222,-285.539 713.999,-295.438 719.348,-290.922"/>
</g>
<!-- Node34&#45;&gt;Node35 -->
<g id="edge83" class="edge"><title>Node34&#45;&gt;Node35</title>
<path fill="none" stroke="midnightblue" d="M1047.89,-390.403C1089.07,-379.799 1159.15,-361.751 1204.37,-350.107"/>
<polygon fill="midnightblue" stroke="midnightblue" points="1205.37,-353.464 1214.18,-347.581 1203.63,-346.685 1205.37,-353.464"/>
</g>
<!-- Node35&#45;&gt;Node4 -->
<g id="edge84" class="edge"><title>Node35&#45;&gt;Node4</title>
<path fill="none" stroke="midnightblue" d="M1252.2,-328.498C1260.46,-313.85 1278.53,-283.196 1297.5,-260 1307.86,-247.333 1321.04,-234.441 1331.53,-224.787"/>
<polygon fill="midnightblue" stroke="midnightblue" points="1334.19,-227.103 1339.27,-217.806 1329.5,-221.906 1334.19,-227.103"/>
</g>
<!-- Node35&#45;&gt;Node20 -->
<g id="edge86" class="edge"><title>Node35&#45;&gt;Node20</title>
<path fill="none" stroke="midnightblue" d="M1196.82,-331.409C1098.6,-320.576 882.305,-296.721 771.642,-284.515"/>
<polygon fill="midnightblue" stroke="midnightblue" points="771.917,-281.024 761.594,-283.407 771.15,-287.982 771.917,-281.024"/>
</g>
<!-- Node35&#45;&gt;Node24 -->
<g id="edge85" class="edge"><title>Node35&#45;&gt;Node24</title>
<path fill="none" stroke="midnightblue" d="M1266.83,-328.343C1313.95,-306.111 1427.61,-245.031 1381.5,-192 1339.36,-143.523 1137.97,-139.787 1054.68,-140.374"/>
<polygon fill="midnightblue" stroke="midnightblue" points="1054.63,-136.874 1044.67,-140.47 1054.7,-143.874 1054.63,-136.874"/>
</g>
<!-- Node36&#45;&gt;Node2 -->
<g id="edge93" class="edge"><title>Node36&#45;&gt;Node2</title>
<path fill="none" stroke="midnightblue" d="M398.611,-384.933C424.825,-374.72 459.946,-361.036 485.021,-351.266"/>
<polygon fill="midnightblue" stroke="midnightblue" points="486.384,-354.492 494.432,-347.6 483.843,-347.969 486.384,-354.492"/>
</g>
<!-- Node36&#45;&gt;Node3 -->
<g id="edge96" class="edge"><title>Node36&#45;&gt;Node3</title>
<path fill="none" stroke="midnightblue" d="M340.781,-384.855C318.336,-370.33 282.212,-347.197 250.505,-328 185.526,-288.659 107.59,-244.426 68.851,-222.635"/>
<polygon fill="midnightblue" stroke="midnightblue" points="70.3112,-219.441 59.8784,-217.595 66.883,-225.544 70.3112,-219.441"/>
</g>
<!-- Node36&#45;&gt;Node4 -->
<g id="edge97" class="edge"><title>Node36&#45;&gt;Node4</title>
<path fill="none" stroke="midnightblue" d="M431.763,-385.276C434.712,-384.82 437.636,-384.392 440.505,-384 635.79,-357.35 694.595,-407.468 882.505,-348 899.22,-342.71 901.292,-336.713 916.505,-328 970.372,-297.15 979.554,-279.447 1038.5,-260 1156.82,-220.971 1196.69,-258.155 1316.5,-224 1318.85,-223.33 1321.25,-222.519 1323.62,-221.624"/>
<polygon fill="midnightblue" stroke="midnightblue" points="1325.23,-224.743 1333.08,-217.626 1322.51,-218.295 1325.23,-224.743"/>
</g>
<!-- Node36&#45;&gt;Node9 -->
<g id="edge98" class="edge"><title>Node36&#45;&gt;Node9</title>
<path fill="none" stroke="midnightblue" d="M321.006,-384.933C290.386,-374.553 249.192,-360.589 220.29,-350.792"/>
<polygon fill="midnightblue" stroke="midnightblue" points="221.212,-347.408 210.617,-347.513 218.964,-354.038 221.212,-347.408"/>
</g>
<!-- Node36&#45;&gt;Node12 -->
<g id="edge99" class="edge"><title>Node36&#45;&gt;Node12</title>
<path fill="none" stroke="midnightblue" d="M431.76,-385.255C434.71,-384.805 437.635,-384.383 440.505,-384 650.798,-355.921 712.607,-406.628 916.505,-348 934.847,-342.726 936.942,-335.47 954.505,-328 985.241,-314.927 1020.55,-303.022 1049.6,-294.007"/>
<polygon fill="midnightblue" stroke="midnightblue" points="1050.66,-297.343 1059.19,-291.064 1048.61,-290.651 1050.66,-297.343"/>
</g>
<!-- Node36&#45;&gt;Node15 -->
<g id="edge95" class="edge"><title>Node36&#45;&gt;Node15</title>
<path fill="none" stroke="midnightblue" d="M364.048,-384.946C365.827,-370.493 369.208,-347.417 374.505,-328 401.897,-227.588 425.094,-205.756 489.505,-124 499.361,-111.49 511.697,-98.43 521.396,-88.6581"/>
<polygon fill="midnightblue" stroke="midnightblue" points="523.876,-91.1273 528.51,-81.5995 518.946,-86.1581 523.876,-91.1273"/>
</g>
<!-- Node36&#45;&gt;Node20 -->
<g id="edge100" class="edge"><title>Node36&#45;&gt;Node20</title>
<path fill="none" stroke="midnightblue" d="M379.885,-384.798C400.505,-368.66 436.512,-342.665 471.505,-328 524.302,-305.873 588.056,-292.747 635.36,-285.366"/>
<polygon fill="midnightblue" stroke="midnightblue" points="636.133,-288.789 645.497,-283.833 635.086,-281.868 636.133,-288.789"/>
</g>
<!-- Node36&#45;&gt;Node21 -->
<g id="edge94" class="edge"><title>Node36&#45;&gt;Node21</title>
<path fill="none" stroke="midnightblue" d="M366.13,-384.862C376.685,-346.773 411.2,-241.555 481.505,-192 520.893,-164.237 662.144,-149.288 728.544,-143.657"/>
<polygon fill="midnightblue" stroke="midnightblue" points="729.229,-147.113 738.907,-142.803 728.654,-140.137 729.229,-147.113"/>
</g>
<!-- Node36&#45;&gt;Node31 -->
<g id="edge101" class="edge"><title>Node36&#45;&gt;Node31</title>
<path fill="none" stroke="midnightblue" d="M431.78,-385.396C434.725,-384.907 437.643,-384.439 440.505,-384 561.922,-365.384 705.574,-350.768 780.74,-343.683"/>
<polygon fill="midnightblue" stroke="midnightblue" points="781.252,-347.151 790.883,-342.734 780.6,-340.181 781.252,-347.151"/>
</g>
</g>
</svg>
