<?xml version="1.0" encoding="UTF-8" standalone="no"?>
<!DOCTYPE svg PUBLIC "-//W3C//DTD SVG 1.1//EN"
 "http://www.w3.org/Graphics/SVG/1.1/DTD/svg11.dtd">
<!-- Generated by graphviz version 2.36.0 (20140111.2315)
 -->
<!-- Title: include/shad/runtime/asynchronous_interface.h Pages: 1 -->
<svg width="500pt" height="220pt"
 viewBox="0.00 0.00 500.00 220.00" xmlns="http://www.w3.org/2000/svg" xmlns:xlink="http://www.w3.org/1999/xlink">
<g id="graph0" class="graph" transform="scale(1 1) rotate(0) translate(4 216)">
<title>include/shad/runtime/asynchronous_interface.h</title>
<polygon fill="white" stroke="none" points="-4,4 -4,-216 496,-216 496,4 -4,4"/>
<!-- Node1 -->
<g id="node1" class="node"><title>Node1</title>
<polygon fill="#bfbfbf" stroke="black" points="106.5,-181 106.5,-211 237.5,-211 237.5,-181 106.5,-181"/>
<text text-anchor="start" x="114.5" y="-199" font-family="Helvetica,sans-Serif" font-size="10.00">include/shad/runtime</text>
<text text-anchor="middle" x="172" y="-188" font-family="Helvetica,sans-Serif" font-size="10.00">/asynchronous_interface.h</text>
</g>
<!-- Node2 -->
<g id="node2" class="node"><title>Node2</title>
<polygon fill="white" stroke="#bfbfbf" points="8.5,-124.5 8.5,-143.5 57.5,-143.5 57.5,-124.5 8.5,-124.5"/>
<text text-anchor="middle" x="33" y="-131.5" font-family="Helvetica,sans-Serif" font-size="10.00">cstddef</text>
</g>
<!-- Node1&#45;&gt;Node2 -->
<g id="edge1" class="edge"><title>Node1&#45;&gt;Node2</title>
<path fill="none" stroke="midnightblue" d="M139.411,-180.933C116.064,-170.855 84.8902,-157.399 62.3232,-147.657"/>
<polygon fill="midnightblue" stroke="midnightblue" points="63.4917,-144.35 52.9234,-143.6 60.7175,-150.777 63.4917,-144.35"/>
</g>
<!-- Node3 -->
<g id="node3" class="node"><title>Node3</title>
<polygon fill="white" stroke="#bfbfbf" points="0,-62.5 0,-81.5 46,-81.5 46,-62.5 0,-62.5"/>
<text text-anchor="middle" x="23" y="-69.5" font-family="Helvetica,sans-Serif" font-size="10.00">cstdint</text>
</g>
<!-- Node1&#45;&gt;Node3 -->
<g id="edge2" class="edge"><title>Node1&#45;&gt;Node3</title>
<path fill="none" stroke="midnightblue" d="M152.691,-180.806C139.17,-170.745 120.773,-156.81 105,-144 82.0966,-125.398 56.511,-102.969 40.1066,-88.3668"/>
<polygon fill="midnightblue" stroke="midnightblue" points="42.2169,-85.5588 32.4279,-81.5058 37.5529,-90.7786 42.2169,-85.5588"/>
</g>
<!-- Node4 -->
<g id="node4" class="node"><title>Node4</title>
<polygon fill="white" stroke="#bfbfbf" points="385,-124.5 385,-143.5 437,-143.5 437,-124.5 385,-124.5"/>
<text text-anchor="middle" x="411" y="-131.5" font-family="Helvetica,sans-Serif" font-size="10.00">memory</text>
</g>
<!-- Node1&#45;&gt;Node4 -->
<g id="edge3" class="edge"><title>Node1&#45;&gt;Node4</title>
<path fill="none" stroke="midnightblue" d="M228.035,-180.933C273.377,-169.55 335.891,-153.856 374.853,-144.074"/>
<polygon fill="midnightblue" stroke="midnightblue" points="375.858,-147.431 384.705,-141.601 374.154,-140.642 375.858,-147.431"/>
</g>
<!-- Node5 -->
<g id="node5" class="node"><title>Node5</title>
<g id="a_node5"><a xlink:href="handle_8h.html" target="_top" xlink:title="shad/runtime/handle.h">
<polygon fill="white" stroke="black" points="253.5,-124.5 253.5,-143.5 366.5,-143.5 366.5,-124.5 253.5,-124.5"/>
<text text-anchor="middle" x="310" y="-131.5" font-family="Helvetica,sans-Serif" font-size="10.00">shad/runtime/handle.h</text>
</a>
</g>
</g>
<!-- Node1&#45;&gt;Node5 -->
<g id="edge4" class="edge"><title>Node1&#45;&gt;Node5</title>
<path fill="none" stroke="midnightblue" d="M204.355,-180.933C227.533,-170.855 258.483,-157.399 280.888,-147.657"/>
<polygon fill="midnightblue" stroke="midnightblue" points="282.445,-150.797 290.22,-143.6 279.654,-144.378 282.445,-150.797"/>
</g>
<!-- Node11 -->
<g id="node11" class="node"><title>Node11</title>
<g id="a_node11"><a xlink:href="locality_8h.html" target="_top" xlink:title="shad/runtime/locality.h">
<polygon fill="white" stroke="black" points="114.5,-124.5 114.5,-143.5 229.5,-143.5 229.5,-124.5 114.5,-124.5"/>
<text text-anchor="middle" x="172" y="-131.5" font-family="Helvetica,sans-Serif" font-size="10.00">shad/runtime/locality.h</text>
</a>
</g>
</g>
<!-- Node1&#45;&gt;Node11 -->
<g id="edge11" class="edge"><title>Node1&#45;&gt;Node11</title>
<path fill="none" stroke="midnightblue" d="M172,-180.781C172,-172.781 172,-162.689 172,-154.017"/>
<polygon fill="midnightblue" stroke="midnightblue" points="175.5,-153.73 172,-143.731 168.5,-153.731 175.5,-153.73"/>
</g>
<!-- Node6 -->
<g id="node6" class="node"><title>Node6</title>
<polygon fill="white" stroke="#bfbfbf" points="430,-62.5 430,-81.5 492,-81.5 492,-62.5 430,-62.5"/>
<text text-anchor="middle" x="461" y="-69.5" font-family="Helvetica,sans-Serif" font-size="10.00">type_traits</text>
</g>
<!-- Node5&#45;&gt;Node6 -->
<g id="edge5" class="edge"><title>Node5&#45;&gt;Node6</title>
<path fill="none" stroke="midnightblue" d="M331.635,-124.403C357.424,-114.156 400.711,-96.9561 430.04,-85.3021"/>
<polygon fill="midnightblue" stroke="midnightblue" points="431.405,-88.526 439.406,-81.5806 428.82,-82.0207 431.405,-88.526"/>
</g>
<!-- Node7 -->
<g id="node7" class="node"><title>Node7</title>
<polygon fill="white" stroke="#bfbfbf" points="219,-0.5 219,-19.5 323,-19.5 323,-0.5 219,-0.5"/>
<text text-anchor="middle" x="271" y="-7.5" font-family="Helvetica,sans-Serif" font-size="10.00">shad/config/config.h</text>
</g>
<!-- Node5&#45;&gt;Node7 -->
<g id="edge6" class="edge"><title>Node5&#45;&gt;Node7</title>
<path fill="none" stroke="midnightblue" d="M335.504,-124.472C351.987,-117.478 372.139,-105.792 382,-88 388.894,-75.5606 389.946,-67.7955 382,-56 370.62,-39.1073 351.698,-28.5536 332.672,-21.9612"/>
<polygon fill="midnightblue" stroke="midnightblue" points="333.645,-18.5982 323.056,-18.9476 331.551,-25.2778 333.645,-18.5982"/>
</g>
<!-- Node8 -->
<g id="node8" class="node"><title>Node8</title>
<g id="a_node8"><a xlink:href="mapping__traits_8h.html" target="_top" xlink:title="shad/runtime/mapping\l_traits.h">
<polygon fill="white" stroke="black" points="260.5,-57 260.5,-87 373.5,-87 373.5,-57 260.5,-57"/>
<text text-anchor="start" x="268.5" y="-75" font-family="Helvetica,sans-Serif" font-size="10.00">shad/runtime/mapping</text>
<text text-anchor="middle" x="317" y="-64" font-family="Helvetica,sans-Serif" font-size="10.00">_traits.h</text>
</a>
</g>
</g>
<!-- Node5&#45;&gt;Node8 -->
<g id="edge7" class="edge"><title>Node5&#45;&gt;Node8</title>
<path fill="none" stroke="midnightblue" d="M311.003,-124.403C311.836,-117.265 313.062,-106.752 314.189,-97.0903"/>
<polygon fill="midnightblue" stroke="midnightblue" points="317.668,-97.4791 315.35,-87.1408 310.715,-96.6678 317.668,-97.4791"/>
</g>
<!-- Node10 -->
<g id="node10" class="node"><title>Node10</title>
<g id="a_node10"><a xlink:href="available__traits__mappings_8h.html" target="_top" xlink:title="shad/runtime/mappings\l/available_traits_mappings.h">
<polygon fill="white" stroke="black" points="102,-57 102,-87 242,-87 242,-57 102,-57"/>
<text text-anchor="start" x="110" y="-75" font-family="Helvetica,sans-Serif" font-size="10.00">shad/runtime/mappings</text>
<text text-anchor="middle" x="172" y="-64" font-family="Helvetica,sans-Serif" font-size="10.00">/available_traits_mappings.h</text>
</a>
</g>
</g>
<!-- Node5&#45;&gt;Node10 -->
<g id="edge10" class="edge"><title>Node5&#45;&gt;Node10</title>
<path fill="none" stroke="midnightblue" d="M290.228,-124.403C270.336,-115.755 239.055,-102.155 213.665,-91.1152"/>
<polygon fill="midnightblue" stroke="midnightblue" points="214.824,-87.8029 204.258,-87.0253 212.033,-94.2224 214.824,-87.8029"/>
</g>
<!-- Node8&#45;&gt;Node7 -->
<g id="edge9" class="edge"><title>Node8&#45;&gt;Node7</title>
<path fill="none" stroke="midnightblue" d="M306.099,-56.7808C299.414,-48.0621 290.824,-36.8574 283.815,-27.7153"/>
<polygon fill="midnightblue" stroke="midnightblue" points="286.555,-25.5371 277.693,-19.7305 281,-29.7961 286.555,-25.5371"/>
</g>
<!-- Node9 -->
<g id="node9" class="node"><title>Node9</title>
<polygon fill="white" stroke="#bfbfbf" points="341.5,-0.5 341.5,-19.5 382.5,-19.5 382.5,-0.5 341.5,-0.5"/>
<text text-anchor="middle" x="362" y="-7.5" font-family="Helvetica,sans-Serif" font-size="10.00">string</text>
</g>
<!-- Node8&#45;&gt;Node9 -->
<g id="edge8" class="edge"><title>Node8&#45;&gt;Node9</title>
<path fill="none" stroke="midnightblue" d="M327.664,-56.7808C334.136,-48.152 342.434,-37.0882 349.251,-27.9987"/>
<polygon fill="midnightblue" stroke="midnightblue" points="352.252,-29.8306 355.452,-19.7305 346.652,-25.6305 352.252,-29.8306"/>
</g>
<!-- Node11&#45;&gt;Node3 -->
<g id="edge12" class="edge"><title>Node11&#45;&gt;Node3</title>
<path fill="none" stroke="midnightblue" d="M150.521,-124.393C127.969,-115.351 91.4803,-100.705 60,-88 57.911,-87.1569 55.7561,-86.2861 53.5857,-85.4082"/>
<polygon fill="midnightblue" stroke="midnightblue" points="54.7097,-82.0874 44.1271,-81.5782 52.0824,-88.5757 54.7097,-82.0874"/>
</g>
<!-- Node11&#45;&gt;Node7 -->
<g id="edge13" class="edge"><title>Node11&#45;&gt;Node7</title>
<path fill="none" stroke="midnightblue" d="M142.119,-124.387C124.46,-117.587 103.549,-106.15 93,-88 85.8531,-75.7039 84.2623,-67.2216 93,-56 107.292,-37.6454 163.151,-25.5922 208.532,-18.6216"/>
<polygon fill="midnightblue" stroke="midnightblue" points="209.246,-22.054 218.626,-17.1267 208.221,-15.1295 209.246,-22.054"/>
</g>
<!-- Node11&#45;&gt;Node8 -->
<g id="edge14" class="edge"><title>Node11&#45;&gt;Node8</title>
<path fill="none" stroke="midnightblue" d="M192.775,-124.403C213.768,-115.717 246.833,-102.035 273.574,-90.9694"/>
<polygon fill="midnightblue" stroke="midnightblue" points="275.204,-94.083 283.105,-87.0253 272.527,-87.6148 275.204,-94.083"/>
</g>
<!-- Node11&#45;&gt;Node10 -->
<g id="edge15" class="edge"><title>Node11&#45;&gt;Node10</title>
<path fill="none" stroke="midnightblue" d="M172,-124.403C172,-117.341 172,-106.975 172,-97.399"/>
<polygon fill="midnightblue" stroke="midnightblue" points="175.5,-97.1408 172,-87.1408 168.5,-97.1408 175.5,-97.1408"/>
</g>
</g>
</svg>
