<?xml version="1.0" encoding="UTF-8" standalone="no"?>
<!DOCTYPE svg PUBLIC "-//W3C//DTD SVG 1.1//EN"
 "http://www.w3.org/Graphics/SVG/1.1/DTD/svg11.dtd">
<!-- Generated by graphviz version 2.36.0 (20140111.2315)
 -->
<!-- Title: include/shad/runtime/asynchronous_interface.h Pages: 1 -->
<svg width="506pt" height="130pt"
 viewBox="0.00 0.00 506.00 130.00" xmlns="http://www.w3.org/2000/svg" xmlns:xlink="http://www.w3.org/1999/xlink">
<g id="graph0" class="graph" transform="scale(1 1) rotate(0) translate(4 126)">
<title>include/shad/runtime/asynchronous_interface.h</title>
<polygon fill="white" stroke="none" points="-4,4 -4,-126 502,-126 502,4 -4,4"/>
<!-- Node1 -->
<g id="node1" class="node"><title>Node1</title>
<polygon fill="#bfbfbf" stroke="black" points="170.5,-91 170.5,-121 301.5,-121 301.5,-91 170.5,-91"/>
<text text-anchor="start" x="178.5" y="-109" font-family="Helvetica,sans-Serif" font-size="10.00">include/shad/runtime</text>
<text text-anchor="middle" x="236" y="-98" font-family="Helvetica,sans-Serif" font-size="10.00">/asynchronous_interface.h</text>
</g>
<!-- Node2 -->
<g id="node2" class="node"><title>Node2</title>
<g id="a_node2"><a xlink:href="cpp__simple__asynchronous__interface_8h.html" target="_top" xlink:title="include/shad/runtime\l/mappings/cpp_simple\l/cpp_simple_asynchronous\l_interface.h">
<polygon fill="white" stroke="black" points="-0.5,-1 -0.5,-53 134.5,-53 134.5,-1 -0.5,-1"/>
<text text-anchor="start" x="7.5" y="-41" font-family="Helvetica,sans-Serif" font-size="10.00">include/shad/runtime</text>
<text text-anchor="start" x="7.5" y="-30" font-family="Helvetica,sans-Serif" font-size="10.00">/mappings/cpp_simple</text>
<text text-anchor="start" x="7.5" y="-19" font-family="Helvetica,sans-Serif" font-size="10.00">/cpp_simple_asynchronous</text>
<text text-anchor="middle" x="67" y="-8" font-family="Helvetica,sans-Serif" font-size="10.00">_interface.h</text>
</a>
</g>
</g>
<!-- Node1&#45;&gt;Node2 -->
<g id="edge1" class="edge"><title>Node1&#45;&gt;Node2</title>
<path fill="none" stroke="midnightblue" d="M195.624,-86.6038C173.609,-76.5732 146.04,-64.0121 122.078,-53.0945"/>
<polygon fill="midnightblue" stroke="midnightblue" points="194.452,-89.9158 205.003,-90.877 197.354,-83.5458 194.452,-89.9158"/>
</g>
<!-- Node3 -->
<g id="node3" class="node"><title>Node3</title>
<g id="a_node3"><a xlink:href="gmt__asynchronous__interface_8h.html" target="_top" xlink:title="include/shad/runtime\l/mappings/gmt/gmt_asynchronous\l_interface.h">
<polygon fill="white" stroke="black" points="152.5,-6.5 152.5,-47.5 319.5,-47.5 319.5,-6.5 152.5,-6.5"/>
<text text-anchor="start" x="160.5" y="-35.5" font-family="Helvetica,sans-Serif" font-size="10.00">include/shad/runtime</text>
<text text-anchor="start" x="160.5" y="-24.5" font-family="Helvetica,sans-Serif" font-size="10.00">/mappings/gmt/gmt_asynchronous</text>
<text text-anchor="middle" x="236" y="-13.5" font-family="Helvetica,sans-Serif" font-size="10.00">_interface.h</text>
</a>
</g>
</g>
<!-- Node1&#45;&gt;Node3 -->
<g id="edge2" class="edge"><title>Node1&#45;&gt;Node3</title>
<path fill="none" stroke="midnightblue" d="M236,-80.5418C236,-69.8878 236,-57.5715 236,-47.5423"/>
<polygon fill="midnightblue" stroke="midnightblue" points="232.5,-80.877 236,-90.877 239.5,-80.877 232.5,-80.877"/>
</g>
<!-- Node4 -->
<g id="node4" class="node"><title>Node4</title>
<g id="a_node4"><a xlink:href="tbb__asynchronous__interface_8h.html" target="_top" xlink:title="include/shad/runtime\l/mappings/tbb/tbb_asynchronous\l_interface.h">
<polygon fill="white" stroke="black" points="337.5,-6.5 337.5,-47.5 498.5,-47.5 498.5,-6.5 337.5,-6.5"/>
<text text-anchor="start" x="345.5" y="-35.5" font-family="Helvetica,sans-Serif" font-size="10.00">include/shad/runtime</text>
<text text-anchor="start" x="345.5" y="-24.5" font-family="Helvetica,sans-Serif" font-size="10.00">/mappings/tbb/tbb_asynchronous</text>
<text text-anchor="middle" x="418" y="-13.5" font-family="Helvetica,sans-Serif" font-size="10.00">_interface.h</text>
</a>
</g>
</g>
<!-- Node1&#45;&gt;Node4 -->
<g id="edge3" class="edge"><title>Node1&#45;&gt;Node4</title>
<path fill="none" stroke="midnightblue" d="M278.881,-86.8581C306.814,-75.0404 343.238,-59.6301 371.809,-47.5423"/>
<polygon fill="midnightblue" stroke="midnightblue" points="277.228,-83.7572 269.382,-90.877 279.955,-90.2039 277.228,-83.7572"/>
</g>
</g>
</svg>
