<?xml version="1.0" encoding="UTF-8" standalone="no"?>
<!DOCTYPE svg PUBLIC "-//W3C//DTD SVG 1.1//EN"
 "http://www.w3.org/Graphics/SVG/1.1/DTD/svg11.dtd">
<!-- Generated by graphviz version 2.36.0 (20140111.2315)
 -->
<!-- Title: include/shad/runtime/asynchronous_interface.h Pages: 1 -->
<svg width="572pt" height="220pt"
 viewBox="0.00 0.00 572.00 220.00" xmlns="http://www.w3.org/2000/svg" xmlns:xlink="http://www.w3.org/1999/xlink">
<g id="graph0" class="graph" transform="scale(1 1) rotate(0) translate(4 216)">
<title>include/shad/runtime/asynchronous_interface.h</title>
<polygon fill="white" stroke="none" points="-4,4 -4,-216 568,-216 568,4 -4,4"/>
<!-- Node1 -->
<g id="node1" class="node"><title>Node1</title>
<polygon fill="#bfbfbf" stroke="black" points="303.5,-181 303.5,-211 434.5,-211 434.5,-181 303.5,-181"/>
<text text-anchor="start" x="311.5" y="-199" font-family="Helvetica,sans-Serif" font-size="10.00">include/shad/runtime</text>
<text text-anchor="middle" x="369" y="-188" font-family="Helvetica,sans-Serif" font-size="10.00">/asynchronous_interface.h</text>
</g>
<!-- Node2 -->
<g id="node2" class="node"><title>Node2</title>
<polygon fill="white" stroke="#bfbfbf" points="107.5,-124.5 107.5,-143.5 156.5,-143.5 156.5,-124.5 107.5,-124.5"/>
<text text-anchor="middle" x="132" y="-131.5" font-family="Helvetica,sans-Serif" font-size="10.00">cstddef</text>
</g>
<!-- Node1&#45;&gt;Node2 -->
<g id="edge1" class="edge"><title>Node1&#45;&gt;Node2</title>
<path fill="none" stroke="midnightblue" d="M311.321,-180.927C272.738,-171.433 220.584,-158.448 166.593,-144.383"/>
<polygon fill="midnightblue" stroke="midnightblue" points="167.411,-140.979 156.851,-141.838 165.642,-147.752 167.411,-140.979"/>
</g>
<!-- Node3 -->
<g id="node3" class="node"><title>Node3</title>
<polygon fill="white" stroke="#bfbfbf" points="518,-62.5 518,-81.5 564,-81.5 564,-62.5 518,-62.5"/>
<text text-anchor="middle" x="541" y="-69.5" font-family="Helvetica,sans-Serif" font-size="10.00">cstdint</text>
</g>
<!-- Node1&#45;&gt;Node3 -->
<g id="edge2" class="edge"><title>Node1&#45;&gt;Node3</title>
<path fill="none" stroke="midnightblue" d="M389.067,-180.766C421.954,-157.44 486.987,-111.311 520.288,-87.6909"/>
<polygon fill="midnightblue" stroke="midnightblue" points="522.655,-90.3034 528.786,-81.6632 518.605,-84.5939 522.655,-90.3034"/>
</g>
<!-- Node4 -->
<g id="node4" class="node"><title>Node4</title>
<polygon fill="white" stroke="#bfbfbf" points="483,-124.5 483,-143.5 535,-143.5 535,-124.5 483,-124.5"/>
<text text-anchor="middle" x="509" y="-131.5" font-family="Helvetica,sans-Serif" font-size="10.00">memory</text>
</g>
<!-- Node1&#45;&gt;Node4 -->
<g id="edge3" class="edge"><title>Node1&#45;&gt;Node4</title>
<path fill="none" stroke="midnightblue" d="M401.824,-180.933C425.338,-170.855 456.737,-157.399 479.466,-147.657"/>
<polygon fill="midnightblue" stroke="midnightblue" points="481.121,-150.756 488.933,-143.6 478.363,-144.322 481.121,-150.756"/>
</g>
<!-- Node5 -->
<g id="node5" class="node"><title>Node5</title>
<g id="a_node5"><a xlink:href="handle_8h.html" target="_top" xlink:title="shad/runtime/handle.h">
<polygon fill="white" stroke="black" points="174.5,-124.5 174.5,-143.5 287.5,-143.5 287.5,-124.5 174.5,-124.5"/>
<text text-anchor="middle" x="231" y="-131.5" font-family="Helvetica,sans-Serif" font-size="10.00">shad/runtime/handle.h</text>
</a>
</g>
</g>
<!-- Node1&#45;&gt;Node5 -->
<g id="edge4" class="edge"><title>Node1&#45;&gt;Node5</title>
<path fill="none" stroke="midnightblue" d="M336.645,-180.933C313.467,-170.855 282.517,-157.399 260.112,-147.657"/>
<polygon fill="midnightblue" stroke="midnightblue" points="261.346,-144.378 250.78,-143.6 258.555,-150.797 261.346,-144.378"/>
</g>
<!-- Node11 -->
<g id="node11" class="node"><title>Node11</title>
<g id="a_node11"><a xlink:href="locality_8h.html" target="_top" xlink:title="shad/runtime/locality.h">
<polygon fill="white" stroke="black" points="311.5,-124.5 311.5,-143.5 426.5,-143.5 426.5,-124.5 311.5,-124.5"/>
<text text-anchor="middle" x="369" y="-131.5" font-family="Helvetica,sans-Serif" font-size="10.00">shad/runtime/locality.h</text>
</a>
</g>
</g>
<!-- Node1&#45;&gt;Node11 -->
<g id="edge11" class="edge"><title>Node1&#45;&gt;Node11</title>
<path fill="none" stroke="midnightblue" d="M369,-180.781C369,-172.781 369,-162.689 369,-154.017"/>
<polygon fill="midnightblue" stroke="midnightblue" points="372.5,-153.73 369,-143.731 365.5,-153.731 372.5,-153.73"/>
</g>
<!-- Node6 -->
<g id="node6" class="node"><title>Node6</title>
<polygon fill="white" stroke="#bfbfbf" points="0,-62.5 0,-81.5 62,-81.5 62,-62.5 0,-62.5"/>
<text text-anchor="middle" x="31" y="-69.5" font-family="Helvetica,sans-Serif" font-size="10.00">type_traits</text>
</g>
<!-- Node5&#45;&gt;Node6 -->
<g id="edge5" class="edge"><title>Node5&#45;&gt;Node6</title>
<path fill="none" stroke="midnightblue" d="M200.308,-124.472C168.96,-115.673 118.936,-101.383 76,-88 72.6758,-86.9639 69.2222,-85.8608 65.7725,-84.7412"/>
<polygon fill="midnightblue" stroke="midnightblue" points="66.7648,-81.3832 56.1719,-81.5839 64.578,-88.0329 66.7648,-81.3832"/>
</g>
<!-- Node7 -->
<g id="node7" class="node"><title>Node7</title>
<polygon fill="white" stroke="#bfbfbf" points="168,-0.5 168,-19.5 272,-19.5 272,-0.5 168,-0.5"/>
<text text-anchor="middle" x="220" y="-7.5" font-family="Helvetica,sans-Serif" font-size="10.00">shad/config/config.h</text>
</g>
<!-- Node5&#45;&gt;Node7 -->
<g id="edge6" class="edge"><title>Node5&#45;&gt;Node7</title>
<path fill="none" stroke="midnightblue" d="M174.249,-126.468C149.972,-120.543 123.845,-109.299 109,-88 100.868,-76.3323 101.054,-67.7955 109,-56 120.38,-39.1073 139.302,-28.5536 158.328,-21.9612"/>
<polygon fill="midnightblue" stroke="midnightblue" points="159.449,-25.2778 167.944,-18.9476 157.355,-18.5982 159.449,-25.2778"/>
</g>
<!-- Node8 -->
<g id="node8" class="node"><title>Node8</title>
<g id="a_node8"><a xlink:href="mapping__traits_8h.html" target="_top" xlink:title="shad/runtime/mapping\l_traits.h">
<polygon fill="white" stroke="black" points="118.5,-57 118.5,-87 231.5,-87 231.5,-57 118.5,-57"/>
<text text-anchor="start" x="126.5" y="-75" font-family="Helvetica,sans-Serif" font-size="10.00">shad/runtime/mapping</text>
<text text-anchor="middle" x="175" y="-64" font-family="Helvetica,sans-Serif" font-size="10.00">_traits.h</text>
</a>
</g>
</g>
<!-- Node5&#45;&gt;Node8 -->
<g id="edge7" class="edge"><title>Node5&#45;&gt;Node8</title>
<path fill="none" stroke="midnightblue" d="M222.977,-124.403C215.747,-116.657 204.809,-104.938 195.202,-94.6447"/>
<polygon fill="midnightblue" stroke="midnightblue" points="197.58,-92.0633 188.198,-87.1408 192.463,-96.8395 197.58,-92.0633"/>
</g>
<!-- Node10 -->
<g id="node10" class="node"><title>Node10</title>
<g id="a_node10"><a xlink:href="available__traits__mappings_8h.html" target="_top" xlink:title="shad/runtime/mappings\l/available_traits_mappings.h">
<polygon fill="white" stroke="black" points="250,-57 250,-87 390,-87 390,-57 250,-57"/>
<text text-anchor="start" x="258" y="-75" font-family="Helvetica,sans-Serif" font-size="10.00">shad/runtime/mappings</text>
<text text-anchor="middle" x="320" y="-64" font-family="Helvetica,sans-Serif" font-size="10.00">/available_traits_mappings.h</text>
</a>
</g>
</g>
<!-- Node5&#45;&gt;Node10 -->
<g id="edge10" class="edge"><title>Node5&#45;&gt;Node10</title>
<path fill="none" stroke="midnightblue" d="M243.752,-124.403C255.918,-116.201 274.691,-103.545 290.565,-92.8441"/>
<polygon fill="midnightblue" stroke="midnightblue" points="292.689,-95.6329 299.024,-87.1408 288.776,-89.8287 292.689,-95.6329"/>
</g>
<!-- Node8&#45;&gt;Node7 -->
<g id="edge9" class="edge"><title>Node8&#45;&gt;Node7</title>
<path fill="none" stroke="midnightblue" d="M185.664,-56.7808C192.136,-48.152 200.434,-37.0882 207.251,-27.9987"/>
<polygon fill="midnightblue" stroke="midnightblue" points="210.252,-29.8306 213.452,-19.7305 204.652,-25.6305 210.252,-29.8306"/>
</g>
<!-- Node9 -->
<g id="node9" class="node"><title>Node9</title>
<polygon fill="white" stroke="#bfbfbf" points="108.5,-0.5 108.5,-19.5 149.5,-19.5 149.5,-0.5 108.5,-0.5"/>
<text text-anchor="middle" x="129" y="-7.5" font-family="Helvetica,sans-Serif" font-size="10.00">string</text>
</g>
<!-- Node8&#45;&gt;Node9 -->
<g id="edge8" class="edge"><title>Node8&#45;&gt;Node9</title>
<path fill="none" stroke="midnightblue" d="M164.099,-56.7808C157.414,-48.0621 148.824,-36.8574 141.815,-27.7153"/>
<polygon fill="midnightblue" stroke="midnightblue" points="144.555,-25.5371 135.693,-19.7305 139,-29.7961 144.555,-25.5371"/>
</g>
<!-- Node11&#45;&gt;Node3 -->
<g id="edge12" class="edge"><title>Node11&#45;&gt;Node3</title>
<path fill="none" stroke="midnightblue" d="M399.431,-124.437C428.056,-116.097 471.936,-102.575 509,-88 510.841,-87.2759 512.727,-86.4961 514.616,-85.6863"/>
<polygon fill="midnightblue" stroke="midnightblue" points="516.223,-88.8013 523.904,-81.5043 513.349,-82.4184 516.223,-88.8013"/>
</g>
<!-- Node11&#45;&gt;Node7 -->
<g id="edge14" class="edge"><title>Node11&#45;&gt;Node7</title>
<path fill="none" stroke="midnightblue" d="M377.736,-124.09C391.632,-108.827 415.585,-77.2704 399,-56 384.575,-37.4993 328.09,-25.4405 282.38,-18.507"/>
<polygon fill="midnightblue" stroke="midnightblue" points="282.617,-15.0046 272.216,-17.0212 281.605,-21.9309 282.617,-15.0046"/>
</g>
<!-- Node11&#45;&gt;Node8 -->
<g id="edge15" class="edge"><title>Node11&#45;&gt;Node8</title>
<path fill="none" stroke="midnightblue" d="M341.205,-124.403C312.379,-115.488 266.539,-101.311 230.295,-90.1014"/>
<polygon fill="midnightblue" stroke="midnightblue" points="230.936,-86.6363 220.349,-87.0253 228.868,-93.3238 230.936,-86.6363"/>
</g>
<!-- Node11&#45;&gt;Node10 -->
<g id="edge16" class="edge"><title>Node11&#45;&gt;Node10</title>
<path fill="none" stroke="midnightblue" d="M361.979,-124.403C355.715,-116.733 346.27,-105.167 337.924,-94.9478"/>
<polygon fill="midnightblue" stroke="midnightblue" points="340.585,-92.6723 331.548,-87.1408 335.163,-97.1 340.585,-92.6723"/>
</g>
<!-- Node12 -->
<g id="node12" class="node"><title>Node12</title>
<polygon fill="white" stroke="#bfbfbf" points="446,-62.5 446,-81.5 500,-81.5 500,-62.5 446,-62.5"/>
<text text-anchor="middle" x="473" y="-69.5" font-family="Helvetica,sans-Serif" font-size="10.00">iostream</text>
</g>
<!-- Node11&#45;&gt;Node12 -->
<g id="edge13" class="edge"><title>Node11&#45;&gt;Node12</title>
<path fill="none" stroke="midnightblue" d="M383.901,-124.403C400.968,-114.557 429.161,-98.2915 449.262,-86.6949"/>
<polygon fill="midnightblue" stroke="midnightblue" points="451.214,-89.6095 458.127,-81.5806 447.716,-83.5462 451.214,-89.6095"/>
</g>
</g>
</svg>
