<?xml version="1.0" encoding="UTF-8" standalone="no"?>
<!DOCTYPE svg PUBLIC "-//W3C//DTD SVG 1.1//EN"
 "http://www.w3.org/Graphics/SVG/1.1/DTD/svg11.dtd">
<!-- Generated by graphviz version 2.36.0 (20140111.2315)
 -->
<!-- Title: include/shad/data_structures/buffer.h Pages: 1 -->
<svg width="1161pt" height="424pt"
 viewBox="0.00 0.00 1161.17 424.00" xmlns="http://www.w3.org/2000/svg" xmlns:xlink="http://www.w3.org/1999/xlink">
<g id="graph0" class="graph" transform="scale(1 1) rotate(0) translate(4 420)">
<title>include/shad/data_structures/buffer.h</title>
<polygon fill="white" stroke="none" points="-4,4 -4,-420 1157.17,-420 1157.17,4 -4,4"/>
<!-- Node1 -->
<g id="node1" class="node"><title>Node1</title>
<polygon fill="#bfbfbf" stroke="black" points="228,-385 228,-415 370,-415 370,-385 228,-385"/>
<text text-anchor="start" x="236" y="-403" font-family="Helvetica,sans-Serif" font-size="10.00">include/shad/data_structures</text>
<text text-anchor="middle" x="299" y="-392" font-family="Helvetica,sans-Serif" font-size="10.00">/buffer.h</text>
</g>
<!-- Node2 -->
<g id="node2" class="node"><title>Node2</title>
<polygon fill="white" stroke="#bfbfbf" points="140,-322.5 140,-341.5 196,-341.5 196,-322.5 140,-322.5"/>
<text text-anchor="middle" x="168" y="-329.5" font-family="Helvetica,sans-Serif" font-size="10.00">algorithm</text>
</g>
<!-- Node1&#45;&gt;Node2 -->
<g id="edge1" class="edge"><title>Node1&#45;&gt;Node2</title>
<path fill="none" stroke="midnightblue" d="M270.897,-384.841C248.238,-373.425 216.599,-357.485 194.405,-346.303"/>
<polygon fill="midnightblue" stroke="midnightblue" points="195.738,-343.056 185.232,-341.682 192.588,-349.307 195.738,-343.056"/>
</g>
<!-- Node3 -->
<g id="node3" class="node"><title>Node3</title>
<polygon fill="white" stroke="#bfbfbf" points="214,-322.5 214,-341.5 252,-341.5 252,-322.5 214,-322.5"/>
<text text-anchor="middle" x="233" y="-329.5" font-family="Helvetica,sans-Serif" font-size="10.00">array</text>
</g>
<!-- Node1&#45;&gt;Node3 -->
<g id="edge2" class="edge"><title>Node1&#45;&gt;Node3</title>
<path fill="none" stroke="midnightblue" d="M284.679,-384.679C274.184,-374.184 259.932,-359.932 249.052,-349.052"/>
<polygon fill="midnightblue" stroke="midnightblue" points="251.374,-346.425 241.828,-341.828 246.425,-351.374 251.374,-346.425"/>
</g>
<!-- Node4 -->
<g id="node4" class="node"><title>Node4</title>
<polygon fill="white" stroke="#bfbfbf" points="310,-260.5 310,-279.5 356,-279.5 356,-260.5 310,-260.5"/>
<text text-anchor="middle" x="333" y="-267.5" font-family="Helvetica,sans-Serif" font-size="10.00">atomic</text>
</g>
<!-- Node1&#45;&gt;Node4 -->
<g id="edge3" class="edge"><title>Node1&#45;&gt;Node4</title>
<path fill="none" stroke="midnightblue" d="M302.769,-384.813C308.943,-361.566 321.214,-315.371 328.071,-289.556"/>
<polygon fill="midnightblue" stroke="midnightblue" points="331.538,-290.137 330.723,-279.574 324.773,-288.34 331.538,-290.137"/>
</g>
<!-- Node5 -->
<g id="node5" class="node"><title>Node5</title>
<polygon fill="white" stroke="#bfbfbf" points="0,-198.5 0,-217.5 44,-217.5 44,-198.5 0,-198.5"/>
<text text-anchor="middle" x="22" y="-205.5" font-family="Helvetica,sans-Serif" font-size="10.00">vector</text>
</g>
<!-- Node1&#45;&gt;Node5 -->
<g id="edge4" class="edge"><title>Node1&#45;&gt;Node5</title>
<path fill="none" stroke="midnightblue" d="M295.842,-384.871C291.127,-366.755 280.624,-335.373 261,-316 189.063,-244.986 144.731,-266.465 53,-224 51.6097,-223.356 50.1871,-222.691 48.7526,-222.016"/>
<polygon fill="midnightblue" stroke="midnightblue" points="49.8617,-218.667 39.3297,-217.514 46.8445,-224.983 49.8617,-218.667"/>
</g>
<!-- Node6 -->
<g id="node6" class="node"><title>Node6</title>
<g id="a_node6"><a xlink:href="object__identifier_8h.html" target="_top" xlink:title="shad/data_structures\l/object_identifier.h">
<polygon fill="white" stroke="black" points="346,-317 346,-347 454,-347 454,-317 346,-317"/>
<text text-anchor="start" x="354" y="-335" font-family="Helvetica,sans-Serif" font-size="10.00">shad/data_structures</text>
<text text-anchor="middle" x="400" y="-324" font-family="Helvetica,sans-Serif" font-size="10.00">/object_identifier.h</text>
</a>
</g>
</g>
<!-- Node1&#45;&gt;Node6 -->
<g id="edge5" class="edge"><title>Node1&#45;&gt;Node6</title>
<path fill="none" stroke="midnightblue" d="M320.915,-384.679C335.307,-375.274 354.318,-362.852 370.093,-352.543"/>
<polygon fill="midnightblue" stroke="midnightblue" points="372.018,-355.467 378.474,-347.066 368.188,-349.607 372.018,-355.467"/>
</g>
<!-- Node8 -->
<g id="node8" class="node"><title>Node8</title>
<g id="a_node8"><a xlink:href="runtime_8h.html" target="_top" xlink:title="shad/runtime/runtime.h">
<polygon fill="white" stroke="black" points="436,-260.5 436,-279.5 552,-279.5 552,-260.5 436,-260.5"/>
<text text-anchor="middle" x="494" y="-267.5" font-family="Helvetica,sans-Serif" font-size="10.00">shad/runtime/runtime.h</text>
</a>
</g>
</g>
<!-- Node1&#45;&gt;Node8 -->
<g id="edge41" class="edge"><title>Node1&#45;&gt;Node8</title>
<path fill="none" stroke="midnightblue" d="M370.093,-390.87C401.823,-384.004 437.679,-371.343 463,-348 479.688,-332.616 487.576,-307.016 491.175,-289.593"/>
<polygon fill="midnightblue" stroke="midnightblue" points="494.662,-289.974 492.971,-279.515 487.771,-288.746 494.662,-289.974"/>
</g>
<!-- Node6&#45;&gt;Node4 -->
<g id="edge6" class="edge"><title>Node6&#45;&gt;Node4</title>
<path fill="none" stroke="midnightblue" d="M384.122,-316.781C373.985,-307.703 360.838,-295.929 350.415,-286.595"/>
<polygon fill="midnightblue" stroke="midnightblue" points="352.534,-283.794 342.749,-279.731 347.864,-289.009 352.534,-283.794"/>
</g>
<!-- Node7 -->
<g id="node7" class="node"><title>Node7</title>
<polygon fill="white" stroke="#bfbfbf" points="378,-260.5 378,-279.5 418,-279.5 418,-260.5 378,-260.5"/>
<text text-anchor="middle" x="398" y="-267.5" font-family="Helvetica,sans-Serif" font-size="10.00">limits</text>
</g>
<!-- Node6&#45;&gt;Node7 -->
<g id="edge7" class="edge"><title>Node6&#45;&gt;Node7</title>
<path fill="none" stroke="midnightblue" d="M399.526,-316.781C399.256,-308.691 398.915,-298.462 398.624,-289.725"/>
<polygon fill="midnightblue" stroke="midnightblue" points="402.122,-289.608 398.291,-279.731 395.126,-289.842 402.122,-289.608"/>
</g>
<!-- Node6&#45;&gt;Node8 -->
<g id="edge8" class="edge"><title>Node6&#45;&gt;Node8</title>
<path fill="none" stroke="midnightblue" d="M422.277,-316.781C437.293,-307.196 457.017,-294.606 471.98,-285.056"/>
<polygon fill="midnightblue" stroke="midnightblue" points="474.05,-287.886 480.596,-279.556 470.284,-281.986 474.05,-287.886"/>
</g>
<!-- Node8&#45;&gt;Node5 -->
<g id="edge19" class="edge"><title>Node8&#45;&gt;Node5</title>
<path fill="none" stroke="midnightblue" d="M435.912,-261.061C432.899,-260.692 429.915,-260.336 427,-260 261.108,-240.881 213.792,-269.074 53,-224 50.8016,-223.384 48.5692,-222.618 46.362,-221.76"/>
<polygon fill="midnightblue" stroke="midnightblue" points="47.5877,-218.474 37.0294,-217.596 44.7353,-224.867 47.5877,-218.474"/>
</g>
<!-- Node9 -->
<g id="node9" class="node"><title>Node9</title>
<polygon fill="white" stroke="#bfbfbf" points="780.5,-130.5 780.5,-149.5 829.5,-149.5 829.5,-130.5 780.5,-130.5"/>
<text text-anchor="middle" x="805" y="-137.5" font-family="Helvetica,sans-Serif" font-size="10.00">cstddef</text>
</g>
<!-- Node8&#45;&gt;Node9 -->
<g id="edge9" class="edge"><title>Node8&#45;&gt;Node9</title>
<path fill="none" stroke="midnightblue" d="M552.035,-265.667C621.673,-260.613 733.175,-248.837 766,-224 786.696,-208.34 796.848,-178.971 801.493,-159.7"/>
<polygon fill="midnightblue" stroke="midnightblue" points="804.963,-160.212 803.629,-149.701 798.117,-158.749 804.963,-160.212"/>
</g>
<!-- Node10 -->
<g id="node10" class="node"><title>Node10</title>
<polygon fill="white" stroke="#bfbfbf" points="596,-62.5 596,-81.5 642,-81.5 642,-62.5 596,-62.5"/>
<text text-anchor="middle" x="619" y="-69.5" font-family="Helvetica,sans-Serif" font-size="10.00">cstdint</text>
</g>
<!-- Node8&#45;&gt;Node10 -->
<g id="edge10" class="edge"><title>Node8&#45;&gt;Node10</title>
<path fill="none" stroke="midnightblue" d="M513.118,-260.474C528.245,-252.857 548.931,-240.376 562,-224 594.393,-183.412 609.757,-122.455 615.772,-91.8916"/>
<polygon fill="midnightblue" stroke="midnightblue" points="619.267,-92.2402 617.636,-81.7717 612.383,-90.9725 619.267,-92.2402"/>
</g>
<!-- Node11 -->
<g id="node11" class="node"><title>Node11</title>
<polygon fill="white" stroke="#bfbfbf" points="62.5,-198.5 62.5,-217.5 121.5,-217.5 121.5,-198.5 62.5,-198.5"/>
<text text-anchor="middle" x="92" y="-205.5" font-family="Helvetica,sans-Serif" font-size="10.00">functional</text>
</g>
<!-- Node8&#45;&gt;Node11 -->
<g id="edge11" class="edge"><title>Node8&#45;&gt;Node11</title>
<path fill="none" stroke="midnightblue" d="M435.901,-261.15C432.891,-260.758 429.91,-260.372 427,-260 295.547,-243.178 259.596,-256.029 131,-224 127.762,-223.193 124.428,-222.193 121.138,-221.093"/>
<polygon fill="midnightblue" stroke="midnightblue" points="122.13,-217.729 111.536,-217.595 119.734,-224.307 122.13,-217.729"/>
</g>
<!-- Node12 -->
<g id="node12" class="node"><title>Node12</title>
<polygon fill="white" stroke="#bfbfbf" points="140,-198.5 140,-217.5 194,-217.5 194,-198.5 140,-198.5"/>
<text text-anchor="middle" x="167" y="-205.5" font-family="Helvetica,sans-Serif" font-size="10.00">iostream</text>
</g>
<!-- Node8&#45;&gt;Node12 -->
<g id="edge12" class="edge"><title>Node8&#45;&gt;Node12</title>
<path fill="none" stroke="midnightblue" d="M435.847,-260.775C357.403,-249.563 224.93,-230.167 203,-224 200.189,-223.21 197.304,-222.26 194.448,-221.227"/>
<polygon fill="midnightblue" stroke="midnightblue" points="195.597,-217.918 185.01,-217.505 193.029,-224.429 195.597,-217.918"/>
</g>
<!-- Node13 -->
<g id="node13" class="node"><title>Node13</title>
<polygon fill="white" stroke="#bfbfbf" points="212.5,-198.5 212.5,-217.5 259.5,-217.5 259.5,-198.5 212.5,-198.5"/>
<text text-anchor="middle" x="236" y="-205.5" font-family="Helvetica,sans-Serif" font-size="10.00">iterator</text>
</g>
<!-- Node8&#45;&gt;Node13 -->
<g id="edge13" class="edge"><title>Node8&#45;&gt;Node13</title>
<path fill="none" stroke="midnightblue" d="M435.734,-261.104C389.751,-253.98 324.353,-241.854 269,-224 266.726,-223.266 264.4,-222.421 262.089,-221.512"/>
<polygon fill="midnightblue" stroke="midnightblue" points="263.403,-218.267 252.832,-217.549 260.647,-224.702 263.403,-218.267"/>
</g>
<!-- Node14 -->
<g id="node14" class="node"><title>Node14</title>
<polygon fill="white" stroke="#bfbfbf" points="277.5,-198.5 277.5,-217.5 312.5,-217.5 312.5,-198.5 277.5,-198.5"/>
<text text-anchor="middle" x="295" y="-205.5" font-family="Helvetica,sans-Serif" font-size="10.00">map</text>
</g>
<!-- Node8&#45;&gt;Node14 -->
<g id="edge14" class="edge"><title>Node8&#45;&gt;Node14</title>
<path fill="none" stroke="midnightblue" d="M454.593,-260.441C420.365,-252.522 369.721,-239.632 327,-224 325.099,-223.304 323.156,-222.539 321.213,-221.733"/>
<polygon fill="midnightblue" stroke="midnightblue" points="322.264,-218.37 311.705,-217.504 319.42,-224.766 322.264,-218.37"/>
</g>
<!-- Node15 -->
<g id="node15" class="node"><title>Node15</title>
<polygon fill="white" stroke="#bfbfbf" points="408,-130.5 408,-149.5 460,-149.5 460,-130.5 408,-130.5"/>
<text text-anchor="middle" x="434" y="-137.5" font-family="Helvetica,sans-Serif" font-size="10.00">memory</text>
</g>
<!-- Node8&#45;&gt;Node15 -->
<g id="edge15" class="edge"><title>Node8&#45;&gt;Node15</title>
<path fill="none" stroke="midnightblue" d="M452.045,-260.489C416.983,-252.424 370.996,-239.292 360,-224 351.697,-212.453 353.386,-204.591 360,-192 368.977,-174.911 386.56,-162.428 402.335,-154.09"/>
<polygon fill="midnightblue" stroke="midnightblue" points="403.911,-157.215 411.335,-149.657 400.818,-150.936 403.911,-157.215"/>
</g>
<!-- Node16 -->
<g id="node16" class="node"><title>Node16</title>
<polygon fill="white" stroke="#bfbfbf" points="369,-198.5 369,-217.5 399,-217.5 399,-198.5 369,-198.5"/>
<text text-anchor="middle" x="384" y="-205.5" font-family="Helvetica,sans-Serif" font-size="10.00">set</text>
</g>
<!-- Node8&#45;&gt;Node16 -->
<g id="edge16" class="edge"><title>Node8&#45;&gt;Node16</title>
<path fill="none" stroke="midnightblue" d="M476.658,-260.417C459.139,-251.632 431.393,-237.405 408,-224 407.467,-223.695 406.929,-223.383 406.388,-223.067"/>
<polygon fill="midnightblue" stroke="midnightblue" points="407.965,-219.931 397.597,-217.75 404.342,-225.921 407.965,-219.931"/>
</g>
<!-- Node17 -->
<g id="node17" class="node"><title>Node17</title>
<polygon fill="white" stroke="#bfbfbf" points="417,-198.5 417,-217.5 495,-217.5 495,-198.5 417,-198.5"/>
<text text-anchor="middle" x="456" y="-205.5" font-family="Helvetica,sans-Serif" font-size="10.00">unordered_set</text>
</g>
<!-- Node8&#45;&gt;Node17 -->
<g id="edge17" class="edge"><title>Node8&#45;&gt;Node17</title>
<path fill="none" stroke="midnightblue" d="M488.556,-260.403C482.912,-251.493 473.939,-237.325 466.841,-226.118"/>
<polygon fill="midnightblue" stroke="midnightblue" points="469.742,-224.156 461.434,-217.581 463.828,-227.901 469.742,-224.156"/>
</g>
<!-- Node18 -->
<g id="node18" class="node"><title>Node18</title>
<polygon fill="white" stroke="#bfbfbf" points="513,-198.5 513,-217.5 553,-217.5 553,-198.5 513,-198.5"/>
<text text-anchor="middle" x="533" y="-205.5" font-family="Helvetica,sans-Serif" font-size="10.00">utility</text>
</g>
<!-- Node8&#45;&gt;Node18 -->
<g id="edge18" class="edge"><title>Node8&#45;&gt;Node18</title>
<path fill="none" stroke="midnightblue" d="M499.588,-260.403C505.38,-251.493 514.589,-237.325 521.874,-226.118"/>
<polygon fill="midnightblue" stroke="midnightblue" points="524.907,-227.873 527.423,-217.581 519.038,-224.058 524.907,-227.873"/>
</g>
<!-- Node19 -->
<g id="node19" class="node"><title>Node19</title>
<polygon fill="white" stroke="#bfbfbf" points="916,-0.5 916,-19.5 1020,-19.5 1020,-0.5 916,-0.5"/>
<text text-anchor="middle" x="968" y="-7.5" font-family="Helvetica,sans-Serif" font-size="10.00">shad/config/config.h</text>
</g>
<!-- Node8&#45;&gt;Node19 -->
<g id="edge20" class="edge"><title>Node8&#45;&gt;Node19</title>
<path fill="none" stroke="midnightblue" d="M552.02,-268.796C698.513,-266.846 1076.48,-252.396 1144,-156 1153.47,-142.481 1159.05,-77.3596 1142,-56 1127.96,-38.4087 1074.49,-26.3535 1030.49,-19.1812"/>
<polygon fill="midnightblue" stroke="midnightblue" points="1030.82,-15.6909 1020.4,-17.5937 1029.73,-22.6058 1030.82,-15.6909"/>
</g>
<!-- Node20 -->
<g id="node20" class="node"><title>Node20</title>
<g id="a_node20"><a xlink:href="handle_8h.html" target="_top" xlink:title="shad/runtime/handle.h">
<polygon fill="white" stroke="black" points="1022.5,-130.5 1022.5,-149.5 1135.5,-149.5 1135.5,-130.5 1022.5,-130.5"/>
<text text-anchor="middle" x="1079" y="-137.5" font-family="Helvetica,sans-Serif" font-size="10.00">shad/runtime/handle.h</text>
</a>
</g>
</g>
<!-- Node8&#45;&gt;Node20 -->
<g id="edge21" class="edge"><title>Node8&#45;&gt;Node20</title>
<path fill="none" stroke="midnightblue" d="M552.197,-268.66C632.739,-266.836 782.054,-258.551 904,-224 961.714,-207.648 1023.97,-173.782 1056.41,-154.751"/>
<polygon fill="midnightblue" stroke="midnightblue" points="1058.31,-157.697 1065.12,-149.58 1054.73,-151.679 1058.31,-157.697"/>
</g>
<!-- Node22 -->
<g id="node22" class="node"><title>Node22</title>
<g id="a_node22"><a xlink:href="mapping__traits_8h.html" target="_top" xlink:title="shad/runtime/mapping\l_traits.h">
<polygon fill="white" stroke="black" points="744.5,-57 744.5,-87 857.5,-87 857.5,-57 744.5,-57"/>
<text text-anchor="start" x="752.5" y="-75" font-family="Helvetica,sans-Serif" font-size="10.00">shad/runtime/mapping</text>
<text text-anchor="middle" x="801" y="-64" font-family="Helvetica,sans-Serif" font-size="10.00">_traits.h</text>
</a>
</g>
</g>
<!-- Node8&#45;&gt;Node22 -->
<g id="edge33" class="edge"><title>Node8&#45;&gt;Node22</title>
<path fill="none" stroke="midnightblue" d="M552.119,-265.64C627.006,-260.393 752.184,-248.238 791,-224 832.655,-197.989 853.159,-170.71 838,-124 834.606,-113.543 828.175,-103.437 821.614,-95.017"/>
<polygon fill="midnightblue" stroke="midnightblue" points="824.204,-92.6575 815.117,-87.209 818.823,-97.1347 824.204,-92.6575"/>
</g>
<!-- Node25 -->
<g id="node25" class="node"><title>Node25</title>
<g id="a_node25"><a xlink:href="locality_8h.html" target="_top" xlink:title="shad/runtime/locality.h">
<polygon fill="white" stroke="black" points="647.5,-130.5 647.5,-149.5 762.5,-149.5 762.5,-130.5 647.5,-130.5"/>
<text text-anchor="middle" x="705" y="-137.5" font-family="Helvetica,sans-Serif" font-size="10.00">shad/runtime/locality.h</text>
</a>
</g>
</g>
<!-- Node8&#45;&gt;Node25 -->
<g id="edge28" class="edge"><title>Node8&#45;&gt;Node25</title>
<path fill="none" stroke="midnightblue" d="M552.09,-267.119C619.434,-263.572 724.368,-253.36 749,-224 766.519,-203.119 742.412,-174.128 723.562,-156.515"/>
<polygon fill="midnightblue" stroke="midnightblue" points="725.735,-153.763 715.942,-149.72 721.076,-158.988 725.735,-153.763"/>
</g>
<!-- Node26 -->
<g id="node26" class="node"><title>Node26</title>
<g id="a_node26"><a xlink:href="available__mappings_8h.html" target="_top" xlink:title="shad/runtime/mappings\l/available_mappings.h">
<polygon fill="white" stroke="black" points="886,-125 886,-155 1004,-155 1004,-125 886,-125"/>
<text text-anchor="start" x="894" y="-143" font-family="Helvetica,sans-Serif" font-size="10.00">shad/runtime/mappings</text>
<text text-anchor="middle" x="945" y="-132" font-family="Helvetica,sans-Serif" font-size="10.00">/available_mappings.h</text>
</a>
</g>
</g>
<!-- Node8&#45;&gt;Node26 -->
<g id="edge34" class="edge"><title>Node8&#45;&gt;Node26</title>
<path fill="none" stroke="midnightblue" d="M552.24,-267.115C644.113,-263.307 817.815,-252.482 872,-224 897.955,-210.357 918.934,-183.43 931.629,-163.938"/>
<polygon fill="midnightblue" stroke="midnightblue" points="934.685,-165.652 937.025,-155.319 928.752,-161.938 934.685,-165.652"/>
</g>
<!-- Node27 -->
<g id="node27" class="node"><title>Node27</title>
<g id="a_node27"><a xlink:href="synchronous__interface_8h.html" target="_top" xlink:title="shad/runtime/synchronous\l_interface.h">
<polygon fill="white" stroke="black" points="609.5,-193 609.5,-223 740.5,-223 740.5,-193 609.5,-193"/>
<text text-anchor="start" x="617.5" y="-211" font-family="Helvetica,sans-Serif" font-size="10.00">shad/runtime/synchronous</text>
<text text-anchor="middle" x="675" y="-200" font-family="Helvetica,sans-Serif" font-size="10.00">_interface.h</text>
</a>
</g>
</g>
<!-- Node8&#45;&gt;Node27 -->
<g id="edge36" class="edge"><title>Node8&#45;&gt;Node27</title>
<path fill="none" stroke="midnightblue" d="M519.933,-260.403C546.712,-251.526 589.23,-237.432 622.977,-226.245"/>
<polygon fill="midnightblue" stroke="midnightblue" points="624.3,-229.494 632.69,-223.025 622.097,-222.85 624.3,-229.494"/>
</g>
<!-- Node20&#45;&gt;Node19 -->
<g id="edge23" class="edge"><title>Node20&#45;&gt;Node19</title>
<path fill="none" stroke="midnightblue" d="M1074.6,-130.356C1066.3,-114.52 1047.13,-80.2552 1025,-56 1014.54,-44.5355 1000.96,-33.692 989.679,-25.5229"/>
<polygon fill="midnightblue" stroke="midnightblue" points="991.423,-22.4705 981.229,-19.584 987.398,-28.1976 991.423,-22.4705"/>
</g>
<!-- Node21 -->
<g id="node21" class="node"><title>Node21</title>
<polygon fill="white" stroke="#bfbfbf" points="1072,-62.5 1072,-81.5 1134,-81.5 1134,-62.5 1072,-62.5"/>
<text text-anchor="middle" x="1103" y="-69.5" font-family="Helvetica,sans-Serif" font-size="10.00">type_traits</text>
</g>
<!-- Node20&#45;&gt;Node21 -->
<g id="edge22" class="edge"><title>Node20&#45;&gt;Node21</title>
<path fill="none" stroke="midnightblue" d="M1082.14,-130.372C1085.71,-120.544 1091.65,-104.202 1096.28,-91.4673"/>
<polygon fill="midnightblue" stroke="midnightblue" points="1099.66,-92.4352 1099.79,-81.8411 1093.08,-90.0429 1099.66,-92.4352"/>
</g>
<!-- Node20&#45;&gt;Node22 -->
<g id="edge24" class="edge"><title>Node20&#45;&gt;Node22</title>
<path fill="none" stroke="midnightblue" d="M1042.94,-130.439C998.683,-119.932 922.749,-101.904 867.735,-88.8435"/>
<polygon fill="midnightblue" stroke="midnightblue" points="868.256,-85.3701 857.718,-86.4655 866.639,-92.1808 868.256,-85.3701"/>
</g>
<!-- Node24 -->
<g id="node24" class="node"><title>Node24</title>
<g id="a_node24"><a xlink:href="available__traits__mappings_8h.html" target="_top" xlink:title="shad/runtime/mappings\l/available_traits_mappings.h">
<polygon fill="white" stroke="black" points="876,-57 876,-87 1016,-87 1016,-57 876,-57"/>
<text text-anchor="start" x="884" y="-75" font-family="Helvetica,sans-Serif" font-size="10.00">shad/runtime/mappings</text>
<text text-anchor="middle" x="946" y="-64" font-family="Helvetica,sans-Serif" font-size="10.00">/available_traits_mappings.h</text>
</a>
</g>
</g>
<!-- Node20&#45;&gt;Node24 -->
<g id="edge27" class="edge"><title>Node20&#45;&gt;Node24</title>
<path fill="none" stroke="midnightblue" d="M1061.61,-130.372C1041.86,-120.569 1009.04,-104.283 983.407,-91.5629"/>
<polygon fill="midnightblue" stroke="midnightblue" points="984.839,-88.3663 974.325,-87.0562 981.727,-94.6367 984.839,-88.3663"/>
</g>
<!-- Node22&#45;&gt;Node19 -->
<g id="edge26" class="edge"><title>Node22&#45;&gt;Node19</title>
<path fill="none" stroke="midnightblue" d="M840.154,-56.9327C868.832,-46.6292 907.341,-32.7935 934.578,-23.0079"/>
<polygon fill="midnightblue" stroke="midnightblue" points="935.836,-26.2752 944.063,-19.6 933.469,-19.6874 935.836,-26.2752"/>
</g>
<!-- Node23 -->
<g id="node23" class="node"><title>Node23</title>
<polygon fill="white" stroke="#bfbfbf" points="780.5,-0.5 780.5,-19.5 821.5,-19.5 821.5,-0.5 780.5,-0.5"/>
<text text-anchor="middle" x="801" y="-7.5" font-family="Helvetica,sans-Serif" font-size="10.00">string</text>
</g>
<!-- Node22&#45;&gt;Node23 -->
<g id="edge25" class="edge"><title>Node22&#45;&gt;Node23</title>
<path fill="none" stroke="midnightblue" d="M801,-56.7808C801,-48.7812 801,-38.6887 801,-30.0168"/>
<polygon fill="midnightblue" stroke="midnightblue" points="804.5,-29.7305 801,-19.7305 797.5,-29.7306 804.5,-29.7305"/>
</g>
<!-- Node25&#45;&gt;Node10 -->
<g id="edge29" class="edge"><title>Node25&#45;&gt;Node10</title>
<path fill="none" stroke="midnightblue" d="M693.757,-130.372C679.722,-119.6 655.488,-101.002 638.424,-87.9065"/>
<polygon fill="midnightblue" stroke="midnightblue" points="640.31,-84.9421 630.246,-81.6305 636.048,-90.4953 640.31,-84.9421"/>
</g>
<!-- Node25&#45;&gt;Node19 -->
<g id="edge30" class="edge"><title>Node25&#45;&gt;Node19</title>
<path fill="none" stroke="midnightblue" d="M705.542,-130.409C707.103,-113.394 713.106,-75.3798 736,-56 761.125,-34.7313 845.907,-22.4452 905.685,-16.2373"/>
<polygon fill="midnightblue" stroke="midnightblue" points="906.193,-19.704 915.792,-15.2204 905.492,-12.7391 906.193,-19.704"/>
</g>
<!-- Node25&#45;&gt;Node22 -->
<g id="edge31" class="edge"><title>Node25&#45;&gt;Node22</title>
<path fill="none" stroke="midnightblue" d="M717.55,-130.372C731.265,-120.943 753.703,-105.517 771.86,-93.0338"/>
<polygon fill="midnightblue" stroke="midnightblue" points="774.115,-95.7309 780.372,-87.1815 770.149,-89.9626 774.115,-95.7309"/>
</g>
<!-- Node25&#45;&gt;Node24 -->
<g id="edge32" class="edge"><title>Node25&#45;&gt;Node24</title>
<path fill="none" stroke="midnightblue" d="M736.507,-130.372C774.028,-120.096 837.561,-102.697 884.845,-89.7478"/>
<polygon fill="midnightblue" stroke="midnightblue" points="885.953,-93.0733 894.673,-87.0562 884.104,-86.3219 885.953,-93.0733"/>
</g>
<!-- Node26&#45;&gt;Node24 -->
<g id="edge35" class="edge"><title>Node26&#45;&gt;Node24</title>
<path fill="none" stroke="midnightblue" d="M945.217,-124.679C945.338,-116.722 945.491,-106.605 945.63,-97.4356"/>
<polygon fill="midnightblue" stroke="midnightblue" points="949.131,-97.345 945.783,-87.2931 942.132,-97.2389 949.131,-97.345"/>
</g>
<!-- Node27&#45;&gt;Node9 -->
<g id="edge37" class="edge"><title>Node27&#45;&gt;Node9</title>
<path fill="none" stroke="midnightblue" d="M702.888,-192.841C725.374,-181.425 756.772,-165.485 778.796,-154.303"/>
<polygon fill="midnightblue" stroke="midnightblue" points="780.567,-157.33 787.899,-149.682 777.398,-151.088 780.567,-157.33"/>
</g>
<!-- Node27&#45;&gt;Node10 -->
<g id="edge38" class="edge"><title>Node27&#45;&gt;Node10</title>
<path fill="none" stroke="midnightblue" d="M662.696,-192.737C654.865,-182.979 645.085,-169.425 639,-156 629.463,-134.959 624.125,-108.773 621.409,-91.5061"/>
<polygon fill="midnightblue" stroke="midnightblue" points="624.871,-90.9917 619.984,-81.5911 617.942,-91.9872 624.871,-90.9917"/>
</g>
<!-- Node27&#45;&gt;Node15 -->
<g id="edge39" class="edge"><title>Node27&#45;&gt;Node15</title>
<path fill="none" stroke="midnightblue" d="M623.595,-192.922C577.334,-180.253 510.553,-161.965 469.837,-150.814"/>
<polygon fill="midnightblue" stroke="midnightblue" points="470.645,-147.407 460.075,-148.141 468.796,-154.158 470.645,-147.407"/>
</g>
<!-- Node27&#45;&gt;Node25 -->
<g id="edge40" class="edge"><title>Node27&#45;&gt;Node25</title>
<path fill="none" stroke="midnightblue" d="M681.51,-192.679C686.002,-182.796 692.009,-169.579 696.824,-158.986"/>
<polygon fill="midnightblue" stroke="midnightblue" points="700.035,-160.38 700.987,-149.828 693.663,-157.484 700.035,-160.38"/>
</g>
</g>
</svg>
