<?xml version="1.0" encoding="UTF-8" standalone="no"?>
<!DOCTYPE svg PUBLIC "-//W3C//DTD SVG 1.1//EN"
 "http://www.w3.org/Graphics/SVG/1.1/DTD/svg11.dtd">
<!-- Generated by graphviz version 2.36.0 (20140111.2315)
 -->
<!-- Title: include/shad/data_structures/buffer.h Pages: 1 -->
<svg width="1067pt" height="424pt"
 viewBox="0.00 0.00 1067.00 424.00" xmlns="http://www.w3.org/2000/svg" xmlns:xlink="http://www.w3.org/1999/xlink">
<g id="graph0" class="graph" transform="scale(1 1) rotate(0) translate(4 420)">
<title>include/shad/data_structures/buffer.h</title>
<polygon fill="white" stroke="none" points="-4,4 -4,-420 1063,-420 1063,4 -4,4"/>
<!-- Node1 -->
<g id="node1" class="node"><title>Node1</title>
<polygon fill="#bfbfbf" stroke="black" points="181,-385 181,-415 323,-415 323,-385 181,-385"/>
<text text-anchor="start" x="189" y="-403" font-family="Helvetica,sans-Serif" font-size="10.00">include/shad/data_structures</text>
<text text-anchor="middle" x="252" y="-392" font-family="Helvetica,sans-Serif" font-size="10.00">/buffer.h</text>
</g>
<!-- Node2 -->
<g id="node2" class="node"><title>Node2</title>
<polygon fill="white" stroke="#bfbfbf" points="93,-322.5 93,-341.5 149,-341.5 149,-322.5 93,-322.5"/>
<text text-anchor="middle" x="121" y="-329.5" font-family="Helvetica,sans-Serif" font-size="10.00">algorithm</text>
</g>
<!-- Node1&#45;&gt;Node2 -->
<g id="edge1" class="edge"><title>Node1&#45;&gt;Node2</title>
<path fill="none" stroke="midnightblue" d="M223.897,-384.841C201.238,-373.425 169.599,-357.485 147.405,-346.303"/>
<polygon fill="midnightblue" stroke="midnightblue" points="148.738,-343.056 138.232,-341.682 145.588,-349.307 148.738,-343.056"/>
</g>
<!-- Node3 -->
<g id="node3" class="node"><title>Node3</title>
<polygon fill="white" stroke="#bfbfbf" points="167,-322.5 167,-341.5 205,-341.5 205,-322.5 167,-322.5"/>
<text text-anchor="middle" x="186" y="-329.5" font-family="Helvetica,sans-Serif" font-size="10.00">array</text>
</g>
<!-- Node1&#45;&gt;Node3 -->
<g id="edge2" class="edge"><title>Node1&#45;&gt;Node3</title>
<path fill="none" stroke="midnightblue" d="M237.679,-384.679C227.184,-374.184 212.932,-359.932 202.052,-349.052"/>
<polygon fill="midnightblue" stroke="midnightblue" points="204.374,-346.425 194.828,-341.828 199.425,-351.374 204.374,-346.425"/>
</g>
<!-- Node4 -->
<g id="node4" class="node"><title>Node4</title>
<polygon fill="white" stroke="#bfbfbf" points="263,-260.5 263,-279.5 309,-279.5 309,-260.5 263,-260.5"/>
<text text-anchor="middle" x="286" y="-267.5" font-family="Helvetica,sans-Serif" font-size="10.00">atomic</text>
</g>
<!-- Node1&#45;&gt;Node4 -->
<g id="edge3" class="edge"><title>Node1&#45;&gt;Node4</title>
<path fill="none" stroke="midnightblue" d="M255.769,-384.813C261.943,-361.566 274.214,-315.371 281.071,-289.556"/>
<polygon fill="midnightblue" stroke="midnightblue" points="284.538,-290.137 283.723,-279.574 277.773,-288.34 284.538,-290.137"/>
</g>
<!-- Node5 -->
<g id="node5" class="node"><title>Node5</title>
<polygon fill="white" stroke="#bfbfbf" points="0,-198.5 0,-217.5 44,-217.5 44,-198.5 0,-198.5"/>
<text text-anchor="middle" x="22" y="-205.5" font-family="Helvetica,sans-Serif" font-size="10.00">vector</text>
</g>
<!-- Node1&#45;&gt;Node5 -->
<g id="edge4" class="edge"><title>Node1&#45;&gt;Node5</title>
<path fill="none" stroke="midnightblue" d="M248.474,-384.834C243.418,-366.963 232.605,-336.138 214,-316 168.666,-266.931 95.5463,-234.935 53.844,-219.609"/>
<polygon fill="midnightblue" stroke="midnightblue" points="54.7972,-216.232 44.2026,-216.157 52.4379,-222.823 54.7972,-216.232"/>
</g>
<!-- Node6 -->
<g id="node6" class="node"><title>Node6</title>
<g id="a_node6"><a xlink:href="object__identifier_8h.html" target="_top" xlink:title="shad/data_structures\l/object_identifier.h">
<polygon fill="white" stroke="black" points="299,-317 299,-347 407,-347 407,-317 299,-317"/>
<text text-anchor="start" x="307" y="-335" font-family="Helvetica,sans-Serif" font-size="10.00">shad/data_structures</text>
<text text-anchor="middle" x="353" y="-324" font-family="Helvetica,sans-Serif" font-size="10.00">/object_identifier.h</text>
</a>
</g>
</g>
<!-- Node1&#45;&gt;Node6 -->
<g id="edge5" class="edge"><title>Node1&#45;&gt;Node6</title>
<path fill="none" stroke="midnightblue" d="M273.915,-384.679C288.307,-375.274 307.318,-362.852 323.093,-352.543"/>
<polygon fill="midnightblue" stroke="midnightblue" points="325.018,-355.467 331.474,-347.066 321.188,-349.607 325.018,-355.467"/>
</g>
<!-- Node8 -->
<g id="node8" class="node"><title>Node8</title>
<g id="a_node8"><a xlink:href="runtime_8h.html" target="_top" xlink:title="shad/runtime/runtime.h">
<polygon fill="white" stroke="black" points="387,-260.5 387,-279.5 503,-279.5 503,-260.5 387,-260.5"/>
<text text-anchor="middle" x="445" y="-267.5" font-family="Helvetica,sans-Serif" font-size="10.00">shad/runtime/runtime.h</text>
</a>
</g>
</g>
<!-- Node1&#45;&gt;Node8 -->
<g id="edge42" class="edge"><title>Node1&#45;&gt;Node8</title>
<path fill="none" stroke="midnightblue" d="M323.332,-391.127C355.114,-384.316 390.944,-371.627 416,-348 432.369,-332.565 439.573,-306.977 442.694,-289.571"/>
<polygon fill="midnightblue" stroke="midnightblue" points="446.182,-289.913 444.21,-279.503 439.26,-288.87 446.182,-289.913"/>
</g>
<!-- Node6&#45;&gt;Node4 -->
<g id="edge6" class="edge"><title>Node6&#45;&gt;Node4</title>
<path fill="none" stroke="midnightblue" d="M337.122,-316.781C326.985,-307.703 313.838,-295.929 303.415,-286.595"/>
<polygon fill="midnightblue" stroke="midnightblue" points="305.534,-283.794 295.749,-279.731 300.864,-289.009 305.534,-283.794"/>
</g>
<!-- Node7 -->
<g id="node7" class="node"><title>Node7</title>
<polygon fill="white" stroke="#bfbfbf" points="329,-260.5 329,-279.5 369,-279.5 369,-260.5 329,-260.5"/>
<text text-anchor="middle" x="349" y="-267.5" font-family="Helvetica,sans-Serif" font-size="10.00">limits</text>
</g>
<!-- Node6&#45;&gt;Node7 -->
<g id="edge7" class="edge"><title>Node6&#45;&gt;Node7</title>
<path fill="none" stroke="midnightblue" d="M352.052,-316.781C351.513,-308.691 350.831,-298.462 350.248,-289.725"/>
<polygon fill="midnightblue" stroke="midnightblue" points="353.74,-289.476 349.582,-279.731 346.755,-289.941 353.74,-289.476"/>
</g>
<!-- Node6&#45;&gt;Node8 -->
<g id="edge8" class="edge"><title>Node6&#45;&gt;Node8</title>
<path fill="none" stroke="midnightblue" d="M374.803,-316.781C389.5,-307.196 408.804,-294.606 423.448,-285.056"/>
<polygon fill="midnightblue" stroke="midnightblue" points="425.417,-287.95 431.881,-279.556 421.593,-282.087 425.417,-287.95"/>
</g>
<!-- Node8&#45;&gt;Node5 -->
<g id="edge19" class="edge"><title>Node8&#45;&gt;Node5</title>
<path fill="none" stroke="midnightblue" d="M386.905,-261.118C383.894,-260.734 380.912,-260.359 378,-260 235.958,-242.472 196.549,-259.881 58,-224 55.0156,-223.227 51.954,-222.255 48.9371,-221.178"/>
<polygon fill="midnightblue" stroke="midnightblue" points="50.1882,-217.909 39.6013,-217.501 47.623,-224.422 50.1882,-217.909"/>
</g>
<!-- Node9 -->
<g id="node9" class="node"><title>Node9</title>
<polygon fill="white" stroke="#bfbfbf" points="455.5,-130.5 455.5,-149.5 504.5,-149.5 504.5,-130.5 455.5,-130.5"/>
<text text-anchor="middle" x="480" y="-137.5" font-family="Helvetica,sans-Serif" font-size="10.00">cstddef</text>
</g>
<!-- Node8&#45;&gt;Node9 -->
<g id="edge9" class="edge"><title>Node8&#45;&gt;Node9</title>
<path fill="none" stroke="midnightblue" d="M503.379,-263.223C553.608,-256.903 620.517,-244.793 637,-224 645.835,-212.855 645.528,-203.382 637,-192 602.845,-146.416 567.505,-175.537 514,-156 511.883,-155.227 509.71,-154.385 507.537,-153.509"/>
<polygon fill="midnightblue" stroke="midnightblue" points="508.745,-150.219 498.172,-149.541 506.014,-156.665 508.745,-150.219"/>
</g>
<!-- Node10 -->
<g id="node10" class="node"><title>Node10</title>
<polygon fill="white" stroke="#bfbfbf" points="404,-62.5 404,-81.5 450,-81.5 450,-62.5 404,-62.5"/>
<text text-anchor="middle" x="427" y="-69.5" font-family="Helvetica,sans-Serif" font-size="10.00">cstdint</text>
</g>
<!-- Node8&#45;&gt;Node10 -->
<g id="edge10" class="edge"><title>Node8&#45;&gt;Node10</title>
<path fill="none" stroke="midnightblue" d="M392.44,-260.446C337.215,-250.925 257.077,-235.384 248,-224 198.318,-161.689 329.658,-106.273 393.937,-83.7234"/>
<polygon fill="midnightblue" stroke="midnightblue" points="395.32,-86.9494 403.64,-80.3905 393.045,-80.3291 395.32,-86.9494"/>
</g>
<!-- Node11 -->
<g id="node11" class="node"><title>Node11</title>
<polygon fill="white" stroke="#bfbfbf" points="1000.5,-198.5 1000.5,-217.5 1059.5,-217.5 1059.5,-198.5 1000.5,-198.5"/>
<text text-anchor="middle" x="1030" y="-205.5" font-family="Helvetica,sans-Serif" font-size="10.00">functional</text>
</g>
<!-- Node8&#45;&gt;Node11 -->
<g id="edge11" class="edge"><title>Node8&#45;&gt;Node11</title>
<path fill="none" stroke="midnightblue" d="M503.318,-268.814C603.21,-267.463 813.013,-260.107 986,-224 990.177,-223.128 994.506,-221.976 998.745,-220.698"/>
<polygon fill="midnightblue" stroke="midnightblue" points="999.944,-223.989 1008.36,-217.556 997.77,-217.335 999.944,-223.989"/>
</g>
<!-- Node12 -->
<g id="node12" class="node"><title>Node12</title>
<polygon fill="white" stroke="#bfbfbf" points="189,-62.5 189,-81.5 243,-81.5 243,-62.5 189,-62.5"/>
<text text-anchor="middle" x="216" y="-69.5" font-family="Helvetica,sans-Serif" font-size="10.00">iostream</text>
</g>
<!-- Node8&#45;&gt;Node12 -->
<g id="edge12" class="edge"><title>Node8&#45;&gt;Node12</title>
<path fill="none" stroke="midnightblue" d="M386.899,-261.164C383.89,-260.768 380.91,-260.378 378,-260 314.258,-251.721 133.529,-272.197 91,-224 47.1971,-174.359 142.143,-112.97 190.264,-86.3506"/>
<polygon fill="midnightblue" stroke="midnightblue" points="192.084,-89.3454 199.209,-81.5042 188.75,-83.1907 192.084,-89.3454"/>
</g>
<!-- Node13 -->
<g id="node13" class="node"><title>Node13</title>
<polygon fill="white" stroke="#bfbfbf" points="100.5,-198.5 100.5,-217.5 147.5,-217.5 147.5,-198.5 100.5,-198.5"/>
<text text-anchor="middle" x="124" y="-205.5" font-family="Helvetica,sans-Serif" font-size="10.00">iterator</text>
</g>
<!-- Node8&#45;&gt;Node13 -->
<g id="edge13" class="edge"><title>Node8&#45;&gt;Node13</title>
<path fill="none" stroke="midnightblue" d="M386.88,-260.851C308.889,-249.778 177.611,-230.6 156,-224 153.722,-223.304 151.4,-222.475 149.099,-221.568"/>
<polygon fill="midnightblue" stroke="midnightblue" points="150.489,-218.357 139.925,-217.551 147.681,-224.769 150.489,-218.357"/>
</g>
<!-- Node14 -->
<g id="node14" class="node"><title>Node14</title>
<polygon fill="white" stroke="#bfbfbf" points="165.5,-198.5 165.5,-217.5 200.5,-217.5 200.5,-198.5 165.5,-198.5"/>
<text text-anchor="middle" x="183" y="-205.5" font-family="Helvetica,sans-Serif" font-size="10.00">map</text>
</g>
<!-- Node8&#45;&gt;Node14 -->
<g id="edge14" class="edge"><title>Node8&#45;&gt;Node14</title>
<path fill="none" stroke="midnightblue" d="M393.668,-260.466C336.388,-250.677 247.488,-234.614 215,-224 212.868,-223.303 210.692,-222.5 208.528,-221.634"/>
<polygon fill="midnightblue" stroke="midnightblue" points="209.858,-218.395 199.294,-217.579 207.043,-224.804 209.858,-218.395"/>
</g>
<!-- Node15 -->
<g id="node15" class="node"><title>Node15</title>
<polygon fill="white" stroke="#bfbfbf" points="347,-130.5 347,-149.5 399,-149.5 399,-130.5 347,-130.5"/>
<text text-anchor="middle" x="373" y="-137.5" font-family="Helvetica,sans-Serif" font-size="10.00">memory</text>
</g>
<!-- Node8&#45;&gt;Node15 -->
<g id="edge15" class="edge"><title>Node8&#45;&gt;Node15</title>
<path fill="none" stroke="midnightblue" d="M448.393,-260.284C453.634,-245.313 461.917,-214.187 450,-192 440.677,-174.642 422.562,-162.197 406.245,-153.948"/>
<polygon fill="midnightblue" stroke="midnightblue" points="407.464,-150.654 396.925,-149.571 404.488,-156.99 407.464,-150.654"/>
</g>
<!-- Node16 -->
<g id="node16" class="node"><title>Node16</title>
<polygon fill="white" stroke="#bfbfbf" points="257,-198.5 257,-217.5 287,-217.5 287,-198.5 257,-198.5"/>
<text text-anchor="middle" x="272" y="-205.5" font-family="Helvetica,sans-Serif" font-size="10.00">set</text>
</g>
<!-- Node8&#45;&gt;Node16 -->
<g id="edge16" class="edge"><title>Node8&#45;&gt;Node16</title>
<path fill="none" stroke="midnightblue" d="M406.952,-260.477C376.231,-252.899 332.296,-240.469 296,-224 295.016,-223.553 294.023,-223.073 293.031,-222.567"/>
<polygon fill="midnightblue" stroke="midnightblue" points="294.771,-219.53 284.355,-217.593 291.289,-225.603 294.771,-219.53"/>
</g>
<!-- Node17 -->
<g id="node17" class="node"><title>Node17</title>
<polygon fill="white" stroke="#bfbfbf" points="305,-198.5 305,-217.5 383,-217.5 383,-198.5 305,-198.5"/>
<text text-anchor="middle" x="344" y="-205.5" font-family="Helvetica,sans-Serif" font-size="10.00">unordered_set</text>
</g>
<!-- Node8&#45;&gt;Node17 -->
<g id="edge17" class="edge"><title>Node8&#45;&gt;Node17</title>
<path fill="none" stroke="midnightblue" d="M430.529,-260.403C413.954,-250.557 386.574,-234.291 367.053,-222.695"/>
<polygon fill="midnightblue" stroke="midnightblue" points="368.829,-219.679 358.444,-217.581 365.254,-225.697 368.829,-219.679"/>
</g>
<!-- Node18 -->
<g id="node18" class="node"><title>Node18</title>
<polygon fill="white" stroke="#bfbfbf" points="401,-198.5 401,-217.5 441,-217.5 441,-198.5 401,-198.5"/>
<text text-anchor="middle" x="421" y="-205.5" font-family="Helvetica,sans-Serif" font-size="10.00">utility</text>
</g>
<!-- Node8&#45;&gt;Node18 -->
<g id="edge18" class="edge"><title>Node8&#45;&gt;Node18</title>
<path fill="none" stroke="midnightblue" d="M441.561,-260.403C438.104,-251.76 432.668,-238.17 428.254,-227.134"/>
<polygon fill="midnightblue" stroke="midnightblue" points="431.396,-225.565 424.432,-217.581 424.897,-228.165 431.396,-225.565"/>
</g>
<!-- Node19 -->
<g id="node19" class="node"><title>Node19</title>
<polygon fill="white" stroke="#bfbfbf" points="669,-0.5 669,-19.5 773,-19.5 773,-0.5 669,-0.5"/>
<text text-anchor="middle" x="721" y="-7.5" font-family="Helvetica,sans-Serif" font-size="10.00">shad/config/config.h</text>
</g>
<!-- Node8&#45;&gt;Node19 -->
<g id="edge20" class="edge"><title>Node8&#45;&gt;Node19</title>
<path fill="none" stroke="midnightblue" d="M503.07,-264.449C618.15,-254.021 868.043,-223.88 914,-156 938.917,-119.197 941.629,-90.8127 914,-56 897.842,-35.6409 833.528,-23.6386 783.53,-17.2205"/>
<polygon fill="midnightblue" stroke="midnightblue" points="783.774,-13.7242 773.421,-15.9726 782.917,-20.6714 783.774,-13.7242"/>
</g>
<!-- Node20 -->
<g id="node20" class="node"><title>Node20</title>
<g id="a_node20"><a xlink:href="handle_8h.html" target="_top" xlink:title="shad/runtime/handle.h">
<polygon fill="white" stroke="black" points="792.5,-130.5 792.5,-149.5 905.5,-149.5 905.5,-130.5 792.5,-130.5"/>
<text text-anchor="middle" x="849" y="-137.5" font-family="Helvetica,sans-Serif" font-size="10.00">shad/runtime/handle.h</text>
</a>
</g>
</g>
<!-- Node8&#45;&gt;Node20 -->
<g id="edge21" class="edge"><title>Node8&#45;&gt;Node20</title>
<path fill="none" stroke="midnightblue" d="M503.158,-263.892C554.909,-258.108 632.08,-246.411 696,-224 746.178,-206.407 799.659,-173.787 828.197,-155.109"/>
<polygon fill="midnightblue" stroke="midnightblue" points="830.15,-158.014 836.551,-149.571 826.282,-152.179 830.15,-158.014"/>
</g>
<!-- Node22 -->
<g id="node22" class="node"><title>Node22</title>
<g id="a_node22"><a xlink:href="mapping__traits_8h.html" target="_top" xlink:title="shad/runtime/mapping\l_traits.h">
<polygon fill="white" stroke="black" points="792.5,-57 792.5,-87 905.5,-87 905.5,-57 792.5,-57"/>
<text text-anchor="start" x="800.5" y="-75" font-family="Helvetica,sans-Serif" font-size="10.00">shad/runtime/mapping</text>
<text text-anchor="middle" x="849" y="-64" font-family="Helvetica,sans-Serif" font-size="10.00">_traits.h</text>
</a>
</g>
</g>
<!-- Node8&#45;&gt;Node22 -->
<g id="edge34" class="edge"><title>Node8&#45;&gt;Node22</title>
<path fill="none" stroke="midnightblue" d="M503.07,-264.449C618.15,-254.021 868.043,-223.88 914,-156 921.973,-144.223 920.221,-136.789 914,-124 907.85,-111.357 896.881,-100.92 885.684,-92.8517"/>
<polygon fill="midnightblue" stroke="midnightblue" points="887.412,-89.7967 877.154,-87.1468 883.521,-95.6153 887.412,-89.7967"/>
</g>
<!-- Node25 -->
<g id="node25" class="node"><title>Node25</title>
<g id="a_node25"><a xlink:href="locality_8h.html" target="_top" xlink:title="shad/runtime/locality.h">
<polygon fill="white" stroke="black" points="522.5,-130.5 522.5,-149.5 637.5,-149.5 637.5,-130.5 522.5,-130.5"/>
<text text-anchor="middle" x="580" y="-137.5" font-family="Helvetica,sans-Serif" font-size="10.00">shad/runtime/locality.h</text>
</a>
</g>
</g>
<!-- Node8&#45;&gt;Node25 -->
<g id="edge28" class="edge"><title>Node8&#45;&gt;Node25</title>
<path fill="none" stroke="midnightblue" d="M503,-264.533C558.127,-258.94 635.315,-247.136 654,-224 662.936,-212.935 660.614,-204.591 654,-192 645.023,-174.911 627.44,-162.428 611.665,-154.09"/>
<polygon fill="midnightblue" stroke="midnightblue" points="613.182,-150.936 602.665,-149.657 610.089,-157.215 613.182,-150.936"/>
</g>
<!-- Node26 -->
<g id="node26" class="node"><title>Node26</title>
<g id="a_node26"><a xlink:href="available__mappings_8h.html" target="_top" xlink:title="shad/runtime/mappings\l/available_mappings.h">
<polygon fill="white" stroke="black" points="656,-125 656,-155 774,-155 774,-125 656,-125"/>
<text text-anchor="start" x="664" y="-143" font-family="Helvetica,sans-Serif" font-size="10.00">shad/runtime/mappings</text>
<text text-anchor="middle" x="715" y="-132" font-family="Helvetica,sans-Serif" font-size="10.00">/available_mappings.h</text>
</a>
</g>
</g>
<!-- Node8&#45;&gt;Node26 -->
<g id="edge35" class="edge"><title>Node8&#45;&gt;Node26</title>
<path fill="none" stroke="midnightblue" d="M503.228,-263.003C560.831,-256.09 644.036,-243.158 670,-224 689.586,-209.548 701.592,-183.934 708.22,-164.97"/>
<polygon fill="midnightblue" stroke="midnightblue" points="711.622,-165.824 711.364,-155.232 704.961,-163.674 711.622,-165.824"/>
</g>
<!-- Node27 -->
<g id="node27" class="node"><title>Node27</title>
<g id="a_node27"><a xlink:href="synchronous__interface_8h.html" target="_top" xlink:title="shad/runtime/synchronous\l_interface.h">
<polygon fill="white" stroke="black" points="497.5,-193 497.5,-223 628.5,-223 628.5,-193 497.5,-193"/>
<text text-anchor="start" x="505.5" y="-211" font-family="Helvetica,sans-Serif" font-size="10.00">shad/runtime/synchronous</text>
<text text-anchor="middle" x="563" y="-200" font-family="Helvetica,sans-Serif" font-size="10.00">_interface.h</text>
</a>
</g>
</g>
<!-- Node8&#45;&gt;Node27 -->
<g id="edge37" class="edge"><title>Node8&#45;&gt;Node27</title>
<path fill="none" stroke="midnightblue" d="M461.907,-260.403C478.56,-251.936 504.55,-238.72 526.007,-227.81"/>
<polygon fill="midnightblue" stroke="midnightblue" points="527.862,-230.793 535.19,-223.141 524.689,-224.553 527.862,-230.793"/>
</g>
<!-- Node20&#45;&gt;Node19 -->
<g id="edge23" class="edge"><title>Node20&#45;&gt;Node19</title>
<path fill="none" stroke="midnightblue" d="M808.774,-130.424C770.033,-121.252 715.512,-105.624 703,-88 690.51,-70.4075 700.139,-45.3963 709.436,-28.705"/>
<polygon fill="midnightblue" stroke="midnightblue" points="712.543,-30.3302 714.702,-19.9577 706.546,-26.7198 712.543,-30.3302"/>
</g>
<!-- Node21 -->
<g id="node21" class="node"><title>Node21</title>
<polygon fill="white" stroke="#bfbfbf" points="712,-62.5 712,-81.5 774,-81.5 774,-62.5 712,-62.5"/>
<text text-anchor="middle" x="743" y="-69.5" font-family="Helvetica,sans-Serif" font-size="10.00">type_traits</text>
</g>
<!-- Node20&#45;&gt;Node21 -->
<g id="edge22" class="edge"><title>Node20&#45;&gt;Node21</title>
<path fill="none" stroke="midnightblue" d="M835.142,-130.372C817.446,-119.353 786.596,-100.145 765.508,-87.0142"/>
<polygon fill="midnightblue" stroke="midnightblue" points="767.2,-83.945 756.861,-81.6305 763.5,-89.8872 767.2,-83.945"/>
</g>
<!-- Node20&#45;&gt;Node22 -->
<g id="edge24" class="edge"><title>Node20&#45;&gt;Node22</title>
<path fill="none" stroke="midnightblue" d="M849,-130.372C849,-121.971 849,-108.811 849,-97.2126"/>
<polygon fill="midnightblue" stroke="midnightblue" points="852.5,-97.1814 849,-87.1815 845.5,-97.1815 852.5,-97.1814"/>
</g>
<!-- Node24 -->
<g id="node24" class="node"><title>Node24</title>
<g id="a_node24"><a xlink:href="available__traits__mappings_8h.html" target="_top" xlink:title="shad/runtime/mappings\l/available_traits_mappings.h">
<polygon fill="white" stroke="black" points="516,-57 516,-87 656,-87 656,-57 516,-57"/>
<text text-anchor="start" x="524" y="-75" font-family="Helvetica,sans-Serif" font-size="10.00">shad/runtime/mappings</text>
<text text-anchor="middle" x="586" y="-64" font-family="Helvetica,sans-Serif" font-size="10.00">/available_traits_mappings.h</text>
</a>
</g>
</g>
<!-- Node20&#45;&gt;Node24 -->
<g id="edge27" class="edge"><title>Node20&#45;&gt;Node24</title>
<path fill="none" stroke="midnightblue" d="M814.887,-130.439C773.757,-120.118 703.709,-102.539 651.911,-89.5404"/>
<polygon fill="midnightblue" stroke="midnightblue" points="652.687,-86.1267 642.136,-87.0873 650.983,-92.9162 652.687,-86.1267"/>
</g>
<!-- Node22&#45;&gt;Node19 -->
<g id="edge26" class="edge"><title>Node22&#45;&gt;Node19</title>
<path fill="none" stroke="midnightblue" d="M818.99,-56.9327C797.684,-46.9455 769.298,-33.6397 748.564,-23.9205"/>
<polygon fill="midnightblue" stroke="midnightblue" points="749.887,-20.6753 739.347,-19.6 746.916,-27.0135 749.887,-20.6753"/>
</g>
<!-- Node23 -->
<g id="node23" class="node"><title>Node23</title>
<polygon fill="white" stroke="#bfbfbf" points="828.5,-0.5 828.5,-19.5 869.5,-19.5 869.5,-0.5 828.5,-0.5"/>
<text text-anchor="middle" x="849" y="-7.5" font-family="Helvetica,sans-Serif" font-size="10.00">string</text>
</g>
<!-- Node22&#45;&gt;Node23 -->
<g id="edge25" class="edge"><title>Node22&#45;&gt;Node23</title>
<path fill="none" stroke="midnightblue" d="M849,-56.7808C849,-48.7812 849,-38.6887 849,-30.0168"/>
<polygon fill="midnightblue" stroke="midnightblue" points="852.5,-29.7305 849,-19.7305 845.5,-29.7306 852.5,-29.7305"/>
</g>
<!-- Node25&#45;&gt;Node10 -->
<g id="edge29" class="edge"><title>Node25&#45;&gt;Node10</title>
<path fill="none" stroke="midnightblue" d="M559.998,-130.372C533.539,-118.958 486.707,-98.7562 456.268,-85.6252"/>
<polygon fill="midnightblue" stroke="midnightblue" points="457.575,-82.3777 447.007,-81.6305 454.803,-88.8052 457.575,-82.3777"/>
</g>
<!-- Node25&#45;&gt;Node12 -->
<g id="edge30" class="edge"><title>Node25&#45;&gt;Node12</title>
<path fill="none" stroke="midnightblue" d="M543.559,-130.493C533.665,-128.278 522.94,-125.965 513,-124 419.942,-105.605 309.718,-87.6838 253.325,-78.7926"/>
<polygon fill="midnightblue" stroke="midnightblue" points="253.533,-75.2825 243.111,-77.1883 252.447,-82.1977 253.533,-75.2825"/>
</g>
<!-- Node25&#45;&gt;Node19 -->
<g id="edge31" class="edge"><title>Node25&#45;&gt;Node19</title>
<path fill="none" stroke="midnightblue" d="M557.982,-130.425C540.63,-122.353 517.647,-108.427 507,-88 500.426,-75.3882 498.038,-67.043 507,-56 525.835,-32.793 602.452,-21.1101 658.65,-15.5544"/>
<polygon fill="midnightblue" stroke="midnightblue" points="659.261,-19.0123 668.887,-14.5869 658.602,-12.0434 659.261,-19.0123"/>
</g>
<!-- Node25&#45;&gt;Node22 -->
<g id="edge32" class="edge"><title>Node25&#45;&gt;Node22</title>
<path fill="none" stroke="midnightblue" d="M614.891,-130.439C657.16,-120.069 729.289,-102.371 782.341,-89.355"/>
<polygon fill="midnightblue" stroke="midnightblue" points="783.47,-92.6819 792.348,-86.8998 781.802,-85.8836 783.47,-92.6819"/>
</g>
<!-- Node25&#45;&gt;Node24 -->
<g id="edge33" class="edge"><title>Node25&#45;&gt;Node24</title>
<path fill="none" stroke="midnightblue" d="M580.784,-130.372C581.548,-121.971 582.744,-108.811 583.799,-97.2126"/>
<polygon fill="midnightblue" stroke="midnightblue" points="587.291,-97.4573 584.711,-87.1815 580.32,-96.8235 587.291,-97.4573"/>
</g>
<!-- Node26&#45;&gt;Node24 -->
<g id="edge36" class="edge"><title>Node26&#45;&gt;Node24</title>
<path fill="none" stroke="midnightblue" d="M687.326,-124.841C668.452,-115.185 643.25,-102.29 622.702,-91.7777"/>
<polygon fill="midnightblue" stroke="midnightblue" points="624.125,-88.5742 613.628,-87.1352 620.936,-94.8059 624.125,-88.5742"/>
</g>
<!-- Node27&#45;&gt;Node9 -->
<g id="edge38" class="edge"><title>Node27&#45;&gt;Node9</title>
<path fill="none" stroke="midnightblue" d="M544.99,-192.679C531.408,-181.879 512.821,-167.098 499.002,-156.11"/>
<polygon fill="midnightblue" stroke="midnightblue" points="501.108,-153.313 491.102,-149.828 496.751,-158.792 501.108,-153.313"/>
</g>
<!-- Node27&#45;&gt;Node10 -->
<g id="edge39" class="edge"><title>Node27&#45;&gt;Node10</title>
<path fill="none" stroke="midnightblue" d="M504.403,-192.974C483.575,-185.258 461.678,-173.55 447,-156 431.88,-137.922 427.827,-110.282 426.926,-91.9322"/>
<polygon fill="midnightblue" stroke="midnightblue" points="430.424,-91.795 426.702,-81.8756 423.426,-91.9512 430.424,-91.795"/>
</g>
<!-- Node27&#45;&gt;Node15 -->
<g id="edge40" class="edge"><title>Node27&#45;&gt;Node15</title>
<path fill="none" stroke="midnightblue" d="M520.529,-192.95C490.427,-182.897 449.132,-168.914 413,-156 410.405,-155.073 407.721,-154.098 405.028,-153.11"/>
<polygon fill="midnightblue" stroke="midnightblue" points="405.973,-149.728 395.38,-149.532 403.539,-156.291 405.973,-149.728"/>
</g>
<!-- Node27&#45;&gt;Node25 -->
<g id="edge41" class="edge"><title>Node27&#45;&gt;Node25</title>
<path fill="none" stroke="midnightblue" d="M566.689,-192.679C569.182,-182.999 572.499,-170.123 575.198,-159.645"/>
<polygon fill="midnightblue" stroke="midnightblue" points="578.621,-160.385 577.726,-149.828 571.842,-158.639 578.621,-160.385"/>
</g>
</g>
</svg>
