<?xml version="1.0" encoding="UTF-8" standalone="no"?>
<!DOCTYPE svg PUBLIC "-//W3C//DTD SVG 1.1//EN"
 "http://www.w3.org/Graphics/SVG/1.1/DTD/svg11.dtd">
<!-- Generated by graphviz version 2.36.0 (20140111.2315)
 -->
<!-- Title: include/shad/data_structures/buffer.h Pages: 1 -->
<svg width="784pt" height="186pt"
 viewBox="0.00 0.00 784.00 186.00" xmlns="http://www.w3.org/2000/svg" xmlns:xlink="http://www.w3.org/1999/xlink">
<g id="graph0" class="graph" transform="scale(1 1) rotate(0) translate(4 182)">
<title>include/shad/data_structures/buffer.h</title>
<polygon fill="white" stroke="none" points="-4,4 -4,-182 780,-182 780,4 -4,4"/>
<!-- Node1 -->
<g id="node1" class="node"><title>Node1</title>
<polygon fill="#bfbfbf" stroke="black" points="320,-147 320,-177 462,-177 462,-147 320,-147"/>
<text text-anchor="start" x="328" y="-165" font-family="Helvetica,sans-Serif" font-size="10.00">include/shad/data_structures</text>
<text text-anchor="middle" x="391" y="-154" font-family="Helvetica,sans-Serif" font-size="10.00">/buffer.h</text>
</g>
<!-- Node2 -->
<g id="node2" class="node"><title>Node2</title>
<g id="a_node2"><a xlink:href="data__structures_2array_8h.html" target="_top" xlink:title="include/shad/data_structures\l/array.h">
<polygon fill="white" stroke="black" points="320,-79 320,-109 462,-109 462,-79 320,-79"/>
<text text-anchor="start" x="328" y="-97" font-family="Helvetica,sans-Serif" font-size="10.00">include/shad/data_structures</text>
<text text-anchor="middle" x="391" y="-86" font-family="Helvetica,sans-Serif" font-size="10.00">/array.h</text>
</a>
</g>
</g>
<!-- Node1&#45;&gt;Node2 -->
<g id="edge1" class="edge"><title>Node1&#45;&gt;Node2</title>
<path fill="none" stroke="midnightblue" d="M391,-136.532C391,-127.361 391,-117.245 391,-109.293"/>
<polygon fill="midnightblue" stroke="midnightblue" points="387.5,-136.679 391,-146.679 394.5,-136.679 387.5,-136.679"/>
</g>
<!-- Node4 -->
<g id="node4" class="node"><title>Node4</title>
<g id="a_node4"><a xlink:href="hashmap_8h.html" target="_top" xlink:title="include/shad/data_structures\l/hashmap.h">
<polygon fill="white" stroke="black" points="0,-79 0,-109 142,-109 142,-79 0,-79"/>
<text text-anchor="start" x="8" y="-97" font-family="Helvetica,sans-Serif" font-size="10.00">include/shad/data_structures</text>
<text text-anchor="middle" x="71" y="-86" font-family="Helvetica,sans-Serif" font-size="10.00">/hashmap.h</text>
</a>
</g>
</g>
<!-- Node1&#45;&gt;Node4 -->
<g id="edge3" class="edge"><title>Node1&#45;&gt;Node4</title>
<path fill="none" stroke="midnightblue" d="M312.685,-144.848C259.552,-133.889 189.995,-119.543 139.151,-109.056"/>
<polygon fill="midnightblue" stroke="midnightblue" points="312.244,-148.33 322.744,-146.922 313.658,-141.474 312.244,-148.33"/>
</g>
<!-- Node6 -->
<g id="node6" class="node"><title>Node6</title>
<g id="a_node6"><a xlink:href="set_8h.html" target="_top" xlink:title="include/shad/data_structures\l/set.h">
<polygon fill="white" stroke="black" points="160,-79 160,-109 302,-109 302,-79 160,-79"/>
<text text-anchor="start" x="168" y="-97" font-family="Helvetica,sans-Serif" font-size="10.00">include/shad/data_structures</text>
<text text-anchor="middle" x="231" y="-86" font-family="Helvetica,sans-Serif" font-size="10.00">/set.h</text>
</a>
</g>
</g>
<!-- Node1&#45;&gt;Node6 -->
<g id="edge5" class="edge"><title>Node1&#45;&gt;Node6</title>
<path fill="none" stroke="midnightblue" d="M347.097,-142.89C321.207,-132.21 288.935,-118.898 264.992,-109.022"/>
<polygon fill="midnightblue" stroke="midnightblue" points="346.097,-146.264 356.676,-146.841 348.766,-139.792 346.097,-146.264"/>
</g>
<!-- Node8 -->
<g id="node8" class="node"><title>Node8</title>
<g id="a_node8"><a xlink:href="vector_8h.html" target="_top" xlink:title="include/shad/data_structures\l/vector.h">
<polygon fill="white" stroke="black" points="480,-79 480,-109 622,-109 622,-79 480,-79"/>
<text text-anchor="start" x="488" y="-97" font-family="Helvetica,sans-Serif" font-size="10.00">include/shad/data_structures</text>
<text text-anchor="middle" x="551" y="-86" font-family="Helvetica,sans-Serif" font-size="10.00">/vector.h</text>
</a>
</g>
</g>
<!-- Node1&#45;&gt;Node8 -->
<g id="edge8" class="edge"><title>Node1&#45;&gt;Node8</title>
<path fill="none" stroke="midnightblue" d="M434.903,-142.89C460.793,-132.21 493.065,-118.898 517.008,-109.022"/>
<polygon fill="midnightblue" stroke="midnightblue" points="433.234,-139.792 425.324,-146.841 435.903,-146.264 433.234,-139.792"/>
</g>
<!-- Node9 -->
<g id="node9" class="node"><title>Node9</title>
<g id="a_node9"><a xlink:href="edge__index_8h.html" target="_top" xlink:title="include/shad/extensions\l/graph_library/edge_index.h">
<polygon fill="white" stroke="black" points="640,-79 640,-109 776,-109 776,-79 640,-79"/>
<text text-anchor="start" x="648" y="-97" font-family="Helvetica,sans-Serif" font-size="10.00">include/shad/extensions</text>
<text text-anchor="middle" x="708" y="-86" font-family="Helvetica,sans-Serif" font-size="10.00">/graph_library/edge_index.h</text>
</a>
</g>
</g>
<!-- Node1&#45;&gt;Node9 -->
<g id="edge9" class="edge"><title>Node1&#45;&gt;Node9</title>
<path fill="none" stroke="midnightblue" d="M468.58,-144.848C521.216,-133.889 590.12,-119.543 640.488,-109.056"/>
<polygon fill="midnightblue" stroke="midnightblue" points="467.692,-141.457 458.616,-146.922 469.119,-148.31 467.692,-141.457"/>
</g>
<!-- Node3 -->
<g id="node3" class="node"><title>Node3</title>
<g id="a_node3"><a xlink:href="sssp_8h.html" target="_top" xlink:title="include/shad/extensions\l/graph_library/algorithms\l/sssp.h">
<polygon fill="white" stroke="black" points="329.5,-0.5 329.5,-41.5 452.5,-41.5 452.5,-0.5 329.5,-0.5"/>
<text text-anchor="start" x="337.5" y="-29.5" font-family="Helvetica,sans-Serif" font-size="10.00">include/shad/extensions</text>
<text text-anchor="start" x="337.5" y="-18.5" font-family="Helvetica,sans-Serif" font-size="10.00">/graph_library/algorithms</text>
<text text-anchor="middle" x="391" y="-7.5" font-family="Helvetica,sans-Serif" font-size="10.00">/sssp.h</text>
</a>
</g>
</g>
<!-- Node2&#45;&gt;Node3 -->
<g id="edge2" class="edge"><title>Node2&#45;&gt;Node3</title>
<path fill="none" stroke="midnightblue" d="M391,-68.8534C391,-59.9872 391,-50.065 391,-41.642"/>
<polygon fill="midnightblue" stroke="midnightblue" points="387.5,-68.9727 391,-78.9727 394.5,-68.9727 387.5,-68.9727"/>
</g>
<!-- Node5 -->
<g id="node5" class="node"><title>Node5</title>
<g id="a_node5"><a xlink:href="unordered__map_8h.html" target="_top" xlink:title="include/shad/core/unordered\l_map.h">
<polygon fill="white" stroke="black" points="1.5,-6 1.5,-36 140.5,-36 140.5,-6 1.5,-6"/>
<text text-anchor="start" x="9.5" y="-24" font-family="Helvetica,sans-Serif" font-size="10.00">include/shad/core/unordered</text>
<text text-anchor="middle" x="71" y="-13" font-family="Helvetica,sans-Serif" font-size="10.00">_map.h</text>
</a>
</g>
</g>
<!-- Node4&#45;&gt;Node5 -->
<g id="edge4" class="edge"><title>Node4&#45;&gt;Node5</title>
<path fill="none" stroke="midnightblue" d="M71,-68.8976C71,-58.1314 71,-45.8005 71,-36.4856"/>
<polygon fill="midnightblue" stroke="midnightblue" points="67.5001,-68.9727 71,-78.9727 74.5001,-68.9727 67.5001,-68.9727"/>
</g>
<!-- Node6&#45;&gt;Node3 -->
<g id="edge7" class="edge"><title>Node6&#45;&gt;Node3</title>
<path fill="none" stroke="midnightblue" d="M271.764,-74.9112C294.77,-64.7023 323.529,-51.9401 347.04,-41.5075"/>
<polygon fill="midnightblue" stroke="midnightblue" points="270.332,-71.7174 262.611,-78.9727 273.171,-78.1157 270.332,-71.7174"/>
</g>
<!-- Node7 -->
<g id="node7" class="node"><title>Node7</title>
<g id="a_node7"><a xlink:href="unordered__set_8h.html" target="_top" xlink:title="include/shad/core/unordered\l_set.h">
<polygon fill="white" stroke="black" points="161.5,-6 161.5,-36 300.5,-36 300.5,-6 161.5,-6"/>
<text text-anchor="start" x="169.5" y="-24" font-family="Helvetica,sans-Serif" font-size="10.00">include/shad/core/unordered</text>
<text text-anchor="middle" x="231" y="-13" font-family="Helvetica,sans-Serif" font-size="10.00">_set.h</text>
</a>
</g>
</g>
<!-- Node6&#45;&gt;Node7 -->
<g id="edge6" class="edge"><title>Node6&#45;&gt;Node7</title>
<path fill="none" stroke="midnightblue" d="M231,-68.8976C231,-58.1314 231,-45.8005 231,-36.4856"/>
<polygon fill="midnightblue" stroke="midnightblue" points="227.5,-68.9727 231,-78.9727 234.5,-68.9727 227.5,-68.9727"/>
</g>
<!-- Node9&#45;&gt;Node3 -->
<g id="edge10" class="edge"><title>Node9&#45;&gt;Node3</title>
<path fill="none" stroke="midnightblue" d="M635.303,-76.7177C580.089,-64.3512 504.991,-47.5312 452.689,-35.8168"/>
<polygon fill="midnightblue" stroke="midnightblue" points="634.848,-80.2024 645.371,-78.9727 636.378,-73.3716 634.848,-80.2024"/>
</g>
<!-- Node10 -->
<g id="node10" class="node"><title>Node10</title>
<g id="a_node10"><a xlink:href="attributed__edge__index_8h.html" target="_top" xlink:title="include/shad/extensions\l/graph_library/attributed\l_edge_index.h">
<polygon fill="white" stroke="black" points="647,-0.5 647,-41.5 769,-41.5 769,-0.5 647,-0.5"/>
<text text-anchor="start" x="655" y="-29.5" font-family="Helvetica,sans-Serif" font-size="10.00">include/shad/extensions</text>
<text text-anchor="start" x="655" y="-18.5" font-family="Helvetica,sans-Serif" font-size="10.00">/graph_library/attributed</text>
<text text-anchor="middle" x="708" y="-7.5" font-family="Helvetica,sans-Serif" font-size="10.00">_edge_index.h</text>
</a>
</g>
</g>
<!-- Node9&#45;&gt;Node10 -->
<g id="edge11" class="edge"><title>Node9&#45;&gt;Node10</title>
<path fill="none" stroke="midnightblue" d="M708,-68.8534C708,-59.9872 708,-50.065 708,-41.642"/>
<polygon fill="midnightblue" stroke="midnightblue" points="704.5,-68.9727 708,-78.9727 711.5,-68.9727 704.5,-68.9727"/>
</g>
</g>
</svg>
