<?xml version="1.0" encoding="UTF-8" standalone="no"?>
<!DOCTYPE svg PUBLIC "-//W3C//DTD SVG 1.1//EN"
 "http://www.w3.org/Graphics/SVG/1.1/DTD/svg11.dtd">
<!-- Generated by graphviz version 2.36.0 (20140111.2315)
 -->
<!-- Title: shad::Set&lt; T, ELEM_COMPARE &gt; Pages: 1 -->
<svg width="170pt" height="108pt"
 viewBox="0.00 0.00 170.00 108.00" xmlns="http://www.w3.org/2000/svg" xmlns:xlink="http://www.w3.org/1999/xlink">
<g id="graph0" class="graph" transform="scale(1 1) rotate(0) translate(4 104)">
<title>shad::Set&lt; T, ELEM_COMPARE &gt;</title>
<polygon fill="white" stroke="none" points="-4,4 -4,-104 166,-104 166,4 -4,4"/>
<!-- Node1 -->
<g id="node1" class="node"><title>Node1</title>
<polygon fill="#bfbfbf" stroke="black" points="27.5,-1 27.5,-31 134.5,-31 134.5,-1 27.5,-1"/>
<text text-anchor="start" x="35.5" y="-19" font-family="Helvetica,sans-Serif" font-size="10.00">shad::Set&lt; T, ELEM</text>
<text text-anchor="middle" x="81" y="-8" font-family="Helvetica,sans-Serif" font-size="10.00">_COMPARE &gt;</text>
</g>
<!-- Node2 -->
<g id="node2" class="node"><title>Node2</title>
<g id="a_node2"><a xlink:href="classshad_1_1AbstractDataStructure.html" target="_top" xlink:title="shad::AbstractDataStructure\l\&lt; Set\&lt; T, ELEM_COMPARE \&gt; \&gt;">
<polygon fill="white" stroke="black" points="-0.5,-69 -0.5,-99 162.5,-99 162.5,-69 -0.5,-69"/>
<text text-anchor="start" x="7.5" y="-87" font-family="Helvetica,sans-Serif" font-size="10.00">shad::AbstractDataStructure</text>
<text text-anchor="middle" x="81" y="-76" font-family="Helvetica,sans-Serif" font-size="10.00">&lt; Set&lt; T, ELEM_COMPARE &gt; &gt;</text>
</a>
</g>
</g>
<!-- Node2&#45;&gt;Node1 -->
<g id="edge1" class="edge"><title>Node2&#45;&gt;Node1</title>
<path fill="none" stroke="midnightblue" d="M81,-58.5322C81,-49.3606 81,-39.2449 81,-31.2931"/>
<polygon fill="midnightblue" stroke="midnightblue" points="77.5001,-58.6789 81,-68.679 84.5001,-58.679 77.5001,-58.6789"/>
</g>
</g>
</svg>
