<?xml version="1.0" encoding="UTF-8" standalone="no"?>
<!DOCTYPE svg PUBLIC "-//W3C//DTD SVG 1.1//EN"
 "http://www.w3.org/Graphics/SVG/1.1/DTD/svg11.dtd">
<!-- Generated by graphviz version 2.36.0 (20140111.2315)
 -->
<!-- Title: shad::buffered_insert_iterator&lt; Container &gt; Pages: 1 -->
<svg width="126pt" height="186pt"
 viewBox="0.00 0.00 126.00 186.00" xmlns="http://www.w3.org/2000/svg" xmlns:xlink="http://www.w3.org/1999/xlink">
<g id="graph0" class="graph" transform="scale(1 1) rotate(0) translate(4 182)">
<title>shad::buffered_insert_iterator&lt; Container &gt;</title>
<polygon fill="white" stroke="none" points="-4,4 -4,-182 122,-182 122,4 -4,4"/>
<!-- Node1 -->
<g id="node1" class="node"><title>Node1</title>
<polygon fill="#bfbfbf" stroke="black" points="3,-1 3,-31 115,-31 115,-1 3,-1"/>
<text text-anchor="start" x="11" y="-19" font-family="Helvetica,sans-Serif" font-size="10.00">shad::buffered_insert</text>
<text text-anchor="middle" x="59" y="-8" font-family="Helvetica,sans-Serif" font-size="10.00">_iterator&lt; Container &gt;</text>
</g>
<!-- Node2 -->
<g id="node2" class="node"><title>Node2</title>
<g id="a_node2"><a xlink:href="classshad_1_1insert__iterator.html" target="_top" xlink:title="Insert iterator (over a shad container). ">
<polygon fill="white" stroke="black" points="7.5,-69 7.5,-99 110.5,-99 110.5,-69 7.5,-69"/>
<text text-anchor="start" x="15.5" y="-87" font-family="Helvetica,sans-Serif" font-size="10.00">shad::insert_iterator</text>
<text text-anchor="middle" x="59" y="-76" font-family="Helvetica,sans-Serif" font-size="10.00">&lt; Container &gt;</text>
</a>
</g>
</g>
<!-- Node2&#45;&gt;Node1 -->
<g id="edge1" class="edge"><title>Node2&#45;&gt;Node1</title>
<path fill="none" stroke="midnightblue" d="M59,-58.5322C59,-49.3606 59,-39.2449 59,-31.2931"/>
<polygon fill="midnightblue" stroke="midnightblue" points="55.5001,-58.6789 59,-68.679 62.5001,-58.679 55.5001,-58.6789"/>
</g>
<!-- Node3 -->
<g id="node3" class="node"><title>Node3</title>
<polygon fill="white" stroke="#bfbfbf" points="-0.5,-136.5 -0.5,-177.5 118.5,-177.5 118.5,-136.5 -0.5,-136.5"/>
<text text-anchor="start" x="7.5" y="-165.5" font-family="Helvetica,sans-Serif" font-size="10.00">std::iterator&lt; std</text>
<text text-anchor="start" x="7.5" y="-154.5" font-family="Helvetica,sans-Serif" font-size="10.00">::output_iterator_tag,</text>
<text text-anchor="middle" x="59" y="-143.5" font-family="Helvetica,sans-Serif" font-size="10.00"> void, void, void, void &gt;</text>
</g>
<!-- Node3&#45;&gt;Node2 -->
<g id="edge2" class="edge"><title>Node3&#45;&gt;Node2</title>
<path fill="none" stroke="midnightblue" d="M59,-126.019C59,-116.657 59,-106.77 59,-99.0485"/>
<polygon fill="midnightblue" stroke="midnightblue" points="55.5001,-126.223 59,-136.223 62.5001,-126.223 55.5001,-126.223"/>
</g>
</g>
</svg>
