<?xml version="1.0" encoding="UTF-8" standalone="no"?>
<!DOCTYPE svg PUBLIC "-//W3C//DTD SVG 1.1//EN"
 "http://www.w3.org/Graphics/SVG/1.1/DTD/svg11.dtd">
<!-- Generated by graphviz version 2.36.0 (20140111.2315)
 -->
<!-- Title: shad::lset_iterator&lt; LSet, T &gt; Pages: 1 -->
<svg width="138pt" height="108pt"
 viewBox="0.00 0.00 138.00 108.00" xmlns="http://www.w3.org/2000/svg" xmlns:xlink="http://www.w3.org/1999/xlink">
<g id="graph0" class="graph" transform="scale(1 1) rotate(0) translate(4 104)">
<title>shad::lset_iterator&lt; LSet, T &gt;</title>
<polygon fill="white" stroke="none" points="-4,4 -4,-104 134,-104 134,4 -4,4"/>
<!-- Node1 -->
<g id="node1" class="node"><title>Node1</title>
<polygon fill="#bfbfbf" stroke="black" points="17.5,-1 17.5,-31 112.5,-31 112.5,-1 17.5,-1"/>
<text text-anchor="start" x="25.5" y="-19" font-family="Helvetica,sans-Serif" font-size="10.00">shad::lset_iterator</text>
<text text-anchor="middle" x="65" y="-8" font-family="Helvetica,sans-Serif" font-size="10.00">&lt; LSet, T &gt;</text>
</g>
<!-- Node2 -->
<g id="node2" class="node"><title>Node2</title>
<polygon fill="white" stroke="#bfbfbf" points="0,-69 0,-99 130,-99 130,-69 0,-69"/>
<text text-anchor="start" x="8" y="-87" font-family="Helvetica,sans-Serif" font-size="10.00">std::iterator&lt; std</text>
<text text-anchor="middle" x="65" y="-76" font-family="Helvetica,sans-Serif" font-size="10.00">::forward_iterator_tag, T &gt;</text>
</g>
<!-- Node2&#45;&gt;Node1 -->
<g id="edge1" class="edge"><title>Node2&#45;&gt;Node1</title>
<path fill="none" stroke="midnightblue" d="M65,-58.5322C65,-49.3606 65,-39.2449 65,-31.2931"/>
<polygon fill="midnightblue" stroke="midnightblue" points="61.5001,-58.6789 65,-68.679 68.5001,-58.679 61.5001,-58.6789"/>
</g>
</g>
</svg>
