<?xml version="1.0" encoding="UTF-8" standalone="no"?>
<!DOCTYPE svg PUBLIC "-//W3C//DTD SVG 1.1//EN"
 "http://www.w3.org/Graphics/SVG/1.1/DTD/svg11.dtd">
<!-- Generated by graphviz version 2.36.0 (20140111.2315)
 -->
<!-- Title: shad::EdgeIndex&lt; SrcT, DestT, StorageT &gt; Pages: 1 -->
<svg width="148pt" height="118pt"
 viewBox="0.00 0.00 148.00 118.00" xmlns="http://www.w3.org/2000/svg" xmlns:xlink="http://www.w3.org/1999/xlink">
<g id="graph0" class="graph" transform="scale(1 1) rotate(0) translate(4 114)">
<title>shad::EdgeIndex&lt; SrcT, DestT, StorageT &gt;</title>
<polygon fill="white" stroke="none" points="-4,4 -4,-114 144,-114 144,4 -4,4"/>
<!-- Node1 -->
<g id="node1" class="node"><title>Node1</title>
<polygon fill="#bfbfbf" stroke="black" points="8.5,-1 8.5,-31 131.5,-31 131.5,-1 8.5,-1"/>
<text text-anchor="start" x="16.5" y="-19" font-family="Helvetica,sans-Serif" font-size="10.00">shad::EdgeIndex&lt; SrcT,</text>
<text text-anchor="middle" x="70" y="-8" font-family="Helvetica,sans-Serif" font-size="10.00"> DestT, StorageT &gt;</text>
</g>
<!-- Node2 -->
<g id="node2" class="node"><title>Node2</title>
<g id="a_node2"><a xlink:href="classshad_1_1AbstractDataStructure.html" target="_top" xlink:title="shad::AbstractDataStructure\l\&lt; EdgeIndex\&lt; SrcT, DestT,\l StorageT \&gt; \&gt;">
<polygon fill="white" stroke="black" points="-0.5,-68.5 -0.5,-109.5 140.5,-109.5 140.5,-68.5 -0.5,-68.5"/>
<text text-anchor="start" x="7.5" y="-97.5" font-family="Helvetica,sans-Serif" font-size="10.00">shad::AbstractDataStructure</text>
<text text-anchor="start" x="7.5" y="-86.5" font-family="Helvetica,sans-Serif" font-size="10.00">&lt; EdgeIndex&lt; SrcT, DestT,</text>
<text text-anchor="middle" x="70" y="-75.5" font-family="Helvetica,sans-Serif" font-size="10.00"> StorageT &gt; &gt;</text>
</a>
</g>
</g>
<!-- Node2&#45;&gt;Node1 -->
<g id="edge1" class="edge"><title>Node2&#45;&gt;Node1</title>
<path fill="none" stroke="midnightblue" d="M70,-58.0188C70,-48.6567 70,-38.7696 70,-31.0485"/>
<polygon fill="midnightblue" stroke="midnightblue" points="66.5001,-58.2225 70,-68.2225 73.5001,-58.2226 66.5001,-58.2225"/>
</g>
</g>
</svg>
