<?xml version="1.0" encoding="UTF-8" standalone="no"?>
<!DOCTYPE svg PUBLIC "-//W3C//DTD SVG 1.1//EN"
 "http://www.w3.org/Graphics/SVG/1.1/DTD/svg11.dtd">
<!-- Generated by graphviz version 2.36.0 (20140111.2315)
 -->
<!-- Title: shad::AttributedEdgeIndexStorage&lt; SrcT, DestT, SrcAttrT, NeighborsStorageT &gt; Pages: 1 -->
<svg width="182pt" height="140pt"
 viewBox="0.00 0.00 182.00 140.00" xmlns="http://www.w3.org/2000/svg" xmlns:xlink="http://www.w3.org/1999/xlink">
<g id="graph0" class="graph" transform="scale(1 1) rotate(0) translate(4 136)">
<title>shad::AttributedEdgeIndexStorage&lt; SrcT, DestT, SrcAttrT, NeighborsStorageT &gt;</title>
<polygon fill="white" stroke="none" points="-4,4 -4,-136 178,-136 178,4 -4,4"/>
<!-- Node1 -->
<g id="node1" class="node"><title>Node1</title>
<polygon fill="#bfbfbf" stroke="black" points="7.5,-0.5 7.5,-41.5 166.5,-41.5 166.5,-0.5 7.5,-0.5"/>
<text text-anchor="start" x="15.5" y="-29.5" font-family="Helvetica,sans-Serif" font-size="10.00">shad::AttributedEdgeIndex</text>
<text text-anchor="start" x="15.5" y="-18.5" font-family="Helvetica,sans-Serif" font-size="10.00">Storage&lt; SrcT, DestT, SrcAttrT,</text>
<text text-anchor="middle" x="87" y="-7.5" font-family="Helvetica,sans-Serif" font-size="10.00"> NeighborsStorageT &gt;</text>
</g>
<!-- Node2 -->
<g id="node2" class="node"><title>Node2</title>
<g id="a_node2"><a xlink:href="classshad_1_1LocalHashmap.html" target="_top" xlink:title="shad::LocalHashmap\l\&lt; SrcT, NeighborsStorageT,\l IDCmp\&lt; SrcT \&gt;, ElementInserter \&gt;">
<polygon fill="white" stroke="black" points="0,-90.5 0,-131.5 174,-131.5 174,-90.5 0,-90.5"/>
<text text-anchor="start" x="8" y="-119.5" font-family="Helvetica,sans-Serif" font-size="10.00">shad::LocalHashmap</text>
<text text-anchor="start" x="8" y="-108.5" font-family="Helvetica,sans-Serif" font-size="10.00">&lt; SrcT, NeighborsStorageT,</text>
<text text-anchor="middle" x="87" y="-97.5" font-family="Helvetica,sans-Serif" font-size="10.00"> IDCmp&lt; SrcT &gt;, ElementInserter &gt;</text>
</a>
</g>
</g>
<!-- Node2&#45;&gt;Node1 -->
<g id="edge1" class="edge"><title>Node2&#45;&gt;Node1</title>
<path fill="none" stroke="#9a32cd" stroke-dasharray="5,2" d="M87,-80.3298C87,-67.6289 87,-53.1399 87,-41.7798"/>
<polygon fill="#9a32cd" stroke="#9a32cd" points="83.5001,-80.4699 87,-90.4699 90.5001,-80.47 83.5001,-80.4699"/>
<text text-anchor="middle" x="110" y="-63.5" font-family="Helvetica,sans-Serif" font-size="10.00"> edgeList_</text>
</g>
</g>
</svg>
