<?xml version="1.0" encoding="UTF-8" standalone="no"?>
<!DOCTYPE svg PUBLIC "-//W3C//DTD SVG 1.1//EN"
 "http://www.w3.org/Graphics/SVG/1.1/DTD/svg11.dtd">
<!-- Generated by graphviz version 2.36.0 (20140111.2315)
 -->
<!-- Title: shad::insert_iterator&lt; Container &gt; Pages: 1 -->
<svg width="308pt" height="88pt"
 viewBox="0.00 0.00 308.00 88.00" xmlns="http://www.w3.org/2000/svg" xmlns:xlink="http://www.w3.org/1999/xlink">
<g id="graph0" class="graph" transform="scale(1 1) rotate(0) translate(4 84)">
<title>shad::insert_iterator&lt; Container &gt;</title>
<polygon fill="white" stroke="none" points="-4,4 -4,-84 304,-84 304,4 -4,4"/>
<!-- Node1 -->
<g id="node1" class="node"><title>Node1</title>
<polygon fill="#bfbfbf" stroke="black" points="196.5,-19 196.5,-49 299.5,-49 299.5,-19 196.5,-19"/>
<text text-anchor="start" x="204.5" y="-37" font-family="Helvetica,sans-Serif" font-size="10.00">shad::insert_iterator</text>
<text text-anchor="middle" x="248" y="-26" font-family="Helvetica,sans-Serif" font-size="10.00">&lt; Container &gt;</text>
</g>
<!-- Node2 -->
<g id="node2" class="node"><title>Node2</title>
<polygon fill="white" stroke="#bfbfbf" points="0.5,-38.5 0.5,-79.5 119.5,-79.5 119.5,-38.5 0.5,-38.5"/>
<text text-anchor="start" x="8.5" y="-67.5" font-family="Helvetica,sans-Serif" font-size="10.00">std::iterator&lt; std</text>
<text text-anchor="start" x="8.5" y="-56.5" font-family="Helvetica,sans-Serif" font-size="10.00">::output_iterator_tag,</text>
<text text-anchor="middle" x="60" y="-45.5" font-family="Helvetica,sans-Serif" font-size="10.00"> void, void, void, void &gt;</text>
</g>
<!-- Node2&#45;&gt;Node1 -->
<g id="edge1" class="edge"><title>Node2&#45;&gt;Node1</title>
<path fill="none" stroke="midnightblue" d="M129.575,-49.7829C151.639,-46.8173 175.677,-43.5864 196.224,-40.8247"/>
<polygon fill="midnightblue" stroke="midnightblue" points="129.041,-46.3232 119.596,-51.1242 129.973,-53.2608 129.041,-46.3232"/>
</g>
<!-- Node3 -->
<g id="node3" class="node"><title>Node3</title>
<g id="a_node3"><a xlink:href="classshad_1_1rt_1_1Locality.html" target="_top" xlink:title="A Locality of the system. ">
<polygon fill="white" stroke="black" points="15.5,-0.5 15.5,-19.5 104.5,-19.5 104.5,-0.5 15.5,-0.5"/>
<text text-anchor="middle" x="60" y="-7.5" font-family="Helvetica,sans-Serif" font-size="10.00">shad::rt::Locality</text>
</a>
</g>
</g>
<!-- Node3&#45;&gt;Node1 -->
<g id="edge2" class="edge"><title>Node3&#45;&gt;Node1</title>
<path fill="none" stroke="#9a32cd" stroke-dasharray="5,2" d="M114.582,-16.9139C140.346,-20.2381 171.061,-24.2014 196.42,-27.4736"/>
<polygon fill="#9a32cd" stroke="#9a32cd" points="114.974,-13.4355 104.609,-15.6269 114.079,-20.378 114.974,-13.4355"/>
<text text-anchor="middle" x="158" y="-27" font-family="Helvetica,sans-Serif" font-size="10.00"> locality_</text>
</g>
</g>
</svg>
