<?xml version="1.0" encoding="UTF-8" standalone="no"?>
<!DOCTYPE svg PUBLIC "-//W3C//DTD SVG 1.1//EN"
 "http://www.w3.org/Graphics/SVG/1.1/DTD/svg11.dtd">
<!-- Generated by graphviz version 2.36.0 (20140111.2315)
 -->
<!-- Title: shad::Hashmap&lt; KTYPE, VTYPE, KEY_COMPARE, INSERT_POLICY &gt; Pages: 1 -->
<svg width="382pt" height="48pt"
 viewBox="0.00 0.00 382.00 48.00" xmlns="http://www.w3.org/2000/svg" xmlns:xlink="http://www.w3.org/1999/xlink">
<g id="graph0" class="graph" transform="scale(1 1) rotate(0) translate(4 44)">
<title>shad::Hashmap&lt; KTYPE, VTYPE, KEY_COMPARE, INSERT_POLICY &gt;</title>
<polygon fill="white" stroke="none" points="-4,4 -4,-44 378,-44 378,4 -4,4"/>
<!-- Node1 -->
<g id="node1" class="node"><title>Node1</title>
<polygon fill="#bfbfbf" stroke="black" points="236,0.5 236,-40.5 374,-40.5 374,0.5 236,0.5"/>
<text text-anchor="start" x="244" y="-28.5" font-family="Helvetica,sans-Serif" font-size="10.00">shad::Hashmap&lt; KTYPE,</text>
<text text-anchor="start" x="244" y="-17.5" font-family="Helvetica,sans-Serif" font-size="10.00"> VTYPE, KEY_COMPARE,</text>
<text text-anchor="middle" x="305" y="-6.5" font-family="Helvetica,sans-Serif" font-size="10.00"> INSERT_POLICY &gt;</text>
</g>
<!-- Node2 -->
<g id="node2" class="node"><title>Node2</title>
<g id="a_node2"><a xlink:href="classshad_1_1AbstractDataStructure.html" target="_top" xlink:title="shad::AbstractDataStructure\l\&lt; Hashmap\&lt; KTYPE, VTYPE,\l KEY_COMPARE, INSERT_POLICY \&gt; \&gt;">
<polygon fill="white" stroke="black" points="0,0.5 0,-40.5 200,-40.5 200,0.5 0,0.5"/>
<text text-anchor="start" x="8" y="-28.5" font-family="Helvetica,sans-Serif" font-size="10.00">shad::AbstractDataStructure</text>
<text text-anchor="start" x="8" y="-17.5" font-family="Helvetica,sans-Serif" font-size="10.00">&lt; Hashmap&lt; KTYPE, VTYPE,</text>
<text text-anchor="middle" x="100" y="-6.5" font-family="Helvetica,sans-Serif" font-size="10.00"> KEY_COMPARE, INSERT_POLICY &gt; &gt;</text>
</a>
</g>
</g>
<!-- Node2&#45;&gt;Node1 -->
<g id="edge1" class="edge"><title>Node2&#45;&gt;Node1</title>
<path fill="none" stroke="midnightblue" d="M210.307,-20C218.967,-20 227.551,-20 235.804,-20"/>
<polygon fill="midnightblue" stroke="midnightblue" points="210.121,-16.5001 200.121,-20 210.121,-23.5001 210.121,-16.5001"/>
</g>
</g>
</svg>
