<?xml version="1.0" encoding="UTF-8" standalone="no"?>
<!DOCTYPE svg PUBLIC "-//W3C//DTD SVG 1.1//EN"
 "http://www.w3.org/Graphics/SVG/1.1/DTD/svg11.dtd">
<!-- Generated by graphviz version 2.36.0 (20140111.2315)
 -->
<!-- Title: shad::DefaultEdgeIndexStorage&lt; SrcT, DestT, NeighborsStorageT &gt; Pages: 1 -->
<svg width="186pt" height="130pt"
 viewBox="0.00 0.00 186.00 130.00" xmlns="http://www.w3.org/2000/svg" xmlns:xlink="http://www.w3.org/1999/xlink">
<g id="graph0" class="graph" transform="scale(1 1) rotate(0) translate(4 126)">
<title>shad::DefaultEdgeIndexStorage&lt; SrcT, DestT, NeighborsStorageT &gt;</title>
<polygon fill="white" stroke="none" points="-4,4 -4,-126 182,-126 182,4 -4,4"/>
<!-- Node1 -->
<g id="node1" class="node"><title>Node1</title>
<polygon fill="#bfbfbf" stroke="black" points="-0.5,-1 -0.5,-31 178.5,-31 178.5,-1 -0.5,-1"/>
<text text-anchor="start" x="7.5" y="-19" font-family="Helvetica,sans-Serif" font-size="10.00">shad::DefaultEdgeIndexStorage</text>
<text text-anchor="middle" x="89" y="-8" font-family="Helvetica,sans-Serif" font-size="10.00">&lt; SrcT, DestT, NeighborsStorageT &gt;</text>
</g>
<!-- Node2 -->
<g id="node2" class="node"><title>Node2</title>
<g id="a_node2"><a xlink:href="classshad_1_1LocalHashmap.html" target="_top" xlink:title="shad::LocalHashmap\l\&lt; SrcT, NeighborsStorageT,\l IDCmp\&lt; SrcT \&gt;, ElementInserter \&gt;">
<polygon fill="white" stroke="black" points="2,-80.5 2,-121.5 176,-121.5 176,-80.5 2,-80.5"/>
<text text-anchor="start" x="10" y="-109.5" font-family="Helvetica,sans-Serif" font-size="10.00">shad::LocalHashmap</text>
<text text-anchor="start" x="10" y="-98.5" font-family="Helvetica,sans-Serif" font-size="10.00">&lt; SrcT, NeighborsStorageT,</text>
<text text-anchor="middle" x="89" y="-87.5" font-family="Helvetica,sans-Serif" font-size="10.00"> IDCmp&lt; SrcT &gt;, ElementInserter &gt;</text>
</a>
</g>
</g>
<!-- Node2&#45;&gt;Node1 -->
<g id="edge1" class="edge"><title>Node2&#45;&gt;Node1</title>
<path fill="none" stroke="#9a32cd" stroke-dasharray="5,2" d="M89,-70.1369C89,-56.8157 89,-41.7541 89,-31.0769"/>
<polygon fill="#9a32cd" stroke="#9a32cd" points="85.5001,-70.3301 89,-80.3302 92.5001,-70.3302 85.5001,-70.3301"/>
<text text-anchor="middle" x="112" y="-53.5" font-family="Helvetica,sans-Serif" font-size="10.00"> edgeList_</text>
</g>
</g>
</svg>
