<?xml version="1.0" encoding="UTF-8" standalone="no"?>
<!DOCTYPE svg PUBLIC "-//W3C//DTD SVG 1.1//EN"
 "http://www.w3.org/Graphics/SVG/1.1/DTD/svg11.dtd">
<!-- Generated by graphviz version 2.36.0 (20140111.2315)
 -->
<!-- Title: include/shad/data_structures/compare_and_hash_utils.h Pages: 1 -->
<svg width="439pt" height="152pt"
 viewBox="0.00 0.00 438.51 152.00" xmlns="http://www.w3.org/2000/svg" xmlns:xlink="http://www.w3.org/1999/xlink">
<g id="graph0" class="graph" transform="scale(1 1) rotate(0) translate(4 148)">
<title>include/shad/data_structures/compare_and_hash_utils.h</title>
<polygon fill="white" stroke="none" points="-4,4 -4,-148 434.512,-148 434.512,4 -4,4"/>
<!-- Node1 -->
<g id="node1" class="node"><title>Node1</title>
<polygon fill="#bfbfbf" stroke="black" points="141,-113 141,-143 283,-143 283,-113 141,-113"/>
<text text-anchor="start" x="149" y="-131" font-family="Helvetica,sans-Serif" font-size="10.00">include/shad/data_structures</text>
<text text-anchor="middle" x="212" y="-120" font-family="Helvetica,sans-Serif" font-size="10.00">/compare_and_hash_utils.h</text>
</g>
<!-- Node2 -->
<g id="node2" class="node"><title>Node2</title>
<polygon fill="white" stroke="#bfbfbf" points="0,-56.5 0,-75.5 56,-75.5 56,-56.5 0,-56.5"/>
<text text-anchor="middle" x="28" y="-63.5" font-family="Helvetica,sans-Serif" font-size="10.00">algorithm</text>
</g>
<!-- Node1&#45;&gt;Node2 -->
<g id="edge1" class="edge"><title>Node1&#45;&gt;Node2</title>
<path fill="none" stroke="midnightblue" d="M168.86,-112.933C136.89,-102.508 93.8312,-88.4667 63.768,-78.6635"/>
<polygon fill="midnightblue" stroke="midnightblue" points="64.698,-75.2854 54.1056,-75.5127 62.5278,-81.9405 64.698,-75.2854"/>
</g>
<!-- Node3 -->
<g id="node3" class="node"><title>Node3</title>
<polygon fill="white" stroke="#bfbfbf" points="74,-56.5 74,-75.5 120,-75.5 120,-56.5 74,-56.5"/>
<text text-anchor="middle" x="97" y="-63.5" font-family="Helvetica,sans-Serif" font-size="10.00">cstdint</text>
</g>
<!-- Node1&#45;&gt;Node3 -->
<g id="edge2" class="edge"><title>Node1&#45;&gt;Node3</title>
<path fill="none" stroke="midnightblue" d="M185.038,-112.933C166.155,-103.081 141.084,-90.0004 122.527,-80.3182"/>
<polygon fill="midnightblue" stroke="midnightblue" points="123.968,-77.1227 113.483,-75.6 120.73,-83.3288 123.968,-77.1227"/>
</g>
<!-- Node4 -->
<g id="node4" class="node"><title>Node4</title>
<polygon fill="white" stroke="#bfbfbf" points="138,-56.5 138,-75.5 184,-75.5 184,-56.5 138,-56.5"/>
<text text-anchor="middle" x="161" y="-63.5" font-family="Helvetica,sans-Serif" font-size="10.00">cstring</text>
</g>
<!-- Node1&#45;&gt;Node4 -->
<g id="edge3" class="edge"><title>Node1&#45;&gt;Node4</title>
<path fill="none" stroke="midnightblue" d="M199.914,-112.781C192.426,-103.972 182.782,-92.6262 174.968,-83.4332"/>
<polygon fill="midnightblue" stroke="midnightblue" points="177.564,-81.0832 168.421,-75.7305 172.231,-85.6167 177.564,-81.0832"/>
</g>
<!-- Node5 -->
<g id="node5" class="node"><title>Node5</title>
<polygon fill="white" stroke="#bfbfbf" points="185.5,-0.5 185.5,-19.5 244.5,-19.5 244.5,-0.5 185.5,-0.5"/>
<text text-anchor="middle" x="215" y="-7.5" font-family="Helvetica,sans-Serif" font-size="10.00">functional</text>
</g>
<!-- Node1&#45;&gt;Node5 -->
<g id="edge4" class="edge"><title>Node1&#45;&gt;Node5</title>
<path fill="none" stroke="midnightblue" d="M212.368,-112.776C212.906,-91.9707 213.909,-53.1981 214.509,-29.9809"/>
<polygon fill="midnightblue" stroke="midnightblue" points="218.015,-29.7942 214.775,-19.707 211.017,-29.6131 218.015,-29.7942"/>
</g>
<!-- Node6 -->
<g id="node6" class="node"><title>Node6</title>
<polygon fill="white" stroke="#bfbfbf" points="341,-0.5 341,-19.5 403,-19.5 403,-0.5 341,-0.5"/>
<text text-anchor="middle" x="372" y="-7.5" font-family="Helvetica,sans-Serif" font-size="10.00">type_traits</text>
</g>
<!-- Node1&#45;&gt;Node6 -->
<g id="edge5" class="edge"><title>Node1&#45;&gt;Node6</title>
<path fill="none" stroke="midnightblue" d="M283.108,-119.498C338.296,-112.035 408.307,-98.4056 426,-76 440.177,-58.0471 417.051,-37.8499 396.804,-24.8026"/>
<polygon fill="midnightblue" stroke="midnightblue" points="398.493,-21.7334 388.134,-19.5104 394.846,-27.7082 398.493,-21.7334"/>
</g>
<!-- Node7 -->
<g id="node7" class="node"><title>Node7</title>
<polygon fill="white" stroke="#bfbfbf" points="374,-56.5 374,-75.5 418,-75.5 418,-56.5 374,-56.5"/>
<text text-anchor="middle" x="396" y="-63.5" font-family="Helvetica,sans-Serif" font-size="10.00">vector</text>
</g>
<!-- Node1&#45;&gt;Node7 -->
<g id="edge6" class="edge"><title>Node1&#45;&gt;Node7</title>
<path fill="none" stroke="midnightblue" d="M255.14,-112.933C288.541,-102.041 334.047,-87.2021 364.19,-77.3728"/>
<polygon fill="midnightblue" stroke="midnightblue" points="365.362,-80.6722 373.784,-74.2444 363.191,-74.0171 365.362,-80.6722"/>
</g>
<!-- Node8 -->
<g id="node8" class="node"><title>Node8</title>
<g id="a_node8"><a xlink:href="type__traits_8h.html" target="_top" xlink:title="shad/core/type_traits.h">
<polygon fill="white" stroke="black" points="240,-56.5 240,-75.5 356,-75.5 356,-56.5 240,-56.5"/>
<text text-anchor="middle" x="298" y="-63.5" font-family="Helvetica,sans-Serif" font-size="10.00">shad/core/type_traits.h</text>
</a>
</g>
</g>
<!-- Node1&#45;&gt;Node8 -->
<g id="edge7" class="edge"><title>Node1&#45;&gt;Node8</title>
<path fill="none" stroke="midnightblue" d="M232.381,-112.781C245.99,-103.286 263.824,-90.8434 277.465,-81.3267"/>
<polygon fill="midnightblue" stroke="midnightblue" points="279.538,-84.148 285.737,-75.5557 275.533,-78.4071 279.538,-84.148"/>
</g>
<!-- Node8&#45;&gt;Node5 -->
<g id="edge8" class="edge"><title>Node8&#45;&gt;Node5</title>
<path fill="none" stroke="midnightblue" d="M284.665,-56.324C271.838,-47.979 252.215,-35.2122 237.06,-25.3524"/>
<polygon fill="midnightblue" stroke="midnightblue" points="238.593,-22.1742 228.302,-19.6545 234.776,-28.0417 238.593,-22.1742"/>
</g>
<!-- Node8&#45;&gt;Node6 -->
<g id="edge9" class="edge"><title>Node8&#45;&gt;Node6</title>
<path fill="none" stroke="midnightblue" d="M309.889,-56.324C321.15,-48.1066 338.287,-35.6017 351.709,-25.8069"/>
<polygon fill="midnightblue" stroke="midnightblue" points="353.88,-28.5559 359.894,-19.8339 349.753,-22.9014 353.88,-28.5559"/>
</g>
</g>
</svg>
