<?xml version="1.0" encoding="UTF-8" standalone="no"?>
<!DOCTYPE svg PUBLIC "-//W3C//DTD SVG 1.1//EN"
 "http://www.w3.org/Graphics/SVG/1.1/DTD/svg11.dtd">
<!-- Generated by graphviz version 2.36.0 (20140111.2315)
 -->
<!-- Title: include/shad/core/array.h Pages: 1 -->
<svg width="1179pt" height="492pt"
 viewBox="0.00 0.00 1179.29 492.00" xmlns="http://www.w3.org/2000/svg" xmlns:xlink="http://www.w3.org/1999/xlink">
<g id="graph0" class="graph" transform="scale(1 1) rotate(0) translate(4 488)">
<title>include/shad/core/array.h</title>
<polygon fill="white" stroke="none" points="-4,4 -4,-488 1175.29,-488 1175.29,4 -4,4"/>
<!-- Node1 -->
<g id="node1" class="node"><title>Node1</title>
<polygon fill="#bfbfbf" stroke="black" points="275.291,-464.5 275.291,-483.5 401.291,-483.5 401.291,-464.5 275.291,-464.5"/>
<text text-anchor="middle" x="338.291" y="-471.5" font-family="Helvetica,sans-Serif" font-size="10.00">include/shad/core/array.h</text>
</g>
<!-- Node2 -->
<g id="node2" class="node"><title>Node2</title>
<polygon fill="white" stroke="#bfbfbf" points="108.791,-402.5 108.791,-421.5 153.791,-421.5 153.791,-402.5 108.791,-402.5"/>
<text text-anchor="middle" x="131.291" y="-409.5" font-family="Helvetica,sans-Serif" font-size="10.00">cstdlib</text>
</g>
<!-- Node1&#45;&gt;Node2 -->
<g id="edge1" class="edge"><title>Node1&#45;&gt;Node2</title>
<path fill="none" stroke="midnightblue" d="M294.884,-464.444C258.808,-456.732 206.427,-444.135 162.291,-428 160.438,-427.323 158.548,-426.57 156.66,-425.774"/>
<polygon fill="midnightblue" stroke="midnightblue" points="157.987,-422.532 147.436,-421.567 155.082,-428.901 157.987,-422.532"/>
</g>
<!-- Node3 -->
<g id="node3" class="node"><title>Node3</title>
<g id="a_node3"><a xlink:href="abstract__data__structure_8h.html" target="_top" xlink:title="shad/data_structures\l/abstract_data_structure.h">
<polygon fill="white" stroke="black" points="171.791,-397 171.791,-427 302.791,-427 302.791,-397 171.791,-397"/>
<text text-anchor="start" x="179.791" y="-415" font-family="Helvetica,sans-Serif" font-size="10.00">shad/data_structures</text>
<text text-anchor="middle" x="237.291" y="-404" font-family="Helvetica,sans-Serif" font-size="10.00">/abstract_data_structure.h</text>
</a>
</g>
</g>
<!-- Node1&#45;&gt;Node3 -->
<g id="edge2" class="edge"><title>Node1&#45;&gt;Node3</title>
<path fill="none" stroke="midnightblue" d="M323.82,-464.403C309.758,-456.049 287.918,-443.075 269.698,-432.252"/>
<polygon fill="midnightblue" stroke="midnightblue" points="271.48,-429.239 261.095,-427.141 267.905,-435.257 271.48,-429.239"/>
</g>
<!-- Node12 -->
<g id="node12" class="node"><title>Node12</title>
<g id="a_node12"><a xlink:href="runtime_8h.html" target="_top" xlink:title="shad/runtime/runtime.h">
<polygon fill="white" stroke="black" points="404.291,-266.5 404.291,-285.5 520.291,-285.5 520.291,-266.5 404.291,-266.5"/>
<text text-anchor="middle" x="462.291" y="-273.5" font-family="Helvetica,sans-Serif" font-size="10.00">shad/runtime/runtime.h</text>
</a>
</g>
</g>
<!-- Node1&#45;&gt;Node12 -->
<g id="edge49" class="edge"><title>Node1&#45;&gt;Node12</title>
<path fill="none" stroke="midnightblue" d="M347.836,-464.252C366.812,-446.386 409.576,-403.691 434.291,-360 445.961,-339.37 453.8,-313.094 458.147,-295.695"/>
<polygon fill="midnightblue" stroke="midnightblue" points="461.617,-296.227 460.504,-285.691 454.804,-294.621 461.617,-296.227"/>
</g>
<!-- Node30 -->
<g id="node30" class="node"><title>Node30</title>
<g id="a_node30"><a xlink:href="distributed__iterator__traits_8h.html" target="_top" xlink:title="shad/distributed_iterator\l_traits.h">
<polygon fill="white" stroke="black" points="1047.79,-261 1047.79,-291 1168.79,-291 1168.79,-261 1047.79,-261"/>
<text text-anchor="start" x="1055.79" y="-279" font-family="Helvetica,sans-Serif" font-size="10.00">shad/distributed_iterator</text>
<text text-anchor="middle" x="1108.29" y="-268" font-family="Helvetica,sans-Serif" font-size="10.00">_traits.h</text>
</a>
</g>
</g>
<!-- Node1&#45;&gt;Node30 -->
<g id="edge46" class="edge"><title>Node1&#45;&gt;Node30</title>
<path fill="none" stroke="midnightblue" d="M371.872,-464.452C489.7,-434.46 885.658,-333.67 1043.02,-293.615"/>
<polygon fill="midnightblue" stroke="midnightblue" points="1044.2,-296.925 1053.03,-291.066 1042.48,-290.141 1044.2,-296.925"/>
</g>
<!-- Node4 -->
<g id="node4" class="node"><title>Node4</title>
<polygon fill="white" stroke="#bfbfbf" points="56.7913,-334.5 56.7913,-353.5 99.7913,-353.5 99.7913,-334.5 56.7913,-334.5"/>
<text text-anchor="middle" x="78.2913" y="-341.5" font-family="Helvetica,sans-Serif" font-size="10.00">deque</text>
</g>
<!-- Node3&#45;&gt;Node4 -->
<g id="edge3" class="edge"><title>Node3&#45;&gt;Node4</title>
<path fill="none" stroke="midnightblue" d="M203.35,-396.945C178.646,-386.711 144.39,-372.51 114.291,-360 112.416,-359.22 110.485,-358.417 108.539,-357.607"/>
<polygon fill="midnightblue" stroke="midnightblue" points="109.426,-354.186 98.8493,-353.573 106.736,-360.648 109.426,-354.186"/>
</g>
<!-- Node5 -->
<g id="node5" class="node"><title>Node5</title>
<polygon fill="white" stroke="#bfbfbf" points="250.291,-266.5 250.291,-285.5 290.291,-285.5 290.291,-266.5 250.291,-266.5"/>
<text text-anchor="middle" x="270.291" y="-273.5" font-family="Helvetica,sans-Serif" font-size="10.00">limits</text>
</g>
<!-- Node3&#45;&gt;Node5 -->
<g id="edge4" class="edge"><title>Node3&#45;&gt;Node5</title>
<path fill="none" stroke="midnightblue" d="M240.823,-396.66C246.844,-372.211 259.088,-322.492 265.741,-295.476"/>
<polygon fill="midnightblue" stroke="midnightblue" points="269.149,-296.274 268.142,-285.728 262.352,-294.6 269.149,-296.274"/>
</g>
<!-- Node6 -->
<g id="node6" class="node"><title>Node6</title>
<polygon fill="white" stroke="#bfbfbf" points="117.291,-130.5 117.291,-149.5 169.291,-149.5 169.291,-130.5 117.291,-130.5"/>
<text text-anchor="middle" x="143.291" y="-137.5" font-family="Helvetica,sans-Serif" font-size="10.00">memory</text>
</g>
<!-- Node3&#45;&gt;Node6 -->
<g id="edge5" class="edge"><title>Node3&#45;&gt;Node6</title>
<path fill="none" stroke="midnightblue" d="M173.086,-396.972C121.678,-385.217 56.6526,-368.958 47.2913,-360 1.49007,-316.171 13.9599,-286.652 4.29127,-224 2.12212,-209.944 -3.85117,-203.661 4.29127,-192 27.3309,-159.005 74.1758,-147.293 107.093,-143.172"/>
<polygon fill="midnightblue" stroke="midnightblue" points="107.674,-146.63 117.243,-142.083 106.927,-139.67 107.674,-146.63"/>
</g>
<!-- Node7 -->
<g id="node7" class="node"><title>Node7</title>
<polygon fill="white" stroke="#bfbfbf" points="194.291,-334.5 194.291,-353.5 232.291,-353.5 232.291,-334.5 194.291,-334.5"/>
<text text-anchor="middle" x="213.291" y="-341.5" font-family="Helvetica,sans-Serif" font-size="10.00">tuple</text>
</g>
<!-- Node3&#45;&gt;Node7 -->
<g id="edge6" class="edge"><title>Node3&#45;&gt;Node7</title>
<path fill="none" stroke="midnightblue" d="M232.084,-396.679C228.527,-386.898 223.783,-373.852 219.951,-363.315"/>
<polygon fill="midnightblue" stroke="midnightblue" points="223.208,-362.03 216.502,-353.828 216.63,-364.422 223.208,-362.03"/>
</g>
<!-- Node8 -->
<g id="node8" class="node"><title>Node8</title>
<polygon fill="white" stroke="#bfbfbf" points="13.2913,-198.5 13.2913,-217.5 53.2913,-217.5 53.2913,-198.5 13.2913,-198.5"/>
<text text-anchor="middle" x="33.2913" y="-205.5" font-family="Helvetica,sans-Serif" font-size="10.00">utility</text>
</g>
<!-- Node3&#45;&gt;Node8 -->
<g id="edge7" class="edge"><title>Node3&#45;&gt;Node8</title>
<path fill="none" stroke="midnightblue" d="M214.529,-396.877C199.824,-387.283 180.641,-373.858 165.291,-360 116.783,-316.206 68.4509,-255.463 46.1105,-226.163"/>
<polygon fill="midnightblue" stroke="midnightblue" points="48.6245,-223.684 39.8031,-217.816 43.0397,-227.905 48.6245,-223.684"/>
</g>
<!-- Node9 -->
<g id="node9" class="node"><title>Node9</title>
<polygon fill="white" stroke="#bfbfbf" points="71.2913,-198.5 71.2913,-217.5 115.291,-217.5 115.291,-198.5 71.2913,-198.5"/>
<text text-anchor="middle" x="93.2913" y="-205.5" font-family="Helvetica,sans-Serif" font-size="10.00">vector</text>
</g>
<!-- Node3&#45;&gt;Node9 -->
<g id="edge8" class="edge"><title>Node3&#45;&gt;Node9</title>
<path fill="none" stroke="midnightblue" d="M219.642,-396.816C208.666,-387.297 194.867,-373.979 185.291,-360 157.95,-320.087 169.036,-300.314 142.291,-260 133.507,-246.759 121.083,-233.873 110.944,-224.366"/>
<polygon fill="midnightblue" stroke="midnightblue" points="113.169,-221.66 103.415,-217.524 108.461,-226.84 113.169,-221.66"/>
</g>
<!-- Node10 -->
<g id="node10" class="node"><title>Node10</title>
<g id="a_node10"><a xlink:href="object__identifier_8h.html" target="_top" xlink:title="shad/data_structures\l/object_identifier.h">
<polygon fill="white" stroke="black" points="288.291,-329 288.291,-359 396.291,-359 396.291,-329 288.291,-329"/>
<text text-anchor="start" x="296.291" y="-347" font-family="Helvetica,sans-Serif" font-size="10.00">shad/data_structures</text>
<text text-anchor="middle" x="342.291" y="-336" font-family="Helvetica,sans-Serif" font-size="10.00">/object_identifier.h</text>
</a>
</g>
</g>
<!-- Node3&#45;&gt;Node10 -->
<g id="edge9" class="edge"><title>Node3&#45;&gt;Node10</title>
<path fill="none" stroke="midnightblue" d="M259.816,-396.841C274.764,-387.446 294.588,-374.985 311.053,-364.635"/>
<polygon fill="midnightblue" stroke="midnightblue" points="313.2,-367.42 319.803,-359.135 309.474,-361.494 313.2,-367.42"/>
</g>
<!-- Node3&#45;&gt;Node12 -->
<g id="edge45" class="edge"><title>Node3&#45;&gt;Node12</title>
<path fill="none" stroke="midnightblue" d="M302.937,-401.674C336.047,-394.473 375.407,-381.875 405.291,-360 428.38,-343.099 445.246,-313.878 454.408,-295.001"/>
<polygon fill="midnightblue" stroke="midnightblue" points="457.678,-296.268 458.696,-285.722 451.324,-293.332 457.678,-296.268"/>
</g>
<!-- Node10&#45;&gt;Node5 -->
<g id="edge11" class="edge"><title>Node10&#45;&gt;Node5</title>
<path fill="none" stroke="midnightblue" d="M326.668,-328.679C315.109,-318.082 299.369,-303.655 287.458,-292.736"/>
<polygon fill="midnightblue" stroke="midnightblue" points="289.659,-290.006 279.922,-285.828 284.929,-295.166 289.659,-290.006"/>
</g>
<!-- Node11 -->
<g id="node11" class="node"><title>Node11</title>
<polygon fill="white" stroke="#bfbfbf" points="319.291,-266.5 319.291,-285.5 365.291,-285.5 365.291,-266.5 319.291,-266.5"/>
<text text-anchor="middle" x="342.291" y="-273.5" font-family="Helvetica,sans-Serif" font-size="10.00">atomic</text>
</g>
<!-- Node10&#45;&gt;Node11 -->
<g id="edge10" class="edge"><title>Node10&#45;&gt;Node11</title>
<path fill="none" stroke="midnightblue" d="M342.291,-328.679C342.291,-319.101 342.291,-306.394 342.291,-295.977"/>
<polygon fill="midnightblue" stroke="midnightblue" points="345.791,-295.828 342.291,-285.828 338.791,-295.828 345.791,-295.828"/>
</g>
<!-- Node10&#45;&gt;Node12 -->
<g id="edge12" class="edge"><title>Node10&#45;&gt;Node12</title>
<path fill="none" stroke="midnightblue" d="M368.034,-328.841C388.605,-317.528 417.254,-301.771 437.554,-290.605"/>
<polygon fill="midnightblue" stroke="midnightblue" points="439.431,-293.568 446.506,-285.682 436.057,-287.434 439.431,-293.568"/>
</g>
<!-- Node12&#45;&gt;Node6 -->
<g id="edge19" class="edge"><title>Node12&#45;&gt;Node6</title>
<path fill="none" stroke="midnightblue" d="M412.033,-266.428C399.691,-264.324 386.514,-262.08 374.291,-260 327.183,-251.985 197.027,-256.816 162.291,-224 144.857,-207.529 141.89,-178.598 142.055,-159.615"/>
<polygon fill="midnightblue" stroke="midnightblue" points="145.556,-159.648 142.444,-149.52 138.561,-159.378 145.556,-159.648"/>
</g>
<!-- Node12&#45;&gt;Node8 -->
<g id="edge22" class="edge"><title>Node12&#45;&gt;Node8</title>
<path fill="none" stroke="midnightblue" d="M414.868,-266.434C401.746,-264.195 387.486,-261.884 374.291,-260 236.107,-240.265 195.803,-264.732 62.2913,-224 60.3801,-223.417 58.4455,-222.71 56.53,-221.925"/>
<polygon fill="midnightblue" stroke="midnightblue" points="57.8452,-218.675 47.3102,-217.55 54.8446,-224.999 57.8452,-218.675"/>
</g>
<!-- Node12&#45;&gt;Node9 -->
<g id="edge23" class="edge"><title>Node12&#45;&gt;Node9</title>
<path fill="none" stroke="midnightblue" d="M413.45,-266.47C400.713,-264.301 386.996,-262.016 374.291,-260 265.593,-242.752 235.352,-253.392 129.291,-224 126.477,-223.22 123.59,-222.277 120.734,-221.249"/>
<polygon fill="midnightblue" stroke="midnightblue" points="121.881,-217.939 111.294,-217.532 119.317,-224.453 121.881,-217.939"/>
</g>
<!-- Node13 -->
<g id="node13" class="node"><title>Node13</title>
<polygon fill="white" stroke="#bfbfbf" points="633.791,-130.5 633.791,-149.5 682.791,-149.5 682.791,-130.5 633.791,-130.5"/>
<text text-anchor="middle" x="658.291" y="-137.5" font-family="Helvetica,sans-Serif" font-size="10.00">cstddef</text>
</g>
<!-- Node12&#45;&gt;Node13 -->
<g id="edge13" class="edge"><title>Node12&#45;&gt;Node13</title>
<path fill="none" stroke="midnightblue" d="M520.438,-272.568C592.338,-268.199 708.53,-256.224 735.291,-224 744.378,-213.059 742.021,-204.529 735.291,-192 729.593,-181.391 704.071,-165.673 683.952,-154.494"/>
<polygon fill="midnightblue" stroke="midnightblue" points="685.355,-151.273 674.899,-149.563 682.006,-157.42 685.355,-151.273"/>
</g>
<!-- Node14 -->
<g id="node14" class="node"><title>Node14</title>
<polygon fill="white" stroke="#bfbfbf" points="582.291,-62.5 582.291,-81.5 628.291,-81.5 628.291,-62.5 582.291,-62.5"/>
<text text-anchor="middle" x="605.291" y="-69.5" font-family="Helvetica,sans-Serif" font-size="10.00">cstdint</text>
</g>
<!-- Node12&#45;&gt;Node14 -->
<g id="edge14" class="edge"><title>Node12&#45;&gt;Node14</title>
<path fill="none" stroke="midnightblue" d="M482.776,-266.491C500.853,-258.063 526.82,-243.586 543.291,-224 577.095,-183.805 594.448,-122.673 601.453,-91.9816"/>
<polygon fill="midnightblue" stroke="midnightblue" points="604.958,-92.3295 603.644,-81.8165 598.116,-90.8546 604.958,-92.3295"/>
</g>
<!-- Node15 -->
<g id="node15" class="node"><title>Node15</title>
<polygon fill="white" stroke="#bfbfbf" points="171.791,-198.5 171.791,-217.5 230.791,-217.5 230.791,-198.5 171.791,-198.5"/>
<text text-anchor="middle" x="201.291" y="-205.5" font-family="Helvetica,sans-Serif" font-size="10.00">functional</text>
</g>
<!-- Node12&#45;&gt;Node15 -->
<g id="edge15" class="edge"><title>Node12&#45;&gt;Node15</title>
<path fill="none" stroke="midnightblue" d="M416.727,-266.495C371.5,-257.595 300.425,-242.371 240.291,-224 237.494,-223.146 234.611,-222.188 231.739,-221.182"/>
<polygon fill="midnightblue" stroke="midnightblue" points="232.745,-217.822 222.151,-217.648 230.323,-224.39 232.745,-217.822"/>
</g>
<!-- Node16 -->
<g id="node16" class="node"><title>Node16</title>
<polygon fill="white" stroke="#bfbfbf" points="249.291,-198.5 249.291,-217.5 303.291,-217.5 303.291,-198.5 249.291,-198.5"/>
<text text-anchor="middle" x="276.291" y="-205.5" font-family="Helvetica,sans-Serif" font-size="10.00">iostream</text>
</g>
<!-- Node12&#45;&gt;Node16 -->
<g id="edge16" class="edge"><title>Node12&#45;&gt;Node16</title>
<path fill="none" stroke="midnightblue" d="M435.273,-266.418C405.09,-256.691 354.875,-240.09 312.291,-224 310.181,-223.203 308.011,-222.359 305.832,-221.494"/>
<polygon fill="midnightblue" stroke="midnightblue" points="306.96,-218.175 296.379,-217.649 304.323,-224.659 306.96,-218.175"/>
</g>
<!-- Node17 -->
<g id="node17" class="node"><title>Node17</title>
<polygon fill="white" stroke="#bfbfbf" points="1084.79,-198.5 1084.79,-217.5 1131.79,-217.5 1131.79,-198.5 1084.79,-198.5"/>
<text text-anchor="middle" x="1108.29" y="-205.5" font-family="Helvetica,sans-Serif" font-size="10.00">iterator</text>
</g>
<!-- Node12&#45;&gt;Node17 -->
<g id="edge17" class="edge"><title>Node12&#45;&gt;Node17</title>
<path fill="none" stroke="midnightblue" d="M520.587,-275.719C629.909,-275.838 872.518,-270.27 1070.29,-224 1073.54,-223.241 1076.87,-222.254 1080.15,-221.15"/>
<polygon fill="midnightblue" stroke="midnightblue" points="1081.55,-224.365 1089.7,-217.593 1079.11,-217.806 1081.55,-224.365"/>
</g>
<!-- Node18 -->
<g id="node18" class="node"><title>Node18</title>
<polygon fill="white" stroke="#bfbfbf" points="321.791,-198.5 321.791,-217.5 356.791,-217.5 356.791,-198.5 321.791,-198.5"/>
<text text-anchor="middle" x="339.291" y="-205.5" font-family="Helvetica,sans-Serif" font-size="10.00">map</text>
</g>
<!-- Node12&#45;&gt;Node18 -->
<g id="edge18" class="edge"><title>Node12&#45;&gt;Node18</title>
<path fill="none" stroke="midnightblue" d="M445.935,-266.43C426.788,-256.371 394.15,-239.137 366.291,-224 365.467,-223.552 364.629,-223.095 363.783,-222.633"/>
<polygon fill="midnightblue" stroke="midnightblue" points="365.131,-219.38 354.684,-217.617 361.752,-225.51 365.131,-219.38"/>
</g>
<!-- Node19 -->
<g id="node19" class="node"><title>Node19</title>
<polygon fill="white" stroke="#bfbfbf" points="375.291,-198.5 375.291,-217.5 405.291,-217.5 405.291,-198.5 375.291,-198.5"/>
<text text-anchor="middle" x="390.291" y="-205.5" font-family="Helvetica,sans-Serif" font-size="10.00">set</text>
</g>
<!-- Node12&#45;&gt;Node19 -->
<g id="edge20" class="edge"><title>Node12&#45;&gt;Node19</title>
<path fill="none" stroke="midnightblue" d="M452.879,-266.372C441.407,-255.856 421.799,-237.882 407.582,-224.85"/>
<polygon fill="midnightblue" stroke="midnightblue" points="409.673,-222.018 399.936,-217.841 404.943,-227.178 409.673,-222.018"/>
</g>
<!-- Node20 -->
<g id="node20" class="node"><title>Node20</title>
<polygon fill="white" stroke="#bfbfbf" points="423.291,-198.5 423.291,-217.5 501.291,-217.5 501.291,-198.5 423.291,-198.5"/>
<text text-anchor="middle" x="462.291" y="-205.5" font-family="Helvetica,sans-Serif" font-size="10.00">unordered_set</text>
</g>
<!-- Node12&#45;&gt;Node20 -->
<g id="edge21" class="edge"><title>Node12&#45;&gt;Node20</title>
<path fill="none" stroke="midnightblue" d="M462.291,-266.372C462.291,-256.643 462.291,-240.528 462.291,-227.85"/>
<polygon fill="midnightblue" stroke="midnightblue" points="465.791,-227.841 462.291,-217.841 458.791,-227.841 465.791,-227.841"/>
</g>
<!-- Node21 -->
<g id="node21" class="node"><title>Node21</title>
<polygon fill="white" stroke="#bfbfbf" points="800.291,-0.5 800.291,-19.5 904.291,-19.5 904.291,-0.5 800.291,-0.5"/>
<text text-anchor="middle" x="852.291" y="-7.5" font-family="Helvetica,sans-Serif" font-size="10.00">shad/config/config.h</text>
</g>
<!-- Node12&#45;&gt;Node21 -->
<g id="edge24" class="edge"><title>Node12&#45;&gt;Node21</title>
<path fill="none" stroke="midnightblue" d="M472.742,-266.184C483.423,-256.702 499.879,-240.721 510.291,-224 552.443,-156.307 511.585,-106.512 573.291,-56 605.542,-29.6001 717.867,-18.4214 789.779,-13.8881"/>
<polygon fill="midnightblue" stroke="midnightblue" points="790.31,-17.3625 800.082,-13.2665 789.889,-10.3752 790.31,-17.3625"/>
</g>
<!-- Node22 -->
<g id="node22" class="node"><title>Node22</title>
<g id="a_node22"><a xlink:href="handle_8h.html" target="_top" xlink:title="shad/runtime/handle.h">
<polygon fill="white" stroke="black" points="970.791,-130.5 970.791,-149.5 1083.79,-149.5 1083.79,-130.5 970.791,-130.5"/>
<text text-anchor="middle" x="1027.29" y="-137.5" font-family="Helvetica,sans-Serif" font-size="10.00">shad/runtime/handle.h</text>
</a>
</g>
</g>
<!-- Node12&#45;&gt;Node22 -->
<g id="edge25" class="edge"><title>Node12&#45;&gt;Node22</title>
<path fill="none" stroke="midnightblue" d="M520.547,-270.586C590.845,-264.336 712.2,-250.583 813.291,-224 882.718,-205.743 960.405,-172.08 1000.35,-153.734"/>
<polygon fill="midnightblue" stroke="midnightblue" points="1001.83,-156.905 1009.43,-149.526 998.886,-150.554 1001.83,-156.905"/>
</g>
<!-- Node24 -->
<g id="node24" class="node"><title>Node24</title>
<g id="a_node24"><a xlink:href="mapping__traits_8h.html" target="_top" xlink:title="shad/runtime/mapping\l_traits.h">
<polygon fill="white" stroke="black" points="1058.79,-57 1058.79,-87 1171.79,-87 1171.79,-57 1058.79,-57"/>
<text text-anchor="start" x="1066.79" y="-75" font-family="Helvetica,sans-Serif" font-size="10.00">shad/runtime/mapping</text>
<text text-anchor="middle" x="1115.29" y="-64" font-family="Helvetica,sans-Serif" font-size="10.00">_traits.h</text>
</a>
</g>
</g>
<!-- Node12&#45;&gt;Node24 -->
<g id="edge37" class="edge"><title>Node12&#45;&gt;Node24</title>
<path fill="none" stroke="midnightblue" d="M520.452,-272.332C661.012,-264.632 1013.4,-237.457 1092.29,-156 1107.51,-140.287 1112.85,-115.429 1114.62,-97.0083"/>
<polygon fill="midnightblue" stroke="midnightblue" points="1118.12,-97.2402 1115.31,-87.0243 1111.13,-96.7617 1118.12,-97.2402"/>
</g>
<!-- Node27 -->
<g id="node27" class="node"><title>Node27</title>
<g id="a_node27"><a xlink:href="locality_8h.html" target="_top" xlink:title="shad/runtime/locality.h">
<polygon fill="white" stroke="black" points="700.791,-130.5 700.791,-149.5 815.791,-149.5 815.791,-130.5 700.791,-130.5"/>
<text text-anchor="middle" x="758.291" y="-137.5" font-family="Helvetica,sans-Serif" font-size="10.00">shad/runtime/locality.h</text>
</a>
</g>
</g>
<!-- Node12&#45;&gt;Node27 -->
<g id="edge32" class="edge"><title>Node12&#45;&gt;Node27</title>
<path fill="none" stroke="midnightblue" d="M520.462,-272.87C595.796,-268.796 721.055,-257.105 751.291,-224 767.033,-206.765 765.706,-178.267 762.577,-159.56"/>
<polygon fill="midnightblue" stroke="midnightblue" points="765.979,-158.722 760.588,-149.602 759.115,-160.094 765.979,-158.722"/>
</g>
<!-- Node28 -->
<g id="node28" class="node"><title>Node28</title>
<g id="a_node28"><a xlink:href="available__mappings_8h.html" target="_top" xlink:title="shad/runtime/mappings\l/available_mappings.h">
<polygon fill="white" stroke="black" points="834.291,-125 834.291,-155 952.291,-155 952.291,-125 834.291,-125"/>
<text text-anchor="start" x="842.291" y="-143" font-family="Helvetica,sans-Serif" font-size="10.00">shad/runtime/mappings</text>
<text text-anchor="middle" x="893.291" y="-132" font-family="Helvetica,sans-Serif" font-size="10.00">/available_mappings.h</text>
</a>
</g>
</g>
<!-- Node12&#45;&gt;Node28 -->
<g id="edge38" class="edge"><title>Node12&#45;&gt;Node28</title>
<path fill="none" stroke="midnightblue" d="M520.381,-272.86C584.023,-268.838 688.12,-257.267 771.291,-224 808.787,-209.003 846.365,-181.003 869.706,-161.701"/>
<polygon fill="midnightblue" stroke="midnightblue" points="872.241,-164.142 877.635,-155.023 867.732,-158.788 872.241,-164.142"/>
</g>
<!-- Node29 -->
<g id="node29" class="node"><title>Node29</title>
<g id="a_node29"><a xlink:href="synchronous__interface_8h.html" target="_top" xlink:title="shad/runtime/synchronous\l_interface.h">
<polygon fill="white" stroke="black" points="595.791,-193 595.791,-223 726.791,-223 726.791,-193 595.791,-193"/>
<text text-anchor="start" x="603.791" y="-211" font-family="Helvetica,sans-Serif" font-size="10.00">shad/runtime/synchronous</text>
<text text-anchor="middle" x="661.291" y="-200" font-family="Helvetica,sans-Serif" font-size="10.00">_interface.h</text>
</a>
</g>
</g>
<!-- Node12&#45;&gt;Node29 -->
<g id="edge40" class="edge"><title>Node12&#45;&gt;Node29</title>
<path fill="none" stroke="midnightblue" d="M488.307,-266.372C518.901,-256.225 570.437,-239.133 609.318,-226.237"/>
<polygon fill="midnightblue" stroke="midnightblue" points="610.52,-229.526 618.91,-223.056 608.316,-222.882 610.52,-229.526"/>
</g>
<!-- Node22&#45;&gt;Node21 -->
<g id="edge27" class="edge"><title>Node22&#45;&gt;Node21</title>
<path fill="none" stroke="midnightblue" d="M1017.49,-130.336C994.896,-110.387 940.377,-62.4225 931.291,-56 914.533,-44.1539 894.42,-32.7334 878.683,-24.3616"/>
<polygon fill="midnightblue" stroke="midnightblue" points="880.001,-21.1014 869.518,-19.5665 876.756,-27.3037 880.001,-21.1014"/>
</g>
<!-- Node23 -->
<g id="node23" class="node"><title>Node23</title>
<polygon fill="white" stroke="#bfbfbf" points="978.291,-62.5 978.291,-81.5 1040.29,-81.5 1040.29,-62.5 978.291,-62.5"/>
<text text-anchor="middle" x="1009.29" y="-69.5" font-family="Helvetica,sans-Serif" font-size="10.00">type_traits</text>
</g>
<!-- Node22&#45;&gt;Node23 -->
<g id="edge26" class="edge"><title>Node22&#45;&gt;Node23</title>
<path fill="none" stroke="midnightblue" d="M1024.94,-130.372C1022.28,-120.643 1017.89,-104.528 1014.43,-91.8504"/>
<polygon fill="midnightblue" stroke="midnightblue" points="1017.71,-90.5678 1011.7,-81.8411 1010.96,-92.4097 1017.71,-90.5678"/>
</g>
<!-- Node22&#45;&gt;Node24 -->
<g id="edge28" class="edge"><title>Node22&#45;&gt;Node24</title>
<path fill="none" stroke="midnightblue" d="M1038.8,-130.372C1051.25,-121.029 1071.56,-105.797 1088.12,-93.375"/>
<polygon fill="midnightblue" stroke="midnightblue" points="1090.48,-95.9815 1096.38,-87.1815 1086.28,-90.3815 1090.48,-95.9815"/>
</g>
<!-- Node26 -->
<g id="node26" class="node"><title>Node26</title>
<g id="a_node26"><a xlink:href="available__traits__mappings_8h.html" target="_top" xlink:title="shad/runtime/mappings\l/available_traits_mappings.h">
<polygon fill="white" stroke="black" points="782.291,-57 782.291,-87 922.291,-87 922.291,-57 782.291,-57"/>
<text text-anchor="start" x="790.291" y="-75" font-family="Helvetica,sans-Serif" font-size="10.00">shad/runtime/mappings</text>
<text text-anchor="middle" x="852.291" y="-64" font-family="Helvetica,sans-Serif" font-size="10.00">/available_traits_mappings.h</text>
</a>
</g>
</g>
<!-- Node22&#45;&gt;Node26 -->
<g id="edge31" class="edge"><title>Node22&#45;&gt;Node26</title>
<path fill="none" stroke="midnightblue" d="M1004.41,-130.372C977.851,-120.354 933.338,-103.566 899.306,-90.7312"/>
<polygon fill="midnightblue" stroke="midnightblue" points="900.153,-87.3103 889.562,-87.0562 897.683,-93.8599 900.153,-87.3103"/>
</g>
<!-- Node24&#45;&gt;Node21 -->
<g id="edge30" class="edge"><title>Node24&#45;&gt;Node21</title>
<path fill="none" stroke="midnightblue" d="M1058.55,-58.0548C1011.2,-47.2522 944.48,-32.0317 899.88,-21.8568"/>
<polygon fill="midnightblue" stroke="midnightblue" points="900.408,-18.3873 889.88,-19.5754 898.851,-25.212 900.408,-18.3873"/>
</g>
<!-- Node25 -->
<g id="node25" class="node"><title>Node25</title>
<polygon fill="white" stroke="#bfbfbf" points="1094.79,-0.5 1094.79,-19.5 1135.79,-19.5 1135.79,-0.5 1094.79,-0.5"/>
<text text-anchor="middle" x="1115.29" y="-7.5" font-family="Helvetica,sans-Serif" font-size="10.00">string</text>
</g>
<!-- Node24&#45;&gt;Node25 -->
<g id="edge29" class="edge"><title>Node24&#45;&gt;Node25</title>
<path fill="none" stroke="midnightblue" d="M1115.29,-56.7808C1115.29,-48.7812 1115.29,-38.6887 1115.29,-30.0168"/>
<polygon fill="midnightblue" stroke="midnightblue" points="1118.79,-29.7305 1115.29,-19.7305 1111.79,-29.7306 1118.79,-29.7305"/>
</g>
<!-- Node27&#45;&gt;Node14 -->
<g id="edge33" class="edge"><title>Node27&#45;&gt;Node14</title>
<path fill="none" stroke="midnightblue" d="M738.289,-130.372C711.83,-118.958 664.999,-98.7562 634.559,-85.6252"/>
<polygon fill="midnightblue" stroke="midnightblue" points="635.867,-82.3777 625.298,-81.6305 633.094,-88.8052 635.867,-82.3777"/>
</g>
<!-- Node27&#45;&gt;Node21 -->
<g id="edge34" class="edge"><title>Node27&#45;&gt;Node21</title>
<path fill="none" stroke="midnightblue" d="M757.59,-130.334C756.733,-114.162 757.049,-78.9488 773.291,-56 783.712,-41.2761 800.572,-30.7302 816.046,-23.5665"/>
<polygon fill="midnightblue" stroke="midnightblue" points="817.624,-26.698 825.431,-19.5359 814.862,-20.266 817.624,-26.698"/>
</g>
<!-- Node27&#45;&gt;Node24 -->
<g id="edge35" class="edge"><title>Node27&#45;&gt;Node24</title>
<path fill="none" stroke="midnightblue" d="M794.72,-130.426C804.613,-128.212 815.342,-125.915 825.291,-124 923.876,-105.025 949.707,-106.975 1048.29,-88 1048.4,-87.9796 1048.5,-87.9591 1048.61,-87.9386"/>
<polygon fill="midnightblue" stroke="midnightblue" points="1049.56,-91.3174 1058.68,-85.925 1048.19,-84.4532 1049.56,-91.3174"/>
</g>
<!-- Node27&#45;&gt;Node26 -->
<g id="edge36" class="edge"><title>Node27&#45;&gt;Node26</title>
<path fill="none" stroke="midnightblue" d="M770.58,-130.372C784.009,-120.943 805.98,-105.517 823.758,-93.0338"/>
<polygon fill="midnightblue" stroke="midnightblue" points="825.921,-95.7922 832.093,-87.1815 821.898,-90.0633 825.921,-95.7922"/>
</g>
<!-- Node28&#45;&gt;Node26 -->
<g id="edge39" class="edge"><title>Node28&#45;&gt;Node26</title>
<path fill="none" stroke="midnightblue" d="M884.395,-124.679C879.183,-116.29 872.48,-105.499 866.548,-95.9495"/>
<polygon fill="midnightblue" stroke="midnightblue" points="869.42,-93.9406 861.17,-87.2931 863.474,-97.6344 869.42,-93.9406"/>
</g>
<!-- Node29&#45;&gt;Node6 -->
<g id="edge43" class="edge"><title>Node29&#45;&gt;Node6</title>
<path fill="none" stroke="midnightblue" d="M595.686,-198.641C485.27,-184.573 265.905,-156.623 179.487,-145.612"/>
<polygon fill="midnightblue" stroke="midnightblue" points="179.748,-142.117 169.385,-144.325 178.863,-149.061 179.748,-142.117"/>
</g>
<!-- Node29&#45;&gt;Node13 -->
<g id="edge41" class="edge"><title>Node29&#45;&gt;Node13</title>
<path fill="none" stroke="midnightblue" d="M660.64,-192.679C660.205,-183.101 659.627,-170.394 659.154,-159.977"/>
<polygon fill="midnightblue" stroke="midnightblue" points="662.643,-159.659 658.693,-149.828 655.65,-159.977 662.643,-159.659"/>
</g>
<!-- Node29&#45;&gt;Node14 -->
<g id="edge42" class="edge"><title>Node29&#45;&gt;Node14</title>
<path fill="none" stroke="midnightblue" d="M648.988,-192.737C641.156,-182.979 631.376,-169.425 625.291,-156 615.754,-134.959 610.417,-108.773 607.7,-91.5061"/>
<polygon fill="midnightblue" stroke="midnightblue" points="611.162,-90.9917 606.276,-81.5911 604.233,-91.9872 611.162,-90.9917"/>
</g>
<!-- Node29&#45;&gt;Node27 -->
<g id="edge44" class="edge"><title>Node29&#45;&gt;Node27</title>
<path fill="none" stroke="midnightblue" d="M682.339,-192.679C698.605,-181.611 721.015,-166.363 737.274,-155.3"/>
<polygon fill="midnightblue" stroke="midnightblue" points="739.297,-158.157 745.596,-149.638 735.36,-152.37 739.297,-158.157"/>
</g>
<!-- Node30&#45;&gt;Node17 -->
<g id="edge47" class="edge"><title>Node30&#45;&gt;Node17</title>
<path fill="none" stroke="midnightblue" d="M1108.29,-260.679C1108.29,-251.101 1108.29,-238.394 1108.29,-227.977"/>
<polygon fill="midnightblue" stroke="midnightblue" points="1111.79,-227.828 1108.29,-217.828 1104.79,-227.828 1111.79,-227.828"/>
</g>
<!-- Node30&#45;&gt;Node27 -->
<g id="edge48" class="edge"><title>Node30&#45;&gt;Node27</title>
<path fill="none" stroke="midnightblue" d="M1121.81,-260.77C1137.21,-242.832 1158.08,-211.936 1140.29,-192 1093.39,-139.428 894.767,-167.713 825.291,-156 818.099,-154.787 810.518,-153.298 803.144,-151.732"/>
<polygon fill="midnightblue" stroke="midnightblue" points="803.79,-148.291 793.273,-149.57 802.292,-155.129 803.79,-148.291"/>
</g>
</g>
</svg>
