<?xml version="1.0" encoding="UTF-8" standalone="no"?>
<!DOCTYPE svg PUBLIC "-//W3C//DTD SVG 1.1//EN"
 "http://www.w3.org/Graphics/SVG/1.1/DTD/svg11.dtd">
<!-- Generated by graphviz version 2.36.0 (20140111.2315)
 -->
<!-- Title: include/shad/core/array.h Pages: 1 -->
<svg width="1097pt" height="492pt"
 viewBox="0.00 0.00 1097.08 492.00" xmlns="http://www.w3.org/2000/svg" xmlns:xlink="http://www.w3.org/1999/xlink">
<g id="graph0" class="graph" transform="scale(1 1) rotate(0) translate(4 488)">
<title>include/shad/core/array.h</title>
<polygon fill="white" stroke="none" points="-4,4 -4,-488 1093.08,-488 1093.08,4 -4,4"/>
<!-- Node1 -->
<g id="node1" class="node"><title>Node1</title>
<polygon fill="#bfbfbf" stroke="black" points="475.079,-464.5 475.079,-483.5 601.079,-483.5 601.079,-464.5 475.079,-464.5"/>
<text text-anchor="middle" x="538.079" y="-471.5" font-family="Helvetica,sans-Serif" font-size="10.00">include/shad/core/array.h</text>
</g>
<!-- Node2 -->
<g id="node2" class="node"><title>Node2</title>
<polygon fill="white" stroke="#bfbfbf" points="359.579,-402.5 359.579,-421.5 404.579,-421.5 404.579,-402.5 359.579,-402.5"/>
<text text-anchor="middle" x="382.079" y="-409.5" font-family="Helvetica,sans-Serif" font-size="10.00">cstdlib</text>
</g>
<!-- Node1&#45;&gt;Node2 -->
<g id="edge1" class="edge"><title>Node1&#45;&gt;Node2</title>
<path fill="none" stroke="midnightblue" d="M511.918,-464.476C486.413,-455.958 446.671,-442.128 413.079,-428 411.487,-427.331 409.861,-426.622 408.227,-425.89"/>
<polygon fill="midnightblue" stroke="midnightblue" points="409.529,-422.635 398.987,-421.578 406.568,-428.979 409.529,-422.635"/>
</g>
<!-- Node3 -->
<g id="node3" class="node"><title>Node3</title>
<g id="a_node3"><a xlink:href="abstract__data__structure_8h.html" target="_top" xlink:title="shad/data_structures\l/abstract_data_structure.h">
<polygon fill="white" stroke="black" points="422.579,-397 422.579,-427 553.579,-427 553.579,-397 422.579,-397"/>
<text text-anchor="start" x="430.579" y="-415" font-family="Helvetica,sans-Serif" font-size="10.00">shad/data_structures</text>
<text text-anchor="middle" x="488.079" y="-404" font-family="Helvetica,sans-Serif" font-size="10.00">/abstract_data_structure.h</text>
</a>
</g>
</g>
<!-- Node1&#45;&gt;Node3 -->
<g id="edge2" class="edge"><title>Node1&#45;&gt;Node3</title>
<path fill="none" stroke="midnightblue" d="M530.915,-464.403C524.523,-456.733 514.885,-445.167 506.369,-434.948"/>
<polygon fill="midnightblue" stroke="midnightblue" points="508.954,-432.582 499.863,-427.141 503.576,-437.064 508.954,-432.582"/>
</g>
<!-- Node12 -->
<g id="node12" class="node"><title>Node12</title>
<g id="a_node12"><a xlink:href="runtime_8h.html" target="_top" xlink:title="shad/runtime/runtime.h">
<polygon fill="white" stroke="black" points="480.079,-266.5 480.079,-285.5 596.079,-285.5 596.079,-266.5 480.079,-266.5"/>
<text text-anchor="middle" x="538.079" y="-273.5" font-family="Helvetica,sans-Serif" font-size="10.00">shad/runtime/runtime.h</text>
</a>
</g>
</g>
<!-- Node1&#45;&gt;Node12 -->
<g id="edge50" class="edge"><title>Node1&#45;&gt;Node12</title>
<path fill="none" stroke="midnightblue" d="M545.879,-464.479C561.567,-446.693 596.508,-403.637 609.079,-360 613.016,-346.334 615.57,-340.655 609.079,-328 600.475,-311.226 583.504,-298.722 568.311,-290.294"/>
<polygon fill="midnightblue" stroke="midnightblue" points="569.663,-287.053 559.173,-285.572 566.45,-293.272 569.663,-287.053"/>
</g>
<!-- Node30 -->
<g id="node30" class="node"><title>Node30</title>
<g id="a_node30"><a xlink:href="distributed__iterator__traits_8h.html" target="_top" xlink:title="shad/distributed_iterator\l_traits.h">
<polygon fill="white" stroke="black" points="925.579,-261 925.579,-291 1046.58,-291 1046.58,-261 925.579,-261"/>
<text text-anchor="start" x="933.579" y="-279" font-family="Helvetica,sans-Serif" font-size="10.00">shad/distributed_iterator</text>
<text text-anchor="middle" x="986.079" y="-268" font-family="Helvetica,sans-Serif" font-size="10.00">_traits.h</text>
</a>
</g>
</g>
<!-- Node1&#45;&gt;Node30 -->
<g id="edge46" class="edge"><title>Node1&#45;&gt;Node30</title>
<path fill="none" stroke="midnightblue" d="M557.617,-464.452C625.35,-434.819 851.052,-336.074 944.752,-295.08"/>
<polygon fill="midnightblue" stroke="midnightblue" points="946.169,-298.281 953.927,-291.066 943.363,-291.868 946.169,-298.281"/>
</g>
<!-- Node4 -->
<g id="node4" class="node"><title>Node4</title>
<polygon fill="white" stroke="#bfbfbf" points="557.579,-334.5 557.579,-353.5 600.579,-353.5 600.579,-334.5 557.579,-334.5"/>
<text text-anchor="middle" x="579.079" y="-341.5" font-family="Helvetica,sans-Serif" font-size="10.00">deque</text>
</g>
<!-- Node3&#45;&gt;Node4 -->
<g id="edge3" class="edge"><title>Node3&#45;&gt;Node4</title>
<path fill="none" stroke="midnightblue" d="M507.824,-396.679C522.944,-385.713 543.72,-370.645 558.937,-359.609"/>
<polygon fill="midnightblue" stroke="midnightblue" points="561.129,-362.342 567.169,-353.638 557.019,-356.676 561.129,-362.342"/>
</g>
<!-- Node5 -->
<g id="node5" class="node"><title>Node5</title>
<polygon fill="white" stroke="#bfbfbf" points="327.079,-266.5 327.079,-285.5 367.079,-285.5 367.079,-266.5 327.079,-266.5"/>
<text text-anchor="middle" x="347.079" y="-273.5" font-family="Helvetica,sans-Serif" font-size="10.00">limits</text>
</g>
<!-- Node3&#45;&gt;Node5 -->
<g id="edge4" class="edge"><title>Node3&#45;&gt;Node5</title>
<path fill="none" stroke="midnightblue" d="M422.417,-398.238C383.55,-389.202 339.691,-375.889 328.079,-360 313.949,-340.665 325.311,-312.564 335.56,-294.533"/>
<polygon fill="midnightblue" stroke="midnightblue" points="338.746,-296.031 340.97,-285.672 332.772,-292.383 338.746,-296.031"/>
</g>
<!-- Node6 -->
<g id="node6" class="node"><title>Node6</title>
<polygon fill="white" stroke="#bfbfbf" points="44.0788,-130.5 44.0788,-149.5 96.0788,-149.5 96.0788,-130.5 44.0788,-130.5"/>
<text text-anchor="middle" x="70.0788" y="-137.5" font-family="Helvetica,sans-Serif" font-size="10.00">memory</text>
</g>
<!-- Node3&#45;&gt;Node6 -->
<g id="edge5" class="edge"><title>Node3&#45;&gt;Node6</title>
<path fill="none" stroke="midnightblue" d="M422.48,-397.659C353.715,-383.6 254.444,-363.066 246.079,-360 130.601,-317.678 66.0186,-330.83 5.07883,-224 -1.96812,-211.646 -1.14258,-204.789 5.07883,-192 12.9539,-175.811 28.7306,-163.238 42.7683,-154.626"/>
<polygon fill="midnightblue" stroke="midnightblue" points="44.7058,-157.55 51.6414,-149.54 41.225,-151.476 44.7058,-157.55"/>
</g>
<!-- Node7 -->
<g id="node7" class="node"><title>Node7</title>
<polygon fill="white" stroke="#bfbfbf" points="337.079,-334.5 337.079,-353.5 375.079,-353.5 375.079,-334.5 337.079,-334.5"/>
<text text-anchor="middle" x="356.079" y="-341.5" font-family="Helvetica,sans-Serif" font-size="10.00">tuple</text>
</g>
<!-- Node3&#45;&gt;Node7 -->
<g id="edge6" class="edge"><title>Node3&#45;&gt;Node7</title>
<path fill="none" stroke="midnightblue" d="M458.801,-396.989C437.885,-386.896 409.13,-372.847 384.079,-360 382.947,-359.42 381.792,-358.822 380.627,-358.215"/>
<polygon fill="midnightblue" stroke="midnightblue" points="382.201,-355.088 371.724,-353.509 378.929,-361.277 382.201,-355.088"/>
</g>
<!-- Node8 -->
<g id="node8" class="node"><title>Node8</title>
<polygon fill="white" stroke="#bfbfbf" points="878.079,-198.5 878.079,-217.5 918.079,-217.5 918.079,-198.5 878.079,-198.5"/>
<text text-anchor="middle" x="898.079" y="-205.5" font-family="Helvetica,sans-Serif" font-size="10.00">utility</text>
</g>
<!-- Node3&#45;&gt;Node8 -->
<g id="edge7" class="edge"><title>Node3&#45;&gt;Node8</title>
<path fill="none" stroke="midnightblue" d="M523.628,-396.919C547.919,-387.078 580.721,-373.356 609.079,-360 708.944,-312.963 824.353,-249.971 873.683,-222.623"/>
<polygon fill="midnightblue" stroke="midnightblue" points="875.602,-225.56 882.643,-217.643 872.202,-219.441 875.602,-225.56"/>
</g>
<!-- Node9 -->
<g id="node9" class="node"><title>Node9</title>
<polygon fill="white" stroke="#bfbfbf" points="14.0788,-198.5 14.0788,-217.5 58.0788,-217.5 58.0788,-198.5 14.0788,-198.5"/>
<text text-anchor="middle" x="36.0788" y="-205.5" font-family="Helvetica,sans-Serif" font-size="10.00">vector</text>
</g>
<!-- Node3&#45;&gt;Node9 -->
<g id="edge8" class="edge"><title>Node3&#45;&gt;Node9</title>
<path fill="none" stroke="midnightblue" d="M431.202,-396.998C397.7,-388 354.82,-375.169 318.079,-360 217.228,-318.364 105.083,-251.701 58.3768,-222.946"/>
<polygon fill="midnightblue" stroke="midnightblue" points="60.0254,-219.85 49.6803,-217.563 56.3413,-225.802 60.0254,-219.85"/>
</g>
<!-- Node10 -->
<g id="node10" class="node"><title>Node10</title>
<g id="a_node10"><a xlink:href="object__identifier_8h.html" target="_top" xlink:title="shad/data_structures\l/object_identifier.h">
<polygon fill="white" stroke="black" points="393.079,-329 393.079,-359 501.079,-359 501.079,-329 393.079,-329"/>
<text text-anchor="start" x="401.079" y="-347" font-family="Helvetica,sans-Serif" font-size="10.00">shad/data_structures</text>
<text text-anchor="middle" x="447.079" y="-336" font-family="Helvetica,sans-Serif" font-size="10.00">/object_identifier.h</text>
</a>
</g>
</g>
<!-- Node3&#45;&gt;Node10 -->
<g id="edge9" class="edge"><title>Node3&#45;&gt;Node10</title>
<path fill="none" stroke="midnightblue" d="M479.182,-396.679C473.971,-388.29 467.268,-377.499 461.335,-367.949"/>
<polygon fill="midnightblue" stroke="midnightblue" points="464.208,-365.941 455.958,-359.293 458.262,-369.634 464.208,-365.941"/>
</g>
<!-- Node3&#45;&gt;Node12 -->
<g id="edge45" class="edge"><title>Node3&#45;&gt;Node12</title>
<path fill="none" stroke="midnightblue" d="M494.558,-396.839C499.117,-386.675 505.244,-372.604 510.079,-360 518.479,-338.103 526.92,-312.467 532.304,-295.544"/>
<polygon fill="midnightblue" stroke="midnightblue" points="535.704,-296.397 535.369,-285.807 529.027,-294.295 535.704,-296.397"/>
</g>
<!-- Node10&#45;&gt;Node5 -->
<g id="edge11" class="edge"><title>Node10&#45;&gt;Node5</title>
<path fill="none" stroke="midnightblue" d="M425.38,-328.679C408.611,-317.611 385.508,-302.363 368.746,-291.3"/>
<polygon fill="midnightblue" stroke="midnightblue" points="370.441,-288.225 360.167,-285.638 366.585,-294.067 370.441,-288.225"/>
</g>
<!-- Node11 -->
<g id="node11" class="node"><title>Node11</title>
<polygon fill="white" stroke="#bfbfbf" points="416.079,-266.5 416.079,-285.5 462.079,-285.5 462.079,-266.5 416.079,-266.5"/>
<text text-anchor="middle" x="439.079" y="-273.5" font-family="Helvetica,sans-Serif" font-size="10.00">atomic</text>
</g>
<!-- Node10&#45;&gt;Node11 -->
<g id="edge10" class="edge"><title>Node10&#45;&gt;Node11</title>
<path fill="none" stroke="midnightblue" d="M445.343,-328.679C444.182,-319.101 442.642,-306.394 441.379,-295.977"/>
<polygon fill="midnightblue" stroke="midnightblue" points="444.827,-295.334 440.149,-285.828 437.878,-296.177 444.827,-295.334"/>
</g>
<!-- Node10&#45;&gt;Node12 -->
<g id="edge12" class="edge"><title>Node10&#45;&gt;Node12</title>
<path fill="none" stroke="midnightblue" d="M466.824,-328.679C481.944,-317.713 502.72,-302.645 517.937,-291.609"/>
<polygon fill="midnightblue" stroke="midnightblue" points="520.129,-294.342 526.169,-285.638 516.019,-288.676 520.129,-294.342"/>
</g>
<!-- Node12&#45;&gt;Node6 -->
<g id="edge19" class="edge"><title>Node12&#45;&gt;Node6</title>
<path fill="none" stroke="midnightblue" d="M503.804,-266.49C493.349,-264.121 481.788,-261.726 471.079,-260 391.486,-247.17 176.133,-270.221 110.079,-224 88.5054,-208.904 78.1374,-178.905 73.4842,-159.41"/>
<polygon fill="midnightblue" stroke="midnightblue" points="76.8988,-158.639 71.4075,-149.579 70.0499,-160.086 76.8988,-158.639"/>
</g>
<!-- Node12&#45;&gt;Node8 -->
<g id="edge22" class="edge"><title>Node12&#45;&gt;Node8</title>
<path fill="none" stroke="midnightblue" d="M596.196,-270.503C662.183,-264.346 772.555,-250.848 864.079,-224 866.571,-223.269 869.119,-222.397 871.646,-221.447"/>
<polygon fill="midnightblue" stroke="midnightblue" points="873.211,-224.587 881.108,-217.524 870.53,-218.12 873.211,-224.587"/>
</g>
<!-- Node12&#45;&gt;Node9 -->
<g id="edge23" class="edge"><title>Node12&#45;&gt;Node9</title>
<path fill="none" stroke="midnightblue" d="M503.814,-266.427C493.36,-264.056 481.796,-261.676 471.079,-260 295.163,-232.492 244.928,-266.736 72.0788,-224 69.0861,-223.26 66.0191,-222.309 62.999,-221.245"/>
<polygon fill="midnightblue" stroke="midnightblue" points="64.247,-217.975 53.6594,-217.583 61.6916,-224.492 64.247,-217.975"/>
</g>
<!-- Node13 -->
<g id="node13" class="node"><title>Node13</title>
<polygon fill="white" stroke="#bfbfbf" points="241.579,-130.5 241.579,-149.5 290.579,-149.5 290.579,-130.5 241.579,-130.5"/>
<text text-anchor="middle" x="266.079" y="-137.5" font-family="Helvetica,sans-Serif" font-size="10.00">cstddef</text>
</g>
<!-- Node12&#45;&gt;Node13 -->
<g id="edge13" class="edge"><title>Node12&#45;&gt;Node13</title>
<path fill="none" stroke="midnightblue" d="M499.086,-266.429C453.063,-255.916 379.674,-237.795 355.079,-224 324.078,-206.612 295.386,-176.233 279.357,-157.446"/>
<polygon fill="midnightblue" stroke="midnightblue" points="282.01,-155.162 272.921,-149.719 276.631,-159.642 282.01,-155.162"/>
</g>
<!-- Node14 -->
<g id="node14" class="node"><title>Node14</title>
<polygon fill="white" stroke="#bfbfbf" points="190.079,-62.5 190.079,-81.5 236.079,-81.5 236.079,-62.5 190.079,-62.5"/>
<text text-anchor="middle" x="213.079" y="-69.5" font-family="Helvetica,sans-Serif" font-size="10.00">cstdint</text>
</g>
<!-- Node12&#45;&gt;Node14 -->
<g id="edge14" class="edge"><title>Node12&#45;&gt;Node14</title>
<path fill="none" stroke="midnightblue" d="M503.448,-266.478C493.084,-264.136 481.661,-261.76 471.079,-260 398.746,-247.972 192.018,-278.605 143.079,-224 106.079,-182.717 163.853,-118.502 195.128,-88.9142"/>
<polygon fill="midnightblue" stroke="midnightblue" points="197.809,-91.2031 202.791,-81.8527 193.065,-86.0554 197.809,-91.2031"/>
</g>
<!-- Node15 -->
<g id="node15" class="node"><title>Node15</title>
<polygon fill="white" stroke="#bfbfbf" points="378.579,-198.5 378.579,-217.5 437.579,-217.5 437.579,-198.5 378.579,-198.5"/>
<text text-anchor="middle" x="408.079" y="-205.5" font-family="Helvetica,sans-Serif" font-size="10.00">functional</text>
</g>
<!-- Node12&#45;&gt;Node15 -->
<g id="edge15" class="edge"><title>Node12&#45;&gt;Node15</title>
<path fill="none" stroke="midnightblue" d="M521.084,-266.372C498.992,-255.156 460.184,-235.453 434.303,-222.314"/>
<polygon fill="midnightblue" stroke="midnightblue" points="435.579,-219.037 425.078,-217.63 432.41,-225.278 435.579,-219.037"/>
</g>
<!-- Node16 -->
<g id="node16" class="node"><title>Node16</title>
<polygon fill="white" stroke="#bfbfbf" points="456.079,-198.5 456.079,-217.5 510.079,-217.5 510.079,-198.5 456.079,-198.5"/>
<text text-anchor="middle" x="483.079" y="-205.5" font-family="Helvetica,sans-Serif" font-size="10.00">iostream</text>
</g>
<!-- Node12&#45;&gt;Node16 -->
<g id="edge16" class="edge"><title>Node12&#45;&gt;Node16</title>
<path fill="none" stroke="midnightblue" d="M530.889,-266.372C522.29,-256.053 507.705,-238.551 496.9,-225.585"/>
<polygon fill="midnightblue" stroke="midnightblue" points="499.537,-223.283 490.446,-217.841 494.16,-227.764 499.537,-223.283"/>
</g>
<!-- Node17 -->
<g id="node17" class="node"><title>Node17</title>
<polygon fill="white" stroke="#bfbfbf" points="936.579,-198.5 936.579,-217.5 983.579,-217.5 983.579,-198.5 936.579,-198.5"/>
<text text-anchor="middle" x="960.079" y="-205.5" font-family="Helvetica,sans-Serif" font-size="10.00">iterator</text>
</g>
<!-- Node12&#45;&gt;Node17 -->
<g id="edge17" class="edge"><title>Node12&#45;&gt;Node17</title>
<path fill="none" stroke="midnightblue" d="M596.176,-272.737C673.175,-268.535 812.638,-256.722 927.079,-224 929.427,-223.329 931.822,-222.516 934.195,-221.62"/>
<polygon fill="midnightblue" stroke="midnightblue" points="935.807,-224.739 943.655,-217.621 933.082,-218.291 935.807,-224.739"/>
</g>
<!-- Node18 -->
<g id="node18" class="node"><title>Node18</title>
<polygon fill="white" stroke="#bfbfbf" points="566.579,-198.5 566.579,-217.5 601.579,-217.5 601.579,-198.5 566.579,-198.5"/>
<text text-anchor="middle" x="584.079" y="-205.5" font-family="Helvetica,sans-Serif" font-size="10.00">map</text>
</g>
<!-- Node12&#45;&gt;Node18 -->
<g id="edge18" class="edge"><title>Node12&#45;&gt;Node18</title>
<path fill="none" stroke="midnightblue" d="M544.093,-266.372C551.147,-256.25 563.02,-239.215 572,-226.331"/>
<polygon fill="midnightblue" stroke="midnightblue" points="575.07,-228.046 577.917,-217.841 569.327,-224.044 575.07,-228.046"/>
</g>
<!-- Node19 -->
<g id="node19" class="node"><title>Node19</title>
<polygon fill="white" stroke="#bfbfbf" points="620.079,-198.5 620.079,-217.5 650.079,-217.5 650.079,-198.5 620.079,-198.5"/>
<text text-anchor="middle" x="635.079" y="-205.5" font-family="Helvetica,sans-Serif" font-size="10.00">set</text>
</g>
<!-- Node12&#45;&gt;Node19 -->
<g id="edge20" class="edge"><title>Node12&#45;&gt;Node19</title>
<path fill="none" stroke="midnightblue" d="M550.76,-266.372C566.808,-255.452 594.679,-236.489 613.961,-223.369"/>
<polygon fill="midnightblue" stroke="midnightblue" points="616.096,-226.15 622.395,-217.63 612.158,-220.362 616.096,-226.15"/>
</g>
<!-- Node20 -->
<g id="node20" class="node"><title>Node20</title>
<polygon fill="white" stroke="#bfbfbf" points="668.079,-198.5 668.079,-217.5 746.079,-217.5 746.079,-198.5 668.079,-198.5"/>
<text text-anchor="middle" x="707.079" y="-205.5" font-family="Helvetica,sans-Serif" font-size="10.00">unordered_set</text>
</g>
<!-- Node12&#45;&gt;Node20 -->
<g id="edge21" class="edge"><title>Node12&#45;&gt;Node20</title>
<path fill="none" stroke="midnightblue" d="M560.173,-266.372C589.733,-254.827 642.314,-234.293 675.898,-221.177"/>
<polygon fill="midnightblue" stroke="midnightblue" points="677.206,-224.424 685.247,-217.526 674.659,-217.903 677.206,-224.424"/>
</g>
<!-- Node21 -->
<g id="node21" class="node"><title>Node21</title>
<polygon fill="white" stroke="#bfbfbf" points="547.079,-0.5 547.079,-19.5 651.079,-19.5 651.079,-0.5 547.079,-0.5"/>
<text text-anchor="middle" x="599.079" y="-7.5" font-family="Helvetica,sans-Serif" font-size="10.00">shad/config/config.h</text>
</g>
<!-- Node12&#45;&gt;Node21 -->
<g id="edge24" class="edge"><title>Node12&#45;&gt;Node21</title>
<path fill="none" stroke="midnightblue" d="M596.331,-269.814C657.679,-263.096 748.598,-249.149 772.079,-224 823.395,-169.038 838.824,-114.898 792.079,-56 775.921,-35.6409 711.607,-23.6386 661.609,-17.2205"/>
<polygon fill="midnightblue" stroke="midnightblue" points="661.853,-13.7242 651.5,-15.9726 660.995,-20.6714 661.853,-13.7242"/>
</g>
<!-- Node22 -->
<g id="node22" class="node"><title>Node22</title>
<g id="a_node22"><a xlink:href="handle_8h.html" target="_top" xlink:title="shad/runtime/handle.h">
<polygon fill="white" stroke="black" points="578.579,-130.5 578.579,-149.5 691.579,-149.5 691.579,-130.5 578.579,-130.5"/>
<text text-anchor="middle" x="635.079" y="-137.5" font-family="Helvetica,sans-Serif" font-size="10.00">shad/runtime/handle.h</text>
</a>
</g>
</g>
<!-- Node12&#45;&gt;Node22 -->
<g id="edge25" class="edge"><title>Node12&#45;&gt;Node22</title>
<path fill="none" stroke="midnightblue" d="M596.226,-269.391C653.633,-262.51 735.583,-248.609 755.079,-224 781.109,-191.142 723.343,-166.082 679.239,-152.468"/>
<polygon fill="midnightblue" stroke="midnightblue" points="680.091,-149.07 669.509,-149.577 678.098,-155.78 680.091,-149.07"/>
</g>
<!-- Node24 -->
<g id="node24" class="node"><title>Node24</title>
<g id="a_node24"><a xlink:href="mapping__traits_8h.html" target="_top" xlink:title="shad/runtime/mapping\l_traits.h">
<polygon fill="white" stroke="black" points="670.579,-57 670.579,-87 783.579,-87 783.579,-57 670.579,-57"/>
<text text-anchor="start" x="678.579" y="-75" font-family="Helvetica,sans-Serif" font-size="10.00">shad/runtime/mapping</text>
<text text-anchor="middle" x="727.079" y="-64" font-family="Helvetica,sans-Serif" font-size="10.00">_traits.h</text>
</a>
</g>
</g>
<!-- Node12&#45;&gt;Node24 -->
<g id="edge37" class="edge"><title>Node12&#45;&gt;Node24</title>
<path fill="none" stroke="midnightblue" d="M596.201,-270.515C658.19,-264.381 750.397,-250.916 772.079,-224 802.822,-185.835 768.496,-127.134 745.119,-95.3321"/>
<polygon fill="midnightblue" stroke="midnightblue" points="747.714,-92.9622 738.879,-87.1151 742.139,-97.1958 747.714,-92.9622"/>
</g>
<!-- Node27 -->
<g id="node27" class="node"><title>Node27</title>
<g id="a_node27"><a xlink:href="locality_8h.html" target="_top" xlink:title="shad/runtime/locality.h">
<polygon fill="white" stroke="black" points="308.579,-130.5 308.579,-149.5 423.579,-149.5 423.579,-130.5 308.579,-130.5"/>
<text text-anchor="middle" x="366.079" y="-137.5" font-family="Helvetica,sans-Serif" font-size="10.00">shad/runtime/locality.h</text>
</a>
</g>
</g>
<!-- Node12&#45;&gt;Node27 -->
<g id="edge32" class="edge"><title>Node12&#45;&gt;Node27</title>
<path fill="none" stroke="midnightblue" d="M502.096,-266.495C454.979,-255.008 377.36,-234.739 369.079,-224 355.012,-205.759 357.333,-177.963 361.067,-159.64"/>
<polygon fill="midnightblue" stroke="midnightblue" points="364.485,-160.395 363.378,-149.858 357.672,-158.786 364.485,-160.395"/>
</g>
<!-- Node28 -->
<g id="node28" class="node"><title>Node28</title>
<g id="a_node28"><a xlink:href="available__mappings_8h.html" target="_top" xlink:title="shad/runtime/mappings\l/available_mappings.h">
<polygon fill="white" stroke="black" points="442.079,-125 442.079,-155 560.079,-155 560.079,-125 442.079,-125"/>
<text text-anchor="start" x="450.079" y="-143" font-family="Helvetica,sans-Serif" font-size="10.00">shad/runtime/mappings</text>
<text text-anchor="middle" x="501.079" y="-132" font-family="Helvetica,sans-Serif" font-size="10.00">/available_mappings.h</text>
</a>
</g>
</g>
<!-- Node12&#45;&gt;Node28 -->
<g id="edge38" class="edge"><title>Node12&#45;&gt;Node28</title>
<path fill="none" stroke="midnightblue" d="M536.407,-266.192C533.436,-250.943 526.817,-218.692 519.079,-192 516.477,-183.024 513.177,-173.319 510.116,-164.808"/>
<polygon fill="midnightblue" stroke="midnightblue" points="513.3,-163.325 506.562,-155.148 506.73,-165.741 513.3,-163.325"/>
</g>
<!-- Node29 -->
<g id="node29" class="node"><title>Node29</title>
<g id="a_node29"><a xlink:href="synchronous__interface_8h.html" target="_top" xlink:title="shad/runtime/synchronous\l_interface.h">
<polygon fill="white" stroke="black" points="152.579,-193 152.579,-223 283.579,-223 283.579,-193 152.579,-193"/>
<text text-anchor="start" x="160.579" y="-211" font-family="Helvetica,sans-Serif" font-size="10.00">shad/runtime/synchronous</text>
<text text-anchor="middle" x="218.079" y="-200" font-family="Helvetica,sans-Serif" font-size="10.00">_interface.h</text>
</a>
</g>
</g>
<!-- Node12&#45;&gt;Node29 -->
<g id="edge40" class="edge"><title>Node12&#45;&gt;Node29</title>
<path fill="none" stroke="midnightblue" d="M500.548,-266.449C490.949,-264.303 480.639,-262.034 471.079,-260 411.502,-247.328 343.859,-233.733 293.514,-223.769"/>
<polygon fill="midnightblue" stroke="midnightblue" points="294.173,-220.332 283.684,-221.826 292.815,-227.199 294.173,-220.332"/>
</g>
<!-- Node22&#45;&gt;Node21 -->
<g id="edge27" class="edge"><title>Node22&#45;&gt;Node21</title>
<path fill="none" stroke="midnightblue" d="M620.693,-130.359C607.587,-121.561 589.093,-106.592 581.079,-88 572.787,-68.7643 580.774,-45.1055 588.579,-29.129"/>
<polygon fill="midnightblue" stroke="midnightblue" points="591.902,-30.3353 593.51,-19.8632 585.723,-27.0469 591.902,-30.3353"/>
</g>
<!-- Node23 -->
<g id="node23" class="node"><title>Node23</title>
<polygon fill="white" stroke="#bfbfbf" points="590.079,-62.5 590.079,-81.5 652.079,-81.5 652.079,-62.5 590.079,-62.5"/>
<text text-anchor="middle" x="621.079" y="-69.5" font-family="Helvetica,sans-Serif" font-size="10.00">type_traits</text>
</g>
<!-- Node22&#45;&gt;Node23 -->
<g id="edge26" class="edge"><title>Node22&#45;&gt;Node23</title>
<path fill="none" stroke="midnightblue" d="M633.249,-130.372C631.185,-120.643 627.767,-104.528 625.077,-91.8504"/>
<polygon fill="midnightblue" stroke="midnightblue" points="628.453,-90.8972 622.954,-81.8411 621.606,-92.3498 628.453,-90.8972"/>
</g>
<!-- Node22&#45;&gt;Node24 -->
<g id="edge28" class="edge"><title>Node22&#45;&gt;Node24</title>
<path fill="none" stroke="midnightblue" d="M647.106,-130.372C660.249,-120.943 681.753,-105.517 699.153,-93.0338"/>
<polygon fill="midnightblue" stroke="midnightblue" points="701.226,-95.8545 707.311,-87.1815 697.145,-90.1667 701.226,-95.8545"/>
</g>
<!-- Node26 -->
<g id="node26" class="node"><title>Node26</title>
<g id="a_node26"><a xlink:href="available__traits__mappings_8h.html" target="_top" xlink:title="shad/runtime/mappings\l/available_traits_mappings.h">
<polygon fill="white" stroke="black" points="394.079,-57 394.079,-87 534.079,-87 534.079,-57 394.079,-57"/>
<text text-anchor="start" x="402.079" y="-75" font-family="Helvetica,sans-Serif" font-size="10.00">shad/runtime/mappings</text>
<text text-anchor="middle" x="464.079" y="-64" font-family="Helvetica,sans-Serif" font-size="10.00">/available_traits_mappings.h</text>
</a>
</g>
</g>
<!-- Node22&#45;&gt;Node26 -->
<g id="edge31" class="edge"><title>Node22&#45;&gt;Node26</title>
<path fill="none" stroke="midnightblue" d="M612.724,-130.372C586.769,-120.354 543.273,-103.566 510.019,-90.7312"/>
<polygon fill="midnightblue" stroke="midnightblue" points="511.087,-87.3918 500.497,-87.0562 508.566,-93.9223 511.087,-87.3918"/>
</g>
<!-- Node24&#45;&gt;Node21 -->
<g id="edge30" class="edge"><title>Node24&#45;&gt;Node21</title>
<path fill="none" stroke="midnightblue" d="M697.069,-56.9327C675.763,-46.9455 647.377,-33.6397 626.643,-23.9205"/>
<polygon fill="midnightblue" stroke="midnightblue" points="627.966,-20.6753 617.426,-19.6 624.995,-27.0135 627.966,-20.6753"/>
</g>
<!-- Node25 -->
<g id="node25" class="node"><title>Node25</title>
<polygon fill="white" stroke="#bfbfbf" points="706.579,-0.5 706.579,-19.5 747.579,-19.5 747.579,-0.5 706.579,-0.5"/>
<text text-anchor="middle" x="727.079" y="-7.5" font-family="Helvetica,sans-Serif" font-size="10.00">string</text>
</g>
<!-- Node24&#45;&gt;Node25 -->
<g id="edge29" class="edge"><title>Node24&#45;&gt;Node25</title>
<path fill="none" stroke="midnightblue" d="M727.079,-56.7808C727.079,-48.7812 727.079,-38.6887 727.079,-30.0168"/>
<polygon fill="midnightblue" stroke="midnightblue" points="730.579,-29.7305 727.079,-19.7305 723.579,-29.7306 730.579,-29.7305"/>
</g>
<!-- Node27&#45;&gt;Node14 -->
<g id="edge33" class="edge"><title>Node27&#45;&gt;Node14</title>
<path fill="none" stroke="midnightblue" d="M346.077,-130.372C319.618,-118.958 272.786,-98.7562 242.346,-85.6252"/>
<polygon fill="midnightblue" stroke="midnightblue" points="243.654,-82.3777 233.086,-81.6305 240.882,-88.8052 243.654,-82.3777"/>
</g>
<!-- Node27&#45;&gt;Node21 -->
<g id="edge34" class="edge"><title>Node27&#45;&gt;Node21</title>
<path fill="none" stroke="midnightblue" d="M365.282,-130.289C364.258,-113.4 364.621,-76.0973 385.079,-56 406.273,-35.1798 481.538,-22.9976 536.838,-16.6733"/>
<polygon fill="midnightblue" stroke="midnightblue" points="537.359,-20.1371 546.914,-15.5599 536.59,-13.1795 537.359,-20.1371"/>
</g>
<!-- Node27&#45;&gt;Node24 -->
<g id="edge35" class="edge"><title>Node27&#45;&gt;Node24</title>
<path fill="none" stroke="midnightblue" d="M402.155,-130.486C412.145,-128.248 423.01,-125.924 433.079,-124 533.414,-104.832 559.744,-107.168 660.079,-88 660.185,-87.9797 660.291,-87.9594 660.397,-87.9391"/>
<polygon fill="midnightblue" stroke="midnightblue" points="661.347,-91.3189 670.472,-85.9361 659.982,-84.4532 661.347,-91.3189"/>
</g>
<!-- Node27&#45;&gt;Node26 -->
<g id="edge36" class="edge"><title>Node27&#45;&gt;Node26</title>
<path fill="none" stroke="midnightblue" d="M378.891,-130.372C392.955,-120.9 416.005,-105.376 434.584,-92.8638"/>
<polygon fill="midnightblue" stroke="midnightblue" points="436.682,-95.6705 443.022,-87.1815 432.772,-89.8645 436.682,-95.6705"/>
</g>
<!-- Node28&#45;&gt;Node26 -->
<g id="edge39" class="edge"><title>Node28&#45;&gt;Node26</title>
<path fill="none" stroke="midnightblue" d="M493.05,-124.679C488.396,-116.376 482.423,-105.721 477.11,-96.2452"/>
<polygon fill="midnightblue" stroke="midnightblue" points="480.035,-94.3043 472.092,-87.2931 473.929,-97.7274 480.035,-94.3043"/>
</g>
<!-- Node29&#45;&gt;Node6 -->
<g id="edge43" class="edge"><title>Node29&#45;&gt;Node6</title>
<path fill="none" stroke="midnightblue" d="M186.329,-192.841C160.385,-181.272 124.021,-165.055 98.9044,-153.855"/>
<polygon fill="midnightblue" stroke="midnightblue" points="100.106,-150.558 89.5473,-149.682 97.2548,-156.951 100.106,-150.558"/>
</g>
<!-- Node29&#45;&gt;Node13 -->
<g id="edge41" class="edge"><title>Node29&#45;&gt;Node13</title>
<path fill="none" stroke="midnightblue" d="M228.494,-192.679C235.904,-182.49 245.891,-168.759 253.707,-158.011"/>
<polygon fill="midnightblue" stroke="midnightblue" points="256.607,-159.974 259.658,-149.828 250.946,-155.857 256.607,-159.974"/>
</g>
<!-- Node29&#45;&gt;Node14 -->
<g id="edge42" class="edge"><title>Node29&#45;&gt;Node14</title>
<path fill="none" stroke="midnightblue" d="M217.544,-192.66C216.636,-168.32 214.793,-118.933 213.782,-91.8373"/>
<polygon fill="midnightblue" stroke="midnightblue" points="217.275,-91.59 213.404,-81.7275 210.28,-91.8511 217.275,-91.59"/>
</g>
<!-- Node29&#45;&gt;Node27 -->
<g id="edge44" class="edge"><title>Node29&#45;&gt;Node27</title>
<path fill="none" stroke="midnightblue" d="M249.829,-192.841C275.773,-181.272 312.136,-165.055 337.253,-153.855"/>
<polygon fill="midnightblue" stroke="midnightblue" points="338.903,-156.951 346.61,-149.682 336.052,-150.558 338.903,-156.951"/>
</g>
<!-- Node30&#45;&gt;Node17 -->
<g id="edge48" class="edge"><title>Node30&#45;&gt;Node17</title>
<path fill="none" stroke="midnightblue" d="M980.437,-260.679C976.584,-250.898 971.445,-237.852 967.294,-227.315"/>
<polygon fill="midnightblue" stroke="midnightblue" points="970.478,-225.85 963.557,-217.828 963.966,-228.415 970.478,-225.85"/>
</g>
<!-- Node30&#45;&gt;Node27 -->
<g id="edge49" class="edge"><title>Node30&#45;&gt;Node27</title>
<path fill="none" stroke="midnightblue" d="M992.695,-260.869C1000.22,-242.457 1009.37,-210.443 992.079,-192 949.506,-146.598 494.69,-164.826 433.079,-156 425.28,-154.883 417.042,-153.343 409.112,-151.672"/>
<polygon fill="midnightblue" stroke="midnightblue" points="409.806,-148.242 399.288,-149.509 408.301,-155.078 409.806,-148.242"/>
</g>
<!-- Node31 -->
<g id="node31" class="node"><title>Node31</title>
<polygon fill="white" stroke="#bfbfbf" points="1040.58,-198.5 1040.58,-217.5 1089.58,-217.5 1089.58,-198.5 1040.58,-198.5"/>
<text text-anchor="middle" x="1065.08" y="-205.5" font-family="Helvetica,sans-Serif" font-size="10.00">cassert</text>
</g>
<!-- Node30&#45;&gt;Node31 -->
<g id="edge47" class="edge"><title>Node30&#45;&gt;Node31</title>
<path fill="none" stroke="midnightblue" d="M1003.22,-260.679C1016.03,-249.981 1033.51,-235.377 1046.62,-224.422"/>
<polygon fill="midnightblue" stroke="midnightblue" points="1049.08,-226.926 1054.51,-217.828 1044.59,-221.554 1049.08,-226.926"/>
</g>
</g>
</svg>
