<?xml version="1.0" encoding="UTF-8" standalone="no"?>
<!DOCTYPE svg PUBLIC "-//W3C//DTD SVG 1.1//EN"
 "http://www.w3.org/Graphics/SVG/1.1/DTD/svg11.dtd">
<!-- Generated by graphviz version 2.36.0 (20140111.2315)
 -->
<!-- Title: include/shad/core/array.h Pages: 1 -->
<svg width="1063pt" height="492pt"
 viewBox="0.00 0.00 1062.92 492.00" xmlns="http://www.w3.org/2000/svg" xmlns:xlink="http://www.w3.org/1999/xlink">
<g id="graph0" class="graph" transform="scale(1 1) rotate(0) translate(4 488)">
<title>include/shad/core/array.h</title>
<polygon fill="white" stroke="none" points="-4,4 -4,-488 1058.92,-488 1058.92,4 -4,4"/>
<!-- Node1 -->
<g id="node1" class="node"><title>Node1</title>
<polygon fill="#bfbfbf" stroke="black" points="490.925,-464.5 490.925,-483.5 616.925,-483.5 616.925,-464.5 490.925,-464.5"/>
<text text-anchor="middle" x="553.925" y="-471.5" font-family="Helvetica,sans-Serif" font-size="10.00">include/shad/core/array.h</text>
</g>
<!-- Node2 -->
<g id="node2" class="node"><title>Node2</title>
<polygon fill="white" stroke="#bfbfbf" points="366.425,-402.5 366.425,-421.5 411.425,-421.5 411.425,-402.5 366.425,-402.5"/>
<text text-anchor="middle" x="388.925" y="-409.5" font-family="Helvetica,sans-Serif" font-size="10.00">cstdlib</text>
</g>
<!-- Node1&#45;&gt;Node2 -->
<g id="edge1" class="edge"><title>Node1&#45;&gt;Node2</title>
<path fill="none" stroke="midnightblue" d="M525.048,-464.465C497.647,-456.094 455.486,-442.506 419.925,-428 418.326,-427.348 416.694,-426.652 415.056,-425.931"/>
<polygon fill="midnightblue" stroke="midnightblue" points="416.35,-422.673 405.805,-421.646 413.408,-429.025 416.35,-422.673"/>
</g>
<!-- Node3 -->
<g id="node3" class="node"><title>Node3</title>
<g id="a_node3"><a xlink:href="abstract__data__structure_8h.html" target="_top" xlink:title="shad/data_structures\l/abstract_data_structure.h">
<polygon fill="white" stroke="black" points="429.425,-397 429.425,-427 560.425,-427 560.425,-397 429.425,-397"/>
<text text-anchor="start" x="437.425" y="-415" font-family="Helvetica,sans-Serif" font-size="10.00">shad/data_structures</text>
<text text-anchor="middle" x="494.925" y="-404" font-family="Helvetica,sans-Serif" font-size="10.00">/abstract_data_structure.h</text>
</a>
</g>
</g>
<!-- Node1&#45;&gt;Node3 -->
<g id="edge2" class="edge"><title>Node1&#45;&gt;Node3</title>
<path fill="none" stroke="midnightblue" d="M545.472,-464.403C537.78,-456.581 526.104,-444.708 515.912,-434.342"/>
<polygon fill="midnightblue" stroke="midnightblue" points="518.337,-431.817 508.83,-427.141 513.346,-436.725 518.337,-431.817"/>
</g>
<!-- Node12 -->
<g id="node12" class="node"><title>Node12</title>
<g id="a_node12"><a xlink:href="runtime_8h.html" target="_top" xlink:title="shad/runtime/runtime.h">
<polygon fill="white" stroke="black" points="461.925,-266.5 461.925,-285.5 577.925,-285.5 577.925,-266.5 461.925,-266.5"/>
<text text-anchor="middle" x="519.925" y="-273.5" font-family="Helvetica,sans-Serif" font-size="10.00">shad/runtime/runtime.h</text>
</a>
</g>
</g>
<!-- Node1&#45;&gt;Node12 -->
<g id="edge51" class="edge"><title>Node1&#45;&gt;Node12</title>
<path fill="none" stroke="midnightblue" d="M560.64,-464.357C577.816,-441.126 620.258,-375.862 594.925,-328 585.812,-310.782 567.99,-298.295 552.006,-289.987"/>
<polygon fill="midnightblue" stroke="midnightblue" points="553.412,-286.78 542.886,-285.575 550.363,-293.081 553.412,-286.78"/>
</g>
<!-- Node30 -->
<g id="node30" class="node"><title>Node30</title>
<g id="a_node30"><a xlink:href="distributed__iterator__traits_8h.html" target="_top" xlink:title="shad/distributed_iterator\l_traits.h">
<polygon fill="white" stroke="black" points="891.425,-261 891.425,-291 1012.42,-291 1012.42,-261 891.425,-261"/>
<text text-anchor="start" x="899.425" y="-279" font-family="Helvetica,sans-Serif" font-size="10.00">shad/distributed_iterator</text>
<text text-anchor="middle" x="951.925" y="-268" font-family="Helvetica,sans-Serif" font-size="10.00">_traits.h</text>
</a>
</g>
</g>
<!-- Node1&#45;&gt;Node30 -->
<g id="edge47" class="edge"><title>Node1&#45;&gt;Node30</title>
<path fill="none" stroke="midnightblue" d="M571.282,-464.452C631.213,-434.938 830.35,-336.871 914.196,-295.58"/>
<polygon fill="midnightblue" stroke="midnightblue" points="915.937,-298.624 923.362,-291.066 912.844,-292.344 915.937,-298.624"/>
</g>
<!-- Node4 -->
<g id="node4" class="node"><title>Node4</title>
<polygon fill="white" stroke="#bfbfbf" points="448.425,-334.5 448.425,-353.5 491.425,-353.5 491.425,-334.5 448.425,-334.5"/>
<text text-anchor="middle" x="469.925" y="-341.5" font-family="Helvetica,sans-Serif" font-size="10.00">deque</text>
</g>
<!-- Node3&#45;&gt;Node4 -->
<g id="edge3" class="edge"><title>Node3&#45;&gt;Node4</title>
<path fill="none" stroke="midnightblue" d="M489.5,-396.679C485.795,-386.898 480.854,-373.852 476.862,-363.315"/>
<polygon fill="midnightblue" stroke="midnightblue" points="480.084,-361.94 473.269,-353.828 473.538,-364.42 480.084,-361.94"/>
</g>
<!-- Node5 -->
<g id="node5" class="node"><title>Node5</title>
<polygon fill="white" stroke="#bfbfbf" points="283.925,-266.5 283.925,-285.5 323.925,-285.5 323.925,-266.5 283.925,-266.5"/>
<text text-anchor="middle" x="303.925" y="-273.5" font-family="Helvetica,sans-Serif" font-size="10.00">limits</text>
</g>
<!-- Node3&#45;&gt;Node5 -->
<g id="edge4" class="edge"><title>Node3&#45;&gt;Node5</title>
<path fill="none" stroke="midnightblue" d="M431.738,-396.954C382.404,-385.391 320.905,-369.421 312.925,-360 297.952,-342.324 298.167,-314.367 300.442,-295.856"/>
<polygon fill="midnightblue" stroke="midnightblue" points="303.938,-296.145 302.007,-285.728 297.02,-295.076 303.938,-296.145"/>
</g>
<!-- Node6 -->
<g id="node6" class="node"><title>Node6</title>
<polygon fill="white" stroke="#bfbfbf" points="43.9249,-130.5 43.9249,-149.5 95.9249,-149.5 95.9249,-130.5 43.9249,-130.5"/>
<text text-anchor="middle" x="69.9249" y="-137.5" font-family="Helvetica,sans-Serif" font-size="10.00">memory</text>
</g>
<!-- Node3&#45;&gt;Node6 -->
<g id="edge5" class="edge"><title>Node3&#45;&gt;Node6</title>
<path fill="none" stroke="midnightblue" d="M429.083,-397.789C425.988,-397.181 422.923,-396.582 419.925,-396 223.929,-357.931 99.5306,-399.822 4.92487,-224 -1.81416,-211.476 -1.29655,-204.789 4.92487,-192 12.7999,-175.811 28.5766,-163.238 42.6143,-154.626"/>
<polygon fill="midnightblue" stroke="midnightblue" points="44.5518,-157.55 51.4875,-149.54 41.071,-151.476 44.5518,-157.55"/>
</g>
<!-- Node7 -->
<g id="node7" class="node"><title>Node7</title>
<polygon fill="white" stroke="#bfbfbf" points="547.925,-334.5 547.925,-353.5 585.925,-353.5 585.925,-334.5 547.925,-334.5"/>
<text text-anchor="middle" x="566.925" y="-341.5" font-family="Helvetica,sans-Serif" font-size="10.00">tuple</text>
</g>
<!-- Node3&#45;&gt;Node7 -->
<g id="edge6" class="edge"><title>Node3&#45;&gt;Node7</title>
<path fill="none" stroke="midnightblue" d="M510.548,-396.679C522.108,-386.082 537.847,-371.655 549.758,-360.736"/>
<polygon fill="midnightblue" stroke="midnightblue" points="552.287,-363.166 557.294,-353.828 547.557,-358.006 552.287,-363.166"/>
</g>
<!-- Node8 -->
<g id="node8" class="node"><title>Node8</title>
<polygon fill="white" stroke="#bfbfbf" points="843.925,-198.5 843.925,-217.5 883.925,-217.5 883.925,-198.5 843.925,-198.5"/>
<text text-anchor="middle" x="863.925" y="-205.5" font-family="Helvetica,sans-Serif" font-size="10.00">utility</text>
</g>
<!-- Node3&#45;&gt;Node8 -->
<g id="edge7" class="edge"><title>Node3&#45;&gt;Node8</title>
<path fill="none" stroke="midnightblue" d="M523.53,-396.791C543.614,-386.723 571.043,-372.786 594.925,-360 686.581,-310.928 793.913,-249.45 840.441,-222.599"/>
<polygon fill="midnightblue" stroke="midnightblue" points="842.259,-225.591 849.167,-217.558 838.758,-219.53 842.259,-225.591"/>
</g>
<!-- Node9 -->
<g id="node9" class="node"><title>Node9</title>
<polygon fill="white" stroke="#bfbfbf" points="13.9249,-198.5 13.9249,-217.5 57.9249,-217.5 57.9249,-198.5 13.9249,-198.5"/>
<text text-anchor="middle" x="35.9249" y="-205.5" font-family="Helvetica,sans-Serif" font-size="10.00">vector</text>
</g>
<!-- Node3&#45;&gt;Node9 -->
<g id="edge8" class="edge"><title>Node3&#45;&gt;Node9</title>
<path fill="none" stroke="midnightblue" d="M432.898,-396.967C384.46,-385.647 321.401,-370.012 296.925,-360 201.905,-321.131 99.3004,-253.2 56.4935,-223.544"/>
<polygon fill="midnightblue" stroke="midnightblue" points="58.2666,-220.513 48.063,-217.661 54.2605,-226.254 58.2666,-220.513"/>
</g>
<!-- Node10 -->
<g id="node10" class="node"><title>Node10</title>
<g id="a_node10"><a xlink:href="object__identifier_8h.html" target="_top" xlink:title="shad/data_structures\l/object_identifier.h">
<polygon fill="white" stroke="black" points="321.925,-329 321.925,-359 429.925,-359 429.925,-329 321.925,-329"/>
<text text-anchor="start" x="329.925" y="-347" font-family="Helvetica,sans-Serif" font-size="10.00">shad/data_structures</text>
<text text-anchor="middle" x="375.925" y="-336" font-family="Helvetica,sans-Serif" font-size="10.00">/object_identifier.h</text>
</a>
</g>
</g>
<!-- Node3&#45;&gt;Node10 -->
<g id="edge9" class="edge"><title>Node3&#45;&gt;Node10</title>
<path fill="none" stroke="midnightblue" d="M469.396,-396.841C452.142,-387.272 429.155,-374.523 410.295,-364.062"/>
<polygon fill="midnightblue" stroke="midnightblue" points="411.854,-360.925 401.411,-359.135 408.459,-367.046 411.854,-360.925"/>
</g>
<!-- Node3&#45;&gt;Node12 -->
<g id="edge46" class="edge"><title>Node3&#45;&gt;Node12</title>
<path fill="none" stroke="midnightblue" d="M497.6,-396.66C502.141,-372.32 511.355,-322.933 516.41,-295.837"/>
<polygon fill="midnightblue" stroke="midnightblue" points="519.903,-296.2 518.297,-285.728 513.022,-294.916 519.903,-296.2"/>
</g>
<!-- Node10&#45;&gt;Node5 -->
<g id="edge11" class="edge"><title>Node10&#45;&gt;Node5</title>
<path fill="none" stroke="midnightblue" d="M360.302,-328.679C348.742,-318.082 333.003,-303.655 321.092,-292.736"/>
<polygon fill="midnightblue" stroke="midnightblue" points="323.292,-290.006 313.556,-285.828 318.562,-295.166 323.292,-290.006"/>
</g>
<!-- Node11 -->
<g id="node11" class="node"><title>Node11</title>
<polygon fill="white" stroke="#bfbfbf" points="352.925,-266.5 352.925,-285.5 398.925,-285.5 398.925,-266.5 352.925,-266.5"/>
<text text-anchor="middle" x="375.925" y="-273.5" font-family="Helvetica,sans-Serif" font-size="10.00">atomic</text>
</g>
<!-- Node10&#45;&gt;Node11 -->
<g id="edge10" class="edge"><title>Node10&#45;&gt;Node11</title>
<path fill="none" stroke="midnightblue" d="M375.925,-328.679C375.925,-319.101 375.925,-306.394 375.925,-295.977"/>
<polygon fill="midnightblue" stroke="midnightblue" points="379.425,-295.828 375.925,-285.828 372.425,-295.828 379.425,-295.828"/>
</g>
<!-- Node10&#45;&gt;Node12 -->
<g id="edge12" class="edge"><title>Node10&#45;&gt;Node12</title>
<path fill="none" stroke="midnightblue" d="M406.816,-328.841C432.059,-317.272 467.44,-301.055 491.878,-289.855"/>
<polygon fill="midnightblue" stroke="midnightblue" points="493.35,-293.03 500.983,-285.682 490.434,-286.667 493.35,-293.03"/>
</g>
<!-- Node12&#45;&gt;Node6 -->
<g id="edge19" class="edge"><title>Node12&#45;&gt;Node6</title>
<path fill="none" stroke="midnightblue" d="M461.813,-267.072C444.482,-264.747 425.44,-262.231 407.925,-260 341.756,-251.573 164.176,-262.81 109.925,-224 88.5098,-208.68 78.0965,-178.745 73.3908,-159.324"/>
<polygon fill="midnightblue" stroke="midnightblue" points="76.8097,-158.575 71.2846,-149.535 69.9663,-160.047 76.8097,-158.575"/>
</g>
<!-- Node12&#45;&gt;Node8 -->
<g id="edge22" class="edge"><title>Node12&#45;&gt;Node8</title>
<path fill="none" stroke="midnightblue" d="M578.041,-269.86C641.08,-263.27 744.191,-249.516 829.925,-224 832.36,-223.275 834.85,-222.419 837.321,-221.488"/>
<polygon fill="midnightblue" stroke="midnightblue" points="838.693,-224.708 846.597,-217.652 836.018,-218.239 838.693,-224.708"/>
</g>
<!-- Node12&#45;&gt;Node9 -->
<g id="edge23" class="edge"><title>Node12&#45;&gt;Node9</title>
<path fill="none" stroke="midnightblue" d="M461.832,-266.923C444.501,-264.594 425.454,-262.113 407.925,-260 258.816,-242.03 217.416,-261.268 71.9249,-224 68.9384,-223.235 65.8755,-222.268 62.8578,-221.194"/>
<polygon fill="midnightblue" stroke="midnightblue" points="64.1082,-217.925 53.5211,-217.521 61.5453,-224.439 64.1082,-217.925"/>
</g>
<!-- Node13 -->
<g id="node13" class="node"><title>Node13</title>
<polygon fill="white" stroke="#bfbfbf" points="267.425,-130.5 267.425,-149.5 316.425,-149.5 316.425,-130.5 267.425,-130.5"/>
<text text-anchor="middle" x="291.925" y="-137.5" font-family="Helvetica,sans-Serif" font-size="10.00">cstddef</text>
</g>
<!-- Node12&#45;&gt;Node13 -->
<g id="edge13" class="edge"><title>Node12&#45;&gt;Node13</title>
<path fill="none" stroke="midnightblue" d="M470.275,-266.489C421.672,-257.312 351.958,-241.628 330.925,-224 311.136,-207.415 300.768,-178.535 295.827,-159.592"/>
<polygon fill="midnightblue" stroke="midnightblue" points="299.21,-158.689 293.514,-149.756 292.396,-160.291 299.21,-158.689"/>
</g>
<!-- Node14 -->
<g id="node14" class="node"><title>Node14</title>
<polygon fill="white" stroke="#bfbfbf" points="194.925,-62.5 194.925,-81.5 240.925,-81.5 240.925,-62.5 194.925,-62.5"/>
<text text-anchor="middle" x="217.925" y="-69.5" font-family="Helvetica,sans-Serif" font-size="10.00">cstdint</text>
</g>
<!-- Node12&#45;&gt;Node14 -->
<g id="edge14" class="edge"><title>Node12&#45;&gt;Node14</title>
<path fill="none" stroke="midnightblue" d="M461.905,-267.212C356.255,-253.023 143.252,-224.374 142.925,-224 105.816,-181.533 167.048,-117.456 199.614,-88.3531"/>
<polygon fill="midnightblue" stroke="midnightblue" points="201.96,-90.9512 207.199,-81.742 197.361,-85.6744 201.96,-90.9512"/>
</g>
<!-- Node15 -->
<g id="node15" class="node"><title>Node15</title>
<polygon fill="white" stroke="#bfbfbf" points="340.425,-198.5 340.425,-217.5 399.425,-217.5 399.425,-198.5 340.425,-198.5"/>
<text text-anchor="middle" x="369.925" y="-205.5" font-family="Helvetica,sans-Serif" font-size="10.00">functional</text>
</g>
<!-- Node12&#45;&gt;Node15 -->
<g id="edge15" class="edge"><title>Node12&#45;&gt;Node15</title>
<path fill="none" stroke="midnightblue" d="M500.315,-266.372C474.487,-255.007 428.859,-234.931 399.007,-221.796"/>
<polygon fill="midnightblue" stroke="midnightblue" points="400.102,-218.454 389.54,-217.63 397.283,-224.862 400.102,-218.454"/>
</g>
<!-- Node16 -->
<g id="node16" class="node"><title>Node16</title>
<polygon fill="white" stroke="#bfbfbf" points="503.925,-62.5 503.925,-81.5 557.925,-81.5 557.925,-62.5 503.925,-62.5"/>
<text text-anchor="middle" x="530.925" y="-69.5" font-family="Helvetica,sans-Serif" font-size="10.00">iostream</text>
</g>
<!-- Node12&#45;&gt;Node16 -->
<g id="edge16" class="edge"><title>Node12&#45;&gt;Node16</title>
<path fill="none" stroke="midnightblue" d="M522.141,-266.179C527.717,-242.971 541.631,-178.259 537.925,-124 537.189,-113.233 535.59,-101.277 534.106,-91.6486"/>
<polygon fill="midnightblue" stroke="midnightblue" points="537.536,-90.9337 532.475,-81.6258 530.627,-92.0582 537.536,-90.9337"/>
</g>
<!-- Node17 -->
<g id="node17" class="node"><title>Node17</title>
<polygon fill="white" stroke="#bfbfbf" points="902.425,-198.5 902.425,-217.5 949.425,-217.5 949.425,-198.5 902.425,-198.5"/>
<text text-anchor="middle" x="925.925" y="-205.5" font-family="Helvetica,sans-Serif" font-size="10.00">iterator</text>
</g>
<!-- Node12&#45;&gt;Node17 -->
<g id="edge17" class="edge"><title>Node12&#45;&gt;Node17</title>
<path fill="none" stroke="midnightblue" d="M578.193,-272.27C652.526,-267.606 784.453,-255.339 892.925,-224 895.271,-223.322 897.665,-222.505 900.037,-221.606"/>
<polygon fill="midnightblue" stroke="midnightblue" points="901.652,-224.724 909.496,-217.602 898.922,-218.278 901.652,-224.724"/>
</g>
<!-- Node18 -->
<g id="node18" class="node"><title>Node18</title>
<polygon fill="white" stroke="#bfbfbf" points="456.425,-198.5 456.425,-217.5 491.425,-217.5 491.425,-198.5 456.425,-198.5"/>
<text text-anchor="middle" x="473.925" y="-205.5" font-family="Helvetica,sans-Serif" font-size="10.00">map</text>
</g>
<!-- Node12&#45;&gt;Node18 -->
<g id="edge18" class="edge"><title>Node12&#45;&gt;Node18</title>
<path fill="none" stroke="midnightblue" d="M513.911,-266.372C506.856,-256.25 494.984,-239.215 486.004,-226.331"/>
<polygon fill="midnightblue" stroke="midnightblue" points="488.676,-224.044 480.087,-217.841 482.933,-228.046 488.676,-224.044"/>
</g>
<!-- Node19 -->
<g id="node19" class="node"><title>Node19</title>
<polygon fill="white" stroke="#bfbfbf" points="585.925,-198.5 585.925,-217.5 615.925,-217.5 615.925,-198.5 585.925,-198.5"/>
<text text-anchor="middle" x="600.925" y="-205.5" font-family="Helvetica,sans-Serif" font-size="10.00">set</text>
</g>
<!-- Node12&#45;&gt;Node19 -->
<g id="edge20" class="edge"><title>Node12&#45;&gt;Node19</title>
<path fill="none" stroke="midnightblue" d="M530.514,-266.372C543.612,-255.699 566.141,-237.343 582.187,-224.268"/>
<polygon fill="midnightblue" stroke="midnightblue" points="584.791,-226.661 590.333,-217.63 580.37,-221.234 584.791,-226.661"/>
</g>
<!-- Node20 -->
<g id="node20" class="node"><title>Node20</title>
<polygon fill="white" stroke="#bfbfbf" points="633.925,-198.5 633.925,-217.5 711.925,-217.5 711.925,-198.5 633.925,-198.5"/>
<text text-anchor="middle" x="672.925" y="-205.5" font-family="Helvetica,sans-Serif" font-size="10.00">unordered_set</text>
</g>
<!-- Node12&#45;&gt;Node20 -->
<g id="edge21" class="edge"><title>Node12&#45;&gt;Node20</title>
<path fill="none" stroke="midnightblue" d="M539.927,-266.372C566.386,-254.958 613.217,-234.756 643.657,-221.625"/>
<polygon fill="midnightblue" stroke="midnightblue" points="645.122,-224.805 652.918,-217.63 642.349,-218.378 645.122,-224.805"/>
</g>
<!-- Node21 -->
<g id="node21" class="node"><title>Node21</title>
<polygon fill="white" stroke="#bfbfbf" points="560.925,-0.5 560.925,-19.5 664.925,-19.5 664.925,-0.5 560.925,-0.5"/>
<text text-anchor="middle" x="612.925" y="-7.5" font-family="Helvetica,sans-Serif" font-size="10.00">shad/config/config.h</text>
</g>
<!-- Node12&#45;&gt;Node21 -->
<g id="edge24" class="edge"><title>Node12&#45;&gt;Node21</title>
<path fill="none" stroke="midnightblue" d="M577.977,-270.829C628.891,-265.344 703.807,-252.749 762.925,-224 805.196,-203.444 824.065,-198.603 843.925,-156 851.527,-139.691 855.003,-71.4296 841.925,-56 820.813,-31.0913 735.512,-19.7099 675.217,-14.6958"/>
<polygon fill="midnightblue" stroke="midnightblue" points="675.266,-11.1888 665.021,-13.8882 674.713,-18.167 675.266,-11.1888"/>
</g>
<!-- Node22 -->
<g id="node22" class="node"><title>Node22</title>
<g id="a_node22"><a xlink:href="handle_8h.html" target="_top" xlink:title="shad/runtime/handle.h">
<polygon fill="white" stroke="black" points="722.425,-130.5 722.425,-149.5 835.425,-149.5 835.425,-130.5 722.425,-130.5"/>
<text text-anchor="middle" x="778.925" y="-137.5" font-family="Helvetica,sans-Serif" font-size="10.00">shad/runtime/handle.h</text>
</a>
</g>
</g>
<!-- Node12&#45;&gt;Node22 -->
<g id="edge25" class="edge"><title>Node12&#45;&gt;Node22</title>
<path fill="none" stroke="midnightblue" d="M578.212,-274.405C625.53,-271.081 691.605,-259.654 736.925,-224 757.615,-207.723 768.985,-178.522 774.515,-159.456"/>
<polygon fill="midnightblue" stroke="midnightblue" points="777.955,-160.137 777.123,-149.575 771.187,-158.351 777.955,-160.137"/>
</g>
<!-- Node24 -->
<g id="node24" class="node"><title>Node24</title>
<g id="a_node24"><a xlink:href="mapping__traits_8h.html" target="_top" xlink:title="shad/runtime/mapping\l_traits.h">
<polygon fill="white" stroke="black" points="334.425,-57 334.425,-87 447.425,-87 447.425,-57 334.425,-57"/>
<text text-anchor="start" x="342.425" y="-75" font-family="Helvetica,sans-Serif" font-size="10.00">shad/runtime/mapping</text>
<text text-anchor="middle" x="390.925" y="-64" font-family="Helvetica,sans-Serif" font-size="10.00">_traits.h</text>
</a>
</g>
</g>
<!-- Node12&#45;&gt;Node24 -->
<g id="edge38" class="edge"><title>Node12&#45;&gt;Node24</title>
<path fill="none" stroke="midnightblue" d="M503.995,-266.448C488.183,-257.406 463.915,-241.978 446.925,-224 422.527,-198.182 417.445,-189.243 404.925,-156 397.784,-137.041 394.272,-114.276 392.552,-97.386"/>
<polygon fill="midnightblue" stroke="midnightblue" points="396.022,-96.8902 391.661,-87.2347 389.049,-97.5026 396.022,-96.8902"/>
</g>
<!-- Node27 -->
<g id="node27" class="node"><title>Node27</title>
<g id="a_node27"><a xlink:href="locality_8h.html" target="_top" xlink:title="shad/runtime/locality.h">
<polygon fill="white" stroke="black" points="414.425,-130.5 414.425,-149.5 529.425,-149.5 529.425,-130.5 414.425,-130.5"/>
<text text-anchor="middle" x="471.925" y="-137.5" font-family="Helvetica,sans-Serif" font-size="10.00">shad/runtime/locality.h</text>
</a>
</g>
</g>
<!-- Node12&#45;&gt;Node27 -->
<g id="edge32" class="edge"><title>Node12&#45;&gt;Node27</title>
<path fill="none" stroke="midnightblue" d="M518.57,-266.043C516.054,-250.568 509.983,-217.987 499.925,-192 495.386,-180.272 488.639,-167.889 482.906,-158.262"/>
<polygon fill="midnightblue" stroke="midnightblue" points="485.849,-156.366 477.63,-149.68 479.886,-160.032 485.849,-156.366"/>
</g>
<!-- Node28 -->
<g id="node28" class="node"><title>Node28</title>
<g id="a_node28"><a xlink:href="available__mappings_8h.html" target="_top" xlink:title="shad/runtime/mappings\l/available_mappings.h">
<polygon fill="white" stroke="black" points="585.925,-125 585.925,-155 703.925,-155 703.925,-125 585.925,-125"/>
<text text-anchor="start" x="593.925" y="-143" font-family="Helvetica,sans-Serif" font-size="10.00">shad/runtime/mappings</text>
<text text-anchor="middle" x="644.925" y="-132" font-family="Helvetica,sans-Serif" font-size="10.00">/available_mappings.h</text>
</a>
</g>
</g>
<!-- Node12&#45;&gt;Node28 -->
<g id="edge39" class="edge"><title>Node12&#45;&gt;Node28</title>
<path fill="none" stroke="midnightblue" d="M578.062,-268.17C630.989,-260.614 703.461,-246.448 720.925,-224 729.658,-212.775 727.617,-204.55 720.925,-192 713.757,-178.557 701.298,-168.03 688.517,-160.12"/>
<polygon fill="midnightblue" stroke="midnightblue" points="690.095,-156.991 679.678,-155.059 686.617,-163.066 690.095,-156.991"/>
</g>
<!-- Node29 -->
<g id="node29" class="node"><title>Node29</title>
<g id="a_node29"><a xlink:href="synchronous__interface_8h.html" target="_top" xlink:title="shad/runtime/synchronous\l_interface.h">
<polygon fill="white" stroke="black" points="152.425,-193 152.425,-223 283.425,-223 283.425,-193 152.425,-193"/>
<text text-anchor="start" x="160.425" y="-211" font-family="Helvetica,sans-Serif" font-size="10.00">shad/runtime/synchronous</text>
<text text-anchor="middle" x="217.925" y="-200" font-family="Helvetica,sans-Serif" font-size="10.00">_interface.h</text>
</a>
</g>
</g>
<!-- Node12&#45;&gt;Node29 -->
<g id="edge41" class="edge"><title>Node12&#45;&gt;Node29</title>
<path fill="none" stroke="midnightblue" d="M480.753,-266.439C433.154,-256.037 351.826,-238.263 292.216,-225.236"/>
<polygon fill="midnightblue" stroke="midnightblue" points="292.615,-221.741 282.099,-223.025 291.121,-228.579 292.615,-221.741"/>
</g>
<!-- Node22&#45;&gt;Node21 -->
<g id="edge27" class="edge"><title>Node22&#45;&gt;Node21</title>
<path fill="none" stroke="midnightblue" d="M775.49,-130.48C768.415,-113.923 750.688,-77.1779 724.925,-56 705.903,-40.364 680.747,-29.6012 659.096,-22.5322"/>
<polygon fill="midnightblue" stroke="midnightblue" points="660.017,-19.1535 649.429,-19.54 657.947,-25.8405 660.017,-19.1535"/>
</g>
<!-- Node23 -->
<g id="node23" class="node"><title>Node23</title>
<polygon fill="white" stroke="#bfbfbf" points="771.925,-62.5 771.925,-81.5 833.925,-81.5 833.925,-62.5 771.925,-62.5"/>
<text text-anchor="middle" x="802.925" y="-69.5" font-family="Helvetica,sans-Serif" font-size="10.00">type_traits</text>
</g>
<!-- Node22&#45;&gt;Node23 -->
<g id="edge26" class="edge"><title>Node22&#45;&gt;Node23</title>
<path fill="none" stroke="midnightblue" d="M782.062,-130.372C785.636,-120.544 791.579,-104.202 796.209,-91.4673"/>
<polygon fill="midnightblue" stroke="midnightblue" points="799.582,-92.4352 799.71,-81.8411 793.003,-90.0429 799.582,-92.4352"/>
</g>
<!-- Node22&#45;&gt;Node24 -->
<g id="edge28" class="edge"><title>Node22&#45;&gt;Node24</title>
<path fill="none" stroke="midnightblue" d="M743.393,-130.47C733.552,-128.231 722.848,-125.911 712.925,-124 665.289,-114.825 537.073,-95.0704 457.548,-83.0183"/>
<polygon fill="midnightblue" stroke="midnightblue" points="458.033,-79.5519 447.622,-81.5156 456.985,-86.473 458.033,-79.5519"/>
</g>
<!-- Node26 -->
<g id="node26" class="node"><title>Node26</title>
<g id="a_node26"><a xlink:href="available__traits__mappings_8h.html" target="_top" xlink:title="shad/runtime/mappings\l/available_traits_mappings.h">
<polygon fill="white" stroke="black" points="575.925,-57 575.925,-87 715.925,-87 715.925,-57 575.925,-57"/>
<text text-anchor="start" x="583.925" y="-75" font-family="Helvetica,sans-Serif" font-size="10.00">shad/runtime/mappings</text>
<text text-anchor="middle" x="645.925" y="-64" font-family="Helvetica,sans-Serif" font-size="10.00">/available_traits_mappings.h</text>
</a>
</g>
</g>
<!-- Node22&#45;&gt;Node26 -->
<g id="edge31" class="edge"><title>Node22&#45;&gt;Node26</title>
<path fill="none" stroke="midnightblue" d="M761.537,-130.372C741.783,-120.569 708.966,-104.283 683.332,-91.5629"/>
<polygon fill="midnightblue" stroke="midnightblue" points="684.764,-88.3663 674.25,-87.0562 681.652,-94.6367 684.764,-88.3663"/>
</g>
<!-- Node24&#45;&gt;Node21 -->
<g id="edge30" class="edge"><title>Node24&#45;&gt;Node21</title>
<path fill="none" stroke="midnightblue" d="M442.974,-56.9327C482.217,-46.3264 535.309,-31.9772 571.648,-22.1559"/>
<polygon fill="midnightblue" stroke="midnightblue" points="572.687,-25.5006 581.428,-19.5127 570.861,-18.7431 572.687,-25.5006"/>
</g>
<!-- Node25 -->
<g id="node25" class="node"><title>Node25</title>
<polygon fill="white" stroke="#bfbfbf" points="370.425,-0.5 370.425,-19.5 411.425,-19.5 411.425,-0.5 370.425,-0.5"/>
<text text-anchor="middle" x="390.925" y="-7.5" font-family="Helvetica,sans-Serif" font-size="10.00">string</text>
</g>
<!-- Node24&#45;&gt;Node25 -->
<g id="edge29" class="edge"><title>Node24&#45;&gt;Node25</title>
<path fill="none" stroke="midnightblue" d="M390.925,-56.7808C390.925,-48.7812 390.925,-38.6887 390.925,-30.0168"/>
<polygon fill="midnightblue" stroke="midnightblue" points="394.425,-29.7305 390.925,-19.7305 387.425,-29.7306 394.425,-29.7305"/>
</g>
<!-- Node27&#45;&gt;Node14 -->
<g id="edge33" class="edge"><title>Node27&#45;&gt;Node14</title>
<path fill="none" stroke="midnightblue" d="M438.979,-130.439C390.231,-117.772 299.42,-94.176 250.745,-81.528"/>
<polygon fill="midnightblue" stroke="midnightblue" points="251.586,-78.1305 241.028,-79.0031 249.826,-84.9056 251.586,-78.1305"/>
</g>
<!-- Node27&#45;&gt;Node16 -->
<g id="edge34" class="edge"><title>Node27&#45;&gt;Node16</title>
<path fill="none" stroke="midnightblue" d="M479.638,-130.372C488.862,-120.053 504.508,-102.551 516.098,-89.5854"/>
<polygon fill="midnightblue" stroke="midnightblue" points="518.966,-91.6291 523.021,-81.8411 513.747,-86.9639 518.966,-91.6291"/>
</g>
<!-- Node27&#45;&gt;Node21 -->
<g id="edge35" class="edge"><title>Node27&#45;&gt;Node21</title>
<path fill="none" stroke="midnightblue" d="M471.889,-130.272C472.292,-113.68 475.5,-77.3425 494.925,-56 509.895,-39.5524 531.527,-29.074 552.193,-22.4166"/>
<polygon fill="midnightblue" stroke="midnightblue" points="553.318,-25.7337 561.908,-19.5326 551.325,-19.0232 553.318,-25.7337"/>
</g>
<!-- Node27&#45;&gt;Node24 -->
<g id="edge36" class="edge"><title>Node27&#45;&gt;Node24</title>
<path fill="none" stroke="midnightblue" d="M461.336,-130.372C449.974,-121.114 431.518,-106.076 416.351,-93.7175"/>
<polygon fill="midnightblue" stroke="midnightblue" points="418.293,-90.7849 408.329,-87.1815 413.871,-96.2115 418.293,-90.7849"/>
</g>
<!-- Node27&#45;&gt;Node26 -->
<g id="edge37" class="edge"><title>Node27&#45;&gt;Node26</title>
<path fill="none" stroke="midnightblue" d="M494.672,-130.372C521.083,-120.354 565.342,-103.566 599.179,-90.7312"/>
<polygon fill="midnightblue" stroke="midnightblue" points="600.759,-93.8753 608.868,-87.0562 598.276,-87.3303 600.759,-93.8753"/>
</g>
<!-- Node28&#45;&gt;Node26 -->
<g id="edge40" class="edge"><title>Node28&#45;&gt;Node26</title>
<path fill="none" stroke="midnightblue" d="M645.142,-124.679C645.262,-116.722 645.416,-106.605 645.555,-97.4356"/>
<polygon fill="midnightblue" stroke="midnightblue" points="649.056,-97.345 645.708,-87.2931 642.057,-97.2389 649.056,-97.345"/>
</g>
<!-- Node29&#45;&gt;Node6 -->
<g id="edge44" class="edge"><title>Node29&#45;&gt;Node6</title>
<path fill="none" stroke="midnightblue" d="M186.175,-192.841C160.231,-181.272 123.867,-165.055 98.7505,-153.855"/>
<polygon fill="midnightblue" stroke="midnightblue" points="99.9519,-150.558 89.3933,-149.682 97.1008,-156.951 99.9519,-150.558"/>
</g>
<!-- Node29&#45;&gt;Node13 -->
<g id="edge42" class="edge"><title>Node29&#45;&gt;Node13</title>
<path fill="none" stroke="midnightblue" d="M233.982,-192.679C245.863,-182.082 262.039,-167.655 274.281,-156.736"/>
<polygon fill="midnightblue" stroke="midnightblue" points="276.893,-159.097 282.026,-149.828 272.234,-153.872 276.893,-159.097"/>
</g>
<!-- Node29&#45;&gt;Node14 -->
<g id="edge43" class="edge"><title>Node29&#45;&gt;Node14</title>
<path fill="none" stroke="midnightblue" d="M217.925,-192.66C217.925,-168.32 217.925,-118.933 217.925,-91.8373"/>
<polygon fill="midnightblue" stroke="midnightblue" points="221.425,-91.7275 217.925,-81.7275 214.425,-91.7276 221.425,-91.7275"/>
</g>
<!-- Node29&#45;&gt;Node27 -->
<g id="edge45" class="edge"><title>Node29&#45;&gt;Node27</title>
<path fill="none" stroke="midnightblue" d="M272.103,-192.922C319.042,-180.725 386.028,-163.32 429.246,-152.09"/>
<polygon fill="midnightblue" stroke="midnightblue" points="430.361,-155.416 439.16,-149.514 428.601,-148.641 430.361,-155.416"/>
</g>
<!-- Node30&#45;&gt;Node17 -->
<g id="edge49" class="edge"><title>Node30&#45;&gt;Node17</title>
<path fill="none" stroke="midnightblue" d="M946.283,-260.679C942.43,-250.898 937.291,-237.852 933.14,-227.315"/>
<polygon fill="midnightblue" stroke="midnightblue" points="936.324,-225.85 929.403,-217.828 929.812,-228.415 936.324,-225.85"/>
</g>
<!-- Node30&#45;&gt;Node27 -->
<g id="edge50" class="edge"><title>Node30&#45;&gt;Node27</title>
<path fill="none" stroke="midnightblue" d="M958.457,-260.946C965.889,-242.619 974.941,-210.7 957.925,-192 929.306,-160.55 619.151,-161.008 576.925,-156 564.372,-154.511 551.001,-152.742 538.153,-150.95"/>
<polygon fill="midnightblue" stroke="midnightblue" points="538.379,-147.448 527.987,-149.513 537.399,-154.379 538.379,-147.448"/>
</g>
<!-- Node31 -->
<g id="node31" class="node"><title>Node31</title>
<polygon fill="white" stroke="#bfbfbf" points="1006.42,-198.5 1006.42,-217.5 1055.42,-217.5 1055.42,-198.5 1006.42,-198.5"/>
<text text-anchor="middle" x="1030.92" y="-205.5" font-family="Helvetica,sans-Serif" font-size="10.00">cassert</text>
</g>
<!-- Node30&#45;&gt;Node31 -->
<g id="edge48" class="edge"><title>Node30&#45;&gt;Node31</title>
<path fill="none" stroke="midnightblue" d="M969.067,-260.679C981.872,-249.981 999.353,-235.377 1012.46,-224.422"/>
<polygon fill="midnightblue" stroke="midnightblue" points="1014.93,-226.926 1020.36,-217.828 1010.44,-221.554 1014.93,-226.926"/>
</g>
</g>
</svg>
