<?xml version="1.0" encoding="UTF-8" standalone="no"?>
<!DOCTYPE svg PUBLIC "-//W3C//DTD SVG 1.1//EN"
 "http://www.w3.org/Graphics/SVG/1.1/DTD/svg11.dtd">
<!-- Generated by graphviz version 2.36.0 (20140111.2315)
 -->
<!-- Title: include/shad/runtime/mappings/cpp_simple/cpp_simple_traits_mapping.h Pages: 1 -->
<svg width="415pt" height="174pt"
 viewBox="0.00 0.00 415.00 174.00" xmlns="http://www.w3.org/2000/svg" xmlns:xlink="http://www.w3.org/1999/xlink">
<g id="graph0" class="graph" transform="scale(1 1) rotate(0) translate(4 170)">
<title>include/shad/runtime/mappings/cpp_simple/cpp_simple_traits_mapping.h</title>
<polygon fill="white" stroke="none" points="-4,4 -4,-170 411,-170 411,4 -4,4"/>
<!-- Node1 -->
<g id="node1" class="node"><title>Node1</title>
<polygon fill="#bfbfbf" stroke="black" points="108,-124.5 108,-165.5 254,-165.5 254,-124.5 108,-124.5"/>
<text text-anchor="start" x="116" y="-153.5" font-family="Helvetica,sans-Serif" font-size="10.00">include/shad/runtime</text>
<text text-anchor="start" x="116" y="-142.5" font-family="Helvetica,sans-Serif" font-size="10.00">/mappings/cpp_simple</text>
<text text-anchor="middle" x="181" y="-131.5" font-family="Helvetica,sans-Serif" font-size="10.00">/cpp_simple_traits_mapping.h</text>
</g>
<!-- Node2 -->
<g id="node2" class="node"><title>Node2</title>
<polygon fill="white" stroke="#bfbfbf" points="0,-62.5 0,-81.5 46,-81.5 46,-62.5 0,-62.5"/>
<text text-anchor="middle" x="23" y="-69.5" font-family="Helvetica,sans-Serif" font-size="10.00">cstdint</text>
</g>
<!-- Node1&#45;&gt;Node2 -->
<g id="edge1" class="edge"><title>Node1&#45;&gt;Node2</title>
<path fill="none" stroke="midnightblue" d="M136.292,-124.391C112.163,-113.743 81.8935,-100.278 55,-88 53.6046,-87.363 52.1766,-86.7073 50.7357,-86.0427"/>
<polygon fill="midnightblue" stroke="midnightblue" points="51.7901,-82.6732 41.2467,-81.6304 48.8386,-89.0205 51.7901,-82.6732"/>
</g>
<!-- Node3 -->
<g id="node3" class="node"><title>Node3</title>
<polygon fill="white" stroke="#bfbfbf" points="64,-62.5 64,-81.5 104,-81.5 104,-62.5 64,-62.5"/>
<text text-anchor="middle" x="84" y="-69.5" font-family="Helvetica,sans-Serif" font-size="10.00">limits</text>
</g>
<!-- Node1&#45;&gt;Node3 -->
<g id="edge2" class="edge"><title>Node1&#45;&gt;Node3</title>
<path fill="none" stroke="midnightblue" d="M154.238,-124.411C138.355,-112.786 118.552,-98.2909 104.026,-87.658"/>
<polygon fill="midnightblue" stroke="midnightblue" points="105.882,-84.679 95.745,-81.5968 101.747,-90.3276 105.882,-84.679"/>
</g>
<!-- Node4 -->
<g id="node4" class="node"><title>Node4</title>
<polygon fill="white" stroke="#bfbfbf" points="122,-62.5 122,-81.5 174,-81.5 174,-62.5 122,-62.5"/>
<text text-anchor="middle" x="148" y="-69.5" font-family="Helvetica,sans-Serif" font-size="10.00">memory</text>
</g>
<!-- Node1&#45;&gt;Node4 -->
<g id="edge3" class="edge"><title>Node1&#45;&gt;Node4</title>
<path fill="none" stroke="midnightblue" d="M171.808,-124.223C166.945,-113.759 161.02,-101.013 156.298,-90.8526"/>
<polygon fill="midnightblue" stroke="midnightblue" points="159.449,-89.328 152.06,-81.7349 153.101,-92.2785 159.449,-89.328"/>
</g>
<!-- Node5 -->
<g id="node5" class="node"><title>Node5</title>
<polygon fill="white" stroke="#bfbfbf" points="192,-62.5 192,-81.5 236,-81.5 236,-62.5 192,-62.5"/>
<text text-anchor="middle" x="214" y="-69.5" font-family="Helvetica,sans-Serif" font-size="10.00">mutex</text>
</g>
<!-- Node1&#45;&gt;Node5 -->
<g id="edge4" class="edge"><title>Node1&#45;&gt;Node5</title>
<path fill="none" stroke="midnightblue" d="M190.192,-124.223C195.055,-113.759 200.98,-101.013 205.702,-90.8526"/>
<polygon fill="midnightblue" stroke="midnightblue" points="208.899,-92.2785 209.94,-81.7349 202.551,-89.328 208.899,-92.2785"/>
</g>
<!-- Node6 -->
<g id="node6" class="node"><title>Node6</title>
<polygon fill="white" stroke="#bfbfbf" points="243.5,-0.5 243.5,-19.5 284.5,-19.5 284.5,-0.5 243.5,-0.5"/>
<text text-anchor="middle" x="264" y="-7.5" font-family="Helvetica,sans-Serif" font-size="10.00">string</text>
</g>
<!-- Node1&#45;&gt;Node6 -->
<g id="edge5" class="edge"><title>Node1&#45;&gt;Node6</title>
<path fill="none" stroke="midnightblue" d="M209.932,-124.304C222.082,-114.669 235.369,-102.105 244,-88 255.012,-70.0046 260.003,-46.0701 262.238,-29.6909"/>
<polygon fill="midnightblue" stroke="midnightblue" points="265.719,-30.0589 263.385,-19.7243 258.765,-29.2585 265.719,-30.0589"/>
</g>
<!-- Node7 -->
<g id="node7" class="node"><title>Node7</title>
<g id="a_node7"><a xlink:href="mapping__traits_8h.html" target="_top" xlink:title="shad/runtime/mapping\l_traits.h">
<polygon fill="white" stroke="black" points="292.5,-57 292.5,-87 405.5,-87 405.5,-57 292.5,-57"/>
<text text-anchor="start" x="300.5" y="-75" font-family="Helvetica,sans-Serif" font-size="10.00">shad/runtime/mapping</text>
<text text-anchor="middle" x="349" y="-64" font-family="Helvetica,sans-Serif" font-size="10.00">_traits.h</text>
</a>
</g>
</g>
<!-- Node1&#45;&gt;Node7 -->
<g id="edge6" class="edge"><title>Node1&#45;&gt;Node7</title>
<path fill="none" stroke="midnightblue" d="M227.351,-124.411C252.131,-113.939 282.421,-101.138 306.577,-90.9287"/>
<polygon fill="midnightblue" stroke="midnightblue" points="307.997,-94.1285 315.845,-87.0117 305.272,-87.6807 307.997,-94.1285"/>
</g>
<!-- Node7&#45;&gt;Node6 -->
<g id="edge7" class="edge"><title>Node7&#45;&gt;Node6</title>
<path fill="none" stroke="midnightblue" d="M328.856,-56.7808C315.405,-47.2862 297.778,-34.8434 284.296,-25.3267"/>
<polygon fill="midnightblue" stroke="midnightblue" points="286.309,-22.4632 276.121,-19.5557 282.272,-28.182 286.309,-22.4632"/>
</g>
<!-- Node8 -->
<g id="node8" class="node"><title>Node8</title>
<polygon fill="white" stroke="#bfbfbf" points="303,-0.5 303,-19.5 407,-19.5 407,-0.5 303,-0.5"/>
<text text-anchor="middle" x="355" y="-7.5" font-family="Helvetica,sans-Serif" font-size="10.00">shad/config/config.h</text>
</g>
<!-- Node7&#45;&gt;Node8 -->
<g id="edge8" class="edge"><title>Node7&#45;&gt;Node8</title>
<path fill="none" stroke="midnightblue" d="M350.422,-56.7808C351.231,-48.6913 352.254,-38.4617 353.127,-29.725"/>
<polygon fill="midnightblue" stroke="midnightblue" points="356.614,-30.0292 354.127,-19.7305 349.649,-29.3326 356.614,-30.0292"/>
</g>
</g>
</svg>
