<?xml version="1.0" encoding="UTF-8" standalone="no"?>
<!DOCTYPE svg PUBLIC "-//W3C//DTD SVG 1.1//EN"
 "http://www.w3.org/Graphics/SVG/1.1/DTD/svg11.dtd">
<!-- Generated by graphviz version 2.36.0 (20140111.2315)
 -->
<!-- Title: include/shad/runtime/mappings/cpp_simple/cpp_simple_asynchronous_interface.h Pages: 1 -->
<svg width="903pt" height="320pt"
 viewBox="0.00 0.00 903.00 320.00" xmlns="http://www.w3.org/2000/svg" xmlns:xlink="http://www.w3.org/1999/xlink">
<g id="graph0" class="graph" transform="scale(1 1) rotate(0) translate(4 316)">
<title>include/shad/runtime/mappings/cpp_simple/cpp_simple_asynchronous_interface.h</title>
<polygon fill="white" stroke="none" points="-4,4 -4,-316 899,-316 899,4 -4,4"/>
<!-- Node1 -->
<g id="node1" class="node"><title>Node1</title>
<polygon fill="#bfbfbf" stroke="black" points="349.5,-259 349.5,-311 484.5,-311 484.5,-259 349.5,-259"/>
<text text-anchor="start" x="357.5" y="-299" font-family="Helvetica,sans-Serif" font-size="10.00">include/shad/runtime</text>
<text text-anchor="start" x="357.5" y="-288" font-family="Helvetica,sans-Serif" font-size="10.00">/mappings/cpp_simple</text>
<text text-anchor="start" x="357.5" y="-277" font-family="Helvetica,sans-Serif" font-size="10.00">/cpp_simple_asynchronous</text>
<text text-anchor="middle" x="417" y="-266" font-family="Helvetica,sans-Serif" font-size="10.00">_interface.h</text>
</g>
<!-- Node2 -->
<g id="node2" class="node"><title>Node2</title>
<polygon fill="white" stroke="#bfbfbf" points="169.5,-124.5 169.5,-143.5 218.5,-143.5 218.5,-124.5 169.5,-124.5"/>
<text text-anchor="middle" x="194" y="-131.5" font-family="Helvetica,sans-Serif" font-size="10.00">cstddef</text>
</g>
<!-- Node1&#45;&gt;Node2 -->
<g id="edge1" class="edge"><title>Node1&#45;&gt;Node2</title>
<path fill="none" stroke="midnightblue" d="M349.416,-279.78C305.596,-273.482 250.454,-258.276 216,-222 198.511,-203.586 194.374,-173.348 193.677,-153.81"/>
<polygon fill="midnightblue" stroke="midnightblue" points="197.176,-153.682 193.588,-143.713 190.176,-153.743 197.176,-153.682"/>
</g>
<!-- Node3 -->
<g id="node3" class="node"><title>Node3</title>
<polygon fill="white" stroke="#bfbfbf" points="287,-62.5 287,-81.5 333,-81.5 333,-62.5 287,-62.5"/>
<text text-anchor="middle" x="310" y="-69.5" font-family="Helvetica,sans-Serif" font-size="10.00">cstdint</text>
</g>
<!-- Node1&#45;&gt;Node3 -->
<g id="edge2" class="edge"><title>Node1&#45;&gt;Node3</title>
<path fill="none" stroke="midnightblue" d="M349.436,-280.611C300.728,-274.842 236.218,-259.927 193,-222 164.708,-197.171 167.483,-180.89 160,-144 158.233,-135.289 154.711,-131.144 160,-124 192.628,-79.9335 226.825,-107.686 278,-88 279.847,-87.2896 281.736,-86.5201 283.628,-85.7177"/>
<polygon fill="midnightblue" stroke="midnightblue" points="285.228,-88.836 292.923,-81.5527 282.366,-82.448 285.228,-88.836"/>
</g>
<!-- Node4 -->
<g id="node4" class="node"><title>Node4</title>
<polygon fill="white" stroke="#bfbfbf" points="275,-124.5 275,-143.5 327,-143.5 327,-124.5 275,-124.5"/>
<text text-anchor="middle" x="301" y="-131.5" font-family="Helvetica,sans-Serif" font-size="10.00">memory</text>
</g>
<!-- Node1&#45;&gt;Node4 -->
<g id="edge3" class="edge"><title>Node1&#45;&gt;Node4</title>
<path fill="none" stroke="midnightblue" d="M410.328,-258.626C403.401,-236.041 390.771,-203.098 371,-180 359.703,-166.802 343.574,-156.074 329.645,-148.407"/>
<polygon fill="midnightblue" stroke="midnightblue" points="330.923,-145.126 320.44,-143.596 327.681,-151.33 330.923,-145.126"/>
</g>
<!-- Node5 -->
<g id="node5" class="node"><title>Node5</title>
<polygon fill="white" stroke="#bfbfbf" points="822,-191.5 822,-210.5 862,-210.5 862,-191.5 822,-191.5"/>
<text text-anchor="middle" x="842" y="-198.5" font-family="Helvetica,sans-Serif" font-size="10.00">utility</text>
</g>
<!-- Node1&#45;&gt;Node5 -->
<g id="edge4" class="edge"><title>Node1&#45;&gt;Node5</title>
<path fill="none" stroke="midnightblue" d="M484.557,-282.515C565.361,-278.711 703.443,-265.699 813,-222 816.621,-220.556 820.238,-218.59 823.627,-216.453"/>
<polygon fill="midnightblue" stroke="midnightblue" points="825.741,-219.245 831.914,-210.634 821.719,-213.516 825.741,-219.245"/>
</g>
<!-- Node6 -->
<g id="node6" class="node"><title>Node6</title>
<g id="a_node6"><a xlink:href="asynchronous__interface_8h.html" target="_top" xlink:title="shad/runtime/asynchronous\l_interface.h">
<polygon fill="white" stroke="black" points="225.5,-186 225.5,-216 362.5,-216 362.5,-186 225.5,-186"/>
<text text-anchor="start" x="233.5" y="-204" font-family="Helvetica,sans-Serif" font-size="10.00">shad/runtime/asynchronous</text>
<text text-anchor="middle" x="294" y="-193" font-family="Helvetica,sans-Serif" font-size="10.00">_interface.h</text>
</a>
</g>
</g>
<!-- Node1&#45;&gt;Node6 -->
<g id="edge5" class="edge"><title>Node1&#45;&gt;Node6</title>
<path fill="none" stroke="midnightblue" d="M379.428,-258.952C361.499,-247 340.357,-232.905 323.591,-221.727"/>
<polygon fill="midnightblue" stroke="midnightblue" points="325.525,-218.81 315.263,-216.175 321.642,-224.634 325.525,-218.81"/>
</g>
<!-- Node7 -->
<g id="node7" class="node"><title>Node7</title>
<g id="a_node7"><a xlink:href="handle_8h.html" target="_top" xlink:title="shad/runtime/handle.h">
<polygon fill="white" stroke="black" points="-0.5,-124.5 -0.5,-143.5 112.5,-143.5 112.5,-124.5 -0.5,-124.5"/>
<text text-anchor="middle" x="56" y="-131.5" font-family="Helvetica,sans-Serif" font-size="10.00">shad/runtime/handle.h</text>
</a>
</g>
</g>
<!-- Node1&#45;&gt;Node7 -->
<g id="edge22" class="edge"><title>Node1&#45;&gt;Node7</title>
<path fill="none" stroke="midnightblue" d="M349.297,-282.114C287.341,-277.604 195.206,-263.674 127,-222 98.9638,-204.87 77.0712,-172.59 65.3835,-152.531"/>
<polygon fill="midnightblue" stroke="midnightblue" points="68.2911,-150.559 60.3531,-143.542 62.1826,-153.978 68.2911,-150.559"/>
</g>
<!-- Node10 -->
<g id="node10" class="node"><title>Node10</title>
<g id="a_node10"><a xlink:href="mapping__traits_8h.html" target="_top" xlink:title="shad/runtime/mapping\l_traits.h">
<polygon fill="white" stroke="black" points="461.5,-57 461.5,-87 574.5,-87 574.5,-57 461.5,-57"/>
<text text-anchor="start" x="469.5" y="-75" font-family="Helvetica,sans-Serif" font-size="10.00">shad/runtime/mapping</text>
<text text-anchor="middle" x="518" y="-64" font-family="Helvetica,sans-Serif" font-size="10.00">_traits.h</text>
</a>
</g>
</g>
<!-- Node1&#45;&gt;Node10 -->
<g id="edge24" class="edge"><title>Node1&#45;&gt;Node10</title>
<path fill="none" stroke="midnightblue" d="M437.778,-258.938C458.769,-232.205 490.4,-187.767 507,-144 512.654,-129.092 515.405,-111.369 516.741,-97.3603"/>
<polygon fill="midnightblue" stroke="midnightblue" points="520.257,-97.286 517.538,-87.046 513.278,-96.7465 520.257,-97.286"/>
</g>
<!-- Node13 -->
<g id="node13" class="node"><title>Node13</title>
<g id="a_node13"><a xlink:href="locality_8h.html" target="_top" xlink:title="shad/runtime/locality.h">
<polygon fill="white" stroke="black" points="383.5,-124.5 383.5,-143.5 498.5,-143.5 498.5,-124.5 383.5,-124.5"/>
<text text-anchor="middle" x="441" y="-131.5" font-family="Helvetica,sans-Serif" font-size="10.00">shad/runtime/locality.h</text>
</a>
</g>
</g>
<!-- Node1&#45;&gt;Node13 -->
<g id="edge23" class="edge"><title>Node1&#45;&gt;Node13</title>
<path fill="none" stroke="midnightblue" d="M421.071,-258.724C425.869,-228.938 433.728,-180.15 438.002,-153.612"/>
<polygon fill="midnightblue" stroke="midnightblue" points="441.46,-154.151 439.595,-143.722 434.549,-153.038 441.46,-154.151"/>
</g>
<!-- Node15 -->
<g id="node15" class="node"><title>Node15</title>
<g id="a_node15"><a xlink:href="cpp__simple__traits__mapping_8h.html" target="_top" xlink:title="shad/runtime/mappings\l/cpp_simple/cpp_simple\l_traits_mapping.h">
<polygon fill="white" stroke="black" points="542,-180.5 542,-221.5 664,-221.5 664,-180.5 542,-180.5"/>
<text text-anchor="start" x="550" y="-209.5" font-family="Helvetica,sans-Serif" font-size="10.00">shad/runtime/mappings</text>
<text text-anchor="start" x="550" y="-198.5" font-family="Helvetica,sans-Serif" font-size="10.00">/cpp_simple/cpp_simple</text>
<text text-anchor="middle" x="603" y="-187.5" font-family="Helvetica,sans-Serif" font-size="10.00">_traits_mapping.h</text>
</a>
</g>
</g>
<!-- Node1&#45;&gt;Node15 -->
<g id="edge25" class="edge"><title>Node1&#45;&gt;Node15</title>
<path fill="none" stroke="midnightblue" d="M473.817,-258.952C497.867,-248.349 525.742,-236.06 549.429,-225.617"/>
<polygon fill="midnightblue" stroke="midnightblue" points="550.884,-228.801 558.622,-221.565 548.06,-222.396 550.884,-228.801"/>
</g>
<!-- Node18 -->
<g id="node18" class="node"><title>Node18</title>
<g id="a_node18"><a xlink:href="cpp__simple__utility_8h.html" target="_top" xlink:title="shad/runtime/mappings\l/cpp_simple/cpp_simple\l_utility.h">
<polygon fill="white" stroke="black" points="682,-180.5 682,-221.5 804,-221.5 804,-180.5 682,-180.5"/>
<text text-anchor="start" x="690" y="-209.5" font-family="Helvetica,sans-Serif" font-size="10.00">shad/runtime/mappings</text>
<text text-anchor="start" x="690" y="-198.5" font-family="Helvetica,sans-Serif" font-size="10.00">/cpp_simple/cpp_simple</text>
<text text-anchor="middle" x="743" y="-187.5" font-family="Helvetica,sans-Serif" font-size="10.00">_utility.h</text>
</a>
</g>
</g>
<!-- Node1&#45;&gt;Node18 -->
<g id="edge32" class="edge"><title>Node1&#45;&gt;Node18</title>
<path fill="none" stroke="midnightblue" d="M484.564,-268.428C533.964,-256.86 602.809,-240.362 672.169,-222.176"/>
<polygon fill="midnightblue" stroke="midnightblue" points="673.178,-225.53 681.957,-219.599 671.395,-218.76 673.178,-225.53"/>
</g>
<!-- Node6&#45;&gt;Node2 -->
<g id="edge6" class="edge"><title>Node6&#45;&gt;Node2</title>
<path fill="none" stroke="midnightblue" d="M272.301,-185.896C255.532,-174.996 232.429,-159.979 215.667,-149.084"/>
<polygon fill="midnightblue" stroke="midnightblue" points="217.38,-146.022 207.088,-143.507 213.565,-151.891 217.38,-146.022"/>
</g>
<!-- Node6&#45;&gt;Node3 -->
<g id="edge7" class="edge"><title>Node6&#45;&gt;Node3</title>
<path fill="none" stroke="midnightblue" d="M282.637,-185.983C271.716,-170.727 257.964,-145.615 266,-124 271.094,-110.299 281.703,-97.8182 291.228,-88.633"/>
<polygon fill="midnightblue" stroke="midnightblue" points="293.774,-91.0492 298.829,-81.738 289.07,-85.8647 293.774,-91.0492"/>
</g>
<!-- Node6&#45;&gt;Node4 -->
<g id="edge8" class="edge"><title>Node6&#45;&gt;Node4</title>
<path fill="none" stroke="midnightblue" d="M295.519,-185.896C296.535,-176.463 297.882,-163.948 298.987,-153.689"/>
<polygon fill="midnightblue" stroke="midnightblue" points="302.473,-154.012 300.064,-143.695 295.513,-153.262 302.473,-154.012"/>
</g>
<!-- Node6&#45;&gt;Node7 -->
<g id="edge9" class="edge"><title>Node6&#45;&gt;Node7</title>
<path fill="none" stroke="midnightblue" d="M242.651,-185.976C199.063,-174.072 137.343,-157.216 97.0001,-146.198"/>
<polygon fill="midnightblue" stroke="midnightblue" points="97.7969,-142.787 87.228,-143.529 95.9526,-149.54 97.7969,-142.787"/>
</g>
<!-- Node6&#45;&gt;Node13 -->
<g id="edge16" class="edge"><title>Node6&#45;&gt;Node13</title>
<path fill="none" stroke="midnightblue" d="M325.897,-185.896C351.69,-174.491 387.674,-158.579 412.51,-147.598"/>
<polygon fill="midnightblue" stroke="midnightblue" points="414.031,-150.752 421.761,-143.507 411.2,-144.35 414.031,-150.752"/>
</g>
<!-- Node8 -->
<g id="node8" class="node"><title>Node8</title>
<polygon fill="white" stroke="#bfbfbf" points="49,-62.5 49,-81.5 111,-81.5 111,-62.5 49,-62.5"/>
<text text-anchor="middle" x="80" y="-69.5" font-family="Helvetica,sans-Serif" font-size="10.00">type_traits</text>
</g>
<!-- Node7&#45;&gt;Node8 -->
<g id="edge10" class="edge"><title>Node7&#45;&gt;Node8</title>
<path fill="none" stroke="midnightblue" d="M59.4386,-124.403C62.8961,-115.76 68.332,-102.17 72.7464,-91.1341"/>
<polygon fill="midnightblue" stroke="midnightblue" points="76.1035,-92.1653 76.5678,-81.5806 69.6041,-89.5655 76.1035,-92.1653"/>
</g>
<!-- Node9 -->
<g id="node9" class="node"><title>Node9</title>
<polygon fill="white" stroke="#bfbfbf" points="309,-0.5 309,-19.5 413,-19.5 413,-0.5 309,-0.5"/>
<text text-anchor="middle" x="361" y="-7.5" font-family="Helvetica,sans-Serif" font-size="10.00">shad/config/config.h</text>
</g>
<!-- Node7&#45;&gt;Node9 -->
<g id="edge11" class="edge"><title>Node7&#45;&gt;Node9</title>
<path fill="none" stroke="midnightblue" d="M50.1197,-124.435C40.2166,-108.856 22.8876,-75.6786 40,-56 72.8337,-18.2424 214.95,-11.2273 298.677,-10.4636"/>
<polygon fill="midnightblue" stroke="midnightblue" points="298.859,-13.9626 308.836,-10.3989 298.814,-6.96273 298.859,-13.9626"/>
</g>
<!-- Node7&#45;&gt;Node10 -->
<g id="edge12" class="edge"><title>Node7&#45;&gt;Node10</title>
<path fill="none" stroke="midnightblue" d="M112.522,-127.355C201.823,-118.31 372.632,-100.472 451.19,-87.9772"/>
<polygon fill="midnightblue" stroke="midnightblue" points="451.9,-91.4075 461.198,-86.3279 450.762,-84.5007 451.9,-91.4075"/>
</g>
<!-- Node12 -->
<g id="node12" class="node"><title>Node12</title>
<g id="a_node12"><a xlink:href="available__traits__mappings_8h.html" target="_top" xlink:title="shad/runtime/mappings\l/available_traits_mappings.h">
<polygon fill="white" stroke="black" points="129,-57 129,-87 269,-87 269,-57 129,-57"/>
<text text-anchor="start" x="137" y="-75" font-family="Helvetica,sans-Serif" font-size="10.00">shad/runtime/mappings</text>
<text text-anchor="middle" x="199" y="-64" font-family="Helvetica,sans-Serif" font-size="10.00">/available_traits_mappings.h</text>
</a>
</g>
</g>
<!-- Node7&#45;&gt;Node12 -->
<g id="edge15" class="edge"><title>Node7&#45;&gt;Node12</title>
<path fill="none" stroke="midnightblue" d="M76.4884,-124.403C97.1916,-115.717 129.801,-102.035 156.173,-90.9694"/>
<polygon fill="midnightblue" stroke="midnightblue" points="157.706,-94.1218 165.573,-87.0253 154.998,-87.667 157.706,-94.1218"/>
</g>
<!-- Node10&#45;&gt;Node9 -->
<g id="edge14" class="edge"><title>Node10&#45;&gt;Node9</title>
<path fill="none" stroke="midnightblue" d="M481.19,-56.9327C454.466,-46.7196 418.661,-33.036 393.097,-23.2664"/>
<polygon fill="midnightblue" stroke="midnightblue" points="394.094,-19.9005 383.503,-19.6 391.595,-26.4393 394.094,-19.9005"/>
</g>
<!-- Node11 -->
<g id="node11" class="node"><title>Node11</title>
<polygon fill="white" stroke="#bfbfbf" points="539.5,-0.5 539.5,-19.5 580.5,-19.5 580.5,-0.5 539.5,-0.5"/>
<text text-anchor="middle" x="560" y="-7.5" font-family="Helvetica,sans-Serif" font-size="10.00">string</text>
</g>
<!-- Node10&#45;&gt;Node11 -->
<g id="edge13" class="edge"><title>Node10&#45;&gt;Node11</title>
<path fill="none" stroke="midnightblue" d="M527.953,-56.7808C533.994,-48.152 541.738,-37.0882 548.101,-27.9987"/>
<polygon fill="midnightblue" stroke="midnightblue" points="551.021,-29.93 553.889,-19.7305 545.287,-25.9157 551.021,-29.93"/>
</g>
<!-- Node13&#45;&gt;Node3 -->
<g id="edge17" class="edge"><title>Node13&#45;&gt;Node3</title>
<path fill="none" stroke="midnightblue" d="M422.231,-124.403C400.149,-114.29 363.281,-97.4036 337.861,-85.761"/>
<polygon fill="midnightblue" stroke="midnightblue" points="339.284,-82.5627 328.734,-81.5806 336.369,-88.9269 339.284,-82.5627"/>
</g>
<!-- Node13&#45;&gt;Node9 -->
<g id="edge19" class="edge"><title>Node13&#45;&gt;Node9</title>
<path fill="none" stroke="midnightblue" d="M423.364,-124.38C409.511,-116.709 390.813,-104.2 380,-88 368.324,-70.5067 363.817,-46.4752 362.081,-29.9359"/>
<polygon fill="midnightblue" stroke="midnightblue" points="365.56,-29.5412 361.268,-19.8551 358.583,-30.1042 365.56,-29.5412"/>
</g>
<!-- Node13&#45;&gt;Node10 -->
<g id="edge20" class="edge"><title>Node13&#45;&gt;Node10</title>
<path fill="none" stroke="midnightblue" d="M452.032,-124.403C462.363,-116.353 478.2,-104.013 491.768,-93.4406"/>
<polygon fill="midnightblue" stroke="midnightblue" points="494.116,-96.0482 499.853,-87.1408 489.813,-90.5265 494.116,-96.0482"/>
</g>
<!-- Node13&#45;&gt;Node12 -->
<g id="edge21" class="edge"><title>Node13&#45;&gt;Node12</title>
<path fill="none" stroke="midnightblue" d="M406.584,-124.467C369.991,-115.395 311.212,-100.821 265.526,-89.494"/>
<polygon fill="midnightblue" stroke="midnightblue" points="266.243,-86.0659 255.695,-87.0565 264.559,-92.8602 266.243,-86.0659"/>
</g>
<!-- Node14 -->
<g id="node14" class="node"><title>Node14</title>
<polygon fill="white" stroke="#bfbfbf" points="389,-62.5 389,-81.5 443,-81.5 443,-62.5 389,-62.5"/>
<text text-anchor="middle" x="416" y="-69.5" font-family="Helvetica,sans-Serif" font-size="10.00">iostream</text>
</g>
<!-- Node13&#45;&gt;Node14 -->
<g id="edge18" class="edge"><title>Node13&#45;&gt;Node14</title>
<path fill="none" stroke="midnightblue" d="M437.418,-124.403C433.817,-115.76 428.154,-102.17 423.556,-91.1341"/>
<polygon fill="midnightblue" stroke="midnightblue" points="426.652,-89.4652 419.575,-81.5806 420.191,-92.1575 426.652,-89.4652"/>
</g>
<!-- Node15&#45;&gt;Node3 -->
<g id="edge26" class="edge"><title>Node15&#45;&gt;Node3</title>
<path fill="none" stroke="midnightblue" d="M541.898,-194.97C493.49,-188.741 425.65,-174.856 374,-144 351.611,-130.624 332.592,-106.914 321.242,-90.5982"/>
<polygon fill="midnightblue" stroke="midnightblue" points="323.947,-88.347 315.479,-81.9804 318.129,-92.2385 323.947,-88.347"/>
</g>
<!-- Node15&#45;&gt;Node4 -->
<g id="edge28" class="edge"><title>Node15&#45;&gt;Node4</title>
<path fill="none" stroke="midnightblue" d="M541.816,-187.117C488.692,-175.884 409.718,-159.074 341,-144 339.749,-143.725 338.475,-143.445 337.189,-143.161"/>
<polygon fill="midnightblue" stroke="midnightblue" points="337.763,-139.703 327.241,-140.947 336.242,-146.536 337.763,-139.703"/>
</g>
<!-- Node15&#45;&gt;Node10 -->
<g id="edge31" class="edge"><title>Node15&#45;&gt;Node10</title>
<path fill="none" stroke="midnightblue" d="M589.905,-180.435C574.626,-157.607 549.403,-119.92 533.254,-95.7915"/>
<polygon fill="midnightblue" stroke="midnightblue" points="536.02,-93.6306 527.549,-87.2669 530.202,-97.5241 536.02,-93.6306"/>
</g>
<!-- Node15&#45;&gt;Node11 -->
<g id="edge30" class="edge"><title>Node15&#45;&gt;Node11</title>
<path fill="none" stroke="midnightblue" d="M602.345,-180.449C600.946,-152.324 596.578,-99.091 583,-56 580.001,-46.4812 575.126,-36.5369 570.634,-28.4246"/>
<polygon fill="midnightblue" stroke="midnightblue" points="573.55,-26.4755 565.497,-19.5897 567.498,-29.994 573.55,-26.4755"/>
</g>
<!-- Node16 -->
<g id="node16" class="node"><title>Node16</title>
<polygon fill="white" stroke="#bfbfbf" points="631,-124.5 631,-143.5 671,-143.5 671,-124.5 631,-124.5"/>
<text text-anchor="middle" x="651" y="-131.5" font-family="Helvetica,sans-Serif" font-size="10.00">limits</text>
</g>
<!-- Node15&#45;&gt;Node16 -->
<g id="edge27" class="edge"><title>Node15&#45;&gt;Node16</title>
<path fill="none" stroke="midnightblue" d="M617.402,-180.498C624.124,-171.395 632.049,-160.662 638.514,-151.908"/>
<polygon fill="midnightblue" stroke="midnightblue" points="641.486,-153.776 644.61,-143.652 635.854,-149.618 641.486,-153.776"/>
</g>
<!-- Node17 -->
<g id="node17" class="node"><title>Node17</title>
<polygon fill="white" stroke="#bfbfbf" points="689,-124.5 689,-143.5 733,-143.5 733,-124.5 689,-124.5"/>
<text text-anchor="middle" x="711" y="-131.5" font-family="Helvetica,sans-Serif" font-size="10.00">mutex</text>
</g>
<!-- Node15&#45;&gt;Node17 -->
<g id="edge29" class="edge"><title>Node15&#45;&gt;Node17</title>
<path fill="none" stroke="midnightblue" d="M635.404,-180.498C652.28,-170.34 672.527,-158.155 687.818,-148.952"/>
<polygon fill="midnightblue" stroke="midnightblue" points="689.86,-151.808 696.624,-143.652 686.251,-145.81 689.86,-151.808"/>
</g>
<!-- Node18&#45;&gt;Node13 -->
<g id="edge35" class="edge"><title>Node18&#45;&gt;Node13</title>
<path fill="none" stroke="midnightblue" d="M681.999,-182.234C678.962,-181.456 675.95,-180.706 673,-180 615.381,-166.208 548.946,-153.657 501.975,-145.336"/>
<polygon fill="midnightblue" stroke="midnightblue" points="502.416,-141.86 491.961,-143.574 501.203,-148.754 502.416,-141.86"/>
</g>
<!-- Node19 -->
<g id="node19" class="node"><title>Node19</title>
<polygon fill="white" stroke="#bfbfbf" points="751,-124.5 751,-143.5 803,-143.5 803,-124.5 751,-124.5"/>
<text text-anchor="middle" x="777" y="-131.5" font-family="Helvetica,sans-Serif" font-size="10.00">sstream</text>
</g>
<!-- Node18&#45;&gt;Node19 -->
<g id="edge33" class="edge"><title>Node18&#45;&gt;Node19</title>
<path fill="none" stroke="midnightblue" d="M753.201,-180.498C757.812,-171.682 763.223,-161.339 767.719,-152.743"/>
<polygon fill="midnightblue" stroke="midnightblue" points="770.94,-154.136 772.474,-143.652 764.738,-150.891 770.94,-154.136"/>
</g>
<!-- Node20 -->
<g id="node20" class="node"><title>Node20</title>
<polygon fill="white" stroke="#bfbfbf" points="821,-124.5 821,-143.5 895,-143.5 895,-124.5 821,-124.5"/>
<text text-anchor="middle" x="858" y="-131.5" font-family="Helvetica,sans-Serif" font-size="10.00">system_error</text>
</g>
<!-- Node18&#45;&gt;Node20 -->
<g id="edge34" class="edge"><title>Node18&#45;&gt;Node20</title>
<path fill="none" stroke="midnightblue" d="M777.504,-180.498C795.644,-170.245 817.44,-157.925 833.775,-148.693"/>
<polygon fill="midnightblue" stroke="midnightblue" points="835.708,-151.62 842.692,-143.652 832.264,-145.526 835.708,-151.62"/>
</g>
</g>
</svg>
