<?xml version="1.0" encoding="UTF-8" standalone="no"?>
<!DOCTYPE svg PUBLIC "-//W3C//DTD SVG 1.1//EN"
 "http://www.w3.org/Graphics/SVG/1.1/DTD/svg11.dtd">
<!-- Generated by graphviz version 2.36.0 (20140111.2315)
 -->
<!-- Title: include/shad/runtime/mappings/cpp_simple/cpp_simple_utility.h Pages: 1 -->
<svg width="485pt" height="230pt"
 viewBox="0.00 0.00 485.00 230.00" xmlns="http://www.w3.org/2000/svg" xmlns:xlink="http://www.w3.org/1999/xlink">
<g id="graph0" class="graph" transform="scale(1 1) rotate(0) translate(4 226)">
<title>include/shad/runtime/mappings/cpp_simple/cpp_simple_utility.h</title>
<polygon fill="white" stroke="none" points="-4,4 -4,-226 481,-226 481,4 -4,4"/>
<!-- Node1 -->
<g id="node1" class="node"><title>Node1</title>
<polygon fill="#bfbfbf" stroke="black" points="50,-180.5 50,-221.5 164,-221.5 164,-180.5 50,-180.5"/>
<text text-anchor="start" x="58" y="-209.5" font-family="Helvetica,sans-Serif" font-size="10.00">include/shad/runtime</text>
<text text-anchor="start" x="58" y="-198.5" font-family="Helvetica,sans-Serif" font-size="10.00">/mappings/cpp_simple</text>
<text text-anchor="middle" x="107" y="-187.5" font-family="Helvetica,sans-Serif" font-size="10.00">/cpp_simple_utility.h</text>
</g>
<!-- Node2 -->
<g id="node2" class="node"><title>Node2</title>
<polygon fill="white" stroke="#bfbfbf" points="0,-124.5 0,-143.5 52,-143.5 52,-124.5 0,-124.5"/>
<text text-anchor="middle" x="26" y="-131.5" font-family="Helvetica,sans-Serif" font-size="10.00">sstream</text>
</g>
<!-- Node1&#45;&gt;Node2 -->
<g id="edge1" class="edge"><title>Node1&#45;&gt;Node2</title>
<path fill="none" stroke="midnightblue" d="M82.6973,-180.498C70.5173,-170.724 55.9973,-159.072 44.7005,-150.007"/>
<polygon fill="midnightblue" stroke="midnightblue" points="46.7722,-147.181 36.7823,-143.652 42.3911,-152.641 46.7722,-147.181"/>
</g>
<!-- Node3 -->
<g id="node3" class="node"><title>Node3</title>
<polygon fill="white" stroke="#bfbfbf" points="70,-124.5 70,-143.5 144,-143.5 144,-124.5 70,-124.5"/>
<text text-anchor="middle" x="107" y="-131.5" font-family="Helvetica,sans-Serif" font-size="10.00">system_error</text>
</g>
<!-- Node1&#45;&gt;Node3 -->
<g id="edge2" class="edge"><title>Node1&#45;&gt;Node3</title>
<path fill="none" stroke="midnightblue" d="M107,-180.498C107,-172.065 107,-162.235 107,-153.874"/>
<polygon fill="midnightblue" stroke="midnightblue" points="110.5,-153.652 107,-143.652 103.5,-153.653 110.5,-153.652"/>
</g>
<!-- Node4 -->
<g id="node4" class="node"><title>Node4</title>
<g id="a_node4"><a xlink:href="locality_8h.html" target="_top" xlink:title="shad/runtime/locality.h">
<polygon fill="white" stroke="black" points="162.5,-124.5 162.5,-143.5 277.5,-143.5 277.5,-124.5 162.5,-124.5"/>
<text text-anchor="middle" x="220" y="-131.5" font-family="Helvetica,sans-Serif" font-size="10.00">shad/runtime/locality.h</text>
</a>
</g>
</g>
<!-- Node1&#45;&gt;Node4 -->
<g id="edge3" class="edge"><title>Node1&#45;&gt;Node4</title>
<path fill="none" stroke="midnightblue" d="M140.904,-180.498C158.729,-170.245 180.146,-157.925 196.196,-148.693"/>
<polygon fill="midnightblue" stroke="midnightblue" points="198.035,-151.673 204.958,-143.652 194.545,-145.605 198.035,-151.673"/>
</g>
<!-- Node5 -->
<g id="node5" class="node"><title>Node5</title>
<polygon fill="white" stroke="#bfbfbf" points="103,-62.5 103,-81.5 149,-81.5 149,-62.5 103,-62.5"/>
<text text-anchor="middle" x="126" y="-69.5" font-family="Helvetica,sans-Serif" font-size="10.00">cstdint</text>
</g>
<!-- Node4&#45;&gt;Node5 -->
<g id="edge4" class="edge"><title>Node4&#45;&gt;Node5</title>
<path fill="none" stroke="midnightblue" d="M206.532,-124.403C191.315,-114.691 166.313,-98.7319 148.199,-87.1697"/>
<polygon fill="midnightblue" stroke="midnightblue" points="149.755,-84.0108 139.443,-81.5806 145.989,-89.9112 149.755,-84.0108"/>
</g>
<!-- Node6 -->
<g id="node6" class="node"><title>Node6</title>
<polygon fill="white" stroke="#bfbfbf" points="125,-0.5 125,-19.5 229,-19.5 229,-0.5 125,-0.5"/>
<text text-anchor="middle" x="177" y="-7.5" font-family="Helvetica,sans-Serif" font-size="10.00">shad/config/config.h</text>
</g>
<!-- Node4&#45;&gt;Node6 -->
<g id="edge5" class="edge"><title>Node4&#45;&gt;Node6</title>
<path fill="none" stroke="midnightblue" d="M214.545,-124.343C209.177,-115.5 201.069,-101.229 196,-88 188.626,-68.7562 183.38,-45.6941 180.294,-29.8564"/>
<polygon fill="midnightblue" stroke="midnightblue" points="183.687,-28.957 178.429,-19.7588 176.804,-30.2282 183.687,-28.957"/>
</g>
<!-- Node7 -->
<g id="node7" class="node"><title>Node7</title>
<g id="a_node7"><a xlink:href="mapping__traits_8h.html" target="_top" xlink:title="shad/runtime/mapping\l_traits.h">
<polygon fill="white" stroke="black" points="205.5,-57 205.5,-87 318.5,-87 318.5,-57 205.5,-57"/>
<text text-anchor="start" x="213.5" y="-75" font-family="Helvetica,sans-Serif" font-size="10.00">shad/runtime/mapping</text>
<text text-anchor="middle" x="262" y="-64" font-family="Helvetica,sans-Serif" font-size="10.00">_traits.h</text>
</a>
</g>
</g>
<!-- Node4&#45;&gt;Node7 -->
<g id="edge6" class="edge"><title>Node4&#45;&gt;Node7</title>
<path fill="none" stroke="midnightblue" d="M226.018,-124.403C231.281,-116.885 239.163,-105.624 246.21,-95.5565"/>
<polygon fill="midnightblue" stroke="midnightblue" points="249.234,-97.3403 252.101,-87.1408 243.499,-93.326 249.234,-97.3403"/>
</g>
<!-- Node9 -->
<g id="node9" class="node"><title>Node9</title>
<g id="a_node9"><a xlink:href="available__traits__mappings_8h.html" target="_top" xlink:title="shad/runtime/mappings\l/available_traits_mappings.h">
<polygon fill="white" stroke="black" points="337,-57 337,-87 477,-87 477,-57 337,-57"/>
<text text-anchor="start" x="345" y="-75" font-family="Helvetica,sans-Serif" font-size="10.00">shad/runtime/mappings</text>
<text text-anchor="middle" x="407" y="-64" font-family="Helvetica,sans-Serif" font-size="10.00">/available_traits_mappings.h</text>
</a>
</g>
</g>
<!-- Node4&#45;&gt;Node9 -->
<g id="edge9" class="edge"><title>Node4&#45;&gt;Node9</title>
<path fill="none" stroke="midnightblue" d="M246.793,-124.403C274.578,-115.488 318.764,-101.311 353.7,-90.1014"/>
<polygon fill="midnightblue" stroke="midnightblue" points="354.835,-93.4132 363.288,-87.0253 352.697,-86.7479 354.835,-93.4132"/>
</g>
<!-- Node7&#45;&gt;Node6 -->
<g id="edge8" class="edge"><title>Node7&#45;&gt;Node6</title>
<path fill="none" stroke="midnightblue" d="M241.856,-56.7808C228.405,-47.2862 210.778,-34.8434 197.296,-25.3267"/>
<polygon fill="midnightblue" stroke="midnightblue" points="199.309,-22.4632 189.121,-19.5557 195.272,-28.182 199.309,-22.4632"/>
</g>
<!-- Node8 -->
<g id="node8" class="node"><title>Node8</title>
<polygon fill="white" stroke="#bfbfbf" points="247.5,-0.5 247.5,-19.5 288.5,-19.5 288.5,-0.5 247.5,-0.5"/>
<text text-anchor="middle" x="268" y="-7.5" font-family="Helvetica,sans-Serif" font-size="10.00">string</text>
</g>
<!-- Node7&#45;&gt;Node8 -->
<g id="edge7" class="edge"><title>Node7&#45;&gt;Node8</title>
<path fill="none" stroke="midnightblue" d="M263.422,-56.7808C264.231,-48.6913 265.254,-38.4617 266.127,-29.725"/>
<polygon fill="midnightblue" stroke="midnightblue" points="269.614,-30.0292 267.127,-19.7305 262.649,-29.3326 269.614,-30.0292"/>
</g>
</g>
</svg>
