<?xml version="1.0" encoding="UTF-8" standalone="no"?>
<!DOCTYPE svg PUBLIC "-//W3C//DTD SVG 1.1//EN"
 "http://www.w3.org/Graphics/SVG/1.1/DTD/svg11.dtd">
<!-- Generated by graphviz version 2.36.0 (20140111.2315)
 -->
<!-- Title: include/shad/runtime/mappings/cpp_simple/cpp_simple_utility.h Pages: 1 -->
<svg width="291pt" height="140pt"
 viewBox="0.00 0.00 291.00 140.00" xmlns="http://www.w3.org/2000/svg" xmlns:xlink="http://www.w3.org/1999/xlink">
<g id="graph0" class="graph" transform="scale(1 1) rotate(0) translate(4 136)">
<title>include/shad/runtime/mappings/cpp_simple/cpp_simple_utility.h</title>
<polygon fill="white" stroke="none" points="-4,4 -4,-136 287,-136 287,4 -4,4"/>
<!-- Node1 -->
<g id="node1" class="node"><title>Node1</title>
<polygon fill="#bfbfbf" stroke="black" points="85,-90.5 85,-131.5 199,-131.5 199,-90.5 85,-90.5"/>
<text text-anchor="start" x="93" y="-119.5" font-family="Helvetica,sans-Serif" font-size="10.00">include/shad/runtime</text>
<text text-anchor="start" x="93" y="-108.5" font-family="Helvetica,sans-Serif" font-size="10.00">/mappings/cpp_simple</text>
<text text-anchor="middle" x="142" y="-97.5" font-family="Helvetica,sans-Serif" font-size="10.00">/cpp_simple_utility.h</text>
</g>
<!-- Node2 -->
<g id="node2" class="node"><title>Node2</title>
<g id="a_node2"><a xlink:href="cpp__simple__asynchronous__interface_8h.html" target="_top" xlink:title="include/shad/runtime\l/mappings/cpp_simple\l/cpp_simple_asynchronous\l_interface.h">
<polygon fill="white" stroke="black" points="-0.5,-1 -0.5,-53 134.5,-53 134.5,-1 -0.5,-1"/>
<text text-anchor="start" x="7.5" y="-41" font-family="Helvetica,sans-Serif" font-size="10.00">include/shad/runtime</text>
<text text-anchor="start" x="7.5" y="-30" font-family="Helvetica,sans-Serif" font-size="10.00">/mappings/cpp_simple</text>
<text text-anchor="start" x="7.5" y="-19" font-family="Helvetica,sans-Serif" font-size="10.00">/cpp_simple_asynchronous</text>
<text text-anchor="middle" x="67" y="-8" font-family="Helvetica,sans-Serif" font-size="10.00">_interface.h</text>
</a>
</g>
</g>
<!-- Node1&#45;&gt;Node2 -->
<g id="edge1" class="edge"><title>Node1&#45;&gt;Node2</title>
<path fill="none" stroke="midnightblue" d="M116.861,-82.5147C108.215,-73.0614 98.5813,-62.5289 90.1049,-53.2613"/>
<polygon fill="midnightblue" stroke="midnightblue" points="114.513,-85.1332 123.845,-90.1501 119.678,-80.4089 114.513,-85.1332"/>
</g>
<!-- Node3 -->
<g id="node3" class="node"><title>Node3</title>
<g id="a_node3"><a xlink:href="cpp__simple__synchronous__interface_8h.html" target="_top" xlink:title="include/shad/runtime\l/mappings/cpp_simple\l/cpp_simple_synchronous\l_interface.h">
<polygon fill="white" stroke="black" points="153,-1 153,-53 283,-53 283,-1 153,-1"/>
<text text-anchor="start" x="161" y="-41" font-family="Helvetica,sans-Serif" font-size="10.00">include/shad/runtime</text>
<text text-anchor="start" x="161" y="-30" font-family="Helvetica,sans-Serif" font-size="10.00">/mappings/cpp_simple</text>
<text text-anchor="start" x="161" y="-19" font-family="Helvetica,sans-Serif" font-size="10.00">/cpp_simple_synchronous</text>
<text text-anchor="middle" x="218" y="-8" font-family="Helvetica,sans-Serif" font-size="10.00">_interface.h</text>
</a>
</g>
</g>
<!-- Node1&#45;&gt;Node3 -->
<g id="edge2" class="edge"><title>Node1&#45;&gt;Node3</title>
<path fill="none" stroke="midnightblue" d="M167.212,-82.7979C176.04,-73.2722 185.912,-62.6216 194.587,-53.2613"/>
<polygon fill="midnightblue" stroke="midnightblue" points="164.628,-80.4366 160.397,-90.1501 169.762,-85.1949 164.628,-80.4366"/>
</g>
</g>
</svg>
