<?xml version="1.0" encoding="UTF-8" standalone="no"?>
<!DOCTYPE svg PUBLIC "-//W3C//DTD SVG 1.1//EN"
 "http://www.w3.org/Graphics/SVG/1.1/DTD/svg11.dtd">
<!-- Generated by graphviz version 2.36.0 (20140111.2315)
 -->
<!-- Title: include/shad/runtime/mappings/cpp_simple/cpp_simple_synchronous_interface.h Pages: 1 -->
<svg width="665pt" height="320pt"
 viewBox="0.00 0.00 665.48 320.00" xmlns="http://www.w3.org/2000/svg" xmlns:xlink="http://www.w3.org/1999/xlink">
<g id="graph0" class="graph" transform="scale(1 1) rotate(0) translate(4 316)">
<title>include/shad/runtime/mappings/cpp_simple/cpp_simple_synchronous_interface.h</title>
<polygon fill="white" stroke="none" points="-4,4 -4,-316 661.484,-316 661.484,4 -4,4"/>
<!-- Node1 -->
<g id="node1" class="node"><title>Node1</title>
<polygon fill="#bfbfbf" stroke="black" points="225.484,-259 225.484,-311 355.484,-311 355.484,-259 225.484,-259"/>
<text text-anchor="start" x="233.484" y="-299" font-family="Helvetica,sans-Serif" font-size="10.00">include/shad/runtime</text>
<text text-anchor="start" x="233.484" y="-288" font-family="Helvetica,sans-Serif" font-size="10.00">/mappings/cpp_simple</text>
<text text-anchor="start" x="233.484" y="-277" font-family="Helvetica,sans-Serif" font-size="10.00">/cpp_simple_synchronous</text>
<text text-anchor="middle" x="290.484" y="-266" font-family="Helvetica,sans-Serif" font-size="10.00">_interface.h</text>
</g>
<!-- Node2 -->
<g id="node2" class="node"><title>Node2</title>
<polygon fill="white" stroke="#bfbfbf" points="204.484,-124.5 204.484,-143.5 256.484,-143.5 256.484,-124.5 204.484,-124.5"/>
<text text-anchor="middle" x="230.484" y="-131.5" font-family="Helvetica,sans-Serif" font-size="10.00">memory</text>
</g>
<!-- Node1&#45;&gt;Node2 -->
<g id="edge1" class="edge"><title>Node1&#45;&gt;Node2</title>
<path fill="none" stroke="midnightblue" d="M278.627,-258.839C273.478,-247.641 267.493,-234.243 262.484,-222 252.896,-198.563 243.006,-171.071 236.807,-153.362"/>
<polygon fill="midnightblue" stroke="midnightblue" points="240.047,-152.021 233.46,-143.723 233.434,-154.318 240.047,-152.021"/>
</g>
<!-- Node3 -->
<g id="node3" class="node"><title>Node3</title>
<polygon fill="white" stroke="#bfbfbf" points="175.484,-191.5 175.484,-210.5 215.484,-210.5 215.484,-191.5 175.484,-191.5"/>
<text text-anchor="middle" x="195.484" y="-198.5" font-family="Helvetica,sans-Serif" font-size="10.00">utility</text>
</g>
<!-- Node1&#45;&gt;Node3 -->
<g id="edge2" class="edge"><title>Node1&#45;&gt;Node3</title>
<path fill="none" stroke="midnightblue" d="M261.465,-258.952C245.74,-245.378 226.813,-229.042 213.271,-217.353"/>
<polygon fill="midnightblue" stroke="midnightblue" points="215.469,-214.626 205.612,-210.741 210.895,-219.925 215.469,-214.626"/>
</g>
<!-- Node4 -->
<g id="node4" class="node"><title>Node4</title>
<g id="a_node4"><a xlink:href="locality_8h.html" target="_top" xlink:title="shad/runtime/locality.h">
<polygon fill="white" stroke="black" points="379.984,-124.5 379.984,-143.5 494.984,-143.5 494.984,-124.5 379.984,-124.5"/>
<text text-anchor="middle" x="437.484" y="-131.5" font-family="Helvetica,sans-Serif" font-size="10.00">shad/runtime/locality.h</text>
</a>
</g>
</g>
<!-- Node1&#45;&gt;Node4 -->
<g id="edge3" class="edge"><title>Node1&#45;&gt;Node4</title>
<path fill="none" stroke="midnightblue" d="M355.588,-262.329C375.924,-252.767 396.842,-239.602 411.484,-222 427.757,-202.437 433.845,-172.956 436.123,-153.842"/>
<polygon fill="midnightblue" stroke="midnightblue" points="439.625,-153.987 437.089,-143.7 432.657,-153.323 439.625,-153.987"/>
</g>
<!-- Node10 -->
<g id="node10" class="node"><title>Node10</title>
<g id="a_node10"><a xlink:href="cpp__simple__traits__mapping_8h.html" target="_top" xlink:title="shad/runtime/mappings\l/cpp_simple/cpp_simple\l_traits_mapping.h">
<polygon fill="white" stroke="black" points="35.4843,-180.5 35.4843,-221.5 157.484,-221.5 157.484,-180.5 35.4843,-180.5"/>
<text text-anchor="start" x="43.4843" y="-209.5" font-family="Helvetica,sans-Serif" font-size="10.00">shad/runtime/mappings</text>
<text text-anchor="start" x="43.4843" y="-198.5" font-family="Helvetica,sans-Serif" font-size="10.00">/cpp_simple/cpp_simple</text>
<text text-anchor="middle" x="96.4843" y="-187.5" font-family="Helvetica,sans-Serif" font-size="10.00">_traits_mapping.h</text>
</a>
</g>
</g>
<!-- Node1&#45;&gt;Node10 -->
<g id="edge10" class="edge"><title>Node1&#45;&gt;Node10</title>
<path fill="none" stroke="midnightblue" d="M231.224,-258.952C206.028,-248.302 176.808,-235.951 152.032,-225.479"/>
<polygon fill="midnightblue" stroke="midnightblue" points="153.345,-222.234 142.771,-221.565 150.619,-228.682 153.345,-222.234"/>
</g>
<!-- Node13 -->
<g id="node13" class="node"><title>Node13</title>
<g id="a_node13"><a xlink:href="cpp__simple__utility_8h.html" target="_top" xlink:title="shad/runtime/mappings\l/cpp_simple/cpp_simple\l_utility.h">
<polygon fill="white" stroke="black" points="475.484,-180.5 475.484,-221.5 597.484,-221.5 597.484,-180.5 475.484,-180.5"/>
<text text-anchor="start" x="483.484" y="-209.5" font-family="Helvetica,sans-Serif" font-size="10.00">shad/runtime/mappings</text>
<text text-anchor="start" x="483.484" y="-198.5" font-family="Helvetica,sans-Serif" font-size="10.00">/cpp_simple/cpp_simple</text>
<text text-anchor="middle" x="536.484" y="-187.5" font-family="Helvetica,sans-Serif" font-size="10.00">_utility.h</text>
</a>
</g>
</g>
<!-- Node1&#45;&gt;Node13 -->
<g id="edge17" class="edge"><title>Node1&#45;&gt;Node13</title>
<path fill="none" stroke="midnightblue" d="M355.762,-262.241C390.371,-250.704 432.865,-236.54 467.95,-224.845"/>
<polygon fill="midnightblue" stroke="midnightblue" points="469.257,-228.099 477.637,-221.616 467.043,-221.458 469.257,-228.099"/>
</g>
<!-- Node16 -->
<g id="node16" class="node"><title>Node16</title>
<g id="a_node16"><a xlink:href="synchronous__interface_8h.html" target="_top" xlink:title="shad/runtime/synchronous\l_interface.h">
<polygon fill="white" stroke="black" points="271.984,-186 271.984,-216 402.984,-216 402.984,-186 271.984,-186"/>
<text text-anchor="start" x="279.984" y="-204" font-family="Helvetica,sans-Serif" font-size="10.00">shad/runtime/synchronous</text>
<text text-anchor="middle" x="337.484" y="-193" font-family="Helvetica,sans-Serif" font-size="10.00">_interface.h</text>
</a>
</g>
</g>
<!-- Node1&#45;&gt;Node16 -->
<g id="edge21" class="edge"><title>Node1&#45;&gt;Node16</title>
<path fill="none" stroke="midnightblue" d="M304.841,-258.952C310.959,-248.278 318.057,-235.895 324.068,-225.408"/>
<polygon fill="midnightblue" stroke="midnightblue" points="327.287,-226.829 329.224,-216.412 321.214,-223.348 327.287,-226.829"/>
</g>
<!-- Node5 -->
<g id="node5" class="node"><title>Node5</title>
<polygon fill="white" stroke="#bfbfbf" points="233.484,-62.5 233.484,-81.5 279.484,-81.5 279.484,-62.5 233.484,-62.5"/>
<text text-anchor="middle" x="256.484" y="-69.5" font-family="Helvetica,sans-Serif" font-size="10.00">cstdint</text>
</g>
<!-- Node4&#45;&gt;Node5 -->
<g id="edge4" class="edge"><title>Node4&#45;&gt;Node5</title>
<path fill="none" stroke="midnightblue" d="M404.176,-124.43C373.67,-116.233 327.471,-102.934 288.484,-88 286.636,-87.2922 284.746,-86.5246 282.854,-85.7237"/>
<polygon fill="midnightblue" stroke="midnightblue" points="284.115,-82.4536 273.558,-81.5618 281.255,-88.8425 284.115,-82.4536"/>
</g>
<!-- Node6 -->
<g id="node6" class="node"><title>Node6</title>
<polygon fill="white" stroke="#bfbfbf" points="238.484,-0.5 238.484,-19.5 342.484,-19.5 342.484,-0.5 238.484,-0.5"/>
<text text-anchor="middle" x="290.484" y="-7.5" font-family="Helvetica,sans-Serif" font-size="10.00">shad/config/config.h</text>
</g>
<!-- Node4&#45;&gt;Node6 -->
<g id="edge5" class="edge"><title>Node4&#45;&gt;Node6</title>
<path fill="none" stroke="midnightblue" d="M442.036,-124.36C449.454,-108.952 461.858,-76.4351 446.484,-56 434.895,-40.5954 391.158,-28.8059 352.933,-21.166"/>
<polygon fill="midnightblue" stroke="midnightblue" points="353.327,-17.6775 342.845,-19.2177 352,-24.5505 353.327,-17.6775"/>
</g>
<!-- Node7 -->
<g id="node7" class="node"><title>Node7</title>
<g id="a_node7"><a xlink:href="mapping__traits_8h.html" target="_top" xlink:title="shad/runtime/mapping\l_traits.h">
<polygon fill="white" stroke="black" points="11.9843,-57 11.9843,-87 124.984,-87 124.984,-57 11.9843,-57"/>
<text text-anchor="start" x="19.9843" y="-75" font-family="Helvetica,sans-Serif" font-size="10.00">shad/runtime/mapping</text>
<text text-anchor="middle" x="68.4843" y="-64" font-family="Helvetica,sans-Serif" font-size="10.00">_traits.h</text>
</a>
</g>
</g>
<!-- Node4&#45;&gt;Node7 -->
<g id="edge6" class="edge"><title>Node4&#45;&gt;Node7</title>
<path fill="none" stroke="midnightblue" d="M385.007,-124.467C319.39,-113.798 206.985,-95.5205 135.288,-83.8624"/>
<polygon fill="midnightblue" stroke="midnightblue" points="135.448,-80.3425 125.016,-82.1921 134.324,-87.2517 135.448,-80.3425"/>
</g>
<!-- Node9 -->
<g id="node9" class="node"><title>Node9</title>
<g id="a_node9"><a xlink:href="available__traits__mappings_8h.html" target="_top" xlink:title="shad/runtime/mappings\l/available_traits_mappings.h">
<polygon fill="white" stroke="black" points="297.484,-57 297.484,-87 437.484,-87 437.484,-57 297.484,-57"/>
<text text-anchor="start" x="305.484" y="-75" font-family="Helvetica,sans-Serif" font-size="10.00">shad/runtime/mappings</text>
<text text-anchor="middle" x="367.484" y="-64" font-family="Helvetica,sans-Serif" font-size="10.00">/available_traits_mappings.h</text>
</a>
</g>
</g>
<!-- Node4&#45;&gt;Node9 -->
<g id="edge9" class="edge"><title>Node4&#45;&gt;Node9</title>
<path fill="none" stroke="midnightblue" d="M427.455,-124.403C418.152,-116.429 403.937,-104.245 391.681,-93.7403"/>
<polygon fill="midnightblue" stroke="midnightblue" points="393.852,-90.9914 383.982,-87.1408 389.297,-96.3062 393.852,-90.9914"/>
</g>
<!-- Node7&#45;&gt;Node6 -->
<g id="edge8" class="edge"><title>Node7&#45;&gt;Node6</title>
<path fill="none" stroke="midnightblue" d="M120.533,-56.9327C159.777,-46.3264 212.869,-31.9772 249.208,-22.1559"/>
<polygon fill="midnightblue" stroke="midnightblue" points="250.247,-25.5006 258.987,-19.5127 248.42,-18.7431 250.247,-25.5006"/>
</g>
<!-- Node8 -->
<g id="node8" class="node"><title>Node8</title>
<polygon fill="white" stroke="#bfbfbf" points="3.98428,-0.5 3.98428,-19.5 44.9843,-19.5 44.9843,-0.5 3.98428,-0.5"/>
<text text-anchor="middle" x="24.4843" y="-7.5" font-family="Helvetica,sans-Serif" font-size="10.00">string</text>
</g>
<!-- Node7&#45;&gt;Node8 -->
<g id="edge7" class="edge"><title>Node7&#45;&gt;Node8</title>
<path fill="none" stroke="midnightblue" d="M58.0569,-56.7808C51.7291,-48.152 43.6156,-37.0882 36.95,-27.9987"/>
<polygon fill="midnightblue" stroke="midnightblue" points="39.6228,-25.7248 30.8867,-19.7305 33.9779,-29.8644 39.6228,-25.7248"/>
</g>
<!-- Node10&#45;&gt;Node2 -->
<g id="edge13" class="edge"><title>Node10&#45;&gt;Node2</title>
<path fill="none" stroke="midnightblue" d="M136.689,-180.498C158.32,-170.005 184.413,-157.348 203.58,-148.051"/>
<polygon fill="midnightblue" stroke="midnightblue" points="205.177,-151.166 212.647,-143.652 202.122,-144.868 205.177,-151.166"/>
</g>
<!-- Node10&#45;&gt;Node5 -->
<g id="edge11" class="edge"><title>Node10&#45;&gt;Node5</title>
<path fill="none" stroke="midnightblue" d="M121.134,-180.435C153.228,-154.96 208.633,-110.982 237.599,-87.9898"/>
<polygon fill="midnightblue" stroke="midnightblue" points="240.029,-90.5304 245.685,-81.5719 235.677,-85.0476 240.029,-90.5304"/>
</g>
<!-- Node10&#45;&gt;Node7 -->
<g id="edge16" class="edge"><title>Node10&#45;&gt;Node7</title>
<path fill="none" stroke="midnightblue" d="M67.0968,-180.317C55.5855,-170.844 43.6715,-158.403 37.4843,-144 30.4502,-127.626 39.002,-109.181 48.8902,-95.1962"/>
<polygon fill="midnightblue" stroke="midnightblue" points="51.7755,-97.1854 55.0923,-87.1231 46.2245,-92.9209 51.7755,-97.1854"/>
</g>
<!-- Node10&#45;&gt;Node8 -->
<g id="edge15" class="edge"><title>Node10&#45;&gt;Node8</title>
<path fill="none" stroke="midnightblue" d="M69.3615,-180.493C56.7947,-170.546 42.2892,-157.674 31.4843,-144 14.1069,-122.009 9.11713,-115.232 2.48428,-88 -0.881395,-74.1818 -0.721492,-69.8562 2.48428,-56 4.71397,-46.3627 9.30576,-36.4052 13.7203,-28.3149"/>
<polygon fill="midnightblue" stroke="midnightblue" points="16.8349,-29.9216 18.8465,-19.5194 10.7871,-26.3968 16.8349,-29.9216"/>
</g>
<!-- Node11 -->
<g id="node11" class="node"><title>Node11</title>
<polygon fill="white" stroke="#bfbfbf" points="46.4843,-124.5 46.4843,-143.5 86.4843,-143.5 86.4843,-124.5 46.4843,-124.5"/>
<text text-anchor="middle" x="66.4843" y="-131.5" font-family="Helvetica,sans-Serif" font-size="10.00">limits</text>
</g>
<!-- Node10&#45;&gt;Node11 -->
<g id="edge12" class="edge"><title>Node10&#45;&gt;Node11</title>
<path fill="none" stroke="midnightblue" d="M87.4833,-180.498C83.4144,-171.682 78.6405,-161.339 74.6735,-152.743"/>
<polygon fill="midnightblue" stroke="midnightblue" points="77.8462,-151.265 70.4777,-143.652 71.4905,-154.199 77.8462,-151.265"/>
</g>
<!-- Node12 -->
<g id="node12" class="node"><title>Node12</title>
<polygon fill="white" stroke="#bfbfbf" points="104.484,-124.5 104.484,-143.5 148.484,-143.5 148.484,-124.5 104.484,-124.5"/>
<text text-anchor="middle" x="126.484" y="-131.5" font-family="Helvetica,sans-Serif" font-size="10.00">mutex</text>
</g>
<!-- Node10&#45;&gt;Node12 -->
<g id="edge14" class="edge"><title>Node10&#45;&gt;Node12</title>
<path fill="none" stroke="midnightblue" d="M105.485,-180.498C109.554,-171.682 114.328,-161.339 118.295,-152.743"/>
<polygon fill="midnightblue" stroke="midnightblue" points="121.478,-154.199 122.491,-143.652 115.122,-151.265 121.478,-154.199"/>
</g>
<!-- Node13&#45;&gt;Node4 -->
<g id="edge20" class="edge"><title>Node13&#45;&gt;Node4</title>
<path fill="none" stroke="midnightblue" d="M506.781,-180.498C491.457,-170.436 473.101,-158.385 459.133,-149.214"/>
<polygon fill="midnightblue" stroke="midnightblue" points="460.943,-146.215 450.663,-143.652 457.101,-152.067 460.943,-146.215"/>
</g>
<!-- Node14 -->
<g id="node14" class="node"><title>Node14</title>
<polygon fill="white" stroke="#bfbfbf" points="605.484,-124.5 605.484,-143.5 657.484,-143.5 657.484,-124.5 605.484,-124.5"/>
<text text-anchor="middle" x="631.484" y="-131.5" font-family="Helvetica,sans-Serif" font-size="10.00">sstream</text>
</g>
<!-- Node13&#45;&gt;Node14 -->
<g id="edge18" class="edge"><title>Node13&#45;&gt;Node14</title>
<path fill="none" stroke="midnightblue" d="M564.987,-180.498C579.553,-170.532 596.971,-158.614 610.326,-149.476"/>
<polygon fill="midnightblue" stroke="midnightblue" points="612.562,-152.188 618.838,-143.652 608.609,-146.411 612.562,-152.188"/>
</g>
<!-- Node15 -->
<g id="node15" class="node"><title>Node15</title>
<polygon fill="white" stroke="#bfbfbf" points="513.484,-124.5 513.484,-143.5 587.484,-143.5 587.484,-124.5 513.484,-124.5"/>
<text text-anchor="middle" x="550.484" y="-131.5" font-family="Helvetica,sans-Serif" font-size="10.00">system_error</text>
</g>
<!-- Node13&#45;&gt;Node15 -->
<g id="edge19" class="edge"><title>Node13&#45;&gt;Node15</title>
<path fill="none" stroke="midnightblue" d="M540.685,-180.498C542.522,-171.969 544.666,-162.011 546.48,-153.59"/>
<polygon fill="midnightblue" stroke="midnightblue" points="549.937,-154.165 548.621,-143.652 543.093,-152.691 549.937,-154.165"/>
</g>
<!-- Node16&#45;&gt;Node2 -->
<g id="edge24" class="edge"><title>Node16&#45;&gt;Node2</title>
<path fill="none" stroke="midnightblue" d="M314.267,-185.896C296.157,-174.895 271.145,-159.7 253.171,-148.782"/>
<polygon fill="midnightblue" stroke="midnightblue" points="254.852,-145.708 244.488,-143.507 251.218,-151.69 254.852,-145.708"/>
</g>
<!-- Node16&#45;&gt;Node4 -->
<g id="edge25" class="edge"><title>Node16&#45;&gt;Node4</title>
<path fill="none" stroke="midnightblue" d="M359.183,-185.896C375.953,-174.996 399.056,-159.979 415.817,-149.084"/>
<polygon fill="midnightblue" stroke="midnightblue" points="417.92,-151.891 424.397,-143.507 414.105,-146.022 417.92,-151.891"/>
</g>
<!-- Node16&#45;&gt;Node5 -->
<g id="edge23" class="edge"><title>Node16&#45;&gt;Node5</title>
<path fill="none" stroke="midnightblue" d="M328.506,-185.924C313.532,-162.444 283.51,-115.373 267.36,-90.052"/>
<polygon fill="midnightblue" stroke="midnightblue" points="270.238,-88.0559 261.91,-81.5068 264.336,-91.8201 270.238,-88.0559"/>
</g>
<!-- Node17 -->
<g id="node17" class="node"><title>Node17</title>
<polygon fill="white" stroke="#bfbfbf" points="312.984,-124.5 312.984,-143.5 361.984,-143.5 361.984,-124.5 312.984,-124.5"/>
<text text-anchor="middle" x="337.484" y="-131.5" font-family="Helvetica,sans-Serif" font-size="10.00">cstddef</text>
</g>
<!-- Node16&#45;&gt;Node17 -->
<g id="edge22" class="edge"><title>Node16&#45;&gt;Node17</title>
<path fill="none" stroke="midnightblue" d="M337.484,-185.896C337.484,-176.564 337.484,-164.214 337.484,-154.017"/>
<polygon fill="midnightblue" stroke="midnightblue" points="340.984,-153.695 337.484,-143.695 333.984,-153.695 340.984,-153.695"/>
</g>
</g>
</svg>
