<?xml version="1.0" encoding="UTF-8" standalone="no"?>
<!DOCTYPE svg PUBLIC "-//W3C//DTD SVG 1.1//EN"
 "http://www.w3.org/Graphics/SVG/1.1/DTD/svg11.dtd">
<!-- Generated by graphviz version 2.36.0 (20140111.2315)
 -->
<!-- Title: include/shad/runtime/mappings/cpp_simple/cpp_simple_asynchronous_interface.h Pages: 1 -->
<svg width="903pt" height="320pt"
 viewBox="0.00 0.00 903.00 320.00" xmlns="http://www.w3.org/2000/svg" xmlns:xlink="http://www.w3.org/1999/xlink">
<g id="graph0" class="graph" transform="scale(1 1) rotate(0) translate(4 316)">
<title>include/shad/runtime/mappings/cpp_simple/cpp_simple_asynchronous_interface.h</title>
<polygon fill="white" stroke="none" points="-4,4 -4,-316 899,-316 899,4 -4,4"/>
<!-- Node1 -->
<g id="node1" class="node"><title>Node1</title>
<polygon fill="#bfbfbf" stroke="black" points="331.5,-259 331.5,-311 466.5,-311 466.5,-259 331.5,-259"/>
<text text-anchor="start" x="339.5" y="-299" font-family="Helvetica,sans-Serif" font-size="10.00">include/shad/runtime</text>
<text text-anchor="start" x="339.5" y="-288" font-family="Helvetica,sans-Serif" font-size="10.00">/mappings/cpp_simple</text>
<text text-anchor="start" x="339.5" y="-277" font-family="Helvetica,sans-Serif" font-size="10.00">/cpp_simple_asynchronous</text>
<text text-anchor="middle" x="399" y="-266" font-family="Helvetica,sans-Serif" font-size="10.00">_interface.h</text>
</g>
<!-- Node2 -->
<g id="node2" class="node"><title>Node2</title>
<polygon fill="white" stroke="#bfbfbf" points="169.5,-124.5 169.5,-143.5 218.5,-143.5 218.5,-124.5 169.5,-124.5"/>
<text text-anchor="middle" x="194" y="-131.5" font-family="Helvetica,sans-Serif" font-size="10.00">cstddef</text>
</g>
<!-- Node1&#45;&gt;Node2 -->
<g id="edge1" class="edge"><title>Node1&#45;&gt;Node2</title>
<path fill="none" stroke="midnightblue" d="M331.348,-280.277C288.574,-274.164 235.744,-258.977 205,-222 189.134,-202.917 189.013,-172.862 191.019,-153.545"/>
<polygon fill="midnightblue" stroke="midnightblue" points="194.496,-153.95 192.343,-143.577 187.557,-153.029 194.496,-153.95"/>
</g>
<!-- Node3 -->
<g id="node3" class="node"><title>Node3</title>
<polygon fill="white" stroke="#bfbfbf" points="327,-62.5 327,-81.5 373,-81.5 373,-62.5 327,-62.5"/>
<text text-anchor="middle" x="350" y="-69.5" font-family="Helvetica,sans-Serif" font-size="10.00">cstdint</text>
</g>
<!-- Node1&#45;&gt;Node3 -->
<g id="edge2" class="edge"><title>Node1&#45;&gt;Node3</title>
<path fill="none" stroke="midnightblue" d="M331.313,-280.088C285.208,-273.989 225.736,-258.894 187,-222 160.436,-196.7 166.084,-180.177 160,-144 147.852,-71.7673 245.392,-110.801 315,-88 317.419,-87.2077 319.902,-86.3144 322.375,-85.3685"/>
<polygon fill="midnightblue" stroke="midnightblue" points="323.77,-88.5795 331.707,-81.5614 321.126,-82.0981 323.77,-88.5795"/>
</g>
<!-- Node4 -->
<g id="node4" class="node"><title>Node4</title>
<polygon fill="white" stroke="#bfbfbf" points="275,-124.5 275,-143.5 327,-143.5 327,-124.5 275,-124.5"/>
<text text-anchor="middle" x="301" y="-131.5" font-family="Helvetica,sans-Serif" font-size="10.00">memory</text>
</g>
<!-- Node1&#45;&gt;Node4 -->
<g id="edge3" class="edge"><title>Node1&#45;&gt;Node4</title>
<path fill="none" stroke="midnightblue" d="M393.794,-258.978C388.226,-236.631 377.71,-203.837 360,-180 350.755,-167.557 337.166,-156.87 325.36,-149.036"/>
<polygon fill="midnightblue" stroke="midnightblue" points="327.104,-145.998 316.78,-143.62 323.368,-151.918 327.104,-145.998"/>
</g>
<!-- Node5 -->
<g id="node5" class="node"><title>Node5</title>
<polygon fill="white" stroke="#bfbfbf" points="822,-191.5 822,-210.5 862,-210.5 862,-191.5 822,-191.5"/>
<text text-anchor="middle" x="842" y="-198.5" font-family="Helvetica,sans-Serif" font-size="10.00">utility</text>
</g>
<!-- Node1&#45;&gt;Node5 -->
<g id="edge4" class="edge"><title>Node1&#45;&gt;Node5</title>
<path fill="none" stroke="midnightblue" d="M466.651,-283.162C550.671,-280.055 697.076,-267.792 813,-222 816.626,-220.568 820.245,-218.608 823.635,-216.473"/>
<polygon fill="midnightblue" stroke="midnightblue" points="825.75,-219.265 831.922,-210.653 821.727,-213.536 825.75,-219.265"/>
</g>
<!-- Node6 -->
<g id="node6" class="node"><title>Node6</title>
<g id="a_node6"><a xlink:href="asynchronous__interface_8h.html" target="_top" xlink:title="shad/runtime/asynchronous\l_interface.h">
<polygon fill="white" stroke="black" points="214.5,-186 214.5,-216 351.5,-216 351.5,-186 214.5,-186"/>
<text text-anchor="start" x="222.5" y="-204" font-family="Helvetica,sans-Serif" font-size="10.00">shad/runtime/asynchronous</text>
<text text-anchor="middle" x="283" y="-193" font-family="Helvetica,sans-Serif" font-size="10.00">_interface.h</text>
</a>
</g>
</g>
<!-- Node1&#45;&gt;Node6 -->
<g id="edge5" class="edge"><title>Node1&#45;&gt;Node6</title>
<path fill="none" stroke="midnightblue" d="M363.566,-258.952C346.813,-247.109 327.085,-233.163 311.343,-222.036"/>
<polygon fill="midnightblue" stroke="midnightblue" points="313.239,-219.089 303.053,-216.175 309.198,-224.806 313.239,-219.089"/>
</g>
<!-- Node7 -->
<g id="node7" class="node"><title>Node7</title>
<g id="a_node7"><a xlink:href="handle_8h.html" target="_top" xlink:title="shad/runtime/handle.h">
<polygon fill="white" stroke="black" points="-0.5,-124.5 -0.5,-143.5 112.5,-143.5 112.5,-124.5 -0.5,-124.5"/>
<text text-anchor="middle" x="56" y="-131.5" font-family="Helvetica,sans-Serif" font-size="10.00">shad/runtime/handle.h</text>
</a>
</g>
</g>
<!-- Node1&#45;&gt;Node7 -->
<g id="edge21" class="edge"><title>Node1&#45;&gt;Node7</title>
<path fill="none" stroke="midnightblue" d="M331.49,-280.803C273.444,-275.34 189.457,-260.743 127,-222 99.08,-204.681 77.1506,-172.461 65.4242,-152.465"/>
<polygon fill="midnightblue" stroke="midnightblue" points="68.3343,-150.5 60.3747,-143.507 62.2365,-153.937 68.3343,-150.5"/>
</g>
<!-- Node10 -->
<g id="node10" class="node"><title>Node10</title>
<g id="a_node10"><a xlink:href="mapping__traits_8h.html" target="_top" xlink:title="shad/runtime/mapping\l_traits.h">
<polygon fill="white" stroke="black" points="440.5,-57 440.5,-87 553.5,-87 553.5,-57 440.5,-57"/>
<text text-anchor="start" x="448.5" y="-75" font-family="Helvetica,sans-Serif" font-size="10.00">shad/runtime/mapping</text>
<text text-anchor="middle" x="497" y="-64" font-family="Helvetica,sans-Serif" font-size="10.00">_traits.h</text>
</a>
</g>
</g>
<!-- Node1&#45;&gt;Node10 -->
<g id="edge23" class="edge"><title>Node1&#45;&gt;Node10</title>
<path fill="none" stroke="midnightblue" d="M412.455,-258.775C427.077,-230.989 450.787,-184.823 469,-144 475.926,-128.475 482.943,-110.679 488.219,-96.7869"/>
<polygon fill="midnightblue" stroke="midnightblue" points="491.645,-97.6192 491.885,-87.027 485.092,-95.1579 491.645,-97.6192"/>
</g>
<!-- Node13 -->
<g id="node13" class="node"><title>Node13</title>
<g id="a_node13"><a xlink:href="locality_8h.html" target="_top" xlink:title="shad/runtime/locality.h">
<polygon fill="white" stroke="black" points="345.5,-124.5 345.5,-143.5 460.5,-143.5 460.5,-124.5 345.5,-124.5"/>
<text text-anchor="middle" x="403" y="-131.5" font-family="Helvetica,sans-Serif" font-size="10.00">shad/runtime/locality.h</text>
</a>
</g>
</g>
<!-- Node1&#45;&gt;Node13 -->
<g id="edge22" class="edge"><title>Node1&#45;&gt;Node13</title>
<path fill="none" stroke="midnightblue" d="M399.679,-258.724C400.475,-229.071 401.776,-180.585 402.491,-153.969"/>
<polygon fill="midnightblue" stroke="midnightblue" points="405.996,-153.812 402.766,-143.722 398.999,-153.624 405.996,-153.812"/>
</g>
<!-- Node14 -->
<g id="node14" class="node"><title>Node14</title>
<g id="a_node14"><a xlink:href="cpp__simple__traits__mapping_8h.html" target="_top" xlink:title="shad/runtime/mappings\l/cpp_simple/cpp_simple\l_traits_mapping.h">
<polygon fill="white" stroke="black" points="542,-180.5 542,-221.5 664,-221.5 664,-180.5 542,-180.5"/>
<text text-anchor="start" x="550" y="-209.5" font-family="Helvetica,sans-Serif" font-size="10.00">shad/runtime/mappings</text>
<text text-anchor="start" x="550" y="-198.5" font-family="Helvetica,sans-Serif" font-size="10.00">/cpp_simple/cpp_simple</text>
<text text-anchor="middle" x="603" y="-187.5" font-family="Helvetica,sans-Serif" font-size="10.00">_traits_mapping.h</text>
</a>
</g>
</g>
<!-- Node1&#45;&gt;Node14 -->
<g id="edge24" class="edge"><title>Node1&#45;&gt;Node14</title>
<path fill="none" stroke="midnightblue" d="M461.315,-258.952C487.926,-248.255 518.807,-235.842 544.934,-225.34"/>
<polygon fill="midnightblue" stroke="midnightblue" points="546.354,-228.542 554.327,-221.565 543.743,-222.047 546.354,-228.542"/>
</g>
<!-- Node17 -->
<g id="node17" class="node"><title>Node17</title>
<g id="a_node17"><a xlink:href="cpp__simple__utility_8h.html" target="_top" xlink:title="shad/runtime/mappings\l/cpp_simple/cpp_simple\l_utility.h">
<polygon fill="white" stroke="black" points="682,-180.5 682,-221.5 804,-221.5 804,-180.5 682,-180.5"/>
<text text-anchor="start" x="690" y="-209.5" font-family="Helvetica,sans-Serif" font-size="10.00">shad/runtime/mappings</text>
<text text-anchor="start" x="690" y="-198.5" font-family="Helvetica,sans-Serif" font-size="10.00">/cpp_simple/cpp_simple</text>
<text text-anchor="middle" x="743" y="-187.5" font-family="Helvetica,sans-Serif" font-size="10.00">_utility.h</text>
</a>
</g>
</g>
<!-- Node1&#45;&gt;Node17 -->
<g id="edge31" class="edge"><title>Node1&#45;&gt;Node17</title>
<path fill="none" stroke="midnightblue" d="M466.532,-269.818C519.863,-258.365 596.364,-241.38 672.241,-222.135"/>
<polygon fill="midnightblue" stroke="midnightblue" points="673.146,-225.516 681.971,-219.654 671.416,-218.733 673.146,-225.516"/>
</g>
<!-- Node6&#45;&gt;Node2 -->
<g id="edge6" class="edge"><title>Node6&#45;&gt;Node2</title>
<path fill="none" stroke="midnightblue" d="M263.688,-185.896C249.04,-175.197 228.961,-160.533 214.118,-149.693"/>
<polygon fill="midnightblue" stroke="midnightblue" points="215.788,-146.578 205.648,-143.507 211.659,-152.231 215.788,-146.578"/>
</g>
<!-- Node6&#45;&gt;Node3 -->
<g id="edge7" class="edge"><title>Node6&#45;&gt;Node3</title>
<path fill="none" stroke="midnightblue" d="M274.249,-185.965C265.535,-170.024 254.927,-143.678 266,-124 272.304,-112.797 300.295,-97.1105 322.255,-86.1014"/>
<polygon fill="midnightblue" stroke="midnightblue" points="324.086,-89.1016 331.518,-81.551 321,-82.8188 324.086,-89.1016"/>
</g>
<!-- Node6&#45;&gt;Node4 -->
<g id="edge8" class="edge"><title>Node6&#45;&gt;Node4</title>
<path fill="none" stroke="midnightblue" d="M286.906,-185.896C289.546,-176.363 293.057,-163.682 295.915,-153.362"/>
<polygon fill="midnightblue" stroke="midnightblue" points="299.296,-154.266 298.592,-143.695 292.55,-152.398 299.296,-154.266"/>
</g>
<!-- Node6&#45;&gt;Node7 -->
<g id="edge9" class="edge"><title>Node6&#45;&gt;Node7</title>
<path fill="none" stroke="midnightblue" d="M234.024,-185.976C192.627,-174.122 134.082,-157.358 95.5954,-146.338"/>
<polygon fill="midnightblue" stroke="midnightblue" points="96.3619,-142.917 85.7847,-143.529 94.4348,-149.646 96.3619,-142.917"/>
</g>
<!-- Node6&#45;&gt;Node13 -->
<g id="edge16" class="edge"><title>Node6&#45;&gt;Node13</title>
<path fill="none" stroke="midnightblue" d="M309.038,-185.896C329.628,-174.743 358.173,-159.281 378.384,-148.334"/>
<polygon fill="midnightblue" stroke="midnightblue" points="380.169,-151.347 387.295,-143.507 376.835,-145.192 380.169,-151.347"/>
</g>
<!-- Node8 -->
<g id="node8" class="node"><title>Node8</title>
<polygon fill="white" stroke="#bfbfbf" points="84,-62.5 84,-81.5 146,-81.5 146,-62.5 84,-62.5"/>
<text text-anchor="middle" x="115" y="-69.5" font-family="Helvetica,sans-Serif" font-size="10.00">type_traits</text>
</g>
<!-- Node7&#45;&gt;Node8 -->
<g id="edge10" class="edge"><title>Node7&#45;&gt;Node8</title>
<path fill="none" stroke="midnightblue" d="M64.4533,-124.403C73.5662,-115.136 88.2702,-100.183 99.4755,-88.7876"/>
<polygon fill="midnightblue" stroke="midnightblue" points="102.047,-91.1649 106.562,-81.5806 97.0554,-86.2569 102.047,-91.1649"/>
</g>
<!-- Node9 -->
<g id="node9" class="node"><title>Node9</title>
<polygon fill="white" stroke="#bfbfbf" points="351,-0.5 351,-19.5 455,-19.5 455,-0.5 351,-0.5"/>
<text text-anchor="middle" x="403" y="-7.5" font-family="Helvetica,sans-Serif" font-size="10.00">shad/config/config.h</text>
</g>
<!-- Node7&#45;&gt;Node9 -->
<g id="edge11" class="edge"><title>Node7&#45;&gt;Node9</title>
<path fill="none" stroke="midnightblue" d="M55.2837,-124.284C54.4856,-108.153 55.3463,-73.6811 75,-56 112.995,-21.8189 256.48,-13.4114 340.561,-11.4639"/>
<polygon fill="midnightblue" stroke="midnightblue" points="340.834,-14.9591 350.76,-11.2525 340.689,-7.9606 340.834,-14.9591"/>
</g>
<!-- Node7&#45;&gt;Node10 -->
<g id="edge12" class="edge"><title>Node7&#45;&gt;Node10</title>
<path fill="none" stroke="midnightblue" d="M112.75,-125.279C194.203,-114.197 343.951,-93.8229 430.493,-82.0485"/>
<polygon fill="midnightblue" stroke="midnightblue" points="431.031,-85.5077 440.468,-80.6915 430.087,-78.5716 431.031,-85.5077"/>
</g>
<!-- Node12 -->
<g id="node12" class="node"><title>Node12</title>
<g id="a_node12"><a xlink:href="available__traits__mappings_8h.html" target="_top" xlink:title="shad/runtime/mappings\l/available_traits_mappings.h">
<polygon fill="white" stroke="black" points="166,-57 166,-87 306,-87 306,-57 166,-57"/>
<text text-anchor="start" x="174" y="-75" font-family="Helvetica,sans-Serif" font-size="10.00">shad/runtime/mappings</text>
<text text-anchor="middle" x="236" y="-64" font-family="Helvetica,sans-Serif" font-size="10.00">/available_traits_mappings.h</text>
</a>
</g>
</g>
<!-- Node7&#45;&gt;Node12 -->
<g id="edge15" class="edge"><title>Node7&#45;&gt;Node12</title>
<path fill="none" stroke="midnightblue" d="M81.7896,-124.403C108.421,-115.526 150.704,-101.432 184.264,-90.2453"/>
<polygon fill="midnightblue" stroke="midnightblue" points="185.544,-93.5081 193.924,-87.0253 183.33,-86.8673 185.544,-93.5081"/>
</g>
<!-- Node10&#45;&gt;Node9 -->
<g id="edge14" class="edge"><title>Node10&#45;&gt;Node9</title>
<path fill="none" stroke="midnightblue" d="M474.723,-56.7808C459.707,-47.1958 439.983,-34.6062 425.02,-25.0555"/>
<polygon fill="midnightblue" stroke="midnightblue" points="426.716,-21.9859 416.404,-19.5557 422.95,-27.8863 426.716,-21.9859"/>
</g>
<!-- Node11 -->
<g id="node11" class="node"><title>Node11</title>
<polygon fill="white" stroke="#bfbfbf" points="485.5,-0.5 485.5,-19.5 526.5,-19.5 526.5,-0.5 485.5,-0.5"/>
<text text-anchor="middle" x="506" y="-7.5" font-family="Helvetica,sans-Serif" font-size="10.00">string</text>
</g>
<!-- Node10&#45;&gt;Node11 -->
<g id="edge13" class="edge"><title>Node10&#45;&gt;Node11</title>
<path fill="none" stroke="midnightblue" d="M499.133,-56.7808C500.346,-48.6913 501.881,-38.4617 503.191,-29.725"/>
<polygon fill="midnightblue" stroke="midnightblue" points="506.668,-30.1391 504.69,-19.7305 499.746,-29.1007 506.668,-30.1391"/>
</g>
<!-- Node13&#45;&gt;Node3 -->
<g id="edge17" class="edge"><title>Node13&#45;&gt;Node3</title>
<path fill="none" stroke="midnightblue" d="M395.406,-124.403C387.299,-115.225 374.265,-100.47 364.237,-89.1173"/>
<polygon fill="midnightblue" stroke="midnightblue" points="366.823,-86.7582 357.58,-81.5806 361.577,-91.3925 366.823,-86.7582"/>
</g>
<!-- Node13&#45;&gt;Node9 -->
<g id="edge18" class="edge"><title>Node13&#45;&gt;Node9</title>
<path fill="none" stroke="midnightblue" d="M403,-124.226C403,-104.53 403,-56.4371 403,-29.7004"/>
<polygon fill="midnightblue" stroke="midnightblue" points="406.5,-29.6944 403,-19.6944 399.5,-29.6945 406.5,-29.6944"/>
</g>
<!-- Node13&#45;&gt;Node10 -->
<g id="edge19" class="edge"><title>Node13&#45;&gt;Node10</title>
<path fill="none" stroke="midnightblue" d="M416.468,-124.403C429.437,-116.125 449.513,-103.311 466.376,-92.5474"/>
<polygon fill="midnightblue" stroke="midnightblue" points="468.3,-95.4714 474.846,-87.1408 464.534,-89.571 468.3,-95.4714"/>
</g>
<!-- Node13&#45;&gt;Node12 -->
<g id="edge20" class="edge"><title>Node13&#45;&gt;Node12</title>
<path fill="none" stroke="midnightblue" d="M379.073,-124.403C354.577,-115.603 315.808,-101.674 284.803,-90.534"/>
<polygon fill="midnightblue" stroke="midnightblue" points="285.632,-87.1127 275.037,-87.0253 283.265,-93.7004 285.632,-87.1127"/>
</g>
<!-- Node14&#45;&gt;Node3 -->
<g id="edge25" class="edge"><title>Node14&#45;&gt;Node3</title>
<path fill="none" stroke="midnightblue" d="M570.78,-180.386C543.972,-164.394 504.581,-141.647 469,-124 439.798,-109.517 405.493,-95.0767 381.238,-85.2784"/>
<polygon fill="midnightblue" stroke="midnightblue" points="382.409,-81.977 371.825,-81.5048 379.805,-88.4744 382.409,-81.977"/>
</g>
<!-- Node14&#45;&gt;Node4 -->
<g id="edge27" class="edge"><title>Node14&#45;&gt;Node4</title>
<path fill="none" stroke="midnightblue" d="M541.853,-187.988C489.954,-177.608 413.275,-161.838 337.536,-144.284"/>
<polygon fill="midnightblue" stroke="midnightblue" points="337.875,-140.769 327.342,-141.909 336.287,-147.587 337.875,-140.769"/>
</g>
<!-- Node14&#45;&gt;Node10 -->
<g id="edge30" class="edge"><title>Node14&#45;&gt;Node10</title>
<path fill="none" stroke="midnightblue" d="M587.09,-180.194C574.653,-164.785 556.87,-142.915 541,-124 532.944,-114.398 523.92,-103.895 516.151,-94.9303"/>
<polygon fill="midnightblue" stroke="midnightblue" points="518.635,-92.452 509.434,-87.1991 513.351,-97.0433 518.635,-92.452"/>
</g>
<!-- Node14&#45;&gt;Node11 -->
<g id="edge29" class="edge"><title>Node14&#45;&gt;Node11</title>
<path fill="none" stroke="midnightblue" d="M601.201,-180.259C597.733,-150.958 588.005,-95.2084 562,-56 553.786,-43.6158 541.088,-33.0116 529.858,-25.213"/>
<polygon fill="midnightblue" stroke="midnightblue" points="531.561,-22.144 521.281,-19.5799 527.718,-27.995 531.561,-22.144"/>
</g>
<!-- Node15 -->
<g id="node15" class="node"><title>Node15</title>
<polygon fill="white" stroke="#bfbfbf" points="631,-124.5 631,-143.5 671,-143.5 671,-124.5 631,-124.5"/>
<text text-anchor="middle" x="651" y="-131.5" font-family="Helvetica,sans-Serif" font-size="10.00">limits</text>
</g>
<!-- Node14&#45;&gt;Node15 -->
<g id="edge26" class="edge"><title>Node14&#45;&gt;Node15</title>
<path fill="none" stroke="midnightblue" d="M617.402,-180.498C624.124,-171.395 632.049,-160.662 638.514,-151.908"/>
<polygon fill="midnightblue" stroke="midnightblue" points="641.486,-153.776 644.61,-143.652 635.854,-149.618 641.486,-153.776"/>
</g>
<!-- Node16 -->
<g id="node16" class="node"><title>Node16</title>
<polygon fill="white" stroke="#bfbfbf" points="689,-124.5 689,-143.5 733,-143.5 733,-124.5 689,-124.5"/>
<text text-anchor="middle" x="711" y="-131.5" font-family="Helvetica,sans-Serif" font-size="10.00">mutex</text>
</g>
<!-- Node14&#45;&gt;Node16 -->
<g id="edge28" class="edge"><title>Node14&#45;&gt;Node16</title>
<path fill="none" stroke="midnightblue" d="M635.404,-180.498C652.28,-170.34 672.527,-158.155 687.818,-148.952"/>
<polygon fill="midnightblue" stroke="midnightblue" points="689.86,-151.808 696.624,-143.652 686.251,-145.81 689.86,-151.808"/>
</g>
<!-- Node17&#45;&gt;Node13 -->
<g id="edge34" class="edge"><title>Node17&#45;&gt;Node13</title>
<path fill="none" stroke="midnightblue" d="M681.641,-182.044C678.727,-181.325 675.836,-180.639 673,-180 604.591,-164.579 525.335,-151.984 470.468,-144.081"/>
<polygon fill="midnightblue" stroke="midnightblue" points="470.909,-140.608 460.514,-142.66 469.92,-147.538 470.909,-140.608"/>
</g>
<!-- Node18 -->
<g id="node18" class="node"><title>Node18</title>
<polygon fill="white" stroke="#bfbfbf" points="751,-124.5 751,-143.5 803,-143.5 803,-124.5 751,-124.5"/>
<text text-anchor="middle" x="777" y="-131.5" font-family="Helvetica,sans-Serif" font-size="10.00">sstream</text>
</g>
<!-- Node17&#45;&gt;Node18 -->
<g id="edge32" class="edge"><title>Node17&#45;&gt;Node18</title>
<path fill="none" stroke="midnightblue" d="M753.201,-180.498C757.812,-171.682 763.223,-161.339 767.719,-152.743"/>
<polygon fill="midnightblue" stroke="midnightblue" points="770.94,-154.136 772.474,-143.652 764.738,-150.891 770.94,-154.136"/>
</g>
<!-- Node19 -->
<g id="node19" class="node"><title>Node19</title>
<polygon fill="white" stroke="#bfbfbf" points="821,-124.5 821,-143.5 895,-143.5 895,-124.5 821,-124.5"/>
<text text-anchor="middle" x="858" y="-131.5" font-family="Helvetica,sans-Serif" font-size="10.00">system_error</text>
</g>
<!-- Node17&#45;&gt;Node19 -->
<g id="edge33" class="edge"><title>Node17&#45;&gt;Node19</title>
<path fill="none" stroke="midnightblue" d="M777.504,-180.498C795.644,-170.245 817.44,-157.925 833.775,-148.693"/>
<polygon fill="midnightblue" stroke="midnightblue" points="835.708,-151.62 842.692,-143.652 832.264,-145.526 835.708,-151.62"/>
</g>
</g>
</svg>
