<?xml version="1.0" encoding="UTF-8" standalone="no"?>
<!DOCTYPE svg PUBLIC "-//W3C//DTD SVG 1.1//EN"
 "http://www.w3.org/Graphics/SVG/1.1/DTD/svg11.dtd">
<!-- Generated by graphviz version 2.36.0 (20140111.2315)
 -->
<!-- Title: include/shad/runtime/mappings/cpp_simple/cpp_simple_utility.h Pages: 1 -->
<svg width="528pt" height="230pt"
 viewBox="0.00 0.00 528.00 230.00" xmlns="http://www.w3.org/2000/svg" xmlns:xlink="http://www.w3.org/1999/xlink">
<g id="graph0" class="graph" transform="scale(1 1) rotate(0) translate(4 226)">
<title>include/shad/runtime/mappings/cpp_simple/cpp_simple_utility.h</title>
<polygon fill="white" stroke="none" points="-4,4 -4,-226 524,-226 524,4 -4,4"/>
<!-- Node1 -->
<g id="node1" class="node"><title>Node1</title>
<polygon fill="#bfbfbf" stroke="black" points="50,-180.5 50,-221.5 164,-221.5 164,-180.5 50,-180.5"/>
<text text-anchor="start" x="58" y="-209.5" font-family="Helvetica,sans-Serif" font-size="10.00">include/shad/runtime</text>
<text text-anchor="start" x="58" y="-198.5" font-family="Helvetica,sans-Serif" font-size="10.00">/mappings/cpp_simple</text>
<text text-anchor="middle" x="107" y="-187.5" font-family="Helvetica,sans-Serif" font-size="10.00">/cpp_simple_utility.h</text>
</g>
<!-- Node2 -->
<g id="node2" class="node"><title>Node2</title>
<polygon fill="white" stroke="#bfbfbf" points="0,-124.5 0,-143.5 52,-143.5 52,-124.5 0,-124.5"/>
<text text-anchor="middle" x="26" y="-131.5" font-family="Helvetica,sans-Serif" font-size="10.00">sstream</text>
</g>
<!-- Node1&#45;&gt;Node2 -->
<g id="edge1" class="edge"><title>Node1&#45;&gt;Node2</title>
<path fill="none" stroke="midnightblue" d="M82.6973,-180.498C70.5173,-170.724 55.9973,-159.072 44.7005,-150.007"/>
<polygon fill="midnightblue" stroke="midnightblue" points="46.7722,-147.181 36.7823,-143.652 42.3911,-152.641 46.7722,-147.181"/>
</g>
<!-- Node3 -->
<g id="node3" class="node"><title>Node3</title>
<polygon fill="white" stroke="#bfbfbf" points="70,-124.5 70,-143.5 144,-143.5 144,-124.5 70,-124.5"/>
<text text-anchor="middle" x="107" y="-131.5" font-family="Helvetica,sans-Serif" font-size="10.00">system_error</text>
</g>
<!-- Node1&#45;&gt;Node3 -->
<g id="edge2" class="edge"><title>Node1&#45;&gt;Node3</title>
<path fill="none" stroke="midnightblue" d="M107,-180.498C107,-172.065 107,-162.235 107,-153.874"/>
<polygon fill="midnightblue" stroke="midnightblue" points="110.5,-153.652 107,-143.652 103.5,-153.653 110.5,-153.652"/>
</g>
<!-- Node4 -->
<g id="node4" class="node"><title>Node4</title>
<g id="a_node4"><a xlink:href="locality_8h.html" target="_top" xlink:title="shad/runtime/locality.h">
<polygon fill="white" stroke="black" points="162.5,-124.5 162.5,-143.5 277.5,-143.5 277.5,-124.5 162.5,-124.5"/>
<text text-anchor="middle" x="220" y="-131.5" font-family="Helvetica,sans-Serif" font-size="10.00">shad/runtime/locality.h</text>
</a>
</g>
</g>
<!-- Node1&#45;&gt;Node4 -->
<g id="edge3" class="edge"><title>Node1&#45;&gt;Node4</title>
<path fill="none" stroke="midnightblue" d="M140.904,-180.498C158.729,-170.245 180.146,-157.925 196.196,-148.693"/>
<polygon fill="midnightblue" stroke="midnightblue" points="198.035,-151.673 204.958,-143.652 194.545,-145.605 198.035,-151.673"/>
</g>
<!-- Node5 -->
<g id="node5" class="node"><title>Node5</title>
<polygon fill="white" stroke="#bfbfbf" points="74,-62.5 74,-81.5 120,-81.5 120,-62.5 74,-62.5"/>
<text text-anchor="middle" x="97" y="-69.5" font-family="Helvetica,sans-Serif" font-size="10.00">cstdint</text>
</g>
<!-- Node4&#45;&gt;Node5 -->
<g id="edge4" class="edge"><title>Node4&#45;&gt;Node5</title>
<path fill="none" stroke="midnightblue" d="M202.377,-124.403C181.826,-114.379 147.636,-97.7006 123.793,-86.0699"/>
<polygon fill="midnightblue" stroke="midnightblue" points="125.112,-82.8192 114.59,-81.5806 122.043,-89.1106 125.112,-82.8192"/>
</g>
<!-- Node6 -->
<g id="node6" class="node"><title>Node6</title>
<polygon fill="white" stroke="#bfbfbf" points="138,-62.5 138,-81.5 192,-81.5 192,-62.5 138,-62.5"/>
<text text-anchor="middle" x="165" y="-69.5" font-family="Helvetica,sans-Serif" font-size="10.00">iostream</text>
</g>
<!-- Node4&#45;&gt;Node6 -->
<g id="edge5" class="edge"><title>Node4&#45;&gt;Node6</title>
<path fill="none" stroke="midnightblue" d="M212.12,-124.403C203.706,-115.225 190.181,-100.47 179.774,-89.1173"/>
<polygon fill="midnightblue" stroke="midnightblue" points="182.203,-86.5871 172.866,-81.5806 177.043,-91.3172 182.203,-86.5871"/>
</g>
<!-- Node7 -->
<g id="node7" class="node"><title>Node7</title>
<polygon fill="white" stroke="#bfbfbf" points="168,-0.5 168,-19.5 272,-19.5 272,-0.5 168,-0.5"/>
<text text-anchor="middle" x="220" y="-7.5" font-family="Helvetica,sans-Serif" font-size="10.00">shad/config/config.h</text>
</g>
<!-- Node4&#45;&gt;Node7 -->
<g id="edge6" class="edge"><title>Node4&#45;&gt;Node7</title>
<path fill="none" stroke="midnightblue" d="M220,-124.226C220,-104.53 220,-56.4371 220,-29.7004"/>
<polygon fill="midnightblue" stroke="midnightblue" points="223.5,-29.6944 220,-19.6944 216.5,-29.6945 223.5,-29.6944"/>
</g>
<!-- Node8 -->
<g id="node8" class="node"><title>Node8</title>
<g id="a_node8"><a xlink:href="mapping__traits_8h.html" target="_top" xlink:title="shad/runtime/mapping\l_traits.h">
<polygon fill="white" stroke="black" points="248.5,-57 248.5,-87 361.5,-87 361.5,-57 248.5,-57"/>
<text text-anchor="start" x="256.5" y="-75" font-family="Helvetica,sans-Serif" font-size="10.00">shad/runtime/mapping</text>
<text text-anchor="middle" x="305" y="-64" font-family="Helvetica,sans-Serif" font-size="10.00">_traits.h</text>
</a>
</g>
</g>
<!-- Node4&#45;&gt;Node8 -->
<g id="edge7" class="edge"><title>Node4&#45;&gt;Node8</title>
<path fill="none" stroke="midnightblue" d="M232.178,-124.403C243.69,-116.277 261.396,-103.779 276.466,-93.1419"/>
<polygon fill="midnightblue" stroke="midnightblue" points="278.816,-95.7671 284.967,-87.1408 274.779,-90.0483 278.816,-95.7671"/>
</g>
<!-- Node10 -->
<g id="node10" class="node"><title>Node10</title>
<g id="a_node10"><a xlink:href="available__traits__mappings_8h.html" target="_top" xlink:title="shad/runtime/mappings\l/available_traits_mappings.h">
<polygon fill="white" stroke="black" points="380,-57 380,-87 520,-87 520,-57 380,-57"/>
<text text-anchor="start" x="388" y="-75" font-family="Helvetica,sans-Serif" font-size="10.00">shad/runtime/mappings</text>
<text text-anchor="middle" x="450" y="-64" font-family="Helvetica,sans-Serif" font-size="10.00">/available_traits_mappings.h</text>
</a>
</g>
</g>
<!-- Node4&#45;&gt;Node10 -->
<g id="edge10" class="edge"><title>Node4&#45;&gt;Node10</title>
<path fill="none" stroke="midnightblue" d="M252.953,-124.403C287.64,-115.355 343.105,-100.886 386.365,-89.6005"/>
<polygon fill="midnightblue" stroke="midnightblue" points="387.444,-92.9363 396.236,-87.0253 385.677,-86.1629 387.444,-92.9363"/>
</g>
<!-- Node8&#45;&gt;Node7 -->
<g id="edge9" class="edge"><title>Node8&#45;&gt;Node7</title>
<path fill="none" stroke="midnightblue" d="M284.856,-56.7808C271.405,-47.2862 253.778,-34.8434 240.296,-25.3267"/>
<polygon fill="midnightblue" stroke="midnightblue" points="242.309,-22.4632 232.121,-19.5557 238.272,-28.182 242.309,-22.4632"/>
</g>
<!-- Node9 -->
<g id="node9" class="node"><title>Node9</title>
<polygon fill="white" stroke="#bfbfbf" points="290.5,-0.5 290.5,-19.5 331.5,-19.5 331.5,-0.5 290.5,-0.5"/>
<text text-anchor="middle" x="311" y="-7.5" font-family="Helvetica,sans-Serif" font-size="10.00">string</text>
</g>
<!-- Node8&#45;&gt;Node9 -->
<g id="edge8" class="edge"><title>Node8&#45;&gt;Node9</title>
<path fill="none" stroke="midnightblue" d="M306.422,-56.7808C307.231,-48.6913 308.254,-38.4617 309.127,-29.725"/>
<polygon fill="midnightblue" stroke="midnightblue" points="312.614,-30.0292 310.127,-19.7305 305.649,-29.3326 312.614,-30.0292"/>
</g>
</g>
</svg>
