<?xml version="1.0" encoding="UTF-8" standalone="no"?>
<!DOCTYPE svg PUBLIC "-//W3C//DTD SVG 1.1//EN"
 "http://www.w3.org/Graphics/SVG/1.1/DTD/svg11.dtd">
<!-- Generated by graphviz version 2.36.0 (20140111.2315)
 -->
<!-- Title: include/shad/data_structures/array.h Pages: 1 -->
<svg width="1046pt" height="492pt"
 viewBox="0.00 0.00 1046.00 492.00" xmlns="http://www.w3.org/2000/svg" xmlns:xlink="http://www.w3.org/1999/xlink">
<g id="graph0" class="graph" transform="scale(1 1) rotate(0) translate(4 488)">
<title>include/shad/data_structures/array.h</title>
<polygon fill="white" stroke="none" points="-4,4 -4,-488 1042,-488 1042,4 -4,4"/>
<!-- Node1 -->
<g id="node1" class="node"><title>Node1</title>
<polygon fill="#bfbfbf" stroke="black" points="636,-453 636,-483 778,-483 778,-453 636,-453"/>
<text text-anchor="start" x="644" y="-471" font-family="Helvetica,sans-Serif" font-size="10.00">include/shad/data_structures</text>
<text text-anchor="middle" x="707" y="-460" font-family="Helvetica,sans-Serif" font-size="10.00">/array.h</text>
</g>
<!-- Node2 -->
<g id="node2" class="node"><title>Node2</title>
<polygon fill="white" stroke="#bfbfbf" points="66,-322.5 66,-341.5 122,-341.5 122,-322.5 66,-322.5"/>
<text text-anchor="middle" x="94" y="-329.5" font-family="Helvetica,sans-Serif" font-size="10.00">algorithm</text>
</g>
<!-- Node1&#45;&gt;Node2 -->
<g id="edge1" class="edge"><title>Node1&#45;&gt;Node2</title>
<path fill="none" stroke="midnightblue" d="M635.945,-465.812C511.608,-462.798 260.252,-452.276 181,-416 148.738,-401.233 120.965,-369.487 105.942,-349.818"/>
<polygon fill="midnightblue" stroke="midnightblue" points="108.725,-347.695 99.9661,-341.734 103.096,-351.856 108.725,-347.695"/>
</g>
<!-- Node3 -->
<g id="node3" class="node"><title>Node3</title>
<polygon fill="white" stroke="#bfbfbf" points="896,-390.5 896,-409.5 942,-409.5 942,-390.5 896,-390.5"/>
<text text-anchor="middle" x="919" y="-397.5" font-family="Helvetica,sans-Serif" font-size="10.00">cstring</text>
</g>
<!-- Node1&#45;&gt;Node3 -->
<g id="edge2" class="edge"><title>Node1&#45;&gt;Node3</title>
<path fill="none" stroke="midnightblue" d="M760.282,-452.986C795.185,-443.436 841.644,-430.02 882,-416 884.406,-415.164 886.884,-414.259 889.363,-413.322"/>
<polygon fill="midnightblue" stroke="midnightblue" points="890.753,-416.537 898.785,-409.627 888.197,-410.02 890.753,-416.537"/>
</g>
<!-- Node4 -->
<g id="node4" class="node"><title>Node4</title>
<polygon fill="white" stroke="#bfbfbf" points="855.5,-198.5 855.5,-217.5 914.5,-217.5 914.5,-198.5 855.5,-198.5"/>
<text text-anchor="middle" x="885" y="-205.5" font-family="Helvetica,sans-Serif" font-size="10.00">functional</text>
</g>
<!-- Node1&#45;&gt;Node4 -->
<g id="edge3" class="edge"><title>Node1&#45;&gt;Node4</title>
<path fill="none" stroke="midnightblue" d="M723.38,-452.674C733.548,-443.098 746.291,-429.77 755,-416 794.792,-353.081 770.738,-319.106 816,-260 827.664,-244.768 845.055,-231.955 859.459,-222.981"/>
<polygon fill="midnightblue" stroke="midnightblue" points="861.604,-225.777 868.403,-217.652 858.021,-219.764 861.604,-225.777"/>
</g>
<!-- Node5 -->
<g id="node5" class="node"><title>Node5</title>
<polygon fill="white" stroke="#bfbfbf" points="932.5,-198.5 932.5,-217.5 979.5,-217.5 979.5,-198.5 932.5,-198.5"/>
<text text-anchor="middle" x="956" y="-205.5" font-family="Helvetica,sans-Serif" font-size="10.00">iterator</text>
</g>
<!-- Node1&#45;&gt;Node5 -->
<g id="edge4" class="edge"><title>Node1&#45;&gt;Node5</title>
<path fill="none" stroke="midnightblue" d="M732.03,-452.964C746.556,-443.87 764.41,-430.953 777,-416 826.8,-356.854 799.468,-314.813 854,-260 859.715,-254.256 899.828,-235.004 928.011,-221.869"/>
<polygon fill="midnightblue" stroke="midnightblue" points="929.808,-224.893 937.406,-217.51 926.862,-218.543 929.808,-224.893"/>
</g>
<!-- Node6 -->
<g id="node6" class="node"><title>Node6</title>
<polygon fill="white" stroke="#bfbfbf" points="122,-130.5 122,-149.5 174,-149.5 174,-130.5 122,-130.5"/>
<text text-anchor="middle" x="148" y="-137.5" font-family="Helvetica,sans-Serif" font-size="10.00">memory</text>
</g>
<!-- Node1&#45;&gt;Node6 -->
<g id="edge5" class="edge"><title>Node1&#45;&gt;Node6</title>
<path fill="none" stroke="midnightblue" d="M635.756,-467.708C492.044,-468.096 172.872,-463.396 76,-416 31.0719,-394.018 0,-383.017 0,-333 0,-333 0,-333 0,-269 0,-209.309 69.7235,-171.257 113.458,-153.26"/>
<polygon fill="midnightblue" stroke="midnightblue" points="114.887,-156.458 122.894,-149.52 112.308,-149.951 114.887,-156.458"/>
</g>
<!-- Node7 -->
<g id="node7" class="node"><title>Node7</title>
<polygon fill="white" stroke="#bfbfbf" points="688,-322.5 688,-341.5 726,-341.5 726,-322.5 688,-322.5"/>
<text text-anchor="middle" x="707" y="-329.5" font-family="Helvetica,sans-Serif" font-size="10.00">tuple</text>
</g>
<!-- Node1&#45;&gt;Node7 -->
<g id="edge6" class="edge"><title>Node1&#45;&gt;Node7</title>
<path fill="none" stroke="midnightblue" d="M707,-452.66C707,-428.32 707,-378.933 707,-351.837"/>
<polygon fill="midnightblue" stroke="midnightblue" points="710.5,-351.727 707,-341.728 703.5,-351.728 710.5,-351.727"/>
</g>
<!-- Node8 -->
<g id="node8" class="node"><title>Node8</title>
<polygon fill="white" stroke="#bfbfbf" points="998,-198.5 998,-217.5 1038,-217.5 1038,-198.5 998,-198.5"/>
<text text-anchor="middle" x="1018" y="-205.5" font-family="Helvetica,sans-Serif" font-size="10.00">utility</text>
</g>
<!-- Node1&#45;&gt;Node8 -->
<g id="edge7" class="edge"><title>Node1&#45;&gt;Node8</title>
<path fill="none" stroke="midnightblue" d="M738.205,-452.919C757.378,-443.631 782.011,-430.526 802,-416 886.022,-354.943 970.575,-262.969 1003.56,-225.633"/>
<polygon fill="midnightblue" stroke="midnightblue" points="1006.51,-227.577 1010.47,-217.751 1001.25,-222.962 1006.51,-227.577"/>
</g>
<!-- Node9 -->
<g id="node9" class="node"><title>Node9</title>
<polygon fill="white" stroke="#bfbfbf" points="65,-198.5 65,-217.5 109,-217.5 109,-198.5 65,-198.5"/>
<text text-anchor="middle" x="87" y="-205.5" font-family="Helvetica,sans-Serif" font-size="10.00">vector</text>
</g>
<!-- Node1&#45;&gt;Node9 -->
<g id="edge8" class="edge"><title>Node1&#45;&gt;Node9</title>
<path fill="none" stroke="midnightblue" d="M635.948,-466.104C503.308,-463.544 223.446,-453.704 135,-416 92.693,-397.965 76.0422,-389.864 57,-348 38.2463,-306.771 61.7819,-253.244 76.6238,-226.222"/>
<polygon fill="midnightblue" stroke="midnightblue" points="79.6653,-227.954 81.604,-217.538 73.593,-224.472 79.6653,-227.954"/>
</g>
<!-- Node10 -->
<g id="node10" class="node"><title>Node10</title>
<g id="a_node10"><a xlink:href="abstract__data__structure_8h.html" target="_top" xlink:title="shad/data_structures\l/abstract_data_structure.h">
<polygon fill="white" stroke="black" points="494.5,-385 494.5,-415 625.5,-415 625.5,-385 494.5,-385"/>
<text text-anchor="start" x="502.5" y="-403" font-family="Helvetica,sans-Serif" font-size="10.00">shad/data_structures</text>
<text text-anchor="middle" x="560" y="-392" font-family="Helvetica,sans-Serif" font-size="10.00">/abstract_data_structure.h</text>
</a>
</g>
</g>
<!-- Node1&#45;&gt;Node10 -->
<g id="edge9" class="edge"><title>Node1&#45;&gt;Node10</title>
<path fill="none" stroke="midnightblue" d="M675.465,-452.841C653.592,-443.021 624.262,-429.852 600.636,-419.245"/>
<polygon fill="midnightblue" stroke="midnightblue" points="601.787,-415.925 591.23,-415.022 598.92,-422.311 601.787,-415.925"/>
</g>
<!-- Node15 -->
<g id="node15" class="node"><title>Node15</title>
<g id="a_node15"><a xlink:href="runtime_8h.html" target="_top" xlink:title="shad/runtime/runtime.h">
<polygon fill="white" stroke="black" points="516,-260.5 516,-279.5 632,-279.5 632,-260.5 516,-260.5"/>
<text text-anchor="middle" x="574" y="-267.5" font-family="Helvetica,sans-Serif" font-size="10.00">shad/runtime/runtime.h</text>
</a>
</g>
</g>
<!-- Node1&#45;&gt;Node15 -->
<g id="edge61" class="edge"><title>Node1&#45;&gt;Node15</title>
<path fill="none" stroke="midnightblue" d="M716.099,-452.864C733.394,-424.027 766.589,-357.629 735,-316 723.284,-300.56 679.968,-288.982 641.214,-281.439"/>
<polygon fill="midnightblue" stroke="midnightblue" points="641.434,-277.919 630.96,-279.513 640.143,-284.799 641.434,-277.919"/>
</g>
<!-- Node31 -->
<g id="node31" class="node"><title>Node31</title>
<g id="a_node31"><a xlink:href="buffer_8h.html" target="_top" xlink:title="shad/data_structures\l/buffer.h">
<polygon fill="white" stroke="black" points="190,-385 190,-415 298,-415 298,-385 190,-385"/>
<text text-anchor="start" x="198" y="-403" font-family="Helvetica,sans-Serif" font-size="10.00">shad/data_structures</text>
<text text-anchor="middle" x="244" y="-392" font-family="Helvetica,sans-Serif" font-size="10.00">/buffer.h</text>
</a>
</g>
</g>
<!-- Node1&#45;&gt;Node31 -->
<g id="edge54" class="edge"><title>Node1&#45;&gt;Node31</title>
<path fill="none" stroke="midnightblue" d="M635.924,-456.868C546.526,-444.125 394.337,-422.43 308.272,-410.162"/>
<polygon fill="midnightblue" stroke="midnightblue" points="308.507,-406.66 298.113,-408.714 307.519,-413.59 308.507,-406.66"/>
</g>
<!-- Node10&#45;&gt;Node6 -->
<g id="edge12" class="edge"><title>Node10&#45;&gt;Node6</title>
<path fill="none" stroke="midnightblue" d="M552.453,-384.953C542.62,-367.482 524.165,-337.355 503,-316 472.448,-285.174 463.382,-275.905 423,-260 316.096,-217.893 251.636,-301.705 167,-224 149.333,-207.78 146.428,-178.781 146.67,-159.716"/>
<polygon fill="midnightblue" stroke="midnightblue" points="150.173,-159.712 147.105,-149.571 143.18,-159.412 150.173,-159.712"/>
</g>
<!-- Node10&#45;&gt;Node7 -->
<g id="edge13" class="edge"><title>Node10&#45;&gt;Node7</title>
<path fill="none" stroke="midnightblue" d="M591.475,-384.98C614.378,-374.763 646.131,-360.568 674,-348 675.578,-347.289 677.197,-346.557 678.831,-345.817"/>
<polygon fill="midnightblue" stroke="midnightblue" points="680.5,-348.904 688.162,-341.586 677.609,-342.529 680.5,-348.904"/>
</g>
<!-- Node10&#45;&gt;Node8 -->
<g id="edge14" class="edge"><title>Node10&#45;&gt;Node8</title>
<path fill="none" stroke="midnightblue" d="M583.593,-384.986C599.788,-375.12 621.598,-361.342 640,-348 658.152,-334.839 659.306,-326.718 679,-316 804.859,-247.502 854.049,-274.887 988,-224 989.647,-223.374 991.323,-222.687 992.999,-221.962"/>
<polygon fill="midnightblue" stroke="midnightblue" points="994.825,-224.971 1002.39,-217.55 991.848,-218.636 994.825,-224.971"/>
</g>
<!-- Node10&#45;&gt;Node9 -->
<g id="edge15" class="edge"><title>Node10&#45;&gt;Node9</title>
<path fill="none" stroke="midnightblue" d="M545.261,-384.829C511.322,-352.524 427.898,-275.05 393,-260 281.835,-212.059 239.878,-255.552 123,-224 120.181,-223.239 117.29,-222.309 114.432,-221.288"/>
<polygon fill="midnightblue" stroke="midnightblue" points="115.577,-217.977 104.989,-217.582 113.019,-224.493 115.577,-217.977"/>
</g>
<!-- Node11 -->
<g id="node11" class="node"><title>Node11</title>
<polygon fill="white" stroke="#bfbfbf" points="588.5,-322.5 588.5,-341.5 631.5,-341.5 631.5,-322.5 588.5,-322.5"/>
<text text-anchor="middle" x="610" y="-329.5" font-family="Helvetica,sans-Serif" font-size="10.00">deque</text>
</g>
<!-- Node10&#45;&gt;Node11 -->
<g id="edge10" class="edge"><title>Node10&#45;&gt;Node11</title>
<path fill="none" stroke="midnightblue" d="M570.849,-384.679C578.568,-374.49 588.971,-360.759 597.113,-350.011"/>
<polygon fill="midnightblue" stroke="midnightblue" points="600.063,-351.913 603.312,-341.828 594.483,-347.686 600.063,-351.913"/>
</g>
<!-- Node12 -->
<g id="node12" class="node"><title>Node12</title>
<polygon fill="white" stroke="#bfbfbf" points="344,-260.5 344,-279.5 384,-279.5 384,-260.5 344,-260.5"/>
<text text-anchor="middle" x="364" y="-267.5" font-family="Helvetica,sans-Serif" font-size="10.00">limits</text>
</g>
<!-- Node10&#45;&gt;Node12 -->
<g id="edge11" class="edge"><title>Node10&#45;&gt;Node12</title>
<path fill="none" stroke="midnightblue" d="M533.15,-384.817C515.01,-374.986 490.689,-361.316 470,-348 438.537,-327.749 403.741,-301.73 382.886,-285.717"/>
<polygon fill="midnightblue" stroke="midnightblue" points="384.907,-282.855 374.853,-279.514 380.628,-288.396 384.907,-282.855"/>
</g>
<!-- Node13 -->
<g id="node13" class="node"><title>Node13</title>
<g id="a_node13"><a xlink:href="object__identifier_8h.html" target="_top" xlink:title="shad/data_structures\l/object_identifier.h">
<polygon fill="white" stroke="black" points="272,-317 272,-347 380,-347 380,-317 272,-317"/>
<text text-anchor="start" x="280" y="-335" font-family="Helvetica,sans-Serif" font-size="10.00">shad/data_structures</text>
<text text-anchor="middle" x="326" y="-324" font-family="Helvetica,sans-Serif" font-size="10.00">/object_identifier.h</text>
</a>
</g>
</g>
<!-- Node10&#45;&gt;Node13 -->
<g id="edge16" class="edge"><title>Node10&#45;&gt;Node13</title>
<path fill="none" stroke="midnightblue" d="M510.088,-384.922C473.74,-374.67 424.344,-360.738 385.871,-349.887"/>
<polygon fill="midnightblue" stroke="midnightblue" points="386.41,-346.402 375.835,-347.056 384.51,-353.139 386.41,-346.402"/>
</g>
<!-- Node10&#45;&gt;Node15 -->
<g id="edge53" class="edge"><title>Node10&#45;&gt;Node15</title>
<path fill="none" stroke="midnightblue" d="M561.552,-384.813C564.094,-361.566 569.147,-315.371 571.97,-289.556"/>
<polygon fill="midnightblue" stroke="midnightblue" points="575.454,-289.895 573.062,-279.574 568.496,-289.134 575.454,-289.895"/>
</g>
<!-- Node13&#45;&gt;Node12 -->
<g id="edge18" class="edge"><title>Node13&#45;&gt;Node12</title>
<path fill="none" stroke="midnightblue" d="M335.005,-316.781C340.413,-308.242 347.332,-297.318 353.054,-288.283"/>
<polygon fill="midnightblue" stroke="midnightblue" points="356.077,-290.051 358.471,-279.731 350.163,-286.306 356.077,-290.051"/>
</g>
<!-- Node14 -->
<g id="node14" class="node"><title>Node14</title>
<polygon fill="white" stroke="#bfbfbf" points="250,-260.5 250,-279.5 296,-279.5 296,-260.5 250,-260.5"/>
<text text-anchor="middle" x="273" y="-267.5" font-family="Helvetica,sans-Serif" font-size="10.00">atomic</text>
</g>
<!-- Node13&#45;&gt;Node14 -->
<g id="edge17" class="edge"><title>Node13&#45;&gt;Node14</title>
<path fill="none" stroke="midnightblue" d="M313.44,-316.781C305.659,-307.972 295.636,-296.626 287.516,-287.433"/>
<polygon fill="midnightblue" stroke="midnightblue" points="289.956,-284.908 280.712,-279.731 284.709,-289.542 289.956,-284.908"/>
</g>
<!-- Node13&#45;&gt;Node15 -->
<g id="edge19" class="edge"><title>Node13&#45;&gt;Node15</title>
<path fill="none" stroke="midnightblue" d="M380.118,-317.907C424.621,-307.14 486.955,-292.059 528.818,-281.931"/>
<polygon fill="midnightblue" stroke="midnightblue" points="529.838,-285.286 538.734,-279.532 528.191,-278.482 529.838,-285.286"/>
</g>
<!-- Node15&#45;&gt;Node4 -->
<g id="edge22" class="edge"><title>Node15&#45;&gt;Node4</title>
<path fill="none" stroke="midnightblue" d="M631.036,-260.494C697.232,-250.428 802.263,-233.799 841,-224 844.658,-223.075 848.447,-221.987 852.198,-220.827"/>
<polygon fill="midnightblue" stroke="midnightblue" points="853.501,-224.084 861.919,-217.651 851.326,-217.43 853.501,-224.084"/>
</g>
<!-- Node15&#45;&gt;Node5 -->
<g id="edge24" class="edge"><title>Node15&#45;&gt;Node5</title>
<path fill="none" stroke="midnightblue" d="M632.164,-261.724C729.636,-249.5 916.069,-225.974 923,-224 925.349,-223.331 927.745,-222.52 930.118,-221.626"/>
<polygon fill="midnightblue" stroke="midnightblue" points="931.729,-224.745 939.578,-217.628 929.005,-218.297 931.729,-224.745"/>
</g>
<!-- Node15&#45;&gt;Node6 -->
<g id="edge26" class="edge"><title>Node15&#45;&gt;Node6</title>
<path fill="none" stroke="midnightblue" d="M515.845,-261.7C511.161,-261.121 506.502,-260.549 502,-260 434.691,-251.795 256.122,-260.536 199,-224 175.438,-208.93 161.035,-178.693 153.79,-159.174"/>
<polygon fill="midnightblue" stroke="midnightblue" points="157.057,-157.911 150.489,-149.597 150.439,-160.192 157.057,-157.911"/>
</g>
<!-- Node15&#45;&gt;Node8 -->
<g id="edge29" class="edge"><title>Node15&#45;&gt;Node8</title>
<path fill="none" stroke="midnightblue" d="M632.147,-261.633C636.833,-261.069 641.495,-260.519 646,-260 797.837,-242.52 841.294,-266.864 988,-224 989.97,-223.424 991.967,-222.723 993.945,-221.941"/>
<polygon fill="midnightblue" stroke="midnightblue" points="995.843,-224.921 1003.48,-217.574 992.927,-218.558 995.843,-224.921"/>
</g>
<!-- Node15&#45;&gt;Node9 -->
<g id="edge30" class="edge"><title>Node15&#45;&gt;Node9</title>
<path fill="none" stroke="midnightblue" d="M515.983,-264.364C435.866,-257.579 286.968,-243.588 161,-224 147.202,-221.854 132.074,-218.897 119.112,-216.175"/>
<polygon fill="midnightblue" stroke="midnightblue" points="119.76,-212.735 109.248,-214.063 118.294,-219.58 119.76,-212.735"/>
</g>
<!-- Node16 -->
<g id="node16" class="node"><title>Node16</title>
<polygon fill="white" stroke="#bfbfbf" points="450.5,-130.5 450.5,-149.5 499.5,-149.5 499.5,-130.5 450.5,-130.5"/>
<text text-anchor="middle" x="475" y="-137.5" font-family="Helvetica,sans-Serif" font-size="10.00">cstddef</text>
</g>
<!-- Node15&#45;&gt;Node16 -->
<g id="edge20" class="edge"><title>Node15&#45;&gt;Node16</title>
<path fill="none" stroke="midnightblue" d="M632.031,-261.664C655.283,-255.556 679.869,-244.391 694,-224 702.101,-212.31 702.843,-203.139 694,-192 691.103,-188.351 570.68,-161.77 509.671,-148.498"/>
<polygon fill="midnightblue" stroke="midnightblue" points="510.228,-145.037 499.713,-146.335 508.742,-151.878 510.228,-145.037"/>
</g>
<!-- Node17 -->
<g id="node17" class="node"><title>Node17</title>
<polygon fill="white" stroke="#bfbfbf" points="266,-62.5 266,-81.5 312,-81.5 312,-62.5 266,-62.5"/>
<text text-anchor="middle" x="289" y="-69.5" font-family="Helvetica,sans-Serif" font-size="10.00">cstdint</text>
</g>
<!-- Node15&#45;&gt;Node17 -->
<g id="edge21" class="edge"><title>Node15&#45;&gt;Node17</title>
<path fill="none" stroke="midnightblue" d="M515.982,-261.379C428.88,-249.802 274.003,-228.639 270,-224 237.433,-186.257 263.19,-122.129 278.991,-91.0079"/>
<polygon fill="midnightblue" stroke="midnightblue" points="282.278,-92.2797 283.869,-81.8051 276.093,-89.0013 282.278,-92.2797"/>
</g>
<!-- Node18 -->
<g id="node18" class="node"><title>Node18</title>
<polygon fill="white" stroke="#bfbfbf" points="190,-62.5 190,-81.5 244,-81.5 244,-62.5 190,-62.5"/>
<text text-anchor="middle" x="217" y="-69.5" font-family="Helvetica,sans-Serif" font-size="10.00">iostream</text>
</g>
<!-- Node15&#45;&gt;Node18 -->
<g id="edge23" class="edge"><title>Node15&#45;&gt;Node18</title>
<path fill="none" stroke="midnightblue" d="M515.657,-261.693C424.179,-250.119 256.835,-228.423 252,-224 214.688,-189.866 213.295,-124.478 215.193,-92.1144"/>
<polygon fill="midnightblue" stroke="midnightblue" points="218.709,-92.0419 215.981,-81.8043 211.729,-91.5085 218.709,-92.0419"/>
</g>
<!-- Node19 -->
<g id="node19" class="node"><title>Node19</title>
<polygon fill="white" stroke="#bfbfbf" points="505.5,-198.5 505.5,-217.5 540.5,-217.5 540.5,-198.5 505.5,-198.5"/>
<text text-anchor="middle" x="523" y="-205.5" font-family="Helvetica,sans-Serif" font-size="10.00">map</text>
</g>
<!-- Node15&#45;&gt;Node19 -->
<g id="edge25" class="edge"><title>Node15&#45;&gt;Node19</title>
<path fill="none" stroke="midnightblue" d="M566.693,-260.403C558.967,-251.314 546.592,-236.756 536.982,-225.449"/>
<polygon fill="midnightblue" stroke="midnightblue" points="539.437,-222.933 530.294,-217.581 534.103,-227.467 539.437,-222.933"/>
</g>
<!-- Node20 -->
<g id="node20" class="node"><title>Node20</title>
<polygon fill="white" stroke="#bfbfbf" points="559,-198.5 559,-217.5 589,-217.5 589,-198.5 559,-198.5"/>
<text text-anchor="middle" x="574" y="-205.5" font-family="Helvetica,sans-Serif" font-size="10.00">set</text>
</g>
<!-- Node15&#45;&gt;Node20 -->
<g id="edge27" class="edge"><title>Node15&#45;&gt;Node20</title>
<path fill="none" stroke="midnightblue" d="M574,-260.403C574,-251.938 574,-238.728 574,-227.82"/>
<polygon fill="midnightblue" stroke="midnightblue" points="577.5,-227.581 574,-217.581 570.5,-227.581 577.5,-227.581"/>
</g>
<!-- Node21 -->
<g id="node21" class="node"><title>Node21</title>
<polygon fill="white" stroke="#bfbfbf" points="607,-198.5 607,-217.5 685,-217.5 685,-198.5 607,-198.5"/>
<text text-anchor="middle" x="646" y="-205.5" font-family="Helvetica,sans-Serif" font-size="10.00">unordered_set</text>
</g>
<!-- Node15&#45;&gt;Node21 -->
<g id="edge28" class="edge"><title>Node15&#45;&gt;Node21</title>
<path fill="none" stroke="midnightblue" d="M584.316,-260.403C595.651,-250.958 614.073,-235.606 627.839,-224.134"/>
<polygon fill="midnightblue" stroke="midnightblue" points="630.262,-226.671 635.703,-217.581 625.78,-221.294 630.262,-226.671"/>
</g>
<!-- Node22 -->
<g id="node22" class="node"><title>Node22</title>
<polygon fill="white" stroke="#bfbfbf" points="571,-0.5 571,-19.5 675,-19.5 675,-0.5 571,-0.5"/>
<text text-anchor="middle" x="623" y="-7.5" font-family="Helvetica,sans-Serif" font-size="10.00">shad/config/config.h</text>
</g>
<!-- Node15&#45;&gt;Node22 -->
<g id="edge31" class="edge"><title>Node15&#45;&gt;Node22</title>
<path fill="none" stroke="midnightblue" d="M544.879,-260.441C527.357,-253.62 506.477,-242.141 496,-224 488.887,-211.684 493.462,-205.994 496,-192 497.44,-184.06 541.817,-62.1848 547,-56 558.745,-41.9848 576.039,-31.2622 591.164,-23.8059"/>
<polygon fill="midnightblue" stroke="midnightblue" points="592.643,-26.9781 600.232,-19.5851 589.689,-20.6319 592.643,-26.9781"/>
</g>
<!-- Node23 -->
<g id="node23" class="node"><title>Node23</title>
<g id="a_node23"><a xlink:href="handle_8h.html" target="_top" xlink:title="shad/runtime/handle.h">
<polygon fill="white" stroke="black" points="692.5,-130.5 692.5,-149.5 805.5,-149.5 805.5,-130.5 692.5,-130.5"/>
<text text-anchor="middle" x="749" y="-137.5" font-family="Helvetica,sans-Serif" font-size="10.00">shad/runtime/handle.h</text>
</a>
</g>
</g>
<!-- Node15&#45;&gt;Node23 -->
<g id="edge32" class="edge"><title>Node15&#45;&gt;Node23</title>
<path fill="none" stroke="midnightblue" d="M632.434,-261.082C676.153,-253.851 730.75,-241.593 745,-224 759.581,-205.998 757.444,-177.922 753.824,-159.494"/>
<polygon fill="midnightblue" stroke="midnightblue" points="757.22,-158.642 751.577,-149.675 750.396,-160.204 757.22,-158.642"/>
</g>
<!-- Node25 -->
<g id="node25" class="node"><title>Node25</title>
<g id="a_node25"><a xlink:href="mapping__traits_8h.html" target="_top" xlink:title="shad/runtime/mapping\l_traits.h">
<polygon fill="white" stroke="black" points="752.5,-57 752.5,-87 865.5,-87 865.5,-57 752.5,-57"/>
<text text-anchor="start" x="760.5" y="-75" font-family="Helvetica,sans-Serif" font-size="10.00">shad/runtime/mapping</text>
<text text-anchor="middle" x="809" y="-64" font-family="Helvetica,sans-Serif" font-size="10.00">_traits.h</text>
</a>
</g>
</g>
<!-- Node15&#45;&gt;Node25 -->
<g id="edge45" class="edge"><title>Node15&#45;&gt;Node25</title>
<path fill="none" stroke="midnightblue" d="M629.013,-260.442C677.235,-252.155 742.974,-238.712 765,-224 795.977,-203.309 802.558,-191.45 814,-156 820.147,-136.955 818.17,-114.196 815.065,-97.3314"/>
<polygon fill="midnightblue" stroke="midnightblue" points="818.418,-96.2648 812.936,-87.1981 811.567,-97.7042 818.418,-96.2648"/>
</g>
<!-- Node28 -->
<g id="node28" class="node"><title>Node28</title>
<g id="a_node28"><a xlink:href="locality_8h.html" target="_top" xlink:title="shad/runtime/locality.h">
<polygon fill="white" stroke="black" points="317.5,-130.5 317.5,-149.5 432.5,-149.5 432.5,-130.5 317.5,-130.5"/>
<text text-anchor="middle" x="375" y="-137.5" font-family="Helvetica,sans-Serif" font-size="10.00">shad/runtime/locality.h</text>
</a>
</g>
</g>
<!-- Node15&#45;&gt;Node28 -->
<g id="edge39" class="edge"><title>Node15&#45;&gt;Node28</title>
<path fill="none" stroke="midnightblue" d="M544.757,-260.453C521.505,-252.899 488.724,-240.512 463,-224 433.839,-205.281 405.711,-176.212 389.399,-157.911"/>
<polygon fill="midnightblue" stroke="midnightblue" points="391.602,-155.113 382.388,-149.885 386.33,-159.719 391.602,-155.113"/>
</g>
<!-- Node29 -->
<g id="node29" class="node"><title>Node29</title>
<g id="a_node29"><a xlink:href="available__mappings_8h.html" target="_top" xlink:title="shad/runtime/mappings\l/available_mappings.h">
<polygon fill="white" stroke="black" points="556,-125 556,-155 674,-155 674,-125 556,-125"/>
<text text-anchor="start" x="564" y="-143" font-family="Helvetica,sans-Serif" font-size="10.00">shad/runtime/mappings</text>
<text text-anchor="middle" x="615" y="-132" font-family="Helvetica,sans-Serif" font-size="10.00">/available_mappings.h</text>
</a>
</g>
</g>
<!-- Node15&#45;&gt;Node29 -->
<g id="edge46" class="edge"><title>Node15&#45;&gt;Node29</title>
<path fill="none" stroke="midnightblue" d="M626.162,-260.49C665.506,-252.882 714.725,-240.405 727,-224 735.52,-212.613 734.696,-203.96 727,-192 716.904,-176.309 700.663,-165.389 683.644,-157.81"/>
<polygon fill="midnightblue" stroke="midnightblue" points="684.725,-154.471 674.143,-153.935 682.081,-160.952 684.725,-154.471"/>
</g>
<!-- Node30 -->
<g id="node30" class="node"><title>Node30</title>
<g id="a_node30"><a xlink:href="synchronous__interface_8h.html" target="_top" xlink:title="shad/runtime/synchronous\l_interface.h">
<polygon fill="white" stroke="black" points="279.5,-193 279.5,-223 410.5,-223 410.5,-193 279.5,-193"/>
<text text-anchor="start" x="287.5" y="-211" font-family="Helvetica,sans-Serif" font-size="10.00">shad/runtime/synchronous</text>
<text text-anchor="middle" x="345" y="-200" font-family="Helvetica,sans-Serif" font-size="10.00">_interface.h</text>
</a>
</g>
</g>
<!-- Node15&#45;&gt;Node30 -->
<g id="edge48" class="edge"><title>Node15&#45;&gt;Node30</title>
<path fill="none" stroke="midnightblue" d="M541.19,-260.403C506.654,-251.355 451.43,-236.886 408.358,-225.6"/>
<polygon fill="midnightblue" stroke="midnightblue" points="409.091,-222.174 398.53,-223.025 407.316,-228.946 409.091,-222.174"/>
</g>
<!-- Node23&#45;&gt;Node22 -->
<g id="edge34" class="edge"><title>Node23&#45;&gt;Node22</title>
<path fill="none" stroke="midnightblue" d="M746.247,-130.213C740.741,-113.838 726.982,-78.3017 705,-56 691.183,-41.9816 672.067,-31.1498 655.767,-23.6297"/>
<polygon fill="midnightblue" stroke="midnightblue" points="657.121,-20.4015 646.557,-19.5856 654.307,-26.8108 657.121,-20.4015"/>
</g>
<!-- Node24 -->
<g id="node24" class="node"><title>Node24</title>
<polygon fill="white" stroke="#bfbfbf" points="884,-62.5 884,-81.5 946,-81.5 946,-62.5 884,-62.5"/>
<text text-anchor="middle" x="915" y="-69.5" font-family="Helvetica,sans-Serif" font-size="10.00">type_traits</text>
</g>
<!-- Node23&#45;&gt;Node24 -->
<g id="edge33" class="edge"><title>Node23&#45;&gt;Node24</title>
<path fill="none" stroke="midnightblue" d="M770.702,-130.372C799.612,-118.877 850.942,-98.4687 883.947,-85.3465"/>
<polygon fill="midnightblue" stroke="midnightblue" points="885.557,-88.4729 893.556,-81.5259 882.971,-81.9682 885.557,-88.4729"/>
</g>
<!-- Node23&#45;&gt;Node25 -->
<g id="edge35" class="edge"><title>Node23&#45;&gt;Node25</title>
<path fill="none" stroke="midnightblue" d="M756.844,-130.372C765.026,-121.371 778.176,-106.907 789.224,-94.7534"/>
<polygon fill="midnightblue" stroke="midnightblue" points="791.971,-96.9352 796.108,-87.1815 786.791,-92.2265 791.971,-96.9352"/>
</g>
<!-- Node27 -->
<g id="node27" class="node"><title>Node27</title>
<g id="a_node27"><a xlink:href="available__traits__mappings_8h.html" target="_top" xlink:title="shad/runtime/mappings\l/available_traits_mappings.h">
<polygon fill="white" stroke="black" points="556,-57 556,-87 696,-87 696,-57 556,-57"/>
<text text-anchor="start" x="564" y="-75" font-family="Helvetica,sans-Serif" font-size="10.00">shad/runtime/mappings</text>
<text text-anchor="middle" x="626" y="-64" font-family="Helvetica,sans-Serif" font-size="10.00">/available_traits_mappings.h</text>
</a>
</g>
</g>
<!-- Node23&#45;&gt;Node27 -->
<g id="edge38" class="edge"><title>Node23&#45;&gt;Node27</title>
<path fill="none" stroke="midnightblue" d="M732.92,-130.372C714.869,-120.686 685.023,-104.671 661.445,-92.0192"/>
<polygon fill="midnightblue" stroke="midnightblue" points="662.896,-88.8256 652.429,-87.1815 659.586,-94.9937 662.896,-88.8256"/>
</g>
<!-- Node25&#45;&gt;Node22 -->
<g id="edge37" class="edge"><title>Node25&#45;&gt;Node22</title>
<path fill="none" stroke="midnightblue" d="M765.391,-56.9327C733.074,-46.5077 689.547,-32.4667 659.157,-22.6635"/>
<polygon fill="midnightblue" stroke="midnightblue" points="659.981,-19.2518 649.389,-19.5127 657.832,-25.9138 659.981,-19.2518"/>
</g>
<!-- Node26 -->
<g id="node26" class="node"><title>Node26</title>
<polygon fill="white" stroke="#bfbfbf" points="788.5,-0.5 788.5,-19.5 829.5,-19.5 829.5,-0.5 788.5,-0.5"/>
<text text-anchor="middle" x="809" y="-7.5" font-family="Helvetica,sans-Serif" font-size="10.00">string</text>
</g>
<!-- Node25&#45;&gt;Node26 -->
<g id="edge36" class="edge"><title>Node25&#45;&gt;Node26</title>
<path fill="none" stroke="midnightblue" d="M809,-56.7808C809,-48.7812 809,-38.6887 809,-30.0168"/>
<polygon fill="midnightblue" stroke="midnightblue" points="812.5,-29.7305 809,-19.7305 805.5,-29.7306 812.5,-29.7305"/>
</g>
<!-- Node28&#45;&gt;Node17 -->
<g id="edge40" class="edge"><title>Node28&#45;&gt;Node17</title>
<path fill="none" stroke="midnightblue" d="M363.757,-130.372C349.722,-119.6 325.488,-101.002 308.424,-87.9065"/>
<polygon fill="midnightblue" stroke="midnightblue" points="310.31,-84.9421 300.246,-81.6305 306.048,-90.4953 310.31,-84.9421"/>
</g>
<!-- Node28&#45;&gt;Node18 -->
<g id="edge41" class="edge"><title>Node28&#45;&gt;Node18</title>
<path fill="none" stroke="midnightblue" d="M354.344,-130.372C327.021,-118.958 278.659,-98.7562 247.224,-85.6252"/>
<polygon fill="midnightblue" stroke="midnightblue" points="248.237,-82.2554 237.661,-81.6305 245.539,-88.7145 248.237,-82.2554"/>
</g>
<!-- Node28&#45;&gt;Node22 -->
<g id="edge42" class="edge"><title>Node28&#45;&gt;Node22</title>
<path fill="none" stroke="midnightblue" d="M388.052,-130.32C412.257,-114.425 466.014,-80.069 514,-56 538.915,-43.503 568.159,-31.5706 590.08,-23.137"/>
<polygon fill="midnightblue" stroke="midnightblue" points="591.492,-26.3447 599.595,-19.5188 589.004,-19.8018 591.492,-26.3447"/>
</g>
<!-- Node28&#45;&gt;Node25 -->
<g id="edge43" class="edge"><title>Node28&#45;&gt;Node25</title>
<path fill="none" stroke="midnightblue" d="M409.82,-130.484C419.847,-128.196 430.826,-125.846 441,-124 557.517,-102.857 587.729,-104.453 705,-88 716.997,-86.3169 729.767,-84.4977 742.103,-82.7262"/>
<polygon fill="midnightblue" stroke="midnightblue" points="742.937,-86.1424 752.337,-81.2535 741.94,-79.2137 742.937,-86.1424"/>
</g>
<!-- Node28&#45;&gt;Node27 -->
<g id="edge44" class="edge"><title>Node28&#45;&gt;Node27</title>
<path fill="none" stroke="midnightblue" d="M407.557,-130.439C446.647,-120.161 513.107,-102.685 562.479,-89.7027"/>
<polygon fill="midnightblue" stroke="midnightblue" points="563.644,-93.0154 572.425,-87.0873 561.864,-86.2455 563.644,-93.0154"/>
</g>
<!-- Node29&#45;&gt;Node27 -->
<g id="edge47" class="edge"><title>Node29&#45;&gt;Node27</title>
<path fill="none" stroke="midnightblue" d="M617.387,-124.679C618.713,-116.722 620.399,-106.605 621.927,-97.4356"/>
<polygon fill="midnightblue" stroke="midnightblue" points="625.426,-97.7324 623.618,-87.2931 618.521,-96.5816 625.426,-97.7324"/>
</g>
<!-- Node30&#45;&gt;Node6 -->
<g id="edge51" class="edge"><title>Node30&#45;&gt;Node6</title>
<path fill="none" stroke="midnightblue" d="M302.739,-192.841C267.186,-180.93 216.933,-164.094 183.449,-152.876"/>
<polygon fill="midnightblue" stroke="midnightblue" points="184.224,-149.445 173.63,-149.587 182.001,-156.082 184.224,-149.445"/>
</g>
<!-- Node30&#45;&gt;Node16 -->
<g id="edge49" class="edge"><title>Node30&#45;&gt;Node16</title>
<path fill="none" stroke="midnightblue" d="M372.888,-192.841C395.374,-181.425 426.772,-165.485 448.796,-154.303"/>
<polygon fill="midnightblue" stroke="midnightblue" points="450.567,-157.33 457.899,-149.682 447.398,-151.088 450.567,-157.33"/>
</g>
<!-- Node30&#45;&gt;Node17 -->
<g id="edge50" class="edge"><title>Node30&#45;&gt;Node17</title>
<path fill="none" stroke="midnightblue" d="M332.287,-192.816C324.21,-183.092 314.152,-169.545 308,-156 298.472,-135.023 293.503,-108.823 291.074,-91.5354"/>
<polygon fill="midnightblue" stroke="midnightblue" points="294.545,-91.09 289.821,-81.6065 287.6,-91.9659 294.545,-91.09"/>
</g>
<!-- Node30&#45;&gt;Node28 -->
<g id="edge52" class="edge"><title>Node30&#45;&gt;Node28</title>
<path fill="none" stroke="midnightblue" d="M351.51,-192.679C356.002,-182.796 362.009,-169.579 366.824,-158.986"/>
<polygon fill="midnightblue" stroke="midnightblue" points="370.035,-160.38 370.987,-149.828 363.663,-157.484 370.035,-160.38"/>
</g>
<!-- Node31&#45;&gt;Node2 -->
<g id="edge55" class="edge"><title>Node31&#45;&gt;Node2</title>
<path fill="none" stroke="midnightblue" d="M211.821,-384.841C185.527,-373.272 148.672,-357.055 123.215,-345.855"/>
<polygon fill="midnightblue" stroke="midnightblue" points="124.294,-342.506 113.732,-341.682 121.475,-348.913 124.294,-342.506"/>
</g>
<!-- Node31&#45;&gt;Node9 -->
<g id="edge58" class="edge"><title>Node31&#45;&gt;Node9</title>
<path fill="none" stroke="midnightblue" d="M217.555,-384.949C202.124,-375.85 183.002,-362.931 169,-348 133.821,-310.487 106.934,-255.31 94.5326,-227.084"/>
<polygon fill="midnightblue" stroke="midnightblue" points="97.6581,-225.491 90.5021,-217.678 91.224,-228.248 97.6581,-225.491"/>
</g>
<!-- Node31&#45;&gt;Node13 -->
<g id="edge59" class="edge"><title>Node31&#45;&gt;Node13</title>
<path fill="none" stroke="midnightblue" d="M261.793,-384.679C273.153,-375.536 288.057,-363.54 300.646,-353.407"/>
<polygon fill="midnightblue" stroke="midnightblue" points="302.928,-356.063 308.524,-347.066 298.539,-350.61 302.928,-356.063"/>
</g>
<!-- Node31&#45;&gt;Node14 -->
<g id="edge57" class="edge"><title>Node31&#45;&gt;Node14</title>
<path fill="none" stroke="midnightblue" d="M247.214,-384.813C252.481,-361.566 262.947,-315.371 268.796,-289.556"/>
<polygon fill="midnightblue" stroke="midnightblue" points="272.261,-290.1 271.057,-279.574 265.434,-288.553 272.261,-290.1"/>
</g>
<!-- Node31&#45;&gt;Node15 -->
<g id="edge60" class="edge"><title>Node31&#45;&gt;Node15</title>
<path fill="none" stroke="midnightblue" d="M285.791,-384.997C314.882,-375.079 354.493,-361.238 389,-348 444.668,-326.644 508.716,-299.372 544.974,-283.676"/>
<polygon fill="midnightblue" stroke="midnightblue" points="546.653,-286.762 554.433,-279.571 543.866,-280.341 546.653,-286.762"/>
</g>
<!-- Node32 -->
<g id="node32" class="node"><title>Node32</title>
<polygon fill="white" stroke="#bfbfbf" points="178,-322.5 178,-341.5 216,-341.5 216,-322.5 178,-322.5"/>
<text text-anchor="middle" x="197" y="-329.5" font-family="Helvetica,sans-Serif" font-size="10.00">array</text>
</g>
<!-- Node31&#45;&gt;Node32 -->
<g id="edge56" class="edge"><title>Node31&#45;&gt;Node32</title>
<path fill="none" stroke="midnightblue" d="M233.802,-384.679C226.546,-374.49 216.768,-360.759 209.114,-350.011"/>
<polygon fill="midnightblue" stroke="midnightblue" points="211.939,-347.944 203.287,-341.828 206.237,-352.004 211.939,-347.944"/>
</g>
</g>
</svg>
