<?xml version="1.0" encoding="UTF-8" standalone="no"?>
<!DOCTYPE svg PUBLIC "-//W3C//DTD SVG 1.1//EN"
 "http://www.w3.org/Graphics/SVG/1.1/DTD/svg11.dtd">
<!-- Generated by graphviz version 2.36.0 (20140111.2315)
 -->
<!-- Title: include/shad/data_structures/array.h Pages: 1 -->
<svg width="1117pt" height="492pt"
 viewBox="0.00 0.00 1117.00 492.00" xmlns="http://www.w3.org/2000/svg" xmlns:xlink="http://www.w3.org/1999/xlink">
<g id="graph0" class="graph" transform="scale(1 1) rotate(0) translate(4 488)">
<title>include/shad/data_structures/array.h</title>
<polygon fill="white" stroke="none" points="-4,4 -4,-488 1113,-488 1113,4 -4,4"/>
<!-- Node1 -->
<g id="node1" class="node"><title>Node1</title>
<polygon fill="#bfbfbf" stroke="black" points="760,-453 760,-483 902,-483 902,-453 760,-453"/>
<text text-anchor="start" x="768" y="-471" font-family="Helvetica,sans-Serif" font-size="10.00">include/shad/data_structures</text>
<text text-anchor="middle" x="831" y="-460" font-family="Helvetica,sans-Serif" font-size="10.00">/array.h</text>
</g>
<!-- Node2 -->
<g id="node2" class="node"><title>Node2</title>
<polygon fill="white" stroke="#bfbfbf" points="152,-322.5 152,-341.5 208,-341.5 208,-322.5 152,-322.5"/>
<text text-anchor="middle" x="180" y="-329.5" font-family="Helvetica,sans-Serif" font-size="10.00">algorithm</text>
</g>
<!-- Node1&#45;&gt;Node2 -->
<g id="edge1" class="edge"><title>Node1&#45;&gt;Node2</title>
<path fill="none" stroke="midnightblue" d="M759.98,-466.914C626.703,-465.741 344.729,-458.174 258,-416 228.047,-401.434 203.742,-370.104 190.621,-350.376"/>
<polygon fill="midnightblue" stroke="midnightblue" points="193.438,-348.286 185.102,-341.748 187.542,-352.058 193.438,-348.286"/>
</g>
<!-- Node3 -->
<g id="node3" class="node"><title>Node3</title>
<polygon fill="white" stroke="#bfbfbf" points="1063,-390.5 1063,-409.5 1109,-409.5 1109,-390.5 1063,-390.5"/>
<text text-anchor="middle" x="1086" y="-397.5" font-family="Helvetica,sans-Serif" font-size="10.00">cstring</text>
</g>
<!-- Node1&#45;&gt;Node3 -->
<g id="edge2" class="edge"><title>Node1&#45;&gt;Node3</title>
<path fill="none" stroke="midnightblue" d="M902.446,-453.212C945.376,-444.206 1000.84,-431.293 1049,-416 1051.63,-415.163 1054.35,-414.224 1057.05,-413.233"/>
<polygon fill="midnightblue" stroke="midnightblue" points="1058.57,-416.398 1066.62,-409.516 1056.03,-409.872 1058.57,-416.398"/>
</g>
<!-- Node4 -->
<g id="node4" class="node"><title>Node4</title>
<polygon fill="white" stroke="#bfbfbf" points="824.5,-198.5 824.5,-217.5 883.5,-217.5 883.5,-198.5 824.5,-198.5"/>
<text text-anchor="middle" x="854" y="-205.5" font-family="Helvetica,sans-Serif" font-size="10.00">functional</text>
</g>
<!-- Node1&#45;&gt;Node4 -->
<g id="edge3" class="edge"><title>Node1&#45;&gt;Node4</title>
<path fill="none" stroke="midnightblue" d="M835.171,-452.775C838.095,-442.58 842.001,-428.5 845,-416 852.199,-385.995 855.873,-378.697 859,-348 860.441,-333.851 859.332,-330.218 859,-316 858.278,-285.097 856.386,-249.215 855.147,-227.848"/>
<polygon fill="midnightblue" stroke="midnightblue" points="858.625,-227.369 854.538,-217.594 851.637,-227.784 858.625,-227.369"/>
</g>
<!-- Node5 -->
<g id="node5" class="node"><title>Node5</title>
<polygon fill="white" stroke="#bfbfbf" points="901.5,-198.5 901.5,-217.5 948.5,-217.5 948.5,-198.5 901.5,-198.5"/>
<text text-anchor="middle" x="925" y="-205.5" font-family="Helvetica,sans-Serif" font-size="10.00">iterator</text>
</g>
<!-- Node1&#45;&gt;Node5 -->
<g id="edge4" class="edge"><title>Node1&#45;&gt;Node5</title>
<path fill="none" stroke="midnightblue" d="M841.7,-452.912C848.812,-443.013 857.927,-429.226 864,-416 894.46,-349.66 913.89,-264.392 921.435,-227.438"/>
<polygon fill="midnightblue" stroke="midnightblue" points="924.874,-228.086 923.394,-217.595 918.009,-226.719 924.874,-228.086"/>
</g>
<!-- Node6 -->
<g id="node6" class="node"><title>Node6</title>
<polygon fill="white" stroke="#bfbfbf" points="759,-130.5 759,-149.5 811,-149.5 811,-130.5 759,-130.5"/>
<text text-anchor="middle" x="785" y="-137.5" font-family="Helvetica,sans-Serif" font-size="10.00">memory</text>
</g>
<!-- Node1&#45;&gt;Node6 -->
<g id="edge5" class="edge"><title>Node1&#45;&gt;Node6</title>
<path fill="none" stroke="midnightblue" d="M896.389,-452.964C956.058,-435.86 1035,-400.48 1035,-333 1035,-333 1035,-333 1035,-269 1035,-233.751 1041.23,-216.616 1016,-192 988.672,-165.337 879.191,-150.502 821.304,-144.378"/>
<polygon fill="midnightblue" stroke="midnightblue" points="821.432,-140.873 811.127,-143.335 820.718,-147.837 821.432,-140.873"/>
</g>
<!-- Node7 -->
<g id="node7" class="node"><title>Node7</title>
<polygon fill="white" stroke="#bfbfbf" points="812,-322.5 812,-341.5 850,-341.5 850,-322.5 812,-322.5"/>
<text text-anchor="middle" x="831" y="-329.5" font-family="Helvetica,sans-Serif" font-size="10.00">tuple</text>
</g>
<!-- Node1&#45;&gt;Node7 -->
<g id="edge6" class="edge"><title>Node1&#45;&gt;Node7</title>
<path fill="none" stroke="midnightblue" d="M831,-452.66C831,-428.32 831,-378.933 831,-351.837"/>
<polygon fill="midnightblue" stroke="midnightblue" points="834.5,-351.727 831,-341.728 827.5,-351.728 834.5,-351.727"/>
</g>
<!-- Node8 -->
<g id="node8" class="node"><title>Node8</title>
<polygon fill="white" stroke="#bfbfbf" points="967,-198.5 967,-217.5 1007,-217.5 1007,-198.5 967,-198.5"/>
<text text-anchor="middle" x="987" y="-205.5" font-family="Helvetica,sans-Serif" font-size="10.00">utility</text>
</g>
<!-- Node1&#45;&gt;Node8 -->
<g id="edge7" class="edge"><title>Node1&#45;&gt;Node8</title>
<path fill="none" stroke="midnightblue" d="M848.858,-452.977C860.21,-443.423 874.661,-430.006 885,-416 931.56,-352.926 966.538,-265.33 980.435,-227.554"/>
<polygon fill="midnightblue" stroke="midnightblue" points="983.819,-228.49 983.926,-217.895 977.235,-226.111 983.819,-228.49"/>
</g>
<!-- Node9 -->
<g id="node9" class="node"><title>Node9</title>
<polygon fill="white" stroke="#bfbfbf" points="0,-198.5 0,-217.5 44,-217.5 44,-198.5 0,-198.5"/>
<text text-anchor="middle" x="22" y="-205.5" font-family="Helvetica,sans-Serif" font-size="10.00">vector</text>
</g>
<!-- Node1&#45;&gt;Node9 -->
<g id="edge8" class="edge"><title>Node1&#45;&gt;Node9</title>
<path fill="none" stroke="midnightblue" d="M759.829,-466.961C619.13,-465.938 310.73,-458.718 215,-416 123.612,-375.22 55.4766,-268.304 31.4401,-226.299"/>
<polygon fill="midnightblue" stroke="midnightblue" points="34.4608,-224.53 26.5202,-217.516 28.3536,-227.951 34.4608,-224.53"/>
</g>
<!-- Node10 -->
<g id="node10" class="node"><title>Node10</title>
<g id="a_node10"><a xlink:href="abstract__data__structure_8h.html" target="_top" xlink:title="shad/data_structures\l/abstract_data_structure.h">
<polygon fill="white" stroke="black" points="642.5,-385 642.5,-415 773.5,-415 773.5,-385 642.5,-385"/>
<text text-anchor="start" x="650.5" y="-403" font-family="Helvetica,sans-Serif" font-size="10.00">shad/data_structures</text>
<text text-anchor="middle" x="708" y="-392" font-family="Helvetica,sans-Serif" font-size="10.00">/abstract_data_structure.h</text>
</a>
</g>
</g>
<!-- Node1&#45;&gt;Node10 -->
<g id="edge9" class="edge"><title>Node1&#45;&gt;Node10</title>
<path fill="none" stroke="midnightblue" d="M804.613,-452.841C786.698,-443.228 762.803,-430.407 743.26,-419.92"/>
<polygon fill="midnightblue" stroke="midnightblue" points="744.809,-416.779 734.343,-415.135 741.5,-422.948 744.809,-416.779"/>
</g>
<!-- Node15 -->
<g id="node15" class="node"><title>Node15</title>
<g id="a_node15"><a xlink:href="runtime_8h.html" target="_top" xlink:title="shad/runtime/runtime.h">
<polygon fill="white" stroke="black" points="455,-260.5 455,-279.5 571,-279.5 571,-260.5 455,-260.5"/>
<text text-anchor="middle" x="513" y="-267.5" font-family="Helvetica,sans-Serif" font-size="10.00">shad/runtime/runtime.h</text>
</a>
</g>
</g>
<!-- Node1&#45;&gt;Node15 -->
<g id="edge60" class="edge"><title>Node1&#45;&gt;Node15</title>
<path fill="none" stroke="midnightblue" d="M759.83,-459.611C720.083,-452.907 671.056,-440.167 633,-416 580.73,-382.807 540.093,-319.307 522.506,-288.554"/>
<polygon fill="midnightblue" stroke="midnightblue" points="525.55,-286.826 517.62,-279.799 519.437,-290.237 525.55,-286.826"/>
</g>
<!-- Node31 -->
<g id="node31" class="node"><title>Node31</title>
<g id="a_node31"><a xlink:href="buffer_8h.html" target="_top" xlink:title="shad/data_structures\l/buffer.h">
<polygon fill="white" stroke="black" points="267,-385 267,-415 375,-415 375,-385 267,-385"/>
<text text-anchor="start" x="275" y="-403" font-family="Helvetica,sans-Serif" font-size="10.00">shad/data_structures</text>
<text text-anchor="middle" x="321" y="-392" font-family="Helvetica,sans-Serif" font-size="10.00">/buffer.h</text>
</a>
</g>
</g>
<!-- Node1&#45;&gt;Node31 -->
<g id="edge53" class="edge"><title>Node1&#45;&gt;Node31</title>
<path fill="none" stroke="midnightblue" d="M759.818,-457.788C660.313,-444.911 481.109,-421.72 385.389,-409.333"/>
<polygon fill="midnightblue" stroke="midnightblue" points="385.632,-405.835 375.266,-408.023 384.734,-412.777 385.632,-405.835"/>
</g>
<!-- Node10&#45;&gt;Node6 -->
<g id="edge12" class="edge"><title>Node10&#45;&gt;Node6</title>
<path fill="none" stroke="midnightblue" d="M712.787,-384.548C722.623,-354.687 745.641,-283.958 763,-224 769.393,-201.917 776.068,-176.319 780.364,-159.455"/>
<polygon fill="midnightblue" stroke="midnightblue" points="783.758,-160.312 782.818,-149.759 776.972,-158.595 783.758,-160.312"/>
</g>
<!-- Node10&#45;&gt;Node7 -->
<g id="edge13" class="edge"><title>Node10&#45;&gt;Node7</title>
<path fill="none" stroke="midnightblue" d="M734.387,-384.841C755.567,-373.476 785.102,-357.628 805.927,-346.454"/>
<polygon fill="midnightblue" stroke="midnightblue" points="807.663,-349.494 814.82,-341.682 804.354,-343.326 807.663,-349.494"/>
</g>
<!-- Node10&#45;&gt;Node8 -->
<g id="edge14" class="edge"><title>Node10&#45;&gt;Node8</title>
<path fill="none" stroke="midnightblue" d="M722.401,-384.847C740.406,-367.532 772.572,-337.834 803,-316 856.33,-277.733 924.238,-241.056 960.818,-222.186"/>
<polygon fill="midnightblue" stroke="midnightblue" points="962.536,-225.238 969.842,-217.565 959.346,-219.008 962.536,-225.238"/>
</g>
<!-- Node10&#45;&gt;Node9 -->
<g id="edge15" class="edge"><title>Node10&#45;&gt;Node9</title>
<path fill="none" stroke="midnightblue" d="M672.861,-384.91C647.963,-374.838 613.822,-360.849 584,-348 489.932,-307.47 470.367,-284.852 371,-260 235.156,-226.025 193.512,-259.274 58,-224 55.1742,-223.264 52.2789,-222.351 49.4177,-221.341"/>
<polygon fill="midnightblue" stroke="midnightblue" points="50.5595,-218.029 39.9715,-217.649 48.0113,-224.549 50.5595,-218.029"/>
</g>
<!-- Node11 -->
<g id="node11" class="node"><title>Node11</title>
<polygon fill="white" stroke="#bfbfbf" points="636.5,-322.5 636.5,-341.5 679.5,-341.5 679.5,-322.5 636.5,-322.5"/>
<text text-anchor="middle" x="658" y="-329.5" font-family="Helvetica,sans-Serif" font-size="10.00">deque</text>
</g>
<!-- Node10&#45;&gt;Node11 -->
<g id="edge10" class="edge"><title>Node10&#45;&gt;Node11</title>
<path fill="none" stroke="midnightblue" d="M697.151,-384.679C689.432,-374.49 679.029,-360.759 670.887,-350.011"/>
<polygon fill="midnightblue" stroke="midnightblue" points="673.517,-347.686 664.688,-341.828 667.937,-351.913 673.517,-347.686"/>
</g>
<!-- Node12 -->
<g id="node12" class="node"><title>Node12</title>
<polygon fill="white" stroke="#bfbfbf" points="652,-260.5 652,-279.5 692,-279.5 692,-260.5 652,-260.5"/>
<text text-anchor="middle" x="672" y="-267.5" font-family="Helvetica,sans-Serif" font-size="10.00">limits</text>
</g>
<!-- Node10&#45;&gt;Node12 -->
<g id="edge11" class="edge"><title>Node10&#45;&gt;Node12</title>
<path fill="none" stroke="midnightblue" d="M705.051,-384.781C701.493,-368.155 695.098,-339.868 688,-316 685.338,-307.048 681.921,-297.261 678.929,-289.108"/>
<polygon fill="midnightblue" stroke="midnightblue" points="682.128,-287.672 675.339,-279.538 675.574,-290.13 682.128,-287.672"/>
</g>
<!-- Node13 -->
<g id="node13" class="node"><title>Node13</title>
<g id="a_node13"><a xlink:href="object__identifier_8h.html" target="_top" xlink:title="shad/data_structures\l/object_identifier.h">
<polygon fill="white" stroke="black" points="396,-317 396,-347 504,-347 504,-317 396,-317"/>
<text text-anchor="start" x="404" y="-335" font-family="Helvetica,sans-Serif" font-size="10.00">shad/data_structures</text>
<text text-anchor="middle" x="450" y="-324" font-family="Helvetica,sans-Serif" font-size="10.00">/object_identifier.h</text>
</a>
</g>
</g>
<!-- Node10&#45;&gt;Node13 -->
<g id="edge16" class="edge"><title>Node10&#45;&gt;Node13</title>
<path fill="none" stroke="midnightblue" d="M652.969,-384.922C612.192,-374.491 556.521,-360.25 513.797,-349.32"/>
<polygon fill="midnightblue" stroke="midnightblue" points="514.617,-345.917 504.061,-346.83 512.882,-352.699 514.617,-345.917"/>
</g>
<!-- Node10&#45;&gt;Node15 -->
<g id="edge52" class="edge"><title>Node10&#45;&gt;Node15</title>
<path fill="none" stroke="midnightblue" d="M684.647,-384.962C668.296,-374.972 646.053,-361.059 627,-348 607.35,-334.532 603.63,-329.497 584,-316 568.217,-305.148 549.955,-293.595 535.904,-284.912"/>
<polygon fill="midnightblue" stroke="midnightblue" points="537.701,-281.908 527.348,-279.657 534.037,-287.873 537.701,-281.908"/>
</g>
<!-- Node13&#45;&gt;Node12 -->
<g id="edge18" class="edge"><title>Node13&#45;&gt;Node12</title>
<path fill="none" stroke="midnightblue" d="M502.049,-316.933C545.557,-305.174 606.087,-288.814 641.938,-279.125"/>
<polygon fill="midnightblue" stroke="midnightblue" points="643.052,-282.449 651.793,-276.461 641.226,-275.692 643.052,-282.449"/>
</g>
<!-- Node14 -->
<g id="node14" class="node"><title>Node14</title>
<polygon fill="white" stroke="#bfbfbf" points="316,-260.5 316,-279.5 362,-279.5 362,-260.5 316,-260.5"/>
<text text-anchor="middle" x="339" y="-267.5" font-family="Helvetica,sans-Serif" font-size="10.00">atomic</text>
</g>
<!-- Node13&#45;&gt;Node14 -->
<g id="edge17" class="edge"><title>Node13&#45;&gt;Node14</title>
<path fill="none" stroke="midnightblue" d="M423.975,-316.933C405.917,-307.171 381.994,-294.24 364.133,-284.586"/>
<polygon fill="midnightblue" stroke="midnightblue" points="365.371,-281.276 354.91,-279.6 362.043,-287.434 365.371,-281.276"/>
</g>
<!-- Node13&#45;&gt;Node15 -->
<g id="edge19" class="edge"><title>Node13&#45;&gt;Node15</title>
<path fill="none" stroke="midnightblue" d="M464.93,-316.781C474.368,-307.792 486.58,-296.162 496.333,-286.873"/>
<polygon fill="midnightblue" stroke="midnightblue" points="499.005,-289.162 503.833,-279.731 494.178,-284.093 499.005,-289.162"/>
</g>
<!-- Node15&#45;&gt;Node4 -->
<g id="edge22" class="edge"><title>Node15&#45;&gt;Node4</title>
<path fill="none" stroke="midnightblue" d="M563.159,-260.421C615.351,-251.463 699.438,-236.94 772,-224 785.851,-221.53 801.008,-218.773 814.481,-216.302"/>
<polygon fill="midnightblue" stroke="midnightblue" points="815.204,-219.728 824.407,-214.479 813.939,-212.844 815.204,-219.728"/>
</g>
<!-- Node15&#45;&gt;Node5 -->
<g id="edge24" class="edge"><title>Node15&#45;&gt;Node5</title>
<path fill="none" stroke="midnightblue" d="M571.033,-264.31C661.794,-256.604 833.049,-240.468 892,-224 894.493,-223.304 897.036,-222.444 899.55,-221.491"/>
<polygon fill="midnightblue" stroke="midnightblue" points="901.091,-224.639 908.925,-217.506 898.353,-218.197 901.091,-224.639"/>
</g>
<!-- Node15&#45;&gt;Node6 -->
<g id="edge26" class="edge"><title>Node15&#45;&gt;Node6</title>
<path fill="none" stroke="midnightblue" d="M571.044,-262.472C627.419,-255.207 708.171,-242.066 734,-224 756.802,-208.051 771.361,-178.319 778.853,-159.108"/>
<polygon fill="midnightblue" stroke="midnightblue" points="782.156,-160.266 782.296,-149.672 775.58,-157.867 782.156,-160.266"/>
</g>
<!-- Node15&#45;&gt;Node8 -->
<g id="edge29" class="edge"><title>Node15&#45;&gt;Node8</title>
<path fill="none" stroke="midnightblue" d="M571.297,-264.274C683.319,-255.019 920.818,-234.496 957,-224 958.971,-223.428 960.969,-222.729 962.947,-221.949"/>
<polygon fill="midnightblue" stroke="midnightblue" points="964.844,-224.931 972.48,-217.586 961.93,-218.566 964.844,-224.931"/>
</g>
<!-- Node15&#45;&gt;Node9 -->
<g id="edge30" class="edge"><title>Node15&#45;&gt;Node9</title>
<path fill="none" stroke="midnightblue" d="M454.859,-261.577C450.172,-261.026 445.508,-260.494 441,-260 271.043,-241.395 223.898,-265.347 58,-224 55.0087,-223.254 51.9426,-222.3 48.923,-221.234"/>
<polygon fill="midnightblue" stroke="midnightblue" points="50.1715,-217.964 39.584,-217.569 47.6145,-224.48 50.1715,-217.964"/>
</g>
<!-- Node16 -->
<g id="node16" class="node"><title>Node16</title>
<polygon fill="white" stroke="#bfbfbf" points="602.5,-130.5 602.5,-149.5 651.5,-149.5 651.5,-130.5 602.5,-130.5"/>
<text text-anchor="middle" x="627" y="-137.5" font-family="Helvetica,sans-Serif" font-size="10.00">cstddef</text>
</g>
<!-- Node15&#45;&gt;Node16 -->
<g id="edge20" class="edge"><title>Node15&#45;&gt;Node16</title>
<path fill="none" stroke="midnightblue" d="M515.711,-260.051C520.699,-244.729 532.539,-213.087 551,-192 564.737,-176.309 584.364,-163.303 600.231,-154.352"/>
<polygon fill="midnightblue" stroke="midnightblue" points="601.944,-157.405 609.066,-149.561 598.607,-151.251 601.944,-157.405"/>
</g>
<!-- Node17 -->
<g id="node17" class="node"><title>Node17</title>
<polygon fill="white" stroke="#bfbfbf" points="657,-62.5 657,-81.5 703,-81.5 703,-62.5 657,-62.5"/>
<text text-anchor="middle" x="680" y="-69.5" font-family="Helvetica,sans-Serif" font-size="10.00">cstdint</text>
</g>
<!-- Node15&#45;&gt;Node17 -->
<g id="edge21" class="edge"><title>Node15&#45;&gt;Node17</title>
<path fill="none" stroke="midnightblue" d="M571.301,-262.816C620.066,-256.299 684.139,-244.131 700,-224 730.878,-184.81 705.378,-121.368 689.83,-90.7076"/>
<polygon fill="midnightblue" stroke="midnightblue" points="692.806,-88.8493 685.034,-81.649 686.62,-92.1245 692.806,-88.8493"/>
</g>
<!-- Node18 -->
<g id="node18" class="node"><title>Node18</title>
<polygon fill="white" stroke="#bfbfbf" points="138,-198.5 138,-217.5 192,-217.5 192,-198.5 138,-198.5"/>
<text text-anchor="middle" x="165" y="-205.5" font-family="Helvetica,sans-Serif" font-size="10.00">iostream</text>
</g>
<!-- Node15&#45;&gt;Node18 -->
<g id="edge23" class="edge"><title>Node15&#45;&gt;Node18</title>
<path fill="none" stroke="midnightblue" d="M454.846,-261.416C371.359,-250.406 224.906,-230.591 201,-224 198.185,-223.224 195.297,-222.284 192.44,-221.257"/>
<polygon fill="midnightblue" stroke="midnightblue" points="193.587,-217.947 183,-217.542 191.024,-224.461 193.587,-217.947"/>
</g>
<!-- Node19 -->
<g id="node19" class="node"><title>Node19</title>
<polygon fill="white" stroke="#bfbfbf" points="210.5,-198.5 210.5,-217.5 245.5,-217.5 245.5,-198.5 210.5,-198.5"/>
<text text-anchor="middle" x="228" y="-205.5" font-family="Helvetica,sans-Serif" font-size="10.00">map</text>
</g>
<!-- Node15&#45;&gt;Node19 -->
<g id="edge25" class="edge"><title>Node15&#45;&gt;Node19</title>
<path fill="none" stroke="midnightblue" d="M454.977,-261.177C390.57,-252.088 290.954,-236.714 255,-224 253.547,-223.486 252.079,-222.898 250.619,-222.26"/>
<polygon fill="midnightblue" stroke="midnightblue" points="251.822,-218.946 241.319,-217.556 248.662,-225.193 251.822,-218.946"/>
</g>
<!-- Node20 -->
<g id="node20" class="node"><title>Node20</title>
<polygon fill="white" stroke="#bfbfbf" points="264,-198.5 264,-217.5 294,-217.5 294,-198.5 264,-198.5"/>
<text text-anchor="middle" x="279" y="-205.5" font-family="Helvetica,sans-Serif" font-size="10.00">set</text>
</g>
<!-- Node15&#45;&gt;Node20 -->
<g id="edge27" class="edge"><title>Node15&#45;&gt;Node20</title>
<path fill="none" stroke="midnightblue" d="M454.806,-262.07C411.736,-255.63 352.246,-243.947 303,-224 302.123,-223.645 301.243,-223.258 300.364,-222.847"/>
<polygon fill="midnightblue" stroke="midnightblue" points="301.707,-219.59 291.264,-217.804 298.314,-225.713 301.707,-219.59"/>
</g>
<!-- Node21 -->
<g id="node21" class="node"><title>Node21</title>
<polygon fill="white" stroke="#bfbfbf" points="312,-198.5 312,-217.5 390,-217.5 390,-198.5 312,-198.5"/>
<text text-anchor="middle" x="351" y="-205.5" font-family="Helvetica,sans-Serif" font-size="10.00">unordered_set</text>
</g>
<!-- Node15&#45;&gt;Node21 -->
<g id="edge28" class="edge"><title>Node15&#45;&gt;Node21</title>
<path fill="none" stroke="midnightblue" d="M489.789,-260.403C462.001,-250.111 415.277,-232.806 383.806,-221.15"/>
<polygon fill="midnightblue" stroke="midnightblue" points="384.761,-217.772 374.168,-217.581 382.329,-224.336 384.761,-217.772"/>
</g>
<!-- Node22 -->
<g id="node22" class="node"><title>Node22</title>
<polygon fill="white" stroke="#bfbfbf" points="233,-0.5 233,-19.5 337,-19.5 337,-0.5 233,-0.5"/>
<text text-anchor="middle" x="285" y="-7.5" font-family="Helvetica,sans-Serif" font-size="10.00">shad/config/config.h</text>
</g>
<!-- Node15&#45;&gt;Node22 -->
<g id="edge31" class="edge"><title>Node15&#45;&gt;Node22</title>
<path fill="none" stroke="midnightblue" d="M454.91,-263.395C345.255,-252.691 118.129,-229.881 112,-224 57.7006,-171.906 44.1877,-114.914 91,-56 107.3,-35.4868 172.296,-23.49 222.616,-17.1156"/>
<polygon fill="midnightblue" stroke="midnightblue" points="223.283,-20.5603 232.787,-15.8772 222.437,-13.6116 223.283,-20.5603"/>
</g>
<!-- Node23 -->
<g id="node23" class="node"><title>Node23</title>
<g id="a_node23"><a xlink:href="handle_8h.html" target="_top" xlink:title="shad/runtime/handle.h">
<polygon fill="white" stroke="black" points="201.5,-130.5 201.5,-149.5 314.5,-149.5 314.5,-130.5 201.5,-130.5"/>
<text text-anchor="middle" x="258" y="-137.5" font-family="Helvetica,sans-Serif" font-size="10.00">shad/runtime/handle.h</text>
</a>
</g>
</g>
<!-- Node15&#45;&gt;Node23 -->
<g id="edge32" class="edge"><title>Node15&#45;&gt;Node23</title>
<path fill="none" stroke="midnightblue" d="M497.065,-260.34C481.585,-251.721 457.613,-237.818 438,-224 419.671,-211.086 418.49,-203.084 399,-192 368.031,-174.387 329.874,-161.03 301.067,-152.412"/>
<polygon fill="midnightblue" stroke="midnightblue" points="301.875,-149.002 291.295,-149.562 299.915,-155.722 301.875,-149.002"/>
</g>
<!-- Node25 -->
<g id="node25" class="node"><title>Node25</title>
<g id="a_node25"><a xlink:href="mapping__traits_8h.html" target="_top" xlink:title="shad/runtime/mapping\l_traits.h">
<polygon fill="white" stroke="black" points="100.5,-57 100.5,-87 213.5,-87 213.5,-57 100.5,-57"/>
<text text-anchor="start" x="108.5" y="-75" font-family="Helvetica,sans-Serif" font-size="10.00">shad/runtime/mapping</text>
<text text-anchor="middle" x="157" y="-64" font-family="Helvetica,sans-Serif" font-size="10.00">_traits.h</text>
</a>
</g>
</g>
<!-- Node15&#45;&gt;Node25 -->
<g id="edge44" class="edge"><title>Node15&#45;&gt;Node25</title>
<path fill="none" stroke="midnightblue" d="M454.847,-261.683C450.163,-261.108 445.503,-260.541 441,-260 371.705,-251.672 175.437,-276.103 129,-224 97.1927,-188.312 123.676,-128.542 142.4,-95.9305"/>
<polygon fill="midnightblue" stroke="midnightblue" points="145.541,-97.498 147.655,-87.1163 139.528,-93.9136 145.541,-97.498"/>
</g>
<!-- Node28 -->
<g id="node28" class="node"><title>Node28</title>
<g id="a_node28"><a xlink:href="locality_8h.html" target="_top" xlink:title="shad/runtime/locality.h">
<polygon fill="white" stroke="black" points="469.5,-130.5 469.5,-149.5 584.5,-149.5 584.5,-130.5 469.5,-130.5"/>
<text text-anchor="middle" x="527" y="-137.5" font-family="Helvetica,sans-Serif" font-size="10.00">shad/runtime/locality.h</text>
</a>
</g>
</g>
<!-- Node15&#45;&gt;Node28 -->
<g id="edge39" class="edge"><title>Node15&#45;&gt;Node28</title>
<path fill="none" stroke="midnightblue" d="M513.249,-260.426C513.733,-246.177 515.023,-216.738 518,-192 519.297,-181.221 521.373,-169.264 523.204,-159.638"/>
<polygon fill="midnightblue" stroke="midnightblue" points="526.679,-160.108 525.18,-149.62 519.811,-158.753 526.679,-160.108"/>
</g>
<!-- Node29 -->
<g id="node29" class="node"><title>Node29</title>
<g id="a_node29"><a xlink:href="available__mappings_8h.html" target="_top" xlink:title="shad/runtime/mappings\l/available_mappings.h">
<polygon fill="white" stroke="black" points="333,-125 333,-155 451,-155 451,-125 333,-125"/>
<text text-anchor="start" x="341" y="-143" font-family="Helvetica,sans-Serif" font-size="10.00">shad/runtime/mappings</text>
<text text-anchor="middle" x="392" y="-132" font-family="Helvetica,sans-Serif" font-size="10.00">/available_mappings.h</text>
</a>
</g>
</g>
<!-- Node15&#45;&gt;Node29 -->
<g id="edge45" class="edge"><title>Node15&#45;&gt;Node29</title>
<path fill="none" stroke="midnightblue" d="M504.683,-260.202C485.845,-240.274 439.459,-191.204 412.438,-162.621"/>
<polygon fill="midnightblue" stroke="midnightblue" points="414.783,-160.006 405.37,-155.143 409.696,-164.814 414.783,-160.006"/>
</g>
<!-- Node30 -->
<g id="node30" class="node"><title>Node30</title>
<g id="a_node30"><a xlink:href="synchronous__interface_8h.html" target="_top" xlink:title="shad/runtime/synchronous\l_interface.h">
<polygon fill="white" stroke="black" points="560.5,-193 560.5,-223 691.5,-223 691.5,-193 560.5,-193"/>
<text text-anchor="start" x="568.5" y="-211" font-family="Helvetica,sans-Serif" font-size="10.00">shad/runtime/synchronous</text>
<text text-anchor="middle" x="626" y="-200" font-family="Helvetica,sans-Serif" font-size="10.00">_interface.h</text>
</a>
</g>
</g>
<!-- Node15&#45;&gt;Node30 -->
<g id="edge47" class="edge"><title>Node15&#45;&gt;Node30</title>
<path fill="none" stroke="midnightblue" d="M529.19,-260.403C545.067,-251.974 569.803,-238.839 590.298,-227.957"/>
<polygon fill="midnightblue" stroke="midnightblue" points="592.177,-230.922 599.368,-223.141 588.895,-224.739 592.177,-230.922"/>
</g>
<!-- Node23&#45;&gt;Node22 -->
<g id="edge34" class="edge"><title>Node23&#45;&gt;Node22</title>
<path fill="none" stroke="midnightblue" d="M269.171,-130.262C279.923,-121.075 295.48,-105.538 302,-88 309.279,-68.4212 301.842,-44.8283 294.646,-28.961"/>
<polygon fill="midnightblue" stroke="midnightblue" points="297.673,-27.1871 290.108,-19.7694 291.396,-30.2857 297.673,-27.1871"/>
</g>
<!-- Node24 -->
<g id="node24" class="node"><title>Node24</title>
<polygon fill="white" stroke="#bfbfbf" points="232,-62.5 232,-81.5 294,-81.5 294,-62.5 232,-62.5"/>
<text text-anchor="middle" x="263" y="-69.5" font-family="Helvetica,sans-Serif" font-size="10.00">type_traits</text>
</g>
<!-- Node23&#45;&gt;Node24 -->
<g id="edge33" class="edge"><title>Node23&#45;&gt;Node24</title>
<path fill="none" stroke="midnightblue" d="M258.654,-130.372C259.391,-120.643 260.612,-104.528 261.572,-91.8504"/>
<polygon fill="midnightblue" stroke="midnightblue" points="265.065,-92.077 262.33,-81.8411 258.085,-91.5481 265.065,-92.077"/>
</g>
<!-- Node23&#45;&gt;Node25 -->
<g id="edge35" class="edge"><title>Node23&#45;&gt;Node25</title>
<path fill="none" stroke="midnightblue" d="M244.796,-130.372C230.236,-120.857 206.33,-105.236 187.138,-92.6941"/>
<polygon fill="midnightblue" stroke="midnightblue" points="188.988,-89.7218 178.702,-87.1815 185.158,-95.5817 188.988,-89.7218"/>
</g>
<!-- Node27 -->
<g id="node27" class="node"><title>Node27</title>
<g id="a_node27"><a xlink:href="available__traits__mappings_8h.html" target="_top" xlink:title="shad/runtime/mappings\l/available_traits_mappings.h">
<polygon fill="white" stroke="black" points="350,-57 350,-87 490,-87 490,-57 350,-57"/>
<text text-anchor="start" x="358" y="-75" font-family="Helvetica,sans-Serif" font-size="10.00">shad/runtime/mappings</text>
<text text-anchor="middle" x="420" y="-64" font-family="Helvetica,sans-Serif" font-size="10.00">/available_traits_mappings.h</text>
</a>
</g>
</g>
<!-- Node23&#45;&gt;Node27 -->
<g id="edge38" class="edge"><title>Node23&#45;&gt;Node27</title>
<path fill="none" stroke="midnightblue" d="M279.179,-130.372C303.662,-120.397 344.621,-103.71 376.072,-90.8967"/>
<polygon fill="midnightblue" stroke="midnightblue" points="377.558,-94.0706 385.498,-87.0562 374.917,-87.5879 377.558,-94.0706"/>
</g>
<!-- Node25&#45;&gt;Node22 -->
<g id="edge37" class="edge"><title>Node25&#45;&gt;Node22</title>
<path fill="none" stroke="midnightblue" d="M187.01,-56.9327C208.316,-46.9455 236.702,-33.6397 257.436,-23.9205"/>
<polygon fill="midnightblue" stroke="midnightblue" points="259.084,-27.0135 266.653,-19.6 256.113,-20.6753 259.084,-27.0135"/>
</g>
<!-- Node26 -->
<g id="node26" class="node"><title>Node26</title>
<polygon fill="white" stroke="#bfbfbf" points="136.5,-0.5 136.5,-19.5 177.5,-19.5 177.5,-0.5 136.5,-0.5"/>
<text text-anchor="middle" x="157" y="-7.5" font-family="Helvetica,sans-Serif" font-size="10.00">string</text>
</g>
<!-- Node25&#45;&gt;Node26 -->
<g id="edge36" class="edge"><title>Node25&#45;&gt;Node26</title>
<path fill="none" stroke="midnightblue" d="M157,-56.7808C157,-48.7812 157,-38.6887 157,-30.0168"/>
<polygon fill="midnightblue" stroke="midnightblue" points="160.5,-29.7305 157,-19.7305 153.5,-29.7306 160.5,-29.7305"/>
</g>
<!-- Node28&#45;&gt;Node17 -->
<g id="edge40" class="edge"><title>Node28&#45;&gt;Node17</title>
<path fill="none" stroke="midnightblue" d="M547.002,-130.372C573.461,-118.958 620.293,-98.7562 650.732,-85.6252"/>
<polygon fill="midnightblue" stroke="midnightblue" points="652.197,-88.8052 659.993,-81.6305 649.425,-82.3777 652.197,-88.8052"/>
</g>
<!-- Node28&#45;&gt;Node22 -->
<g id="edge41" class="edge"><title>Node28&#45;&gt;Node22</title>
<path fill="none" stroke="midnightblue" d="M526.765,-130.463C525.811,-113.544 521.17,-75.695 499,-56 476.822,-36.2983 401.976,-23.8813 347.028,-17.1969"/>
<polygon fill="midnightblue" stroke="midnightblue" points="347.358,-13.7116 337.016,-16.015 346.537,-20.6633 347.358,-13.7116"/>
</g>
<!-- Node28&#45;&gt;Node25 -->
<g id="edge42" class="edge"><title>Node28&#45;&gt;Node25</title>
<path fill="none" stroke="midnightblue" d="M490.932,-130.442C480.942,-128.204 470.075,-125.891 460,-124 358.456,-104.945 329.424,-107.63 223.935,-88.0876"/>
<polygon fill="midnightblue" stroke="midnightblue" points="224.301,-84.5953 213.827,-86.191 223.01,-91.4753 224.301,-84.5953"/>
</g>
<!-- Node28&#45;&gt;Node27 -->
<g id="edge43" class="edge"><title>Node28&#45;&gt;Node27</title>
<path fill="none" stroke="midnightblue" d="M513.012,-130.372C497.517,-120.814 472.033,-105.095 451.654,-92.5248"/>
<polygon fill="midnightblue" stroke="midnightblue" points="453.34,-89.4524 442.991,-87.1815 449.665,-95.4102 453.34,-89.4524"/>
</g>
<!-- Node29&#45;&gt;Node27 -->
<g id="edge46" class="edge"><title>Node29&#45;&gt;Node27</title>
<path fill="none" stroke="midnightblue" d="M398.076,-124.679C401.561,-116.463 406.024,-105.943 410.013,-96.5417"/>
<polygon fill="midnightblue" stroke="midnightblue" points="413.253,-97.8658 413.936,-87.2931 406.809,-95.1319 413.253,-97.8658"/>
</g>
<!-- Node30&#45;&gt;Node6 -->
<g id="edge50" class="edge"><title>Node30&#45;&gt;Node6</title>
<path fill="none" stroke="midnightblue" d="M660.109,-192.841C688.228,-181.169 727.741,-164.768 754.745,-153.558"/>
<polygon fill="midnightblue" stroke="midnightblue" points="756.19,-156.748 764.085,-149.682 753.507,-150.283 756.19,-156.748"/>
</g>
<!-- Node30&#45;&gt;Node16 -->
<g id="edge48" class="edge"><title>Node30&#45;&gt;Node16</title>
<path fill="none" stroke="midnightblue" d="M626.217,-192.679C626.362,-183.101 626.555,-170.394 626.712,-159.977"/>
<polygon fill="midnightblue" stroke="midnightblue" points="630.214,-159.88 626.866,-149.828 623.215,-159.774 630.214,-159.88"/>
</g>
<!-- Node30&#45;&gt;Node17 -->
<g id="edge49" class="edge"><title>Node30&#45;&gt;Node17</title>
<path fill="none" stroke="midnightblue" d="M637.586,-192.628C644.968,-182.825 654.202,-169.26 660,-156 669.168,-135.035 674.551,-109.173 677.381,-91.9432"/>
<polygon fill="midnightblue" stroke="midnightblue" points="680.917,-91.9708 678.947,-81.5606 673.995,-90.9267 680.917,-91.9708"/>
</g>
<!-- Node30&#45;&gt;Node28 -->
<g id="edge51" class="edge"><title>Node30&#45;&gt;Node28</title>
<path fill="none" stroke="midnightblue" d="M604.518,-192.679C587.916,-181.611 565.044,-166.363 548.45,-155.3"/>
<polygon fill="midnightblue" stroke="midnightblue" points="550.219,-152.273 539.957,-149.638 546.336,-158.097 550.219,-152.273"/>
</g>
<!-- Node31&#45;&gt;Node2 -->
<g id="edge54" class="edge"><title>Node31&#45;&gt;Node2</title>
<path fill="none" stroke="midnightblue" d="M290.752,-384.841C266.144,-373.323 231.698,-357.199 207.78,-346.004"/>
<polygon fill="midnightblue" stroke="midnightblue" points="209.088,-342.751 198.548,-341.682 206.121,-349.091 209.088,-342.751"/>
</g>
<!-- Node31&#45;&gt;Node9 -->
<g id="edge57" class="edge"><title>Node31&#45;&gt;Node9</title>
<path fill="none" stroke="midnightblue" d="M304.906,-384.898C284.826,-367.636 249.095,-337.99 216,-316 158.948,-278.091 87.3902,-241.145 49.1178,-222.167"/>
<polygon fill="midnightblue" stroke="midnightblue" points="50.2063,-218.801 39.689,-217.522 47.1127,-225.081 50.2063,-218.801"/>
</g>
<!-- Node31&#45;&gt;Node13 -->
<g id="edge58" class="edge"><title>Node31&#45;&gt;Node13</title>
<path fill="none" stroke="midnightblue" d="M348.674,-384.841C367.548,-375.185 392.75,-362.29 413.298,-351.778"/>
<polygon fill="midnightblue" stroke="midnightblue" points="415.064,-354.806 422.372,-347.135 411.875,-348.574 415.064,-354.806"/>
</g>
<!-- Node31&#45;&gt;Node14 -->
<g id="edge56" class="edge"><title>Node31&#45;&gt;Node14</title>
<path fill="none" stroke="midnightblue" d="M310.044,-384.966C298.429,-368.274 283.034,-339.69 293,-316 298.026,-304.053 307.944,-293.692 317.287,-285.934"/>
<polygon fill="midnightblue" stroke="midnightblue" points="319.439,-288.694 325.213,-279.811 315.16,-283.155 319.439,-288.694"/>
</g>
<!-- Node31&#45;&gt;Node15 -->
<g id="edge59" class="edge"><title>Node31&#45;&gt;Node15</title>
<path fill="none" stroke="midnightblue" d="M328.771,-384.96C339.577,-366.649 360.798,-334.746 387,-316 409.332,-300.023 437.907,-289.206 462.197,-282.19"/>
<polygon fill="midnightblue" stroke="midnightblue" points="463.251,-285.53 471.965,-279.503 461.395,-278.781 463.251,-285.53"/>
</g>
<!-- Node32 -->
<g id="node32" class="node"><title>Node32</title>
<polygon fill="white" stroke="#bfbfbf" points="302,-322.5 302,-341.5 340,-341.5 340,-322.5 302,-322.5"/>
<text text-anchor="middle" x="321" y="-329.5" font-family="Helvetica,sans-Serif" font-size="10.00">array</text>
</g>
<!-- Node31&#45;&gt;Node32 -->
<g id="edge55" class="edge"><title>Node31&#45;&gt;Node32</title>
<path fill="none" stroke="midnightblue" d="M321,-384.679C321,-375.101 321,-362.394 321,-351.977"/>
<polygon fill="midnightblue" stroke="midnightblue" points="324.5,-351.828 321,-341.828 317.5,-351.828 324.5,-351.828"/>
</g>
</g>
</svg>
