<?xml version="1.0" encoding="UTF-8" standalone="no"?>
<!DOCTYPE svg PUBLIC "-//W3C//DTD SVG 1.1//EN"
 "http://www.w3.org/Graphics/SVG/1.1/DTD/svg11.dtd">
<!-- Generated by graphviz version 2.36.0 (20140111.2315)
 -->
<!-- Title: include/shad/core Pages: 1 -->
<svg width="211pt" height="231pt"
 viewBox="0.00 0.00 211.03 231.00" xmlns="http://www.w3.org/2000/svg" xmlns:xlink="http://www.w3.org/1999/xlink">
<g id="graph0" class="graph" transform="scale(1 1) rotate(0) translate(4 227)">
<title>include/shad/core</title>
<polygon fill="white" stroke="none" points="-4,4 -4,-227 207.026,-227 207.026,4 -4,4"/>
<g id="clust1" class="cluster"><title>clusterdir_1f69c8fec32ba7738f79976f3c6e253c</title>
<g id="a_clust1"><a xlink:href="dir_1f69c8fec32ba7738f79976f3c6e253c.html" target="_top" xlink:title="shad">
<polygon fill="#ddddee" stroke="black" points="8,-56 8,-215 94,-215 94,-56 8,-56"/>
<text text-anchor="middle" x="51" y="-203" font-family="Helvetica,sans-Serif" font-size="10.00">shad</text>
</a>
</g>
</g>
<g id="clust2" class="cluster"><title>clusterdir_c120a3201cf6541b04e2c1d565043515</title>
<g id="a_clust2"><a xlink:href="dir_c120a3201cf6541b04e2c1d565043515.html" target="_top">
<polygon fill="#eeeeff" stroke="black" points="16,-64 16,-188 86,-188 86,-64 16,-64"/>
</a>
</g>
</g>
<!-- dir_c120a3201cf6541b04e2c1d565043515 -->
<g id="node1" class="node"><title>dir_c120a3201cf6541b04e2c1d565043515</title>
<text text-anchor="middle" x="51" y="-159.5" font-family="Helvetica,sans-Serif" font-size="10.00">core</text>
</g>
<!-- dir_2e597a75928d5131bf0664819cdfc630 -->
<g id="node2" class="node"><title>dir_2e597a75928d5131bf0664819cdfc630</title>
<g id="a_node2"><a xlink:href="dir_2e597a75928d5131bf0664819cdfc630.html" target="_top" xlink:title="impl">
<polygon fill="white" stroke="black" points="78,-108 24,-108 24,-72 78,-72 78,-108"/>
<text text-anchor="middle" x="51" y="-87.5" font-family="Helvetica,sans-Serif" font-size="10.00">impl</text>
</a>
</g>
</g>
<!-- dir_c120a3201cf6541b04e2c1d565043515&#45;&gt;dir_2e597a75928d5131bf0664819cdfc630 -->
<g id="edge3" class="edge"><title>dir_c120a3201cf6541b04e2c1d565043515&#45;&gt;dir_2e597a75928d5131bf0664819cdfc630</title>
<path fill="none" stroke="black" d="M51,-143.697C51,-135.983 51,-126.712 51,-118.112"/>
<polygon fill="black" stroke="black" points="54.5001,-118.104 51,-108.104 47.5001,-118.104 54.5001,-118.104"/>
<g id="a_edge3&#45;headlabel"><a xlink:href="dir_000002_000004.html" target="_top" xlink:title="5">
<text text-anchor="middle" x="57.3393" y="-119.199" font-family="Helvetica,sans-Serif" font-size="10.00">5</text>
</a>
</g>
</g>
<!-- dir_3019ffb2f573cbede241f763b658f3b4 -->
<g id="node3" class="node"><title>dir_3019ffb2f573cbede241f763b658f3b4</title>
<g id="a_node3"><a xlink:href="dir_3019ffb2f573cbede241f763b658f3b4.html" target="_top" xlink:title="data_structures">
<polygon fill="none" stroke="black" points="185.5,-108 102.5,-108 102.5,-72 185.5,-72 185.5,-108"/>
<text text-anchor="middle" x="144" y="-87.5" font-family="Helvetica,sans-Serif" font-size="10.00">data_structures</text>
</a>
</g>
</g>
<!-- dir_c120a3201cf6541b04e2c1d565043515&#45;&gt;dir_3019ffb2f573cbede241f763b658f3b4 -->
<g id="edge1" class="edge"><title>dir_c120a3201cf6541b04e2c1d565043515&#45;&gt;dir_3019ffb2f573cbede241f763b658f3b4</title>
<path fill="none" stroke="black" d="M68.073,-143.697C79.084,-134.711 93.6728,-123.614 107.164,-113.924"/>
<polygon fill="black" stroke="black" points="109.243,-116.741 115.381,-108.104 105.197,-111.028 109.243,-116.741"/>
<g id="a_edge1&#45;headlabel"><a xlink:href="dir_000002_000003.html" target="_top" xlink:title="5">
<text text-anchor="middle" x="107.951" y="-118.635" font-family="Helvetica,sans-Serif" font-size="10.00">5</text>
</a>
</g>
</g>
<!-- dir_19008f3e91e8a924370b6573679f3e4f -->
<g id="node4" class="node"><title>dir_19008f3e91e8a924370b6573679f3e4f</title>
<g id="a_node4"><a xlink:href="dir_19008f3e91e8a924370b6573679f3e4f.html" target="_top" xlink:title="runtime">
<polygon fill="white" stroke="red" points="171,-36 117,-36 117,-0 171,-0 171,-36"/>
<text text-anchor="middle" x="144" y="-15.5" font-family="Helvetica,sans-Serif" font-size="10.00">runtime</text>
</a>
</g>
</g>
<!-- dir_c120a3201cf6541b04e2c1d565043515&#45;&gt;dir_19008f3e91e8a924370b6573679f3e4f -->
<g id="edge2" class="edge"><title>dir_c120a3201cf6541b04e2c1d565043515&#45;&gt;dir_19008f3e91e8a924370b6573679f3e4f</title>
<path fill="none" stroke="black" d="M78.098,-159.756C111.73,-156.584 167.838,-145.598 194,-108 207.2,-89.0297 204.402,-76.6379 194,-56 190.592,-49.2377 185.299,-43.4038 179.41,-38.4972"/>
<polygon fill="black" stroke="black" points="181.253,-35.5077 171.13,-32.3809 177.094,-41.1379 181.253,-35.5077"/>
<g id="a_edge2&#45;headlabel"><a xlink:href="dir_000002_000008.html" target="_top" xlink:title="19">
<text text-anchor="middle" x="185.831" y="-32.8598" font-family="Helvetica,sans-Serif" font-size="10.00">19</text>
</a>
</g>
</g>
<!-- dir_2e597a75928d5131bf0664819cdfc630&#45;&gt;dir_19008f3e91e8a924370b6573679f3e4f -->
<g id="edge6" class="edge"><title>dir_2e597a75928d5131bf0664819cdfc630&#45;&gt;dir_19008f3e91e8a924370b6573679f3e4f</title>
<path fill="none" stroke="black" d="M72.6756,-71.7125C79.1716,-66.6013 86.3399,-61.0295 93,-56 99.0015,-51.4679 105.458,-46.7015 111.692,-42.1536"/>
<polygon fill="black" stroke="black" points="113.954,-44.8363 119.991,-36.1297 109.842,-39.1713 113.954,-44.8363"/>
<g id="a_edge6&#45;headlabel"><a xlink:href="dir_000004_000008.html" target="_top" xlink:title="15">
<text text-anchor="middle" x="112.713" y="-46.7456" font-family="Helvetica,sans-Serif" font-size="10.00">15</text>
</a>
</g>
</g>
<!-- dir_3019ffb2f573cbede241f763b658f3b4&#45;&gt;dir_c120a3201cf6541b04e2c1d565043515 -->
<g id="edge4" class="edge"><title>dir_3019ffb2f573cbede241f763b658f3b4&#45;&gt;dir_c120a3201cf6541b04e2c1d565043515</title>
<path fill="none" stroke="black" d="M127.044,-108.208C115.669,-117.496 100.44,-129.062 86.5477,-138.999"/>
<polygon fill="black" stroke="black" points="84.2748,-136.319 78.117,-144.941 88.3073,-142.041 84.2748,-136.319"/>
<g id="a_edge4&#45;headlabel"><a xlink:href="dir_000003_000002.html" target="_top" xlink:title="1">
<text text-anchor="middle" x="85.5775" y="-129.427" font-family="Helvetica,sans-Serif" font-size="10.00">1</text>
</a>
</g>
</g>
<!-- dir_3019ffb2f573cbede241f763b658f3b4&#45;&gt;dir_19008f3e91e8a924370b6573679f3e4f -->
<g id="edge5" class="edge"><title>dir_3019ffb2f573cbede241f763b658f3b4&#45;&gt;dir_19008f3e91e8a924370b6573679f3e4f</title>
<path fill="none" stroke="black" d="M144,-71.6966C144,-63.9827 144,-54.7125 144,-46.1124"/>
<polygon fill="black" stroke="black" points="147.5,-46.1043 144,-36.1043 140.5,-46.1044 147.5,-46.1043"/>
<g id="a_edge5&#45;headlabel"><a xlink:href="dir_000003_000008.html" target="_top" xlink:title="9">
<text text-anchor="middle" x="150.339" y="-47.199" font-family="Helvetica,sans-Serif" font-size="10.00">9</text>
</a>
</g>
</g>
</g>
</svg>
