<?xml version="1.0" encoding="UTF-8" standalone="no"?>
<!DOCTYPE svg PUBLIC "-//W3C//DTD SVG 1.1//EN"
 "http://www.w3.org/Graphics/SVG/1.1/DTD/svg11.dtd">
<!-- Generated by graphviz version 2.36.0 (20140111.2315)
 -->
<!-- Title: include/shad Pages: 1 -->
<svg width="264pt" height="255pt"
 viewBox="0.00 0.00 264.00 255.00" xmlns="http://www.w3.org/2000/svg" xmlns:xlink="http://www.w3.org/1999/xlink">
<g id="graph0" class="graph" transform="scale(1 1) rotate(0) translate(4 251)">
<title>include/shad</title>
<polygon fill="white" stroke="none" points="-4,4 -4,-251 260,-251 260,4 -4,4"/>
<g id="clust1" class="cluster"><title>clusterdir_d50839ada45c852ecfff743887ad1ead</title>
<g id="a_clust1"><a xlink:href="dir_d50839ada45c852ecfff743887ad1ead.html" target="_top" xlink:title="include">
<polygon fill="#ddddee" stroke="black" points="8,-8 8,-239 248,-239 248,-8 8,-8"/>
<text text-anchor="middle" x="128" y="-227" font-family="Helvetica,sans-Serif" font-size="10.00">include</text>
</a>
</g>
</g>
<g id="clust2" class="cluster"><title>clusterdir_1f69c8fec32ba7738f79976f3c6e253c</title>
<g id="a_clust2"><a xlink:href="dir_1f69c8fec32ba7738f79976f3c6e253c.html" target="_top">
<polygon fill="#eeeeff" stroke="black" points="16,-16 16,-212 240,-212 240,-16 16,-16"/>
</a>
</g>
</g>
<!-- dir_1f69c8fec32ba7738f79976f3c6e253c -->
<g id="node1" class="node"><title>dir_1f69c8fec32ba7738f79976f3c6e253c</title>
<text text-anchor="middle" x="205" y="-183.5" font-family="Helvetica,sans-Serif" font-size="10.00">shad</text>
</g>
<!-- dir_c120a3201cf6541b04e2c1d565043515 -->
<g id="node2" class="node"><title>dir_c120a3201cf6541b04e2c1d565043515</title>
<g id="a_node2"><a xlink:href="dir_c120a3201cf6541b04e2c1d565043515.html" target="_top" xlink:title="core">
<polygon fill="white" stroke="red" points="160,-204 106,-204 106,-168 160,-168 160,-204"/>
<text text-anchor="middle" x="133" y="-183.5" font-family="Helvetica,sans-Serif" font-size="10.00">core</text>
</a>
</g>
</g>
<!-- dir_3019ffb2f573cbede241f763b658f3b4 -->
<g id="node3" class="node"><title>dir_3019ffb2f573cbede241f763b658f3b4</title>
<g id="a_node3"><a xlink:href="dir_3019ffb2f573cbede241f763b658f3b4.html" target="_top" xlink:title="data_structures">
<polygon fill="white" stroke="black" points="199.5,-132 116.5,-132 116.5,-96 199.5,-96 199.5,-132"/>
<text text-anchor="middle" x="158" y="-111.5" font-family="Helvetica,sans-Serif" font-size="10.00">data_structures</text>
</a>
</g>
</g>
<!-- dir_c120a3201cf6541b04e2c1d565043515&#45;&gt;dir_3019ffb2f573cbede241f763b658f3b4 -->
<g id="edge1" class="edge"><title>dir_c120a3201cf6541b04e2c1d565043515&#45;&gt;dir_3019ffb2f573cbede241f763b658f3b4</title>
<path fill="none" stroke="black" d="M133.264,-167.697C135.266,-159.813 138.444,-150.304 141.947,-141.546"/>
<polygon fill="black" stroke="black" points="145.272,-142.674 145.996,-132.104 138.838,-139.916 145.272,-142.674"/>
<g id="a_edge1&#45;headlabel"><a xlink:href="dir_000002_000003.html" target="_top" xlink:title="5">
<text text-anchor="middle" x="146.465" y="-144.597" font-family="Helvetica,sans-Serif" font-size="10.00">5</text>
</a>
</g>
</g>
<!-- dir_19008f3e91e8a924370b6573679f3e4f -->
<g id="node5" class="node"><title>dir_19008f3e91e8a924370b6573679f3e4f</title>
<g id="a_node5"><a xlink:href="dir_19008f3e91e8a924370b6573679f3e4f.html" target="_top" xlink:title="runtime">
<polygon fill="white" stroke="red" points="185,-60 131,-60 131,-24 185,-24 185,-60"/>
<text text-anchor="middle" x="158" y="-39.5" font-family="Helvetica,sans-Serif" font-size="10.00">runtime</text>
</a>
</g>
</g>
<!-- dir_c120a3201cf6541b04e2c1d565043515&#45;&gt;dir_19008f3e91e8a924370b6573679f3e4f -->
<g id="edge2" class="edge"><title>dir_c120a3201cf6541b04e2c1d565043515&#45;&gt;dir_19008f3e91e8a924370b6573679f3e4f</title>
<path fill="none" stroke="black" d="M160.075,-169.538C179.329,-157.905 202.685,-142.265 208,-132 215.357,-117.792 213.907,-110.87 208,-96 203.709,-85.1991 196.058,-75.3244 188.012,-67.1022"/>
<polygon fill="black" stroke="black" points="190.25,-64.4006 180.596,-60.0367 185.422,-69.4687 190.25,-64.4006"/>
<g id="a_edge2&#45;headlabel"><a xlink:href="dir_000002_000008.html" target="_top" xlink:title="19">
<text text-anchor="middle" x="194.811" y="-62.3245" font-family="Helvetica,sans-Serif" font-size="10.00">19</text>
</a>
</g>
</g>
<!-- dir_3019ffb2f573cbede241f763b658f3b4&#45;&gt;dir_c120a3201cf6541b04e2c1d565043515 -->
<g id="edge3" class="edge"><title>dir_3019ffb2f573cbede241f763b658f3b4&#45;&gt;dir_c120a3201cf6541b04e2c1d565043515</title>
<path fill="none" stroke="black" d="M157.786,-132.104C155.804,-139.96 152.639,-149.462 149.141,-158.232"/>
<polygon fill="black" stroke="black" points="145.808,-157.126 145.096,-167.697 152.244,-159.877 145.808,-157.126"/>
<g id="a_edge3&#45;headlabel"><a xlink:href="dir_000003_000002.html" target="_top" xlink:title="1">
<text text-anchor="middle" x="144.61" y="-150.204" font-family="Helvetica,sans-Serif" font-size="10.00">1</text>
</a>
</g>
</g>
<!-- dir_3019ffb2f573cbede241f763b658f3b4&#45;&gt;dir_19008f3e91e8a924370b6573679f3e4f -->
<g id="edge4" class="edge"><title>dir_3019ffb2f573cbede241f763b658f3b4&#45;&gt;dir_19008f3e91e8a924370b6573679f3e4f</title>
<path fill="none" stroke="black" d="M158,-95.6966C158,-87.9827 158,-78.7125 158,-70.1124"/>
<polygon fill="black" stroke="black" points="161.5,-70.1043 158,-60.1043 154.5,-70.1044 161.5,-70.1043"/>
<g id="a_edge4&#45;headlabel"><a xlink:href="dir_000003_000008.html" target="_top" xlink:title="9">
<text text-anchor="middle" x="164.339" y="-71.199" font-family="Helvetica,sans-Serif" font-size="10.00">9</text>
</a>
</g>
</g>
<!-- dir_a4e0c174f67f4169d9b26a1e5b69cf58 -->
<g id="node4" class="node"><title>dir_a4e0c174f67f4169d9b26a1e5b69cf58</title>
<g id="a_node4"><a xlink:href="dir_a4e0c174f67f4169d9b26a1e5b69cf58.html" target="_top" xlink:title="extensions">
<polygon fill="white" stroke="red" points="88,-204 24,-204 24,-168 88,-168 88,-204"/>
<text text-anchor="middle" x="56" y="-183.5" font-family="Helvetica,sans-Serif" font-size="10.00">extensions</text>
</a>
</g>
</g>
<!-- dir_a4e0c174f67f4169d9b26a1e5b69cf58&#45;&gt;dir_3019ffb2f573cbede241f763b658f3b4 -->
<g id="edge5" class="edge"><title>dir_a4e0c174f67f4169d9b26a1e5b69cf58&#45;&gt;dir_3019ffb2f573cbede241f763b658f3b4</title>
<path fill="none" stroke="black" d="M80.952,-167.876C94.0415,-158.893 110.26,-147.763 124.436,-138.034"/>
<polygon fill="black" stroke="black" points="126.687,-140.734 132.952,-132.19 122.726,-134.962 126.687,-140.734"/>
<g id="a_edge5&#45;headlabel"><a xlink:href="dir_000005_000003.html" target="_top" xlink:title="12">
<text text-anchor="middle" x="125.33" y="-142.609" font-family="Helvetica,sans-Serif" font-size="10.00">12</text>
</a>
</g>
</g>
<!-- dir_a4e0c174f67f4169d9b26a1e5b69cf58&#45;&gt;dir_19008f3e91e8a924370b6573679f3e4f -->
<g id="edge7" class="edge"><title>dir_a4e0c174f67f4169d9b26a1e5b69cf58&#45;&gt;dir_19008f3e91e8a924370b6573679f3e4f</title>
<path fill="none" stroke="black" d="M66.1486,-167.87C72.2495,-157.518 80.1364,-144.039 87,-132 96.0655,-116.099 96.1188,-110.718 107,-96 114.398,-85.9935 123.554,-75.925 132.058,-67.2918"/>
<polygon fill="black" stroke="black" points="134.663,-69.6374 139.302,-60.1122 129.736,-64.6655 134.663,-69.6374"/>
<g id="a_edge7&#45;headlabel"><a xlink:href="dir_000005_000008.html" target="_top" xlink:title="4">
<text text-anchor="middle" x="134.109" y="-71.6844" font-family="Helvetica,sans-Serif" font-size="10.00">4</text>
</a>
</g>
</g>
<!-- dir_7e8698e40faa5255adc68dd7ee46f9bb -->
<g id="node6" class="node"><title>dir_7e8698e40faa5255adc68dd7ee46f9bb</title>
<g id="a_node6"><a xlink:href="dir_7e8698e40faa5255adc68dd7ee46f9bb.html" target="_top" xlink:title="util">
<polygon fill="white" stroke="black" points="78,-132 24,-132 24,-96 78,-96 78,-132"/>
<text text-anchor="middle" x="51" y="-111.5" font-family="Helvetica,sans-Serif" font-size="10.00">util</text>
</a>
</g>
</g>
<!-- dir_a4e0c174f67f4169d9b26a1e5b69cf58&#45;&gt;dir_7e8698e40faa5255adc68dd7ee46f9bb -->
<g id="edge6" class="edge"><title>dir_a4e0c174f67f4169d9b26a1e5b69cf58&#45;&gt;dir_7e8698e40faa5255adc68dd7ee46f9bb</title>
<path fill="none" stroke="black" d="M54.764,-167.697C54.2131,-159.983 53.5509,-150.712 52.9366,-142.112"/>
<polygon fill="black" stroke="black" points="56.4254,-141.83 52.2217,-132.104 49.4432,-142.328 56.4254,-141.83"/>
<g id="a_edge6&#45;headlabel"><a xlink:href="dir_000005_000013.html" target="_top" xlink:title="1">
<text text-anchor="middle" x="59.5135" y="-142.713" font-family="Helvetica,sans-Serif" font-size="10.00">1</text>
</a>
</g>
</g>
</g>
</svg>
