<?xml version="1.0" encoding="UTF-8" standalone="no"?>
<!DOCTYPE svg PUBLIC "-//W3C//DTD SVG 1.1//EN"
 "http://www.w3.org/Graphics/SVG/1.1/DTD/svg11.dtd">
<!-- Generated by graphviz version 2.36.0 (20140111.2315)
 -->
<!-- Title: include/shad/data_structures Pages: 1 -->
<svg width="180pt" height="151pt"
 viewBox="0.00 0.00 180.00 151.00" xmlns="http://www.w3.org/2000/svg" xmlns:xlink="http://www.w3.org/1999/xlink">
<g id="graph0" class="graph" transform="scale(1 1) rotate(0) translate(4 147)">
<title>include/shad/data_structures</title>
<polygon fill="white" stroke="none" points="-4,4 -4,-147 176,-147 176,4 -4,4"/>
<g id="clust1" class="cluster"><title>clusterdir_1f69c8fec32ba7738f79976f3c6e253c</title>
<g id="a_clust1"><a xlink:href="dir_1f69c8fec32ba7738f79976f3c6e253c.html" target="_top" xlink:title="shad">
<polygon fill="#ddddee" stroke="black" points="8,-64 8,-135 108,-135 108,-64 8,-64"/>
<text text-anchor="middle" x="58" y="-123" font-family="Helvetica,sans-Serif" font-size="10.00">shad</text>
</a>
</g>
</g>
<!-- dir_3019ffb2f573cbede241f763b658f3b4 -->
<g id="node1" class="node"><title>dir_3019ffb2f573cbede241f763b658f3b4</title>
<g id="a_node1"><a xlink:href="dir_3019ffb2f573cbede241f763b658f3b4.html" target="_top" xlink:title="data_structures">
<polygon fill="#eeeeff" stroke="black" points="99.5,-108 16.5,-108 16.5,-72 99.5,-72 99.5,-108"/>
<text text-anchor="middle" x="58" y="-87.5" font-family="Helvetica,sans-Serif" font-size="10.00">data_structures</text>
</a>
</g>
</g>
<!-- dir_c120a3201cf6541b04e2c1d565043515 -->
<g id="node2" class="node"><title>dir_c120a3201cf6541b04e2c1d565043515</title>
<g id="a_node2"><a xlink:href="dir_c120a3201cf6541b04e2c1d565043515.html" target="_top" xlink:title="core">
<polygon fill="white" stroke="red" points="172,-108 118,-108 118,-72 172,-72 172,-108"/>
<text text-anchor="middle" x="145" y="-87.5" font-family="Helvetica,sans-Serif" font-size="10.00">core</text>
</a>
</g>
</g>
<!-- dir_3019ffb2f573cbede241f763b658f3b4&#45;&gt;dir_c120a3201cf6541b04e2c1d565043515 -->
<g id="edge3" class="edge"><title>dir_3019ffb2f573cbede241f763b658f3b4&#45;&gt;dir_c120a3201cf6541b04e2c1d565043515</title>
<path fill="none" stroke="black" d="M99.8008,-90C102.427,-90 105.053,-90 107.68,-90"/>
<polygon fill="black" stroke="black" points="107.81,-93.5001 117.81,-90 107.81,-86.5001 107.81,-93.5001"/>
<g id="a_edge3&#45;headlabel"><a xlink:href="dir_000003_000002.html" target="_top" xlink:title="1">
<text text-anchor="middle" x="104.215" y="-93.8393" font-family="Helvetica,sans-Serif" font-size="10.00">1</text>
</a>
</g>
</g>
<!-- dir_19008f3e91e8a924370b6573679f3e4f -->
<g id="node3" class="node"><title>dir_19008f3e91e8a924370b6573679f3e4f</title>
<g id="a_node3"><a xlink:href="dir_19008f3e91e8a924370b6573679f3e4f.html" target="_top" xlink:title="runtime">
<polygon fill="white" stroke="red" points="128,-36 74,-36 74,-0 128,-0 128,-36"/>
<text text-anchor="middle" x="101" y="-15.5" font-family="Helvetica,sans-Serif" font-size="10.00">runtime</text>
</a>
</g>
</g>
<!-- dir_3019ffb2f573cbede241f763b658f3b4&#45;&gt;dir_19008f3e91e8a924370b6573679f3e4f -->
<g id="edge4" class="edge"><title>dir_3019ffb2f573cbede241f763b658f3b4&#45;&gt;dir_19008f3e91e8a924370b6573679f3e4f</title>
<path fill="none" stroke="black" d="M68.6292,-71.6966C73.6281,-63.5589 79.691,-53.689 85.2121,-44.7013"/>
<polygon fill="black" stroke="black" points="88.2411,-46.4571 90.4931,-36.1043 82.2766,-42.7931 88.2411,-46.4571"/>
<g id="a_edge4&#45;headlabel"><a xlink:href="dir_000003_000008.html" target="_top" xlink:title="9">
<text text-anchor="middle" x="88.7789" y="-48.5061" font-family="Helvetica,sans-Serif" font-size="10.00">9</text>
</a>
</g>
</g>
<!-- dir_c120a3201cf6541b04e2c1d565043515&#45;&gt;dir_3019ffb2f573cbede241f763b658f3b4 -->
<g id="edge1" class="edge"><title>dir_c120a3201cf6541b04e2c1d565043515&#45;&gt;dir_3019ffb2f573cbede241f763b658f3b4</title>
<path fill="none" stroke="black" d="M117.81,-90C115.184,-90 112.557,-90 109.931,-90"/>
<polygon fill="black" stroke="black" points="109.801,-86.5001 99.8008,-90 109.801,-93.5001 109.801,-86.5001"/>
<g id="a_edge1&#45;headlabel"><a xlink:href="dir_000002_000003.html" target="_top" xlink:title="5">
<text text-anchor="middle" x="113.395" y="-81.1607" font-family="Helvetica,sans-Serif" font-size="10.00">5</text>
</a>
</g>
</g>
<!-- dir_c120a3201cf6541b04e2c1d565043515&#45;&gt;dir_19008f3e91e8a924370b6573679f3e4f -->
<g id="edge2" class="edge"><title>dir_c120a3201cf6541b04e2c1d565043515&#45;&gt;dir_19008f3e91e8a924370b6573679f3e4f</title>
<path fill="none" stroke="black" d="M134.124,-71.6966C129.008,-63.5589 122.805,-53.689 117.155,-44.7013"/>
<polygon fill="black" stroke="black" points="120.036,-42.7081 111.751,-36.1043 114.11,-46.4333 120.036,-42.7081"/>
<g id="a_edge2&#45;headlabel"><a xlink:href="dir_000002_000008.html" target="_top" xlink:title="19">
<text text-anchor="middle" x="124.353" y="-41.7405" font-family="Helvetica,sans-Serif" font-size="10.00">19</text>
</a>
</g>
</g>
</g>
</svg>
