<?xml version="1.0" encoding="UTF-8" standalone="no"?>
<!DOCTYPE svg PUBLIC "-//W3C//DTD SVG 1.1//EN"
 "http://www.w3.org/Graphics/SVG/1.1/DTD/svg11.dtd">
<!-- Generated by graphviz version 2.36.0 (20140111.2315)
 -->
<!-- Title: include/shad/extensions/graph_library Pages: 1 -->
<svg width="282pt" height="231pt"
 viewBox="0.00 0.00 282.00 231.00" xmlns="http://www.w3.org/2000/svg" xmlns:xlink="http://www.w3.org/1999/xlink">
<g id="graph0" class="graph" transform="scale(1 1) rotate(0) translate(4 227)">
<title>include/shad/extensions/graph_library</title>
<polygon fill="white" stroke="none" points="-4,4 -4,-227 278,-227 278,4 -4,4"/>
<g id="clust1" class="cluster"><title>clusterdir_a4e0c174f67f4169d9b26a1e5b69cf58</title>
<g id="a_clust1"><a xlink:href="dir_a4e0c174f67f4169d9b26a1e5b69cf58.html" target="_top" xlink:title="extensions">
<polygon fill="#ddddee" stroke="black" points="82,-128 82,-215 266,-215 266,-128 82,-128"/>
<text text-anchor="middle" x="174" y="-203" font-family="Helvetica,sans-Serif" font-size="10.00">extensions</text>
</a>
</g>
</g>
<g id="clust2" class="cluster"><title>clusterdir_8c97d9a3a1dd895d033b6aacf6ec0637</title>
<g id="a_clust2"><a xlink:href="dir_8c97d9a3a1dd895d033b6aacf6ec0637.html" target="_top">
<polygon fill="#eeeeff" stroke="black" points="90,-136 90,-188 258,-188 258,-136 90,-136"/>
</a>
</g>
</g>
<!-- dir_8c97d9a3a1dd895d033b6aacf6ec0637 -->
<g id="node1" class="node"><title>dir_8c97d9a3a1dd895d033b6aacf6ec0637</title>
<text text-anchor="middle" x="214" y="-159.5" font-family="Helvetica,sans-Serif" font-size="10.00">graph_library</text>
</g>
<!-- dir_31549ab9c25a125e1dc9147e1c728ab0 -->
<g id="node2" class="node"><title>dir_31549ab9c25a125e1dc9147e1c728ab0</title>
<g id="a_node2"><a xlink:href="dir_31549ab9c25a125e1dc9147e1c728ab0.html" target="_top" xlink:title="algorithms">
<polygon fill="white" stroke="black" points="159.5,-180 98.5,-180 98.5,-144 159.5,-144 159.5,-180"/>
<text text-anchor="middle" x="129" y="-159.5" font-family="Helvetica,sans-Serif" font-size="10.00">algorithms</text>
</a>
</g>
</g>
<!-- dir_3019ffb2f573cbede241f763b658f3b4 -->
<g id="node3" class="node"><title>dir_3019ffb2f573cbede241f763b658f3b4</title>
<g id="a_node3"><a xlink:href="dir_3019ffb2f573cbede241f763b658f3b4.html" target="_top" xlink:title="data_structures">
<polygon fill="none" stroke="black" points="83.5,-108 0.5,-108 0.5,-72 83.5,-72 83.5,-108"/>
<text text-anchor="middle" x="42" y="-87.5" font-family="Helvetica,sans-Serif" font-size="10.00">data_structures</text>
</a>
</g>
</g>
<!-- dir_31549ab9c25a125e1dc9147e1c728ab0&#45;&gt;dir_3019ffb2f573cbede241f763b658f3b4 -->
<g id="edge2" class="edge"><title>dir_31549ab9c25a125e1dc9147e1c728ab0&#45;&gt;dir_3019ffb2f573cbede241f763b658f3b4</title>
<path fill="none" stroke="black" d="M107.494,-143.697C96.5375,-134.881 83.0541,-124.032 71.1751,-114.474"/>
<polygon fill="black" stroke="black" points="73.2435,-111.646 63.2582,-108.104 68.8554,-117.1 73.2435,-111.646"/>
<g id="a_edge2&#45;headlabel"><a xlink:href="dir_000007_000003.html" target="_top" xlink:title="2">
<text text-anchor="middle" x="77.824" y="-109.187" font-family="Helvetica,sans-Serif" font-size="10.00">2</text>
</a>
</g>
</g>
<!-- dir_7e8698e40faa5255adc68dd7ee46f9bb -->
<g id="node4" class="node"><title>dir_7e8698e40faa5255adc68dd7ee46f9bb</title>
<g id="a_node4"><a xlink:href="dir_7e8698e40faa5255adc68dd7ee46f9bb.html" target="_top" xlink:title="util">
<polygon fill="none" stroke="black" points="156,-108 102,-108 102,-72 156,-72 156,-108"/>
<text text-anchor="middle" x="129" y="-87.5" font-family="Helvetica,sans-Serif" font-size="10.00">util</text>
</a>
</g>
</g>
<!-- dir_31549ab9c25a125e1dc9147e1c728ab0&#45;&gt;dir_7e8698e40faa5255adc68dd7ee46f9bb -->
<g id="edge3" class="edge"><title>dir_31549ab9c25a125e1dc9147e1c728ab0&#45;&gt;dir_7e8698e40faa5255adc68dd7ee46f9bb</title>
<path fill="none" stroke="black" d="M129,-143.697C129,-135.983 129,-126.712 129,-118.112"/>
<polygon fill="black" stroke="black" points="132.5,-118.104 129,-108.104 125.5,-118.104 132.5,-118.104"/>
<g id="a_edge3&#45;headlabel"><a xlink:href="dir_000007_000013.html" target="_top" xlink:title="1">
<text text-anchor="middle" x="135.339" y="-119.199" font-family="Helvetica,sans-Serif" font-size="10.00">1</text>
</a>
</g>
</g>
<!-- dir_19008f3e91e8a924370b6573679f3e4f -->
<g id="node5" class="node"><title>dir_19008f3e91e8a924370b6573679f3e4f</title>
<g id="a_node5"><a xlink:href="dir_19008f3e91e8a924370b6573679f3e4f.html" target="_top" xlink:title="runtime">
<polygon fill="white" stroke="red" points="140,-36 86,-36 86,-0 140,-0 140,-36"/>
<text text-anchor="middle" x="113" y="-15.5" font-family="Helvetica,sans-Serif" font-size="10.00">runtime</text>
</a>
</g>
</g>
<!-- dir_31549ab9c25a125e1dc9147e1c728ab0&#45;&gt;dir_19008f3e91e8a924370b6573679f3e4f -->
<g id="edge4" class="edge"><title>dir_31549ab9c25a125e1dc9147e1c728ab0&#45;&gt;dir_19008f3e91e8a924370b6573679f3e4f</title>
<path fill="none" stroke="black" d="M144.61,-143.774C152.373,-134.03 160.946,-121.184 165,-108 169.703,-92.7067 171.052,-86.8111 165,-72 160.512,-61.0173 152.53,-51.081 144.146,-42.8582"/>
<polygon fill="black" stroke="black" points="146.492,-40.2608 136.752,-36.0901 141.765,-45.4241 146.492,-40.2608"/>
<g id="a_edge4&#45;headlabel"><a xlink:href="dir_000007_000008.html" target="_top" xlink:title="1">
<text text-anchor="middle" x="151.06" y="-38.0937" font-family="Helvetica,sans-Serif" font-size="10.00">1</text>
</a>
</g>
</g>
<!-- dir_3019ffb2f573cbede241f763b658f3b4&#45;&gt;dir_19008f3e91e8a924370b6573679f3e4f -->
<g id="edge1" class="edge"><title>dir_3019ffb2f573cbede241f763b658f3b4&#45;&gt;dir_19008f3e91e8a924370b6573679f3e4f</title>
<path fill="none" stroke="black" d="M59.5506,-71.6966C68.2345,-63.135 78.863,-52.6562 88.3483,-43.3045"/>
<polygon fill="black" stroke="black" points="90.9875,-45.6175 95.6513,-36.1043 86.073,-40.6327 90.9875,-45.6175"/>
<g id="a_edge1&#45;headlabel"><a xlink:href="dir_000003_000008.html" target="_top" xlink:title="9">
<text text-anchor="middle" x="90.4212" y="-47.663" font-family="Helvetica,sans-Serif" font-size="10.00">9</text>
</a>
</g>
</g>
</g>
</svg>
