<?xml version="1.0" encoding="UTF-8" standalone="no"?>
<!DOCTYPE svg PUBLIC "-//W3C//DTD SVG 1.1//EN"
 "http://www.w3.org/Graphics/SVG/1.1/DTD/svg11.dtd">
<!-- Generated by graphviz version 2.36.0 (20140111.2315)
 -->
<!-- Title: src/runtime Pages: 1 -->
<svg width="378pt" height="111pt"
 viewBox="0.00 0.00 378.00 111.00" xmlns="http://www.w3.org/2000/svg" xmlns:xlink="http://www.w3.org/1999/xlink">
<g id="graph0" class="graph" transform="scale(1 1) rotate(0) translate(4 107)">
<title>src/runtime</title>
<polygon fill="white" stroke="none" points="-4,4 -4,-107 374,-107 374,4 -4,4"/>
<g id="clust1" class="cluster"><title>clusterdir_96c31497d775bad664a977475eab6da0</title>
<g id="a_clust1"><a xlink:href="dir_96c31497d775bad664a977475eab6da0.html" target="_top" xlink:title="src">
<polygon fill="#ddddee" stroke="black" points="8,-8 8,-95 362,-95 362,-8 8,-8"/>
<text text-anchor="middle" x="185" y="-83" font-family="Helvetica,sans-Serif" font-size="10.00">src</text>
</a>
</g>
</g>
<g id="clust2" class="cluster"><title>clusterdir_11b87415d4882385feceff132625dbf1</title>
<g id="a_clust2"><a xlink:href="dir_11b87415d4882385feceff132625dbf1.html" target="_top">
<polygon fill="#eeeeff" stroke="black" points="16,-16 16,-68 354,-68 354,-16 16,-16"/>
</a>
</g>
</g>
<!-- dir_11b87415d4882385feceff132625dbf1 -->
<g id="node1" class="node"><title>dir_11b87415d4882385feceff132625dbf1</title>
<text text-anchor="middle" x="319" y="-39.5" font-family="Helvetica,sans-Serif" font-size="10.00">runtime</text>
</g>
<!-- dir_4b9dba45845b9b10a9949f5baf51042b -->
<g id="node2" class="node"><title>dir_4b9dba45845b9b10a9949f5baf51042b</title>
<g id="a_node2"><a xlink:href="dir_4b9dba45845b9b10a9949f5baf51042b.html" target="_top" xlink:title="cpp_simple">
<polygon fill="white" stroke="black" points="274,-60 208,-60 208,-24 274,-24 274,-60"/>
<text text-anchor="middle" x="241" y="-39.5" font-family="Helvetica,sans-Serif" font-size="10.00">cpp_simple</text>
</a>
</g>
</g>
<!-- dir_8eab3353c49a557da2463bc403fafc1a -->
<g id="node3" class="node"><title>dir_8eab3353c49a557da2463bc403fafc1a</title>
<g id="a_node3"><a xlink:href="dir_8eab3353c49a557da2463bc403fafc1a.html" target="_top" xlink:title="gmt_mapping">
<polygon fill="white" stroke="black" points="189.25,-60 114.75,-60 114.75,-24 189.25,-24 189.25,-60"/>
<text text-anchor="middle" x="152" y="-39.5" font-family="Helvetica,sans-Serif" font-size="10.00">gmt_mapping</text>
</a>
</g>
</g>
<!-- dir_552d4e9106c702bc17dee67acd2e34a8 -->
<g id="node4" class="node"><title>dir_552d4e9106c702bc17dee67acd2e34a8</title>
<g id="a_node4"><a xlink:href="dir_552d4e9106c702bc17dee67acd2e34a8.html" target="_top" xlink:title="tbb_mapping">
<polygon fill="white" stroke="black" points="96,-60 24,-60 24,-24 96,-24 96,-60"/>
<text text-anchor="middle" x="60" y="-39.5" font-family="Helvetica,sans-Serif" font-size="10.00">tbb_mapping</text>
</a>
</g>
</g>
</g>
</svg>
