<?xml version="1.0" encoding="UTF-8" standalone="no"?>
<!DOCTYPE svg PUBLIC "-//W3C//DTD SVG 1.1//EN"
 "http://www.w3.org/Graphics/SVG/1.1/DTD/svg11.dtd">
<!-- Generated by graphviz version 2.36.0 (20140111.2315)
 -->
<!-- Title: include/shad/runtime Pages: 1 -->
<svg width="116pt" height="183pt"
 viewBox="0.00 0.00 116.00 183.00" xmlns="http://www.w3.org/2000/svg" xmlns:xlink="http://www.w3.org/1999/xlink">
<g id="graph0" class="graph" transform="scale(1 1) rotate(0) translate(4 179)">
<title>include/shad/runtime</title>
<polygon fill="white" stroke="none" points="-4,4 -4,-179 112,-179 112,4 -4,4"/>
<g id="clust1" class="cluster"><title>clusterdir_1f69c8fec32ba7738f79976f3c6e253c</title>
<g id="a_clust1"><a xlink:href="dir_1f69c8fec32ba7738f79976f3c6e253c.html" target="_top" xlink:title="shad">
<polygon fill="#ddddee" stroke="black" points="8,-8 8,-167 100,-167 100,-8 8,-8"/>
<text text-anchor="middle" x="54" y="-155" font-family="Helvetica,sans-Serif" font-size="10.00">shad</text>
</a>
</g>
</g>
<g id="clust2" class="cluster"><title>clusterdir_19008f3e91e8a924370b6573679f3e4f</title>
<g id="a_clust2"><a xlink:href="dir_19008f3e91e8a924370b6573679f3e4f.html" target="_top">
<polygon fill="#eeeeff" stroke="black" points="16,-16 16,-140 92,-140 92,-16 16,-16"/>
</a>
</g>
</g>
<!-- dir_19008f3e91e8a924370b6573679f3e4f -->
<g id="node1" class="node"><title>dir_19008f3e91e8a924370b6573679f3e4f</title>
<text text-anchor="middle" x="54" y="-111.5" font-family="Helvetica,sans-Serif" font-size="10.00">runtime</text>
</g>
<!-- dir_fbd2e32f336ecfaa935e4d354c25c941 -->
<g id="node2" class="node"><title>dir_fbd2e32f336ecfaa935e4d354c25c941</title>
<g id="a_node2"><a xlink:href="dir_fbd2e32f336ecfaa935e4d354c25c941.html" target="_top" xlink:title="mappings">
<polygon fill="white" stroke="red" points="83.25,-60 24.75,-60 24.75,-24 83.25,-24 83.25,-60"/>
<text text-anchor="middle" x="54" y="-39.5" font-family="Helvetica,sans-Serif" font-size="10.00">mappings</text>
</a>
</g>
</g>
<!-- dir_19008f3e91e8a924370b6573679f3e4f&#45;&gt;dir_fbd2e32f336ecfaa935e4d354c25c941 -->
<g id="edge1" class="edge"><title>dir_19008f3e91e8a924370b6573679f3e4f&#45;&gt;dir_fbd2e32f336ecfaa935e4d354c25c941</title>
<path fill="none" stroke="black" d="M54,-95.6966C54,-87.9827 54,-78.7125 54,-70.1124"/>
<polygon fill="black" stroke="black" points="57.5001,-70.1043 54,-60.1043 50.5001,-70.1044 57.5001,-70.1043"/>
<g id="a_edge1&#45;headlabel"><a xlink:href="dir_000008_000009.html" target="_top" xlink:title="3">
<text text-anchor="middle" x="60.3393" y="-71.199" font-family="Helvetica,sans-Serif" font-size="10.00">3</text>
</a>
</g>
</g>
</g>
</svg>
