<?xml version="1.0" encoding="UTF-8" standalone="no"?>
<!DOCTYPE svg PUBLIC "-//W3C//DTD SVG 1.1//EN"
 "http://www.w3.org/Graphics/SVG/1.1/DTD/svg11.dtd">
<!-- Generated by graphviz version 2.36.0 (20140111.2315)
 -->
<!-- Title: include/shad/runtime/mappings Pages: 1 -->
<svg width="344pt" height="111pt"
 viewBox="0.00 0.00 344.00 111.00" xmlns="http://www.w3.org/2000/svg" xmlns:xlink="http://www.w3.org/1999/xlink">
<g id="graph0" class="graph" transform="scale(1 1) rotate(0) translate(4 107)">
<title>include/shad/runtime/mappings</title>
<polygon fill="white" stroke="none" points="-4,4 -4,-107 340,-107 340,4 -4,4"/>
<g id="clust1" class="cluster"><title>clusterdir_19008f3e91e8a924370b6573679f3e4f</title>
<g id="a_clust1"><a xlink:href="dir_19008f3e91e8a924370b6573679f3e4f.html" target="_top" xlink:title="runtime">
<polygon fill="#ddddee" stroke="black" points="8,-8 8,-95 328,-95 328,-8 8,-8"/>
<text text-anchor="middle" x="168" y="-83" font-family="Helvetica,sans-Serif" font-size="10.00">runtime</text>
</a>
</g>
</g>
<g id="clust2" class="cluster"><title>clusterdir_fbd2e32f336ecfaa935e4d354c25c941</title>
<g id="a_clust2"><a xlink:href="dir_fbd2e32f336ecfaa935e4d354c25c941.html" target="_top">
<polygon fill="#eeeeff" stroke="black" points="16,-16 16,-68 320,-68 320,-16 16,-16"/>
</a>
</g>
</g>
<!-- dir_fbd2e32f336ecfaa935e4d354c25c941 -->
<g id="node1" class="node"><title>dir_fbd2e32f336ecfaa935e4d354c25c941</title>
<text text-anchor="middle" x="282" y="-39.5" font-family="Helvetica,sans-Serif" font-size="10.00">mappings</text>
</g>
<!-- dir_ee54fb5e4c1754b1969004cb73e071b1 -->
<g id="node2" class="node"><title>dir_ee54fb5e4c1754b1969004cb73e071b1</title>
<g id="a_node2"><a xlink:href="dir_ee54fb5e4c1754b1969004cb73e071b1.html" target="_top" xlink:title="cpp_simple">
<polygon fill="white" stroke="black" points="234,-60 168,-60 168,-24 234,-24 234,-60"/>
<text text-anchor="middle" x="201" y="-39.5" font-family="Helvetica,sans-Serif" font-size="10.00">cpp_simple</text>
</a>
</g>
</g>
<!-- dir_b9bf1eda9dcc09385881810b3de1a5f0 -->
<g id="node3" class="node"><title>dir_b9bf1eda9dcc09385881810b3de1a5f0</title>
<g id="a_node3"><a xlink:href="dir_b9bf1eda9dcc09385881810b3de1a5f0.html" target="_top" xlink:title="gmt">
<polygon fill="white" stroke="black" points="150,-60 96,-60 96,-24 150,-24 150,-60"/>
<text text-anchor="middle" x="123" y="-39.5" font-family="Helvetica,sans-Serif" font-size="10.00">gmt</text>
</a>
</g>
</g>
<!-- dir_c0dfccb8ca7c00dda2a9934c0c1aff77 -->
<g id="node4" class="node"><title>dir_c0dfccb8ca7c00dda2a9934c0c1aff77</title>
<g id="a_node4"><a xlink:href="dir_c0dfccb8ca7c00dda2a9934c0c1aff77.html" target="_top" xlink:title="tbb">
<polygon fill="white" stroke="black" points="78,-60 24,-60 24,-24 78,-24 78,-60"/>
<text text-anchor="middle" x="51" y="-39.5" font-family="Helvetica,sans-Serif" font-size="10.00">tbb</text>
</a>
</g>
</g>
</g>
</svg>
