<?xml version="1.0" encoding="UTF-8" standalone="no"?>
<!DOCTYPE svg PUBLIC "-//W3C//DTD SVG 1.1//EN"
 "http://www.w3.org/Graphics/SVG/1.1/DTD/svg11.dtd">
<!-- Generated by graphviz version 2.36.0 (20140111.2315)
 -->
<!-- Title: src Pages: 1 -->
<svg width="238pt" height="132pt"
 viewBox="0.00 0.00 238.00 132.00" xmlns="http://www.w3.org/2000/svg" xmlns:xlink="http://www.w3.org/1999/xlink">
<g id="graph0" class="graph" transform="scale(1 1) rotate(0) translate(4 128)">
<title>src</title>
<polygon fill="white" stroke="none" points="-4,4 -4,-128 234,-128 234,4 -4,4"/>
<g id="clust1" class="cluster"><title>clusterdir_96c31497d775bad664a977475eab6da0</title>
<g id="a_clust1"><a xlink:href="dir_96c31497d775bad664a977475eab6da0.html" target="_top">
<polygon fill="#eeeeff" stroke="black" points="8,-64 8,-116 222,-116 222,-64 8,-64"/>
</a>
</g>
</g>
<!-- dir_96c31497d775bad664a977475eab6da0 -->
<g id="node1" class="node"><title>dir_96c31497d775bad664a977475eab6da0</title>
<text text-anchor="middle" x="187" y="-87.5" font-family="Helvetica,sans-Serif" font-size="10.00">src</text>
</g>
<!-- dir_11b87415d4882385feceff132625dbf1 -->
<g id="node2" class="node"><title>dir_11b87415d4882385feceff132625dbf1</title>
<g id="a_node2"><a xlink:href="dir_11b87415d4882385feceff132625dbf1.html" target="_top" xlink:title="runtime">
<polygon fill="white" stroke="red" points="142,-108 88,-108 88,-72 142,-72 142,-108"/>
<text text-anchor="middle" x="115" y="-87.5" font-family="Helvetica,sans-Serif" font-size="10.00">runtime</text>
</a>
</g>
</g>
<!-- dir_d166317c29c1ddc8f0951962ca0395b3 -->
<g id="node3" class="node"><title>dir_d166317c29c1ddc8f0951962ca0395b3</title>
<g id="a_node3"><a xlink:href="dir_d166317c29c1ddc8f0951962ca0395b3.html" target="_top" xlink:title="util">
<polygon fill="white" stroke="black" points="70,-108 16,-108 16,-72 70,-72 70,-108"/>
<text text-anchor="middle" x="43" y="-87.5" font-family="Helvetica,sans-Serif" font-size="10.00">util</text>
</a>
</g>
</g>
<!-- dir_d50839ada45c852ecfff743887ad1ead -->
<g id="node4" class="node"><title>dir_d50839ada45c852ecfff743887ad1ead</title>
<g id="a_node4"><a xlink:href="dir_d50839ada45c852ecfff743887ad1ead.html" target="_top" xlink:title="include">
<polygon fill="white" stroke="red" points="70,-36 16,-36 16,-0 70,-0 70,-36"/>
<text text-anchor="middle" x="43" y="-15.5" font-family="Helvetica,sans-Serif" font-size="10.00">include</text>
</a>
</g>
</g>
<!-- dir_d166317c29c1ddc8f0951962ca0395b3&#45;&gt;dir_d50839ada45c852ecfff743887ad1ead -->
<g id="edge1" class="edge"><title>dir_d166317c29c1ddc8f0951962ca0395b3&#45;&gt;dir_d50839ada45c852ecfff743887ad1ead</title>
<path fill="none" stroke="black" d="M43,-71.6966C43,-63.9827 43,-54.7125 43,-46.1124"/>
<polygon fill="black" stroke="black" points="46.5001,-46.1043 43,-36.1043 39.5001,-46.1044 46.5001,-46.1043"/>
<g id="a_edge1&#45;headlabel"><a xlink:href="dir_000019_000000.html" target="_top" xlink:title="2">
<text text-anchor="middle" x="49.3393" y="-47.199" font-family="Helvetica,sans-Serif" font-size="10.00">2</text>
</a>
</g>
</g>
</g>
</svg>
