<?xml version="1.0" encoding="UTF-8" standalone="no"?>
<!DOCTYPE svg PUBLIC "-//W3C//DTD SVG 1.1//EN"
 "http://www.w3.org/Graphics/SVG/1.1/DTD/svg11.dtd">
<!-- Generated by graphviz version 2.36.0 (20140111.2315)
 -->
<!-- Title: include/shad/distributed_iterator_traits.h Pages: 1 -->
<svg width="497pt" height="220pt"
 viewBox="0.00 0.00 497.00 220.00" xmlns="http://www.w3.org/2000/svg" xmlns:xlink="http://www.w3.org/1999/xlink">
<g id="graph0" class="graph" transform="scale(1 1) rotate(0) translate(4 216)">
<title>include/shad/distributed_iterator_traits.h</title>
<polygon fill="white" stroke="none" points="-4,4 -4,-216 493,-216 493,4 -4,4"/>
<!-- Node1 -->
<g id="node1" class="node"><title>Node1</title>
<polygon fill="#bfbfbf" stroke="black" points="30.5,-181 30.5,-211 149.5,-211 149.5,-181 30.5,-181"/>
<text text-anchor="start" x="38.5" y="-199" font-family="Helvetica,sans-Serif" font-size="10.00">include/shad/distributed</text>
<text text-anchor="middle" x="90" y="-188" font-family="Helvetica,sans-Serif" font-size="10.00">_iterator_traits.h</text>
</g>
<!-- Node2 -->
<g id="node2" class="node"><title>Node2</title>
<polygon fill="white" stroke="#bfbfbf" points="-0.5,-124.5 -0.5,-143.5 48.5,-143.5 48.5,-124.5 -0.5,-124.5"/>
<text text-anchor="middle" x="24" y="-131.5" font-family="Helvetica,sans-Serif" font-size="10.00">cassert</text>
</g>
<!-- Node1&#45;&gt;Node2 -->
<g id="edge1" class="edge"><title>Node1&#45;&gt;Node2</title>
<path fill="none" stroke="midnightblue" d="M74.3589,-180.781C64.3728,-171.703 51.422,-159.929 41.1546,-150.595"/>
<polygon fill="midnightblue" stroke="midnightblue" points="43.3574,-147.867 33.6036,-143.731 38.6486,-153.047 43.3574,-147.867"/>
</g>
<!-- Node3 -->
<g id="node3" class="node"><title>Node3</title>
<polygon fill="white" stroke="#bfbfbf" points="66.5,-124.5 66.5,-143.5 113.5,-143.5 113.5,-124.5 66.5,-124.5"/>
<text text-anchor="middle" x="90" y="-131.5" font-family="Helvetica,sans-Serif" font-size="10.00">iterator</text>
</g>
<!-- Node1&#45;&gt;Node3 -->
<g id="edge2" class="edge"><title>Node1&#45;&gt;Node3</title>
<path fill="none" stroke="midnightblue" d="M90,-180.781C90,-172.781 90,-162.689 90,-154.017"/>
<polygon fill="midnightblue" stroke="midnightblue" points="93.5001,-153.73 90,-143.731 86.5001,-153.731 93.5001,-153.73"/>
</g>
<!-- Node4 -->
<g id="node4" class="node"><title>Node4</title>
<g id="a_node4"><a xlink:href="locality_8h.html" target="_top" xlink:title="shad/runtime/locality.h">
<polygon fill="white" stroke="black" points="131.5,-124.5 131.5,-143.5 246.5,-143.5 246.5,-124.5 131.5,-124.5"/>
<text text-anchor="middle" x="189" y="-131.5" font-family="Helvetica,sans-Serif" font-size="10.00">shad/runtime/locality.h</text>
</a>
</g>
</g>
<!-- Node1&#45;&gt;Node4 -->
<g id="edge3" class="edge"><title>Node1&#45;&gt;Node4</title>
<path fill="none" stroke="midnightblue" d="M113.211,-180.933C129.168,-171.262 150.259,-158.479 166.14,-148.855"/>
<polygon fill="midnightblue" stroke="midnightblue" points="168.072,-151.776 174.81,-143.6 164.444,-145.79 168.072,-151.776"/>
</g>
<!-- Node5 -->
<g id="node5" class="node"><title>Node5</title>
<polygon fill="white" stroke="#bfbfbf" points="43,-62.5 43,-81.5 89,-81.5 89,-62.5 43,-62.5"/>
<text text-anchor="middle" x="66" y="-69.5" font-family="Helvetica,sans-Serif" font-size="10.00">cstdint</text>
</g>
<!-- Node4&#45;&gt;Node5 -->
<g id="edge4" class="edge"><title>Node4&#45;&gt;Node5</title>
<path fill="none" stroke="midnightblue" d="M171.377,-124.403C150.826,-114.379 116.636,-97.7006 92.7933,-86.0699"/>
<polygon fill="midnightblue" stroke="midnightblue" points="94.1124,-82.8192 83.5902,-81.5806 91.0434,-89.1106 94.1124,-82.8192"/>
</g>
<!-- Node6 -->
<g id="node6" class="node"><title>Node6</title>
<polygon fill="white" stroke="#bfbfbf" points="107,-62.5 107,-81.5 161,-81.5 161,-62.5 107,-62.5"/>
<text text-anchor="middle" x="134" y="-69.5" font-family="Helvetica,sans-Serif" font-size="10.00">iostream</text>
</g>
<!-- Node4&#45;&gt;Node6 -->
<g id="edge5" class="edge"><title>Node4&#45;&gt;Node6</title>
<path fill="none" stroke="midnightblue" d="M181.12,-124.403C172.706,-115.225 159.181,-100.47 148.774,-89.1173"/>
<polygon fill="midnightblue" stroke="midnightblue" points="151.203,-86.5871 141.866,-81.5806 146.043,-91.3172 151.203,-86.5871"/>
</g>
<!-- Node7 -->
<g id="node7" class="node"><title>Node7</title>
<polygon fill="white" stroke="#bfbfbf" points="137,-0.5 137,-19.5 241,-19.5 241,-0.5 137,-0.5"/>
<text text-anchor="middle" x="189" y="-7.5" font-family="Helvetica,sans-Serif" font-size="10.00">shad/config/config.h</text>
</g>
<!-- Node4&#45;&gt;Node7 -->
<g id="edge6" class="edge"><title>Node4&#45;&gt;Node7</title>
<path fill="none" stroke="midnightblue" d="M189,-124.226C189,-104.53 189,-56.4371 189,-29.7004"/>
<polygon fill="midnightblue" stroke="midnightblue" points="192.5,-29.6944 189,-19.6944 185.5,-29.6945 192.5,-29.6944"/>
</g>
<!-- Node8 -->
<g id="node8" class="node"><title>Node8</title>
<g id="a_node8"><a xlink:href="mapping__traits_8h.html" target="_top" xlink:title="shad/runtime/mapping\l_traits.h">
<polygon fill="white" stroke="black" points="217.5,-57 217.5,-87 330.5,-87 330.5,-57 217.5,-57"/>
<text text-anchor="start" x="225.5" y="-75" font-family="Helvetica,sans-Serif" font-size="10.00">shad/runtime/mapping</text>
<text text-anchor="middle" x="274" y="-64" font-family="Helvetica,sans-Serif" font-size="10.00">_traits.h</text>
</a>
</g>
</g>
<!-- Node4&#45;&gt;Node8 -->
<g id="edge7" class="edge"><title>Node4&#45;&gt;Node8</title>
<path fill="none" stroke="midnightblue" d="M201.178,-124.403C212.69,-116.277 230.396,-103.779 245.466,-93.1419"/>
<polygon fill="midnightblue" stroke="midnightblue" points="247.816,-95.7671 253.967,-87.1408 243.779,-90.0483 247.816,-95.7671"/>
</g>
<!-- Node10 -->
<g id="node10" class="node"><title>Node10</title>
<g id="a_node10"><a xlink:href="available__traits__mappings_8h.html" target="_top" xlink:title="shad/runtime/mappings\l/available_traits_mappings.h">
<polygon fill="white" stroke="black" points="349,-57 349,-87 489,-87 489,-57 349,-57"/>
<text text-anchor="start" x="357" y="-75" font-family="Helvetica,sans-Serif" font-size="10.00">shad/runtime/mappings</text>
<text text-anchor="middle" x="419" y="-64" font-family="Helvetica,sans-Serif" font-size="10.00">/available_traits_mappings.h</text>
</a>
</g>
</g>
<!-- Node4&#45;&gt;Node10 -->
<g id="edge10" class="edge"><title>Node4&#45;&gt;Node10</title>
<path fill="none" stroke="midnightblue" d="M221.953,-124.403C256.64,-115.355 312.105,-100.886 355.365,-89.6005"/>
<polygon fill="midnightblue" stroke="midnightblue" points="356.444,-92.9363 365.236,-87.0253 354.677,-86.1629 356.444,-92.9363"/>
</g>
<!-- Node8&#45;&gt;Node7 -->
<g id="edge9" class="edge"><title>Node8&#45;&gt;Node7</title>
<path fill="none" stroke="midnightblue" d="M253.856,-56.7808C240.405,-47.2862 222.778,-34.8434 209.296,-25.3267"/>
<polygon fill="midnightblue" stroke="midnightblue" points="211.309,-22.4632 201.121,-19.5557 207.272,-28.182 211.309,-22.4632"/>
</g>
<!-- Node9 -->
<g id="node9" class="node"><title>Node9</title>
<polygon fill="white" stroke="#bfbfbf" points="259.5,-0.5 259.5,-19.5 300.5,-19.5 300.5,-0.5 259.5,-0.5"/>
<text text-anchor="middle" x="280" y="-7.5" font-family="Helvetica,sans-Serif" font-size="10.00">string</text>
</g>
<!-- Node8&#45;&gt;Node9 -->
<g id="edge8" class="edge"><title>Node8&#45;&gt;Node9</title>
<path fill="none" stroke="midnightblue" d="M275.422,-56.7808C276.231,-48.6913 277.254,-38.4617 278.127,-29.725"/>
<polygon fill="midnightblue" stroke="midnightblue" points="281.614,-30.0292 279.127,-19.7305 274.649,-29.3326 281.614,-30.0292"/>
</g>
</g>
</svg>
