<?xml version="1.0" encoding="UTF-8" standalone="no"?>
<!DOCTYPE svg PUBLIC "-//W3C//DTD SVG 1.1//EN"
 "http://www.w3.org/Graphics/SVG/1.1/DTD/svg11.dtd">
<!-- Generated by graphviz version 2.36.0 (20140111.2315)
 -->
<!-- Title: include/shad/distributed_iterator_traits.h Pages: 1 -->
<svg width="454pt" height="220pt"
 viewBox="0.00 0.00 454.00 220.00" xmlns="http://www.w3.org/2000/svg" xmlns:xlink="http://www.w3.org/1999/xlink">
<g id="graph0" class="graph" transform="scale(1 1) rotate(0) translate(4 216)">
<title>include/shad/distributed_iterator_traits.h</title>
<polygon fill="white" stroke="none" points="-4,4 -4,-216 450,-216 450,4 -4,4"/>
<!-- Node1 -->
<g id="node1" class="node"><title>Node1</title>
<polygon fill="#bfbfbf" stroke="black" points="30.5,-181 30.5,-211 149.5,-211 149.5,-181 30.5,-181"/>
<text text-anchor="start" x="38.5" y="-199" font-family="Helvetica,sans-Serif" font-size="10.00">include/shad/distributed</text>
<text text-anchor="middle" x="90" y="-188" font-family="Helvetica,sans-Serif" font-size="10.00">_iterator_traits.h</text>
</g>
<!-- Node2 -->
<g id="node2" class="node"><title>Node2</title>
<polygon fill="white" stroke="#bfbfbf" points="-0.5,-124.5 -0.5,-143.5 48.5,-143.5 48.5,-124.5 -0.5,-124.5"/>
<text text-anchor="middle" x="24" y="-131.5" font-family="Helvetica,sans-Serif" font-size="10.00">cassert</text>
</g>
<!-- Node1&#45;&gt;Node2 -->
<g id="edge1" class="edge"><title>Node1&#45;&gt;Node2</title>
<path fill="none" stroke="midnightblue" d="M74.3589,-180.781C64.3728,-171.703 51.422,-159.929 41.1546,-150.595"/>
<polygon fill="midnightblue" stroke="midnightblue" points="43.3574,-147.867 33.6036,-143.731 38.6486,-153.047 43.3574,-147.867"/>
</g>
<!-- Node3 -->
<g id="node3" class="node"><title>Node3</title>
<polygon fill="white" stroke="#bfbfbf" points="66.5,-124.5 66.5,-143.5 113.5,-143.5 113.5,-124.5 66.5,-124.5"/>
<text text-anchor="middle" x="90" y="-131.5" font-family="Helvetica,sans-Serif" font-size="10.00">iterator</text>
</g>
<!-- Node1&#45;&gt;Node3 -->
<g id="edge2" class="edge"><title>Node1&#45;&gt;Node3</title>
<path fill="none" stroke="midnightblue" d="M90,-180.781C90,-172.781 90,-162.689 90,-154.017"/>
<polygon fill="midnightblue" stroke="midnightblue" points="93.5001,-153.73 90,-143.731 86.5001,-153.731 93.5001,-153.73"/>
</g>
<!-- Node4 -->
<g id="node4" class="node"><title>Node4</title>
<g id="a_node4"><a xlink:href="locality_8h.html" target="_top" xlink:title="shad/runtime/locality.h">
<polygon fill="white" stroke="black" points="131.5,-124.5 131.5,-143.5 246.5,-143.5 246.5,-124.5 131.5,-124.5"/>
<text text-anchor="middle" x="189" y="-131.5" font-family="Helvetica,sans-Serif" font-size="10.00">shad/runtime/locality.h</text>
</a>
</g>
</g>
<!-- Node1&#45;&gt;Node4 -->
<g id="edge3" class="edge"><title>Node1&#45;&gt;Node4</title>
<path fill="none" stroke="midnightblue" d="M113.211,-180.933C129.168,-171.262 150.259,-158.479 166.14,-148.855"/>
<polygon fill="midnightblue" stroke="midnightblue" points="168.072,-151.776 174.81,-143.6 164.444,-145.79 168.072,-151.776"/>
</g>
<!-- Node5 -->
<g id="node5" class="node"><title>Node5</title>
<polygon fill="white" stroke="#bfbfbf" points="72,-62.5 72,-81.5 118,-81.5 118,-62.5 72,-62.5"/>
<text text-anchor="middle" x="95" y="-69.5" font-family="Helvetica,sans-Serif" font-size="10.00">cstdint</text>
</g>
<!-- Node4&#45;&gt;Node5 -->
<g id="edge4" class="edge"><title>Node4&#45;&gt;Node5</title>
<path fill="none" stroke="midnightblue" d="M175.532,-124.403C160.315,-114.691 135.313,-98.7319 117.199,-87.1697"/>
<polygon fill="midnightblue" stroke="midnightblue" points="118.755,-84.0108 108.443,-81.5806 114.989,-89.9112 118.755,-84.0108"/>
</g>
<!-- Node6 -->
<g id="node6" class="node"><title>Node6</title>
<polygon fill="white" stroke="#bfbfbf" points="94,-0.5 94,-19.5 198,-19.5 198,-0.5 94,-0.5"/>
<text text-anchor="middle" x="146" y="-7.5" font-family="Helvetica,sans-Serif" font-size="10.00">shad/config/config.h</text>
</g>
<!-- Node4&#45;&gt;Node6 -->
<g id="edge5" class="edge"><title>Node4&#45;&gt;Node6</title>
<path fill="none" stroke="midnightblue" d="M183.545,-124.343C178.177,-115.5 170.069,-101.229 165,-88 157.626,-68.7562 152.38,-45.6941 149.294,-29.8564"/>
<polygon fill="midnightblue" stroke="midnightblue" points="152.687,-28.957 147.429,-19.7588 145.804,-30.2282 152.687,-28.957"/>
</g>
<!-- Node7 -->
<g id="node7" class="node"><title>Node7</title>
<g id="a_node7"><a xlink:href="mapping__traits_8h.html" target="_top" xlink:title="shad/runtime/mapping\l_traits.h">
<polygon fill="white" stroke="black" points="174.5,-57 174.5,-87 287.5,-87 287.5,-57 174.5,-57"/>
<text text-anchor="start" x="182.5" y="-75" font-family="Helvetica,sans-Serif" font-size="10.00">shad/runtime/mapping</text>
<text text-anchor="middle" x="231" y="-64" font-family="Helvetica,sans-Serif" font-size="10.00">_traits.h</text>
</a>
</g>
</g>
<!-- Node4&#45;&gt;Node7 -->
<g id="edge6" class="edge"><title>Node4&#45;&gt;Node7</title>
<path fill="none" stroke="midnightblue" d="M195.018,-124.403C200.281,-116.885 208.163,-105.624 215.21,-95.5565"/>
<polygon fill="midnightblue" stroke="midnightblue" points="218.234,-97.3403 221.101,-87.1408 212.499,-93.326 218.234,-97.3403"/>
</g>
<!-- Node9 -->
<g id="node9" class="node"><title>Node9</title>
<g id="a_node9"><a xlink:href="available__traits__mappings_8h.html" target="_top" xlink:title="shad/runtime/mappings\l/available_traits_mappings.h">
<polygon fill="white" stroke="black" points="306,-57 306,-87 446,-87 446,-57 306,-57"/>
<text text-anchor="start" x="314" y="-75" font-family="Helvetica,sans-Serif" font-size="10.00">shad/runtime/mappings</text>
<text text-anchor="middle" x="376" y="-64" font-family="Helvetica,sans-Serif" font-size="10.00">/available_traits_mappings.h</text>
</a>
</g>
</g>
<!-- Node4&#45;&gt;Node9 -->
<g id="edge9" class="edge"><title>Node4&#45;&gt;Node9</title>
<path fill="none" stroke="midnightblue" d="M215.793,-124.403C243.578,-115.488 287.764,-101.311 322.7,-90.1014"/>
<polygon fill="midnightblue" stroke="midnightblue" points="323.835,-93.4132 332.288,-87.0253 321.697,-86.7479 323.835,-93.4132"/>
</g>
<!-- Node7&#45;&gt;Node6 -->
<g id="edge8" class="edge"><title>Node7&#45;&gt;Node6</title>
<path fill="none" stroke="midnightblue" d="M210.856,-56.7808C197.405,-47.2862 179.778,-34.8434 166.296,-25.3267"/>
<polygon fill="midnightblue" stroke="midnightblue" points="168.309,-22.4632 158.121,-19.5557 164.272,-28.182 168.309,-22.4632"/>
</g>
<!-- Node8 -->
<g id="node8" class="node"><title>Node8</title>
<polygon fill="white" stroke="#bfbfbf" points="216.5,-0.5 216.5,-19.5 257.5,-19.5 257.5,-0.5 216.5,-0.5"/>
<text text-anchor="middle" x="237" y="-7.5" font-family="Helvetica,sans-Serif" font-size="10.00">string</text>
</g>
<!-- Node7&#45;&gt;Node8 -->
<g id="edge7" class="edge"><title>Node7&#45;&gt;Node8</title>
<path fill="none" stroke="midnightblue" d="M232.422,-56.7808C233.231,-48.6913 234.254,-38.4617 235.127,-29.725"/>
<polygon fill="midnightblue" stroke="midnightblue" points="238.614,-30.0292 236.127,-19.7305 231.649,-29.3326 238.614,-30.0292"/>
</g>
</g>
</svg>
