<?xml version="1.0" encoding="UTF-8" standalone="no"?>
<!DOCTYPE svg PUBLIC "-//W3C//DTD SVG 1.1//EN"
 "http://www.w3.org/Graphics/SVG/1.1/DTD/svg11.dtd">
<!-- Generated by graphviz version 2.36.0 (20140111.2315)
 -->
<!-- Title: include/shad/distributed_iterator_traits.h Pages: 1 -->
<svg width="2414pt" height="252pt"
 viewBox="0.00 0.00 2414.20 252.00" xmlns="http://www.w3.org/2000/svg" xmlns:xlink="http://www.w3.org/1999/xlink">
<g id="graph0" class="graph" transform="scale(1 1) rotate(0) translate(4 248)">
<title>include/shad/distributed_iterator_traits.h</title>
<polygon fill="white" stroke="none" points="-4,4 -4,-248 2410.2,-248 2410.2,4 -4,4"/>
<!-- Node1 -->
<g id="node1" class="node"><title>Node1</title>
<polygon fill="#bfbfbf" stroke="black" points="799.701,-213 799.701,-243 918.701,-243 918.701,-213 799.701,-213"/>
<text text-anchor="start" x="807.701" y="-231" font-family="Helvetica,sans-Serif" font-size="10.00">include/shad/distributed</text>
<text text-anchor="middle" x="859.201" y="-220" font-family="Helvetica,sans-Serif" font-size="10.00">_iterator_traits.h</text>
</g>
<!-- Node2 -->
<g id="node2" class="node"><title>Node2</title>
<g id="a_node2"><a xlink:href="algorithm_8h.html" target="_top" xlink:title="include/shad/core/algorithm.h">
<polygon fill="white" stroke="black" points="146.201,-0.5 146.201,-19.5 290.201,-19.5 290.201,-0.5 146.201,-0.5"/>
<text text-anchor="middle" x="218.201" y="-7.5" font-family="Helvetica,sans-Serif" font-size="10.00">include/shad/core/algorithm.h</text>
</a>
</g>
</g>
<!-- Node1&#45;&gt;Node2 -->
<g id="edge1" class="edge"><title>Node1&#45;&gt;Node2</title>
<path fill="none" stroke="midnightblue" d="M789.4,-225.316C637.345,-221.091 280.512,-207.996 164.201,-176 89.4603,-155.44 48.9541,-163.94 8.20096,-98 -1.61268,-82.1212 -3.53435,-70.5164 8.20096,-56 25.4593,-34.6517 92.3422,-22.974 146.052,-16.9051"/>
<polygon fill="midnightblue" stroke="midnightblue" points="789.46,-228.819 799.552,-225.594 789.651,-221.822 789.46,-228.819"/>
</g>
<!-- Node3 -->
<g id="node3" class="node"><title>Node3</title>
<g id="a_node3"><a xlink:href="core_2array_8h.html" target="_top" xlink:title="include/shad/core/array.h">
<polygon fill="white" stroke="black" points="727.201,-145.5 727.201,-164.5 853.201,-164.5 853.201,-145.5 727.201,-145.5"/>
<text text-anchor="middle" x="790.201" y="-152.5" font-family="Helvetica,sans-Serif" font-size="10.00">include/shad/core/array.h</text>
</a>
</g>
</g>
<!-- Node1&#45;&gt;Node3 -->
<g id="edge2" class="edge"><title>Node1&#45;&gt;Node3</title>
<path fill="none" stroke="midnightblue" d="M838.543,-205.743C825.164,-191.976 808.455,-174.783 798.595,-164.637"/>
<polygon fill="midnightblue" stroke="midnightblue" points="836.089,-208.241 845.569,-212.973 841.109,-203.362 836.089,-208.241"/>
</g>
<!-- Node4 -->
<g id="node4" class="node"><title>Node4</title>
<g id="a_node4"><a xlink:href="binary__search__ops_8h.html" target="_top" xlink:title="include/shad/core/impl\l/binary_search_ops.h">
<polygon fill="white" stroke="black" points="871.201,-140 871.201,-170 985.201,-170 985.201,-140 871.201,-140"/>
<text text-anchor="start" x="879.201" y="-158" font-family="Helvetica,sans-Serif" font-size="10.00">include/shad/core/impl</text>
<text text-anchor="middle" x="928.201" y="-147" font-family="Helvetica,sans-Serif" font-size="10.00">/binary_search_ops.h</text>
</a>
</g>
</g>
<!-- Node1&#45;&gt;Node4 -->
<g id="edge3" class="edge"><title>Node1&#45;&gt;Node4</title>
<path fill="none" stroke="midnightblue" d="M880.043,-205.554C891.07,-194.207 904.316,-180.577 914.123,-170.486"/>
<polygon fill="midnightblue" stroke="midnightblue" points="877.293,-203.362 872.833,-212.973 882.312,-208.241 877.293,-203.362"/>
</g>
<!-- Node5 -->
<g id="node5" class="node"><title>Node5</title>
<g id="a_node5"><a xlink:href="comparison__ops_8h.html" target="_top" xlink:title="include/shad/core/impl\l/comparison_ops.h">
<polygon fill="white" stroke="black" points="17.201,-62 17.201,-92 131.201,-92 131.201,-62 17.201,-62"/>
<text text-anchor="start" x="25.201" y="-80" font-family="Helvetica,sans-Serif" font-size="10.00">include/shad/core/impl</text>
<text text-anchor="middle" x="74.201" y="-69" font-family="Helvetica,sans-Serif" font-size="10.00">/comparison_ops.h</text>
</a>
</g>
</g>
<!-- Node1&#45;&gt;Node5 -->
<g id="edge4" class="edge"><title>Node1&#45;&gt;Node5</title>
<path fill="none" stroke="midnightblue" d="M789.442,-224.392C654.368,-218.788 361.91,-203.794 265.201,-176 198.934,-156.955 128.697,-114.257 94.835,-92.0383"/>
<polygon fill="midnightblue" stroke="midnightblue" points="789.537,-227.899 799.672,-224.811 789.823,-220.905 789.537,-227.899"/>
</g>
<!-- Node6 -->
<g id="node6" class="node"><title>Node6</title>
<g id="a_node6"><a xlink:href="heap__ops_8h.html" target="_top" xlink:title="include/shad/core/impl\l/heap_ops.h">
<polygon fill="white" stroke="black" points="1003.2,-140 1003.2,-170 1117.2,-170 1117.2,-140 1003.2,-140"/>
<text text-anchor="start" x="1011.2" y="-158" font-family="Helvetica,sans-Serif" font-size="10.00">include/shad/core/impl</text>
<text text-anchor="middle" x="1060.2" y="-147" font-family="Helvetica,sans-Serif" font-size="10.00">/heap_ops.h</text>
</a>
</g>
</g>
<!-- Node1&#45;&gt;Node6 -->
<g id="edge6" class="edge"><title>Node1&#45;&gt;Node6</title>
<path fill="none" stroke="midnightblue" d="M908.74,-209.501C943.071,-197.374 988.19,-181.437 1020.23,-170.12"/>
<polygon fill="midnightblue" stroke="midnightblue" points="907.175,-206.342 898.912,-212.973 909.507,-212.942 907.175,-206.342"/>
</g>
<!-- Node7 -->
<g id="node7" class="node"><title>Node7</title>
<g id="a_node7"><a xlink:href="impl__patterns_8h.html" target="_top" xlink:title="include/shad/core/impl\l/impl_patterns.h">
<polygon fill="white" stroke="black" points="481.201,-140 481.201,-170 595.201,-170 595.201,-140 481.201,-140"/>
<text text-anchor="start" x="489.201" y="-158" font-family="Helvetica,sans-Serif" font-size="10.00">include/shad/core/impl</text>
<text text-anchor="middle" x="538.201" y="-147" font-family="Helvetica,sans-Serif" font-size="10.00">/impl_patterns.h</text>
</a>
</g>
</g>
<!-- Node1&#45;&gt;Node7 -->
<g id="edge7" class="edge"><title>Node1&#45;&gt;Node7</title>
<path fill="none" stroke="midnightblue" d="M789.46,-214.194C739.146,-204.61 669.713,-190.674 609.201,-176 601.734,-174.189 593.867,-172.129 586.197,-170.035"/>
<polygon fill="midnightblue" stroke="midnightblue" points="789.1,-217.688 799.577,-216.111 790.404,-210.81 789.1,-217.688"/>
</g>
<!-- Node8 -->
<g id="node8" class="node"><title>Node8</title>
<g id="a_node8"><a xlink:href="minimum__maximum__ops_8h.html" target="_top" xlink:title="include/shad/core/impl\l/minimum_maximum_ops.h">
<polygon fill="white" stroke="black" points="149.701,-62 149.701,-92 286.701,-92 286.701,-62 149.701,-62"/>
<text text-anchor="start" x="157.701" y="-80" font-family="Helvetica,sans-Serif" font-size="10.00">include/shad/core/impl</text>
<text text-anchor="middle" x="218.201" y="-69" font-family="Helvetica,sans-Serif" font-size="10.00">/minimum_maximum_ops.h</text>
</a>
</g>
</g>
<!-- Node1&#45;&gt;Node8 -->
<g id="edge16" class="edge"><title>Node1&#45;&gt;Node8</title>
<path fill="none" stroke="midnightblue" d="M789.335,-225.646C664.633,-222.351 409.203,-211.376 328.201,-176 284.839,-157.063 246.703,-114.317 228.885,-92.0631"/>
<polygon fill="midnightblue" stroke="midnightblue" points="789.449,-229.15 799.535,-225.906 789.628,-222.152 789.449,-229.15"/>
</g>
<!-- Node9 -->
<g id="node9" class="node"><title>Node9</title>
<g id="a_node9"><a xlink:href="modifyng__sequence__ops_8h.html" target="_top" xlink:title="include/shad/core/impl\l/modifyng_sequence_ops.h">
<polygon fill="white" stroke="black" points="305.201,-62 305.201,-92 441.201,-92 441.201,-62 305.201,-62"/>
<text text-anchor="start" x="313.201" y="-80" font-family="Helvetica,sans-Serif" font-size="10.00">include/shad/core/impl</text>
<text text-anchor="middle" x="373.201" y="-69" font-family="Helvetica,sans-Serif" font-size="10.00">/modifyng_sequence_ops.h</text>
</a>
</g>
</g>
<!-- Node1&#45;&gt;Node9 -->
<g id="edge17" class="edge"><title>Node1&#45;&gt;Node9</title>
<path fill="none" stroke="midnightblue" d="M789.224,-225.243C654.518,-221.134 369.797,-208.646 340.201,-176 318.377,-151.926 343.91,-112.905 360.744,-92.1068"/>
<polygon fill="midnightblue" stroke="midnightblue" points="789.339,-228.748 799.439,-225.547 789.548,-221.751 789.339,-228.748"/>
</g>
<!-- Node10 -->
<g id="node10" class="node"><title>Node10</title>
<g id="a_node10"><a xlink:href="non__modifyng__sequence__ops_8h.html" target="_top" xlink:title="include/shad/core/impl\l/non_modifyng_sequence_ops.h">
<polygon fill="white" stroke="black" points="459.701,-62 459.701,-92 616.701,-92 616.701,-62 459.701,-62"/>
<text text-anchor="start" x="467.701" y="-80" font-family="Helvetica,sans-Serif" font-size="10.00">include/shad/core/impl</text>
<text text-anchor="middle" x="538.201" y="-69" font-family="Helvetica,sans-Serif" font-size="10.00">/non_modifyng_sequence_ops.h</text>
</a>
</g>
</g>
<!-- Node1&#45;&gt;Node10 -->
<g id="edge18" class="edge"><title>Node1&#45;&gt;Node10</title>
<path fill="none" stroke="midnightblue" d="M789.566,-214.554C753.144,-206.467 708.5,-194.016 671.201,-176 646.795,-164.212 585.933,-116.414 555.747,-92.202"/>
<polygon fill="midnightblue" stroke="midnightblue" points="789.095,-218.033 799.608,-216.721 790.571,-211.191 789.095,-218.033"/>
</g>
<!-- Node11 -->
<g id="node11" class="node"><title>Node11</title>
<g id="a_node11"><a xlink:href="numeric__ops_8h.html" target="_top" xlink:title="include/shad/core/impl\l/numeric_ops.h">
<polygon fill="white" stroke="black" points="635.201,-62 635.201,-92 749.201,-92 749.201,-62 635.201,-62"/>
<text text-anchor="start" x="643.201" y="-80" font-family="Helvetica,sans-Serif" font-size="10.00">include/shad/core/impl</text>
<text text-anchor="middle" x="692.201" y="-69" font-family="Helvetica,sans-Serif" font-size="10.00">/numeric_ops.h</text>
</a>
</g>
</g>
<!-- Node1&#45;&gt;Node11 -->
<g id="edge19" class="edge"><title>Node1&#45;&gt;Node11</title>
<path fill="none" stroke="midnightblue" d="M789.592,-215.343C746.937,-206.62 698.112,-193.239 685.201,-176 666.795,-151.425 677.733,-112.959 685.85,-92.2856"/>
<polygon fill="midnightblue" stroke="midnightblue" points="788.938,-218.781 799.428,-217.296 790.301,-211.915 788.938,-218.781"/>
</g>
<!-- Node12 -->
<g id="node12" class="node"><title>Node12</title>
<g id="a_node12"><a xlink:href="numeric_8h.html" target="_top" xlink:title="include/shad/core/numeric.h">
<polygon fill="white" stroke="black" points="664.701,-0.5 664.701,-19.5 803.701,-19.5 803.701,-0.5 664.701,-0.5"/>
<text text-anchor="middle" x="734.201" y="-7.5" font-family="Helvetica,sans-Serif" font-size="10.00">include/shad/core/numeric.h</text>
</a>
</g>
</g>
<!-- Node1&#45;&gt;Node12 -->
<g id="edge28" class="edge"><title>Node1&#45;&gt;Node12</title>
<path fill="none" stroke="midnightblue" d="M789.643,-218.943C762.761,-212.047 734.581,-199.343 718.201,-176 707.479,-160.72 710.607,-151.052 718.201,-134 727.932,-112.151 748.47,-119.849 758.201,-98 770.376,-70.6621 751.024,-35.6884 740.412,-19.6908"/>
<polygon fill="midnightblue" stroke="midnightblue" points="788.931,-222.37 799.464,-221.229 790.519,-215.553 788.931,-222.37"/>
</g>
<!-- Node13 -->
<g id="node13" class="node"><title>Node13</title>
<g id="a_node13"><a xlink:href="ops__on__uninitialized__memory_8h.html" target="_top" xlink:title="include/shad/core/impl\l/ops_on_uninitialized\l_memory.h">
<polygon fill="white" stroke="black" points="1135.2,-134.5 1135.2,-175.5 1249.2,-175.5 1249.2,-134.5 1135.2,-134.5"/>
<text text-anchor="start" x="1143.2" y="-163.5" font-family="Helvetica,sans-Serif" font-size="10.00">include/shad/core/impl</text>
<text text-anchor="start" x="1143.2" y="-152.5" font-family="Helvetica,sans-Serif" font-size="10.00">/ops_on_uninitialized</text>
<text text-anchor="middle" x="1192.2" y="-141.5" font-family="Helvetica,sans-Serif" font-size="10.00">_memory.h</text>
</a>
</g>
</g>
<!-- Node1&#45;&gt;Node13 -->
<g id="edge20" class="edge"><title>Node1&#45;&gt;Node13</title>
<path fill="none" stroke="midnightblue" d="M928.887,-215.763C983.019,-206.535 1059.8,-192.354 1126.2,-176 1129.11,-175.284 1132.08,-174.517 1135.07,-173.717"/>
<polygon fill="midnightblue" stroke="midnightblue" points="927.988,-212.365 918.712,-217.485 929.156,-219.267 927.988,-212.365"/>
</g>
<!-- Node14 -->
<g id="node14" class="node"><title>Node14</title>
<g id="a_node14"><a xlink:href="other__ops__on__sorted__ranges_8h.html" target="_top" xlink:title="include/shad/core/impl\l/other_ops_on_sorted_ranges.h">
<polygon fill="white" stroke="black" points="1267.7,-140 1267.7,-170 1420.7,-170 1420.7,-140 1267.7,-140"/>
<text text-anchor="start" x="1275.7" y="-158" font-family="Helvetica,sans-Serif" font-size="10.00">include/shad/core/impl</text>
<text text-anchor="middle" x="1344.2" y="-147" font-family="Helvetica,sans-Serif" font-size="10.00">/other_ops_on_sorted_ranges.h</text>
</a>
</g>
</g>
<!-- Node1&#45;&gt;Node14 -->
<g id="edge21" class="edge"><title>Node1&#45;&gt;Node14</title>
<path fill="none" stroke="midnightblue" d="M929.41,-220.203C1009.36,-211.958 1143.74,-196.569 1258.2,-176 1267.71,-174.292 1277.74,-172.213 1287.47,-170.05"/>
<polygon fill="midnightblue" stroke="midnightblue" points="928.568,-216.77 918.976,-221.27 929.28,-223.734 928.568,-216.77"/>
</g>
<!-- Node15 -->
<g id="node15" class="node"><title>Node15</title>
<g id="a_node15"><a xlink:href="partitioning__ops_8h.html" target="_top" xlink:title="include/shad/core/impl\l/partitioning_ops.h">
<polygon fill="white" stroke="black" points="1439.2,-140 1439.2,-170 1553.2,-170 1553.2,-140 1439.2,-140"/>
<text text-anchor="start" x="1447.2" y="-158" font-family="Helvetica,sans-Serif" font-size="10.00">include/shad/core/impl</text>
<text text-anchor="middle" x="1496.2" y="-147" font-family="Helvetica,sans-Serif" font-size="10.00">/partitioning_ops.h</text>
</a>
</g>
</g>
<!-- Node1&#45;&gt;Node15 -->
<g id="edge22" class="edge"><title>Node1&#45;&gt;Node15</title>
<path fill="none" stroke="midnightblue" d="M928.949,-225.262C1037.01,-221.561 1251.03,-210.204 1429.2,-176 1437.19,-174.467 1445.58,-172.366 1453.63,-170.1"/>
<polygon fill="midnightblue" stroke="midnightblue" points="928.706,-221.768 918.827,-225.597 928.937,-228.764 928.706,-221.768"/>
</g>
<!-- Node16 -->
<g id="node16" class="node"><title>Node16</title>
<g id="a_node16"><a xlink:href="permutation__ops_8h.html" target="_top" xlink:title="include/shad/core/impl\l/permutation_ops.h">
<polygon fill="white" stroke="black" points="1571.2,-140 1571.2,-170 1685.2,-170 1685.2,-140 1571.2,-140"/>
<text text-anchor="start" x="1579.2" y="-158" font-family="Helvetica,sans-Serif" font-size="10.00">include/shad/core/impl</text>
<text text-anchor="middle" x="1628.2" y="-147" font-family="Helvetica,sans-Serif" font-size="10.00">/permutation_ops.h</text>
</a>
</g>
</g>
<!-- Node1&#45;&gt;Node16 -->
<g id="edge23" class="edge"><title>Node1&#45;&gt;Node16</title>
<path fill="none" stroke="midnightblue" d="M929.393,-227.033C1056.63,-225.96 1333.41,-218.42 1562.2,-176 1570.32,-174.494 1578.86,-172.347 1587,-170.014"/>
<polygon fill="midnightblue" stroke="midnightblue" points="928.994,-223.535 919.02,-227.109 929.046,-230.535 928.994,-223.535"/>
</g>
<!-- Node17 -->
<g id="node17" class="node"><title>Node17</title>
<g id="a_node17"><a xlink:href="set__ops_8h.html" target="_top" xlink:title="include/shad/core/impl\l/set_ops.h">
<polygon fill="white" stroke="black" points="1703.2,-140 1703.2,-170 1817.2,-170 1817.2,-140 1703.2,-140"/>
<text text-anchor="start" x="1711.2" y="-158" font-family="Helvetica,sans-Serif" font-size="10.00">include/shad/core/impl</text>
<text text-anchor="middle" x="1760.2" y="-147" font-family="Helvetica,sans-Serif" font-size="10.00">/set_ops.h</text>
</a>
</g>
</g>
<!-- Node1&#45;&gt;Node17 -->
<g id="edge24" class="edge"><title>Node1&#45;&gt;Node17</title>
<path fill="none" stroke="midnightblue" d="M928.797,-224.839C1101.8,-219.13 1547.91,-202.261 1694.2,-176 1702.33,-174.54 1710.88,-172.415 1719.02,-170.088"/>
<polygon fill="midnightblue" stroke="midnightblue" points="928.668,-221.341 918.788,-225.166 928.897,-228.337 928.668,-221.341"/>
</g>
<!-- Node18 -->
<g id="node18" class="node"><title>Node18</title>
<g id="a_node18"><a xlink:href="sorting__ops_8h.html" target="_top" xlink:title="include/shad/core/impl\l/sorting_ops.h">
<polygon fill="white" stroke="black" points="1835.2,-140 1835.2,-170 1949.2,-170 1949.2,-140 1835.2,-140"/>
<text text-anchor="start" x="1843.2" y="-158" font-family="Helvetica,sans-Serif" font-size="10.00">include/shad/core/impl</text>
<text text-anchor="middle" x="1892.2" y="-147" font-family="Helvetica,sans-Serif" font-size="10.00">/sorting_ops.h</text>
</a>
</g>
</g>
<!-- Node1&#45;&gt;Node18 -->
<g id="edge25" class="edge"><title>Node1&#45;&gt;Node18</title>
<path fill="none" stroke="midnightblue" d="M929.125,-225.503C1121.13,-221.043 1653.64,-206.237 1826.2,-176 1834.46,-174.553 1843.13,-172.403 1851.38,-170.041"/>
<polygon fill="midnightblue" stroke="midnightblue" points="928.794,-222.01 918.877,-225.739 928.955,-229.008 928.794,-222.01"/>
</g>
<!-- Node19 -->
<g id="node19" class="node"><title>Node19</title>
<g id="a_node19"><a xlink:href="utils_8h.html" target="_top" xlink:title="include/shad/core/impl\l/utils.h">
<polygon fill="white" stroke="black" points="349.201,-140 349.201,-170 463.201,-170 463.201,-140 349.201,-140"/>
<text text-anchor="start" x="357.201" y="-158" font-family="Helvetica,sans-Serif" font-size="10.00">include/shad/core/impl</text>
<text text-anchor="middle" x="406.201" y="-147" font-family="Helvetica,sans-Serif" font-size="10.00">/utils.h</text>
</a>
</g>
</g>
<!-- Node1&#45;&gt;Node19 -->
<g id="edge26" class="edge"><title>Node1&#45;&gt;Node19</title>
<path fill="none" stroke="midnightblue" d="M789.499,-221.268C711.561,-214.061 581.876,-199.678 472.201,-176 464.594,-174.358 456.595,-172.26 448.893,-170.044"/>
<polygon fill="midnightblue" stroke="midnightblue" points="789.401,-224.773 799.677,-222.196 790.036,-217.802 789.401,-224.773"/>
</g>
<!-- Node20 -->
<g id="node20" class="node"><title>Node20</title>
<g id="a_node20"><a xlink:href="hashmap_8h.html" target="_top" xlink:title="include/shad/data_structures\l/hashmap.h">
<polygon fill="white" stroke="black" points="1967.2,-140 1967.2,-170 2109.2,-170 2109.2,-140 1967.2,-140"/>
<text text-anchor="start" x="1975.2" y="-158" font-family="Helvetica,sans-Serif" font-size="10.00">include/shad/data_structures</text>
<text text-anchor="middle" x="2038.2" y="-147" font-family="Helvetica,sans-Serif" font-size="10.00">/hashmap.h</text>
</a>
</g>
</g>
<!-- Node1&#45;&gt;Node20 -->
<g id="edge29" class="edge"><title>Node1&#45;&gt;Node20</title>
<path fill="none" stroke="midnightblue" d="M929.004,-225.574C1138.28,-221.012 1758.3,-205.328 1958.2,-176 1968.12,-174.545 1978.59,-172.391 1988.58,-170.028"/>
<polygon fill="midnightblue" stroke="midnightblue" points="928.682,-222.08 918.761,-225.796 928.834,-229.078 928.682,-222.08"/>
</g>
<!-- Node22 -->
<g id="node22" class="node"><title>Node22</title>
<g id="a_node22"><a xlink:href="set_8h.html" target="_top" xlink:title="include/shad/data_structures\l/set.h">
<polygon fill="white" stroke="black" points="2127.2,-140 2127.2,-170 2269.2,-170 2269.2,-140 2127.2,-140"/>
<text text-anchor="start" x="2135.2" y="-158" font-family="Helvetica,sans-Serif" font-size="10.00">include/shad/data_structures</text>
<text text-anchor="middle" x="2198.2" y="-147" font-family="Helvetica,sans-Serif" font-size="10.00">/set.h</text>
</a>
</g>
</g>
<!-- Node1&#45;&gt;Node22 -->
<g id="edge31" class="edge"><title>Node1&#45;&gt;Node22</title>
<path fill="none" stroke="midnightblue" d="M929.175,-226.049C1158.49,-222.635 1885.89,-209.386 2118.2,-176 2128.12,-174.574 2138.6,-172.433 2148.58,-170.074"/>
<polygon fill="midnightblue" stroke="midnightblue" points="928.906,-222.552 918.959,-226.199 929.009,-229.551 928.906,-222.552"/>
</g>
<!-- Node5&#45;&gt;Node2 -->
<g id="edge5" class="edge"><title>Node5&#45;&gt;Node2</title>
<path fill="none" stroke="midnightblue" d="M114.894,-57.6315C142.611,-45.1205 178.014,-29.1399 199.355,-19.507"/>
<polygon fill="midnightblue" stroke="midnightblue" points="113.121,-54.5917 105.447,-61.896 116.001,-60.9718 113.121,-54.5917"/>
</g>
<!-- Node7&#45;&gt;Node8 -->
<g id="edge8" class="edge"><title>Node7&#45;&gt;Node8</title>
<path fill="none" stroke="midnightblue" d="M484.057,-137.155C480.056,-136.045 476.073,-134.98 472.201,-134 394.802,-114.402 374.006,-115.921 296.201,-98 288.163,-96.1487 279.688,-94.0884 271.402,-92.0138"/>
<polygon fill="midnightblue" stroke="midnightblue" points="483.404,-140.608 493.981,-139.986 485.325,-133.877 483.404,-140.608"/>
</g>
<!-- Node7&#45;&gt;Node9 -->
<g id="edge10" class="edge"><title>Node7&#45;&gt;Node9</title>
<path fill="none" stroke="midnightblue" d="M498.468,-135.699C469.339,-122.282 430.378,-104.336 403.685,-92.0413"/>
<polygon fill="midnightblue" stroke="midnightblue" points="497.005,-138.878 507.552,-139.883 499.934,-132.52 497.005,-138.878"/>
</g>
<!-- Node7&#45;&gt;Node10 -->
<g id="edge12" class="edge"><title>Node7&#45;&gt;Node10</title>
<path fill="none" stroke="midnightblue" d="M538.201,-129.59C538.201,-117.257 538.201,-102.724 538.201,-92.2309"/>
<polygon fill="midnightblue" stroke="midnightblue" points="534.701,-129.705 538.201,-139.705 541.701,-129.705 534.701,-129.705"/>
</g>
<!-- Node7&#45;&gt;Node11 -->
<g id="edge14" class="edge"><title>Node7&#45;&gt;Node11</title>
<path fill="none" stroke="midnightblue" d="M575.993,-135.349C603.101,-121.971 639.052,-104.229 663.749,-92.0413"/>
<polygon fill="midnightblue" stroke="midnightblue" points="574.225,-132.319 566.806,-139.883 577.323,-138.596 574.225,-132.319"/>
</g>
<!-- Node8&#45;&gt;Node2 -->
<g id="edge9" class="edge"><title>Node8&#45;&gt;Node2</title>
<path fill="none" stroke="midnightblue" d="M218.201,-51.7495C218.201,-40.517 218.201,-27.8767 218.201,-19.6945"/>
<polygon fill="midnightblue" stroke="midnightblue" points="214.701,-51.8959 218.201,-61.896 221.701,-51.896 214.701,-51.8959"/>
</g>
<!-- Node9&#45;&gt;Node2 -->
<g id="edge11" class="edge"><title>Node9&#45;&gt;Node2</title>
<path fill="none" stroke="midnightblue" d="M330.179,-57.9585C300.232,-45.4001 261.658,-29.224 238.487,-19.507"/>
<polygon fill="midnightblue" stroke="midnightblue" points="328.993,-61.2563 339.568,-61.896 331.7,-54.801 328.993,-61.2563"/>
</g>
<!-- Node10&#45;&gt;Node2 -->
<g id="edge13" class="edge"><title>Node10&#45;&gt;Node2</title>
<path fill="none" stroke="midnightblue" d="M467.713,-59.7713C461.794,-58.4721 455.897,-57.1995 450.201,-56 385.964,-42.4741 311.398,-28.2774 264.507,-19.532"/>
<polygon fill="midnightblue" stroke="midnightblue" points="467.143,-63.2298 477.663,-61.9748 468.657,-56.3954 467.143,-63.2298"/>
</g>
<!-- Node11&#45;&gt;Node12 -->
<g id="edge15" class="edge"><title>Node11&#45;&gt;Node12</title>
<path fill="none" stroke="midnightblue" d="M706.756,-53.4745C714.279,-41.832 723.023,-28.2985 728.583,-19.6945"/>
<polygon fill="midnightblue" stroke="midnightblue" points="703.802,-51.5973 701.314,-61.896 709.681,-55.3963 703.802,-51.5973"/>
</g>
<!-- Node19&#45;&gt;Node9 -->
<g id="edge27" class="edge"><title>Node19&#45;&gt;Node9</title>
<path fill="none" stroke="midnightblue" d="M395.925,-130.334C390.502,-117.845 384.028,-102.936 379.38,-92.2309"/>
<polygon fill="midnightblue" stroke="midnightblue" points="392.801,-131.926 399.994,-139.705 399.221,-129.138 392.801,-131.926"/>
</g>
<!-- Node21 -->
<g id="node21" class="node"><title>Node21</title>
<g id="a_node21"><a xlink:href="unordered__map_8h.html" target="_top" xlink:title="include/shad/core/unordered\l_map.h">
<polygon fill="white" stroke="black" points="1968.7,-62 1968.7,-92 2107.7,-92 2107.7,-62 1968.7,-62"/>
<text text-anchor="start" x="1976.7" y="-80" font-family="Helvetica,sans-Serif" font-size="10.00">include/shad/core/unordered</text>
<text text-anchor="middle" x="2038.2" y="-69" font-family="Helvetica,sans-Serif" font-size="10.00">_map.h</text>
</a>
</g>
</g>
<!-- Node20&#45;&gt;Node21 -->
<g id="edge30" class="edge"><title>Node20&#45;&gt;Node21</title>
<path fill="none" stroke="midnightblue" d="M2038.2,-129.59C2038.2,-117.257 2038.2,-102.724 2038.2,-92.2309"/>
<polygon fill="midnightblue" stroke="midnightblue" points="2034.7,-129.705 2038.2,-139.705 2041.7,-129.705 2034.7,-129.705"/>
</g>
<!-- Node23 -->
<g id="node23" class="node"><title>Node23</title>
<g id="a_node23"><a xlink:href="unordered__set_8h.html" target="_top" xlink:title="include/shad/core/unordered\l_set.h">
<polygon fill="white" stroke="black" points="2126.7,-62 2126.7,-92 2265.7,-92 2265.7,-62 2126.7,-62"/>
<text text-anchor="start" x="2134.7" y="-80" font-family="Helvetica,sans-Serif" font-size="10.00">include/shad/core/unordered</text>
<text text-anchor="middle" x="2196.2" y="-69" font-family="Helvetica,sans-Serif" font-size="10.00">_set.h</text>
</a>
</g>
</g>
<!-- Node22&#45;&gt;Node23 -->
<g id="edge32" class="edge"><title>Node22&#45;&gt;Node23</title>
<path fill="none" stroke="midnightblue" d="M2197.56,-129.59C2197.23,-117.257 2196.85,-102.724 2196.58,-92.2309"/>
<polygon fill="midnightblue" stroke="midnightblue" points="2194.06,-129.801 2197.82,-139.705 2201.06,-129.616 2194.06,-129.801"/>
</g>
<!-- Node24 -->
<g id="node24" class="node"><title>Node24</title>
<g id="a_node24"><a xlink:href="sssp_8h.html" target="_top" xlink:title="include/shad/extensions\l/graph_library/algorithms\l/sssp.h">
<polygon fill="white" stroke="black" points="2283.7,-56.5 2283.7,-97.5 2406.7,-97.5 2406.7,-56.5 2283.7,-56.5"/>
<text text-anchor="start" x="2291.7" y="-85.5" font-family="Helvetica,sans-Serif" font-size="10.00">include/shad/extensions</text>
<text text-anchor="start" x="2291.7" y="-74.5" font-family="Helvetica,sans-Serif" font-size="10.00">/graph_library/algorithms</text>
<text text-anchor="middle" x="2345.2" y="-63.5" font-family="Helvetica,sans-Serif" font-size="10.00">/sssp.h</text>
</a>
</g>
</g>
<!-- Node22&#45;&gt;Node24 -->
<g id="edge33" class="edge"><title>Node22&#45;&gt;Node24</title>
<path fill="none" stroke="midnightblue" d="M2234.57,-135.196C2256.67,-123.769 2284.85,-109.201 2307.24,-97.6279"/>
<polygon fill="midnightblue" stroke="midnightblue" points="2232.78,-132.181 2225.51,-139.883 2236,-138.4 2232.78,-132.181"/>
</g>
</g>
</svg>
