<?xml version="1.0" encoding="UTF-8" standalone="no"?>
<!DOCTYPE svg PUBLIC "-//W3C//DTD SVG 1.1//EN"
 "http://www.w3.org/Graphics/SVG/1.1/DTD/svg11.dtd">
<!-- Generated by graphviz version 2.36.0 (20140111.2315)
 -->
<!-- Title: include/shad/distributed_iterator_traits.h Pages: 1 -->
<svg width="2418pt" height="252pt"
 viewBox="0.00 0.00 2418.00 252.00" xmlns="http://www.w3.org/2000/svg" xmlns:xlink="http://www.w3.org/1999/xlink">
<g id="graph0" class="graph" transform="scale(1 1) rotate(0) translate(4 248)">
<title>include/shad/distributed_iterator_traits.h</title>
<polygon fill="white" stroke="none" points="-4,4 -4,-248 2414,-248 2414,4 -4,4"/>
<!-- Node1 -->
<g id="node1" class="node"><title>Node1</title>
<polygon fill="#bfbfbf" stroke="black" points="803.5,-213 803.5,-243 922.5,-243 922.5,-213 803.5,-213"/>
<text text-anchor="start" x="811.5" y="-231" font-family="Helvetica,sans-Serif" font-size="10.00">include/shad/distributed</text>
<text text-anchor="middle" x="863" y="-220" font-family="Helvetica,sans-Serif" font-size="10.00">_iterator_traits.h</text>
</g>
<!-- Node2 -->
<g id="node2" class="node"><title>Node2</title>
<g id="a_node2"><a xlink:href="algorithm_8h.html" target="_top" xlink:title="include/shad/core/algorithm.h">
<polygon fill="white" stroke="black" points="283,-0.5 283,-19.5 427,-19.5 427,-0.5 283,-0.5"/>
<text text-anchor="middle" x="355" y="-7.5" font-family="Helvetica,sans-Serif" font-size="10.00">include/shad/core/algorithm.h</text>
</a>
</g>
</g>
<!-- Node1&#45;&gt;Node2 -->
<g id="edge1" class="edge"><title>Node1&#45;&gt;Node2</title>
<path fill="none" stroke="midnightblue" d="M793.032,-220.439C755.801,-214 711.022,-201.248 678,-176 628.771,-138.361 657.913,-91.3282 607,-56 578.52,-36.2379 491.173,-23.8506 427.279,-17.1886"/>
<polygon fill="midnightblue" stroke="midnightblue" points="792.888,-223.96 803.316,-222.093 793.999,-217.049 792.888,-223.96"/>
</g>
<!-- Node3 -->
<g id="node3" class="node"><title>Node3</title>
<g id="a_node3"><a xlink:href="core_2array_8h.html" target="_top" xlink:title="include/shad/core/array.h">
<polygon fill="white" stroke="black" points="731,-145.5 731,-164.5 857,-164.5 857,-145.5 731,-145.5"/>
<text text-anchor="middle" x="794" y="-152.5" font-family="Helvetica,sans-Serif" font-size="10.00">include/shad/core/array.h</text>
</a>
</g>
</g>
<!-- Node1&#45;&gt;Node3 -->
<g id="edge2" class="edge"><title>Node1&#45;&gt;Node3</title>
<path fill="none" stroke="midnightblue" d="M842.342,-205.743C828.963,-191.976 812.254,-174.783 802.394,-164.637"/>
<polygon fill="midnightblue" stroke="midnightblue" points="839.888,-208.241 849.368,-212.973 844.908,-203.362 839.888,-208.241"/>
</g>
<!-- Node4 -->
<g id="node4" class="node"><title>Node4</title>
<g id="a_node4"><a xlink:href="binary__search__ops_8h.html" target="_top" xlink:title="include/shad/core/impl\l/binary_search_ops.h">
<polygon fill="white" stroke="black" points="875,-140 875,-170 989,-170 989,-140 875,-140"/>
<text text-anchor="start" x="883" y="-158" font-family="Helvetica,sans-Serif" font-size="10.00">include/shad/core/impl</text>
<text text-anchor="middle" x="932" y="-147" font-family="Helvetica,sans-Serif" font-size="10.00">/binary_search_ops.h</text>
</a>
</g>
</g>
<!-- Node1&#45;&gt;Node4 -->
<g id="edge3" class="edge"><title>Node1&#45;&gt;Node4</title>
<path fill="none" stroke="midnightblue" d="M883.842,-205.554C894.869,-194.207 908.116,-180.577 917.922,-170.486"/>
<polygon fill="midnightblue" stroke="midnightblue" points="881.092,-203.362 876.632,-212.973 886.112,-208.241 881.092,-203.362"/>
</g>
<!-- Node5 -->
<g id="node5" class="node"><title>Node5</title>
<g id="a_node5"><a xlink:href="comparison__ops_8h.html" target="_top" xlink:title="include/shad/core/impl\l/comparison_ops.h">
<polygon fill="white" stroke="black" points="154,-62 154,-92 268,-92 268,-62 154,-62"/>
<text text-anchor="start" x="162" y="-80" font-family="Helvetica,sans-Serif" font-size="10.00">include/shad/core/impl</text>
<text text-anchor="middle" x="211" y="-69" font-family="Helvetica,sans-Serif" font-size="10.00">/comparison_ops.h</text>
</a>
</g>
</g>
<!-- Node1&#45;&gt;Node5 -->
<g id="edge4" class="edge"><title>Node1&#45;&gt;Node5</title>
<path fill="none" stroke="midnightblue" d="M792.936,-227.01C701.384,-225.278 536.957,-216.147 403,-176 336.859,-156.177 266.327,-114.025 232.087,-92.0248"/>
<polygon fill="midnightblue" stroke="midnightblue" points="793.134,-230.513 803.19,-227.178 793.249,-223.514 793.134,-230.513"/>
</g>
<!-- Node6 -->
<g id="node6" class="node"><title>Node6</title>
<g id="a_node6"><a xlink:href="heap__ops_8h.html" target="_top" xlink:title="include/shad/core/impl\l/heap_ops.h">
<polygon fill="white" stroke="black" points="1007,-140 1007,-170 1121,-170 1121,-140 1007,-140"/>
<text text-anchor="start" x="1015" y="-158" font-family="Helvetica,sans-Serif" font-size="10.00">include/shad/core/impl</text>
<text text-anchor="middle" x="1064" y="-147" font-family="Helvetica,sans-Serif" font-size="10.00">/heap_ops.h</text>
</a>
</g>
</g>
<!-- Node1&#45;&gt;Node6 -->
<g id="edge6" class="edge"><title>Node1&#45;&gt;Node6</title>
<path fill="none" stroke="midnightblue" d="M912.539,-209.501C946.87,-197.374 991.989,-181.437 1024.03,-170.12"/>
<polygon fill="midnightblue" stroke="midnightblue" points="910.974,-206.342 902.711,-212.973 913.306,-212.942 910.974,-206.342"/>
</g>
<!-- Node7 -->
<g id="node7" class="node"><title>Node7</title>
<g id="a_node7"><a xlink:href="impl__patterns_8h.html" target="_top" xlink:title="include/shad/core/impl\l/impl_patterns.h">
<polygon fill="white" stroke="black" points="485,-140 485,-170 599,-170 599,-140 485,-140"/>
<text text-anchor="start" x="493" y="-158" font-family="Helvetica,sans-Serif" font-size="10.00">include/shad/core/impl</text>
<text text-anchor="middle" x="542" y="-147" font-family="Helvetica,sans-Serif" font-size="10.00">/impl_patterns.h</text>
</a>
</g>
</g>
<!-- Node1&#45;&gt;Node7 -->
<g id="edge7" class="edge"><title>Node1&#45;&gt;Node7</title>
<path fill="none" stroke="midnightblue" d="M793.259,-214.194C742.945,-204.61 673.512,-190.674 613,-176 605.533,-174.189 597.666,-172.129 589.996,-170.035"/>
<polygon fill="midnightblue" stroke="midnightblue" points="792.899,-217.688 803.376,-216.111 794.203,-210.81 792.899,-217.688"/>
</g>
<!-- Node8 -->
<g id="node8" class="node"><title>Node8</title>
<g id="a_node8"><a xlink:href="minimum__maximum__ops_8h.html" target="_top" xlink:title="include/shad/core/impl\l/minimum_maximum_ops.h">
<polygon fill="white" stroke="black" points="286.5,-62 286.5,-92 423.5,-92 423.5,-62 286.5,-62"/>
<text text-anchor="start" x="294.5" y="-80" font-family="Helvetica,sans-Serif" font-size="10.00">include/shad/core/impl</text>
<text text-anchor="middle" x="355" y="-69" font-family="Helvetica,sans-Serif" font-size="10.00">/minimum_maximum_ops.h</text>
</a>
</g>
</g>
<!-- Node1&#45;&gt;Node8 -->
<g id="edge14" class="edge"><title>Node1&#45;&gt;Node8</title>
<path fill="none" stroke="midnightblue" d="M793.094,-223.02C694.95,-216.593 521.938,-201.948 465,-176 422.176,-156.484 384.085,-114.395 366.047,-92.2641"/>
<polygon fill="midnightblue" stroke="midnightblue" points="793.02,-226.523 803.224,-223.672 793.469,-219.537 793.02,-226.523"/>
</g>
<!-- Node9 -->
<g id="node9" class="node"><title>Node9</title>
<g id="a_node9"><a xlink:href="non__modifyng__sequence__ops_8h.html" target="_top" xlink:title="include/shad/core/impl\l/non_modifyng_sequence_ops.h">
<polygon fill="white" stroke="black" points="441.5,-62 441.5,-92 598.5,-92 598.5,-62 441.5,-62"/>
<text text-anchor="start" x="449.5" y="-80" font-family="Helvetica,sans-Serif" font-size="10.00">include/shad/core/impl</text>
<text text-anchor="middle" x="520" y="-69" font-family="Helvetica,sans-Serif" font-size="10.00">/non_modifyng_sequence_ops.h</text>
</a>
</g>
</g>
<!-- Node1&#45;&gt;Node9 -->
<g id="edge17" class="edge"><title>Node1&#45;&gt;Node9</title>
<path fill="none" stroke="midnightblue" d="M793.047,-222.714C687.23,-215.509 496.539,-199.423 476,-176 453.867,-150.759 484.612,-112.564 504.817,-92.1095"/>
<polygon fill="midnightblue" stroke="midnightblue" points="793.115,-226.227 803.327,-223.405 793.584,-219.242 793.115,-226.227"/>
</g>
<!-- Node10 -->
<g id="node10" class="node"><title>Node10</title>
<g id="a_node10"><a xlink:href="numeric__ops_8h.html" target="_top" xlink:title="include/shad/core/impl\l/numeric_ops.h">
<polygon fill="white" stroke="black" points="655,-62 655,-92 769,-92 769,-62 655,-62"/>
<text text-anchor="start" x="663" y="-80" font-family="Helvetica,sans-Serif" font-size="10.00">include/shad/core/impl</text>
<text text-anchor="middle" x="712" y="-69" font-family="Helvetica,sans-Serif" font-size="10.00">/numeric_ops.h</text>
</a>
</g>
</g>
<!-- Node1&#45;&gt;Node10 -->
<g id="edge18" class="edge"><title>Node1&#45;&gt;Node10</title>
<path fill="none" stroke="midnightblue" d="M793.391,-215.343C750.736,-206.62 701.912,-193.239 689,-176 670.142,-150.822 689.174,-112.601 702.136,-92.1261"/>
<polygon fill="midnightblue" stroke="midnightblue" points="792.737,-218.781 803.227,-217.296 794.1,-211.915 792.737,-218.781"/>
</g>
<!-- Node11 -->
<g id="node11" class="node"><title>Node11</title>
<g id="a_node11"><a xlink:href="numeric_8h.html" target="_top" xlink:title="include/shad/core/numeric.h">
<polygon fill="white" stroke="black" points="684.5,-0.5 684.5,-19.5 823.5,-19.5 823.5,-0.5 684.5,-0.5"/>
<text text-anchor="middle" x="754" y="-7.5" font-family="Helvetica,sans-Serif" font-size="10.00">include/shad/core/numeric.h</text>
</a>
</g>
</g>
<!-- Node1&#45;&gt;Node11 -->
<g id="edge27" class="edge"><title>Node1&#45;&gt;Node11</title>
<path fill="none" stroke="midnightblue" d="M793.442,-218.943C766.56,-212.047 738.38,-199.343 722,-176 711.278,-160.72 713.055,-150.384 722,-134 736.178,-108.03 763.822,-123.97 778,-98 792.416,-71.5956 771.708,-35.8603 760.453,-19.6429"/>
<polygon fill="midnightblue" stroke="midnightblue" points="792.73,-222.37 803.263,-221.229 794.318,-215.553 792.73,-222.37"/>
</g>
<!-- Node12 -->
<g id="node12" class="node"><title>Node12</title>
<g id="a_node12"><a xlink:href="modifyng__sequence__ops_8h.html" target="_top" xlink:title="include/shad/core/impl\l/modifyng_sequence_ops.h">
<polygon fill="white" stroke="black" points="0,-62 0,-92 136,-92 136,-62 0,-62"/>
<text text-anchor="start" x="8" y="-80" font-family="Helvetica,sans-Serif" font-size="10.00">include/shad/core/impl</text>
<text text-anchor="middle" x="68" y="-69" font-family="Helvetica,sans-Serif" font-size="10.00">/modifyng_sequence_ops.h</text>
</a>
</g>
</g>
<!-- Node1&#45;&gt;Node12 -->
<g id="edge15" class="edge"><title>Node1&#45;&gt;Node12</title>
<path fill="none" stroke="midnightblue" d="M793.46,-224.608C628.672,-218.555 223.989,-201.291 168,-176 127.017,-157.488 93.0442,-114.553 77.3521,-92.1612"/>
<polygon fill="midnightblue" stroke="midnightblue" points="793.369,-228.107 803.49,-224.974 793.624,-221.112 793.369,-228.107"/>
</g>
<!-- Node13 -->
<g id="node13" class="node"><title>Node13</title>
<g id="a_node13"><a xlink:href="ops__on__uninitialized__memory_8h.html" target="_top" xlink:title="include/shad/core/impl\l/ops_on_uninitialized\l_memory.h">
<polygon fill="white" stroke="black" points="1139,-134.5 1139,-175.5 1253,-175.5 1253,-134.5 1139,-134.5"/>
<text text-anchor="start" x="1147" y="-163.5" font-family="Helvetica,sans-Serif" font-size="10.00">include/shad/core/impl</text>
<text text-anchor="start" x="1147" y="-152.5" font-family="Helvetica,sans-Serif" font-size="10.00">/ops_on_uninitialized</text>
<text text-anchor="middle" x="1196" y="-141.5" font-family="Helvetica,sans-Serif" font-size="10.00">_memory.h</text>
</a>
</g>
</g>
<!-- Node1&#45;&gt;Node13 -->
<g id="edge19" class="edge"><title>Node1&#45;&gt;Node13</title>
<path fill="none" stroke="midnightblue" d="M932.686,-215.763C986.818,-206.535 1063.6,-192.354 1130,-176 1132.91,-175.284 1135.87,-174.517 1138.86,-173.717"/>
<polygon fill="midnightblue" stroke="midnightblue" points="931.787,-212.365 922.511,-217.485 932.955,-219.267 931.787,-212.365"/>
</g>
<!-- Node14 -->
<g id="node14" class="node"><title>Node14</title>
<g id="a_node14"><a xlink:href="other__ops__on__sorted__ranges_8h.html" target="_top" xlink:title="include/shad/core/impl\l/other_ops_on_sorted_ranges.h">
<polygon fill="white" stroke="black" points="1271.5,-140 1271.5,-170 1424.5,-170 1424.5,-140 1271.5,-140"/>
<text text-anchor="start" x="1279.5" y="-158" font-family="Helvetica,sans-Serif" font-size="10.00">include/shad/core/impl</text>
<text text-anchor="middle" x="1348" y="-147" font-family="Helvetica,sans-Serif" font-size="10.00">/other_ops_on_sorted_ranges.h</text>
</a>
</g>
</g>
<!-- Node1&#45;&gt;Node14 -->
<g id="edge20" class="edge"><title>Node1&#45;&gt;Node14</title>
<path fill="none" stroke="midnightblue" d="M933.209,-220.203C1013.16,-211.958 1147.54,-196.569 1262,-176 1271.5,-174.292 1281.54,-172.213 1291.27,-170.05"/>
<polygon fill="midnightblue" stroke="midnightblue" points="932.367,-216.77 922.775,-221.27 933.079,-223.734 932.367,-216.77"/>
</g>
<!-- Node15 -->
<g id="node15" class="node"><title>Node15</title>
<g id="a_node15"><a xlink:href="partitioning__ops_8h.html" target="_top" xlink:title="include/shad/core/impl\l/partitioning_ops.h">
<polygon fill="white" stroke="black" points="1443,-140 1443,-170 1557,-170 1557,-140 1443,-140"/>
<text text-anchor="start" x="1451" y="-158" font-family="Helvetica,sans-Serif" font-size="10.00">include/shad/core/impl</text>
<text text-anchor="middle" x="1500" y="-147" font-family="Helvetica,sans-Serif" font-size="10.00">/partitioning_ops.h</text>
</a>
</g>
</g>
<!-- Node1&#45;&gt;Node15 -->
<g id="edge21" class="edge"><title>Node1&#45;&gt;Node15</title>
<path fill="none" stroke="midnightblue" d="M932.748,-225.262C1040.81,-221.561 1254.82,-210.204 1433,-176 1440.99,-174.467 1449.38,-172.366 1457.43,-170.1"/>
<polygon fill="midnightblue" stroke="midnightblue" points="932.505,-221.768 922.626,-225.597 932.736,-228.764 932.505,-221.768"/>
</g>
<!-- Node16 -->
<g id="node16" class="node"><title>Node16</title>
<g id="a_node16"><a xlink:href="permutation__ops_8h.html" target="_top" xlink:title="include/shad/core/impl\l/permutation_ops.h">
<polygon fill="white" stroke="black" points="1575,-140 1575,-170 1689,-170 1689,-140 1575,-140"/>
<text text-anchor="start" x="1583" y="-158" font-family="Helvetica,sans-Serif" font-size="10.00">include/shad/core/impl</text>
<text text-anchor="middle" x="1632" y="-147" font-family="Helvetica,sans-Serif" font-size="10.00">/permutation_ops.h</text>
</a>
</g>
</g>
<!-- Node1&#45;&gt;Node16 -->
<g id="edge22" class="edge"><title>Node1&#45;&gt;Node16</title>
<path fill="none" stroke="midnightblue" d="M933.192,-227.033C1060.43,-225.96 1337.21,-218.42 1566,-176 1574.12,-174.494 1582.66,-172.347 1590.8,-170.014"/>
<polygon fill="midnightblue" stroke="midnightblue" points="932.794,-223.535 922.819,-227.109 932.845,-230.535 932.794,-223.535"/>
</g>
<!-- Node17 -->
<g id="node17" class="node"><title>Node17</title>
<g id="a_node17"><a xlink:href="set__ops_8h.html" target="_top" xlink:title="include/shad/core/impl\l/set_ops.h">
<polygon fill="white" stroke="black" points="1707,-140 1707,-170 1821,-170 1821,-140 1707,-140"/>
<text text-anchor="start" x="1715" y="-158" font-family="Helvetica,sans-Serif" font-size="10.00">include/shad/core/impl</text>
<text text-anchor="middle" x="1764" y="-147" font-family="Helvetica,sans-Serif" font-size="10.00">/set_ops.h</text>
</a>
</g>
</g>
<!-- Node1&#45;&gt;Node17 -->
<g id="edge23" class="edge"><title>Node1&#45;&gt;Node17</title>
<path fill="none" stroke="midnightblue" d="M932.596,-224.839C1105.6,-219.13 1551.71,-202.261 1698,-176 1706.13,-174.54 1714.67,-172.415 1722.82,-170.088"/>
<polygon fill="midnightblue" stroke="midnightblue" points="932.467,-221.341 922.587,-225.166 932.696,-228.337 932.467,-221.341"/>
</g>
<!-- Node18 -->
<g id="node18" class="node"><title>Node18</title>
<g id="a_node18"><a xlink:href="sorting__ops_8h.html" target="_top" xlink:title="include/shad/core/impl\l/sorting_ops.h">
<polygon fill="white" stroke="black" points="1839,-140 1839,-170 1953,-170 1953,-140 1839,-140"/>
<text text-anchor="start" x="1847" y="-158" font-family="Helvetica,sans-Serif" font-size="10.00">include/shad/core/impl</text>
<text text-anchor="middle" x="1896" y="-147" font-family="Helvetica,sans-Serif" font-size="10.00">/sorting_ops.h</text>
</a>
</g>
</g>
<!-- Node1&#45;&gt;Node18 -->
<g id="edge24" class="edge"><title>Node1&#45;&gt;Node18</title>
<path fill="none" stroke="midnightblue" d="M932.924,-225.503C1124.93,-221.043 1657.44,-206.237 1830,-176 1838.26,-174.553 1846.93,-172.403 1855.18,-170.041"/>
<polygon fill="midnightblue" stroke="midnightblue" points="932.593,-222.01 922.677,-225.739 932.754,-229.008 932.593,-222.01"/>
</g>
<!-- Node19 -->
<g id="node19" class="node"><title>Node19</title>
<g id="a_node19"><a xlink:href="utils_8h.html" target="_top" xlink:title="include/shad/core/impl\l/utils.h">
<polygon fill="white" stroke="black" points="177,-140 177,-170 291,-170 291,-140 177,-140"/>
<text text-anchor="start" x="185" y="-158" font-family="Helvetica,sans-Serif" font-size="10.00">include/shad/core/impl</text>
<text text-anchor="middle" x="234" y="-147" font-family="Helvetica,sans-Serif" font-size="10.00">/utils.h</text>
</a>
</g>
</g>
<!-- Node1&#45;&gt;Node19 -->
<g id="edge25" class="edge"><title>Node1&#45;&gt;Node19</title>
<path fill="none" stroke="midnightblue" d="M793.131,-223.103C690.187,-216.747 491.904,-202.152 325,-176 313.973,-174.272 302.28,-172.023 291.08,-169.659"/>
<polygon fill="midnightblue" stroke="midnightblue" points="793.2,-226.614 803.395,-223.729 793.627,-219.627 793.2,-226.614"/>
</g>
<!-- Node20 -->
<g id="node20" class="node"><title>Node20</title>
<g id="a_node20"><a xlink:href="hashmap_8h.html" target="_top" xlink:title="include/shad/data_structures\l/hashmap.h">
<polygon fill="white" stroke="black" points="1971,-140 1971,-170 2113,-170 2113,-140 1971,-140"/>
<text text-anchor="start" x="1979" y="-158" font-family="Helvetica,sans-Serif" font-size="10.00">include/shad/data_structures</text>
<text text-anchor="middle" x="2042" y="-147" font-family="Helvetica,sans-Serif" font-size="10.00">/hashmap.h</text>
</a>
</g>
</g>
<!-- Node1&#45;&gt;Node20 -->
<g id="edge28" class="edge"><title>Node1&#45;&gt;Node20</title>
<path fill="none" stroke="midnightblue" d="M932.803,-225.574C1142.07,-221.012 1762.1,-205.328 1962,-176 1971.92,-174.545 1982.39,-172.391 1992.38,-170.028"/>
<polygon fill="midnightblue" stroke="midnightblue" points="932.482,-222.08 922.56,-225.796 932.633,-229.078 932.482,-222.08"/>
</g>
<!-- Node22 -->
<g id="node22" class="node"><title>Node22</title>
<g id="a_node22"><a xlink:href="set_8h.html" target="_top" xlink:title="include/shad/data_structures\l/set.h">
<polygon fill="white" stroke="black" points="2131,-140 2131,-170 2273,-170 2273,-140 2131,-140"/>
<text text-anchor="start" x="2139" y="-158" font-family="Helvetica,sans-Serif" font-size="10.00">include/shad/data_structures</text>
<text text-anchor="middle" x="2202" y="-147" font-family="Helvetica,sans-Serif" font-size="10.00">/set.h</text>
</a>
</g>
</g>
<!-- Node1&#45;&gt;Node22 -->
<g id="edge30" class="edge"><title>Node1&#45;&gt;Node22</title>
<path fill="none" stroke="midnightblue" d="M932.974,-226.049C1162.29,-222.635 1889.69,-209.386 2122,-176 2131.92,-174.574 2142.4,-172.433 2152.38,-170.074"/>
<polygon fill="midnightblue" stroke="midnightblue" points="932.705,-222.552 922.758,-226.199 932.808,-229.551 932.705,-222.552"/>
</g>
<!-- Node5&#45;&gt;Node2 -->
<g id="edge5" class="edge"><title>Node5&#45;&gt;Node2</title>
<path fill="none" stroke="midnightblue" d="M251.693,-57.6315C279.41,-45.1205 314.813,-29.1399 336.154,-19.507"/>
<polygon fill="midnightblue" stroke="midnightblue" points="249.92,-54.5917 242.246,-61.896 252.8,-60.9718 249.92,-54.5917"/>
</g>
<!-- Node7&#45;&gt;Node8 -->
<g id="edge8" class="edge"><title>Node7&#45;&gt;Node8</title>
<path fill="none" stroke="midnightblue" d="M497.825,-136.046C464.722,-122.593 420.062,-104.442 389.549,-92.0413"/>
<polygon fill="midnightblue" stroke="midnightblue" points="496.683,-139.36 507.265,-139.883 499.319,-132.875 496.683,-139.36"/>
</g>
<!-- Node7&#45;&gt;Node9 -->
<g id="edge10" class="edge"><title>Node7&#45;&gt;Node9</title>
<path fill="none" stroke="midnightblue" d="M535.042,-129.963C531.449,-117.551 527.188,-102.83 524.119,-92.2309"/>
<polygon fill="midnightblue" stroke="midnightblue" points="531.719,-131.073 537.862,-139.705 538.443,-129.126 531.719,-131.073"/>
</g>
<!-- Node7&#45;&gt;Node10 -->
<g id="edge12" class="edge"><title>Node7&#45;&gt;Node10</title>
<path fill="none" stroke="midnightblue" d="M582.937,-135.699C612.949,-122.282 653.091,-104.336 680.592,-92.0413"/>
<polygon fill="midnightblue" stroke="midnightblue" points="581.278,-132.606 573.577,-139.883 584.135,-138.997 581.278,-132.606"/>
</g>
<!-- Node8&#45;&gt;Node2 -->
<g id="edge9" class="edge"><title>Node8&#45;&gt;Node2</title>
<path fill="none" stroke="midnightblue" d="M355,-51.7495C355,-40.517 355,-27.8767 355,-19.6945"/>
<polygon fill="midnightblue" stroke="midnightblue" points="351.5,-51.8959 355,-61.896 358.5,-51.896 351.5,-51.8959"/>
</g>
<!-- Node9&#45;&gt;Node2 -->
<g id="edge11" class="edge"><title>Node9&#45;&gt;Node2</title>
<path fill="none" stroke="midnightblue" d="M474.616,-58.1214C442.679,-45.5403 401.368,-29.2661 376.595,-19.507"/>
<polygon fill="midnightblue" stroke="midnightblue" points="473.611,-61.4871 484.197,-61.896 476.176,-54.9742 473.611,-61.4871"/>
</g>
<!-- Node10&#45;&gt;Node11 -->
<g id="edge13" class="edge"><title>Node10&#45;&gt;Node11</title>
<path fill="none" stroke="midnightblue" d="M726.555,-53.4745C734.078,-41.832 742.823,-28.2985 748.382,-19.6945"/>
<polygon fill="midnightblue" stroke="midnightblue" points="723.601,-51.5973 721.113,-61.896 729.48,-55.3963 723.601,-51.5973"/>
</g>
<!-- Node12&#45;&gt;Node2 -->
<g id="edge16" class="edge"><title>Node12&#45;&gt;Node2</title>
<path fill="none" stroke="midnightblue" d="M130.794,-59.4522C135.595,-58.2598 140.372,-57.0964 145,-56 202.869,-42.2909 270.148,-28.1962 312.646,-19.5181"/>
<polygon fill="midnightblue" stroke="midnightblue" points="129.789,-56.0959 120.945,-61.9286 131.496,-62.8846 129.789,-56.0959"/>
</g>
<!-- Node19&#45;&gt;Node12 -->
<g id="edge26" class="edge"><title>Node19&#45;&gt;Node12</title>
<path fill="none" stroke="midnightblue" d="M194.027,-135.699C164.721,-122.282 125.523,-104.336 98.6692,-92.0413"/>
<polygon fill="midnightblue" stroke="midnightblue" points="192.616,-138.903 203.166,-139.883 195.53,-132.538 192.616,-138.903"/>
</g>
<!-- Node21 -->
<g id="node21" class="node"><title>Node21</title>
<g id="a_node21"><a xlink:href="unordered__map_8h.html" target="_top" xlink:title="include/shad/core/unordered\l_map.h">
<polygon fill="white" stroke="black" points="1972.5,-62 1972.5,-92 2111.5,-92 2111.5,-62 1972.5,-62"/>
<text text-anchor="start" x="1980.5" y="-80" font-family="Helvetica,sans-Serif" font-size="10.00">include/shad/core/unordered</text>
<text text-anchor="middle" x="2042" y="-69" font-family="Helvetica,sans-Serif" font-size="10.00">_map.h</text>
</a>
</g>
</g>
<!-- Node20&#45;&gt;Node21 -->
<g id="edge29" class="edge"><title>Node20&#45;&gt;Node21</title>
<path fill="none" stroke="midnightblue" d="M2042,-129.59C2042,-117.257 2042,-102.724 2042,-92.2309"/>
<polygon fill="midnightblue" stroke="midnightblue" points="2038.5,-129.705 2042,-139.705 2045.5,-129.705 2038.5,-129.705"/>
</g>
<!-- Node23 -->
<g id="node23" class="node"><title>Node23</title>
<g id="a_node23"><a xlink:href="unordered__set_8h.html" target="_top" xlink:title="include/shad/core/unordered\l_set.h">
<polygon fill="white" stroke="black" points="2130.5,-62 2130.5,-92 2269.5,-92 2269.5,-62 2130.5,-62"/>
<text text-anchor="start" x="2138.5" y="-80" font-family="Helvetica,sans-Serif" font-size="10.00">include/shad/core/unordered</text>
<text text-anchor="middle" x="2200" y="-69" font-family="Helvetica,sans-Serif" font-size="10.00">_set.h</text>
</a>
</g>
</g>
<!-- Node22&#45;&gt;Node23 -->
<g id="edge31" class="edge"><title>Node22&#45;&gt;Node23</title>
<path fill="none" stroke="midnightblue" d="M2201.36,-129.59C2201.03,-117.257 2200.65,-102.724 2200.37,-92.2309"/>
<polygon fill="midnightblue" stroke="midnightblue" points="2197.86,-129.801 2201.62,-139.705 2204.86,-129.616 2197.86,-129.801"/>
</g>
<!-- Node24 -->
<g id="node24" class="node"><title>Node24</title>
<g id="a_node24"><a xlink:href="sssp_8h.html" target="_top" xlink:title="include/shad/extensions\l/graph_library/algorithms\l/sssp.h">
<polygon fill="white" stroke="black" points="2287.5,-56.5 2287.5,-97.5 2410.5,-97.5 2410.5,-56.5 2287.5,-56.5"/>
<text text-anchor="start" x="2295.5" y="-85.5" font-family="Helvetica,sans-Serif" font-size="10.00">include/shad/extensions</text>
<text text-anchor="start" x="2295.5" y="-74.5" font-family="Helvetica,sans-Serif" font-size="10.00">/graph_library/algorithms</text>
<text text-anchor="middle" x="2349" y="-63.5" font-family="Helvetica,sans-Serif" font-size="10.00">/sssp.h</text>
</a>
</g>
</g>
<!-- Node22&#45;&gt;Node24 -->
<g id="edge32" class="edge"><title>Node22&#45;&gt;Node24</title>
<path fill="none" stroke="midnightblue" d="M2238.37,-135.196C2260.47,-123.769 2288.65,-109.201 2311.04,-97.6279"/>
<polygon fill="midnightblue" stroke="midnightblue" points="2236.58,-132.181 2229.31,-139.883 2239.8,-138.4 2236.58,-132.181"/>
</g>
</g>
</svg>
