<?xml version="1.0" encoding="UTF-8" standalone="no"?>
<!DOCTYPE svg PUBLIC "-//W3C//DTD SVG 1.1//EN"
 "http://www.w3.org/Graphics/SVG/1.1/DTD/svg11.dtd">
<!-- Generated by graphviz version 2.36.0 (20140111.2315)
 -->
<!-- Title: include/shad/distributed_iterator_traits.h Pages: 1 -->
<svg width="387pt" height="220pt"
 viewBox="0.00 0.00 387.00 220.00" xmlns="http://www.w3.org/2000/svg" xmlns:xlink="http://www.w3.org/1999/xlink">
<g id="graph0" class="graph" transform="scale(1 1) rotate(0) translate(4 216)">
<title>include/shad/distributed_iterator_traits.h</title>
<polygon fill="white" stroke="none" points="-4,4 -4,-216 383,-216 383,4 -4,4"/>
<!-- Node1 -->
<g id="node1" class="node"><title>Node1</title>
<polygon fill="#bfbfbf" stroke="black" points="12.5,-181 12.5,-211 131.5,-211 131.5,-181 12.5,-181"/>
<text text-anchor="start" x="20.5" y="-199" font-family="Helvetica,sans-Serif" font-size="10.00">include/shad/distributed</text>
<text text-anchor="middle" x="72" y="-188" font-family="Helvetica,sans-Serif" font-size="10.00">_iterator_traits.h</text>
</g>
<!-- Node2 -->
<g id="node2" class="node"><title>Node2</title>
<polygon fill="white" stroke="#bfbfbf" points="-0.5,-124.5 -0.5,-143.5 46.5,-143.5 46.5,-124.5 -0.5,-124.5"/>
<text text-anchor="middle" x="23" y="-131.5" font-family="Helvetica,sans-Serif" font-size="10.00">iterator</text>
</g>
<!-- Node1&#45;&gt;Node2 -->
<g id="edge1" class="edge"><title>Node1&#45;&gt;Node2</title>
<path fill="none" stroke="midnightblue" d="M60.3877,-180.781C53.2674,-172.062 44.1169,-160.857 36.6508,-151.715"/>
<polygon fill="midnightblue" stroke="midnightblue" points="39.1662,-149.262 30.1299,-143.731 33.7444,-153.69 39.1662,-149.262"/>
</g>
<!-- Node3 -->
<g id="node3" class="node"><title>Node3</title>
<g id="a_node3"><a xlink:href="locality_8h.html" target="_top" xlink:title="shad/runtime/locality.h">
<polygon fill="white" stroke="black" points="64.5,-124.5 64.5,-143.5 179.5,-143.5 179.5,-124.5 64.5,-124.5"/>
<text text-anchor="middle" x="122" y="-131.5" font-family="Helvetica,sans-Serif" font-size="10.00">shad/runtime/locality.h</text>
</a>
</g>
</g>
<!-- Node1&#45;&gt;Node3 -->
<g id="edge2" class="edge"><title>Node1&#45;&gt;Node3</title>
<path fill="none" stroke="midnightblue" d="M83.8493,-180.781C91.1898,-171.972 100.645,-160.626 108.306,-151.433"/>
<polygon fill="midnightblue" stroke="midnightblue" points="111.011,-153.653 114.725,-143.731 105.634,-149.172 111.011,-153.653"/>
</g>
<!-- Node4 -->
<g id="node4" class="node"><title>Node4</title>
<polygon fill="white" stroke="#bfbfbf" points="5,-62.5 5,-81.5 51,-81.5 51,-62.5 5,-62.5"/>
<text text-anchor="middle" x="28" y="-69.5" font-family="Helvetica,sans-Serif" font-size="10.00">cstdint</text>
</g>
<!-- Node3&#45;&gt;Node4 -->
<g id="edge3" class="edge"><title>Node3&#45;&gt;Node4</title>
<path fill="none" stroke="midnightblue" d="M108.532,-124.403C93.3152,-114.691 68.3133,-98.7319 50.1992,-87.1697"/>
<polygon fill="midnightblue" stroke="midnightblue" points="51.7553,-84.0108 41.4429,-81.5806 47.989,-89.9112 51.7553,-84.0108"/>
</g>
<!-- Node5 -->
<g id="node5" class="node"><title>Node5</title>
<polygon fill="white" stroke="#bfbfbf" points="27,-0.5 27,-19.5 131,-19.5 131,-0.5 27,-0.5"/>
<text text-anchor="middle" x="79" y="-7.5" font-family="Helvetica,sans-Serif" font-size="10.00">shad/config/config.h</text>
</g>
<!-- Node3&#45;&gt;Node5 -->
<g id="edge4" class="edge"><title>Node3&#45;&gt;Node5</title>
<path fill="none" stroke="midnightblue" d="M116.545,-124.343C111.177,-115.5 103.069,-101.229 98,-88 90.6258,-68.7562 85.3797,-45.6941 82.294,-29.8564"/>
<polygon fill="midnightblue" stroke="midnightblue" points="85.6871,-28.957 80.4294,-19.7588 78.8035,-30.2282 85.6871,-28.957"/>
</g>
<!-- Node6 -->
<g id="node6" class="node"><title>Node6</title>
<g id="a_node6"><a xlink:href="mapping__traits_8h.html" target="_top" xlink:title="shad/runtime/mapping\l_traits.h">
<polygon fill="white" stroke="black" points="107.5,-57 107.5,-87 220.5,-87 220.5,-57 107.5,-57"/>
<text text-anchor="start" x="115.5" y="-75" font-family="Helvetica,sans-Serif" font-size="10.00">shad/runtime/mapping</text>
<text text-anchor="middle" x="164" y="-64" font-family="Helvetica,sans-Serif" font-size="10.00">_traits.h</text>
</a>
</g>
</g>
<!-- Node3&#45;&gt;Node6 -->
<g id="edge5" class="edge"><title>Node3&#45;&gt;Node6</title>
<path fill="none" stroke="midnightblue" d="M128.018,-124.403C133.281,-116.885 141.163,-105.624 148.21,-95.5565"/>
<polygon fill="midnightblue" stroke="midnightblue" points="151.234,-97.3403 154.101,-87.1408 145.499,-93.326 151.234,-97.3403"/>
</g>
<!-- Node8 -->
<g id="node8" class="node"><title>Node8</title>
<g id="a_node8"><a xlink:href="available__traits__mappings_8h.html" target="_top" xlink:title="shad/runtime/mappings\l/available_traits_mappings.h">
<polygon fill="white" stroke="black" points="239,-57 239,-87 379,-87 379,-57 239,-57"/>
<text text-anchor="start" x="247" y="-75" font-family="Helvetica,sans-Serif" font-size="10.00">shad/runtime/mappings</text>
<text text-anchor="middle" x="309" y="-64" font-family="Helvetica,sans-Serif" font-size="10.00">/available_traits_mappings.h</text>
</a>
</g>
</g>
<!-- Node3&#45;&gt;Node8 -->
<g id="edge8" class="edge"><title>Node3&#45;&gt;Node8</title>
<path fill="none" stroke="midnightblue" d="M148.793,-124.403C176.578,-115.488 220.764,-101.311 255.7,-90.1014"/>
<polygon fill="midnightblue" stroke="midnightblue" points="256.835,-93.4132 265.288,-87.0253 254.697,-86.7479 256.835,-93.4132"/>
</g>
<!-- Node6&#45;&gt;Node5 -->
<g id="edge7" class="edge"><title>Node6&#45;&gt;Node5</title>
<path fill="none" stroke="midnightblue" d="M143.856,-56.7808C130.405,-47.2862 112.778,-34.8434 99.2961,-25.3267"/>
<polygon fill="midnightblue" stroke="midnightblue" points="101.309,-22.4632 91.1206,-19.5557 97.2719,-28.182 101.309,-22.4632"/>
</g>
<!-- Node7 -->
<g id="node7" class="node"><title>Node7</title>
<polygon fill="white" stroke="#bfbfbf" points="149.5,-0.5 149.5,-19.5 190.5,-19.5 190.5,-0.5 149.5,-0.5"/>
<text text-anchor="middle" x="170" y="-7.5" font-family="Helvetica,sans-Serif" font-size="10.00">string</text>
</g>
<!-- Node6&#45;&gt;Node7 -->
<g id="edge6" class="edge"><title>Node6&#45;&gt;Node7</title>
<path fill="none" stroke="midnightblue" d="M165.422,-56.7808C166.231,-48.6913 167.254,-38.4617 168.127,-29.725"/>
<polygon fill="midnightblue" stroke="midnightblue" points="171.614,-30.0292 169.127,-19.7305 164.649,-29.3326 171.614,-30.0292"/>
</g>
</g>
</svg>
