<?xml version="1.0" encoding="UTF-8" standalone="no"?>
<!DOCTYPE svg PUBLIC "-//W3C//DTD SVG 1.1//EN"
 "http://www.w3.org/Graphics/SVG/1.1/DTD/svg11.dtd">
<!-- Generated by graphviz version 2.36.0 (20140111.2315)
 -->
<!-- Title: include/shad/core/execution.h Pages: 1 -->
<svg width="1893pt" height="162pt"
 viewBox="0.00 0.00 1892.56 162.00" xmlns="http://www.w3.org/2000/svg" xmlns:xlink="http://www.w3.org/1999/xlink">
<g id="graph0" class="graph" transform="scale(1 1) rotate(0) translate(4 158)">
<title>include/shad/core/execution.h</title>
<polygon fill="white" stroke="none" points="-4,4 -4,-158 1888.56,-158 1888.56,4 -4,4"/>
<!-- Node1 -->
<g id="node1" class="node"><title>Node1</title>
<polygon fill="#bfbfbf" stroke="black" points="884.561,-134.5 884.561,-153.5 1030.56,-153.5 1030.56,-134.5 884.561,-134.5"/>
<text text-anchor="middle" x="957.561" y="-141.5" font-family="Helvetica,sans-Serif" font-size="10.00">include/shad/core/execution.h</text>
</g>
<!-- Node2 -->
<g id="node2" class="node"><title>Node2</title>
<g id="a_node2"><a xlink:href="algorithm_8h.html" target="_top" xlink:title="include/shad/core/algorithm.h">
<polygon fill="white" stroke="black" points="411.561,-0.5 411.561,-19.5 555.561,-19.5 555.561,-0.5 411.561,-0.5"/>
<text text-anchor="middle" x="483.561" y="-7.5" font-family="Helvetica,sans-Serif" font-size="10.00">include/shad/core/algorithm.h</text>
</a>
</g>
</g>
<!-- Node1&#45;&gt;Node2 -->
<g id="edge1" class="edge"><title>Node1&#45;&gt;Node2</title>
<path fill="none" stroke="midnightblue" d="M874.167,-142.129C648.221,-139.362 39.1691,-129.047 9.56117,-98 -3.32143,-84.4914 -2.99893,-69.809 9.56117,-56 36.0502,-26.8771 285.591,-16.1787 411.552,-12.6107"/>
<polygon fill="midnightblue" stroke="midnightblue" points="874.269,-145.63 884.31,-142.251 874.353,-138.631 874.269,-145.63"/>
</g>
<!-- Node3 -->
<g id="node3" class="node"><title>Node3</title>
<g id="a_node3"><a xlink:href="binary__search__ops_8h.html" target="_top" xlink:title="include/shad/core/impl\l/binary_search_ops.h">
<polygon fill="white" stroke="black" points="18.5612,-62 18.5612,-92 132.561,-92 132.561,-62 18.5612,-62"/>
<text text-anchor="start" x="26.5612" y="-80" font-family="Helvetica,sans-Serif" font-size="10.00">include/shad/core/impl</text>
<text text-anchor="middle" x="75.5612" y="-69" font-family="Helvetica,sans-Serif" font-size="10.00">/binary_search_ops.h</text>
</a>
</g>
</g>
<!-- Node1&#45;&gt;Node3 -->
<g id="edge2" class="edge"><title>Node1&#45;&gt;Node3</title>
<path fill="none" stroke="midnightblue" d="M874.262,-140.932C695.573,-136.085 280.423,-122.504 141.561,-98 133.308,-96.5436 124.633,-94.3883 116.385,-92.0252"/>
<polygon fill="midnightblue" stroke="midnightblue" points="874.307,-144.435 884.397,-141.205 874.495,-137.437 874.307,-144.435"/>
</g>
<!-- Node4 -->
<g id="node4" class="node"><title>Node4</title>
<g id="a_node4"><a xlink:href="comparison__ops_8h.html" target="_top" xlink:title="include/shad/core/impl\l/comparison_ops.h">
<polygon fill="white" stroke="black" points="150.561,-62 150.561,-92 264.561,-92 264.561,-62 150.561,-62"/>
<text text-anchor="start" x="158.561" y="-80" font-family="Helvetica,sans-Serif" font-size="10.00">include/shad/core/impl</text>
<text text-anchor="middle" x="207.561" y="-69" font-family="Helvetica,sans-Serif" font-size="10.00">/comparison_ops.h</text>
</a>
</g>
</g>
<!-- Node1&#45;&gt;Node4 -->
<g id="edge3" class="edge"><title>Node1&#45;&gt;Node4</title>
<path fill="none" stroke="midnightblue" d="M874.267,-143.617C744.72,-143.213 487.592,-136.939 273.561,-98 265.433,-96.5213 256.892,-94.3867 248.751,-92.0573"/>
<polygon fill="midnightblue" stroke="midnightblue" points="874.501,-147.118 884.508,-143.638 874.515,-140.118 874.501,-147.118"/>
</g>
<!-- Node5 -->
<g id="node5" class="node"><title>Node5</title>
<g id="a_node5"><a xlink:href="heap__ops_8h.html" target="_top" xlink:title="include/shad/core/impl\l/heap_ops.h">
<polygon fill="white" stroke="black" points="282.561,-62 282.561,-92 396.561,-92 396.561,-62 282.561,-62"/>
<text text-anchor="start" x="290.561" y="-80" font-family="Helvetica,sans-Serif" font-size="10.00">include/shad/core/impl</text>
<text text-anchor="middle" x="339.561" y="-69" font-family="Helvetica,sans-Serif" font-size="10.00">/heap_ops.h</text>
</a>
</g>
</g>
<!-- Node1&#45;&gt;Node5 -->
<g id="edge5" class="edge"><title>Node1&#45;&gt;Node5</title>
<path fill="none" stroke="midnightblue" d="M873.868,-141.703C765.074,-138.759 569.591,-129.17 405.561,-98 397.563,-96.4801 389.157,-94.3565 381.124,-92.0572"/>
<polygon fill="midnightblue" stroke="midnightblue" points="874.035,-145.208 884.122,-141.967 874.216,-138.21 874.035,-145.208"/>
</g>
<!-- Node6 -->
<g id="node6" class="node"><title>Node6</title>
<g id="a_node6"><a xlink:href="minimum__maximum__ops_8h.html" target="_top" xlink:title="include/shad/core/impl\l/minimum_maximum_ops.h">
<polygon fill="white" stroke="black" points="415.061,-62 415.061,-92 552.061,-92 552.061,-62 415.061,-62"/>
<text text-anchor="start" x="423.061" y="-80" font-family="Helvetica,sans-Serif" font-size="10.00">include/shad/core/impl</text>
<text text-anchor="middle" x="483.561" y="-69" font-family="Helvetica,sans-Serif" font-size="10.00">/minimum_maximum_ops.h</text>
</a>
</g>
</g>
<!-- Node1&#45;&gt;Node6 -->
<g id="edge6" class="edge"><title>Node1&#45;&gt;Node6</title>
<path fill="none" stroke="midnightblue" d="M874.419,-136.906C793.949,-130.22 668.747,-117.735 561.561,-98 552.625,-96.3546 543.198,-94.2554 534.105,-92.0389"/>
<polygon fill="midnightblue" stroke="midnightblue" points="874.242,-140.403 884.494,-137.733 874.814,-133.427 874.242,-140.403"/>
</g>
<!-- Node7 -->
<g id="node7" class="node"><title>Node7</title>
<g id="a_node7"><a xlink:href="modifyng__sequence__ops_8h.html" target="_top" xlink:title="include/shad/core/impl\l/modifyng_sequence_ops.h">
<polygon fill="white" stroke="black" points="570.561,-62 570.561,-92 706.561,-92 706.561,-62 570.561,-62"/>
<text text-anchor="start" x="578.561" y="-80" font-family="Helvetica,sans-Serif" font-size="10.00">include/shad/core/impl</text>
<text text-anchor="middle" x="638.561" y="-69" font-family="Helvetica,sans-Serif" font-size="10.00">/modifyng_sequence_ops.h</text>
</a>
</g>
</g>
<!-- Node1&#45;&gt;Node7 -->
<g id="edge8" class="edge"><title>Node1&#45;&gt;Node7</title>
<path fill="none" stroke="midnightblue" d="M895.758,-132.741C846.714,-124.303 776.508,-111.564 715.561,-98 707.472,-96.1997 698.945,-94.1447 690.63,-92.0532"/>
<polygon fill="midnightblue" stroke="midnightblue" points="895.444,-136.238 905.891,-134.475 896.625,-129.338 895.444,-136.238"/>
</g>
<!-- Node8 -->
<g id="node8" class="node"><title>Node8</title>
<g id="a_node8"><a xlink:href="non__modifyng__sequence__ops_8h.html" target="_top" xlink:title="include/shad/core/impl\l/non_modifyng_sequence_ops.h">
<polygon fill="white" stroke="black" points="725.061,-62 725.061,-92 882.061,-92 882.061,-62 725.061,-62"/>
<text text-anchor="start" x="733.061" y="-80" font-family="Helvetica,sans-Serif" font-size="10.00">include/shad/core/impl</text>
<text text-anchor="middle" x="803.561" y="-69" font-family="Helvetica,sans-Serif" font-size="10.00">/non_modifyng_sequence_ops.h</text>
</a>
</g>
</g>
<!-- Node1&#45;&gt;Node8 -->
<g id="edge10" class="edge"><title>Node1&#45;&gt;Node8</title>
<path fill="none" stroke="midnightblue" d="M927.739,-130.413C901.662,-119.406 863.839,-103.442 836.797,-92.0281"/>
<polygon fill="midnightblue" stroke="midnightblue" points="926.537,-133.704 937.111,-134.369 929.259,-127.255 926.537,-133.704"/>
</g>
<!-- Node9 -->
<g id="node9" class="node"><title>Node9</title>
<g id="a_node9"><a xlink:href="numeric__ops_8h.html" target="_top" xlink:title="include/shad/core/impl\l/numeric_ops.h">
<polygon fill="white" stroke="black" points="900.561,-62 900.561,-92 1014.56,-92 1014.56,-62 900.561,-62"/>
<text text-anchor="start" x="908.561" y="-80" font-family="Helvetica,sans-Serif" font-size="10.00">include/shad/core/impl</text>
<text text-anchor="middle" x="957.561" y="-69" font-family="Helvetica,sans-Serif" font-size="10.00">/numeric_ops.h</text>
</a>
</g>
</g>
<!-- Node1&#45;&gt;Node9 -->
<g id="edge12" class="edge"><title>Node1&#45;&gt;Node9</title>
<path fill="none" stroke="midnightblue" d="M957.561,-123.911C957.561,-113.722 957.561,-101.401 957.561,-92.089"/>
<polygon fill="midnightblue" stroke="midnightblue" points="954.061,-124.234 957.561,-134.234 961.061,-124.234 954.061,-124.234"/>
</g>
<!-- Node10 -->
<g id="node10" class="node"><title>Node10</title>
<g id="a_node10"><a xlink:href="numeric_8h.html" target="_top" xlink:title="include/shad/core/numeric.h">
<polygon fill="white" stroke="black" points="930.061,-0.5 930.061,-19.5 1069.06,-19.5 1069.06,-0.5 930.061,-0.5"/>
<text text-anchor="middle" x="999.561" y="-7.5" font-family="Helvetica,sans-Serif" font-size="10.00">include/shad/core/numeric.h</text>
</a>
</g>
</g>
<!-- Node1&#45;&gt;Node10 -->
<g id="edge20" class="edge"><title>Node1&#45;&gt;Node10</title>
<path fill="none" stroke="midnightblue" d="M988.94,-129.833C1002.14,-122.533 1016.14,-112.047 1023.56,-98 1037.62,-71.4028 1017.09,-35.7639 1005.95,-19.6068"/>
<polygon fill="midnightblue" stroke="midnightblue" points="987.338,-126.721 980.02,-134.382 990.518,-132.957 987.338,-126.721"/>
</g>
<!-- Node11 -->
<g id="node11" class="node"><title>Node11</title>
<g id="a_node11"><a xlink:href="ops__on__uninitialized__memory_8h.html" target="_top" xlink:title="include/shad/core/impl\l/ops_on_uninitialized\l_memory.h">
<polygon fill="white" stroke="black" points="1070.56,-56.5 1070.56,-97.5 1184.56,-97.5 1184.56,-56.5 1070.56,-56.5"/>
<text text-anchor="start" x="1078.56" y="-85.5" font-family="Helvetica,sans-Serif" font-size="10.00">include/shad/core/impl</text>
<text text-anchor="start" x="1078.56" y="-74.5" font-family="Helvetica,sans-Serif" font-size="10.00">/ops_on_uninitialized</text>
<text text-anchor="middle" x="1127.56" y="-63.5" font-family="Helvetica,sans-Serif" font-size="10.00">_memory.h</text>
</a>
</g>
</g>
<!-- Node1&#45;&gt;Node11 -->
<g id="edge14" class="edge"><title>Node1&#45;&gt;Node11</title>
<path fill="none" stroke="midnightblue" d="M989.626,-130.74C1014.02,-121.414 1048.07,-108.395 1076.23,-97.6254"/>
<polygon fill="midnightblue" stroke="midnightblue" points="988.226,-127.528 980.136,-134.369 990.726,-134.066 988.226,-127.528"/>
</g>
<!-- Node12 -->
<g id="node12" class="node"><title>Node12</title>
<g id="a_node12"><a xlink:href="other__ops__on__sorted__ranges_8h.html" target="_top" xlink:title="include/shad/core/impl\l/other_ops_on_sorted_ranges.h">
<polygon fill="white" stroke="black" points="1203.06,-62 1203.06,-92 1356.06,-92 1356.06,-62 1203.06,-62"/>
<text text-anchor="start" x="1211.06" y="-80" font-family="Helvetica,sans-Serif" font-size="10.00">include/shad/core/impl</text>
<text text-anchor="middle" x="1279.56" y="-69" font-family="Helvetica,sans-Serif" font-size="10.00">/other_ops_on_sorted_ranges.h</text>
</a>
</g>
</g>
<!-- Node1&#45;&gt;Node12 -->
<g id="edge15" class="edge"><title>Node1&#45;&gt;Node12</title>
<path fill="none" stroke="midnightblue" d="M1015.46,-132.63C1063.31,-123.897 1132.99,-110.813 1193.56,-98 1202.26,-96.16 1211.43,-94.1272 1220.41,-92.0833"/>
<polygon fill="midnightblue" stroke="midnightblue" points="1014.8,-129.192 1005.59,-134.425 1016.05,-136.079 1014.8,-129.192"/>
</g>
<!-- Node13 -->
<g id="node13" class="node"><title>Node13</title>
<g id="a_node13"><a xlink:href="partitioning__ops_8h.html" target="_top" xlink:title="include/shad/core/impl\l/partitioning_ops.h">
<polygon fill="white" stroke="black" points="1374.56,-62 1374.56,-92 1488.56,-92 1488.56,-62 1374.56,-62"/>
<text text-anchor="start" x="1382.56" y="-80" font-family="Helvetica,sans-Serif" font-size="10.00">include/shad/core/impl</text>
<text text-anchor="middle" x="1431.56" y="-69" font-family="Helvetica,sans-Serif" font-size="10.00">/partitioning_ops.h</text>
</a>
</g>
</g>
<!-- Node1&#45;&gt;Node13 -->
<g id="edge16" class="edge"><title>Node1&#45;&gt;Node13</title>
<path fill="none" stroke="midnightblue" d="M1040.69,-138.203C1123.42,-132.402 1253.7,-120.484 1364.56,-98 1372.41,-96.4075 1380.67,-94.3068 1388.6,-92.0657"/>
<polygon fill="midnightblue" stroke="midnightblue" points="1040.33,-134.72 1030.59,-138.898 1040.81,-141.704 1040.33,-134.72"/>
</g>
<!-- Node14 -->
<g id="node14" class="node"><title>Node14</title>
<g id="a_node14"><a xlink:href="permutation__ops_8h.html" target="_top" xlink:title="include/shad/core/impl\l/permutation_ops.h">
<polygon fill="white" stroke="black" points="1506.56,-62 1506.56,-92 1620.56,-92 1620.56,-62 1506.56,-62"/>
<text text-anchor="start" x="1514.56" y="-80" font-family="Helvetica,sans-Serif" font-size="10.00">include/shad/core/impl</text>
<text text-anchor="middle" x="1563.56" y="-69" font-family="Helvetica,sans-Serif" font-size="10.00">/permutation_ops.h</text>
</a>
</g>
</g>
<!-- Node1&#45;&gt;Node14 -->
<g id="edge17" class="edge"><title>Node1&#45;&gt;Node14</title>
<path fill="none" stroke="midnightblue" d="M1040.78,-141.499C1147.47,-138.337 1337.77,-128.513 1497.56,-98 1505.56,-96.4729 1513.96,-94.3459 1522,-92.0455"/>
<polygon fill="midnightblue" stroke="midnightblue" points="1040.61,-138.002 1030.72,-141.785 1040.81,-144.999 1040.61,-138.002"/>
</g>
<!-- Node15 -->
<g id="node15" class="node"><title>Node15</title>
<g id="a_node15"><a xlink:href="set__ops_8h.html" target="_top" xlink:title="include/shad/core/impl\l/set_ops.h">
<polygon fill="white" stroke="black" points="1638.56,-62 1638.56,-92 1752.56,-92 1752.56,-62 1638.56,-62"/>
<text text-anchor="start" x="1646.56" y="-80" font-family="Helvetica,sans-Serif" font-size="10.00">include/shad/core/impl</text>
<text text-anchor="middle" x="1695.56" y="-69" font-family="Helvetica,sans-Serif" font-size="10.00">/set_ops.h</text>
</a>
</g>
</g>
<!-- Node1&#45;&gt;Node15 -->
<g id="edge18" class="edge"><title>Node1&#45;&gt;Node15</title>
<path fill="none" stroke="midnightblue" d="M1040.93,-143.473C1168.69,-142.842 1420.13,-136.229 1629.56,-98 1637.69,-96.5165 1646.23,-94.3798 1654.37,-92.0497"/>
<polygon fill="midnightblue" stroke="midnightblue" points="1040.81,-139.974 1030.82,-143.512 1040.84,-146.974 1040.81,-139.974"/>
</g>
<!-- Node16 -->
<g id="node16" class="node"><title>Node16</title>
<g id="a_node16"><a xlink:href="sorting__ops_8h.html" target="_top" xlink:title="include/shad/core/impl\l/sorting_ops.h">
<polygon fill="white" stroke="black" points="1770.56,-62 1770.56,-92 1884.56,-92 1884.56,-62 1770.56,-62"/>
<text text-anchor="start" x="1778.56" y="-80" font-family="Helvetica,sans-Serif" font-size="10.00">include/shad/core/impl</text>
<text text-anchor="middle" x="1827.56" y="-69" font-family="Helvetica,sans-Serif" font-size="10.00">/sorting_ops.h</text>
</a>
</g>
</g>
<!-- Node1&#45;&gt;Node16 -->
<g id="edge19" class="edge"><title>Node1&#45;&gt;Node16</title>
<path fill="none" stroke="midnightblue" d="M1040.62,-140.859C1217.21,-135.898 1625,-122.156 1761.56,-98 1769.81,-96.5402 1778.49,-94.3834 1786.74,-92.0198"/>
<polygon fill="midnightblue" stroke="midnightblue" points="1040.49,-137.361 1030.6,-141.138 1040.69,-144.359 1040.49,-137.361"/>
</g>
<!-- Node4&#45;&gt;Node2 -->
<g id="edge4" class="edge"><title>Node4&#45;&gt;Node2</title>
<path fill="none" stroke="midnightblue" d="M261.913,-59.1409C265.844,-58.041 269.757,-56.9821 273.561,-56 329.881,-41.4594 395.542,-27.9299 438.246,-19.5788"/>
<polygon fill="midnightblue" stroke="midnightblue" points="260.801,-55.8186 252.152,-61.9389 262.73,-62.5475 260.801,-55.8186"/>
</g>
<!-- Node6&#45;&gt;Node2 -->
<g id="edge7" class="edge"><title>Node6&#45;&gt;Node2</title>
<path fill="none" stroke="midnightblue" d="M483.561,-51.7495C483.561,-40.517 483.561,-27.8767 483.561,-19.6945"/>
<polygon fill="midnightblue" stroke="midnightblue" points="480.061,-51.8959 483.561,-61.896 487.061,-51.896 480.061,-51.8959"/>
</g>
<!-- Node7&#45;&gt;Node2 -->
<g id="edge9" class="edge"><title>Node7&#45;&gt;Node2</title>
<path fill="none" stroke="midnightblue" d="M595.539,-57.9585C565.592,-45.4001 527.018,-29.224 503.847,-19.507"/>
<polygon fill="midnightblue" stroke="midnightblue" points="594.353,-61.2563 604.928,-61.896 597.06,-54.801 594.353,-61.2563"/>
</g>
<!-- Node8&#45;&gt;Node2 -->
<g id="edge11" class="edge"><title>Node8&#45;&gt;Node2</title>
<path fill="none" stroke="midnightblue" d="M733.073,-59.7713C727.154,-58.4721 721.258,-57.1995 715.561,-56 651.324,-42.4741 576.758,-28.2774 529.867,-19.532"/>
<polygon fill="midnightblue" stroke="midnightblue" points="732.503,-63.2298 743.024,-61.9748 734.017,-56.3954 732.503,-63.2298"/>
</g>
<!-- Node9&#45;&gt;Node10 -->
<g id="edge13" class="edge"><title>Node9&#45;&gt;Node10</title>
<path fill="none" stroke="midnightblue" d="M972.116,-53.4745C979.639,-41.832 988.384,-28.2985 993.943,-19.6945"/>
<polygon fill="midnightblue" stroke="midnightblue" points="969.162,-51.5973 966.675,-61.896 975.041,-55.3963 969.162,-51.5973"/>
</g>
</g>
</svg>
