<?xml version="1.0" encoding="UTF-8" standalone="no"?>
<!DOCTYPE svg PUBLIC "-//W3C//DTD SVG 1.1//EN"
 "http://www.w3.org/Graphics/SVG/1.1/DTD/svg11.dtd">
<!-- Generated by graphviz version 2.36.0 (20140111.2315)
 -->
<!-- Title: include/shad/runtime/mappings/gmt/gmt_traits_mapping.h Pages: 1 -->
<svg width="494pt" height="174pt"
 viewBox="0.00 0.00 494.00 174.00" xmlns="http://www.w3.org/2000/svg" xmlns:xlink="http://www.w3.org/1999/xlink">
<g id="graph0" class="graph" transform="scale(1 1) rotate(0) translate(4 170)">
<title>include/shad/runtime/mappings/gmt/gmt_traits_mapping.h</title>
<polygon fill="white" stroke="none" points="-4,4 -4,-170 490,-170 490,4 -4,4"/>
<!-- Node1 -->
<g id="node1" class="node"><title>Node1</title>
<polygon fill="#bfbfbf" stroke="black" points="152,-124.5 152,-165.5 280,-165.5 280,-124.5 152,-124.5"/>
<text text-anchor="start" x="160" y="-153.5" font-family="Helvetica,sans-Serif" font-size="10.00">include/shad/runtime</text>
<text text-anchor="start" x="160" y="-142.5" font-family="Helvetica,sans-Serif" font-size="10.00">/mappings/gmt/gmt_traits</text>
<text text-anchor="middle" x="216" y="-131.5" font-family="Helvetica,sans-Serif" font-size="10.00">_mapping.h</text>
</g>
<!-- Node2 -->
<g id="node2" class="node"><title>Node2</title>
<polygon fill="white" stroke="#bfbfbf" points="0,-62.5 0,-81.5 46,-81.5 46,-62.5 0,-62.5"/>
<text text-anchor="middle" x="23" y="-69.5" font-family="Helvetica,sans-Serif" font-size="10.00">cstdint</text>
</g>
<!-- Node1&#45;&gt;Node2 -->
<g id="edge1" class="edge"><title>Node1&#45;&gt;Node2</title>
<path fill="none" stroke="midnightblue" d="M155.049,-124.458C124.701,-114.31 87.6185,-101.276 55,-88 53.3591,-87.3321 51.6812,-86.6241 49.9956,-85.8934"/>
<polygon fill="midnightblue" stroke="midnightblue" points="51.0143,-82.513 40.4603,-81.5836 48.1312,-88.8917 51.0143,-82.513"/>
</g>
<!-- Node3 -->
<g id="node3" class="node"><title>Node3</title>
<polygon fill="white" stroke="#bfbfbf" points="64,-62.5 64,-81.5 118,-81.5 118,-62.5 64,-62.5"/>
<text text-anchor="middle" x="91" y="-69.5" font-family="Helvetica,sans-Serif" font-size="10.00">iostream</text>
</g>
<!-- Node1&#45;&gt;Node3 -->
<g id="edge2" class="edge"><title>Node1&#45;&gt;Node3</title>
<path fill="none" stroke="midnightblue" d="M181.512,-124.411C160.37,-112.402 133.835,-97.3305 114.975,-86.6176"/>
<polygon fill="midnightblue" stroke="midnightblue" points="116.559,-83.4925 106.135,-81.5968 113.102,-89.5791 116.559,-83.4925"/>
</g>
<!-- Node4 -->
<g id="node4" class="node"><title>Node4</title>
<polygon fill="white" stroke="#bfbfbf" points="136,-62.5 136,-81.5 176,-81.5 176,-62.5 136,-62.5"/>
<text text-anchor="middle" x="156" y="-69.5" font-family="Helvetica,sans-Serif" font-size="10.00">limits</text>
</g>
<!-- Node1&#45;&gt;Node4 -->
<g id="edge3" class="edge"><title>Node1&#45;&gt;Node4</title>
<path fill="none" stroke="midnightblue" d="M199.287,-124.223C190.076,-113.323 178.772,-99.9466 170.025,-89.5964"/>
<polygon fill="midnightblue" stroke="midnightblue" points="172.51,-87.1137 163.382,-81.7349 167.163,-91.632 172.51,-87.1137"/>
</g>
<!-- Node5 -->
<g id="node5" class="node"><title>Node5</title>
<polygon fill="white" stroke="#bfbfbf" points="194,-62.5 194,-81.5 238,-81.5 238,-62.5 194,-62.5"/>
<text text-anchor="middle" x="216" y="-69.5" font-family="Helvetica,sans-Serif" font-size="10.00">mutex</text>
</g>
<!-- Node1&#45;&gt;Node5 -->
<g id="edge4" class="edge"><title>Node1&#45;&gt;Node5</title>
<path fill="none" stroke="midnightblue" d="M216,-124.223C216,-114.086 216,-101.807 216,-91.8125"/>
<polygon fill="midnightblue" stroke="midnightblue" points="219.5,-91.7349 216,-81.7349 212.5,-91.7349 219.5,-91.7349"/>
</g>
<!-- Node6 -->
<g id="node6" class="node"><title>Node6</title>
<polygon fill="white" stroke="#bfbfbf" points="281.5,-0.5 281.5,-19.5 322.5,-19.5 322.5,-0.5 281.5,-0.5"/>
<text text-anchor="middle" x="302" y="-7.5" font-family="Helvetica,sans-Serif" font-size="10.00">string</text>
</g>
<!-- Node1&#45;&gt;Node6 -->
<g id="edge5" class="edge"><title>Node1&#45;&gt;Node6</title>
<path fill="none" stroke="midnightblue" d="M228.69,-124.375C245.436,-98.4765 274.663,-53.2775 290.689,-28.4923"/>
<polygon fill="midnightblue" stroke="midnightblue" points="293.823,-30.0919 296.314,-19.794 287.945,-26.291 293.823,-30.0919"/>
</g>
<!-- Node7 -->
<g id="node7" class="node"><title>Node7</title>
<polygon fill="white" stroke="#bfbfbf" points="294.5,-62.5 294.5,-81.5 355.5,-81.5 355.5,-62.5 294.5,-62.5"/>
<text text-anchor="middle" x="325" y="-69.5" font-family="Helvetica,sans-Serif" font-size="10.00">gmt/gmt.h</text>
</g>
<!-- Node1&#45;&gt;Node7 -->
<g id="edge6" class="edge"><title>Node1&#45;&gt;Node7</title>
<path fill="none" stroke="midnightblue" d="M246.073,-124.411C264.257,-112.567 287.015,-97.7428 303.414,-87.0603"/>
<polygon fill="midnightblue" stroke="midnightblue" points="305.333,-89.9876 311.802,-81.5968 301.513,-84.1222 305.333,-89.9876"/>
</g>
<!-- Node8 -->
<g id="node8" class="node"><title>Node8</title>
<g id="a_node8"><a xlink:href="mapping__traits_8h.html" target="_top" xlink:title="shad/runtime/mapping\l_traits.h">
<polygon fill="white" stroke="black" points="373.5,-57 373.5,-87 486.5,-87 486.5,-57 373.5,-57"/>
<text text-anchor="start" x="381.5" y="-75" font-family="Helvetica,sans-Serif" font-size="10.00">shad/runtime/mapping</text>
<text text-anchor="middle" x="430" y="-64" font-family="Helvetica,sans-Serif" font-size="10.00">_traits.h</text>
</a>
</g>
</g>
<!-- Node1&#45;&gt;Node8 -->
<g id="edge7" class="edge"><title>Node1&#45;&gt;Node8</title>
<path fill="none" stroke="midnightblue" d="M275.043,-124.411C307.305,-113.707 346.902,-100.57 377.992,-90.2549"/>
<polygon fill="midnightblue" stroke="midnightblue" points="379.378,-93.4827 387.767,-87.0117 377.174,-86.8388 379.378,-93.4827"/>
</g>
<!-- Node8&#45;&gt;Node6 -->
<g id="edge8" class="edge"><title>Node8&#45;&gt;Node6</title>
<path fill="none" stroke="midnightblue" d="M399.99,-56.9327C378.684,-46.9455 350.298,-33.6397 329.564,-23.9205"/>
<polygon fill="midnightblue" stroke="midnightblue" points="330.887,-20.6753 320.347,-19.6 327.916,-27.0135 330.887,-20.6753"/>
</g>
<!-- Node9 -->
<g id="node9" class="node"><title>Node9</title>
<polygon fill="white" stroke="#bfbfbf" points="378,-0.5 378,-19.5 482,-19.5 482,-0.5 378,-0.5"/>
<text text-anchor="middle" x="430" y="-7.5" font-family="Helvetica,sans-Serif" font-size="10.00">shad/config/config.h</text>
</g>
<!-- Node8&#45;&gt;Node9 -->
<g id="edge9" class="edge"><title>Node8&#45;&gt;Node9</title>
<path fill="none" stroke="midnightblue" d="M430,-56.7808C430,-48.7812 430,-38.6887 430,-30.0168"/>
<polygon fill="midnightblue" stroke="midnightblue" points="433.5,-29.7305 430,-19.7305 426.5,-29.7306 433.5,-29.7305"/>
</g>
</g>
</svg>
