<?xml version="1.0" encoding="UTF-8" standalone="no"?>
<!DOCTYPE svg PUBLIC "-//W3C//DTD SVG 1.1//EN"
 "http://www.w3.org/Graphics/SVG/1.1/DTD/svg11.dtd">
<!-- Generated by graphviz version 2.36.0 (20140111.2315)
 -->
<!-- Title: include/shad/runtime/mappings/gmt/gmt_utility.h Pages: 1 -->
<svg width="590pt" height="220pt"
 viewBox="0.00 0.00 590.00 220.00" xmlns="http://www.w3.org/2000/svg" xmlns:xlink="http://www.w3.org/1999/xlink">
<g id="graph0" class="graph" transform="scale(1 1) rotate(0) translate(4 216)">
<title>include/shad/runtime/mappings/gmt/gmt_utility.h</title>
<polygon fill="white" stroke="none" points="-4,4 -4,-216 586,-216 586,4 -4,4"/>
<!-- Node1 -->
<g id="node1" class="node"><title>Node1</title>
<polygon fill="#bfbfbf" stroke="black" points="62.5,-181 62.5,-211 199.5,-211 199.5,-181 62.5,-181"/>
<text text-anchor="start" x="70.5" y="-199" font-family="Helvetica,sans-Serif" font-size="10.00">include/shad/runtime</text>
<text text-anchor="middle" x="131" y="-188" font-family="Helvetica,sans-Serif" font-size="10.00">/mappings/gmt/gmt_utility.h</text>
</g>
<!-- Node2 -->
<g id="node2" class="node"><title>Node2</title>
<polygon fill="white" stroke="#bfbfbf" points="-0.5,-124.5 -0.5,-143.5 48.5,-143.5 48.5,-124.5 -0.5,-124.5"/>
<text text-anchor="middle" x="24" y="-131.5" font-family="Helvetica,sans-Serif" font-size="10.00">cstddef</text>
</g>
<!-- Node1&#45;&gt;Node2 -->
<g id="edge1" class="edge"><title>Node1&#45;&gt;Node2</title>
<path fill="none" stroke="midnightblue" d="M105.913,-180.933C88.5058,-171.171 65.4449,-158.24 48.2276,-148.586"/>
<polygon fill="midnightblue" stroke="midnightblue" points="49.7709,-145.438 39.3367,-143.6 46.3471,-151.544 49.7709,-145.438"/>
</g>
<!-- Node3 -->
<g id="node3" class="node"><title>Node3</title>
<polygon fill="white" stroke="#bfbfbf" points="74,-62.5 74,-81.5 120,-81.5 120,-62.5 74,-62.5"/>
<text text-anchor="middle" x="97" y="-69.5" font-family="Helvetica,sans-Serif" font-size="10.00">cstdint</text>
</g>
<!-- Node1&#45;&gt;Node3 -->
<g id="edge2" class="edge"><title>Node1&#45;&gt;Node3</title>
<path fill="none" stroke="midnightblue" d="M117.634,-180.656C109.652,-171.073 100.262,-157.744 96,-144 90.6983,-126.905 91.7318,-106.364 93.62,-91.7835"/>
<polygon fill="midnightblue" stroke="midnightblue" points="97.1334,-91.9676 95.2127,-81.5483 90.2166,-90.8912 97.1334,-91.9676"/>
</g>
<!-- Node4 -->
<g id="node4" class="node"><title>Node4</title>
<polygon fill="white" stroke="#bfbfbf" points="105,-124.5 105,-143.5 157,-143.5 157,-124.5 105,-124.5"/>
<text text-anchor="middle" x="131" y="-131.5" font-family="Helvetica,sans-Serif" font-size="10.00">sstream</text>
</g>
<!-- Node1&#45;&gt;Node4 -->
<g id="edge3" class="edge"><title>Node1&#45;&gt;Node4</title>
<path fill="none" stroke="midnightblue" d="M131,-180.781C131,-172.781 131,-162.689 131,-154.017"/>
<polygon fill="midnightblue" stroke="midnightblue" points="134.5,-153.73 131,-143.731 127.5,-153.731 134.5,-153.73"/>
</g>
<!-- Node5 -->
<g id="node5" class="node"><title>Node5</title>
<polygon fill="white" stroke="#bfbfbf" points="175,-124.5 175,-143.5 249,-143.5 249,-124.5 175,-124.5"/>
<text text-anchor="middle" x="212" y="-131.5" font-family="Helvetica,sans-Serif" font-size="10.00">system_error</text>
</g>
<!-- Node1&#45;&gt;Node5 -->
<g id="edge4" class="edge"><title>Node1&#45;&gt;Node5</title>
<path fill="none" stroke="midnightblue" d="M150.196,-180.781C162.816,-171.433 179.293,-159.227 192.061,-149.77"/>
<polygon fill="midnightblue" stroke="midnightblue" points="194.262,-152.495 200.214,-143.731 190.095,-146.87 194.262,-152.495"/>
</g>
<!-- Node6 -->
<g id="node6" class="node"><title>Node6</title>
<g id="a_node6"><a xlink:href="locality_8h.html" target="_top" xlink:title="shad/runtime/locality.h">
<polygon fill="white" stroke="black" points="267.5,-124.5 267.5,-143.5 382.5,-143.5 382.5,-124.5 267.5,-124.5"/>
<text text-anchor="middle" x="325" y="-131.5" font-family="Helvetica,sans-Serif" font-size="10.00">shad/runtime/locality.h</text>
</a>
</g>
</g>
<!-- Node1&#45;&gt;Node6 -->
<g id="edge5" class="edge"><title>Node1&#45;&gt;Node6</title>
<path fill="none" stroke="midnightblue" d="M176.484,-180.933C210.338,-170.462 255.986,-156.345 287.701,-146.536"/>
<polygon fill="midnightblue" stroke="midnightblue" points="288.956,-149.811 297.476,-143.513 286.888,-143.124 288.956,-149.811"/>
</g>
<!-- Node6&#45;&gt;Node3 -->
<g id="edge6" class="edge"><title>Node6&#45;&gt;Node3</title>
<path fill="none" stroke="midnightblue" d="M292.333,-124.403C249.129,-113.034 173.406,-93.1069 130.024,-81.6905"/>
<polygon fill="midnightblue" stroke="midnightblue" points="130.809,-78.278 120.247,-79.1177 129.027,-85.0475 130.809,-78.278"/>
</g>
<!-- Node7 -->
<g id="node7" class="node"><title>Node7</title>
<polygon fill="white" stroke="#bfbfbf" points="200,-62.5 200,-81.5 254,-81.5 254,-62.5 200,-62.5"/>
<text text-anchor="middle" x="227" y="-69.5" font-family="Helvetica,sans-Serif" font-size="10.00">iostream</text>
</g>
<!-- Node6&#45;&gt;Node7 -->
<g id="edge7" class="edge"><title>Node6&#45;&gt;Node7</title>
<path fill="none" stroke="midnightblue" d="M310.959,-124.403C294.949,-114.601 268.55,-98.4385 249.626,-86.8526"/>
<polygon fill="midnightblue" stroke="midnightblue" points="251.371,-83.8172 241.015,-81.5806 247.716,-89.7872 251.371,-83.8172"/>
</g>
<!-- Node8 -->
<g id="node8" class="node"><title>Node8</title>
<polygon fill="white" stroke="#bfbfbf" points="230,-0.5 230,-19.5 334,-19.5 334,-0.5 230,-0.5"/>
<text text-anchor="middle" x="282" y="-7.5" font-family="Helvetica,sans-Serif" font-size="10.00">shad/config/config.h</text>
</g>
<!-- Node6&#45;&gt;Node8 -->
<g id="edge8" class="edge"><title>Node6&#45;&gt;Node8</title>
<path fill="none" stroke="midnightblue" d="M319.545,-124.343C314.177,-115.5 306.069,-101.229 301,-88 293.626,-68.7562 288.38,-45.6941 285.294,-29.8564"/>
<polygon fill="midnightblue" stroke="midnightblue" points="288.687,-28.957 283.429,-19.7588 281.804,-30.2282 288.687,-28.957"/>
</g>
<!-- Node9 -->
<g id="node9" class="node"><title>Node9</title>
<g id="a_node9"><a xlink:href="mapping__traits_8h.html" target="_top" xlink:title="shad/runtime/mapping\l_traits.h">
<polygon fill="white" stroke="black" points="310.5,-57 310.5,-87 423.5,-87 423.5,-57 310.5,-57"/>
<text text-anchor="start" x="318.5" y="-75" font-family="Helvetica,sans-Serif" font-size="10.00">shad/runtime/mapping</text>
<text text-anchor="middle" x="367" y="-64" font-family="Helvetica,sans-Serif" font-size="10.00">_traits.h</text>
</a>
</g>
</g>
<!-- Node6&#45;&gt;Node9 -->
<g id="edge9" class="edge"><title>Node6&#45;&gt;Node9</title>
<path fill="none" stroke="midnightblue" d="M331.018,-124.403C336.281,-116.885 344.163,-105.624 351.21,-95.5565"/>
<polygon fill="midnightblue" stroke="midnightblue" points="354.234,-97.3403 357.101,-87.1408 348.499,-93.326 354.234,-97.3403"/>
</g>
<!-- Node11 -->
<g id="node11" class="node"><title>Node11</title>
<g id="a_node11"><a xlink:href="available__traits__mappings_8h.html" target="_top" xlink:title="shad/runtime/mappings\l/available_traits_mappings.h">
<polygon fill="white" stroke="black" points="442,-57 442,-87 582,-87 582,-57 442,-57"/>
<text text-anchor="start" x="450" y="-75" font-family="Helvetica,sans-Serif" font-size="10.00">shad/runtime/mappings</text>
<text text-anchor="middle" x="512" y="-64" font-family="Helvetica,sans-Serif" font-size="10.00">/available_traits_mappings.h</text>
</a>
</g>
</g>
<!-- Node6&#45;&gt;Node11 -->
<g id="edge12" class="edge"><title>Node6&#45;&gt;Node11</title>
<path fill="none" stroke="midnightblue" d="M351.793,-124.403C379.578,-115.488 423.764,-101.311 458.7,-90.1014"/>
<polygon fill="midnightblue" stroke="midnightblue" points="459.835,-93.4132 468.288,-87.0253 457.697,-86.7479 459.835,-93.4132"/>
</g>
<!-- Node9&#45;&gt;Node8 -->
<g id="edge11" class="edge"><title>Node9&#45;&gt;Node8</title>
<path fill="none" stroke="midnightblue" d="M346.856,-56.7808C333.405,-47.2862 315.778,-34.8434 302.296,-25.3267"/>
<polygon fill="midnightblue" stroke="midnightblue" points="304.309,-22.4632 294.121,-19.5557 300.272,-28.182 304.309,-22.4632"/>
</g>
<!-- Node10 -->
<g id="node10" class="node"><title>Node10</title>
<polygon fill="white" stroke="#bfbfbf" points="352.5,-0.5 352.5,-19.5 393.5,-19.5 393.5,-0.5 352.5,-0.5"/>
<text text-anchor="middle" x="373" y="-7.5" font-family="Helvetica,sans-Serif" font-size="10.00">string</text>
</g>
<!-- Node9&#45;&gt;Node10 -->
<g id="edge10" class="edge"><title>Node9&#45;&gt;Node10</title>
<path fill="none" stroke="midnightblue" d="M368.422,-56.7808C369.231,-48.6913 370.254,-38.4617 371.127,-29.725"/>
<polygon fill="midnightblue" stroke="midnightblue" points="374.614,-30.0292 372.127,-19.7305 367.649,-29.3326 374.614,-30.0292"/>
</g>
</g>
</svg>
