<?xml version="1.0" encoding="UTF-8" standalone="no"?>
<!DOCTYPE svg PUBLIC "-//W3C//DTD SVG 1.1//EN"
 "http://www.w3.org/Graphics/SVG/1.1/DTD/svg11.dtd">
<!-- Generated by graphviz version 2.36.0 (20140111.2315)
 -->
<!-- Title: include/shad/runtime/mappings/gmt/gmt_asynchronous_interface.h Pages: 1 -->
<svg width="1055pt" height="298pt"
 viewBox="0.00 0.00 1055.00 298.00" xmlns="http://www.w3.org/2000/svg" xmlns:xlink="http://www.w3.org/1999/xlink">
<g id="graph0" class="graph" transform="scale(1 1) rotate(0) translate(4 294)">
<title>include/shad/runtime/mappings/gmt/gmt_asynchronous_interface.h</title>
<polygon fill="white" stroke="none" points="-4,4 -4,-294 1051,-294 1051,4 -4,4"/>
<!-- Node1 -->
<g id="node1" class="node"><title>Node1</title>
<polygon fill="#bfbfbf" stroke="black" points="564.5,-248.5 564.5,-289.5 731.5,-289.5 731.5,-248.5 564.5,-248.5"/>
<text text-anchor="start" x="572.5" y="-277.5" font-family="Helvetica,sans-Serif" font-size="10.00">include/shad/runtime</text>
<text text-anchor="start" x="572.5" y="-266.5" font-family="Helvetica,sans-Serif" font-size="10.00">/mappings/gmt/gmt_asynchronous</text>
<text text-anchor="middle" x="648" y="-255.5" font-family="Helvetica,sans-Serif" font-size="10.00">_interface.h</text>
</g>
<!-- Node2 -->
<g id="node2" class="node"><title>Node2</title>
<polygon fill="white" stroke="#bfbfbf" points="46,-186.5 46,-205.5 102,-205.5 102,-186.5 46,-186.5"/>
<text text-anchor="middle" x="74" y="-193.5" font-family="Helvetica,sans-Serif" font-size="10.00">algorithm</text>
</g>
<!-- Node1&#45;&gt;Node2 -->
<g id="edge1" class="edge"><title>Node1&#45;&gt;Node2</title>
<path fill="none" stroke="midnightblue" d="M564.061,-265.327C458.364,-260.56 271.75,-247.475 116,-212 112.31,-211.16 108.498,-210.093 104.746,-208.918"/>
<polygon fill="midnightblue" stroke="midnightblue" points="105.669,-205.535 95.0745,-205.633 103.417,-212.163 105.669,-205.535"/>
</g>
<!-- Node3 -->
<g id="node3" class="node"><title>Node3</title>
<polygon fill="white" stroke="#bfbfbf" points="0,-124.5 0,-143.5 52,-143.5 52,-124.5 0,-124.5"/>
<text text-anchor="middle" x="26" y="-131.5" font-family="Helvetica,sans-Serif" font-size="10.00">memory</text>
</g>
<!-- Node1&#45;&gt;Node3 -->
<g id="edge2" class="edge"><title>Node1&#45;&gt;Node3</title>
<path fill="none" stroke="midnightblue" d="M564.259,-264.07C442.681,-257.435 223.857,-241.733 151,-212 129.598,-203.266 129.37,-192.615 110,-180 91.8055,-168.15 70.1891,-156.623 53.4413,-148.203"/>
<polygon fill="midnightblue" stroke="midnightblue" points="54.7198,-144.93 44.2057,-143.625 51.6109,-151.202 54.7198,-144.93"/>
</g>
<!-- Node4 -->
<g id="node4" class="node"><title>Node4</title>
<polygon fill="white" stroke="#bfbfbf" points="924,-124.5 924,-143.5 968,-143.5 968,-124.5 924,-124.5"/>
<text text-anchor="middle" x="946" y="-131.5" font-family="Helvetica,sans-Serif" font-size="10.00">mutex</text>
</g>
<!-- Node1&#45;&gt;Node4 -->
<g id="edge3" class="edge"><title>Node1&#45;&gt;Node4</title>
<path fill="none" stroke="midnightblue" d="M731.666,-255.355C772.12,-246.929 820.372,-233.354 860,-212 889.11,-196.314 916.421,-168.861 932.16,-151.325"/>
<polygon fill="midnightblue" stroke="midnightblue" points="934.961,-153.439 938.914,-143.609 929.694,-148.829 934.961,-153.439"/>
</g>
<!-- Node5 -->
<g id="node5" class="node"><title>Node5</title>
<polygon fill="white" stroke="#bfbfbf" points="946,-186.5 946,-205.5 976,-205.5 976,-186.5 946,-186.5"/>
<text text-anchor="middle" x="961" y="-193.5" font-family="Helvetica,sans-Serif" font-size="10.00">set</text>
</g>
<!-- Node1&#45;&gt;Node5 -->
<g id="edge4" class="edge"><title>Node1&#45;&gt;Node5</title>
<path fill="none" stroke="midnightblue" d="M731.661,-257.85C789.115,-249.354 866.527,-234.867 932,-212 933.656,-211.422 935.335,-210.764 937.007,-210.055"/>
<polygon fill="midnightblue" stroke="midnightblue" points="938.788,-213.083 946.308,-205.62 935.775,-206.765 938.788,-213.083"/>
</g>
<!-- Node6 -->
<g id="node6" class="node"><title>Node6</title>
<polygon fill="white" stroke="#bfbfbf" points="994,-186.5 994,-205.5 1034,-205.5 1034,-186.5 994,-186.5"/>
<text text-anchor="middle" x="1014" y="-193.5" font-family="Helvetica,sans-Serif" font-size="10.00">utility</text>
</g>
<!-- Node1&#45;&gt;Node6 -->
<g id="edge5" class="edge"><title>Node1&#45;&gt;Node6</title>
<path fill="none" stroke="midnightblue" d="M731.806,-261.036C800.799,-253.652 900.485,-239.158 984,-212 985.91,-211.379 987.851,-210.652 989.778,-209.861"/>
<polygon fill="midnightblue" stroke="midnightblue" points="991.507,-212.918 999.111,-205.541 988.566,-206.565 991.507,-212.918"/>
</g>
<!-- Node7 -->
<g id="node7" class="node"><title>Node7</title>
<polygon fill="white" stroke="#bfbfbf" points="986.5,-124.5 986.5,-143.5 1047.5,-143.5 1047.5,-124.5 986.5,-124.5"/>
<text text-anchor="middle" x="1017" y="-131.5" font-family="Helvetica,sans-Serif" font-size="10.00">gmt/gmt.h</text>
</g>
<!-- Node1&#45;&gt;Node7 -->
<g id="edge6" class="edge"><title>Node1&#45;&gt;Node7</title>
<path fill="none" stroke="midnightblue" d="M731.538,-258.146C780.809,-250.147 843.41,-236.1 895,-212 916.262,-202.068 917.393,-192.895 937,-180 954.421,-168.543 974.932,-157.042 990.824,-148.535"/>
<polygon fill="midnightblue" stroke="midnightblue" points="992.851,-151.423 1000.05,-143.653 989.577,-145.235 992.851,-151.423"/>
</g>
<!-- Node8 -->
<g id="node8" class="node"><title>Node8</title>
<g id="a_node8"><a xlink:href="asynchronous__interface_8h.html" target="_top" xlink:title="shad/runtime/asynchronous\l_interface.h">
<polygon fill="white" stroke="black" points="196.5,-181 196.5,-211 333.5,-211 333.5,-181 196.5,-181"/>
<text text-anchor="start" x="204.5" y="-199" font-family="Helvetica,sans-Serif" font-size="10.00">shad/runtime/asynchronous</text>
<text text-anchor="middle" x="265" y="-188" font-family="Helvetica,sans-Serif" font-size="10.00">_interface.h</text>
</a>
</g>
</g>
<!-- Node1&#45;&gt;Node8 -->
<g id="edge7" class="edge"><title>Node1&#45;&gt;Node8</title>
<path fill="none" stroke="midnightblue" d="M564.422,-252.506C498.819,-240.345 408.126,-223.533 343.787,-211.605"/>
<polygon fill="midnightblue" stroke="midnightblue" points="344.166,-208.116 333.695,-209.735 342.89,-214.999 344.166,-208.116"/>
</g>
<!-- Node11 -->
<g id="node11" class="node"><title>Node11</title>
<g id="a_node11"><a xlink:href="handle_8h.html" target="_top" xlink:title="shad/runtime/handle.h">
<polygon fill="white" stroke="black" points="70.5,-124.5 70.5,-143.5 183.5,-143.5 183.5,-124.5 70.5,-124.5"/>
<text text-anchor="middle" x="127" y="-131.5" font-family="Helvetica,sans-Serif" font-size="10.00">shad/runtime/handle.h</text>
</a>
</g>
</g>
<!-- Node1&#45;&gt;Node11 -->
<g id="edge23" class="edge"><title>Node1&#45;&gt;Node11</title>
<path fill="none" stroke="midnightblue" d="M564.051,-265.453C449.048,-260.679 249.628,-247.433 187,-212 162.856,-198.34 145.057,-170.668 135.36,-152.487"/>
<polygon fill="midnightblue" stroke="midnightblue" points="138.457,-150.854 130.818,-143.513 132.211,-154.016 138.457,-150.854"/>
</g>
<!-- Node14 -->
<g id="node14" class="node"><title>Node14</title>
<g id="a_node14"><a xlink:href="mapping__traits_8h.html" target="_top" xlink:title="shad/runtime/mapping\l_traits.h">
<polygon fill="white" stroke="black" points="536.5,-57 536.5,-87 649.5,-87 649.5,-57 536.5,-57"/>
<text text-anchor="start" x="544.5" y="-75" font-family="Helvetica,sans-Serif" font-size="10.00">shad/runtime/mapping</text>
<text text-anchor="middle" x="593" y="-64" font-family="Helvetica,sans-Serif" font-size="10.00">_traits.h</text>
</a>
</g>
</g>
<!-- Node1&#45;&gt;Node14 -->
<g id="edge25" class="edge"><title>Node1&#45;&gt;Node14</title>
<path fill="none" stroke="midnightblue" d="M649.325,-248.074C650.484,-219.493 649.874,-165.708 633,-124 628.714,-113.407 621.535,-103.194 614.432,-94.7249"/>
<polygon fill="midnightblue" stroke="midnightblue" points="616.997,-92.3421 607.742,-87.1847 611.76,-96.9878 616.997,-92.3421"/>
</g>
<!-- Node17 -->
<g id="node17" class="node"><title>Node17</title>
<g id="a_node17"><a xlink:href="locality_8h.html" target="_top" xlink:title="shad/runtime/locality.h">
<polygon fill="white" stroke="black" points="416.5,-124.5 416.5,-143.5 531.5,-143.5 531.5,-124.5 416.5,-124.5"/>
<text text-anchor="middle" x="474" y="-131.5" font-family="Helvetica,sans-Serif" font-size="10.00">shad/runtime/locality.h</text>
</a>
</g>
</g>
<!-- Node1&#45;&gt;Node17 -->
<g id="edge24" class="edge"><title>Node1&#45;&gt;Node17</title>
<path fill="none" stroke="midnightblue" d="M622.326,-248.375C587.244,-221.56 525.092,-174.053 493.544,-149.939"/>
<polygon fill="midnightblue" stroke="midnightblue" points="495.575,-147.086 485.505,-143.794 491.324,-152.648 495.575,-147.086"/>
</g>
<!-- Node18 -->
<g id="node18" class="node"><title>Node18</title>
<g id="a_node18"><a xlink:href="gmt__traits__mapping_8h.html" target="_top" xlink:title="shad/runtime/mappings\l/gmt/gmt_traits_mapping.h">
<polygon fill="white" stroke="black" points="718.5,-181 718.5,-211 851.5,-211 851.5,-181 718.5,-181"/>
<text text-anchor="start" x="726.5" y="-199" font-family="Helvetica,sans-Serif" font-size="10.00">shad/runtime/mappings</text>
<text text-anchor="middle" x="785" y="-188" font-family="Helvetica,sans-Serif" font-size="10.00">/gmt/gmt_traits_mapping.h</text>
</a>
</g>
</g>
<!-- Node1&#45;&gt;Node18 -->
<g id="edge26" class="edge"><title>Node1&#45;&gt;Node18</title>
<path fill="none" stroke="midnightblue" d="M685.799,-248.411C705.401,-238.252 729.233,-225.901 748.624,-215.852"/>
<polygon fill="midnightblue" stroke="midnightblue" points="750.481,-218.832 757.749,-211.123 747.26,-212.617 750.481,-218.832"/>
</g>
<!-- Node21 -->
<g id="node21" class="node"><title>Node21</title>
<g id="a_node21"><a xlink:href="gmt__utility_8h.html" target="_top" xlink:title="shad/runtime/mappings\l/gmt/gmt_utility.h">
<polygon fill="white" stroke="black" points="383,-181 383,-211 501,-211 501,-181 383,-181"/>
<text text-anchor="start" x="391" y="-199" font-family="Helvetica,sans-Serif" font-size="10.00">shad/runtime/mappings</text>
<text text-anchor="middle" x="442" y="-188" font-family="Helvetica,sans-Serif" font-size="10.00">/gmt/gmt_utility.h</text>
</a>
</g>
</g>
<!-- Node1&#45;&gt;Node21 -->
<g id="edge34" class="edge"><title>Node1&#45;&gt;Node21</title>
<path fill="none" stroke="midnightblue" d="M591.164,-248.411C560.242,-237.753 522.322,-224.684 492.453,-214.389"/>
<polygon fill="midnightblue" stroke="midnightblue" points="493.249,-210.961 482.654,-211.012 490.968,-217.579 493.249,-210.961"/>
</g>
<!-- Node8&#45;&gt;Node3 -->
<g id="edge10" class="edge"><title>Node8&#45;&gt;Node3</title>
<path fill="none" stroke="midnightblue" d="M208.255,-180.922C169.63,-171.315 117.079,-158.195 62.2639,-144.309"/>
<polygon fill="midnightblue" stroke="midnightblue" points="62.9219,-140.866 52.3684,-141.801 61.2016,-147.651 62.9219,-140.866"/>
</g>
<!-- Node9 -->
<g id="node9" class="node"><title>Node9</title>
<polygon fill="white" stroke="#bfbfbf" points="240.5,-124.5 240.5,-143.5 289.5,-143.5 289.5,-124.5 240.5,-124.5"/>
<text text-anchor="middle" x="265" y="-131.5" font-family="Helvetica,sans-Serif" font-size="10.00">cstddef</text>
</g>
<!-- Node8&#45;&gt;Node9 -->
<g id="edge8" class="edge"><title>Node8&#45;&gt;Node9</title>
<path fill="none" stroke="midnightblue" d="M265,-180.781C265,-172.781 265,-162.689 265,-154.017"/>
<polygon fill="midnightblue" stroke="midnightblue" points="268.5,-153.73 265,-143.731 261.5,-153.731 268.5,-153.73"/>
</g>
<!-- Node10 -->
<g id="node10" class="node"><title>Node10</title>
<polygon fill="white" stroke="#bfbfbf" points="397,-62.5 397,-81.5 443,-81.5 443,-62.5 397,-62.5"/>
<text text-anchor="middle" x="420" y="-69.5" font-family="Helvetica,sans-Serif" font-size="10.00">cstdint</text>
</g>
<!-- Node8&#45;&gt;Node10 -->
<g id="edge9" class="edge"><title>Node8&#45;&gt;Node10</title>
<path fill="none" stroke="midnightblue" d="M249.581,-180.882C234.933,-165.753 217.059,-141.55 231,-124 274.989,-68.6229 318.909,-110.371 386,-88 388.272,-87.2423 390.6,-86.389 392.921,-85.4836"/>
<polygon fill="midnightblue" stroke="midnightblue" points="394.375,-88.6692 402.249,-81.5809 391.673,-82.2116 394.375,-88.6692"/>
</g>
<!-- Node8&#45;&gt;Node11 -->
<g id="edge11" class="edge"><title>Node8&#45;&gt;Node11</title>
<path fill="none" stroke="midnightblue" d="M232.645,-180.933C209.467,-170.855 178.517,-157.399 156.112,-147.657"/>
<polygon fill="midnightblue" stroke="midnightblue" points="157.346,-144.378 146.78,-143.6 154.555,-150.797 157.346,-144.378"/>
</g>
<!-- Node8&#45;&gt;Node17 -->
<g id="edge18" class="edge"><title>Node8&#45;&gt;Node17</title>
<path fill="none" stroke="midnightblue" d="M314.001,-180.933C350.788,-170.372 400.502,-156.1 434.701,-146.282"/>
<polygon fill="midnightblue" stroke="midnightblue" points="435.701,-149.636 444.347,-143.513 433.77,-142.908 435.701,-149.636"/>
</g>
<!-- Node12 -->
<g id="node12" class="node"><title>Node12</title>
<polygon fill="white" stroke="#bfbfbf" points="155,-62.5 155,-81.5 217,-81.5 217,-62.5 155,-62.5"/>
<text text-anchor="middle" x="186" y="-69.5" font-family="Helvetica,sans-Serif" font-size="10.00">type_traits</text>
</g>
<!-- Node11&#45;&gt;Node12 -->
<g id="edge12" class="edge"><title>Node11&#45;&gt;Node12</title>
<path fill="none" stroke="midnightblue" d="M135.453,-124.403C144.566,-115.136 159.27,-100.183 170.476,-88.7876"/>
<polygon fill="midnightblue" stroke="midnightblue" points="173.047,-91.1649 177.562,-81.5806 168.055,-86.2569 173.047,-91.1649"/>
</g>
<!-- Node13 -->
<g id="node13" class="node"><title>Node13</title>
<polygon fill="white" stroke="#bfbfbf" points="422,-0.5 422,-19.5 526,-19.5 526,-0.5 422,-0.5"/>
<text text-anchor="middle" x="474" y="-7.5" font-family="Helvetica,sans-Serif" font-size="10.00">shad/config/config.h</text>
</g>
<!-- Node11&#45;&gt;Node13 -->
<g id="edge13" class="edge"><title>Node11&#45;&gt;Node13</title>
<path fill="none" stroke="midnightblue" d="M126.284,-124.284C125.486,-108.153 126.346,-73.6811 146,-56 183.995,-21.8189 327.48,-13.4114 411.561,-11.4639"/>
<polygon fill="midnightblue" stroke="midnightblue" points="411.834,-14.9591 421.76,-11.2525 411.689,-7.9606 411.834,-14.9591"/>
</g>
<!-- Node11&#45;&gt;Node14 -->
<g id="edge14" class="edge"><title>Node11&#45;&gt;Node14</title>
<path fill="none" stroke="midnightblue" d="M183.675,-125.703C270.062,-114.58 434.324,-93.4303 526.322,-81.5852"/>
<polygon fill="midnightblue" stroke="midnightblue" points="526.884,-85.0417 536.356,-80.2933 525.99,-78.099 526.884,-85.0417"/>
</g>
<!-- Node16 -->
<g id="node16" class="node"><title>Node16</title>
<g id="a_node16"><a xlink:href="available__traits__mappings_8h.html" target="_top" xlink:title="shad/runtime/mappings\l/available_traits_mappings.h">
<polygon fill="white" stroke="black" points="237,-57 237,-87 377,-87 377,-57 237,-57"/>
<text text-anchor="start" x="245" y="-75" font-family="Helvetica,sans-Serif" font-size="10.00">shad/runtime/mappings</text>
<text text-anchor="middle" x="307" y="-64" font-family="Helvetica,sans-Serif" font-size="10.00">/available_traits_mappings.h</text>
</a>
</g>
</g>
<!-- Node11&#45;&gt;Node16 -->
<g id="edge17" class="edge"><title>Node11&#45;&gt;Node16</title>
<path fill="none" stroke="midnightblue" d="M152.79,-124.403C179.421,-115.526 221.704,-101.432 255.264,-90.2453"/>
<polygon fill="midnightblue" stroke="midnightblue" points="256.544,-93.5081 264.924,-87.0253 254.33,-86.8673 256.544,-93.5081"/>
</g>
<!-- Node14&#45;&gt;Node13 -->
<g id="edge16" class="edge"><title>Node14&#45;&gt;Node13</title>
<path fill="none" stroke="midnightblue" d="M565.1,-56.9327C545.471,-47.0359 519.379,-33.8803 500.151,-24.1852"/>
<polygon fill="midnightblue" stroke="midnightblue" points="501.562,-20.977 491.057,-19.6 498.41,-27.2274 501.562,-20.977"/>
</g>
<!-- Node15 -->
<g id="node15" class="node"><title>Node15</title>
<polygon fill="white" stroke="#bfbfbf" points="606.5,-0.5 606.5,-19.5 647.5,-19.5 647.5,-0.5 606.5,-0.5"/>
<text text-anchor="middle" x="627" y="-7.5" font-family="Helvetica,sans-Serif" font-size="10.00">string</text>
</g>
<!-- Node14&#45;&gt;Node15 -->
<g id="edge15" class="edge"><title>Node14&#45;&gt;Node15</title>
<path fill="none" stroke="midnightblue" d="M601.058,-56.7808C605.845,-48.3318 611.956,-37.5481 617.044,-28.5693"/>
<polygon fill="midnightblue" stroke="midnightblue" points="620.168,-30.1563 622.053,-19.7305 614.077,-26.7052 620.168,-30.1563"/>
</g>
<!-- Node17&#45;&gt;Node10 -->
<g id="edge19" class="edge"><title>Node17&#45;&gt;Node10</title>
<path fill="none" stroke="midnightblue" d="M466.263,-124.403C458.003,-115.225 444.723,-100.47 434.506,-89.1173"/>
<polygon fill="midnightblue" stroke="midnightblue" points="437.014,-86.6722 427.723,-81.5806 431.811,-91.3549 437.014,-86.6722"/>
</g>
<!-- Node17&#45;&gt;Node13 -->
<g id="edge20" class="edge"><title>Node17&#45;&gt;Node13</title>
<path fill="none" stroke="midnightblue" d="M474,-124.226C474,-104.53 474,-56.4371 474,-29.7004"/>
<polygon fill="midnightblue" stroke="midnightblue" points="477.5,-29.6944 474,-19.6944 470.5,-29.6945 477.5,-29.6944"/>
</g>
<!-- Node17&#45;&gt;Node14 -->
<g id="edge21" class="edge"><title>Node17&#45;&gt;Node14</title>
<path fill="none" stroke="midnightblue" d="M491.05,-124.403C507.92,-115.898 534.29,-102.602 555.984,-91.6635"/>
<polygon fill="midnightblue" stroke="midnightblue" points="557.601,-94.7682 564.954,-87.1408 554.449,-88.5178 557.601,-94.7682"/>
</g>
<!-- Node17&#45;&gt;Node16 -->
<g id="edge22" class="edge"><title>Node17&#45;&gt;Node16</title>
<path fill="none" stroke="midnightblue" d="M450.073,-124.403C425.577,-115.603 386.808,-101.674 355.803,-90.534"/>
<polygon fill="midnightblue" stroke="midnightblue" points="356.632,-87.1127 346.037,-87.0253 354.265,-93.7004 356.632,-87.1127"/>
</g>
<!-- Node18&#45;&gt;Node4 -->
<g id="edge30" class="edge"><title>Node18&#45;&gt;Node4</title>
<path fill="none" stroke="midnightblue" d="M822.747,-180.933C850.603,-170.552 888.081,-156.585 914.371,-146.787"/>
<polygon fill="midnightblue" stroke="midnightblue" points="915.707,-150.025 923.855,-143.253 913.262,-143.465 915.707,-150.025"/>
</g>
<!-- Node18&#45;&gt;Node7 -->
<g id="edge32" class="edge"><title>Node18&#45;&gt;Node7</title>
<path fill="none" stroke="midnightblue" d="M839.394,-180.933C881.44,-170.059 938.7,-155.25 976.708,-145.42"/>
<polygon fill="midnightblue" stroke="midnightblue" points="977.606,-148.803 986.411,-142.911 975.853,-142.026 977.606,-148.803"/>
</g>
<!-- Node18&#45;&gt;Node10 -->
<g id="edge27" class="edge"><title>Node18&#45;&gt;Node10</title>
<path fill="none" stroke="midnightblue" d="M759.043,-180.897C729.309,-165.214 678.783,-139.989 633,-124 570.95,-102.329 495.586,-86.6721 453.176,-78.7873"/>
<polygon fill="midnightblue" stroke="midnightblue" points="453.599,-75.3065 443.132,-76.9512 452.34,-82.1924 453.599,-75.3065"/>
</g>
<!-- Node18&#45;&gt;Node14 -->
<g id="edge33" class="edge"><title>Node18&#45;&gt;Node14</title>
<path fill="none" stroke="midnightblue" d="M771.386,-180.827C756.055,-165.428 729.89,-140.785 704,-124 684.029,-111.052 660.236,-99.6557 639.81,-90.9383"/>
<polygon fill="midnightblue" stroke="midnightblue" points="640.964,-87.6272 630.387,-87.0026 638.266,-94.0864 640.964,-87.6272"/>
</g>
<!-- Node18&#45;&gt;Node15 -->
<g id="edge31" class="edge"><title>Node18&#45;&gt;Node15</title>
<path fill="none" stroke="midnightblue" d="M829.58,-180.899C860.361,-168.63 893.083,-148.919 877,-124 827.724,-47.6507 713.047,-22.3403 657.815,-14.3994"/>
<polygon fill="midnightblue" stroke="midnightblue" points="657.974,-10.8895 647.599,-13.0328 657.046,-17.8278 657.974,-10.8895"/>
</g>
<!-- Node19 -->
<g id="node19" class="node"><title>Node19</title>
<polygon fill="white" stroke="#bfbfbf" points="756,-124.5 756,-143.5 810,-143.5 810,-124.5 756,-124.5"/>
<text text-anchor="middle" x="783" y="-131.5" font-family="Helvetica,sans-Serif" font-size="10.00">iostream</text>
</g>
<!-- Node18&#45;&gt;Node19 -->
<g id="edge28" class="edge"><title>Node18&#45;&gt;Node19</title>
<path fill="none" stroke="midnightblue" d="M784.526,-180.781C784.256,-172.691 783.915,-162.462 783.624,-153.725"/>
<polygon fill="midnightblue" stroke="midnightblue" points="787.122,-153.608 783.291,-143.731 780.126,-153.842 787.122,-153.608"/>
</g>
<!-- Node20 -->
<g id="node20" class="node"><title>Node20</title>
<polygon fill="white" stroke="#bfbfbf" points="828,-124.5 828,-143.5 868,-143.5 868,-124.5 828,-124.5"/>
<text text-anchor="middle" x="848" y="-131.5" font-family="Helvetica,sans-Serif" font-size="10.00">limits</text>
</g>
<!-- Node18&#45;&gt;Node20 -->
<g id="edge29" class="edge"><title>Node18&#45;&gt;Node20</title>
<path fill="none" stroke="midnightblue" d="M799.93,-180.781C809.368,-171.792 821.58,-160.162 831.333,-150.873"/>
<polygon fill="midnightblue" stroke="midnightblue" points="834.005,-153.162 838.833,-143.731 829.178,-148.093 834.005,-153.162"/>
</g>
<!-- Node21&#45;&gt;Node9 -->
<g id="edge35" class="edge"><title>Node21&#45;&gt;Node9</title>
<path fill="none" stroke="midnightblue" d="M400.501,-180.933C369.699,-170.491 328.195,-156.422 299.269,-146.617"/>
<polygon fill="midnightblue" stroke="midnightblue" points="300.195,-143.235 289.6,-143.339 297.947,-149.864 300.195,-143.235"/>
</g>
<!-- Node21&#45;&gt;Node10 -->
<g id="edge36" class="edge"><title>Node21&#45;&gt;Node10</title>
<path fill="none" stroke="midnightblue" d="M385.907,-180.971C367.051,-173.291 348.022,-161.607 337,-144 332.283,-136.466 332.661,-131.758 337,-124 343.22,-112.878 370.879,-97.1769 392.581,-86.1424"/>
<polygon fill="midnightblue" stroke="midnightblue" points="394.346,-89.1733 401.735,-81.5802 391.224,-82.9082 394.346,-89.1733"/>
</g>
<!-- Node21&#45;&gt;Node17 -->
<g id="edge39" class="edge"><title>Node21&#45;&gt;Node17</title>
<path fill="none" stroke="midnightblue" d="M449.584,-180.781C454.09,-172.332 459.841,-161.548 464.63,-152.569"/>
<polygon fill="midnightblue" stroke="midnightblue" points="467.726,-154.201 469.344,-143.731 461.55,-150.907 467.726,-154.201"/>
</g>
<!-- Node22 -->
<g id="node22" class="node"><title>Node22</title>
<polygon fill="white" stroke="#bfbfbf" points="346,-124.5 346,-143.5 398,-143.5 398,-124.5 346,-124.5"/>
<text text-anchor="middle" x="372" y="-131.5" font-family="Helvetica,sans-Serif" font-size="10.00">sstream</text>
</g>
<!-- Node21&#45;&gt;Node22 -->
<g id="edge37" class="edge"><title>Node21&#45;&gt;Node22</title>
<path fill="none" stroke="midnightblue" d="M425.411,-180.781C414.715,-171.613 400.812,-159.696 389.872,-150.319"/>
<polygon fill="midnightblue" stroke="midnightblue" points="392.056,-147.581 382.186,-143.731 387.5,-152.896 392.056,-147.581"/>
</g>
<!-- Node23 -->
<g id="node23" class="node"><title>Node23</title>
<polygon fill="white" stroke="#bfbfbf" points="550,-124.5 550,-143.5 624,-143.5 624,-124.5 550,-124.5"/>
<text text-anchor="middle" x="587" y="-131.5" font-family="Helvetica,sans-Serif" font-size="10.00">system_error</text>
</g>
<!-- Node21&#45;&gt;Node23 -->
<g id="edge38" class="edge"><title>Node21&#45;&gt;Node23</title>
<path fill="none" stroke="midnightblue" d="M475.996,-180.933C500.459,-170.81 533.162,-157.278 556.727,-147.527"/>
<polygon fill="midnightblue" stroke="midnightblue" points="558.315,-150.658 566.217,-143.6 555.638,-144.19 558.315,-150.658"/>
</g>
</g>
</svg>
