<?xml version="1.0" encoding="UTF-8" standalone="no"?>
<!DOCTYPE svg PUBLIC "-//W3C//DTD SVG 1.1//EN"
 "http://www.w3.org/Graphics/SVG/1.1/DTD/svg11.dtd">
<!-- Generated by graphviz version 2.36.0 (20140111.2315)
 -->
<!-- Title: include/shad/runtime/mappings/gmt/gmt_synchronous_interface.h Pages: 1 -->
<svg width="1009pt" height="310pt"
 viewBox="0.00 0.00 1009.00 310.00" xmlns="http://www.w3.org/2000/svg" xmlns:xlink="http://www.w3.org/1999/xlink">
<g id="graph0" class="graph" transform="scale(1 1) rotate(0) translate(4 306)">
<title>include/shad/runtime/mappings/gmt/gmt_synchronous_interface.h</title>
<polygon fill="white" stroke="none" points="-4,4 -4,-306 1005,-306 1005,4 -4,4"/>
<!-- Node1 -->
<g id="node1" class="node"><title>Node1</title>
<polygon fill="#bfbfbf" stroke="black" points="253.5,-260.5 253.5,-301.5 414.5,-301.5 414.5,-260.5 253.5,-260.5"/>
<text text-anchor="start" x="261.5" y="-289.5" font-family="Helvetica,sans-Serif" font-size="10.00">include/shad/runtime</text>
<text text-anchor="start" x="261.5" y="-278.5" font-family="Helvetica,sans-Serif" font-size="10.00">/mappings/gmt/gmt_synchronous</text>
<text text-anchor="middle" x="334" y="-267.5" font-family="Helvetica,sans-Serif" font-size="10.00">_interface.h</text>
</g>
<!-- Node2 -->
<g id="node2" class="node"><title>Node2</title>
<polygon fill="white" stroke="#bfbfbf" points="0,-198.5 0,-217.5 56,-217.5 56,-198.5 0,-198.5"/>
<text text-anchor="middle" x="28" y="-205.5" font-family="Helvetica,sans-Serif" font-size="10.00">algorithm</text>
</g>
<!-- Node1&#45;&gt;Node2 -->
<g id="edge1" class="edge"><title>Node1&#45;&gt;Node2</title>
<path fill="none" stroke="midnightblue" d="M253.312,-265.792C200.686,-255.814 130.745,-241.206 70,-224 66.6197,-223.043 63.1182,-221.953 59.6447,-220.809"/>
<polygon fill="midnightblue" stroke="midnightblue" points="60.6481,-217.453 50.0534,-217.502 58.3665,-224.07 60.6481,-217.453"/>
</g>
<!-- Node3 -->
<g id="node3" class="node"><title>Node3</title>
<polygon fill="white" stroke="#bfbfbf" points="312.5,-130.5 312.5,-149.5 361.5,-149.5 361.5,-130.5 312.5,-130.5"/>
<text text-anchor="middle" x="337" y="-137.5" font-family="Helvetica,sans-Serif" font-size="10.00">cstddef</text>
</g>
<!-- Node1&#45;&gt;Node3 -->
<g id="edge2" class="edge"><title>Node1&#45;&gt;Node3</title>
<path fill="none" stroke="midnightblue" d="M334.423,-260.38C335,-233.652 336.026,-186.124 336.594,-159.82"/>
<polygon fill="midnightblue" stroke="midnightblue" points="340.096,-159.746 336.813,-149.673 333.098,-159.595 340.096,-159.746"/>
</g>
<!-- Node4 -->
<g id="node4" class="node"><title>Node4</title>
<polygon fill="white" stroke="#bfbfbf" points="317,-62.5 317,-81.5 363,-81.5 363,-62.5 317,-62.5"/>
<text text-anchor="middle" x="340" y="-69.5" font-family="Helvetica,sans-Serif" font-size="10.00">cstdint</text>
</g>
<!-- Node1&#45;&gt;Node4 -->
<g id="edge3" class="edge"><title>Node1&#45;&gt;Node4</title>
<path fill="none" stroke="midnightblue" d="M253.279,-268.722C218.01,-260.709 177.767,-247.086 147,-224 108.161,-194.857 72.49,-161.774 103,-124 128.207,-92.7915 247.296,-79.7819 306.467,-75.173"/>
<polygon fill="midnightblue" stroke="midnightblue" points="307.068,-78.6381 316.782,-74.4077 306.55,-71.6573 307.068,-78.6381"/>
</g>
<!-- Node5 -->
<g id="node5" class="node"><title>Node5</title>
<polygon fill="white" stroke="#bfbfbf" points="380,-130.5 380,-149.5 432,-149.5 432,-130.5 380,-130.5"/>
<text text-anchor="middle" x="406" y="-137.5" font-family="Helvetica,sans-Serif" font-size="10.00">memory</text>
</g>
<!-- Node1&#45;&gt;Node5 -->
<g id="edge4" class="edge"><title>Node1&#45;&gt;Node5</title>
<path fill="none" stroke="midnightblue" d="M374.951,-260.419C389.029,-251.433 403.199,-239.319 411,-224 421.361,-203.653 417.01,-176.764 412.172,-159.184"/>
<polygon fill="midnightblue" stroke="midnightblue" points="415.505,-158.115 409.223,-149.583 408.813,-160.17 415.505,-158.115"/>
</g>
<!-- Node6 -->
<g id="node6" class="node"><title>Node6</title>
<polygon fill="white" stroke="#bfbfbf" points="112,-130.5 112,-149.5 164,-149.5 164,-130.5 112,-130.5"/>
<text text-anchor="middle" x="138" y="-137.5" font-family="Helvetica,sans-Serif" font-size="10.00">sstream</text>
</g>
<!-- Node1&#45;&gt;Node6 -->
<g id="edge5" class="edge"><title>Node1&#45;&gt;Node6</title>
<path fill="none" stroke="midnightblue" d="M253.48,-267.275C224.148,-259.127 192.66,-245.795 170,-224 152.033,-206.72 144.002,-178.233 140.519,-159.542"/>
<polygon fill="midnightblue" stroke="midnightblue" points="143.963,-158.911 138.922,-149.592 137.051,-160.021 143.963,-158.911"/>
</g>
<!-- Node7 -->
<g id="node7" class="node"><title>Node7</title>
<polygon fill="white" stroke="#bfbfbf" points="182,-130.5 182,-149.5 256,-149.5 256,-130.5 182,-130.5"/>
<text text-anchor="middle" x="219" y="-137.5" font-family="Helvetica,sans-Serif" font-size="10.00">system_error</text>
</g>
<!-- Node1&#45;&gt;Node7 -->
<g id="edge6" class="edge"><title>Node1&#45;&gt;Node7</title>
<path fill="none" stroke="midnightblue" d="M253.446,-270.088C225.16,-262.296 196.179,-248.472 179,-224 163.858,-202.429 184.777,-174.243 201.61,-156.892"/>
<polygon fill="midnightblue" stroke="midnightblue" points="204.214,-159.241 208.913,-149.746 199.318,-154.238 204.214,-159.241"/>
</g>
<!-- Node8 -->
<g id="node8" class="node"><title>Node8</title>
<polygon fill="white" stroke="#bfbfbf" points="362,-198.5 362,-217.5 402,-217.5 402,-198.5 362,-198.5"/>
<text text-anchor="middle" x="382" y="-205.5" font-family="Helvetica,sans-Serif" font-size="10.00">utility</text>
</g>
<!-- Node1&#45;&gt;Node8 -->
<g id="edge7" class="edge"><title>Node1&#45;&gt;Node8</title>
<path fill="none" stroke="midnightblue" d="M347.371,-260.223C354.592,-249.541 363.422,-236.481 370.358,-226.221"/>
<polygon fill="midnightblue" stroke="midnightblue" points="373.393,-227.98 376.095,-217.735 367.594,-224.059 373.393,-227.98"/>
</g>
<!-- Node9 -->
<g id="node9" class="node"><title>Node9</title>
<g id="a_node9"><a xlink:href="locality_8h.html" target="_top" xlink:title="shad/runtime/locality.h">
<polygon fill="white" stroke="black" points="488.5,-130.5 488.5,-149.5 603.5,-149.5 603.5,-130.5 488.5,-130.5"/>
<text text-anchor="middle" x="546" y="-137.5" font-family="Helvetica,sans-Serif" font-size="10.00">shad/runtime/locality.h</text>
</a>
</g>
</g>
<!-- Node1&#45;&gt;Node9 -->
<g id="edge8" class="edge"><title>Node1&#45;&gt;Node9</title>
<path fill="none" stroke="midnightblue" d="M414.514,-273.869C483.48,-266.745 575.18,-252.169 598,-224 615.954,-201.838 588.057,-173.086 566.685,-155.893"/>
<polygon fill="midnightblue" stroke="midnightblue" points="568.701,-153.028 558.642,-149.7 564.43,-158.574 568.701,-153.028"/>
</g>
<!-- Node14 -->
<g id="node14" class="node"><title>Node14</title>
<g id="a_node14"><a xlink:href="gmt__traits__mapping_8h.html" target="_top" xlink:title="shad/runtime/mappings\l/gmt/gmt_traits_mapping.h">
<polygon fill="white" stroke="black" points="703.5,-125 703.5,-155 836.5,-155 836.5,-125 703.5,-125"/>
<text text-anchor="start" x="711.5" y="-143" font-family="Helvetica,sans-Serif" font-size="10.00">shad/runtime/mappings</text>
<text text-anchor="middle" x="770" y="-132" font-family="Helvetica,sans-Serif" font-size="10.00">/gmt/gmt_traits_mapping.h</text>
</a>
</g>
</g>
<!-- Node1&#45;&gt;Node14 -->
<g id="edge15" class="edge"><title>Node1&#45;&gt;Node14</title>
<path fill="none" stroke="midnightblue" d="M414.723,-270.22C471.585,-261.807 548.877,-247.269 614,-224 659.948,-207.582 709.016,-179.528 739.593,-160.633"/>
<polygon fill="midnightblue" stroke="midnightblue" points="741.841,-163.355 748.465,-155.086 738.13,-157.42 741.841,-163.355"/>
</g>
<!-- Node19 -->
<g id="node19" class="node"><title>Node19</title>
<g id="a_node19"><a xlink:href="gmt__utility_8h.html" target="_top" xlink:title="shad/runtime/mappings\l/gmt/gmt_utility.h">
<polygon fill="white" stroke="black" points="188,-193 188,-223 306,-223 306,-193 188,-193"/>
<text text-anchor="start" x="196" y="-211" font-family="Helvetica,sans-Serif" font-size="10.00">shad/runtime/mappings</text>
<text text-anchor="middle" x="247" y="-200" font-family="Helvetica,sans-Serif" font-size="10.00">/gmt/gmt_utility.h</text>
</a>
</g>
</g>
<!-- Node1&#45;&gt;Node19 -->
<g id="edge23" class="edge"><title>Node1&#45;&gt;Node19</title>
<path fill="none" stroke="midnightblue" d="M309.766,-260.223C298,-250.621 283.879,-239.097 272.013,-229.413"/>
<polygon fill="midnightblue" stroke="midnightblue" points="274.175,-226.66 264.214,-223.049 269.749,-232.083 274.175,-226.66"/>
</g>
<!-- Node20 -->
<g id="node20" class="node"><title>Node20</title>
<g id="a_node20"><a xlink:href="synchronous__interface_8h.html" target="_top" xlink:title="shad/runtime/synchronous\l_interface.h">
<polygon fill="white" stroke="black" points="458.5,-193 458.5,-223 589.5,-223 589.5,-193 458.5,-193"/>
<text text-anchor="start" x="466.5" y="-211" font-family="Helvetica,sans-Serif" font-size="10.00">shad/runtime/synchronous</text>
<text text-anchor="middle" x="524" y="-200" font-family="Helvetica,sans-Serif" font-size="10.00">_interface.h</text>
</a>
</g>
</g>
<!-- Node1&#45;&gt;Node20 -->
<g id="edge29" class="edge"><title>Node1&#45;&gt;Node20</title>
<path fill="none" stroke="midnightblue" d="M386.421,-260.411C414.817,-249.8 449.613,-236.797 477.106,-226.523"/>
<polygon fill="midnightblue" stroke="midnightblue" points="478.362,-229.791 486.504,-223.012 475.911,-223.234 478.362,-229.791"/>
</g>
<!-- Node9&#45;&gt;Node4 -->
<g id="edge9" class="edge"><title>Node9&#45;&gt;Node4</title>
<path fill="none" stroke="midnightblue" d="M514.573,-130.452C480.426,-120.948 424.399,-104.72 377,-88 374.598,-87.1526 372.123,-86.2394 369.645,-85.2967"/>
<polygon fill="midnightblue" stroke="midnightblue" points="370.815,-81.9957 360.227,-81.5919 368.252,-88.5098 370.815,-81.9957"/>
</g>
<!-- Node10 -->
<g id="node10" class="node"><title>Node10</title>
<polygon fill="white" stroke="#bfbfbf" points="498,-0.5 498,-19.5 602,-19.5 602,-0.5 498,-0.5"/>
<text text-anchor="middle" x="550" y="-7.5" font-family="Helvetica,sans-Serif" font-size="10.00">shad/config/config.h</text>
</g>
<!-- Node9&#45;&gt;Node10 -->
<g id="edge10" class="edge"><title>Node9&#45;&gt;Node10</title>
<path fill="none" stroke="midnightblue" d="M502.629,-130.474C453.001,-118.698 381.974,-94.4461 410,-56 427.892,-31.4551 459.391,-20.0049 487.986,-14.7795"/>
<polygon fill="midnightblue" stroke="midnightblue" points="488.633,-18.2205 497.952,-13.1795 487.523,-11.309 488.633,-18.2205"/>
</g>
<!-- Node11 -->
<g id="node11" class="node"><title>Node11</title>
<g id="a_node11"><a xlink:href="mapping__traits_8h.html" target="_top" xlink:title="shad/runtime/mapping\l_traits.h">
<polygon fill="white" stroke="black" points="577.5,-57 577.5,-87 690.5,-87 690.5,-57 577.5,-57"/>
<text text-anchor="start" x="585.5" y="-75" font-family="Helvetica,sans-Serif" font-size="10.00">shad/runtime/mapping</text>
<text text-anchor="middle" x="634" y="-64" font-family="Helvetica,sans-Serif" font-size="10.00">_traits.h</text>
</a>
</g>
</g>
<!-- Node9&#45;&gt;Node11 -->
<g id="edge11" class="edge"><title>Node9&#45;&gt;Node11</title>
<path fill="none" stroke="midnightblue" d="M557.504,-130.372C569.962,-121.029 590.271,-105.797 606.833,-93.375"/>
<polygon fill="midnightblue" stroke="midnightblue" points="609.191,-95.9815 615.091,-87.1815 604.991,-90.3815 609.191,-95.9815"/>
</g>
<!-- Node13 -->
<g id="node13" class="node"><title>Node13</title>
<g id="a_node13"><a xlink:href="available__traits__mappings_8h.html" target="_top" xlink:title="shad/runtime/mappings\l/available_traits_mappings.h">
<polygon fill="white" stroke="black" points="419,-57 419,-87 559,-87 559,-57 419,-57"/>
<text text-anchor="start" x="427" y="-75" font-family="Helvetica,sans-Serif" font-size="10.00">shad/runtime/mappings</text>
<text text-anchor="middle" x="489" y="-64" font-family="Helvetica,sans-Serif" font-size="10.00">/available_traits_mappings.h</text>
</a>
</g>
</g>
<!-- Node9&#45;&gt;Node13 -->
<g id="edge14" class="edge"><title>Node9&#45;&gt;Node13</title>
<path fill="none" stroke="midnightblue" d="M538.548,-130.372C530.775,-121.371 518.283,-106.907 507.787,-94.7534"/>
<polygon fill="midnightblue" stroke="midnightblue" points="510.433,-92.462 501.248,-87.1815 505.135,-97.0374 510.433,-92.462"/>
</g>
<!-- Node11&#45;&gt;Node10 -->
<g id="edge13" class="edge"><title>Node11&#45;&gt;Node10</title>
<path fill="none" stroke="midnightblue" d="M614.093,-56.7808C601.006,-47.4329 583.918,-35.2273 570.678,-25.77"/>
<polygon fill="midnightblue" stroke="midnightblue" points="572.394,-22.6949 562.223,-19.7305 568.326,-28.391 572.394,-22.6949"/>
</g>
<!-- Node12 -->
<g id="node12" class="node"><title>Node12</title>
<polygon fill="white" stroke="#bfbfbf" points="696.5,-0.5 696.5,-19.5 737.5,-19.5 737.5,-0.5 696.5,-0.5"/>
<text text-anchor="middle" x="717" y="-7.5" font-family="Helvetica,sans-Serif" font-size="10.00">string</text>
</g>
<!-- Node11&#45;&gt;Node12 -->
<g id="edge12" class="edge"><title>Node11&#45;&gt;Node12</title>
<path fill="none" stroke="midnightblue" d="M653.67,-56.7808C666.601,-47.4329 683.486,-35.2273 696.568,-25.77"/>
<polygon fill="midnightblue" stroke="midnightblue" points="698.869,-28.4255 704.923,-19.7305 694.768,-22.7526 698.869,-28.4255"/>
</g>
<!-- Node14&#45;&gt;Node4 -->
<g id="edge16" class="edge"><title>Node14&#45;&gt;Node4</title>
<path fill="none" stroke="midnightblue" d="M703.427,-130.994C631.003,-121.952 511.926,-106.117 410,-88 397.886,-85.8467 384.672,-83.1155 373.022,-80.5755"/>
<polygon fill="midnightblue" stroke="midnightblue" points="373.773,-77.1571 363.253,-78.4119 372.259,-83.9915 373.773,-77.1571"/>
</g>
<!-- Node14&#45;&gt;Node11 -->
<g id="edge22" class="edge"><title>Node14&#45;&gt;Node11</title>
<path fill="none" stroke="midnightblue" d="M740.825,-124.841C720.836,-115.141 694.117,-102.174 672.401,-91.6358"/>
<polygon fill="midnightblue" stroke="midnightblue" points="673.652,-88.3525 663.127,-87.1352 670.596,-94.6501 673.652,-88.3525"/>
</g>
<!-- Node14&#45;&gt;Node12 -->
<g id="edge20" class="edge"><title>Node14&#45;&gt;Node12</title>
<path fill="none" stroke="midnightblue" d="M828.484,-124.951C873.466,-111.311 924.035,-87.9785 899,-56 880.572,-32.4607 794.883,-19.5333 747.947,-14.1084"/>
<polygon fill="midnightblue" stroke="midnightblue" points="748.059,-10.5994 737.735,-12.9758 747.288,-17.5568 748.059,-10.5994"/>
</g>
<!-- Node15 -->
<g id="node15" class="node"><title>Node15</title>
<polygon fill="white" stroke="#bfbfbf" points="947,-62.5 947,-81.5 1001,-81.5 1001,-62.5 947,-62.5"/>
<text text-anchor="middle" x="974" y="-69.5" font-family="Helvetica,sans-Serif" font-size="10.00">iostream</text>
</g>
<!-- Node14&#45;&gt;Node15 -->
<g id="edge17" class="edge"><title>Node14&#45;&gt;Node15</title>
<path fill="none" stroke="midnightblue" d="M816.915,-124.967C849.589,-115.036 894.109,-101.19 933,-88 935.759,-87.0643 938.614,-86.0714 941.473,-85.0596"/>
<polygon fill="midnightblue" stroke="midnightblue" points="942.858,-88.2812 951.082,-81.6023 940.488,-81.6946 942.858,-88.2812"/>
</g>
<!-- Node16 -->
<g id="node16" class="node"><title>Node16</title>
<polygon fill="white" stroke="#bfbfbf" points="709,-62.5 709,-81.5 749,-81.5 749,-62.5 709,-62.5"/>
<text text-anchor="middle" x="729" y="-69.5" font-family="Helvetica,sans-Serif" font-size="10.00">limits</text>
</g>
<!-- Node14&#45;&gt;Node16 -->
<g id="edge18" class="edge"><title>Node14&#45;&gt;Node16</title>
<path fill="none" stroke="midnightblue" d="M761.104,-124.679C754.837,-114.592 746.414,-101.033 739.768,-90.3345"/>
<polygon fill="midnightblue" stroke="midnightblue" points="742.734,-88.4758 734.484,-81.8283 736.788,-92.1696 742.734,-88.4758"/>
</g>
<!-- Node17 -->
<g id="node17" class="node"><title>Node17</title>
<polygon fill="white" stroke="#bfbfbf" points="767,-62.5 767,-81.5 811,-81.5 811,-62.5 767,-62.5"/>
<text text-anchor="middle" x="789" y="-69.5" font-family="Helvetica,sans-Serif" font-size="10.00">mutex</text>
</g>
<!-- Node14&#45;&gt;Node17 -->
<g id="edge19" class="edge"><title>Node14&#45;&gt;Node17</title>
<path fill="none" stroke="midnightblue" d="M774.123,-124.679C776.909,-114.999 780.616,-102.123 783.633,-91.6449"/>
<polygon fill="midnightblue" stroke="midnightblue" points="787.055,-92.4063 786.459,-81.8283 780.329,-90.4697 787.055,-92.4063"/>
</g>
<!-- Node18 -->
<g id="node18" class="node"><title>Node18</title>
<polygon fill="white" stroke="#bfbfbf" points="829.5,-62.5 829.5,-81.5 890.5,-81.5 890.5,-62.5 829.5,-62.5"/>
<text text-anchor="middle" x="860" y="-69.5" font-family="Helvetica,sans-Serif" font-size="10.00">gmt/gmt.h</text>
</g>
<!-- Node14&#45;&gt;Node18 -->
<g id="edge21" class="edge"><title>Node14&#45;&gt;Node18</title>
<path fill="none" stroke="midnightblue" d="M789.529,-124.679C804.482,-113.713 825.03,-98.645 840.079,-87.6085"/>
<polygon fill="midnightblue" stroke="midnightblue" points="842.227,-90.374 848.221,-81.6379 838.087,-84.7291 842.227,-90.374"/>
</g>
<!-- Node19&#45;&gt;Node3 -->
<g id="edge24" class="edge"><title>Node19&#45;&gt;Node3</title>
<path fill="none" stroke="midnightblue" d="M266.529,-192.679C281.482,-181.713 302.03,-166.645 317.079,-155.609"/>
<polygon fill="midnightblue" stroke="midnightblue" points="319.227,-158.374 325.221,-149.638 315.087,-152.729 319.227,-158.374"/>
</g>
<!-- Node19&#45;&gt;Node4 -->
<g id="edge25" class="edge"><title>Node19&#45;&gt;Node4</title>
<path fill="none" stroke="midnightblue" d="M256.627,-192.863C267.915,-176.314 287.219,-148.101 304,-124 311.966,-112.56 321.015,-99.7408 328.048,-89.8166"/>
<polygon fill="midnightblue" stroke="midnightblue" points="330.918,-91.8198 333.851,-81.639 325.209,-87.7687 330.918,-91.8198"/>
</g>
<!-- Node19&#45;&gt;Node6 -->
<g id="edge26" class="edge"><title>Node19&#45;&gt;Node6</title>
<path fill="none" stroke="midnightblue" d="M223.617,-192.841C205.101,-181.63 179.38,-166.056 160.972,-154.91"/>
<polygon fill="midnightblue" stroke="midnightblue" points="162.705,-151.868 152.338,-149.682 159.08,-157.855 162.705,-151.868"/>
</g>
<!-- Node19&#45;&gt;Node7 -->
<g id="edge27" class="edge"><title>Node19&#45;&gt;Node7</title>
<path fill="none" stroke="midnightblue" d="M240.924,-192.679C236.775,-182.898 231.24,-169.852 226.77,-159.315"/>
<polygon fill="midnightblue" stroke="midnightblue" points="229.873,-157.667 222.745,-149.828 223.429,-160.401 229.873,-157.667"/>
</g>
<!-- Node19&#45;&gt;Node9 -->
<g id="edge28" class="edge"><title>Node19&#45;&gt;Node9</title>
<path fill="none" stroke="midnightblue" d="M306.073,-193.961C362.076,-181.599 445.198,-163.251 497.447,-151.717"/>
<polygon fill="midnightblue" stroke="midnightblue" points="498.458,-155.079 507.468,-149.505 496.949,-148.243 498.458,-155.079"/>
</g>
<!-- Node20&#45;&gt;Node3 -->
<g id="edge30" class="edge"><title>Node20&#45;&gt;Node3</title>
<path fill="none" stroke="midnightblue" d="M478.077,-192.932C447.482,-183.257 406.521,-169.721 371,-156 369.104,-155.268 367.16,-154.489 365.209,-153.685"/>
<polygon fill="midnightblue" stroke="midnightblue" points="366.145,-150.279 355.574,-149.57 363.396,-156.717 366.145,-150.279"/>
</g>
<!-- Node20&#45;&gt;Node4 -->
<g id="edge31" class="edge"><title>Node20&#45;&gt;Node4</title>
<path fill="none" stroke="midnightblue" d="M512.227,-192.693C497.101,-174.954 469.394,-144.551 441,-124 419.158,-108.191 391.702,-94.6734 370.932,-85.5344"/>
<polygon fill="midnightblue" stroke="midnightblue" points="372.185,-82.2635 361.615,-81.5302 369.421,-88.6946 372.185,-82.2635"/>
</g>
<!-- Node20&#45;&gt;Node5 -->
<g id="edge32" class="edge"><title>Node20&#45;&gt;Node5</title>
<path fill="none" stroke="midnightblue" d="M498.686,-192.841C478.459,-181.528 450.287,-165.771 430.325,-154.605"/>
<polygon fill="midnightblue" stroke="midnightblue" points="431.958,-151.509 421.522,-149.682 428.541,-157.618 431.958,-151.509"/>
</g>
<!-- Node20&#45;&gt;Node9 -->
<g id="edge33" class="edge"><title>Node20&#45;&gt;Node9</title>
<path fill="none" stroke="midnightblue" d="M528.774,-192.679C532,-182.999 536.292,-170.123 539.785,-159.645"/>
<polygon fill="midnightblue" stroke="midnightblue" points="543.215,-160.422 543.057,-149.828 536.574,-158.208 543.215,-160.422"/>
</g>
</g>
</svg>
