<?xml version="1.0" encoding="UTF-8" standalone="no"?>
<!DOCTYPE svg PUBLIC "-//W3C//DTD SVG 1.1//EN"
 "http://www.w3.org/Graphics/SVG/1.1/DTD/svg11.dtd">
<!-- Generated by graphviz version 2.36.0 (20140111.2315)
 -->
<!-- Title: include/shad/runtime/mappings/gmt/gmt_utility.h Pages: 1 -->
<svg width="353pt" height="118pt"
 viewBox="0.00 0.00 353.00 118.00" xmlns="http://www.w3.org/2000/svg" xmlns:xlink="http://www.w3.org/1999/xlink">
<g id="graph0" class="graph" transform="scale(1 1) rotate(0) translate(4 114)">
<title>include/shad/runtime/mappings/gmt/gmt_utility.h</title>
<polygon fill="white" stroke="none" points="-4,4 -4,-114 349,-114 349,4 -4,4"/>
<!-- Node1 -->
<g id="node1" class="node"><title>Node1</title>
<polygon fill="#bfbfbf" stroke="black" points="105.5,-79 105.5,-109 242.5,-109 242.5,-79 105.5,-79"/>
<text text-anchor="start" x="113.5" y="-97" font-family="Helvetica,sans-Serif" font-size="10.00">include/shad/runtime</text>
<text text-anchor="middle" x="174" y="-86" font-family="Helvetica,sans-Serif" font-size="10.00">/mappings/gmt/gmt_utility.h</text>
</g>
<!-- Node2 -->
<g id="node2" class="node"><title>Node2</title>
<g id="a_node2"><a xlink:href="gmt__asynchronous__interface_8h.html" target="_top" xlink:title="include/shad/runtime\l/mappings/gmt/gmt_asynchronous\l_interface.h">
<polygon fill="white" stroke="black" points="-0.5,-0.5 -0.5,-41.5 166.5,-41.5 166.5,-0.5 -0.5,-0.5"/>
<text text-anchor="start" x="7.5" y="-29.5" font-family="Helvetica,sans-Serif" font-size="10.00">include/shad/runtime</text>
<text text-anchor="start" x="7.5" y="-18.5" font-family="Helvetica,sans-Serif" font-size="10.00">/mappings/gmt/gmt_asynchronous</text>
<text text-anchor="middle" x="83" y="-7.5" font-family="Helvetica,sans-Serif" font-size="10.00">_interface.h</text>
</a>
</g>
</g>
<!-- Node1&#45;&gt;Node2 -->
<g id="edge1" class="edge"><title>Node1&#45;&gt;Node2</title>
<path fill="none" stroke="midnightblue" d="M147.829,-72.581C135.36,-62.8527 120.513,-51.2683 108.175,-41.642"/>
<polygon fill="midnightblue" stroke="midnightblue" points="145.984,-75.5807 156.021,-78.9727 150.29,-70.0618 145.984,-75.5807"/>
</g>
<!-- Node3 -->
<g id="node3" class="node"><title>Node3</title>
<g id="a_node3"><a xlink:href="gmt__synchronous__interface_8h.html" target="_top" xlink:title="include/shad/runtime\l/mappings/gmt/gmt_synchronous\l_interface.h">
<polygon fill="white" stroke="black" points="184.5,-0.5 184.5,-41.5 345.5,-41.5 345.5,-0.5 184.5,-0.5"/>
<text text-anchor="start" x="192.5" y="-29.5" font-family="Helvetica,sans-Serif" font-size="10.00">include/shad/runtime</text>
<text text-anchor="start" x="192.5" y="-18.5" font-family="Helvetica,sans-Serif" font-size="10.00">/mappings/gmt/gmt_synchronous</text>
<text text-anchor="middle" x="265" y="-7.5" font-family="Helvetica,sans-Serif" font-size="10.00">_interface.h</text>
</a>
</g>
</g>
<!-- Node1&#45;&gt;Node3 -->
<g id="edge2" class="edge"><title>Node1&#45;&gt;Node3</title>
<path fill="none" stroke="midnightblue" d="M200.171,-72.581C212.64,-62.8527 227.487,-51.2683 239.825,-41.642"/>
<polygon fill="midnightblue" stroke="midnightblue" points="197.71,-70.0618 191.979,-78.9727 202.016,-75.5807 197.71,-70.0618"/>
</g>
</g>
</svg>
