<?xml version="1.0" encoding="UTF-8" standalone="no"?>
<!DOCTYPE svg PUBLIC "-//W3C//DTD SVG 1.1//EN"
 "http://www.w3.org/Graphics/SVG/1.1/DTD/svg11.dtd">
<!-- Generated by graphviz version 2.36.0 (20140111.2315)
 -->
<!-- Title: include/shad/runtime/mappings/gmt/gmt_utility.h Pages: 1 -->
<svg width="548pt" height="220pt"
 viewBox="0.00 0.00 548.00 220.00" xmlns="http://www.w3.org/2000/svg" xmlns:xlink="http://www.w3.org/1999/xlink">
<g id="graph0" class="graph" transform="scale(1 1) rotate(0) translate(4 216)">
<title>include/shad/runtime/mappings/gmt/gmt_utility.h</title>
<polygon fill="white" stroke="none" points="-4,4 -4,-216 544,-216 544,4 -4,4"/>
<!-- Node1 -->
<g id="node1" class="node"><title>Node1</title>
<polygon fill="#bfbfbf" stroke="black" points="62.5,-181 62.5,-211 199.5,-211 199.5,-181 62.5,-181"/>
<text text-anchor="start" x="70.5" y="-199" font-family="Helvetica,sans-Serif" font-size="10.00">include/shad/runtime</text>
<text text-anchor="middle" x="131" y="-188" font-family="Helvetica,sans-Serif" font-size="10.00">/mappings/gmt/gmt_utility.h</text>
</g>
<!-- Node2 -->
<g id="node2" class="node"><title>Node2</title>
<polygon fill="white" stroke="#bfbfbf" points="-0.5,-124.5 -0.5,-143.5 48.5,-143.5 48.5,-124.5 -0.5,-124.5"/>
<text text-anchor="middle" x="24" y="-131.5" font-family="Helvetica,sans-Serif" font-size="10.00">cstddef</text>
</g>
<!-- Node1&#45;&gt;Node2 -->
<g id="edge1" class="edge"><title>Node1&#45;&gt;Node2</title>
<path fill="none" stroke="midnightblue" d="M105.913,-180.933C88.5058,-171.171 65.4449,-158.24 48.2276,-148.586"/>
<polygon fill="midnightblue" stroke="midnightblue" points="49.7709,-145.438 39.3367,-143.6 46.3471,-151.544 49.7709,-145.438"/>
</g>
<!-- Node3 -->
<g id="node3" class="node"><title>Node3</title>
<polygon fill="white" stroke="#bfbfbf" points="110,-62.5 110,-81.5 156,-81.5 156,-62.5 110,-62.5"/>
<text text-anchor="middle" x="133" y="-69.5" font-family="Helvetica,sans-Serif" font-size="10.00">cstdint</text>
</g>
<!-- Node1&#45;&gt;Node3 -->
<g id="edge2" class="edge"><title>Node1&#45;&gt;Node3</title>
<path fill="none" stroke="midnightblue" d="M116.593,-180.832C104.2,-166.858 89.2973,-144.653 96,-124 100.188,-111.095 109.003,-98.7232 116.979,-89.3973"/>
<polygon fill="midnightblue" stroke="midnightblue" points="119.781,-91.518 123.91,-81.7611 114.598,-86.8131 119.781,-91.518"/>
</g>
<!-- Node4 -->
<g id="node4" class="node"><title>Node4</title>
<polygon fill="white" stroke="#bfbfbf" points="105,-124.5 105,-143.5 157,-143.5 157,-124.5 105,-124.5"/>
<text text-anchor="middle" x="131" y="-131.5" font-family="Helvetica,sans-Serif" font-size="10.00">sstream</text>
</g>
<!-- Node1&#45;&gt;Node4 -->
<g id="edge3" class="edge"><title>Node1&#45;&gt;Node4</title>
<path fill="none" stroke="midnightblue" d="M131,-180.781C131,-172.781 131,-162.689 131,-154.017"/>
<polygon fill="midnightblue" stroke="midnightblue" points="134.5,-153.73 131,-143.731 127.5,-153.731 134.5,-153.73"/>
</g>
<!-- Node5 -->
<g id="node5" class="node"><title>Node5</title>
<polygon fill="white" stroke="#bfbfbf" points="175,-124.5 175,-143.5 249,-143.5 249,-124.5 175,-124.5"/>
<text text-anchor="middle" x="212" y="-131.5" font-family="Helvetica,sans-Serif" font-size="10.00">system_error</text>
</g>
<!-- Node1&#45;&gt;Node5 -->
<g id="edge4" class="edge"><title>Node1&#45;&gt;Node5</title>
<path fill="none" stroke="midnightblue" d="M150.196,-180.781C162.816,-171.433 179.293,-159.227 192.061,-149.77"/>
<polygon fill="midnightblue" stroke="midnightblue" points="194.262,-152.495 200.214,-143.731 190.095,-146.87 194.262,-152.495"/>
</g>
<!-- Node6 -->
<g id="node6" class="node"><title>Node6</title>
<g id="a_node6"><a xlink:href="locality_8h.html" target="_top" xlink:title="shad/runtime/locality.h">
<polygon fill="white" stroke="black" points="267.5,-124.5 267.5,-143.5 382.5,-143.5 382.5,-124.5 267.5,-124.5"/>
<text text-anchor="middle" x="325" y="-131.5" font-family="Helvetica,sans-Serif" font-size="10.00">shad/runtime/locality.h</text>
</a>
</g>
</g>
<!-- Node1&#45;&gt;Node6 -->
<g id="edge5" class="edge"><title>Node1&#45;&gt;Node6</title>
<path fill="none" stroke="midnightblue" d="M176.484,-180.933C210.338,-170.462 255.986,-156.345 287.701,-146.536"/>
<polygon fill="midnightblue" stroke="midnightblue" points="288.956,-149.811 297.476,-143.513 286.888,-143.124 288.956,-149.811"/>
</g>
<!-- Node6&#45;&gt;Node3 -->
<g id="edge6" class="edge"><title>Node6&#45;&gt;Node3</title>
<path fill="none" stroke="midnightblue" d="M297.491,-124.403C262.802,-113.563 203.216,-94.9426 166.08,-83.3375"/>
<polygon fill="midnightblue" stroke="midnightblue" points="166.829,-79.9047 156.24,-80.2626 164.741,-86.5861 166.829,-79.9047"/>
</g>
<!-- Node7 -->
<g id="node7" class="node"><title>Node7</title>
<polygon fill="white" stroke="#bfbfbf" points="188,-0.5 188,-19.5 292,-19.5 292,-0.5 188,-0.5"/>
<text text-anchor="middle" x="240" y="-7.5" font-family="Helvetica,sans-Serif" font-size="10.00">shad/config/config.h</text>
</g>
<!-- Node6&#45;&gt;Node7 -->
<g id="edge7" class="edge"><title>Node6&#45;&gt;Node7</title>
<path fill="none" stroke="midnightblue" d="M305.967,-124.469C291.27,-116.923 271.553,-104.541 260,-88 247.919,-70.7039 243.135,-46.6342 241.24,-30.0321"/>
<polygon fill="midnightblue" stroke="midnightblue" points="244.712,-29.5556 240.337,-19.9065 237.74,-30.1781 244.712,-29.5556"/>
</g>
<!-- Node8 -->
<g id="node8" class="node"><title>Node8</title>
<g id="a_node8"><a xlink:href="mapping__traits_8h.html" target="_top" xlink:title="shad/runtime/mapping\l_traits.h">
<polygon fill="white" stroke="black" points="268.5,-57 268.5,-87 381.5,-87 381.5,-57 268.5,-57"/>
<text text-anchor="start" x="276.5" y="-75" font-family="Helvetica,sans-Serif" font-size="10.00">shad/runtime/mapping</text>
<text text-anchor="middle" x="325" y="-64" font-family="Helvetica,sans-Serif" font-size="10.00">_traits.h</text>
</a>
</g>
</g>
<!-- Node6&#45;&gt;Node8 -->
<g id="edge8" class="edge"><title>Node6&#45;&gt;Node8</title>
<path fill="none" stroke="midnightblue" d="M325,-124.403C325,-117.341 325,-106.975 325,-97.399"/>
<polygon fill="midnightblue" stroke="midnightblue" points="328.5,-97.1408 325,-87.1408 321.5,-97.1408 328.5,-97.1408"/>
</g>
<!-- Node10 -->
<g id="node10" class="node"><title>Node10</title>
<g id="a_node10"><a xlink:href="available__traits__mappings_8h.html" target="_top" xlink:title="shad/runtime/mappings\l/available_traits_mappings.h">
<polygon fill="white" stroke="black" points="400,-57 400,-87 540,-87 540,-57 400,-57"/>
<text text-anchor="start" x="408" y="-75" font-family="Helvetica,sans-Serif" font-size="10.00">shad/runtime/mappings</text>
<text text-anchor="middle" x="470" y="-64" font-family="Helvetica,sans-Serif" font-size="10.00">/available_traits_mappings.h</text>
</a>
</g>
</g>
<!-- Node6&#45;&gt;Node10 -->
<g id="edge11" class="edge"><title>Node6&#45;&gt;Node10</title>
<path fill="none" stroke="midnightblue" d="M345.775,-124.403C366.768,-115.717 399.833,-102.035 426.574,-90.9694"/>
<polygon fill="midnightblue" stroke="midnightblue" points="428.204,-94.083 436.105,-87.0253 425.527,-87.6148 428.204,-94.083"/>
</g>
<!-- Node8&#45;&gt;Node7 -->
<g id="edge10" class="edge"><title>Node8&#45;&gt;Node7</title>
<path fill="none" stroke="midnightblue" d="M304.856,-56.7808C291.405,-47.2862 273.778,-34.8434 260.296,-25.3267"/>
<polygon fill="midnightblue" stroke="midnightblue" points="262.309,-22.4632 252.121,-19.5557 258.272,-28.182 262.309,-22.4632"/>
</g>
<!-- Node9 -->
<g id="node9" class="node"><title>Node9</title>
<polygon fill="white" stroke="#bfbfbf" points="310.5,-0.5 310.5,-19.5 351.5,-19.5 351.5,-0.5 310.5,-0.5"/>
<text text-anchor="middle" x="331" y="-7.5" font-family="Helvetica,sans-Serif" font-size="10.00">string</text>
</g>
<!-- Node8&#45;&gt;Node9 -->
<g id="edge9" class="edge"><title>Node8&#45;&gt;Node9</title>
<path fill="none" stroke="midnightblue" d="M326.422,-56.7808C327.231,-48.6913 328.254,-38.4617 329.127,-29.725"/>
<polygon fill="midnightblue" stroke="midnightblue" points="332.614,-30.0292 330.127,-19.7305 325.649,-29.3326 332.614,-30.0292"/>
</g>
</g>
</svg>
