<?xml version="1.0" encoding="UTF-8" standalone="no"?>
<!DOCTYPE svg PUBLIC "-//W3C//DTD SVG 1.1//EN"
 "http://www.w3.org/Graphics/SVG/1.1/DTD/svg11.dtd">
<!-- Generated by graphviz version 2.36.0 (20140111.2315)
 -->
<!-- Title: include/shad/runtime/mappings/gmt/gmt_synchronous_interface.h Pages: 1 -->
<svg width="953pt" height="310pt"
 viewBox="0.00 0.00 953.00 310.00" xmlns="http://www.w3.org/2000/svg" xmlns:xlink="http://www.w3.org/1999/xlink">
<g id="graph0" class="graph" transform="scale(1 1) rotate(0) translate(4 306)">
<title>include/shad/runtime/mappings/gmt/gmt_synchronous_interface.h</title>
<polygon fill="white" stroke="none" points="-4,4 -4,-306 949,-306 949,4 -4,4"/>
<!-- Node1 -->
<g id="node1" class="node"><title>Node1</title>
<polygon fill="#bfbfbf" stroke="black" points="253.5,-260.5 253.5,-301.5 414.5,-301.5 414.5,-260.5 253.5,-260.5"/>
<text text-anchor="start" x="261.5" y="-289.5" font-family="Helvetica,sans-Serif" font-size="10.00">include/shad/runtime</text>
<text text-anchor="start" x="261.5" y="-278.5" font-family="Helvetica,sans-Serif" font-size="10.00">/mappings/gmt/gmt_synchronous</text>
<text text-anchor="middle" x="334" y="-267.5" font-family="Helvetica,sans-Serif" font-size="10.00">_interface.h</text>
</g>
<!-- Node2 -->
<g id="node2" class="node"><title>Node2</title>
<polygon fill="white" stroke="#bfbfbf" points="0,-198.5 0,-217.5 56,-217.5 56,-198.5 0,-198.5"/>
<text text-anchor="middle" x="28" y="-205.5" font-family="Helvetica,sans-Serif" font-size="10.00">algorithm</text>
</g>
<!-- Node1&#45;&gt;Node2 -->
<g id="edge1" class="edge"><title>Node1&#45;&gt;Node2</title>
<path fill="none" stroke="midnightblue" d="M253.312,-265.792C200.686,-255.814 130.745,-241.206 70,-224 66.6197,-223.043 63.1182,-221.953 59.6447,-220.809"/>
<polygon fill="midnightblue" stroke="midnightblue" points="60.6481,-217.453 50.0534,-217.502 58.3665,-224.07 60.6481,-217.453"/>
</g>
<!-- Node3 -->
<g id="node3" class="node"><title>Node3</title>
<polygon fill="white" stroke="#bfbfbf" points="312.5,-130.5 312.5,-149.5 361.5,-149.5 361.5,-130.5 312.5,-130.5"/>
<text text-anchor="middle" x="337" y="-137.5" font-family="Helvetica,sans-Serif" font-size="10.00">cstddef</text>
</g>
<!-- Node1&#45;&gt;Node3 -->
<g id="edge2" class="edge"><title>Node1&#45;&gt;Node3</title>
<path fill="none" stroke="midnightblue" d="M334.423,-260.38C335,-233.652 336.026,-186.124 336.594,-159.82"/>
<polygon fill="midnightblue" stroke="midnightblue" points="340.096,-159.746 336.813,-149.673 333.098,-159.595 340.096,-159.746"/>
</g>
<!-- Node4 -->
<g id="node4" class="node"><title>Node4</title>
<polygon fill="white" stroke="#bfbfbf" points="261,-62.5 261,-81.5 307,-81.5 307,-62.5 261,-62.5"/>
<text text-anchor="middle" x="284" y="-69.5" font-family="Helvetica,sans-Serif" font-size="10.00">cstdint</text>
</g>
<!-- Node1&#45;&gt;Node4 -->
<g id="edge3" class="edge"><title>Node1&#45;&gt;Node4</title>
<path fill="none" stroke="midnightblue" d="M253.279,-268.722C218.01,-260.709 177.767,-247.086 147,-224 118.207,-202.395 113.195,-190.523 103,-156 98.9719,-142.36 94.4147,-135.339 103,-124 120.818,-100.468 203.77,-84.7341 250.952,-77.5229"/>
<polygon fill="midnightblue" stroke="midnightblue" points="251.621,-80.9621 260.999,-76.0334 250.594,-74.0378 251.621,-80.9621"/>
</g>
<!-- Node5 -->
<g id="node5" class="node"><title>Node5</title>
<polygon fill="white" stroke="#bfbfbf" points="392,-130.5 392,-149.5 444,-149.5 444,-130.5 392,-130.5"/>
<text text-anchor="middle" x="418" y="-137.5" font-family="Helvetica,sans-Serif" font-size="10.00">memory</text>
</g>
<!-- Node1&#45;&gt;Node5 -->
<g id="edge4" class="edge"><title>Node1&#45;&gt;Node5</title>
<path fill="none" stroke="midnightblue" d="M373.873,-260.317C387.996,-251.259 402.481,-239.121 411,-224 422.174,-204.166 422.253,-177.339 420.656,-159.619"/>
<polygon fill="midnightblue" stroke="midnightblue" points="424.132,-159.209 419.497,-149.681 417.179,-160.019 424.132,-159.209"/>
</g>
<!-- Node6 -->
<g id="node6" class="node"><title>Node6</title>
<polygon fill="white" stroke="#bfbfbf" points="112,-130.5 112,-149.5 164,-149.5 164,-130.5 112,-130.5"/>
<text text-anchor="middle" x="138" y="-137.5" font-family="Helvetica,sans-Serif" font-size="10.00">sstream</text>
</g>
<!-- Node1&#45;&gt;Node6 -->
<g id="edge5" class="edge"><title>Node1&#45;&gt;Node6</title>
<path fill="none" stroke="midnightblue" d="M253.48,-267.275C224.148,-259.127 192.66,-245.795 170,-224 152.033,-206.72 144.002,-178.233 140.519,-159.542"/>
<polygon fill="midnightblue" stroke="midnightblue" points="143.963,-158.911 138.922,-149.592 137.051,-160.021 143.963,-158.911"/>
</g>
<!-- Node7 -->
<g id="node7" class="node"><title>Node7</title>
<polygon fill="white" stroke="#bfbfbf" points="182,-130.5 182,-149.5 256,-149.5 256,-130.5 182,-130.5"/>
<text text-anchor="middle" x="219" y="-137.5" font-family="Helvetica,sans-Serif" font-size="10.00">system_error</text>
</g>
<!-- Node1&#45;&gt;Node7 -->
<g id="edge6" class="edge"><title>Node1&#45;&gt;Node7</title>
<path fill="none" stroke="midnightblue" d="M253.446,-270.088C225.16,-262.296 196.179,-248.472 179,-224 163.858,-202.429 184.777,-174.243 201.61,-156.892"/>
<polygon fill="midnightblue" stroke="midnightblue" points="204.214,-159.241 208.913,-149.746 199.318,-154.238 204.214,-159.241"/>
</g>
<!-- Node8 -->
<g id="node8" class="node"><title>Node8</title>
<polygon fill="white" stroke="#bfbfbf" points="362,-198.5 362,-217.5 402,-217.5 402,-198.5 362,-198.5"/>
<text text-anchor="middle" x="382" y="-205.5" font-family="Helvetica,sans-Serif" font-size="10.00">utility</text>
</g>
<!-- Node1&#45;&gt;Node8 -->
<g id="edge7" class="edge"><title>Node1&#45;&gt;Node8</title>
<path fill="none" stroke="midnightblue" d="M347.371,-260.223C354.592,-249.541 363.422,-236.481 370.358,-226.221"/>
<polygon fill="midnightblue" stroke="midnightblue" points="373.393,-227.98 376.095,-217.735 367.594,-224.059 373.393,-227.98"/>
</g>
<!-- Node9 -->
<g id="node9" class="node"><title>Node9</title>
<g id="a_node9"><a xlink:href="locality_8h.html" target="_top" xlink:title="shad/runtime/locality.h">
<polygon fill="white" stroke="black" points="500.5,-130.5 500.5,-149.5 615.5,-149.5 615.5,-130.5 500.5,-130.5"/>
<text text-anchor="middle" x="558" y="-137.5" font-family="Helvetica,sans-Serif" font-size="10.00">shad/runtime/locality.h</text>
</a>
</g>
</g>
<!-- Node1&#45;&gt;Node9 -->
<g id="edge8" class="edge"><title>Node1&#45;&gt;Node9</title>
<path fill="none" stroke="midnightblue" d="M414.514,-273.869C483.48,-266.745 575.18,-252.169 598,-224 614.678,-203.414 593.03,-174.721 575.668,-157.03"/>
<polygon fill="midnightblue" stroke="midnightblue" points="577.764,-154.187 568.146,-149.744 572.894,-159.215 577.764,-154.187"/>
</g>
<!-- Node15 -->
<g id="node15" class="node"><title>Node15</title>
<g id="a_node15"><a xlink:href="gmt__traits__mapping_8h.html" target="_top" xlink:title="shad/runtime/mappings\l/gmt/gmt_traits_mapping.h">
<polygon fill="white" stroke="black" points="664.5,-125 664.5,-155 797.5,-155 797.5,-125 664.5,-125"/>
<text text-anchor="start" x="672.5" y="-143" font-family="Helvetica,sans-Serif" font-size="10.00">shad/runtime/mappings</text>
<text text-anchor="middle" x="731" y="-132" font-family="Helvetica,sans-Serif" font-size="10.00">/gmt/gmt_traits_mapping.h</text>
</a>
</g>
</g>
<!-- Node1&#45;&gt;Node15 -->
<g id="edge16" class="edge"><title>Node1&#45;&gt;Node15</title>
<path fill="none" stroke="midnightblue" d="M414.501,-272.934C471.95,-265.759 550.044,-251.585 614,-224 649.846,-208.539 685.66,-180.894 708.042,-161.782"/>
<polygon fill="midnightblue" stroke="midnightblue" points="710.403,-164.366 715.655,-155.165 705.811,-159.083 710.403,-164.366"/>
</g>
<!-- Node19 -->
<g id="node19" class="node"><title>Node19</title>
<g id="a_node19"><a xlink:href="gmt__utility_8h.html" target="_top" xlink:title="shad/runtime/mappings\l/gmt/gmt_utility.h">
<polygon fill="white" stroke="black" points="188,-193 188,-223 306,-223 306,-193 188,-193"/>
<text text-anchor="start" x="196" y="-211" font-family="Helvetica,sans-Serif" font-size="10.00">shad/runtime/mappings</text>
<text text-anchor="middle" x="247" y="-200" font-family="Helvetica,sans-Serif" font-size="10.00">/gmt/gmt_utility.h</text>
</a>
</g>
</g>
<!-- Node1&#45;&gt;Node19 -->
<g id="edge24" class="edge"><title>Node1&#45;&gt;Node19</title>
<path fill="none" stroke="midnightblue" d="M309.766,-260.223C298,-250.621 283.879,-239.097 272.013,-229.413"/>
<polygon fill="midnightblue" stroke="midnightblue" points="274.175,-226.66 264.214,-223.049 269.749,-232.083 274.175,-226.66"/>
</g>
<!-- Node20 -->
<g id="node20" class="node"><title>Node20</title>
<g id="a_node20"><a xlink:href="synchronous__interface_8h.html" target="_top" xlink:title="shad/runtime/synchronous\l_interface.h">
<polygon fill="white" stroke="black" points="458.5,-193 458.5,-223 589.5,-223 589.5,-193 458.5,-193"/>
<text text-anchor="start" x="466.5" y="-211" font-family="Helvetica,sans-Serif" font-size="10.00">shad/runtime/synchronous</text>
<text text-anchor="middle" x="524" y="-200" font-family="Helvetica,sans-Serif" font-size="10.00">_interface.h</text>
</a>
</g>
</g>
<!-- Node1&#45;&gt;Node20 -->
<g id="edge30" class="edge"><title>Node1&#45;&gt;Node20</title>
<path fill="none" stroke="midnightblue" d="M386.421,-260.411C414.817,-249.8 449.613,-236.797 477.106,-226.523"/>
<polygon fill="midnightblue" stroke="midnightblue" points="478.362,-229.791 486.504,-223.012 475.911,-223.234 478.362,-229.791"/>
</g>
<!-- Node9&#45;&gt;Node4 -->
<g id="edge9" class="edge"><title>Node9&#45;&gt;Node4</title>
<path fill="none" stroke="midnightblue" d="M517.417,-130.458C452.202,-116.704 330.39,-90.8899 321,-88 318.358,-87.187 315.642,-86.2634 312.938,-85.2833"/>
<polygon fill="midnightblue" stroke="midnightblue" points="313.947,-81.921 303.358,-81.5831 311.425,-88.4509 313.947,-81.921"/>
</g>
<!-- Node10 -->
<g id="node10" class="node"><title>Node10</title>
<polygon fill="white" stroke="#bfbfbf" points="653,-62.5 653,-81.5 707,-81.5 707,-62.5 653,-62.5"/>
<text text-anchor="middle" x="680" y="-69.5" font-family="Helvetica,sans-Serif" font-size="10.00">iostream</text>
</g>
<!-- Node9&#45;&gt;Node10 -->
<g id="edge10" class="edge"><title>Node9&#45;&gt;Node10</title>
<path fill="none" stroke="midnightblue" d="M573.949,-130.372C594.591,-119.205 630.781,-99.6266 655.068,-86.4876"/>
<polygon fill="midnightblue" stroke="midnightblue" points="656.917,-89.4671 664.047,-81.6305 653.586,-83.3103 656.917,-89.4671"/>
</g>
<!-- Node11 -->
<g id="node11" class="node"><title>Node11</title>
<polygon fill="white" stroke="#bfbfbf" points="442,-0.5 442,-19.5 546,-19.5 546,-0.5 442,-0.5"/>
<text text-anchor="middle" x="494" y="-7.5" font-family="Helvetica,sans-Serif" font-size="10.00">shad/config/config.h</text>
</g>
<!-- Node9&#45;&gt;Node11 -->
<g id="edge11" class="edge"><title>Node9&#45;&gt;Node11</title>
<path fill="none" stroke="midnightblue" d="M518.475,-130.425C460.618,-117.688 359.125,-94.5642 354,-88 327.648,-54.2493 383.98,-33.2043 432.861,-21.8138"/>
<polygon fill="midnightblue" stroke="midnightblue" points="433.828,-25.1845 442.829,-19.5961 432.307,-18.3516 433.828,-25.1845"/>
</g>
<!-- Node12 -->
<g id="node12" class="node"><title>Node12</title>
<g id="a_node12"><a xlink:href="mapping__traits_8h.html" target="_top" xlink:title="shad/runtime/mapping\l_traits.h">
<polygon fill="white" stroke="black" points="521.5,-57 521.5,-87 634.5,-87 634.5,-57 521.5,-57"/>
<text text-anchor="start" x="529.5" y="-75" font-family="Helvetica,sans-Serif" font-size="10.00">shad/runtime/mapping</text>
<text text-anchor="middle" x="578" y="-64" font-family="Helvetica,sans-Serif" font-size="10.00">_traits.h</text>
</a>
</g>
</g>
<!-- Node9&#45;&gt;Node12 -->
<g id="edge12" class="edge"><title>Node9&#45;&gt;Node12</title>
<path fill="none" stroke="midnightblue" d="M560.615,-130.372C563.186,-121.886 567.23,-108.542 570.77,-96.858"/>
<polygon fill="midnightblue" stroke="midnightblue" points="574.152,-97.7668 573.703,-87.1815 567.453,-95.7366 574.152,-97.7668"/>
</g>
<!-- Node14 -->
<g id="node14" class="node"><title>Node14</title>
<g id="a_node14"><a xlink:href="available__traits__mappings_8h.html" target="_top" xlink:title="shad/runtime/mappings\l/available_traits_mappings.h">
<polygon fill="white" stroke="black" points="363,-57 363,-87 503,-87 503,-57 363,-57"/>
<text text-anchor="start" x="371" y="-75" font-family="Helvetica,sans-Serif" font-size="10.00">shad/runtime/mappings</text>
<text text-anchor="middle" x="433" y="-64" font-family="Helvetica,sans-Serif" font-size="10.00">/available_traits_mappings.h</text>
</a>
</g>
</g>
<!-- Node9&#45;&gt;Node14 -->
<g id="edge15" class="edge"><title>Node9&#45;&gt;Node14</title>
<path fill="none" stroke="midnightblue" d="M541.658,-130.372C523.233,-120.643 492.714,-104.529 468.704,-91.8515"/>
<polygon fill="midnightblue" stroke="midnightblue" points="470.336,-88.7556 459.859,-87.1815 467.068,-94.9457 470.336,-88.7556"/>
</g>
<!-- Node12&#45;&gt;Node11 -->
<g id="edge14" class="edge"><title>Node12&#45;&gt;Node11</title>
<path fill="none" stroke="midnightblue" d="M558.093,-56.7808C545.006,-47.4329 527.918,-35.2273 514.678,-25.77"/>
<polygon fill="midnightblue" stroke="midnightblue" points="516.394,-22.6949 506.223,-19.7305 512.326,-28.391 516.394,-22.6949"/>
</g>
<!-- Node13 -->
<g id="node13" class="node"><title>Node13</title>
<polygon fill="white" stroke="#bfbfbf" points="640.5,-0.5 640.5,-19.5 681.5,-19.5 681.5,-0.5 640.5,-0.5"/>
<text text-anchor="middle" x="661" y="-7.5" font-family="Helvetica,sans-Serif" font-size="10.00">string</text>
</g>
<!-- Node12&#45;&gt;Node13 -->
<g id="edge13" class="edge"><title>Node12&#45;&gt;Node13</title>
<path fill="none" stroke="midnightblue" d="M597.67,-56.7808C610.601,-47.4329 627.486,-35.2273 640.568,-25.77"/>
<polygon fill="midnightblue" stroke="midnightblue" points="642.869,-28.4255 648.923,-19.7305 638.768,-22.7526 642.869,-28.4255"/>
</g>
<!-- Node15&#45;&gt;Node4 -->
<g id="edge17" class="edge"><title>Node15&#45;&gt;Node4</title>
<path fill="none" stroke="midnightblue" d="M664.228,-129.569C650.905,-127.707 637.01,-125.779 624,-124 504.055,-107.596 473.279,-108.699 354,-88 341.877,-85.8962 328.662,-83.1763 317.012,-80.6314"/>
<polygon fill="midnightblue" stroke="midnightblue" points="317.765,-77.2136 307.244,-78.46 316.246,-84.0468 317.765,-77.2136"/>
</g>
<!-- Node15&#45;&gt;Node10 -->
<g id="edge18" class="edge"><title>Node15&#45;&gt;Node10</title>
<path fill="none" stroke="midnightblue" d="M719.934,-124.679C712.06,-114.49 701.45,-100.759 693.145,-90.0112"/>
<polygon fill="midnightblue" stroke="midnightblue" points="695.706,-87.6011 686.822,-81.8283 690.167,-91.8812 695.706,-87.6011"/>
</g>
<!-- Node15&#45;&gt;Node12 -->
<g id="edge23" class="edge"><title>Node15&#45;&gt;Node12</title>
<path fill="none" stroke="midnightblue" d="M698.178,-124.841C675.31,-114.977 644.613,-101.735 619.967,-91.1036"/>
<polygon fill="midnightblue" stroke="midnightblue" points="621.074,-87.769 610.505,-87.0218 618.301,-94.1965 621.074,-87.769"/>
</g>
<!-- Node15&#45;&gt;Node13 -->
<g id="edge21" class="edge"><title>Node15&#45;&gt;Node13</title>
<path fill="none" stroke="midnightblue" d="M758.4,-124.964C772.099,-116.333 787.353,-103.871 795,-88 801.173,-75.1873 803.303,-67.547 795,-56 771.573,-23.4204 723.404,-14.101 691.658,-11.6196"/>
<polygon fill="midnightblue" stroke="midnightblue" points="691.772,-8.12024 681.581,-11.0164 691.354,-15.1077 691.772,-8.12024"/>
</g>
<!-- Node16 -->
<g id="node16" class="node"><title>Node16</title>
<polygon fill="white" stroke="#bfbfbf" points="843,-62.5 843,-81.5 883,-81.5 883,-62.5 843,-62.5"/>
<text text-anchor="middle" x="863" y="-69.5" font-family="Helvetica,sans-Serif" font-size="10.00">limits</text>
</g>
<!-- Node15&#45;&gt;Node16 -->
<g id="edge19" class="edge"><title>Node15&#45;&gt;Node16</title>
<path fill="none" stroke="midnightblue" d="M759.317,-124.841C782.149,-113.425 814.03,-97.4852 836.393,-86.3033"/>
<polygon fill="midnightblue" stroke="midnightblue" points="838.257,-89.2846 845.636,-81.6819 835.127,-83.0236 838.257,-89.2846"/>
</g>
<!-- Node17 -->
<g id="node17" class="node"><title>Node17</title>
<polygon fill="white" stroke="#bfbfbf" points="901,-62.5 901,-81.5 945,-81.5 945,-62.5 901,-62.5"/>
<text text-anchor="middle" x="923" y="-69.5" font-family="Helvetica,sans-Serif" font-size="10.00">mutex</text>
</g>
<!-- Node15&#45;&gt;Node17 -->
<g id="edge20" class="edge"><title>Node15&#45;&gt;Node17</title>
<path fill="none" stroke="midnightblue" d="M781.693,-124.978C813.727,-115.62 855.767,-102.418 892,-88 893.642,-87.3465 895.319,-86.6439 896.999,-85.9123"/>
<polygon fill="midnightblue" stroke="midnightblue" points="898.852,-88.9121 906.465,-81.5439 895.919,-82.5562 898.852,-88.9121"/>
</g>
<!-- Node18 -->
<g id="node18" class="node"><title>Node18</title>
<polygon fill="white" stroke="#bfbfbf" points="725.5,-62.5 725.5,-81.5 786.5,-81.5 786.5,-62.5 725.5,-62.5"/>
<text text-anchor="middle" x="756" y="-69.5" font-family="Helvetica,sans-Serif" font-size="10.00">gmt/gmt.h</text>
</g>
<!-- Node15&#45;&gt;Node18 -->
<g id="edge22" class="edge"><title>Node15&#45;&gt;Node18</title>
<path fill="none" stroke="midnightblue" d="M736.425,-124.679C740.13,-114.898 745.071,-101.852 749.063,-91.3148"/>
<polygon fill="midnightblue" stroke="midnightblue" points="752.387,-92.4197 752.656,-81.8283 745.841,-89.9401 752.387,-92.4197"/>
</g>
<!-- Node19&#45;&gt;Node3 -->
<g id="edge25" class="edge"><title>Node19&#45;&gt;Node3</title>
<path fill="none" stroke="midnightblue" d="M266.529,-192.679C281.482,-181.713 302.03,-166.645 317.079,-155.609"/>
<polygon fill="midnightblue" stroke="midnightblue" points="319.227,-158.374 325.221,-149.638 315.087,-152.729 319.227,-158.374"/>
</g>
<!-- Node19&#45;&gt;Node4 -->
<g id="edge26" class="edge"><title>Node19&#45;&gt;Node4</title>
<path fill="none" stroke="midnightblue" d="M252.484,-192.852C256.3,-182.694 261.34,-168.625 265,-156 271.287,-134.313 276.836,-108.956 280.289,-92.03"/>
<polygon fill="midnightblue" stroke="midnightblue" points="283.804,-92.2991 282.328,-81.8076 276.94,-90.9297 283.804,-92.2991"/>
</g>
<!-- Node19&#45;&gt;Node6 -->
<g id="edge27" class="edge"><title>Node19&#45;&gt;Node6</title>
<path fill="none" stroke="midnightblue" d="M223.617,-192.841C205.101,-181.63 179.38,-166.056 160.972,-154.91"/>
<polygon fill="midnightblue" stroke="midnightblue" points="162.705,-151.868 152.338,-149.682 159.08,-157.855 162.705,-151.868"/>
</g>
<!-- Node19&#45;&gt;Node7 -->
<g id="edge28" class="edge"><title>Node19&#45;&gt;Node7</title>
<path fill="none" stroke="midnightblue" d="M240.924,-192.679C236.775,-182.898 231.24,-169.852 226.77,-159.315"/>
<polygon fill="midnightblue" stroke="midnightblue" points="229.873,-157.667 222.745,-149.828 223.429,-160.401 229.873,-157.667"/>
</g>
<!-- Node19&#45;&gt;Node9 -->
<g id="edge29" class="edge"><title>Node19&#45;&gt;Node9</title>
<path fill="none" stroke="midnightblue" d="M306.229,-194.431C364.63,-182.037 452.899,-163.304 507.91,-151.63"/>
<polygon fill="midnightblue" stroke="midnightblue" points="508.725,-155.035 517.78,-149.535 507.272,-148.188 508.725,-155.035"/>
</g>
<!-- Node20&#45;&gt;Node3 -->
<g id="edge31" class="edge"><title>Node20&#45;&gt;Node3</title>
<path fill="none" stroke="midnightblue" d="M483.884,-192.841C450.281,-180.982 402.844,-164.239 371.061,-153.022"/>
<polygon fill="midnightblue" stroke="midnightblue" points="371.924,-149.615 361.329,-149.587 369.594,-156.216 371.924,-149.615"/>
</g>
<!-- Node20&#45;&gt;Node4 -->
<g id="edge32" class="edge"><title>Node20&#45;&gt;Node4</title>
<path fill="none" stroke="midnightblue" d="M515.521,-192.776C503.765,-174.261 480.792,-142.134 453,-124 441.457,-116.468 362.684,-94.3377 316.867,-81.8451"/>
<polygon fill="midnightblue" stroke="midnightblue" points="317.649,-78.4306 307.081,-79.1866 315.813,-85.1858 317.649,-78.4306"/>
</g>
<!-- Node20&#45;&gt;Node5 -->
<g id="edge33" class="edge"><title>Node20&#45;&gt;Node5</title>
<path fill="none" stroke="midnightblue" d="M501.26,-192.841C483.337,-181.681 458.469,-166.198 440.585,-155.063"/>
<polygon fill="midnightblue" stroke="midnightblue" points="442.283,-151.996 431.944,-149.682 438.583,-157.939 442.283,-151.996"/>
</g>
<!-- Node20&#45;&gt;Node9 -->
<g id="edge34" class="edge"><title>Node20&#45;&gt;Node9</title>
<path fill="none" stroke="midnightblue" d="M531.377,-192.679C536.469,-182.796 543.277,-169.579 548.734,-158.986"/>
<polygon fill="midnightblue" stroke="midnightblue" points="551.984,-160.321 553.452,-149.828 545.761,-157.115 551.984,-160.321"/>
</g>
</g>
</svg>
