<?xml version="1.0" encoding="UTF-8" standalone="no"?>
<!DOCTYPE svg PUBLIC "-//W3C//DTD SVG 1.1//EN"
 "http://www.w3.org/Graphics/SVG/1.1/DTD/svg11.dtd">
<!-- Generated by graphviz version 2.36.0 (20140111.2315)
 -->
<!-- Title: include/shad/runtime/mappings/gmt/gmt_asynchronous_interface.h Pages: 1 -->
<svg width="1003pt" height="310pt"
 viewBox="0.00 0.00 1003.00 310.00" xmlns="http://www.w3.org/2000/svg" xmlns:xlink="http://www.w3.org/1999/xlink">
<g id="graph0" class="graph" transform="scale(1 1) rotate(0) translate(4 306)">
<title>include/shad/runtime/mappings/gmt/gmt_asynchronous_interface.h</title>
<polygon fill="white" stroke="none" points="-4,4 -4,-306 999,-306 999,4 -4,4"/>
<!-- Node1 -->
<g id="node1" class="node"><title>Node1</title>
<polygon fill="#bfbfbf" stroke="black" points="370.5,-260.5 370.5,-301.5 537.5,-301.5 537.5,-260.5 370.5,-260.5"/>
<text text-anchor="start" x="378.5" y="-289.5" font-family="Helvetica,sans-Serif" font-size="10.00">include/shad/runtime</text>
<text text-anchor="start" x="378.5" y="-278.5" font-family="Helvetica,sans-Serif" font-size="10.00">/mappings/gmt/gmt_asynchronous</text>
<text text-anchor="middle" x="454" y="-267.5" font-family="Helvetica,sans-Serif" font-size="10.00">_interface.h</text>
</g>
<!-- Node2 -->
<g id="node2" class="node"><title>Node2</title>
<polygon fill="white" stroke="#bfbfbf" points="52,-198.5 52,-217.5 108,-217.5 108,-198.5 52,-198.5"/>
<text text-anchor="middle" x="80" y="-205.5" font-family="Helvetica,sans-Serif" font-size="10.00">algorithm</text>
</g>
<!-- Node1&#45;&gt;Node2 -->
<g id="edge1" class="edge"><title>Node1&#45;&gt;Node2</title>
<path fill="none" stroke="midnightblue" d="M370.255,-270.026C302.604,-260.978 205.288,-245.717 122,-224 118.418,-223.066 114.709,-221.958 111.045,-220.773"/>
<polygon fill="midnightblue" stroke="midnightblue" points="112.166,-217.457 101.571,-217.524 109.895,-224.078 112.166,-217.457"/>
</g>
<!-- Node3 -->
<g id="node3" class="node"><title>Node3</title>
<polygon fill="white" stroke="#bfbfbf" points="0,-130.5 0,-149.5 52,-149.5 52,-130.5 0,-130.5"/>
<text text-anchor="middle" x="26" y="-137.5" font-family="Helvetica,sans-Serif" font-size="10.00">memory</text>
</g>
<!-- Node1&#45;&gt;Node3 -->
<g id="edge2" class="edge"><title>Node1&#45;&gt;Node3</title>
<path fill="none" stroke="midnightblue" d="M370.283,-274.209C309.545,-267.633 226.542,-253.652 159,-224 137.187,-214.424 135.957,-205.009 116,-192 94.8602,-178.22 69.8138,-164.203 51.5174,-154.361"/>
<polygon fill="midnightblue" stroke="midnightblue" points="53.0921,-151.234 42.6213,-149.617 49.7987,-157.411 53.0921,-151.234"/>
</g>
<!-- Node4 -->
<g id="node4" class="node"><title>Node4</title>
<polygon fill="white" stroke="#bfbfbf" points="780,-62.5 780,-81.5 824,-81.5 824,-62.5 780,-62.5"/>
<text text-anchor="middle" x="802" y="-69.5" font-family="Helvetica,sans-Serif" font-size="10.00">mutex</text>
</g>
<!-- Node1&#45;&gt;Node4 -->
<g id="edge3" class="edge"><title>Node1&#45;&gt;Node4</title>
<path fill="none" stroke="midnightblue" d="M537.609,-278.154C624.565,-271.217 756.789,-245.472 821,-156 834.963,-136.544 823.645,-108.475 813.452,-90.4842"/>
<polygon fill="midnightblue" stroke="midnightblue" points="816.261,-88.3676 808.072,-81.6452 810.281,-92.0071 816.261,-88.3676"/>
</g>
<!-- Node5 -->
<g id="node5" class="node"><title>Node5</title>
<polygon fill="white" stroke="#bfbfbf" points="907,-198.5 907,-217.5 937,-217.5 937,-198.5 907,-198.5"/>
<text text-anchor="middle" x="922" y="-205.5" font-family="Helvetica,sans-Serif" font-size="10.00">set</text>
</g>
<!-- Node1&#45;&gt;Node5 -->
<g id="edge4" class="edge"><title>Node1&#45;&gt;Node5</title>
<path fill="none" stroke="midnightblue" d="M537.551,-277.989C627.261,-273.853 773.068,-261.377 893,-224 894.908,-223.405 896.84,-222.69 898.753,-221.899"/>
<polygon fill="midnightblue" stroke="midnightblue" points="900.444,-224.971 907.97,-217.513 897.436,-218.65 900.444,-224.971"/>
</g>
<!-- Node6 -->
<g id="node6" class="node"><title>Node6</title>
<polygon fill="white" stroke="#bfbfbf" points="955,-198.5 955,-217.5 995,-217.5 995,-198.5 955,-198.5"/>
<text text-anchor="middle" x="975" y="-205.5" font-family="Helvetica,sans-Serif" font-size="10.00">utility</text>
</g>
<!-- Node1&#45;&gt;Node6 -->
<g id="edge5" class="edge"><title>Node1&#45;&gt;Node6</title>
<path fill="none" stroke="midnightblue" d="M537.859,-279.279C637.045,-276.421 806.208,-265.207 945,-224 946.968,-223.416 948.962,-222.708 950.939,-221.922"/>
<polygon fill="midnightblue" stroke="midnightblue" points="952.841,-224.9 960.468,-217.546 949.92,-218.539 952.841,-224.9"/>
</g>
<!-- Node7 -->
<g id="node7" class="node"><title>Node7</title>
<polygon fill="white" stroke="#bfbfbf" points="845.5,-62.5 845.5,-81.5 906.5,-81.5 906.5,-62.5 845.5,-62.5"/>
<text text-anchor="middle" x="876" y="-69.5" font-family="Helvetica,sans-Serif" font-size="10.00">gmt/gmt.h</text>
</g>
<!-- Node1&#45;&gt;Node7 -->
<g id="edge6" class="edge"><title>Node1&#45;&gt;Node7</title>
<path fill="none" stroke="midnightblue" d="M537.612,-272.158C620.133,-263.27 739.635,-246.97 780,-224 831.668,-194.598 859.734,-124.775 870.612,-91.3926"/>
<polygon fill="midnightblue" stroke="midnightblue" points="874.036,-92.1675 873.652,-81.5796 867.35,-90.0963 874.036,-92.1675"/>
</g>
<!-- Node8 -->
<g id="node8" class="node"><title>Node8</title>
<g id="a_node8"><a xlink:href="asynchronous__interface_8h.html" target="_top" xlink:title="shad/runtime/asynchronous\l_interface.h">
<polygon fill="white" stroke="black" points="240.5,-193 240.5,-223 377.5,-223 377.5,-193 240.5,-193"/>
<text text-anchor="start" x="248.5" y="-211" font-family="Helvetica,sans-Serif" font-size="10.00">shad/runtime/asynchronous</text>
<text text-anchor="middle" x="309" y="-200" font-family="Helvetica,sans-Serif" font-size="10.00">_interface.h</text>
</a>
</g>
</g>
<!-- Node1&#45;&gt;Node8 -->
<g id="edge7" class="edge"><title>Node1&#45;&gt;Node8</title>
<path fill="none" stroke="midnightblue" d="M413.994,-260.411C393.059,-250.16 367.565,-237.677 346.941,-227.578"/>
<polygon fill="midnightblue" stroke="midnightblue" points="348.363,-224.377 337.842,-223.123 345.284,-230.664 348.363,-224.377"/>
</g>
<!-- Node11 -->
<g id="node11" class="node"><title>Node11</title>
<g id="a_node11"><a xlink:href="handle_8h.html" target="_top" xlink:title="shad/runtime/handle.h">
<polygon fill="white" stroke="black" points="70.5,-130.5 70.5,-149.5 183.5,-149.5 183.5,-130.5 70.5,-130.5"/>
<text text-anchor="middle" x="127" y="-137.5" font-family="Helvetica,sans-Serif" font-size="10.00">shad/runtime/handle.h</text>
</a>
</g>
</g>
<!-- Node1&#45;&gt;Node11 -->
<g id="edge24" class="edge"><title>Node1&#45;&gt;Node11</title>
<path fill="none" stroke="midnightblue" d="M370.341,-275.262C317.748,-269.129 250.215,-255.247 198,-224 170.856,-207.757 148.94,-177.439 136.964,-158.287"/>
<polygon fill="midnightblue" stroke="midnightblue" points="139.925,-156.419 131.768,-149.658 133.928,-160.03 139.925,-156.419"/>
</g>
<!-- Node14 -->
<g id="node14" class="node"><title>Node14</title>
<g id="a_node14"><a xlink:href="mapping__traits_8h.html" target="_top" xlink:title="shad/runtime/mapping\l_traits.h">
<polygon fill="white" stroke="black" points="320.5,-57 320.5,-87 433.5,-87 433.5,-57 320.5,-57"/>
<text text-anchor="start" x="328.5" y="-75" font-family="Helvetica,sans-Serif" font-size="10.00">shad/runtime/mapping</text>
<text text-anchor="middle" x="377" y="-64" font-family="Helvetica,sans-Serif" font-size="10.00">_traits.h</text>
</a>
</g>
</g>
<!-- Node1&#45;&gt;Node14 -->
<g id="edge26" class="edge"><title>Node1&#45;&gt;Node14</title>
<path fill="none" stroke="midnightblue" d="M370.498,-269.778C314.667,-261.029 248.368,-246.269 231,-224 209.648,-196.623 252.68,-130.431 259,-124 273.52,-109.226 293.023,-98.4607 311.987,-90.7397"/>
<polygon fill="midnightblue" stroke="midnightblue" points="313.442,-93.9304 321.526,-87.0823 310.936,-87.3943 313.442,-93.9304"/>
</g>
<!-- Node17 -->
<g id="node17" class="node"><title>Node17</title>
<g id="a_node17"><a xlink:href="locality_8h.html" target="_top" xlink:title="shad/runtime/locality.h">
<polygon fill="white" stroke="black" points="345.5,-130.5 345.5,-149.5 460.5,-149.5 460.5,-130.5 345.5,-130.5"/>
<text text-anchor="middle" x="403" y="-137.5" font-family="Helvetica,sans-Serif" font-size="10.00">shad/runtime/locality.h</text>
</a>
</g>
</g>
<!-- Node1&#45;&gt;Node17 -->
<g id="edge25" class="edge"><title>Node1&#45;&gt;Node17</title>
<path fill="none" stroke="midnightblue" d="M445.599,-260.426C441.1,-249.729 435.561,-236.209 431,-224 422.792,-202.03 414.312,-176.409 408.866,-159.509"/>
<polygon fill="midnightblue" stroke="midnightblue" points="412.138,-158.248 405.759,-149.788 405.47,-160.379 412.138,-158.248"/>
</g>
<!-- Node19 -->
<g id="node19" class="node"><title>Node19</title>
<g id="a_node19"><a xlink:href="gmt__traits__mapping_8h.html" target="_top" xlink:title="shad/runtime/mappings\l/gmt/gmt_traits_mapping.h">
<polygon fill="white" stroke="black" points="679.5,-125 679.5,-155 812.5,-155 812.5,-125 679.5,-125"/>
<text text-anchor="start" x="687.5" y="-143" font-family="Helvetica,sans-Serif" font-size="10.00">shad/runtime/mappings</text>
<text text-anchor="middle" x="746" y="-132" font-family="Helvetica,sans-Serif" font-size="10.00">/gmt/gmt_traits_mapping.h</text>
</a>
</g>
</g>
<!-- Node1&#45;&gt;Node19 -->
<g id="edge27" class="edge"><title>Node1&#45;&gt;Node19</title>
<path fill="none" stroke="midnightblue" d="M495.217,-260.38C551.689,-233.497 652.365,-185.573 707.421,-159.365"/>
<polygon fill="midnightblue" stroke="midnightblue" points="708.975,-162.501 716.5,-155.043 705.967,-156.181 708.975,-162.501"/>
</g>
<!-- Node21 -->
<g id="node21" class="node"><title>Node21</title>
<g id="a_node21"><a xlink:href="gmt__utility_8h.html" target="_top" xlink:title="shad/runtime/mappings\l/gmt/gmt_utility.h">
<polygon fill="white" stroke="black" points="440,-193 440,-223 558,-223 558,-193 440,-193"/>
<text text-anchor="start" x="448" y="-211" font-family="Helvetica,sans-Serif" font-size="10.00">shad/runtime/mappings</text>
<text text-anchor="middle" x="499" y="-200" font-family="Helvetica,sans-Serif" font-size="10.00">/gmt/gmt_utility.h</text>
</a>
</g>
</g>
<!-- Node1&#45;&gt;Node21 -->
<g id="edge35" class="edge"><title>Node1&#45;&gt;Node21</title>
<path fill="none" stroke="midnightblue" d="M466.535,-260.223C472.152,-251.36 478.808,-240.858 484.626,-231.678"/>
<polygon fill="midnightblue" stroke="midnightblue" points="487.699,-233.369 490.096,-223.049 481.786,-229.621 487.699,-233.369"/>
</g>
<!-- Node8&#45;&gt;Node3 -->
<g id="edge10" class="edge"><title>Node8&#45;&gt;Node3</title>
<path fill="none" stroke="midnightblue" d="M240.429,-196.733C190.103,-188.276 120.454,-174.643 61,-156 58.5714,-155.238 56.0817,-154.367 53.6041,-153.435"/>
<polygon fill="midnightblue" stroke="midnightblue" points="54.8467,-150.162 44.2641,-149.652 52.2189,-156.65 54.8467,-150.162"/>
</g>
<!-- Node9 -->
<g id="node9" class="node"><title>Node9</title>
<polygon fill="white" stroke="#bfbfbf" points="278.5,-130.5 278.5,-149.5 327.5,-149.5 327.5,-130.5 278.5,-130.5"/>
<text text-anchor="middle" x="303" y="-137.5" font-family="Helvetica,sans-Serif" font-size="10.00">cstddef</text>
</g>
<!-- Node8&#45;&gt;Node9 -->
<g id="edge8" class="edge"><title>Node8&#45;&gt;Node9</title>
<path fill="none" stroke="midnightblue" d="M307.698,-192.679C306.827,-183.101 305.672,-170.394 304.725,-159.977"/>
<polygon fill="midnightblue" stroke="midnightblue" points="308.194,-159.47 303.803,-149.828 301.222,-160.104 308.194,-159.47"/>
</g>
<!-- Node10 -->
<g id="node10" class="node"><title>Node10</title>
<polygon fill="white" stroke="#bfbfbf" points="498,-62.5 498,-81.5 544,-81.5 544,-62.5 498,-62.5"/>
<text text-anchor="middle" x="521" y="-69.5" font-family="Helvetica,sans-Serif" font-size="10.00">cstdint</text>
</g>
<!-- Node8&#45;&gt;Node10 -->
<g id="edge9" class="edge"><title>Node8&#45;&gt;Node10</title>
<path fill="none" stroke="midnightblue" d="M293.28,-192.934C275.626,-175.444 251.582,-145.297 269,-124 270.744,-121.868 419.69,-92.6893 487.745,-79.4509"/>
<polygon fill="midnightblue" stroke="midnightblue" points="488.789,-82.8135 497.938,-77.4697 487.454,-75.9421 488.789,-82.8135"/>
</g>
<!-- Node8&#45;&gt;Node11 -->
<g id="edge11" class="edge"><title>Node8&#45;&gt;Node11</title>
<path fill="none" stroke="midnightblue" d="M269.956,-192.841C237.252,-180.982 191.084,-164.239 160.15,-153.022"/>
<polygon fill="midnightblue" stroke="midnightblue" points="161.273,-149.706 150.679,-149.587 158.887,-156.286 161.273,-149.706"/>
</g>
<!-- Node8&#45;&gt;Node17 -->
<g id="edge18" class="edge"><title>Node8&#45;&gt;Node17</title>
<path fill="none" stroke="midnightblue" d="M329.397,-192.679C345.014,-181.713 366.475,-166.645 382.194,-155.609"/>
<polygon fill="midnightblue" stroke="midnightblue" points="384.525,-158.249 390.698,-149.638 380.502,-152.52 384.525,-158.249"/>
</g>
<!-- Node12 -->
<g id="node12" class="node"><title>Node12</title>
<polygon fill="white" stroke="#bfbfbf" points="44,-62.5 44,-81.5 106,-81.5 106,-62.5 44,-62.5"/>
<text text-anchor="middle" x="75" y="-69.5" font-family="Helvetica,sans-Serif" font-size="10.00">type_traits</text>
</g>
<!-- Node11&#45;&gt;Node12 -->
<g id="edge12" class="edge"><title>Node11&#45;&gt;Node12</title>
<path fill="none" stroke="midnightblue" d="M120.202,-130.372C112.149,-120.151 98.545,-102.884 88.3602,-89.9571"/>
<polygon fill="midnightblue" stroke="midnightblue" points="90.9037,-87.53 81.9657,-81.8411 85.4053,-91.8621 90.9037,-87.53"/>
</g>
<!-- Node13 -->
<g id="node13" class="node"><title>Node13</title>
<polygon fill="white" stroke="#bfbfbf" points="325,-0.5 325,-19.5 429,-19.5 429,-0.5 325,-0.5"/>
<text text-anchor="middle" x="377" y="-7.5" font-family="Helvetica,sans-Serif" font-size="10.00">shad/config/config.h</text>
</g>
<!-- Node11&#45;&gt;Node13 -->
<g id="edge13" class="edge"><title>Node11&#45;&gt;Node13</title>
<path fill="none" stroke="midnightblue" d="M126.997,-130.463C127.483,-113.544 131.112,-75.6962 153,-56 176.4,-34.9435 256.89,-22.6991 314.683,-16.4338"/>
<polygon fill="midnightblue" stroke="midnightblue" points="315.25,-19.8937 324.83,-15.3694 314.519,-12.9319 315.25,-19.8937"/>
</g>
<!-- Node11&#45;&gt;Node14 -->
<g id="edge14" class="edge"><title>Node11&#45;&gt;Node14</title>
<path fill="none" stroke="midnightblue" d="M159.427,-130.439C198.361,-120.161 264.556,-102.685 313.732,-89.7027"/>
<polygon fill="midnightblue" stroke="midnightblue" points="314.864,-93.024 323.639,-87.0873 313.077,-86.2559 314.864,-93.024"/>
</g>
<!-- Node16 -->
<g id="node16" class="node"><title>Node16</title>
<g id="a_node16"><a xlink:href="available__traits__mappings_8h.html" target="_top" xlink:title="shad/runtime/mappings\l/available_traits_mappings.h">
<polygon fill="white" stroke="black" points="162,-57 162,-87 302,-87 302,-57 162,-57"/>
<text text-anchor="start" x="170" y="-75" font-family="Helvetica,sans-Serif" font-size="10.00">shad/runtime/mappings</text>
<text text-anchor="middle" x="232" y="-64" font-family="Helvetica,sans-Serif" font-size="10.00">/available_traits_mappings.h</text>
</a>
</g>
</g>
<!-- Node11&#45;&gt;Node16 -->
<g id="edge17" class="edge"><title>Node11&#45;&gt;Node16</title>
<path fill="none" stroke="midnightblue" d="M140.727,-130.372C155.932,-120.814 180.94,-105.095 200.938,-92.5248"/>
<polygon fill="midnightblue" stroke="midnightblue" points="202.835,-95.4664 209.439,-87.1815 199.11,-89.54 202.835,-95.4664"/>
</g>
<!-- Node14&#45;&gt;Node13 -->
<g id="edge16" class="edge"><title>Node14&#45;&gt;Node13</title>
<path fill="none" stroke="midnightblue" d="M377,-56.7808C377,-48.7812 377,-38.6887 377,-30.0168"/>
<polygon fill="midnightblue" stroke="midnightblue" points="380.5,-29.7305 377,-19.7305 373.5,-29.7306 380.5,-29.7305"/>
</g>
<!-- Node15 -->
<g id="node15" class="node"><title>Node15</title>
<polygon fill="white" stroke="#bfbfbf" points="589.5,-0.5 589.5,-19.5 630.5,-19.5 630.5,-0.5 589.5,-0.5"/>
<text text-anchor="middle" x="610" y="-7.5" font-family="Helvetica,sans-Serif" font-size="10.00">string</text>
</g>
<!-- Node14&#45;&gt;Node15 -->
<g id="edge15" class="edge"><title>Node14&#45;&gt;Node15</title>
<path fill="none" stroke="midnightblue" d="M431.628,-56.9327C477.734,-45.06 542.053,-28.4972 579.533,-18.8455"/>
<polygon fill="midnightblue" stroke="midnightblue" points="580.544,-22.1994 589.356,-16.3162 578.799,-15.4206 580.544,-22.1994"/>
</g>
<!-- Node17&#45;&gt;Node10 -->
<g id="edge19" class="edge"><title>Node17&#45;&gt;Node10</title>
<path fill="none" stroke="midnightblue" d="M418.426,-130.372C438.303,-119.254 473.085,-99.7997 496.573,-86.6624"/>
<polygon fill="midnightblue" stroke="midnightblue" points="498.551,-89.5667 505.57,-81.6305 495.134,-83.4574 498.551,-89.5667"/>
</g>
<!-- Node17&#45;&gt;Node13 -->
<g id="edge21" class="edge"><title>Node17&#45;&gt;Node13</title>
<path fill="none" stroke="midnightblue" d="M412.734,-130.155C428.347,-114.847 455.892,-82.513 442,-56 434.721,-42.1082 420.991,-31.6523 408.017,-24.3328"/>
<polygon fill="midnightblue" stroke="midnightblue" points="409.296,-21.0532 398.808,-19.553 406.072,-27.2662 409.296,-21.0532"/>
</g>
<!-- Node17&#45;&gt;Node14 -->
<g id="edge22" class="edge"><title>Node17&#45;&gt;Node14</title>
<path fill="none" stroke="midnightblue" d="M399.601,-130.372C396.224,-121.8 390.895,-108.272 386.259,-96.5045"/>
<polygon fill="midnightblue" stroke="midnightblue" points="389.508,-95.2027 382.587,-87.1815 382.996,-97.7684 389.508,-95.2027"/>
</g>
<!-- Node17&#45;&gt;Node16 -->
<g id="edge23" class="edge"><title>Node17&#45;&gt;Node16</title>
<path fill="none" stroke="midnightblue" d="M380.645,-130.372C354.69,-120.354 311.194,-103.566 277.94,-90.7312"/>
<polygon fill="midnightblue" stroke="midnightblue" points="279.008,-87.3918 268.418,-87.0562 276.487,-93.9223 279.008,-87.3918"/>
</g>
<!-- Node18 -->
<g id="node18" class="node"><title>Node18</title>
<polygon fill="white" stroke="#bfbfbf" points="591,-62.5 591,-81.5 645,-81.5 645,-62.5 591,-62.5"/>
<text text-anchor="middle" x="618" y="-69.5" font-family="Helvetica,sans-Serif" font-size="10.00">iostream</text>
</g>
<!-- Node17&#45;&gt;Node18 -->
<g id="edge20" class="edge"><title>Node17&#45;&gt;Node18</title>
<path fill="none" stroke="midnightblue" d="M431.107,-130.372C469.57,-118.565 538.669,-97.3527 581.212,-84.2929"/>
<polygon fill="midnightblue" stroke="midnightblue" points="582.37,-87.5988 590.903,-81.3182 580.316,-80.907 582.37,-87.5988"/>
</g>
<!-- Node19&#45;&gt;Node4 -->
<g id="edge31" class="edge"><title>Node19&#45;&gt;Node4</title>
<path fill="none" stroke="midnightblue" d="M758.151,-124.679C766.883,-114.388 778.68,-100.484 787.839,-89.6897"/>
<polygon fill="midnightblue" stroke="midnightblue" points="790.708,-91.7178 794.509,-81.8283 785.371,-87.189 790.708,-91.7178"/>
</g>
<!-- Node19&#45;&gt;Node7 -->
<g id="edge33" class="edge"><title>Node19&#45;&gt;Node7</title>
<path fill="none" stroke="midnightblue" d="M773.888,-124.841C796.374,-113.425 827.772,-97.4852 849.796,-86.3033"/>
<polygon fill="midnightblue" stroke="midnightblue" points="851.567,-89.3297 858.899,-81.6819 848.398,-83.088 851.567,-89.3297"/>
</g>
<!-- Node19&#45;&gt;Node10 -->
<g id="edge28" class="edge"><title>Node19&#45;&gt;Node10</title>
<path fill="none" stroke="midnightblue" d="M698.008,-124.922C654.712,-112.222 592.165,-93.8749 554.179,-82.7324"/>
<polygon fill="midnightblue" stroke="midnightblue" points="554.733,-79.2476 544.152,-79.7913 552.763,-85.9646 554.733,-79.2476"/>
</g>
<!-- Node19&#45;&gt;Node14 -->
<g id="edge34" class="edge"><title>Node19&#45;&gt;Node14</title>
<path fill="none" stroke="midnightblue" d="M679.177,-127.048C612.406,-115.105 510.345,-96.8503 443.639,-84.9192"/>
<polygon fill="midnightblue" stroke="midnightblue" points="444.116,-81.4489 433.656,-83.1335 442.883,-88.3396 444.116,-81.4489"/>
</g>
<!-- Node19&#45;&gt;Node15 -->
<g id="edge32" class="edge"><title>Node19&#45;&gt;Node15</title>
<path fill="none" stroke="midnightblue" d="M746.587,-124.89C746.572,-106.793 743.85,-75.4334 727,-56 705.1,-30.7424 667.356,-19.5938 640.668,-14.7162"/>
<polygon fill="midnightblue" stroke="midnightblue" points="641.12,-11.2438 630.687,-13.087 639.992,-18.1524 641.12,-11.2438"/>
</g>
<!-- Node19&#45;&gt;Node18 -->
<g id="edge29" class="edge"><title>Node19&#45;&gt;Node18</title>
<path fill="none" stroke="midnightblue" d="M718.541,-124.841C696.401,-113.425 665.486,-97.4852 643.8,-86.3033"/>
<polygon fill="midnightblue" stroke="midnightblue" points="645.33,-83.154 634.838,-81.6819 642.122,-89.3756 645.33,-83.154"/>
</g>
<!-- Node20 -->
<g id="node20" class="node"><title>Node20</title>
<polygon fill="white" stroke="#bfbfbf" points="678,-62.5 678,-81.5 718,-81.5 718,-62.5 678,-62.5"/>
<text text-anchor="middle" x="698" y="-69.5" font-family="Helvetica,sans-Serif" font-size="10.00">limits</text>
</g>
<!-- Node19&#45;&gt;Node20 -->
<g id="edge30" class="edge"><title>Node19&#45;&gt;Node20</title>
<path fill="none" stroke="midnightblue" d="M735.585,-124.679C728.175,-114.49 718.188,-100.759 710.372,-90.0112"/>
<polygon fill="midnightblue" stroke="midnightblue" points="713.133,-87.8571 704.421,-81.8283 707.472,-91.9743 713.133,-87.8571"/>
</g>
<!-- Node21&#45;&gt;Node9 -->
<g id="edge36" class="edge"><title>Node21&#45;&gt;Node9</title>
<path fill="none" stroke="midnightblue" d="M448.515,-192.953C416.036,-183.489 373.116,-170.18 336,-156 334.104,-155.276 332.162,-154.496 330.216,-153.686"/>
<polygon fill="midnightblue" stroke="midnightblue" points="331.206,-150.299 320.641,-149.504 328.404,-156.714 331.206,-150.299"/>
</g>
<!-- Node21&#45;&gt;Node10 -->
<g id="edge37" class="edge"><title>Node21&#45;&gt;Node10</title>
<path fill="none" stroke="midnightblue" d="M558.177,-199.65C585.416,-192.975 615.327,-180.25 632,-156 640.058,-144.281 639.675,-135.973 632,-124 622.977,-109.924 582.96,-93.8403 553.552,-83.5617"/>
<polygon fill="midnightblue" stroke="midnightblue" points="554.64,-80.2349 544.045,-80.3098 552.374,-86.8581 554.64,-80.2349"/>
</g>
<!-- Node21&#45;&gt;Node17 -->
<g id="edge40" class="edge"><title>Node21&#45;&gt;Node17</title>
<path fill="none" stroke="midnightblue" d="M478.169,-192.679C462.22,-181.713 440.302,-166.645 424.249,-155.609"/>
<polygon fill="midnightblue" stroke="midnightblue" points="425.787,-152.419 415.564,-149.638 421.822,-158.187 425.787,-152.419"/>
</g>
<!-- Node22 -->
<g id="node22" class="node"><title>Node22</title>
<polygon fill="white" stroke="#bfbfbf" points="479,-130.5 479,-149.5 531,-149.5 531,-130.5 479,-130.5"/>
<text text-anchor="middle" x="505" y="-137.5" font-family="Helvetica,sans-Serif" font-size="10.00">sstream</text>
</g>
<!-- Node21&#45;&gt;Node22 -->
<g id="edge38" class="edge"><title>Node21&#45;&gt;Node22</title>
<path fill="none" stroke="midnightblue" d="M500.302,-192.679C501.173,-183.101 502.328,-170.394 503.275,-159.977"/>
<polygon fill="midnightblue" stroke="midnightblue" points="506.778,-160.104 504.197,-149.828 499.806,-159.47 506.778,-160.104"/>
</g>
<!-- Node23 -->
<g id="node23" class="node"><title>Node23</title>
<polygon fill="white" stroke="#bfbfbf" points="549,-130.5 549,-149.5 623,-149.5 623,-130.5 549,-130.5"/>
<text text-anchor="middle" x="586" y="-137.5" font-family="Helvetica,sans-Serif" font-size="10.00">system_error</text>
</g>
<!-- Node21&#45;&gt;Node23 -->
<g id="edge39" class="edge"><title>Node21&#45;&gt;Node23</title>
<path fill="none" stroke="midnightblue" d="M517.878,-192.679C532.114,-181.879 551.598,-167.098 566.082,-156.11"/>
<polygon fill="midnightblue" stroke="midnightblue" points="568.511,-158.661 574.363,-149.828 564.28,-153.084 568.511,-158.661"/>
</g>
</g>
</svg>
