<?xml version="1.0" encoding="UTF-8" standalone="no"?>
<!DOCTYPE svg PUBLIC "-//W3C//DTD SVG 1.1//EN"
 "http://www.w3.org/Graphics/SVG/1.1/DTD/svg11.dtd">
<!-- Generated by graphviz version 2.36.0 (20140111.2315)
 -->
<!-- Title: include/shad/runtime/handle.h Pages: 1 -->
<svg width="398pt" height="164pt"
 viewBox="0.00 0.00 398.00 164.00" xmlns="http://www.w3.org/2000/svg" xmlns:xlink="http://www.w3.org/1999/xlink">
<g id="graph0" class="graph" transform="scale(1 1) rotate(0) translate(4 160)">
<title>include/shad/runtime/handle.h</title>
<polygon fill="white" stroke="none" points="-4,4 -4,-160 394,-160 394,4 -4,4"/>
<!-- Node1 -->
<g id="node1" class="node"><title>Node1</title>
<polygon fill="#bfbfbf" stroke="black" points="78.5,-125 78.5,-155 185.5,-155 185.5,-125 78.5,-125"/>
<text text-anchor="start" x="86.5" y="-143" font-family="Helvetica,sans-Serif" font-size="10.00">include/shad/runtime</text>
<text text-anchor="middle" x="132" y="-132" font-family="Helvetica,sans-Serif" font-size="10.00">/handle.h</text>
</g>
<!-- Node2 -->
<g id="node2" class="node"><title>Node2</title>
<polygon fill="white" stroke="#bfbfbf" points="0,-62.5 0,-81.5 62,-81.5 62,-62.5 0,-62.5"/>
<text text-anchor="middle" x="31" y="-69.5" font-family="Helvetica,sans-Serif" font-size="10.00">type_traits</text>
</g>
<!-- Node1&#45;&gt;Node2 -->
<g id="edge1" class="edge"><title>Node1&#45;&gt;Node2</title>
<path fill="none" stroke="midnightblue" d="M110.085,-124.679C93.147,-113.611 69.813,-98.363 52.8836,-87.3002"/>
<polygon fill="midnightblue" stroke="midnightblue" points="54.5044,-84.1783 44.2186,-81.6379 50.6751,-90.0381 54.5044,-84.1783"/>
</g>
<!-- Node3 -->
<g id="node3" class="node"><title>Node3</title>
<polygon fill="white" stroke="#bfbfbf" points="38,-0.5 38,-19.5 142,-19.5 142,-0.5 38,-0.5"/>
<text text-anchor="middle" x="90" y="-7.5" font-family="Helvetica,sans-Serif" font-size="10.00">shad/config/config.h</text>
</g>
<!-- Node1&#45;&gt;Node3 -->
<g id="edge2" class="edge"><title>Node1&#45;&gt;Node3</title>
<path fill="none" stroke="midnightblue" d="M124.849,-124.992C119.904,-114.9 113.442,-100.852 109,-88 102.268,-68.5224 96.9128,-45.4998 93.6261,-29.7354"/>
<polygon fill="midnightblue" stroke="midnightblue" points="97.0098,-28.8081 91.6082,-19.6937 90.147,-30.1872 97.0098,-28.8081"/>
</g>
<!-- Node4 -->
<g id="node4" class="node"><title>Node4</title>
<g id="a_node4"><a xlink:href="mapping__traits_8h.html" target="_top" xlink:title="shad/runtime/mapping\l_traits.h">
<polygon fill="white" stroke="black" points="118.5,-57 118.5,-87 231.5,-87 231.5,-57 118.5,-57"/>
<text text-anchor="start" x="126.5" y="-75" font-family="Helvetica,sans-Serif" font-size="10.00">shad/runtime/mapping</text>
<text text-anchor="middle" x="175" y="-64" font-family="Helvetica,sans-Serif" font-size="10.00">_traits.h</text>
</a>
</g>
</g>
<!-- Node1&#45;&gt;Node4 -->
<g id="edge3" class="edge"><title>Node1&#45;&gt;Node4</title>
<path fill="none" stroke="midnightblue" d="M141.33,-124.679C146.796,-116.29 153.826,-105.499 160.048,-95.9495"/>
<polygon fill="midnightblue" stroke="midnightblue" points="163.162,-97.5823 165.688,-87.2931 157.296,-93.7611 163.162,-97.5823"/>
</g>
<!-- Node6 -->
<g id="node6" class="node"><title>Node6</title>
<g id="a_node6"><a xlink:href="available__traits__mappings_8h.html" target="_top" xlink:title="shad/runtime/mappings\l/available_traits_mappings.h">
<polygon fill="white" stroke="black" points="250,-57 250,-87 390,-87 390,-57 250,-57"/>
<text text-anchor="start" x="258" y="-75" font-family="Helvetica,sans-Serif" font-size="10.00">shad/runtime/mappings</text>
<text text-anchor="middle" x="320" y="-64" font-family="Helvetica,sans-Serif" font-size="10.00">/available_traits_mappings.h</text>
</a>
</g>
</g>
<!-- Node1&#45;&gt;Node6 -->
<g id="edge6" class="edge"><title>Node1&#45;&gt;Node6</title>
<path fill="none" stroke="midnightblue" d="M172.331,-124.841C201.051,-114.759 239.822,-101.147 270.431,-90.4018"/>
<polygon fill="midnightblue" stroke="midnightblue" points="271.783,-93.6367 280.059,-87.0218 269.464,-87.0319 271.783,-93.6367"/>
</g>
<!-- Node4&#45;&gt;Node3 -->
<g id="edge5" class="edge"><title>Node4&#45;&gt;Node3</title>
<path fill="none" stroke="midnightblue" d="M154.856,-56.7808C141.405,-47.2862 123.778,-34.8434 110.296,-25.3267"/>
<polygon fill="midnightblue" stroke="midnightblue" points="112.309,-22.4632 102.121,-19.5557 108.272,-28.182 112.309,-22.4632"/>
</g>
<!-- Node5 -->
<g id="node5" class="node"><title>Node5</title>
<polygon fill="white" stroke="#bfbfbf" points="160.5,-0.5 160.5,-19.5 201.5,-19.5 201.5,-0.5 160.5,-0.5"/>
<text text-anchor="middle" x="181" y="-7.5" font-family="Helvetica,sans-Serif" font-size="10.00">string</text>
</g>
<!-- Node4&#45;&gt;Node5 -->
<g id="edge4" class="edge"><title>Node4&#45;&gt;Node5</title>
<path fill="none" stroke="midnightblue" d="M176.422,-56.7808C177.231,-48.6913 178.254,-38.4617 179.127,-29.725"/>
<polygon fill="midnightblue" stroke="midnightblue" points="182.614,-30.0292 180.127,-19.7305 175.649,-29.3326 182.614,-30.0292"/>
</g>
</g>
</svg>
