<?xml version="1.0" encoding="UTF-8" standalone="no"?>
<!DOCTYPE svg PUBLIC "-//W3C//DTD SVG 1.1//EN"
 "http://www.w3.org/Graphics/SVG/1.1/DTD/svg11.dtd">
<!-- Generated by graphviz version 2.36.0 (20140111.2315)
 -->
<!-- Title: include/shad/data_structures/hashmap.h Pages: 1 -->
<svg width="1631pt" height="504pt"
 viewBox="0.00 0.00 1631.43 504.00" xmlns="http://www.w3.org/2000/svg" xmlns:xlink="http://www.w3.org/1999/xlink">
<g id="graph0" class="graph" transform="scale(1 1) rotate(0) translate(4 500)">
<title>include/shad/data_structures/hashmap.h</title>
<polygon fill="white" stroke="none" points="-4,4 -4,-500 1627.43,-500 1627.43,4 -4,4"/>
<!-- Node1 -->
<g id="node1" class="node"><title>Node1</title>
<polygon fill="#bfbfbf" stroke="black" points="455.433,-465 455.433,-495 597.433,-495 597.433,-465 455.433,-465"/>
<text text-anchor="start" x="463.433" y="-483" font-family="Helvetica,sans-Serif" font-size="10.00">include/shad/data_structures</text>
<text text-anchor="middle" x="526.433" y="-472" font-family="Helvetica,sans-Serif" font-size="10.00">/hashmap.h</text>
</g>
<!-- Node2 -->
<g id="node2" class="node"><title>Node2</title>
<polygon fill="white" stroke="#bfbfbf" points="29.4332,-198.5 29.4332,-217.5 85.4332,-217.5 85.4332,-198.5 29.4332,-198.5"/>
<text text-anchor="middle" x="57.4332" y="-205.5" font-family="Helvetica,sans-Serif" font-size="10.00">algorithm</text>
</g>
<!-- Node1&#45;&gt;Node2 -->
<g id="edge1" class="edge"><title>Node1&#45;&gt;Node2</title>
<path fill="none" stroke="midnightblue" d="M455.316,-467.853C375.712,-452.928 245.217,-420.957 148.433,-360 109.234,-335.311 91.7181,-332.615 69.4332,-292 58.4599,-272.001 56.4236,-245.392 56.4953,-227.755"/>
<polygon fill="midnightblue" stroke="midnightblue" points="59.9977,-227.713 56.7741,-217.62 53.0003,-227.52 59.9977,-227.713"/>
</g>
<!-- Node3 -->
<g id="node3" class="node"><title>Node3</title>
<polygon fill="white" stroke="#bfbfbf" points="121.933,-130.5 121.933,-149.5 180.933,-149.5 180.933,-130.5 121.933,-130.5"/>
<text text-anchor="middle" x="151.433" y="-137.5" font-family="Helvetica,sans-Serif" font-size="10.00">functional</text>
</g>
<!-- Node1&#45;&gt;Node3 -->
<g id="edge2" class="edge"><title>Node1&#45;&gt;Node3</title>
<path fill="none" stroke="midnightblue" d="M455.356,-475.676C311.932,-467.024 1.43325,-437.598 1.43325,-345 1.43325,-345 1.43325,-345 1.43325,-275 1.43325,-237.157 -4.29974,-220.642 20.4332,-192 43.5482,-165.231 82.4709,-152.426 111.898,-146.354"/>
<polygon fill="midnightblue" stroke="midnightblue" points="112.69,-149.766 121.869,-144.475 111.394,-142.887 112.69,-149.766"/>
</g>
<!-- Node4 -->
<g id="node4" class="node"><title>Node4</title>
<polygon fill="white" stroke="#bfbfbf" points="589.433,-266.5 589.433,-285.5 627.433,-285.5 627.433,-266.5 589.433,-266.5"/>
<text text-anchor="middle" x="608.433" y="-273.5" font-family="Helvetica,sans-Serif" font-size="10.00">tuple</text>
</g>
<!-- Node1&#45;&gt;Node4 -->
<g id="edge3" class="edge"><title>Node1&#45;&gt;Node4</title>
<path fill="none" stroke="midnightblue" d="M552.002,-464.889C565.416,-456.091 580.813,-443.494 589.433,-428 613.135,-385.399 612.541,-325.768 610.361,-295.784"/>
<polygon fill="midnightblue" stroke="midnightblue" points="613.821,-295.177 609.462,-285.521 606.848,-295.788 613.821,-295.177"/>
</g>
<!-- Node5 -->
<g id="node5" class="node"><title>Node5</title>
<polygon fill="white" stroke="#bfbfbf" points="1451.43,-198.5 1451.43,-217.5 1491.43,-217.5 1491.43,-198.5 1451.43,-198.5"/>
<text text-anchor="middle" x="1471.43" y="-205.5" font-family="Helvetica,sans-Serif" font-size="10.00">utility</text>
</g>
<!-- Node1&#45;&gt;Node5 -->
<g id="edge4" class="edge"><title>Node1&#45;&gt;Node5</title>
<path fill="none" stroke="midnightblue" d="M597.48,-479.599C695.79,-478.676 877.983,-470.606 1026.43,-428 1199.62,-378.293 1387.01,-263.52 1449.67,-223.266"/>
<polygon fill="midnightblue" stroke="midnightblue" points="1451.81,-226.044 1458.31,-217.674 1448.01,-220.167 1451.81,-226.044"/>
</g>
<!-- Node6 -->
<g id="node6" class="node"><title>Node6</title>
<polygon fill="white" stroke="#bfbfbf" points="453.433,-198.5 453.433,-217.5 497.433,-217.5 497.433,-198.5 453.433,-198.5"/>
<text text-anchor="middle" x="475.433" y="-205.5" font-family="Helvetica,sans-Serif" font-size="10.00">vector</text>
</g>
<!-- Node1&#45;&gt;Node6 -->
<g id="edge5" class="edge"><title>Node1&#45;&gt;Node6</title>
<path fill="none" stroke="midnightblue" d="M498.899,-464.841C466.029,-446.081 413.148,-409.496 394.433,-360 385.983,-337.651 401.686,-264.512 404.433,-260 414.369,-243.683 431.699,-231.082 446.75,-222.488"/>
<polygon fill="midnightblue" stroke="midnightblue" points="448.589,-225.473 455.741,-217.657 445.275,-219.307 448.589,-225.473"/>
</g>
<!-- Node7 -->
<g id="node7" class="node"><title>Node7</title>
<g id="a_node7"><a xlink:href="abstract__data__structure_8h.html" target="_top" xlink:title="shad/data_structures\l/abstract_data_structure.h">
<polygon fill="white" stroke="black" points="858.933,-397 858.933,-427 989.933,-427 989.933,-397 858.933,-397"/>
<text text-anchor="start" x="866.933" y="-415" font-family="Helvetica,sans-Serif" font-size="10.00">shad/data_structures</text>
<text text-anchor="middle" x="924.433" y="-404" font-family="Helvetica,sans-Serif" font-size="10.00">/abstract_data_structure.h</text>
</a>
</g>
</g>
<!-- Node1&#45;&gt;Node7 -->
<g id="edge6" class="edge"><title>Node1&#45;&gt;Node7</title>
<path fill="none" stroke="midnightblue" d="M597.588,-467.201C668.379,-455.461 776.601,-437.515 848.891,-425.527"/>
<polygon fill="midnightblue" stroke="midnightblue" points="849.553,-428.965 858.846,-423.876 848.408,-422.059 849.553,-428.965"/>
</g>
<!-- Node13 -->
<g id="node13" class="node"><title>Node13</title>
<g id="a_node13"><a xlink:href="runtime_8h.html" target="_top" xlink:title="shad/runtime/runtime.h">
<polygon fill="white" stroke="black" points="870.433,-266.5 870.433,-285.5 986.433,-285.5 986.433,-266.5 870.433,-266.5"/>
<text text-anchor="middle" x="928.433" y="-273.5" font-family="Helvetica,sans-Serif" font-size="10.00">shad/runtime/runtime.h</text>
</a>
</g>
</g>
<!-- Node1&#45;&gt;Node13 -->
<g id="edge82" class="edge"><title>Node1&#45;&gt;Node13</title>
<path fill="none" stroke="midnightblue" d="M597.795,-475.49C722.044,-468.768 967.856,-452.532 998.433,-428 1034,-399.461 1044.67,-367.242 1021.43,-328 1010.36,-309.294 989.719,-296.995 970.694,-289.172"/>
<polygon fill="midnightblue" stroke="midnightblue" points="971.834,-285.861 961.243,-285.581 969.347,-292.404 971.834,-285.861"/>
</g>
<!-- Node30 -->
<g id="node30" class="node"><title>Node30</title>
<g id="a_node30"><a xlink:href="buffer_8h.html" target="_top" xlink:title="shad/data_structures\l/buffer.h">
<polygon fill="white" stroke="black" points="472.433,-397 472.433,-427 580.433,-427 580.433,-397 472.433,-397"/>
<text text-anchor="start" x="480.433" y="-415" font-family="Helvetica,sans-Serif" font-size="10.00">shad/data_structures</text>
<text text-anchor="middle" x="526.433" y="-404" font-family="Helvetica,sans-Serif" font-size="10.00">/buffer.h</text>
</a>
</g>
</g>
<!-- Node1&#45;&gt;Node30 -->
<g id="edge51" class="edge"><title>Node1&#45;&gt;Node30</title>
<path fill="none" stroke="midnightblue" d="M526.433,-464.679C526.433,-456.722 526.433,-446.605 526.433,-437.436"/>
<polygon fill="midnightblue" stroke="midnightblue" points="529.933,-437.293 526.433,-427.293 522.933,-437.293 529.933,-437.293"/>
</g>
<!-- Node32 -->
<g id="node32" class="node"><title>Node32</title>
<g id="a_node32"><a xlink:href="compare__and__hash__utils_8h.html" target="_top" xlink:title="shad/data_structures\l/compare_and_hash_utils.h">
<polygon fill="white" stroke="black" points="186.433,-261 186.433,-291 322.433,-291 322.433,-261 186.433,-261"/>
<text text-anchor="start" x="194.433" y="-279" font-family="Helvetica,sans-Serif" font-size="10.00">shad/data_structures</text>
<text text-anchor="middle" x="254.433" y="-268" font-family="Helvetica,sans-Serif" font-size="10.00">/compare_and_hash_utils.h</text>
</a>
</g>
</g>
<!-- Node1&#45;&gt;Node32 -->
<g id="edge58" class="edge"><title>Node1&#45;&gt;Node32</title>
<path fill="none" stroke="midnightblue" d="M455.348,-473.518C416.779,-467.419 370.223,-454.648 336.433,-428 294.584,-394.996 271.208,-334.511 260.904,-300.979"/>
<polygon fill="midnightblue" stroke="midnightblue" points="264.183,-299.72 258.011,-291.108 257.465,-301.689 264.183,-299.72"/>
</g>
<!-- Node35 -->
<g id="node35" class="node"><title>Node35</title>
<g id="a_node35"><a xlink:href="local__hashmap_8h.html" target="_top" xlink:title="shad/data_structures\l/local_hashmap.h">
<polygon fill="white" stroke="black" points="416.433,-329 416.433,-359 524.433,-359 524.433,-329 416.433,-329"/>
<text text-anchor="start" x="424.433" y="-347" font-family="Helvetica,sans-Serif" font-size="10.00">shad/data_structures</text>
<text text-anchor="middle" x="470.433" y="-336" font-family="Helvetica,sans-Serif" font-size="10.00">/local_hashmap.h</text>
</a>
</g>
</g>
<!-- Node1&#45;&gt;Node35 -->
<g id="edge68" class="edge"><title>Node1&#45;&gt;Node35</title>
<path fill="none" stroke="midnightblue" d="M499.45,-464.867C485.962,-456.207 470.947,-443.749 463.433,-428 454.667,-409.626 457.66,-386.36 462.129,-369.139"/>
<polygon fill="midnightblue" stroke="midnightblue" points="465.56,-369.876 465.01,-359.295 458.842,-367.909 465.56,-369.876"/>
</g>
<!-- Node36 -->
<g id="node36" class="node"><title>Node36</title>
<g id="a_node36"><a xlink:href="distributed__iterator__traits_8h.html" target="_top" xlink:title="shad/distributed_iterator\l_traits.h">
<polygon fill="white" stroke="black" points="1408.93,-261 1408.93,-291 1529.93,-291 1529.93,-261 1408.93,-261"/>
<text text-anchor="start" x="1416.93" y="-279" font-family="Helvetica,sans-Serif" font-size="10.00">shad/distributed_iterator</text>
<text text-anchor="middle" x="1469.43" y="-268" font-family="Helvetica,sans-Serif" font-size="10.00">_traits.h</text>
</a>
</g>
</g>
<!-- Node1&#45;&gt;Node36 -->
<g id="edge78" class="edge"><title>Node1&#45;&gt;Node36</title>
<path fill="none" stroke="midnightblue" d="M597.438,-477.528C781.846,-473.281 1266.2,-459.257 1331.43,-428 1389.98,-399.947 1435.28,-334.957 1456.4,-300.09"/>
<polygon fill="midnightblue" stroke="midnightblue" points="1459.63,-301.5 1461.71,-291.11 1453.61,-297.939 1459.63,-301.5"/>
</g>
<!-- Node7&#45;&gt;Node4 -->
<g id="edge10" class="edge"><title>Node7&#45;&gt;Node4</title>
<path fill="none" stroke="midnightblue" d="M858.928,-397.555C823.322,-389.065 779.012,-376.55 741.433,-360 698.395,-341.045 652.867,-309.868 627.815,-291.601"/>
<polygon fill="midnightblue" stroke="midnightblue" points="629.678,-288.626 619.555,-285.502 625.521,-294.258 629.678,-288.626"/>
</g>
<!-- Node7&#45;&gt;Node5 -->
<g id="edge11" class="edge"><title>Node7&#45;&gt;Node5</title>
<path fill="none" stroke="midnightblue" d="M958.256,-396.935C1037.85,-363.933 1235.38,-282.613 1303.43,-260 1361.95,-240.555 1379.28,-244.506 1437.43,-224 1439.56,-223.25 1441.74,-222.426 1443.92,-221.561"/>
<polygon fill="midnightblue" stroke="midnightblue" points="1445.43,-224.722 1453.29,-217.618 1442.71,-218.27 1445.43,-224.722"/>
</g>
<!-- Node7&#45;&gt;Node6 -->
<g id="edge12" class="edge"><title>Node7&#45;&gt;Node6</title>
<path fill="none" stroke="midnightblue" d="M917.819,-396.911C908.718,-378.838 890.773,-347.503 867.433,-328 810.953,-280.805 786.395,-282.862 716.433,-260 706.493,-256.752 571.035,-228.691 507.68,-215.633"/>
<polygon fill="midnightblue" stroke="midnightblue" points="508.304,-212.188 497.803,-213.598 506.891,-219.044 508.304,-212.188"/>
</g>
<!-- Node8 -->
<g id="node8" class="node"><title>Node8</title>
<polygon fill="white" stroke="#bfbfbf" points="952.933,-334.5 952.933,-353.5 995.933,-353.5 995.933,-334.5 952.933,-334.5"/>
<text text-anchor="middle" x="974.433" y="-341.5" font-family="Helvetica,sans-Serif" font-size="10.00">deque</text>
</g>
<!-- Node7&#45;&gt;Node8 -->
<g id="edge7" class="edge"><title>Node7&#45;&gt;Node8</title>
<path fill="none" stroke="midnightblue" d="M935.283,-396.679C943.001,-386.49 953.404,-372.759 961.546,-362.011"/>
<polygon fill="midnightblue" stroke="midnightblue" points="964.496,-363.913 967.745,-353.828 958.917,-359.686 964.496,-363.913"/>
</g>
<!-- Node9 -->
<g id="node9" class="node"><title>Node9</title>
<polygon fill="white" stroke="#bfbfbf" points="1042.43,-266.5 1042.43,-285.5 1082.43,-285.5 1082.43,-266.5 1042.43,-266.5"/>
<text text-anchor="middle" x="1062.43" y="-273.5" font-family="Helvetica,sans-Serif" font-size="10.00">limits</text>
</g>
<!-- Node7&#45;&gt;Node9 -->
<g id="edge8" class="edge"><title>Node7&#45;&gt;Node9</title>
<path fill="none" stroke="midnightblue" d="M963.979,-396.953C983.184,-388.574 1005.49,-376.347 1021.43,-360 1039.36,-341.617 1050.88,-313.857 1057.01,-295.58"/>
<polygon fill="midnightblue" stroke="midnightblue" points="1060.41,-296.415 1060.07,-285.826 1053.73,-294.32 1060.41,-296.415"/>
</g>
<!-- Node10 -->
<g id="node10" class="node"><title>Node10</title>
<polygon fill="white" stroke="#bfbfbf" points="548.433,-130.5 548.433,-149.5 600.433,-149.5 600.433,-130.5 548.433,-130.5"/>
<text text-anchor="middle" x="574.433" y="-137.5" font-family="Helvetica,sans-Serif" font-size="10.00">memory</text>
</g>
<!-- Node7&#45;&gt;Node10 -->
<g id="edge9" class="edge"><title>Node7&#45;&gt;Node10</title>
<path fill="none" stroke="midnightblue" d="M922.555,-396.914C919.555,-379.128 912.209,-348.394 895.433,-328 857.469,-281.847 834.583,-283.019 779.433,-260 722.128,-236.081 696.867,-257.268 644.433,-224 618.003,-207.231 596.408,-177.294 584.496,-158.328"/>
<polygon fill="midnightblue" stroke="midnightblue" points="587.348,-156.28 579.176,-149.538 581.36,-159.905 587.348,-156.28"/>
</g>
<!-- Node11 -->
<g id="node11" class="node"><title>Node11</title>
<g id="a_node11"><a xlink:href="object__identifier_8h.html" target="_top" xlink:title="shad/data_structures\l/object_identifier.h">
<polygon fill="white" stroke="black" points="750.433,-329 750.433,-359 858.433,-359 858.433,-329 750.433,-329"/>
<text text-anchor="start" x="758.433" y="-347" font-family="Helvetica,sans-Serif" font-size="10.00">shad/data_structures</text>
<text text-anchor="middle" x="804.433" y="-336" font-family="Helvetica,sans-Serif" font-size="10.00">/object_identifier.h</text>
</a>
</g>
</g>
<!-- Node7&#45;&gt;Node11 -->
<g id="edge13" class="edge"><title>Node7&#45;&gt;Node11</title>
<path fill="none" stroke="midnightblue" d="M898.69,-396.841C881.291,-387.272 858.111,-374.523 839.092,-364.062"/>
<polygon fill="midnightblue" stroke="midnightblue" points="840.583,-360.888 830.134,-359.135 837.209,-367.021 840.583,-360.888"/>
</g>
<!-- Node7&#45;&gt;Node13 -->
<g id="edge50" class="edge"><title>Node7&#45;&gt;Node13</title>
<path fill="none" stroke="midnightblue" d="M961.799,-396.955C977.959,-388.795 995.246,-376.753 1004.43,-360 1011.27,-347.53 1011.13,-340.55 1004.43,-328 995.246,-310.77 977.367,-298.331 961.258,-290.052"/>
<polygon fill="midnightblue" stroke="midnightblue" points="962.589,-286.809 952.057,-285.654 959.57,-293.125 962.589,-286.809"/>
</g>
<!-- Node11&#45;&gt;Node9 -->
<g id="edge15" class="edge"><title>Node11&#45;&gt;Node9</title>
<path fill="none" stroke="midnightblue" d="M858.63,-333.68C904.495,-325.079 971.638,-310.801 1028.43,-292 1030.71,-291.247 1033.04,-290.397 1035.36,-289.494"/>
<polygon fill="midnightblue" stroke="midnightblue" points="1036.81,-292.681 1044.69,-285.596 1034.11,-286.222 1036.81,-292.681"/>
</g>
<!-- Node12 -->
<g id="node12" class="node"><title>Node12</title>
<polygon fill="white" stroke="#bfbfbf" points="661.433,-266.5 661.433,-285.5 707.433,-285.5 707.433,-266.5 661.433,-266.5"/>
<text text-anchor="middle" x="684.433" y="-273.5" font-family="Helvetica,sans-Serif" font-size="10.00">atomic</text>
</g>
<!-- Node11&#45;&gt;Node12 -->
<g id="edge14" class="edge"><title>Node11&#45;&gt;Node12</title>
<path fill="none" stroke="midnightblue" d="M778.69,-328.841C758.12,-317.528 729.471,-301.771 709.17,-290.605"/>
<polygon fill="midnightblue" stroke="midnightblue" points="710.667,-287.434 700.218,-285.682 707.294,-293.568 710.667,-287.434"/>
</g>
<!-- Node11&#45;&gt;Node13 -->
<g id="edge16" class="edge"><title>Node11&#45;&gt;Node13</title>
<path fill="none" stroke="midnightblue" d="M831.034,-328.841C852.386,-317.476 882.162,-301.628 903.156,-290.454"/>
<polygon fill="midnightblue" stroke="midnightblue" points="904.939,-293.47 912.122,-285.682 901.65,-287.291 904.939,-293.47"/>
</g>
<!-- Node13&#45;&gt;Node3 -->
<g id="edge19" class="edge"><title>Node13&#45;&gt;Node3</title>
<path fill="none" stroke="midnightblue" d="M870.319,-266.875C809.095,-257.929 710.016,-242.354 625.433,-224 571.491,-212.295 559.51,-203.066 505.433,-192 392.49,-168.888 257.171,-152.475 191.339,-145.2"/>
<polygon fill="midnightblue" stroke="midnightblue" points="191.328,-141.678 181.007,-144.071 190.567,-148.637 191.328,-141.678"/>
</g>
<!-- Node13&#45;&gt;Node5 -->
<g id="edge26" class="edge"><title>Node13&#45;&gt;Node5</title>
<path fill="none" stroke="midnightblue" d="M964.907,-266.492C976.239,-264.094 988.808,-261.683 1000.43,-260 1193.3,-232.074 1248.56,-271.996 1437.43,-224 1440.1,-223.323 1442.81,-222.456 1445.5,-221.482"/>
<polygon fill="midnightblue" stroke="midnightblue" points="1446.96,-224.663 1454.88,-217.624 1444.3,-218.189 1446.96,-224.663"/>
</g>
<!-- Node13&#45;&gt;Node6 -->
<g id="edge27" class="edge"><title>Node13&#45;&gt;Node6</title>
<path fill="none" stroke="midnightblue" d="M870.139,-266.507C773.599,-252.441 583.661,-224.768 507.826,-213.719"/>
<polygon fill="midnightblue" stroke="midnightblue" points="508.304,-210.252 497.904,-212.274 507.295,-217.179 508.304,-210.252"/>
</g>
<!-- Node13&#45;&gt;Node10 -->
<g id="edge23" class="edge"><title>Node13&#45;&gt;Node10</title>
<path fill="none" stroke="midnightblue" d="M922.198,-266.466C907.978,-247.243 873.093,-201.486 856.433,-192 777.228,-146.904 666.974,-140.233 610.668,-140.086"/>
<polygon fill="midnightblue" stroke="midnightblue" points="610.461,-136.587 600.476,-140.131 610.491,-143.587 610.461,-136.587"/>
</g>
<!-- Node14 -->
<g id="node14" class="node"><title>Node14</title>
<polygon fill="white" stroke="#bfbfbf" points="847.933,-130.5 847.933,-149.5 896.933,-149.5 896.933,-130.5 847.933,-130.5"/>
<text text-anchor="middle" x="872.433" y="-137.5" font-family="Helvetica,sans-Serif" font-size="10.00">cstddef</text>
</g>
<!-- Node13&#45;&gt;Node14 -->
<g id="edge17" class="edge"><title>Node13&#45;&gt;Node14</title>
<path fill="none" stroke="midnightblue" d="M924.759,-266.208C915.7,-244.532 892.151,-188.181 879.973,-159.041"/>
<polygon fill="midnightblue" stroke="midnightblue" points="883.134,-157.527 876.048,-149.65 876.675,-160.227 883.134,-157.527"/>
</g>
<!-- Node15 -->
<g id="node15" class="node"><title>Node15</title>
<polygon fill="white" stroke="#bfbfbf" points="759.433,-62.5 759.433,-81.5 805.433,-81.5 805.433,-62.5 759.433,-62.5"/>
<text text-anchor="middle" x="782.433" y="-69.5" font-family="Helvetica,sans-Serif" font-size="10.00">cstdint</text>
</g>
<!-- Node13&#45;&gt;Node15 -->
<g id="edge18" class="edge"><title>Node13&#45;&gt;Node15</title>
<path fill="none" stroke="midnightblue" d="M888.482,-266.487C878.06,-264.319 866.835,-262.029 856.433,-260 812.539,-251.439 687.088,-258.335 658.433,-224 616.253,-173.459 709.279,-112.772 756.763,-86.3646"/>
<polygon fill="midnightblue" stroke="midnightblue" points="758.49,-89.4094 765.599,-81.5533 755.142,-83.2617 758.49,-89.4094"/>
</g>
<!-- Node16 -->
<g id="node16" class="node"><title>Node16</title>
<polygon fill="white" stroke="#bfbfbf" points="1039.43,-62.5 1039.43,-81.5 1093.43,-81.5 1093.43,-62.5 1039.43,-62.5"/>
<text text-anchor="middle" x="1066.43" y="-69.5" font-family="Helvetica,sans-Serif" font-size="10.00">iostream</text>
</g>
<!-- Node13&#45;&gt;Node16 -->
<g id="edge20" class="edge"><title>Node13&#45;&gt;Node16</title>
<path fill="none" stroke="midnightblue" d="M960.599,-266.41C1008.7,-253.415 1094.21,-229.67 1098.43,-224 1128.74,-183.26 1096.65,-120.099 1077.93,-90.0303"/>
<polygon fill="midnightblue" stroke="midnightblue" points="1080.78,-87.9996 1072.42,-81.5009 1074.9,-91.7994 1080.78,-87.9996"/>
</g>
<!-- Node17 -->
<g id="node17" class="node"><title>Node17</title>
<polygon fill="white" stroke="#bfbfbf" points="1509.93,-198.5 1509.93,-217.5 1556.93,-217.5 1556.93,-198.5 1509.93,-198.5"/>
<text text-anchor="middle" x="1533.43" y="-205.5" font-family="Helvetica,sans-Serif" font-size="10.00">iterator</text>
</g>
<!-- Node13&#45;&gt;Node17 -->
<g id="edge21" class="edge"><title>Node13&#45;&gt;Node17</title>
<path fill="none" stroke="midnightblue" d="M983.387,-266.463C999.488,-264.148 1017.14,-261.79 1033.43,-260 1240.36,-237.268 1298.83,-275.862 1500.43,-224 1502.94,-223.355 1505.49,-222.531 1508.01,-221.6"/>
<polygon fill="midnightblue" stroke="midnightblue" points="1509.54,-224.755 1517.4,-217.647 1506.82,-218.304 1509.54,-224.755"/>
</g>
<!-- Node18 -->
<g id="node18" class="node"><title>Node18</title>
<polygon fill="white" stroke="#bfbfbf" points="667.933,-198.5 667.933,-217.5 702.933,-217.5 702.933,-198.5 667.933,-198.5"/>
<text text-anchor="middle" x="685.433" y="-205.5" font-family="Helvetica,sans-Serif" font-size="10.00">map</text>
</g>
<!-- Node13&#45;&gt;Node18 -->
<g id="edge22" class="edge"><title>Node13&#45;&gt;Node18</title>
<path fill="none" stroke="midnightblue" d="M889.769,-266.477C832.185,-253.692 728.872,-230.366 712.433,-224 711.027,-223.455 709.604,-222.849 708.184,-222.202"/>
<polygon fill="midnightblue" stroke="midnightblue" points="709.587,-218.988 699.092,-217.543 706.395,-225.218 709.587,-218.988"/>
</g>
<!-- Node19 -->
<g id="node19" class="node"><title>Node19</title>
<polygon fill="white" stroke="#bfbfbf" points="721.433,-198.5 721.433,-217.5 751.433,-217.5 751.433,-198.5 721.433,-198.5"/>
<text text-anchor="middle" x="736.433" y="-205.5" font-family="Helvetica,sans-Serif" font-size="10.00">set</text>
</g>
<!-- Node13&#45;&gt;Node19 -->
<g id="edge24" class="edge"><title>Node13&#45;&gt;Node19</title>
<path fill="none" stroke="midnightblue" d="M890.365,-266.497C855.62,-258.03 803.305,-243.489 760.433,-224 759.449,-223.553 758.457,-223.071 757.465,-222.565"/>
<polygon fill="midnightblue" stroke="midnightblue" points="759.205,-219.529 748.79,-217.589 755.723,-225.601 759.205,-219.529"/>
</g>
<!-- Node20 -->
<g id="node20" class="node"><title>Node20</title>
<polygon fill="white" stroke="#bfbfbf" points="769.433,-198.5 769.433,-217.5 847.433,-217.5 847.433,-198.5 769.433,-198.5"/>
<text text-anchor="middle" x="808.433" y="-205.5" font-family="Helvetica,sans-Serif" font-size="10.00">unordered_set</text>
</g>
<!-- Node13&#45;&gt;Node20 -->
<g id="edge25" class="edge"><title>Node13&#45;&gt;Node20</title>
<path fill="none" stroke="midnightblue" d="M912.745,-266.372C892.443,-255.205 856.845,-235.627 832.956,-222.488"/>
<polygon fill="midnightblue" stroke="midnightblue" points="834.574,-219.383 824.125,-217.63 831.2,-225.516 834.574,-219.383"/>
</g>
<!-- Node21 -->
<g id="node21" class="node"><title>Node21</title>
<polygon fill="white" stroke="#bfbfbf" points="1227.43,-0.5 1227.43,-19.5 1331.43,-19.5 1331.43,-0.5 1227.43,-0.5"/>
<text text-anchor="middle" x="1279.43" y="-7.5" font-family="Helvetica,sans-Serif" font-size="10.00">shad/config/config.h</text>
</g>
<!-- Node13&#45;&gt;Node21 -->
<g id="edge28" class="edge"><title>Node13&#45;&gt;Node21</title>
<path fill="none" stroke="midnightblue" d="M959.791,-266.468C969.547,-264.069 980.382,-261.664 990.433,-260 1077.61,-245.572 1317.59,-279.398 1386.43,-224 1446.48,-175.68 1475.44,-117.836 1429.43,-56 1418.42,-41.1957 1376.91,-29.4394 1340.35,-21.6608"/>
<polygon fill="midnightblue" stroke="midnightblue" points="1340.7,-18.1591 1330.2,-19.5731 1339.29,-25.0156 1340.7,-18.1591"/>
</g>
<!-- Node22 -->
<g id="node22" class="node"><title>Node22</title>
<g id="a_node22"><a xlink:href="handle_8h.html" target="_top" xlink:title="shad/runtime/handle.h">
<polygon fill="white" stroke="black" points="1243.93,-198.5 1243.93,-217.5 1356.93,-217.5 1356.93,-198.5 1243.93,-198.5"/>
<text text-anchor="middle" x="1300.43" y="-205.5" font-family="Helvetica,sans-Serif" font-size="10.00">shad/runtime/handle.h</text>
</a>
</g>
</g>
<!-- Node13&#45;&gt;Node22 -->
<g id="edge29" class="edge"><title>Node13&#45;&gt;Node22</title>
<path fill="none" stroke="midnightblue" d="M967.993,-266.484C978.52,-264.293 989.895,-261.993 1000.43,-260 1081.65,-244.643 1175.64,-229.008 1236.46,-219.171"/>
<polygon fill="midnightblue" stroke="midnightblue" points="1237.36,-222.572 1246.68,-217.524 1236.25,-215.661 1237.36,-222.572"/>
</g>
<!-- Node24 -->
<g id="node24" class="node"><title>Node24</title>
<g id="a_node24"><a xlink:href="mapping__traits_8h.html" target="_top" xlink:title="shad/runtime/mapping\l_traits.h">
<polygon fill="white" stroke="black" points="1307.93,-57 1307.93,-87 1420.93,-87 1420.93,-57 1307.93,-57"/>
<text text-anchor="start" x="1315.93" y="-75" font-family="Helvetica,sans-Serif" font-size="10.00">shad/runtime/mapping</text>
<text text-anchor="middle" x="1364.43" y="-64" font-family="Helvetica,sans-Serif" font-size="10.00">_traits.h</text>
</a>
</g>
</g>
<!-- Node13&#45;&gt;Node24 -->
<g id="edge42" class="edge"><title>Node13&#45;&gt;Node24</title>
<path fill="none" stroke="midnightblue" d="M959.796,-266.499C969.553,-264.101 980.386,-261.689 990.433,-260 1031.71,-253.061 1337.28,-254.98 1365.43,-224 1396.77,-189.509 1384.11,-130.111 1373.44,-97.026"/>
<polygon fill="midnightblue" stroke="midnightblue" points="1376.65,-95.603 1370.1,-87.2737 1370.03,-97.8682 1376.65,-95.603"/>
</g>
<!-- Node27 -->
<g id="node27" class="node"><title>Node27</title>
<g id="a_node27"><a xlink:href="locality_8h.html" target="_top" xlink:title="shad/runtime/locality.h">
<polygon fill="white" stroke="black" points="953.933,-130.5 953.933,-149.5 1068.93,-149.5 1068.93,-130.5 953.933,-130.5"/>
<text text-anchor="middle" x="1011.43" y="-137.5" font-family="Helvetica,sans-Serif" font-size="10.00">shad/runtime/locality.h</text>
</a>
</g>
</g>
<!-- Node13&#45;&gt;Node27 -->
<g id="edge36" class="edge"><title>Node13&#45;&gt;Node27</title>
<path fill="none" stroke="midnightblue" d="M971.698,-266.445C1012.2,-257.454 1068.38,-242.115 1081.43,-224 1089.75,-212.462 1087.88,-204.676 1081.43,-192 1072.96,-175.352 1056.23,-162.853 1041.25,-154.395"/>
<polygon fill="midnightblue" stroke="midnightblue" points="1042.72,-151.212 1032.24,-149.651 1039.46,-157.406 1042.72,-151.212"/>
</g>
<!-- Node28 -->
<g id="node28" class="node"><title>Node28</title>
<g id="a_node28"><a xlink:href="available__mappings_8h.html" target="_top" xlink:title="shad/runtime/mappings\l/available_mappings.h">
<polygon fill="white" stroke="black" points="1125.43,-125 1125.43,-155 1243.43,-155 1243.43,-125 1125.43,-125"/>
<text text-anchor="start" x="1133.43" y="-143" font-family="Helvetica,sans-Serif" font-size="10.00">shad/runtime/mappings</text>
<text text-anchor="middle" x="1184.43" y="-132" font-family="Helvetica,sans-Serif" font-size="10.00">/available_mappings.h</text>
</a>
</g>
</g>
<!-- Node13&#45;&gt;Node28 -->
<g id="edge43" class="edge"><title>Node13&#45;&gt;Node28</title>
<path fill="none" stroke="midnightblue" d="M968.146,-266.499C1031.79,-252.804 1149.91,-227.076 1153.43,-224 1170.55,-209.04 1178.24,-183.685 1181.68,-164.926"/>
<polygon fill="midnightblue" stroke="midnightblue" points="1185.14,-165.451 1183.22,-155.032 1178.22,-164.375 1185.14,-165.451"/>
</g>
<!-- Node29 -->
<g id="node29" class="node"><title>Node29</title>
<g id="a_node29"><a xlink:href="synchronous__interface_8h.html" target="_top" xlink:title="shad/runtime/synchronous\l_interface.h">
<polygon fill="white" stroke="black" points="941.933,-193 941.933,-223 1072.93,-223 1072.93,-193 941.933,-193"/>
<text text-anchor="start" x="949.933" y="-211" font-family="Helvetica,sans-Serif" font-size="10.00">shad/runtime/synchronous</text>
<text text-anchor="middle" x="1007.43" y="-200" font-family="Helvetica,sans-Serif" font-size="10.00">_interface.h</text>
</a>
</g>
</g>
<!-- Node13&#45;&gt;Node29 -->
<g id="edge45" class="edge"><title>Node13&#45;&gt;Node29</title>
<path fill="none" stroke="midnightblue" d="M938.761,-266.372C949.842,-257.114 967.843,-242.076 982.635,-229.718"/>
<polygon fill="midnightblue" stroke="midnightblue" points="985.028,-232.279 990.458,-223.181 980.54,-226.907 985.028,-232.279"/>
</g>
<!-- Node22&#45;&gt;Node21 -->
<g id="edge31" class="edge"><title>Node22&#45;&gt;Node21</title>
<path fill="none" stroke="midnightblue" d="M1299.5,-198.325C1296.33,-168.664 1285.85,-70.8504 1281.43,-29.6044"/>
<polygon fill="midnightblue" stroke="midnightblue" points="1284.9,-29.1448 1280.35,-19.5746 1277.94,-29.8906 1284.9,-29.1448"/>
</g>
<!-- Node23 -->
<g id="node23" class="node"><title>Node23</title>
<polygon fill="white" stroke="#bfbfbf" points="335.433,-130.5 335.433,-149.5 397.433,-149.5 397.433,-130.5 335.433,-130.5"/>
<text text-anchor="middle" x="366.433" y="-137.5" font-family="Helvetica,sans-Serif" font-size="10.00">type_traits</text>
</g>
<!-- Node22&#45;&gt;Node23 -->
<g id="edge30" class="edge"><title>Node22&#45;&gt;Node23</title>
<path fill="none" stroke="midnightblue" d="M1243.72,-203.083C1199.5,-200.037 1136.57,-195.719 1081.43,-192 840.561,-175.752 780.149,-174.428 539.433,-156 494.485,-152.559 443.022,-148.02 407.99,-144.84"/>
<polygon fill="midnightblue" stroke="midnightblue" points="407.947,-141.322 397.671,-143.899 407.312,-148.293 407.947,-141.322"/>
</g>
<!-- Node22&#45;&gt;Node24 -->
<g id="edge32" class="edge"><title>Node22&#45;&gt;Node24</title>
<path fill="none" stroke="midnightblue" d="M1304.63,-198.208C1314.38,-177.806 1338.79,-126.688 1353.23,-96.4507"/>
<polygon fill="midnightblue" stroke="midnightblue" points="1356.56,-97.6034 1357.71,-87.0713 1350.24,-94.5865 1356.56,-97.6034"/>
</g>
<!-- Node26 -->
<g id="node26" class="node"><title>Node26</title>
<g id="a_node26"><a xlink:href="available__traits__mappings_8h.html" target="_top" xlink:title="shad/runtime/mappings\l/available_traits_mappings.h">
<polygon fill="white" stroke="black" points="1111.43,-57 1111.43,-87 1251.43,-87 1251.43,-57 1111.43,-57"/>
<text text-anchor="start" x="1119.43" y="-75" font-family="Helvetica,sans-Serif" font-size="10.00">shad/runtime/mappings</text>
<text text-anchor="middle" x="1181.43" y="-64" font-family="Helvetica,sans-Serif" font-size="10.00">/available_traits_mappings.h</text>
</a>
</g>
</g>
<!-- Node22&#45;&gt;Node26 -->
<g id="edge35" class="edge"><title>Node22&#45;&gt;Node26</title>
<path fill="none" stroke="midnightblue" d="M1296.96,-198.472C1290.16,-182.53 1273.89,-147.685 1252.43,-124 1241.59,-112.029 1227.49,-101.196 1214.71,-92.6241"/>
<polygon fill="midnightblue" stroke="midnightblue" points="1216.43,-89.5679 1206.14,-87.065 1212.62,-95.4416 1216.43,-89.5679"/>
</g>
<!-- Node24&#45;&gt;Node21 -->
<g id="edge34" class="edge"><title>Node24&#45;&gt;Node21</title>
<path fill="none" stroke="midnightblue" d="M1344.29,-56.7808C1330.84,-47.2862 1313.21,-34.8434 1299.73,-25.3267"/>
<polygon fill="midnightblue" stroke="midnightblue" points="1301.74,-22.4632 1291.55,-19.5557 1297.71,-28.182 1301.74,-22.4632"/>
</g>
<!-- Node25 -->
<g id="node25" class="node"><title>Node25</title>
<polygon fill="white" stroke="#bfbfbf" points="1349.93,-0.5 1349.93,-19.5 1390.93,-19.5 1390.93,-0.5 1349.93,-0.5"/>
<text text-anchor="middle" x="1370.43" y="-7.5" font-family="Helvetica,sans-Serif" font-size="10.00">string</text>
</g>
<!-- Node24&#45;&gt;Node25 -->
<g id="edge33" class="edge"><title>Node24&#45;&gt;Node25</title>
<path fill="none" stroke="midnightblue" d="M1365.86,-56.7808C1366.66,-48.6913 1367.69,-38.4617 1368.56,-29.725"/>
<polygon fill="midnightblue" stroke="midnightblue" points="1372.05,-30.0292 1369.56,-19.7305 1365.08,-29.3326 1372.05,-30.0292"/>
</g>
<!-- Node27&#45;&gt;Node15 -->
<g id="edge37" class="edge"><title>Node27&#45;&gt;Node15</title>
<path fill="none" stroke="midnightblue" d="M981.495,-130.372C938.53,-117.989 859.671,-95.2608 815.194,-82.4419"/>
<polygon fill="midnightblue" stroke="midnightblue" points="816.037,-79.0426 805.459,-79.6362 814.099,-85.7688 816.037,-79.0426"/>
</g>
<!-- Node27&#45;&gt;Node16 -->
<g id="edge38" class="edge"><title>Node27&#45;&gt;Node16</title>
<path fill="none" stroke="midnightblue" d="M1018.62,-130.372C1027.22,-120.053 1041.81,-102.551 1052.61,-89.5854"/>
<polygon fill="midnightblue" stroke="midnightblue" points="1055.35,-91.764 1059.07,-81.8411 1049.97,-87.2827 1055.35,-91.764"/>
</g>
<!-- Node27&#45;&gt;Node21 -->
<g id="edge39" class="edge"><title>Node27&#45;&gt;Node21</title>
<path fill="none" stroke="midnightblue" d="M1010.6,-130.499C1009.47,-113.644 1009.58,-75.9062 1030.43,-56 1056.63,-30.9837 1152.42,-19.5233 1217.26,-14.5352"/>
<polygon fill="midnightblue" stroke="midnightblue" points="1217.67,-18.0147 1227.39,-13.7892 1217.16,-11.0336 1217.67,-18.0147"/>
</g>
<!-- Node27&#45;&gt;Node24 -->
<g id="edge40" class="edge"><title>Node27&#45;&gt;Node24</title>
<path fill="none" stroke="midnightblue" d="M1057.22,-130.439C1118.38,-119.003 1227.2,-98.659 1297.55,-85.5055"/>
<polygon fill="midnightblue" stroke="midnightblue" points="1298.45,-88.8972 1307.64,-83.6189 1297.17,-82.0165 1298.45,-88.8972"/>
</g>
<!-- Node27&#45;&gt;Node26 -->
<g id="edge41" class="edge"><title>Node27&#45;&gt;Node26</title>
<path fill="none" stroke="midnightblue" d="M1033.66,-130.372C1059.46,-120.354 1102.7,-103.566 1135.76,-90.7312"/>
<polygon fill="midnightblue" stroke="midnightblue" points="1137.17,-93.9382 1145.23,-87.0562 1134.64,-87.4127 1137.17,-93.9382"/>
</g>
<!-- Node28&#45;&gt;Node26 -->
<g id="edge44" class="edge"><title>Node28&#45;&gt;Node26</title>
<path fill="none" stroke="midnightblue" d="M1183.78,-124.679C1183.42,-116.722 1182.96,-106.605 1182.54,-97.4356"/>
<polygon fill="midnightblue" stroke="midnightblue" points="1186.03,-97.1238 1182.08,-87.2931 1179.04,-97.4417 1186.03,-97.1238"/>
</g>
<!-- Node29&#45;&gt;Node10 -->
<g id="edge48" class="edge"><title>Node29&#45;&gt;Node10</title>
<path fill="none" stroke="midnightblue" d="M941.67,-196.976C849.218,-182.884 683.962,-157.695 610.894,-146.557"/>
<polygon fill="midnightblue" stroke="midnightblue" points="611.215,-143.066 600.802,-145.019 610.16,-149.986 611.215,-143.066"/>
</g>
<!-- Node29&#45;&gt;Node14 -->
<g id="edge46" class="edge"><title>Node29&#45;&gt;Node14</title>
<path fill="none" stroke="midnightblue" d="M978.472,-192.841C955.017,-181.374 922.224,-165.342 899.338,-154.153"/>
<polygon fill="midnightblue" stroke="midnightblue" points="900.713,-150.93 890.192,-149.682 897.638,-157.218 900.713,-150.93"/>
</g>
<!-- Node29&#45;&gt;Node15 -->
<g id="edge47" class="edge"><title>Node29&#45;&gt;Node15</title>
<path fill="none" stroke="midnightblue" d="M990.027,-192.96C977.363,-182.733 959.814,-168.535 944.433,-156 927.053,-141.835 924.663,-135.529 905.433,-124 876.553,-106.685 840.716,-92.5625 815.189,-83.6055"/>
<polygon fill="midnightblue" stroke="midnightblue" points="816.204,-80.2534 805.609,-80.3163 813.93,-86.874 816.204,-80.2534"/>
</g>
<!-- Node29&#45;&gt;Node27 -->
<g id="edge49" class="edge"><title>Node29&#45;&gt;Node27</title>
<path fill="none" stroke="midnightblue" d="M1008.3,-192.679C1008.88,-183.101 1009.65,-170.394 1010.28,-159.977"/>
<polygon fill="midnightblue" stroke="midnightblue" points="1013.79,-160.022 1010.9,-149.828 1006.8,-159.598 1013.79,-160.022"/>
</g>
<!-- Node30&#45;&gt;Node2 -->
<g id="edge52" class="edge"><title>Node30&#45;&gt;Node2</title>
<path fill="none" stroke="midnightblue" d="M472.396,-410.188C383.549,-406.068 205.507,-385.738 95.4332,-292 75.8659,-275.337 65.8403,-246.477 61.1197,-227.561"/>
<polygon fill="midnightblue" stroke="midnightblue" points="64.5212,-226.733 58.9214,-217.739 57.6903,-228.262 64.5212,-226.733"/>
</g>
<!-- Node30&#45;&gt;Node6 -->
<g id="edge55" class="edge"><title>Node30&#45;&gt;Node6</title>
<path fill="none" stroke="midnightblue" d="M472.395,-401.73C448.234,-394.601 421.972,-382.049 407.433,-360 377.342,-314.365 429.453,-253.228 458.265,-224.785"/>
<polygon fill="midnightblue" stroke="midnightblue" points="460.89,-227.117 465.686,-217.67 456.045,-222.064 460.89,-227.117"/>
</g>
<!-- Node30&#45;&gt;Node11 -->
<g id="edge56" class="edge"><title>Node30&#45;&gt;Node11</title>
<path fill="none" stroke="midnightblue" d="M580.694,-398.118C626.521,-387.238 692.22,-371.64 740.574,-360.161"/>
<polygon fill="midnightblue" stroke="midnightblue" points="741.388,-363.565 750.309,-357.85 739.771,-356.754 741.388,-363.565"/>
</g>
<!-- Node30&#45;&gt;Node12 -->
<g id="edge54" class="edge"><title>Node30&#45;&gt;Node12</title>
<path fill="none" stroke="midnightblue" d="M544.23,-396.887C556.928,-386.745 574.356,-372.681 589.433,-360 617.028,-336.79 648.421,-309.105 667.314,-292.301"/>
<polygon fill="midnightblue" stroke="midnightblue" points="669.69,-294.871 674.827,-285.605 665.033,-289.645 669.69,-294.871"/>
</g>
<!-- Node30&#45;&gt;Node13 -->
<g id="edge57" class="edge"><title>Node30&#45;&gt;Node13</title>
<path fill="none" stroke="midnightblue" d="M559.568,-396.992C601.471,-379.56 676.05,-349.474 741.433,-328 789.271,-312.288 845.072,-297.52 883.184,-287.96"/>
<polygon fill="midnightblue" stroke="midnightblue" points="884.102,-291.339 892.959,-285.525 882.41,-284.546 884.102,-291.339"/>
</g>
<!-- Node31 -->
<g id="node31" class="node"><title>Node31</title>
<polygon fill="white" stroke="#bfbfbf" points="542.433,-334.5 542.433,-353.5 580.433,-353.5 580.433,-334.5 542.433,-334.5"/>
<text text-anchor="middle" x="561.433" y="-341.5" font-family="Helvetica,sans-Serif" font-size="10.00">array</text>
</g>
<!-- Node30&#45;&gt;Node31 -->
<g id="edge53" class="edge"><title>Node30&#45;&gt;Node31</title>
<path fill="none" stroke="midnightblue" d="M534.028,-396.679C539.269,-386.796 546.277,-373.579 551.895,-362.986"/>
<polygon fill="midnightblue" stroke="midnightblue" points="555.159,-364.303 556.752,-353.828 548.974,-361.023 555.159,-364.303"/>
</g>
<!-- Node32&#45;&gt;Node2 -->
<g id="edge59" class="edge"><title>Node32&#45;&gt;Node2</title>
<path fill="none" stroke="midnightblue" d="M212.172,-260.841C176.619,-248.93 126.366,-232.094 92.8819,-220.876"/>
<polygon fill="midnightblue" stroke="midnightblue" points="93.6575,-217.445 83.0636,-217.587 91.4338,-224.082 93.6575,-217.445"/>
</g>
<!-- Node32&#45;&gt;Node3 -->
<g id="edge62" class="edge"><title>Node32&#45;&gt;Node3</title>
<path fill="none" stroke="midnightblue" d="M218.218,-260.96C201.3,-252.641 182.314,-240.463 170.433,-224 156.744,-205.03 152.719,-177.797 151.641,-159.765"/>
<polygon fill="midnightblue" stroke="midnightblue" points="155.135,-159.525 151.288,-149.653 148.139,-159.769 155.135,-159.525"/>
</g>
<!-- Node32&#45;&gt;Node6 -->
<g id="edge64" class="edge"><title>Node32&#45;&gt;Node6</title>
<path fill="none" stroke="midnightblue" d="M312.504,-260.992C349.243,-251.639 397.541,-238.438 439.433,-224 441.842,-223.17 444.32,-222.26 446.795,-221.311"/>
<polygon fill="midnightblue" stroke="midnightblue" points="448.197,-224.52 456.175,-217.549 445.591,-218.023 448.197,-224.52"/>
</g>
<!-- Node32&#45;&gt;Node15 -->
<g id="edge60" class="edge"><title>Node32&#45;&gt;Node15</title>
<path fill="none" stroke="midnightblue" d="M297.63,-260.899C323.901,-251.695 357.795,-238.684 386.433,-224 458.721,-186.935 464.387,-155.102 539.433,-124 610.701,-94.4643 701.083,-81.2999 749.024,-76.0515"/>
<polygon fill="midnightblue" stroke="midnightblue" points="749.565,-79.5141 759.147,-74.9929 748.837,-72.5521 749.565,-79.5141"/>
</g>
<!-- Node32&#45;&gt;Node23 -->
<g id="edge63" class="edge"><title>Node32&#45;&gt;Node23</title>
<path fill="none" stroke="midnightblue" d="M317.356,-260.948C336.748,-253.346 355.99,-241.719 367.433,-224 379.864,-204.752 376.468,-177.396 372.109,-159.428"/>
<polygon fill="midnightblue" stroke="midnightblue" points="375.435,-158.322 369.404,-149.611 368.686,-160.181 375.435,-158.322"/>
</g>
<!-- Node33 -->
<g id="node33" class="node"><title>Node33</title>
<polygon fill="white" stroke="#bfbfbf" points="179.433,-198.5 179.433,-217.5 225.433,-217.5 225.433,-198.5 179.433,-198.5"/>
<text text-anchor="middle" x="202.433" y="-205.5" font-family="Helvetica,sans-Serif" font-size="10.00">cstring</text>
</g>
<!-- Node32&#45;&gt;Node33 -->
<g id="edge61" class="edge"><title>Node32&#45;&gt;Node33</title>
<path fill="none" stroke="midnightblue" d="M243.15,-260.679C235.042,-250.388 224.087,-236.484 215.583,-225.69"/>
<polygon fill="midnightblue" stroke="midnightblue" points="218.327,-223.517 209.389,-217.828 212.828,-227.849 218.327,-223.517"/>
</g>
<!-- Node34 -->
<g id="node34" class="node"><title>Node34</title>
<g id="a_node34"><a xlink:href="type__traits_8h.html" target="_top" xlink:title="shad/core/type_traits.h">
<polygon fill="white" stroke="black" points="243.433,-198.5 243.433,-217.5 359.433,-217.5 359.433,-198.5 243.433,-198.5"/>
<text text-anchor="middle" x="301.433" y="-205.5" font-family="Helvetica,sans-Serif" font-size="10.00">shad/core/type_traits.h</text>
</a>
</g>
</g>
<!-- Node32&#45;&gt;Node34 -->
<g id="edge65" class="edge"><title>Node32&#45;&gt;Node34</title>
<path fill="none" stroke="midnightblue" d="M264.632,-260.679C271.887,-250.49 281.666,-236.759 289.319,-226.011"/>
<polygon fill="midnightblue" stroke="midnightblue" points="292.197,-228.004 295.146,-217.828 286.495,-223.944 292.197,-228.004"/>
</g>
<!-- Node34&#45;&gt;Node3 -->
<g id="edge66" class="edge"><title>Node34&#45;&gt;Node3</title>
<path fill="none" stroke="midnightblue" d="M281.823,-198.372C255.996,-187.007 210.367,-166.931 180.515,-153.796"/>
<polygon fill="midnightblue" stroke="midnightblue" points="181.611,-150.454 171.048,-149.63 178.791,-156.862 181.611,-150.454"/>
</g>
<!-- Node34&#45;&gt;Node23 -->
<g id="edge67" class="edge"><title>Node34&#45;&gt;Node23</title>
<path fill="none" stroke="midnightblue" d="M309.931,-198.372C320.19,-187.955 337.659,-170.217 350.463,-157.216"/>
<polygon fill="midnightblue" stroke="midnightblue" points="353.203,-159.422 357.726,-149.841 348.215,-154.51 353.203,-159.422"/>
</g>
<!-- Node35&#45;&gt;Node2 -->
<g id="edge69" class="edge"><title>Node35&#45;&gt;Node2</title>
<path fill="none" stroke="midnightblue" d="M416.264,-338.798C335.19,-331.818 186.749,-316.164 139.433,-292 108.909,-276.412 82.913,-245.171 68.7936,-225.778"/>
<polygon fill="midnightblue" stroke="midnightblue" points="71.6285,-223.725 63.0082,-217.565 65.9058,-227.756 71.6285,-223.725"/>
</g>
<!-- Node35&#45;&gt;Node3 -->
<g id="edge71" class="edge"><title>Node35&#45;&gt;Node3</title>
<path fill="none" stroke="midnightblue" d="M416.121,-340.01C341.55,-334.847 212.671,-321.796 177.433,-292 138.912,-259.428 143.195,-192.251 148.004,-159.612"/>
<polygon fill="midnightblue" stroke="midnightblue" points="151.477,-160.059 149.657,-149.622 144.571,-158.916 151.477,-160.059"/>
</g>
<!-- Node35&#45;&gt;Node4 -->
<g id="edge73" class="edge"><title>Node35&#45;&gt;Node4</title>
<path fill="none" stroke="midnightblue" d="M500.038,-328.841C524.122,-317.323 557.836,-301.199 581.244,-290.004"/>
<polygon fill="midnightblue" stroke="midnightblue" points="582.769,-293.154 590.28,-285.682 579.749,-286.839 582.769,-293.154"/>
</g>
<!-- Node35&#45;&gt;Node5 -->
<g id="edge74" class="edge"><title>Node35&#45;&gt;Node5</title>
<path fill="none" stroke="midnightblue" d="M524.623,-329.531C527.594,-328.97 530.545,-328.454 533.433,-328 634.944,-312.051 899.104,-330.356 994.433,-292 1015.23,-283.631 1012.68,-268.483 1033.43,-260 1200.3,-191.798 1262.87,-268.98 1437.43,-224 1440.09,-223.314 1442.81,-222.442 1445.49,-221.463"/>
<polygon fill="midnightblue" stroke="midnightblue" points="1446.96,-224.644 1454.87,-217.6 1444.29,-218.171 1446.96,-224.644"/>
</g>
<!-- Node35&#45;&gt;Node6 -->
<g id="edge75" class="edge"><title>Node35&#45;&gt;Node6</title>
<path fill="none" stroke="midnightblue" d="M470.968,-328.66C471.877,-304.32 473.719,-254.933 474.73,-227.837"/>
<polygon fill="midnightblue" stroke="midnightblue" points="478.232,-227.851 475.108,-217.728 471.237,-227.59 478.232,-227.851"/>
</g>
<!-- Node35&#45;&gt;Node10 -->
<g id="edge72" class="edge"><title>Node35&#45;&gt;Node10</title>
<path fill="none" stroke="midnightblue" d="M477.746,-328.796C496.291,-292.777 545.115,-197.946 565.398,-158.55"/>
<polygon fill="midnightblue" stroke="midnightblue" points="568.541,-160.09 570.007,-149.597 562.318,-156.886 568.541,-160.09"/>
</g>
<!-- Node35&#45;&gt;Node12 -->
<g id="edge70" class="edge"><title>Node35&#45;&gt;Node12</title>
<path fill="none" stroke="midnightblue" d="M516.25,-328.988C549.594,-318.776 595.828,-304.582 636.433,-292 641.187,-290.527 646.203,-288.966 651.13,-287.43"/>
<polygon fill="midnightblue" stroke="midnightblue" points="652.501,-290.669 661.003,-284.347 650.414,-283.987 652.501,-290.669"/>
</g>
<!-- Node35&#45;&gt;Node13 -->
<g id="edge77" class="edge"><title>Node35&#45;&gt;Node13</title>
<path fill="none" stroke="midnightblue" d="M524.653,-329.708C527.617,-329.101 530.558,-328.526 533.433,-328 647.183,-307.175 780.889,-291.793 859.931,-283.631"/>
<polygon fill="midnightblue" stroke="midnightblue" points="860.649,-287.076 870.241,-282.575 859.936,-280.112 860.649,-287.076"/>
</g>
<!-- Node35&#45;&gt;Node32 -->
<g id="edge76" class="edge"><title>Node35&#45;&gt;Node32</title>
<path fill="none" stroke="midnightblue" d="M424.361,-328.922C390.951,-318.714 345.6,-304.857 310.152,-294.025"/>
<polygon fill="midnightblue" stroke="midnightblue" points="311.021,-290.631 300.435,-291.056 308.976,-297.326 311.021,-290.631"/>
</g>
<!-- Node36&#45;&gt;Node17 -->
<g id="edge80" class="edge"><title>Node36&#45;&gt;Node17</title>
<path fill="none" stroke="midnightblue" d="M1483.32,-260.679C1493.5,-250.184 1507.32,-235.932 1517.87,-225.052"/>
<polygon fill="midnightblue" stroke="midnightblue" points="1520.42,-227.444 1524.87,-217.828 1515.4,-222.571 1520.42,-227.444"/>
</g>
<!-- Node36&#45;&gt;Node27 -->
<g id="edge81" class="edge"><title>Node36&#45;&gt;Node27</title>
<path fill="none" stroke="midnightblue" d="M1408.46,-264.243C1360.67,-255.219 1292.73,-241.079 1234.43,-224 1163.6,-203.247 1083.01,-171.031 1040.79,-153.462"/>
<polygon fill="midnightblue" stroke="midnightblue" points="1041.98,-150.165 1031.4,-149.533 1039.27,-156.622 1041.98,-150.165"/>
</g>
<!-- Node37 -->
<g id="node37" class="node"><title>Node37</title>
<polygon fill="white" stroke="#bfbfbf" points="1574.93,-198.5 1574.93,-217.5 1623.93,-217.5 1623.93,-198.5 1574.93,-198.5"/>
<text text-anchor="middle" x="1599.43" y="-205.5" font-family="Helvetica,sans-Serif" font-size="10.00">cassert</text>
</g>
<!-- Node36&#45;&gt;Node37 -->
<g id="edge79" class="edge"><title>Node36&#45;&gt;Node37</title>
<path fill="none" stroke="midnightblue" d="M1497.32,-260.841C1519.81,-249.425 1551.2,-233.485 1573.23,-222.303"/>
<polygon fill="midnightblue" stroke="midnightblue" points="1575,-225.33 1582.33,-217.682 1571.83,-219.088 1575,-225.33"/>
</g>
</g>
</svg>
