<?xml version="1.0" encoding="UTF-8" standalone="no"?>
<!DOCTYPE svg PUBLIC "-//W3C//DTD SVG 1.1//EN"
 "http://www.w3.org/Graphics/SVG/1.1/DTD/svg11.dtd">
<!-- Generated by graphviz version 2.36.0 (20140111.2315)
 -->
<!-- Title: include/shad/data_structures/hashmap.h Pages: 1 -->
<svg width="1667pt" height="504pt"
 viewBox="0.00 0.00 1666.84 504.00" xmlns="http://www.w3.org/2000/svg" xmlns:xlink="http://www.w3.org/1999/xlink">
<g id="graph0" class="graph" transform="scale(1 1) rotate(0) translate(4 500)">
<title>include/shad/data_structures/hashmap.h</title>
<polygon fill="white" stroke="none" points="-4,4 -4,-500 1662.84,-500 1662.84,4 -4,4"/>
<!-- Node1 -->
<g id="node1" class="node"><title>Node1</title>
<polygon fill="#bfbfbf" stroke="black" points="493.836,-465 493.836,-495 635.836,-495 635.836,-465 493.836,-465"/>
<text text-anchor="start" x="501.836" y="-483" font-family="Helvetica,sans-Serif" font-size="10.00">include/shad/data_structures</text>
<text text-anchor="middle" x="564.836" y="-472" font-family="Helvetica,sans-Serif" font-size="10.00">/hashmap.h</text>
</g>
<!-- Node2 -->
<g id="node2" class="node"><title>Node2</title>
<polygon fill="white" stroke="#bfbfbf" points="29.8361,-198.5 29.8361,-217.5 85.8361,-217.5 85.8361,-198.5 29.8361,-198.5"/>
<text text-anchor="middle" x="57.8361" y="-205.5" font-family="Helvetica,sans-Serif" font-size="10.00">algorithm</text>
</g>
<!-- Node1&#45;&gt;Node2 -->
<g id="edge1" class="edge"><title>Node1&#45;&gt;Node2</title>
<path fill="none" stroke="midnightblue" d="M493.656,-468.964C443.221,-460.76 374.393,-447.337 315.836,-428 247.865,-405.554 232.079,-395.352 169.836,-360 123.101,-333.457 98.3218,-337.577 69.8361,-292 57.6246,-272.462 55.925,-245.363 56.4075,-227.516"/>
<polygon fill="midnightblue" stroke="midnightblue" points="59.9029,-227.694 56.9331,-217.524 52.9125,-227.326 59.9029,-227.694"/>
</g>
<!-- Node3 -->
<g id="node3" class="node"><title>Node3</title>
<polygon fill="white" stroke="#bfbfbf" points="186.336,-130.5 186.336,-149.5 245.336,-149.5 245.336,-130.5 186.336,-130.5"/>
<text text-anchor="middle" x="215.836" y="-137.5" font-family="Helvetica,sans-Serif" font-size="10.00">functional</text>
</g>
<!-- Node1&#45;&gt;Node3 -->
<g id="edge2" class="edge"><title>Node1&#45;&gt;Node3</title>
<path fill="none" stroke="midnightblue" d="M493.817,-476.909C342.464,-470.522 1.83606,-445.034 1.83606,-345 1.83606,-345 1.83606,-345 1.83606,-275 1.83606,-237.157 -5.50819,-219.168 20.8361,-192 42.2017,-169.967 125.844,-154.183 176.385,-146.429"/>
<polygon fill="midnightblue" stroke="midnightblue" points="176.956,-149.883 186.328,-144.942 175.92,-142.96 176.956,-149.883"/>
</g>
<!-- Node4 -->
<g id="node4" class="node"><title>Node4</title>
<polygon fill="white" stroke="#bfbfbf" points="553.836,-266.5 553.836,-285.5 591.836,-285.5 591.836,-266.5 553.836,-266.5"/>
<text text-anchor="middle" x="572.836" y="-273.5" font-family="Helvetica,sans-Serif" font-size="10.00">tuple</text>
</g>
<!-- Node1&#45;&gt;Node4 -->
<g id="edge3" class="edge"><title>Node1&#45;&gt;Node4</title>
<path fill="none" stroke="midnightblue" d="M565.399,-464.796C566.81,-429.159 570.501,-335.952 572.091,-295.823"/>
<polygon fill="midnightblue" stroke="midnightblue" points="575.597,-295.728 572.496,-285.597 568.603,-295.451 575.597,-295.728"/>
</g>
<!-- Node5 -->
<g id="node5" class="node"><title>Node5</title>
<polygon fill="white" stroke="#bfbfbf" points="1447.84,-198.5 1447.84,-217.5 1487.84,-217.5 1487.84,-198.5 1447.84,-198.5"/>
<text text-anchor="middle" x="1467.84" y="-205.5" font-family="Helvetica,sans-Serif" font-size="10.00">utility</text>
</g>
<!-- Node1&#45;&gt;Node5 -->
<g id="edge4" class="edge"><title>Node1&#45;&gt;Node5</title>
<path fill="none" stroke="midnightblue" d="M635.883,-477.958C725.227,-475.053 882.578,-464.618 1011.84,-428 1148.8,-389.198 1173.72,-354.059 1301.84,-292 1351.5,-267.941 1409.02,-238.921 1441.65,-222.349"/>
<polygon fill="midnightblue" stroke="midnightblue" points="1443.61,-225.277 1450.94,-217.625 1440.44,-219.037 1443.61,-225.277"/>
</g>
<!-- Node6 -->
<g id="node6" class="node"><title>Node6</title>
<polygon fill="white" stroke="#bfbfbf" points="453.836,-198.5 453.836,-217.5 497.836,-217.5 497.836,-198.5 453.836,-198.5"/>
<text text-anchor="middle" x="475.836" y="-205.5" font-family="Helvetica,sans-Serif" font-size="10.00">vector</text>
</g>
<!-- Node1&#45;&gt;Node6 -->
<g id="edge5" class="edge"><title>Node1&#45;&gt;Node6</title>
<path fill="none" stroke="midnightblue" d="M530.372,-464.904C491.695,-446.976 430.95,-411.967 404.836,-360 395.748,-341.914 405.719,-272.915 412.836,-260 421.39,-244.479 436.774,-231.886 450.199,-223.097"/>
<polygon fill="midnightblue" stroke="midnightblue" points="452.393,-225.856 459.071,-217.631 448.721,-219.896 452.393,-225.856"/>
</g>
<!-- Node7 -->
<g id="node7" class="node"><title>Node7</title>
<g id="a_node7"><a xlink:href="abstract__data__structure_8h.html" target="_top" xlink:title="shad/data_structures\l/abstract_data_structure.h">
<polygon fill="white" stroke="black" points="827.336,-397 827.336,-427 958.336,-427 958.336,-397 827.336,-397"/>
<text text-anchor="start" x="835.336" y="-415" font-family="Helvetica,sans-Serif" font-size="10.00">shad/data_structures</text>
<text text-anchor="middle" x="892.836" y="-404" font-family="Helvetica,sans-Serif" font-size="10.00">/abstract_data_structure.h</text>
</a>
</g>
</g>
<!-- Node1&#45;&gt;Node7 -->
<g id="edge6" class="edge"><title>Node1&#45;&gt;Node7</title>
<path fill="none" stroke="midnightblue" d="M634.798,-464.922C688.377,-454.141 762.181,-439.29 817.137,-428.232"/>
<polygon fill="midnightblue" stroke="midnightblue" points="818.057,-431.617 827.17,-426.213 816.676,-424.755 818.057,-431.617"/>
</g>
<!-- Node13 -->
<g id="node13" class="node"><title>Node13</title>
<g id="a_node13"><a xlink:href="runtime_8h.html" target="_top" xlink:title="shad/runtime/runtime.h">
<polygon fill="white" stroke="black" points="872.836,-266.5 872.836,-285.5 988.836,-285.5 988.836,-266.5 872.836,-266.5"/>
<text text-anchor="middle" x="930.836" y="-273.5" font-family="Helvetica,sans-Serif" font-size="10.00">shad/runtime/runtime.h</text>
</a>
</g>
</g>
<!-- Node1&#45;&gt;Node13 -->
<g id="edge81" class="edge"><title>Node1&#45;&gt;Node13</title>
<path fill="none" stroke="midnightblue" d="M635.857,-474.493C734.808,-467.449 908.568,-452.091 966.836,-428 1012.51,-409.115 1033.05,-404.367 1054.84,-360 1061.1,-347.234 1062.75,-339.815 1054.84,-328 1041.4,-307.949 1018.51,-295.773 996.021,-288.384"/>
<polygon fill="midnightblue" stroke="midnightblue" points="997.022,-285.03 986.438,-285.501 995.006,-291.733 997.022,-285.03"/>
</g>
<!-- Node30 -->
<g id="node30" class="node"><title>Node30</title>
<g id="a_node30"><a xlink:href="buffer_8h.html" target="_top" xlink:title="shad/data_structures\l/buffer.h">
<polygon fill="white" stroke="black" points="592.836,-397 592.836,-427 700.836,-427 700.836,-397 592.836,-397"/>
<text text-anchor="start" x="600.836" y="-415" font-family="Helvetica,sans-Serif" font-size="10.00">shad/data_structures</text>
<text text-anchor="middle" x="646.836" y="-404" font-family="Helvetica,sans-Serif" font-size="10.00">/buffer.h</text>
</a>
</g>
</g>
<!-- Node1&#45;&gt;Node30 -->
<g id="edge50" class="edge"><title>Node1&#45;&gt;Node30</title>
<path fill="none" stroke="midnightblue" d="M582.629,-464.679C593.989,-455.536 608.893,-443.54 621.482,-433.407"/>
<polygon fill="midnightblue" stroke="midnightblue" points="623.764,-436.063 629.36,-427.066 619.375,-430.61 623.764,-436.063"/>
</g>
<!-- Node32 -->
<g id="node32" class="node"><title>Node32</title>
<g id="a_node32"><a xlink:href="compare__and__hash__utils_8h.html" target="_top" xlink:title="shad/data_structures\l/compare_and_hash_utils.h">
<polygon fill="white" stroke="black" points="198.836,-261 198.836,-291 334.836,-291 334.836,-261 198.836,-261"/>
<text text-anchor="start" x="206.836" y="-279" font-family="Helvetica,sans-Serif" font-size="10.00">shad/data_structures</text>
<text text-anchor="middle" x="266.836" y="-268" font-family="Helvetica,sans-Serif" font-size="10.00">/compare_and_hash_utils.h</text>
</a>
</g>
</g>
<!-- Node1&#45;&gt;Node32 -->
<g id="edge57" class="edge"><title>Node1&#45;&gt;Node32</title>
<path fill="none" stroke="midnightblue" d="M493.638,-476.786C448.186,-472.088 390.241,-459.645 348.836,-428 306.49,-395.635 283.311,-334.898 273.171,-301.154"/>
<polygon fill="midnightblue" stroke="midnightblue" points="276.444,-299.87 270.329,-291.217 269.714,-301.794 276.444,-299.87"/>
</g>
<!-- Node35 -->
<g id="node35" class="node"><title>Node35</title>
<g id="a_node35"><a xlink:href="local__hashmap_8h.html" target="_top" xlink:title="shad/data_structures\l/local_hashmap.h">
<polygon fill="white" stroke="black" points="428.836,-329 428.836,-359 536.836,-359 536.836,-329 428.836,-329"/>
<text text-anchor="start" x="436.836" y="-347" font-family="Helvetica,sans-Serif" font-size="10.00">shad/data_structures</text>
<text text-anchor="middle" x="482.836" y="-336" font-family="Helvetica,sans-Serif" font-size="10.00">/local_hashmap.h</text>
</a>
</g>
</g>
<!-- Node1&#45;&gt;Node35 -->
<g id="edge67" class="edge"><title>Node1&#45;&gt;Node35</title>
<path fill="none" stroke="midnightblue" d="M556.061,-464.66C541.881,-441.488 513.809,-395.615 496.841,-367.886"/>
<polygon fill="midnightblue" stroke="midnightblue" points="499.753,-365.94 491.548,-359.237 493.783,-369.594 499.753,-365.94"/>
</g>
<!-- Node36 -->
<g id="node36" class="node"><title>Node36</title>
<g id="a_node36"><a xlink:href="distributed__iterator__traits_8h.html" target="_top" xlink:title="shad/distributed_iterator\l_traits.h">
<polygon fill="white" stroke="black" points="1495.34,-261 1495.34,-291 1616.34,-291 1616.34,-261 1495.34,-261"/>
<text text-anchor="start" x="1503.34" y="-279" font-family="Helvetica,sans-Serif" font-size="10.00">shad/distributed_iterator</text>
<text text-anchor="middle" x="1555.84" y="-268" font-family="Helvetica,sans-Serif" font-size="10.00">_traits.h</text>
</a>
</g>
</g>
<!-- Node1&#45;&gt;Node36 -->
<g id="edge77" class="edge"><title>Node1&#45;&gt;Node36</title>
<path fill="none" stroke="midnightblue" d="M635.886,-479.573C804.429,-480.108 1224.09,-476.378 1354.84,-428 1430.95,-399.839 1502.53,-332.927 1536.01,-298.412"/>
<polygon fill="midnightblue" stroke="midnightblue" points="1538.56,-300.813 1542.94,-291.167 1533.5,-295.975 1538.56,-300.813"/>
</g>
<!-- Node7&#45;&gt;Node4 -->
<g id="edge10" class="edge"><title>Node7&#45;&gt;Node4</title>
<path fill="none" stroke="midnightblue" d="M833.585,-396.926C799.89,-388.064 757.274,-375.392 720.836,-360 673.78,-340.123 622.569,-309.094 594.421,-291.139"/>
<polygon fill="midnightblue" stroke="midnightblue" points="596.101,-288.058 585.798,-285.586 592.311,-293.943 596.101,-288.058"/>
</g>
<!-- Node7&#45;&gt;Node5 -->
<g id="edge11" class="edge"><title>Node7&#45;&gt;Node5</title>
<path fill="none" stroke="midnightblue" d="M949.376,-396.92C985.784,-387.442 1033.96,-374.131 1075.84,-360 1189.62,-321.604 1214.58,-302.65 1326.84,-260 1364.98,-245.508 1409.28,-229.642 1437.89,-219.518"/>
<polygon fill="midnightblue" stroke="midnightblue" points="1439.42,-222.691 1447.68,-216.061 1437.09,-216.09 1439.42,-222.691"/>
</g>
<!-- Node7&#45;&gt;Node6 -->
<g id="edge12" class="edge"><title>Node7&#45;&gt;Node6</title>
<path fill="none" stroke="midnightblue" d="M833.433,-396.935C808.588,-388.991 780.516,-377.128 758.836,-360 716.663,-326.681 735.096,-290.492 690.836,-260 683.252,-254.775 566.05,-228.688 507.966,-215.98"/>
<polygon fill="midnightblue" stroke="midnightblue" points="508.364,-212.485 497.848,-213.771 506.871,-219.324 508.364,-212.485"/>
</g>
<!-- Node8 -->
<g id="node8" class="node"><title>Node8</title>
<polygon fill="white" stroke="#bfbfbf" points="1003.34,-334.5 1003.34,-353.5 1046.34,-353.5 1046.34,-334.5 1003.34,-334.5"/>
<text text-anchor="middle" x="1024.84" y="-341.5" font-family="Helvetica,sans-Serif" font-size="10.00">deque</text>
</g>
<!-- Node7&#45;&gt;Node8 -->
<g id="edge7" class="edge"><title>Node7&#45;&gt;Node8</title>
<path fill="none" stroke="midnightblue" d="M921.153,-396.841C943.985,-385.425 975.866,-369.485 998.229,-358.303"/>
<polygon fill="midnightblue" stroke="midnightblue" points="1000.09,-361.285 1007.47,-353.682 996.963,-355.024 1000.09,-361.285"/>
</g>
<!-- Node9 -->
<g id="node9" class="node"><title>Node9</title>
<polygon fill="white" stroke="#bfbfbf" points="1044.84,-266.5 1044.84,-285.5 1084.84,-285.5 1084.84,-266.5 1044.84,-266.5"/>
<text text-anchor="middle" x="1064.84" y="-273.5" font-family="Helvetica,sans-Serif" font-size="10.00">limits</text>
</g>
<!-- Node7&#45;&gt;Node9 -->
<g id="edge8" class="edge"><title>Node7&#45;&gt;Node9</title>
<path fill="none" stroke="midnightblue" d="M958.597,-406.813C992.432,-401.08 1031.39,-388.245 1054.84,-360 1069.65,-342.151 1069.87,-314.237 1067.94,-295.783"/>
<polygon fill="midnightblue" stroke="midnightblue" points="1071.38,-295.129 1066.57,-285.69 1064.44,-296.069 1071.38,-295.129"/>
</g>
<!-- Node10 -->
<g id="node10" class="node"><title>Node10</title>
<polygon fill="white" stroke="#bfbfbf" points="567.836,-130.5 567.836,-149.5 619.836,-149.5 619.836,-130.5 567.836,-130.5"/>
<text text-anchor="middle" x="593.836" y="-137.5" font-family="Helvetica,sans-Serif" font-size="10.00">memory</text>
</g>
<!-- Node7&#45;&gt;Node10 -->
<g id="edge9" class="edge"><title>Node7&#45;&gt;Node10</title>
<path fill="none" stroke="midnightblue" d="M874.98,-396.957C862.253,-386.849 844.816,-372.796 829.836,-360 779.347,-316.873 775.461,-294.68 718.836,-260 680.686,-236.635 656.338,-255.765 624.836,-224 607.435,-206.454 599.665,-178.242 596.292,-159.661"/>
<polygon fill="midnightblue" stroke="midnightblue" points="599.709,-158.861 594.713,-149.519 592.793,-159.938 599.709,-158.861"/>
</g>
<!-- Node11 -->
<g id="node11" class="node"><title>Node11</title>
<g id="a_node11"><a xlink:href="object__identifier_8h.html" target="_top" xlink:title="shad/data_structures\l/object_identifier.h">
<polygon fill="white" stroke="black" points="838.836,-329 838.836,-359 946.836,-359 946.836,-329 838.836,-329"/>
<text text-anchor="start" x="846.836" y="-347" font-family="Helvetica,sans-Serif" font-size="10.00">shad/data_structures</text>
<text text-anchor="middle" x="892.836" y="-336" font-family="Helvetica,sans-Serif" font-size="10.00">/object_identifier.h</text>
</a>
</g>
</g>
<!-- Node7&#45;&gt;Node11 -->
<g id="edge13" class="edge"><title>Node7&#45;&gt;Node11</title>
<path fill="none" stroke="midnightblue" d="M892.836,-396.679C892.836,-388.722 892.836,-378.605 892.836,-369.436"/>
<polygon fill="midnightblue" stroke="midnightblue" points="896.336,-369.293 892.836,-359.293 889.336,-369.293 896.336,-369.293"/>
</g>
<!-- Node7&#45;&gt;Node13 -->
<g id="edge49" class="edge"><title>Node7&#45;&gt;Node13</title>
<path fill="none" stroke="midnightblue" d="M919.819,-396.867C933.307,-388.207 948.323,-375.749 955.836,-360 966.224,-338.225 953.798,-311.173 943.057,-293.993"/>
<polygon fill="midnightblue" stroke="midnightblue" points="945.887,-291.928 937.419,-285.56 940.068,-295.818 945.887,-291.928"/>
</g>
<!-- Node11&#45;&gt;Node9 -->
<g id="edge15" class="edge"><title>Node11&#45;&gt;Node9</title>
<path fill="none" stroke="midnightblue" d="M932.942,-328.914C960.616,-319.016 998.165,-305.229 1030.84,-292 1032.67,-291.255 1034.56,-290.473 1036.46,-289.673"/>
<polygon fill="midnightblue" stroke="midnightblue" points="1038.07,-292.792 1045.86,-285.617 1035.29,-286.365 1038.07,-292.792"/>
</g>
<!-- Node12 -->
<g id="node12" class="node"><title>Node12</title>
<polygon fill="white" stroke="#bfbfbf" points="635.836,-266.5 635.836,-285.5 681.836,-285.5 681.836,-266.5 635.836,-266.5"/>
<text text-anchor="middle" x="658.836" y="-273.5" font-family="Helvetica,sans-Serif" font-size="10.00">atomic</text>
</g>
<!-- Node11&#45;&gt;Node12 -->
<g id="edge14" class="edge"><title>Node11&#45;&gt;Node12</title>
<path fill="none" stroke="midnightblue" d="M842.924,-328.922C797.335,-316.064 731.22,-297.416 691.874,-286.318"/>
<polygon fill="midnightblue" stroke="midnightblue" points="692.576,-282.88 682.001,-283.534 690.676,-289.617 692.576,-282.88"/>
</g>
<!-- Node11&#45;&gt;Node13 -->
<g id="edge16" class="edge"><title>Node11&#45;&gt;Node13</title>
<path fill="none" stroke="midnightblue" d="M901.081,-328.679C906.831,-318.694 914.538,-305.307 920.668,-294.66"/>
<polygon fill="midnightblue" stroke="midnightblue" points="923.797,-296.241 925.753,-285.828 917.73,-292.748 923.797,-296.241"/>
</g>
<!-- Node13&#45;&gt;Node3 -->
<g id="edge19" class="edge"><title>Node13&#45;&gt;Node3</title>
<path fill="none" stroke="midnightblue" d="M872.706,-267.036C810.913,-258.169 710.492,-242.608 624.836,-224 571.317,-212.373 559.303,-203.866 505.836,-192 417.225,-172.335 312.026,-155.415 255.876,-146.892"/>
<polygon fill="midnightblue" stroke="midnightblue" points="256.058,-143.38 245.648,-145.35 255.015,-150.302 256.058,-143.38"/>
</g>
<!-- Node13&#45;&gt;Node5 -->
<g id="edge26" class="edge"><title>Node13&#45;&gt;Node5</title>
<path fill="none" stroke="midnightblue" d="M967.681,-266.422C978.916,-264.05 991.338,-261.672 1002.84,-260 1193.06,-232.346 1247.56,-271.447 1433.84,-224 1436.5,-223.322 1439.22,-222.454 1441.9,-221.478"/>
<polygon fill="midnightblue" stroke="midnightblue" points="1443.36,-224.66 1451.28,-217.62 1440.7,-218.186 1443.36,-224.66"/>
</g>
<!-- Node13&#45;&gt;Node6 -->
<g id="edge27" class="edge"><title>Node13&#45;&gt;Node6</title>
<path fill="none" stroke="midnightblue" d="M872.748,-266.574C775.731,-252.501 583.888,-224.673 507.909,-213.652"/>
<polygon fill="midnightblue" stroke="midnightblue" points="508.378,-210.184 497.979,-212.212 507.373,-217.111 508.378,-210.184"/>
</g>
<!-- Node13&#45;&gt;Node10 -->
<g id="edge23" class="edge"><title>Node13&#45;&gt;Node10</title>
<path fill="none" stroke="midnightblue" d="M872.704,-268.496C805.152,-260.148 698.508,-244.289 663.836,-224 636.696,-208.118 615.203,-177.691 603.522,-158.419"/>
<polygon fill="midnightblue" stroke="midnightblue" points="606.519,-156.61 598.461,-149.73 600.47,-160.132 606.519,-156.61"/>
</g>
<!-- Node14 -->
<g id="node14" class="node"><title>Node14</title>
<polygon fill="white" stroke="#bfbfbf" points="972.336,-130.5 972.336,-149.5 1021.34,-149.5 1021.34,-130.5 972.336,-130.5"/>
<text text-anchor="middle" x="996.836" y="-137.5" font-family="Helvetica,sans-Serif" font-size="10.00">cstddef</text>
</g>
<!-- Node13&#45;&gt;Node14 -->
<g id="edge17" class="edge"><title>Node13&#45;&gt;Node14</title>
<path fill="none" stroke="midnightblue" d="M937.971,-266.437C945.849,-256.66 958.516,-239.952 966.836,-224 977.88,-202.826 986.596,-176.669 991.725,-159.445"/>
<polygon fill="midnightblue" stroke="midnightblue" points="995.168,-160.137 994.567,-149.559 988.441,-158.203 995.168,-160.137"/>
</g>
<!-- Node15 -->
<g id="node15" class="node"><title>Node15</title>
<polygon fill="white" stroke="#bfbfbf" points="840.836,-62.5 840.836,-81.5 886.836,-81.5 886.836,-62.5 840.836,-62.5"/>
<text text-anchor="middle" x="863.836" y="-69.5" font-family="Helvetica,sans-Serif" font-size="10.00">cstdint</text>
</g>
<!-- Node13&#45;&gt;Node15 -->
<g id="edge18" class="edge"><title>Node13&#45;&gt;Node15</title>
<path fill="none" stroke="midnightblue" d="M872.714,-270.515C810.725,-264.381 718.518,-250.916 696.836,-224 649.22,-164.889 769.935,-108.57 831.003,-84.8196"/>
<polygon fill="midnightblue" stroke="midnightblue" points="832.509,-87.9914 840.608,-81.1611 830.017,-81.4499 832.509,-87.9914"/>
</g>
<!-- Node16 -->
<g id="node16" class="node"><title>Node16</title>
<polygon fill="white" stroke="#bfbfbf" points="903.836,-198.5 903.836,-217.5 957.836,-217.5 957.836,-198.5 903.836,-198.5"/>
<text text-anchor="middle" x="930.836" y="-205.5" font-family="Helvetica,sans-Serif" font-size="10.00">iostream</text>
</g>
<!-- Node13&#45;&gt;Node16 -->
<g id="edge20" class="edge"><title>Node13&#45;&gt;Node16</title>
<path fill="none" stroke="midnightblue" d="M930.836,-266.372C930.836,-256.643 930.836,-240.528 930.836,-227.85"/>
<polygon fill="midnightblue" stroke="midnightblue" points="934.336,-227.841 930.836,-217.841 927.336,-227.841 934.336,-227.841"/>
</g>
<!-- Node17 -->
<g id="node17" class="node"><title>Node17</title>
<polygon fill="white" stroke="#bfbfbf" points="1506.34,-198.5 1506.34,-217.5 1553.34,-217.5 1553.34,-198.5 1506.34,-198.5"/>
<text text-anchor="middle" x="1529.84" y="-205.5" font-family="Helvetica,sans-Serif" font-size="10.00">iterator</text>
</g>
<!-- Node13&#45;&gt;Node17 -->
<g id="edge21" class="edge"><title>Node13&#45;&gt;Node17</title>
<path fill="none" stroke="midnightblue" d="M985.791,-266.473C1001.89,-264.158 1019.55,-261.798 1035.84,-260 1240.11,-237.457 1297.83,-275.299 1496.84,-224 1499.34,-223.354 1501.89,-222.528 1504.41,-221.598"/>
<polygon fill="midnightblue" stroke="midnightblue" points="1505.94,-224.752 1513.8,-217.644 1503.22,-218.301 1505.94,-224.752"/>
</g>
<!-- Node18 -->
<g id="node18" class="node"><title>Node18</title>
<polygon fill="white" stroke="#bfbfbf" points="706.336,-198.5 706.336,-217.5 741.336,-217.5 741.336,-198.5 706.336,-198.5"/>
<text text-anchor="middle" x="723.836" y="-205.5" font-family="Helvetica,sans-Serif" font-size="10.00">map</text>
</g>
<!-- Node13&#45;&gt;Node18 -->
<g id="edge22" class="edge"><title>Node13&#45;&gt;Node18</title>
<path fill="none" stroke="midnightblue" d="M890.62,-266.421C853.54,-257.858 797.369,-243.215 750.836,-224 749.473,-223.437 748.091,-222.822 746.711,-222.173"/>
<polygon fill="midnightblue" stroke="midnightblue" points="748.313,-219.061 737.823,-217.574 745.096,-225.278 748.313,-219.061"/>
</g>
<!-- Node19 -->
<g id="node19" class="node"><title>Node19</title>
<polygon fill="white" stroke="#bfbfbf" points="759.836,-198.5 759.836,-217.5 789.836,-217.5 789.836,-198.5 759.836,-198.5"/>
<text text-anchor="middle" x="774.836" y="-205.5" font-family="Helvetica,sans-Serif" font-size="10.00">set</text>
</g>
<!-- Node13&#45;&gt;Node19 -->
<g id="edge24" class="edge"><title>Node13&#45;&gt;Node19</title>
<path fill="none" stroke="midnightblue" d="M904.41,-266.451C877.302,-257.3 834.214,-241.689 798.836,-224 798.144,-223.654 797.446,-223.294 796.746,-222.922"/>
<polygon fill="midnightblue" stroke="midnightblue" points="798.186,-219.711 787.78,-217.715 794.67,-225.764 798.186,-219.711"/>
</g>
<!-- Node20 -->
<g id="node20" class="node"><title>Node20</title>
<polygon fill="white" stroke="#bfbfbf" points="807.836,-198.5 807.836,-217.5 885.836,-217.5 885.836,-198.5 807.836,-198.5"/>
<text text-anchor="middle" x="846.836" y="-205.5" font-family="Helvetica,sans-Serif" font-size="10.00">unordered_set</text>
</g>
<!-- Node13&#45;&gt;Node20 -->
<g id="edge25" class="edge"><title>Node13&#45;&gt;Node20</title>
<path fill="none" stroke="midnightblue" d="M919.855,-266.372C906.146,-255.6 882.475,-237.002 865.808,-223.906"/>
<polygon fill="midnightblue" stroke="midnightblue" points="867.846,-221.057 857.82,-217.63 863.521,-226.561 867.846,-221.057"/>
</g>
<!-- Node21 -->
<g id="node21" class="node"><title>Node21</title>
<polygon fill="white" stroke="#bfbfbf" points="1207.84,-0.5 1207.84,-19.5 1311.84,-19.5 1311.84,-0.5 1207.84,-0.5"/>
<text text-anchor="middle" x="1259.84" y="-7.5" font-family="Helvetica,sans-Serif" font-size="10.00">shad/config/config.h</text>
</g>
<!-- Node13&#45;&gt;Node21 -->
<g id="edge28" class="edge"><title>Node13&#45;&gt;Node21</title>
<path fill="none" stroke="midnightblue" d="M965.57,-266.484C974.452,-264.337 983.991,-262.059 992.836,-260 1064.25,-243.378 1105.33,-278.985 1153.84,-224 1203.46,-167.754 1127.42,-117.859 1169.84,-56 1180.49,-40.4634 1198.14,-30.0311 1215,-23.1598"/>
<polygon fill="midnightblue" stroke="midnightblue" points="1216.63,-26.2875 1224.77,-19.5139 1214.18,-19.7288 1216.63,-26.2875"/>
</g>
<!-- Node22 -->
<g id="node22" class="node"><title>Node22</title>
<g id="a_node22"><a xlink:href="handle_8h.html" target="_top" xlink:title="shad/runtime/handle.h">
<polygon fill="white" stroke="black" points="1202.34,-198.5 1202.34,-217.5 1315.34,-217.5 1315.34,-198.5 1202.34,-198.5"/>
<text text-anchor="middle" x="1258.84" y="-205.5" font-family="Helvetica,sans-Serif" font-size="10.00">shad/runtime/handle.h</text>
</a>
</g>
</g>
<!-- Node13&#45;&gt;Node22 -->
<g id="edge29" class="edge"><title>Node13&#45;&gt;Node22</title>
<path fill="none" stroke="midnightblue" d="M971.182,-266.497C981.496,-264.35 992.572,-262.068 1002.84,-260 1084.95,-243.458 1105.74,-240.658 1187.84,-224 1194.64,-222.62 1201.8,-221.139 1208.85,-219.664"/>
<polygon fill="midnightblue" stroke="midnightblue" points="1209.99,-223.003 1219.05,-217.522 1208.55,-216.152 1209.99,-223.003"/>
</g>
<!-- Node24 -->
<g id="node24" class="node"><title>Node24</title>
<g id="a_node24"><a xlink:href="mapping__traits_8h.html" target="_top" xlink:title="shad/runtime/mapping\l_traits.h">
<polygon fill="white" stroke="black" points="1419.34,-57 1419.34,-87 1532.34,-87 1532.34,-57 1419.34,-57"/>
<text text-anchor="start" x="1427.34" y="-75" font-family="Helvetica,sans-Serif" font-size="10.00">shad/runtime/mapping</text>
<text text-anchor="middle" x="1475.84" y="-64" font-family="Helvetica,sans-Serif" font-size="10.00">_traits.h</text>
</a>
</g>
</g>
<!-- Node13&#45;&gt;Node24 -->
<g id="edge41" class="edge"><title>Node13&#45;&gt;Node24</title>
<path fill="none" stroke="midnightblue" d="M962.198,-266.493C971.954,-264.095 982.788,-261.684 992.836,-260 1159.71,-232.035 1211.03,-276.626 1371.84,-224 1385.85,-219.413 1478.55,-168.825 1485.84,-156 1496.08,-137.959 1491.77,-114.187 1485.96,-96.7093"/>
<polygon fill="midnightblue" stroke="midnightblue" points="1489.21,-95.4077 1482.46,-87.2368 1482.64,-97.8302 1489.21,-95.4077"/>
</g>
<!-- Node27 -->
<g id="node27" class="node"><title>Node27</title>
<g id="a_node27"><a xlink:href="locality_8h.html" target="_top" xlink:title="shad/runtime/locality.h">
<polygon fill="white" stroke="black" points="1342.34,-130.5 1342.34,-149.5 1457.34,-149.5 1457.34,-130.5 1342.34,-130.5"/>
<text text-anchor="middle" x="1399.84" y="-137.5" font-family="Helvetica,sans-Serif" font-size="10.00">shad/runtime/locality.h</text>
</a>
</g>
</g>
<!-- Node13&#45;&gt;Node27 -->
<g id="edge36" class="edge"><title>Node13&#45;&gt;Node27</title>
<path fill="none" stroke="midnightblue" d="M968.448,-266.427C979.487,-264.111 991.609,-261.761 1002.84,-260 1077.68,-248.26 1276.6,-262.516 1341.84,-224 1366.99,-209.151 1383.92,-178.617 1392.71,-159.012"/>
<polygon fill="midnightblue" stroke="midnightblue" points="1396,-160.228 1396.66,-149.654 1389.55,-157.505 1396,-160.228"/>
</g>
<!-- Node28 -->
<g id="node28" class="node"><title>Node28</title>
<g id="a_node28"><a xlink:href="available__mappings_8h.html" target="_top" xlink:title="shad/runtime/mappings\l/available_mappings.h">
<polygon fill="white" stroke="black" points="1205.84,-125 1205.84,-155 1323.84,-155 1323.84,-125 1205.84,-125"/>
<text text-anchor="start" x="1213.84" y="-143" font-family="Helvetica,sans-Serif" font-size="10.00">shad/runtime/mappings</text>
<text text-anchor="middle" x="1264.84" y="-132" font-family="Helvetica,sans-Serif" font-size="10.00">/available_mappings.h</text>
</a>
</g>
</g>
<!-- Node13&#45;&gt;Node28 -->
<g id="edge42" class="edge"><title>Node13&#45;&gt;Node28</title>
<path fill="none" stroke="midnightblue" d="M968.454,-266.469C979.493,-264.154 991.615,-261.794 1002.84,-260 1073.72,-248.668 1275.99,-277.51 1323.84,-224 1341.68,-204.046 1317.78,-178.662 1295.27,-161.251"/>
<polygon fill="midnightblue" stroke="midnightblue" points="1297.24,-158.355 1287.12,-155.222 1293.08,-163.983 1297.24,-158.355"/>
</g>
<!-- Node29 -->
<g id="node29" class="node"><title>Node29</title>
<g id="a_node29"><a xlink:href="synchronous__interface_8h.html" target="_top" xlink:title="shad/runtime/synchronous\l_interface.h">
<polygon fill="white" stroke="black" points="1014.34,-193 1014.34,-223 1145.34,-223 1145.34,-193 1014.34,-193"/>
<text text-anchor="start" x="1022.34" y="-211" font-family="Helvetica,sans-Serif" font-size="10.00">shad/runtime/synchronous</text>
<text text-anchor="middle" x="1079.84" y="-200" font-family="Helvetica,sans-Serif" font-size="10.00">_interface.h</text>
</a>
</g>
</g>
<!-- Node13&#45;&gt;Node29 -->
<g id="edge44" class="edge"><title>Node13&#45;&gt;Node29</title>
<path fill="none" stroke="midnightblue" d="M950.315,-266.372C972.64,-256.483 1009.86,-239.997 1038.68,-227.229"/>
<polygon fill="midnightblue" stroke="midnightblue" points="1040.38,-230.306 1048.1,-223.056 1037.54,-223.906 1040.38,-230.306"/>
</g>
<!-- Node22&#45;&gt;Node21 -->
<g id="edge31" class="edge"><title>Node22&#45;&gt;Node21</title>
<path fill="none" stroke="midnightblue" d="M1238.59,-198.395C1222,-190.154 1199.57,-176.005 1188.84,-156 1167.81,-116.823 1164.04,-94.7579 1185.84,-56 1194.06,-41.3782 1209.17,-30.9543 1223.6,-23.8465"/>
<polygon fill="midnightblue" stroke="midnightblue" points="1225.23,-26.9491 1232.91,-19.6437 1222.35,-20.5693 1225.23,-26.9491"/>
</g>
<!-- Node23 -->
<g id="node23" class="node"><title>Node23</title>
<polygon fill="white" stroke="#bfbfbf" points="335.836,-130.5 335.836,-149.5 397.836,-149.5 397.836,-130.5 335.836,-130.5"/>
<text text-anchor="middle" x="366.836" y="-137.5" font-family="Helvetica,sans-Serif" font-size="10.00">type_traits</text>
</g>
<!-- Node22&#45;&gt;Node23 -->
<g id="edge30" class="edge"><title>Node22&#45;&gt;Node23</title>
<path fill="none" stroke="midnightblue" d="M1205.25,-198.487C1188.79,-196.103 1170.6,-193.702 1153.84,-192 890.263,-165.245 823.13,-174.318 558.836,-156 507.006,-152.408 447.356,-147.65 408.476,-144.465"/>
<polygon fill="midnightblue" stroke="midnightblue" points="408.337,-140.942 398.084,-143.611 407.764,-147.918 408.337,-140.942"/>
</g>
<!-- Node22&#45;&gt;Node24 -->
<g id="edge32" class="edge"><title>Node22&#45;&gt;Node24</title>
<path fill="none" stroke="midnightblue" d="M1315.55,-200.288C1369.78,-192.64 1446.15,-178.241 1465.84,-156 1479.83,-140.192 1481.15,-115.553 1479.68,-97.2216"/>
<polygon fill="midnightblue" stroke="midnightblue" points="1483.16,-96.8206 1478.57,-87.2715 1476.2,-97.5985 1483.16,-96.8206"/>
</g>
<!-- Node26 -->
<g id="node26" class="node"><title>Node26</title>
<g id="a_node26"><a xlink:href="available__traits__mappings_8h.html" target="_top" xlink:title="shad/runtime/mappings\l/available_traits_mappings.h">
<polygon fill="white" stroke="black" points="1194.84,-57 1194.84,-87 1334.84,-87 1334.84,-57 1194.84,-57"/>
<text text-anchor="start" x="1202.84" y="-75" font-family="Helvetica,sans-Serif" font-size="10.00">shad/runtime/mappings</text>
<text text-anchor="middle" x="1264.84" y="-64" font-family="Helvetica,sans-Serif" font-size="10.00">/available_traits_mappings.h</text>
</a>
</g>
</g>
<!-- Node22&#45;&gt;Node26 -->
<g id="edge35" class="edge"><title>Node22&#45;&gt;Node26</title>
<path fill="none" stroke="midnightblue" d="M1241.52,-198.406C1226.58,-189.922 1206,-175.408 1196.84,-156 1190.76,-143.14 1190.48,-136.721 1196.84,-124 1203.31,-111.042 1214.82,-100.523 1226.55,-92.4768"/>
<polygon fill="midnightblue" stroke="midnightblue" points="1228.51,-95.3801 1235.07,-87.0558 1224.75,-89.476 1228.51,-95.3801"/>
</g>
<!-- Node24&#45;&gt;Node21 -->
<g id="edge34" class="edge"><title>Node24&#45;&gt;Node21</title>
<path fill="none" stroke="midnightblue" d="M1425.19,-56.9327C1387.17,-46.3717 1335.8,-32.0998 1300.45,-22.282"/>
<polygon fill="midnightblue" stroke="midnightblue" points="1301.05,-18.8169 1290.48,-19.5127 1299.18,-25.5615 1301.05,-18.8169"/>
</g>
<!-- Node25 -->
<g id="node25" class="node"><title>Node25</title>
<polygon fill="white" stroke="#bfbfbf" points="1455.34,-0.5 1455.34,-19.5 1496.34,-19.5 1496.34,-0.5 1455.34,-0.5"/>
<text text-anchor="middle" x="1475.84" y="-7.5" font-family="Helvetica,sans-Serif" font-size="10.00">string</text>
</g>
<!-- Node24&#45;&gt;Node25 -->
<g id="edge33" class="edge"><title>Node24&#45;&gt;Node25</title>
<path fill="none" stroke="midnightblue" d="M1475.84,-56.7808C1475.84,-48.7812 1475.84,-38.6887 1475.84,-30.0168"/>
<polygon fill="midnightblue" stroke="midnightblue" points="1479.34,-29.7305 1475.84,-19.7305 1472.34,-29.7306 1479.34,-29.7305"/>
</g>
<!-- Node27&#45;&gt;Node15 -->
<g id="edge37" class="edge"><title>Node27&#45;&gt;Node15</title>
<path fill="none" stroke="midnightblue" d="M1365.21,-130.471C1354.84,-128.129 1343.42,-125.754 1332.84,-124 1170.39,-97.0704 973.84,-80.9842 896.938,-75.3187"/>
<polygon fill="midnightblue" stroke="midnightblue" points="897.125,-71.8231 886.897,-74.5884 896.617,-78.8047 897.125,-71.8231"/>
</g>
<!-- Node27&#45;&gt;Node21 -->
<g id="edge38" class="edge"><title>Node27&#45;&gt;Node21</title>
<path fill="none" stroke="midnightblue" d="M1395.73,-130.225C1387.72,-113.872 1368.61,-78.3692 1343.84,-56 1328.65,-42.2814 1308.52,-31.3125 1291.77,-23.6397"/>
<polygon fill="midnightblue" stroke="midnightblue" points="1292.93,-20.3257 1282.37,-19.507 1290.12,-26.7343 1292.93,-20.3257"/>
</g>
<!-- Node27&#45;&gt;Node24 -->
<g id="edge39" class="edge"><title>Node27&#45;&gt;Node24</title>
<path fill="none" stroke="midnightblue" d="M1409.77,-130.372C1420.33,-121.2 1437.43,-106.354 1451.58,-94.0615"/>
<polygon fill="midnightblue" stroke="midnightblue" points="1454.25,-96.381 1459.51,-87.1815 1449.66,-91.0957 1454.25,-96.381"/>
</g>
<!-- Node27&#45;&gt;Node26 -->
<g id="edge40" class="edge"><title>Node27&#45;&gt;Node26</title>
<path fill="none" stroke="midnightblue" d="M1382.19,-130.372C1362.14,-120.569 1328.83,-104.283 1302.81,-91.5629"/>
<polygon fill="midnightblue" stroke="midnightblue" points="1304.11,-88.304 1293.59,-87.0562 1301.03,-94.5927 1304.11,-88.304"/>
</g>
<!-- Node28&#45;&gt;Node26 -->
<g id="edge43" class="edge"><title>Node28&#45;&gt;Node26</title>
<path fill="none" stroke="midnightblue" d="M1264.84,-124.679C1264.84,-116.722 1264.84,-106.605 1264.84,-97.4356"/>
<polygon fill="midnightblue" stroke="midnightblue" points="1268.34,-97.293 1264.84,-87.2931 1261.34,-97.2931 1268.34,-97.293"/>
</g>
<!-- Node29&#45;&gt;Node10 -->
<g id="edge47" class="edge"><title>Node29&#45;&gt;Node10</title>
<path fill="none" stroke="midnightblue" d="M1014.29,-198.099C910.519,-184.006 711.811,-157.021 630.197,-145.938"/>
<polygon fill="midnightblue" stroke="midnightblue" points="630.312,-142.421 619.932,-144.544 629.37,-149.358 630.312,-142.421"/>
</g>
<!-- Node29&#45;&gt;Node14 -->
<g id="edge45" class="edge"><title>Node29&#45;&gt;Node14</title>
<path fill="none" stroke="midnightblue" d="M1061.83,-192.679C1048.24,-181.879 1029.66,-167.098 1015.84,-156.11"/>
<polygon fill="midnightblue" stroke="midnightblue" points="1017.94,-153.313 1007.94,-149.828 1013.59,-158.792 1017.94,-153.313"/>
</g>
<!-- Node29&#45;&gt;Node15 -->
<g id="edge46" class="edge"><title>Node29&#45;&gt;Node15</title>
<path fill="none" stroke="midnightblue" d="M1074.95,-192.774C1067.88,-174.257 1053.03,-142.127 1029.84,-124 990.594,-93.333 932.875,-81.0079 896.865,-76.1227"/>
<polygon fill="midnightblue" stroke="midnightblue" points="897.23,-72.6411 886.875,-74.883 896.368,-79.5879 897.23,-72.6411"/>
</g>
<!-- Node29&#45;&gt;Node27 -->
<g id="edge48" class="edge"><title>Node29&#45;&gt;Node27</title>
<path fill="none" stroke="midnightblue" d="M1145.44,-194.174C1196.56,-184.084 1269.29,-169.517 1332.84,-156 1339.11,-154.665 1345.71,-153.229 1352.21,-151.793"/>
<polygon fill="midnightblue" stroke="midnightblue" points="1353.3,-155.136 1362.3,-149.551 1351.78,-148.303 1353.3,-155.136"/>
</g>
<!-- Node30&#45;&gt;Node2 -->
<g id="edge51" class="edge"><title>Node30&#45;&gt;Node2</title>
<path fill="none" stroke="midnightblue" d="M592.524,-405.486C469.135,-391.997 172.469,-353.847 95.8361,-292 75.7327,-275.775 65.8239,-246.561 61.2777,-227.477"/>
<polygon fill="midnightblue" stroke="midnightblue" points="64.6792,-226.644 59.1842,-217.586 57.8309,-228.094 64.6792,-226.644"/>
</g>
<!-- Node30&#45;&gt;Node6 -->
<g id="edge54" class="edge"><title>Node30&#45;&gt;Node6</title>
<path fill="none" stroke="midnightblue" d="M592.591,-406.483C532.443,-400.217 441.067,-386.53 419.836,-360 386.462,-318.295 434.084,-254.745 460.401,-225.178"/>
<polygon fill="midnightblue" stroke="midnightblue" points="462.999,-227.524 467.174,-217.787 457.838,-222.795 462.999,-227.524"/>
</g>
<!-- Node30&#45;&gt;Node11 -->
<g id="edge55" class="edge"><title>Node30&#45;&gt;Node11</title>
<path fill="none" stroke="midnightblue" d="M699.308,-396.922C737.764,-386.605 790.112,-372.56 830.668,-361.679"/>
<polygon fill="midnightblue" stroke="midnightblue" points="831.694,-365.028 840.445,-359.056 829.88,-358.267 831.694,-365.028"/>
</g>
<!-- Node30&#45;&gt;Node12 -->
<g id="edge53" class="edge"><title>Node30&#45;&gt;Node12</title>
<path fill="none" stroke="midnightblue" d="M648.12,-396.66C650.3,-372.32 654.723,-322.933 657.149,-295.837"/>
<polygon fill="midnightblue" stroke="midnightblue" points="660.649,-296 658.054,-285.728 653.676,-295.375 660.649,-296"/>
</g>
<!-- Node30&#45;&gt;Node13 -->
<g id="edge56" class="edge"><title>Node30&#45;&gt;Node13</title>
<path fill="none" stroke="midnightblue" d="M676.692,-396.913C732.063,-370.787 849.892,-315.192 903.391,-289.95"/>
<polygon fill="midnightblue" stroke="midnightblue" points="905.052,-293.036 912.602,-285.603 902.065,-286.705 905.052,-293.036"/>
</g>
<!-- Node31 -->
<g id="node31" class="node"><title>Node31</title>
<polygon fill="white" stroke="#bfbfbf" points="592.836,-334.5 592.836,-353.5 630.836,-353.5 630.836,-334.5 592.836,-334.5"/>
<text text-anchor="middle" x="611.836" y="-341.5" font-family="Helvetica,sans-Serif" font-size="10.00">array</text>
</g>
<!-- Node30&#45;&gt;Node31 -->
<g id="edge52" class="edge"><title>Node30&#45;&gt;Node31</title>
<path fill="none" stroke="midnightblue" d="M639.242,-396.679C634,-386.796 626.992,-373.579 621.374,-362.986"/>
<polygon fill="midnightblue" stroke="midnightblue" points="624.295,-361.023 616.518,-353.828 618.111,-364.303 624.295,-361.023"/>
</g>
<!-- Node32&#45;&gt;Node2 -->
<g id="edge58" class="edge"><title>Node32&#45;&gt;Node2</title>
<path fill="none" stroke="midnightblue" d="M222.257,-260.922C184.285,-248.931 130.371,-231.906 94.7706,-220.664"/>
<polygon fill="midnightblue" stroke="midnightblue" points="95.3861,-217.188 84.7963,-217.514 93.2782,-223.863 95.3861,-217.188"/>
</g>
<!-- Node32&#45;&gt;Node3 -->
<g id="edge61" class="edge"><title>Node32&#45;&gt;Node3</title>
<path fill="none" stroke="midnightblue" d="M256.226,-260.977C249.224,-251.106 240.356,-237.327 234.836,-224 226.103,-202.917 220.993,-177.079 218.313,-159.887"/>
<polygon fill="midnightblue" stroke="midnightblue" points="221.712,-158.935 216.83,-149.532 214.783,-159.927 221.712,-158.935"/>
</g>
<!-- Node32&#45;&gt;Node6 -->
<g id="edge63" class="edge"><title>Node32&#45;&gt;Node6</title>
<path fill="none" stroke="midnightblue" d="M319.929,-260.951C354.403,-251.437 400.142,-238.074 439.836,-224 442.098,-223.198 444.423,-222.331 446.751,-221.432"/>
<polygon fill="midnightblue" stroke="midnightblue" points="448.207,-224.618 456.18,-217.641 445.596,-218.124 448.207,-224.618"/>
</g>
<!-- Node32&#45;&gt;Node15 -->
<g id="edge59" class="edge"><title>Node32&#45;&gt;Node15</title>
<path fill="none" stroke="midnightblue" d="M303.073,-260.974C327.162,-251.317 359.308,-237.784 386.836,-224 465.902,-184.407 475.656,-154.001 558.836,-124 653.488,-89.8615 773.025,-78.374 830.277,-74.6692"/>
<polygon fill="midnightblue" stroke="midnightblue" points="830.778,-78.1454 840.547,-74.0459 830.353,-71.1582 830.778,-78.1454"/>
</g>
<!-- Node32&#45;&gt;Node23 -->
<g id="edge62" class="edge"><title>Node32&#45;&gt;Node23</title>
<path fill="none" stroke="midnightblue" d="M319.785,-260.925C338.274,-253.191 357.079,-241.483 367.836,-224 379.844,-204.485 376.55,-177.194 372.33,-159.313"/>
<polygon fill="midnightblue" stroke="midnightblue" points="375.682,-158.302 369.711,-149.55 368.921,-160.116 375.682,-158.302"/>
</g>
<!-- Node33 -->
<g id="node33" class="node"><title>Node33</title>
<polygon fill="white" stroke="#bfbfbf" points="141.836,-198.5 141.836,-217.5 187.836,-217.5 187.836,-198.5 141.836,-198.5"/>
<text text-anchor="middle" x="164.836" y="-205.5" font-family="Helvetica,sans-Serif" font-size="10.00">cstring</text>
</g>
<!-- Node32&#45;&gt;Node33 -->
<g id="edge60" class="edge"><title>Node32&#45;&gt;Node33</title>
<path fill="none" stroke="midnightblue" d="M244.955,-260.841C227.865,-249.784 204.216,-234.481 187.044,-223.37"/>
<polygon fill="midnightblue" stroke="midnightblue" points="188.551,-220.176 178.254,-217.682 184.748,-226.053 188.551,-220.176"/>
</g>
<!-- Node34 -->
<g id="node34" class="node"><title>Node34</title>
<g id="a_node34"><a xlink:href="type__traits_8h.html" target="_top" xlink:title="shad/core/type_traits.h">
<polygon fill="white" stroke="black" points="243.836,-198.5 243.836,-217.5 359.836,-217.5 359.836,-198.5 243.836,-198.5"/>
<text text-anchor="middle" x="301.836" y="-205.5" font-family="Helvetica,sans-Serif" font-size="10.00">shad/core/type_traits.h</text>
</a>
</g>
</g>
<!-- Node32&#45;&gt;Node34 -->
<g id="edge64" class="edge"><title>Node32&#45;&gt;Node34</title>
<path fill="none" stroke="midnightblue" d="M274.431,-260.679C279.672,-250.796 286.68,-237.579 292.298,-226.986"/>
<polygon fill="midnightblue" stroke="midnightblue" points="295.561,-228.303 297.154,-217.828 289.377,-225.023 295.561,-228.303"/>
</g>
<!-- Node34&#45;&gt;Node3 -->
<g id="edge65" class="edge"><title>Node34&#45;&gt;Node3</title>
<path fill="none" stroke="midnightblue" d="M290.593,-198.372C276.558,-187.6 252.324,-169.002 235.26,-155.906"/>
<polygon fill="midnightblue" stroke="midnightblue" points="237.146,-152.942 227.082,-149.63 232.884,-158.495 237.146,-152.942"/>
</g>
<!-- Node34&#45;&gt;Node23 -->
<g id="edge66" class="edge"><title>Node34&#45;&gt;Node23</title>
<path fill="none" stroke="midnightblue" d="M310.334,-198.372C320.593,-187.955 338.061,-170.217 350.866,-157.216"/>
<polygon fill="midnightblue" stroke="midnightblue" points="353.606,-159.422 358.129,-149.841 348.618,-154.51 353.606,-159.422"/>
</g>
<!-- Node35&#45;&gt;Node2 -->
<g id="edge68" class="edge"><title>Node35&#45;&gt;Node2</title>
<path fill="none" stroke="midnightblue" d="M428.764,-339.141C345.237,-332.485 189.296,-317.095 139.836,-292 109.271,-276.492 83.288,-245.225 69.1823,-225.806"/>
<polygon fill="midnightblue" stroke="midnightblue" points="72.016,-223.751 63.4032,-217.58 66.2883,-227.775 72.016,-223.751"/>
</g>
<!-- Node35&#45;&gt;Node3 -->
<g id="edge70" class="edge"><title>Node35&#45;&gt;Node3</title>
<path fill="none" stroke="midnightblue" d="M428.59,-338.04C355.399,-330.593 229.596,-314.911 189.836,-292 145.511,-266.459 107.866,-236.65 132.836,-192 142.866,-174.065 162.071,-161.666 179.483,-153.589"/>
<polygon fill="midnightblue" stroke="midnightblue" points="181.099,-156.704 188.903,-149.538 178.333,-150.273 181.099,-156.704"/>
</g>
<!-- Node35&#45;&gt;Node4 -->
<g id="edge72" class="edge"><title>Node35&#45;&gt;Node4</title>
<path fill="none" stroke="midnightblue" d="M502.365,-328.679C517.318,-317.713 537.866,-302.645 552.915,-291.609"/>
<polygon fill="midnightblue" stroke="midnightblue" points="555.063,-294.374 561.057,-285.638 550.923,-288.729 555.063,-294.374"/>
</g>
<!-- Node35&#45;&gt;Node5 -->
<g id="edge73" class="edge"><title>Node35&#45;&gt;Node5</title>
<path fill="none" stroke="midnightblue" d="M537.007,-334.338C552.139,-332.087 568.607,-329.793 583.836,-328 675.33,-317.228 911.525,-326.772 996.836,-292 1017.6,-283.537 1015.09,-268.497 1035.84,-260 1200.2,-192.694 1261.87,-268.432 1433.84,-224 1436.5,-223.313 1439.21,-222.439 1441.89,-221.459"/>
<polygon fill="midnightblue" stroke="midnightblue" points="1443.36,-224.64 1451.28,-217.595 1440.7,-218.167 1443.36,-224.64"/>
</g>
<!-- Node35&#45;&gt;Node6 -->
<g id="edge74" class="edge"><title>Node35&#45;&gt;Node6</title>
<path fill="none" stroke="midnightblue" d="M482.087,-328.66C480.815,-304.32 478.236,-254.933 476.82,-227.837"/>
<polygon fill="midnightblue" stroke="midnightblue" points="480.309,-227.531 476.292,-217.728 473.319,-227.897 480.309,-227.531"/>
</g>
<!-- Node35&#45;&gt;Node10 -->
<g id="edge71" class="edge"><title>Node35&#45;&gt;Node10</title>
<path fill="none" stroke="midnightblue" d="M487.482,-328.99C496.936,-301.482 520.059,-239 549.836,-192 557.855,-179.343 568.868,-166.581 577.871,-156.989"/>
<polygon fill="midnightblue" stroke="midnightblue" points="580.429,-159.378 584.849,-149.749 575.389,-154.52 580.429,-159.378"/>
</g>
<!-- Node35&#45;&gt;Node12 -->
<g id="edge69" class="edge"><title>Node35&#45;&gt;Node12</title>
<path fill="none" stroke="midnightblue" d="M520.592,-328.841C552.082,-317.033 596.479,-300.384 626.389,-289.168"/>
<polygon fill="midnightblue" stroke="midnightblue" points="627.804,-292.375 635.938,-285.587 625.346,-285.821 627.804,-292.375"/>
</g>
<!-- Node35&#45;&gt;Node13 -->
<g id="edge76" class="edge"><title>Node35&#45;&gt;Node13</title>
<path fill="none" stroke="midnightblue" d="M537.085,-334.928C552.218,-332.68 568.667,-330.241 583.836,-328 680.72,-313.686 792.837,-297.227 862.802,-286.968"/>
<polygon fill="midnightblue" stroke="midnightblue" points="863.426,-290.414 872.812,-285.501 862.41,-283.488 863.426,-290.414"/>
</g>
<!-- Node35&#45;&gt;Node32 -->
<g id="edge75" class="edge"><title>Node35&#45;&gt;Node32</title>
<path fill="none" stroke="midnightblue" d="M436.764,-328.922C403.354,-318.714 358.003,-304.857 322.555,-294.025"/>
<polygon fill="midnightblue" stroke="midnightblue" points="323.424,-290.631 312.838,-291.056 321.378,-297.326 323.424,-290.631"/>
</g>
<!-- Node36&#45;&gt;Node17 -->
<g id="edge79" class="edge"><title>Node36&#45;&gt;Node17</title>
<path fill="none" stroke="midnightblue" d="M1550.19,-260.679C1546.34,-250.898 1541.2,-237.852 1537.05,-227.315"/>
<polygon fill="midnightblue" stroke="midnightblue" points="1540.24,-225.85 1533.31,-217.828 1533.72,-228.415 1540.24,-225.85"/>
</g>
<!-- Node36&#45;&gt;Node27 -->
<g id="edge80" class="edge"><title>Node36&#45;&gt;Node27</title>
<path fill="none" stroke="midnightblue" d="M1561.98,-260.838C1568.68,-242.972 1576.62,-212.153 1561.84,-192 1540.25,-162.571 1501.66,-149.678 1467.56,-144.21"/>
<polygon fill="midnightblue" stroke="midnightblue" points="1468.01,-140.738 1457.62,-142.799 1467.03,-147.669 1468.01,-140.738"/>
</g>
<!-- Node37 -->
<g id="node37" class="node"><title>Node37</title>
<polygon fill="white" stroke="#bfbfbf" points="1610.34,-198.5 1610.34,-217.5 1659.34,-217.5 1659.34,-198.5 1610.34,-198.5"/>
<text text-anchor="middle" x="1634.84" y="-205.5" font-family="Helvetica,sans-Serif" font-size="10.00">cassert</text>
</g>
<!-- Node36&#45;&gt;Node37 -->
<g id="edge78" class="edge"><title>Node36&#45;&gt;Node37</title>
<path fill="none" stroke="midnightblue" d="M1572.98,-260.679C1585.78,-249.981 1603.26,-235.377 1616.38,-224.422"/>
<polygon fill="midnightblue" stroke="midnightblue" points="1618.84,-226.926 1624.27,-217.828 1614.35,-221.554 1618.84,-226.926"/>
</g>
</g>
</svg>
