<?xml version="1.0" encoding="UTF-8" standalone="no"?>
<!DOCTYPE svg PUBLIC "-//W3C//DTD SVG 1.1//EN"
 "http://www.w3.org/Graphics/SVG/1.1/DTD/svg11.dtd">
<!-- Generated by graphviz version 2.36.0 (20140111.2315)
 -->
<!-- Title: include/shad/core/impl/heap_ops.h Pages: 1 -->
<svg width="1153pt" height="368pt"
 viewBox="0.00 0.00 1153.00 368.00" xmlns="http://www.w3.org/2000/svg" xmlns:xlink="http://www.w3.org/1999/xlink">
<g id="graph0" class="graph" transform="scale(1 1) rotate(0) translate(4 364)">
<title>include/shad/core/impl/heap_ops.h</title>
<polygon fill="white" stroke="none" points="-4,4 -4,-364 1149,-364 1149,4 -4,4"/>
<!-- Node1 -->
<g id="node1" class="node"><title>Node1</title>
<polygon fill="#bfbfbf" stroke="black" points="185,-329 185,-359 299,-359 299,-329 185,-329"/>
<text text-anchor="start" x="193" y="-347" font-family="Helvetica,sans-Serif" font-size="10.00">include/shad/core/impl</text>
<text text-anchor="middle" x="242" y="-336" font-family="Helvetica,sans-Serif" font-size="10.00">/heap_ops.h</text>
</g>
<!-- Node2 -->
<g id="node2" class="node"><title>Node2</title>
<polygon fill="white" stroke="#bfbfbf" points="0,-266.5 0,-285.5 56,-285.5 56,-266.5 0,-266.5"/>
<text text-anchor="middle" x="28" y="-273.5" font-family="Helvetica,sans-Serif" font-size="10.00">algorithm</text>
</g>
<!-- Node1&#45;&gt;Node2 -->
<g id="edge1" class="edge"><title>Node1&#45;&gt;Node2</title>
<path fill="none" stroke="midnightblue" d="M186.952,-328.994C151.518,-319.546 104.654,-306.24 64,-292 61.5957,-291.158 59.1205,-290.239 56.6472,-289.285"/>
<polygon fill="midnightblue" stroke="midnightblue" points="57.8549,-285.998 47.2712,-285.512 55.2419,-292.492 57.8549,-285.998"/>
</g>
<!-- Node3 -->
<g id="node3" class="node"><title>Node3</title>
<polygon fill="white" stroke="#bfbfbf" points="227.5,-198.5 227.5,-217.5 286.5,-217.5 286.5,-198.5 227.5,-198.5"/>
<text text-anchor="middle" x="257" y="-205.5" font-family="Helvetica,sans-Serif" font-size="10.00">functional</text>
</g>
<!-- Node1&#45;&gt;Node3 -->
<g id="edge2" class="edge"><title>Node1&#45;&gt;Node3</title>
<path fill="none" stroke="midnightblue" d="M243.605,-328.66C246.33,-304.32 251.858,-254.933 254.891,-227.837"/>
<polygon fill="midnightblue" stroke="midnightblue" points="258.389,-228.055 256.023,-217.728 251.432,-227.276 258.389,-228.055"/>
</g>
<!-- Node4 -->
<g id="node4" class="node"><title>Node4</title>
<polygon fill="white" stroke="#bfbfbf" points="162.5,-198.5 162.5,-217.5 209.5,-217.5 209.5,-198.5 162.5,-198.5"/>
<text text-anchor="middle" x="186" y="-205.5" font-family="Helvetica,sans-Serif" font-size="10.00">iterator</text>
</g>
<!-- Node1&#45;&gt;Node4 -->
<g id="edge3" class="edge"><title>Node1&#45;&gt;Node4</title>
<path fill="none" stroke="midnightblue" d="M236.007,-328.66C225.744,-304.103 204.827,-254.049 193.571,-227.117"/>
<polygon fill="midnightblue" stroke="midnightblue" points="196.733,-225.605 189.647,-217.728 190.274,-228.304 196.733,-225.605"/>
</g>
<!-- Node5 -->
<g id="node5" class="node"><title>Node5</title>
<g id="a_node5"><a xlink:href="execution_8h.html" target="_top" xlink:title="shad/core/execution.h">
<polygon fill="white" stroke="black" points="864.5,-266.5 864.5,-285.5 977.5,-285.5 977.5,-266.5 864.5,-266.5"/>
<text text-anchor="middle" x="921" y="-273.5" font-family="Helvetica,sans-Serif" font-size="10.00">shad/core/execution.h</text>
</a>
</g>
</g>
<!-- Node1&#45;&gt;Node5 -->
<g id="edge4" class="edge"><title>Node1&#45;&gt;Node5</title>
<path fill="none" stroke="midnightblue" d="M299.014,-337.458C423.774,-325.331 720.473,-296.492 853.932,-283.519"/>
<polygon fill="midnightblue" stroke="midnightblue" points="854.409,-286.989 864.024,-282.538 853.732,-280.022 854.409,-286.989"/>
</g>
<!-- Node7 -->
<g id="node7" class="node"><title>Node7</title>
<g id="a_node7"><a xlink:href="distributed__iterator__traits_8h.html" target="_top" xlink:title="shad/distributed_iterator\l_traits.h">
<polygon fill="white" stroke="black" points="73.5,-261 73.5,-291 194.5,-291 194.5,-261 73.5,-261"/>
<text text-anchor="start" x="81.5" y="-279" font-family="Helvetica,sans-Serif" font-size="10.00">shad/distributed_iterator</text>
<text text-anchor="middle" x="134" y="-268" font-family="Helvetica,sans-Serif" font-size="10.00">_traits.h</text>
</a>
</g>
</g>
<!-- Node1&#45;&gt;Node7 -->
<g id="edge6" class="edge"><title>Node1&#45;&gt;Node7</title>
<path fill="none" stroke="midnightblue" d="M218.831,-328.841C203.456,-319.446 183.066,-306.985 166.13,-296.635"/>
<polygon fill="midnightblue" stroke="midnightblue" points="167.488,-293.363 157.13,-291.135 163.838,-299.336 167.488,-293.363"/>
</g>
<!-- Node16 -->
<g id="node16" class="node"><title>Node16</title>
<g id="a_node16"><a xlink:href="runtime_8h.html" target="_top" xlink:title="shad/runtime/runtime.h">
<polygon fill="white" stroke="black" points="574,-266.5 574,-285.5 690,-285.5 690,-266.5 574,-266.5"/>
<text text-anchor="middle" x="632" y="-273.5" font-family="Helvetica,sans-Serif" font-size="10.00">shad/runtime/runtime.h</text>
</a>
</g>
</g>
<!-- Node1&#45;&gt;Node16 -->
<g id="edge17" class="edge"><title>Node1&#45;&gt;Node16</title>
<path fill="none" stroke="midnightblue" d="M299.127,-333.332C371.872,-321.022 497.029,-299.841 571.399,-287.256"/>
<polygon fill="midnightblue" stroke="midnightblue" points="572.269,-290.658 581.545,-285.539 571.101,-283.756 572.269,-290.658"/>
</g>
<!-- Node6 -->
<g id="node6" class="node"><title>Node6</title>
<polygon fill="white" stroke="#bfbfbf" points="1083,-62.5 1083,-81.5 1145,-81.5 1145,-62.5 1083,-62.5"/>
<text text-anchor="middle" x="1114" y="-69.5" font-family="Helvetica,sans-Serif" font-size="10.00">type_traits</text>
</g>
<!-- Node5&#45;&gt;Node6 -->
<g id="edge5" class="edge"><title>Node5&#45;&gt;Node6</title>
<path fill="none" stroke="midnightblue" d="M977.578,-266.764C1025.83,-258.479 1089.87,-244.055 1106,-224 1136.77,-185.74 1126.85,-122.787 1119.27,-91.6432"/>
<polygon fill="midnightblue" stroke="midnightblue" points="1122.59,-90.4967 1116.66,-81.7131 1115.82,-92.2741 1122.59,-90.4967"/>
</g>
<!-- Node7&#45;&gt;Node4 -->
<g id="edge8" class="edge"><title>Node7&#45;&gt;Node4</title>
<path fill="none" stroke="midnightblue" d="M145.283,-260.679C153.391,-250.388 164.346,-236.484 172.851,-225.69"/>
<polygon fill="midnightblue" stroke="midnightblue" points="175.605,-227.849 179.044,-217.828 170.106,-223.517 175.605,-227.849"/>
</g>
<!-- Node8 -->
<g id="node8" class="node"><title>Node8</title>
<polygon fill="white" stroke="#bfbfbf" points="56.5,-198.5 56.5,-217.5 105.5,-217.5 105.5,-198.5 56.5,-198.5"/>
<text text-anchor="middle" x="81" y="-205.5" font-family="Helvetica,sans-Serif" font-size="10.00">cassert</text>
</g>
<!-- Node7&#45;&gt;Node8 -->
<g id="edge7" class="edge"><title>Node7&#45;&gt;Node8</title>
<path fill="none" stroke="midnightblue" d="M122.5,-260.679C114.236,-250.388 103.07,-236.484 94.4023,-225.69"/>
<polygon fill="midnightblue" stroke="midnightblue" points="97.0798,-223.434 88.0894,-217.828 91.6218,-227.817 97.0798,-223.434"/>
</g>
<!-- Node9 -->
<g id="node9" class="node"><title>Node9</title>
<g id="a_node9"><a xlink:href="locality_8h.html" target="_top" xlink:title="shad/runtime/locality.h">
<polygon fill="white" stroke="black" points="397.5,-130.5 397.5,-149.5 512.5,-149.5 512.5,-130.5 397.5,-130.5"/>
<text text-anchor="middle" x="455" y="-137.5" font-family="Helvetica,sans-Serif" font-size="10.00">shad/runtime/locality.h</text>
</a>
</g>
</g>
<!-- Node7&#45;&gt;Node9 -->
<g id="edge9" class="edge"><title>Node7&#45;&gt;Node9</title>
<path fill="none" stroke="midnightblue" d="M132.864,-260.981C132.194,-242.392 134.08,-209.858 153,-192 185.89,-160.956 308.421,-148.65 386.937,-143.887"/>
<polygon fill="midnightblue" stroke="midnightblue" points="387.453,-147.363 397.234,-143.29 387.048,-140.375 387.453,-147.363"/>
</g>
<!-- Node10 -->
<g id="node10" class="node"><title>Node10</title>
<polygon fill="white" stroke="#bfbfbf" points="432,-62.5 432,-81.5 478,-81.5 478,-62.5 432,-62.5"/>
<text text-anchor="middle" x="455" y="-69.5" font-family="Helvetica,sans-Serif" font-size="10.00">cstdint</text>
</g>
<!-- Node9&#45;&gt;Node10 -->
<g id="edge10" class="edge"><title>Node9&#45;&gt;Node10</title>
<path fill="none" stroke="midnightblue" d="M455,-130.372C455,-120.643 455,-104.528 455,-91.8504"/>
<polygon fill="midnightblue" stroke="midnightblue" points="458.5,-91.8411 455,-81.8411 451.5,-91.8412 458.5,-91.8411"/>
</g>
<!-- Node11 -->
<g id="node11" class="node"><title>Node11</title>
<polygon fill="white" stroke="#bfbfbf" points="324,-62.5 324,-81.5 378,-81.5 378,-62.5 324,-62.5"/>
<text text-anchor="middle" x="351" y="-69.5" font-family="Helvetica,sans-Serif" font-size="10.00">iostream</text>
</g>
<!-- Node9&#45;&gt;Node11 -->
<g id="edge11" class="edge"><title>Node9&#45;&gt;Node11</title>
<path fill="none" stroke="midnightblue" d="M441.404,-130.372C424.042,-119.353 393.774,-100.145 373.083,-87.0142"/>
<polygon fill="midnightblue" stroke="midnightblue" points="374.918,-84.0336 364.6,-81.6305 371.167,-89.9439 374.918,-84.0336"/>
</g>
<!-- Node12 -->
<g id="node12" class="node"><title>Node12</title>
<polygon fill="white" stroke="#bfbfbf" points="759,-0.5 759,-19.5 863,-19.5 863,-0.5 759,-0.5"/>
<text text-anchor="middle" x="811" y="-7.5" font-family="Helvetica,sans-Serif" font-size="10.00">shad/config/config.h</text>
</g>
<!-- Node9&#45;&gt;Node12 -->
<g id="edge12" class="edge"><title>Node9&#45;&gt;Node12</title>
<path fill="none" stroke="midnightblue" d="M478.911,-130.403C540.724,-108.178 705.959,-48.7676 777.362,-23.0944"/>
<polygon fill="midnightblue" stroke="midnightblue" points="778.967,-26.2369 787.193,-19.5598 776.599,-19.6497 778.967,-26.2369"/>
</g>
<!-- Node13 -->
<g id="node13" class="node"><title>Node13</title>
<g id="a_node13"><a xlink:href="mapping__traits_8h.html" target="_top" xlink:title="shad/runtime/mapping\l_traits.h">
<polygon fill="white" stroke="black" points="940.5,-57 940.5,-87 1053.5,-87 1053.5,-57 940.5,-57"/>
<text text-anchor="start" x="948.5" y="-75" font-family="Helvetica,sans-Serif" font-size="10.00">shad/runtime/mapping</text>
<text text-anchor="middle" x="997" y="-64" font-family="Helvetica,sans-Serif" font-size="10.00">_traits.h</text>
</a>
</g>
</g>
<!-- Node9&#45;&gt;Node13 -->
<g id="edge13" class="edge"><title>Node9&#45;&gt;Node13</title>
<path fill="none" stroke="midnightblue" d="M488.754,-130.461C499.052,-128.091 510.444,-125.703 521,-124 684.985,-97.5404 728.086,-107.862 893,-88 905.027,-86.5515 917.813,-84.8452 930.154,-83.1122"/>
<polygon fill="midnightblue" stroke="midnightblue" points="930.982,-86.5296 940.389,-81.6554 929.996,-79.5995 930.982,-86.5296"/>
</g>
<!-- Node15 -->
<g id="node15" class="node"><title>Node15</title>
<g id="a_node15"><a xlink:href="available__traits__mappings_8h.html" target="_top" xlink:title="shad/runtime/mappings\l/available_traits_mappings.h">
<polygon fill="white" stroke="black" points="744,-57 744,-87 884,-87 884,-57 744,-57"/>
<text text-anchor="start" x="752" y="-75" font-family="Helvetica,sans-Serif" font-size="10.00">shad/runtime/mappings</text>
<text text-anchor="middle" x="814" y="-64" font-family="Helvetica,sans-Serif" font-size="10.00">/available_traits_mappings.h</text>
</a>
</g>
</g>
<!-- Node9&#45;&gt;Node15 -->
<g id="edge16" class="edge"><title>Node9&#45;&gt;Node15</title>
<path fill="none" stroke="midnightblue" d="M490.895,-130.492C500.641,-128.277 511.207,-125.964 521,-124 592.785,-109.605 674.939,-95.5098 733.952,-85.7988"/>
<polygon fill="midnightblue" stroke="midnightblue" points="734.654,-89.2306 743.956,-84.1582 733.521,-82.3229 734.654,-89.2306"/>
</g>
<!-- Node13&#45;&gt;Node12 -->
<g id="edge15" class="edge"><title>Node13&#45;&gt;Node12</title>
<path fill="none" stroke="midnightblue" d="M953.391,-56.9327C921.074,-46.5077 877.547,-32.4667 847.157,-22.6635"/>
<polygon fill="midnightblue" stroke="midnightblue" points="847.981,-19.2518 837.389,-19.5127 845.832,-25.9138 847.981,-19.2518"/>
</g>
<!-- Node14 -->
<g id="node14" class="node"><title>Node14</title>
<polygon fill="white" stroke="#bfbfbf" points="976.5,-0.5 976.5,-19.5 1017.5,-19.5 1017.5,-0.5 976.5,-0.5"/>
<text text-anchor="middle" x="997" y="-7.5" font-family="Helvetica,sans-Serif" font-size="10.00">string</text>
</g>
<!-- Node13&#45;&gt;Node14 -->
<g id="edge14" class="edge"><title>Node13&#45;&gt;Node14</title>
<path fill="none" stroke="midnightblue" d="M997,-56.7808C997,-48.7812 997,-38.6887 997,-30.0168"/>
<polygon fill="midnightblue" stroke="midnightblue" points="1000.5,-29.7305 997,-19.7305 993.5,-29.7306 1000.5,-29.7305"/>
</g>
<!-- Node16&#45;&gt;Node3 -->
<g id="edge20" class="edge"><title>Node16&#45;&gt;Node3</title>
<path fill="none" stroke="midnightblue" d="M573.991,-269.187C507.426,-261.798 395.3,-247.148 301,-224 297.142,-223.053 293.142,-221.916 289.195,-220.696"/>
<polygon fill="midnightblue" stroke="midnightblue" points="290.204,-217.344 279.611,-217.557 288.025,-223.996 290.204,-217.344"/>
</g>
<!-- Node16&#45;&gt;Node4 -->
<g id="edge22" class="edge"><title>Node16&#45;&gt;Node4</title>
<path fill="none" stroke="midnightblue" d="M573.934,-273.591C492.782,-270.338 341.52,-259.579 218,-224 215.662,-223.327 213.28,-222.502 210.925,-221.589"/>
<polygon fill="midnightblue" stroke="midnightblue" points="212.132,-218.297 201.567,-217.5 209.329,-224.711 212.132,-218.297"/>
</g>
<!-- Node16&#45;&gt;Node9 -->
<g id="edge35" class="edge"><title>Node16&#45;&gt;Node9</title>
<path fill="none" stroke="midnightblue" d="M590.708,-266.459C563.072,-259.034 527.27,-245.927 502,-224 481.717,-206.399 468.271,-177.79 461.139,-159.183"/>
<polygon fill="midnightblue" stroke="midnightblue" points="464.348,-157.764 457.665,-149.542 457.762,-160.136 464.348,-157.764"/>
</g>
<!-- Node16&#45;&gt;Node10 -->
<g id="edge19" class="edge"><title>Node16&#45;&gt;Node10</title>
<path fill="none" stroke="midnightblue" d="M573.994,-267.059C513.177,-255.108 421.835,-225.888 388,-156 381.803,-143.199 381.685,-136.743 388,-124 396.093,-107.668 412.197,-95.1467 426.588,-86.5985"/>
<polygon fill="midnightblue" stroke="midnightblue" points="428.644,-89.461 435.696,-81.5547 425.253,-83.3373 428.644,-89.461"/>
</g>
<!-- Node16&#45;&gt;Node11 -->
<g id="edge21" class="edge"><title>Node16&#45;&gt;Node11</title>
<path fill="none" stroke="midnightblue" d="M573.924,-273.613C496.052,-270.387 364.075,-259.66 334,-224 301.91,-185.952 326.355,-121.968 341.432,-90.9446"/>
<polygon fill="midnightblue" stroke="midnightblue" points="344.683,-92.273 346.091,-81.7721 338.442,-89.103 344.683,-92.273"/>
</g>
<!-- Node16&#45;&gt;Node12 -->
<g id="edge29" class="edge"><title>Node16&#45;&gt;Node12</title>
<path fill="none" stroke="midnightblue" d="M641.241,-266.405C651.036,-256.86 666.391,-240.597 676,-224 715.65,-155.512 684.811,-117.187 735,-56 746.597,-41.862 763.881,-31.1311 779.037,-23.7008"/>
<polygon fill="midnightblue" stroke="midnightblue" points="780.519,-26.8716 788.129,-19.5 777.583,-20.517 780.519,-26.8716"/>
</g>
<!-- Node16&#45;&gt;Node13 -->
<g id="edge36" class="edge"><title>Node16&#45;&gt;Node13</title>
<path fill="none" stroke="midnightblue" d="M674.388,-266.419C710.078,-258.269 761.892,-244.238 804,-224 826.447,-213.212 827.262,-202.159 850,-192 913.386,-163.68 958.936,-210.454 1002,-156 1015.09,-139.453 1011.6,-114.752 1006.2,-96.5975"/>
<polygon fill="midnightblue" stroke="midnightblue" points="1009.49,-95.4036 1003.01,-87.0277 1002.85,-97.6214 1009.49,-95.4036"/>
</g>
<!-- Node17 -->
<g id="node17" class="node"><title>Node17</title>
<polygon fill="white" stroke="#bfbfbf" points="530.5,-130.5 530.5,-149.5 579.5,-149.5 579.5,-130.5 530.5,-130.5"/>
<text text-anchor="middle" x="555" y="-137.5" font-family="Helvetica,sans-Serif" font-size="10.00">cstddef</text>
</g>
<!-- Node16&#45;&gt;Node17 -->
<g id="edge18" class="edge"><title>Node16&#45;&gt;Node17</title>
<path fill="none" stroke="midnightblue" d="M577.9,-266.44C552.797,-259.464 525.204,-246.835 510,-224 495.032,-201.52 517.972,-173.595 536.224,-156.546"/>
<polygon fill="midnightblue" stroke="midnightblue" points="538.968,-158.791 544.127,-149.537 534.324,-153.553 538.968,-158.791"/>
</g>
<!-- Node18 -->
<g id="node18" class="node"><title>Node18</title>
<polygon fill="white" stroke="#bfbfbf" points="859.5,-198.5 859.5,-217.5 894.5,-217.5 894.5,-198.5 859.5,-198.5"/>
<text text-anchor="middle" x="877" y="-205.5" font-family="Helvetica,sans-Serif" font-size="10.00">map</text>
</g>
<!-- Node16&#45;&gt;Node18 -->
<g id="edge23" class="edge"><title>Node16&#45;&gt;Node18</title>
<path fill="none" stroke="midnightblue" d="M679.749,-266.458C723.449,-257.965 789.55,-243.407 845,-224 846.911,-223.331 848.861,-222.585 850.809,-221.794"/>
<polygon fill="midnightblue" stroke="midnightblue" points="852.59,-224.833 860.328,-217.597 849.766,-218.428 852.59,-224.833"/>
</g>
<!-- Node19 -->
<g id="node19" class="node"><title>Node19</title>
<polygon fill="white" stroke="#bfbfbf" points="636,-130.5 636,-149.5 688,-149.5 688,-130.5 636,-130.5"/>
<text text-anchor="middle" x="662" y="-137.5" font-family="Helvetica,sans-Serif" font-size="10.00">memory</text>
</g>
<!-- Node16&#45;&gt;Node19 -->
<g id="edge24" class="edge"><title>Node16&#45;&gt;Node19</title>
<path fill="none" stroke="midnightblue" d="M638.071,-266.479C644.624,-256.74 654.7,-240.065 659,-224 664.694,-202.724 664.661,-177.287 663.709,-160.23"/>
<polygon fill="midnightblue" stroke="midnightblue" points="667.175,-159.635 662.961,-149.915 660.193,-160.142 667.175,-159.635"/>
</g>
<!-- Node20 -->
<g id="node20" class="node"><title>Node20</title>
<polygon fill="white" stroke="#bfbfbf" points="913,-198.5 913,-217.5 943,-217.5 943,-198.5 913,-198.5"/>
<text text-anchor="middle" x="928" y="-205.5" font-family="Helvetica,sans-Serif" font-size="10.00">set</text>
</g>
<!-- Node16&#45;&gt;Node20 -->
<g id="edge25" class="edge"><title>Node16&#45;&gt;Node20</title>
<path fill="none" stroke="midnightblue" d="M690.183,-270.057C746.184,-263.919 832.517,-250.789 903,-224 904.224,-223.535 905.456,-223.01 906.682,-222.443"/>
<polygon fill="midnightblue" stroke="midnightblue" points="908.6,-225.385 915.725,-217.544 905.265,-219.23 908.6,-225.385"/>
</g>
<!-- Node21 -->
<g id="node21" class="node"><title>Node21</title>
<polygon fill="white" stroke="#bfbfbf" points="961,-198.5 961,-217.5 1039,-217.5 1039,-198.5 961,-198.5"/>
<text text-anchor="middle" x="1000" y="-205.5" font-family="Helvetica,sans-Serif" font-size="10.00">unordered_set</text>
</g>
<!-- Node16&#45;&gt;Node21 -->
<g id="edge26" class="edge"><title>Node16&#45;&gt;Node21</title>
<path fill="none" stroke="midnightblue" d="M690.094,-268.171C754.39,-260.044 860.85,-244.899 951,-224 955.459,-222.966 960.106,-221.742 964.683,-220.446"/>
<polygon fill="midnightblue" stroke="midnightblue" points="965.903,-223.735 974.497,-217.539 963.914,-217.023 965.903,-223.735"/>
</g>
<!-- Node22 -->
<g id="node22" class="node"><title>Node22</title>
<polygon fill="white" stroke="#bfbfbf" points="1057,-198.5 1057,-217.5 1097,-217.5 1097,-198.5 1057,-198.5"/>
<text text-anchor="middle" x="1077" y="-205.5" font-family="Helvetica,sans-Serif" font-size="10.00">utility</text>
</g>
<!-- Node16&#45;&gt;Node22 -->
<g id="edge27" class="edge"><title>Node16&#45;&gt;Node22</title>
<path fill="none" stroke="midnightblue" d="M690.238,-270.423C788.416,-262.279 982.564,-244.218 1048,-224 1049.91,-223.41 1051.84,-222.698 1053.76,-221.909"/>
<polygon fill="midnightblue" stroke="midnightblue" points="1055.44,-224.982 1062.97,-217.528 1052.44,-218.66 1055.44,-224.982"/>
</g>
<!-- Node23 -->
<g id="node23" class="node"><title>Node23</title>
<polygon fill="white" stroke="#bfbfbf" points="343,-198.5 343,-217.5 387,-217.5 387,-198.5 343,-198.5"/>
<text text-anchor="middle" x="365" y="-205.5" font-family="Helvetica,sans-Serif" font-size="10.00">vector</text>
</g>
<!-- Node16&#45;&gt;Node23 -->
<g id="edge28" class="edge"><title>Node16&#45;&gt;Node23</title>
<path fill="none" stroke="midnightblue" d="M581.305,-266.488C534.043,-257.924 461.896,-243.241 401,-224 398.426,-223.187 395.78,-222.263 393.147,-221.282"/>
<polygon fill="midnightblue" stroke="midnightblue" points="394.408,-218.017 383.822,-217.582 391.826,-224.524 394.408,-218.017"/>
</g>
<!-- Node24 -->
<g id="node24" class="node"><title>Node24</title>
<g id="a_node24"><a xlink:href="handle_8h.html" target="_top" xlink:title="shad/runtime/handle.h">
<polygon fill="white" stroke="black" points="880.5,-130.5 880.5,-149.5 993.5,-149.5 993.5,-130.5 880.5,-130.5"/>
<text text-anchor="middle" x="937" y="-137.5" font-family="Helvetica,sans-Serif" font-size="10.00">shad/runtime/handle.h</text>
</a>
</g>
</g>
<!-- Node16&#45;&gt;Node24 -->
<g id="edge30" class="edge"><title>Node16&#45;&gt;Node24</title>
<path fill="none" stroke="midnightblue" d="M657.409,-266.337C683.975,-256.979 726.641,-241.098 762,-224 787.46,-211.689 791.715,-204.667 817,-192 846.173,-177.386 880.537,-163.06 904.998,-153.332"/>
<polygon fill="midnightblue" stroke="midnightblue" points="906.486,-156.507 914.506,-149.583 903.919,-149.995 906.486,-156.507"/>
</g>
<!-- Node25 -->
<g id="node25" class="node"><title>Node25</title>
<g id="a_node25"><a xlink:href="available__mappings_8h.html" target="_top" xlink:title="shad/runtime/mappings\l/available_mappings.h">
<polygon fill="white" stroke="black" points="744,-125 744,-155 862,-155 862,-125 744,-125"/>
<text text-anchor="start" x="752" y="-143" font-family="Helvetica,sans-Serif" font-size="10.00">shad/runtime/mappings</text>
<text text-anchor="middle" x="803" y="-132" font-family="Helvetica,sans-Serif" font-size="10.00">/available_mappings.h</text>
</a>
</g>
</g>
<!-- Node16&#45;&gt;Node25 -->
<g id="edge37" class="edge"><title>Node16&#45;&gt;Node25</title>
<path fill="none" stroke="midnightblue" d="M654.257,-266.432C675.304,-257.687 707.132,-242.754 731,-224 753.3,-206.478 773.982,-181.315 787.404,-163.295"/>
<polygon fill="midnightblue" stroke="midnightblue" points="790.325,-165.23 793.386,-155.087 784.667,-161.108 790.325,-165.23"/>
</g>
<!-- Node26 -->
<g id="node26" class="node"><title>Node26</title>
<g id="a_node26"><a xlink:href="synchronous__interface_8h.html" target="_top" xlink:title="shad/runtime/synchronous\l_interface.h">
<polygon fill="white" stroke="black" points="519.5,-193 519.5,-223 650.5,-223 650.5,-193 519.5,-193"/>
<text text-anchor="start" x="527.5" y="-211" font-family="Helvetica,sans-Serif" font-size="10.00">shad/runtime/synchronous</text>
<text text-anchor="middle" x="585" y="-200" font-family="Helvetica,sans-Serif" font-size="10.00">_interface.h</text>
</a>
</g>
</g>
<!-- Node16&#45;&gt;Node26 -->
<g id="edge39" class="edge"><title>Node16&#45;&gt;Node26</title>
<path fill="none" stroke="midnightblue" d="M625.856,-266.372C619.568,-257.543 609.537,-243.456 600.987,-231.45"/>
<polygon fill="midnightblue" stroke="midnightblue" points="603.751,-229.297 595.099,-223.181 598.049,-233.357 603.751,-229.297"/>
</g>
<!-- Node24&#45;&gt;Node6 -->
<g id="edge31" class="edge"><title>Node24&#45;&gt;Node6</title>
<path fill="none" stroke="midnightblue" d="M960.14,-130.372C991.099,-118.827 1046.17,-98.2926 1081.34,-85.1772"/>
<polygon fill="midnightblue" stroke="midnightblue" points="1082.99,-88.2992 1091.14,-81.5259 1080.54,-81.7403 1082.99,-88.2992"/>
</g>
<!-- Node24&#45;&gt;Node12 -->
<g id="edge32" class="edge"><title>Node24&#45;&gt;Node12</title>
<path fill="none" stroke="midnightblue" d="M934.247,-130.213C928.741,-113.838 914.982,-78.3017 893,-56 879.183,-41.9816 860.067,-31.1498 843.767,-23.6297"/>
<polygon fill="midnightblue" stroke="midnightblue" points="845.121,-20.4015 834.557,-19.5856 842.307,-26.8108 845.121,-20.4015"/>
</g>
<!-- Node24&#45;&gt;Node13 -->
<g id="edge33" class="edge"><title>Node24&#45;&gt;Node13</title>
<path fill="none" stroke="midnightblue" d="M944.844,-130.372C953.026,-121.371 966.176,-106.907 977.224,-94.7534"/>
<polygon fill="midnightblue" stroke="midnightblue" points="979.971,-96.9352 984.108,-87.1815 974.791,-92.2265 979.971,-96.9352"/>
</g>
<!-- Node24&#45;&gt;Node15 -->
<g id="edge34" class="edge"><title>Node24&#45;&gt;Node15</title>
<path fill="none" stroke="midnightblue" d="M920.92,-130.372C902.869,-120.686 873.023,-104.671 849.445,-92.0192"/>
<polygon fill="midnightblue" stroke="midnightblue" points="850.896,-88.8256 840.429,-87.1815 847.586,-94.9937 850.896,-88.8256"/>
</g>
<!-- Node25&#45;&gt;Node15 -->
<g id="edge38" class="edge"><title>Node25&#45;&gt;Node15</title>
<path fill="none" stroke="midnightblue" d="M805.387,-124.679C806.713,-116.722 808.399,-106.605 809.927,-97.4356"/>
<polygon fill="midnightblue" stroke="midnightblue" points="813.426,-97.7324 811.618,-87.2931 806.521,-96.5816 813.426,-97.7324"/>
</g>
<!-- Node26&#45;&gt;Node9 -->
<g id="edge43" class="edge"><title>Node26&#45;&gt;Node9</title>
<path fill="none" stroke="midnightblue" d="M557.112,-192.841C534.626,-181.425 503.228,-165.485 481.204,-154.303"/>
<polygon fill="midnightblue" stroke="midnightblue" points="482.602,-151.088 472.101,-149.682 479.433,-157.33 482.602,-151.088"/>
</g>
<!-- Node26&#45;&gt;Node10 -->
<g id="edge41" class="edge"><title>Node26&#45;&gt;Node10</title>
<path fill="none" stroke="midnightblue" d="M590.198,-192.965C595.794,-175.233 602.133,-144.555 588,-124 565.72,-91.5944 519.799,-79.7691 488.205,-75.4602"/>
<polygon fill="midnightblue" stroke="midnightblue" points="488.436,-71.9632 478.095,-74.2682 487.616,-78.9151 488.436,-71.9632"/>
</g>
<!-- Node26&#45;&gt;Node17 -->
<g id="edge40" class="edge"><title>Node26&#45;&gt;Node17</title>
<path fill="none" stroke="midnightblue" d="M578.49,-192.679C573.998,-182.796 567.991,-169.579 563.176,-158.986"/>
<polygon fill="midnightblue" stroke="midnightblue" points="566.337,-157.484 559.013,-149.828 559.965,-160.38 566.337,-157.484"/>
</g>
<!-- Node26&#45;&gt;Node19 -->
<g id="edge42" class="edge"><title>Node26&#45;&gt;Node19</title>
<path fill="none" stroke="midnightblue" d="M601.708,-192.679C614.189,-181.981 631.227,-167.377 644.007,-156.422"/>
<polygon fill="midnightblue" stroke="midnightblue" points="646.386,-158.994 651.7,-149.828 641.83,-153.679 646.386,-158.994"/>
</g>
</g>
</svg>
