<?xml version="1.0" encoding="UTF-8" standalone="no"?>
<!DOCTYPE svg PUBLIC "-//W3C//DTD SVG 1.1//EN"
 "http://www.w3.org/Graphics/SVG/1.1/DTD/svg11.dtd">
<!-- Generated by graphviz version 2.36.0 (20140111.2315)
 -->
<!-- Title: include/shad/core/impl/impl_patterns.h Pages: 1 -->
<svg width="619pt" height="164pt"
 viewBox="0.00 0.00 619.00 164.00" xmlns="http://www.w3.org/2000/svg" xmlns:xlink="http://www.w3.org/1999/xlink">
<g id="graph0" class="graph" transform="scale(1 1) rotate(0) translate(4 160)">
<title>include/shad/core/impl/impl_patterns.h</title>
<polygon fill="white" stroke="none" points="-4,4 -4,-160 615,-160 615,4 -4,4"/>
<!-- Node1 -->
<g id="node1" class="node"><title>Node1</title>
<polygon fill="#bfbfbf" stroke="black" points="248,-125 248,-155 362,-155 362,-125 248,-125"/>
<text text-anchor="start" x="256" y="-143" font-family="Helvetica,sans-Serif" font-size="10.00">include/shad/core/impl</text>
<text text-anchor="middle" x="305" y="-132" font-family="Helvetica,sans-Serif" font-size="10.00">/impl_patterns.h</text>
</g>
<!-- Node2 -->
<g id="node2" class="node"><title>Node2</title>
<g id="a_node2"><a xlink:href="minimum__maximum__ops_8h.html" target="_top" xlink:title="include/shad/core/impl\l/minimum_maximum_ops.h">
<polygon fill="white" stroke="black" points="-0.5,-57 -0.5,-87 136.5,-87 136.5,-57 -0.5,-57"/>
<text text-anchor="start" x="7.5" y="-75" font-family="Helvetica,sans-Serif" font-size="10.00">include/shad/core/impl</text>
<text text-anchor="middle" x="68" y="-64" font-family="Helvetica,sans-Serif" font-size="10.00">/minimum_maximum_ops.h</text>
</a>
</g>
</g>
<!-- Node1&#45;&gt;Node2 -->
<g id="edge1" class="edge"><title>Node1&#45;&gt;Node2</title>
<path fill="none" stroke="midnightblue" d="M244.777,-122.229C205.723,-111.353 155.426,-97.3466 118.474,-87.0561"/>
<polygon fill="midnightblue" stroke="midnightblue" points="243.876,-125.611 254.448,-124.922 245.754,-118.868 243.876,-125.611"/>
</g>
<!-- Node4 -->
<g id="node4" class="node"><title>Node4</title>
<g id="a_node4"><a xlink:href="modifyng__sequence__ops_8h.html" target="_top" xlink:title="include/shad/core/impl\l/modifyng_sequence_ops.h">
<polygon fill="white" stroke="black" points="155,-57 155,-87 291,-87 291,-57 155,-57"/>
<text text-anchor="start" x="163" y="-75" font-family="Helvetica,sans-Serif" font-size="10.00">include/shad/core/impl</text>
<text text-anchor="middle" x="223" y="-64" font-family="Helvetica,sans-Serif" font-size="10.00">/modifyng_sequence_ops.h</text>
</a>
</g>
</g>
<!-- Node1&#45;&gt;Node4 -->
<g id="edge3" class="edge"><title>Node1&#45;&gt;Node4</title>
<path fill="none" stroke="midnightblue" d="M279.294,-118.309C266.662,-108.143 251.77,-96.1562 240.476,-87.0663"/>
<polygon fill="midnightblue" stroke="midnightblue" points="277.223,-121.135 287.207,-124.679 281.612,-115.682 277.223,-121.135"/>
</g>
<!-- Node5 -->
<g id="node5" class="node"><title>Node5</title>
<g id="a_node5"><a xlink:href="non__modifyng__sequence__ops_8h.html" target="_top" xlink:title="include/shad/core/impl\l/non_modifyng_sequence_ops.h">
<polygon fill="white" stroke="black" points="309.5,-57 309.5,-87 466.5,-87 466.5,-57 309.5,-57"/>
<text text-anchor="start" x="317.5" y="-75" font-family="Helvetica,sans-Serif" font-size="10.00">include/shad/core/impl</text>
<text text-anchor="middle" x="388" y="-64" font-family="Helvetica,sans-Serif" font-size="10.00">/non_modifyng_sequence_ops.h</text>
</a>
</g>
</g>
<!-- Node1&#45;&gt;Node5 -->
<g id="edge5" class="edge"><title>Node1&#45;&gt;Node5</title>
<path fill="none" stroke="midnightblue" d="M331.02,-118.309C343.806,-108.143 358.879,-96.1562 370.311,-87.0663"/>
<polygon fill="midnightblue" stroke="midnightblue" points="328.658,-115.716 323.01,-124.679 333.015,-121.194 328.658,-115.716"/>
</g>
<!-- Node6 -->
<g id="node6" class="node"><title>Node6</title>
<g id="a_node6"><a xlink:href="numeric__ops_8h.html" target="_top" xlink:title="include/shad/core/impl\l/numeric_ops.h">
<polygon fill="white" stroke="black" points="485,-57 485,-87 599,-87 599,-57 485,-57"/>
<text text-anchor="start" x="493" y="-75" font-family="Helvetica,sans-Serif" font-size="10.00">include/shad/core/impl</text>
<text text-anchor="middle" x="542" y="-64" font-family="Helvetica,sans-Serif" font-size="10.00">/numeric_ops.h</text>
</a>
</g>
</g>
<!-- Node1&#45;&gt;Node6 -->
<g id="edge7" class="edge"><title>Node1&#45;&gt;Node6</title>
<path fill="none" stroke="midnightblue" d="M365.223,-122.229C404.277,-111.353 454.574,-97.3466 491.526,-87.0561"/>
<polygon fill="midnightblue" stroke="midnightblue" points="364.246,-118.868 355.552,-124.922 366.124,-125.611 364.246,-118.868"/>
</g>
<!-- Node3 -->
<g id="node3" class="node"><title>Node3</title>
<g id="a_node3"><a xlink:href="algorithm_8h.html" target="_top" xlink:title="include/shad/core/algorithm.h">
<polygon fill="white" stroke="black" points="151,-0.5 151,-19.5 295,-19.5 295,-0.5 151,-0.5"/>
<text text-anchor="middle" x="223" y="-7.5" font-family="Helvetica,sans-Serif" font-size="10.00">include/shad/core/algorithm.h</text>
</a>
</g>
</g>
<!-- Node2&#45;&gt;Node3 -->
<g id="edge2" class="edge"><title>Node2&#45;&gt;Node3</title>
<path fill="none" stroke="midnightblue" d="M113.773,-53.2812C142.467,-42.1742 178.173,-28.3526 200.783,-19.6"/>
<polygon fill="midnightblue" stroke="midnightblue" points="112.403,-50.0587 104.341,-56.9327 114.93,-56.5867 112.403,-50.0587"/>
</g>
<!-- Node4&#45;&gt;Node3 -->
<g id="edge4" class="edge"><title>Node4&#45;&gt;Node3</title>
<path fill="none" stroke="midnightblue" d="M223,-46.5858C223,-37.0743 223,-26.7864 223,-19.7305"/>
<polygon fill="midnightblue" stroke="midnightblue" points="219.5,-46.7808 223,-56.7808 226.5,-46.7809 219.5,-46.7808"/>
</g>
<!-- Node5&#45;&gt;Node3 -->
<g id="edge6" class="edge"><title>Node5&#45;&gt;Node3</title>
<path fill="none" stroke="midnightblue" d="M339.671,-53.426C309.06,-42.2945 270.824,-28.3906 246.65,-19.6"/>
<polygon fill="midnightblue" stroke="midnightblue" points="338.721,-56.8045 349.315,-56.9327 341.113,-50.2259 338.721,-56.8045"/>
</g>
<!-- Node7 -->
<g id="node7" class="node"><title>Node7</title>
<g id="a_node7"><a xlink:href="numeric_8h.html" target="_top" xlink:title="include/shad/core/numeric.h">
<polygon fill="white" stroke="black" points="472.5,-0.5 472.5,-19.5 611.5,-19.5 611.5,-0.5 472.5,-0.5"/>
<text text-anchor="middle" x="542" y="-7.5" font-family="Helvetica,sans-Serif" font-size="10.00">include/shad/core/numeric.h</text>
</a>
</g>
</g>
<!-- Node6&#45;&gt;Node7 -->
<g id="edge8" class="edge"><title>Node6&#45;&gt;Node7</title>
<path fill="none" stroke="midnightblue" d="M542,-46.5858C542,-37.0743 542,-26.7864 542,-19.7305"/>
<polygon fill="midnightblue" stroke="midnightblue" points="538.5,-46.7808 542,-56.7808 545.5,-46.7809 538.5,-46.7808"/>
</g>
</g>
</svg>
