<?xml version="1.0" encoding="UTF-8" standalone="no"?>
<!DOCTYPE svg PUBLIC "-//W3C//DTD SVG 1.1//EN"
 "http://www.w3.org/Graphics/SVG/1.1/DTD/svg11.dtd">
<!-- Generated by graphviz version 2.36.0 (20140111.2315)
 -->
<!-- Title: include/shad/core/impl/impl_patterns.h Pages: 1 -->
<svg width="1221pt" height="368pt"
 viewBox="0.00 0.00 1221.00 368.00" xmlns="http://www.w3.org/2000/svg" xmlns:xlink="http://www.w3.org/1999/xlink">
<g id="graph0" class="graph" transform="scale(1 1) rotate(0) translate(4 364)">
<title>include/shad/core/impl/impl_patterns.h</title>
<polygon fill="white" stroke="none" points="-4,4 -4,-364 1217,-364 1217,4 -4,4"/>
<!-- Node1 -->
<g id="node1" class="node"><title>Node1</title>
<polygon fill="#bfbfbf" stroke="black" points="705,-329 705,-359 819,-359 819,-329 705,-329"/>
<text text-anchor="start" x="713" y="-347" font-family="Helvetica,sans-Serif" font-size="10.00">include/shad/core/impl</text>
<text text-anchor="middle" x="762" y="-336" font-family="Helvetica,sans-Serif" font-size="10.00">/impl_patterns.h</text>
</g>
<!-- Node2 -->
<g id="node2" class="node"><title>Node2</title>
<polygon fill="white" stroke="#bfbfbf" points="185.5,-130.5 185.5,-149.5 234.5,-149.5 234.5,-130.5 185.5,-130.5"/>
<text text-anchor="middle" x="210" y="-137.5" font-family="Helvetica,sans-Serif" font-size="10.00">cstddef</text>
</g>
<!-- Node1&#45;&gt;Node2 -->
<g id="edge1" class="edge"><title>Node1&#45;&gt;Node2</title>
<path fill="none" stroke="midnightblue" d="M704.532,-338.534C578.93,-327.534 285.979,-294.733 221,-224 205.127,-206.721 204.898,-178.234 206.895,-159.543"/>
<polygon fill="midnightblue" stroke="midnightblue" points="210.368,-159.977 208.266,-149.593 203.433,-159.021 210.368,-159.977"/>
</g>
<!-- Node3 -->
<g id="node3" class="node"><title>Node3</title>
<polygon fill="white" stroke="#bfbfbf" points="73.5,-198.5 73.5,-217.5 120.5,-217.5 120.5,-198.5 73.5,-198.5"/>
<text text-anchor="middle" x="97" y="-205.5" font-family="Helvetica,sans-Serif" font-size="10.00">iterator</text>
</g>
<!-- Node1&#45;&gt;Node3 -->
<g id="edge2" class="edge"><title>Node1&#45;&gt;Node3</title>
<path fill="none" stroke="midnightblue" d="M704.934,-343.264C575.859,-343.033 265.527,-337.599 173,-292 143.481,-277.452 119.905,-246.117 107.231,-226.382"/>
<polygon fill="midnightblue" stroke="midnightblue" points="110.136,-224.425 101.907,-217.751 104.178,-228.1 110.136,-224.425"/>
</g>
<!-- Node4 -->
<g id="node4" class="node"><title>Node4</title>
<polygon fill="white" stroke="#bfbfbf" points="1175,-266.5 1175,-285.5 1213,-285.5 1213,-266.5 1175,-266.5"/>
<text text-anchor="middle" x="1194" y="-273.5" font-family="Helvetica,sans-Serif" font-size="10.00">tuple</text>
</g>
<!-- Node1&#45;&gt;Node4 -->
<g id="edge3" class="edge"><title>Node1&#45;&gt;Node4</title>
<path fill="none" stroke="midnightblue" d="M819.236,-341.048C897.698,-337.169 1042.44,-325.693 1161,-292 1163.35,-291.332 1165.75,-290.522 1168.12,-289.628"/>
<polygon fill="midnightblue" stroke="midnightblue" points="1169.73,-292.748 1177.58,-285.632 1167.01,-286.299 1169.73,-292.748"/>
</g>
<!-- Node5 -->
<g id="node5" class="node"><title>Node5</title>
<polygon fill="white" stroke="#bfbfbf" points="981,-62.5 981,-81.5 1043,-81.5 1043,-62.5 981,-62.5"/>
<text text-anchor="middle" x="1012" y="-69.5" font-family="Helvetica,sans-Serif" font-size="10.00">type_traits</text>
</g>
<!-- Node1&#45;&gt;Node5 -->
<g id="edge4" class="edge"><title>Node1&#45;&gt;Node5</title>
<path fill="none" stroke="midnightblue" d="M819.035,-333.21C912.812,-315.767 1092.64,-276.191 1127,-224 1161.77,-171.177 1079.78,-112.69 1036.55,-86.7185"/>
<polygon fill="midnightblue" stroke="midnightblue" points="1038.12,-83.5808 1027.72,-81.5418 1034.57,-89.6193 1038.12,-83.5808"/>
</g>
<!-- Node6 -->
<g id="node6" class="node"><title>Node6</title>
<polygon fill="white" stroke="#bfbfbf" points="1017,-198.5 1017,-217.5 1057,-217.5 1057,-198.5 1017,-198.5"/>
<text text-anchor="middle" x="1037" y="-205.5" font-family="Helvetica,sans-Serif" font-size="10.00">utility</text>
</g>
<!-- Node1&#45;&gt;Node6 -->
<g id="edge5" class="edge"><title>Node1&#45;&gt;Node6</title>
<path fill="none" stroke="midnightblue" d="M791.469,-328.821C837.537,-306.626 929.38,-262.254 1007,-224 1008.18,-223.421 1009.38,-222.828 1010.59,-222.227"/>
<polygon fill="midnightblue" stroke="midnightblue" points="1012.49,-225.19 1019.88,-217.601 1009.37,-218.923 1012.49,-225.19"/>
</g>
<!-- Node7 -->
<g id="node7" class="node"><title>Node7</title>
<polygon fill="white" stroke="#bfbfbf" points="1075,-198.5 1075,-217.5 1119,-217.5 1119,-198.5 1075,-198.5"/>
<text text-anchor="middle" x="1097" y="-205.5" font-family="Helvetica,sans-Serif" font-size="10.00">vector</text>
</g>
<!-- Node1&#45;&gt;Node7 -->
<g id="edge6" class="edge"><title>Node1&#45;&gt;Node7</title>
<path fill="none" stroke="midnightblue" d="M809.603,-328.993C840.759,-319.445 882.183,-306.03 918,-292 985.402,-265.599 1000.53,-254.877 1066,-224 1067.35,-223.362 1068.74,-222.706 1070.13,-222.041"/>
<polygon fill="midnightblue" stroke="midnightblue" points="1071.82,-225.111 1079.32,-217.628 1068.79,-218.801 1071.82,-225.111"/>
</g>
<!-- Node8 -->
<g id="node8" class="node"><title>Node8</title>
<g id="a_node8"><a xlink:href="distributed__iterator__traits_8h.html" target="_top" xlink:title="shad/distributed_iterator\l_traits.h">
<polygon fill="white" stroke="black" points="-0.5,-261 -0.5,-291 120.5,-291 120.5,-261 -0.5,-261"/>
<text text-anchor="start" x="7.5" y="-279" font-family="Helvetica,sans-Serif" font-size="10.00">shad/distributed_iterator</text>
<text text-anchor="middle" x="60" y="-268" font-family="Helvetica,sans-Serif" font-size="10.00">_traits.h</text>
</a>
</g>
</g>
<!-- Node1&#45;&gt;Node8 -->
<g id="edge7" class="edge"><title>Node1&#45;&gt;Node8</title>
<path fill="none" stroke="midnightblue" d="M704.698,-340.571C594.111,-335.39 343.741,-321.263 135,-292 133.706,-291.819 132.4,-291.629 131.085,-291.432"/>
<polygon fill="midnightblue" stroke="midnightblue" points="131.316,-287.924 120.887,-289.793 130.205,-294.835 131.316,-287.924"/>
</g>
<!-- Node16 -->
<g id="node16" class="node"><title>Node16</title>
<g id="a_node16"><a xlink:href="runtime_8h.html" target="_top" xlink:title="shad/runtime/runtime.h">
<polygon fill="white" stroke="black" points="622,-266.5 622,-285.5 738,-285.5 738,-266.5 622,-266.5"/>
<text text-anchor="middle" x="680" y="-273.5" font-family="Helvetica,sans-Serif" font-size="10.00">shad/runtime/runtime.h</text>
</a>
</g>
</g>
<!-- Node1&#45;&gt;Node16 -->
<g id="edge17" class="edge"><title>Node1&#45;&gt;Node16</title>
<path fill="none" stroke="midnightblue" d="M744.207,-328.679C730.789,-317.879 712.425,-303.098 698.773,-292.11"/>
<polygon fill="midnightblue" stroke="midnightblue" points="700.953,-289.372 690.968,-285.828 696.564,-294.825 700.953,-289.372"/>
</g>
<!-- Node8&#45;&gt;Node3 -->
<g id="edge9" class="edge"><title>Node8&#45;&gt;Node3</title>
<path fill="none" stroke="midnightblue" d="M68.0284,-260.679C73.6262,-250.694 81.1311,-237.307 87.0999,-226.66"/>
<polygon fill="midnightblue" stroke="midnightblue" points="90.2137,-228.263 92.0508,-217.828 84.1077,-224.84 90.2137,-228.263"/>
</g>
<!-- Node9 -->
<g id="node9" class="node"><title>Node9</title>
<polygon fill="white" stroke="#bfbfbf" points="6.5,-198.5 6.5,-217.5 55.5,-217.5 55.5,-198.5 6.5,-198.5"/>
<text text-anchor="middle" x="31" y="-205.5" font-family="Helvetica,sans-Serif" font-size="10.00">cassert</text>
</g>
<!-- Node8&#45;&gt;Node9 -->
<g id="edge8" class="edge"><title>Node8&#45;&gt;Node9</title>
<path fill="none" stroke="midnightblue" d="M53.7074,-260.679C49.3648,-250.796 43.5576,-237.579 38.9031,-226.986"/>
<polygon fill="midnightblue" stroke="midnightblue" points="42.1062,-225.576 34.8791,-217.828 35.6976,-228.391 42.1062,-225.576"/>
</g>
<!-- Node10 -->
<g id="node10" class="node"><title>Node10</title>
<g id="a_node10"><a xlink:href="locality_8h.html" target="_top" xlink:title="shad/runtime/locality.h">
<polygon fill="white" stroke="black" points="433.5,-130.5 433.5,-149.5 548.5,-149.5 548.5,-130.5 433.5,-130.5"/>
<text text-anchor="middle" x="491" y="-137.5" font-family="Helvetica,sans-Serif" font-size="10.00">shad/runtime/locality.h</text>
</a>
</g>
</g>
<!-- Node8&#45;&gt;Node10 -->
<g id="edge10" class="edge"><title>Node8&#45;&gt;Node10</title>
<path fill="none" stroke="midnightblue" d="M120.548,-273.346C248.204,-269.234 535.673,-256.438 565,-224 587.08,-199.578 546.9,-170.86 517.614,-154.408"/>
<polygon fill="midnightblue" stroke="midnightblue" points="519.042,-151.201 508.581,-149.518 515.71,-157.357 519.042,-151.201"/>
</g>
<!-- Node11 -->
<g id="node11" class="node"><title>Node11</title>
<polygon fill="white" stroke="#bfbfbf" points="382,-62.5 382,-81.5 428,-81.5 428,-62.5 382,-62.5"/>
<text text-anchor="middle" x="405" y="-69.5" font-family="Helvetica,sans-Serif" font-size="10.00">cstdint</text>
</g>
<!-- Node10&#45;&gt;Node11 -->
<g id="edge11" class="edge"><title>Node10&#45;&gt;Node11</title>
<path fill="none" stroke="midnightblue" d="M479.757,-130.372C465.722,-119.6 441.488,-101.002 424.424,-87.9065"/>
<polygon fill="midnightblue" stroke="midnightblue" points="426.31,-84.9421 416.246,-81.6305 422.048,-90.4953 426.31,-84.9421"/>
</g>
<!-- Node12 -->
<g id="node12" class="node"><title>Node12</title>
<polygon fill="white" stroke="#bfbfbf" points="534,-0.5 534,-19.5 638,-19.5 638,-0.5 534,-0.5"/>
<text text-anchor="middle" x="586" y="-7.5" font-family="Helvetica,sans-Serif" font-size="10.00">shad/config/config.h</text>
</g>
<!-- Node10&#45;&gt;Node12 -->
<g id="edge12" class="edge"><title>Node10&#45;&gt;Node12</title>
<path fill="none" stroke="midnightblue" d="M490.831,-130.329C490.945,-114.149 493.264,-78.9233 510,-56 520.458,-41.6755 536.98,-31.1089 551.952,-23.8286"/>
<polygon fill="midnightblue" stroke="midnightblue" points="553.82,-26.8248 561.487,-19.5125 550.934,-20.4476 553.82,-26.8248"/>
</g>
<!-- Node13 -->
<g id="node13" class="node"><title>Node13</title>
<g id="a_node13"><a xlink:href="mapping__traits_8h.html" target="_top" xlink:title="shad/runtime/mapping\l_traits.h">
<polygon fill="white" stroke="black" points="715.5,-57 715.5,-87 828.5,-87 828.5,-57 715.5,-57"/>
<text text-anchor="start" x="723.5" y="-75" font-family="Helvetica,sans-Serif" font-size="10.00">shad/runtime/mapping</text>
<text text-anchor="middle" x="772" y="-64" font-family="Helvetica,sans-Serif" font-size="10.00">_traits.h</text>
</a>
</g>
</g>
<!-- Node10&#45;&gt;Node13 -->
<g id="edge13" class="edge"><title>Node10&#45;&gt;Node13</title>
<path fill="none" stroke="midnightblue" d="M527.448,-130.439C572.486,-119.861 649.978,-101.66 705.672,-88.5789"/>
<polygon fill="midnightblue" stroke="midnightblue" points="706.521,-91.9747 715.456,-86.2808 704.921,-85.1601 706.521,-91.9747"/>
</g>
<!-- Node15 -->
<g id="node15" class="node"><title>Node15</title>
<g id="a_node15"><a xlink:href="available__traits__mappings_8h.html" target="_top" xlink:title="shad/runtime/mappings\l/available_traits_mappings.h">
<polygon fill="white" stroke="black" points="519,-57 519,-87 659,-87 659,-57 519,-57"/>
<text text-anchor="start" x="527" y="-75" font-family="Helvetica,sans-Serif" font-size="10.00">shad/runtime/mappings</text>
<text text-anchor="middle" x="589" y="-64" font-family="Helvetica,sans-Serif" font-size="10.00">/available_traits_mappings.h</text>
</a>
</g>
</g>
<!-- Node10&#45;&gt;Node15 -->
<g id="edge16" class="edge"><title>Node10&#45;&gt;Node15</title>
<path fill="none" stroke="midnightblue" d="M503.812,-130.372C517.876,-120.9 540.926,-105.376 559.505,-92.8638"/>
<polygon fill="midnightblue" stroke="midnightblue" points="561.603,-95.6705 567.943,-87.1815 557.693,-89.8645 561.603,-95.6705"/>
</g>
<!-- Node13&#45;&gt;Node12 -->
<g id="edge15" class="edge"><title>Node13&#45;&gt;Node12</title>
<path fill="none" stroke="midnightblue" d="M728.391,-56.9327C696.074,-46.5077 652.547,-32.4667 622.157,-22.6635"/>
<polygon fill="midnightblue" stroke="midnightblue" points="622.981,-19.2518 612.389,-19.5127 620.832,-25.9138 622.981,-19.2518"/>
</g>
<!-- Node14 -->
<g id="node14" class="node"><title>Node14</title>
<polygon fill="white" stroke="#bfbfbf" points="751.5,-0.5 751.5,-19.5 792.5,-19.5 792.5,-0.5 751.5,-0.5"/>
<text text-anchor="middle" x="772" y="-7.5" font-family="Helvetica,sans-Serif" font-size="10.00">string</text>
</g>
<!-- Node13&#45;&gt;Node14 -->
<g id="edge14" class="edge"><title>Node13&#45;&gt;Node14</title>
<path fill="none" stroke="midnightblue" d="M772,-56.7808C772,-48.7812 772,-38.6887 772,-30.0168"/>
<polygon fill="midnightblue" stroke="midnightblue" points="775.5,-29.7305 772,-19.7305 768.5,-29.7306 775.5,-29.7305"/>
</g>
<!-- Node16&#45;&gt;Node2 -->
<g id="edge18" class="edge"><title>Node16&#45;&gt;Node2</title>
<path fill="none" stroke="midnightblue" d="M621.634,-274.94C518.007,-273.739 307.293,-266.027 249,-224 227.84,-208.744 217.79,-179.018 213.297,-159.593"/>
<polygon fill="midnightblue" stroke="midnightblue" points="216.674,-158.635 211.251,-149.533 209.814,-160.03 216.674,-158.635"/>
</g>
<!-- Node16&#45;&gt;Node3 -->
<g id="edge22" class="edge"><title>Node16&#45;&gt;Node3</title>
<path fill="none" stroke="midnightblue" d="M621.849,-274.908C521.234,-273.571 308.764,-265.536 135,-224 131.758,-223.225 128.425,-222.229 125.145,-221.119"/>
<polygon fill="midnightblue" stroke="midnightblue" points="126.195,-217.775 115.602,-217.556 123.746,-224.333 126.195,-217.775"/>
</g>
<!-- Node16&#45;&gt;Node6 -->
<g id="edge27" class="edge"><title>Node16&#45;&gt;Node6</title>
<path fill="none" stroke="midnightblue" d="M738.331,-268.098C818.443,-258.243 958.151,-239.604 1007,-224 1008.91,-223.389 1010.86,-222.67 1012.79,-221.883"/>
<polygon fill="midnightblue" stroke="midnightblue" points="1014.51,-224.943 1022.12,-217.574 1011.58,-218.587 1014.51,-224.943"/>
</g>
<!-- Node16&#45;&gt;Node7 -->
<g id="edge28" class="edge"><title>Node16&#45;&gt;Node7</title>
<path fill="none" stroke="midnightblue" d="M738.099,-273.075C814.705,-269.245 953.004,-257.844 1066,-224 1068.14,-223.359 1070.32,-222.585 1072.47,-221.731"/>
<polygon fill="midnightblue" stroke="midnightblue" points="1073.92,-224.917 1081.62,-217.638 1071.06,-218.528 1073.92,-224.917"/>
</g>
<!-- Node16&#45;&gt;Node10 -->
<g id="edge35" class="edge"><title>Node16&#45;&gt;Node10</title>
<path fill="none" stroke="midnightblue" d="M673.246,-266.239C660.301,-249.909 630.477,-214.442 599,-192 575.91,-175.537 546.667,-162.109 524.436,-153.171"/>
<polygon fill="midnightblue" stroke="midnightblue" points="525.658,-149.891 515.07,-149.503 523.105,-156.409 525.658,-149.891"/>
</g>
<!-- Node16&#45;&gt;Node11 -->
<g id="edge19" class="edge"><title>Node16&#45;&gt;Node11</title>
<path fill="none" stroke="midnightblue" d="M621.954,-271.738C516.92,-265.238 304.09,-249.102 282,-224 256.498,-195.022 307.107,-133.413 316,-124 331.935,-107.135 354.703,-94.2263 373.221,-85.6155"/>
<polygon fill="midnightblue" stroke="midnightblue" points="374.745,-88.7685 382.459,-81.5062 371.9,-82.3728 374.745,-88.7685"/>
</g>
<!-- Node16&#45;&gt;Node12 -->
<g id="edge29" class="edge"><title>Node16&#45;&gt;Node12</title>
<path fill="none" stroke="midnightblue" d="M621.864,-274.576C513.792,-272.819 286.939,-264.285 221,-224 190.074,-205.106 186.443,-190.703 176,-156 171.902,-142.381 167.746,-135.582 176,-124 216.383,-67.339 419.536,-32.8593 523.899,-18.612"/>
<polygon fill="midnightblue" stroke="midnightblue" points="524.542,-22.0571 533.986,-17.2559 523.609,-15.1195 524.542,-22.0571"/>
</g>
<!-- Node16&#45;&gt;Node13 -->
<g id="edge36" class="edge"><title>Node16&#45;&gt;Node13</title>
<path fill="none" stroke="midnightblue" d="M687.333,-266.25C703.211,-247.428 740.585,-203.844 756,-192 783.428,-170.926 807.069,-185.579 825,-156 832.373,-143.838 830.569,-137.087 825,-124 819.961,-112.158 810.676,-101.736 801.268,-93.451"/>
<polygon fill="midnightblue" stroke="midnightblue" points="803.376,-90.6533 793.427,-87.01 798.933,-96.0622 803.376,-90.6533"/>
</g>
<!-- Node17 -->
<g id="node17" class="node"><title>Node17</title>
<polygon fill="white" stroke="#bfbfbf" points="765.5,-198.5 765.5,-217.5 824.5,-217.5 824.5,-198.5 765.5,-198.5"/>
<text text-anchor="middle" x="795" y="-205.5" font-family="Helvetica,sans-Serif" font-size="10.00">functional</text>
</g>
<!-- Node16&#45;&gt;Node17 -->
<g id="edge20" class="edge"><title>Node16&#45;&gt;Node17</title>
<path fill="none" stroke="midnightblue" d="M695.034,-266.372C714.405,-255.254 748.304,-235.8 771.194,-222.662"/>
<polygon fill="midnightblue" stroke="midnightblue" points="773.031,-225.644 779.962,-217.63 769.547,-219.573 773.031,-225.644"/>
</g>
<!-- Node18 -->
<g id="node18" class="node"><title>Node18</title>
<polygon fill="white" stroke="#bfbfbf" points="843,-198.5 843,-217.5 897,-217.5 897,-198.5 843,-198.5"/>
<text text-anchor="middle" x="870" y="-205.5" font-family="Helvetica,sans-Serif" font-size="10.00">iostream</text>
</g>
<!-- Node16&#45;&gt;Node18 -->
<g id="edge21" class="edge"><title>Node16&#45;&gt;Node18</title>
<path fill="none" stroke="midnightblue" d="M707.266,-266.487C738.008,-256.756 789.394,-240.088 833,-224 835.25,-223.17 837.567,-222.29 839.892,-221.39"/>
<polygon fill="midnightblue" stroke="midnightblue" points="841.34,-224.581 849.347,-217.642 838.761,-218.073 841.34,-224.581"/>
</g>
<!-- Node19 -->
<g id="node19" class="node"><title>Node19</title>
<polygon fill="white" stroke="#bfbfbf" points="915.5,-198.5 915.5,-217.5 950.5,-217.5 950.5,-198.5 915.5,-198.5"/>
<text text-anchor="middle" x="933" y="-205.5" font-family="Helvetica,sans-Serif" font-size="10.00">map</text>
</g>
<!-- Node16&#45;&gt;Node19 -->
<g id="edge23" class="edge"><title>Node16&#45;&gt;Node19</title>
<path fill="none" stroke="midnightblue" d="M738.455,-266.52C784.89,-258.673 850.945,-245.007 906,-224 907.409,-223.462 908.834,-222.862 910.255,-222.219"/>
<polygon fill="midnightblue" stroke="midnightblue" points="912.039,-225.238 919.353,-217.571 908.855,-219.004 912.039,-225.238"/>
</g>
<!-- Node20 -->
<g id="node20" class="node"><title>Node20</title>
<polygon fill="white" stroke="#bfbfbf" points="325,-130.5 325,-149.5 377,-149.5 377,-130.5 325,-130.5"/>
<text text-anchor="middle" x="351" y="-137.5" font-family="Helvetica,sans-Serif" font-size="10.00">memory</text>
</g>
<!-- Node16&#45;&gt;Node20 -->
<g id="edge24" class="edge"><title>Node16&#45;&gt;Node20</title>
<path fill="none" stroke="midnightblue" d="M621.759,-275.233C565.288,-272.942 479.13,-262.587 416,-224 390.068,-208.15 370.429,-177.94 359.83,-158.668"/>
<polygon fill="midnightblue" stroke="midnightblue" points="362.878,-156.944 355.126,-149.721 356.682,-160.201 362.878,-156.944"/>
</g>
<!-- Node21 -->
<g id="node21" class="node"><title>Node21</title>
<polygon fill="white" stroke="#bfbfbf" points="969,-198.5 969,-217.5 999,-217.5 999,-198.5 969,-198.5"/>
<text text-anchor="middle" x="984" y="-205.5" font-family="Helvetica,sans-Serif" font-size="10.00">set</text>
</g>
<!-- Node16&#45;&gt;Node21 -->
<g id="edge25" class="edge"><title>Node16&#45;&gt;Node21</title>
<path fill="none" stroke="midnightblue" d="M738.261,-270.481C795.859,-264.608 885.744,-251.625 959,-224 960.225,-223.538 961.459,-223.016 962.685,-222.451"/>
<polygon fill="midnightblue" stroke="midnightblue" points="964.6,-225.394 971.73,-217.558 961.269,-219.238 964.6,-225.394"/>
</g>
<!-- Node22 -->
<g id="node22" class="node"><title>Node22</title>
<polygon fill="white" stroke="#bfbfbf" points="291,-198.5 291,-217.5 369,-217.5 369,-198.5 291,-198.5"/>
<text text-anchor="middle" x="330" y="-205.5" font-family="Helvetica,sans-Serif" font-size="10.00">unordered_set</text>
</g>
<!-- Node16&#45;&gt;Node22 -->
<g id="edge26" class="edge"><title>Node16&#45;&gt;Node22</title>
<path fill="none" stroke="midnightblue" d="M621.873,-266.878C561.737,-258.041 465.274,-242.651 383,-224 378.182,-222.908 373.151,-221.646 368.189,-220.327"/>
<polygon fill="midnightblue" stroke="midnightblue" points="368.759,-216.854 358.189,-217.575 366.902,-223.603 368.759,-216.854"/>
</g>
<!-- Node23 -->
<g id="node23" class="node"><title>Node23</title>
<g id="a_node23"><a xlink:href="handle_8h.html" target="_top" xlink:title="shad/runtime/handle.h">
<polygon fill="white" stroke="black" points="703.5,-130.5 703.5,-149.5 816.5,-149.5 816.5,-130.5 703.5,-130.5"/>
<text text-anchor="middle" x="760" y="-137.5" font-family="Helvetica,sans-Serif" font-size="10.00">shad/runtime/handle.h</text>
</a>
</g>
</g>
<!-- Node16&#45;&gt;Node23 -->
<g id="edge30" class="edge"><title>Node16&#45;&gt;Node23</title>
<path fill="none" stroke="midnightblue" d="M684.099,-266.039C691.299,-250.557 706.98,-217.965 723,-192 730.3,-180.168 739.471,-167.514 746.856,-157.771"/>
<polygon fill="midnightblue" stroke="midnightblue" points="749.706,-159.807 753.032,-149.748 744.159,-155.538 749.706,-159.807"/>
</g>
<!-- Node24 -->
<g id="node24" class="node"><title>Node24</title>
<g id="a_node24"><a xlink:href="available__mappings_8h.html" target="_top" xlink:title="shad/runtime/mappings\l/available_mappings.h">
<polygon fill="white" stroke="black" points="567,-125 567,-155 685,-155 685,-125 567,-125"/>
<text text-anchor="start" x="575" y="-143" font-family="Helvetica,sans-Serif" font-size="10.00">shad/runtime/mappings</text>
<text text-anchor="middle" x="626" y="-132" font-family="Helvetica,sans-Serif" font-size="10.00">/available_mappings.h</text>
</a>
</g>
</g>
<!-- Node16&#45;&gt;Node24 -->
<g id="edge37" class="edge"><title>Node16&#45;&gt;Node24</title>
<path fill="none" stroke="midnightblue" d="M676.457,-266.208C668.235,-245.806 647.636,-194.688 635.45,-164.451"/>
<polygon fill="midnightblue" stroke="midnightblue" points="638.655,-163.038 631.671,-155.071 632.162,-165.655 638.655,-163.038"/>
</g>
<!-- Node25 -->
<g id="node25" class="node"><title>Node25</title>
<g id="a_node25"><a xlink:href="synchronous__interface_8h.html" target="_top" xlink:title="shad/runtime/synchronous\l_interface.h">
<polygon fill="white" stroke="black" points="425.5,-193 425.5,-223 556.5,-223 556.5,-193 425.5,-193"/>
<text text-anchor="start" x="433.5" y="-211" font-family="Helvetica,sans-Serif" font-size="10.00">shad/runtime/synchronous</text>
<text text-anchor="middle" x="491" y="-200" font-family="Helvetica,sans-Serif" font-size="10.00">_interface.h</text>
</a>
</g>
</g>
<!-- Node16&#45;&gt;Node25 -->
<g id="edge39" class="edge"><title>Node16&#45;&gt;Node25</title>
<path fill="none" stroke="midnightblue" d="M655.292,-266.372C626.358,-256.268 577.703,-239.277 540.832,-226.402"/>
<polygon fill="midnightblue" stroke="midnightblue" points="541.847,-223.049 531.252,-223.056 539.539,-229.657 541.847,-223.049"/>
</g>
<!-- Node23&#45;&gt;Node5 -->
<g id="edge31" class="edge"><title>Node23&#45;&gt;Node5</title>
<path fill="none" stroke="midnightblue" d="M792.686,-130.439C838.411,-118.464 921.435,-96.7193 971.171,-83.6933"/>
<polygon fill="midnightblue" stroke="midnightblue" points="972.166,-87.0507 980.953,-81.1313 970.393,-80.2791 972.166,-87.0507"/>
</g>
<!-- Node23&#45;&gt;Node12 -->
<g id="edge32" class="edge"><title>Node23&#45;&gt;Node12</title>
<path fill="none" stroke="midnightblue" d="M750.943,-130.332C731.361,-111.676 685.446,-68.401 668,-56 650.74,-43.7309 629.786,-32.2846 613.381,-24.0065"/>
<polygon fill="midnightblue" stroke="midnightblue" points="614.825,-20.8157 604.31,-19.5163 611.719,-27.0893 614.825,-20.8157"/>
</g>
<!-- Node23&#45;&gt;Node13 -->
<g id="edge33" class="edge"><title>Node23&#45;&gt;Node13</title>
<path fill="none" stroke="midnightblue" d="M761.569,-130.372C763.096,-121.971 765.489,-108.811 767.598,-97.2126"/>
<polygon fill="midnightblue" stroke="midnightblue" points="771.076,-97.6463 769.422,-87.1815 764.189,-96.394 771.076,-97.6463"/>
</g>
<!-- Node23&#45;&gt;Node15 -->
<g id="edge34" class="edge"><title>Node23&#45;&gt;Node15</title>
<path fill="none" stroke="midnightblue" d="M737.645,-130.372C711.69,-120.354 668.194,-103.566 634.94,-90.7312"/>
<polygon fill="midnightblue" stroke="midnightblue" points="636.008,-87.3918 625.418,-87.0562 633.487,-93.9223 636.008,-87.3918"/>
</g>
<!-- Node24&#45;&gt;Node15 -->
<g id="edge38" class="edge"><title>Node24&#45;&gt;Node15</title>
<path fill="none" stroke="midnightblue" d="M617.972,-124.679C613.317,-116.376 607.344,-105.721 602.031,-96.2452"/>
<polygon fill="midnightblue" stroke="midnightblue" points="604.956,-94.3043 597.013,-87.2931 598.85,-97.7274 604.956,-94.3043"/>
</g>
<!-- Node25&#45;&gt;Node2 -->
<g id="edge40" class="edge"><title>Node25&#45;&gt;Node2</title>
<path fill="none" stroke="midnightblue" d="M431.063,-192.922C374.269,-179.583 290.949,-160.013 244.511,-149.106"/>
<polygon fill="midnightblue" stroke="midnightblue" points="245.17,-145.665 234.634,-146.786 243.569,-152.48 245.17,-145.665"/>
</g>
<!-- Node25&#45;&gt;Node10 -->
<g id="edge43" class="edge"><title>Node25&#45;&gt;Node10</title>
<path fill="none" stroke="midnightblue" d="M491,-192.679C491,-183.101 491,-170.394 491,-159.977"/>
<polygon fill="midnightblue" stroke="midnightblue" points="494.5,-159.828 491,-149.828 487.5,-159.828 494.5,-159.828"/>
</g>
<!-- Node25&#45;&gt;Node11 -->
<g id="edge41" class="edge"><title>Node25&#45;&gt;Node11</title>
<path fill="none" stroke="midnightblue" d="M464.436,-192.879C450.367,-184.078 433.98,-171.481 424,-156 411.391,-136.441 407.105,-109.55 405.673,-91.7414"/>
<polygon fill="midnightblue" stroke="midnightblue" points="409.167,-91.5264 405.094,-81.7457 402.179,-91.9315 409.167,-91.5264"/>
</g>
<!-- Node25&#45;&gt;Node20 -->
<g id="edge42" class="edge"><title>Node25&#45;&gt;Node20</title>
<path fill="none" stroke="midnightblue" d="M460.966,-192.841C436.533,-181.323 402.331,-165.199 378.583,-154.004"/>
<polygon fill="midnightblue" stroke="midnightblue" points="379.954,-150.78 369.416,-149.682 376.969,-157.112 379.954,-150.78"/>
</g>
</g>
</svg>
