<?xml version="1.0" encoding="UTF-8" standalone="no"?>
<!DOCTYPE svg PUBLIC "-//W3C//DTD SVG 1.1//EN"
 "http://www.w3.org/Graphics/SVG/1.1/DTD/svg11.dtd">
<!-- Generated by graphviz version 2.36.0 (20140111.2315)
 -->
<!-- Title: include/shad/core/impl/impl_patterns.h Pages: 1 -->
<svg width="464pt" height="164pt"
 viewBox="0.00 0.00 464.00 164.00" xmlns="http://www.w3.org/2000/svg" xmlns:xlink="http://www.w3.org/1999/xlink">
<g id="graph0" class="graph" transform="scale(1 1) rotate(0) translate(4 160)">
<title>include/shad/core/impl/impl_patterns.h</title>
<polygon fill="white" stroke="none" points="-4,4 -4,-160 460,-160 460,4 -4,4"/>
<!-- Node1 -->
<g id="node1" class="node"><title>Node1</title>
<polygon fill="#bfbfbf" stroke="black" points="176,-125 176,-155 290,-155 290,-125 176,-125"/>
<text text-anchor="start" x="184" y="-143" font-family="Helvetica,sans-Serif" font-size="10.00">include/shad/core/impl</text>
<text text-anchor="middle" x="233" y="-132" font-family="Helvetica,sans-Serif" font-size="10.00">/impl_patterns.h</text>
</g>
<!-- Node2 -->
<g id="node2" class="node"><title>Node2</title>
<g id="a_node2"><a xlink:href="minimum__maximum__ops_8h.html" target="_top" xlink:title="include/shad/core/impl\l/minimum_maximum_ops.h">
<polygon fill="white" stroke="black" points="-0.5,-57 -0.5,-87 136.5,-87 136.5,-57 -0.5,-57"/>
<text text-anchor="start" x="7.5" y="-75" font-family="Helvetica,sans-Serif" font-size="10.00">include/shad/core/impl</text>
<text text-anchor="middle" x="68" y="-64" font-family="Helvetica,sans-Serif" font-size="10.00">/minimum_maximum_ops.h</text>
</a>
</g>
</g>
<!-- Node1&#45;&gt;Node2 -->
<g id="edge1" class="edge"><title>Node1&#45;&gt;Node2</title>
<path fill="none" stroke="midnightblue" d="M188.077,-121.031C161.319,-110.328 127.854,-96.9417 103.055,-87.0218"/>
<polygon fill="midnightblue" stroke="midnightblue" points="187.019,-124.377 197.603,-124.841 189.618,-117.878 187.019,-124.377"/>
</g>
<!-- Node4 -->
<g id="node4" class="node"><title>Node4</title>
<g id="a_node4"><a xlink:href="non__modifyng__sequence__ops_8h.html" target="_top" xlink:title="include/shad/core/impl\l/non_modifyng_sequence_ops.h">
<polygon fill="white" stroke="black" points="154.5,-57 154.5,-87 311.5,-87 311.5,-57 154.5,-57"/>
<text text-anchor="start" x="162.5" y="-75" font-family="Helvetica,sans-Serif" font-size="10.00">include/shad/core/impl</text>
<text text-anchor="middle" x="233" y="-64" font-family="Helvetica,sans-Serif" font-size="10.00">/non_modifyng_sequence_ops.h</text>
</a>
</g>
</g>
<!-- Node1&#45;&gt;Node4 -->
<g id="edge3" class="edge"><title>Node1&#45;&gt;Node4</title>
<path fill="none" stroke="midnightblue" d="M233,-114.532C233,-105.361 233,-95.2449 233,-87.2931"/>
<polygon fill="midnightblue" stroke="midnightblue" points="229.5,-114.679 233,-124.679 236.5,-114.679 229.5,-114.679"/>
</g>
<!-- Node5 -->
<g id="node5" class="node"><title>Node5</title>
<g id="a_node5"><a xlink:href="numeric__ops_8h.html" target="_top" xlink:title="include/shad/core/impl\l/numeric_ops.h">
<polygon fill="white" stroke="black" points="330,-57 330,-87 444,-87 444,-57 330,-57"/>
<text text-anchor="start" x="338" y="-75" font-family="Helvetica,sans-Serif" font-size="10.00">include/shad/core/impl</text>
<text text-anchor="middle" x="387" y="-64" font-family="Helvetica,sans-Serif" font-size="10.00">/numeric_ops.h</text>
</a>
</g>
</g>
<!-- Node1&#45;&gt;Node5 -->
<g id="edge5" class="edge"><title>Node1&#45;&gt;Node5</title>
<path fill="none" stroke="midnightblue" d="M275.257,-120.89C300.176,-110.21 331.238,-96.8982 354.282,-87.0218"/>
<polygon fill="midnightblue" stroke="midnightblue" points="273.85,-117.685 266.037,-124.841 276.607,-124.119 273.85,-117.685"/>
</g>
<!-- Node3 -->
<g id="node3" class="node"><title>Node3</title>
<g id="a_node3"><a xlink:href="algorithm_8h.html" target="_top" xlink:title="include/shad/core/algorithm.h">
<polygon fill="white" stroke="black" points="75,-0.5 75,-19.5 219,-19.5 219,-0.5 75,-0.5"/>
<text text-anchor="middle" x="147" y="-7.5" font-family="Helvetica,sans-Serif" font-size="10.00">include/shad/core/algorithm.h</text>
</a>
</g>
</g>
<!-- Node2&#45;&gt;Node3 -->
<g id="edge2" class="edge"><title>Node2&#45;&gt;Node3</title>
<path fill="none" stroke="midnightblue" d="M94.968,-50.5179C108.799,-40.0137 124.916,-27.7727 135.505,-19.7305"/>
<polygon fill="midnightblue" stroke="midnightblue" points="92.5686,-47.9453 86.7219,-56.7808 96.8024,-53.5198 92.5686,-47.9453"/>
</g>
<!-- Node4&#45;&gt;Node3 -->
<g id="edge4" class="edge"><title>Node4&#45;&gt;Node3</title>
<path fill="none" stroke="midnightblue" d="M204.014,-50.7773C188.767,-40.1395 170.88,-27.6602 159.263,-19.5557"/>
<polygon fill="midnightblue" stroke="midnightblue" points="202.415,-53.9294 212.619,-56.7808 206.421,-48.1885 202.415,-53.9294"/>
</g>
<!-- Node6 -->
<g id="node6" class="node"><title>Node6</title>
<g id="a_node6"><a xlink:href="numeric_8h.html" target="_top" xlink:title="include/shad/core/numeric.h">
<polygon fill="white" stroke="black" points="317.5,-0.5 317.5,-19.5 456.5,-19.5 456.5,-0.5 317.5,-0.5"/>
<text text-anchor="middle" x="387" y="-7.5" font-family="Helvetica,sans-Serif" font-size="10.00">include/shad/core/numeric.h</text>
</a>
</g>
</g>
<!-- Node5&#45;&gt;Node6 -->
<g id="edge6" class="edge"><title>Node5&#45;&gt;Node6</title>
<path fill="none" stroke="midnightblue" d="M387,-46.5858C387,-37.0743 387,-26.7864 387,-19.7305"/>
<polygon fill="midnightblue" stroke="midnightblue" points="383.5,-46.7808 387,-56.7808 390.5,-46.7809 383.5,-46.7808"/>
</g>
</g>
</svg>
