<?xml version="1.0" encoding="UTF-8" standalone="no"?>
<!DOCTYPE svg PUBLIC "-//W3C//DTD SVG 1.1//EN"
 "http://www.w3.org/Graphics/SVG/1.1/DTD/svg11.dtd">
<!-- Generated by graphviz version 2.36.0 (20140111.2315)
 -->
<!-- Title: include/shad/core/impl/impl_patterns.h Pages: 1 -->
<svg width="1161pt" height="368pt"
 viewBox="0.00 0.00 1160.90 368.00" xmlns="http://www.w3.org/2000/svg" xmlns:xlink="http://www.w3.org/1999/xlink">
<g id="graph0" class="graph" transform="scale(1 1) rotate(0) translate(4 364)">
<title>include/shad/core/impl/impl_patterns.h</title>
<polygon fill="white" stroke="none" points="-4,4 -4,-364 1156.9,-364 1156.9,4 -4,4"/>
<!-- Node1 -->
<g id="node1" class="node"><title>Node1</title>
<polygon fill="#bfbfbf" stroke="black" points="674.902,-329 674.902,-359 788.902,-359 788.902,-329 674.902,-329"/>
<text text-anchor="start" x="682.902" y="-347" font-family="Helvetica,sans-Serif" font-size="10.00">include/shad/core/impl</text>
<text text-anchor="middle" x="731.902" y="-336" font-family="Helvetica,sans-Serif" font-size="10.00">/impl_patterns.h</text>
</g>
<!-- Node2 -->
<g id="node2" class="node"><title>Node2</title>
<polygon fill="white" stroke="#bfbfbf" points="137.402,-130.5 137.402,-149.5 186.402,-149.5 186.402,-130.5 137.402,-130.5"/>
<text text-anchor="middle" x="161.902" y="-137.5" font-family="Helvetica,sans-Serif" font-size="10.00">cstddef</text>
</g>
<!-- Node1&#45;&gt;Node2 -->
<g id="edge1" class="edge"><title>Node1&#45;&gt;Node2</title>
<path fill="none" stroke="midnightblue" d="M674.71,-343.179C536.913,-342.866 190.157,-337.444 84.9021,-292 33.8974,-269.979 -22.5373,-237.101 9.90213,-192 36.529,-154.98 91.3261,-144.456 127.333,-141.676"/>
<polygon fill="midnightblue" stroke="midnightblue" points="127.634,-145.164 137.402,-141.061 127.207,-138.177 127.634,-145.164"/>
</g>
<!-- Node3 -->
<g id="node3" class="node"><title>Node3</title>
<polygon fill="white" stroke="#bfbfbf" points="86.4021,-198.5 86.4021,-217.5 133.402,-217.5 133.402,-198.5 86.4021,-198.5"/>
<text text-anchor="middle" x="109.902" y="-205.5" font-family="Helvetica,sans-Serif" font-size="10.00">iterator</text>
</g>
<!-- Node1&#45;&gt;Node3 -->
<g id="edge2" class="edge"><title>Node1&#45;&gt;Node3</title>
<path fill="none" stroke="midnightblue" d="M674.778,-330.694C547.733,-303.324 245.009,-238.107 143.637,-216.268"/>
<polygon fill="midnightblue" stroke="midnightblue" points="144.16,-212.8 133.647,-214.116 142.686,-219.643 144.16,-212.8"/>
</g>
<!-- Node4 -->
<g id="node4" class="node"><title>Node4</title>
<polygon fill="white" stroke="#bfbfbf" points="1114.9,-266.5 1114.9,-285.5 1152.9,-285.5 1152.9,-266.5 1114.9,-266.5"/>
<text text-anchor="middle" x="1133.9" y="-273.5" font-family="Helvetica,sans-Serif" font-size="10.00">tuple</text>
</g>
<!-- Node1&#45;&gt;Node4 -->
<g id="edge3" class="edge"><title>Node1&#45;&gt;Node4</title>
<path fill="none" stroke="midnightblue" d="M788.909,-340.231C862.326,-335.514 993.284,-323.177 1100.9,-292 1103.25,-291.32 1105.64,-290.502 1108.01,-289.603"/>
<polygon fill="midnightblue" stroke="midnightblue" points="1109.63,-292.72 1117.47,-285.597 1106.9,-286.274 1109.63,-292.72"/>
</g>
<!-- Node5 -->
<g id="node5" class="node"><title>Node5</title>
<polygon fill="white" stroke="#bfbfbf" points="1023.9,-62.5 1023.9,-81.5 1085.9,-81.5 1085.9,-62.5 1023.9,-62.5"/>
<text text-anchor="middle" x="1054.9" y="-69.5" font-family="Helvetica,sans-Serif" font-size="10.00">type_traits</text>
</g>
<!-- Node1&#45;&gt;Node5 -->
<g id="edge4" class="edge"><title>Node1&#45;&gt;Node5</title>
<path fill="none" stroke="midnightblue" d="M788.976,-342.324C867.821,-337.876 1007.1,-316.524 1066.9,-224 1093.59,-182.709 1074.9,-121.194 1062.87,-91.0156"/>
<polygon fill="midnightblue" stroke="midnightblue" points="1066.08,-89.603 1058.98,-81.7326 1059.62,-92.3083 1066.08,-89.603"/>
</g>
<!-- Node6 -->
<g id="node6" class="node"><title>Node6</title>
<polygon fill="white" stroke="#bfbfbf" points="956.902,-198.5 956.902,-217.5 996.902,-217.5 996.902,-198.5 956.902,-198.5"/>
<text text-anchor="middle" x="976.902" y="-205.5" font-family="Helvetica,sans-Serif" font-size="10.00">utility</text>
</g>
<!-- Node1&#45;&gt;Node6 -->
<g id="edge5" class="edge"><title>Node1&#45;&gt;Node6</title>
<path fill="none" stroke="midnightblue" d="M757.658,-328.913C805.128,-302.95 905.81,-247.883 952.358,-222.424"/>
<polygon fill="midnightblue" stroke="midnightblue" points="954.078,-225.473 961.172,-217.603 950.719,-219.331 954.078,-225.473"/>
</g>
<!-- Node7 -->
<g id="node7" class="node"><title>Node7</title>
<polygon fill="white" stroke="#bfbfbf" points="1014.9,-198.5 1014.9,-217.5 1058.9,-217.5 1058.9,-198.5 1014.9,-198.5"/>
<text text-anchor="middle" x="1036.9" y="-205.5" font-family="Helvetica,sans-Serif" font-size="10.00">vector</text>
</g>
<!-- Node1&#45;&gt;Node7 -->
<g id="edge6" class="edge"><title>Node1&#45;&gt;Node7</title>
<path fill="none" stroke="midnightblue" d="M773.101,-328.907C800.53,-319.221 837.214,-305.683 868.902,-292 920.599,-269.677 979.192,-239.596 1011.72,-222.453"/>
<polygon fill="midnightblue" stroke="midnightblue" points="1013.74,-225.343 1020.94,-217.571 1010.47,-219.157 1013.74,-225.343"/>
</g>
<!-- Node8 -->
<g id="node8" class="node"><title>Node8</title>
<g id="a_node8"><a xlink:href="distributed__iterator__traits_8h.html" target="_top" xlink:title="shad/distributed_iterator\l_traits.h">
<polygon fill="white" stroke="black" points="94.4021,-261 94.4021,-291 215.402,-291 215.402,-261 94.4021,-261"/>
<text text-anchor="start" x="102.402" y="-279" font-family="Helvetica,sans-Serif" font-size="10.00">shad/distributed_iterator</text>
<text text-anchor="middle" x="154.902" y="-268" font-family="Helvetica,sans-Serif" font-size="10.00">_traits.h</text>
</a>
</g>
</g>
<!-- Node1&#45;&gt;Node8 -->
<g id="edge7" class="edge"><title>Node1&#45;&gt;Node8</title>
<path fill="none" stroke="midnightblue" d="M674.733,-336.461C568.618,-324.323 341.489,-298.343 225.793,-285.109"/>
<polygon fill="midnightblue" stroke="midnightblue" points="225.962,-281.605 215.629,-283.946 225.166,-288.56 225.962,-281.605"/>
</g>
<!-- Node17 -->
<g id="node17" class="node"><title>Node17</title>
<g id="a_node17"><a xlink:href="runtime_8h.html" target="_top" xlink:title="shad/runtime/runtime.h">
<polygon fill="white" stroke="black" points="596.902,-266.5 596.902,-285.5 712.902,-285.5 712.902,-266.5 596.902,-266.5"/>
<text text-anchor="middle" x="654.902" y="-273.5" font-family="Helvetica,sans-Serif" font-size="10.00">shad/runtime/runtime.h</text>
</a>
</g>
</g>
<!-- Node1&#45;&gt;Node17 -->
<g id="edge18" class="edge"><title>Node1&#45;&gt;Node17</title>
<path fill="none" stroke="midnightblue" d="M715.194,-328.679C702.713,-317.981 685.675,-303.377 672.895,-292.422"/>
<polygon fill="midnightblue" stroke="midnightblue" points="675.072,-289.679 665.202,-285.828 670.517,-294.994 675.072,-289.679"/>
</g>
<!-- Node8&#45;&gt;Node3 -->
<g id="edge9" class="edge"><title>Node8&#45;&gt;Node3</title>
<path fill="none" stroke="midnightblue" d="M145.138,-260.679C138.26,-250.592 129.016,-237.033 121.721,-226.335"/>
<polygon fill="midnightblue" stroke="midnightblue" points="124.447,-224.119 115.921,-217.828 118.663,-228.062 124.447,-224.119"/>
</g>
<!-- Node9 -->
<g id="node9" class="node"><title>Node9</title>
<polygon fill="white" stroke="#bfbfbf" points="19.4021,-198.5 19.4021,-217.5 68.4021,-217.5 68.4021,-198.5 19.4021,-198.5"/>
<text text-anchor="middle" x="43.9021" y="-205.5" font-family="Helvetica,sans-Serif" font-size="10.00">cassert</text>
</g>
<!-- Node8&#45;&gt;Node9 -->
<g id="edge8" class="edge"><title>Node8&#45;&gt;Node9</title>
<path fill="none" stroke="midnightblue" d="M131.09,-260.841C112.235,-249.63 86.041,-234.056 67.2955,-222.91"/>
<polygon fill="midnightblue" stroke="midnightblue" points="68.8876,-219.784 58.5035,-217.682 65.3101,-225.801 68.8876,-219.784"/>
</g>
<!-- Node10 -->
<g id="node10" class="node"><title>Node10</title>
<g id="a_node10"><a xlink:href="locality_8h.html" target="_top" xlink:title="shad/runtime/locality.h">
<polygon fill="white" stroke="black" points="384.402,-130.5 384.402,-149.5 499.402,-149.5 499.402,-130.5 384.402,-130.5"/>
<text text-anchor="middle" x="441.902" y="-137.5" font-family="Helvetica,sans-Serif" font-size="10.00">shad/runtime/locality.h</text>
</a>
</g>
</g>
<!-- Node8&#45;&gt;Node10 -->
<g id="edge10" class="edge"><title>Node8&#45;&gt;Node10</title>
<path fill="none" stroke="midnightblue" d="M168.409,-260.829C186.766,-242.372 221.391,-210.308 256.902,-192 295.202,-172.254 342.025,-159.442 378.981,-151.598"/>
<polygon fill="midnightblue" stroke="midnightblue" points="380.036,-154.955 389.128,-149.516 378.629,-148.098 380.036,-154.955"/>
</g>
<!-- Node11 -->
<g id="node11" class="node"><title>Node11</title>
<polygon fill="white" stroke="#bfbfbf" points="332.902,-62.5 332.902,-81.5 378.902,-81.5 378.902,-62.5 332.902,-62.5"/>
<text text-anchor="middle" x="355.902" y="-69.5" font-family="Helvetica,sans-Serif" font-size="10.00">cstdint</text>
</g>
<!-- Node10&#45;&gt;Node11 -->
<g id="edge11" class="edge"><title>Node10&#45;&gt;Node11</title>
<path fill="none" stroke="midnightblue" d="M430.659,-130.372C416.624,-119.6 392.39,-101.002 375.326,-87.9065"/>
<polygon fill="midnightblue" stroke="midnightblue" points="377.212,-84.9421 367.148,-81.6305 372.95,-90.4953 377.212,-84.9421"/>
</g>
<!-- Node12 -->
<g id="node12" class="node"><title>Node12</title>
<polygon fill="white" stroke="#bfbfbf" points="511.902,-62.5 511.902,-81.5 565.902,-81.5 565.902,-62.5 511.902,-62.5"/>
<text text-anchor="middle" x="538.902" y="-69.5" font-family="Helvetica,sans-Serif" font-size="10.00">iostream</text>
</g>
<!-- Node10&#45;&gt;Node12 -->
<g id="edge12" class="edge"><title>Node10&#45;&gt;Node12</title>
<path fill="none" stroke="midnightblue" d="M454.583,-130.372C470.632,-119.452 498.502,-100.489 517.784,-87.369"/>
<polygon fill="midnightblue" stroke="midnightblue" points="519.919,-90.1496 526.218,-81.6305 515.981,-84.3622 519.919,-90.1496"/>
</g>
<!-- Node13 -->
<g id="node13" class="node"><title>Node13</title>
<polygon fill="white" stroke="#bfbfbf" points="678.902,-0.5 678.902,-19.5 782.902,-19.5 782.902,-0.5 678.902,-0.5"/>
<text text-anchor="middle" x="730.902" y="-7.5" font-family="Helvetica,sans-Serif" font-size="10.00">shad/config/config.h</text>
</g>
<!-- Node10&#45;&gt;Node13 -->
<g id="edge13" class="edge"><title>Node10&#45;&gt;Node13</title>
<path fill="none" stroke="midnightblue" d="M445.628,-130.293C453.482,-113.069 473.468,-74.6982 502.902,-56 552.661,-24.3908 619.89,-14.2043 668.439,-11.2835"/>
<polygon fill="midnightblue" stroke="midnightblue" points="668.695,-14.775 678.502,-10.7654 668.335,-7.78426 668.695,-14.775"/>
</g>
<!-- Node14 -->
<g id="node14" class="node"><title>Node14</title>
<g id="a_node14"><a xlink:href="mapping__traits_8h.html" target="_top" xlink:title="shad/runtime/mapping\l_traits.h">
<polygon fill="white" stroke="black" points="860.402,-57 860.402,-87 973.402,-87 973.402,-57 860.402,-57"/>
<text text-anchor="start" x="868.402" y="-75" font-family="Helvetica,sans-Serif" font-size="10.00">shad/runtime/mapping</text>
<text text-anchor="middle" x="916.902" y="-64" font-family="Helvetica,sans-Serif" font-size="10.00">_traits.h</text>
</a>
</g>
</g>
<!-- Node10&#45;&gt;Node14 -->
<g id="edge14" class="edge"><title>Node10&#45;&gt;Node14</title>
<path fill="none" stroke="midnightblue" d="M476.888,-130.457C487.16,-128.142 498.445,-125.785 508.902,-124 643.018,-101.108 678.005,-105.713 812.902,-88 824.913,-86.4229 837.691,-84.6547 850.029,-82.9006"/>
<polygon fill="midnightblue" stroke="midnightblue" points="850.861,-86.3173 860.264,-81.435 849.868,-79.388 850.861,-86.3173"/>
</g>
<!-- Node16 -->
<g id="node16" class="node"><title>Node16</title>
<g id="a_node16"><a xlink:href="available__traits__mappings_8h.html" target="_top" xlink:title="shad/runtime/mappings\l/available_traits_mappings.h">
<polygon fill="white" stroke="black" points="663.902,-57 663.902,-87 803.902,-87 803.902,-57 663.902,-57"/>
<text text-anchor="start" x="671.902" y="-75" font-family="Helvetica,sans-Serif" font-size="10.00">shad/runtime/mappings</text>
<text text-anchor="middle" x="733.902" y="-64" font-family="Helvetica,sans-Serif" font-size="10.00">/available_traits_mappings.h</text>
</a>
</g>
</g>
<!-- Node10&#45;&gt;Node16 -->
<g id="edge17" class="edge"><title>Node10&#45;&gt;Node16</title>
<path fill="none" stroke="midnightblue" d="M479.777,-130.439C525.8,-120.037 604.435,-102.263 662.071,-89.2357"/>
<polygon fill="midnightblue" stroke="midnightblue" points="662.871,-92.6434 671.853,-87.0247 661.328,-85.8156 662.871,-92.6434"/>
</g>
<!-- Node14&#45;&gt;Node13 -->
<g id="edge16" class="edge"><title>Node14&#45;&gt;Node13</title>
<path fill="none" stroke="midnightblue" d="M873.293,-56.9327C840.976,-46.5077 797.449,-32.4667 767.059,-22.6635"/>
<polygon fill="midnightblue" stroke="midnightblue" points="767.883,-19.2518 757.291,-19.5127 765.734,-25.9138 767.883,-19.2518"/>
</g>
<!-- Node15 -->
<g id="node15" class="node"><title>Node15</title>
<polygon fill="white" stroke="#bfbfbf" points="896.402,-0.5 896.402,-19.5 937.402,-19.5 937.402,-0.5 896.402,-0.5"/>
<text text-anchor="middle" x="916.902" y="-7.5" font-family="Helvetica,sans-Serif" font-size="10.00">string</text>
</g>
<!-- Node14&#45;&gt;Node15 -->
<g id="edge15" class="edge"><title>Node14&#45;&gt;Node15</title>
<path fill="none" stroke="midnightblue" d="M916.902,-56.7808C916.902,-48.7812 916.902,-38.6887 916.902,-30.0168"/>
<polygon fill="midnightblue" stroke="midnightblue" points="920.402,-29.7305 916.902,-19.7305 913.402,-29.7306 920.402,-29.7305"/>
</g>
<!-- Node17&#45;&gt;Node2 -->
<g id="edge19" class="edge"><title>Node17&#45;&gt;Node2</title>
<path fill="none" stroke="midnightblue" d="M596.876,-270.689C486.747,-262.137 255.552,-242.269 223.902,-224 197.903,-208.992 179.451,-178.273 169.756,-158.708"/>
<polygon fill="midnightblue" stroke="midnightblue" points="172.913,-157.197 165.492,-149.637 166.579,-160.175 172.913,-157.197"/>
</g>
<!-- Node17&#45;&gt;Node3 -->
<g id="edge23" class="edge"><title>Node17&#45;&gt;Node3</title>
<path fill="none" stroke="midnightblue" d="M596.539,-271.158C482.017,-263.286 231.722,-244.344 147.902,-224 144.663,-223.214 141.332,-222.211 138.052,-221.097"/>
<polygon fill="midnightblue" stroke="midnightblue" points="139.103,-217.753 128.511,-217.529 136.652,-224.31 139.103,-217.753"/>
</g>
<!-- Node17&#45;&gt;Node6 -->
<g id="edge28" class="edge"><title>Node17&#45;&gt;Node6</title>
<path fill="none" stroke="midnightblue" d="M712.903,-269.884C772.709,-263.457 868.088,-249.968 946.902,-224 948.81,-223.371 950.749,-222.64 952.675,-221.844"/>
<polygon fill="midnightblue" stroke="midnightblue" points="954.406,-224.899 962.005,-217.517 951.461,-218.549 954.406,-224.899"/>
</g>
<!-- Node17&#45;&gt;Node7 -->
<g id="edge29" class="edge"><title>Node17&#45;&gt;Node7</title>
<path fill="none" stroke="midnightblue" d="M712.927,-272.01C783.516,-267.142 905.671,-254.728 1005.9,-224 1008.04,-223.345 1010.21,-222.562 1012.37,-221.701"/>
<polygon fill="midnightblue" stroke="midnightblue" points="1013.82,-224.884 1021.51,-217.596 1010.95,-218.499 1013.82,-224.884"/>
</g>
<!-- Node17&#45;&gt;Node10 -->
<g id="edge36" class="edge"><title>Node17&#45;&gt;Node10</title>
<path fill="none" stroke="midnightblue" d="M637.389,-266.397C618.055,-256.717 586.188,-240.219 559.902,-224 524.149,-201.94 484.59,-173.155 461.561,-155.929"/>
<polygon fill="midnightblue" stroke="midnightblue" points="463.407,-152.938 453.312,-149.723 459.199,-158.532 463.407,-152.938"/>
</g>
<!-- Node17&#45;&gt;Node11 -->
<g id="edge20" class="edge"><title>Node17&#45;&gt;Node11</title>
<path fill="none" stroke="midnightblue" d="M596.857,-271.738C491.822,-265.238 278.993,-249.102 256.902,-224 216.759,-178.385 294.168,-115.275 334.126,-87.3165"/>
<polygon fill="midnightblue" stroke="midnightblue" points="336.206,-90.1344 342.482,-81.599 332.253,-84.3572 336.206,-90.1344"/>
</g>
<!-- Node17&#45;&gt;Node12 -->
<g id="edge22" class="edge"><title>Node17&#45;&gt;Node12</title>
<path fill="none" stroke="midnightblue" d="M648.59,-266.249C641.573,-256.304 630.144,-239.445 621.902,-224 599.125,-181.318 603.593,-165.604 578.902,-124 571.529,-111.576 561.49,-98.7858 553.314,-89.1219"/>
<polygon fill="midnightblue" stroke="midnightblue" points="555.919,-86.7832 546.723,-81.522 550.631,-91.3697 555.919,-86.7832"/>
</g>
<!-- Node17&#45;&gt;Node13 -->
<g id="edge30" class="edge"><title>Node17&#45;&gt;Node13</title>
<path fill="none" stroke="midnightblue" d="M652.057,-266.291C642.453,-235.195 614.043,-127.677 654.902,-56 663.312,-41.2475 678.668,-30.8375 693.386,-23.7738"/>
<polygon fill="midnightblue" stroke="midnightblue" points="695.137,-26.8275 702.887,-19.603 692.324,-20.4179 695.137,-26.8275"/>
</g>
<!-- Node17&#45;&gt;Node14 -->
<g id="edge37" class="edge"><title>Node17&#45;&gt;Node14</title>
<path fill="none" stroke="midnightblue" d="M668.899,-266.487C684.616,-256.756 710.697,-240.088 731.902,-224 749.223,-210.859 749.539,-201.887 768.902,-192 831.119,-160.234 878.53,-210.762 921.902,-156 935,-139.463 931.515,-114.76 926.112,-96.6028"/>
<polygon fill="midnightblue" stroke="midnightblue" points="929.402,-95.4061 922.913,-87.0312 922.763,-97.625 929.402,-95.4061"/>
</g>
<!-- Node18 -->
<g id="node18" class="node"><title>Node18</title>
<polygon fill="white" stroke="#bfbfbf" points="778.402,-198.5 778.402,-217.5 837.402,-217.5 837.402,-198.5 778.402,-198.5"/>
<text text-anchor="middle" x="807.902" y="-205.5" font-family="Helvetica,sans-Serif" font-size="10.00">functional</text>
</g>
<!-- Node17&#45;&gt;Node18 -->
<g id="edge21" class="edge"><title>Node17&#45;&gt;Node18</title>
<path fill="none" stroke="midnightblue" d="M674.904,-266.372C701.363,-254.958 748.195,-234.756 778.635,-221.625"/>
<polygon fill="midnightblue" stroke="midnightblue" points="780.099,-224.805 787.895,-217.63 777.327,-218.378 780.099,-224.805"/>
</g>
<!-- Node19 -->
<g id="node19" class="node"><title>Node19</title>
<polygon fill="white" stroke="#bfbfbf" points="855.402,-198.5 855.402,-217.5 890.402,-217.5 890.402,-198.5 855.402,-198.5"/>
<text text-anchor="middle" x="872.902" y="-205.5" font-family="Helvetica,sans-Serif" font-size="10.00">map</text>
</g>
<!-- Node17&#45;&gt;Node19 -->
<g id="edge24" class="edge"><title>Node17&#45;&gt;Node19</title>
<path fill="none" stroke="midnightblue" d="M699.135,-266.43C738.5,-258.048 797.215,-243.673 845.902,-224 847.269,-223.448 848.654,-222.841 850.038,-222.197"/>
<polygon fill="midnightblue" stroke="midnightblue" points="851.644,-225.307 858.933,-217.617 848.44,-219.084 851.644,-225.307"/>
</g>
<!-- Node20 -->
<g id="node20" class="node"><title>Node20</title>
<polygon fill="white" stroke="#bfbfbf" points="517.902,-130.5 517.902,-149.5 569.902,-149.5 569.902,-130.5 517.902,-130.5"/>
<text text-anchor="middle" x="543.902" y="-137.5" font-family="Helvetica,sans-Serif" font-size="10.00">memory</text>
</g>
<!-- Node17&#45;&gt;Node20 -->
<g id="edge25" class="edge"><title>Node17&#45;&gt;Node20</title>
<path fill="none" stroke="midnightblue" d="M638.433,-266.374C622.754,-257.487 599.322,-242.364 583.902,-224 567.47,-204.431 555.97,-176.964 549.645,-159.077"/>
<polygon fill="midnightblue" stroke="midnightblue" points="552.95,-157.925 546.449,-149.559 546.314,-160.153 552.95,-157.925"/>
</g>
<!-- Node21 -->
<g id="node21" class="node"><title>Node21</title>
<polygon fill="white" stroke="#bfbfbf" points="908.902,-198.5 908.902,-217.5 938.902,-217.5 938.902,-198.5 908.902,-198.5"/>
<text text-anchor="middle" x="923.902" y="-205.5" font-family="Helvetica,sans-Serif" font-size="10.00">set</text>
</g>
<!-- Node17&#45;&gt;Node21 -->
<g id="edge26" class="edge"><title>Node17&#45;&gt;Node21</title>
<path fill="none" stroke="midnightblue" d="M712.914,-268.429C763.361,-261.423 837.751,-247.946 898.902,-224 900.095,-223.533 901.297,-223.011 902.493,-222.451"/>
<polygon fill="midnightblue" stroke="midnightblue" points="904.229,-225.491 911.35,-217.646 900.891,-219.338 904.229,-225.491"/>
</g>
<!-- Node22 -->
<g id="node22" class="node"><title>Node22</title>
<polygon fill="white" stroke="#bfbfbf" points="265.902,-198.5 265.902,-217.5 343.902,-217.5 343.902,-198.5 265.902,-198.5"/>
<text text-anchor="middle" x="304.902" y="-205.5" font-family="Helvetica,sans-Serif" font-size="10.00">unordered_set</text>
</g>
<!-- Node17&#45;&gt;Node22 -->
<g id="edge27" class="edge"><title>Node17&#45;&gt;Node22</title>
<path fill="none" stroke="midnightblue" d="M596.818,-267.576C535.662,-259.205 436.802,-244.096 352.902,-224 348.699,-222.993 344.327,-221.815 340.008,-220.569"/>
<polygon fill="midnightblue" stroke="midnightblue" points="340.717,-217.128 330.133,-217.589 338.695,-223.829 340.717,-217.128"/>
</g>
<!-- Node23 -->
<g id="node23" class="node"><title>Node23</title>
<g id="a_node23"><a xlink:href="handle_8h.html" target="_top" xlink:title="shad/runtime/handle.h">
<polygon fill="white" stroke="black" points="800.402,-130.5 800.402,-149.5 913.402,-149.5 913.402,-130.5 800.402,-130.5"/>
<text text-anchor="middle" x="856.902" y="-137.5" font-family="Helvetica,sans-Serif" font-size="10.00">shad/runtime/handle.h</text>
</a>
</g>
</g>
<!-- Node17&#45;&gt;Node23 -->
<g id="edge31" class="edge"><title>Node17&#45;&gt;Node23</title>
<path fill="none" stroke="midnightblue" d="M661.569,-266.113C674.368,-249.573 703.958,-213.772 735.902,-192 761.316,-174.679 793.549,-161.45 818.356,-152.811"/>
<polygon fill="midnightblue" stroke="midnightblue" points="819.795,-156.019 828.149,-149.503 817.554,-149.387 819.795,-156.019"/>
</g>
<!-- Node24 -->
<g id="node24" class="node"><title>Node24</title>
<g id="a_node24"><a xlink:href="available__mappings_8h.html" target="_top" xlink:title="shad/runtime/mappings\l/available_mappings.h">
<polygon fill="white" stroke="black" points="663.902,-125 663.902,-155 781.902,-155 781.902,-125 663.902,-125"/>
<text text-anchor="start" x="671.902" y="-143" font-family="Helvetica,sans-Serif" font-size="10.00">shad/runtime/mappings</text>
<text text-anchor="middle" x="722.902" y="-132" font-family="Helvetica,sans-Serif" font-size="10.00">/available_mappings.h</text>
</a>
</g>
</g>
<!-- Node17&#45;&gt;Node24 -->
<g id="edge38" class="edge"><title>Node17&#45;&gt;Node24</title>
<path fill="none" stroke="midnightblue" d="M659.364,-266.208C669.762,-245.718 695.883,-194.243 711.201,-164.058"/>
<polygon fill="midnightblue" stroke="midnightblue" points="714.357,-165.573 715.761,-155.071 708.115,-162.405 714.357,-165.573"/>
</g>
<!-- Node25 -->
<g id="node25" class="node"><title>Node25</title>
<g id="a_node25"><a xlink:href="synchronous__interface_8h.html" target="_top" xlink:title="shad/runtime/synchronous\l_interface.h">
<polygon fill="white" stroke="black" points="362.402,-193 362.402,-223 493.402,-223 493.402,-193 362.402,-193"/>
<text text-anchor="start" x="370.402" y="-211" font-family="Helvetica,sans-Serif" font-size="10.00">shad/runtime/synchronous</text>
<text text-anchor="middle" x="427.902" y="-200" font-family="Helvetica,sans-Serif" font-size="10.00">_interface.h</text>
</a>
</g>
</g>
<!-- Node17&#45;&gt;Node25 -->
<g id="edge40" class="edge"><title>Node17&#45;&gt;Node25</title>
<path fill="none" stroke="midnightblue" d="M625.226,-266.372C590.032,-256.139 530.542,-238.842 486.064,-225.911"/>
<polygon fill="midnightblue" stroke="midnightblue" points="486.827,-222.487 476.247,-223.056 484.872,-229.209 486.827,-222.487"/>
</g>
<!-- Node23&#45;&gt;Node5 -->
<g id="edge32" class="edge"><title>Node23&#45;&gt;Node5</title>
<path fill="none" stroke="midnightblue" d="M882.787,-130.372C917.791,-118.704 980.349,-97.8509 1019.63,-84.7576"/>
<polygon fill="midnightblue" stroke="midnightblue" points="1020.94,-88.0086 1029.32,-81.5259 1018.73,-81.3678 1020.94,-88.0086"/>
</g>
<!-- Node23&#45;&gt;Node13 -->
<g id="edge33" class="edge"><title>Node23&#45;&gt;Node13</title>
<path fill="none" stroke="midnightblue" d="M854.149,-130.213C848.643,-113.838 834.884,-78.3017 812.902,-56 799.085,-41.9816 779.969,-31.1498 763.67,-23.6297"/>
<polygon fill="midnightblue" stroke="midnightblue" points="765.023,-20.4015 754.46,-19.5856 762.209,-26.8108 765.023,-20.4015"/>
</g>
<!-- Node23&#45;&gt;Node14 -->
<g id="edge34" class="edge"><title>Node23&#45;&gt;Node14</title>
<path fill="none" stroke="midnightblue" d="M864.746,-130.372C872.928,-121.371 886.078,-106.907 897.126,-94.7534"/>
<polygon fill="midnightblue" stroke="midnightblue" points="899.873,-96.9352 904.01,-87.1815 894.693,-92.2265 899.873,-96.9352"/>
</g>
<!-- Node23&#45;&gt;Node16 -->
<g id="edge35" class="edge"><title>Node23&#45;&gt;Node16</title>
<path fill="none" stroke="midnightblue" d="M840.822,-130.372C822.771,-120.686 792.925,-104.671 769.347,-92.0192"/>
<polygon fill="midnightblue" stroke="midnightblue" points="770.798,-88.8256 760.331,-87.1815 767.488,-94.9937 770.798,-88.8256"/>
</g>
<!-- Node24&#45;&gt;Node16 -->
<g id="edge39" class="edge"><title>Node24&#45;&gt;Node16</title>
<path fill="none" stroke="midnightblue" d="M725.289,-124.679C726.615,-116.722 728.301,-106.605 729.83,-97.4356"/>
<polygon fill="midnightblue" stroke="midnightblue" points="733.328,-97.7324 731.52,-87.2931 726.424,-96.5816 733.328,-97.7324"/>
</g>
<!-- Node25&#45;&gt;Node2 -->
<g id="edge41" class="edge"><title>Node25&#45;&gt;Node2</title>
<path fill="none" stroke="midnightblue" d="M371.165,-192.922C318.082,-179.751 240.519,-160.506 196.253,-149.523"/>
<polygon fill="midnightblue" stroke="midnightblue" points="197.091,-146.125 186.542,-147.114 195.405,-152.919 197.091,-146.125"/>
</g>
<!-- Node25&#45;&gt;Node10 -->
<g id="edge44" class="edge"><title>Node25&#45;&gt;Node10</title>
<path fill="none" stroke="midnightblue" d="M430.94,-192.679C432.993,-182.999 435.725,-170.123 437.947,-159.645"/>
<polygon fill="midnightblue" stroke="midnightblue" points="441.378,-160.337 440.029,-149.828 434.531,-158.884 441.378,-160.337"/>
</g>
<!-- Node25&#45;&gt;Node11 -->
<g id="edge42" class="edge"><title>Node25&#45;&gt;Node11</title>
<path fill="none" stroke="midnightblue" d="M408.225,-192.81C396.824,-183.573 383.139,-170.56 374.902,-156 363.498,-135.841 358.936,-109.268 357.113,-91.6827"/>
<polygon fill="midnightblue" stroke="midnightblue" points="360.589,-91.2551 356.266,-81.5825 353.614,-91.8401 360.589,-91.2551"/>
</g>
<!-- Node25&#45;&gt;Node20 -->
<g id="edge43" class="edge"><title>Node25&#45;&gt;Node20</title>
<path fill="none" stroke="midnightblue" d="M452.787,-192.841C472.582,-181.579 500.115,-165.913 519.723,-154.757"/>
<polygon fill="midnightblue" stroke="midnightblue" points="521.682,-157.669 528.643,-149.682 518.221,-151.585 521.682,-157.669"/>
</g>
</g>
</svg>
