<?xml version="1.0" encoding="UTF-8" standalone="no"?>
<!DOCTYPE svg PUBLIC "-//W3C//DTD SVG 1.1//EN"
 "http://www.w3.org/Graphics/SVG/1.1/DTD/svg11.dtd">
<!-- Generated by graphviz version 2.36.0 (20140111.2315)
 -->
<!-- Title: include/shad/core/impl/impl_patterns.h Pages: 1 -->
<svg width="1095pt" height="368pt"
 viewBox="0.00 0.00 1095.26 368.00" xmlns="http://www.w3.org/2000/svg" xmlns:xlink="http://www.w3.org/1999/xlink">
<g id="graph0" class="graph" transform="scale(1 1) rotate(0) translate(4 364)">
<title>include/shad/core/impl/impl_patterns.h</title>
<polygon fill="white" stroke="none" points="-4,4 -4,-364 1091.26,-364 1091.26,4 -4,4"/>
<!-- Node1 -->
<g id="node1" class="node"><title>Node1</title>
<polygon fill="#bfbfbf" stroke="black" points="118.647,-329 118.647,-359 232.647,-359 232.647,-329 118.647,-329"/>
<text text-anchor="start" x="126.647" y="-347" font-family="Helvetica,sans-Serif" font-size="10.00">include/shad/core/impl</text>
<text text-anchor="middle" x="175.647" y="-336" font-family="Helvetica,sans-Serif" font-size="10.00">/impl_patterns.h</text>
</g>
<!-- Node2 -->
<g id="node2" class="node"><title>Node2</title>
<polygon fill="white" stroke="#bfbfbf" points="247.147,-130.5 247.147,-149.5 296.147,-149.5 296.147,-130.5 247.147,-130.5"/>
<text text-anchor="middle" x="271.647" y="-137.5" font-family="Helvetica,sans-Serif" font-size="10.00">cstddef</text>
</g>
<!-- Node1&#45;&gt;Node2 -->
<g id="edge1" class="edge"><title>Node1&#45;&gt;Node2</title>
<path fill="none" stroke="midnightblue" d="M118.436,-332.894C91.5577,-325.552 60.844,-313.062 39.6466,-292 7.07051,-259.633 -15.5072,-227.481 13.6466,-192 41.5163,-158.082 173.088,-146.343 236.845,-142.602"/>
<polygon fill="midnightblue" stroke="midnightblue" points="237.042,-146.096 246.833,-142.049 236.655,-139.107 237.042,-146.096"/>
</g>
<!-- Node3 -->
<g id="node3" class="node"><title>Node3</title>
<polygon fill="white" stroke="#bfbfbf" points="81.1466,-198.5 81.1466,-217.5 128.147,-217.5 128.147,-198.5 81.1466,-198.5"/>
<text text-anchor="middle" x="104.647" y="-205.5" font-family="Helvetica,sans-Serif" font-size="10.00">iterator</text>
</g>
<!-- Node1&#45;&gt;Node3 -->
<g id="edge2" class="edge"><title>Node1&#45;&gt;Node3</title>
<path fill="none" stroke="midnightblue" d="M168.048,-328.66C154.979,-303.994 128.281,-253.606 114.057,-226.761"/>
<polygon fill="midnightblue" stroke="midnightblue" points="117.046,-224.925 109.271,-217.728 110.86,-228.202 117.046,-224.925"/>
</g>
<!-- Node4 -->
<g id="node4" class="node"><title>Node4</title>
<polygon fill="white" stroke="#bfbfbf" points="65.6466,-266.5 65.6466,-285.5 103.647,-285.5 103.647,-266.5 65.6466,-266.5"/>
<text text-anchor="middle" x="84.6466" y="-273.5" font-family="Helvetica,sans-Serif" font-size="10.00">tuple</text>
</g>
<!-- Node1&#45;&gt;Node4 -->
<g id="edge3" class="edge"><title>Node1&#45;&gt;Node4</title>
<path fill="none" stroke="midnightblue" d="M155.901,-328.679C140.782,-317.713 120.006,-302.645 104.789,-291.609"/>
<polygon fill="midnightblue" stroke="midnightblue" points="106.706,-288.676 96.5564,-285.638 102.597,-294.342 106.706,-288.676"/>
</g>
<!-- Node5 -->
<g id="node5" class="node"><title>Node5</title>
<polygon fill="white" stroke="#bfbfbf" points="1005.65,-62.5 1005.65,-81.5 1067.65,-81.5 1067.65,-62.5 1005.65,-62.5"/>
<text text-anchor="middle" x="1036.65" y="-69.5" font-family="Helvetica,sans-Serif" font-size="10.00">type_traits</text>
</g>
<!-- Node1&#45;&gt;Node5 -->
<g id="edge4" class="edge"><title>Node1&#45;&gt;Node5</title>
<path fill="none" stroke="midnightblue" d="M232.845,-339.473C417.117,-327.526 986.333,-285.854 1038.65,-224 1070.45,-186.396 1054.5,-122.672 1043.76,-91.4102"/>
<polygon fill="midnightblue" stroke="midnightblue" points="1046.97,-90.0023 1040.26,-81.8023 1040.39,-92.3963 1046.97,-90.0023"/>
</g>
<!-- Node6 -->
<g id="node6" class="node"><title>Node6</title>
<polygon fill="white" stroke="#bfbfbf" points="22.6466,-198.5 22.6466,-217.5 62.6466,-217.5 62.6466,-198.5 22.6466,-198.5"/>
<text text-anchor="middle" x="42.6466" y="-205.5" font-family="Helvetica,sans-Serif" font-size="10.00">utility</text>
</g>
<!-- Node1&#45;&gt;Node6 -->
<g id="edge5" class="edge"><title>Node1&#45;&gt;Node6</title>
<path fill="none" stroke="midnightblue" d="M118.594,-331.119C96.0532,-323.582 71.9325,-311.433 56.6466,-292 42.2817,-273.737 40.3601,-246.143 40.9662,-227.853"/>
<polygon fill="midnightblue" stroke="midnightblue" points="44.4619,-228.03 41.5816,-217.834 37.475,-227.6 44.4619,-228.03"/>
</g>
<!-- Node7 -->
<g id="node7" class="node"><title>Node7</title>
<polygon fill="white" stroke="#bfbfbf" points="146.647,-198.5 146.647,-217.5 190.647,-217.5 190.647,-198.5 146.647,-198.5"/>
<text text-anchor="middle" x="168.647" y="-205.5" font-family="Helvetica,sans-Serif" font-size="10.00">vector</text>
</g>
<!-- Node1&#45;&gt;Node7 -->
<g id="edge6" class="edge"><title>Node1&#45;&gt;Node7</title>
<path fill="none" stroke="midnightblue" d="M232.828,-331.378C254.425,-323.91 276.852,-311.741 289.647,-292 297.382,-280.065 297.511,-271.85 289.647,-260 289.306,-259.487 234.322,-236.441 198.599,-221.508"/>
<polygon fill="midnightblue" stroke="midnightblue" points="199.672,-218.163 189.096,-217.536 196.973,-224.621 199.672,-218.163"/>
</g>
<!-- Node8 -->
<g id="node8" class="node"><title>Node8</title>
<g id="a_node8"><a xlink:href="distributed__iterator__traits_8h.html" target="_top" xlink:title="shad/distributed_iterator\l_traits.h">
<polygon fill="white" stroke="black" points="160.147,-261 160.147,-291 281.147,-291 281.147,-261 160.147,-261"/>
<text text-anchor="start" x="168.147" y="-279" font-family="Helvetica,sans-Serif" font-size="10.00">shad/distributed_iterator</text>
<text text-anchor="middle" x="220.647" y="-268" font-family="Helvetica,sans-Serif" font-size="10.00">_traits.h</text>
</a>
</g>
</g>
<!-- Node1&#45;&gt;Node8 -->
<g id="edge7" class="edge"><title>Node1&#45;&gt;Node8</title>
<path fill="none" stroke="midnightblue" d="M185.411,-328.679C191.19,-320.203 198.64,-309.276 205.2,-299.655"/>
<polygon fill="midnightblue" stroke="midnightblue" points="208.16,-301.527 210.901,-291.293 202.376,-297.584 208.16,-301.527"/>
</g>
<!-- Node15 -->
<g id="node15" class="node"><title>Node15</title>
<g id="a_node15"><a xlink:href="runtime_8h.html" target="_top" xlink:title="shad/runtime/runtime.h">
<polygon fill="white" stroke="black" points="510.647,-266.5 510.647,-285.5 626.647,-285.5 626.647,-266.5 510.647,-266.5"/>
<text text-anchor="middle" x="568.647" y="-273.5" font-family="Helvetica,sans-Serif" font-size="10.00">shad/runtime/runtime.h</text>
</a>
</g>
</g>
<!-- Node1&#45;&gt;Node15 -->
<g id="edge16" class="edge"><title>Node1&#45;&gt;Node15</title>
<path fill="none" stroke="midnightblue" d="M232.792,-333.403C306.09,-321.093 432.686,-299.833 507.75,-287.227"/>
<polygon fill="midnightblue" stroke="midnightblue" points="508.707,-290.615 517.989,-285.507 507.548,-283.712 508.707,-290.615"/>
</g>
<!-- Node8&#45;&gt;Node3 -->
<g id="edge8" class="edge"><title>Node8&#45;&gt;Node3</title>
<path fill="none" stroke="midnightblue" d="M195.762,-260.841C175.967,-249.579 148.433,-233.913 128.826,-222.757"/>
<polygon fill="midnightblue" stroke="midnightblue" points="130.328,-219.585 119.906,-217.682 126.866,-225.669 130.328,-219.585"/>
</g>
<!-- Node9 -->
<g id="node9" class="node"><title>Node9</title>
<g id="a_node9"><a xlink:href="locality_8h.html" target="_top" xlink:title="shad/runtime/locality.h">
<polygon fill="white" stroke="black" points="590.147,-130.5 590.147,-149.5 705.147,-149.5 705.147,-130.5 590.147,-130.5"/>
<text text-anchor="middle" x="647.647" y="-137.5" font-family="Helvetica,sans-Serif" font-size="10.00">shad/runtime/locality.h</text>
</a>
</g>
</g>
<!-- Node8&#45;&gt;Node9 -->
<g id="edge9" class="edge"><title>Node8&#45;&gt;Node9</title>
<path fill="none" stroke="midnightblue" d="M281.574,-262.265C322.479,-253.109 377.336,-239.648 424.647,-224 459.832,-212.362 467.028,-205.227 501.647,-192 539.052,-177.708 582.427,-162.759 612.12,-152.769"/>
<polygon fill="midnightblue" stroke="midnightblue" points="613.267,-156.076 621.637,-149.58 611.043,-149.439 613.267,-156.076"/>
</g>
<!-- Node10 -->
<g id="node10" class="node"><title>Node10</title>
<polygon fill="white" stroke="#bfbfbf" points="327.647,-62.5 327.647,-81.5 373.647,-81.5 373.647,-62.5 327.647,-62.5"/>
<text text-anchor="middle" x="350.647" y="-69.5" font-family="Helvetica,sans-Serif" font-size="10.00">cstdint</text>
</g>
<!-- Node9&#45;&gt;Node10 -->
<g id="edge10" class="edge"><title>Node9&#45;&gt;Node10</title>
<path fill="none" stroke="midnightblue" d="M609.123,-130.439C550.29,-117.365 439.061,-92.6477 383.69,-80.3429"/>
<polygon fill="midnightblue" stroke="midnightblue" points="384.23,-76.8777 373.709,-78.125 382.711,-83.711 384.23,-76.8777"/>
</g>
<!-- Node11 -->
<g id="node11" class="node"><title>Node11</title>
<polygon fill="white" stroke="#bfbfbf" points="847.647,-0.5 847.647,-19.5 951.647,-19.5 951.647,-0.5 847.647,-0.5"/>
<text text-anchor="middle" x="899.647" y="-7.5" font-family="Helvetica,sans-Serif" font-size="10.00">shad/config/config.h</text>
</g>
<!-- Node9&#45;&gt;Node11 -->
<g id="edge11" class="edge"><title>Node9&#45;&gt;Node11</title>
<path fill="none" stroke="midnightblue" d="M646.94,-130.25C646.094,-113.291 646.863,-75.8716 667.647,-56 691.51,-33.1841 777.061,-21.2704 837.306,-15.5685"/>
<polygon fill="midnightblue" stroke="midnightblue" points="837.85,-19.0336 847.491,-14.6404 837.215,-12.0625 837.85,-19.0336"/>
</g>
<!-- Node12 -->
<g id="node12" class="node"><title>Node12</title>
<g id="a_node12"><a xlink:href="mapping__traits_8h.html" target="_top" xlink:title="shad/runtime/mapping\l_traits.h">
<polygon fill="white" stroke="black" points="676.147,-57 676.147,-87 789.147,-87 789.147,-57 676.147,-57"/>
<text text-anchor="start" x="684.147" y="-75" font-family="Helvetica,sans-Serif" font-size="10.00">shad/runtime/mapping</text>
<text text-anchor="middle" x="732.647" y="-64" font-family="Helvetica,sans-Serif" font-size="10.00">_traits.h</text>
</a>
</g>
</g>
<!-- Node9&#45;&gt;Node12 -->
<g id="edge12" class="edge"><title>Node9&#45;&gt;Node12</title>
<path fill="none" stroke="midnightblue" d="M658.759,-130.372C670.792,-121.029 690.408,-105.797 706.406,-93.375"/>
<polygon fill="midnightblue" stroke="midnightblue" points="708.631,-96.079 714.383,-87.1815 704.337,-90.55 708.631,-96.079"/>
</g>
<!-- Node14 -->
<g id="node14" class="node"><title>Node14</title>
<g id="a_node14"><a xlink:href="available__traits__mappings_8h.html" target="_top" xlink:title="shad/runtime/mappings\l/available_traits_mappings.h">
<polygon fill="white" stroke="black" points="807.647,-57 807.647,-87 947.647,-87 947.647,-57 807.647,-57"/>
<text text-anchor="start" x="815.647" y="-75" font-family="Helvetica,sans-Serif" font-size="10.00">shad/runtime/mappings</text>
<text text-anchor="middle" x="877.647" y="-64" font-family="Helvetica,sans-Serif" font-size="10.00">/available_traits_mappings.h</text>
</a>
</g>
</g>
<!-- Node9&#45;&gt;Node14 -->
<g id="edge15" class="edge"><title>Node9&#45;&gt;Node14</title>
<path fill="none" stroke="midnightblue" d="M677.715,-130.372C713.449,-120.117 773.903,-102.77 819,-89.8291"/>
<polygon fill="midnightblue" stroke="midnightblue" points="820.016,-93.1788 828.663,-87.0562 818.085,-86.4503 820.016,-93.1788"/>
</g>
<!-- Node12&#45;&gt;Node11 -->
<g id="edge14" class="edge"><title>Node12&#45;&gt;Node11</title>
<path fill="none" stroke="midnightblue" d="M771.801,-56.9327C800.479,-46.6292 838.988,-32.7935 866.224,-23.0079"/>
<polygon fill="midnightblue" stroke="midnightblue" points="867.482,-26.2752 875.71,-19.6 865.115,-19.6874 867.482,-26.2752"/>
</g>
<!-- Node13 -->
<g id="node13" class="node"><title>Node13</title>
<polygon fill="white" stroke="#bfbfbf" points="712.147,-0.5 712.147,-19.5 753.147,-19.5 753.147,-0.5 712.147,-0.5"/>
<text text-anchor="middle" x="732.647" y="-7.5" font-family="Helvetica,sans-Serif" font-size="10.00">string</text>
</g>
<!-- Node12&#45;&gt;Node13 -->
<g id="edge13" class="edge"><title>Node12&#45;&gt;Node13</title>
<path fill="none" stroke="midnightblue" d="M732.647,-56.7808C732.647,-48.7812 732.647,-38.6887 732.647,-30.0168"/>
<polygon fill="midnightblue" stroke="midnightblue" points="736.147,-29.7305 732.647,-19.7305 729.147,-29.7306 736.147,-29.7305"/>
</g>
<!-- Node15&#45;&gt;Node2 -->
<g id="edge17" class="edge"><title>Node15&#45;&gt;Node2</title>
<path fill="none" stroke="midnightblue" d="M510.477,-273.198C434.017,-269.489 305.848,-258.206 275.647,-224 260.234,-206.544 262.667,-178.103 266.569,-159.47"/>
<polygon fill="midnightblue" stroke="midnightblue" points="270.018,-160.099 268.977,-149.555 263.216,-158.447 270.018,-160.099"/>
</g>
<!-- Node15&#45;&gt;Node3 -->
<g id="edge21" class="edge"><title>Node15&#45;&gt;Node3</title>
<path fill="none" stroke="midnightblue" d="M510.384,-273.775C426.513,-270.748 267.554,-260.262 137.647,-224 135.154,-223.304 132.61,-222.445 130.097,-221.492"/>
<polygon fill="midnightblue" stroke="midnightblue" points="131.293,-218.198 120.721,-217.507 128.555,-224.64 131.293,-218.198"/>
</g>
<!-- Node15&#45;&gt;Node6 -->
<g id="edge26" class="edge"><title>Node15&#45;&gt;Node6</title>
<path fill="none" stroke="midnightblue" d="M510.374,-271.758C397.375,-265.021 152.482,-248.105 71.6466,-224 69.7318,-223.429 67.7945,-222.731 65.8772,-221.951"/>
<polygon fill="midnightblue" stroke="midnightblue" points="67.1902,-218.701 56.6539,-217.589 64.1971,-225.029 67.1902,-218.701"/>
</g>
<!-- Node15&#45;&gt;Node7 -->
<g id="edge27" class="edge"><title>Node15&#45;&gt;Node7</title>
<path fill="none" stroke="midnightblue" d="M510.355,-271.436C437.694,-265.95 310.206,-252.873 204.647,-224 201.83,-223.23 198.941,-222.293 196.084,-221.268"/>
<polygon fill="midnightblue" stroke="midnightblue" points="197.23,-217.958 186.642,-217.557 194.669,-224.473 197.23,-217.958"/>
</g>
<!-- Node15&#45;&gt;Node9 -->
<g id="edge34" class="edge"><title>Node15&#45;&gt;Node9</title>
<path fill="none" stroke="midnightblue" d="M626.848,-268.324C680.34,-260.848 753.937,-246.709 771.647,-224 797.916,-190.314 738.893,-165.587 693.559,-152.254"/>
<polygon fill="midnightblue" stroke="midnightblue" points="694.415,-148.859 683.84,-149.504 692.509,-155.595 694.415,-148.859"/>
</g>
<!-- Node15&#45;&gt;Node10 -->
<g id="edge18" class="edge"><title>Node15&#45;&gt;Node10</title>
<path fill="none" stroke="midnightblue" d="M510.529,-272.381C431.952,-267.691 297.405,-255.237 260.647,-224 225.895,-194.468 212.906,-162.31 237.647,-124 255.068,-97.0241 290.563,-84.1689 317.149,-78.1378"/>
<polygon fill="midnightblue" stroke="midnightblue" points="318.107,-81.5143 327.202,-76.0797 316.703,-74.6566 318.107,-81.5143"/>
</g>
<!-- Node15&#45;&gt;Node11 -->
<g id="edge28" class="edge"><title>Node15&#45;&gt;Node11</title>
<path fill="none" stroke="midnightblue" d="M626.942,-271.76C694.292,-266.721 807.758,-254.211 900.647,-224 930.135,-214.409 934.853,-205.75 962.647,-192 996.147,-175.427 1011.49,-181.679 1038.65,-156 1073.08,-123.441 1104.71,-93.4301 1075.65,-56 1061.58,-37.8781 1006.65,-25.8194 961.85,-18.7857"/>
<polygon fill="midnightblue" stroke="midnightblue" points="962.294,-15.313 951.882,-17.2756 961.245,-22.234 962.294,-15.313"/>
</g>
<!-- Node15&#45;&gt;Node12 -->
<g id="edge35" class="edge"><title>Node15&#45;&gt;Node12</title>
<path fill="none" stroke="midnightblue" d="M626.783,-269.603C685.012,-262.852 768.766,-249.016 788.647,-224 797.495,-212.866 791.758,-205.878 788.647,-192 784.775,-174.735 779.187,-172.007 771.647,-156 762.207,-135.962 751.509,-113.189 743.709,-96.5733"/>
<polygon fill="midnightblue" stroke="midnightblue" points="746.68,-94.6675 739.263,-87.1023 740.344,-97.6419 746.68,-94.6675"/>
</g>
<!-- Node16 -->
<g id="node16" class="node"><title>Node16</title>
<polygon fill="white" stroke="#bfbfbf" points="971.147,-198.5 971.147,-217.5 1030.15,-217.5 1030.15,-198.5 971.147,-198.5"/>
<text text-anchor="middle" x="1000.65" y="-205.5" font-family="Helvetica,sans-Serif" font-size="10.00">functional</text>
</g>
<!-- Node15&#45;&gt;Node16 -->
<g id="edge19" class="edge"><title>Node15&#45;&gt;Node16</title>
<path fill="none" stroke="midnightblue" d="M626.809,-270.963C703.259,-264.838 841.368,-250.946 956.647,-224 960.515,-223.096 964.522,-221.985 968.471,-220.78"/>
<polygon fill="midnightblue" stroke="midnightblue" points="969.636,-224.082 978.059,-217.656 967.467,-217.426 969.636,-224.082"/>
</g>
<!-- Node17 -->
<g id="node17" class="node"><title>Node17</title>
<polygon fill="white" stroke="#bfbfbf" points="510.647,-198.5 510.647,-217.5 564.647,-217.5 564.647,-198.5 510.647,-198.5"/>
<text text-anchor="middle" x="537.647" y="-205.5" font-family="Helvetica,sans-Serif" font-size="10.00">iostream</text>
</g>
<!-- Node15&#45;&gt;Node17 -->
<g id="edge20" class="edge"><title>Node15&#45;&gt;Node17</title>
<path fill="none" stroke="midnightblue" d="M564.594,-266.372C559.932,-256.446 552.148,-239.874 546.142,-227.086"/>
<polygon fill="midnightblue" stroke="midnightblue" points="549.219,-225.404 541.799,-217.841 542.883,-228.38 549.219,-225.404"/>
</g>
<!-- Node18 -->
<g id="node18" class="node"><title>Node18</title>
<polygon fill="white" stroke="#bfbfbf" points="583.147,-198.5 583.147,-217.5 618.147,-217.5 618.147,-198.5 583.147,-198.5"/>
<text text-anchor="middle" x="600.647" y="-205.5" font-family="Helvetica,sans-Serif" font-size="10.00">map</text>
</g>
<!-- Node15&#45;&gt;Node18 -->
<g id="edge22" class="edge"><title>Node15&#45;&gt;Node18</title>
<path fill="none" stroke="midnightblue" d="M572.83,-266.372C577.642,-256.446 585.677,-239.874 591.877,-227.086"/>
<polygon fill="midnightblue" stroke="midnightblue" points="595.147,-228.366 596.36,-217.841 588.848,-225.312 595.147,-228.366"/>
</g>
<!-- Node19 -->
<g id="node19" class="node"><title>Node19</title>
<polygon fill="white" stroke="#bfbfbf" points="417.647,-130.5 417.647,-149.5 469.647,-149.5 469.647,-130.5 417.647,-130.5"/>
<text text-anchor="middle" x="443.647" y="-137.5" font-family="Helvetica,sans-Serif" font-size="10.00">memory</text>
</g>
<!-- Node15&#45;&gt;Node19 -->
<g id="edge23" class="edge"><title>Node15&#45;&gt;Node19</title>
<path fill="none" stroke="midnightblue" d="M554.814,-266.331C540.522,-256.968 518.048,-241.083 501.647,-224 482.026,-203.564 464.123,-175.965 453.551,-158.321"/>
<polygon fill="midnightblue" stroke="midnightblue" points="456.545,-156.507 448.468,-149.651 450.507,-160.048 456.545,-156.507"/>
</g>
<!-- Node20 -->
<g id="node20" class="node"><title>Node20</title>
<polygon fill="white" stroke="#bfbfbf" points="636.647,-198.5 636.647,-217.5 666.647,-217.5 666.647,-198.5 636.647,-198.5"/>
<text text-anchor="middle" x="651.647" y="-205.5" font-family="Helvetica,sans-Serif" font-size="10.00">set</text>
</g>
<!-- Node15&#45;&gt;Node20 -->
<g id="edge24" class="edge"><title>Node15&#45;&gt;Node20</title>
<path fill="none" stroke="midnightblue" d="M579.497,-266.372C593.043,-255.6 616.432,-237.002 632.901,-223.906"/>
<polygon fill="midnightblue" stroke="midnightblue" points="635.144,-226.594 640.793,-217.63 630.788,-221.115 635.144,-226.594"/>
</g>
<!-- Node21 -->
<g id="node21" class="node"><title>Node21</title>
<polygon fill="white" stroke="#bfbfbf" points="684.647,-198.5 684.647,-217.5 762.647,-217.5 762.647,-198.5 684.647,-198.5"/>
<text text-anchor="middle" x="723.647" y="-205.5" font-family="Helvetica,sans-Serif" font-size="10.00">unordered_set</text>
</g>
<!-- Node15&#45;&gt;Node21 -->
<g id="edge25" class="edge"><title>Node15&#45;&gt;Node21</title>
<path fill="none" stroke="midnightblue" d="M588.91,-266.372C615.715,-254.958 663.159,-234.756 693.996,-221.625"/>
<polygon fill="midnightblue" stroke="midnightblue" points="695.549,-224.768 703.378,-217.63 692.806,-218.328 695.549,-224.768"/>
</g>
<!-- Node22 -->
<g id="node22" class="node"><title>Node22</title>
<g id="a_node22"><a xlink:href="handle_8h.html" target="_top" xlink:title="shad/runtime/handle.h">
<polygon fill="white" stroke="black" points="917.147,-130.5 917.147,-149.5 1030.15,-149.5 1030.15,-130.5 917.147,-130.5"/>
<text text-anchor="middle" x="973.647" y="-137.5" font-family="Helvetica,sans-Serif" font-size="10.00">shad/runtime/handle.h</text>
</a>
</g>
</g>
<!-- Node15&#45;&gt;Node22 -->
<g id="edge29" class="edge"><title>Node15&#45;&gt;Node22</title>
<path fill="none" stroke="midnightblue" d="M626.826,-272.652C687.401,-268.446 783.964,-256.712 860.647,-224 899.19,-207.558 936.994,-175.697 957.624,-156.589"/>
<polygon fill="midnightblue" stroke="midnightblue" points="960.029,-159.132 964.893,-149.719 955.221,-154.044 960.029,-159.132"/>
</g>
<!-- Node23 -->
<g id="node23" class="node"><title>Node23</title>
<g id="a_node23"><a xlink:href="available__mappings_8h.html" target="_top" xlink:title="shad/runtime/mappings\l/available_mappings.h">
<polygon fill="white" stroke="black" points="780.647,-125 780.647,-155 898.647,-155 898.647,-125 780.647,-125"/>
<text text-anchor="start" x="788.647" y="-143" font-family="Helvetica,sans-Serif" font-size="10.00">shad/runtime/mappings</text>
<text text-anchor="middle" x="839.647" y="-132" font-family="Helvetica,sans-Serif" font-size="10.00">/available_mappings.h</text>
</a>
</g>
</g>
<!-- Node15&#45;&gt;Node23 -->
<g id="edge36" class="edge"><title>Node15&#45;&gt;Node23</title>
<path fill="none" stroke="midnightblue" d="M626.693,-272.62C698.829,-268.301 815.741,-256.376 842.647,-224 856.114,-207.795 853.229,-183.045 848.272,-164.786"/>
<polygon fill="midnightblue" stroke="midnightblue" points="851.594,-163.682 845.309,-155.153 844.903,-165.74 851.594,-163.682"/>
</g>
<!-- Node24 -->
<g id="node24" class="node"><title>Node24</title>
<g id="a_node24"><a xlink:href="synchronous__interface_8h.html" target="_top" xlink:title="shad/runtime/synchronous\l_interface.h">
<polygon fill="white" stroke="black" points="285.147,-193 285.147,-223 416.147,-223 416.147,-193 285.147,-193"/>
<text text-anchor="start" x="293.147" y="-211" font-family="Helvetica,sans-Serif" font-size="10.00">shad/runtime/synchronous</text>
<text text-anchor="middle" x="350.647" y="-200" font-family="Helvetica,sans-Serif" font-size="10.00">_interface.h</text>
</a>
</g>
</g>
<!-- Node15&#45;&gt;Node24 -->
<g id="edge38" class="edge"><title>Node15&#45;&gt;Node24</title>
<path fill="none" stroke="midnightblue" d="M540.147,-266.372C506.419,-256.16 449.457,-238.915 406.772,-225.992"/>
<polygon fill="midnightblue" stroke="midnightblue" points="407.66,-222.604 397.075,-223.056 405.632,-229.304 407.66,-222.604"/>
</g>
<!-- Node22&#45;&gt;Node5 -->
<g id="edge30" class="edge"><title>Node22&#45;&gt;Node5</title>
<path fill="none" stroke="midnightblue" d="M981.883,-130.372C991.826,-119.955 1008.76,-102.217 1021.17,-89.2162"/>
<polygon fill="midnightblue" stroke="midnightblue" points="1023.83,-91.4914 1028.21,-81.8411 1018.77,-86.658 1023.83,-91.4914"/>
</g>
<!-- Node22&#45;&gt;Node11 -->
<g id="edge31" class="edge"><title>Node22&#45;&gt;Node11</title>
<path fill="none" stroke="midnightblue" d="M973.766,-130.29C973.594,-114.348 971.385,-79.9174 956.647,-56 948.87,-43.3804 936.214,-32.8607 924.801,-25.1739"/>
<polygon fill="midnightblue" stroke="midnightblue" points="926.354,-22.0151 916.031,-19.6306 922.614,-27.9322 926.354,-22.0151"/>
</g>
<!-- Node22&#45;&gt;Node12 -->
<g id="edge32" class="edge"><title>Node22&#45;&gt;Node12</title>
<path fill="none" stroke="midnightblue" d="M942.14,-130.372C904.618,-120.096 841.086,-102.697 793.801,-89.7478"/>
<polygon fill="midnightblue" stroke="midnightblue" points="794.542,-86.3219 783.973,-87.0562 792.693,-93.0733 794.542,-86.3219"/>
</g>
<!-- Node22&#45;&gt;Node14 -->
<g id="edge33" class="edge"><title>Node22&#45;&gt;Node14</title>
<path fill="none" stroke="midnightblue" d="M961.096,-130.372C947.382,-120.943 924.944,-105.517 906.787,-93.0338"/>
<polygon fill="midnightblue" stroke="midnightblue" points="908.497,-89.9626 898.274,-87.1815 904.532,-95.7309 908.497,-89.9626"/>
</g>
<!-- Node23&#45;&gt;Node14 -->
<g id="edge37" class="edge"><title>Node23&#45;&gt;Node14</title>
<path fill="none" stroke="midnightblue" d="M847.892,-124.679C852.672,-116.376 858.807,-105.721 864.263,-96.2452"/>
<polygon fill="midnightblue" stroke="midnightblue" points="867.461,-97.7057 869.417,-87.2931 861.394,-94.2129 867.461,-97.7057"/>
</g>
<!-- Node24&#45;&gt;Node2 -->
<g id="edge39" class="edge"><title>Node24&#45;&gt;Node2</title>
<path fill="none" stroke="midnightblue" d="M333.505,-192.679C320.699,-181.981 303.219,-167.377 290.107,-156.422"/>
<polygon fill="midnightblue" stroke="midnightblue" points="292.132,-153.554 282.214,-149.828 287.644,-158.926 292.132,-153.554"/>
</g>
<!-- Node24&#45;&gt;Node9 -->
<g id="edge42" class="edge"><title>Node24&#45;&gt;Node9</title>
<path fill="none" stroke="midnightblue" d="M413.996,-192.922C469.461,-180.597 548.863,-162.952 599.333,-151.736"/>
<polygon fill="midnightblue" stroke="midnightblue" points="600.332,-155.1 609.335,-149.514 598.813,-148.266 600.332,-155.1"/>
</g>
<!-- Node24&#45;&gt;Node10 -->
<g id="edge40" class="edge"><title>Node24&#45;&gt;Node10</title>
<path fill="none" stroke="midnightblue" d="M350.647,-192.66C350.647,-168.32 350.647,-118.933 350.647,-91.8373"/>
<polygon fill="midnightblue" stroke="midnightblue" points="354.147,-91.7275 350.647,-81.7275 347.147,-91.7276 354.147,-91.7275"/>
</g>
<!-- Node24&#45;&gt;Node19 -->
<g id="edge41" class="edge"><title>Node24&#45;&gt;Node19</title>
<path fill="none" stroke="midnightblue" d="M370.826,-192.679C386.278,-181.713 407.51,-166.645 423.062,-155.609"/>
<polygon fill="midnightblue" stroke="midnightblue" points="425.346,-158.28 431.475,-149.638 421.294,-152.571 425.346,-158.28"/>
</g>
</g>
</svg>
