<?xml version="1.0" encoding="UTF-8" standalone="no"?>
<!DOCTYPE svg PUBLIC "-//W3C//DTD SVG 1.1//EN"
 "http://www.w3.org/Graphics/SVG/1.1/DTD/svg11.dtd">
<!-- Generated by graphviz version 2.36.0 (20140111.2315)
 -->
<!-- Title: Graphical Class Hierarchy Pages: 1 -->
<svg width="404pt" height="93pt"
 viewBox="0.00 0.00 404.00 93.00" xmlns="http://www.w3.org/2000/svg" xmlns:xlink="http://www.w3.org/1999/xlink">
<g id="graph0" class="graph" transform="scale(1 1) rotate(0) translate(4 89)">
<title>Graphical Class Hierarchy</title>
<polygon fill="white" stroke="none" points="-4,4 -4,-89 400,-89 400,4 -4,4"/>
<!-- Node1 -->
<g id="node1" class="node"><title>Node1</title>
<polygon fill="white" stroke="#bfbfbf" points="0,-29.5 0,-48.5 74,-48.5 74,-29.5 0,-29.5"/>
<text text-anchor="middle" x="37" y="-36.5" font-family="Helvetica,sans-Serif" font-size="10.00">iterator_traits</text>
</g>
<!-- Node2 -->
<g id="node2" class="node"><title>Node2</title>
<g id="a_node2"><a xlink:href="structshad_1_1distributed__iterator__traits.html" target="_top" xlink:title="shad::distributed_iterator\l_traits\&lt; Iterator \&gt;">
<polygon fill="white" stroke="black" points="110,-49 110,-79 234,-79 234,-49 110,-49"/>
<text text-anchor="start" x="118" y="-67" font-family="Helvetica,sans-Serif" font-size="10.00">shad::distributed_iterator</text>
<text text-anchor="middle" x="172" y="-56" font-family="Helvetica,sans-Serif" font-size="10.00">_traits&lt; Iterator &gt;</text>
</a>
</g>
</g>
<!-- Node1&#45;&gt;Node2 -->
<g id="edge1" class="edge"><title>Node1&#45;&gt;Node2</title>
<path fill="none" stroke="midnightblue" d="M84.1909,-47.6825C92.4867,-49.2419 101.249,-50.8889 109.889,-52.513"/>
<polygon fill="midnightblue" stroke="midnightblue" points="84.8173,-44.239 74.3428,-45.8314 83.5241,-51.1185 84.8173,-44.239"/>
</g>
<!-- Node4 -->
<g id="node4" class="node"><title>Node4</title>
<g id="a_node4"><a xlink:href="structshad_1_1local__iterator__traits.html" target="_top" xlink:title="shad::local_iterator\l_traits\&lt; Iterator \&gt;">
<polygon fill="white" stroke="black" points="122.5,-0 122.5,-30 221.5,-30 221.5,-0 122.5,-0"/>
<text text-anchor="start" x="130.5" y="-18" font-family="Helvetica,sans-Serif" font-size="10.00">shad::local_iterator</text>
<text text-anchor="middle" x="172" y="-7" font-family="Helvetica,sans-Serif" font-size="10.00">_traits&lt; Iterator &gt;</text>
</a>
</g>
</g>
<!-- Node1&#45;&gt;Node4 -->
<g id="edge3" class="edge"><title>Node1&#45;&gt;Node4</title>
<path fill="none" stroke="midnightblue" d="M84.3536,-30.6354C96.6025,-28.4251 109.858,-26.0331 122.231,-23.8004"/>
<polygon fill="midnightblue" stroke="midnightblue" points="83.5623,-27.2216 74.3428,-32.4419 84.8055,-34.1104 83.5623,-27.2216"/>
</g>
<!-- Node3 -->
<g id="node3" class="node"><title>Node3</title>
<g id="a_node3"><a xlink:href="structshad_1_1distributed__random__access__iterator__trait.html" target="_top" xlink:title="shad::distributed_random\l_access_iterator_trait\l\&lt; Iterator \&gt;">
<polygon fill="white" stroke="black" points="270,-43.5 270,-84.5 396,-84.5 396,-43.5 270,-43.5"/>
<text text-anchor="start" x="278" y="-72.5" font-family="Helvetica,sans-Serif" font-size="10.00">shad::distributed_random</text>
<text text-anchor="start" x="278" y="-61.5" font-family="Helvetica,sans-Serif" font-size="10.00">_access_iterator_trait</text>
<text text-anchor="middle" x="333" y="-50.5" font-family="Helvetica,sans-Serif" font-size="10.00">&lt; Iterator &gt;</text>
</a>
</g>
</g>
<!-- Node2&#45;&gt;Node3 -->
<g id="edge2" class="edge"><title>Node2&#45;&gt;Node3</title>
<path fill="none" stroke="midnightblue" d="M244.031,-64C252.633,-64 261.369,-64 269.829,-64"/>
<polygon fill="midnightblue" stroke="midnightblue" points="244.019,-60.5001 234.019,-64 244.019,-67.5001 244.019,-60.5001"/>
</g>
</g>
</svg>
