<?xml version="1.0" encoding="UTF-8" standalone="no"?>
<!DOCTYPE svg PUBLIC "-//W3C//DTD SVG 1.1//EN"
 "http://www.w3.org/Graphics/SVG/1.1/DTD/svg11.dtd">
<!-- Generated by graphviz version 2.36.0 (20140111.2315)
 -->
<!-- Title: Graphical Class Hierarchy Pages: 1 -->
<svg width="404pt" height="48pt"
 viewBox="0.00 0.00 404.00 48.00" xmlns="http://www.w3.org/2000/svg" xmlns:xlink="http://www.w3.org/1999/xlink">
<g id="graph0" class="graph" transform="scale(1 1) rotate(0) translate(4 44)">
<title>Graphical Class Hierarchy</title>
<polygon fill="white" stroke="none" points="-4,4 -4,-44 400,-44 400,4 -4,4"/>
<!-- Node1 -->
<g id="node1" class="node"><title>Node1</title>
<polygon fill="white" stroke="#bfbfbf" points="0,-10.5 0,-29.5 74,-29.5 74,-10.5 0,-10.5"/>
<text text-anchor="middle" x="37" y="-17.5" font-family="Helvetica,sans-Serif" font-size="10.00">iterator_traits</text>
</g>
<!-- Node2 -->
<g id="node2" class="node"><title>Node2</title>
<g id="a_node2"><a xlink:href="structshad_1_1distributed__iterator__traits.html" target="_top" xlink:title="shad::distributed_iterator\l_traits\&lt; Iterator \&gt;">
<polygon fill="white" stroke="black" points="110,-5 110,-35 234,-35 234,-5 110,-5"/>
<text text-anchor="start" x="118" y="-23" font-family="Helvetica,sans-Serif" font-size="10.00">shad::distributed_iterator</text>
<text text-anchor="middle" x="172" y="-12" font-family="Helvetica,sans-Serif" font-size="10.00">_traits&lt; Iterator &gt;</text>
</a>
</g>
</g>
<!-- Node1&#45;&gt;Node2 -->
<g id="edge1" class="edge"><title>Node1&#45;&gt;Node2</title>
<path fill="none" stroke="midnightblue" d="M84.4646,-20C92.6793,-20 101.344,-20 109.889,-20"/>
<polygon fill="midnightblue" stroke="midnightblue" points="84.3429,-16.5001 74.3428,-20 84.3428,-23.5001 84.3429,-16.5001"/>
</g>
<!-- Node3 -->
<g id="node3" class="node"><title>Node3</title>
<g id="a_node3"><a xlink:href="structshad_1_1distributed__random__access__iterator__trait.html" target="_top" xlink:title="shad::distributed_random\l_access_iterator_trait\l\&lt; Iterator \&gt;">
<polygon fill="white" stroke="black" points="270,0.5 270,-40.5 396,-40.5 396,0.5 270,0.5"/>
<text text-anchor="start" x="278" y="-28.5" font-family="Helvetica,sans-Serif" font-size="10.00">shad::distributed_random</text>
<text text-anchor="start" x="278" y="-17.5" font-family="Helvetica,sans-Serif" font-size="10.00">_access_iterator_trait</text>
<text text-anchor="middle" x="333" y="-6.5" font-family="Helvetica,sans-Serif" font-size="10.00">&lt; Iterator &gt;</text>
</a>
</g>
</g>
<!-- Node2&#45;&gt;Node3 -->
<g id="edge2" class="edge"><title>Node2&#45;&gt;Node3</title>
<path fill="none" stroke="midnightblue" d="M244.031,-20C252.633,-20 261.369,-20 269.829,-20"/>
<polygon fill="midnightblue" stroke="midnightblue" points="244.019,-16.5001 234.019,-20 244.019,-23.5001 244.019,-16.5001"/>
</g>
</g>
</svg>
