<?xml version="1.0" encoding="UTF-8" standalone="no"?>
<!DOCTYPE svg PUBLIC "-//W3C//DTD SVG 1.1//EN"
 "http://www.w3.org/Graphics/SVG/1.1/DTD/svg11.dtd">
<!-- Generated by graphviz version 2.36.0 (20140111.2315)
 -->
<!-- Title: Graphical Class Hierarchy Pages: 1 -->
<svg width="362pt" height="234pt"
 viewBox="0.00 0.00 362.00 234.00" xmlns="http://www.w3.org/2000/svg" xmlns:xlink="http://www.w3.org/1999/xlink">
<g id="graph0" class="graph" transform="scale(1 1) rotate(0) translate(4 230)">
<title>Graphical Class Hierarchy</title>
<polygon fill="white" stroke="none" points="-4,4 -4,-230 358,-230 358,4 -4,4"/>
<!-- Node1 -->
<g id="node1" class="node"><title>Node1</title>
<polygon fill="white" stroke="#bfbfbf" points="0.5,-103.5 0.5,-122.5 47.5,-122.5 47.5,-103.5 0.5,-103.5"/>
<text text-anchor="middle" x="24" y="-110.5" font-family="Helvetica,sans-Serif" font-size="10.00">iterator</text>
</g>
<!-- Node2 -->
<g id="node2" class="node"><title>Node2</title>
<g id="a_node2"><a xlink:href="classshad_1_1insert__iterator.html" target="_top" xlink:title="Insert iterator (over a shad container). ">
<polygon fill="white" stroke="black" points="93.5,-196 93.5,-226 196.5,-226 196.5,-196 93.5,-196"/>
<text text-anchor="start" x="101.5" y="-214" font-family="Helvetica,sans-Serif" font-size="10.00">shad::insert_iterator</text>
<text text-anchor="middle" x="145" y="-203" font-family="Helvetica,sans-Serif" font-size="10.00">&lt; Container &gt;</text>
</a>
</g>
</g>
<!-- Node1&#45;&gt;Node2 -->
<g id="edge1" class="edge"><title>Node1&#45;&gt;Node2</title>
<path fill="none" stroke="midnightblue" d="M36.1086,-131.426C46.6864,-147.65 63.9399,-170.973 84,-186 88.9674,-189.721 94.5699,-192.997 100.305,-195.848"/>
<polygon fill="midnightblue" stroke="midnightblue" points="38.9724,-129.405 30.6812,-122.809 33.0495,-133.136 38.9724,-129.405"/>
</g>
<!-- Node4 -->
<g id="node4" class="node"><title>Node4</title>
<g id="a_node4"><a xlink:href="classshad_1_1lmap__iterator.html" target="_top" xlink:title="shad::lmap_iterator\l\&lt; LMap, T \&gt;">
<polygon fill="white" stroke="black" points="95,-147 95,-177 195,-177 195,-147 95,-147"/>
<text text-anchor="start" x="103" y="-165" font-family="Helvetica,sans-Serif" font-size="10.00">shad::lmap_iterator</text>
<text text-anchor="middle" x="145" y="-154" font-family="Helvetica,sans-Serif" font-size="10.00">&lt; LMap, T &gt;</text>
</a>
</g>
</g>
<!-- Node1&#45;&gt;Node4 -->
<g id="edge3" class="edge"><title>Node1&#45;&gt;Node4</title>
<path fill="none" stroke="midnightblue" d="M57.3209,-126.309C72.7933,-132.68 91.3888,-140.337 107.382,-146.922"/>
<polygon fill="midnightblue" stroke="midnightblue" points="58.2425,-122.903 47.6631,-122.332 55.5772,-129.376 58.2425,-122.903"/>
</g>
<!-- Node5 -->
<g id="node5" class="node"><title>Node5</title>
<g id="a_node5"><a xlink:href="classshad_1_1lset__iterator.html" target="_top" xlink:title="shad::lset_iterator\l\&lt; LSet, T \&gt;">
<polygon fill="white" stroke="black" points="97.5,-98 97.5,-128 192.5,-128 192.5,-98 97.5,-98"/>
<text text-anchor="start" x="105.5" y="-116" font-family="Helvetica,sans-Serif" font-size="10.00">shad::lset_iterator</text>
<text text-anchor="middle" x="145" y="-105" font-family="Helvetica,sans-Serif" font-size="10.00">&lt; LSet, T &gt;</text>
</a>
</g>
</g>
<!-- Node1&#45;&gt;Node5 -->
<g id="edge4" class="edge"><title>Node1&#45;&gt;Node5</title>
<path fill="none" stroke="midnightblue" d="M57.8207,-113C70.0102,-113 84.0838,-113 97.2776,-113"/>
<polygon fill="midnightblue" stroke="midnightblue" points="57.6631,-109.5 47.6631,-113 57.6631,-116.5 57.6631,-109.5"/>
</g>
<!-- Node6 -->
<g id="node6" class="node"><title>Node6</title>
<g id="a_node6"><a xlink:href="classshad_1_1map__iterator.html" target="_top" xlink:title="shad::map_iterator\l\&lt; Map, T, NonConstT \&gt;">
<polygon fill="white" stroke="black" points="84,-49 84,-79 206,-79 206,-49 84,-49"/>
<text text-anchor="start" x="92" y="-67" font-family="Helvetica,sans-Serif" font-size="10.00">shad::map_iterator</text>
<text text-anchor="middle" x="145" y="-56" font-family="Helvetica,sans-Serif" font-size="10.00">&lt; Map, T, NonConstT &gt;</text>
</a>
</g>
</g>
<!-- Node1&#45;&gt;Node6 -->
<g id="edge5" class="edge"><title>Node1&#45;&gt;Node6</title>
<path fill="none" stroke="midnightblue" d="M57.3209,-99.6914C72.7933,-93.3204 91.3888,-85.6634 107.382,-79.0779"/>
<polygon fill="midnightblue" stroke="midnightblue" points="55.5772,-96.6242 47.6631,-103.668 58.2425,-103.097 55.5772,-96.6242"/>
</g>
<!-- Node7 -->
<g id="node7" class="node"><title>Node7</title>
<g id="a_node7"><a xlink:href="classshad_1_1set__iterator.html" target="_top" xlink:title="shad::set_iterator\l\&lt; Set, T, NonConstT \&gt;">
<polygon fill="white" stroke="black" points="86,-0 86,-30 204,-30 204,-0 86,-0"/>
<text text-anchor="start" x="94" y="-18" font-family="Helvetica,sans-Serif" font-size="10.00">shad::set_iterator</text>
<text text-anchor="middle" x="145" y="-7" font-family="Helvetica,sans-Serif" font-size="10.00">&lt; Set, T, NonConstT &gt;</text>
</a>
</g>
</g>
<!-- Node1&#45;&gt;Node7 -->
<g id="edge6" class="edge"><title>Node1&#45;&gt;Node7</title>
<path fill="none" stroke="midnightblue" d="M36.1086,-94.5743C46.6864,-78.3495 63.9399,-55.0271 84,-40 88.9674,-36.2789 94.5699,-33.0027 100.305,-30.1521"/>
<polygon fill="midnightblue" stroke="midnightblue" points="33.0495,-92.864 30.6812,-103.191 38.9724,-96.5948 33.0495,-92.864"/>
</g>
<!-- Node3 -->
<g id="node3" class="node"><title>Node3</title>
<g id="a_node3"><a xlink:href="classshad_1_1buffered__insert__iterator.html" target="_top" xlink:title="Buffered insert iterator. ">
<polygon fill="white" stroke="black" points="242,-196 242,-226 354,-226 354,-196 242,-196"/>
<text text-anchor="start" x="250" y="-214" font-family="Helvetica,sans-Serif" font-size="10.00">shad::buffered_insert</text>
<text text-anchor="middle" x="298" y="-203" font-family="Helvetica,sans-Serif" font-size="10.00">_iterator&lt; Container &gt;</text>
</a>
</g>
</g>
<!-- Node2&#45;&gt;Node3 -->
<g id="edge2" class="edge"><title>Node2&#45;&gt;Node3</title>
<path fill="none" stroke="midnightblue" d="M206.724,-211C218.305,-211 230.368,-211 241.765,-211"/>
<polygon fill="midnightblue" stroke="midnightblue" points="206.701,-207.5 196.701,-211 206.701,-214.5 206.701,-207.5"/>
</g>
</g>
</svg>
