<?xml version="1.0" encoding="UTF-8" standalone="no"?>
<!DOCTYPE svg PUBLIC "-//W3C//DTD SVG 1.1//EN"
 "http://www.w3.org/Graphics/SVG/1.1/DTD/svg11.dtd">
<!-- Generated by graphviz version 2.36.0 (20140111.2315)
 -->
<!-- Title: Graphical Class Hierarchy Pages: 1 -->
<svg width="310pt" height="48pt"
 viewBox="0.00 0.00 310.00 48.00" xmlns="http://www.w3.org/2000/svg" xmlns:xlink="http://www.w3.org/1999/xlink">
<g id="graph0" class="graph" transform="scale(1 1) rotate(0) translate(4 44)">
<title>Graphical Class Hierarchy</title>
<polygon fill="white" stroke="none" points="-4,4 -4,-44 306,-44 306,4 -4,4"/>
<!-- Node1 -->
<g id="node1" class="node"><title>Node1</title>
<g id="a_node1"><a xlink:href="classshad_1_1AbstractDataStructure.html" target="_top" xlink:title="shad::AbstractDataStructure\l\&lt; EdgeIndex\&lt; SrcT, DestT,\l StorageT \&gt; \&gt;">
<polygon fill="white" stroke="black" points="0.5,0.5 0.5,-40.5 141.5,-40.5 141.5,0.5 0.5,0.5"/>
<text text-anchor="start" x="8.5" y="-28.5" font-family="Helvetica,sans-Serif" font-size="10.00">shad::AbstractDataStructure</text>
<text text-anchor="start" x="8.5" y="-17.5" font-family="Helvetica,sans-Serif" font-size="10.00">&lt; EdgeIndex&lt; SrcT, DestT,</text>
<text text-anchor="middle" x="71" y="-6.5" font-family="Helvetica,sans-Serif" font-size="10.00"> StorageT &gt; &gt;</text>
</a>
</g>
</g>
<!-- Node2 -->
<g id="node2" class="node"><title>Node2</title>
<g id="a_node2"><a xlink:href="classshad_1_1EdgeIndex.html" target="_top" xlink:title="The EdgeIndex data structure. ">
<polygon fill="white" stroke="black" points="178.5,-5 178.5,-35 301.5,-35 301.5,-5 178.5,-5"/>
<text text-anchor="start" x="186.5" y="-23" font-family="Helvetica,sans-Serif" font-size="10.00">shad::EdgeIndex&lt; SrcT,</text>
<text text-anchor="middle" x="240" y="-12" font-family="Helvetica,sans-Serif" font-size="10.00"> DestT, StorageT &gt;</text>
</a>
</g>
</g>
<!-- Node1&#45;&gt;Node2 -->
<g id="edge1" class="edge"><title>Node1&#45;&gt;Node2</title>
<path fill="none" stroke="midnightblue" d="M151.894,-20C160.825,-20 169.812,-20 178.444,-20"/>
<polygon fill="midnightblue" stroke="midnightblue" points="151.855,-16.5001 141.855,-20 151.855,-23.5001 151.855,-16.5001"/>
</g>
</g>
</svg>
