<?xml version="1.0" encoding="UTF-8" standalone="no"?>
<!DOCTYPE svg PUBLIC "-//W3C//DTD SVG 1.1//EN"
 "http://www.w3.org/Graphics/SVG/1.1/DTD/svg11.dtd">
<!-- Generated by graphviz version 2.36.0 (20140111.2315)
 -->
<!-- Title: Graphical Class Hierarchy Pages: 1 -->
<svg width="274pt" height="77pt"
 viewBox="0.00 0.00 274.00 77.00" xmlns="http://www.w3.org/2000/svg" xmlns:xlink="http://www.w3.org/1999/xlink">
<g id="graph0" class="graph" transform="scale(1 1) rotate(0) translate(4 73)">
<title>Graphical Class Hierarchy</title>
<polygon fill="white" stroke="none" points="-4,4 -4,-73 270,-73 270,4 -4,4"/>
<!-- Node1 -->
<g id="node1" class="node"><title>Node1</title>
<polygon fill="white" stroke="#bfbfbf" points="0.5,-22.5 0.5,-41.5 91.5,-41.5 91.5,-22.5 0.5,-22.5"/>
<text text-anchor="middle" x="46" y="-29.5" font-family="Helvetica,sans-Serif" font-size="10.00">integral_constant</text>
</g>
<!-- Node2 -->
<g id="node2" class="node"><title>Node2</title>
<g id="a_node2"><a xlink:href="structshad_1_1is__execution__policy.html" target="_top" xlink:title="shad::is_execution\l_policy\&lt; ExecutionPolicy \&gt;">
<polygon fill="white" stroke="black" points="129,-39 129,-69 265,-69 265,-39 129,-39"/>
<text text-anchor="start" x="137" y="-57" font-family="Helvetica,sans-Serif" font-size="10.00">shad::is_execution</text>
<text text-anchor="middle" x="197" y="-46" font-family="Helvetica,sans-Serif" font-size="10.00">_policy&lt; ExecutionPolicy &gt;</text>
</a>
</g>
</g>
<!-- Node1&#45;&gt;Node2 -->
<g id="edge1" class="edge"><title>Node1&#45;&gt;Node2</title>
<path fill="none" stroke="midnightblue" d="M101.786,-40.0892C110.554,-41.3838 119.715,-42.7365 128.733,-44.068"/>
<polygon fill="midnightblue" stroke="midnightblue" points="102.109,-36.599 91.7049,-38.6007 101.086,-43.5239 102.109,-36.599"/>
</g>
<!-- Node3 -->
<g id="node3" class="node"><title>Node3</title>
<g id="a_node3"><a xlink:href="structshad_1_1is__std__hashable.html" target="_top" xlink:title="shad::is_std_hashable\&lt; T \&gt;">
<polygon fill="white" stroke="black" points="128,-0.5 128,-19.5 266,-19.5 266,-0.5 128,-0.5"/>
<text text-anchor="middle" x="197" y="-7.5" font-family="Helvetica,sans-Serif" font-size="10.00">shad::is_std_hashable&lt; T &gt;</text>
</a>
</g>
</g>
<!-- Node1&#45;&gt;Node3 -->
<g id="edge2" class="edge"><title>Node1&#45;&gt;Node3</title>
<path fill="none" stroke="midnightblue" d="M101.622,-23.935C111.336,-22.5007 121.538,-20.9944 131.496,-19.5241"/>
<polygon fill="midnightblue" stroke="midnightblue" points="101.086,-20.4761 91.7049,-25.3993 102.109,-27.401 101.086,-20.4761"/>
</g>
</g>
</svg>
