<?xml version="1.0" encoding="UTF-8" standalone="no"?>
<!DOCTYPE svg PUBLIC "-//W3C//DTD SVG 1.1//EN"
 "http://www.w3.org/Graphics/SVG/1.1/DTD/svg11.dtd">
<!-- Generated by graphviz version 2.36.0 (20140111.2315)
 -->
<!-- Title: include/shad/core/iterator.h Pages: 1 -->
<svg width="494pt" height="220pt"
 viewBox="0.00 0.00 494.00 220.00" xmlns="http://www.w3.org/2000/svg" xmlns:xlink="http://www.w3.org/1999/xlink">
<g id="graph0" class="graph" transform="scale(1 1) rotate(0) translate(4 216)">
<title>include/shad/core/iterator.h</title>
<polygon fill="white" stroke="none" points="-4,4 -4,-216 490,-216 490,4 -4,4"/>
<!-- Node1 -->
<g id="node1" class="node"><title>Node1</title>
<polygon fill="#bfbfbf" stroke="black" points="120,-192.5 120,-211.5 254,-211.5 254,-192.5 120,-192.5"/>
<text text-anchor="middle" x="187" y="-199.5" font-family="Helvetica,sans-Serif" font-size="10.00">include/shad/core/iterator.h</text>
</g>
<!-- Node2 -->
<g id="node2" class="node"><title>Node2</title>
<g id="a_node2"><a xlink:href="modifyng__sequence__ops_8h.html" target="_top" xlink:title="include/shad/core/impl\l/modifyng_sequence_ops.h">
<polygon fill="white" stroke="black" points="4,-57 4,-87 140,-87 140,-57 4,-57"/>
<text text-anchor="start" x="12" y="-75" font-family="Helvetica,sans-Serif" font-size="10.00">include/shad/core/impl</text>
<text text-anchor="middle" x="72" y="-64" font-family="Helvetica,sans-Serif" font-size="10.00">/modifyng_sequence_ops.h</text>
</a>
</g>
</g>
<!-- Node1&#45;&gt;Node2 -->
<g id="edge1" class="edge"><title>Node1&#45;&gt;Node2</title>
<path fill="none" stroke="midnightblue" d="M109.813,-193.319C86.4972,-186.962 63.3111,-175.719 49,-156 33.8939,-135.185 49.4692,-104.873 61.3169,-87.2212"/>
<polygon fill="midnightblue" stroke="midnightblue" points="109.243,-196.783 119.788,-195.755 110.903,-189.982 109.243,-196.783"/>
</g>
<!-- Node4 -->
<g id="node4" class="node"><title>Node4</title>
<g id="a_node4"><a xlink:href="utils_8h.html" target="_top" xlink:title="include/shad/core/impl\l/utils.h">
<polygon fill="white" stroke="black" points="58,-125 58,-155 172,-155 172,-125 58,-125"/>
<text text-anchor="start" x="66" y="-143" font-family="Helvetica,sans-Serif" font-size="10.00">include/shad/core/impl</text>
<text text-anchor="middle" x="115" y="-132" font-family="Helvetica,sans-Serif" font-size="10.00">/utils.h</text>
</a>
</g>
</g>
<!-- Node1&#45;&gt;Node4 -->
<g id="edge3" class="edge"><title>Node1&#45;&gt;Node4</title>
<path fill="none" stroke="midnightblue" d="M168.754,-185.795C157.449,-176.374 143.027,-164.356 131.969,-155.141"/>
<polygon fill="midnightblue" stroke="midnightblue" points="166.761,-188.69 176.684,-192.403 171.243,-183.313 166.761,-188.69"/>
</g>
<!-- Node5 -->
<g id="node5" class="node"><title>Node5</title>
<g id="a_node5"><a xlink:href="unordered__map_8h.html" target="_top" xlink:title="include/shad/core/unordered\l_map.h">
<polygon fill="white" stroke="black" points="190.5,-125 190.5,-155 329.5,-155 329.5,-125 190.5,-125"/>
<text text-anchor="start" x="198.5" y="-143" font-family="Helvetica,sans-Serif" font-size="10.00">include/shad/core/unordered</text>
<text text-anchor="middle" x="260" y="-132" font-family="Helvetica,sans-Serif" font-size="10.00">_map.h</text>
</a>
</g>
</g>
<!-- Node1&#45;&gt;Node5 -->
<g id="edge5" class="edge"><title>Node1&#45;&gt;Node5</title>
<path fill="none" stroke="midnightblue" d="M205.5,-185.795C216.962,-176.374 231.583,-164.356 242.795,-155.141"/>
<polygon fill="midnightblue" stroke="midnightblue" points="202.962,-183.35 197.459,-192.403 207.407,-188.758 202.962,-183.35"/>
</g>
<!-- Node6 -->
<g id="node6" class="node"><title>Node6</title>
<g id="a_node6"><a xlink:href="unordered__set_8h.html" target="_top" xlink:title="include/shad/core/unordered\l_set.h">
<polygon fill="white" stroke="black" points="347.5,-125 347.5,-155 486.5,-155 486.5,-125 347.5,-125"/>
<text text-anchor="start" x="355.5" y="-143" font-family="Helvetica,sans-Serif" font-size="10.00">include/shad/core/unordered</text>
<text text-anchor="middle" x="417" y="-132" font-family="Helvetica,sans-Serif" font-size="10.00">_set.h</text>
</a>
</g>
</g>
<!-- Node1&#45;&gt;Node6 -->
<g id="edge6" class="edge"><title>Node1&#45;&gt;Node6</title>
<path fill="none" stroke="midnightblue" d="M230.101,-189.756C267.79,-179.924 322.684,-165.604 363.236,-155.025"/>
<polygon fill="midnightblue" stroke="midnightblue" points="228.746,-186.493 219.953,-192.403 230.513,-193.266 228.746,-186.493"/>
</g>
<!-- Node3 -->
<g id="node3" class="node"><title>Node3</title>
<g id="a_node3"><a xlink:href="algorithm_8h.html" target="_top" xlink:title="include/shad/core/algorithm.h">
<polygon fill="white" stroke="black" points="0,-0.5 0,-19.5 144,-19.5 144,-0.5 0,-0.5"/>
<text text-anchor="middle" x="72" y="-7.5" font-family="Helvetica,sans-Serif" font-size="10.00">include/shad/core/algorithm.h</text>
</a>
</g>
</g>
<!-- Node2&#45;&gt;Node3 -->
<g id="edge2" class="edge"><title>Node2&#45;&gt;Node3</title>
<path fill="none" stroke="midnightblue" d="M72,-46.5858C72,-37.0743 72,-26.7864 72,-19.7305"/>
<polygon fill="midnightblue" stroke="midnightblue" points="68.5001,-46.7808 72,-56.7808 75.5001,-46.7809 68.5001,-46.7808"/>
</g>
<!-- Node4&#45;&gt;Node2 -->
<g id="edge4" class="edge"><title>Node4&#45;&gt;Node2</title>
<path fill="none" stroke="midnightblue" d="M100.027,-116.019C93.8039,-106.467 86.7744,-95.677 81.3122,-87.2931"/>
<polygon fill="midnightblue" stroke="midnightblue" points="97.2783,-118.211 105.67,-124.679 103.143,-114.39 97.2783,-118.211"/>
</g>
</g>
</svg>
