<?xml version="1.0" encoding="UTF-8" standalone="no"?>
<!DOCTYPE svg PUBLIC "-//W3C//DTD SVG 1.1//EN"
 "http://www.w3.org/Graphics/SVG/1.1/DTD/svg11.dtd">
<!-- Generated by graphviz version 2.36.0 (20140111.2315)
 -->
<!-- Title: include/shad/core/iterator.h Pages: 1 -->
<svg width="451pt" height="220pt"
 viewBox="0.00 0.00 451.00 220.00" xmlns="http://www.w3.org/2000/svg" xmlns:xlink="http://www.w3.org/1999/xlink">
<g id="graph0" class="graph" transform="scale(1 1) rotate(0) translate(4 216)">
<title>include/shad/core/iterator.h</title>
<polygon fill="white" stroke="none" points="-4,4 -4,-216 447,-216 447,4 -4,4"/>
<!-- Node1 -->
<g id="node1" class="node"><title>Node1</title>
<polygon fill="#bfbfbf" stroke="black" points="150,-192.5 150,-211.5 284,-211.5 284,-192.5 150,-192.5"/>
<text text-anchor="middle" x="217" y="-199.5" font-family="Helvetica,sans-Serif" font-size="10.00">include/shad/core/iterator.h</text>
</g>
<!-- Node2 -->
<g id="node2" class="node"><title>Node2</title>
<g id="a_node2"><a xlink:href="utils_8h.html" target="_top" xlink:title="include/shad/core/impl\l/utils.h">
<polygon fill="white" stroke="black" points="15,-125 15,-155 129,-155 129,-125 15,-125"/>
<text text-anchor="start" x="23" y="-143" font-family="Helvetica,sans-Serif" font-size="10.00">include/shad/core/impl</text>
<text text-anchor="middle" x="72" y="-132" font-family="Helvetica,sans-Serif" font-size="10.00">/utils.h</text>
</a>
</g>
</g>
<!-- Node1&#45;&gt;Node2 -->
<g id="edge1" class="edge"><title>Node1&#45;&gt;Node2</title>
<path fill="none" stroke="midnightblue" d="M186.723,-188.472C163.126,-178.707 130.367,-165.152 105.895,-155.025"/>
<polygon fill="midnightblue" stroke="midnightblue" points="185.647,-191.814 196.225,-192.403 188.323,-185.346 185.647,-191.814"/>
</g>
<!-- Node5 -->
<g id="node5" class="node"><title>Node5</title>
<g id="a_node5"><a xlink:href="unordered__map_8h.html" target="_top" xlink:title="include/shad/core/unordered\l_map.h">
<polygon fill="white" stroke="black" points="147.5,-125 147.5,-155 286.5,-155 286.5,-125 147.5,-125"/>
<text text-anchor="start" x="155.5" y="-143" font-family="Helvetica,sans-Serif" font-size="10.00">include/shad/core/unordered</text>
<text text-anchor="middle" x="217" y="-132" font-family="Helvetica,sans-Serif" font-size="10.00">_map.h</text>
</a>
</g>
</g>
<!-- Node1&#45;&gt;Node5 -->
<g id="edge4" class="edge"><title>Node1&#45;&gt;Node5</title>
<path fill="none" stroke="midnightblue" d="M217,-182.371C217,-173.585 217,-163.272 217,-155.141"/>
<polygon fill="midnightblue" stroke="midnightblue" points="213.5,-182.403 217,-192.403 220.5,-182.403 213.5,-182.403"/>
</g>
<!-- Node6 -->
<g id="node6" class="node"><title>Node6</title>
<g id="a_node6"><a xlink:href="unordered__set_8h.html" target="_top" xlink:title="include/shad/core/unordered\l_set.h">
<polygon fill="white" stroke="black" points="304.5,-125 304.5,-155 443.5,-155 443.5,-125 304.5,-125"/>
<text text-anchor="start" x="312.5" y="-143" font-family="Helvetica,sans-Serif" font-size="10.00">include/shad/core/unordered</text>
<text text-anchor="middle" x="374" y="-132" font-family="Helvetica,sans-Serif" font-size="10.00">_set.h</text>
</a>
</g>
</g>
<!-- Node1&#45;&gt;Node6 -->
<g id="edge5" class="edge"><title>Node1&#45;&gt;Node6</title>
<path fill="none" stroke="midnightblue" d="M249.1,-188.732C274.699,-178.95 310.566,-165.242 337.3,-155.025"/>
<polygon fill="midnightblue" stroke="midnightblue" points="247.586,-185.564 239.494,-192.403 250.085,-192.103 247.586,-185.564"/>
</g>
<!-- Node3 -->
<g id="node3" class="node"><title>Node3</title>
<g id="a_node3"><a xlink:href="modifyng__sequence__ops_8h.html" target="_top" xlink:title="include/shad/core/impl\l/modifyng_sequence_ops.h">
<polygon fill="white" stroke="black" points="4,-57 4,-87 140,-87 140,-57 4,-57"/>
<text text-anchor="start" x="12" y="-75" font-family="Helvetica,sans-Serif" font-size="10.00">include/shad/core/impl</text>
<text text-anchor="middle" x="72" y="-64" font-family="Helvetica,sans-Serif" font-size="10.00">/modifyng_sequence_ops.h</text>
</a>
</g>
</g>
<!-- Node2&#45;&gt;Node3 -->
<g id="edge2" class="edge"><title>Node2&#45;&gt;Node3</title>
<path fill="none" stroke="midnightblue" d="M72,-114.532C72,-105.361 72,-95.2449 72,-87.2931"/>
<polygon fill="midnightblue" stroke="midnightblue" points="68.5001,-114.679 72,-124.679 75.5001,-114.679 68.5001,-114.679"/>
</g>
<!-- Node4 -->
<g id="node4" class="node"><title>Node4</title>
<g id="a_node4"><a xlink:href="algorithm_8h.html" target="_top" xlink:title="include/shad/core/algorithm.h">
<polygon fill="white" stroke="black" points="0,-0.5 0,-19.5 144,-19.5 144,-0.5 0,-0.5"/>
<text text-anchor="middle" x="72" y="-7.5" font-family="Helvetica,sans-Serif" font-size="10.00">include/shad/core/algorithm.h</text>
</a>
</g>
</g>
<!-- Node3&#45;&gt;Node4 -->
<g id="edge3" class="edge"><title>Node3&#45;&gt;Node4</title>
<path fill="none" stroke="midnightblue" d="M72,-46.5858C72,-37.0743 72,-26.7864 72,-19.7305"/>
<polygon fill="midnightblue" stroke="midnightblue" points="68.5001,-46.7808 72,-56.7808 75.5001,-46.7809 68.5001,-46.7808"/>
</g>
</g>
</svg>
