<?xml version="1.0" encoding="UTF-8" standalone="no"?>
<!DOCTYPE svg PUBLIC "-//W3C//DTD SVG 1.1//EN"
 "http://www.w3.org/Graphics/SVG/1.1/DTD/svg11.dtd">
<!-- Generated by graphviz version 2.36.0 (20140111.2315)
 -->
<!-- Title: include/shad/core/iterator.h Pages: 1 -->
<svg width="1208pt" height="344pt"
 viewBox="0.00 0.00 1208.00 344.00" xmlns="http://www.w3.org/2000/svg" xmlns:xlink="http://www.w3.org/1999/xlink">
<g id="graph0" class="graph" transform="scale(1 1) rotate(0) translate(4 340)">
<title>include/shad/core/iterator.h</title>
<polygon fill="white" stroke="none" points="-4,4 -4,-340 1204,-340 1204,4 -4,4"/>
<!-- Node1 -->
<g id="node1" class="node"><title>Node1</title>
<polygon fill="#bfbfbf" stroke="black" points="0,-316.5 0,-335.5 134,-335.5 134,-316.5 0,-316.5"/>
<text text-anchor="middle" x="67" y="-323.5" font-family="Helvetica,sans-Serif" font-size="10.00">include/shad/core/iterator.h</text>
</g>
<!-- Node2 -->
<g id="node2" class="node"><title>Node2</title>
<polygon fill="white" stroke="#bfbfbf" points="43.5,-198.5 43.5,-217.5 90.5,-217.5 90.5,-198.5 43.5,-198.5"/>
<text text-anchor="middle" x="67" y="-205.5" font-family="Helvetica,sans-Serif" font-size="10.00">iterator</text>
</g>
<!-- Node1&#45;&gt;Node2 -->
<g id="edge1" class="edge"><title>Node1&#45;&gt;Node2</title>
<path fill="none" stroke="midnightblue" d="M67,-316.281C67,-297.547 67,-253.098 67,-227.682"/>
<polygon fill="midnightblue" stroke="midnightblue" points="70.5001,-227.505 67,-217.505 63.5001,-227.505 70.5001,-227.505"/>
</g>
<!-- Node3 -->
<g id="node3" class="node"><title>Node3</title>
<polygon fill="white" stroke="#bfbfbf" points="93,-130.5 93,-149.5 145,-149.5 145,-130.5 93,-130.5"/>
<text text-anchor="middle" x="119" y="-137.5" font-family="Helvetica,sans-Serif" font-size="10.00">memory</text>
</g>
<!-- Node1&#45;&gt;Node3 -->
<g id="edge2" class="edge"><title>Node1&#45;&gt;Node3</title>
<path fill="none" stroke="midnightblue" d="M60.7317,-316.321C45.5872,-294.196 9.9709,-234.44 34,-192 44.5654,-173.34 64.9834,-160.762 83.1596,-152.767"/>
<polygon fill="midnightblue" stroke="midnightblue" points="84.7319,-155.905 92.6723,-148.891 82.0908,-149.423 84.7319,-155.905"/>
</g>
<!-- Node4 -->
<g id="node4" class="node"><title>Node4</title>
<g id="a_node4"><a xlink:href="runtime_8h.html" target="_top" xlink:title="shad/runtime/runtime.h">
<polygon fill="white" stroke="black" points="497,-260.5 497,-279.5 613,-279.5 613,-260.5 497,-260.5"/>
<text text-anchor="middle" x="555" y="-267.5" font-family="Helvetica,sans-Serif" font-size="10.00">shad/runtime/runtime.h</text>
</a>
</g>
</g>
<!-- Node1&#45;&gt;Node4 -->
<g id="edge3" class="edge"><title>Node1&#45;&gt;Node4</title>
<path fill="none" stroke="midnightblue" d="M134.086,-317.577C226.753,-307.322 393.04,-288.922 486.466,-278.584"/>
<polygon fill="midnightblue" stroke="midnightblue" points="487.104,-282.035 496.658,-277.456 486.334,-275.077 487.104,-282.035"/>
</g>
<!-- Node4&#45;&gt;Node2 -->
<g id="edge8" class="edge"><title>Node4&#45;&gt;Node2</title>
<path fill="none" stroke="midnightblue" d="M496.964,-268.287C410.413,-266.088 242.921,-257.432 105,-224 101.76,-223.215 98.4293,-222.212 95.1498,-221.099"/>
<polygon fill="midnightblue" stroke="midnightblue" points="96.2007,-217.755 85.6082,-217.531 93.7492,-224.312 96.2007,-217.755"/>
</g>
<!-- Node4&#45;&gt;Node3 -->
<g id="edge10" class="edge"><title>Node4&#45;&gt;Node3</title>
<path fill="none" stroke="midnightblue" d="M496.859,-266.427C388.517,-261.101 164.294,-247.371 138,-224 120.074,-208.066 117.238,-178.991 117.566,-159.831"/>
<polygon fill="midnightblue" stroke="midnightblue" points="121.072,-159.785 118.052,-149.63 114.08,-159.452 121.072,-159.785"/>
</g>
<!-- Node5 -->
<g id="node5" class="node"><title>Node5</title>
<polygon fill="white" stroke="#bfbfbf" points="261.5,-130.5 261.5,-149.5 310.5,-149.5 310.5,-130.5 261.5,-130.5"/>
<text text-anchor="middle" x="286" y="-137.5" font-family="Helvetica,sans-Serif" font-size="10.00">cstddef</text>
</g>
<!-- Node4&#45;&gt;Node5 -->
<g id="edge4" class="edge"><title>Node4&#45;&gt;Node5</title>
<path fill="none" stroke="midnightblue" d="M496.764,-262.942C439.426,-255.998 356.805,-243.058 331,-224 309.407,-208.053 297.025,-178.542 290.906,-159.347"/>
<polygon fill="midnightblue" stroke="midnightblue" points="294.237,-158.271 288.068,-149.657 287.52,-160.238 294.237,-158.271"/>
</g>
<!-- Node6 -->
<g id="node6" class="node"><title>Node6</title>
<polygon fill="white" stroke="#bfbfbf" points="322,-62.5 322,-81.5 368,-81.5 368,-62.5 322,-62.5"/>
<text text-anchor="middle" x="345" y="-69.5" font-family="Helvetica,sans-Serif" font-size="10.00">cstdint</text>
</g>
<!-- Node4&#45;&gt;Node6 -->
<g id="edge5" class="edge"><title>Node4&#45;&gt;Node6</title>
<path fill="none" stroke="midnightblue" d="M496.55,-262.552C447.094,-255.829 381.538,-243.507 364,-224 330.803,-187.076 336.106,-122.994 341.273,-91.5225"/>
<polygon fill="midnightblue" stroke="midnightblue" points="344.748,-91.9798 343.1,-81.5139 337.861,-90.7232 344.748,-91.9798"/>
</g>
<!-- Node7 -->
<g id="node7" class="node"><title>Node7</title>
<polygon fill="white" stroke="#bfbfbf" points="373.5,-198.5 373.5,-217.5 432.5,-217.5 432.5,-198.5 373.5,-198.5"/>
<text text-anchor="middle" x="403" y="-205.5" font-family="Helvetica,sans-Serif" font-size="10.00">functional</text>
</g>
<!-- Node4&#45;&gt;Node7 -->
<g id="edge6" class="edge"><title>Node4&#45;&gt;Node7</title>
<path fill="none" stroke="midnightblue" d="M533.222,-260.403C507.262,-250.156 463.689,-232.956 434.165,-221.302"/>
<polygon fill="midnightblue" stroke="midnightblue" points="435.324,-217.997 424.737,-217.581 432.754,-224.508 435.324,-217.997"/>
</g>
<!-- Node8 -->
<g id="node8" class="node"><title>Node8</title>
<polygon fill="white" stroke="#bfbfbf" points="701,-62.5 701,-81.5 755,-81.5 755,-62.5 701,-62.5"/>
<text text-anchor="middle" x="728" y="-69.5" font-family="Helvetica,sans-Serif" font-size="10.00">iostream</text>
</g>
<!-- Node4&#45;&gt;Node8 -->
<g id="edge7" class="edge"><title>Node4&#45;&gt;Node8</title>
<path fill="none" stroke="midnightblue" d="M613.053,-265.244C671.213,-260.128 754.91,-248.615 775,-224 808.181,-183.345 765.616,-119.225 741.915,-89.3409"/>
<polygon fill="midnightblue" stroke="midnightblue" points="744.58,-87.0708 735.538,-81.5475 739.162,-91.5034 744.58,-87.0708"/>
</g>
<!-- Node9 -->
<g id="node9" class="node"><title>Node9</title>
<polygon fill="white" stroke="#bfbfbf" points="450.5,-198.5 450.5,-217.5 485.5,-217.5 485.5,-198.5 450.5,-198.5"/>
<text text-anchor="middle" x="468" y="-205.5" font-family="Helvetica,sans-Serif" font-size="10.00">map</text>
</g>
<!-- Node4&#45;&gt;Node9 -->
<g id="edge9" class="edge"><title>Node4&#45;&gt;Node9</title>
<path fill="none" stroke="midnightblue" d="M542.535,-260.403C528.581,-250.78 505.735,-235.024 489.009,-223.489"/>
<polygon fill="midnightblue" stroke="midnightblue" points="490.661,-220.377 480.442,-217.581 486.687,-226.139 490.661,-220.377"/>
</g>
<!-- Node10 -->
<g id="node10" class="node"><title>Node10</title>
<polygon fill="white" stroke="#bfbfbf" points="504,-198.5 504,-217.5 534,-217.5 534,-198.5 504,-198.5"/>
<text text-anchor="middle" x="519" y="-205.5" font-family="Helvetica,sans-Serif" font-size="10.00">set</text>
</g>
<!-- Node4&#45;&gt;Node10 -->
<g id="edge11" class="edge"><title>Node4&#45;&gt;Node10</title>
<path fill="none" stroke="midnightblue" d="M549.842,-260.403C544.549,-251.582 536.165,-237.608 529.473,-226.455"/>
<polygon fill="midnightblue" stroke="midnightblue" points="532.295,-224.355 524.148,-217.581 526.292,-227.956 532.295,-224.355"/>
</g>
<!-- Node11 -->
<g id="node11" class="node"><title>Node11</title>
<polygon fill="white" stroke="#bfbfbf" points="552,-198.5 552,-217.5 630,-217.5 630,-198.5 552,-198.5"/>
<text text-anchor="middle" x="591" y="-205.5" font-family="Helvetica,sans-Serif" font-size="10.00">unordered_set</text>
</g>
<!-- Node4&#45;&gt;Node11 -->
<g id="edge12" class="edge"><title>Node4&#45;&gt;Node11</title>
<path fill="none" stroke="midnightblue" d="M560.158,-260.403C565.451,-251.582 573.835,-237.608 580.527,-226.455"/>
<polygon fill="midnightblue" stroke="midnightblue" points="583.708,-227.956 585.852,-217.581 577.705,-224.355 583.708,-227.956"/>
</g>
<!-- Node12 -->
<g id="node12" class="node"><title>Node12</title>
<polygon fill="white" stroke="#bfbfbf" points="648,-198.5 648,-217.5 688,-217.5 688,-198.5 648,-198.5"/>
<text text-anchor="middle" x="668" y="-205.5" font-family="Helvetica,sans-Serif" font-size="10.00">utility</text>
</g>
<!-- Node4&#45;&gt;Node12 -->
<g id="edge13" class="edge"><title>Node4&#45;&gt;Node12</title>
<path fill="none" stroke="midnightblue" d="M571.19,-260.403C589.902,-250.468 620.923,-233.997 642.799,-222.381"/>
<polygon fill="midnightblue" stroke="midnightblue" points="644.649,-225.362 651.84,-217.581 641.366,-219.179 644.649,-225.362"/>
</g>
<!-- Node13 -->
<g id="node13" class="node"><title>Node13</title>
<polygon fill="white" stroke="#bfbfbf" points="706,-198.5 706,-217.5 750,-217.5 750,-198.5 706,-198.5"/>
<text text-anchor="middle" x="728" y="-205.5" font-family="Helvetica,sans-Serif" font-size="10.00">vector</text>
</g>
<!-- Node4&#45;&gt;Node13 -->
<g id="edge14" class="edge"><title>Node4&#45;&gt;Node13</title>
<path fill="none" stroke="midnightblue" d="M586.477,-260.435C615.557,-252.193 659.757,-238.823 697,-224 698.642,-223.346 700.319,-222.644 701.999,-221.912"/>
<polygon fill="midnightblue" stroke="midnightblue" points="703.852,-224.912 711.465,-217.544 700.919,-218.556 703.852,-224.912"/>
</g>
<!-- Node14 -->
<g id="node14" class="node"><title>Node14</title>
<polygon fill="white" stroke="#bfbfbf" points="908,-0.5 908,-19.5 1012,-19.5 1012,-0.5 908,-0.5"/>
<text text-anchor="middle" x="960" y="-7.5" font-family="Helvetica,sans-Serif" font-size="10.00">shad/config/config.h</text>
</g>
<!-- Node4&#45;&gt;Node14 -->
<g id="edge15" class="edge"><title>Node4&#45;&gt;Node14</title>
<path fill="none" stroke="midnightblue" d="M613.223,-264.579C687.972,-258.163 812.935,-244.725 854,-224 892.157,-204.743 900.731,-193.073 922,-156 945.56,-114.932 954.825,-59.0023 958.214,-30.0763"/>
<polygon fill="midnightblue" stroke="midnightblue" points="961.733,-30.0798 959.303,-19.7676 954.772,-29.3449 961.733,-30.0798"/>
</g>
<!-- Node15 -->
<g id="node15" class="node"><title>Node15</title>
<g id="a_node15"><a xlink:href="handle_8h.html" target="_top" xlink:title="shad/runtime/handle.h">
<polygon fill="white" stroke="black" points="969.5,-130.5 969.5,-149.5 1082.5,-149.5 1082.5,-130.5 969.5,-130.5"/>
<text text-anchor="middle" x="1026" y="-137.5" font-family="Helvetica,sans-Serif" font-size="10.00">shad/runtime/handle.h</text>
</a>
</g>
</g>
<!-- Node4&#45;&gt;Node15 -->
<g id="edge16" class="edge"><title>Node4&#45;&gt;Node15</title>
<path fill="none" stroke="midnightblue" d="M613.159,-267.651C709.449,-264.566 897.12,-254.694 955,-224 983.09,-209.104 1004.84,-178.115 1016.51,-158.504"/>
<polygon fill="midnightblue" stroke="midnightblue" points="1019.63,-160.093 1021.54,-149.671 1013.55,-156.628 1019.63,-160.093"/>
</g>
<!-- Node17 -->
<g id="node17" class="node"><title>Node17</title>
<g id="a_node17"><a xlink:href="mapping__traits_8h.html" target="_top" xlink:title="shad/runtime/mapping\l_traits.h">
<polygon fill="white" stroke="black" points="1087.5,-57 1087.5,-87 1200.5,-87 1200.5,-57 1087.5,-57"/>
<text text-anchor="start" x="1095.5" y="-75" font-family="Helvetica,sans-Serif" font-size="10.00">shad/runtime/mapping</text>
<text text-anchor="middle" x="1144" y="-64" font-family="Helvetica,sans-Serif" font-size="10.00">_traits.h</text>
</a>
</g>
</g>
<!-- Node4&#45;&gt;Node17 -->
<g id="edge29" class="edge"><title>Node4&#45;&gt;Node17</title>
<path fill="none" stroke="midnightblue" d="M613.021,-266.391C714.627,-261.257 920.396,-248.183 988,-224 1039.65,-205.524 1052.51,-195.082 1091,-156 1108.41,-138.322 1123.11,-114.014 1132.58,-96.2733"/>
<polygon fill="midnightblue" stroke="midnightblue" points="1135.8,-97.6671 1137.29,-87.1772 1129.59,-94.4501 1135.8,-97.6671"/>
</g>
<!-- Node20 -->
<g id="node20" class="node"><title>Node20</title>
<g id="a_node20"><a xlink:href="locality_8h.html" target="_top" xlink:title="shad/runtime/locality.h">
<polygon fill="white" stroke="black" points="623.5,-130.5 623.5,-149.5 738.5,-149.5 738.5,-130.5 623.5,-130.5"/>
<text text-anchor="middle" x="681" y="-137.5" font-family="Helvetica,sans-Serif" font-size="10.00">shad/runtime/locality.h</text>
</a>
</g>
</g>
<!-- Node4&#45;&gt;Node20 -->
<g id="edge23" class="edge"><title>Node4&#45;&gt;Node20</title>
<path fill="none" stroke="midnightblue" d="M613.116,-264.099C666.543,-258.245 740.093,-246.311 758,-224 766.902,-212.908 764.73,-204.529 758,-192 748.677,-174.642 730.562,-162.197 714.245,-153.948"/>
<polygon fill="midnightblue" stroke="midnightblue" points="715.464,-150.654 704.925,-149.571 712.488,-156.99 715.464,-150.654"/>
</g>
<!-- Node21 -->
<g id="node21" class="node"><title>Node21</title>
<g id="a_node21"><a xlink:href="available__mappings_8h.html" target="_top" xlink:title="shad/runtime/mappings\l/available_mappings.h">
<polygon fill="white" stroke="black" points="795,-125 795,-155 913,-155 913,-125 795,-125"/>
<text text-anchor="start" x="803" y="-143" font-family="Helvetica,sans-Serif" font-size="10.00">shad/runtime/mappings</text>
<text text-anchor="middle" x="854" y="-132" font-family="Helvetica,sans-Serif" font-size="10.00">/available_mappings.h</text>
</a>
</g>
</g>
<!-- Node4&#45;&gt;Node21 -->
<g id="edge30" class="edge"><title>Node4&#45;&gt;Node21</title>
<path fill="none" stroke="midnightblue" d="M613.107,-266.635C684.116,-262.56 798.699,-251.774 830,-224 846.507,-209.353 851.968,-184.127 853.627,-165.32"/>
<polygon fill="midnightblue" stroke="midnightblue" points="857.134,-165.303 854.219,-155.117 850.145,-164.898 857.134,-165.303"/>
</g>
<!-- Node22 -->
<g id="node22" class="node"><title>Node22</title>
<g id="a_node22"><a xlink:href="synchronous__interface_8h.html" target="_top" xlink:title="shad/runtime/synchronous\l_interface.h">
<polygon fill="white" stroke="black" points="147.5,-193 147.5,-223 278.5,-223 278.5,-193 147.5,-193"/>
<text text-anchor="start" x="155.5" y="-211" font-family="Helvetica,sans-Serif" font-size="10.00">shad/runtime/synchronous</text>
<text text-anchor="middle" x="213" y="-200" font-family="Helvetica,sans-Serif" font-size="10.00">_interface.h</text>
</a>
</g>
</g>
<!-- Node4&#45;&gt;Node22 -->
<g id="edge32" class="edge"><title>Node4&#45;&gt;Node22</title>
<path fill="none" stroke="midnightblue" d="M503.752,-260.435C450.907,-251.548 366.135,-237.136 293,-224 291.709,-223.768 290.407,-223.533 289.095,-223.296"/>
<polygon fill="midnightblue" stroke="midnightblue" points="289.372,-219.789 278.907,-221.44 288.117,-226.676 289.372,-219.789"/>
</g>
<!-- Node15&#45;&gt;Node14 -->
<g id="edge18" class="edge"><title>Node15&#45;&gt;Node14</title>
<path fill="none" stroke="midnightblue" d="M1021.13,-130.399C1015.45,-120.311 1005.84,-103.05 998,-88 987.491,-67.8278 976.011,-44.3488 968.449,-28.6705"/>
<polygon fill="midnightblue" stroke="midnightblue" points="971.581,-27.106 964.096,-19.6072 965.271,-30.1367 971.581,-27.106"/>
</g>
<!-- Node16 -->
<g id="node16" class="node"><title>Node16</title>
<polygon fill="white" stroke="#bfbfbf" points="1007,-62.5 1007,-81.5 1069,-81.5 1069,-62.5 1007,-62.5"/>
<text text-anchor="middle" x="1038" y="-69.5" font-family="Helvetica,sans-Serif" font-size="10.00">type_traits</text>
</g>
<!-- Node15&#45;&gt;Node16 -->
<g id="edge17" class="edge"><title>Node15&#45;&gt;Node16</title>
<path fill="none" stroke="midnightblue" d="M1027.57,-130.372C1029.34,-120.643 1032.27,-104.528 1034.57,-91.8504"/>
<polygon fill="midnightblue" stroke="midnightblue" points="1038.05,-92.3059 1036.39,-81.8411 1031.16,-91.0537 1038.05,-92.3059"/>
</g>
<!-- Node15&#45;&gt;Node17 -->
<g id="edge19" class="edge"><title>Node15&#45;&gt;Node17</title>
<path fill="none" stroke="midnightblue" d="M1041.43,-130.372C1058.67,-120.729 1087.12,-104.812 1109.7,-92.1874"/>
<polygon fill="midnightblue" stroke="midnightblue" points="1111.63,-95.1177 1118.65,-87.1815 1108.21,-89.0084 1111.63,-95.1177"/>
</g>
<!-- Node19 -->
<g id="node19" class="node"><title>Node19</title>
<g id="a_node19"><a xlink:href="available__traits__mappings_8h.html" target="_top" xlink:title="shad/runtime/mappings\l/available_traits_mappings.h">
<polygon fill="white" stroke="black" points="773,-57 773,-87 913,-87 913,-57 773,-57"/>
<text text-anchor="start" x="781" y="-75" font-family="Helvetica,sans-Serif" font-size="10.00">shad/runtime/mappings</text>
<text text-anchor="middle" x="843" y="-64" font-family="Helvetica,sans-Serif" font-size="10.00">/available_traits_mappings.h</text>
</a>
</g>
</g>
<!-- Node15&#45;&gt;Node19 -->
<g id="edge22" class="edge"><title>Node15&#45;&gt;Node19</title>
<path fill="none" stroke="midnightblue" d="M1002.08,-130.372C974.18,-120.311 927.352,-103.422 891.706,-90.5662"/>
<polygon fill="midnightblue" stroke="midnightblue" points="892.568,-87.1565 881.974,-87.0562 890.194,-93.7414 892.568,-87.1565"/>
</g>
<!-- Node17&#45;&gt;Node14 -->
<g id="edge21" class="edge"><title>Node17&#45;&gt;Node14</title>
<path fill="none" stroke="midnightblue" d="M1100.86,-56.9327C1068.89,-46.5077 1025.83,-32.4667 995.768,-22.6635"/>
<polygon fill="midnightblue" stroke="midnightblue" points="996.698,-19.2854 986.106,-19.5127 994.528,-25.9405 996.698,-19.2854"/>
</g>
<!-- Node18 -->
<g id="node18" class="node"><title>Node18</title>
<polygon fill="white" stroke="#bfbfbf" points="1123.5,-0.5 1123.5,-19.5 1164.5,-19.5 1164.5,-0.5 1123.5,-0.5"/>
<text text-anchor="middle" x="1144" y="-7.5" font-family="Helvetica,sans-Serif" font-size="10.00">string</text>
</g>
<!-- Node17&#45;&gt;Node18 -->
<g id="edge20" class="edge"><title>Node17&#45;&gt;Node18</title>
<path fill="none" stroke="midnightblue" d="M1144,-56.7808C1144,-48.7812 1144,-38.6887 1144,-30.0168"/>
<polygon fill="midnightblue" stroke="midnightblue" points="1147.5,-29.7305 1144,-19.7305 1140.5,-29.7306 1147.5,-29.7305"/>
</g>
<!-- Node20&#45;&gt;Node6 -->
<g id="edge24" class="edge"><title>Node20&#45;&gt;Node6</title>
<path fill="none" stroke="midnightblue" d="M637.418,-130.439C569.269,-117.053 438.978,-91.46 378.002,-79.4826"/>
<polygon fill="midnightblue" stroke="midnightblue" points="378.628,-76.0388 368.141,-77.5456 377.279,-82.9075 378.628,-76.0388"/>
</g>
<!-- Node20&#45;&gt;Node8 -->
<g id="edge25" class="edge"><title>Node20&#45;&gt;Node8</title>
<path fill="none" stroke="midnightblue" d="M687.144,-130.372C694.353,-120.25 706.483,-103.215 715.658,-90.3312"/>
<polygon fill="midnightblue" stroke="midnightblue" points="718.754,-92.0171 721.704,-81.8411 713.052,-87.9565 718.754,-92.0171"/>
</g>
<!-- Node20&#45;&gt;Node14 -->
<g id="edge26" class="edge"><title>Node20&#45;&gt;Node14</title>
<path fill="none" stroke="midnightblue" d="M679.176,-130.322C676.193,-113.489 672.408,-76.2818 692,-56 719.688,-27.3368 827.547,-16.9072 897.705,-13.1284"/>
<polygon fill="midnightblue" stroke="midnightblue" points="897.959,-16.6201 907.768,-12.6177 897.604,-9.6291 897.959,-16.6201"/>
</g>
<!-- Node20&#45;&gt;Node17 -->
<g id="edge27" class="edge"><title>Node20&#45;&gt;Node17</title>
<path fill="none" stroke="midnightblue" d="M738.74,-130.552C754.092,-128.361 770.668,-126.043 786,-124 915.177,-106.784 948.596,-110.262 1077,-88 1077.11,-87.9815 1077.21,-87.963 1077.32,-87.9445"/>
<polygon fill="midnightblue" stroke="midnightblue" points="1078.22,-91.3366 1087.42,-86.0733 1076.95,-84.4538 1078.22,-91.3366"/>
</g>
<!-- Node20&#45;&gt;Node19 -->
<g id="edge28" class="edge"><title>Node20&#45;&gt;Node19</title>
<path fill="none" stroke="midnightblue" d="M702.179,-130.372C726.662,-120.397 767.621,-103.71 799.072,-90.8967"/>
<polygon fill="midnightblue" stroke="midnightblue" points="800.558,-94.0706 808.498,-87.0562 797.917,-87.5879 800.558,-94.0706"/>
</g>
<!-- Node21&#45;&gt;Node19 -->
<g id="edge31" class="edge"><title>Node21&#45;&gt;Node19</title>
<path fill="none" stroke="midnightblue" d="M851.613,-124.679C850.287,-116.722 848.601,-106.605 847.073,-97.4356"/>
<polygon fill="midnightblue" stroke="midnightblue" points="850.479,-96.5816 845.382,-87.2931 843.574,-97.7324 850.479,-96.5816"/>
</g>
<!-- Node22&#45;&gt;Node3 -->
<g id="edge35" class="edge"><title>Node22&#45;&gt;Node3</title>
<path fill="none" stroke="midnightblue" d="M192.603,-192.679C176.986,-181.713 155.525,-166.645 139.806,-155.609"/>
<polygon fill="midnightblue" stroke="midnightblue" points="141.498,-152.52 131.302,-149.638 137.475,-158.249 141.498,-152.52"/>
</g>
<!-- Node22&#45;&gt;Node5 -->
<g id="edge33" class="edge"><title>Node22&#45;&gt;Node5</title>
<path fill="none" stroke="midnightblue" d="M228.84,-192.679C240.56,-182.082 256.518,-167.655 268.595,-156.736"/>
<polygon fill="midnightblue" stroke="midnightblue" points="271.165,-159.131 276.235,-149.828 266.47,-153.939 271.165,-159.131"/>
</g>
<!-- Node22&#45;&gt;Node6 -->
<g id="edge34" class="edge"><title>Node22&#45;&gt;Node6</title>
<path fill="none" stroke="midnightblue" d="M216.693,-192.813C221.96,-174.921 233.14,-144.074 252,-124 268.611,-106.32 292.755,-93.3303 312.279,-84.8859"/>
<polygon fill="midnightblue" stroke="midnightblue" points="313.809,-88.041 321.721,-80.9944 311.142,-81.5691 313.809,-88.041"/>
</g>
<!-- Node22&#45;&gt;Node20 -->
<g id="edge36" class="edge"><title>Node22&#45;&gt;Node20</title>
<path fill="none" stroke="midnightblue" d="M278.566,-197.753C366.979,-185.285 523.637,-163.192 613.188,-150.563"/>
<polygon fill="midnightblue" stroke="midnightblue" points="613.822,-154.009 623.236,-149.146 612.845,-147.077 613.822,-154.009"/>
</g>
</g>
</svg>
