<?xml version="1.0" encoding="UTF-8" standalone="no"?>
<!DOCTYPE svg PUBLIC "-//W3C//DTD SVG 1.1//EN"
 "http://www.w3.org/Graphics/SVG/1.1/DTD/svg11.dtd">
<!-- Generated by graphviz version 2.36.0 (20140111.2315)
 -->
<!-- Title: include/shad/core/iterator.h Pages: 1 -->
<svg width="1158pt" height="344pt"
 viewBox="0.00 0.00 1158.00 344.00" xmlns="http://www.w3.org/2000/svg" xmlns:xlink="http://www.w3.org/1999/xlink">
<g id="graph0" class="graph" transform="scale(1 1) rotate(0) translate(4 340)">
<title>include/shad/core/iterator.h</title>
<polygon fill="white" stroke="none" points="-4,4 -4,-340 1154,-340 1154,4 -4,4"/>
<!-- Node1 -->
<g id="node1" class="node"><title>Node1</title>
<polygon fill="#bfbfbf" stroke="black" points="0,-316.5 0,-335.5 134,-335.5 134,-316.5 0,-316.5"/>
<text text-anchor="middle" x="67" y="-323.5" font-family="Helvetica,sans-Serif" font-size="10.00">include/shad/core/iterator.h</text>
</g>
<!-- Node2 -->
<g id="node2" class="node"><title>Node2</title>
<polygon fill="white" stroke="#bfbfbf" points="43.5,-198.5 43.5,-217.5 90.5,-217.5 90.5,-198.5 43.5,-198.5"/>
<text text-anchor="middle" x="67" y="-205.5" font-family="Helvetica,sans-Serif" font-size="10.00">iterator</text>
</g>
<!-- Node1&#45;&gt;Node2 -->
<g id="edge1" class="edge"><title>Node1&#45;&gt;Node2</title>
<path fill="none" stroke="midnightblue" d="M67,-316.281C67,-297.547 67,-253.098 67,-227.682"/>
<polygon fill="midnightblue" stroke="midnightblue" points="70.5001,-227.505 67,-217.505 63.5001,-227.505 70.5001,-227.505"/>
</g>
<!-- Node3 -->
<g id="node3" class="node"><title>Node3</title>
<polygon fill="white" stroke="#bfbfbf" points="327,-130.5 327,-149.5 379,-149.5 379,-130.5 327,-130.5"/>
<text text-anchor="middle" x="353" y="-137.5" font-family="Helvetica,sans-Serif" font-size="10.00">memory</text>
</g>
<!-- Node1&#45;&gt;Node3 -->
<g id="edge2" class="edge"><title>Node1&#45;&gt;Node3</title>
<path fill="none" stroke="midnightblue" d="M60.3236,-316.366C43.3432,-293.303 2.04439,-229.47 34,-192 70.0186,-149.766 241.05,-142.353 316.776,-141.163"/>
<polygon fill="midnightblue" stroke="midnightblue" points="316.851,-144.662 326.804,-141.033 316.76,-137.663 316.851,-144.662"/>
</g>
<!-- Node4 -->
<g id="node4" class="node"><title>Node4</title>
<g id="a_node4"><a xlink:href="runtime_8h.html" target="_top" xlink:title="shad/runtime/runtime.h">
<polygon fill="white" stroke="black" points="448,-260.5 448,-279.5 564,-279.5 564,-260.5 448,-260.5"/>
<text text-anchor="middle" x="506" y="-267.5" font-family="Helvetica,sans-Serif" font-size="10.00">shad/runtime/runtime.h</text>
</a>
</g>
</g>
<!-- Node1&#45;&gt;Node4 -->
<g id="edge3" class="edge"><title>Node1&#45;&gt;Node4</title>
<path fill="none" stroke="midnightblue" d="M134.153,-316.74C216.467,-306.615 355.185,-289.551 437.92,-279.374"/>
<polygon fill="midnightblue" stroke="midnightblue" points="438.474,-282.833 447.972,-278.138 437.62,-275.885 438.474,-282.833"/>
</g>
<!-- Node4&#45;&gt;Node2 -->
<g id="edge8" class="edge"><title>Node4&#45;&gt;Node2</title>
<path fill="none" stroke="midnightblue" d="M447.772,-268.283C367.947,-266.015 220.685,-257.207 100,-224 97.5046,-223.313 94.9594,-222.46 92.4447,-221.512"/>
<polygon fill="midnightblue" stroke="midnightblue" points="93.6402,-218.217 83.0674,-217.533 90.9056,-224.661 93.6402,-218.217"/>
</g>
<!-- Node4&#45;&gt;Node3 -->
<g id="edge10" class="edge"><title>Node4&#45;&gt;Node3</title>
<path fill="none" stroke="midnightblue" d="M476.233,-260.425C455.165,-253.247 427.183,-241.358 407,-224 385.874,-205.83 369.852,-177.395 360.94,-158.978"/>
<polygon fill="midnightblue" stroke="midnightblue" points="364.01,-157.278 356.631,-149.675 357.658,-160.22 364.01,-157.278"/>
</g>
<!-- Node5 -->
<g id="node5" class="node"><title>Node5</title>
<polygon fill="white" stroke="#bfbfbf" points="435.5,-130.5 435.5,-149.5 484.5,-149.5 484.5,-130.5 435.5,-130.5"/>
<text text-anchor="middle" x="460" y="-137.5" font-family="Helvetica,sans-Serif" font-size="10.00">cstddef</text>
</g>
<!-- Node4&#45;&gt;Node5 -->
<g id="edge4" class="edge"><title>Node4&#45;&gt;Node5</title>
<path fill="none" stroke="midnightblue" d="M499.233,-260.189C492.847,-251.457 483.461,-237.474 478,-224 469.45,-202.905 464.666,-177.069 462.215,-159.882"/>
<polygon fill="midnightblue" stroke="midnightblue" points="465.63,-158.996 460.874,-149.529 458.688,-159.895 465.63,-158.996"/>
</g>
<!-- Node6 -->
<g id="node6" class="node"><title>Node6</title>
<polygon fill="white" stroke="#bfbfbf" points="471,-62.5 471,-81.5 517,-81.5 517,-62.5 471,-62.5"/>
<text text-anchor="middle" x="494" y="-69.5" font-family="Helvetica,sans-Serif" font-size="10.00">cstdint</text>
</g>
<!-- Node4&#45;&gt;Node6 -->
<g id="edge5" class="edge"><title>Node4&#45;&gt;Node6</title>
<path fill="none" stroke="midnightblue" d="M496.308,-260.255C477.757,-242.719 438.004,-201.06 426,-156 422.339,-142.257 419.64,-136.721 426,-124 434.252,-107.495 450.667,-94.9458 465.302,-86.4258"/>
<polygon fill="midnightblue" stroke="midnightblue" points="466.983,-89.4957 474.095,-81.6423 463.638,-83.3467 466.983,-89.4957"/>
</g>
<!-- Node7 -->
<g id="node7" class="node"><title>Node7</title>
<polygon fill="white" stroke="#bfbfbf" points="965.5,-198.5 965.5,-217.5 1024.5,-217.5 1024.5,-198.5 965.5,-198.5"/>
<text text-anchor="middle" x="995" y="-205.5" font-family="Helvetica,sans-Serif" font-size="10.00">functional</text>
</g>
<!-- Node4&#45;&gt;Node7 -->
<g id="edge6" class="edge"><title>Node4&#45;&gt;Node7</title>
<path fill="none" stroke="midnightblue" d="M564.265,-267.329C649.914,-263.926 814.436,-253.774 951,-224 954.967,-223.135 959.075,-222.031 963.114,-220.814"/>
<polygon fill="midnightblue" stroke="midnightblue" points="964.468,-224.055 972.895,-217.633 962.303,-217.398 964.468,-224.055"/>
</g>
<!-- Node8 -->
<g id="node8" class="node"><title>Node8</title>
<polygon fill="white" stroke="#bfbfbf" points="1043,-198.5 1043,-217.5 1097,-217.5 1097,-198.5 1043,-198.5"/>
<text text-anchor="middle" x="1070" y="-205.5" font-family="Helvetica,sans-Serif" font-size="10.00">iostream</text>
</g>
<!-- Node4&#45;&gt;Node8 -->
<g id="edge7" class="edge"><title>Node4&#45;&gt;Node8</title>
<path fill="none" stroke="midnightblue" d="M564.217,-269.675C662.33,-269.565 866.235,-263.957 1033,-224 1036.07,-223.265 1039.22,-222.316 1042.32,-221.254"/>
<polygon fill="midnightblue" stroke="midnightblue" points="1043.82,-224.428 1051.91,-217.594 1041.32,-217.888 1043.82,-224.428"/>
</g>
<!-- Node9 -->
<g id="node9" class="node"><title>Node9</title>
<polygon fill="white" stroke="#bfbfbf" points="1115.5,-198.5 1115.5,-217.5 1150.5,-217.5 1150.5,-198.5 1115.5,-198.5"/>
<text text-anchor="middle" x="1133" y="-205.5" font-family="Helvetica,sans-Serif" font-size="10.00">map</text>
</g>
<!-- Node4&#45;&gt;Node9 -->
<g id="edge9" class="edge"><title>Node4&#45;&gt;Node9</title>
<path fill="none" stroke="midnightblue" d="M564.229,-267.808C694.458,-264.63 1005.68,-254.043 1106,-224 1107.7,-223.492 1109.4,-222.866 1111.09,-222.161"/>
<polygon fill="midnightblue" stroke="midnightblue" points="1112.96,-225.139 1120.32,-217.523 1109.81,-218.884 1112.96,-225.139"/>
</g>
<!-- Node10 -->
<g id="node10" class="node"><title>Node10</title>
<polygon fill="white" stroke="#bfbfbf" points="109,-198.5 109,-217.5 139,-217.5 139,-198.5 109,-198.5"/>
<text text-anchor="middle" x="124" y="-205.5" font-family="Helvetica,sans-Serif" font-size="10.00">set</text>
</g>
<!-- Node4&#45;&gt;Node10 -->
<g id="edge11" class="edge"><title>Node4&#45;&gt;Node10</title>
<path fill="none" stroke="midnightblue" d="M447.818,-269.299C375.487,-267.969 249.215,-260.011 148,-224 146.935,-223.621 145.868,-223.189 144.808,-222.717"/>
<polygon fill="midnightblue" stroke="midnightblue" points="146.137,-219.454 135.685,-217.715 142.771,-225.592 146.137,-219.454"/>
</g>
<!-- Node11 -->
<g id="node11" class="node"><title>Node11</title>
<polygon fill="white" stroke="#bfbfbf" points="157,-198.5 157,-217.5 235,-217.5 235,-198.5 157,-198.5"/>
<text text-anchor="middle" x="196" y="-205.5" font-family="Helvetica,sans-Serif" font-size="10.00">unordered_set</text>
</g>
<!-- Node4&#45;&gt;Node11 -->
<g id="edge12" class="edge"><title>Node4&#45;&gt;Node11</title>
<path fill="none" stroke="midnightblue" d="M447.792,-261.266C394.397,-253.638 313.32,-240.706 244,-224 239.799,-222.987 235.427,-221.806 231.109,-220.558"/>
<polygon fill="midnightblue" stroke="midnightblue" points="231.818,-217.116 221.234,-217.575 229.795,-223.817 231.818,-217.116"/>
</g>
<!-- Node12 -->
<g id="node12" class="node"><title>Node12</title>
<polygon fill="white" stroke="#bfbfbf" points="253,-198.5 253,-217.5 293,-217.5 293,-198.5 253,-198.5"/>
<text text-anchor="middle" x="273" y="-205.5" font-family="Helvetica,sans-Serif" font-size="10.00">utility</text>
</g>
<!-- Node4&#45;&gt;Node12 -->
<g id="edge13" class="edge"><title>Node4&#45;&gt;Node12</title>
<path fill="none" stroke="midnightblue" d="M448.597,-260.451C407.088,-253.286 350.086,-241.402 302,-224 300.351,-223.403 298.677,-222.732 297.008,-222.012"/>
<polygon fill="midnightblue" stroke="midnightblue" points="298.246,-218.724 287.716,-217.552 295.217,-225.035 298.246,-218.724"/>
</g>
<!-- Node13 -->
<g id="node13" class="node"><title>Node13</title>
<polygon fill="white" stroke="#bfbfbf" points="311,-198.5 311,-217.5 355,-217.5 355,-198.5 311,-198.5"/>
<text text-anchor="middle" x="333" y="-205.5" font-family="Helvetica,sans-Serif" font-size="10.00">vector</text>
</g>
<!-- Node4&#45;&gt;Node13 -->
<g id="edge14" class="edge"><title>Node4&#45;&gt;Node13</title>
<path fill="none" stroke="midnightblue" d="M477.967,-260.491C450.122,-251.875 406.309,-237.876 369,-224 366.751,-223.164 364.435,-222.271 362.113,-221.355"/>
<polygon fill="midnightblue" stroke="midnightblue" points="363.279,-218.05 352.697,-217.53 360.644,-224.536 363.279,-218.05"/>
</g>
<!-- Node14 -->
<g id="node14" class="node"><title>Node14</title>
<polygon fill="white" stroke="#bfbfbf" points="785,-0.5 785,-19.5 889,-19.5 889,-0.5 785,-0.5"/>
<text text-anchor="middle" x="837" y="-7.5" font-family="Helvetica,sans-Serif" font-size="10.00">shad/config/config.h</text>
</g>
<!-- Node4&#45;&gt;Node14 -->
<g id="edge15" class="edge"><title>Node4&#45;&gt;Node14</title>
<path fill="none" stroke="midnightblue" d="M564.259,-264.146C678.397,-253.242 924.413,-222.391 971,-156 988.184,-131.511 956.021,-62.5193 950,-56 934.911,-39.6619 913.111,-29.1505 892.677,-22.4368"/>
<polygon fill="midnightblue" stroke="midnightblue" points="893.689,-19.0863 883.103,-19.5248 891.652,-25.7834 893.689,-19.0863"/>
</g>
<!-- Node15 -->
<g id="node15" class="node"><title>Node15</title>
<g id="a_node15"><a xlink:href="handle_8h.html" target="_top" xlink:title="shad/runtime/handle.h">
<polygon fill="white" stroke="black" points="849.5,-130.5 849.5,-149.5 962.5,-149.5 962.5,-130.5 849.5,-130.5"/>
<text text-anchor="middle" x="906" y="-137.5" font-family="Helvetica,sans-Serif" font-size="10.00">shad/runtime/handle.h</text>
</a>
</g>
</g>
<!-- Node4&#45;&gt;Node15 -->
<g id="edge16" class="edge"><title>Node4&#45;&gt;Node15</title>
<path fill="none" stroke="midnightblue" d="M564.145,-261.488C610.407,-254.548 676.381,-242.482 732,-224 788.081,-205.364 849.577,-172.951 882.339,-154.631"/>
<polygon fill="midnightblue" stroke="midnightblue" points="884.182,-157.609 891.168,-149.644 880.74,-151.514 884.182,-157.609"/>
</g>
<!-- Node17 -->
<g id="node17" class="node"><title>Node17</title>
<g id="a_node17"><a xlink:href="mapping__traits_8h.html" target="_top" xlink:title="shad/runtime/mapping\l_traits.h">
<polygon fill="white" stroke="black" points="573.5,-57 573.5,-87 686.5,-87 686.5,-57 573.5,-57"/>
<text text-anchor="start" x="581.5" y="-75" font-family="Helvetica,sans-Serif" font-size="10.00">shad/runtime/mapping</text>
<text text-anchor="middle" x="630" y="-64" font-family="Helvetica,sans-Serif" font-size="10.00">_traits.h</text>
</a>
</g>
</g>
<!-- Node4&#45;&gt;Node17 -->
<g id="edge28" class="edge"><title>Node4&#45;&gt;Node17</title>
<path fill="none" stroke="midnightblue" d="M564.19,-262.492C591.664,-256.596 622.962,-245.37 644,-224 675.86,-191.637 678.452,-167.376 665,-124 661.836,-113.799 655.849,-103.827 649.708,-95.4457"/>
<polygon fill="midnightblue" stroke="midnightblue" points="652.286,-93.061 643.366,-87.3441 646.774,-97.3758 652.286,-93.061"/>
</g>
<!-- Node20 -->
<g id="node20" class="node"><title>Node20</title>
<g id="a_node20"><a xlink:href="locality_8h.html" target="_top" xlink:title="shad/runtime/locality.h">
<polygon fill="white" stroke="black" points="541.5,-130.5 541.5,-149.5 656.5,-149.5 656.5,-130.5 541.5,-130.5"/>
<text text-anchor="middle" x="599" y="-137.5" font-family="Helvetica,sans-Serif" font-size="10.00">shad/runtime/locality.h</text>
</a>
</g>
</g>
<!-- Node4&#45;&gt;Node20 -->
<g id="edge23" class="edge"><title>Node4&#45;&gt;Node20</title>
<path fill="none" stroke="midnightblue" d="M564.186,-261.869C587.723,-255.803 612.674,-244.613 627,-224 641.117,-203.689 625.993,-175.683 613.086,-157.959"/>
<polygon fill="midnightblue" stroke="midnightblue" points="615.596,-155.484 606.705,-149.722 610.062,-159.771 615.596,-155.484"/>
</g>
<!-- Node21 -->
<g id="node21" class="node"><title>Node21</title>
<g id="a_node21"><a xlink:href="available__mappings_8h.html" target="_top" xlink:title="shad/runtime/mappings\l/available_mappings.h">
<polygon fill="white" stroke="black" points="713,-125 713,-155 831,-155 831,-125 713,-125"/>
<text text-anchor="start" x="721" y="-143" font-family="Helvetica,sans-Serif" font-size="10.00">shad/runtime/mappings</text>
<text text-anchor="middle" x="772" y="-132" font-family="Helvetica,sans-Serif" font-size="10.00">/available_mappings.h</text>
</a>
</g>
</g>
<!-- Node4&#45;&gt;Node21 -->
<g id="edge29" class="edge"><title>Node4&#45;&gt;Node21</title>
<path fill="none" stroke="midnightblue" d="M564.376,-264.781C604.59,-259.713 657.962,-248.557 699,-224 724.02,-209.028 745.055,-182.592 758.022,-163.573"/>
<polygon fill="midnightblue" stroke="midnightblue" points="760.979,-165.445 763.56,-155.17 755.134,-161.594 760.979,-165.445"/>
</g>
<!-- Node22 -->
<g id="node22" class="node"><title>Node22</title>
<g id="a_node22"><a xlink:href="synchronous__interface_8h.html" target="_top" xlink:title="shad/runtime/synchronous\l_interface.h">
<polygon fill="white" stroke="black" points="487.5,-193 487.5,-223 618.5,-223 618.5,-193 487.5,-193"/>
<text text-anchor="start" x="495.5" y="-211" font-family="Helvetica,sans-Serif" font-size="10.00">shad/runtime/synchronous</text>
<text text-anchor="middle" x="553" y="-200" font-family="Helvetica,sans-Serif" font-size="10.00">_interface.h</text>
</a>
</g>
</g>
<!-- Node4&#45;&gt;Node22 -->
<g id="edge31" class="edge"><title>Node4&#45;&gt;Node22</title>
<path fill="none" stroke="midnightblue" d="M512.734,-260.403C518.683,-252.809 527.623,-241.396 535.569,-231.252"/>
<polygon fill="midnightblue" stroke="midnightblue" points="538.512,-233.171 541.923,-223.141 533.001,-228.855 538.512,-233.171"/>
</g>
<!-- Node15&#45;&gt;Node14 -->
<g id="edge18" class="edge"><title>Node15&#45;&gt;Node14</title>
<path fill="none" stroke="midnightblue" d="M913.341,-130.389C925.855,-114.606 948.526,-80.4252 933,-56 922.835,-40.0096 905.324,-29.6029 888.017,-22.8748"/>
<polygon fill="midnightblue" stroke="midnightblue" points="889.065,-19.5334 878.471,-19.5034 886.734,-26.1339 889.065,-19.5334"/>
</g>
<!-- Node16 -->
<g id="node16" class="node"><title>Node16</title>
<polygon fill="white" stroke="#bfbfbf" points="863,-62.5 863,-81.5 925,-81.5 925,-62.5 863,-62.5"/>
<text text-anchor="middle" x="894" y="-69.5" font-family="Helvetica,sans-Serif" font-size="10.00">type_traits</text>
</g>
<!-- Node15&#45;&gt;Node16 -->
<g id="edge17" class="edge"><title>Node15&#45;&gt;Node16</title>
<path fill="none" stroke="midnightblue" d="M904.431,-130.372C902.662,-120.643 899.732,-104.528 897.427,-91.8504"/>
<polygon fill="midnightblue" stroke="midnightblue" points="900.84,-91.0537 895.607,-81.8411 893.953,-92.3059 900.84,-91.0537"/>
</g>
<!-- Node15&#45;&gt;Node17 -->
<g id="edge19" class="edge"><title>Node15&#45;&gt;Node17</title>
<path fill="none" stroke="midnightblue" d="M870.201,-130.439C826.33,-119.948 751.108,-101.961 696.511,-88.9048"/>
<polygon fill="midnightblue" stroke="midnightblue" points="697.108,-85.4491 686.569,-86.5273 695.48,-92.2571 697.108,-85.4491"/>
</g>
<!-- Node19 -->
<g id="node19" class="node"><title>Node19</title>
<g id="a_node19"><a xlink:href="available__traits__mappings_8h.html" target="_top" xlink:title="shad/runtime/mappings\l/available_traits_mappings.h">
<polygon fill="white" stroke="black" points="705,-57 705,-87 845,-87 845,-57 705,-57"/>
<text text-anchor="start" x="713" y="-75" font-family="Helvetica,sans-Serif" font-size="10.00">shad/runtime/mappings</text>
<text text-anchor="middle" x="775" y="-64" font-family="Helvetica,sans-Serif" font-size="10.00">/available_traits_mappings.h</text>
</a>
</g>
</g>
<!-- Node15&#45;&gt;Node19 -->
<g id="edge22" class="edge"><title>Node15&#45;&gt;Node19</title>
<path fill="none" stroke="midnightblue" d="M888.874,-130.372C869.479,-120.6 837.298,-104.387 812.085,-91.6841"/>
<polygon fill="midnightblue" stroke="midnightblue" points="813.653,-88.5552 803.148,-87.1815 810.504,-94.8066 813.653,-88.5552"/>
</g>
<!-- Node17&#45;&gt;Node14 -->
<g id="edge21" class="edge"><title>Node17&#45;&gt;Node14</title>
<path fill="none" stroke="midnightblue" d="M678.532,-56.9327C714.811,-46.4171 763.783,-32.2222 797.64,-22.4087"/>
<polygon fill="midnightblue" stroke="midnightblue" points="799.001,-25.6584 807.631,-19.5127 797.052,-18.9351 799.001,-25.6584"/>
</g>
<!-- Node18 -->
<g id="node18" class="node"><title>Node18</title>
<polygon fill="white" stroke="#bfbfbf" points="609.5,-0.5 609.5,-19.5 650.5,-19.5 650.5,-0.5 609.5,-0.5"/>
<text text-anchor="middle" x="630" y="-7.5" font-family="Helvetica,sans-Serif" font-size="10.00">string</text>
</g>
<!-- Node17&#45;&gt;Node18 -->
<g id="edge20" class="edge"><title>Node17&#45;&gt;Node18</title>
<path fill="none" stroke="midnightblue" d="M630,-56.7808C630,-48.7812 630,-38.6887 630,-30.0168"/>
<polygon fill="midnightblue" stroke="midnightblue" points="633.5,-29.7305 630,-19.7305 626.5,-29.7306 633.5,-29.7305"/>
</g>
<!-- Node20&#45;&gt;Node6 -->
<g id="edge24" class="edge"><title>Node20&#45;&gt;Node6</title>
<path fill="none" stroke="midnightblue" d="M585.273,-130.372C567.744,-119.353 537.185,-100.145 516.295,-87.0142"/>
<polygon fill="midnightblue" stroke="midnightblue" points="518.059,-83.989 507.73,-81.6305 514.334,-89.9155 518.059,-83.989"/>
</g>
<!-- Node20&#45;&gt;Node14 -->
<g id="edge25" class="edge"><title>Node20&#45;&gt;Node14</title>
<path fill="none" stroke="midnightblue" d="M589.888,-130.324C573.973,-114.134 544.572,-78.8931 564,-56 590.44,-24.845 702.312,-15.225 774.386,-12.2766"/>
<polygon fill="midnightblue" stroke="midnightblue" points="774.855,-15.7616 784.716,-11.8883 774.592,-8.76654 774.855,-15.7616"/>
</g>
<!-- Node20&#45;&gt;Node17 -->
<g id="edge26" class="edge"><title>Node20&#45;&gt;Node17</title>
<path fill="none" stroke="midnightblue" d="M603.053,-130.372C607.079,-121.8 613.433,-108.272 618.96,-96.5045"/>
<polygon fill="midnightblue" stroke="midnightblue" points="622.256,-97.7208 623.339,-87.1815 615.92,-94.7448 622.256,-97.7208"/>
</g>
<!-- Node20&#45;&gt;Node19 -->
<g id="edge27" class="edge"><title>Node20&#45;&gt;Node19</title>
<path fill="none" stroke="midnightblue" d="M622.009,-130.372C648.723,-120.354 693.49,-103.566 727.717,-90.7312"/>
<polygon fill="midnightblue" stroke="midnightblue" points="729.382,-93.8447 737.517,-87.0562 726.924,-87.2904 729.382,-93.8447"/>
</g>
<!-- Node21&#45;&gt;Node19 -->
<g id="edge30" class="edge"><title>Node21&#45;&gt;Node19</title>
<path fill="none" stroke="midnightblue" d="M772.651,-124.679C773.013,-116.722 773.473,-106.605 773.889,-97.4356"/>
<polygon fill="midnightblue" stroke="midnightblue" points="777.393,-97.4417 774.35,-87.2931 770.4,-97.1238 777.393,-97.4417"/>
</g>
<!-- Node22&#45;&gt;Node3 -->
<g id="edge34" class="edge"><title>Node22&#45;&gt;Node3</title>
<path fill="none" stroke="midnightblue" d="M510.095,-192.841C473.845,-180.879 422.542,-163.949 388.55,-152.731"/>
<polygon fill="midnightblue" stroke="midnightblue" points="389.614,-149.397 379.021,-149.587 387.42,-156.044 389.614,-149.397"/>
</g>
<!-- Node22&#45;&gt;Node5 -->
<g id="edge32" class="edge"><title>Node22&#45;&gt;Node5</title>
<path fill="none" stroke="midnightblue" d="M532.82,-192.679C517.369,-181.713 496.136,-166.645 480.585,-155.609"/>
<polygon fill="midnightblue" stroke="midnightblue" points="482.352,-152.571 472.172,-149.638 478.301,-158.28 482.352,-152.571"/>
</g>
<!-- Node22&#45;&gt;Node6 -->
<g id="edge33" class="edge"><title>Node22&#45;&gt;Node6</title>
<path fill="none" stroke="midnightblue" d="M546.686,-192.66C535.874,-168.103 513.835,-118.049 501.977,-91.1169"/>
<polygon fill="midnightblue" stroke="midnightblue" points="505.076,-89.4693 497.843,-81.7275 498.669,-92.2901 505.076,-89.4693"/>
</g>
<!-- Node22&#45;&gt;Node20 -->
<g id="edge35" class="edge"><title>Node22&#45;&gt;Node20</title>
<path fill="none" stroke="midnightblue" d="M562.981,-192.679C570.012,-182.592 579.462,-169.033 586.918,-158.335"/>
<polygon fill="midnightblue" stroke="midnightblue" points="590,-160.034 592.847,-149.828 584.258,-156.031 590,-160.034"/>
</g>
</g>
</svg>
