<?xml version="1.0" encoding="UTF-8" standalone="no"?>
<!DOCTYPE svg PUBLIC "-//W3C//DTD SVG 1.1//EN"
 "http://www.w3.org/Graphics/SVG/1.1/DTD/svg11.dtd">
<!-- Generated by graphviz version 2.36.0 (20140111.2315)
 -->
<!-- Title: include/shad/data_structures/local_set.h Pages: 1 -->
<svg width="1570pt" height="368pt"
 viewBox="0.00 0.00 1569.68 368.00" xmlns="http://www.w3.org/2000/svg" xmlns:xlink="http://www.w3.org/1999/xlink">
<g id="graph0" class="graph" transform="scale(1 1) rotate(0) translate(4 364)">
<title>include/shad/data_structures/local_set.h</title>
<polygon fill="white" stroke="none" points="-4,4 -4,-364 1565.68,-364 1565.68,4 -4,4"/>
<!-- Node1 -->
<g id="node1" class="node"><title>Node1</title>
<polygon fill="#bfbfbf" stroke="black" points="1002.68,-329 1002.68,-359 1144.68,-359 1144.68,-329 1002.68,-329"/>
<text text-anchor="start" x="1010.68" y="-347" font-family="Helvetica,sans-Serif" font-size="10.00">include/shad/data_structures</text>
<text text-anchor="middle" x="1073.68" y="-336" font-family="Helvetica,sans-Serif" font-size="10.00">/local_set.h</text>
</g>
<!-- Node2 -->
<g id="node2" class="node"><title>Node2</title>
<polygon fill="white" stroke="#bfbfbf" points="14.6815,-198.5 14.6815,-217.5 70.6815,-217.5 70.6815,-198.5 14.6815,-198.5"/>
<text text-anchor="middle" x="42.6815" y="-205.5" font-family="Helvetica,sans-Serif" font-size="10.00">algorithm</text>
</g>
<!-- Node1&#45;&gt;Node2 -->
<g id="edge1" class="edge"><title>Node1&#45;&gt;Node2</title>
<path fill="none" stroke="midnightblue" d="M1002.63,-342.323C824.564,-340.061 362.88,-330.545 214.681,-292 157.393,-277.1 96.3572,-242.615 64.6627,-223.109"/>
<polygon fill="midnightblue" stroke="midnightblue" points="66.1404,-219.905 55.8051,-217.574 62.431,-225.841 66.1404,-219.905"/>
</g>
<!-- Node3 -->
<g id="node3" class="node"><title>Node3</title>
<polygon fill="white" stroke="#bfbfbf" points="1391.68,-266.5 1391.68,-285.5 1437.68,-285.5 1437.68,-266.5 1391.68,-266.5"/>
<text text-anchor="middle" x="1414.68" y="-273.5" font-family="Helvetica,sans-Serif" font-size="10.00">atomic</text>
</g>
<!-- Node1&#45;&gt;Node3 -->
<g id="edge2" class="edge"><title>Node1&#45;&gt;Node3</title>
<path fill="none" stroke="midnightblue" d="M1144.99,-335.513C1207.22,-327.925 1299.54,-314.106 1377.68,-292 1380.5,-291.204 1383.39,-290.263 1386.25,-289.246"/>
<polygon fill="midnightblue" stroke="midnightblue" points="1387.67,-292.45 1395.76,-285.6 1385.17,-285.914 1387.67,-292.45"/>
</g>
<!-- Node4 -->
<g id="node4" class="node"><title>Node4</title>
<polygon fill="white" stroke="#bfbfbf" points="1456.18,-266.5 1456.18,-285.5 1505.18,-285.5 1505.18,-266.5 1456.18,-266.5"/>
<text text-anchor="middle" x="1480.68" y="-273.5" font-family="Helvetica,sans-Serif" font-size="10.00">cassert</text>
</g>
<!-- Node1&#45;&gt;Node4 -->
<g id="edge3" class="edge"><title>Node1&#45;&gt;Node4</title>
<path fill="none" stroke="midnightblue" d="M1145.01,-339.18C1220.98,-333.746 1344.17,-321 1446.68,-292 1449.18,-291.293 1451.73,-290.438 1454.26,-289.498"/>
<polygon fill="midnightblue" stroke="midnightblue" points="1455.82,-292.641 1463.73,-285.591 1453.15,-286.17 1455.82,-292.641"/>
</g>
<!-- Node5 -->
<g id="node5" class="node"><title>Node5</title>
<polygon fill="white" stroke="#bfbfbf" points="144.181,-130.5 144.181,-149.5 203.181,-149.5 203.181,-130.5 144.181,-130.5"/>
<text text-anchor="middle" x="173.681" y="-137.5" font-family="Helvetica,sans-Serif" font-size="10.00">functional</text>
</g>
<!-- Node1&#45;&gt;Node5 -->
<g id="edge4" class="edge"><title>Node1&#45;&gt;Node5</title>
<path fill="none" stroke="midnightblue" d="M1002.42,-343.265C811.617,-343.323 292.53,-339.022 128.681,-292 68.6404,-274.769 37.4148,-277.804 5.68148,-224 -24.7207,-172.453 75.3163,-152.13 134.03,-144.773"/>
<polygon fill="midnightblue" stroke="midnightblue" points="134.6,-148.231 144.122,-143.585 133.781,-141.279 134.6,-148.231"/>
</g>
<!-- Node6 -->
<g id="node6" class="node"><title>Node6</title>
<polygon fill="white" stroke="#bfbfbf" points="1329.68,-130.5 1329.68,-149.5 1381.68,-149.5 1381.68,-130.5 1329.68,-130.5"/>
<text text-anchor="middle" x="1355.68" y="-137.5" font-family="Helvetica,sans-Serif" font-size="10.00">memory</text>
</g>
<!-- Node1&#45;&gt;Node6 -->
<g id="edge5" class="edge"><title>Node1&#45;&gt;Node6</title>
<path fill="none" stroke="midnightblue" d="M1127.57,-328.988C1223.36,-303.531 1414.98,-249.926 1432.68,-224 1440.7,-212.255 1439.41,-204.529 1432.68,-192 1423.36,-174.642 1405.24,-162.197 1388.93,-153.948"/>
<polygon fill="midnightblue" stroke="midnightblue" points="1390.15,-150.654 1379.61,-149.571 1387.17,-156.99 1390.15,-150.654"/>
</g>
<!-- Node7 -->
<g id="node7" class="node"><title>Node7</title>
<polygon fill="white" stroke="#bfbfbf" points="1523.68,-266.5 1523.68,-285.5 1561.68,-285.5 1561.68,-266.5 1523.68,-266.5"/>
<text text-anchor="middle" x="1542.68" y="-273.5" font-family="Helvetica,sans-Serif" font-size="10.00">tuple</text>
</g>
<!-- Node1&#45;&gt;Node7 -->
<g id="edge6" class="edge"><title>Node1&#45;&gt;Node7</title>
<path fill="none" stroke="midnightblue" d="M1145.01,-342.578C1233.39,-340.287 1387.73,-330.461 1513.68,-292 1515.59,-291.416 1517.53,-290.709 1519.44,-289.923"/>
<polygon fill="midnightblue" stroke="midnightblue" points="1521.13,-292.998 1528.66,-285.549 1518.13,-286.674 1521.13,-292.998"/>
</g>
<!-- Node8 -->
<g id="node8" class="node"><title>Node8</title>
<polygon fill="white" stroke="#bfbfbf" points="1383.68,-198.5 1383.68,-217.5 1423.68,-217.5 1423.68,-198.5 1383.68,-198.5"/>
<text text-anchor="middle" x="1403.68" y="-205.5" font-family="Helvetica,sans-Serif" font-size="10.00">utility</text>
</g>
<!-- Node1&#45;&gt;Node8 -->
<g id="edge7" class="edge"><title>Node1&#45;&gt;Node8</title>
<path fill="none" stroke="midnightblue" d="M1109.84,-328.913C1165.76,-307.02 1276.54,-263.257 1369.68,-224 1371.51,-223.229 1373.39,-222.428 1375.28,-221.613"/>
<polygon fill="midnightblue" stroke="midnightblue" points="1376.9,-224.726 1384.67,-217.521 1374.1,-218.309 1376.9,-224.726"/>
</g>
<!-- Node9 -->
<g id="node9" class="node"><title>Node9</title>
<polygon fill="white" stroke="#bfbfbf" points="400.681,-198.5 400.681,-217.5 444.681,-217.5 444.681,-198.5 400.681,-198.5"/>
<text text-anchor="middle" x="422.681" y="-205.5" font-family="Helvetica,sans-Serif" font-size="10.00">vector</text>
</g>
<!-- Node1&#45;&gt;Node9 -->
<g id="edge8" class="edge"><title>Node1&#45;&gt;Node9</title>
<path fill="none" stroke="midnightblue" d="M1002.45,-334.024C886.697,-318.374 651.299,-282.102 458.681,-224 456.038,-223.203 453.323,-222.279 450.627,-221.289"/>
<polygon fill="midnightblue" stroke="midnightblue" points="451.689,-217.945 441.102,-217.522 449.114,-224.454 451.689,-217.945"/>
</g>
<!-- Node10 -->
<g id="node10" class="node"><title>Node10</title>
<g id="a_node10"><a xlink:href="compare__and__hash__utils_8h.html" target="_top" xlink:title="shad/data_structures\l/compare_and_hash_utils.h">
<polygon fill="white" stroke="black" points="223.681,-261 223.681,-291 359.681,-291 359.681,-261 223.681,-261"/>
<text text-anchor="start" x="231.681" y="-279" font-family="Helvetica,sans-Serif" font-size="10.00">shad/data_structures</text>
<text text-anchor="middle" x="291.681" y="-268" font-family="Helvetica,sans-Serif" font-size="10.00">/compare_and_hash_utils.h</text>
</a>
</g>
</g>
<!-- Node1&#45;&gt;Node10 -->
<g id="edge9" class="edge"><title>Node1&#45;&gt;Node10</title>
<path fill="none" stroke="midnightblue" d="M1002.56,-336.997C856.166,-324.642 522.155,-296.452 369.907,-283.602"/>
<polygon fill="midnightblue" stroke="midnightblue" points="369.964,-280.095 359.705,-282.741 369.375,-287.07 369.964,-280.095"/>
</g>
<!-- Node15 -->
<g id="node15" class="node"><title>Node15</title>
<g id="a_node15"><a xlink:href="runtime_8h.html" target="_top" xlink:title="shad/runtime/runtime.h">
<polygon fill="white" stroke="black" points="870.681,-266.5 870.681,-285.5 986.681,-285.5 986.681,-266.5 870.681,-266.5"/>
<text text-anchor="middle" x="928.681" y="-273.5" font-family="Helvetica,sans-Serif" font-size="10.00">shad/runtime/runtime.h</text>
</a>
</g>
</g>
<!-- Node1&#45;&gt;Node15 -->
<g id="edge19" class="edge"><title>Node1&#45;&gt;Node15</title>
<path fill="none" stroke="midnightblue" d="M1042.58,-328.841C1017.16,-317.272 981.531,-301.055 956.923,-289.855"/>
<polygon fill="midnightblue" stroke="midnightblue" points="958.307,-286.639 947.755,-285.682 955.407,-293.01 958.307,-286.639"/>
</g>
<!-- Node10&#45;&gt;Node2 -->
<g id="edge10" class="edge"><title>Node10&#45;&gt;Node2</title>
<path fill="none" stroke="midnightblue" d="M227.351,-260.923C186.257,-251.495 131.997,-238.238 84.6815,-224 81.4933,-223.041 78.1912,-221.98 74.9034,-220.88"/>
<polygon fill="midnightblue" stroke="midnightblue" points="75.8058,-217.489 65.211,-217.521 73.5132,-224.103 75.8058,-217.489"/>
</g>
<!-- Node10&#45;&gt;Node5 -->
<g id="edge13" class="edge"><title>Node10&#45;&gt;Node5</title>
<path fill="none" stroke="midnightblue" d="M223.622,-263.658C180.607,-254.944 130.75,-241.448 117.681,-224 100.218,-200.683 129.619,-172.324 152.009,-155.517"/>
<polygon fill="midnightblue" stroke="midnightblue" points="154.058,-158.355 160.135,-149.676 149.972,-152.671 154.058,-158.355"/>
</g>
<!-- Node10&#45;&gt;Node9 -->
<g id="edge15" class="edge"><title>Node10&#45;&gt;Node9</title>
<path fill="none" stroke="midnightblue" d="M319.784,-260.841C342.443,-249.425 374.082,-233.485 396.276,-222.303"/>
<polygon fill="midnightblue" stroke="midnightblue" points="398.093,-225.307 405.449,-217.682 394.944,-219.056 398.093,-225.307"/>
</g>
<!-- Node11 -->
<g id="node11" class="node"><title>Node11</title>
<polygon fill="white" stroke="#bfbfbf" points="1082.68,-62.5 1082.68,-81.5 1128.68,-81.5 1128.68,-62.5 1082.68,-62.5"/>
<text text-anchor="middle" x="1105.68" y="-69.5" font-family="Helvetica,sans-Serif" font-size="10.00">cstdint</text>
</g>
<!-- Node10&#45;&gt;Node11 -->
<g id="edge11" class="edge"><title>Node10&#45;&gt;Node11</title>
<path fill="none" stroke="midnightblue" d="M303.173,-260.987C320.169,-241.438 354.076,-206.726 391.681,-192 530.52,-137.634 936.031,-236.274 1061.68,-156 1084.31,-141.546 1096.03,-111.363 1101.51,-91.6552"/>
<polygon fill="midnightblue" stroke="midnightblue" points="1104.97,-92.2553 1104,-81.7047 1098.18,-90.5557 1104.97,-92.2553"/>
</g>
<!-- Node12 -->
<g id="node12" class="node"><title>Node12</title>
<polygon fill="white" stroke="#bfbfbf" points="126.681,-198.5 126.681,-217.5 172.681,-217.5 172.681,-198.5 126.681,-198.5"/>
<text text-anchor="middle" x="149.681" y="-205.5" font-family="Helvetica,sans-Serif" font-size="10.00">cstring</text>
</g>
<!-- Node10&#45;&gt;Node12 -->
<g id="edge12" class="edge"><title>Node10&#45;&gt;Node12</title>
<path fill="none" stroke="midnightblue" d="M261.317,-260.964C239.22,-250.739 208.582,-236.541 181.681,-224 180.291,-223.352 178.867,-222.687 177.43,-222.016"/>
<polygon fill="midnightblue" stroke="midnightblue" points="178.492,-218.649 167.951,-217.58 175.525,-224.989 178.492,-218.649"/>
</g>
<!-- Node13 -->
<g id="node13" class="node"><title>Node13</title>
<polygon fill="white" stroke="#bfbfbf" points="303.681,-130.5 303.681,-149.5 365.681,-149.5 365.681,-130.5 303.681,-130.5"/>
<text text-anchor="middle" x="334.681" y="-137.5" font-family="Helvetica,sans-Serif" font-size="10.00">type_traits</text>
</g>
<!-- Node10&#45;&gt;Node13 -->
<g id="edge14" class="edge"><title>Node10&#45;&gt;Node13</title>
<path fill="none" stroke="midnightblue" d="M298.854,-260.999C303.809,-250.911 310.274,-236.864 314.681,-224 322.019,-202.581 327.721,-177.173 331.127,-160.161"/>
<polygon fill="midnightblue" stroke="midnightblue" points="334.653,-160.359 333.109,-149.878 327.779,-159.034 334.653,-160.359"/>
</g>
<!-- Node14 -->
<g id="node14" class="node"><title>Node14</title>
<g id="a_node14"><a xlink:href="type__traits_8h.html" target="_top" xlink:title="shad/core/type_traits.h">
<polygon fill="white" stroke="black" points="190.681,-198.5 190.681,-217.5 306.681,-217.5 306.681,-198.5 190.681,-198.5"/>
<text text-anchor="middle" x="248.681" y="-205.5" font-family="Helvetica,sans-Serif" font-size="10.00">shad/core/type_traits.h</text>
</a>
</g>
</g>
<!-- Node10&#45;&gt;Node14 -->
<g id="edge16" class="edge"><title>Node10&#45;&gt;Node14</title>
<path fill="none" stroke="midnightblue" d="M282.351,-260.679C275.779,-250.592 266.945,-237.033 259.975,-226.335"/>
<polygon fill="midnightblue" stroke="midnightblue" points="262.825,-224.296 254.433,-217.828 256.96,-228.118 262.825,-224.296"/>
</g>
<!-- Node14&#45;&gt;Node5 -->
<g id="edge17" class="edge"><title>Node14&#45;&gt;Node5</title>
<path fill="none" stroke="midnightblue" d="M238.877,-198.372C226.816,-187.758 206.119,-169.545 191.279,-156.485"/>
<polygon fill="midnightblue" stroke="midnightblue" points="193.548,-153.82 183.728,-149.841 188.923,-159.075 193.548,-153.82"/>
</g>
<!-- Node14&#45;&gt;Node13 -->
<g id="edge18" class="edge"><title>Node14&#45;&gt;Node13</title>
<path fill="none" stroke="midnightblue" d="M259.924,-198.372C273.96,-187.6 298.194,-169.002 315.258,-155.906"/>
<polygon fill="midnightblue" stroke="midnightblue" points="317.633,-158.495 323.436,-149.63 313.372,-152.942 317.633,-158.495"/>
</g>
<!-- Node15&#45;&gt;Node5 -->
<g id="edge22" class="edge"><title>Node15&#45;&gt;Node5</title>
<path fill="none" stroke="midnightblue" d="M870.649,-272.278C767.935,-266.796 558.646,-252.443 491.681,-224 471.045,-215.235 473.025,-201.427 452.681,-192 410.698,-172.544 279.981,-154.167 213.448,-145.771"/>
<polygon fill="midnightblue" stroke="midnightblue" points="213.701,-142.276 203.345,-144.511 212.835,-149.222 213.701,-142.276"/>
</g>
<!-- Node15&#45;&gt;Node6 -->
<g id="edge26" class="edge"><title>Node15&#45;&gt;Node6</title>
<path fill="none" stroke="midnightblue" d="M987.082,-271.331C1093.44,-264.124 1310.17,-246.812 1335.68,-224 1353.61,-207.972 1356.85,-178.922 1356.81,-159.793"/>
<polygon fill="midnightblue" stroke="midnightblue" points="1360.3,-159.493 1356.49,-149.611 1353.31,-159.718 1360.3,-159.493"/>
</g>
<!-- Node15&#45;&gt;Node8 -->
<g id="edge29" class="edge"><title>Node15&#45;&gt;Node8</title>
<path fill="none" stroke="midnightblue" d="M986.809,-273.802C1072.17,-270.812 1235.8,-260.377 1369.68,-224 1372.33,-223.279 1375.04,-222.383 1377.72,-221.39"/>
<polygon fill="midnightblue" stroke="midnightblue" points="1379.2,-224.567 1387.1,-217.508 1376.52,-218.099 1379.2,-224.567"/>
</g>
<!-- Node15&#45;&gt;Node9 -->
<g id="edge30" class="edge"><title>Node15&#45;&gt;Node9</title>
<path fill="none" stroke="midnightblue" d="M870.577,-274.018C780.849,-271.318 603.76,-261.267 458.681,-224 455.696,-223.233 452.633,-222.264 449.616,-221.19"/>
<polygon fill="midnightblue" stroke="midnightblue" points="450.866,-217.921 440.279,-217.516 448.303,-224.435 450.866,-217.921"/>
</g>
<!-- Node15&#45;&gt;Node11 -->
<g id="edge21" class="edge"><title>Node15&#45;&gt;Node11</title>
<path fill="none" stroke="midnightblue" d="M986.927,-266.427C1034.28,-258.125 1095.61,-243.872 1110.68,-224 1140.45,-184.739 1123.84,-121.79 1112.89,-91.058"/>
<polygon fill="midnightblue" stroke="midnightblue" points="1116.13,-89.7475 1109.33,-81.6228 1109.58,-92.2147 1116.13,-89.7475"/>
</g>
<!-- Node16 -->
<g id="node16" class="node"><title>Node16</title>
<polygon fill="white" stroke="#bfbfbf" points="1165.18,-130.5 1165.18,-149.5 1214.18,-149.5 1214.18,-130.5 1165.18,-130.5"/>
<text text-anchor="middle" x="1189.68" y="-137.5" font-family="Helvetica,sans-Serif" font-size="10.00">cstddef</text>
</g>
<!-- Node15&#45;&gt;Node16 -->
<g id="edge20" class="edge"><title>Node15&#45;&gt;Node16</title>
<path fill="none" stroke="midnightblue" d="M987.036,-273.745C1033.65,-269.992 1098.44,-258.306 1143.68,-224 1165.18,-207.697 1178,-178.285 1184.44,-159.209"/>
<polygon fill="midnightblue" stroke="midnightblue" points="1187.81,-160.174 1187.45,-149.585 1181.13,-158.086 1187.81,-160.174"/>
</g>
<!-- Node17 -->
<g id="node17" class="node"><title>Node17</title>
<polygon fill="white" stroke="#bfbfbf" points="632.681,-198.5 632.681,-217.5 686.681,-217.5 686.681,-198.5 632.681,-198.5"/>
<text text-anchor="middle" x="659.681" y="-205.5" font-family="Helvetica,sans-Serif" font-size="10.00">iostream</text>
</g>
<!-- Node15&#45;&gt;Node17 -->
<g id="edge23" class="edge"><title>Node15&#45;&gt;Node17</title>
<path fill="none" stroke="midnightblue" d="M877.083,-266.453C829.403,-257.911 756.901,-243.283 695.681,-224 693.106,-223.189 690.46,-222.267 687.827,-221.287"/>
<polygon fill="midnightblue" stroke="midnightblue" points="689.088,-218.022 678.502,-217.588 686.507,-224.529 689.088,-218.022"/>
</g>
<!-- Node18 -->
<g id="node18" class="node"><title>Node18</title>
<polygon fill="white" stroke="#bfbfbf" points="705.181,-198.5 705.181,-217.5 752.181,-217.5 752.181,-198.5 705.181,-198.5"/>
<text text-anchor="middle" x="728.681" y="-205.5" font-family="Helvetica,sans-Serif" font-size="10.00">iterator</text>
</g>
<!-- Node15&#45;&gt;Node18 -->
<g id="edge24" class="edge"><title>Node15&#45;&gt;Node18</title>
<path fill="none" stroke="midnightblue" d="M895.692,-266.494C861.472,-257.322 806.638,-241.642 760.681,-224 758.834,-223.291 756.944,-222.522 755.052,-221.721"/>
<polygon fill="midnightblue" stroke="midnightblue" points="756.314,-218.451 745.757,-217.557 753.453,-224.839 756.314,-218.451"/>
</g>
<!-- Node19 -->
<g id="node19" class="node"><title>Node19</title>
<polygon fill="white" stroke="#bfbfbf" points="770.181,-198.5 770.181,-217.5 805.181,-217.5 805.181,-198.5 770.181,-198.5"/>
<text text-anchor="middle" x="787.681" y="-205.5" font-family="Helvetica,sans-Serif" font-size="10.00">map</text>
</g>
<!-- Node15&#45;&gt;Node19 -->
<g id="edge25" class="edge"><title>Node15&#45;&gt;Node19</title>
<path fill="none" stroke="midnightblue" d="M910.165,-266.341C888.477,-256.198 851.468,-238.886 819.681,-224 818.077,-223.249 816.427,-222.476 814.763,-221.696"/>
<polygon fill="midnightblue" stroke="midnightblue" points="815.826,-218.329 805.286,-217.255 812.855,-224.667 815.826,-218.329"/>
</g>
<!-- Node20 -->
<g id="node20" class="node"><title>Node20</title>
<polygon fill="white" stroke="#bfbfbf" points="975.681,-198.5 975.681,-217.5 1005.68,-217.5 1005.68,-198.5 975.681,-198.5"/>
<text text-anchor="middle" x="990.681" y="-205.5" font-family="Helvetica,sans-Serif" font-size="10.00">set</text>
</g>
<!-- Node15&#45;&gt;Node20 -->
<g id="edge27" class="edge"><title>Node15&#45;&gt;Node20</title>
<path fill="none" stroke="midnightblue" d="M936.787,-266.372C946.573,-255.955 963.235,-238.217 975.448,-225.216"/>
<polygon fill="midnightblue" stroke="midnightblue" points="978.08,-227.526 982.376,-217.841 972.978,-222.733 978.08,-227.526"/>
</g>
<!-- Node21 -->
<g id="node21" class="node"><title>Node21</title>
<polygon fill="white" stroke="#bfbfbf" points="1023.68,-198.5 1023.68,-217.5 1101.68,-217.5 1101.68,-198.5 1023.68,-198.5"/>
<text text-anchor="middle" x="1062.68" y="-205.5" font-family="Helvetica,sans-Serif" font-size="10.00">unordered_set</text>
</g>
<!-- Node15&#45;&gt;Node21 -->
<g id="edge28" class="edge"><title>Node15&#45;&gt;Node21</title>
<path fill="none" stroke="midnightblue" d="M946.2,-266.372C969.072,-255.106 1009.33,-235.279 1036,-222.14"/>
<polygon fill="midnightblue" stroke="midnightblue" points="1037.73,-225.189 1045.16,-217.63 1034.64,-218.909 1037.73,-225.189"/>
</g>
<!-- Node22 -->
<g id="node22" class="node"><title>Node22</title>
<polygon fill="white" stroke="#bfbfbf" points="781.681,-0.5 781.681,-19.5 885.681,-19.5 885.681,-0.5 781.681,-0.5"/>
<text text-anchor="middle" x="833.681" y="-7.5" font-family="Helvetica,sans-Serif" font-size="10.00">shad/config/config.h</text>
</g>
<!-- Node15&#45;&gt;Node22 -->
<g id="edge31" class="edge"><title>Node15&#45;&gt;Node22</title>
<path fill="none" stroke="midnightblue" d="M929.288,-266.31C931.041,-235.277 933.53,-127.945 890.681,-56 883.096,-43.2643 870.456,-32.7352 859.004,-25.0721"/>
<polygon fill="midnightblue" stroke="midnightblue" points="860.526,-21.8956 850.193,-19.5535 856.81,-27.828 860.526,-21.8956"/>
</g>
<!-- Node23 -->
<g id="node23" class="node"><title>Node23</title>
<g id="a_node23"><a xlink:href="handle_8h.html" target="_top" xlink:title="shad/runtime/handle.h">
<polygon fill="white" stroke="black" points="501.181,-198.5 501.181,-217.5 614.181,-217.5 614.181,-198.5 501.181,-198.5"/>
<text text-anchor="middle" x="557.681" y="-205.5" font-family="Helvetica,sans-Serif" font-size="10.00">shad/runtime/handle.h</text>
</a>
</g>
</g>
<!-- Node15&#45;&gt;Node23 -->
<g id="edge32" class="edge"><title>Node15&#45;&gt;Node23</title>
<path fill="none" stroke="midnightblue" d="M871.729,-266.484C810.327,-257.068 709.803,-240.972 623.681,-224 617.097,-222.702 610.166,-221.237 603.371,-219.744"/>
<polygon fill="midnightblue" stroke="midnightblue" points="604.091,-216.319 593.568,-217.552 602.563,-223.15 604.091,-216.319"/>
</g>
<!-- Node24 -->
<g id="node24" class="node"><title>Node24</title>
<g id="a_node24"><a xlink:href="mapping__traits_8h.html" target="_top" xlink:title="shad/runtime/mapping\l_traits.h">
<polygon fill="white" stroke="black" points="610.181,-57 610.181,-87 723.181,-87 723.181,-57 610.181,-57"/>
<text text-anchor="start" x="618.181" y="-75" font-family="Helvetica,sans-Serif" font-size="10.00">shad/runtime/mapping</text>
<text text-anchor="middle" x="666.681" y="-64" font-family="Helvetica,sans-Serif" font-size="10.00">_traits.h</text>
</a>
</g>
</g>
<!-- Node15&#45;&gt;Node24 -->
<g id="edge44" class="edge"><title>Node15&#45;&gt;Node24</title>
<path fill="none" stroke="midnightblue" d="M916.774,-266.227C891.675,-247.764 833.984,-205.491 813.681,-192 788.097,-174.999 779.098,-174.639 754.681,-156 729.927,-137.103 704.324,-112.249 687.161,-94.6797"/>
<polygon fill="midnightblue" stroke="midnightblue" points="689.368,-91.9271 679.903,-87.1675 684.334,-96.7911 689.368,-91.9271"/>
</g>
<!-- Node27 -->
<g id="node27" class="node"><title>Node27</title>
<g id="a_node27"><a xlink:href="locality_8h.html" target="_top" xlink:title="shad/runtime/locality.h">
<polygon fill="white" stroke="black" points="938.181,-130.5 938.181,-149.5 1053.18,-149.5 1053.18,-130.5 938.181,-130.5"/>
<text text-anchor="middle" x="995.681" y="-137.5" font-family="Helvetica,sans-Serif" font-size="10.00">shad/runtime/locality.h</text>
</a>
</g>
</g>
<!-- Node15&#45;&gt;Node27 -->
<g id="edge39" class="edge"><title>Node15&#45;&gt;Node27</title>
<path fill="none" stroke="midnightblue" d="M932.426,-266.156C938.974,-250.852 953.103,-218.521 966.681,-192 972.53,-180.576 979.647,-168.043 985.366,-158.26"/>
<polygon fill="midnightblue" stroke="midnightblue" points="988.447,-159.926 990.522,-149.537 982.421,-156.365 988.447,-159.926"/>
</g>
<!-- Node28 -->
<g id="node28" class="node"><title>Node28</title>
<g id="a_node28"><a xlink:href="available__mappings_8h.html" target="_top" xlink:title="shad/runtime/mappings\l/available_mappings.h">
<polygon fill="white" stroke="black" points="763.681,-125 763.681,-155 881.681,-155 881.681,-125 763.681,-125"/>
<text text-anchor="start" x="771.681" y="-143" font-family="Helvetica,sans-Serif" font-size="10.00">shad/runtime/mappings</text>
<text text-anchor="middle" x="822.681" y="-132" font-family="Helvetica,sans-Serif" font-size="10.00">/available_mappings.h</text>
</a>
</g>
</g>
<!-- Node15&#45;&gt;Node28 -->
<g id="edge45" class="edge"><title>Node15&#45;&gt;Node28</title>
<path fill="none" stroke="midnightblue" d="M921.727,-266.208C905.377,-245.54 864.092,-193.349 840.305,-163.278"/>
<polygon fill="midnightblue" stroke="midnightblue" points="842.762,-160.743 833.813,-155.071 837.272,-165.086 842.762,-160.743"/>
</g>
<!-- Node29 -->
<g id="node29" class="node"><title>Node29</title>
<g id="a_node29"><a xlink:href="synchronous__interface_8h.html" target="_top" xlink:title="shad/runtime/synchronous\l_interface.h">
<polygon fill="white" stroke="black" points="1196.18,-193 1196.18,-223 1327.18,-223 1327.18,-193 1196.18,-193"/>
<text text-anchor="start" x="1204.18" y="-211" font-family="Helvetica,sans-Serif" font-size="10.00">shad/runtime/synchronous</text>
<text text-anchor="middle" x="1261.68" y="-200" font-family="Helvetica,sans-Serif" font-size="10.00">_interface.h</text>
</a>
</g>
</g>
<!-- Node15&#45;&gt;Node29 -->
<g id="edge47" class="edge"><title>Node15&#45;&gt;Node29</title>
<path fill="none" stroke="midnightblue" d="M971.874,-266.439C1026.02,-255.707 1119.76,-237.128 1185.94,-224.011"/>
<polygon fill="midnightblue" stroke="midnightblue" points="1186.78,-227.413 1195.91,-222.036 1185.42,-220.547 1186.78,-227.413"/>
</g>
<!-- Node23&#45;&gt;Node13 -->
<g id="edge33" class="edge"><title>Node23&#45;&gt;Node13</title>
<path fill="none" stroke="midnightblue" d="M528.528,-198.372C488.769,-186.604 417.448,-165.496 373.286,-152.426"/>
<polygon fill="midnightblue" stroke="midnightblue" points="374.071,-149.008 363.489,-149.526 372.084,-155.72 374.071,-149.008"/>
</g>
<!-- Node23&#45;&gt;Node22 -->
<g id="edge34" class="edge"><title>Node23&#45;&gt;Node22</title>
<path fill="none" stroke="midnightblue" d="M557.271,-198.246C556.567,-172.245 558.29,-94.8687 600.681,-56 625.117,-33.5947 710.916,-21.5754 771.267,-15.7384"/>
<polygon fill="midnightblue" stroke="midnightblue" points="771.837,-19.2005 781.469,-14.7866 771.187,-12.2308 771.837,-19.2005"/>
</g>
<!-- Node23&#45;&gt;Node24 -->
<g id="edge35" class="edge"><title>Node23&#45;&gt;Node24</title>
<path fill="none" stroke="midnightblue" d="M564.833,-198.208C581.717,-177.451 624.464,-124.901 648.874,-94.8924"/>
<polygon fill="midnightblue" stroke="midnightblue" points="651.64,-97.0375 655.235,-87.0713 646.21,-92.6203 651.64,-97.0375"/>
</g>
<!-- Node26 -->
<g id="node26" class="node"><title>Node26</title>
<g id="a_node26"><a xlink:href="available__traits__mappings_8h.html" target="_top" xlink:title="shad/runtime/mappings\l/available_traits_mappings.h">
<polygon fill="white" stroke="black" points="741.681,-57 741.681,-87 881.681,-87 881.681,-57 741.681,-57"/>
<text text-anchor="start" x="749.681" y="-75" font-family="Helvetica,sans-Serif" font-size="10.00">shad/runtime/mappings</text>
<text text-anchor="middle" x="811.681" y="-64" font-family="Helvetica,sans-Serif" font-size="10.00">/available_traits_mappings.h</text>
</a>
</g>
</g>
<!-- Node23&#45;&gt;Node26 -->
<g id="edge38" class="edge"><title>Node23&#45;&gt;Node26</title>
<path fill="none" stroke="midnightblue" d="M573.957,-198.414C614.324,-177.118 719.815,-121.465 775.714,-91.9751"/>
<polygon fill="midnightblue" stroke="midnightblue" points="777.683,-94.8932 784.895,-87.1315 774.417,-88.702 777.683,-94.8932"/>
</g>
<!-- Node24&#45;&gt;Node22 -->
<g id="edge37" class="edge"><title>Node24&#45;&gt;Node22</title>
<path fill="none" stroke="midnightblue" d="M705.836,-56.9327C734.514,-46.6292 773.023,-32.7935 800.259,-23.0079"/>
<polygon fill="midnightblue" stroke="midnightblue" points="801.517,-26.2752 809.745,-19.6 799.15,-19.6874 801.517,-26.2752"/>
</g>
<!-- Node25 -->
<g id="node25" class="node"><title>Node25</title>
<polygon fill="white" stroke="#bfbfbf" points="646.181,-0.5 646.181,-19.5 687.181,-19.5 687.181,-0.5 646.181,-0.5"/>
<text text-anchor="middle" x="666.681" y="-7.5" font-family="Helvetica,sans-Serif" font-size="10.00">string</text>
</g>
<!-- Node24&#45;&gt;Node25 -->
<g id="edge36" class="edge"><title>Node24&#45;&gt;Node25</title>
<path fill="none" stroke="midnightblue" d="M666.681,-56.7808C666.681,-48.7812 666.681,-38.6887 666.681,-30.0168"/>
<polygon fill="midnightblue" stroke="midnightblue" points="670.182,-29.7305 666.681,-19.7305 663.182,-29.7306 670.182,-29.7305"/>
</g>
<!-- Node27&#45;&gt;Node11 -->
<g id="edge40" class="edge"><title>Node27&#45;&gt;Node11</title>
<path fill="none" stroke="midnightblue" d="M1010.06,-130.372C1028.51,-119.304 1060.73,-99.9724 1082.62,-86.838"/>
<polygon fill="midnightblue" stroke="midnightblue" points="1084.52,-89.7767 1091.3,-81.6305 1080.92,-83.7742 1084.52,-89.7767"/>
</g>
<!-- Node27&#45;&gt;Node22 -->
<g id="edge41" class="edge"><title>Node27&#45;&gt;Node22</title>
<path fill="none" stroke="midnightblue" d="M989.857,-130.241C978.649,-113.915 952.617,-78.4543 923.681,-56 906.331,-42.5355 884.316,-31.443 866.403,-23.6399"/>
<polygon fill="midnightblue" stroke="midnightblue" points="867.504,-20.3057 856.929,-19.6491 864.786,-26.7567 867.504,-20.3057"/>
</g>
<!-- Node27&#45;&gt;Node24 -->
<g id="edge42" class="edge"><title>Node27&#45;&gt;Node24</title>
<path fill="none" stroke="midnightblue" d="M949.033,-130.42C898.444,-121.011 815.065,-105.202 733.477,-88.1308"/>
<polygon fill="midnightblue" stroke="midnightblue" points="734.044,-84.6737 723.538,-86.0431 732.605,-91.5242 734.044,-84.6737"/>
</g>
<!-- Node27&#45;&gt;Node26 -->
<g id="edge43" class="edge"><title>Node27&#45;&gt;Node26</title>
<path fill="none" stroke="midnightblue" d="M971.627,-130.372C943.579,-120.311 896.494,-103.422 860.654,-90.5662"/>
<polygon fill="midnightblue" stroke="midnightblue" points="861.463,-87.1381 850.869,-87.0562 859.1,-93.7271 861.463,-87.1381"/>
</g>
<!-- Node28&#45;&gt;Node26 -->
<g id="edge46" class="edge"><title>Node28&#45;&gt;Node26</title>
<path fill="none" stroke="midnightblue" d="M820.295,-124.679C818.969,-116.722 817.282,-106.605 815.754,-97.4356"/>
<polygon fill="midnightblue" stroke="midnightblue" points="819.16,-96.5816 814.064,-87.2931 812.255,-97.7324 819.16,-96.5816"/>
</g>
<!-- Node29&#45;&gt;Node6 -->
<g id="edge50" class="edge"><title>Node29&#45;&gt;Node6</title>
<path fill="none" stroke="midnightblue" d="M1282.08,-192.679C1297.7,-181.713 1319.16,-166.645 1334.88,-155.609"/>
<polygon fill="midnightblue" stroke="midnightblue" points="1337.21,-158.249 1343.38,-149.638 1333.18,-152.52 1337.21,-158.249"/>
</g>
<!-- Node29&#45;&gt;Node11 -->
<g id="edge49" class="edge"><title>Node29&#45;&gt;Node11</title>
<path fill="none" stroke="midnightblue" d="M1258.35,-192.852C1253.42,-174.715 1242.54,-143.311 1222.68,-124 1199.4,-101.365 1164.43,-87.9318 1138.79,-80.5832"/>
<polygon fill="midnightblue" stroke="midnightblue" points="1139.68,-77.1999 1129.12,-77.9711 1137.86,-83.9577 1139.68,-77.1999"/>
</g>
<!-- Node29&#45;&gt;Node16 -->
<g id="edge48" class="edge"><title>Node29&#45;&gt;Node16</title>
<path fill="none" stroke="midnightblue" d="M1246.06,-192.679C1234.5,-182.082 1218.76,-167.655 1206.85,-156.736"/>
<polygon fill="midnightblue" stroke="midnightblue" points="1209.05,-154.006 1199.31,-149.828 1204.32,-159.166 1209.05,-154.006"/>
</g>
<!-- Node29&#45;&gt;Node27 -->
<g id="edge51" class="edge"><title>Node29&#45;&gt;Node27</title>
<path fill="none" stroke="midnightblue" d="M1204.94,-192.922C1155.58,-180.674 1085.04,-163.173 1039.8,-151.948"/>
<polygon fill="midnightblue" stroke="midnightblue" points="1040.54,-148.525 1029.99,-149.514 1038.86,-155.319 1040.54,-148.525"/>
</g>
</g>
</svg>
