<?xml version="1.0" encoding="UTF-8" standalone="no"?>
<!DOCTYPE svg PUBLIC "-//W3C//DTD SVG 1.1//EN"
 "http://www.w3.org/Graphics/SVG/1.1/DTD/svg11.dtd">
<!-- Generated by graphviz version 2.36.0 (20140111.2315)
 -->
<!-- Title: include/shad/runtime/locality.h Pages: 1 -->
<svg width="454pt" height="164pt"
 viewBox="0.00 0.00 454.00 164.00" xmlns="http://www.w3.org/2000/svg" xmlns:xlink="http://www.w3.org/1999/xlink">
<g id="graph0" class="graph" transform="scale(1 1) rotate(0) translate(4 160)">
<title>include/shad/runtime/locality.h</title>
<polygon fill="white" stroke="none" points="-4,4 -4,-160 450,-160 450,4 -4,4"/>
<!-- Node1 -->
<g id="node1" class="node"><title>Node1</title>
<polygon fill="#bfbfbf" stroke="black" points="92.5,-125 92.5,-155 199.5,-155 199.5,-125 92.5,-125"/>
<text text-anchor="start" x="100.5" y="-143" font-family="Helvetica,sans-Serif" font-size="10.00">include/shad/runtime</text>
<text text-anchor="middle" x="146" y="-132" font-family="Helvetica,sans-Serif" font-size="10.00">/locality.h</text>
</g>
<!-- Node2 -->
<g id="node2" class="node"><title>Node2</title>
<polygon fill="white" stroke="#bfbfbf" points="0,-62.5 0,-81.5 46,-81.5 46,-62.5 0,-62.5"/>
<text text-anchor="middle" x="23" y="-69.5" font-family="Helvetica,sans-Serif" font-size="10.00">cstdint</text>
</g>
<!-- Node1&#45;&gt;Node2 -->
<g id="edge1" class="edge"><title>Node1&#45;&gt;Node2</title>
<path fill="none" stroke="midnightblue" d="M119.613,-124.841C98.4335,-113.476 68.8977,-97.628 48.0735,-86.454"/>
<polygon fill="midnightblue" stroke="midnightblue" points="49.6464,-83.326 39.1799,-81.6819 46.3366,-89.4942 49.6464,-83.326"/>
</g>
<!-- Node3 -->
<g id="node3" class="node"><title>Node3</title>
<polygon fill="white" stroke="#bfbfbf" points="64,-62.5 64,-81.5 118,-81.5 118,-62.5 64,-62.5"/>
<text text-anchor="middle" x="91" y="-69.5" font-family="Helvetica,sans-Serif" font-size="10.00">iostream</text>
</g>
<!-- Node1&#45;&gt;Node3 -->
<g id="edge2" class="edge"><title>Node1&#45;&gt;Node3</title>
<path fill="none" stroke="midnightblue" d="M134.066,-124.679C125.49,-114.388 113.903,-100.484 104.908,-89.6897"/>
<polygon fill="midnightblue" stroke="midnightblue" points="107.448,-87.2699 98.3569,-81.8283 102.07,-91.7512 107.448,-87.2699"/>
</g>
<!-- Node4 -->
<g id="node4" class="node"><title>Node4</title>
<polygon fill="white" stroke="#bfbfbf" points="94,-0.5 94,-19.5 198,-19.5 198,-0.5 94,-0.5"/>
<text text-anchor="middle" x="146" y="-7.5" font-family="Helvetica,sans-Serif" font-size="10.00">shad/config/config.h</text>
</g>
<!-- Node1&#45;&gt;Node4 -->
<g id="edge3" class="edge"><title>Node1&#45;&gt;Node4</title>
<path fill="none" stroke="midnightblue" d="M146,-124.813C146,-101.67 146,-55.7853 146,-29.904"/>
<polygon fill="midnightblue" stroke="midnightblue" points="149.5,-29.5738 146,-19.5738 142.5,-29.5738 149.5,-29.5738"/>
</g>
<!-- Node5 -->
<g id="node5" class="node"><title>Node5</title>
<g id="a_node5"><a xlink:href="mapping__traits_8h.html" target="_top" xlink:title="shad/runtime/mapping\l_traits.h">
<polygon fill="white" stroke="black" points="174.5,-57 174.5,-87 287.5,-87 287.5,-57 174.5,-57"/>
<text text-anchor="start" x="182.5" y="-75" font-family="Helvetica,sans-Serif" font-size="10.00">shad/runtime/mapping</text>
<text text-anchor="middle" x="231" y="-64" font-family="Helvetica,sans-Serif" font-size="10.00">_traits.h</text>
</a>
</g>
</g>
<!-- Node1&#45;&gt;Node5 -->
<g id="edge4" class="edge"><title>Node1&#45;&gt;Node5</title>
<path fill="none" stroke="midnightblue" d="M164.444,-124.679C176.219,-115.536 191.669,-103.54 204.718,-93.407"/>
<polygon fill="midnightblue" stroke="midnightblue" points="207.132,-95.9638 212.884,-87.0663 202.839,-90.4348 207.132,-95.9638"/>
</g>
<!-- Node7 -->
<g id="node7" class="node"><title>Node7</title>
<g id="a_node7"><a xlink:href="available__traits__mappings_8h.html" target="_top" xlink:title="shad/runtime/mappings\l/available_traits_mappings.h">
<polygon fill="white" stroke="black" points="306,-57 306,-87 446,-87 446,-57 306,-57"/>
<text text-anchor="start" x="314" y="-75" font-family="Helvetica,sans-Serif" font-size="10.00">shad/runtime/mappings</text>
<text text-anchor="middle" x="376" y="-64" font-family="Helvetica,sans-Serif" font-size="10.00">/available_traits_mappings.h</text>
</a>
</g>
</g>
<!-- Node1&#45;&gt;Node7 -->
<g id="edge7" class="edge"><title>Node1&#45;&gt;Node7</title>
<path fill="none" stroke="midnightblue" d="M195.059,-124.922C230.786,-114.67 279.337,-100.738 317.153,-89.8866"/>
<polygon fill="midnightblue" stroke="midnightblue" points="318.37,-93.1786 327.017,-87.0561 316.439,-86.4502 318.37,-93.1786"/>
</g>
<!-- Node5&#45;&gt;Node4 -->
<g id="edge6" class="edge"><title>Node5&#45;&gt;Node4</title>
<path fill="none" stroke="midnightblue" d="M210.856,-56.7808C197.405,-47.2862 179.778,-34.8434 166.296,-25.3267"/>
<polygon fill="midnightblue" stroke="midnightblue" points="168.309,-22.4632 158.121,-19.5557 164.272,-28.182 168.309,-22.4632"/>
</g>
<!-- Node6 -->
<g id="node6" class="node"><title>Node6</title>
<polygon fill="white" stroke="#bfbfbf" points="216.5,-0.5 216.5,-19.5 257.5,-19.5 257.5,-0.5 216.5,-0.5"/>
<text text-anchor="middle" x="237" y="-7.5" font-family="Helvetica,sans-Serif" font-size="10.00">string</text>
</g>
<!-- Node5&#45;&gt;Node6 -->
<g id="edge5" class="edge"><title>Node5&#45;&gt;Node6</title>
<path fill="none" stroke="midnightblue" d="M232.422,-56.7808C233.231,-48.6913 234.254,-38.4617 235.127,-29.725"/>
<polygon fill="midnightblue" stroke="midnightblue" points="238.614,-30.0292 236.127,-19.7305 231.649,-29.3326 238.614,-30.0292"/>
</g>
</g>
</svg>
