<?xml version="1.0" encoding="UTF-8" standalone="no"?>
<!DOCTYPE svg PUBLIC "-//W3C//DTD SVG 1.1//EN"
 "http://www.w3.org/Graphics/SVG/1.1/DTD/svg11.dtd">
<!-- Generated by graphviz version 2.36.0 (20140111.2315)
 -->
<!-- Title: include/shad/extensions/graph_library/local_edge_index.h Pages: 1 -->
<svg width="1570pt" height="446pt"
 viewBox="0.00 0.00 1570.10 446.00" xmlns="http://www.w3.org/2000/svg" xmlns:xlink="http://www.w3.org/1999/xlink">
<g id="graph0" class="graph" transform="scale(1 1) rotate(0) translate(4 442)">
<title>include/shad/extensions/graph_library/local_edge_index.h</title>
<polygon fill="white" stroke="none" points="-4,4 -4,-442 1566.1,-442 1566.1,4 -4,4"/>
<!-- Node1 -->
<g id="node1" class="node"><title>Node1</title>
<polygon fill="#bfbfbf" stroke="black" points="463.5,-396.5 463.5,-437.5 588.5,-437.5 588.5,-396.5 463.5,-396.5"/>
<text text-anchor="start" x="471.5" y="-425.5" font-family="Helvetica,sans-Serif" font-size="10.00">include/shad/extensions</text>
<text text-anchor="start" x="471.5" y="-414.5" font-family="Helvetica,sans-Serif" font-size="10.00">/graph_library/local_edge</text>
<text text-anchor="middle" x="526" y="-403.5" font-family="Helvetica,sans-Serif" font-size="10.00">_index.h</text>
</g>
<!-- Node2 -->
<g id="node2" class="node"><title>Node2</title>
<polygon fill="white" stroke="#bfbfbf" points="0,-198.5 0,-217.5 56,-217.5 56,-198.5 0,-198.5"/>
<text text-anchor="middle" x="28" y="-205.5" font-family="Helvetica,sans-Serif" font-size="10.00">algorithm</text>
</g>
<!-- Node1&#45;&gt;Node2 -->
<g id="edge1" class="edge"><title>Node1&#45;&gt;Node2</title>
<path fill="none" stroke="midnightblue" d="M463.387,-411.217C373.336,-401.639 205.418,-373.443 90,-292 65.8335,-274.947 47.1312,-245.554 36.845,-226.711"/>
<polygon fill="midnightblue" stroke="midnightblue" points="39.8701,-224.943 32.1316,-217.707 33.6684,-228.19 39.8701,-224.943"/>
</g>
<!-- Node3 -->
<g id="node3" class="node"><title>Node3</title>
<polygon fill="white" stroke="#bfbfbf" points="431,-266.5 431,-285.5 477,-285.5 477,-266.5 431,-266.5"/>
<text text-anchor="middle" x="454" y="-273.5" font-family="Helvetica,sans-Serif" font-size="10.00">atomic</text>
</g>
<!-- Node1&#45;&gt;Node3 -->
<g id="edge2" class="edge"><title>Node1&#45;&gt;Node3</title>
<path fill="none" stroke="midnightblue" d="M464.552,-396.441C447.827,-387.985 431.674,-376.197 422,-360 409.187,-338.548 425.352,-311.058 438.985,-293.731"/>
<polygon fill="midnightblue" stroke="midnightblue" points="441.985,-295.599 445.716,-285.683 436.615,-291.108 441.985,-295.599"/>
</g>
<!-- Node4 -->
<g id="node4" class="node"><title>Node4</title>
<polygon fill="white" stroke="#bfbfbf" points="1429,-130.5 1429,-149.5 1481,-149.5 1481,-130.5 1429,-130.5"/>
<text text-anchor="middle" x="1455" y="-137.5" font-family="Helvetica,sans-Serif" font-size="10.00">memory</text>
</g>
<!-- Node1&#45;&gt;Node4 -->
<g id="edge3" class="edge"><title>Node1&#45;&gt;Node4</title>
<path fill="none" stroke="midnightblue" d="M588.523,-413.769C751.564,-407.609 1186.81,-388.889 1328,-360 1418.33,-341.517 1457.38,-355.748 1524,-292 1557.26,-260.172 1574.72,-231.456 1551,-192 1537.93,-170.258 1512.12,-157.288 1490.55,-149.872"/>
<polygon fill="midnightblue" stroke="midnightblue" points="1491.59,-146.53 1481,-146.844 1489.47,-153.202 1491.59,-146.53"/>
</g>
<!-- Node5 -->
<g id="node5" class="node"><title>Node5</title>
<polygon fill="white" stroke="#bfbfbf" points="533,-266.5 533,-285.5 571,-285.5 571,-266.5 533,-266.5"/>
<text text-anchor="middle" x="552" y="-273.5" font-family="Helvetica,sans-Serif" font-size="10.00">tuple</text>
</g>
<!-- Node1&#45;&gt;Node5 -->
<g id="edge4" class="edge"><title>Node1&#45;&gt;Node5</title>
<path fill="none" stroke="midnightblue" d="M535.577,-396.275C540.206,-385.763 545.328,-372.46 548,-360 552.621,-338.453 553.151,-313.069 552.828,-296.099"/>
<polygon fill="midnightblue" stroke="midnightblue" points="556.318,-295.73 552.507,-285.844 549.321,-295.949 556.318,-295.73"/>
</g>
<!-- Node6 -->
<g id="node6" class="node"><title>Node6</title>
<polygon fill="white" stroke="#bfbfbf" points="1483,-198.5 1483,-217.5 1523,-217.5 1523,-198.5 1483,-198.5"/>
<text text-anchor="middle" x="1503" y="-205.5" font-family="Helvetica,sans-Serif" font-size="10.00">utility</text>
</g>
<!-- Node1&#45;&gt;Node6 -->
<g id="edge5" class="edge"><title>Node1&#45;&gt;Node6</title>
<path fill="none" stroke="midnightblue" d="M588.605,-412.793C794.972,-401.591 1444.11,-361.085 1505,-292 1520.46,-274.463 1515.53,-245.837 1509.84,-227.209"/>
<polygon fill="midnightblue" stroke="midnightblue" points="1513.09,-225.892 1506.55,-217.555 1506.46,-228.15 1513.09,-225.892"/>
</g>
<!-- Node7 -->
<g id="node7" class="node"><title>Node7</title>
<polygon fill="white" stroke="#bfbfbf" points="386,-198.5 386,-217.5 430,-217.5 430,-198.5 386,-198.5"/>
<text text-anchor="middle" x="408" y="-205.5" font-family="Helvetica,sans-Serif" font-size="10.00">vector</text>
</g>
<!-- Node1&#45;&gt;Node7 -->
<g id="edge6" class="edge"><title>Node1&#45;&gt;Node7</title>
<path fill="none" stroke="midnightblue" d="M463.491,-398.07C444.623,-389.568 425.803,-377.343 414,-360 386.523,-319.627 395.832,-258.133 402.958,-227.578"/>
<polygon fill="midnightblue" stroke="midnightblue" points="406.368,-228.368 405.413,-217.816 399.58,-226.661 406.368,-228.368"/>
</g>
<!-- Node8 -->
<g id="node8" class="node"><title>Node8</title>
<g id="a_node8"><a xlink:href="compare__and__hash__utils_8h.html" target="_top" xlink:title="shad/data_structures\l/compare_and_hash_utils.h">
<polygon fill="white" stroke="black" points="201,-261 201,-291 337,-291 337,-261 201,-261"/>
<text text-anchor="start" x="209" y="-279" font-family="Helvetica,sans-Serif" font-size="10.00">shad/data_structures</text>
<text text-anchor="middle" x="269" y="-268" font-family="Helvetica,sans-Serif" font-size="10.00">/compare_and_hash_utils.h</text>
</a>
</g>
</g>
<!-- Node1&#45;&gt;Node8 -->
<g id="edge7" class="edge"><title>Node1&#45;&gt;Node8</title>
<path fill="none" stroke="midnightblue" d="M463.362,-403.715C428.523,-395.033 385.39,-381.112 351,-360 324.803,-343.917 300.849,-317.735 285.685,-299.079"/>
<polygon fill="midnightblue" stroke="midnightblue" points="288.315,-296.762 279.36,-291.1 282.829,-301.11 288.315,-296.762"/>
</g>
<!-- Node14 -->
<g id="node14" class="node"><title>Node14</title>
<g id="a_node14"><a xlink:href="local__hashmap_8h.html" target="_top" xlink:title="shad/data_structures\l/local_hashmap.h">
<polygon fill="white" stroke="black" points="431,-329 431,-359 539,-359 539,-329 431,-329"/>
<text text-anchor="start" x="439" y="-347" font-family="Helvetica,sans-Serif" font-size="10.00">shad/data_structures</text>
<text text-anchor="middle" x="485" y="-336" font-family="Helvetica,sans-Serif" font-size="10.00">/local_hashmap.h</text>
</a>
</g>
</g>
<!-- Node1&#45;&gt;Node14 -->
<g id="edge17" class="edge"><title>Node1&#45;&gt;Node14</title>
<path fill="none" stroke="midnightblue" d="M514.579,-396.223C509.515,-387.452 503.523,-377.077 498.262,-367.966"/>
<polygon fill="midnightblue" stroke="midnightblue" points="501.144,-365.958 493.113,-359.049 495.082,-369.459 501.144,-365.958"/>
</g>
<!-- Node15 -->
<g id="node15" class="node"><title>Node15</title>
<g id="a_node15"><a xlink:href="runtime_8h.html" target="_top" xlink:title="shad/runtime/runtime.h">
<polygon fill="white" stroke="black" points="863,-266.5 863,-285.5 979,-285.5 979,-266.5 863,-266.5"/>
<text text-anchor="middle" x="921" y="-273.5" font-family="Helvetica,sans-Serif" font-size="10.00">shad/runtime/runtime.h</text>
</a>
</g>
</g>
<!-- Node1&#45;&gt;Node15 -->
<g id="edge70" class="edge"><title>Node1&#45;&gt;Node15</title>
<path fill="none" stroke="midnightblue" d="M588.854,-398.528C625.1,-388.092 671.396,-374.146 712,-360 776.916,-337.384 851.406,-306.614 891.589,-289.605"/>
<polygon fill="midnightblue" stroke="midnightblue" points="893.204,-292.722 901.04,-285.591 890.467,-286.279 893.204,-292.722"/>
</g>
<!-- Node30 -->
<g id="node30" class="node"><title>Node30</title>
<g id="a_node30"><a xlink:href="local__set_8h.html" target="_top" xlink:title="shad/data_structures\l/local_set.h">
<polygon fill="white" stroke="black" points="595,-329 595,-359 703,-359 703,-329 595,-329"/>
<text text-anchor="start" x="603" y="-347" font-family="Helvetica,sans-Serif" font-size="10.00">shad/data_structures</text>
<text text-anchor="middle" x="649" y="-336" font-family="Helvetica,sans-Serif" font-size="10.00">/local_set.h</text>
</a>
</g>
</g>
<!-- Node1&#45;&gt;Node30 -->
<g id="edge59" class="edge"><title>Node1&#45;&gt;Node30</title>
<path fill="none" stroke="midnightblue" d="M559.936,-396.411C577.375,-386.344 598.543,-374.126 615.866,-364.126"/>
<polygon fill="midnightblue" stroke="midnightblue" points="617.623,-367.153 624.534,-359.123 614.123,-361.091 617.623,-367.153"/>
</g>
<!-- Node8&#45;&gt;Node2 -->
<g id="edge8" class="edge"><title>Node8&#45;&gt;Node2</title>
<path fill="none" stroke="midnightblue" d="M208.07,-260.926C168.472,-251.401 115.87,-238.036 70,-224 66.8904,-223.048 63.6706,-222.005 60.4605,-220.926"/>
<polygon fill="midnightblue" stroke="midnightblue" points="61.574,-217.608 50.9792,-217.638 59.2799,-224.222 61.574,-217.608"/>
</g>
<!-- Node8&#45;&gt;Node7 -->
<g id="edge13" class="edge"><title>Node8&#45;&gt;Node7</title>
<path fill="none" stroke="midnightblue" d="M298.819,-260.841C323.077,-249.323 357.036,-233.199 380.614,-222.004"/>
<polygon fill="midnightblue" stroke="midnightblue" points="382.183,-225.133 389.715,-217.682 379.181,-218.809 382.183,-225.133"/>
</g>
<!-- Node9 -->
<g id="node9" class="node"><title>Node9</title>
<polygon fill="white" stroke="#bfbfbf" points="605,-62.5 605,-81.5 651,-81.5 651,-62.5 605,-62.5"/>
<text text-anchor="middle" x="628" y="-69.5" font-family="Helvetica,sans-Serif" font-size="10.00">cstdint</text>
</g>
<!-- Node8&#45;&gt;Node9 -->
<g id="edge9" class="edge"><title>Node8&#45;&gt;Node9</title>
<path fill="none" stroke="midnightblue" d="M278.184,-260.702C298.976,-229.694 353.014,-156.45 419,-124 477.087,-95.4345 552.315,-82.1719 594.852,-76.5844"/>
<polygon fill="midnightblue" stroke="midnightblue" points="595.444,-80.0379 604.932,-75.3246 594.575,-73.0919 595.444,-80.0379"/>
</g>
<!-- Node10 -->
<g id="node10" class="node"><title>Node10</title>
<polygon fill="white" stroke="#bfbfbf" points="246,-198.5 246,-217.5 292,-217.5 292,-198.5 246,-198.5"/>
<text text-anchor="middle" x="269" y="-205.5" font-family="Helvetica,sans-Serif" font-size="10.00">cstring</text>
</g>
<!-- Node8&#45;&gt;Node10 -->
<g id="edge10" class="edge"><title>Node8&#45;&gt;Node10</title>
<path fill="none" stroke="midnightblue" d="M269,-260.679C269,-251.101 269,-238.394 269,-227.977"/>
<polygon fill="midnightblue" stroke="midnightblue" points="272.5,-227.828 269,-217.828 265.5,-227.828 272.5,-227.828"/>
</g>
<!-- Node11 -->
<g id="node11" class="node"><title>Node11</title>
<polygon fill="white" stroke="#bfbfbf" points="428.5,-130.5 428.5,-149.5 487.5,-149.5 487.5,-130.5 428.5,-130.5"/>
<text text-anchor="middle" x="458" y="-137.5" font-family="Helvetica,sans-Serif" font-size="10.00">functional</text>
</g>
<!-- Node8&#45;&gt;Node11 -->
<g id="edge11" class="edge"><title>Node8&#45;&gt;Node11</title>
<path fill="none" stroke="midnightblue" d="M286.856,-260.953C312.723,-240.66 359.441,-204.235 377,-192 395.92,-178.817 418.128,-164.94 434.501,-154.996"/>
<polygon fill="midnightblue" stroke="midnightblue" points="436.642,-157.792 443.397,-149.63 433.027,-151.798 436.642,-157.792"/>
</g>
<!-- Node12 -->
<g id="node12" class="node"><title>Node12</title>
<polygon fill="white" stroke="#bfbfbf" points="139,-130.5 139,-149.5 201,-149.5 201,-130.5 139,-130.5"/>
<text text-anchor="middle" x="170" y="-137.5" font-family="Helvetica,sans-Serif" font-size="10.00">type_traits</text>
</g>
<!-- Node8&#45;&gt;Node12 -->
<g id="edge12" class="edge"><title>Node8&#45;&gt;Node12</title>
<path fill="none" stroke="midnightblue" d="M200.907,-262.559C160.596,-253.655 115.094,-240.367 103,-224 94.5481,-212.562 96.685,-204.743 103,-192 111.093,-175.668 127.197,-163.147 141.588,-154.598"/>
<polygon fill="midnightblue" stroke="midnightblue" points="143.644,-157.461 150.696,-149.555 140.253,-151.337 143.644,-157.461"/>
</g>
<!-- Node13 -->
<g id="node13" class="node"><title>Node13</title>
<g id="a_node13"><a xlink:href="type__traits_8h.html" target="_top" xlink:title="shad/core/type_traits.h">
<polygon fill="white" stroke="black" points="112,-198.5 112,-217.5 228,-217.5 228,-198.5 112,-198.5"/>
<text text-anchor="middle" x="170" y="-205.5" font-family="Helvetica,sans-Serif" font-size="10.00">shad/core/type_traits.h</text>
</a>
</g>
</g>
<!-- Node8&#45;&gt;Node13 -->
<g id="edge14" class="edge"><title>Node8&#45;&gt;Node13</title>
<path fill="none" stroke="midnightblue" d="M247.518,-260.679C230.916,-249.611 208.044,-234.363 191.45,-223.3"/>
<polygon fill="midnightblue" stroke="midnightblue" points="193.219,-220.273 182.957,-217.638 189.336,-226.097 193.219,-220.273"/>
</g>
<!-- Node13&#45;&gt;Node11 -->
<g id="edge15" class="edge"><title>Node13&#45;&gt;Node11</title>
<path fill="none" stroke="midnightblue" d="M207.356,-198.439C261.802,-185.962 362.525,-162.88 418.278,-150.103"/>
<polygon fill="midnightblue" stroke="midnightblue" points="419.178,-153.487 428.144,-147.842 417.615,-146.664 419.178,-153.487"/>
</g>
<!-- Node13&#45;&gt;Node12 -->
<g id="edge16" class="edge"><title>Node13&#45;&gt;Node12</title>
<path fill="none" stroke="midnightblue" d="M170,-198.372C170,-188.643 170,-172.528 170,-159.85"/>
<polygon fill="midnightblue" stroke="midnightblue" points="173.5,-159.841 170,-149.841 166.5,-159.841 173.5,-159.841"/>
</g>
<!-- Node14&#45;&gt;Node2 -->
<g id="edge18" class="edge"><title>Node14&#45;&gt;Node2</title>
<path fill="none" stroke="midnightblue" d="M430.887,-342.078C363.032,-339.297 244.184,-328.991 150,-292 108.559,-275.724 67.1568,-243.293 44.8406,-224.144"/>
<polygon fill="midnightblue" stroke="midnightblue" points="47.0936,-221.464 37.2619,-217.516 42.4855,-226.734 47.0936,-221.464"/>
</g>
<!-- Node14&#45;&gt;Node3 -->
<g id="edge19" class="edge"><title>Node14&#45;&gt;Node3</title>
<path fill="none" stroke="midnightblue" d="M478.273,-328.679C473.631,-318.796 467.424,-305.579 462.448,-294.986"/>
<polygon fill="midnightblue" stroke="midnightblue" points="465.566,-293.392 458.147,-285.828 459.23,-296.368 465.566,-293.392"/>
</g>
<!-- Node14&#45;&gt;Node4 -->
<g id="edge21" class="edge"><title>Node14&#45;&gt;Node4</title>
<path fill="none" stroke="midnightblue" d="M539.174,-334.364C554.306,-332.113 570.774,-329.813 586,-328 765.549,-306.626 1238.62,-318.138 1393,-224 1418.51,-208.442 1437.02,-178.12 1446.88,-158.75"/>
<polygon fill="midnightblue" stroke="midnightblue" points="1450.14,-160.043 1451.34,-149.516 1443.84,-156.996 1450.14,-160.043"/>
</g>
<!-- Node14&#45;&gt;Node5 -->
<g id="edge22" class="edge"><title>Node14&#45;&gt;Node5</title>
<path fill="none" stroke="midnightblue" d="M499.538,-328.679C510.192,-318.184 524.66,-303.932 535.705,-293.052"/>
<polygon fill="midnightblue" stroke="midnightblue" points="538.37,-295.339 543.038,-285.828 533.458,-290.353 538.37,-295.339"/>
</g>
<!-- Node14&#45;&gt;Node6 -->
<g id="edge23" class="edge"><title>Node14&#45;&gt;Node6</title>
<path fill="none" stroke="midnightblue" d="M539.126,-333.925C554.258,-331.67 570.738,-329.479 586,-328 760.256,-311.119 1207.79,-349.931 1373,-292 1395.82,-283.999 1396.8,-273.293 1417,-260 1437.31,-246.635 1461.14,-232.628 1478.56,-222.682"/>
<polygon fill="midnightblue" stroke="midnightblue" points="1480.54,-225.582 1487.51,-217.605 1477.09,-219.493 1480.54,-225.582"/>
</g>
<!-- Node14&#45;&gt;Node7 -->
<g id="edge24" class="edge"><title>Node14&#45;&gt;Node7</title>
<path fill="none" stroke="midnightblue" d="M459.998,-328.956C446.59,-320.104 431.014,-307.432 422,-292 410.451,-272.23 407.795,-245.569 407.472,-227.858"/>
<polygon fill="midnightblue" stroke="midnightblue" points="410.973,-227.693 407.526,-217.674 403.973,-227.655 410.973,-227.693"/>
</g>
<!-- Node14&#45;&gt;Node8 -->
<g id="edge25" class="edge"><title>Node14&#45;&gt;Node8</title>
<path fill="none" stroke="midnightblue" d="M438.928,-328.922C405.518,-318.714 360.167,-304.857 324.719,-294.025"/>
<polygon fill="midnightblue" stroke="midnightblue" points="325.588,-290.631 315.002,-291.056 323.542,-297.326 325.588,-290.631"/>
</g>
<!-- Node14&#45;&gt;Node11 -->
<g id="edge20" class="edge"><title>Node14&#45;&gt;Node11</title>
<path fill="none" stroke="midnightblue" d="M485.355,-328.712C485.591,-318.488 485.878,-304.398 486,-292 486.139,-277.778 487.64,-274.127 486,-260 481.794,-223.765 470.615,-182.545 463.721,-159.367"/>
<polygon fill="midnightblue" stroke="midnightblue" points="466.99,-158.087 460.731,-149.539 460.293,-160.125 466.99,-158.087"/>
</g>
<!-- Node14&#45;&gt;Node15 -->
<g id="edge26" class="edge"><title>Node14&#45;&gt;Node15</title>
<path fill="none" stroke="midnightblue" d="M539.338,-334.775C619.266,-322.675 768.365,-300.105 854.649,-287.044"/>
<polygon fill="midnightblue" stroke="midnightblue" points="855.23,-290.496 864.594,-285.539 854.183,-283.575 855.23,-290.496"/>
</g>
<!-- Node15&#45;&gt;Node4 -->
<g id="edge33" class="edge"><title>Node15&#45;&gt;Node4</title>
<path fill="none" stroke="midnightblue" d="M979.201,-272.305C1081.64,-266.882 1289.58,-252.647 1356,-224 1391.16,-208.834 1423.46,-176.979 1441.07,-157.442"/>
<polygon fill="midnightblue" stroke="midnightblue" points="1443.92,-159.497 1447.89,-149.672 1438.66,-154.881 1443.92,-159.497"/>
</g>
<!-- Node15&#45;&gt;Node6 -->
<g id="edge36" class="edge"><title>Node15&#45;&gt;Node6</title>
<path fill="none" stroke="midnightblue" d="M979.381,-271.179C1074.41,-264.508 1268.29,-249.012 1431,-224 1444.94,-221.857 1460.26,-218.77 1473.17,-215.953"/>
<polygon fill="midnightblue" stroke="midnightblue" points="1473.93,-219.369 1482.93,-213.775 1472.41,-212.537 1473.93,-219.369"/>
</g>
<!-- Node15&#45;&gt;Node7 -->
<g id="edge37" class="edge"><title>Node15&#45;&gt;Node7</title>
<path fill="none" stroke="midnightblue" d="M862.878,-267.731C784.859,-257.945 641.954,-239.921 520,-224 493.131,-220.492 462.651,-216.403 440.279,-213.381"/>
<polygon fill="midnightblue" stroke="midnightblue" points="440.686,-209.904 430.307,-212.032 439.747,-216.841 440.686,-209.904"/>
</g>
<!-- Node15&#45;&gt;Node9 -->
<g id="edge28" class="edge"><title>Node15&#45;&gt;Node9</title>
<path fill="none" stroke="midnightblue" d="M862.821,-273.345C786.383,-269.807 658.377,-258.718 629,-224 597.19,-186.405 611.525,-122.678 621.412,-91.4123"/>
<polygon fill="midnightblue" stroke="midnightblue" points="624.773,-92.3973 624.641,-81.8033 618.138,-90.1678 624.773,-92.3973"/>
</g>
<!-- Node15&#45;&gt;Node11 -->
<g id="edge29" class="edge"><title>Node15&#45;&gt;Node11</title>
<path fill="none" stroke="midnightblue" d="M862.998,-270.725C774.758,-263.574 611.405,-247.605 558,-224 539.448,-215.8 497.627,-178.175 474.374,-156.504"/>
<polygon fill="midnightblue" stroke="midnightblue" points="476.68,-153.868 466.992,-149.578 471.89,-158.973 476.68,-153.868"/>
</g>
<!-- Node16 -->
<g id="node16" class="node"><title>Node16</title>
<polygon fill="white" stroke="#bfbfbf" points="1129.5,-130.5 1129.5,-149.5 1178.5,-149.5 1178.5,-130.5 1129.5,-130.5"/>
<text text-anchor="middle" x="1154" y="-137.5" font-family="Helvetica,sans-Serif" font-size="10.00">cstddef</text>
</g>
<!-- Node15&#45;&gt;Node16 -->
<g id="edge27" class="edge"><title>Node15&#45;&gt;Node16</title>
<path fill="none" stroke="midnightblue" d="M979.069,-271.796C1084.75,-265.368 1299.7,-249.31 1322,-224 1331.4,-213.328 1330.47,-203.424 1322,-192 1306.07,-170.523 1233.08,-154.531 1188.71,-146.593"/>
<polygon fill="midnightblue" stroke="midnightblue" points="1189.09,-143.106 1178.64,-144.84 1187.89,-150.002 1189.09,-143.106"/>
</g>
<!-- Node17 -->
<g id="node17" class="node"><title>Node17</title>
<polygon fill="white" stroke="#bfbfbf" points="996,-198.5 996,-217.5 1050,-217.5 1050,-198.5 996,-198.5"/>
<text text-anchor="middle" x="1023" y="-205.5" font-family="Helvetica,sans-Serif" font-size="10.00">iostream</text>
</g>
<!-- Node15&#45;&gt;Node17 -->
<g id="edge30" class="edge"><title>Node15&#45;&gt;Node17</title>
<path fill="none" stroke="midnightblue" d="M934.335,-266.372C951.287,-255.403 980.783,-236.317 1001.07,-223.191"/>
<polygon fill="midnightblue" stroke="midnightblue" points="1003.17,-226.002 1009.66,-217.63 999.365,-220.125 1003.17,-226.002"/>
</g>
<!-- Node18 -->
<g id="node18" class="node"><title>Node18</title>
<polygon fill="white" stroke="#bfbfbf" points="1068.5,-198.5 1068.5,-217.5 1115.5,-217.5 1115.5,-198.5 1068.5,-198.5"/>
<text text-anchor="middle" x="1092" y="-205.5" font-family="Helvetica,sans-Serif" font-size="10.00">iterator</text>
</g>
<!-- Node15&#45;&gt;Node18 -->
<g id="edge31" class="edge"><title>Node15&#45;&gt;Node18</title>
<path fill="none" stroke="midnightblue" d="M945.889,-266.416C973.684,-256.687 1019.91,-240.084 1059,-224 1060.64,-223.325 1062.32,-222.617 1064.01,-221.891"/>
<polygon fill="midnightblue" stroke="midnightblue" points="1065.87,-224.894 1073.6,-217.648 1063.04,-218.492 1065.87,-224.894"/>
</g>
<!-- Node19 -->
<g id="node19" class="node"><title>Node19</title>
<polygon fill="white" stroke="#bfbfbf" points="1133.5,-198.5 1133.5,-217.5 1168.5,-217.5 1168.5,-198.5 1133.5,-198.5"/>
<text text-anchor="middle" x="1151" y="-205.5" font-family="Helvetica,sans-Serif" font-size="10.00">map</text>
</g>
<!-- Node15&#45;&gt;Node19 -->
<g id="edge32" class="edge"><title>Node15&#45;&gt;Node19</title>
<path fill="none" stroke="midnightblue" d="M969.685,-266.484C1011.52,-258.298 1072.97,-244.18 1124,-224 1125.4,-223.445 1126.82,-222.831 1128.24,-222.178"/>
<polygon fill="midnightblue" stroke="midnightblue" points="1130.04,-225.19 1137.33,-217.503 1126.83,-218.966 1130.04,-225.19"/>
</g>
<!-- Node20 -->
<g id="node20" class="node"><title>Node20</title>
<polygon fill="white" stroke="#bfbfbf" points="1187,-198.5 1187,-217.5 1217,-217.5 1217,-198.5 1187,-198.5"/>
<text text-anchor="middle" x="1202" y="-205.5" font-family="Helvetica,sans-Serif" font-size="10.00">set</text>
</g>
<!-- Node15&#45;&gt;Node20 -->
<g id="edge34" class="edge"><title>Node15&#45;&gt;Node20</title>
<path fill="none" stroke="midnightblue" d="M979.015,-269.201C1031.96,-262.577 1111.69,-249.223 1177,-224 1178.22,-223.528 1179.45,-222.999 1180.68,-222.427"/>
<polygon fill="midnightblue" stroke="midnightblue" points="1182.6,-225.366 1189.71,-217.515 1179.26,-219.216 1182.6,-225.366"/>
</g>
<!-- Node21 -->
<g id="node21" class="node"><title>Node21</title>
<polygon fill="white" stroke="#bfbfbf" points="1235,-198.5 1235,-217.5 1313,-217.5 1313,-198.5 1235,-198.5"/>
<text text-anchor="middle" x="1274" y="-205.5" font-family="Helvetica,sans-Serif" font-size="10.00">unordered_set</text>
</g>
<!-- Node15&#45;&gt;Node21 -->
<g id="edge35" class="edge"><title>Node15&#45;&gt;Node21</title>
<path fill="none" stroke="midnightblue" d="M979.163,-267.549C1040.68,-259.133 1140.36,-243.964 1225,-224 1229.46,-222.949 1234.1,-221.715 1238.68,-220.413"/>
<polygon fill="midnightblue" stroke="midnightblue" points="1239.9,-223.702 1248.49,-217.501 1237.91,-216.991 1239.9,-223.702"/>
</g>
<!-- Node22 -->
<g id="node22" class="node"><title>Node22</title>
<polygon fill="white" stroke="#bfbfbf" points="661,-0.5 661,-19.5 765,-19.5 765,-0.5 661,-0.5"/>
<text text-anchor="middle" x="713" y="-7.5" font-family="Helvetica,sans-Serif" font-size="10.00">shad/config/config.h</text>
</g>
<!-- Node15&#45;&gt;Node22 -->
<g id="edge38" class="edge"><title>Node15&#45;&gt;Node22</title>
<path fill="none" stroke="midnightblue" d="M862.966,-273.623C782.634,-270.409 643.62,-259.699 610,-224 558.632,-169.455 553.582,-117.762 596,-56 608.657,-37.5706 629.997,-26.6857 651.013,-20.2581"/>
<polygon fill="midnightblue" stroke="midnightblue" points="652.224,-23.5549 660.937,-17.5273 650.367,-16.8057 652.224,-23.5549"/>
</g>
<!-- Node23 -->
<g id="node23" class="node"><title>Node23</title>
<g id="a_node23"><a xlink:href="handle_8h.html" target="_top" xlink:title="shad/runtime/handle.h">
<polygon fill="white" stroke="black" points="638.5,-198.5 638.5,-217.5 751.5,-217.5 751.5,-198.5 638.5,-198.5"/>
<text text-anchor="middle" x="695" y="-205.5" font-family="Helvetica,sans-Serif" font-size="10.00">shad/runtime/handle.h</text>
</a>
</g>
</g>
<!-- Node15&#45;&gt;Node23 -->
<g id="edge39" class="edge"><title>Node15&#45;&gt;Node23</title>
<path fill="none" stroke="midnightblue" d="M891.454,-266.372C851.076,-254.58 778.576,-233.407 733.842,-220.343"/>
<polygon fill="midnightblue" stroke="midnightblue" points="734.775,-216.97 724.195,-217.526 732.813,-223.689 734.775,-216.97"/>
</g>
<!-- Node24 -->
<g id="node24" class="node"><title>Node24</title>
<g id="a_node24"><a xlink:href="mapping__traits_8h.html" target="_top" xlink:title="shad/runtime/mapping\l_traits.h">
<polygon fill="white" stroke="black" points="780.5,-57 780.5,-87 893.5,-87 893.5,-57 780.5,-57"/>
<text text-anchor="start" x="788.5" y="-75" font-family="Helvetica,sans-Serif" font-size="10.00">shad/runtime/mapping</text>
<text text-anchor="middle" x="837" y="-64" font-family="Helvetica,sans-Serif" font-size="10.00">_traits.h</text>
</a>
</g>
</g>
<!-- Node15&#45;&gt;Node24 -->
<g id="edge51" class="edge"><title>Node15&#45;&gt;Node24</title>
<path fill="none" stroke="midnightblue" d="M927.42,-266.152C934.073,-256.391 944.039,-239.946 948,-224 951.428,-210.197 951.348,-205.822 948,-192 939.997,-158.965 935.605,-149.384 913,-124 901.904,-111.54 887.125,-100.721 873.551,-92.294"/>
<polygon fill="midnightblue" stroke="midnightblue" points="875.237,-89.2243 864.855,-87.108 871.651,-95.2363 875.237,-89.2243"/>
</g>
<!-- Node27 -->
<g id="node27" class="node"><title>Node27</title>
<g id="a_node27"><a xlink:href="locality_8h.html" target="_top" xlink:title="shad/runtime/locality.h">
<polygon fill="white" stroke="black" points="789.5,-130.5 789.5,-149.5 904.5,-149.5 904.5,-130.5 789.5,-130.5"/>
<text text-anchor="middle" x="847" y="-137.5" font-family="Helvetica,sans-Serif" font-size="10.00">shad/runtime/locality.h</text>
</a>
</g>
</g>
<!-- Node15&#45;&gt;Node27 -->
<g id="edge46" class="edge"><title>Node15&#45;&gt;Node27</title>
<path fill="none" stroke="midnightblue" d="M866.9,-266.44C841.797,-259.464 814.204,-246.835 799,-224 783.743,-201.086 808.229,-173.14 827.477,-156.226"/>
<polygon fill="midnightblue" stroke="midnightblue" points="829.853,-158.801 835.275,-149.699 825.36,-153.434 829.853,-158.801"/>
</g>
<!-- Node28 -->
<g id="node28" class="node"><title>Node28</title>
<g id="a_node28"><a xlink:href="available__mappings_8h.html" target="_top" xlink:title="shad/runtime/mappings\l/available_mappings.h">
<polygon fill="white" stroke="black" points="1245,-125 1245,-155 1363,-155 1363,-125 1245,-125"/>
<text text-anchor="start" x="1253" y="-143" font-family="Helvetica,sans-Serif" font-size="10.00">shad/runtime/mappings</text>
<text text-anchor="middle" x="1304" y="-132" font-family="Helvetica,sans-Serif" font-size="10.00">/available_mappings.h</text>
</a>
</g>
</g>
<!-- Node15&#45;&gt;Node28 -->
<g id="edge52" class="edge"><title>Node15&#45;&gt;Node28</title>
<path fill="none" stroke="midnightblue" d="M979.387,-272.1C1088.74,-266.066 1315.56,-250.478 1339,-224 1354.55,-206.434 1339.86,-180.952 1325.02,-162.864"/>
<polygon fill="midnightblue" stroke="midnightblue" points="1327.51,-160.385 1318.31,-155.129 1322.22,-164.975 1327.51,-160.385"/>
</g>
<!-- Node29 -->
<g id="node29" class="node"><title>Node29</title>
<g id="a_node29"><a xlink:href="synchronous__interface_8h.html" target="_top" xlink:title="shad/runtime/synchronous\l_interface.h">
<polygon fill="white" stroke="black" points="808.5,-193 808.5,-223 939.5,-223 939.5,-193 808.5,-193"/>
<text text-anchor="start" x="816.5" y="-211" font-family="Helvetica,sans-Serif" font-size="10.00">shad/runtime/synchronous</text>
<text text-anchor="middle" x="874" y="-200" font-family="Helvetica,sans-Serif" font-size="10.00">_interface.h</text>
</a>
</g>
</g>
<!-- Node15&#45;&gt;Node29 -->
<g id="edge54" class="edge"><title>Node15&#45;&gt;Node29</title>
<path fill="none" stroke="midnightblue" d="M914.856,-266.372C908.568,-257.543 898.537,-243.456 889.987,-231.45"/>
<polygon fill="midnightblue" stroke="midnightblue" points="892.751,-229.297 884.099,-223.181 887.049,-233.357 892.751,-229.297"/>
</g>
<!-- Node23&#45;&gt;Node12 -->
<g id="edge40" class="edge"><title>Node23&#45;&gt;Node12</title>
<path fill="none" stroke="midnightblue" d="M638.317,-199.874C531.983,-186.506 304.897,-157.959 211.467,-146.213"/>
<polygon fill="midnightblue" stroke="midnightblue" points="211.634,-142.707 201.275,-144.932 210.761,-149.652 211.634,-142.707"/>
</g>
<!-- Node23&#45;&gt;Node22 -->
<g id="edge41" class="edge"><title>Node23&#45;&gt;Node22</title>
<path fill="none" stroke="midnightblue" d="M695.797,-198.325C698.521,-168.664 707.504,-70.8504 711.291,-29.6044"/>
<polygon fill="midnightblue" stroke="midnightblue" points="714.783,-29.8528 712.213,-19.5746 707.813,-29.2126 714.783,-29.8528"/>
</g>
<!-- Node23&#45;&gt;Node24 -->
<g id="edge42" class="edge"><title>Node23&#45;&gt;Node24</title>
<path fill="none" stroke="midnightblue" d="M703.81,-198.147C719.11,-182.83 751.673,-150.479 780,-124 790.716,-113.983 802.798,-103.114 813.071,-93.9944"/>
<polygon fill="midnightblue" stroke="midnightblue" points="815.689,-96.3514 820.861,-87.105 811.052,-91.1077 815.689,-96.3514"/>
</g>
<!-- Node26 -->
<g id="node26" class="node"><title>Node26</title>
<g id="a_node26"><a xlink:href="available__traits__mappings_8h.html" target="_top" xlink:title="shad/runtime/mappings\l/available_traits_mappings.h">
<polygon fill="white" stroke="black" points="936,-57 936,-87 1076,-87 1076,-57 936,-57"/>
<text text-anchor="start" x="944" y="-75" font-family="Helvetica,sans-Serif" font-size="10.00">shad/runtime/mappings</text>
<text text-anchor="middle" x="1006" y="-64" font-family="Helvetica,sans-Serif" font-size="10.00">/available_traits_mappings.h</text>
</a>
</g>
</g>
<!-- Node23&#45;&gt;Node26 -->
<g id="edge45" class="edge"><title>Node23&#45;&gt;Node26</title>
<path fill="none" stroke="midnightblue" d="M743.81,-198.491C798.691,-188.417 883.942,-171.1 913,-156 942.573,-140.633 970.22,-113.719 987.557,-94.7108"/>
<polygon fill="midnightblue" stroke="midnightblue" points="990.294,-96.9006 994.332,-87.1053 985.067,-92.2447 990.294,-96.9006"/>
</g>
<!-- Node24&#45;&gt;Node22 -->
<g id="edge44" class="edge"><title>Node24&#45;&gt;Node22</title>
<path fill="none" stroke="midnightblue" d="M807.928,-56.9327C787.381,-46.9907 760.037,-33.7601 739.975,-24.0526"/>
<polygon fill="midnightblue" stroke="midnightblue" points="741.299,-20.8051 730.773,-19.6 738.251,-27.1063 741.299,-20.8051"/>
</g>
<!-- Node25 -->
<g id="node25" class="node"><title>Node25</title>
<polygon fill="white" stroke="#bfbfbf" points="816.5,-0.5 816.5,-19.5 857.5,-19.5 857.5,-0.5 816.5,-0.5"/>
<text text-anchor="middle" x="837" y="-7.5" font-family="Helvetica,sans-Serif" font-size="10.00">string</text>
</g>
<!-- Node24&#45;&gt;Node25 -->
<g id="edge43" class="edge"><title>Node24&#45;&gt;Node25</title>
<path fill="none" stroke="midnightblue" d="M837,-56.7808C837,-48.7812 837,-38.6887 837,-30.0168"/>
<polygon fill="midnightblue" stroke="midnightblue" points="840.5,-29.7305 837,-19.7305 833.5,-29.7306 840.5,-29.7305"/>
</g>
<!-- Node27&#45;&gt;Node9 -->
<g id="edge47" class="edge"><title>Node27&#45;&gt;Node9</title>
<path fill="none" stroke="midnightblue" d="M818.37,-130.372C777.796,-118.144 703.753,-95.8298 660.947,-82.9293"/>
<polygon fill="midnightblue" stroke="midnightblue" points="661.872,-79.5527 651.288,-80.0182 659.852,-86.2549 661.872,-79.5527"/>
</g>
<!-- Node27&#45;&gt;Node22 -->
<g id="edge48" class="edge"><title>Node27&#45;&gt;Node22</title>
<path fill="none" stroke="midnightblue" d="M831.044,-130.41C814.847,-121.227 789.576,-105.59 771,-88 751.902,-69.9158 734.394,-45.0166 723.721,-28.4851"/>
<polygon fill="midnightblue" stroke="midnightblue" points="726.561,-26.426 718.267,-19.8332 720.639,-30.1591 726.561,-26.426"/>
</g>
<!-- Node27&#45;&gt;Node24 -->
<g id="edge49" class="edge"><title>Node27&#45;&gt;Node24</title>
<path fill="none" stroke="midnightblue" d="M845.693,-130.372C844.42,-121.971 842.426,-108.811 840.669,-97.2126"/>
<polygon fill="midnightblue" stroke="midnightblue" points="844.107,-96.5443 839.149,-87.1815 837.186,-97.593 844.107,-96.5443"/>
</g>
<!-- Node27&#45;&gt;Node26 -->
<g id="edge50" class="edge"><title>Node27&#45;&gt;Node26</title>
<path fill="none" stroke="midnightblue" d="M867.786,-130.372C891.816,-120.397 932.017,-103.71 962.885,-90.8967"/>
<polygon fill="midnightblue" stroke="midnightblue" points="964.243,-94.1226 972.137,-87.0562 961.56,-87.6575 964.243,-94.1226"/>
</g>
<!-- Node28&#45;&gt;Node26 -->
<g id="edge53" class="edge"><title>Node28&#45;&gt;Node26</title>
<path fill="none" stroke="midnightblue" d="M1244.77,-125.882C1197.19,-115.344 1130.14,-100.494 1079.2,-89.212"/>
<polygon fill="midnightblue" stroke="midnightblue" points="1079.76,-85.7508 1069.24,-87.0056 1078.24,-92.5852 1079.76,-85.7508"/>
</g>
<!-- Node29&#45;&gt;Node4 -->
<g id="edge57" class="edge"><title>Node29&#45;&gt;Node4</title>
<path fill="none" stroke="midnightblue" d="M939.675,-197.845C955.18,-195.805 971.661,-193.735 987,-192 1157.77,-172.689 1201.73,-179.303 1372,-156 1387.41,-153.891 1404.32,-150.95 1418.84,-148.23"/>
<polygon fill="midnightblue" stroke="midnightblue" points="1419.76,-151.617 1428.92,-146.304 1418.44,-144.741 1419.76,-151.617"/>
</g>
<!-- Node29&#45;&gt;Node9 -->
<g id="edge56" class="edge"><title>Node29&#45;&gt;Node9</title>
<path fill="none" stroke="midnightblue" d="M848.056,-192.948C829.174,-182.716 802.994,-168.515 780,-156 735.201,-131.616 683.029,-103.102 652.928,-86.6387"/>
<polygon fill="midnightblue" stroke="midnightblue" points="654.42,-83.4658 643.967,-81.7375 651.061,-89.6071 654.42,-83.4658"/>
</g>
<!-- Node29&#45;&gt;Node16 -->
<g id="edge55" class="edge"><title>Node29&#45;&gt;Node16</title>
<path fill="none" stroke="midnightblue" d="M933.724,-192.922C990.315,-179.583 1073.34,-160.013 1119.61,-149.106"/>
<polygon fill="midnightblue" stroke="midnightblue" points="1120.52,-152.487 1129.45,-146.786 1118.92,-145.674 1120.52,-152.487"/>
</g>
<!-- Node29&#45;&gt;Node27 -->
<g id="edge58" class="edge"><title>Node29&#45;&gt;Node27</title>
<path fill="none" stroke="midnightblue" d="M868.141,-192.679C864.14,-182.898 858.803,-169.852 854.492,-159.315"/>
<polygon fill="midnightblue" stroke="midnightblue" points="857.637,-157.759 850.612,-149.828 851.159,-160.409 857.637,-157.759"/>
</g>
<!-- Node30&#45;&gt;Node2 -->
<g id="edge60" class="edge"><title>Node30&#45;&gt;Node2</title>
<path fill="none" stroke="midnightblue" d="M594.812,-334.477C579.68,-332.226 563.216,-329.898 548,-328 390.194,-308.314 343.451,-340.508 192,-292 164.7,-283.256 161.424,-273.241 136,-260 109.526,-246.212 78.676,-231.804 56.7424,-221.833"/>
<polygon fill="midnightblue" stroke="midnightblue" points="57.8939,-218.513 47.34,-217.583 55.0102,-224.891 57.8939,-218.513"/>
</g>
<!-- Node30&#45;&gt;Node3 -->
<g id="edge61" class="edge"><title>Node30&#45;&gt;Node3</title>
<path fill="none" stroke="midnightblue" d="M607.168,-328.841C571.164,-316.656 519.931,-299.315 486.823,-288.109"/>
<polygon fill="midnightblue" stroke="midnightblue" points="487.761,-284.732 477.167,-284.841 485.517,-291.362 487.761,-284.732"/>
</g>
<!-- Node30&#45;&gt;Node4 -->
<g id="edge64" class="edge"><title>Node30&#45;&gt;Node4</title>
<path fill="none" stroke="midnightblue" d="M703.157,-343.103C881.113,-342.989 1440.2,-338.868 1505,-292 1542.3,-265.021 1553.78,-232.556 1532,-192 1522.68,-174.642 1504.56,-162.197 1488.24,-153.948"/>
<polygon fill="midnightblue" stroke="midnightblue" points="1489.46,-150.654 1478.92,-149.571 1486.49,-156.99 1489.46,-150.654"/>
</g>
<!-- Node30&#45;&gt;Node5 -->
<g id="edge65" class="edge"><title>Node30&#45;&gt;Node5</title>
<path fill="none" stroke="midnightblue" d="M627.952,-328.679C611.686,-317.611 589.276,-302.363 573.017,-291.3"/>
<polygon fill="midnightblue" stroke="midnightblue" points="574.932,-288.37 564.695,-285.638 570.994,-294.157 574.932,-288.37"/>
</g>
<!-- Node30&#45;&gt;Node6 -->
<g id="edge66" class="edge"><title>Node30&#45;&gt;Node6</title>
<path fill="none" stroke="midnightblue" d="M703.252,-343.355C878.79,-344.006 1423.42,-341.948 1483,-292 1501.52,-276.477 1504.56,-247.07 1504.33,-227.755"/>
<polygon fill="midnightblue" stroke="midnightblue" points="1507.83,-227.573 1503.91,-217.729 1500.83,-227.867 1507.83,-227.573"/>
</g>
<!-- Node30&#45;&gt;Node7 -->
<g id="edge67" class="edge"><title>Node30&#45;&gt;Node7</title>
<path fill="none" stroke="midnightblue" d="M640.871,-328.75C629.57,-310.206 607.38,-278.047 580,-260 556.936,-244.799 483.261,-226.179 440.181,-216.175"/>
<polygon fill="midnightblue" stroke="midnightblue" points="440.724,-212.709 430.194,-213.883 439.158,-219.532 440.724,-212.709"/>
</g>
<!-- Node30&#45;&gt;Node8 -->
<g id="edge68" class="edge"><title>Node30&#45;&gt;Node8</title>
<path fill="none" stroke="midnightblue" d="M594.959,-333.614C530.28,-322.38 421.459,-303.48 347.508,-290.636"/>
<polygon fill="midnightblue" stroke="midnightblue" points="347.765,-287.128 337.313,-288.865 346.567,-294.025 347.765,-287.128"/>
</g>
<!-- Node30&#45;&gt;Node11 -->
<g id="edge63" class="edge"><title>Node30&#45;&gt;Node11</title>
<path fill="none" stroke="midnightblue" d="M646.316,-328.964C642.11,-310.656 632.259,-278.757 612,-260 577.032,-227.624 548.28,-253.685 511,-224 489.208,-206.648 473.687,-177.763 465.281,-159.054"/>
<polygon fill="midnightblue" stroke="midnightblue" points="468.397,-157.437 461.255,-149.611 461.958,-160.183 468.397,-157.437"/>
</g>
<!-- Node30&#45;&gt;Node15 -->
<g id="edge69" class="edge"><title>Node30&#45;&gt;Node15</title>
<path fill="none" stroke="midnightblue" d="M703.064,-329.882C753.582,-317.624 828.148,-299.53 875.641,-288.006"/>
<polygon fill="midnightblue" stroke="midnightblue" points="876.745,-291.34 885.638,-285.58 875.095,-284.537 876.745,-291.34"/>
</g>
<!-- Node31 -->
<g id="node31" class="node"><title>Node31</title>
<polygon fill="white" stroke="#bfbfbf" points="1425.5,-266.5 1425.5,-285.5 1474.5,-285.5 1474.5,-266.5 1425.5,-266.5"/>
<text text-anchor="middle" x="1450" y="-273.5" font-family="Helvetica,sans-Serif" font-size="10.00">cassert</text>
</g>
<!-- Node30&#45;&gt;Node31 -->
<g id="edge62" class="edge"><title>Node30&#45;&gt;Node31</title>
<path fill="none" stroke="midnightblue" d="M703.211,-341.482C853.935,-336.928 1275.78,-321.813 1411,-292 1414.43,-291.243 1417.97,-290.235 1421.43,-289.098"/>
<polygon fill="midnightblue" stroke="midnightblue" points="1422.71,-292.359 1430.91,-285.654 1420.32,-285.779 1422.71,-292.359"/>
</g>
</g>
</svg>
