<?xml version="1.0" encoding="UTF-8" standalone="no"?>
<!DOCTYPE svg PUBLIC "-//W3C//DTD SVG 1.1//EN"
 "http://www.w3.org/Graphics/SVG/1.1/DTD/svg11.dtd">
<!-- Generated by graphviz version 2.36.0 (20140111.2315)
 -->
<!-- Title: include/shad/extensions/graph_library/local_edge_index.h Pages: 1 -->
<svg width="1725pt" height="446pt"
 viewBox="0.00 0.00 1725.26 446.00" xmlns="http://www.w3.org/2000/svg" xmlns:xlink="http://www.w3.org/1999/xlink">
<g id="graph0" class="graph" transform="scale(1 1) rotate(0) translate(4 442)">
<title>include/shad/extensions/graph_library/local_edge_index.h</title>
<polygon fill="white" stroke="none" points="-4,4 -4,-442 1721.26,-442 1721.26,4 -4,4"/>
<!-- Node1 -->
<g id="node1" class="node"><title>Node1</title>
<polygon fill="#bfbfbf" stroke="black" points="434.5,-396.5 434.5,-437.5 559.5,-437.5 559.5,-396.5 434.5,-396.5"/>
<text text-anchor="start" x="442.5" y="-425.5" font-family="Helvetica,sans-Serif" font-size="10.00">include/shad/extensions</text>
<text text-anchor="start" x="442.5" y="-414.5" font-family="Helvetica,sans-Serif" font-size="10.00">/graph_library/local_edge</text>
<text text-anchor="middle" x="497" y="-403.5" font-family="Helvetica,sans-Serif" font-size="10.00">_index.h</text>
</g>
<!-- Node2 -->
<g id="node2" class="node"><title>Node2</title>
<polygon fill="white" stroke="#bfbfbf" points="0,-198.5 0,-217.5 56,-217.5 56,-198.5 0,-198.5"/>
<text text-anchor="middle" x="28" y="-205.5" font-family="Helvetica,sans-Serif" font-size="10.00">algorithm</text>
</g>
<!-- Node1&#45;&gt;Node2 -->
<g id="edge1" class="edge"><title>Node1&#45;&gt;Node2</title>
<path fill="none" stroke="midnightblue" d="M434.367,-407.899C321.645,-391.942 91.6885,-352.636 42,-292 27.2729,-274.028 25.439,-246.363 26.1637,-227.978"/>
<polygon fill="midnightblue" stroke="midnightblue" points="29.6624,-228.115 26.8531,-217.9 22.6787,-227.637 29.6624,-228.115"/>
</g>
<!-- Node3 -->
<g id="node3" class="node"><title>Node3</title>
<polygon fill="white" stroke="#bfbfbf" points="457,-266.5 457,-285.5 503,-285.5 503,-266.5 457,-266.5"/>
<text text-anchor="middle" x="480" y="-273.5" font-family="Helvetica,sans-Serif" font-size="10.00">atomic</text>
</g>
<!-- Node1&#45;&gt;Node3 -->
<g id="edge2" class="edge"><title>Node1&#45;&gt;Node3</title>
<path fill="none" stroke="midnightblue" d="M494.6,-396.38C491.332,-369.652 485.519,-322.124 482.302,-295.82"/>
<polygon fill="midnightblue" stroke="midnightblue" points="485.749,-295.174 481.061,-285.673 478.801,-296.024 485.749,-295.174"/>
</g>
<!-- Node4 -->
<g id="node4" class="node"><title>Node4</title>
<polygon fill="white" stroke="#bfbfbf" points="723,-130.5 723,-149.5 775,-149.5 775,-130.5 723,-130.5"/>
<text text-anchor="middle" x="749" y="-137.5" font-family="Helvetica,sans-Serif" font-size="10.00">memory</text>
</g>
<!-- Node1&#45;&gt;Node4 -->
<g id="edge3" class="edge"><title>Node1&#45;&gt;Node4</title>
<path fill="none" stroke="midnightblue" d="M559.634,-411.767C600.92,-405.903 653.689,-392.133 689,-360 747.491,-306.774 751.156,-202.486 750.004,-159.847"/>
<polygon fill="midnightblue" stroke="midnightblue" points="753.497,-159.614 749.604,-149.76 746.503,-159.891 753.497,-159.614"/>
</g>
<!-- Node5 -->
<g id="node5" class="node"><title>Node5</title>
<polygon fill="white" stroke="#bfbfbf" points="521,-266.5 521,-285.5 559,-285.5 559,-266.5 521,-266.5"/>
<text text-anchor="middle" x="540" y="-273.5" font-family="Helvetica,sans-Serif" font-size="10.00">tuple</text>
</g>
<!-- Node1&#45;&gt;Node5 -->
<g id="edge4" class="edge"><title>Node1&#45;&gt;Node5</title>
<path fill="none" stroke="midnightblue" d="M503.07,-396.38C511.375,-369.533 526.173,-321.698 534.287,-295.468"/>
<polygon fill="midnightblue" stroke="midnightblue" points="537.705,-296.261 537.317,-285.673 531.018,-294.192 537.705,-296.261"/>
</g>
<!-- Node6 -->
<g id="node6" class="node"><title>Node6</title>
<polygon fill="white" stroke="#bfbfbf" points="681,-198.5 681,-217.5 721,-217.5 721,-198.5 681,-198.5"/>
<text text-anchor="middle" x="701" y="-205.5" font-family="Helvetica,sans-Serif" font-size="10.00">utility</text>
</g>
<!-- Node1&#45;&gt;Node6 -->
<g id="edge5" class="edge"><title>Node1&#45;&gt;Node6</title>
<path fill="none" stroke="midnightblue" d="M559.592,-405.842C592.659,-397.892 632.234,-383.991 661,-360 687.588,-337.826 689.871,-325.396 699,-292 704.806,-270.762 704.395,-245.318 703.12,-228.249"/>
<polygon fill="midnightblue" stroke="midnightblue" points="706.571,-227.56 702.164,-217.925 699.601,-228.205 706.571,-227.56"/>
</g>
<!-- Node7 -->
<g id="node7" class="node"><title>Node7</title>
<polygon fill="white" stroke="#bfbfbf" points="424,-198.5 424,-217.5 468,-217.5 468,-198.5 424,-198.5"/>
<text text-anchor="middle" x="446" y="-205.5" font-family="Helvetica,sans-Serif" font-size="10.00">vector</text>
</g>
<!-- Node1&#45;&gt;Node7 -->
<g id="edge6" class="edge"><title>Node1&#45;&gt;Node7</title>
<path fill="none" stroke="midnightblue" d="M434.422,-412.44C397.567,-406.737 353.662,-392.891 330,-360 292.782,-308.265 377.406,-248.815 421.467,-222.61"/>
<polygon fill="midnightblue" stroke="midnightblue" points="423.308,-225.589 430.195,-217.538 419.79,-219.537 423.308,-225.589"/>
</g>
<!-- Node8 -->
<g id="node8" class="node"><title>Node8</title>
<g id="a_node8"><a xlink:href="compare__and__hash__utils_8h.html" target="_top" xlink:title="shad/data_structures\l/compare_and_hash_utils.h">
<polygon fill="white" stroke="black" points="113,-261 113,-291 249,-291 249,-261 113,-261"/>
<text text-anchor="start" x="121" y="-279" font-family="Helvetica,sans-Serif" font-size="10.00">shad/data_structures</text>
<text text-anchor="middle" x="181" y="-268" font-family="Helvetica,sans-Serif" font-size="10.00">/compare_and_hash_utils.h</text>
</a>
</g>
</g>
<!-- Node1&#45;&gt;Node8 -->
<g id="edge7" class="edge"><title>Node1&#45;&gt;Node8</title>
<path fill="none" stroke="midnightblue" d="M434.451,-410.518C385.24,-404.041 316.313,-390.044 263,-360 236.067,-344.822 212.102,-318.24 197.139,-299.247"/>
<polygon fill="midnightblue" stroke="midnightblue" points="199.777,-296.936 190.919,-291.123 194.219,-301.191 199.777,-296.936"/>
</g>
<!-- Node14 -->
<g id="node14" class="node"><title>Node14</title>
<g id="a_node14"><a xlink:href="local__hashmap_8h.html" target="_top" xlink:title="shad/data_structures\l/local_hashmap.h">
<polygon fill="white" stroke="black" points="339,-329 339,-359 447,-359 447,-329 339,-329"/>
<text text-anchor="start" x="347" y="-347" font-family="Helvetica,sans-Serif" font-size="10.00">shad/data_structures</text>
<text text-anchor="middle" x="393" y="-336" font-family="Helvetica,sans-Serif" font-size="10.00">/local_hashmap.h</text>
</a>
</g>
</g>
<!-- Node1&#45;&gt;Node14 -->
<g id="edge17" class="edge"><title>Node1&#45;&gt;Node14</title>
<path fill="none" stroke="midnightblue" d="M468.306,-396.411C453.967,-386.622 436.646,-374.797 422.233,-364.957"/>
<polygon fill="midnightblue" stroke="midnightblue" points="423.919,-361.871 413.687,-359.123 419.972,-367.652 423.919,-361.871"/>
</g>
<!-- Node15 -->
<g id="node15" class="node"><title>Node15</title>
<g id="a_node15"><a xlink:href="runtime_8h.html" target="_top" xlink:title="shad/runtime/runtime.h">
<polygon fill="white" stroke="black" points="958,-266.5 958,-285.5 1074,-285.5 1074,-266.5 958,-266.5"/>
<text text-anchor="middle" x="1016" y="-273.5" font-family="Helvetica,sans-Serif" font-size="10.00">shad/runtime/runtime.h</text>
</a>
</g>
</g>
<!-- Node1&#45;&gt;Node15 -->
<g id="edge69" class="edge"><title>Node1&#45;&gt;Node15</title>
<path fill="none" stroke="midnightblue" d="M559.632,-407.144C619.628,-397.941 712.397,-381.823 791,-360 862.867,-340.047 944.329,-307.377 986.767,-289.557"/>
<polygon fill="midnightblue" stroke="midnightblue" points="988.348,-292.689 996.196,-285.572 985.623,-286.241 988.348,-292.689"/>
</g>
<!-- Node30 -->
<g id="node30" class="node"><title>Node30</title>
<g id="a_node30"><a xlink:href="local__set_8h.html" target="_top" xlink:title="shad/data_structures\l/local_set.h">
<polygon fill="white" stroke="black" points="544,-329 544,-359 652,-359 652,-329 544,-329"/>
<text text-anchor="start" x="552" y="-347" font-family="Helvetica,sans-Serif" font-size="10.00">shad/data_structures</text>
<text text-anchor="middle" x="598" y="-336" font-family="Helvetica,sans-Serif" font-size="10.00">/local_set.h</text>
</a>
</g>
</g>
<!-- Node1&#45;&gt;Node30 -->
<g id="edge59" class="edge"><title>Node1&#45;&gt;Node30</title>
<path fill="none" stroke="midnightblue" d="M524.866,-396.411C538.792,-386.622 555.613,-374.797 569.61,-364.957"/>
<polygon fill="midnightblue" stroke="midnightblue" points="571.742,-367.737 577.91,-359.123 567.716,-362.01 571.742,-367.737"/>
</g>
<!-- Node8&#45;&gt;Node2 -->
<g id="edge8" class="edge"><title>Node8&#45;&gt;Node2</title>
<path fill="none" stroke="midnightblue" d="M148.178,-260.841C121.239,-249.221 83.4321,-232.912 57.4554,-221.706"/>
<polygon fill="midnightblue" stroke="midnightblue" points="58.6946,-218.429 48.1262,-217.682 55.922,-224.857 58.6946,-218.429"/>
</g>
<!-- Node8&#45;&gt;Node7 -->
<g id="edge13" class="edge"><title>Node8&#45;&gt;Node7</title>
<path fill="none" stroke="midnightblue" d="M237.524,-260.922C291.281,-247.534 370.239,-227.869 413.937,-216.986"/>
<polygon fill="midnightblue" stroke="midnightblue" points="414.877,-220.358 423.735,-214.545 413.186,-213.566 414.877,-220.358"/>
</g>
<!-- Node9 -->
<g id="node9" class="node"><title>Node9</title>
<polygon fill="white" stroke="#bfbfbf" points="916,-62.5 916,-81.5 962,-81.5 962,-62.5 916,-62.5"/>
<text text-anchor="middle" x="939" y="-69.5" font-family="Helvetica,sans-Serif" font-size="10.00">cstdint</text>
</g>
<!-- Node8&#45;&gt;Node9 -->
<g id="edge9" class="edge"><title>Node8&#45;&gt;Node9</title>
<path fill="none" stroke="midnightblue" d="M162.189,-260.694C151.725,-251.504 139.694,-238.581 134,-224 116.924,-180.273 128.905,-149.985 168,-124 230.064,-82.7495 765.289,-74.6852 905.495,-73.275"/>
<polygon fill="midnightblue" stroke="midnightblue" points="905.667,-76.7736 915.633,-73.1779 905.6,-69.7739 905.667,-76.7736"/>
</g>
<!-- Node10 -->
<g id="node10" class="node"><title>Node10</title>
<polygon fill="white" stroke="#bfbfbf" points="284,-198.5 284,-217.5 330,-217.5 330,-198.5 284,-198.5"/>
<text text-anchor="middle" x="307" y="-205.5" font-family="Helvetica,sans-Serif" font-size="10.00">cstring</text>
</g>
<!-- Node8&#45;&gt;Node10 -->
<g id="edge10" class="edge"><title>Node8&#45;&gt;Node10</title>
<path fill="none" stroke="midnightblue" d="M208.03,-260.841C229.727,-249.476 259.983,-233.628 281.315,-222.454"/>
<polygon fill="midnightblue" stroke="midnightblue" points="283.191,-225.422 290.425,-217.682 279.943,-219.222 283.191,-225.422"/>
</g>
<!-- Node11 -->
<g id="node11" class="node"><title>Node11</title>
<polygon fill="white" stroke="#bfbfbf" points="366.5,-130.5 366.5,-149.5 425.5,-149.5 425.5,-130.5 366.5,-130.5"/>
<text text-anchor="middle" x="396" y="-137.5" font-family="Helvetica,sans-Serif" font-size="10.00">functional</text>
</g>
<!-- Node8&#45;&gt;Node11 -->
<g id="edge11" class="edge"><title>Node8&#45;&gt;Node11</title>
<path fill="none" stroke="midnightblue" d="M249.379,-263.261C279.042,-255.686 312.887,-243.468 339,-224 361.94,-206.898 378.848,-177.733 388.059,-158.923"/>
<polygon fill="midnightblue" stroke="midnightblue" points="391.315,-160.222 392.374,-149.68 384.972,-157.261 391.315,-160.222"/>
</g>
<!-- Node12 -->
<g id="node12" class="node"><title>Node12</title>
<polygon fill="white" stroke="#bfbfbf" points="177,-130.5 177,-149.5 239,-149.5 239,-130.5 177,-130.5"/>
<text text-anchor="middle" x="208" y="-137.5" font-family="Helvetica,sans-Serif" font-size="10.00">type_traits</text>
</g>
<!-- Node8&#45;&gt;Node12 -->
<g id="edge12" class="edge"><title>Node8&#45;&gt;Node12</title>
<path fill="none" stroke="midnightblue" d="M165.84,-260.856C150.023,-244.299 129.068,-216.079 141,-192 149.093,-175.668 165.197,-163.147 179.588,-154.598"/>
<polygon fill="midnightblue" stroke="midnightblue" points="181.644,-157.461 188.696,-149.555 178.253,-151.337 181.644,-157.461"/>
</g>
<!-- Node13 -->
<g id="node13" class="node"><title>Node13</title>
<g id="a_node13"><a xlink:href="type__traits_8h.html" target="_top" xlink:title="shad/core/type_traits.h">
<polygon fill="white" stroke="black" points="150,-198.5 150,-217.5 266,-217.5 266,-198.5 150,-198.5"/>
<text text-anchor="middle" x="208" y="-205.5" font-family="Helvetica,sans-Serif" font-size="10.00">shad/core/type_traits.h</text>
</a>
</g>
</g>
<!-- Node8&#45;&gt;Node13 -->
<g id="edge14" class="edge"><title>Node8&#45;&gt;Node13</title>
<path fill="none" stroke="midnightblue" d="M186.859,-260.679C190.86,-250.898 196.197,-237.852 200.508,-227.315"/>
<polygon fill="midnightblue" stroke="midnightblue" points="203.841,-228.409 204.388,-217.828 197.363,-225.759 203.841,-228.409"/>
</g>
<!-- Node13&#45;&gt;Node11 -->
<g id="edge15" class="edge"><title>Node13&#45;&gt;Node11</title>
<path fill="none" stroke="midnightblue" d="M232.578,-198.372C265.744,-186.728 324.96,-165.939 362.271,-152.841"/>
<polygon fill="midnightblue" stroke="midnightblue" points="363.438,-156.141 371.714,-149.526 361.119,-149.536 363.438,-156.141"/>
</g>
<!-- Node13&#45;&gt;Node12 -->
<g id="edge16" class="edge"><title>Node13&#45;&gt;Node12</title>
<path fill="none" stroke="midnightblue" d="M208,-198.372C208,-188.643 208,-172.528 208,-159.85"/>
<polygon fill="midnightblue" stroke="midnightblue" points="211.5,-159.841 208,-149.841 204.5,-159.841 211.5,-159.841"/>
</g>
<!-- Node14&#45;&gt;Node2 -->
<g id="edge18" class="edge"><title>Node14&#45;&gt;Node2</title>
<path fill="none" stroke="midnightblue" d="M338.971,-340.274C258.696,-335.269 112.886,-322.216 71,-292 49.4455,-276.451 37.8713,-246.828 32.3292,-227.502"/>
<polygon fill="midnightblue" stroke="midnightblue" points="35.6941,-226.535 29.7893,-217.738 28.9195,-228.297 35.6941,-226.535"/>
</g>
<!-- Node14&#45;&gt;Node3 -->
<g id="edge19" class="edge"><title>Node14&#45;&gt;Node3</title>
<path fill="none" stroke="midnightblue" d="M411.878,-328.679C426.114,-317.879 445.598,-303.098 460.082,-292.11"/>
<polygon fill="midnightblue" stroke="midnightblue" points="462.511,-294.661 468.363,-285.828 458.28,-289.084 462.511,-294.661"/>
</g>
<!-- Node14&#45;&gt;Node4 -->
<g id="edge21" class="edge"><title>Node14&#45;&gt;Node4</title>
<path fill="none" stroke="midnightblue" d="M392.92,-328.783C393.585,-310.572 397.437,-279.088 415,-260 436.031,-237.143 631.509,-176.359 713.291,-151.659"/>
<polygon fill="midnightblue" stroke="midnightblue" points="714.344,-154.997 722.91,-148.762 712.326,-148.295 714.344,-154.997"/>
</g>
<!-- Node14&#45;&gt;Node5 -->
<g id="edge22" class="edge"><title>Node14&#45;&gt;Node5</title>
<path fill="none" stroke="midnightblue" d="M427.985,-328.945C451.886,-319.116 484.149,-305.397 512,-292 513.146,-291.449 514.313,-290.875 515.488,-290.287"/>
<polygon fill="midnightblue" stroke="midnightblue" points="517.16,-293.363 524.426,-285.652 513.937,-287.149 517.16,-293.363"/>
</g>
<!-- Node14&#45;&gt;Node6 -->
<g id="edge23" class="edge"><title>Node14&#45;&gt;Node6</title>
<path fill="none" stroke="midnightblue" d="M398.361,-328.725C406.227,-309.845 422.758,-276.983 448,-260 466.406,-247.616 607.746,-223.871 670.799,-213.754"/>
<polygon fill="midnightblue" stroke="midnightblue" points="671.594,-217.172 680.918,-212.14 670.491,-210.259 671.594,-217.172"/>
</g>
<!-- Node14&#45;&gt;Node7 -->
<g id="edge24" class="edge"><title>Node14&#45;&gt;Node7</title>
<path fill="none" stroke="midnightblue" d="M384.993,-328.734C376.507,-311.567 365.765,-282.275 377,-260 385.389,-243.369 402.045,-230.816 416.891,-222.327"/>
<polygon fill="midnightblue" stroke="midnightblue" points="418.637,-225.362 425.811,-217.565 415.341,-219.187 418.637,-225.362"/>
</g>
<!-- Node14&#45;&gt;Node8 -->
<g id="edge25" class="edge"><title>Node14&#45;&gt;Node8</title>
<path fill="none" stroke="midnightblue" d="M347.781,-328.922C315.13,-318.757 270.859,-304.975 236.134,-294.164"/>
<polygon fill="midnightblue" stroke="midnightblue" points="236.738,-290.687 226.15,-291.056 234.657,-297.37 236.738,-290.687"/>
</g>
<!-- Node14&#45;&gt;Node11 -->
<g id="edge20" class="edge"><title>Node14&#45;&gt;Node11</title>
<path fill="none" stroke="midnightblue" d="M384.281,-328.882C378.69,-318.969 371.946,-305.179 369,-292 358.336,-244.296 376.844,-187.373 388.174,-158.974"/>
<polygon fill="midnightblue" stroke="midnightblue" points="391.479,-160.143 392.089,-149.566 385.016,-157.454 391.479,-160.143"/>
</g>
<!-- Node14&#45;&gt;Node15 -->
<g id="edge26" class="edge"><title>Node14&#45;&gt;Node15</title>
<path fill="none" stroke="midnightblue" d="M447.197,-337.258C560.647,-325.24 822.929,-297.454 947.686,-284.237"/>
<polygon fill="midnightblue" stroke="midnightblue" points="948.299,-287.692 957.875,-283.158 947.562,-280.731 948.299,-287.692"/>
</g>
<!-- Node15&#45;&gt;Node4 -->
<g id="edge33" class="edge"><title>Node15&#45;&gt;Node4</title>
<path fill="none" stroke="midnightblue" d="M971.575,-266.48C936.796,-258.642 887.956,-245.008 849,-224 815.441,-205.902 782.612,-175.529 764.173,-156.974"/>
<polygon fill="midnightblue" stroke="midnightblue" points="766.463,-154.309 756.976,-149.591 761.45,-159.195 766.463,-154.309"/>
</g>
<!-- Node15&#45;&gt;Node6 -->
<g id="edge36" class="edge"><title>Node15&#45;&gt;Node6</title>
<path fill="none" stroke="midnightblue" d="M975.142,-266.439C910.89,-252.977 787.715,-227.169 730.972,-215.28"/>
<polygon fill="midnightblue" stroke="midnightblue" points="731.684,-211.853 721.179,-213.228 730.249,-218.704 731.684,-211.853"/>
</g>
<!-- Node15&#45;&gt;Node7 -->
<g id="edge37" class="edge"><title>Node15&#45;&gt;Node7</title>
<path fill="none" stroke="midnightblue" d="M957.944,-268.278C838.958,-254.5 570.836,-223.455 478.202,-212.729"/>
<polygon fill="midnightblue" stroke="midnightblue" points="478.38,-209.226 468.044,-211.552 477.575,-216.18 478.38,-209.226"/>
</g>
<!-- Node15&#45;&gt;Node9 -->
<g id="edge28" class="edge"><title>Node15&#45;&gt;Node9</title>
<path fill="none" stroke="midnightblue" d="M957.771,-268.098C929.966,-261.547 899.095,-248.798 882,-224 851.747,-180.115 897.925,-118.076 923.653,-89.0923"/>
<polygon fill="midnightblue" stroke="midnightblue" points="926.41,-91.2639 930.58,-81.5246 921.246,-86.5372 926.41,-91.2639"/>
</g>
<!-- Node15&#45;&gt;Node11 -->
<g id="edge29" class="edge"><title>Node15&#45;&gt;Node11</title>
<path fill="none" stroke="midnightblue" d="M968.719,-266.481C924.664,-257.913 857.47,-243.227 801,-224 768.235,-212.844 763.192,-201.814 730,-192 626.575,-161.42 499.424,-148.459 435.979,-143.582"/>
<polygon fill="midnightblue" stroke="midnightblue" points="435.855,-140.063 425.624,-142.815 435.338,-147.044 435.855,-140.063"/>
</g>
<!-- Node16 -->
<g id="node16" class="node"><title>Node16</title>
<polygon fill="white" stroke="#bfbfbf" points="1298.5,-130.5 1298.5,-149.5 1347.5,-149.5 1347.5,-130.5 1298.5,-130.5"/>
<text text-anchor="middle" x="1323" y="-137.5" font-family="Helvetica,sans-Serif" font-size="10.00">cstddef</text>
</g>
<!-- Node15&#45;&gt;Node16 -->
<g id="edge27" class="edge"><title>Node15&#45;&gt;Node16</title>
<path fill="none" stroke="midnightblue" d="M1074.13,-275.767C1167.31,-275.615 1343.66,-269.181 1383,-224 1402.76,-201.308 1370.18,-172.349 1345.82,-155.324"/>
<polygon fill="midnightblue" stroke="midnightblue" points="1347.58,-152.293 1337.33,-149.625 1343.68,-158.105 1347.58,-152.293"/>
</g>
<!-- Node17 -->
<g id="node17" class="node"><title>Node17</title>
<polygon fill="white" stroke="#bfbfbf" points="891,-198.5 891,-217.5 945,-217.5 945,-198.5 891,-198.5"/>
<text text-anchor="middle" x="918" y="-205.5" font-family="Helvetica,sans-Serif" font-size="10.00">iostream</text>
</g>
<!-- Node15&#45;&gt;Node17 -->
<g id="edge30" class="edge"><title>Node15&#45;&gt;Node17</title>
<path fill="none" stroke="midnightblue" d="M1003.19,-266.372C986.974,-255.452 958.817,-236.489 939.336,-223.369"/>
<polygon fill="midnightblue" stroke="midnightblue" points="941.064,-220.313 930.815,-217.63 937.154,-226.12 941.064,-220.313"/>
</g>
<!-- Node18 -->
<g id="node18" class="node"><title>Node18</title>
<polygon fill="white" stroke="#bfbfbf" points="963.5,-198.5 963.5,-217.5 1010.5,-217.5 1010.5,-198.5 963.5,-198.5"/>
<text text-anchor="middle" x="987" y="-205.5" font-family="Helvetica,sans-Serif" font-size="10.00">iterator</text>
</g>
<!-- Node15&#45;&gt;Node18 -->
<g id="edge31" class="edge"><title>Node15&#45;&gt;Node18</title>
<path fill="none" stroke="midnightblue" d="M1012.21,-266.372C1007.85,-256.446 1000.57,-239.874 994.947,-227.086"/>
<polygon fill="midnightblue" stroke="midnightblue" points="998.112,-225.588 990.885,-217.841 991.703,-228.404 998.112,-225.588"/>
</g>
<!-- Node19 -->
<g id="node19" class="node"><title>Node19</title>
<polygon fill="white" stroke="#bfbfbf" points="1028.5,-198.5 1028.5,-217.5 1063.5,-217.5 1063.5,-198.5 1028.5,-198.5"/>
<text text-anchor="middle" x="1046" y="-205.5" font-family="Helvetica,sans-Serif" font-size="10.00">map</text>
</g>
<!-- Node15&#45;&gt;Node19 -->
<g id="edge32" class="edge"><title>Node15&#45;&gt;Node19</title>
<path fill="none" stroke="midnightblue" d="M1019.92,-266.372C1024.43,-256.446 1031.97,-239.874 1037.78,-227.086"/>
<polygon fill="midnightblue" stroke="midnightblue" points="1041.03,-228.393 1041.98,-217.841 1034.66,-225.496 1041.03,-228.393"/>
</g>
<!-- Node20 -->
<g id="node20" class="node"><title>Node20</title>
<polygon fill="white" stroke="#bfbfbf" points="1082,-198.5 1082,-217.5 1112,-217.5 1112,-198.5 1082,-198.5"/>
<text text-anchor="middle" x="1097" y="-205.5" font-family="Helvetica,sans-Serif" font-size="10.00">set</text>
</g>
<!-- Node15&#45;&gt;Node20 -->
<g id="edge34" class="edge"><title>Node15&#45;&gt;Node20</title>
<path fill="none" stroke="midnightblue" d="M1026.59,-266.372C1039.69,-255.699 1062.22,-237.343 1078.26,-224.268"/>
<polygon fill="midnightblue" stroke="midnightblue" points="1080.87,-226.661 1086.41,-217.63 1076.44,-221.234 1080.87,-226.661"/>
</g>
<!-- Node21 -->
<g id="node21" class="node"><title>Node21</title>
<polygon fill="white" stroke="#bfbfbf" points="1130,-198.5 1130,-217.5 1208,-217.5 1208,-198.5 1130,-198.5"/>
<text text-anchor="middle" x="1169" y="-205.5" font-family="Helvetica,sans-Serif" font-size="10.00">unordered_set</text>
</g>
<!-- Node15&#45;&gt;Node21 -->
<g id="edge35" class="edge"><title>Node15&#45;&gt;Node21</title>
<path fill="none" stroke="midnightblue" d="M1036,-266.372C1062.46,-254.958 1109.29,-234.756 1139.73,-221.625"/>
<polygon fill="midnightblue" stroke="midnightblue" points="1141.2,-224.805 1148.99,-217.63 1138.42,-218.378 1141.2,-224.805"/>
</g>
<!-- Node22 -->
<g id="node22" class="node"><title>Node22</title>
<polygon fill="white" stroke="#bfbfbf" points="1495,-0.5 1495,-19.5 1599,-19.5 1599,-0.5 1495,-0.5"/>
<text text-anchor="middle" x="1547" y="-7.5" font-family="Helvetica,sans-Serif" font-size="10.00">shad/config/config.h</text>
</g>
<!-- Node15&#45;&gt;Node22 -->
<g id="edge38" class="edge"><title>Node15&#45;&gt;Node22</title>
<path fill="none" stroke="midnightblue" d="M1074.26,-273.525C1219.6,-269.382 1589.76,-255.797 1635,-224 1700.11,-178.234 1744.51,-119.854 1697,-56 1685.99,-41.1957 1644.48,-29.4394 1607.91,-21.6608"/>
<polygon fill="midnightblue" stroke="midnightblue" points="1608.26,-18.1591 1597.76,-19.5731 1606.85,-25.0156 1608.26,-18.1591"/>
</g>
<!-- Node23 -->
<g id="node23" class="node"><title>Node23</title>
<g id="a_node23"><a xlink:href="handle_8h.html" target="_top" xlink:title="shad/runtime/handle.h">
<polygon fill="white" stroke="black" points="1490.5,-198.5 1490.5,-217.5 1603.5,-217.5 1603.5,-198.5 1490.5,-198.5"/>
<text text-anchor="middle" x="1547" y="-205.5" font-family="Helvetica,sans-Serif" font-size="10.00">shad/runtime/handle.h</text>
</a>
</g>
</g>
<!-- Node15&#45;&gt;Node23 -->
<g id="edge39" class="edge"><title>Node15&#45;&gt;Node23</title>
<path fill="none" stroke="midnightblue" d="M1074.34,-270.374C1161.91,-263.013 1332.41,-247.072 1476,-224 1483.78,-222.749 1492.01,-221.214 1499.98,-219.607"/>
<polygon fill="midnightblue" stroke="midnightblue" points="1500.83,-223.007 1509.91,-217.551 1499.41,-216.152 1500.83,-223.007"/>
</g>
<!-- Node24 -->
<g id="node24" class="node"><title>Node24</title>
<g id="a_node24"><a xlink:href="mapping__traits_8h.html" target="_top" xlink:title="shad/runtime/mapping\l_traits.h">
<polygon fill="white" stroke="black" points="1575.5,-57 1575.5,-87 1688.5,-87 1688.5,-57 1575.5,-57"/>
<text text-anchor="start" x="1583.5" y="-75" font-family="Helvetica,sans-Serif" font-size="10.00">shad/runtime/mapping</text>
<text text-anchor="middle" x="1632" y="-64" font-family="Helvetica,sans-Serif" font-size="10.00">_traits.h</text>
</a>
</g>
</g>
<!-- Node15&#45;&gt;Node24 -->
<g id="edge51" class="edge"><title>Node15&#45;&gt;Node24</title>
<path fill="none" stroke="midnightblue" d="M1074.25,-274.085C1216.66,-271.283 1573.62,-260.641 1612,-224 1646.17,-191.374 1642.39,-130.74 1636.98,-97.0828"/>
<polygon fill="midnightblue" stroke="midnightblue" points="1640.42,-96.4037 1635.22,-87.1728 1633.53,-97.6318 1640.42,-96.4037"/>
</g>
<!-- Node27 -->
<g id="node27" class="node"><title>Node27</title>
<g id="a_node27"><a xlink:href="locality_8h.html" target="_top" xlink:title="shad/runtime/locality.h">
<polygon fill="white" stroke="black" points="1165.5,-130.5 1165.5,-149.5 1280.5,-149.5 1280.5,-130.5 1165.5,-130.5"/>
<text text-anchor="middle" x="1223" y="-137.5" font-family="Helvetica,sans-Serif" font-size="10.00">shad/runtime/locality.h</text>
</a>
</g>
</g>
<!-- Node15&#45;&gt;Node27 -->
<g id="edge46" class="edge"><title>Node15&#45;&gt;Node27</title>
<path fill="none" stroke="midnightblue" d="M1074.35,-275.31C1163.95,-274.403 1329,-266.788 1366,-224 1375.3,-213.243 1374.2,-203.624 1366,-192 1354.75,-176.05 1308.67,-161.489 1271.82,-152.046"/>
<polygon fill="midnightblue" stroke="midnightblue" points="1272.26,-148.547 1261.71,-149.521 1270.56,-155.339 1272.26,-148.547"/>
</g>
<!-- Node28 -->
<g id="node28" class="node"><title>Node28</title>
<g id="a_node28"><a xlink:href="available__mappings_8h.html" target="_top" xlink:title="shad/runtime/mappings\l/available_mappings.h">
<polygon fill="white" stroke="black" points="1366,-125 1366,-155 1484,-155 1484,-125 1366,-125"/>
<text text-anchor="start" x="1374" y="-143" font-family="Helvetica,sans-Serif" font-size="10.00">shad/runtime/mappings</text>
<text text-anchor="middle" x="1425" y="-132" font-family="Helvetica,sans-Serif" font-size="10.00">/available_mappings.h</text>
</a>
</g>
</g>
<!-- Node15&#45;&gt;Node28 -->
<g id="edge52" class="edge"><title>Node15&#45;&gt;Node28</title>
<path fill="none" stroke="midnightblue" d="M1074.22,-274.765C1169.29,-273.183 1352.11,-264.755 1400,-224 1416.94,-209.582 1422.65,-184.143 1424.46,-165.217"/>
<polygon fill="midnightblue" stroke="midnightblue" points="1427.95,-165.429 1425.11,-155.221 1420.96,-164.971 1427.95,-165.429"/>
</g>
<!-- Node29 -->
<g id="node29" class="node"><title>Node29</title>
<g id="a_node29"><a xlink:href="synchronous__interface_8h.html" target="_top" xlink:title="shad/runtime/synchronous\l_interface.h">
<polygon fill="white" stroke="black" points="1226.5,-193 1226.5,-223 1357.5,-223 1357.5,-193 1226.5,-193"/>
<text text-anchor="start" x="1234.5" y="-211" font-family="Helvetica,sans-Serif" font-size="10.00">shad/runtime/synchronous</text>
<text text-anchor="middle" x="1292" y="-200" font-family="Helvetica,sans-Serif" font-size="10.00">_interface.h</text>
</a>
</g>
</g>
<!-- Node15&#45;&gt;Node29 -->
<g id="edge54" class="edge"><title>Node15&#45;&gt;Node29</title>
<path fill="none" stroke="midnightblue" d="M1051.8,-266.439C1095.12,-256.08 1169.01,-238.41 1223.43,-225.397"/>
<polygon fill="midnightblue" stroke="midnightblue" points="1224.44,-228.755 1233.35,-223.025 1222.81,-221.947 1224.44,-228.755"/>
</g>
<!-- Node23&#45;&gt;Node12 -->
<g id="edge40" class="edge"><title>Node23&#45;&gt;Node12</title>
<path fill="none" stroke="midnightblue" d="M1490.39,-201.62C1454.73,-198.402 1407.71,-194.471 1366,-192 918.056,-165.462 804.693,-186.489 357,-156 320.455,-153.511 279.006,-149.219 249.119,-145.861"/>
<polygon fill="midnightblue" stroke="midnightblue" points="249.388,-142.37 239.057,-144.717 248.597,-149.325 249.388,-142.37"/>
</g>
<!-- Node23&#45;&gt;Node22 -->
<g id="edge41" class="edge"><title>Node23&#45;&gt;Node22</title>
<path fill="none" stroke="midnightblue" d="M1547,-198.325C1547,-168.664 1547,-70.8504 1547,-29.6044"/>
<polygon fill="midnightblue" stroke="midnightblue" points="1550.5,-29.5746 1547,-19.5746 1543.5,-29.5746 1550.5,-29.5746"/>
</g>
<!-- Node23&#45;&gt;Node24 -->
<g id="edge42" class="edge"><title>Node23&#45;&gt;Node24</title>
<path fill="none" stroke="midnightblue" d="M1552.58,-198.208C1565.63,-177.629 1598.51,-125.797 1617.62,-95.6667"/>
<polygon fill="midnightblue" stroke="midnightblue" points="1620.67,-97.3905 1623.07,-87.0713 1614.76,-93.6409 1620.67,-97.3905"/>
</g>
<!-- Node26 -->
<g id="node26" class="node"><title>Node26</title>
<g id="a_node26"><a xlink:href="available__traits__mappings_8h.html" target="_top" xlink:title="shad/runtime/mappings\l/available_traits_mappings.h">
<polygon fill="white" stroke="black" points="1355,-57 1355,-87 1495,-87 1495,-57 1355,-57"/>
<text text-anchor="start" x="1363" y="-75" font-family="Helvetica,sans-Serif" font-size="10.00">shad/runtime/mappings</text>
<text text-anchor="middle" x="1425" y="-64" font-family="Helvetica,sans-Serif" font-size="10.00">/available_traits_mappings.h</text>
</a>
</g>
</g>
<!-- Node23&#45;&gt;Node26 -->
<g id="edge45" class="edge"><title>Node23&#45;&gt;Node26</title>
<path fill="none" stroke="midnightblue" d="M1542.66,-198.302C1534.45,-182.379 1515.43,-147.979 1493,-124 1482.11,-112.354 1468.29,-101.453 1455.97,-92.7425"/>
<polygon fill="midnightblue" stroke="midnightblue" points="1457.95,-89.8577 1447.72,-87.0801 1453.98,-95.6274 1457.95,-89.8577"/>
</g>
<!-- Node24&#45;&gt;Node22 -->
<g id="edge44" class="edge"><title>Node24&#45;&gt;Node22</title>
<path fill="none" stroke="midnightblue" d="M1611.86,-56.7808C1598.41,-47.2862 1580.78,-34.8434 1567.3,-25.3267"/>
<polygon fill="midnightblue" stroke="midnightblue" points="1569.31,-22.4632 1559.12,-19.5557 1565.27,-28.182 1569.31,-22.4632"/>
</g>
<!-- Node25 -->
<g id="node25" class="node"><title>Node25</title>
<polygon fill="white" stroke="#bfbfbf" points="1617.5,-0.5 1617.5,-19.5 1658.5,-19.5 1658.5,-0.5 1617.5,-0.5"/>
<text text-anchor="middle" x="1638" y="-7.5" font-family="Helvetica,sans-Serif" font-size="10.00">string</text>
</g>
<!-- Node24&#45;&gt;Node25 -->
<g id="edge43" class="edge"><title>Node24&#45;&gt;Node25</title>
<path fill="none" stroke="midnightblue" d="M1633.42,-56.7808C1634.23,-48.6913 1635.25,-38.4617 1636.13,-29.725"/>
<polygon fill="midnightblue" stroke="midnightblue" points="1639.61,-30.0292 1637.13,-19.7305 1632.65,-29.3326 1639.61,-30.0292"/>
</g>
<!-- Node27&#45;&gt;Node9 -->
<g id="edge47" class="edge"><title>Node27&#45;&gt;Node9</title>
<path fill="none" stroke="midnightblue" d="M1186.16,-130.439C1130.44,-117.491 1025.58,-93.1203 972.134,-80.7"/>
<polygon fill="midnightblue" stroke="midnightblue" points="972.693,-77.2368 962.16,-78.3822 971.108,-84.0551 972.693,-77.2368"/>
</g>
<!-- Node27&#45;&gt;Node22 -->
<g id="edge48" class="edge"><title>Node27&#45;&gt;Node22</title>
<path fill="none" stroke="midnightblue" d="M1232.77,-130.495C1252.65,-113.633 1299.87,-75.8823 1346,-56 1390.5,-36.82 1444.21,-25.3363 1484.91,-18.7753"/>
<polygon fill="midnightblue" stroke="midnightblue" points="1485.62,-22.207 1494.97,-17.2116 1484.55,-15.2901 1485.62,-22.207"/>
</g>
<!-- Node27&#45;&gt;Node24 -->
<g id="edge49" class="edge"><title>Node27&#45;&gt;Node24</title>
<path fill="none" stroke="midnightblue" d="M1259.06,-130.424C1269.05,-128.186 1279.92,-125.877 1290,-124 1385.01,-106.305 1495.77,-90.6966 1564.9,-81.5484"/>
<polygon fill="midnightblue" stroke="midnightblue" points="1565.75,-84.9666 1575.21,-80.1912 1564.84,-78.0264 1565.75,-84.9666"/>
</g>
<!-- Node27&#45;&gt;Node26 -->
<g id="edge50" class="edge"><title>Node27&#45;&gt;Node26</title>
<path fill="none" stroke="midnightblue" d="M1249.41,-130.372C1280.46,-120.225 1332.78,-103.133 1372.24,-90.2375"/>
<polygon fill="midnightblue" stroke="midnightblue" points="1373.56,-93.489 1381.98,-87.0562 1371.39,-86.8351 1373.56,-93.489"/>
</g>
<!-- Node28&#45;&gt;Node26 -->
<g id="edge53" class="edge"><title>Node28&#45;&gt;Node26</title>
<path fill="none" stroke="midnightblue" d="M1425,-124.679C1425,-116.722 1425,-106.605 1425,-97.4356"/>
<polygon fill="midnightblue" stroke="midnightblue" points="1428.5,-97.293 1425,-87.2931 1421.5,-97.2931 1428.5,-97.293"/>
</g>
<!-- Node29&#45;&gt;Node4 -->
<g id="edge57" class="edge"><title>Node29&#45;&gt;Node4</title>
<path fill="none" stroke="midnightblue" d="M1226.21,-193.498C1223.1,-192.968 1220.02,-192.465 1217,-192 1057.11,-167.349 864.685,-150.328 785.626,-143.876"/>
<polygon fill="midnightblue" stroke="midnightblue" points="785.487,-140.354 775.238,-143.036 784.923,-147.331 785.487,-140.354"/>
</g>
<!-- Node29&#45;&gt;Node9 -->
<g id="edge56" class="edge"><title>Node29&#45;&gt;Node9</title>
<path fill="none" stroke="midnightblue" d="M1254.74,-192.955C1227.63,-182.726 1190.03,-168.527 1157,-156 1090.75,-130.873 1013.22,-101.32 970.781,-85.1295"/>
<polygon fill="midnightblue" stroke="midnightblue" points="971.865,-81.7972 961.275,-81.5024 969.37,-88.3373 971.865,-81.7972"/>
</g>
<!-- Node29&#45;&gt;Node16 -->
<g id="edge55" class="edge"><title>Node29&#45;&gt;Node16</title>
<path fill="none" stroke="midnightblue" d="M1298.73,-192.679C1303.37,-182.796 1309.58,-169.579 1314.55,-158.986"/>
<polygon fill="midnightblue" stroke="midnightblue" points="1317.77,-160.368 1318.85,-149.828 1311.43,-157.392 1317.77,-160.368"/>
</g>
<!-- Node29&#45;&gt;Node27 -->
<g id="edge58" class="edge"><title>Node29&#45;&gt;Node27</title>
<path fill="none" stroke="midnightblue" d="M1277.03,-192.679C1266.06,-182.184 1251.16,-167.932 1239.78,-157.052"/>
<polygon fill="midnightblue" stroke="midnightblue" points="1241.88,-154.211 1232.23,-149.828 1237.04,-159.27 1241.88,-154.211"/>
</g>
<!-- Node30&#45;&gt;Node2 -->
<g id="edge60" class="edge"><title>Node30&#45;&gt;Node2</title>
<path fill="none" stroke="midnightblue" d="M543.723,-337.224C517.263,-334.419 484.972,-331.012 456,-328 377.791,-319.87 174.258,-327.306 104,-292 96.1092,-288.035 61.4573,-248.272 41.7794,-225.253"/>
<polygon fill="midnightblue" stroke="midnightblue" points="44.433,-222.971 35.2845,-217.627 39.1039,-227.51 44.433,-222.971"/>
</g>
<!-- Node30&#45;&gt;Node3 -->
<g id="edge61" class="edge"><title>Node30&#45;&gt;Node3</title>
<path fill="none" stroke="midnightblue" d="M572.686,-328.841C552.459,-317.528 524.287,-301.771 504.325,-290.605"/>
<polygon fill="midnightblue" stroke="midnightblue" points="505.958,-287.509 495.522,-285.682 502.541,-293.618 505.958,-287.509"/>
</g>
<!-- Node30&#45;&gt;Node4 -->
<g id="edge63" class="edge"><title>Node30&#45;&gt;Node4</title>
<path fill="none" stroke="midnightblue" d="M611.716,-328.835C620.511,-319.119 631.621,-305.574 639,-292 661.353,-250.881 643.592,-229.194 672,-192 684.448,-175.702 703.677,-162.96 719.805,-154.288"/>
<polygon fill="midnightblue" stroke="midnightblue" points="721.556,-157.324 728.868,-149.656 718.37,-151.09 721.556,-157.324"/>
</g>
<!-- Node30&#45;&gt;Node5 -->
<g id="edge64" class="edge"><title>Node30&#45;&gt;Node5</title>
<path fill="none" stroke="midnightblue" d="M585.415,-328.679C576.282,-318.286 563.91,-304.208 554.386,-293.37"/>
<polygon fill="midnightblue" stroke="midnightblue" points="556.988,-291.03 547.758,-285.828 551.73,-295.65 556.988,-291.03"/>
</g>
<!-- Node30&#45;&gt;Node6 -->
<g id="edge65" class="edge"><title>Node30&#45;&gt;Node6</title>
<path fill="none" stroke="midnightblue" d="M630.505,-328.844C646.615,-320.313 665.114,-307.981 677,-292 691.167,-272.953 696.99,-245.738 699.371,-227.731"/>
<polygon fill="midnightblue" stroke="midnightblue" points="702.867,-227.957 700.473,-217.636 695.909,-227.197 702.867,-227.957"/>
</g>
<!-- Node30&#45;&gt;Node7 -->
<g id="edge66" class="edge"><title>Node30&#45;&gt;Node7</title>
<path fill="none" stroke="midnightblue" d="M596.396,-328.851C593.636,-310.714 586.383,-279.309 568,-260 543.998,-234.789 505.629,-221.551 478.332,-214.948"/>
<polygon fill="midnightblue" stroke="midnightblue" points="478.99,-211.508 468.466,-212.73 477.455,-218.338 478.99,-211.508"/>
</g>
<!-- Node30&#45;&gt;Node8 -->
<g id="edge67" class="edge"><title>Node30&#45;&gt;Node8</title>
<path fill="none" stroke="midnightblue" d="M543.912,-334.439C471.383,-322.96 342.14,-302.504 259.067,-289.356"/>
<polygon fill="midnightblue" stroke="midnightblue" points="259.596,-285.896 249.171,-287.79 258.501,-292.81 259.596,-285.896"/>
</g>
<!-- Node30&#45;&gt;Node11 -->
<g id="edge62" class="edge"><title>Node30&#45;&gt;Node11</title>
<path fill="none" stroke="midnightblue" d="M600.672,-328.904C603.213,-311.381 604.96,-281.202 592,-260 556.7,-202.25 481.833,-168.719 435.527,-152.71"/>
<polygon fill="midnightblue" stroke="midnightblue" points="436.416,-149.317 425.822,-149.466 434.197,-155.956 436.416,-149.317"/>
</g>
<!-- Node30&#45;&gt;Node15 -->
<g id="edge68" class="edge"><title>Node30&#45;&gt;Node15</title>
<path fill="none" stroke="midnightblue" d="M652.218,-334.439C729.194,-322.285 869.899,-300.069 951.929,-287.116"/>
<polygon fill="midnightblue" stroke="midnightblue" points="952.547,-290.562 961.878,-285.546 951.455,-283.648 952.547,-290.562"/>
</g>
</g>
</svg>
