<?xml version="1.0" encoding="UTF-8" standalone="no"?>
<!DOCTYPE svg PUBLIC "-//W3C//DTD SVG 1.1//EN"
 "http://www.w3.org/Graphics/SVG/1.1/DTD/svg11.dtd">
<!-- Generated by graphviz version 2.36.0 (20140111.2315)
 -->
<!-- Title: include/shad/data_structures/local_hashmap.h Pages: 1 -->
<svg width="1557pt" height="368pt"
 viewBox="0.00 0.00 1556.58 368.00" xmlns="http://www.w3.org/2000/svg" xmlns:xlink="http://www.w3.org/1999/xlink">
<g id="graph0" class="graph" transform="scale(1 1) rotate(0) translate(4 364)">
<title>include/shad/data_structures/local_hashmap.h</title>
<polygon fill="white" stroke="none" points="-4,4 -4,-364 1552.58,-364 1552.58,4 -4,4"/>
<!-- Node1 -->
<g id="node1" class="node"><title>Node1</title>
<polygon fill="#bfbfbf" stroke="black" points="810.576,-329 810.576,-359 952.576,-359 952.576,-329 810.576,-329"/>
<text text-anchor="start" x="818.576" y="-347" font-family="Helvetica,sans-Serif" font-size="10.00">include/shad/data_structures</text>
<text text-anchor="middle" x="881.576" y="-336" font-family="Helvetica,sans-Serif" font-size="10.00">/local_hashmap.h</text>
</g>
<!-- Node2 -->
<g id="node2" class="node"><title>Node2</title>
<polygon fill="white" stroke="#bfbfbf" points="15.5759,-198.5 15.5759,-217.5 71.5759,-217.5 71.5759,-198.5 15.5759,-198.5"/>
<text text-anchor="middle" x="43.5759" y="-205.5" font-family="Helvetica,sans-Serif" font-size="10.00">algorithm</text>
</g>
<!-- Node1&#45;&gt;Node2 -->
<g id="edge1" class="edge"><title>Node1&#45;&gt;Node2</title>
<path fill="none" stroke="midnightblue" d="M810.459,-340.892C662.508,-335.962 326.152,-321.773 215.576,-292 158.463,-276.622 97.4263,-242.373 65.6678,-223.02"/>
<polygon fill="midnightblue" stroke="midnightblue" points="67.4974,-220.036 57.1507,-217.756 63.8176,-225.991 67.4974,-220.036"/>
</g>
<!-- Node3 -->
<g id="node3" class="node"><title>Node3</title>
<polygon fill="white" stroke="#bfbfbf" points="1446.58,-266.5 1446.58,-285.5 1492.58,-285.5 1492.58,-266.5 1446.58,-266.5"/>
<text text-anchor="middle" x="1469.58" y="-273.5" font-family="Helvetica,sans-Serif" font-size="10.00">atomic</text>
</g>
<!-- Node1&#45;&gt;Node3 -->
<g id="edge2" class="edge"><title>Node1&#45;&gt;Node3</title>
<path fill="none" stroke="midnightblue" d="M952.679,-343.014C1058.71,-341.563 1263.86,-333.061 1432.58,-292 1435.64,-291.254 1438.79,-290.298 1441.89,-289.232"/>
<polygon fill="midnightblue" stroke="midnightblue" points="1443.39,-292.405 1451.48,-285.567 1440.89,-285.866 1443.39,-292.405"/>
</g>
<!-- Node4 -->
<g id="node4" class="node"><title>Node4</title>
<polygon fill="white" stroke="#bfbfbf" points="177.076,-130.5 177.076,-149.5 236.076,-149.5 236.076,-130.5 177.076,-130.5"/>
<text text-anchor="middle" x="206.576" y="-137.5" font-family="Helvetica,sans-Serif" font-size="10.00">functional</text>
</g>
<!-- Node1&#45;&gt;Node4 -->
<g id="edge3" class="edge"><title>Node1&#45;&gt;Node4</title>
<path fill="none" stroke="midnightblue" d="M810.346,-341.918C649.054,-338.859 260.191,-327.883 134.576,-292 72.6352,-274.306 39.7637,-279.211 6.57589,-224 -30.3606,-162.552 98.7287,-146.595 166.977,-142.452"/>
<polygon fill="midnightblue" stroke="midnightblue" points="167.183,-145.946 176.976,-141.903 166.799,-138.956 167.183,-145.946"/>
</g>
<!-- Node5 -->
<g id="node5" class="node"><title>Node5</title>
<polygon fill="white" stroke="#bfbfbf" points="1204.58,-130.5 1204.58,-149.5 1256.58,-149.5 1256.58,-130.5 1204.58,-130.5"/>
<text text-anchor="middle" x="1230.58" y="-137.5" font-family="Helvetica,sans-Serif" font-size="10.00">memory</text>
</g>
<!-- Node1&#45;&gt;Node5 -->
<g id="edge4" class="edge"><title>Node1&#45;&gt;Node5</title>
<path fill="none" stroke="midnightblue" d="M952.637,-337.76C1081.86,-326.548 1346.9,-295.221 1399.58,-224 1436.25,-174.414 1327.07,-152.835 1267.11,-144.914"/>
<polygon fill="midnightblue" stroke="midnightblue" points="1267.24,-141.403 1256.88,-143.632 1266.37,-148.349 1267.24,-141.403"/>
</g>
<!-- Node6 -->
<g id="node6" class="node"><title>Node6</title>
<polygon fill="white" stroke="#bfbfbf" points="1510.58,-266.5 1510.58,-285.5 1548.58,-285.5 1548.58,-266.5 1510.58,-266.5"/>
<text text-anchor="middle" x="1529.58" y="-273.5" font-family="Helvetica,sans-Serif" font-size="10.00">tuple</text>
</g>
<!-- Node1&#45;&gt;Node6 -->
<g id="edge5" class="edge"><title>Node1&#45;&gt;Node6</title>
<path fill="none" stroke="midnightblue" d="M952.664,-340.788C1092.92,-335.83 1400.45,-321.841 1501.58,-292 1503.28,-291.496 1505.01,-290.88 1506.72,-290.188"/>
<polygon fill="midnightblue" stroke="midnightblue" points="1508.62,-293.156 1516.1,-285.655 1505.57,-286.853 1508.62,-293.156"/>
</g>
<!-- Node7 -->
<g id="node7" class="node"><title>Node7</title>
<polygon fill="white" stroke="#bfbfbf" points="1350.58,-198.5 1350.58,-217.5 1390.58,-217.5 1390.58,-198.5 1350.58,-198.5"/>
<text text-anchor="middle" x="1370.58" y="-205.5" font-family="Helvetica,sans-Serif" font-size="10.00">utility</text>
</g>
<!-- Node1&#45;&gt;Node7 -->
<g id="edge6" class="edge"><title>Node1&#45;&gt;Node7</title>
<path fill="none" stroke="midnightblue" d="M948.885,-328.934C1038.58,-309.392 1201.66,-271.065 1336.58,-224 1338.7,-223.258 1340.88,-222.438 1343.06,-221.577"/>
<polygon fill="midnightblue" stroke="midnightblue" points="1344.57,-224.739 1352.44,-217.641 1341.86,-218.285 1344.57,-224.739"/>
</g>
<!-- Node8 -->
<g id="node8" class="node"><title>Node8</title>
<polygon fill="white" stroke="#bfbfbf" points="363.576,-198.5 363.576,-217.5 407.576,-217.5 407.576,-198.5 363.576,-198.5"/>
<text text-anchor="middle" x="385.576" y="-205.5" font-family="Helvetica,sans-Serif" font-size="10.00">vector</text>
</g>
<!-- Node1&#45;&gt;Node8 -->
<g id="edge7" class="edge"><title>Node1&#45;&gt;Node8</title>
<path fill="none" stroke="midnightblue" d="M815.208,-328.94C725.017,-309.131 559.206,-270.216 421.576,-224 419.161,-223.189 416.678,-222.292 414.2,-221.353"/>
<polygon fill="midnightblue" stroke="midnightblue" points="415.4,-218.063 404.815,-217.607 412.805,-224.565 415.4,-218.063"/>
</g>
<!-- Node9 -->
<g id="node9" class="node"><title>Node9</title>
<g id="a_node9"><a xlink:href="compare__and__hash__utils_8h.html" target="_top" xlink:title="shad/data_structures\l/compare_and_hash_utils.h">
<polygon fill="white" stroke="black" points="224.576,-261 224.576,-291 360.576,-291 360.576,-261 224.576,-261"/>
<text text-anchor="start" x="232.576" y="-279" font-family="Helvetica,sans-Serif" font-size="10.00">shad/data_structures</text>
<text text-anchor="middle" x="292.576" y="-268" font-family="Helvetica,sans-Serif" font-size="10.00">/compare_and_hash_utils.h</text>
</a>
</g>
</g>
<!-- Node1&#45;&gt;Node9 -->
<g id="edge8" class="edge"><title>Node1&#45;&gt;Node9</title>
<path fill="none" stroke="midnightblue" d="M810.529,-335.039C699.597,-322.609 486.052,-298.68 370.844,-285.77"/>
<polygon fill="midnightblue" stroke="midnightblue" points="371.014,-282.268 360.687,-284.632 370.235,-289.224 371.014,-282.268"/>
</g>
<!-- Node14 -->
<g id="node14" class="node"><title>Node14</title>
<g id="a_node14"><a xlink:href="runtime_8h.html" target="_top" xlink:title="shad/runtime/runtime.h">
<polygon fill="white" stroke="black" points="823.576,-266.5 823.576,-285.5 939.576,-285.5 939.576,-266.5 823.576,-266.5"/>
<text text-anchor="middle" x="881.576" y="-273.5" font-family="Helvetica,sans-Serif" font-size="10.00">shad/runtime/runtime.h</text>
</a>
</g>
</g>
<!-- Node1&#45;&gt;Node14 -->
<g id="edge18" class="edge"><title>Node1&#45;&gt;Node14</title>
<path fill="none" stroke="midnightblue" d="M881.576,-328.679C881.576,-319.101 881.576,-306.394 881.576,-295.977"/>
<polygon fill="midnightblue" stroke="midnightblue" points="885.076,-295.828 881.576,-285.828 878.076,-295.828 885.076,-295.828"/>
</g>
<!-- Node9&#45;&gt;Node2 -->
<g id="edge9" class="edge"><title>Node9&#45;&gt;Node2</title>
<path fill="none" stroke="midnightblue" d="M224.553,-261.341C182.616,-252.256 127.974,-239.215 80.5759,-224 78.0041,-223.174 75.3579,-222.253 72.7195,-221.283"/>
<polygon fill="midnightblue" stroke="midnightblue" points="73.9349,-218 63.3459,-217.649 71.4043,-224.527 73.9349,-218"/>
</g>
<!-- Node9&#45;&gt;Node4 -->
<g id="edge12" class="edge"><title>Node9&#45;&gt;Node4</title>
<path fill="none" stroke="midnightblue" d="M232.149,-260.915C212.976,-253.287 193.849,-241.652 182.576,-224 169.565,-203.627 182.446,-176.012 193.777,-158.347"/>
<polygon fill="midnightblue" stroke="midnightblue" points="196.962,-159.89 199.738,-149.665 191.192,-155.928 196.962,-159.89"/>
</g>
<!-- Node9&#45;&gt;Node8 -->
<g id="edge14" class="edge"><title>Node9&#45;&gt;Node8</title>
<path fill="none" stroke="midnightblue" d="M312.756,-260.679C328.207,-249.713 349.44,-234.645 364.991,-223.609"/>
<polygon fill="midnightblue" stroke="midnightblue" points="367.275,-226.28 373.404,-217.638 363.224,-220.571 367.275,-226.28"/>
</g>
<!-- Node10 -->
<g id="node10" class="node"><title>Node10</title>
<polygon fill="white" stroke="#bfbfbf" points="1086.58,-62.5 1086.58,-81.5 1132.58,-81.5 1132.58,-62.5 1086.58,-62.5"/>
<text text-anchor="middle" x="1109.58" y="-69.5" font-family="Helvetica,sans-Serif" font-size="10.00">cstdint</text>
</g>
<!-- Node9&#45;&gt;Node10 -->
<g id="edge10" class="edge"><title>Node9&#45;&gt;Node10</title>
<path fill="none" stroke="midnightblue" d="M360.703,-267.736C428.057,-259.8 533.766,-245.306 623.576,-224 764.024,-190.68 794.54,-166.21 932.576,-124 982.538,-108.722 1040.82,-92.1734 1076.45,-82.1982"/>
<polygon fill="midnightblue" stroke="midnightblue" points="1077.62,-85.5052 1086.31,-79.4439 1075.74,-78.7633 1077.62,-85.5052"/>
</g>
<!-- Node11 -->
<g id="node11" class="node"><title>Node11</title>
<polygon fill="white" stroke="#bfbfbf" points="89.5759,-198.5 89.5759,-217.5 135.576,-217.5 135.576,-198.5 89.5759,-198.5"/>
<text text-anchor="middle" x="112.576" y="-205.5" font-family="Helvetica,sans-Serif" font-size="10.00">cstring</text>
</g>
<!-- Node9&#45;&gt;Node11 -->
<g id="edge11" class="edge"><title>Node9&#45;&gt;Node11</title>
<path fill="none" stroke="midnightblue" d="M251.725,-260.95C223.031,-250.954 183.815,-237.039 149.576,-224 147.335,-223.147 145.024,-222.25 142.703,-221.337"/>
<polygon fill="midnightblue" stroke="midnightblue" points="143.843,-218.024 133.258,-217.565 141.247,-224.525 143.843,-218.024"/>
</g>
<!-- Node12 -->
<g id="node12" class="node"><title>Node12</title>
<polygon fill="white" stroke="#bfbfbf" points="304.576,-130.5 304.576,-149.5 366.576,-149.5 366.576,-130.5 304.576,-130.5"/>
<text text-anchor="middle" x="335.576" y="-137.5" font-family="Helvetica,sans-Serif" font-size="10.00">type_traits</text>
</g>
<!-- Node9&#45;&gt;Node12 -->
<g id="edge13" class="edge"><title>Node9&#45;&gt;Node12</title>
<path fill="none" stroke="midnightblue" d="M299.749,-260.999C304.703,-250.911 311.169,-236.864 315.576,-224 322.914,-202.581 328.616,-177.173 332.021,-160.161"/>
<polygon fill="midnightblue" stroke="midnightblue" points="335.547,-160.359 334.004,-149.878 328.674,-159.034 335.547,-160.359"/>
</g>
<!-- Node13 -->
<g id="node13" class="node"><title>Node13</title>
<g id="a_node13"><a xlink:href="type__traits_8h.html" target="_top" xlink:title="shad/core/type_traits.h">
<polygon fill="white" stroke="black" points="191.576,-198.5 191.576,-217.5 307.576,-217.5 307.576,-198.5 191.576,-198.5"/>
<text text-anchor="middle" x="249.576" y="-205.5" font-family="Helvetica,sans-Serif" font-size="10.00">shad/core/type_traits.h</text>
</a>
</g>
</g>
<!-- Node9&#45;&gt;Node13 -->
<g id="edge15" class="edge"><title>Node9&#45;&gt;Node13</title>
<path fill="none" stroke="midnightblue" d="M283.246,-260.679C276.674,-250.592 267.84,-237.033 260.87,-226.335"/>
<polygon fill="midnightblue" stroke="midnightblue" points="263.719,-224.296 255.328,-217.828 257.854,-228.118 263.719,-224.296"/>
</g>
<!-- Node13&#45;&gt;Node4 -->
<g id="edge16" class="edge"><title>Node13&#45;&gt;Node4</title>
<path fill="none" stroke="midnightblue" d="M243.954,-198.372C237.36,-188.25 226.262,-171.215 217.867,-158.331"/>
<polygon fill="midnightblue" stroke="midnightblue" points="220.727,-156.309 212.336,-149.841 214.862,-160.13 220.727,-156.309"/>
</g>
<!-- Node13&#45;&gt;Node12 -->
<g id="edge17" class="edge"><title>Node13&#45;&gt;Node12</title>
<path fill="none" stroke="midnightblue" d="M260.819,-198.372C274.854,-187.6 299.088,-169.002 316.152,-155.906"/>
<polygon fill="midnightblue" stroke="midnightblue" points="318.528,-158.495 324.33,-149.63 314.266,-152.942 318.528,-158.495"/>
</g>
<!-- Node14&#45;&gt;Node4 -->
<g id="edge21" class="edge"><title>Node14&#45;&gt;Node4</title>
<path fill="none" stroke="midnightblue" d="M823.326,-271.591C723.564,-265.152 524.48,-249.513 459.576,-224 437.072,-215.154 437.514,-202.169 415.576,-192 385.714,-178.157 297.905,-159.201 246.093,-148.734"/>
<polygon fill="midnightblue" stroke="midnightblue" points="246.732,-145.293 236.239,-146.758 245.355,-152.156 246.732,-145.293"/>
</g>
<!-- Node14&#45;&gt;Node5 -->
<g id="edge25" class="edge"><title>Node14&#45;&gt;Node5</title>
<path fill="none" stroke="midnightblue" d="M939.58,-274.957C1027.75,-273.545 1189.23,-265.225 1226.58,-224 1242.21,-206.743 1239.72,-178.25 1235.74,-159.551"/>
<polygon fill="midnightblue" stroke="midnightblue" points="1239.08,-158.47 1233.29,-149.597 1232.29,-160.144 1239.08,-158.47"/>
</g>
<!-- Node14&#45;&gt;Node7 -->
<g id="edge28" class="edge"><title>Node14&#45;&gt;Node7</title>
<path fill="none" stroke="midnightblue" d="M939.723,-274.095C1027.27,-271.484 1197.48,-261.533 1336.58,-224 1339.23,-223.284 1341.94,-222.391 1344.62,-221.4"/>
<polygon fill="midnightblue" stroke="midnightblue" points="1346.09,-224.577 1354,-217.52 1343.42,-218.109 1346.09,-224.577"/>
</g>
<!-- Node14&#45;&gt;Node8 -->
<g id="edge29" class="edge"><title>Node14&#45;&gt;Node8</title>
<path fill="none" stroke="midnightblue" d="M823.255,-273.817C734.986,-270.85 562.784,-260.448 421.576,-224 418.591,-223.23 415.529,-222.259 412.512,-221.183"/>
<polygon fill="midnightblue" stroke="midnightblue" points="413.763,-217.914 403.176,-217.507 411.198,-224.427 413.763,-217.914"/>
</g>
<!-- Node14&#45;&gt;Node10 -->
<g id="edge20" class="edge"><title>Node14&#45;&gt;Node10</title>
<path fill="none" stroke="midnightblue" d="M939.787,-270.297C1036.71,-261.963 1222.84,-243.62 1245.58,-224 1279.89,-194.388 1292.18,-160.692 1265.58,-124 1237.64,-85.4746 1179.76,-75.5102 1142.89,-73.2378"/>
<polygon fill="midnightblue" stroke="midnightblue" points="1142.79,-69.7295 1132.64,-72.7697 1142.47,-76.7222 1142.79,-69.7295"/>
</g>
<!-- Node15 -->
<g id="node15" class="node"><title>Node15</title>
<polygon fill="white" stroke="#bfbfbf" points="942.076,-130.5 942.076,-149.5 991.076,-149.5 991.076,-130.5 942.076,-130.5"/>
<text text-anchor="middle" x="966.576" y="-137.5" font-family="Helvetica,sans-Serif" font-size="10.00">cstddef</text>
</g>
<!-- Node14&#45;&gt;Node15 -->
<g id="edge19" class="edge"><title>Node14&#45;&gt;Node15</title>
<path fill="none" stroke="midnightblue" d="M933.885,-266.468C958.828,-259.487 986.463,-246.844 1001.58,-224 1015.74,-202.592 997.351,-174.515 982.332,-157.122"/>
<polygon fill="midnightblue" stroke="midnightblue" points="984.715,-154.541 975.387,-149.517 979.546,-159.262 984.715,-154.541"/>
</g>
<!-- Node16 -->
<g id="node16" class="node"><title>Node16</title>
<polygon fill="white" stroke="#bfbfbf" points="1244.58,-62.5 1244.58,-81.5 1298.58,-81.5 1298.58,-62.5 1244.58,-62.5"/>
<text text-anchor="middle" x="1271.58" y="-69.5" font-family="Helvetica,sans-Serif" font-size="10.00">iostream</text>
</g>
<!-- Node14&#45;&gt;Node16 -->
<g id="edge22" class="edge"><title>Node14&#45;&gt;Node16</title>
<path fill="none" stroke="midnightblue" d="M939.796,-271.142C1042.84,-263.775 1248.79,-246.42 1272.58,-224 1308.74,-189.914 1290.8,-123.509 1279.05,-91.3406"/>
<polygon fill="midnightblue" stroke="midnightblue" points="1282.25,-89.9136 1275.39,-81.8401 1275.72,-92.4298 1282.25,-89.9136"/>
</g>
<!-- Node17 -->
<g id="node17" class="node"><title>Node17</title>
<polygon fill="white" stroke="#bfbfbf" points="748.076,-198.5 748.076,-217.5 795.076,-217.5 795.076,-198.5 748.076,-198.5"/>
<text text-anchor="middle" x="771.576" y="-205.5" font-family="Helvetica,sans-Serif" font-size="10.00">iterator</text>
</g>
<!-- Node14&#45;&gt;Node17 -->
<g id="edge23" class="edge"><title>Node14&#45;&gt;Node17</title>
<path fill="none" stroke="midnightblue" d="M867.195,-266.372C848.749,-255.304 816.53,-235.972 794.639,-222.838"/>
<polygon fill="midnightblue" stroke="midnightblue" points="796.336,-219.774 785.96,-217.63 792.734,-225.777 796.336,-219.774"/>
</g>
<!-- Node18 -->
<g id="node18" class="node"><title>Node18</title>
<polygon fill="white" stroke="#bfbfbf" points="813.076,-198.5 813.076,-217.5 848.076,-217.5 848.076,-198.5 813.076,-198.5"/>
<text text-anchor="middle" x="830.576" y="-205.5" font-family="Helvetica,sans-Serif" font-size="10.00">map</text>
</g>
<!-- Node14&#45;&gt;Node18 -->
<g id="edge24" class="edge"><title>Node14&#45;&gt;Node18</title>
<path fill="none" stroke="midnightblue" d="M874.909,-266.372C867.011,-256.151 853.668,-238.884 843.679,-225.957"/>
<polygon fill="midnightblue" stroke="midnightblue" points="846.292,-223.614 837.408,-217.841 840.753,-227.894 846.292,-223.614"/>
</g>
<!-- Node19 -->
<g id="node19" class="node"><title>Node19</title>
<polygon fill="white" stroke="#bfbfbf" points="866.576,-198.5 866.576,-217.5 896.576,-217.5 896.576,-198.5 866.576,-198.5"/>
<text text-anchor="middle" x="881.576" y="-205.5" font-family="Helvetica,sans-Serif" font-size="10.00">set</text>
</g>
<!-- Node14&#45;&gt;Node19 -->
<g id="edge26" class="edge"><title>Node14&#45;&gt;Node19</title>
<path fill="none" stroke="midnightblue" d="M881.576,-266.372C881.576,-256.643 881.576,-240.528 881.576,-227.85"/>
<polygon fill="midnightblue" stroke="midnightblue" points="885.076,-227.841 881.576,-217.841 878.076,-227.841 885.076,-227.841"/>
</g>
<!-- Node20 -->
<g id="node20" class="node"><title>Node20</title>
<polygon fill="white" stroke="#bfbfbf" points="914.576,-198.5 914.576,-217.5 992.576,-217.5 992.576,-198.5 914.576,-198.5"/>
<text text-anchor="middle" x="953.576" y="-205.5" font-family="Helvetica,sans-Serif" font-size="10.00">unordered_set</text>
</g>
<!-- Node14&#45;&gt;Node20 -->
<g id="edge27" class="edge"><title>Node14&#45;&gt;Node20</title>
<path fill="none" stroke="midnightblue" d="M890.989,-266.372C902.46,-255.856 922.068,-237.882 936.285,-224.85"/>
<polygon fill="midnightblue" stroke="midnightblue" points="938.925,-227.178 943.931,-217.841 934.194,-222.018 938.925,-227.178"/>
</g>
<!-- Node21 -->
<g id="node21" class="node"><title>Node21</title>
<polygon fill="white" stroke="#bfbfbf" points="543.576,-0.5 543.576,-19.5 647.576,-19.5 647.576,-0.5 543.576,-0.5"/>
<text text-anchor="middle" x="595.576" y="-7.5" font-family="Helvetica,sans-Serif" font-size="10.00">shad/config/config.h</text>
</g>
<!-- Node14&#45;&gt;Node21 -->
<g id="edge30" class="edge"><title>Node14&#45;&gt;Node21</title>
<path fill="none" stroke="midnightblue" d="M823.225,-271.534C720.008,-264.804 514.027,-248.447 492.576,-224 458.192,-184.814 464.571,-173.195 545.576,-56 553.485,-44.5572 564.858,-34.0209 574.76,-26.0247"/>
<polygon fill="midnightblue" stroke="midnightblue" points="577.184,-28.5753 582.959,-19.6927 572.905,-23.0352 577.184,-28.5753"/>
</g>
<!-- Node22 -->
<g id="node22" class="node"><title>Node22</title>
<g id="a_node22"><a xlink:href="handle_8h.html" target="_top" xlink:title="shad/runtime/handle.h">
<polygon fill="white" stroke="black" points="502.076,-198.5 502.076,-217.5 615.076,-217.5 615.076,-198.5 502.076,-198.5"/>
<text text-anchor="middle" x="558.576" y="-205.5" font-family="Helvetica,sans-Serif" font-size="10.00">shad/runtime/handle.h</text>
</a>
</g>
</g>
<!-- Node14&#45;&gt;Node22 -->
<g id="edge31" class="edge"><title>Node14&#45;&gt;Node22</title>
<path fill="none" stroke="midnightblue" d="M838.748,-266.448C788.59,-256.406 703.012,-239.188 629.576,-224 622.862,-222.611 615.793,-221.135 608.825,-219.672"/>
<polygon fill="midnightblue" stroke="midnightblue" points="609.247,-216.184 598.74,-217.548 607.804,-223.033 609.247,-216.184"/>
</g>
<!-- Node23 -->
<g id="node23" class="node"><title>Node23</title>
<g id="a_node23"><a xlink:href="mapping__traits_8h.html" target="_top" xlink:title="shad/runtime/mapping\l_traits.h">
<polygon fill="white" stroke="black" points="729.076,-57 729.076,-87 842.076,-87 842.076,-57 729.076,-57"/>
<text text-anchor="start" x="737.076" y="-75" font-family="Helvetica,sans-Serif" font-size="10.00">shad/runtime/mapping</text>
<text text-anchor="middle" x="785.576" y="-64" font-family="Helvetica,sans-Serif" font-size="10.00">_traits.h</text>
</a>
</g>
</g>
<!-- Node14&#45;&gt;Node23 -->
<g id="edge44" class="edge"><title>Node14&#45;&gt;Node23</title>
<path fill="none" stroke="midnightblue" d="M823.569,-269.972C792.931,-264.023 757.789,-251.251 738.576,-224 710.376,-184.004 744.23,-126.502 767.397,-95.2603"/>
<polygon fill="midnightblue" stroke="midnightblue" points="770.283,-97.2479 773.587,-87.1814 764.727,-92.9903 770.283,-97.2479"/>
</g>
<!-- Node26 -->
<g id="node26" class="node"><title>Node26</title>
<g id="a_node26"><a xlink:href="locality_8h.html" target="_top" xlink:title="shad/runtime/locality.h">
<polygon fill="white" stroke="black" points="1009.08,-130.5 1009.08,-149.5 1124.08,-149.5 1124.08,-130.5 1009.08,-130.5"/>
<text text-anchor="middle" x="1066.58" y="-137.5" font-family="Helvetica,sans-Serif" font-size="10.00">shad/runtime/locality.h</text>
</a>
</g>
</g>
<!-- Node14&#45;&gt;Node26 -->
<g id="edge38" class="edge"><title>Node14&#45;&gt;Node26</title>
<path fill="none" stroke="midnightblue" d="M925.576,-266.5C954.293,-259.156 991.208,-246.125 1017.58,-224 1038.46,-206.475 1052.61,-177.637 1060.14,-158.985"/>
<polygon fill="midnightblue" stroke="midnightblue" points="1063.43,-160.166 1063.72,-149.575 1056.89,-157.674 1063.43,-160.166"/>
</g>
<!-- Node27 -->
<g id="node27" class="node"><title>Node27</title>
<g id="a_node27"><a xlink:href="available__mappings_8h.html" target="_top" xlink:title="shad/runtime/mappings\l/available_mappings.h">
<polygon fill="white" stroke="black" points="601.576,-125 601.576,-155 719.576,-155 719.576,-125 601.576,-125"/>
<text text-anchor="start" x="609.576" y="-143" font-family="Helvetica,sans-Serif" font-size="10.00">shad/runtime/mappings</text>
<text text-anchor="middle" x="660.576" y="-132" font-family="Helvetica,sans-Serif" font-size="10.00">/available_mappings.h</text>
</a>
</g>
</g>
<!-- Node14&#45;&gt;Node27 -->
<g id="edge45" class="edge"><title>Node14&#45;&gt;Node27</title>
<path fill="none" stroke="midnightblue" d="M823.205,-269.644C786.139,-263.648 739.024,-250.938 705.576,-224 686.726,-208.819 674.65,-183.538 667.805,-164.858"/>
<polygon fill="midnightblue" stroke="midnightblue" points="671.074,-163.599 664.531,-155.266 664.449,-165.861 671.074,-163.599"/>
</g>
<!-- Node28 -->
<g id="node28" class="node"><title>Node28</title>
<g id="a_node28"><a xlink:href="synchronous__interface_8h.html" target="_top" xlink:title="shad/runtime/synchronous\l_interface.h">
<polygon fill="white" stroke="black" points="1087.08,-193 1087.08,-223 1218.08,-223 1218.08,-193 1087.08,-193"/>
<text text-anchor="start" x="1095.08" y="-211" font-family="Helvetica,sans-Serif" font-size="10.00">shad/runtime/synchronous</text>
<text text-anchor="middle" x="1152.58" y="-200" font-family="Helvetica,sans-Serif" font-size="10.00">_interface.h</text>
</a>
</g>
</g>
<!-- Node14&#45;&gt;Node28 -->
<g id="edge47" class="edge"><title>Node14&#45;&gt;Node28</title>
<path fill="none" stroke="midnightblue" d="M916.727,-266.439C959.263,-256.08 1031.82,-238.41 1085.25,-225.397"/>
<polygon fill="midnightblue" stroke="midnightblue" points="1086.1,-228.792 1094.99,-223.025 1084.45,-221.99 1086.1,-228.792"/>
</g>
<!-- Node22&#45;&gt;Node12 -->
<g id="edge32" class="edge"><title>Node22&#45;&gt;Node12</title>
<path fill="none" stroke="midnightblue" d="M529.423,-198.372C489.664,-186.604 418.343,-165.496 374.181,-152.426"/>
<polygon fill="midnightblue" stroke="midnightblue" points="374.965,-149.008 364.383,-149.526 372.979,-155.72 374.965,-149.008"/>
</g>
<!-- Node22&#45;&gt;Node21 -->
<g id="edge33" class="edge"><title>Node22&#45;&gt;Node21</title>
<path fill="none" stroke="midnightblue" d="M556.142,-198.428C553.422,-188.367 549.189,-171.131 547.576,-156 542.818,-111.375 543.07,-96.8846 561.576,-56 566.311,-45.5394 573.842,-35.2199 580.614,-27.1072"/>
<polygon fill="midnightblue" stroke="midnightblue" points="583.289,-29.3657 587.248,-19.5383 578.024,-24.7519 583.289,-29.3657"/>
</g>
<!-- Node22&#45;&gt;Node23 -->
<g id="edge34" class="edge"><title>Node22&#45;&gt;Node23</title>
<path fill="none" stroke="midnightblue" d="M559.597,-198.259C562.051,-181.316 569.868,-143.924 592.576,-124 597.55,-119.636 665.295,-102.324 719.136,-89.0682"/>
<polygon fill="midnightblue" stroke="midnightblue" points="720.132,-92.4277 729.009,-86.6443 718.463,-85.6295 720.132,-92.4277"/>
</g>
<!-- Node25 -->
<g id="node25" class="node"><title>Node25</title>
<g id="a_node25"><a xlink:href="available__traits__mappings_8h.html" target="_top" xlink:title="shad/runtime/mappings\l/available_traits_mappings.h">
<polygon fill="white" stroke="black" points="570.576,-57 570.576,-87 710.576,-87 710.576,-57 570.576,-57"/>
<text text-anchor="start" x="578.576" y="-75" font-family="Helvetica,sans-Serif" font-size="10.00">shad/runtime/mappings</text>
<text text-anchor="middle" x="640.576" y="-64" font-family="Helvetica,sans-Serif" font-size="10.00">/available_traits_mappings.h</text>
</a>
</g>
</g>
<!-- Node22&#45;&gt;Node25 -->
<g id="edge37" class="edge"><title>Node22&#45;&gt;Node25</title>
<path fill="none" stroke="midnightblue" d="M556.136,-198.309C552.19,-182.398 546.128,-148.016 559.576,-124 567.235,-110.322 580.249,-99.7992 593.63,-91.9637"/>
<polygon fill="midnightblue" stroke="midnightblue" points="595.301,-95.0392 602.425,-87.1965 591.965,-88.8852 595.301,-95.0392"/>
</g>
<!-- Node23&#45;&gt;Node21 -->
<g id="edge36" class="edge"><title>Node23&#45;&gt;Node21</title>
<path fill="none" stroke="midnightblue" d="M741.029,-56.9327C707.873,-46.4624 663.167,-32.3445 632.106,-22.5358"/>
<polygon fill="midnightblue" stroke="midnightblue" points="633.123,-19.1865 622.533,-19.5127 631.015,-25.8616 633.123,-19.1865"/>
</g>
<!-- Node24 -->
<g id="node24" class="node"><title>Node24</title>
<polygon fill="white" stroke="#bfbfbf" points="765.076,-0.5 765.076,-19.5 806.076,-19.5 806.076,-0.5 765.076,-0.5"/>
<text text-anchor="middle" x="785.576" y="-7.5" font-family="Helvetica,sans-Serif" font-size="10.00">string</text>
</g>
<!-- Node23&#45;&gt;Node24 -->
<g id="edge35" class="edge"><title>Node23&#45;&gt;Node24</title>
<path fill="none" stroke="midnightblue" d="M785.576,-56.7808C785.576,-48.7812 785.576,-38.6887 785.576,-30.0168"/>
<polygon fill="midnightblue" stroke="midnightblue" points="789.076,-29.7305 785.576,-19.7305 782.076,-29.7306 789.076,-29.7305"/>
</g>
<!-- Node26&#45;&gt;Node10 -->
<g id="edge39" class="edge"><title>Node26&#45;&gt;Node10</title>
<path fill="none" stroke="midnightblue" d="M1072.2,-130.372C1078.79,-120.25 1089.89,-103.215 1098.28,-90.3312"/>
<polygon fill="midnightblue" stroke="midnightblue" points="1101.29,-92.1304 1103.82,-81.8411 1095.42,-88.3092 1101.29,-92.1304"/>
</g>
<!-- Node26&#45;&gt;Node16 -->
<g id="edge40" class="edge"><title>Node26&#45;&gt;Node16</title>
<path fill="none" stroke="midnightblue" d="M1093.38,-130.372C1129.77,-118.654 1194.94,-97.6737 1235.57,-84.5912"/>
<polygon fill="midnightblue" stroke="midnightblue" points="1236.65,-87.9221 1245.09,-81.5259 1234.5,-81.259 1236.65,-87.9221"/>
</g>
<!-- Node26&#45;&gt;Node21 -->
<g id="edge41" class="edge"><title>Node26&#45;&gt;Node21</title>
<path fill="none" stroke="midnightblue" d="M1047.92,-130.421C1011,-113.762 925.672,-76.8457 850.576,-56 786.006,-38.0765 710.175,-25.7688 658.089,-18.6139"/>
<polygon fill="midnightblue" stroke="midnightblue" points="658.377,-15.1211 647.998,-17.2515 657.44,-22.0582 658.377,-15.1211"/>
</g>
<!-- Node26&#45;&gt;Node23 -->
<g id="edge42" class="edge"><title>Node26&#45;&gt;Node23</title>
<path fill="none" stroke="midnightblue" d="M1030.13,-130.439C985.09,-119.861 907.598,-101.66 851.904,-88.5789"/>
<polygon fill="midnightblue" stroke="midnightblue" points="852.655,-85.1601 842.12,-86.2808 851.055,-91.9747 852.655,-85.1601"/>
</g>
<!-- Node26&#45;&gt;Node25 -->
<g id="edge43" class="edge"><title>Node26&#45;&gt;Node25</title>
<path fill="none" stroke="midnightblue" d="M1031.23,-130.446C1021.05,-128.157 1009.91,-125.817 999.576,-124 879.141,-102.823 845.197,-107.453 720.669,-88.1108"/>
<polygon fill="midnightblue" stroke="midnightblue" points="721.172,-84.6469 710.749,-86.5494 720.083,-91.5617 721.172,-84.6469"/>
</g>
<!-- Node27&#45;&gt;Node25 -->
<g id="edge46" class="edge"><title>Node27&#45;&gt;Node25</title>
<path fill="none" stroke="midnightblue" d="M656.236,-124.679C653.799,-116.636 650.692,-106.385 647.89,-97.1369"/>
<polygon fill="midnightblue" stroke="midnightblue" points="651.157,-95.8483 644.907,-87.2931 644.458,-97.8784 651.157,-95.8483"/>
</g>
<!-- Node28&#45;&gt;Node5 -->
<g id="edge50" class="edge"><title>Node28&#45;&gt;Node5</title>
<path fill="none" stroke="midnightblue" d="M1169.5,-192.679C1182.14,-181.981 1199.4,-167.377 1212.35,-156.422"/>
<polygon fill="midnightblue" stroke="midnightblue" points="1214.77,-158.96 1220.14,-149.828 1210.25,-153.616 1214.77,-158.96"/>
</g>
<!-- Node28&#45;&gt;Node10 -->
<g id="edge49" class="edge"><title>Node28&#45;&gt;Node10</title>
<path fill="none" stroke="midnightblue" d="M1150.03,-192.968C1146.81,-176.279 1140.69,-147.697 1132.58,-124 1128.7,-112.679 1123.23,-100.443 1118.59,-90.794"/>
<polygon fill="midnightblue" stroke="midnightblue" points="1121.73,-89.2437 1114.17,-81.8224 1115.45,-92.3393 1121.73,-89.2437"/>
</g>
<!-- Node28&#45;&gt;Node15 -->
<g id="edge48" class="edge"><title>Node28&#45;&gt;Node15</title>
<path fill="none" stroke="midnightblue" d="M1106.96,-192.902C1076.57,-183.214 1035.87,-169.675 1000.58,-156 998.681,-155.266 996.737,-154.485 994.786,-153.681"/>
<polygon fill="midnightblue" stroke="midnightblue" points="995.724,-150.275 985.153,-149.564 992.973,-156.712 995.724,-150.275"/>
</g>
<!-- Node28&#45;&gt;Node26 -->
<g id="edge51" class="edge"><title>Node28&#45;&gt;Node26</title>
<path fill="none" stroke="midnightblue" d="M1133.92,-192.679C1119.84,-181.879 1100.58,-167.098 1086.27,-156.11"/>
<polygon fill="midnightblue" stroke="midnightblue" points="1088.14,-153.14 1078.08,-149.828 1083.88,-158.693 1088.14,-153.14"/>
</g>
</g>
</svg>
