<?xml version="1.0" encoding="UTF-8" standalone="no"?>
<!DOCTYPE svg PUBLIC "-//W3C//DTD SVG 1.1//EN"
 "http://www.w3.org/Graphics/SVG/1.1/DTD/svg11.dtd">
<!-- Generated by graphviz version 2.36.0 (20140111.2315)
 -->
<!-- Title: include/shad/data_structures/local_set.h Pages: 1 -->
<svg width="405pt" height="264pt"
 viewBox="0.00 0.00 405.02 264.00" xmlns="http://www.w3.org/2000/svg" xmlns:xlink="http://www.w3.org/1999/xlink">
<g id="graph0" class="graph" transform="scale(1 1) rotate(0) translate(4 260)">
<title>include/shad/data_structures/local_set.h</title>
<polygon fill="white" stroke="none" points="-4,4 -4,-260 401.022,-260 401.022,4 -4,4"/>
<!-- Node1 -->
<g id="node1" class="node"><title>Node1</title>
<polygon fill="#bfbfbf" stroke="black" points="166.022,-225 166.022,-255 308.022,-255 308.022,-225 166.022,-225"/>
<text text-anchor="start" x="174.022" y="-243" font-family="Helvetica,sans-Serif" font-size="10.00">include/shad/data_structures</text>
<text text-anchor="middle" x="237.022" y="-232" font-family="Helvetica,sans-Serif" font-size="10.00">/local_set.h</text>
</g>
<!-- Node2 -->
<g id="node2" class="node"><title>Node2</title>
<g id="a_node2"><a xlink:href="set_8h.html" target="_top" xlink:title="include/shad/data_structures\l/set.h">
<polygon fill="white" stroke="black" points="13.0219,-152 13.0219,-182 155.022,-182 155.022,-152 13.0219,-152"/>
<text text-anchor="start" x="21.0219" y="-170" font-family="Helvetica,sans-Serif" font-size="10.00">include/shad/data_structures</text>
<text text-anchor="middle" x="84.0219" y="-159" font-family="Helvetica,sans-Serif" font-size="10.00">/set.h</text>
</a>
</g>
</g>
<!-- Node1&#45;&gt;Node2 -->
<g id="edge1" class="edge"><title>Node1&#45;&gt;Node2</title>
<path fill="none" stroke="midnightblue" d="M197.619,-220.715C171.711,-208.692 138.313,-193.194 114.448,-182.12"/>
<polygon fill="midnightblue" stroke="midnightblue" points="196.25,-223.938 206.794,-224.973 199.196,-217.588 196.25,-223.938"/>
</g>
<!-- Node5 -->
<g id="node5" class="node"><title>Node5</title>
<g id="a_node5"><a xlink:href="attributed__edge__index_8h.html" target="_top" xlink:title="include/shad/extensions\l/graph_library/attributed\l_edge_index.h">
<polygon fill="white" stroke="black" points="275.022,-0.5 275.022,-41.5 397.022,-41.5 397.022,-0.5 275.022,-0.5"/>
<text text-anchor="start" x="283.022" y="-29.5" font-family="Helvetica,sans-Serif" font-size="10.00">include/shad/extensions</text>
<text text-anchor="start" x="283.022" y="-18.5" font-family="Helvetica,sans-Serif" font-size="10.00">/graph_library/attributed</text>
<text text-anchor="middle" x="336.022" y="-7.5" font-family="Helvetica,sans-Serif" font-size="10.00">_edge_index.h</text>
</a>
</g>
</g>
<!-- Node1&#45;&gt;Node5 -->
<g id="edge4" class="edge"><title>Node1&#45;&gt;Node5</title>
<path fill="none" stroke="midnightblue" d="M312.962,-220.926C329.147,-213.436 344.279,-202.875 354.022,-188 383.803,-142.532 360.303,-74.618 345.595,-41.529"/>
<polygon fill="midnightblue" stroke="midnightblue" points="311.193,-217.874 303.344,-224.99 313.918,-224.322 311.193,-217.874"/>
</g>
<!-- Node6 -->
<g id="node6" class="node"><title>Node6</title>
<g id="a_node6"><a xlink:href="edge__index_8h.html" target="_top" xlink:title="include/shad/extensions\l/graph_library/edge_index.h">
<polygon fill="white" stroke="black" points="172.022,-79 172.022,-109 308.022,-109 308.022,-79 172.022,-79"/>
<text text-anchor="start" x="180.022" y="-97" font-family="Helvetica,sans-Serif" font-size="10.00">include/shad/extensions</text>
<text text-anchor="middle" x="240.022" y="-86" font-family="Helvetica,sans-Serif" font-size="10.00">/graph_library/edge_index.h</text>
</a>
</g>
</g>
<!-- Node1&#45;&gt;Node6 -->
<g id="edge5" class="edge"><title>Node1&#45;&gt;Node6</title>
<path fill="none" stroke="midnightblue" d="M222.447,-216.099C217.842,-207.612 213.349,-197.689 211.022,-188 206.662,-169.85 206.25,-164.046 211.022,-146 214.563,-132.608 222.526,-119.051 229.214,-109.285"/>
<polygon fill="midnightblue" stroke="midnightblue" points="219.548,-218.078 227.584,-224.982 225.607,-214.573 219.548,-218.078"/>
</g>
<!-- Node7 -->
<g id="node7" class="node"><title>Node7</title>
<g id="a_node7"><a xlink:href="local__edge__index_8h.html" target="_top" xlink:title="include/shad/extensions\l/graph_library/local_edge\l_index.h">
<polygon fill="white" stroke="black" points="220.522,-146.5 220.522,-187.5 345.522,-187.5 345.522,-146.5 220.522,-146.5"/>
<text text-anchor="start" x="228.522" y="-175.5" font-family="Helvetica,sans-Serif" font-size="10.00">include/shad/extensions</text>
<text text-anchor="start" x="228.522" y="-164.5" font-family="Helvetica,sans-Serif" font-size="10.00">/graph_library/local_edge</text>
<text text-anchor="middle" x="283.022" y="-153.5" font-family="Helvetica,sans-Serif" font-size="10.00">_index.h</text>
</a>
</g>
</g>
<!-- Node1&#45;&gt;Node7 -->
<g id="edge8" class="edge"><title>Node1&#45;&gt;Node7</title>
<path fill="none" stroke="midnightblue" d="M251.726,-216.305C257.701,-207.082 264.539,-196.528 270.296,-187.642"/>
<polygon fill="midnightblue" stroke="midnightblue" points="248.61,-214.677 246.11,-224.973 254.485,-218.483 248.61,-214.677"/>
</g>
<!-- Node3 -->
<g id="node3" class="node"><title>Node3</title>
<g id="a_node3"><a xlink:href="unordered__set_8h.html" target="_top" xlink:title="include/shad/core/unordered\l_set.h">
<polygon fill="white" stroke="black" points="14.5219,-79 14.5219,-109 153.522,-109 153.522,-79 14.5219,-79"/>
<text text-anchor="start" x="22.5219" y="-97" font-family="Helvetica,sans-Serif" font-size="10.00">include/shad/core/unordered</text>
<text text-anchor="middle" x="84.0219" y="-86" font-family="Helvetica,sans-Serif" font-size="10.00">_set.h</text>
</a>
</g>
</g>
<!-- Node2&#45;&gt;Node3 -->
<g id="edge2" class="edge"><title>Node2&#45;&gt;Node3</title>
<path fill="none" stroke="midnightblue" d="M84.0219,-141.898C84.0219,-131.131 84.0219,-118.801 84.0219,-109.486"/>
<polygon fill="midnightblue" stroke="midnightblue" points="80.522,-141.973 84.0219,-151.973 87.522,-141.973 80.522,-141.973"/>
</g>
<!-- Node4 -->
<g id="node4" class="node"><title>Node4</title>
<g id="a_node4"><a xlink:href="sssp_8h.html" target="_top" xlink:title="include/shad/extensions\l/graph_library/algorithms\l/sssp.h">
<polygon fill="white" stroke="black" points="29.5219,-0.5 29.5219,-41.5 152.522,-41.5 152.522,-0.5 29.5219,-0.5"/>
<text text-anchor="start" x="37.5219" y="-29.5" font-family="Helvetica,sans-Serif" font-size="10.00">include/shad/extensions</text>
<text text-anchor="start" x="37.5219" y="-18.5" font-family="Helvetica,sans-Serif" font-size="10.00">/graph_library/algorithms</text>
<text text-anchor="middle" x="91.0219" y="-7.5" font-family="Helvetica,sans-Serif" font-size="10.00">/sssp.h</text>
</a>
</g>
</g>
<!-- Node2&#45;&gt;Node4 -->
<g id="edge3" class="edge"><title>Node2&#45;&gt;Node4</title>
<path fill="none" stroke="midnightblue" d="M42.1769,-146.733C27.6899,-137.767 13.0768,-125.583 5.02192,-110 -1.50867,-97.3658 -1.75663,-90.5029 5.02192,-78 13.5138,-62.3369 28.4939,-50.3657 43.5976,-41.5921"/>
<polygon fill="midnightblue" stroke="midnightblue" points="40.7115,-149.928 51.121,-151.901 44.2139,-143.867 40.7115,-149.928"/>
</g>
<!-- Node6&#45;&gt;Node4 -->
<g id="edge6" class="edge"><title>Node6&#45;&gt;Node4</title>
<path fill="none" stroke="midnightblue" d="M201.488,-74.6383C180.161,-64.4756 153.659,-51.8473 131.96,-41.5075"/>
<polygon fill="midnightblue" stroke="midnightblue" points="200.051,-77.8306 210.584,-78.9727 203.062,-71.5113 200.051,-77.8306"/>
</g>
<!-- Node6&#45;&gt;Node5 -->
<g id="edge7" class="edge"><title>Node6&#45;&gt;Node5</title>
<path fill="none" stroke="midnightblue" d="M267.252,-72.8612C280.483,-63.0756 296.323,-51.3608 309.464,-41.642"/>
<polygon fill="midnightblue" stroke="midnightblue" points="264.947,-70.2124 258.988,-78.9727 269.11,-75.8404 264.947,-70.2124"/>
</g>
<!-- Node7&#45;&gt;Node5 -->
<g id="edge9" class="edge"><title>Node7&#45;&gt;Node5</title>
<path fill="none" stroke="midnightblue" d="M302.625,-137.837C307.929,-129.212 313.241,-119.489 317.022,-110 325.989,-87.4943 331.063,-59.9815 333.67,-41.7753"/>
<polygon fill="midnightblue" stroke="midnightblue" points="299.606,-136.062 297.165,-146.372 305.503,-139.834 299.606,-136.062"/>
</g>
<!-- Node7&#45;&gt;Node6 -->
<g id="edge10" class="edge"><title>Node7&#45;&gt;Node6</title>
<path fill="none" stroke="midnightblue" d="M265.776,-137.524C259.842,-127.726 253.458,-117.185 248.53,-109.049"/>
<polygon fill="midnightblue" stroke="midnightblue" points="262.87,-139.482 271.044,-146.223 268.857,-135.856 262.87,-139.482"/>
</g>
</g>
</svg>
