<?xml version="1.0" encoding="UTF-8" standalone="no"?>
<!DOCTYPE svg PUBLIC "-//W3C//DTD SVG 1.1//EN"
 "http://www.w3.org/Graphics/SVG/1.1/DTD/svg11.dtd">
<!-- Generated by graphviz version 2.36.0 (20140111.2315)
 -->
<!-- Title: include/shad/extensions/graph_library/local_edge_index.h Pages: 1 -->
<svg width="1873pt" height="446pt"
 viewBox="0.00 0.00 1873.41 446.00" xmlns="http://www.w3.org/2000/svg" xmlns:xlink="http://www.w3.org/1999/xlink">
<g id="graph0" class="graph" transform="scale(1 1) rotate(0) translate(4 442)">
<title>include/shad/extensions/graph_library/local_edge_index.h</title>
<polygon fill="white" stroke="none" points="-4,4 -4,-442 1869.41,-442 1869.41,4 -4,4"/>
<!-- Node1 -->
<g id="node1" class="node"><title>Node1</title>
<polygon fill="#bfbfbf" stroke="black" points="561.175,-396.5 561.175,-437.5 686.175,-437.5 686.175,-396.5 561.175,-396.5"/>
<text text-anchor="start" x="569.175" y="-425.5" font-family="Helvetica,sans-Serif" font-size="10.00">include/shad/extensions</text>
<text text-anchor="start" x="569.175" y="-414.5" font-family="Helvetica,sans-Serif" font-size="10.00">/graph_library/local_edge</text>
<text text-anchor="middle" x="623.675" y="-403.5" font-family="Helvetica,sans-Serif" font-size="10.00">_index.h</text>
</g>
<!-- Node2 -->
<g id="node2" class="node"><title>Node2</title>
<polygon fill="white" stroke="#bfbfbf" points="288.675,-198.5 288.675,-217.5 344.675,-217.5 344.675,-198.5 288.675,-198.5"/>
<text text-anchor="middle" x="316.675" y="-205.5" font-family="Helvetica,sans-Serif" font-size="10.00">algorithm</text>
</g>
<!-- Node1&#45;&gt;Node2 -->
<g id="edge1" class="edge"><title>Node1&#45;&gt;Node2</title>
<path fill="none" stroke="midnightblue" d="M561.112,-411.296C516.419,-405.254 456.81,-391.464 413.675,-360 365.954,-325.192 335.719,-259.134 323.24,-227.195"/>
<polygon fill="midnightblue" stroke="midnightblue" points="326.489,-225.891 319.689,-217.766 319.938,-228.358 326.489,-225.891"/>
</g>
<!-- Node3 -->
<g id="node3" class="node"><title>Node3</title>
<polygon fill="white" stroke="#bfbfbf" points="573.675,-266.5 573.675,-285.5 619.675,-285.5 619.675,-266.5 573.675,-266.5"/>
<text text-anchor="middle" x="596.675" y="-273.5" font-family="Helvetica,sans-Serif" font-size="10.00">atomic</text>
</g>
<!-- Node1&#45;&gt;Node3 -->
<g id="edge2" class="edge"><title>Node1&#45;&gt;Node3</title>
<path fill="none" stroke="midnightblue" d="M619.864,-396.38C614.672,-369.652 605.44,-322.124 600.331,-295.82"/>
<polygon fill="midnightblue" stroke="midnightblue" points="603.702,-294.822 598.36,-285.673 596.831,-296.157 603.702,-294.822"/>
</g>
<!-- Node4 -->
<g id="node4" class="node"><title>Node4</title>
<polygon fill="white" stroke="#bfbfbf" points="877.675,-130.5 877.675,-149.5 929.675,-149.5 929.675,-130.5 877.675,-130.5"/>
<text text-anchor="middle" x="903.675" y="-137.5" font-family="Helvetica,sans-Serif" font-size="10.00">memory</text>
</g>
<!-- Node1&#45;&gt;Node4 -->
<g id="edge3" class="edge"><title>Node1&#45;&gt;Node4</title>
<path fill="none" stroke="midnightblue" d="M686.533,-412.009C731.304,-406.318 790.733,-392.652 832.675,-360 896.232,-310.52 903.723,-203.23 904.032,-159.809"/>
<polygon fill="midnightblue" stroke="midnightblue" points="907.531,-159.55 903.974,-149.57 900.531,-159.59 907.531,-159.55"/>
</g>
<!-- Node5 -->
<g id="node5" class="node"><title>Node5</title>
<polygon fill="white" stroke="#bfbfbf" points="637.675,-266.5 637.675,-285.5 675.675,-285.5 675.675,-266.5 637.675,-266.5"/>
<text text-anchor="middle" x="656.675" y="-273.5" font-family="Helvetica,sans-Serif" font-size="10.00">tuple</text>
</g>
<!-- Node1&#45;&gt;Node5 -->
<g id="edge4" class="edge"><title>Node1&#45;&gt;Node5</title>
<path fill="none" stroke="midnightblue" d="M628.333,-396.38C634.707,-369.533 646.063,-321.698 652.291,-295.468"/>
<polygon fill="midnightblue" stroke="midnightblue" points="655.711,-296.211 654.616,-285.673 648.901,-294.594 655.711,-296.211"/>
</g>
<!-- Node6 -->
<g id="node6" class="node"><title>Node6</title>
<polygon fill="white" stroke="#bfbfbf" points="835.675,-198.5 835.675,-217.5 875.675,-217.5 875.675,-198.5 835.675,-198.5"/>
<text text-anchor="middle" x="855.675" y="-205.5" font-family="Helvetica,sans-Serif" font-size="10.00">utility</text>
</g>
<!-- Node1&#45;&gt;Node6 -->
<g id="edge5" class="edge"><title>Node1&#45;&gt;Node6</title>
<path fill="none" stroke="midnightblue" d="M686.352,-405.759C722.207,-397.661 766.671,-383.644 800.675,-360 832.135,-338.125 840.786,-328.085 853.675,-292 861.16,-271.045 860.345,-245.181 858.518,-227.948"/>
<polygon fill="midnightblue" stroke="midnightblue" points="861.93,-227.034 857.182,-217.563 854.987,-227.928 861.93,-227.034"/>
</g>
<!-- Node7 -->
<g id="node7" class="node"><title>Node7</title>
<polygon fill="white" stroke="#bfbfbf" points="400.675,-198.5 400.675,-217.5 444.675,-217.5 444.675,-198.5 400.675,-198.5"/>
<text text-anchor="middle" x="422.675" y="-205.5" font-family="Helvetica,sans-Serif" font-size="10.00">vector</text>
</g>
<!-- Node1&#45;&gt;Node7 -->
<g id="edge6" class="edge"><title>Node1&#45;&gt;Node7</title>
<path fill="none" stroke="midnightblue" d="M561.095,-408.705C523.778,-401.585 477.443,-387.563 444.675,-360 408.64,-329.689 403.814,-306.722 409.675,-260 411.063,-248.934 414.083,-236.826 416.863,-227.185"/>
<polygon fill="midnightblue" stroke="midnightblue" points="420.236,-228.122 419.8,-217.537 413.54,-226.084 420.236,-228.122"/>
</g>
<!-- Node8 -->
<g id="node8" class="node"><title>Node8</title>
<g id="a_node8"><a xlink:href="compare__and__hash__utils_8h.html" target="_top" xlink:title="shad/data_structures\l/compare_and_hash_utils.h">
<polygon fill="white" stroke="black" points="85.675,-261 85.675,-291 221.675,-291 221.675,-261 85.675,-261"/>
<text text-anchor="start" x="93.675" y="-279" font-family="Helvetica,sans-Serif" font-size="10.00">shad/data_structures</text>
<text text-anchor="middle" x="153.675" y="-268" font-family="Helvetica,sans-Serif" font-size="10.00">/compare_and_hash_utils.h</text>
</a>
</g>
</g>
<!-- Node1&#45;&gt;Node8 -->
<g id="edge7" class="edge"><title>Node1&#45;&gt;Node8</title>
<path fill="none" stroke="midnightblue" d="M560.969,-411.81C466.127,-404.663 291.346,-388.097 235.675,-360 207.918,-345.991 183.968,-318.943 169.238,-299.528"/>
<polygon fill="midnightblue" stroke="midnightblue" points="171.877,-297.209 163.138,-291.219 166.234,-301.351 171.877,-297.209"/>
</g>
<!-- Node14 -->
<g id="node14" class="node"><title>Node14</title>
<g id="a_node14"><a xlink:href="local__hashmap_8h.html" target="_top" xlink:title="shad/data_structures\l/local_hashmap.h">
<polygon fill="white" stroke="black" points="683.675,-329 683.675,-359 791.675,-359 791.675,-329 683.675,-329"/>
<text text-anchor="start" x="691.675" y="-347" font-family="Helvetica,sans-Serif" font-size="10.00">shad/data_structures</text>
<text text-anchor="middle" x="737.675" y="-336" font-family="Helvetica,sans-Serif" font-size="10.00">/local_hashmap.h</text>
</a>
</g>
</g>
<!-- Node1&#45;&gt;Node14 -->
<g id="edge17" class="edge"><title>Node1&#45;&gt;Node14</title>
<path fill="none" stroke="midnightblue" d="M655.128,-396.411C670.994,-386.529 690.191,-374.573 706.078,-364.679"/>
<polygon fill="midnightblue" stroke="midnightblue" points="708.361,-367.38 714.999,-359.123 704.66,-361.439 708.361,-367.38"/>
</g>
<!-- Node15 -->
<g id="node15" class="node"><title>Node15</title>
<g id="a_node15"><a xlink:href="runtime_8h.html" target="_top" xlink:title="shad/runtime/runtime.h">
<polygon fill="white" stroke="black" points="1173.68,-266.5 1173.68,-285.5 1289.68,-285.5 1289.68,-266.5 1173.68,-266.5"/>
<text text-anchor="middle" x="1231.68" y="-273.5" font-family="Helvetica,sans-Serif" font-size="10.00">shad/runtime/runtime.h</text>
</a>
</g>
</g>
<!-- Node1&#45;&gt;Node15 -->
<g id="edge71" class="edge"><title>Node1&#45;&gt;Node15</title>
<path fill="none" stroke="midnightblue" d="M686.416,-407.184C751.61,-397.534 856.394,-380.652 945.675,-360 1037.01,-338.874 1142.43,-306.038 1196.17,-288.677"/>
<polygon fill="midnightblue" stroke="midnightblue" points="1197.47,-291.936 1205.9,-285.52 1195.31,-285.277 1197.47,-291.936"/>
</g>
<!-- Node30 -->
<g id="node30" class="node"><title>Node30</title>
<g id="a_node30"><a xlink:href="local__set_8h.html" target="_top" xlink:title="shad/data_structures\l/local_set.h">
<polygon fill="white" stroke="black" points="453.675,-329 453.675,-359 561.675,-359 561.675,-329 453.675,-329"/>
<text text-anchor="start" x="461.675" y="-347" font-family="Helvetica,sans-Serif" font-size="10.00">shad/data_structures</text>
<text text-anchor="middle" x="507.675" y="-336" font-family="Helvetica,sans-Serif" font-size="10.00">/local_set.h</text>
</a>
</g>
</g>
<!-- Node1&#45;&gt;Node30 -->
<g id="edge60" class="edge"><title>Node1&#45;&gt;Node30</title>
<path fill="none" stroke="midnightblue" d="M591.67,-396.411C575.375,-386.437 555.627,-374.35 539.374,-364.402"/>
<polygon fill="midnightblue" stroke="midnightblue" points="541.105,-361.358 530.749,-359.123 537.451,-367.329 541.105,-361.358"/>
</g>
<!-- Node8&#45;&gt;Node2 -->
<g id="edge8" class="edge"><title>Node8&#45;&gt;Node2</title>
<path fill="none" stroke="midnightblue" d="M188.643,-260.841C217.469,-249.169 257.975,-232.768 285.659,-221.558"/>
<polygon fill="midnightblue" stroke="midnightblue" points="287.278,-224.679 295.233,-217.682 284.651,-218.191 287.278,-224.679"/>
</g>
<!-- Node8&#45;&gt;Node7 -->
<g id="edge13" class="edge"><title>Node8&#45;&gt;Node7</title>
<path fill="none" stroke="midnightblue" d="M211.052,-260.922C265.764,-247.499 346.19,-227.766 390.475,-216.9"/>
<polygon fill="midnightblue" stroke="midnightblue" points="391.519,-220.248 400.397,-214.466 389.851,-213.45 391.519,-220.248"/>
</g>
<!-- Node9 -->
<g id="node9" class="node"><title>Node9</title>
<polygon fill="white" stroke="#bfbfbf" points="1027.68,-62.5 1027.68,-81.5 1073.68,-81.5 1073.68,-62.5 1027.68,-62.5"/>
<text text-anchor="middle" x="1050.68" y="-69.5" font-family="Helvetica,sans-Serif" font-size="10.00">cstdint</text>
</g>
<!-- Node8&#45;&gt;Node9 -->
<g id="edge9" class="edge"><title>Node8&#45;&gt;Node9</title>
<path fill="none" stroke="midnightblue" d="M85.3458,-263.2C36.4966,-251.388 -16.9233,-229.458 5.67504,-192 39.1545,-136.506 72.2182,-141.31 134.675,-124 305.583,-76.6322 872.325,-73.082 1016.88,-72.9599"/>
<polygon fill="midnightblue" stroke="midnightblue" points="1017.31,-76.4598 1027.31,-72.9566 1017.31,-69.4598 1017.31,-76.4598"/>
</g>
<!-- Node10 -->
<g id="node10" class="node"><title>Node10</title>
<polygon fill="white" stroke="#bfbfbf" points="14.675,-198.5 14.675,-217.5 60.675,-217.5 60.675,-198.5 14.675,-198.5"/>
<text text-anchor="middle" x="37.675" y="-205.5" font-family="Helvetica,sans-Serif" font-size="10.00">cstring</text>
</g>
<!-- Node8&#45;&gt;Node10 -->
<g id="edge10" class="edge"><title>Node8&#45;&gt;Node10</title>
<path fill="none" stroke="midnightblue" d="M128.79,-260.841C108.996,-249.579 81.4619,-233.913 61.8543,-222.757"/>
<polygon fill="midnightblue" stroke="midnightblue" points="63.3566,-219.585 52.9341,-217.682 59.8949,-225.669 63.3566,-219.585"/>
</g>
<!-- Node11 -->
<g id="node11" class="node"><title>Node11</title>
<polygon fill="white" stroke="#bfbfbf" points="343.175,-130.5 343.175,-149.5 402.175,-149.5 402.175,-130.5 343.175,-130.5"/>
<text text-anchor="middle" x="372.675" y="-137.5" font-family="Helvetica,sans-Serif" font-size="10.00">functional</text>
</g>
<!-- Node8&#45;&gt;Node11 -->
<g id="edge11" class="edge"><title>Node8&#45;&gt;Node11</title>
<path fill="none" stroke="midnightblue" d="M180.225,-260.862C197.808,-251.157 221.14,-237.615 240.675,-224 259.07,-211.18 261.099,-204.556 279.675,-192 300.949,-177.621 326.639,-163.775 345.623,-154.148"/>
<polygon fill="midnightblue" stroke="midnightblue" points="347.241,-157.252 354.618,-149.647 344.108,-150.992 347.241,-157.252"/>
</g>
<!-- Node12 -->
<g id="node12" class="node"><title>Node12</title>
<polygon fill="white" stroke="#bfbfbf" points="143.675,-130.5 143.675,-149.5 205.675,-149.5 205.675,-130.5 143.675,-130.5"/>
<text text-anchor="middle" x="174.675" y="-137.5" font-family="Helvetica,sans-Serif" font-size="10.00">type_traits</text>
</g>
<!-- Node8&#45;&gt;Node12 -->
<g id="edge12" class="edge"><title>Node8&#45;&gt;Node12</title>
<path fill="none" stroke="midnightblue" d="M135.256,-260.613C125.012,-251.394 113.236,-238.469 107.675,-224 102.573,-210.725 101.36,-204.743 107.675,-192 115.768,-175.668 131.872,-163.147 146.263,-154.598"/>
<polygon fill="midnightblue" stroke="midnightblue" points="148.319,-157.461 155.371,-149.555 144.928,-151.337 148.319,-157.461"/>
</g>
<!-- Node13 -->
<g id="node13" class="node"><title>Node13</title>
<g id="a_node13"><a xlink:href="type__traits_8h.html" target="_top" xlink:title="shad/core/type_traits.h">
<polygon fill="white" stroke="black" points="116.675,-198.5 116.675,-217.5 232.675,-217.5 232.675,-198.5 116.675,-198.5"/>
<text text-anchor="middle" x="174.675" y="-205.5" font-family="Helvetica,sans-Serif" font-size="10.00">shad/core/type_traits.h</text>
</a>
</g>
</g>
<!-- Node8&#45;&gt;Node13 -->
<g id="edge14" class="edge"><title>Node8&#45;&gt;Node13</title>
<path fill="none" stroke="midnightblue" d="M158.232,-260.679C161.312,-250.999 165.409,-238.123 168.743,-227.645"/>
<polygon fill="midnightblue" stroke="midnightblue" points="172.169,-228.419 171.866,-217.828 165.499,-226.296 172.169,-228.419"/>
</g>
<!-- Node13&#45;&gt;Node11 -->
<g id="edge15" class="edge"><title>Node13&#45;&gt;Node11</title>
<path fill="none" stroke="midnightblue" d="M200.56,-198.372C235.564,-186.704 298.122,-165.851 337.402,-152.758"/>
<polygon fill="midnightblue" stroke="midnightblue" points="338.717,-156.009 347.097,-149.526 336.504,-149.368 338.717,-156.009"/>
</g>
<!-- Node13&#45;&gt;Node12 -->
<g id="edge16" class="edge"><title>Node13&#45;&gt;Node12</title>
<path fill="none" stroke="midnightblue" d="M174.675,-198.372C174.675,-188.643 174.675,-172.528 174.675,-159.85"/>
<polygon fill="midnightblue" stroke="midnightblue" points="178.175,-159.841 174.675,-149.841 171.175,-159.841 178.175,-159.841"/>
</g>
<!-- Node14&#45;&gt;Node2 -->
<g id="edge18" class="edge"><title>Node14&#45;&gt;Node2</title>
<path fill="none" stroke="midnightblue" d="M732.962,-328.776C725.812,-309.636 710.276,-276.136 684.675,-260 629.178,-225.022 456.44,-234.44 391.675,-224 379.609,-222.055 366.525,-219.57 354.714,-217.184"/>
<polygon fill="midnightblue" stroke="midnightblue" points="355.22,-213.715 344.72,-215.129 353.81,-220.571 355.22,-213.715"/>
</g>
<!-- Node14&#45;&gt;Node3 -->
<g id="edge19" class="edge"><title>Node14&#45;&gt;Node3</title>
<path fill="none" stroke="midnightblue" d="M707.6,-328.935C685.71,-318.696 655.353,-304.494 628.675,-292 627.286,-291.349 625.863,-290.683 624.426,-290.01"/>
<polygon fill="midnightblue" stroke="midnightblue" points="625.49,-286.643 614.95,-285.569 622.52,-292.982 625.49,-286.643"/>
</g>
<!-- Node14&#45;&gt;Node4 -->
<g id="edge21" class="edge"><title>Node14&#45;&gt;Node4</title>
<path fill="none" stroke="midnightblue" d="M757.714,-328.945C769.636,-319.667 784.229,-306.563 793.675,-292 819.144,-252.735 798.267,-229.194 826.675,-192 839.123,-175.702 858.352,-162.96 874.48,-154.288"/>
<polygon fill="midnightblue" stroke="midnightblue" points="876.231,-157.324 883.543,-149.656 873.045,-151.09 876.231,-157.324"/>
</g>
<!-- Node14&#45;&gt;Node5 -->
<g id="edge22" class="edge"><title>Node14&#45;&gt;Node5</title>
<path fill="none" stroke="midnightblue" d="M720.099,-328.679C706.969,-317.981 689.047,-303.377 675.602,-292.422"/>
<polygon fill="midnightblue" stroke="midnightblue" points="677.473,-289.432 667.51,-285.828 673.051,-294.858 677.473,-289.432"/>
</g>
<!-- Node14&#45;&gt;Node6 -->
<g id="edge23" class="edge"><title>Node14&#45;&gt;Node6</title>
<path fill="none" stroke="midnightblue" d="M779.151,-328.979C797.607,-320.824 818.173,-308.78 831.675,-292 846.556,-273.506 852.211,-246.16 854.359,-227.973"/>
<polygon fill="midnightblue" stroke="midnightblue" points="857.867,-228.043 855.31,-217.762 850.898,-227.394 857.867,-228.043"/>
</g>
<!-- Node14&#45;&gt;Node7 -->
<g id="edge24" class="edge"><title>Node14&#45;&gt;Node7</title>
<path fill="none" stroke="midnightblue" d="M738.614,-328.974C739.027,-310.377 736.713,-277.835 717.675,-260 698.604,-242.135 527.44,-220.865 454.916,-212.565"/>
<polygon fill="midnightblue" stroke="midnightblue" points="455.292,-209.085 444.961,-211.436 454.503,-216.04 455.292,-209.085"/>
</g>
<!-- Node14&#45;&gt;Node8 -->
<g id="edge25" class="edge"><title>Node14&#45;&gt;Node8</title>
<path fill="none" stroke="midnightblue" d="M683.52,-336.88C579.798,-325.158 352.744,-299.498 232.311,-285.887"/>
<polygon fill="midnightblue" stroke="midnightblue" points="232.387,-282.373 222.058,-284.728 231.601,-289.329 232.387,-282.373"/>
</g>
<!-- Node14&#45;&gt;Node11 -->
<g id="edge20" class="edge"><title>Node14&#45;&gt;Node11</title>
<path fill="none" stroke="midnightblue" d="M743.045,-328.844C748.822,-310.984 755.352,-280.171 740.675,-260 663.798,-154.344 491.158,-140.555 412.764,-140.019"/>
<polygon fill="midnightblue" stroke="midnightblue" points="412.346,-136.519 402.348,-140.023 412.349,-143.519 412.346,-136.519"/>
</g>
<!-- Node14&#45;&gt;Node15 -->
<g id="edge26" class="edge"><title>Node14&#45;&gt;Node15</title>
<path fill="none" stroke="midnightblue" d="M791.955,-335.748C882.49,-323.652 1064.14,-299.383 1163.28,-286.137"/>
<polygon fill="midnightblue" stroke="midnightblue" points="1164.04,-289.567 1173.49,-284.774 1163.12,-282.629 1164.04,-289.567"/>
</g>
<!-- Node15&#45;&gt;Node4 -->
<g id="edge33" class="edge"><title>Node15&#45;&gt;Node4</title>
<path fill="none" stroke="midnightblue" d="M1173.43,-269.617C1125.8,-263.456 1057.74,-250.547 1003.68,-224 969.273,-207.109 936.498,-176.091 918.336,-157.13"/>
<polygon fill="midnightblue" stroke="midnightblue" points="920.665,-154.497 911.276,-149.589 915.556,-159.281 920.665,-154.497"/>
</g>
<!-- Node15&#45;&gt;Node6 -->
<g id="edge36" class="edge"><title>Node15&#45;&gt;Node6</title>
<path fill="none" stroke="midnightblue" d="M1176.92,-266.476C1115.97,-256.833 1014.59,-240.337 927.675,-224 913.813,-221.394 898.507,-218.244 885.585,-215.505"/>
<polygon fill="midnightblue" stroke="midnightblue" points="886.317,-212.082 875.806,-213.414 884.853,-218.928 886.317,-212.082"/>
</g>
<!-- Node15&#45;&gt;Node7 -->
<g id="edge37" class="edge"><title>Node15&#45;&gt;Node7</title>
<path fill="none" stroke="midnightblue" d="M1173.49,-270.253C1014.71,-257.299 577.611,-221.64 455.02,-211.639"/>
<polygon fill="midnightblue" stroke="midnightblue" points="455.048,-208.129 444.796,-210.805 454.478,-215.106 455.048,-208.129"/>
</g>
<!-- Node15&#45;&gt;Node9 -->
<g id="edge28" class="edge"><title>Node15&#45;&gt;Node9</title>
<path fill="none" stroke="midnightblue" d="M1173.59,-267.581C1122.67,-259.744 1054.26,-245.511 1037.68,-224 1007.49,-184.857 1028.61,-121.853 1041.99,-91.0832"/>
<polygon fill="midnightblue" stroke="midnightblue" points="1045.33,-92.1861 1046.3,-81.6357 1038.96,-89.2789 1045.33,-92.1861"/>
</g>
<!-- Node15&#45;&gt;Node11 -->
<g id="edge29" class="edge"><title>Node15&#45;&gt;Node11</title>
<path fill="none" stroke="midnightblue" d="M1173.61,-268.403C1117.07,-261.02 1029.16,-246.979 955.675,-224 922.64,-213.669 918.112,-200.944 884.675,-192 713.403,-146.188 499.956,-140.756 412.674,-140.629"/>
<polygon fill="midnightblue" stroke="midnightblue" points="412.42,-137.129 402.423,-140.638 412.426,-144.129 412.42,-137.129"/>
</g>
<!-- Node16 -->
<g id="node16" class="node"><title>Node16</title>
<polygon fill="white" stroke="#bfbfbf" points="1132.18,-130.5 1132.18,-149.5 1181.18,-149.5 1181.18,-130.5 1132.18,-130.5"/>
<text text-anchor="middle" x="1156.68" y="-137.5" font-family="Helvetica,sans-Serif" font-size="10.00">cstddef</text>
</g>
<!-- Node15&#45;&gt;Node16 -->
<g id="edge27" class="edge"><title>Node15&#45;&gt;Node16</title>
<path fill="none" stroke="midnightblue" d="M1226.87,-266.259C1218.54,-251.11 1200.84,-219.008 1185.68,-192 1179.39,-180.809 1172.27,-168.28 1166.65,-158.44"/>
<polygon fill="midnightblue" stroke="midnightblue" points="1169.63,-156.593 1161.63,-149.647 1163.55,-160.066 1169.63,-156.593"/>
</g>
<!-- Node17 -->
<g id="node17" class="node"><title>Node17</title>
<polygon fill="white" stroke="#bfbfbf" points="1350.68,-62.5 1350.68,-81.5 1404.68,-81.5 1404.68,-62.5 1350.68,-62.5"/>
<text text-anchor="middle" x="1377.68" y="-69.5" font-family="Helvetica,sans-Serif" font-size="10.00">iostream</text>
</g>
<!-- Node15&#45;&gt;Node17 -->
<g id="edge30" class="edge"><title>Node15&#45;&gt;Node17</title>
<path fill="none" stroke="midnightblue" d="M1289.77,-271.751C1357.44,-266.61 1463.13,-253.911 1487.68,-224 1541.32,-158.618 1413.77,-200.342 1380.68,-156 1366.96,-137.627 1369.13,-110.059 1372.73,-91.8052"/>
<polygon fill="midnightblue" stroke="midnightblue" points="1376.2,-92.3395 1375.04,-81.8088 1369.38,-90.7669 1376.2,-92.3395"/>
</g>
<!-- Node18 -->
<g id="node18" class="node"><title>Node18</title>
<polygon fill="white" stroke="#bfbfbf" points="1234.18,-198.5 1234.18,-217.5 1281.18,-217.5 1281.18,-198.5 1234.18,-198.5"/>
<text text-anchor="middle" x="1257.68" y="-205.5" font-family="Helvetica,sans-Serif" font-size="10.00">iterator</text>
</g>
<!-- Node15&#45;&gt;Node18 -->
<g id="edge31" class="edge"><title>Node15&#45;&gt;Node18</title>
<path fill="none" stroke="midnightblue" d="M1235.07,-266.372C1238.95,-256.544 1245.38,-240.202 1250.4,-227.467"/>
<polygon fill="midnightblue" stroke="midnightblue" points="1253.78,-228.428 1254.19,-217.841 1247.27,-225.862 1253.78,-228.428"/>
</g>
<!-- Node19 -->
<g id="node19" class="node"><title>Node19</title>
<polygon fill="white" stroke="#bfbfbf" points="1299.18,-198.5 1299.18,-217.5 1334.18,-217.5 1334.18,-198.5 1299.18,-198.5"/>
<text text-anchor="middle" x="1316.68" y="-205.5" font-family="Helvetica,sans-Serif" font-size="10.00">map</text>
</g>
<!-- Node15&#45;&gt;Node19 -->
<g id="edge32" class="edge"><title>Node15&#45;&gt;Node19</title>
<path fill="none" stroke="midnightblue" d="M1242.79,-266.372C1256.66,-255.6 1280.61,-237.002 1297.48,-223.906"/>
<polygon fill="midnightblue" stroke="midnightblue" points="1299.81,-226.528 1305.56,-217.63 1295.51,-220.999 1299.81,-226.528"/>
</g>
<!-- Node20 -->
<g id="node20" class="node"><title>Node20</title>
<polygon fill="white" stroke="#bfbfbf" points="1352.68,-198.5 1352.68,-217.5 1382.68,-217.5 1382.68,-198.5 1352.68,-198.5"/>
<text text-anchor="middle" x="1367.68" y="-205.5" font-family="Helvetica,sans-Serif" font-size="10.00">set</text>
</g>
<!-- Node15&#45;&gt;Node20 -->
<g id="edge34" class="edge"><title>Node15&#45;&gt;Node20</title>
<path fill="none" stroke="midnightblue" d="M1252.05,-266.439C1274.56,-256.797 1311.73,-240.331 1342.68,-224 1343.5,-223.566 1344.33,-223.117 1345.17,-222.657"/>
<polygon fill="midnightblue" stroke="midnightblue" points="1347.16,-225.551 1354.08,-217.528 1343.66,-219.485 1347.16,-225.551"/>
</g>
<!-- Node21 -->
<g id="node21" class="node"><title>Node21</title>
<polygon fill="white" stroke="#bfbfbf" points="1400.68,-198.5 1400.68,-217.5 1478.68,-217.5 1478.68,-198.5 1400.68,-198.5"/>
<text text-anchor="middle" x="1439.68" y="-205.5" font-family="Helvetica,sans-Serif" font-size="10.00">unordered_set</text>
</g>
<!-- Node15&#45;&gt;Node21 -->
<g id="edge35" class="edge"><title>Node15&#45;&gt;Node21</title>
<path fill="none" stroke="midnightblue" d="M1258.87,-266.372C1295.8,-254.654 1361.92,-233.674 1403.15,-220.591"/>
<polygon fill="midnightblue" stroke="midnightblue" points="1404.33,-223.886 1412.81,-217.526 1402.22,-217.214 1404.33,-223.886"/>
</g>
<!-- Node22 -->
<g id="node22" class="node"><title>Node22</title>
<polygon fill="white" stroke="#bfbfbf" points="1645.68,-0.5 1645.68,-19.5 1749.68,-19.5 1749.68,-0.5 1645.68,-0.5"/>
<text text-anchor="middle" x="1697.68" y="-7.5" font-family="Helvetica,sans-Serif" font-size="10.00">shad/config/config.h</text>
</g>
<!-- Node15&#45;&gt;Node22 -->
<g id="edge38" class="edge"><title>Node15&#45;&gt;Node22</title>
<path fill="none" stroke="midnightblue" d="M1290.07,-275.632C1410.59,-275.939 1682.07,-271.194 1759.68,-224 1831.69,-180.202 1897.99,-123.625 1847.68,-56 1836.66,-41.1957 1795.15,-29.4394 1758.59,-21.6608"/>
<polygon fill="midnightblue" stroke="midnightblue" points="1758.94,-18.1591 1748.44,-19.5731 1757.53,-25.0156 1758.94,-18.1591"/>
</g>
<!-- Node23 -->
<g id="node23" class="node"><title>Node23</title>
<g id="a_node23"><a xlink:href="handle_8h.html" target="_top" xlink:title="shad/runtime/handle.h">
<polygon fill="white" stroke="black" points="1612.18,-198.5 1612.18,-217.5 1725.18,-217.5 1725.18,-198.5 1612.18,-198.5"/>
<text text-anchor="middle" x="1668.68" y="-205.5" font-family="Helvetica,sans-Serif" font-size="10.00">shad/runtime/handle.h</text>
</a>
</g>
</g>
<!-- Node15&#45;&gt;Node23 -->
<g id="edge39" class="edge"><title>Node15&#45;&gt;Node23</title>
<path fill="none" stroke="midnightblue" d="M1289.7,-268.102C1361.87,-259.247 1488.72,-242.766 1596.68,-224 1604.2,-222.692 1612.13,-221.177 1619.88,-219.623"/>
<polygon fill="midnightblue" stroke="midnightblue" points="1620.81,-223.005 1629.9,-217.571 1619.41,-216.148 1620.81,-223.005"/>
</g>
<!-- Node24 -->
<g id="node24" class="node"><title>Node24</title>
<g id="a_node24"><a xlink:href="mapping__traits_8h.html" target="_top" xlink:title="shad/runtime/mapping\l_traits.h">
<polygon fill="white" stroke="black" points="1726.18,-57 1726.18,-87 1839.18,-87 1839.18,-57 1726.18,-57"/>
<text text-anchor="start" x="1734.18" y="-75" font-family="Helvetica,sans-Serif" font-size="10.00">shad/runtime/mapping</text>
<text text-anchor="middle" x="1782.68" y="-64" font-family="Helvetica,sans-Serif" font-size="10.00">_traits.h</text>
</a>
</g>
</g>
<!-- Node15&#45;&gt;Node24 -->
<g id="edge52" class="edge"><title>Node15&#45;&gt;Node24</title>
<path fill="none" stroke="midnightblue" d="M1289.74,-272.633C1414.52,-267.047 1699.72,-251.409 1733.68,-224 1772.18,-192.914 1780.78,-131.145 1782.48,-97.0308"/>
<polygon fill="midnightblue" stroke="midnightblue" points="1785.98,-97.113 1782.82,-87.0006 1778.98,-96.8768 1785.98,-97.113"/>
</g>
<!-- Node27 -->
<g id="node27" class="node"><title>Node27</title>
<g id="a_node27"><a xlink:href="locality_8h.html" target="_top" xlink:title="shad/runtime/locality.h">
<polygon fill="white" stroke="black" points="1389.18,-130.5 1389.18,-149.5 1504.18,-149.5 1504.18,-130.5 1389.18,-130.5"/>
<text text-anchor="middle" x="1446.68" y="-137.5" font-family="Helvetica,sans-Serif" font-size="10.00">shad/runtime/locality.h</text>
</a>
</g>
</g>
<!-- Node15&#45;&gt;Node27 -->
<g id="edge46" class="edge"><title>Node15&#45;&gt;Node27</title>
<path fill="none" stroke="midnightblue" d="M1289.94,-273.25C1365.71,-269.605 1491.82,-258.396 1520.68,-224 1529.82,-213.105 1527.29,-204.591 1520.68,-192 1511.7,-174.911 1494.11,-162.428 1478.34,-154.09"/>
<polygon fill="midnightblue" stroke="midnightblue" points="1479.86,-150.936 1469.34,-149.657 1476.76,-157.215 1479.86,-150.936"/>
</g>
<!-- Node28 -->
<g id="node28" class="node"><title>Node28</title>
<g id="a_node28"><a xlink:href="available__mappings_8h.html" target="_top" xlink:title="shad/runtime/mappings\l/available_mappings.h">
<polygon fill="white" stroke="black" points="1522.68,-125 1522.68,-155 1640.68,-155 1640.68,-125 1522.68,-125"/>
<text text-anchor="start" x="1530.68" y="-143" font-family="Helvetica,sans-Serif" font-size="10.00">shad/runtime/mappings</text>
<text text-anchor="middle" x="1581.68" y="-132" font-family="Helvetica,sans-Serif" font-size="10.00">/available_mappings.h</text>
</a>
</g>
</g>
<!-- Node15&#45;&gt;Node28 -->
<g id="edge53" class="edge"><title>Node15&#45;&gt;Node28</title>
<path fill="none" stroke="midnightblue" d="M1289.84,-271.312C1367,-265.415 1498,-251.6 1536.68,-224 1556.6,-209.78 1568.59,-183.904 1575.13,-164.811"/>
<polygon fill="midnightblue" stroke="midnightblue" points="1578.54,-165.609 1578.21,-155.019 1571.87,-163.506 1578.54,-165.609"/>
</g>
<!-- Node29 -->
<g id="node29" class="node"><title>Node29</title>
<g id="a_node29"><a xlink:href="synchronous__interface_8h.html" target="_top" xlink:title="shad/runtime/synchronous\l_interface.h">
<polygon fill="white" stroke="black" points="1046.18,-193 1046.18,-223 1177.18,-223 1177.18,-193 1046.18,-193"/>
<text text-anchor="start" x="1054.18" y="-211" font-family="Helvetica,sans-Serif" font-size="10.00">shad/runtime/synchronous</text>
<text text-anchor="middle" x="1111.68" y="-200" font-family="Helvetica,sans-Serif" font-size="10.00">_interface.h</text>
</a>
</g>
</g>
<!-- Node15&#45;&gt;Node29 -->
<g id="edge55" class="edge"><title>Node15&#45;&gt;Node29</title>
<path fill="none" stroke="midnightblue" d="M1215.99,-266.372C1198.38,-256.686 1169.26,-240.671 1146.26,-228.019"/>
<polygon fill="midnightblue" stroke="midnightblue" points="1147.91,-224.934 1137.46,-223.181 1144.53,-231.067 1147.91,-224.934"/>
</g>
<!-- Node23&#45;&gt;Node12 -->
<g id="edge40" class="edge"><title>Node23&#45;&gt;Node12</title>
<path fill="none" stroke="midnightblue" d="M1612.07,-201.555C1576.41,-198.312 1529.39,-194.377 1487.68,-192 975.368,-162.8 845.808,-188.114 333.675,-156 293.647,-153.49 248.091,-149.028 216.033,-145.62"/>
<polygon fill="midnightblue" stroke="midnightblue" points="216.023,-142.099 205.706,-144.51 215.274,-149.059 216.023,-142.099"/>
</g>
<!-- Node23&#45;&gt;Node22 -->
<g id="edge41" class="edge"><title>Node23&#45;&gt;Node22</title>
<path fill="none" stroke="midnightblue" d="M1669.96,-198.325C1674.35,-168.664 1688.82,-70.8504 1694.92,-29.6044"/>
<polygon fill="midnightblue" stroke="midnightblue" points="1698.4,-29.9792 1696.41,-19.5746 1691.48,-28.9546 1698.4,-29.9792"/>
</g>
<!-- Node23&#45;&gt;Node24 -->
<g id="edge42" class="edge"><title>Node23&#45;&gt;Node24</title>
<path fill="none" stroke="midnightblue" d="M1678.31,-198.382C1689.1,-188.556 1706.86,-171.804 1720.68,-156 1737.81,-136.396 1755.39,-112.422 1767.44,-95.2895"/>
<polygon fill="midnightblue" stroke="midnightblue" points="1770.36,-97.2201 1773.2,-87.0132 1764.61,-93.2207 1770.36,-97.2201"/>
</g>
<!-- Node26 -->
<g id="node26" class="node"><title>Node26</title>
<g id="a_node26"><a xlink:href="available__traits__mappings_8h.html" target="_top" xlink:title="shad/runtime/mappings\l/available_traits_mappings.h">
<polygon fill="white" stroke="black" points="1511.68,-57 1511.68,-87 1651.68,-87 1651.68,-57 1511.68,-57"/>
<text text-anchor="start" x="1519.68" y="-75" font-family="Helvetica,sans-Serif" font-size="10.00">shad/runtime/mappings</text>
<text text-anchor="middle" x="1581.68" y="-64" font-family="Helvetica,sans-Serif" font-size="10.00">/available_traits_mappings.h</text>
</a>
</g>
</g>
<!-- Node23&#45;&gt;Node26 -->
<g id="edge45" class="edge"><title>Node23&#45;&gt;Node26</title>
<path fill="none" stroke="midnightblue" d="M1668.61,-198.494C1668.09,-182.588 1665.14,-147.8 1649.68,-124 1641.52,-111.453 1629.16,-100.845 1617.2,-92.6081"/>
<polygon fill="midnightblue" stroke="midnightblue" points="1618.93,-89.5527 1608.63,-87.0354 1615.11,-95.4211 1618.93,-89.5527"/>
</g>
<!-- Node24&#45;&gt;Node22 -->
<g id="edge44" class="edge"><title>Node24&#45;&gt;Node22</title>
<path fill="none" stroke="midnightblue" d="M1762.53,-56.7808C1749.08,-47.2862 1731.45,-34.8434 1717.97,-25.3267"/>
<polygon fill="midnightblue" stroke="midnightblue" points="1719.98,-22.4632 1709.8,-19.5557 1715.95,-28.182 1719.98,-22.4632"/>
</g>
<!-- Node25 -->
<g id="node25" class="node"><title>Node25</title>
<polygon fill="white" stroke="#bfbfbf" points="1768.18,-0.5 1768.18,-19.5 1809.18,-19.5 1809.18,-0.5 1768.18,-0.5"/>
<text text-anchor="middle" x="1788.68" y="-7.5" font-family="Helvetica,sans-Serif" font-size="10.00">string</text>
</g>
<!-- Node24&#45;&gt;Node25 -->
<g id="edge43" class="edge"><title>Node24&#45;&gt;Node25</title>
<path fill="none" stroke="midnightblue" d="M1784.1,-56.7808C1784.91,-48.6913 1785.93,-38.4617 1786.8,-29.725"/>
<polygon fill="midnightblue" stroke="midnightblue" points="1790.29,-30.0292 1787.8,-19.7305 1783.32,-29.3326 1790.29,-30.0292"/>
</g>
<!-- Node27&#45;&gt;Node9 -->
<g id="edge47" class="edge"><title>Node27&#45;&gt;Node9</title>
<path fill="none" stroke="midnightblue" d="M1395.31,-130.439C1312.7,-116.671 1152.62,-89.9912 1083.63,-78.4922"/>
<polygon fill="midnightblue" stroke="midnightblue" points="1084.19,-75.0368 1073.75,-76.8451 1083.03,-81.9416 1084.19,-75.0368"/>
</g>
<!-- Node27&#45;&gt;Node17 -->
<g id="edge48" class="edge"><title>Node27&#45;&gt;Node17</title>
<path fill="none" stroke="midnightblue" d="M1437.65,-130.372C1426.66,-119.856 1407.87,-101.882 1394.25,-88.8496"/>
<polygon fill="midnightblue" stroke="midnightblue" points="1396.56,-86.2241 1386.92,-81.8411 1391.73,-91.2826 1396.56,-86.2241"/>
</g>
<!-- Node27&#45;&gt;Node22 -->
<g id="edge49" class="edge"><title>Node27&#45;&gt;Node22</title>
<path fill="none" stroke="midnightblue" d="M1449.94,-130.378C1456.87,-113.306 1474.74,-75.196 1502.68,-56 1541.74,-29.1546 1594.56,-18.1422 1635.37,-13.7114"/>
<polygon fill="midnightblue" stroke="midnightblue" points="1635.86,-17.1802 1645.47,-12.7211 1635.18,-10.2136 1635.86,-17.1802"/>
</g>
<!-- Node27&#45;&gt;Node24 -->
<g id="edge50" class="edge"><title>Node27&#45;&gt;Node24</title>
<path fill="none" stroke="midnightblue" d="M1483.84,-130.451C1493.54,-128.283 1503.99,-126.002 1513.68,-124 1582.59,-109.758 1661.75,-94.9332 1716.27,-84.9622"/>
<polygon fill="midnightblue" stroke="midnightblue" points="1716.94,-88.3968 1726.15,-83.1581 1715.69,-81.5106 1716.94,-88.3968"/>
</g>
<!-- Node27&#45;&gt;Node26 -->
<g id="edge51" class="edge"><title>Node27&#45;&gt;Node26</title>
<path fill="none" stroke="midnightblue" d="M1464.32,-130.372C1484.38,-120.569 1517.69,-104.283 1543.71,-91.5629"/>
<polygon fill="midnightblue" stroke="midnightblue" points="1545.48,-94.5927 1552.92,-87.0562 1542.4,-88.304 1545.48,-94.5927"/>
</g>
<!-- Node28&#45;&gt;Node26 -->
<g id="edge54" class="edge"><title>Node28&#45;&gt;Node26</title>
<path fill="none" stroke="midnightblue" d="M1581.68,-124.679C1581.68,-116.722 1581.68,-106.605 1581.68,-97.4356"/>
<polygon fill="midnightblue" stroke="midnightblue" points="1585.18,-97.293 1581.68,-87.2931 1578.18,-97.2931 1585.18,-97.293"/>
</g>
<!-- Node29&#45;&gt;Node4 -->
<g id="edge58" class="edge"><title>Node29&#45;&gt;Node4</title>
<path fill="none" stroke="midnightblue" d="M1067.31,-192.922C1029.3,-180.862 975.246,-163.71 939.824,-152.47"/>
<polygon fill="midnightblue" stroke="midnightblue" points="940.502,-149.014 929.912,-149.325 938.385,-155.686 940.502,-149.014"/>
</g>
<!-- Node29&#45;&gt;Node9 -->
<g id="edge57" class="edge"><title>Node29&#45;&gt;Node9</title>
<path fill="none" stroke="midnightblue" d="M1105.15,-192.66C1093.97,-168.103 1071.18,-118.049 1058.92,-91.1169"/>
<polygon fill="midnightblue" stroke="midnightblue" points="1061.98,-89.3787 1054.65,-81.7275 1055.61,-92.279 1061.98,-89.3787"/>
</g>
<!-- Node29&#45;&gt;Node16 -->
<g id="edge56" class="edge"><title>Node29&#45;&gt;Node16</title>
<path fill="none" stroke="midnightblue" d="M1121.44,-192.679C1128.32,-182.592 1137.56,-169.033 1144.86,-158.335"/>
<polygon fill="midnightblue" stroke="midnightblue" points="1147.91,-160.062 1150.66,-149.828 1142.13,-156.119 1147.91,-160.062"/>
</g>
<!-- Node29&#45;&gt;Node27 -->
<g id="edge59" class="edge"><title>Node29&#45;&gt;Node27</title>
<path fill="none" stroke="midnightblue" d="M1177.46,-194.039C1240.55,-181.609 1334.64,-163.073 1393.24,-151.528"/>
<polygon fill="midnightblue" stroke="midnightblue" points="1394.26,-154.894 1403.4,-149.527 1392.91,-148.026 1394.26,-154.894"/>
</g>
<!-- Node30&#45;&gt;Node2 -->
<g id="edge61" class="edge"><title>Node30&#45;&gt;Node2</title>
<path fill="none" stroke="midnightblue" d="M453.44,-337.274C419.844,-331.129 377.875,-318.393 349.675,-292 331.4,-274.896 323.051,-246.364 319.377,-227.614"/>
<polygon fill="midnightblue" stroke="midnightblue" points="322.806,-226.902 317.679,-217.63 315.905,-228.075 322.806,-226.902"/>
</g>
<!-- Node30&#45;&gt;Node3 -->
<g id="edge62" class="edge"><title>Node30&#45;&gt;Node3</title>
<path fill="none" stroke="midnightblue" d="M526.987,-328.679C541.774,-317.713 562.093,-302.645 576.976,-291.609"/>
<polygon fill="midnightblue" stroke="midnightblue" points="579.079,-294.406 585.027,-285.638 574.91,-288.783 579.079,-294.406"/>
</g>
<!-- Node30&#45;&gt;Node4 -->
<g id="edge65" class="edge"><title>Node30&#45;&gt;Node4</title>
<path fill="none" stroke="midnightblue" d="M507.677,-328.993C508.446,-310.718 512.532,-278.856 530.675,-260 623.212,-163.83 793.216,-145.178 867.424,-141.708"/>
<polygon fill="midnightblue" stroke="midnightblue" points="867.805,-145.195 877.657,-141.298 867.526,-138.201 867.805,-145.195"/>
</g>
<!-- Node30&#45;&gt;Node5 -->
<g id="edge66" class="edge"><title>Node30&#45;&gt;Node5</title>
<path fill="none" stroke="midnightblue" d="M543.534,-328.906C567.818,-319.114 600.49,-305.454 628.675,-292 629.851,-291.439 631.048,-290.853 632.253,-290.253"/>
<polygon fill="midnightblue" stroke="midnightblue" points="634.133,-293.221 641.402,-285.512 630.913,-287.005 634.133,-293.221"/>
</g>
<!-- Node30&#45;&gt;Node6 -->
<g id="edge67" class="edge"><title>Node30&#45;&gt;Node6</title>
<path fill="none" stroke="midnightblue" d="M513.173,-328.945C521.363,-310.003 538.647,-276.729 564.675,-260 607.692,-232.351 760.244,-216.832 825.599,-211.322"/>
<polygon fill="midnightblue" stroke="midnightblue" points="825.989,-214.802 835.669,-210.494 825.416,-207.825 825.989,-214.802"/>
</g>
<!-- Node30&#45;&gt;Node7 -->
<g id="edge68" class="edge"><title>Node30&#45;&gt;Node7</title>
<path fill="none" stroke="midnightblue" d="M465.315,-328.894C448.294,-320.903 430.423,-309.014 420.675,-292 409.341,-272.218 412.776,-245.196 417.057,-227.432"/>
<polygon fill="midnightblue" stroke="midnightblue" points="420.452,-228.284 419.707,-217.715 413.699,-226.442 420.452,-228.284"/>
</g>
<!-- Node30&#45;&gt;Node8 -->
<g id="edge69" class="edge"><title>Node30&#45;&gt;Node8</title>
<path fill="none" stroke="midnightblue" d="M453.525,-332.904C394.388,-321.879 299.15,-304.122 231.897,-291.584"/>
<polygon fill="midnightblue" stroke="midnightblue" points="232.242,-288.088 221.77,-289.696 230.959,-294.969 232.242,-288.088"/>
</g>
<!-- Node30&#45;&gt;Node11 -->
<g id="edge64" class="edge"><title>Node30&#45;&gt;Node11</title>
<path fill="none" stroke="midnightblue" d="M463.027,-328.985C444.081,-320.948 423.276,-308.997 409.675,-292 378.273,-252.758 372.978,-190.711 372.424,-159.798"/>
<polygon fill="midnightblue" stroke="midnightblue" points="375.924,-159.579 372.399,-149.587 368.924,-159.596 375.924,-159.579"/>
</g>
<!-- Node30&#45;&gt;Node15 -->
<g id="edge70" class="edge"><title>Node30&#45;&gt;Node15</title>
<path fill="none" stroke="midnightblue" d="M561.797,-338.066C691.636,-326.23 1020.61,-296.241 1163.59,-283.207"/>
<polygon fill="midnightblue" stroke="midnightblue" points="1163.91,-286.692 1173.55,-282.298 1163.28,-279.721 1163.91,-286.692"/>
</g>
<!-- Node31 -->
<g id="node31" class="node"><title>Node31</title>
<polygon fill="white" stroke="#bfbfbf" points="430.175,-266.5 430.175,-285.5 479.175,-285.5 479.175,-266.5 430.175,-266.5"/>
<text text-anchor="middle" x="454.675" y="-273.5" font-family="Helvetica,sans-Serif" font-size="10.00">cassert</text>
</g>
<!-- Node30&#45;&gt;Node31 -->
<g id="edge63" class="edge"><title>Node30&#45;&gt;Node31</title>
<path fill="none" stroke="midnightblue" d="M496.175,-328.679C487.911,-318.388 476.745,-304.484 468.077,-293.69"/>
<polygon fill="midnightblue" stroke="midnightblue" points="470.755,-291.434 461.764,-285.828 465.297,-295.817 470.755,-291.434"/>
</g>
</g>
</svg>
