<?xml version="1.0" encoding="UTF-8" standalone="no"?>
<!DOCTYPE svg PUBLIC "-//W3C//DTD SVG 1.1//EN"
 "http://www.w3.org/Graphics/SVG/1.1/DTD/svg11.dtd">
<!-- Generated by graphviz version 2.36.0 (20140111.2315)
 -->
<!-- Title: include/shad/data_structures/local_hashmap.h Pages: 1 -->
<svg width="399pt" height="264pt"
 viewBox="0.00 0.00 399.00 264.00" xmlns="http://www.w3.org/2000/svg" xmlns:xlink="http://www.w3.org/1999/xlink">
<g id="graph0" class="graph" transform="scale(1 1) rotate(0) translate(4 260)">
<title>include/shad/data_structures/local_hashmap.h</title>
<polygon fill="white" stroke="none" points="-4,4 -4,-260 395,-260 395,4 -4,4"/>
<!-- Node1 -->
<g id="node1" class="node"><title>Node1</title>
<polygon fill="#bfbfbf" stroke="black" points="99,-225 99,-255 241,-255 241,-225 99,-225"/>
<text text-anchor="start" x="107" y="-243" font-family="Helvetica,sans-Serif" font-size="10.00">include/shad/data_structures</text>
<text text-anchor="middle" x="170" y="-232" font-family="Helvetica,sans-Serif" font-size="10.00">/local_hashmap.h</text>
</g>
<!-- Node2 -->
<g id="node2" class="node"><title>Node2</title>
<g id="a_node2"><a xlink:href="hashmap_8h.html" target="_top" xlink:title="include/shad/data_structures\l/hashmap.h">
<polygon fill="white" stroke="black" points="0,-152 0,-182 142,-182 142,-152 0,-152"/>
<text text-anchor="start" x="8" y="-170" font-family="Helvetica,sans-Serif" font-size="10.00">include/shad/data_structures</text>
<text text-anchor="middle" x="71" y="-159" font-family="Helvetica,sans-Serif" font-size="10.00">/hashmap.h</text>
</a>
</g>
</g>
<!-- Node1&#45;&gt;Node2 -->
<g id="edge1" class="edge"><title>Node1&#45;&gt;Node2</title>
<path fill="none" stroke="midnightblue" d="M142.299,-219.134C125.942,-207.403 105.617,-192.826 90.8574,-182.241"/>
<polygon fill="midnightblue" stroke="midnightblue" points="140.275,-221.989 150.441,-224.973 144.354,-216.301 140.275,-221.989"/>
</g>
<!-- Node4 -->
<g id="node4" class="node"><title>Node4</title>
<g id="a_node4"><a xlink:href="attributed__edge__index_8h.html" target="_top" xlink:title="include/shad/extensions\l/graph_library/attributed\l_edge_index.h">
<polygon fill="white" stroke="black" points="128,-0.5 128,-41.5 250,-41.5 250,-0.5 128,-0.5"/>
<text text-anchor="start" x="136" y="-29.5" font-family="Helvetica,sans-Serif" font-size="10.00">include/shad/extensions</text>
<text text-anchor="start" x="136" y="-18.5" font-family="Helvetica,sans-Serif" font-size="10.00">/graph_library/attributed</text>
<text text-anchor="middle" x="189" y="-7.5" font-family="Helvetica,sans-Serif" font-size="10.00">_edge_index.h</text>
</a>
</g>
</g>
<!-- Node1&#45;&gt;Node4 -->
<g id="edge3" class="edge"><title>Node1&#45;&gt;Node4</title>
<path fill="none" stroke="midnightblue" d="M172.141,-214.546C175.94,-171.162 183.786,-81.5544 187.269,-41.7723"/>
<polygon fill="midnightblue" stroke="midnightblue" points="168.632,-214.495 171.247,-224.762 175.606,-215.105 168.632,-214.495"/>
</g>
<!-- Node5 -->
<g id="node5" class="node"><title>Node5</title>
<g id="a_node5"><a xlink:href="local__edge__index_8h.html" target="_top" xlink:title="include/shad/extensions\l/graph_library/local_edge\l_index.h">
<polygon fill="white" stroke="black" points="198.5,-146.5 198.5,-187.5 323.5,-187.5 323.5,-146.5 198.5,-146.5"/>
<text text-anchor="start" x="206.5" y="-175.5" font-family="Helvetica,sans-Serif" font-size="10.00">include/shad/extensions</text>
<text text-anchor="start" x="206.5" y="-164.5" font-family="Helvetica,sans-Serif" font-size="10.00">/graph_library/local_edge</text>
<text text-anchor="middle" x="261" y="-153.5" font-family="Helvetica,sans-Serif" font-size="10.00">_index.h</text>
</a>
</g>
</g>
<!-- Node1&#45;&gt;Node5 -->
<g id="edge4" class="edge"><title>Node1&#45;&gt;Node5</title>
<path fill="none" stroke="midnightblue" d="M196.171,-218.581C208.64,-208.853 223.487,-197.268 235.825,-187.642"/>
<polygon fill="midnightblue" stroke="midnightblue" points="193.71,-216.062 187.979,-224.973 198.016,-221.581 193.71,-216.062"/>
</g>
<!-- Node3 -->
<g id="node3" class="node"><title>Node3</title>
<g id="a_node3"><a xlink:href="unordered__map_8h.html" target="_top" xlink:title="include/shad/core/unordered\l_map.h">
<polygon fill="white" stroke="black" points="1.5,-79 1.5,-109 140.5,-109 140.5,-79 1.5,-79"/>
<text text-anchor="start" x="9.5" y="-97" font-family="Helvetica,sans-Serif" font-size="10.00">include/shad/core/unordered</text>
<text text-anchor="middle" x="71" y="-86" font-family="Helvetica,sans-Serif" font-size="10.00">_map.h</text>
</a>
</g>
</g>
<!-- Node2&#45;&gt;Node3 -->
<g id="edge2" class="edge"><title>Node2&#45;&gt;Node3</title>
<path fill="none" stroke="midnightblue" d="M71,-141.898C71,-131.131 71,-118.801 71,-109.486"/>
<polygon fill="midnightblue" stroke="midnightblue" points="67.5001,-141.973 71,-151.973 74.5001,-141.973 67.5001,-141.973"/>
</g>
<!-- Node5&#45;&gt;Node4 -->
<g id="edge5" class="edge"><title>Node5&#45;&gt;Node4</title>
<path fill="none" stroke="midnightblue" d="M242.803,-137.742C237.454,-128.993 231.764,-119.226 227,-110 215.166,-87.0809 203.731,-59.6553 196.551,-41.5822"/>
<polygon fill="midnightblue" stroke="midnightblue" points="239.949,-139.781 248.202,-146.426 245.894,-136.085 239.949,-139.781"/>
</g>
<!-- Node6 -->
<g id="node6" class="node"><title>Node6</title>
<g id="a_node6"><a xlink:href="edge__index_8h.html" target="_top" xlink:title="include/shad/extensions\l/graph_library/edge_index.h">
<polygon fill="white" stroke="black" points="236,-79 236,-109 372,-109 372,-79 236,-79"/>
<text text-anchor="start" x="244" y="-97" font-family="Helvetica,sans-Serif" font-size="10.00">include/shad/extensions</text>
<text text-anchor="middle" x="304" y="-86" font-family="Helvetica,sans-Serif" font-size="10.00">/graph_library/edge_index.h</text>
</a>
</g>
</g>
<!-- Node5&#45;&gt;Node6 -->
<g id="edge6" class="edge"><title>Node5&#45;&gt;Node6</title>
<path fill="none" stroke="midnightblue" d="M278.246,-137.524C284.18,-127.726 290.564,-117.185 295.492,-109.049"/>
<polygon fill="midnightblue" stroke="midnightblue" points="275.165,-135.856 272.978,-146.223 281.152,-139.482 275.165,-135.856"/>
</g>
<!-- Node6&#45;&gt;Node4 -->
<g id="edge8" class="edge"><title>Node6&#45;&gt;Node4</title>
<path fill="none" stroke="midnightblue" d="M272.732,-73.6951C256.618,-63.7467 237.006,-51.6385 220.814,-41.642"/>
<polygon fill="midnightblue" stroke="midnightblue" points="270.932,-76.6974 281.28,-78.9727 274.609,-70.7411 270.932,-76.6974"/>
</g>
<!-- Node7 -->
<g id="node7" class="node"><title>Node7</title>
<g id="a_node7"><a xlink:href="sssp_8h.html" target="_top" xlink:title="include/shad/extensions\l/graph_library/algorithms\l/sssp.h">
<polygon fill="white" stroke="black" points="268.5,-0.5 268.5,-41.5 391.5,-41.5 391.5,-0.5 268.5,-0.5"/>
<text text-anchor="start" x="276.5" y="-29.5" font-family="Helvetica,sans-Serif" font-size="10.00">include/shad/extensions</text>
<text text-anchor="start" x="276.5" y="-18.5" font-family="Helvetica,sans-Serif" font-size="10.00">/graph_library/algorithms</text>
<text text-anchor="middle" x="330" y="-7.5" font-family="Helvetica,sans-Serif" font-size="10.00">/sssp.h</text>
</a>
</g>
</g>
<!-- Node6&#45;&gt;Node7 -->
<g id="edge7" class="edge"><title>Node6&#45;&gt;Node7</title>
<path fill="none" stroke="midnightblue" d="M312.629,-69.4364C315.929,-60.424 319.655,-50.2501 322.807,-41.642"/>
<polygon fill="midnightblue" stroke="midnightblue" points="309.289,-68.3789 309.137,-78.9727 315.862,-70.786 309.289,-68.3789"/>
</g>
</g>
</svg>
