<?xml version="1.0" encoding="UTF-8" standalone="no"?>
<!DOCTYPE svg PUBLIC "-//W3C//DTD SVG 1.1//EN"
 "http://www.w3.org/Graphics/SVG/1.1/DTD/svg11.dtd">
<!-- Generated by graphviz version 2.36.0 (20140111.2315)
 -->
<!-- Title: include/shad/data_structures/local_hashmap.h Pages: 1 -->
<svg width="1590pt" height="368pt"
 viewBox="0.00 0.00 1589.85 368.00" xmlns="http://www.w3.org/2000/svg" xmlns:xlink="http://www.w3.org/1999/xlink">
<g id="graph0" class="graph" transform="scale(1 1) rotate(0) translate(4 364)">
<title>include/shad/data_structures/local_hashmap.h</title>
<polygon fill="white" stroke="none" points="-4,4 -4,-364 1585.85,-364 1585.85,4 -4,4"/>
<!-- Node1 -->
<g id="node1" class="node"><title>Node1</title>
<polygon fill="#bfbfbf" stroke="black" points="838.85,-329 838.85,-359 980.85,-359 980.85,-329 838.85,-329"/>
<text text-anchor="start" x="846.85" y="-347" font-family="Helvetica,sans-Serif" font-size="10.00">include/shad/data_structures</text>
<text text-anchor="middle" x="909.85" y="-336" font-family="Helvetica,sans-Serif" font-size="10.00">/local_hashmap.h</text>
</g>
<!-- Node2 -->
<g id="node2" class="node"><title>Node2</title>
<polygon fill="white" stroke="#bfbfbf" points="14.8505,-198.5 14.8505,-217.5 70.8505,-217.5 70.8505,-198.5 14.8505,-198.5"/>
<text text-anchor="middle" x="42.8505" y="-205.5" font-family="Helvetica,sans-Serif" font-size="10.00">algorithm</text>
</g>
<!-- Node1&#45;&gt;Node2 -->
<g id="edge1" class="edge"><title>Node1&#45;&gt;Node2</title>
<path fill="none" stroke="midnightblue" d="M838.836,-341.16C686.152,-336.655 331.067,-323.093 214.85,-292 157.668,-276.701 96.5899,-242.374 64.8606,-222.999"/>
<polygon fill="midnightblue" stroke="midnightblue" points="66.3365,-219.796 55.9926,-217.504 62.6493,-225.746 66.3365,-219.796"/>
</g>
<!-- Node3 -->
<g id="node3" class="node"><title>Node3</title>
<polygon fill="white" stroke="#bfbfbf" points="1479.85,-266.5 1479.85,-285.5 1525.85,-285.5 1525.85,-266.5 1479.85,-266.5"/>
<text text-anchor="middle" x="1502.85" y="-273.5" font-family="Helvetica,sans-Serif" font-size="10.00">atomic</text>
</g>
<!-- Node1&#45;&gt;Node3 -->
<g id="edge2" class="edge"><title>Node1&#45;&gt;Node3</title>
<path fill="none" stroke="midnightblue" d="M981.154,-343.097C1088.01,-341.762 1295.36,-333.417 1465.85,-292 1468.92,-291.255 1472.06,-290.3 1475.16,-289.235"/>
<polygon fill="midnightblue" stroke="midnightblue" points="1476.67,-292.408 1484.76,-285.57 1474.17,-285.868 1476.67,-292.408"/>
</g>
<!-- Node4 -->
<g id="node4" class="node"><title>Node4</title>
<polygon fill="white" stroke="#bfbfbf" points="144.35,-130.5 144.35,-149.5 203.35,-149.5 203.35,-130.5 144.35,-130.5"/>
<text text-anchor="middle" x="173.85" y="-137.5" font-family="Helvetica,sans-Serif" font-size="10.00">functional</text>
</g>
<!-- Node1&#45;&gt;Node4 -->
<g id="edge3" class="edge"><title>Node1&#45;&gt;Node4</title>
<path fill="none" stroke="midnightblue" d="M838.65,-342.132C672.843,-339.497 265.097,-329.312 133.85,-292 71.8873,-274.385 39.0383,-279.211 5.85046,-224 -24.9809,-172.709 75.2437,-152.274 134.097,-144.834"/>
<polygon fill="midnightblue" stroke="midnightblue" points="134.697,-148.288 144.213,-143.631 133.87,-141.337 134.697,-148.288"/>
</g>
<!-- Node5 -->
<g id="node5" class="node"><title>Node5</title>
<polygon fill="white" stroke="#bfbfbf" points="1329.85,-130.5 1329.85,-149.5 1381.85,-149.5 1381.85,-130.5 1329.85,-130.5"/>
<text text-anchor="middle" x="1355.85" y="-137.5" font-family="Helvetica,sans-Serif" font-size="10.00">memory</text>
</g>
<!-- Node1&#45;&gt;Node5 -->
<g id="edge4" class="edge"><title>Node1&#45;&gt;Node5</title>
<path fill="none" stroke="midnightblue" d="M980.883,-337.767C1110.82,-326.531 1378.49,-295.117 1432.85,-224 1441.49,-212.7 1439.58,-204.529 1432.85,-192 1423.53,-174.642 1405.41,-162.197 1389.1,-153.948"/>
<polygon fill="midnightblue" stroke="midnightblue" points="1390.31,-150.654 1379.78,-149.571 1387.34,-156.99 1390.31,-150.654"/>
</g>
<!-- Node6 -->
<g id="node6" class="node"><title>Node6</title>
<polygon fill="white" stroke="#bfbfbf" points="1543.85,-266.5 1543.85,-285.5 1581.85,-285.5 1581.85,-266.5 1543.85,-266.5"/>
<text text-anchor="middle" x="1562.85" y="-273.5" font-family="Helvetica,sans-Serif" font-size="10.00">tuple</text>
</g>
<!-- Node1&#45;&gt;Node6 -->
<g id="edge5" class="edge"><title>Node1&#45;&gt;Node6</title>
<path fill="none" stroke="midnightblue" d="M980.969,-340.842C1122.11,-335.963 1432.77,-322.085 1534.85,-292 1536.56,-291.496 1538.28,-290.881 1539.99,-290.19"/>
<polygon fill="midnightblue" stroke="midnightblue" points="1541.89,-293.158 1549.38,-285.657 1538.85,-286.854 1541.89,-293.158"/>
</g>
<!-- Node7 -->
<g id="node7" class="node"><title>Node7</title>
<polygon fill="white" stroke="#bfbfbf" points="1383.85,-198.5 1383.85,-217.5 1423.85,-217.5 1423.85,-198.5 1383.85,-198.5"/>
<text text-anchor="middle" x="1403.85" y="-205.5" font-family="Helvetica,sans-Serif" font-size="10.00">utility</text>
</g>
<!-- Node1&#45;&gt;Node7 -->
<g id="edge6" class="edge"><title>Node1&#45;&gt;Node7</title>
<path fill="none" stroke="midnightblue" d="M966.709,-328.975C1052.05,-307.682 1218.17,-265.292 1357.85,-224 1363.05,-222.462 1368.56,-220.745 1373.88,-219.037"/>
<polygon fill="midnightblue" stroke="midnightblue" points="1375.35,-222.241 1383.77,-215.815 1373.18,-215.586 1375.35,-222.241"/>
</g>
<!-- Node8 -->
<g id="node8" class="node"><title>Node8</title>
<polygon fill="white" stroke="#bfbfbf" points="400.85,-198.5 400.85,-217.5 444.85,-217.5 444.85,-198.5 400.85,-198.5"/>
<text text-anchor="middle" x="422.85" y="-205.5" font-family="Helvetica,sans-Serif" font-size="10.00">vector</text>
</g>
<!-- Node1&#45;&gt;Node8 -->
<g id="edge7" class="edge"><title>Node1&#45;&gt;Node8</title>
<path fill="none" stroke="midnightblue" d="M845.55,-328.957C757.316,-309.028 594.232,-269.825 458.85,-224 456.437,-223.183 453.956,-222.282 451.479,-221.34"/>
<polygon fill="midnightblue" stroke="midnightblue" points="452.68,-218.051 442.095,-217.589 450.082,-224.551 452.68,-218.051"/>
</g>
<!-- Node9 -->
<g id="node9" class="node"><title>Node9</title>
<g id="a_node9"><a xlink:href="compare__and__hash__utils_8h.html" target="_top" xlink:title="shad/data_structures\l/compare_and_hash_utils.h">
<polygon fill="white" stroke="black" points="223.85,-261 223.85,-291 359.85,-291 359.85,-261 223.85,-261"/>
<text text-anchor="start" x="231.85" y="-279" font-family="Helvetica,sans-Serif" font-size="10.00">shad/data_structures</text>
<text text-anchor="middle" x="291.85" y="-268" font-family="Helvetica,sans-Serif" font-size="10.00">/compare_and_hash_utils.h</text>
</a>
</g>
</g>
<!-- Node1&#45;&gt;Node9 -->
<g id="edge8" class="edge"><title>Node1&#45;&gt;Node9</title>
<path fill="none" stroke="midnightblue" d="M838.656,-335.397C722.081,-322.947 491.362,-298.307 370.259,-285.374"/>
<polygon fill="midnightblue" stroke="midnightblue" points="370.271,-281.855 359.955,-284.273 369.527,-288.816 370.271,-281.855"/>
</g>
<!-- Node14 -->
<g id="node14" class="node"><title>Node14</title>
<g id="a_node14"><a xlink:href="runtime_8h.html" target="_top" xlink:title="shad/runtime/runtime.h">
<polygon fill="white" stroke="black" points="851.85,-266.5 851.85,-285.5 967.85,-285.5 967.85,-266.5 851.85,-266.5"/>
<text text-anchor="middle" x="909.85" y="-273.5" font-family="Helvetica,sans-Serif" font-size="10.00">shad/runtime/runtime.h</text>
</a>
</g>
</g>
<!-- Node1&#45;&gt;Node14 -->
<g id="edge18" class="edge"><title>Node1&#45;&gt;Node14</title>
<path fill="none" stroke="midnightblue" d="M909.85,-328.679C909.85,-319.101 909.85,-306.394 909.85,-295.977"/>
<polygon fill="midnightblue" stroke="midnightblue" points="913.351,-295.828 909.85,-285.828 906.351,-295.828 913.351,-295.828"/>
</g>
<!-- Node9&#45;&gt;Node2 -->
<g id="edge9" class="edge"><title>Node9&#45;&gt;Node2</title>
<path fill="none" stroke="midnightblue" d="M227.52,-260.923C186.426,-251.495 132.166,-238.238 84.8505,-224 81.6623,-223.041 78.3602,-221.98 75.0724,-220.88"/>
<polygon fill="midnightblue" stroke="midnightblue" points="75.9748,-217.489 65.38,-217.521 73.6822,-224.103 75.9748,-217.489"/>
</g>
<!-- Node9&#45;&gt;Node4 -->
<g id="edge12" class="edge"><title>Node9&#45;&gt;Node4</title>
<path fill="none" stroke="midnightblue" d="M223.791,-263.658C180.776,-254.944 130.919,-241.448 117.85,-224 100.387,-200.683 129.788,-172.324 152.178,-155.517"/>
<polygon fill="midnightblue" stroke="midnightblue" points="154.227,-158.355 160.304,-149.676 150.141,-152.671 154.227,-158.355"/>
</g>
<!-- Node9&#45;&gt;Node8 -->
<g id="edge14" class="edge"><title>Node9&#45;&gt;Node8</title>
<path fill="none" stroke="midnightblue" d="M319.953,-260.841C342.612,-249.425 374.251,-233.485 396.445,-222.303"/>
<polygon fill="midnightblue" stroke="midnightblue" points="398.262,-225.307 405.618,-217.682 395.113,-219.056 398.262,-225.307"/>
</g>
<!-- Node10 -->
<g id="node10" class="node"><title>Node10</title>
<polygon fill="white" stroke="#bfbfbf" points="1082.85,-62.5 1082.85,-81.5 1128.85,-81.5 1128.85,-62.5 1082.85,-62.5"/>
<text text-anchor="middle" x="1105.85" y="-69.5" font-family="Helvetica,sans-Serif" font-size="10.00">cstdint</text>
</g>
<!-- Node9&#45;&gt;Node10 -->
<g id="edge10" class="edge"><title>Node9&#45;&gt;Node10</title>
<path fill="none" stroke="midnightblue" d="M303.342,-260.987C320.338,-241.438 354.245,-206.726 391.85,-192 530.689,-137.634 936.2,-236.274 1061.85,-156 1084.47,-141.546 1096.2,-111.363 1101.68,-91.6552"/>
<polygon fill="midnightblue" stroke="midnightblue" points="1105.14,-92.2553 1104.17,-81.7047 1098.35,-90.5557 1105.14,-92.2553"/>
</g>
<!-- Node11 -->
<g id="node11" class="node"><title>Node11</title>
<polygon fill="white" stroke="#bfbfbf" points="126.85,-198.5 126.85,-217.5 172.85,-217.5 172.85,-198.5 126.85,-198.5"/>
<text text-anchor="middle" x="149.85" y="-205.5" font-family="Helvetica,sans-Serif" font-size="10.00">cstring</text>
</g>
<!-- Node9&#45;&gt;Node11 -->
<g id="edge11" class="edge"><title>Node9&#45;&gt;Node11</title>
<path fill="none" stroke="midnightblue" d="M261.486,-260.964C239.389,-250.739 208.751,-236.541 181.85,-224 180.46,-223.352 179.036,-222.687 177.599,-222.016"/>
<polygon fill="midnightblue" stroke="midnightblue" points="178.661,-218.649 168.12,-217.58 175.694,-224.989 178.661,-218.649"/>
</g>
<!-- Node12 -->
<g id="node12" class="node"><title>Node12</title>
<polygon fill="white" stroke="#bfbfbf" points="303.85,-130.5 303.85,-149.5 365.85,-149.5 365.85,-130.5 303.85,-130.5"/>
<text text-anchor="middle" x="334.85" y="-137.5" font-family="Helvetica,sans-Serif" font-size="10.00">type_traits</text>
</g>
<!-- Node9&#45;&gt;Node12 -->
<g id="edge13" class="edge"><title>Node9&#45;&gt;Node12</title>
<path fill="none" stroke="midnightblue" d="M299.023,-260.999C303.978,-250.911 310.443,-236.864 314.85,-224 322.188,-202.581 327.89,-177.173 331.296,-160.161"/>
<polygon fill="midnightblue" stroke="midnightblue" points="334.822,-160.359 333.278,-149.878 327.948,-159.034 334.822,-160.359"/>
</g>
<!-- Node13 -->
<g id="node13" class="node"><title>Node13</title>
<g id="a_node13"><a xlink:href="type__traits_8h.html" target="_top" xlink:title="shad/core/type_traits.h">
<polygon fill="white" stroke="black" points="190.85,-198.5 190.85,-217.5 306.85,-217.5 306.85,-198.5 190.85,-198.5"/>
<text text-anchor="middle" x="248.85" y="-205.5" font-family="Helvetica,sans-Serif" font-size="10.00">shad/core/type_traits.h</text>
</a>
</g>
</g>
<!-- Node9&#45;&gt;Node13 -->
<g id="edge15" class="edge"><title>Node9&#45;&gt;Node13</title>
<path fill="none" stroke="midnightblue" d="M282.52,-260.679C275.948,-250.592 267.114,-237.033 260.144,-226.335"/>
<polygon fill="midnightblue" stroke="midnightblue" points="262.994,-224.296 254.602,-217.828 257.129,-228.118 262.994,-224.296"/>
</g>
<!-- Node13&#45;&gt;Node4 -->
<g id="edge16" class="edge"><title>Node13&#45;&gt;Node4</title>
<path fill="none" stroke="midnightblue" d="M239.046,-198.372C226.985,-187.758 206.288,-169.545 191.448,-156.485"/>
<polygon fill="midnightblue" stroke="midnightblue" points="193.717,-153.82 183.897,-149.841 189.092,-159.075 193.717,-153.82"/>
</g>
<!-- Node13&#45;&gt;Node12 -->
<g id="edge17" class="edge"><title>Node13&#45;&gt;Node12</title>
<path fill="none" stroke="midnightblue" d="M260.093,-198.372C274.129,-187.6 298.363,-169.002 315.427,-155.906"/>
<polygon fill="midnightblue" stroke="midnightblue" points="317.802,-158.495 323.605,-149.63 313.541,-152.942 317.802,-158.495"/>
</g>
<!-- Node14&#45;&gt;Node4 -->
<g id="edge21" class="edge"><title>Node14&#45;&gt;Node4</title>
<path fill="none" stroke="midnightblue" d="M851.601,-271.909C752.41,-265.983 555.284,-251.139 491.85,-224 471.236,-215.181 473.193,-201.427 452.85,-192 410.867,-172.544 280.15,-154.167 213.617,-145.771"/>
<polygon fill="midnightblue" stroke="midnightblue" points="213.87,-142.276 203.514,-144.511 213.004,-149.222 213.87,-142.276"/>
</g>
<!-- Node14&#45;&gt;Node5 -->
<g id="edge25" class="edge"><title>Node14&#45;&gt;Node5</title>
<path fill="none" stroke="midnightblue" d="M967.957,-271.699C1078.13,-264.915 1308.85,-248.004 1335.85,-224 1353.82,-208.021 1357.05,-178.958 1357,-159.813"/>
<polygon fill="midnightblue" stroke="midnightblue" points="1360.49,-159.5 1356.66,-149.621 1353.49,-159.73 1360.49,-159.5"/>
</g>
<!-- Node14&#45;&gt;Node7 -->
<g id="edge28" class="edge"><title>Node14&#45;&gt;Node7</title>
<path fill="none" stroke="midnightblue" d="M967.905,-274.198C1056.19,-271.726 1228.83,-261.96 1369.85,-224 1372.5,-223.286 1375.22,-222.394 1377.89,-221.403"/>
<polygon fill="midnightblue" stroke="midnightblue" points="1379.37,-224.581 1387.27,-217.524 1376.69,-218.112 1379.37,-224.581"/>
</g>
<!-- Node14&#45;&gt;Node8 -->
<g id="edge29" class="edge"><title>Node14&#45;&gt;Node8</title>
<path fill="none" stroke="midnightblue" d="M851.592,-273.637C764.731,-270.439 596.718,-259.747 458.85,-224 456.024,-223.267 453.128,-222.356 450.267,-221.346"/>
<polygon fill="midnightblue" stroke="midnightblue" points="451.408,-218.035 440.82,-217.656 448.861,-224.555 451.408,-218.035"/>
</g>
<!-- Node14&#45;&gt;Node10 -->
<g id="edge20" class="edge"><title>Node14&#45;&gt;Node10</title>
<path fill="none" stroke="midnightblue" d="M967.988,-268.17C1020.91,-260.614 1093.39,-246.448 1110.85,-224 1141.11,-185.11 1124.27,-121.988 1113.16,-91.1369"/>
<polygon fill="midnightblue" stroke="midnightblue" points="1116.38,-89.7651 1109.55,-81.663 1109.84,-92.254 1116.38,-89.7651"/>
</g>
<!-- Node15 -->
<g id="node15" class="node"><title>Node15</title>
<polygon fill="white" stroke="#bfbfbf" points="1165.35,-130.5 1165.35,-149.5 1214.35,-149.5 1214.35,-130.5 1165.35,-130.5"/>
<text text-anchor="middle" x="1189.85" y="-137.5" font-family="Helvetica,sans-Serif" font-size="10.00">cstddef</text>
</g>
<!-- Node14&#45;&gt;Node15 -->
<g id="edge19" class="edge"><title>Node14&#45;&gt;Node15</title>
<path fill="none" stroke="midnightblue" d="M967.92,-267.897C1027.89,-259.605 1116.45,-244.383 1143.85,-224 1165.5,-207.895 1178.27,-178.428 1184.67,-159.286"/>
<polygon fill="midnightblue" stroke="midnightblue" points="1188.05,-160.213 1187.65,-149.625 1181.36,-158.149 1188.05,-160.213"/>
</g>
<!-- Node16 -->
<g id="node16" class="node"><title>Node16</title>
<polygon fill="white" stroke="#bfbfbf" points="632.85,-198.5 632.85,-217.5 686.85,-217.5 686.85,-198.5 632.85,-198.5"/>
<text text-anchor="middle" x="659.85" y="-205.5" font-family="Helvetica,sans-Serif" font-size="10.00">iostream</text>
</g>
<!-- Node14&#45;&gt;Node16 -->
<g id="edge22" class="edge"><title>Node14&#45;&gt;Node16</title>
<path fill="none" stroke="midnightblue" d="M864.593,-266.421C820.874,-257.618 753.057,-242.601 695.85,-224 693.283,-223.165 690.642,-222.226 688.012,-221.236"/>
<polygon fill="midnightblue" stroke="midnightblue" points="689.278,-217.973 678.692,-217.521 686.685,-224.475 689.278,-217.973"/>
</g>
<!-- Node17 -->
<g id="node17" class="node"><title>Node17</title>
<polygon fill="white" stroke="#bfbfbf" points="705.35,-198.5 705.35,-217.5 752.35,-217.5 752.35,-198.5 705.35,-198.5"/>
<text text-anchor="middle" x="728.85" y="-205.5" font-family="Helvetica,sans-Serif" font-size="10.00">iterator</text>
</g>
<!-- Node14&#45;&gt;Node17 -->
<g id="edge23" class="edge"><title>Node14&#45;&gt;Node17</title>
<path fill="none" stroke="midnightblue" d="M882.059,-266.484C851.881,-257.006 802.424,-240.801 760.85,-224 759.208,-223.336 757.529,-222.631 755.842,-221.903"/>
<polygon fill="midnightblue" stroke="midnightblue" points="756.859,-218.522 746.304,-217.6 753.98,-224.903 756.859,-218.522"/>
</g>
<!-- Node18 -->
<g id="node18" class="node"><title>Node18</title>
<polygon fill="white" stroke="#bfbfbf" points="770.35,-198.5 770.35,-217.5 805.35,-217.5 805.35,-198.5 770.35,-198.5"/>
<text text-anchor="middle" x="787.85" y="-205.5" font-family="Helvetica,sans-Serif" font-size="10.00">map</text>
</g>
<!-- Node14&#45;&gt;Node18 -->
<g id="edge24" class="edge"><title>Node14&#45;&gt;Node18</title>
<path fill="none" stroke="midnightblue" d="M893.901,-266.372C873.26,-255.205 837.069,-235.627 812.782,-222.488"/>
<polygon fill="midnightblue" stroke="midnightblue" points="814.265,-219.31 803.804,-217.63 810.934,-225.467 814.265,-219.31"/>
</g>
<!-- Node19 -->
<g id="node19" class="node"><title>Node19</title>
<polygon fill="white" stroke="#bfbfbf" points="975.85,-198.5 975.85,-217.5 1005.85,-217.5 1005.85,-198.5 975.85,-198.5"/>
<text text-anchor="middle" x="990.85" y="-205.5" font-family="Helvetica,sans-Serif" font-size="10.00">set</text>
</g>
<!-- Node14&#45;&gt;Node19 -->
<g id="edge26" class="edge"><title>Node14&#45;&gt;Node19</title>
<path fill="none" stroke="midnightblue" d="M920.44,-266.372C933.538,-255.699 956.066,-237.343 972.112,-224.268"/>
<polygon fill="midnightblue" stroke="midnightblue" points="974.717,-226.661 980.259,-217.63 970.295,-221.234 974.717,-226.661"/>
</g>
<!-- Node20 -->
<g id="node20" class="node"><title>Node20</title>
<polygon fill="white" stroke="#bfbfbf" points="1023.85,-198.5 1023.85,-217.5 1101.85,-217.5 1101.85,-198.5 1023.85,-198.5"/>
<text text-anchor="middle" x="1062.85" y="-205.5" font-family="Helvetica,sans-Serif" font-size="10.00">unordered_set</text>
</g>
<!-- Node14&#45;&gt;Node20 -->
<g id="edge27" class="edge"><title>Node14&#45;&gt;Node20</title>
<path fill="none" stroke="midnightblue" d="M929.853,-266.372C956.311,-254.958 1003.14,-234.756 1033.58,-221.625"/>
<polygon fill="midnightblue" stroke="midnightblue" points="1035.05,-224.805 1042.84,-217.63 1032.28,-218.378 1035.05,-224.805"/>
</g>
<!-- Node21 -->
<g id="node21" class="node"><title>Node21</title>
<polygon fill="white" stroke="#bfbfbf" points="781.85,-0.5 781.85,-19.5 885.85,-19.5 885.85,-0.5 781.85,-0.5"/>
<text text-anchor="middle" x="833.85" y="-7.5" font-family="Helvetica,sans-Serif" font-size="10.00">shad/config/config.h</text>
</g>
<!-- Node14&#45;&gt;Node21 -->
<g id="edge30" class="edge"><title>Node14&#45;&gt;Node21</title>
<path fill="none" stroke="midnightblue" d="M911.399,-266.376C916.478,-235.566 930.156,-128.893 890.85,-56 883.91,-43.1277 871.557,-32.6819 860.121,-25.1063"/>
<polygon fill="midnightblue" stroke="midnightblue" points="861.618,-21.9176 851.267,-19.6547 857.947,-27.8783 861.618,-21.9176"/>
</g>
<!-- Node22 -->
<g id="node22" class="node"><title>Node22</title>
<g id="a_node22"><a xlink:href="handle_8h.html" target="_top" xlink:title="shad/runtime/handle.h">
<polygon fill="white" stroke="black" points="501.35,-198.5 501.35,-217.5 614.35,-217.5 614.35,-198.5 501.35,-198.5"/>
<text text-anchor="middle" x="557.85" y="-205.5" font-family="Helvetica,sans-Serif" font-size="10.00">shad/runtime/handle.h</text>
</a>
</g>
</g>
<!-- Node14&#45;&gt;Node22 -->
<g id="edge31" class="edge"><title>Node14&#45;&gt;Node22</title>
<path fill="none" stroke="midnightblue" d="M857.784,-266.472C800.357,-256.889 705.288,-240.506 623.85,-224 617.502,-222.713 610.827,-221.285 604.261,-219.836"/>
<polygon fill="midnightblue" stroke="midnightblue" points="604.618,-216.33 594.095,-217.56 603.089,-223.16 604.618,-216.33"/>
</g>
<!-- Node23 -->
<g id="node23" class="node"><title>Node23</title>
<g id="a_node23"><a xlink:href="mapping__traits_8h.html" target="_top" xlink:title="shad/runtime/mapping\l_traits.h">
<polygon fill="white" stroke="black" points="610.35,-57 610.35,-87 723.35,-87 723.35,-57 610.35,-57"/>
<text text-anchor="start" x="618.35" y="-75" font-family="Helvetica,sans-Serif" font-size="10.00">shad/runtime/mapping</text>
<text text-anchor="middle" x="666.85" y="-64" font-family="Helvetica,sans-Serif" font-size="10.00">_traits.h</text>
</a>
</g>
</g>
<!-- Node14&#45;&gt;Node23 -->
<g id="edge43" class="edge"><title>Node14&#45;&gt;Node23</title>
<path fill="none" stroke="midnightblue" d="M900.326,-266.41C879.746,-247.908 831.559,-204.922 813.85,-192 789.036,-173.893 779.267,-174.639 754.85,-156 730.096,-137.103 704.493,-112.249 687.33,-94.6797"/>
<polygon fill="midnightblue" stroke="midnightblue" points="689.537,-91.9271 680.072,-87.1675 684.503,-96.7911 689.537,-91.9271"/>
</g>
<!-- Node26 -->
<g id="node26" class="node"><title>Node26</title>
<g id="a_node26"><a xlink:href="locality_8h.html" target="_top" xlink:title="shad/runtime/locality.h">
<polygon fill="white" stroke="black" points="938.35,-130.5 938.35,-149.5 1053.35,-149.5 1053.35,-130.5 938.35,-130.5"/>
<text text-anchor="middle" x="995.85" y="-137.5" font-family="Helvetica,sans-Serif" font-size="10.00">shad/runtime/locality.h</text>
</a>
</g>
</g>
<!-- Node14&#45;&gt;Node26 -->
<g id="edge38" class="edge"><title>Node14&#45;&gt;Node26</title>
<path fill="none" stroke="midnightblue" d="M915.493,-266.208C929.527,-244.342 966.206,-187.19 984.76,-158.28"/>
<polygon fill="midnightblue" stroke="midnightblue" points="987.843,-159.957 990.299,-149.65 981.952,-156.176 987.843,-159.957"/>
</g>
<!-- Node27 -->
<g id="node27" class="node"><title>Node27</title>
<g id="a_node27"><a xlink:href="available__mappings_8h.html" target="_top" xlink:title="shad/runtime/mappings\l/available_mappings.h">
<polygon fill="white" stroke="black" points="763.85,-125 763.85,-155 881.85,-155 881.85,-125 763.85,-125"/>
<text text-anchor="start" x="771.85" y="-143" font-family="Helvetica,sans-Serif" font-size="10.00">shad/runtime/mappings</text>
<text text-anchor="middle" x="822.85" y="-132" font-family="Helvetica,sans-Serif" font-size="10.00">/available_mappings.h</text>
</a>
</g>
</g>
<!-- Node14&#45;&gt;Node27 -->
<g id="edge44" class="edge"><title>Node14&#45;&gt;Node27</title>
<path fill="none" stroke="midnightblue" d="M904.142,-266.208C890.781,-245.629 857.129,-193.797 837.567,-163.667"/>
<polygon fill="midnightblue" stroke="midnightblue" points="840.367,-161.553 831.986,-155.071 834.496,-165.365 840.367,-161.553"/>
</g>
<!-- Node28 -->
<g id="node28" class="node"><title>Node28</title>
<g id="a_node28"><a xlink:href="synchronous__interface_8h.html" target="_top" xlink:title="shad/runtime/synchronous\l_interface.h">
<polygon fill="white" stroke="black" points="1196.35,-193 1196.35,-223 1327.35,-223 1327.35,-193 1196.35,-193"/>
<text text-anchor="start" x="1204.35" y="-211" font-family="Helvetica,sans-Serif" font-size="10.00">shad/runtime/synchronous</text>
<text text-anchor="middle" x="1261.85" y="-200" font-family="Helvetica,sans-Serif" font-size="10.00">_interface.h</text>
</a>
</g>
</g>
<!-- Node14&#45;&gt;Node28 -->
<g id="edge46" class="edge"><title>Node14&#45;&gt;Node28</title>
<path fill="none" stroke="midnightblue" d="M955.507,-266.439C1013.93,-255.485 1115.94,-236.358 1186.09,-223.206"/>
<polygon fill="midnightblue" stroke="midnightblue" points="1187.01,-226.593 1196.19,-221.31 1185.72,-219.713 1187.01,-226.593"/>
</g>
<!-- Node22&#45;&gt;Node12 -->
<g id="edge32" class="edge"><title>Node22&#45;&gt;Node12</title>
<path fill="none" stroke="midnightblue" d="M528.697,-198.372C488.938,-186.604 417.617,-165.496 373.455,-152.426"/>
<polygon fill="midnightblue" stroke="midnightblue" points="374.24,-149.008 363.658,-149.526 372.253,-155.72 374.24,-149.008"/>
</g>
<!-- Node22&#45;&gt;Node21 -->
<g id="edge33" class="edge"><title>Node22&#45;&gt;Node21</title>
<path fill="none" stroke="midnightblue" d="M557.44,-198.246C556.736,-172.245 558.459,-94.8687 600.85,-56 625.286,-33.5947 711.085,-21.5754 771.436,-15.7384"/>
<polygon fill="midnightblue" stroke="midnightblue" points="772.006,-19.2005 781.638,-14.7866 771.356,-12.2308 772.006,-19.2005"/>
</g>
<!-- Node22&#45;&gt;Node23 -->
<g id="edge34" class="edge"><title>Node22&#45;&gt;Node23</title>
<path fill="none" stroke="midnightblue" d="M565.002,-198.208C581.886,-177.451 624.633,-124.901 649.042,-94.8924"/>
<polygon fill="midnightblue" stroke="midnightblue" points="651.809,-97.0375 655.404,-87.0713 646.379,-92.6203 651.809,-97.0375"/>
</g>
<!-- Node25 -->
<g id="node25" class="node"><title>Node25</title>
<g id="a_node25"><a xlink:href="available__traits__mappings_8h.html" target="_top" xlink:title="shad/runtime/mappings\l/available_traits_mappings.h">
<polygon fill="white" stroke="black" points="741.85,-57 741.85,-87 881.85,-87 881.85,-57 741.85,-57"/>
<text text-anchor="start" x="749.85" y="-75" font-family="Helvetica,sans-Serif" font-size="10.00">shad/runtime/mappings</text>
<text text-anchor="middle" x="811.85" y="-64" font-family="Helvetica,sans-Serif" font-size="10.00">/available_traits_mappings.h</text>
</a>
</g>
</g>
<!-- Node22&#45;&gt;Node25 -->
<g id="edge37" class="edge"><title>Node22&#45;&gt;Node25</title>
<path fill="none" stroke="midnightblue" d="M574.126,-198.414C614.493,-177.118 719.984,-121.465 775.883,-91.9751"/>
<polygon fill="midnightblue" stroke="midnightblue" points="777.852,-94.8932 785.064,-87.1315 774.586,-88.702 777.852,-94.8932"/>
</g>
<!-- Node23&#45;&gt;Node21 -->
<g id="edge36" class="edge"><title>Node23&#45;&gt;Node21</title>
<path fill="none" stroke="midnightblue" d="M706.005,-56.9327C734.682,-46.6292 773.192,-32.7935 800.428,-23.0079"/>
<polygon fill="midnightblue" stroke="midnightblue" points="801.686,-26.2752 809.914,-19.6 799.319,-19.6874 801.686,-26.2752"/>
</g>
<!-- Node24 -->
<g id="node24" class="node"><title>Node24</title>
<polygon fill="white" stroke="#bfbfbf" points="646.35,-0.5 646.35,-19.5 687.35,-19.5 687.35,-0.5 646.35,-0.5"/>
<text text-anchor="middle" x="666.85" y="-7.5" font-family="Helvetica,sans-Serif" font-size="10.00">string</text>
</g>
<!-- Node23&#45;&gt;Node24 -->
<g id="edge35" class="edge"><title>Node23&#45;&gt;Node24</title>
<path fill="none" stroke="midnightblue" d="M666.85,-56.7808C666.85,-48.7812 666.85,-38.6887 666.85,-30.0168"/>
<polygon fill="midnightblue" stroke="midnightblue" points="670.351,-29.7305 666.85,-19.7305 663.351,-29.7306 670.351,-29.7305"/>
</g>
<!-- Node26&#45;&gt;Node10 -->
<g id="edge39" class="edge"><title>Node26&#45;&gt;Node10</title>
<path fill="none" stroke="midnightblue" d="M1010.23,-130.372C1028.68,-119.304 1060.9,-99.9724 1082.79,-86.838"/>
<polygon fill="midnightblue" stroke="midnightblue" points="1084.69,-89.7767 1091.47,-81.6305 1081.09,-83.7742 1084.69,-89.7767"/>
</g>
<!-- Node26&#45;&gt;Node21 -->
<g id="edge40" class="edge"><title>Node26&#45;&gt;Node21</title>
<path fill="none" stroke="midnightblue" d="M990.026,-130.241C978.818,-113.915 952.786,-78.4543 923.85,-56 906.5,-42.5355 884.485,-31.443 866.572,-23.6399"/>
<polygon fill="midnightblue" stroke="midnightblue" points="867.673,-20.3057 857.098,-19.6491 864.955,-26.7567 867.673,-20.3057"/>
</g>
<!-- Node26&#45;&gt;Node23 -->
<g id="edge41" class="edge"><title>Node26&#45;&gt;Node23</title>
<path fill="none" stroke="midnightblue" d="M949.202,-130.42C898.613,-121.011 815.234,-105.202 733.646,-88.1308"/>
<polygon fill="midnightblue" stroke="midnightblue" points="734.213,-84.6737 723.707,-86.0431 732.774,-91.5242 734.213,-84.6737"/>
</g>
<!-- Node26&#45;&gt;Node25 -->
<g id="edge42" class="edge"><title>Node26&#45;&gt;Node25</title>
<path fill="none" stroke="midnightblue" d="M971.796,-130.372C943.748,-120.311 896.663,-103.422 860.823,-90.5662"/>
<polygon fill="midnightblue" stroke="midnightblue" points="861.632,-87.1381 851.038,-87.0562 859.269,-93.7271 861.632,-87.1381"/>
</g>
<!-- Node27&#45;&gt;Node25 -->
<g id="edge45" class="edge"><title>Node27&#45;&gt;Node25</title>
<path fill="none" stroke="midnightblue" d="M820.464,-124.679C819.137,-116.722 817.451,-106.605 815.923,-97.4356"/>
<polygon fill="midnightblue" stroke="midnightblue" points="819.329,-96.5816 814.233,-87.2931 812.424,-97.7324 819.329,-96.5816"/>
</g>
<!-- Node28&#45;&gt;Node5 -->
<g id="edge49" class="edge"><title>Node28&#45;&gt;Node5</title>
<path fill="none" stroke="midnightblue" d="M1282.25,-192.679C1297.86,-181.713 1319.33,-166.645 1335.04,-155.609"/>
<polygon fill="midnightblue" stroke="midnightblue" points="1337.38,-158.249 1343.55,-149.638 1333.35,-152.52 1337.38,-158.249"/>
</g>
<!-- Node28&#45;&gt;Node10 -->
<g id="edge48" class="edge"><title>Node28&#45;&gt;Node10</title>
<path fill="none" stroke="midnightblue" d="M1258.52,-192.852C1253.59,-174.715 1242.71,-143.311 1222.85,-124 1199.57,-101.365 1164.6,-87.9318 1138.96,-80.5832"/>
<polygon fill="midnightblue" stroke="midnightblue" points="1139.85,-77.1999 1129.29,-77.9711 1138.03,-83.9577 1139.85,-77.1999"/>
</g>
<!-- Node28&#45;&gt;Node15 -->
<g id="edge47" class="edge"><title>Node28&#45;&gt;Node15</title>
<path fill="none" stroke="midnightblue" d="M1246.23,-192.679C1234.67,-182.082 1218.93,-167.655 1207.02,-156.736"/>
<polygon fill="midnightblue" stroke="midnightblue" points="1209.22,-154.006 1199.48,-149.828 1204.49,-159.166 1209.22,-154.006"/>
</g>
<!-- Node28&#45;&gt;Node26 -->
<g id="edge50" class="edge"><title>Node28&#45;&gt;Node26</title>
<path fill="none" stroke="midnightblue" d="M1205.11,-192.922C1155.75,-180.674 1085.21,-163.173 1039.97,-151.948"/>
<polygon fill="midnightblue" stroke="midnightblue" points="1040.71,-148.525 1030.16,-149.514 1039.03,-155.319 1040.71,-148.525"/>
</g>
</g>
</svg>
