<?xml version="1.0" encoding="UTF-8" standalone="no"?>
<!DOCTYPE svg PUBLIC "-//W3C//DTD SVG 1.1//EN"
 "http://www.w3.org/Graphics/SVG/1.1/DTD/svg11.dtd">
<!-- Generated by graphviz version 2.36.0 (20140111.2315)
 -->
<!-- Title: include/shad/data_structures/local_set.h Pages: 1 -->
<svg width="1554pt" height="368pt"
 viewBox="0.00 0.00 1554.43 368.00" xmlns="http://www.w3.org/2000/svg" xmlns:xlink="http://www.w3.org/1999/xlink">
<g id="graph0" class="graph" transform="scale(1 1) rotate(0) translate(4 364)">
<title>include/shad/data_structures/local_set.h</title>
<polygon fill="white" stroke="none" points="-4,4 -4,-364 1550.43,-364 1550.43,4 -4,4"/>
<!-- Node1 -->
<g id="node1" class="node"><title>Node1</title>
<polygon fill="#bfbfbf" stroke="black" points="989.435,-329 989.435,-359 1131.43,-359 1131.43,-329 989.435,-329"/>
<text text-anchor="start" x="997.435" y="-347" font-family="Helvetica,sans-Serif" font-size="10.00">include/shad/data_structures</text>
<text text-anchor="middle" x="1060.43" y="-336" font-family="Helvetica,sans-Serif" font-size="10.00">/local_set.h</text>
</g>
<!-- Node2 -->
<g id="node2" class="node"><title>Node2</title>
<polygon fill="white" stroke="#bfbfbf" points="15.4348,-198.5 15.4348,-217.5 71.4348,-217.5 71.4348,-198.5 15.4348,-198.5"/>
<text text-anchor="middle" x="43.4348" y="-205.5" font-family="Helvetica,sans-Serif" font-size="10.00">algorithm</text>
</g>
<!-- Node1&#45;&gt;Node2 -->
<g id="edge1" class="edge"><title>Node1&#45;&gt;Node2</title>
<path fill="none" stroke="midnightblue" d="M989.257,-342.24C813.16,-339.792 360.853,-329.897 215.435,-292 158.154,-277.072 97.1149,-242.598 65.418,-223.101"/>
<polygon fill="midnightblue" stroke="midnightblue" points="66.8956,-219.897 56.5597,-217.569 63.1877,-225.835 66.8956,-219.897"/>
</g>
<!-- Node3 -->
<g id="node3" class="node"><title>Node3</title>
<polygon fill="white" stroke="#bfbfbf" points="1376.43,-266.5 1376.43,-285.5 1422.43,-285.5 1422.43,-266.5 1376.43,-266.5"/>
<text text-anchor="middle" x="1399.43" y="-273.5" font-family="Helvetica,sans-Serif" font-size="10.00">atomic</text>
</g>
<!-- Node1&#45;&gt;Node3 -->
<g id="edge2" class="edge"><title>Node1&#45;&gt;Node3</title>
<path fill="none" stroke="midnightblue" d="M1131.58,-335.426C1193.39,-327.798 1284.93,-313.97 1362.43,-292 1365.25,-291.202 1368.14,-290.26 1371.01,-289.243"/>
<polygon fill="midnightblue" stroke="midnightblue" points="1372.43,-292.447 1380.51,-285.596 1369.92,-285.911 1372.43,-292.447"/>
</g>
<!-- Node4 -->
<g id="node4" class="node"><title>Node4</title>
<polygon fill="white" stroke="#bfbfbf" points="1440.93,-266.5 1440.93,-285.5 1489.93,-285.5 1489.93,-266.5 1440.93,-266.5"/>
<text text-anchor="middle" x="1465.43" y="-273.5" font-family="Helvetica,sans-Serif" font-size="10.00">cassert</text>
</g>
<!-- Node1&#45;&gt;Node4 -->
<g id="edge3" class="edge"><title>Node1&#45;&gt;Node4</title>
<path fill="none" stroke="midnightblue" d="M1131.73,-339.109C1207.32,-333.623 1329.63,-320.84 1431.43,-292 1433.93,-291.292 1436.49,-290.436 1439.02,-289.496"/>
<polygon fill="midnightblue" stroke="midnightblue" points="1440.57,-292.639 1448.48,-285.589 1437.9,-286.168 1440.57,-292.639"/>
</g>
<!-- Node5 -->
<g id="node5" class="node"><title>Node5</title>
<polygon fill="white" stroke="#bfbfbf" points="176.935,-130.5 176.935,-149.5 235.935,-149.5 235.935,-130.5 176.935,-130.5"/>
<text text-anchor="middle" x="206.435" y="-137.5" font-family="Helvetica,sans-Serif" font-size="10.00">functional</text>
</g>
<!-- Node1&#45;&gt;Node5 -->
<g id="edge4" class="edge"><title>Node1&#45;&gt;Node5</title>
<path fill="none" stroke="midnightblue" d="M989.206,-343.197C800.401,-343.068 290.553,-338.308 129.435,-292 69.4007,-274.745 38.1681,-277.804 6.43479,-224 -29.9128,-162.373 98.3214,-146.504 166.516,-142.417"/>
<polygon fill="midnightblue" stroke="midnightblue" points="167.114,-145.89 176.911,-141.857 166.737,-138.9 167.114,-145.89"/>
</g>
<!-- Node6 -->
<g id="node6" class="node"><title>Node6</title>
<polygon fill="white" stroke="#bfbfbf" points="1204.43,-130.5 1204.43,-149.5 1256.43,-149.5 1256.43,-130.5 1204.43,-130.5"/>
<text text-anchor="middle" x="1230.43" y="-137.5" font-family="Helvetica,sans-Serif" font-size="10.00">memory</text>
</g>
<!-- Node1&#45;&gt;Node6 -->
<g id="edge5" class="edge"><title>Node1&#45;&gt;Node6</title>
<path fill="none" stroke="midnightblue" d="M1128.9,-328.972C1218.7,-308.988 1368.53,-269.646 1399.43,-224 1433.92,-173.059 1326.37,-152.159 1266.98,-144.662"/>
<polygon fill="midnightblue" stroke="midnightblue" points="1267.18,-141.162 1256.84,-143.453 1266.35,-148.113 1267.18,-141.162"/>
</g>
<!-- Node7 -->
<g id="node7" class="node"><title>Node7</title>
<polygon fill="white" stroke="#bfbfbf" points="1508.43,-266.5 1508.43,-285.5 1546.43,-285.5 1546.43,-266.5 1508.43,-266.5"/>
<text text-anchor="middle" x="1527.43" y="-273.5" font-family="Helvetica,sans-Serif" font-size="10.00">tuple</text>
</g>
<!-- Node1&#45;&gt;Node7 -->
<g id="edge6" class="edge"><title>Node1&#45;&gt;Node7</title>
<path fill="none" stroke="midnightblue" d="M1131.44,-342.532C1219.42,-340.194 1373.06,-330.321 1498.43,-292 1500.35,-291.416 1502.28,-290.708 1504.2,-289.922"/>
<polygon fill="midnightblue" stroke="midnightblue" points="1505.88,-292.996 1513.41,-285.547 1502.88,-286.672 1505.88,-292.996"/>
</g>
<!-- Node8 -->
<g id="node8" class="node"><title>Node8</title>
<polygon fill="white" stroke="#bfbfbf" points="1350.43,-198.5 1350.43,-217.5 1390.43,-217.5 1390.43,-198.5 1350.43,-198.5"/>
<text text-anchor="middle" x="1370.43" y="-205.5" font-family="Helvetica,sans-Serif" font-size="10.00">utility</text>
</g>
<!-- Node1&#45;&gt;Node8 -->
<g id="edge7" class="edge"><title>Node1&#45;&gt;Node8</title>
<path fill="none" stroke="midnightblue" d="M1093.19,-328.984C1144.91,-306.824 1248.67,-262.28 1336.43,-224 1338.21,-223.226 1340.03,-222.428 1341.87,-221.621"/>
<polygon fill="midnightblue" stroke="midnightblue" points="1343.28,-224.825 1351.03,-217.595 1340.47,-218.417 1343.28,-224.825"/>
</g>
<!-- Node9 -->
<g id="node9" class="node"><title>Node9</title>
<polygon fill="white" stroke="#bfbfbf" points="363.435,-198.5 363.435,-217.5 407.435,-217.5 407.435,-198.5 363.435,-198.5"/>
<text text-anchor="middle" x="385.435" y="-205.5" font-family="Helvetica,sans-Serif" font-size="10.00">vector</text>
</g>
<!-- Node1&#45;&gt;Node9 -->
<g id="edge8" class="edge"><title>Node1&#45;&gt;Node9</title>
<path fill="none" stroke="midnightblue" d="M989.315,-334.732C870.092,-319.774 623.135,-284.07 421.435,-224 418.788,-223.212 416.072,-222.294 413.374,-221.308"/>
<polygon fill="midnightblue" stroke="midnightblue" points="414.435,-217.964 403.848,-217.548 411.864,-224.475 414.435,-217.964"/>
</g>
<!-- Node10 -->
<g id="node10" class="node"><title>Node10</title>
<g id="a_node10"><a xlink:href="compare__and__hash__utils_8h.html" target="_top" xlink:title="shad/data_structures\l/compare_and_hash_utils.h">
<polygon fill="white" stroke="black" points="224.435,-261 224.435,-291 360.435,-291 360.435,-261 224.435,-261"/>
<text text-anchor="start" x="232.435" y="-279" font-family="Helvetica,sans-Serif" font-size="10.00">shad/data_structures</text>
<text text-anchor="middle" x="292.435" y="-268" font-family="Helvetica,sans-Serif" font-size="10.00">/compare_and_hash_utils.h</text>
</a>
</g>
</g>
<!-- Node1&#45;&gt;Node10 -->
<g id="edge9" class="edge"><title>Node1&#45;&gt;Node10</title>
<path fill="none" stroke="midnightblue" d="M989.217,-336.88C845.178,-324.501 520.274,-296.58 370.611,-283.718"/>
<polygon fill="midnightblue" stroke="midnightblue" points="370.84,-280.225 360.577,-282.856 370.24,-287.199 370.84,-280.225"/>
</g>
<!-- Node15 -->
<g id="node15" class="node"><title>Node15</title>
<g id="a_node15"><a xlink:href="runtime_8h.html" target="_top" xlink:title="shad/runtime/runtime.h">
<polygon fill="white" stroke="black" points="859.435,-266.5 859.435,-285.5 975.435,-285.5 975.435,-266.5 859.435,-266.5"/>
<text text-anchor="middle" x="917.435" y="-273.5" font-family="Helvetica,sans-Serif" font-size="10.00">shad/runtime/runtime.h</text>
</a>
</g>
</g>
<!-- Node1&#45;&gt;Node15 -->
<g id="edge19" class="edge"><title>Node1&#45;&gt;Node15</title>
<path fill="none" stroke="midnightblue" d="M1029.76,-328.841C1004.8,-317.323 969.866,-301.199 945.609,-290.004"/>
<polygon fill="midnightblue" stroke="midnightblue" points="946.792,-286.695 936.246,-285.682 943.858,-293.05 946.792,-286.695"/>
</g>
<!-- Node10&#45;&gt;Node2 -->
<g id="edge10" class="edge"><title>Node10&#45;&gt;Node2</title>
<path fill="none" stroke="midnightblue" d="M224.412,-261.341C182.475,-252.256 127.833,-239.215 80.4348,-224 77.863,-223.174 75.2168,-222.253 72.5784,-221.283"/>
<polygon fill="midnightblue" stroke="midnightblue" points="73.7938,-218 63.2048,-217.649 71.2632,-224.527 73.7938,-218"/>
</g>
<!-- Node10&#45;&gt;Node5 -->
<g id="edge13" class="edge"><title>Node10&#45;&gt;Node5</title>
<path fill="none" stroke="midnightblue" d="M232.008,-260.915C212.835,-253.287 193.708,-241.652 182.435,-224 169.424,-203.627 182.305,-176.012 193.636,-158.347"/>
<polygon fill="midnightblue" stroke="midnightblue" points="196.821,-159.89 199.596,-149.665 191.051,-155.928 196.821,-159.89"/>
</g>
<!-- Node10&#45;&gt;Node9 -->
<g id="edge15" class="edge"><title>Node10&#45;&gt;Node9</title>
<path fill="none" stroke="midnightblue" d="M312.614,-260.679C328.066,-249.713 349.299,-234.645 364.85,-223.609"/>
<polygon fill="midnightblue" stroke="midnightblue" points="367.134,-226.28 373.263,-217.638 363.083,-220.571 367.134,-226.28"/>
</g>
<!-- Node11 -->
<g id="node11" class="node"><title>Node11</title>
<polygon fill="white" stroke="#bfbfbf" points="1086.43,-62.5 1086.43,-81.5 1132.43,-81.5 1132.43,-62.5 1086.43,-62.5"/>
<text text-anchor="middle" x="1109.43" y="-69.5" font-family="Helvetica,sans-Serif" font-size="10.00">cstdint</text>
</g>
<!-- Node10&#45;&gt;Node11 -->
<g id="edge11" class="edge"><title>Node10&#45;&gt;Node11</title>
<path fill="none" stroke="midnightblue" d="M360.562,-267.736C427.916,-259.8 533.625,-245.306 623.435,-224 763.883,-190.68 794.398,-166.21 932.435,-124 982.397,-108.722 1040.68,-92.1734 1076.31,-82.1982"/>
<polygon fill="midnightblue" stroke="midnightblue" points="1077.48,-85.5052 1086.17,-79.4439 1075.6,-78.7633 1077.48,-85.5052"/>
</g>
<!-- Node12 -->
<g id="node12" class="node"><title>Node12</title>
<polygon fill="white" stroke="#bfbfbf" points="89.4348,-198.5 89.4348,-217.5 135.435,-217.5 135.435,-198.5 89.4348,-198.5"/>
<text text-anchor="middle" x="112.435" y="-205.5" font-family="Helvetica,sans-Serif" font-size="10.00">cstring</text>
</g>
<!-- Node10&#45;&gt;Node12 -->
<g id="edge12" class="edge"><title>Node10&#45;&gt;Node12</title>
<path fill="none" stroke="midnightblue" d="M251.584,-260.95C222.89,-250.954 183.674,-237.039 149.435,-224 147.194,-223.147 144.883,-222.25 142.562,-221.337"/>
<polygon fill="midnightblue" stroke="midnightblue" points="143.702,-218.024 133.117,-217.565 141.105,-224.525 143.702,-218.024"/>
</g>
<!-- Node13 -->
<g id="node13" class="node"><title>Node13</title>
<polygon fill="white" stroke="#bfbfbf" points="304.435,-130.5 304.435,-149.5 366.435,-149.5 366.435,-130.5 304.435,-130.5"/>
<text text-anchor="middle" x="335.435" y="-137.5" font-family="Helvetica,sans-Serif" font-size="10.00">type_traits</text>
</g>
<!-- Node10&#45;&gt;Node13 -->
<g id="edge14" class="edge"><title>Node10&#45;&gt;Node13</title>
<path fill="none" stroke="midnightblue" d="M299.608,-260.999C304.562,-250.911 311.028,-236.864 315.435,-224 322.773,-202.581 328.474,-177.173 331.88,-160.161"/>
<polygon fill="midnightblue" stroke="midnightblue" points="335.406,-160.359 333.863,-149.878 328.533,-159.034 335.406,-160.359"/>
</g>
<!-- Node14 -->
<g id="node14" class="node"><title>Node14</title>
<g id="a_node14"><a xlink:href="type__traits_8h.html" target="_top" xlink:title="shad/core/type_traits.h">
<polygon fill="white" stroke="black" points="191.435,-198.5 191.435,-217.5 307.435,-217.5 307.435,-198.5 191.435,-198.5"/>
<text text-anchor="middle" x="249.435" y="-205.5" font-family="Helvetica,sans-Serif" font-size="10.00">shad/core/type_traits.h</text>
</a>
</g>
</g>
<!-- Node10&#45;&gt;Node14 -->
<g id="edge16" class="edge"><title>Node10&#45;&gt;Node14</title>
<path fill="none" stroke="midnightblue" d="M283.104,-260.679C276.533,-250.592 267.699,-237.033 260.728,-226.335"/>
<polygon fill="midnightblue" stroke="midnightblue" points="263.578,-224.296 255.187,-217.828 257.713,-228.118 263.578,-224.296"/>
</g>
<!-- Node14&#45;&gt;Node5 -->
<g id="edge17" class="edge"><title>Node14&#45;&gt;Node5</title>
<path fill="none" stroke="midnightblue" d="M243.813,-198.372C237.219,-188.25 226.121,-171.215 217.726,-158.331"/>
<polygon fill="midnightblue" stroke="midnightblue" points="220.586,-156.309 212.195,-149.841 214.721,-160.13 220.586,-156.309"/>
</g>
<!-- Node14&#45;&gt;Node13 -->
<g id="edge18" class="edge"><title>Node14&#45;&gt;Node13</title>
<path fill="none" stroke="midnightblue" d="M260.678,-198.372C274.713,-187.6 298.947,-169.002 316.011,-155.906"/>
<polygon fill="midnightblue" stroke="midnightblue" points="318.387,-158.495 324.189,-149.63 314.125,-152.942 318.387,-158.495"/>
</g>
<!-- Node15&#45;&gt;Node5 -->
<g id="edge22" class="edge"><title>Node15&#45;&gt;Node5</title>
<path fill="none" stroke="midnightblue" d="M859.299,-272.237C752.866,-266.569 531.047,-251.763 459.435,-224 436.889,-215.259 437.373,-202.169 415.435,-192 385.573,-178.157 297.764,-159.201 245.952,-148.734"/>
<polygon fill="midnightblue" stroke="midnightblue" points="246.591,-145.293 236.098,-146.758 245.214,-152.156 246.591,-145.293"/>
</g>
<!-- Node15&#45;&gt;Node6 -->
<g id="edge26" class="edge"><title>Node15&#45;&gt;Node6</title>
<path fill="none" stroke="midnightblue" d="M975.698,-273.796C1055.89,-270.793 1194.07,-260.337 1226.43,-224 1241.92,-206.612 1239.47,-178.153 1235.54,-159.498"/>
<polygon fill="midnightblue" stroke="midnightblue" points="1238.89,-158.454 1233.12,-149.57 1232.09,-160.114 1238.89,-158.454"/>
</g>
<!-- Node15&#45;&gt;Node8 -->
<g id="edge29" class="edge"><title>Node15&#45;&gt;Node8</title>
<path fill="none" stroke="midnightblue" d="M975.742,-273.297C1057.65,-269.697 1210.84,-258.531 1336.43,-224 1338.94,-223.312 1341.5,-222.469 1344.03,-221.537"/>
<polygon fill="midnightblue" stroke="midnightblue" points="1345.58,-224.683 1353.5,-217.643 1342.92,-218.209 1345.58,-224.683"/>
</g>
<!-- Node15&#45;&gt;Node9 -->
<g id="edge30" class="edge"><title>Node15&#45;&gt;Node9</title>
<path fill="none" stroke="midnightblue" d="M859.005,-271.141C746.325,-263.345 502.926,-244.689 421.435,-224 418.447,-223.241 415.383,-222.278 412.364,-221.207"/>
<polygon fill="midnightblue" stroke="midnightblue" points="413.614,-217.938 403.027,-217.536 411.053,-224.452 413.614,-217.938"/>
</g>
<!-- Node15&#45;&gt;Node11 -->
<g id="edge21" class="edge"><title>Node15&#45;&gt;Node11</title>
<path fill="none" stroke="midnightblue" d="M975.641,-273.268C1058.89,-269.602 1206.26,-258.322 1245.43,-224 1279.53,-194.131 1292.04,-160.692 1265.43,-124 1237.5,-85.4746 1179.62,-75.5102 1142.75,-73.2378"/>
<polygon fill="midnightblue" stroke="midnightblue" points="1142.65,-69.7295 1132.5,-72.7697 1142.33,-76.7222 1142.65,-69.7295"/>
</g>
<!-- Node16 -->
<g id="node16" class="node"><title>Node16</title>
<polygon fill="white" stroke="#bfbfbf" points="941.935,-130.5 941.935,-149.5 990.935,-149.5 990.935,-130.5 941.935,-130.5"/>
<text text-anchor="middle" x="966.435" y="-137.5" font-family="Helvetica,sans-Serif" font-size="10.00">cstddef</text>
</g>
<!-- Node15&#45;&gt;Node16 -->
<g id="edge20" class="edge"><title>Node15&#45;&gt;Node16</title>
<path fill="none" stroke="midnightblue" d="M945.092,-266.39C964.662,-258.683 989.47,-245.262 1001.43,-224 1013.96,-201.747 996.267,-174.115 981.811,-157.019"/>
<polygon fill="midnightblue" stroke="midnightblue" points="984.397,-154.66 975.12,-149.542 979.18,-159.328 984.397,-154.66"/>
</g>
<!-- Node17 -->
<g id="node17" class="node"><title>Node17</title>
<polygon fill="white" stroke="#bfbfbf" points="1244.43,-62.5 1244.43,-81.5 1298.43,-81.5 1298.43,-62.5 1244.43,-62.5"/>
<text text-anchor="middle" x="1271.43" y="-69.5" font-family="Helvetica,sans-Serif" font-size="10.00">iostream</text>
</g>
<!-- Node15&#45;&gt;Node17 -->
<g id="edge23" class="edge"><title>Node15&#45;&gt;Node17</title>
<path fill="none" stroke="midnightblue" d="M975.686,-274.562C1065.29,-272.623 1230.95,-263.613 1272.43,-224 1308.38,-189.68 1290.54,-123.387 1278.86,-91.2933"/>
<polygon fill="midnightblue" stroke="midnightblue" points="1282.08,-89.8977 1275.23,-81.816 1275.54,-92.4061 1282.08,-89.8977"/>
</g>
<!-- Node18 -->
<g id="node18" class="node"><title>Node18</title>
<polygon fill="white" stroke="#bfbfbf" points="747.935,-198.5 747.935,-217.5 794.935,-217.5 794.935,-198.5 747.935,-198.5"/>
<text text-anchor="middle" x="771.435" y="-205.5" font-family="Helvetica,sans-Serif" font-size="10.00">iterator</text>
</g>
<!-- Node15&#45;&gt;Node18 -->
<g id="edge24" class="edge"><title>Node15&#45;&gt;Node18</title>
<path fill="none" stroke="midnightblue" d="M898.024,-266.441C875.299,-256.392 836.552,-239.168 803.435,-224 802.04,-223.361 800.613,-222.704 799.172,-222.039"/>
<polygon fill="midnightblue" stroke="midnightblue" points="800.228,-218.669 789.685,-217.623 797.274,-225.016 800.228,-218.669"/>
</g>
<!-- Node19 -->
<g id="node19" class="node"><title>Node19</title>
<polygon fill="white" stroke="#bfbfbf" points="812.935,-198.5 812.935,-217.5 847.935,-217.5 847.935,-198.5 812.935,-198.5"/>
<text text-anchor="middle" x="830.435" y="-205.5" font-family="Helvetica,sans-Serif" font-size="10.00">map</text>
</g>
<!-- Node15&#45;&gt;Node19 -->
<g id="edge25" class="edge"><title>Node15&#45;&gt;Node19</title>
<path fill="none" stroke="midnightblue" d="M906.061,-266.372C891.863,-255.6 867.347,-237.002 850.084,-223.906"/>
<polygon fill="midnightblue" stroke="midnightblue" points="851.894,-220.886 841.811,-217.63 847.663,-226.463 851.894,-220.886"/>
</g>
<!-- Node20 -->
<g id="node20" class="node"><title>Node20</title>
<polygon fill="white" stroke="#bfbfbf" points="866.435,-198.5 866.435,-217.5 896.435,-217.5 896.435,-198.5 866.435,-198.5"/>
<text text-anchor="middle" x="881.435" y="-205.5" font-family="Helvetica,sans-Serif" font-size="10.00">set</text>
</g>
<!-- Node15&#45;&gt;Node20 -->
<g id="edge27" class="edge"><title>Node15&#45;&gt;Node20</title>
<path fill="none" stroke="midnightblue" d="M912.728,-266.372C907.261,-256.348 898.096,-239.546 891.093,-226.708"/>
<polygon fill="midnightblue" stroke="midnightblue" points="894.118,-224.944 886.257,-217.841 887.973,-228.296 894.118,-224.944"/>
</g>
<!-- Node21 -->
<g id="node21" class="node"><title>Node21</title>
<polygon fill="white" stroke="#bfbfbf" points="914.435,-198.5 914.435,-217.5 992.435,-217.5 992.435,-198.5 914.435,-198.5"/>
<text text-anchor="middle" x="953.435" y="-205.5" font-family="Helvetica,sans-Serif" font-size="10.00">unordered_set</text>
</g>
<!-- Node15&#45;&gt;Node21 -->
<g id="edge28" class="edge"><title>Node15&#45;&gt;Node21</title>
<path fill="none" stroke="midnightblue" d="M922.141,-266.372C927.609,-256.348 936.774,-239.546 943.776,-226.708"/>
<polygon fill="midnightblue" stroke="midnightblue" points="946.896,-228.296 948.612,-217.841 940.751,-224.944 946.896,-228.296"/>
</g>
<!-- Node22 -->
<g id="node22" class="node"><title>Node22</title>
<polygon fill="white" stroke="#bfbfbf" points="543.435,-0.5 543.435,-19.5 647.435,-19.5 647.435,-0.5 543.435,-0.5"/>
<text text-anchor="middle" x="595.435" y="-7.5" font-family="Helvetica,sans-Serif" font-size="10.00">shad/config/config.h</text>
</g>
<!-- Node15&#45;&gt;Node22 -->
<g id="edge31" class="edge"><title>Node15&#45;&gt;Node22</title>
<path fill="none" stroke="midnightblue" d="M859.361,-272.242C748.687,-266.387 516.385,-250.996 492.435,-224 457.884,-185.056 463.669,-174.296 545.435,-56 553.344,-44.5572 564.717,-34.0209 574.619,-26.0247"/>
<polygon fill="midnightblue" stroke="midnightblue" points="577.042,-28.5753 582.817,-19.6927 572.764,-23.0352 577.042,-28.5753"/>
</g>
<!-- Node23 -->
<g id="node23" class="node"><title>Node23</title>
<g id="a_node23"><a xlink:href="handle_8h.html" target="_top" xlink:title="shad/runtime/handle.h">
<polygon fill="white" stroke="black" points="501.935,-198.5 501.935,-217.5 614.935,-217.5 614.935,-198.5 501.935,-198.5"/>
<text text-anchor="middle" x="558.435" y="-205.5" font-family="Helvetica,sans-Serif" font-size="10.00">shad/runtime/handle.h</text>
</a>
</g>
</g>
<!-- Node15&#45;&gt;Node23 -->
<g id="edge32" class="edge"><title>Node15&#45;&gt;Node23</title>
<path fill="none" stroke="midnightblue" d="M866.357,-266.478C808.712,-256.738 712.181,-240.063 629.435,-224 622.378,-222.63 614.939,-221.126 607.639,-219.615"/>
<polygon fill="midnightblue" stroke="midnightblue" points="608.325,-216.182 597.821,-217.562 606.893,-223.034 608.325,-216.182"/>
</g>
<!-- Node24 -->
<g id="node24" class="node"><title>Node24</title>
<g id="a_node24"><a xlink:href="mapping__traits_8h.html" target="_top" xlink:title="shad/runtime/mapping\l_traits.h">
<polygon fill="white" stroke="black" points="728.935,-57 728.935,-87 841.935,-87 841.935,-57 728.935,-57"/>
<text text-anchor="start" x="736.935" y="-75" font-family="Helvetica,sans-Serif" font-size="10.00">shad/runtime/mapping</text>
<text text-anchor="middle" x="785.435" y="-64" font-family="Helvetica,sans-Serif" font-size="10.00">_traits.h</text>
</a>
</g>
</g>
<!-- Node15&#45;&gt;Node24 -->
<g id="edge45" class="edge"><title>Node15&#45;&gt;Node24</title>
<path fill="none" stroke="midnightblue" d="M861.055,-266.457C814.357,-258.093 753.328,-243.729 738.435,-224 708.95,-184.941 743.308,-127.071 766.9,-95.5199"/>
<polygon fill="midnightblue" stroke="midnightblue" points="769.863,-97.4095 773.206,-87.3561 764.323,-93.1301 769.863,-97.4095"/>
</g>
<!-- Node27 -->
<g id="node27" class="node"><title>Node27</title>
<g id="a_node27"><a xlink:href="locality_8h.html" target="_top" xlink:title="shad/runtime/locality.h">
<polygon fill="white" stroke="black" points="1008.93,-130.5 1008.93,-149.5 1123.93,-149.5 1123.93,-130.5 1008.93,-130.5"/>
<text text-anchor="middle" x="1066.43" y="-137.5" font-family="Helvetica,sans-Serif" font-size="10.00">shad/runtime/locality.h</text>
</a>
</g>
</g>
<!-- Node15&#45;&gt;Node27 -->
<g id="edge39" class="edge"><title>Node15&#45;&gt;Node27</title>
<path fill="none" stroke="midnightblue" d="M943.283,-266.472C965.055,-258.279 995.994,-244.157 1017.43,-224 1037.09,-205.518 1051.43,-177.388 1059.35,-159.098"/>
<polygon fill="midnightblue" stroke="midnightblue" points="1062.59,-160.421 1063.17,-149.842 1056.12,-157.749 1062.59,-160.421"/>
</g>
<!-- Node28 -->
<g id="node28" class="node"><title>Node28</title>
<g id="a_node28"><a xlink:href="available__mappings_8h.html" target="_top" xlink:title="shad/runtime/mappings\l/available_mappings.h">
<polygon fill="white" stroke="black" points="601.435,-125 601.435,-155 719.435,-155 719.435,-125 601.435,-125"/>
<text text-anchor="start" x="609.435" y="-143" font-family="Helvetica,sans-Serif" font-size="10.00">shad/runtime/mappings</text>
<text text-anchor="middle" x="660.435" y="-132" font-family="Helvetica,sans-Serif" font-size="10.00">/available_mappings.h</text>
</a>
</g>
</g>
<!-- Node15&#45;&gt;Node28 -->
<g id="edge46" class="edge"><title>Node15&#45;&gt;Node28</title>
<path fill="none" stroke="midnightblue" d="M859.332,-273.612C813.348,-269.764 749.715,-258.015 705.435,-224 686.132,-209.172 674.081,-183.618 667.364,-164.771"/>
<polygon fill="midnightblue" stroke="midnightblue" points="670.63,-163.499 664.169,-155.102 663.983,-165.695 670.63,-163.499"/>
</g>
<!-- Node29 -->
<g id="node29" class="node"><title>Node29</title>
<g id="a_node29"><a xlink:href="synchronous__interface_8h.html" target="_top" xlink:title="shad/runtime/synchronous\l_interface.h">
<polygon fill="white" stroke="black" points="1086.93,-193 1086.93,-223 1217.93,-223 1217.93,-193 1086.93,-193"/>
<text text-anchor="start" x="1094.93" y="-211" font-family="Helvetica,sans-Serif" font-size="10.00">shad/runtime/synchronous</text>
<text text-anchor="middle" x="1152.43" y="-200" font-family="Helvetica,sans-Serif" font-size="10.00">_interface.h</text>
</a>
</g>
</g>
<!-- Node15&#45;&gt;Node29 -->
<g id="edge48" class="edge"><title>Node15&#45;&gt;Node29</title>
<path fill="none" stroke="midnightblue" d="M948.157,-266.372C984.668,-256.117 1046.44,-238.77 1092.51,-225.829"/>
<polygon fill="midnightblue" stroke="midnightblue" points="1093.7,-229.13 1102.39,-223.056 1091.81,-222.391 1093.7,-229.13"/>
</g>
<!-- Node23&#45;&gt;Node13 -->
<g id="edge33" class="edge"><title>Node23&#45;&gt;Node13</title>
<path fill="none" stroke="midnightblue" d="M529.281,-198.372C489.523,-186.604 418.202,-165.496 374.04,-152.426"/>
<polygon fill="midnightblue" stroke="midnightblue" points="374.824,-149.008 364.242,-149.526 372.837,-155.72 374.824,-149.008"/>
</g>
<!-- Node23&#45;&gt;Node22 -->
<g id="edge34" class="edge"><title>Node23&#45;&gt;Node22</title>
<path fill="none" stroke="midnightblue" d="M556.001,-198.428C553.281,-188.367 549.048,-171.131 547.435,-156 542.677,-111.375 542.929,-96.8846 561.435,-56 566.17,-45.5394 573.701,-35.2199 580.473,-27.1072"/>
<polygon fill="midnightblue" stroke="midnightblue" points="583.148,-29.3657 587.107,-19.5383 577.883,-24.7519 583.148,-29.3657"/>
</g>
<!-- Node23&#45;&gt;Node24 -->
<g id="edge35" class="edge"><title>Node23&#45;&gt;Node24</title>
<path fill="none" stroke="midnightblue" d="M559.456,-198.259C561.91,-181.316 569.727,-143.924 592.435,-124 597.409,-119.636 665.154,-102.324 718.995,-89.0682"/>
<polygon fill="midnightblue" stroke="midnightblue" points="719.991,-92.4277 728.868,-86.6443 718.322,-85.6295 719.991,-92.4277"/>
</g>
<!-- Node26 -->
<g id="node26" class="node"><title>Node26</title>
<g id="a_node26"><a xlink:href="available__traits__mappings_8h.html" target="_top" xlink:title="shad/runtime/mappings\l/available_traits_mappings.h">
<polygon fill="white" stroke="black" points="570.435,-57 570.435,-87 710.435,-87 710.435,-57 570.435,-57"/>
<text text-anchor="start" x="578.435" y="-75" font-family="Helvetica,sans-Serif" font-size="10.00">shad/runtime/mappings</text>
<text text-anchor="middle" x="640.435" y="-64" font-family="Helvetica,sans-Serif" font-size="10.00">/available_traits_mappings.h</text>
</a>
</g>
</g>
<!-- Node23&#45;&gt;Node26 -->
<g id="edge38" class="edge"><title>Node23&#45;&gt;Node26</title>
<path fill="none" stroke="midnightblue" d="M555.995,-198.309C552.049,-182.398 545.987,-148.016 559.435,-124 567.094,-110.322 580.108,-99.7992 593.489,-91.9637"/>
<polygon fill="midnightblue" stroke="midnightblue" points="595.16,-95.0392 602.283,-87.1965 591.824,-88.8852 595.16,-95.0392"/>
</g>
<!-- Node24&#45;&gt;Node22 -->
<g id="edge37" class="edge"><title>Node24&#45;&gt;Node22</title>
<path fill="none" stroke="midnightblue" d="M740.888,-56.9327C707.732,-46.4624 663.026,-32.3445 631.965,-22.5358"/>
<polygon fill="midnightblue" stroke="midnightblue" points="632.981,-19.1865 622.392,-19.5127 630.873,-25.8616 632.981,-19.1865"/>
</g>
<!-- Node25 -->
<g id="node25" class="node"><title>Node25</title>
<polygon fill="white" stroke="#bfbfbf" points="764.935,-0.5 764.935,-19.5 805.935,-19.5 805.935,-0.5 764.935,-0.5"/>
<text text-anchor="middle" x="785.435" y="-7.5" font-family="Helvetica,sans-Serif" font-size="10.00">string</text>
</g>
<!-- Node24&#45;&gt;Node25 -->
<g id="edge36" class="edge"><title>Node24&#45;&gt;Node25</title>
<path fill="none" stroke="midnightblue" d="M785.435,-56.7808C785.435,-48.7812 785.435,-38.6887 785.435,-30.0168"/>
<polygon fill="midnightblue" stroke="midnightblue" points="788.935,-29.7305 785.435,-19.7305 781.935,-29.7306 788.935,-29.7305"/>
</g>
<!-- Node27&#45;&gt;Node11 -->
<g id="edge40" class="edge"><title>Node27&#45;&gt;Node11</title>
<path fill="none" stroke="midnightblue" d="M1072.06,-130.372C1078.65,-120.25 1089.75,-103.215 1098.14,-90.3312"/>
<polygon fill="midnightblue" stroke="midnightblue" points="1101.15,-92.1304 1103.67,-81.8411 1095.28,-88.3092 1101.15,-92.1304"/>
</g>
<!-- Node27&#45;&gt;Node17 -->
<g id="edge41" class="edge"><title>Node27&#45;&gt;Node17</title>
<path fill="none" stroke="midnightblue" d="M1093.23,-130.372C1129.63,-118.654 1194.8,-97.6737 1235.43,-84.5912"/>
<polygon fill="midnightblue" stroke="midnightblue" points="1236.51,-87.9221 1244.95,-81.5259 1234.36,-81.259 1236.51,-87.9221"/>
</g>
<!-- Node27&#45;&gt;Node22 -->
<g id="edge42" class="edge"><title>Node27&#45;&gt;Node22</title>
<path fill="none" stroke="midnightblue" d="M1047.78,-130.421C1010.85,-113.762 925.531,-76.8457 850.435,-56 785.865,-38.0765 710.034,-25.7688 657.948,-18.6139"/>
<polygon fill="midnightblue" stroke="midnightblue" points="658.236,-15.1211 647.857,-17.2515 657.299,-22.0582 658.236,-15.1211"/>
</g>
<!-- Node27&#45;&gt;Node24 -->
<g id="edge43" class="edge"><title>Node27&#45;&gt;Node24</title>
<path fill="none" stroke="midnightblue" d="M1029.99,-130.439C984.949,-119.861 907.456,-101.66 851.763,-88.5789"/>
<polygon fill="midnightblue" stroke="midnightblue" points="852.514,-85.1601 841.979,-86.2808 850.914,-91.9747 852.514,-85.1601"/>
</g>
<!-- Node27&#45;&gt;Node26 -->
<g id="edge44" class="edge"><title>Node27&#45;&gt;Node26</title>
<path fill="none" stroke="midnightblue" d="M1031.09,-130.446C1020.91,-128.157 1009.77,-125.817 999.435,-124 878.999,-102.823 845.055,-107.453 720.528,-88.1108"/>
<polygon fill="midnightblue" stroke="midnightblue" points="721.031,-84.6469 710.608,-86.5494 719.942,-91.5617 721.031,-84.6469"/>
</g>
<!-- Node28&#45;&gt;Node26 -->
<g id="edge47" class="edge"><title>Node28&#45;&gt;Node26</title>
<path fill="none" stroke="midnightblue" d="M656.095,-124.679C653.658,-116.636 650.551,-106.385 647.749,-97.1369"/>
<polygon fill="midnightblue" stroke="midnightblue" points="651.016,-95.8483 644.766,-87.2931 644.317,-97.8784 651.016,-95.8483"/>
</g>
<!-- Node29&#45;&gt;Node6 -->
<g id="edge51" class="edge"><title>Node29&#45;&gt;Node6</title>
<path fill="none" stroke="midnightblue" d="M1169.36,-192.679C1182,-181.981 1199.26,-167.377 1212.21,-156.422"/>
<polygon fill="midnightblue" stroke="midnightblue" points="1214.63,-158.96 1220,-149.828 1210.11,-153.616 1214.63,-158.96"/>
</g>
<!-- Node29&#45;&gt;Node11 -->
<g id="edge50" class="edge"><title>Node29&#45;&gt;Node11</title>
<path fill="none" stroke="midnightblue" d="M1149.89,-192.968C1146.67,-176.279 1140.55,-147.697 1132.43,-124 1128.56,-112.679 1123.08,-100.443 1118.45,-90.794"/>
<polygon fill="midnightblue" stroke="midnightblue" points="1121.59,-89.2437 1114.03,-81.8224 1115.31,-92.3393 1121.59,-89.2437"/>
</g>
<!-- Node29&#45;&gt;Node16 -->
<g id="edge49" class="edge"><title>Node29&#45;&gt;Node16</title>
<path fill="none" stroke="midnightblue" d="M1106.82,-192.902C1076.43,-183.214 1035.73,-169.675 1000.43,-156 998.54,-155.266 996.596,-154.485 994.645,-153.681"/>
<polygon fill="midnightblue" stroke="midnightblue" points="995.582,-150.275 985.012,-149.564 992.831,-156.712 995.582,-150.275"/>
</g>
<!-- Node29&#45;&gt;Node27 -->
<g id="edge52" class="edge"><title>Node29&#45;&gt;Node27</title>
<path fill="none" stroke="midnightblue" d="M1133.77,-192.679C1119.7,-181.879 1100.44,-167.098 1086.12,-156.11"/>
<polygon fill="midnightblue" stroke="midnightblue" points="1088,-153.14 1077.94,-149.828 1083.74,-158.693 1088,-153.14"/>
</g>
</g>
</svg>
