<?xml version="1.0" encoding="UTF-8" standalone="no"?>
<!DOCTYPE svg PUBLIC "-//W3C//DTD SVG 1.1//EN"
 "http://www.w3.org/Graphics/SVG/1.1/DTD/svg11.dtd">
<!-- Generated by graphviz version 2.36.0 (20140111.2315)
 -->
<!-- Title: include/shad/runtime/locality.h Pages: 1 -->
<svg width="382pt" height="164pt"
 viewBox="0.00 0.00 382.00 164.00" xmlns="http://www.w3.org/2000/svg" xmlns:xlink="http://www.w3.org/1999/xlink">
<g id="graph0" class="graph" transform="scale(1 1) rotate(0) translate(4 160)">
<title>include/shad/runtime/locality.h</title>
<polygon fill="white" stroke="none" points="-4,4 -4,-160 378,-160 378,4 -4,4"/>
<!-- Node1 -->
<g id="node1" class="node"><title>Node1</title>
<polygon fill="#bfbfbf" stroke="black" points="62.5,-125 62.5,-155 169.5,-155 169.5,-125 62.5,-125"/>
<text text-anchor="start" x="70.5" y="-143" font-family="Helvetica,sans-Serif" font-size="10.00">include/shad/runtime</text>
<text text-anchor="middle" x="116" y="-132" font-family="Helvetica,sans-Serif" font-size="10.00">/locality.h</text>
</g>
<!-- Node2 -->
<g id="node2" class="node"><title>Node2</title>
<polygon fill="white" stroke="#bfbfbf" points="0,-62.5 0,-81.5 46,-81.5 46,-62.5 0,-62.5"/>
<text text-anchor="middle" x="23" y="-69.5" font-family="Helvetica,sans-Serif" font-size="10.00">cstdint</text>
</g>
<!-- Node1&#45;&gt;Node2 -->
<g id="edge1" class="edge"><title>Node1&#45;&gt;Node2</title>
<path fill="none" stroke="midnightblue" d="M95.8204,-124.679C80.3689,-113.713 59.1361,-98.645 43.5848,-87.6085"/>
<polygon fill="midnightblue" stroke="midnightblue" points="45.3523,-84.5711 35.1716,-81.6379 41.301,-90.2797 45.3523,-84.5711"/>
</g>
<!-- Node3 -->
<g id="node3" class="node"><title>Node3</title>
<polygon fill="white" stroke="#bfbfbf" points="22,-0.5 22,-19.5 126,-19.5 126,-0.5 22,-0.5"/>
<text text-anchor="middle" x="74" y="-7.5" font-family="Helvetica,sans-Serif" font-size="10.00">shad/config/config.h</text>
</g>
<!-- Node1&#45;&gt;Node3 -->
<g id="edge2" class="edge"><title>Node1&#45;&gt;Node3</title>
<path fill="none" stroke="midnightblue" d="M108.849,-124.992C103.904,-114.9 97.4423,-100.852 93,-88 86.2675,-68.5224 80.9128,-45.4998 77.6261,-29.7354"/>
<polygon fill="midnightblue" stroke="midnightblue" points="81.0098,-28.8081 75.6082,-19.6937 74.147,-30.1872 81.0098,-28.8081"/>
</g>
<!-- Node4 -->
<g id="node4" class="node"><title>Node4</title>
<g id="a_node4"><a xlink:href="mapping__traits_8h.html" target="_top" xlink:title="shad/runtime/mapping\l_traits.h">
<polygon fill="white" stroke="black" points="102.5,-57 102.5,-87 215.5,-87 215.5,-57 102.5,-57"/>
<text text-anchor="start" x="110.5" y="-75" font-family="Helvetica,sans-Serif" font-size="10.00">shad/runtime/mapping</text>
<text text-anchor="middle" x="159" y="-64" font-family="Helvetica,sans-Serif" font-size="10.00">_traits.h</text>
</a>
</g>
</g>
<!-- Node1&#45;&gt;Node4 -->
<g id="edge3" class="edge"><title>Node1&#45;&gt;Node4</title>
<path fill="none" stroke="midnightblue" d="M125.33,-124.679C130.796,-116.29 137.826,-105.499 144.048,-95.9495"/>
<polygon fill="midnightblue" stroke="midnightblue" points="147.162,-97.5823 149.688,-87.2931 141.296,-93.7611 147.162,-97.5823"/>
</g>
<!-- Node6 -->
<g id="node6" class="node"><title>Node6</title>
<g id="a_node6"><a xlink:href="available__traits__mappings_8h.html" target="_top" xlink:title="shad/runtime/mappings\l/available_traits_mappings.h">
<polygon fill="white" stroke="black" points="234,-57 234,-87 374,-87 374,-57 234,-57"/>
<text text-anchor="start" x="242" y="-75" font-family="Helvetica,sans-Serif" font-size="10.00">shad/runtime/mappings</text>
<text text-anchor="middle" x="304" y="-64" font-family="Helvetica,sans-Serif" font-size="10.00">/available_traits_mappings.h</text>
</a>
</g>
</g>
<!-- Node1&#45;&gt;Node6 -->
<g id="edge6" class="edge"><title>Node1&#45;&gt;Node6</title>
<path fill="none" stroke="midnightblue" d="M156.331,-124.841C185.051,-114.759 223.822,-101.147 254.431,-90.4018"/>
<polygon fill="midnightblue" stroke="midnightblue" points="255.783,-93.6367 264.059,-87.0218 253.464,-87.0319 255.783,-93.6367"/>
</g>
<!-- Node4&#45;&gt;Node3 -->
<g id="edge5" class="edge"><title>Node4&#45;&gt;Node3</title>
<path fill="none" stroke="midnightblue" d="M138.856,-56.7808C125.405,-47.2862 107.778,-34.8434 94.2961,-25.3267"/>
<polygon fill="midnightblue" stroke="midnightblue" points="96.3087,-22.4632 86.1206,-19.5557 92.2719,-28.182 96.3087,-22.4632"/>
</g>
<!-- Node5 -->
<g id="node5" class="node"><title>Node5</title>
<polygon fill="white" stroke="#bfbfbf" points="144.5,-0.5 144.5,-19.5 185.5,-19.5 185.5,-0.5 144.5,-0.5"/>
<text text-anchor="middle" x="165" y="-7.5" font-family="Helvetica,sans-Serif" font-size="10.00">string</text>
</g>
<!-- Node4&#45;&gt;Node5 -->
<g id="edge4" class="edge"><title>Node4&#45;&gt;Node5</title>
<path fill="none" stroke="midnightblue" d="M160.422,-56.7808C161.231,-48.6913 162.254,-38.4617 163.127,-29.725"/>
<polygon fill="midnightblue" stroke="midnightblue" points="166.614,-30.0292 164.127,-19.7305 159.649,-29.3326 166.614,-30.0292"/>
</g>
</g>
</svg>
