<?xml version="1.0" encoding="UTF-8" standalone="no"?>
<!DOCTYPE svg PUBLIC "-//W3C//DTD SVG 1.1//EN"
 "http://www.w3.org/Graphics/SVG/1.1/DTD/svg11.dtd">
<!-- Generated by graphviz version 2.36.0 (20140111.2315)
 -->
<!-- Title: include/shad/runtime/mapping_traits.h Pages: 1 -->
<svg width="171pt" height="96pt"
 viewBox="0.00 0.00 171.00 96.00" xmlns="http://www.w3.org/2000/svg" xmlns:xlink="http://www.w3.org/1999/xlink">
<g id="graph0" class="graph" transform="scale(1 1) rotate(0) translate(4 92)">
<title>include/shad/runtime/mapping_traits.h</title>
<polygon fill="white" stroke="none" points="-4,4 -4,-92 167,-92 167,4 -4,4"/>
<!-- Node1 -->
<g id="node1" class="node"><title>Node1</title>
<polygon fill="#bfbfbf" stroke="black" points="11.5,-57 11.5,-87 118.5,-87 118.5,-57 11.5,-57"/>
<text text-anchor="start" x="19.5" y="-75" font-family="Helvetica,sans-Serif" font-size="10.00">include/shad/runtime</text>
<text text-anchor="middle" x="65" y="-64" font-family="Helvetica,sans-Serif" font-size="10.00">/mapping_traits.h</text>
</g>
<!-- Node2 -->
<g id="node2" class="node"><title>Node2</title>
<polygon fill="white" stroke="#bfbfbf" points="-0.5,-0.5 -0.5,-19.5 40.5,-19.5 40.5,-0.5 -0.5,-0.5"/>
<text text-anchor="middle" x="20" y="-7.5" font-family="Helvetica,sans-Serif" font-size="10.00">string</text>
</g>
<!-- Node1&#45;&gt;Node2 -->
<g id="edge1" class="edge"><title>Node1&#45;&gt;Node2</title>
<path fill="none" stroke="midnightblue" d="M54.3356,-56.7808C47.864,-48.152 39.5662,-37.0882 32.749,-27.9987"/>
<polygon fill="midnightblue" stroke="midnightblue" points="35.3479,-25.6305 26.5479,-19.7305 29.7479,-29.8306 35.3479,-25.6305"/>
</g>
<!-- Node3 -->
<g id="node3" class="node"><title>Node3</title>
<polygon fill="white" stroke="#bfbfbf" points="59,-0.5 59,-19.5 163,-19.5 163,-0.5 59,-0.5"/>
<text text-anchor="middle" x="111" y="-7.5" font-family="Helvetica,sans-Serif" font-size="10.00">shad/config/config.h</text>
</g>
<!-- Node1&#45;&gt;Node3 -->
<g id="edge2" class="edge"><title>Node1&#45;&gt;Node3</title>
<path fill="none" stroke="midnightblue" d="M75.9014,-56.7808C82.5857,-48.0621 91.176,-36.8574 98.185,-27.7153"/>
<polygon fill="midnightblue" stroke="midnightblue" points="101,-29.7961 104.307,-19.7305 95.4446,-25.5371 101,-29.7961"/>
</g>
</g>
</svg>
