<?xml version="1.0" encoding="UTF-8" standalone="no"?>
<!DOCTYPE svg PUBLIC "-//W3C//DTD SVG 1.1//EN"
 "http://www.w3.org/Graphics/SVG/1.1/DTD/svg11.dtd">
<!-- Generated by graphviz version 2.36.0 (20140111.2315)
 -->
<!-- Title: include/shad/core/impl/minimum_maximum_ops.h Pages: 1 -->
<svg width="1285pt" height="424pt"
 viewBox="0.00 0.00 1284.91 424.00" xmlns="http://www.w3.org/2000/svg" xmlns:xlink="http://www.w3.org/1999/xlink">
<g id="graph0" class="graph" transform="scale(1 1) rotate(0) translate(4 420)">
<title>include/shad/core/impl/minimum_maximum_ops.h</title>
<polygon fill="white" stroke="none" points="-4,4 -4,-420 1280.91,-420 1280.91,4 -4,4"/>
<!-- Node1 -->
<g id="node1" class="node"><title>Node1</title>
<polygon fill="#bfbfbf" stroke="black" points="712.5,-385 712.5,-415 849.5,-415 849.5,-385 712.5,-385"/>
<text text-anchor="start" x="720.5" y="-403" font-family="Helvetica,sans-Serif" font-size="10.00">include/shad/core/impl</text>
<text text-anchor="middle" x="781" y="-392" font-family="Helvetica,sans-Serif" font-size="10.00">/minimum_maximum_ops.h</text>
</g>
<!-- Node2 -->
<g id="node2" class="node"><title>Node2</title>
<polygon fill="white" stroke="#bfbfbf" points="112,-328.5 112,-347.5 168,-347.5 168,-328.5 112,-328.5"/>
<text text-anchor="middle" x="140" y="-335.5" font-family="Helvetica,sans-Serif" font-size="10.00">algorithm</text>
</g>
<!-- Node1&#45;&gt;Node2 -->
<g id="edge1" class="edge"><title>Node1&#45;&gt;Node2</title>
<path fill="none" stroke="midnightblue" d="M712.401,-395.978C600.747,-390.429 372.972,-376.475 182,-348 180.755,-347.814 179.492,-347.614 178.219,-347.402"/>
<polygon fill="midnightblue" stroke="midnightblue" points="178.847,-343.959 168.378,-345.588 177.578,-350.843 178.847,-343.959"/>
</g>
<!-- Node3 -->
<g id="node3" class="node"><title>Node3</title>
<polygon fill="white" stroke="#bfbfbf" points="66.5,-198.5 66.5,-217.5 125.5,-217.5 125.5,-198.5 66.5,-198.5"/>
<text text-anchor="middle" x="96" y="-205.5" font-family="Helvetica,sans-Serif" font-size="10.00">functional</text>
</g>
<!-- Node1&#45;&gt;Node3 -->
<g id="edge2" class="edge"><title>Node1&#45;&gt;Node3</title>
<path fill="none" stroke="midnightblue" d="M712.359,-397.858C624.807,-394.861 469.468,-384.343 342,-348 285.788,-331.973 274.033,-320.502 223,-292 183.881,-270.152 140.674,-240.691 116.085,-223.382"/>
<polygon fill="midnightblue" stroke="midnightblue" points="118.093,-220.515 107.91,-217.591 114.047,-226.227 118.093,-220.515"/>
</g>
<!-- Node4 -->
<g id="node4" class="node"><title>Node4</title>
<polygon fill="white" stroke="#bfbfbf" points="182.5,-198.5 182.5,-217.5 229.5,-217.5 229.5,-198.5 182.5,-198.5"/>
<text text-anchor="middle" x="206" y="-205.5" font-family="Helvetica,sans-Serif" font-size="10.00">iterator</text>
</g>
<!-- Node1&#45;&gt;Node4 -->
<g id="edge3" class="edge"><title>Node1&#45;&gt;Node4</title>
<path fill="none" stroke="midnightblue" d="M712.096,-392.21C586.255,-378.665 325.511,-344.955 253,-292 231.099,-276.006 217.985,-246.508 211.378,-227.329"/>
<polygon fill="midnightblue" stroke="midnightblue" points="214.664,-226.113 208.292,-217.648 207.994,-228.239 214.664,-226.113"/>
</g>
<!-- Node5 -->
<g id="node5" class="node"><title>Node5</title>
<polygon fill="white" stroke="#bfbfbf" points="1040,-266.5 1040,-285.5 1078,-285.5 1078,-266.5 1040,-266.5"/>
<text text-anchor="middle" x="1059" y="-273.5" font-family="Helvetica,sans-Serif" font-size="10.00">tuple</text>
</g>
<!-- Node1&#45;&gt;Node5 -->
<g id="edge4" class="edge"><title>Node1&#45;&gt;Node5</title>
<path fill="none" stroke="midnightblue" d="M824.46,-384.928C852.634,-375.404 889.926,-362.04 922,-348 962.654,-330.205 1008.06,-305.71 1035.05,-290.638"/>
<polygon fill="midnightblue" stroke="midnightblue" points="1037.11,-293.492 1044.11,-285.541 1033.68,-287.391 1037.11,-293.492"/>
</g>
<!-- Node6 -->
<g id="node6" class="node"><title>Node6</title>
<polygon fill="white" stroke="#bfbfbf" points="1188,-130.5 1188,-149.5 1250,-149.5 1250,-130.5 1188,-130.5"/>
<text text-anchor="middle" x="1219" y="-137.5" font-family="Helvetica,sans-Serif" font-size="10.00">type_traits</text>
</g>
<!-- Node1&#45;&gt;Node6 -->
<g id="edge5" class="edge"><title>Node1&#45;&gt;Node6</title>
<path fill="none" stroke="midnightblue" d="M849.741,-396.604C974.848,-391.531 1229.36,-377.654 1256,-348 1304.81,-293.673 1254.74,-197.85 1230.52,-158.557"/>
<polygon fill="midnightblue" stroke="midnightblue" points="1233.31,-156.417 1225,-149.846 1227.4,-160.165 1233.31,-156.417"/>
</g>
<!-- Node7 -->
<g id="node7" class="node"><title>Node7</title>
<polygon fill="white" stroke="#bfbfbf" points="1128,-198.5 1128,-217.5 1172,-217.5 1172,-198.5 1128,-198.5"/>
<text text-anchor="middle" x="1150" y="-205.5" font-family="Helvetica,sans-Serif" font-size="10.00">vector</text>
</g>
<!-- Node1&#45;&gt;Node7 -->
<g id="edge6" class="edge"><title>Node1&#45;&gt;Node7</title>
<path fill="none" stroke="midnightblue" d="M849.783,-388.187C916.195,-374.898 1016.76,-346.983 1087,-292 1110.31,-273.758 1129.55,-244.935 1140.41,-226.504"/>
<polygon fill="midnightblue" stroke="midnightblue" points="1143.52,-228.118 1145.43,-217.696 1137.44,-224.653 1143.52,-228.118"/>
</g>
<!-- Node8 -->
<g id="node8" class="node"><title>Node8</title>
<g id="a_node8"><a xlink:href="execution_8h.html" target="_top" xlink:title="shad/core/execution.h">
<polygon fill="white" stroke="black" points="1134.5,-328.5 1134.5,-347.5 1247.5,-347.5 1247.5,-328.5 1134.5,-328.5"/>
<text text-anchor="middle" x="1191" y="-335.5" font-family="Helvetica,sans-Serif" font-size="10.00">shad/core/execution.h</text>
</a>
</g>
</g>
<!-- Node1&#45;&gt;Node8 -->
<g id="edge7" class="edge"><title>Node1&#45;&gt;Node8</title>
<path fill="none" stroke="midnightblue" d="M849.625,-388.957C925.936,-377.79 1048.39,-359.87 1124.03,-348.801"/>
<polygon fill="midnightblue" stroke="midnightblue" points="1124.99,-352.197 1134.38,-347.286 1123.98,-345.271 1124.99,-352.197"/>
</g>
<!-- Node9 -->
<g id="node9" class="node"><title>Node9</title>
<g id="a_node9"><a xlink:href="distributed__iterator__traits_8h.html" target="_top" xlink:title="shad/distributed_iterator\l_traits.h">
<polygon fill="white" stroke="black" points="262.5,-261 262.5,-291 383.5,-291 383.5,-261 262.5,-261"/>
<text text-anchor="start" x="270.5" y="-279" font-family="Helvetica,sans-Serif" font-size="10.00">shad/distributed_iterator</text>
<text text-anchor="middle" x="323" y="-268" font-family="Helvetica,sans-Serif" font-size="10.00">_traits.h</text>
</a>
</g>
</g>
<!-- Node1&#45;&gt;Node9 -->
<g id="edge9" class="edge"><title>Node1&#45;&gt;Node9</title>
<path fill="none" stroke="midnightblue" d="M728.014,-384.886C643.018,-362.245 476.558,-317.904 385.748,-293.714"/>
<polygon fill="midnightblue" stroke="midnightblue" points="386.426,-290.273 375.862,-291.081 384.624,-297.037 386.426,-290.273"/>
</g>
<!-- Node18 -->
<g id="node18" class="node"><title>Node18</title>
<g id="a_node18"><a xlink:href="runtime_8h.html" target="_top" xlink:title="shad/runtime/runtime.h">
<polygon fill="white" stroke="black" points="521,-266.5 521,-285.5 637,-285.5 637,-266.5 521,-266.5"/>
<text text-anchor="middle" x="579" y="-273.5" font-family="Helvetica,sans-Serif" font-size="10.00">shad/runtime/runtime.h</text>
</a>
</g>
</g>
<!-- Node1&#45;&gt;Node18 -->
<g id="edge20" class="edge"><title>Node1&#45;&gt;Node18</title>
<path fill="none" stroke="midnightblue" d="M757.433,-384.766C718.384,-361.183 640.744,-314.291 602.044,-290.917"/>
<polygon fill="midnightblue" stroke="midnightblue" points="603.46,-287.684 593.091,-285.51 599.841,-293.676 603.46,-287.684"/>
</g>
<!-- Node28 -->
<g id="node28" class="node"><title>Node28</title>
<g id="a_node28"><a xlink:href="impl__patterns_8h.html" target="_top" xlink:title="impl_patterns.h">
<polygon fill="white" stroke="black" points="830.5,-328.5 830.5,-347.5 913.5,-347.5 913.5,-328.5 830.5,-328.5"/>
<text text-anchor="middle" x="872" y="-335.5" font-family="Helvetica,sans-Serif" font-size="10.00">impl_patterns.h</text>
</a>
</g>
</g>
<!-- Node1&#45;&gt;Node28 -->
<g id="edge47" class="edge"><title>Node1&#45;&gt;Node28</title>
<path fill="none" stroke="midnightblue" d="M802.566,-384.781C816.966,-375.286 835.837,-362.843 850.271,-353.327"/>
<polygon fill="midnightblue" stroke="midnightblue" points="852.602,-355.982 859.024,-347.556 848.749,-350.138 852.602,-355.982"/>
</g>
<!-- Node8&#45;&gt;Node6 -->
<g id="edge8" class="edge"><title>Node8&#45;&gt;Node6</title>
<path fill="none" stroke="midnightblue" d="M1193.21,-328.28C1197.9,-309.407 1208.84,-263.303 1214,-224 1216.87,-202.137 1218.09,-176.814 1218.62,-159.944"/>
<polygon fill="midnightblue" stroke="midnightblue" points="1222.12,-159.848 1218.88,-149.762 1215.12,-159.669 1222.12,-159.848"/>
</g>
<!-- Node9&#45;&gt;Node4 -->
<g id="edge11" class="edge"><title>Node9&#45;&gt;Node4</title>
<path fill="none" stroke="midnightblue" d="M297.901,-260.841C277.845,-249.528 249.912,-233.771 230.119,-222.605"/>
<polygon fill="midnightblue" stroke="midnightblue" points="231.82,-219.547 221.391,-217.682 228.381,-225.644 231.82,-219.547"/>
</g>
<!-- Node10 -->
<g id="node10" class="node"><title>Node10</title>
<polygon fill="white" stroke="#bfbfbf" points="-0.5,-198.5 -0.5,-217.5 48.5,-217.5 48.5,-198.5 -0.5,-198.5"/>
<text text-anchor="middle" x="24" y="-205.5" font-family="Helvetica,sans-Serif" font-size="10.00">cassert</text>
</g>
<!-- Node9&#45;&gt;Node10 -->
<g id="edge10" class="edge"><title>Node9&#45;&gt;Node10</title>
<path fill="none" stroke="midnightblue" d="M262.298,-267.544C207.714,-259.86 125.781,-245.883 57,-224 54.723,-223.276 52.3955,-222.436 50.0826,-221.532"/>
<polygon fill="midnightblue" stroke="midnightblue" points="51.3945,-218.286 40.8235,-217.576 48.6442,-224.723 51.3945,-218.286"/>
</g>
<!-- Node11 -->
<g id="node11" class="node"><title>Node11</title>
<g id="a_node11"><a xlink:href="locality_8h.html" target="_top" xlink:title="shad/runtime/locality.h">
<polygon fill="white" stroke="black" points="501.5,-130.5 501.5,-149.5 616.5,-149.5 616.5,-130.5 501.5,-130.5"/>
<text text-anchor="middle" x="559" y="-137.5" font-family="Helvetica,sans-Serif" font-size="10.00">shad/runtime/locality.h</text>
</a>
</g>
</g>
<!-- Node9&#45;&gt;Node11 -->
<g id="edge12" class="edge"><title>Node9&#45;&gt;Node11</title>
<path fill="none" stroke="midnightblue" d="M262.467,-263.831C208.11,-251.221 141.362,-227.69 173,-192 217.248,-142.085 404.992,-165.607 471,-156 480.892,-154.56 491.386,-152.894 501.55,-151.206"/>
<polygon fill="midnightblue" stroke="midnightblue" points="502.29,-154.631 511.57,-149.519 501.127,-147.728 502.29,-154.631"/>
</g>
<!-- Node12 -->
<g id="node12" class="node"><title>Node12</title>
<polygon fill="white" stroke="#bfbfbf" points="692,-62.5 692,-81.5 738,-81.5 738,-62.5 692,-62.5"/>
<text text-anchor="middle" x="715" y="-69.5" font-family="Helvetica,sans-Serif" font-size="10.00">cstdint</text>
</g>
<!-- Node11&#45;&gt;Node12 -->
<g id="edge13" class="edge"><title>Node11&#45;&gt;Node12</title>
<path fill="none" stroke="midnightblue" d="M579.394,-130.372C606.372,-118.958 654.122,-98.7562 685.159,-85.6252"/>
<polygon fill="midnightblue" stroke="midnightblue" points="686.755,-88.7503 694.601,-81.6305 684.027,-82.3035 686.755,-88.7503"/>
</g>
<!-- Node13 -->
<g id="node13" class="node"><title>Node13</title>
<polygon fill="white" stroke="#bfbfbf" points="352,-62.5 352,-81.5 406,-81.5 406,-62.5 352,-62.5"/>
<text text-anchor="middle" x="379" y="-69.5" font-family="Helvetica,sans-Serif" font-size="10.00">iostream</text>
</g>
<!-- Node11&#45;&gt;Node13 -->
<g id="edge14" class="edge"><title>Node11&#45;&gt;Node13</title>
<path fill="none" stroke="midnightblue" d="M535.468,-130.372C503.849,-118.778 447.499,-98.1162 411.751,-85.0087"/>
<polygon fill="midnightblue" stroke="midnightblue" points="412.846,-81.6824 402.252,-81.5259 410.436,-88.2546 412.846,-81.6824"/>
</g>
<!-- Node14 -->
<g id="node14" class="node"><title>Node14</title>
<polygon fill="white" stroke="#bfbfbf" points="730,-0.5 730,-19.5 834,-19.5 834,-0.5 730,-0.5"/>
<text text-anchor="middle" x="782" y="-7.5" font-family="Helvetica,sans-Serif" font-size="10.00">shad/config/config.h</text>
</g>
<!-- Node11&#45;&gt;Node14 -->
<g id="edge15" class="edge"><title>Node11&#45;&gt;Node14</title>
<path fill="none" stroke="midnightblue" d="M572.823,-130.34C588.69,-120.339 615.433,-103.297 638,-88 658.314,-74.2302 661.732,-68.2448 683,-56 704.835,-43.4287 730.809,-31.7353 750.672,-23.4208"/>
<polygon fill="midnightblue" stroke="midnightblue" points="752.255,-26.5541 760.167,-19.508 749.588,-20.0821 752.255,-26.5541"/>
</g>
<!-- Node15 -->
<g id="node15" class="node"><title>Node15</title>
<g id="a_node15"><a xlink:href="mapping__traits_8h.html" target="_top" xlink:title="shad/runtime/mapping\l_traits.h">
<polygon fill="white" stroke="black" points="938.5,-57 938.5,-87 1051.5,-87 1051.5,-57 938.5,-57"/>
<text text-anchor="start" x="946.5" y="-75" font-family="Helvetica,sans-Serif" font-size="10.00">shad/runtime/mapping</text>
<text text-anchor="middle" x="995" y="-64" font-family="Helvetica,sans-Serif" font-size="10.00">_traits.h</text>
</a>
</g>
</g>
<!-- Node11&#45;&gt;Node15 -->
<g id="edge16" class="edge"><title>Node11&#45;&gt;Node15</title>
<path fill="none" stroke="midnightblue" d="M594.703,-130.431C604.788,-128.167 615.795,-125.844 626,-124 731,-105.024 853.928,-89.3238 928.061,-80.5591"/>
<polygon fill="midnightblue" stroke="midnightblue" points="928.668,-84.012 938.191,-79.3688 927.851,-77.0599 928.668,-84.012"/>
</g>
<!-- Node17 -->
<g id="node17" class="node"><title>Node17</title>
<g id="a_node17"><a xlink:href="available__traits__mappings_8h.html" target="_top" xlink:title="shad/runtime/mappings\l/available_traits_mappings.h">
<polygon fill="white" stroke="black" points="489,-57 489,-87 629,-87 629,-57 489,-57"/>
<text text-anchor="start" x="497" y="-75" font-family="Helvetica,sans-Serif" font-size="10.00">shad/runtime/mappings</text>
<text text-anchor="middle" x="559" y="-64" font-family="Helvetica,sans-Serif" font-size="10.00">/available_traits_mappings.h</text>
</a>
</g>
</g>
<!-- Node11&#45;&gt;Node17 -->
<g id="edge19" class="edge"><title>Node11&#45;&gt;Node17</title>
<path fill="none" stroke="midnightblue" d="M559,-130.372C559,-121.971 559,-108.811 559,-97.2126"/>
<polygon fill="midnightblue" stroke="midnightblue" points="562.5,-97.1814 559,-87.1815 555.5,-97.1815 562.5,-97.1814"/>
</g>
<!-- Node15&#45;&gt;Node14 -->
<g id="edge18" class="edge"><title>Node15&#45;&gt;Node14</title>
<path fill="none" stroke="midnightblue" d="M945.061,-56.9327C907.57,-46.3717 856.904,-32.0998 822.051,-22.282"/>
<polygon fill="midnightblue" stroke="midnightblue" points="822.794,-18.8553 812.22,-19.5127 820.896,-25.593 822.794,-18.8553"/>
</g>
<!-- Node16 -->
<g id="node16" class="node"><title>Node16</title>
<polygon fill="white" stroke="#bfbfbf" points="974.5,-0.5 974.5,-19.5 1015.5,-19.5 1015.5,-0.5 974.5,-0.5"/>
<text text-anchor="middle" x="995" y="-7.5" font-family="Helvetica,sans-Serif" font-size="10.00">string</text>
</g>
<!-- Node15&#45;&gt;Node16 -->
<g id="edge17" class="edge"><title>Node15&#45;&gt;Node16</title>
<path fill="none" stroke="midnightblue" d="M995,-56.7808C995,-48.7812 995,-38.6887 995,-30.0168"/>
<polygon fill="midnightblue" stroke="midnightblue" points="998.5,-29.7305 995,-19.7305 991.5,-29.7306 998.5,-29.7305"/>
</g>
<!-- Node18&#45;&gt;Node3 -->
<g id="edge23" class="edge"><title>Node18&#45;&gt;Node3</title>
<path fill="none" stroke="midnightblue" d="M520.668,-268.923C441.647,-260.406 296.284,-243.728 173,-224 160.83,-222.053 147.643,-219.608 135.678,-217.26"/>
<polygon fill="midnightblue" stroke="midnightblue" points="136.026,-213.761 125.534,-215.237 134.657,-220.626 136.026,-213.761"/>
</g>
<!-- Node18&#45;&gt;Node4 -->
<g id="edge25" class="edge"><title>Node18&#45;&gt;Node4</title>
<path fill="none" stroke="midnightblue" d="M520.791,-267.744C439.167,-257.293 294.977,-237.753 244,-224 241.015,-223.195 237.944,-222.229 234.904,-221.18"/>
<polygon fill="midnightblue" stroke="midnightblue" points="236.031,-217.865 225.438,-217.644 233.582,-224.422 236.031,-217.865"/>
</g>
<!-- Node18&#45;&gt;Node7 -->
<g id="edge31" class="edge"><title>Node18&#45;&gt;Node7</title>
<path fill="none" stroke="midnightblue" d="M637.134,-272.123C757.356,-265.747 1029.55,-248.988 1119,-224 1121.2,-223.386 1123.43,-222.621 1125.64,-221.764"/>
<polygon fill="midnightblue" stroke="midnightblue" points="1127.27,-224.871 1134.97,-217.601 1124.41,-218.478 1127.27,-224.871"/>
</g>
<!-- Node18&#45;&gt;Node11 -->
<g id="edge38" class="edge"><title>Node18&#45;&gt;Node11</title>
<path fill="none" stroke="midnightblue" d="M520.908,-266.553C473.238,-258.292 411.21,-244.028 396,-224 387.399,-212.674 387.578,-203.46 396,-192 408.761,-174.636 459.576,-160.549 501.119,-151.616"/>
<polygon fill="midnightblue" stroke="midnightblue" points="501.837,-155.041 510.908,-149.567 500.403,-148.19 501.837,-155.041"/>
</g>
<!-- Node18&#45;&gt;Node12 -->
<g id="edge22" class="edge"><title>Node18&#45;&gt;Node12</title>
<path fill="none" stroke="midnightblue" d="M637.178,-267.981C693.209,-260.071 772.661,-245.45 795,-224 827.632,-192.667 837.552,-162.626 814,-124 799.708,-100.561 770.815,-87.4338 747.914,-80.3898"/>
<polygon fill="midnightblue" stroke="midnightblue" points="748.783,-76.9982 738.208,-77.6486 746.88,-83.7347 748.783,-76.9982"/>
</g>
<!-- Node18&#45;&gt;Node13 -->
<g id="edge24" class="edge"><title>Node18&#45;&gt;Node13</title>
<path fill="none" stroke="midnightblue" d="M525.78,-266.498C473.619,-257.33 398.609,-241.653 375,-224 336.663,-195.336 318.32,-168.868 335,-124 340.094,-110.299 350.703,-97.8182 360.228,-88.633"/>
<polygon fill="midnightblue" stroke="midnightblue" points="362.774,-91.0492 367.829,-81.738 358.07,-85.8647 362.774,-91.0492"/>
</g>
<!-- Node18&#45;&gt;Node14 -->
<g id="edge32" class="edge"><title>Node18&#45;&gt;Node14</title>
<path fill="none" stroke="midnightblue" d="M523.48,-266.468C456.72,-255.711 351.967,-237.05 339,-224 286.355,-171.021 286.218,-104.519 343,-56 371.058,-32.025 605.581,-18.6474 719.871,-13.4967"/>
<polygon fill="midnightblue" stroke="midnightblue" points="720.047,-16.9924 729.882,-13.0527 719.737,-9.99931 720.047,-16.9924"/>
</g>
<!-- Node18&#45;&gt;Node15 -->
<g id="edge39" class="edge"><title>Node18&#45;&gt;Node15</title>
<path fill="none" stroke="midnightblue" d="M637.313,-272.533C751.744,-267.093 996.821,-252.244 1022,-224 1053.77,-188.357 1027.79,-128.569 1009.38,-95.9428"/>
<polygon fill="midnightblue" stroke="midnightblue" points="1012.28,-93.9803 1004.2,-87.1243 1006.24,-97.5211 1012.28,-93.9803"/>
</g>
<!-- Node19 -->
<g id="node19" class="node"><title>Node19</title>
<polygon fill="white" stroke="#bfbfbf" points="756.5,-130.5 756.5,-149.5 805.5,-149.5 805.5,-130.5 756.5,-130.5"/>
<text text-anchor="middle" x="781" y="-137.5" font-family="Helvetica,sans-Serif" font-size="10.00">cstddef</text>
</g>
<!-- Node18&#45;&gt;Node19 -->
<g id="edge21" class="edge"><title>Node18&#45;&gt;Node19</title>
<path fill="none" stroke="midnightblue" d="M637.183,-267.548C688.717,-259.65 758.428,-245.342 776,-224 790.735,-206.104 788.951,-178.001 785.575,-159.538"/>
<polygon fill="midnightblue" stroke="midnightblue" points="788.983,-158.738 783.458,-149.698 782.14,-160.211 788.983,-158.738"/>
</g>
<!-- Node20 -->
<g id="node20" class="node"><title>Node20</title>
<polygon fill="white" stroke="#bfbfbf" points="438.5,-198.5 438.5,-217.5 473.5,-217.5 473.5,-198.5 438.5,-198.5"/>
<text text-anchor="middle" x="456" y="-205.5" font-family="Helvetica,sans-Serif" font-size="10.00">map</text>
</g>
<!-- Node18&#45;&gt;Node20 -->
<g id="edge26" class="edge"><title>Node18&#45;&gt;Node20</title>
<path fill="none" stroke="midnightblue" d="M562.643,-266.43C543.497,-256.371 510.859,-239.137 483,-224 482.175,-223.552 481.337,-223.095 480.492,-222.633"/>
<polygon fill="midnightblue" stroke="midnightblue" points="481.84,-219.38 471.393,-217.617 478.461,-225.51 481.84,-219.38"/>
</g>
<!-- Node21 -->
<g id="node21" class="node"><title>Node21</title>
<polygon fill="white" stroke="#bfbfbf" points="635,-130.5 635,-149.5 687,-149.5 687,-130.5 635,-130.5"/>
<text text-anchor="middle" x="661" y="-137.5" font-family="Helvetica,sans-Serif" font-size="10.00">memory</text>
</g>
<!-- Node18&#45;&gt;Node21 -->
<g id="edge27" class="edge"><title>Node18&#45;&gt;Node21</title>
<path fill="none" stroke="midnightblue" d="M529.112,-266.456C473.841,-254.86 396.52,-230.989 429,-192 485.689,-123.951 540.085,-181.175 625,-156 627.647,-155.215 630.365,-154.3 633.063,-153.315"/>
<polygon fill="midnightblue" stroke="midnightblue" points="634.572,-156.482 642.59,-149.557 632.003,-149.971 634.572,-156.482"/>
</g>
<!-- Node22 -->
<g id="node22" class="node"><title>Node22</title>
<polygon fill="white" stroke="#bfbfbf" points="492,-198.5 492,-217.5 522,-217.5 522,-198.5 492,-198.5"/>
<text text-anchor="middle" x="507" y="-205.5" font-family="Helvetica,sans-Serif" font-size="10.00">set</text>
</g>
<!-- Node18&#45;&gt;Node22 -->
<g id="edge28" class="edge"><title>Node18&#45;&gt;Node22</title>
<path fill="none" stroke="midnightblue" d="M569.587,-266.372C558.116,-255.856 538.508,-237.882 524.29,-224.85"/>
<polygon fill="midnightblue" stroke="midnightblue" points="526.381,-222.018 516.645,-217.841 521.651,-227.178 526.381,-222.018"/>
</g>
<!-- Node23 -->
<g id="node23" class="node"><title>Node23</title>
<polygon fill="white" stroke="#bfbfbf" points="540,-198.5 540,-217.5 618,-217.5 618,-198.5 540,-198.5"/>
<text text-anchor="middle" x="579" y="-205.5" font-family="Helvetica,sans-Serif" font-size="10.00">unordered_set</text>
</g>
<!-- Node18&#45;&gt;Node23 -->
<g id="edge29" class="edge"><title>Node18&#45;&gt;Node23</title>
<path fill="none" stroke="midnightblue" d="M579,-266.372C579,-256.643 579,-240.528 579,-227.85"/>
<polygon fill="midnightblue" stroke="midnightblue" points="582.5,-227.841 579,-217.841 575.5,-227.841 582.5,-227.841"/>
</g>
<!-- Node24 -->
<g id="node24" class="node"><title>Node24</title>
<polygon fill="white" stroke="#bfbfbf" points="1070,-198.5 1070,-217.5 1110,-217.5 1110,-198.5 1070,-198.5"/>
<text text-anchor="middle" x="1090" y="-205.5" font-family="Helvetica,sans-Serif" font-size="10.00">utility</text>
</g>
<!-- Node18&#45;&gt;Node24 -->
<g id="edge30" class="edge"><title>Node18&#45;&gt;Node24</title>
<path fill="none" stroke="midnightblue" d="M637.32,-274.518C728.274,-272.491 908.751,-263.329 1056,-224 1058.65,-223.291 1061.37,-222.402 1064.05,-221.414"/>
<polygon fill="midnightblue" stroke="midnightblue" points="1065.52,-224.592 1073.42,-217.538 1062.85,-218.123 1065.52,-224.592"/>
</g>
<!-- Node25 -->
<g id="node25" class="node"><title>Node25</title>
<g id="a_node25"><a xlink:href="handle_8h.html" target="_top" xlink:title="shad/runtime/handle.h">
<polygon fill="white" stroke="black" points="900.5,-198.5 900.5,-217.5 1013.5,-217.5 1013.5,-198.5 900.5,-198.5"/>
<text text-anchor="middle" x="957" y="-205.5" font-family="Helvetica,sans-Serif" font-size="10.00">shad/runtime/handle.h</text>
</a>
</g>
</g>
<!-- Node18&#45;&gt;Node25 -->
<g id="edge33" class="edge"><title>Node18&#45;&gt;Node25</title>
<path fill="none" stroke="midnightblue" d="M628.029,-266.439C697.285,-254.347 823.587,-232.294 897.924,-219.315"/>
<polygon fill="midnightblue" stroke="midnightblue" points="898.809,-222.713 908.057,-217.546 897.604,-215.818 898.809,-222.713"/>
</g>
<!-- Node26 -->
<g id="node26" class="node"><title>Node26</title>
<g id="a_node26"><a xlink:href="available__mappings_8h.html" target="_top" xlink:title="shad/runtime/mappings\l/available_mappings.h">
<polygon fill="white" stroke="black" points="344,-125 344,-155 462,-155 462,-125 344,-125"/>
<text text-anchor="start" x="352" y="-143" font-family="Helvetica,sans-Serif" font-size="10.00">shad/runtime/mappings</text>
<text text-anchor="middle" x="403" y="-132" font-family="Helvetica,sans-Serif" font-size="10.00">/available_mappings.h</text>
</a>
</g>
</g>
<!-- Node18&#45;&gt;Node26 -->
<g id="edge40" class="edge"><title>Node18&#45;&gt;Node26</title>
<path fill="none" stroke="midnightblue" d="M520.721,-267.462C470.118,-259.579 402.441,-245.349 386,-224 372.9,-206.989 380.266,-182.392 389.018,-164.391"/>
<polygon fill="midnightblue" stroke="midnightblue" points="392.32,-165.635 393.902,-155.159 386.132,-162.362 392.32,-165.635"/>
</g>
<!-- Node27 -->
<g id="node27" class="node"><title>Node27</title>
<g id="a_node27"><a xlink:href="synchronous__interface_8h.html" target="_top" xlink:title="shad/runtime/synchronous\l_interface.h">
<polygon fill="white" stroke="black" points="636.5,-193 636.5,-223 767.5,-223 767.5,-193 636.5,-193"/>
<text text-anchor="start" x="644.5" y="-211" font-family="Helvetica,sans-Serif" font-size="10.00">shad/runtime/synchronous</text>
<text text-anchor="middle" x="702" y="-200" font-family="Helvetica,sans-Serif" font-size="10.00">_interface.h</text>
</a>
</g>
</g>
<!-- Node18&#45;&gt;Node27 -->
<g id="edge42" class="edge"><title>Node18&#45;&gt;Node27</title>
<path fill="none" stroke="midnightblue" d="M595.08,-266.372C613.131,-256.686 642.977,-240.671 666.555,-228.019"/>
<polygon fill="midnightblue" stroke="midnightblue" points="668.414,-230.994 675.571,-223.181 665.104,-224.826 668.414,-230.994"/>
</g>
<!-- Node25&#45;&gt;Node6 -->
<g id="edge34" class="edge"><title>Node25&#45;&gt;Node6</title>
<path fill="none" stroke="midnightblue" d="M990.983,-198.439C1039.01,-186.341 1126.62,-164.271 1178.13,-151.294"/>
<polygon fill="midnightblue" stroke="midnightblue" points="1179.09,-154.663 1187.93,-148.826 1177.38,-147.875 1179.09,-154.663"/>
</g>
<!-- Node25&#45;&gt;Node14 -->
<g id="edge35" class="edge"><title>Node25&#45;&gt;Node14</title>
<path fill="none" stroke="midnightblue" d="M949.255,-198.325C922.206,-168.031 831.678,-66.6392 796.321,-27.0391"/>
<polygon fill="midnightblue" stroke="midnightblue" points="798.927,-24.7029 789.656,-19.5746 793.705,-29.3651 798.927,-24.7029"/>
</g>
<!-- Node25&#45;&gt;Node15 -->
<g id="edge36" class="edge"><title>Node25&#45;&gt;Node15</title>
<path fill="none" stroke="midnightblue" d="M959.493,-198.208C965.254,-177.895 979.649,-127.132 988.238,-96.8463"/>
<polygon fill="midnightblue" stroke="midnightblue" points="991.649,-97.6469 991.01,-87.0713 984.914,-95.737 991.649,-97.6469"/>
</g>
<!-- Node25&#45;&gt;Node17 -->
<g id="edge37" class="edge"><title>Node25&#45;&gt;Node17</title>
<path fill="none" stroke="midnightblue" d="M945.429,-198.482C921.921,-181.596 866.354,-143.805 814,-124 757.488,-102.622 690.374,-89.6583 639.186,-82.1532"/>
<polygon fill="midnightblue" stroke="midnightblue" points="639.563,-78.6716 629.169,-80.7241 638.574,-85.6015 639.563,-78.6716"/>
</g>
<!-- Node26&#45;&gt;Node17 -->
<g id="edge41" class="edge"><title>Node26&#45;&gt;Node17</title>
<path fill="none" stroke="midnightblue" d="M436.466,-124.841C459.885,-114.933 491.358,-101.618 516.543,-90.9626"/>
<polygon fill="midnightblue" stroke="midnightblue" points="518.012,-94.1417 525.858,-87.0218 515.284,-87.6949 518.012,-94.1417"/>
</g>
<!-- Node27&#45;&gt;Node11 -->
<g id="edge46" class="edge"><title>Node27&#45;&gt;Node11</title>
<path fill="none" stroke="midnightblue" d="M671.323,-192.841C646.366,-181.323 611.431,-165.199 587.175,-154.004"/>
<polygon fill="midnightblue" stroke="midnightblue" points="588.357,-150.695 577.811,-149.682 585.424,-157.05 588.357,-150.695"/>
</g>
<!-- Node27&#45;&gt;Node12 -->
<g id="edge44" class="edge"><title>Node27&#45;&gt;Node12</title>
<path fill="none" stroke="midnightblue" d="M703.391,-192.66C705.753,-168.32 710.544,-118.933 713.173,-91.8373"/>
<polygon fill="midnightblue" stroke="midnightblue" points="716.671,-92.0188 714.153,-81.7275 709.704,-91.3428 716.671,-92.0188"/>
</g>
<!-- Node27&#45;&gt;Node19 -->
<g id="edge43" class="edge"><title>Node27&#45;&gt;Node19</title>
<path fill="none" stroke="midnightblue" d="M719.142,-192.679C731.947,-181.981 749.428,-167.377 762.54,-156.422"/>
<polygon fill="midnightblue" stroke="midnightblue" points="765.003,-158.926 770.433,-149.828 760.515,-153.554 765.003,-158.926"/>
</g>
<!-- Node27&#45;&gt;Node21 -->
<g id="edge45" class="edge"><title>Node27&#45;&gt;Node21</title>
<path fill="none" stroke="midnightblue" d="M693.104,-192.679C686.837,-182.592 678.414,-169.033 671.768,-158.335"/>
<polygon fill="midnightblue" stroke="midnightblue" points="674.734,-156.476 666.484,-149.828 668.788,-160.17 674.734,-156.476"/>
</g>
<!-- Node28&#45;&gt;Node4 -->
<g id="edge49" class="edge"><title>Node28&#45;&gt;Node4</title>
<path fill="none" stroke="midnightblue" d="M830.406,-333.656C763.074,-327.828 626.218,-314.26 512,-292 457.822,-281.441 445.487,-273.635 392,-260 326.402,-243.278 308.525,-244.476 244,-224 241.366,-223.164 238.653,-222.235 235.946,-221.261"/>
<polygon fill="midnightblue" stroke="midnightblue" points="236.916,-217.885 226.324,-217.618 234.438,-224.432 236.916,-217.885"/>
</g>
<!-- Node28&#45;&gt;Node5 -->
<g id="edge50" class="edge"><title>Node28&#45;&gt;Node5</title>
<path fill="none" stroke="midnightblue" d="M906.403,-328.451C937.917,-320.267 985.656,-306.977 1026,-292 1027.9,-291.294 1029.85,-290.527 1031.8,-289.727"/>
<polygon fill="midnightblue" stroke="midnightblue" points="1033.6,-292.76 1041.38,-285.567 1030.82,-286.339 1033.6,-292.76"/>
</g>
<!-- Node28&#45;&gt;Node6 -->
<g id="edge51" class="edge"><title>Node28&#45;&gt;Node6</title>
<path fill="none" stroke="midnightblue" d="M899.837,-328.345C923.696,-320.409 958.603,-307.546 987,-292 1008.21,-280.388 1009.05,-270.144 1031,-260 1092.84,-231.418 1127.21,-267.066 1180,-224 1200.11,-207.594 1210.42,-178.429 1215.26,-159.405"/>
<polygon fill="midnightblue" stroke="midnightblue" points="1218.7,-160.077 1217.51,-149.549 1211.87,-158.52 1218.7,-160.077"/>
</g>
<!-- Node28&#45;&gt;Node7 -->
<g id="edge53" class="edge"><title>Node28&#45;&gt;Node7</title>
<path fill="none" stroke="midnightblue" d="M886.946,-328.356C902.338,-319.406 926.978,-304.945 948,-292 970.466,-278.166 974.01,-270.981 998,-260 1049.02,-236.649 1066.69,-244.285 1119,-224 1120.65,-223.361 1122.33,-222.67 1124.01,-221.946"/>
<polygon fill="midnightblue" stroke="midnightblue" points="1125.86,-224.951 1133.49,-217.6 1122.94,-218.588 1125.86,-224.951"/>
</g>
<!-- Node28&#45;&gt;Node9 -->
<g id="edge54" class="edge"><title>Node28&#45;&gt;Node9</title>
<path fill="none" stroke="midnightblue" d="M830.331,-333.445C751.208,-326.554 573.812,-310.423 425,-292 414.837,-290.742 404.122,-289.297 393.609,-287.811"/>
<polygon fill="midnightblue" stroke="midnightblue" points="394.011,-284.333 383.616,-286.379 393.018,-291.262 394.011,-284.333"/>
</g>
<!-- Node28&#45;&gt;Node18 -->
<g id="edge55" class="edge"><title>Node28&#45;&gt;Node18</title>
<path fill="none" stroke="midnightblue" d="M830.331,-328.467C777.719,-317.693 687.226,-299.162 630.384,-287.522"/>
<polygon fill="midnightblue" stroke="midnightblue" points="631.024,-284.081 620.525,-285.503 629.619,-290.938 631.024,-284.081"/>
</g>
<!-- Node28&#45;&gt;Node19 -->
<g id="edge48" class="edge"><title>Node28&#45;&gt;Node19</title>
<path fill="none" stroke="midnightblue" d="M867.972,-328.325C854.113,-298.474 808.204,-199.594 789.273,-158.818"/>
<polygon fill="midnightblue" stroke="midnightblue" points="792.367,-157.171 784.981,-149.575 786.018,-160.119 792.367,-157.171"/>
</g>
<!-- Node28&#45;&gt;Node24 -->
<g id="edge52" class="edge"><title>Node28&#45;&gt;Node24</title>
<path fill="none" stroke="midnightblue" d="M879.012,-328.379C892.173,-312.708 922.135,-279.389 954,-260 995.069,-235.011 1011.31,-241.715 1056,-224 1057.89,-223.251 1059.83,-222.459 1061.78,-221.647"/>
<polygon fill="midnightblue" stroke="midnightblue" points="1063.6,-224.674 1071.4,-217.51 1060.83,-218.243 1063.6,-224.674"/>
</g>
</g>
</svg>
