<?xml version="1.0" encoding="UTF-8" standalone="no"?>
<!DOCTYPE svg PUBLIC "-//W3C//DTD SVG 1.1//EN"
 "http://www.w3.org/Graphics/SVG/1.1/DTD/svg11.dtd">
<!-- Generated by graphviz version 2.36.0 (20140111.2315)
 -->
<!-- Title: include/shad/core/impl/minimum_maximum_ops.h Pages: 1 -->
<svg width="1373pt" height="424pt"
 viewBox="0.00 0.00 1373.00 424.00" xmlns="http://www.w3.org/2000/svg" xmlns:xlink="http://www.w3.org/1999/xlink">
<g id="graph0" class="graph" transform="scale(1 1) rotate(0) translate(4 420)">
<title>include/shad/core/impl/minimum_maximum_ops.h</title>
<polygon fill="white" stroke="none" points="-4,4 -4,-420 1369,-420 1369,4 -4,4"/>
<!-- Node1 -->
<g id="node1" class="node"><title>Node1</title>
<polygon fill="#bfbfbf" stroke="black" points="602.5,-385 602.5,-415 739.5,-415 739.5,-385 602.5,-385"/>
<text text-anchor="start" x="610.5" y="-403" font-family="Helvetica,sans-Serif" font-size="10.00">include/shad/core/impl</text>
<text text-anchor="middle" x="671" y="-392" font-family="Helvetica,sans-Serif" font-size="10.00">/minimum_maximum_ops.h</text>
</g>
<!-- Node2 -->
<g id="node2" class="node"><title>Node2</title>
<polygon fill="white" stroke="#bfbfbf" points="0,-328.5 0,-347.5 56,-347.5 56,-328.5 0,-328.5"/>
<text text-anchor="middle" x="28" y="-335.5" font-family="Helvetica,sans-Serif" font-size="10.00">algorithm</text>
</g>
<!-- Node1&#45;&gt;Node2 -->
<g id="edge1" class="edge"><title>Node1&#45;&gt;Node2</title>
<path fill="none" stroke="midnightblue" d="M602.172,-395.994C490.145,-390.466 261.609,-376.542 70,-348 68.7553,-347.815 67.4923,-347.615 66.2186,-347.403"/>
<polygon fill="midnightblue" stroke="midnightblue" points="66.8464,-343.959 56.3777,-345.589 65.5779,-350.843 66.8464,-343.959"/>
</g>
<!-- Node3 -->
<g id="node3" class="node"><title>Node3</title>
<polygon fill="white" stroke="#bfbfbf" points="18.5,-198.5 18.5,-217.5 77.5,-217.5 77.5,-198.5 18.5,-198.5"/>
<text text-anchor="middle" x="48" y="-205.5" font-family="Helvetica,sans-Serif" font-size="10.00">functional</text>
</g>
<!-- Node1&#45;&gt;Node3 -->
<g id="edge2" class="edge"><title>Node1&#45;&gt;Node3</title>
<path fill="none" stroke="midnightblue" d="M602.404,-396.428C489.346,-391.39 269.28,-377.983 198,-348 135.421,-321.677 82.6387,-257.125 59.9328,-226.141"/>
<polygon fill="midnightblue" stroke="midnightblue" points="62.5426,-223.774 53.8741,-217.682 56.8518,-227.85 62.5426,-223.774"/>
</g>
<!-- Node4 -->
<g id="node4" class="node"><title>Node4</title>
<polygon fill="white" stroke="#bfbfbf" points="134.5,-198.5 134.5,-217.5 181.5,-217.5 181.5,-198.5 134.5,-198.5"/>
<text text-anchor="middle" x="158" y="-205.5" font-family="Helvetica,sans-Serif" font-size="10.00">iterator</text>
</g>
<!-- Node1&#45;&gt;Node4 -->
<g id="edge3" class="edge"><title>Node1&#45;&gt;Node4</title>
<path fill="none" stroke="midnightblue" d="M602.404,-395.611C472.488,-387.601 198.376,-362.551 141,-292 125.896,-273.428 136.867,-244.924 146.864,-226.623"/>
<polygon fill="midnightblue" stroke="midnightblue" points="149.963,-228.257 152.003,-217.861 143.925,-224.716 149.963,-228.257"/>
</g>
<!-- Node5 -->
<g id="node5" class="node"><title>Node5</title>
<polygon fill="white" stroke="#bfbfbf" points="1070,-266.5 1070,-285.5 1108,-285.5 1108,-266.5 1070,-266.5"/>
<text text-anchor="middle" x="1089" y="-273.5" font-family="Helvetica,sans-Serif" font-size="10.00">tuple</text>
</g>
<!-- Node1&#45;&gt;Node5 -->
<g id="edge4" class="edge"><title>Node1&#45;&gt;Node5</title>
<path fill="none" stroke="midnightblue" d="M732.939,-384.936C809.795,-366.769 944.354,-332.609 1056,-292 1057.91,-291.306 1059.86,-290.549 1061.81,-289.756"/>
<polygon fill="midnightblue" stroke="midnightblue" points="1063.61,-292.792 1071.4,-285.611 1060.83,-286.366 1063.61,-292.792"/>
</g>
<!-- Node6 -->
<g id="node6" class="node"><title>Node6</title>
<polygon fill="white" stroke="#bfbfbf" points="1174,-130.5 1174,-149.5 1236,-149.5 1236,-130.5 1174,-130.5"/>
<text text-anchor="middle" x="1205" y="-137.5" font-family="Helvetica,sans-Serif" font-size="10.00">type_traits</text>
</g>
<!-- Node1&#45;&gt;Node6 -->
<g id="edge5" class="edge"><title>Node1&#45;&gt;Node6</title>
<path fill="none" stroke="midnightblue" d="M739.522,-396.57C813.741,-392.297 934.823,-380.51 1034,-348 1118.49,-320.303 1155.18,-305.384 1191,-224 1200.09,-203.352 1203.31,-177.424 1204.43,-160.093"/>
<polygon fill="midnightblue" stroke="midnightblue" points="1207.95,-159.791 1204.92,-149.638 1200.95,-159.464 1207.95,-159.791"/>
</g>
<!-- Node7 -->
<g id="node7" class="node"><title>Node7</title>
<polygon fill="white" stroke="#bfbfbf" points="1114,-198.5 1114,-217.5 1158,-217.5 1158,-198.5 1114,-198.5"/>
<text text-anchor="middle" x="1136" y="-205.5" font-family="Helvetica,sans-Serif" font-size="10.00">vector</text>
</g>
<!-- Node1&#45;&gt;Node7 -->
<g id="edge6" class="edge"><title>Node1&#45;&gt;Node7</title>
<path fill="none" stroke="midnightblue" d="M739.588,-391.661C851.447,-378.256 1065.85,-346.098 1117,-292 1133.32,-274.744 1136.64,-246.458 1136.85,-227.782"/>
<polygon fill="midnightblue" stroke="midnightblue" points="1140.34,-227.516 1136.66,-217.58 1133.34,-227.641 1140.34,-227.516"/>
</g>
<!-- Node8 -->
<g id="node8" class="node"><title>Node8</title>
<g id="a_node8"><a xlink:href="execution_8h.html" target="_top" xlink:title="shad/core/execution.h">
<polygon fill="white" stroke="black" points="1252.5,-328.5 1252.5,-347.5 1365.5,-347.5 1365.5,-328.5 1252.5,-328.5"/>
<text text-anchor="middle" x="1309" y="-335.5" font-family="Helvetica,sans-Serif" font-size="10.00">shad/core/execution.h</text>
</a>
</g>
</g>
<!-- Node1&#45;&gt;Node8 -->
<g id="edge7" class="edge"><title>Node1&#45;&gt;Node8</title>
<path fill="none" stroke="midnightblue" d="M739.594,-393.64C846.291,-385.121 1058.43,-367.451 1238,-348 1239.47,-347.841 1240.95,-347.678 1242.45,-347.51"/>
<polygon fill="midnightblue" stroke="midnightblue" points="1242.91,-350.98 1252.44,-346.358 1242.11,-344.026 1242.91,-350.98"/>
</g>
<!-- Node9 -->
<g id="node9" class="node"><title>Node9</title>
<g id="a_node9"><a xlink:href="distributed__iterator__traits_8h.html" target="_top" xlink:title="shad/distributed_iterator\l_traits.h">
<polygon fill="white" stroke="black" points="150.5,-261 150.5,-291 271.5,-291 271.5,-261 150.5,-261"/>
<text text-anchor="start" x="158.5" y="-279" font-family="Helvetica,sans-Serif" font-size="10.00">shad/distributed_iterator</text>
<text text-anchor="middle" x="211" y="-268" font-family="Helvetica,sans-Serif" font-size="10.00">_traits.h</text>
</a>
</g>
</g>
<!-- Node1&#45;&gt;Node9 -->
<g id="edge9" class="edge"><title>Node1&#45;&gt;Node9</title>
<path fill="none" stroke="midnightblue" d="M617.783,-384.886C532.415,-362.245 365.228,-317.904 274.022,-293.714"/>
<polygon fill="midnightblue" stroke="midnightblue" points="274.656,-290.262 264.093,-291.081 272.861,-297.028 274.656,-290.262"/>
</g>
<!-- Node16 -->
<g id="node16" class="node"><title>Node16</title>
<g id="a_node16"><a xlink:href="runtime_8h.html" target="_top" xlink:title="shad/runtime/runtime.h">
<polygon fill="white" stroke="black" points="578,-266.5 578,-285.5 694,-285.5 694,-266.5 578,-266.5"/>
<text text-anchor="middle" x="636" y="-273.5" font-family="Helvetica,sans-Serif" font-size="10.00">shad/runtime/runtime.h</text>
</a>
</g>
</g>
<!-- Node1&#45;&gt;Node16 -->
<g id="edge18" class="edge"><title>Node1&#45;&gt;Node16</title>
<path fill="none" stroke="midnightblue" d="M666.753,-384.724C663.726,-374.505 659.575,-360.417 656,-348 650.862,-330.152 645.126,-309.739 641.12,-295.396"/>
<polygon fill="midnightblue" stroke="midnightblue" points="644.488,-294.446 638.431,-285.754 637.745,-296.326 644.488,-294.446"/>
</g>
<!-- Node27 -->
<g id="node27" class="node"><title>Node27</title>
<g id="a_node27"><a xlink:href="impl__patterns_8h.html" target="_top" xlink:title="impl_patterns.h">
<polygon fill="white" stroke="black" points="664.5,-328.5 664.5,-347.5 747.5,-347.5 747.5,-328.5 664.5,-328.5"/>
<text text-anchor="middle" x="706" y="-335.5" font-family="Helvetica,sans-Serif" font-size="10.00">impl_patterns.h</text>
</a>
</g>
</g>
<!-- Node1&#45;&gt;Node27 -->
<g id="edge45" class="edge"><title>Node1&#45;&gt;Node27</title>
<path fill="none" stroke="midnightblue" d="M679.295,-384.781C684.223,-376.332 690.514,-365.548 695.751,-356.569"/>
<polygon fill="midnightblue" stroke="midnightblue" points="698.892,-358.132 700.907,-347.731 692.845,-354.605 698.892,-358.132"/>
</g>
<!-- Node8&#45;&gt;Node6 -->
<g id="edge8" class="edge"><title>Node8&#45;&gt;Node6</title>
<path fill="none" stroke="midnightblue" d="M1305.19,-328.318C1295.08,-305.522 1266.43,-242.256 1238,-192 1231.47,-180.453 1223.39,-167.939 1216.86,-158.197"/>
<polygon fill="midnightblue" stroke="midnightblue" points="1219.69,-156.134 1211.17,-149.828 1213.9,-160.067 1219.69,-156.134"/>
</g>
<!-- Node9&#45;&gt;Node4 -->
<g id="edge10" class="edge"><title>Node9&#45;&gt;Node4</title>
<path fill="none" stroke="midnightblue" d="M199.5,-260.679C191.236,-250.388 180.07,-236.484 171.402,-225.69"/>
<polygon fill="midnightblue" stroke="midnightblue" points="174.08,-223.434 165.089,-217.828 168.622,-227.817 174.08,-223.434"/>
</g>
<!-- Node10 -->
<g id="node10" class="node"><title>Node10</title>
<g id="a_node10"><a xlink:href="locality_8h.html" target="_top" xlink:title="shad/runtime/locality.h">
<polygon fill="white" stroke="black" points="247.5,-130.5 247.5,-149.5 362.5,-149.5 362.5,-130.5 247.5,-130.5"/>
<text text-anchor="middle" x="305" y="-137.5" font-family="Helvetica,sans-Serif" font-size="10.00">shad/runtime/locality.h</text>
</a>
</g>
</g>
<!-- Node9&#45;&gt;Node10 -->
<g id="edge11" class="edge"><title>Node9&#45;&gt;Node10</title>
<path fill="none" stroke="midnightblue" d="M169.564,-260.993C152.602,-252.978 134.708,-241.044 125,-224 117.961,-211.642 116.423,-203.345 125,-192 138.886,-173.634 192.6,-159.968 237.768,-151.43"/>
<polygon fill="midnightblue" stroke="midnightblue" points="238.644,-154.827 247.848,-149.581 237.381,-147.942 238.644,-154.827"/>
</g>
<!-- Node11 -->
<g id="node11" class="node"><title>Node11</title>
<polygon fill="white" stroke="#bfbfbf" points="435,-62.5 435,-81.5 481,-81.5 481,-62.5 435,-62.5"/>
<text text-anchor="middle" x="458" y="-69.5" font-family="Helvetica,sans-Serif" font-size="10.00">cstdint</text>
</g>
<!-- Node10&#45;&gt;Node11 -->
<g id="edge12" class="edge"><title>Node10&#45;&gt;Node11</title>
<path fill="none" stroke="midnightblue" d="M325.002,-130.372C351.461,-118.958 398.293,-98.7562 428.732,-85.6252"/>
<polygon fill="midnightblue" stroke="midnightblue" points="430.197,-88.8052 437.993,-81.6305 427.425,-82.3777 430.197,-88.8052"/>
</g>
<!-- Node12 -->
<g id="node12" class="node"><title>Node12</title>
<polygon fill="white" stroke="#bfbfbf" points="354,-0.5 354,-19.5 458,-19.5 458,-0.5 354,-0.5"/>
<text text-anchor="middle" x="406" y="-7.5" font-family="Helvetica,sans-Serif" font-size="10.00">shad/config/config.h</text>
</g>
<!-- Node10&#45;&gt;Node12 -->
<g id="edge13" class="edge"><title>Node10&#45;&gt;Node12</title>
<path fill="none" stroke="midnightblue" d="M322.692,-130.393C338.857,-121.717 362.399,-106.917 377,-88 390.332,-70.727 398.079,-46.6528 402.159,-30.0434"/>
<polygon fill="midnightblue" stroke="midnightblue" points="405.658,-30.4349 404.422,-19.9125 398.826,-28.9092 405.658,-30.4349"/>
</g>
<!-- Node13 -->
<g id="node13" class="node"><title>Node13</title>
<g id="a_node13"><a xlink:href="mapping__traits_8h.html" target="_top" xlink:title="shad/runtime/mapping\l_traits.h">
<polygon fill="white" stroke="black" points="255.5,-57 255.5,-87 368.5,-87 368.5,-57 255.5,-57"/>
<text text-anchor="start" x="263.5" y="-75" font-family="Helvetica,sans-Serif" font-size="10.00">shad/runtime/mapping</text>
<text text-anchor="middle" x="312" y="-64" font-family="Helvetica,sans-Serif" font-size="10.00">_traits.h</text>
</a>
</g>
</g>
<!-- Node10&#45;&gt;Node13 -->
<g id="edge14" class="edge"><title>Node10&#45;&gt;Node13</title>
<path fill="none" stroke="midnightblue" d="M305.915,-130.372C306.806,-121.971 308.202,-108.811 309.432,-97.2126"/>
<polygon fill="midnightblue" stroke="midnightblue" points="312.922,-97.4949 310.496,-87.1815 305.961,-96.7565 312.922,-97.4949"/>
</g>
<!-- Node15 -->
<g id="node15" class="node"><title>Node15</title>
<g id="a_node15"><a xlink:href="available__traits__mappings_8h.html" target="_top" xlink:title="shad/runtime/mappings\l/available_traits_mappings.h">
<polygon fill="white" stroke="black" points="836,-57 836,-87 976,-87 976,-57 836,-57"/>
<text text-anchor="start" x="844" y="-75" font-family="Helvetica,sans-Serif" font-size="10.00">shad/runtime/mappings</text>
<text text-anchor="middle" x="906" y="-64" font-family="Helvetica,sans-Serif" font-size="10.00">/available_traits_mappings.h</text>
</a>
</g>
</g>
<!-- Node10&#45;&gt;Node15 -->
<g id="edge17" class="edge"><title>Node10&#45;&gt;Node15</title>
<path fill="none" stroke="midnightblue" d="M338.752,-130.452C349.051,-128.081 360.442,-125.696 371,-124 531.253,-98.2603 720.751,-83.9528 825.752,-77.4259"/>
<polygon fill="midnightblue" stroke="midnightblue" points="826.19,-80.9057 835.956,-76.7996 825.761,-73.9188 826.19,-80.9057"/>
</g>
<!-- Node13&#45;&gt;Node12 -->
<g id="edge16" class="edge"><title>Node13&#45;&gt;Node12</title>
<path fill="none" stroke="midnightblue" d="M334.277,-56.7808C349.293,-47.1958 369.017,-34.6062 383.98,-25.0555"/>
<polygon fill="midnightblue" stroke="midnightblue" points="386.05,-27.8863 392.596,-19.5557 382.284,-21.9859 386.05,-27.8863"/>
</g>
<!-- Node14 -->
<g id="node14" class="node"><title>Node14</title>
<polygon fill="white" stroke="#bfbfbf" points="291.5,-0.5 291.5,-19.5 332.5,-19.5 332.5,-0.5 291.5,-0.5"/>
<text text-anchor="middle" x="312" y="-7.5" font-family="Helvetica,sans-Serif" font-size="10.00">string</text>
</g>
<!-- Node13&#45;&gt;Node14 -->
<g id="edge15" class="edge"><title>Node13&#45;&gt;Node14</title>
<path fill="none" stroke="midnightblue" d="M312,-56.7808C312,-48.7812 312,-38.6887 312,-30.0168"/>
<polygon fill="midnightblue" stroke="midnightblue" points="315.5,-29.7305 312,-19.7305 308.5,-29.7306 315.5,-29.7305"/>
</g>
<!-- Node16&#45;&gt;Node3 -->
<g id="edge21" class="edge"><title>Node16&#45;&gt;Node3</title>
<path fill="none" stroke="midnightblue" d="M577.927,-270.97C482.902,-263.981 288.406,-248.017 125,-224 112.807,-222.208 99.6122,-219.808 87.6482,-217.455"/>
<polygon fill="midnightblue" stroke="midnightblue" points="88.001,-213.956 77.5072,-215.415 86.6206,-220.818 88.001,-213.956"/>
</g>
<!-- Node16&#45;&gt;Node4 -->
<g id="edge23" class="edge"><title>Node16&#45;&gt;Node4</title>
<path fill="none" stroke="midnightblue" d="M577.903,-268.897C499.58,-260.38 355.879,-243.735 234,-224 220.067,-221.744 204.786,-218.817 191.603,-216.148"/>
<polygon fill="midnightblue" stroke="midnightblue" points="192.046,-212.666 181.546,-214.081 190.637,-219.523 192.046,-212.666"/>
</g>
<!-- Node16&#45;&gt;Node7 -->
<g id="edge29" class="edge"><title>Node16&#45;&gt;Node7</title>
<path fill="none" stroke="midnightblue" d="M694.252,-274.999C784.148,-273.597 961.326,-265.235 1105,-224 1107.19,-223.37 1109.42,-222.594 1111.63,-221.73"/>
<polygon fill="midnightblue" stroke="midnightblue" points="1113.26,-224.835 1120.96,-217.555 1110.4,-218.445 1113.26,-224.835"/>
</g>
<!-- Node16&#45;&gt;Node10 -->
<g id="edge36" class="edge"><title>Node16&#45;&gt;Node10</title>
<path fill="none" stroke="midnightblue" d="M577.746,-272.098C500.564,-267.112 369.962,-254.351 334,-224 315.074,-208.027 308.489,-178.962 306.205,-159.816"/>
<polygon fill="midnightblue" stroke="midnightblue" points="309.669,-159.265 305.28,-149.622 302.698,-159.897 309.669,-159.265"/>
</g>
<!-- Node16&#45;&gt;Node11 -->
<g id="edge20" class="edge"><title>Node16&#45;&gt;Node11</title>
<path fill="none" stroke="midnightblue" d="M618.637,-266.366C603.185,-257.764 581.196,-243.096 569,-224 544.506,-185.647 573.939,-160.677 547,-124 533.112,-105.091 509.948,-92.1375 490.733,-84.0175"/>
<polygon fill="midnightblue" stroke="midnightblue" points="491.982,-80.7476 481.396,-80.3103 489.399,-87.2535 491.982,-80.7476"/>
</g>
<!-- Node16&#45;&gt;Node12 -->
<g id="edge30" class="edge"><title>Node16&#45;&gt;Node12</title>
<path fill="none" stroke="midnightblue" d="M694.272,-272.065C766.575,-266.04 876.087,-247.7 839,-192 755.481,-66.5657 566.628,-27.9011 468.239,-16.1013"/>
<polygon fill="midnightblue" stroke="midnightblue" points="468.475,-12.6055 458.142,-14.9468 467.679,-19.5602 468.475,-12.6055"/>
</g>
<!-- Node16&#45;&gt;Node13 -->
<g id="edge37" class="edge"><title>Node16&#45;&gt;Node13</title>
<path fill="none" stroke="midnightblue" d="M577.756,-270.062C497.075,-262.516 356.032,-246.578 310,-224 260.83,-199.883 212.532,-172.484 238,-124 245.016,-110.645 257.288,-100.102 269.845,-92.1537"/>
<polygon fill="midnightblue" stroke="midnightblue" points="271.669,-95.1416 278.523,-87.0623 268.126,-89.104 271.669,-95.1416"/>
</g>
<!-- Node17 -->
<g id="node17" class="node"><title>Node17</title>
<polygon fill="white" stroke="#bfbfbf" points="380.5,-130.5 380.5,-149.5 429.5,-149.5 429.5,-130.5 380.5,-130.5"/>
<text text-anchor="middle" x="405" y="-137.5" font-family="Helvetica,sans-Serif" font-size="10.00">cstddef</text>
</g>
<!-- Node16&#45;&gt;Node17 -->
<g id="edge19" class="edge"><title>Node16&#45;&gt;Node17</title>
<path fill="none" stroke="midnightblue" d="M577.916,-273.419C501.218,-269.965 372.411,-258.972 343,-224 323.514,-200.829 356.459,-172.244 381.309,-155.383"/>
<polygon fill="midnightblue" stroke="midnightblue" points="383.516,-158.123 389.987,-149.734 379.697,-152.257 383.516,-158.123"/>
</g>
<!-- Node18 -->
<g id="node18" class="node"><title>Node18</title>
<polygon fill="white" stroke="#bfbfbf" points="578,-198.5 578,-217.5 632,-217.5 632,-198.5 578,-198.5"/>
<text text-anchor="middle" x="605" y="-205.5" font-family="Helvetica,sans-Serif" font-size="10.00">iostream</text>
</g>
<!-- Node16&#45;&gt;Node18 -->
<g id="edge22" class="edge"><title>Node16&#45;&gt;Node18</title>
<path fill="none" stroke="midnightblue" d="M631.947,-266.372C627.285,-256.446 619.502,-239.874 613.495,-227.086"/>
<polygon fill="midnightblue" stroke="midnightblue" points="616.572,-225.404 609.153,-217.841 610.236,-228.38 616.572,-225.404"/>
</g>
<!-- Node19 -->
<g id="node19" class="node"><title>Node19</title>
<polygon fill="white" stroke="#bfbfbf" points="650.5,-198.5 650.5,-217.5 685.5,-217.5 685.5,-198.5 650.5,-198.5"/>
<text text-anchor="middle" x="668" y="-205.5" font-family="Helvetica,sans-Serif" font-size="10.00">map</text>
</g>
<!-- Node16&#45;&gt;Node19 -->
<g id="edge24" class="edge"><title>Node16&#45;&gt;Node19</title>
<path fill="none" stroke="midnightblue" d="M640.183,-266.372C644.996,-256.446 653.031,-239.874 659.231,-227.086"/>
<polygon fill="midnightblue" stroke="midnightblue" points="662.5,-228.366 663.713,-217.841 656.201,-225.312 662.5,-228.366"/>
</g>
<!-- Node20 -->
<g id="node20" class="node"><title>Node20</title>
<polygon fill="white" stroke="#bfbfbf" points="486,-130.5 486,-149.5 538,-149.5 538,-130.5 486,-130.5"/>
<text text-anchor="middle" x="512" y="-137.5" font-family="Helvetica,sans-Serif" font-size="10.00">memory</text>
</g>
<!-- Node16&#45;&gt;Node20 -->
<g id="edge25" class="edge"><title>Node16&#45;&gt;Node20</title>
<path fill="none" stroke="midnightblue" d="M604.654,-266.361C582.463,-258.695 553.622,-245.337 536,-224 520.812,-205.611 515.233,-178.047 513.184,-159.798"/>
<polygon fill="midnightblue" stroke="midnightblue" points="516.669,-159.463 512.311,-149.805 509.695,-160.072 516.669,-159.463"/>
</g>
<!-- Node21 -->
<g id="node21" class="node"><title>Node21</title>
<polygon fill="white" stroke="#bfbfbf" points="704,-198.5 704,-217.5 734,-217.5 734,-198.5 704,-198.5"/>
<text text-anchor="middle" x="719" y="-205.5" font-family="Helvetica,sans-Serif" font-size="10.00">set</text>
</g>
<!-- Node16&#45;&gt;Node21 -->
<g id="edge26" class="edge"><title>Node16&#45;&gt;Node21</title>
<path fill="none" stroke="midnightblue" d="M646.851,-266.372C660.397,-255.6 683.785,-237.002 700.254,-223.906"/>
<polygon fill="midnightblue" stroke="midnightblue" points="702.498,-226.594 708.147,-217.63 698.141,-221.115 702.498,-226.594"/>
</g>
<!-- Node22 -->
<g id="node22" class="node"><title>Node22</title>
<polygon fill="white" stroke="#bfbfbf" points="752,-198.5 752,-217.5 830,-217.5 830,-198.5 752,-198.5"/>
<text text-anchor="middle" x="791" y="-205.5" font-family="Helvetica,sans-Serif" font-size="10.00">unordered_set</text>
</g>
<!-- Node16&#45;&gt;Node22 -->
<g id="edge27" class="edge"><title>Node16&#45;&gt;Node22</title>
<path fill="none" stroke="midnightblue" d="M656.264,-266.372C683.068,-254.958 730.512,-234.756 761.35,-221.625"/>
<polygon fill="midnightblue" stroke="midnightblue" points="762.902,-224.768 770.731,-217.63 760.16,-218.328 762.902,-224.768"/>
</g>
<!-- Node23 -->
<g id="node23" class="node"><title>Node23</title>
<polygon fill="white" stroke="#bfbfbf" points="1056,-198.5 1056,-217.5 1096,-217.5 1096,-198.5 1056,-198.5"/>
<text text-anchor="middle" x="1076" y="-205.5" font-family="Helvetica,sans-Serif" font-size="10.00">utility</text>
</g>
<!-- Node16&#45;&gt;Node23 -->
<g id="edge28" class="edge"><title>Node16&#45;&gt;Node23</title>
<path fill="none" stroke="midnightblue" d="M694.143,-270.215C791.106,-261.826 981.548,-243.493 1046,-224 1047.96,-223.406 1049.96,-222.691 1051.93,-221.9"/>
<polygon fill="midnightblue" stroke="midnightblue" points="1053.84,-224.875 1061.46,-217.514 1050.91,-218.517 1053.84,-224.875"/>
</g>
<!-- Node24 -->
<g id="node24" class="node"><title>Node24</title>
<g id="a_node24"><a xlink:href="handle_8h.html" target="_top" xlink:title="shad/runtime/handle.h">
<polygon fill="white" stroke="black" points="924.5,-198.5 924.5,-217.5 1037.5,-217.5 1037.5,-198.5 924.5,-198.5"/>
<text text-anchor="middle" x="981" y="-205.5" font-family="Helvetica,sans-Serif" font-size="10.00">shad/runtime/handle.h</text>
</a>
</g>
</g>
<!-- Node16&#45;&gt;Node24 -->
<g id="edge31" class="edge"><title>Node16&#45;&gt;Node24</title>
<path fill="none" stroke="midnightblue" d="M684.079,-266.414C738.844,-256.55 830.981,-239.699 910,-224 917.051,-222.599 924.487,-221.078 931.785,-219.559"/>
<polygon fill="midnightblue" stroke="midnightblue" points="932.533,-222.978 941.602,-217.501 931.097,-216.127 932.533,-222.978"/>
</g>
<!-- Node25 -->
<g id="node25" class="node"><title>Node25</title>
<g id="a_node25"><a xlink:href="available__mappings_8h.html" target="_top" xlink:title="shad/runtime/mappings\l/available_mappings.h">
<polygon fill="white" stroke="black" points="836,-125 836,-155 954,-155 954,-125 836,-125"/>
<text text-anchor="start" x="844" y="-143" font-family="Helvetica,sans-Serif" font-size="10.00">shad/runtime/mappings</text>
<text text-anchor="middle" x="895" y="-132" font-family="Helvetica,sans-Serif" font-size="10.00">/available_mappings.h</text>
</a>
</g>
</g>
<!-- Node16&#45;&gt;Node25 -->
<g id="edge38" class="edge"><title>Node16&#45;&gt;Node25</title>
<path fill="none" stroke="midnightblue" d="M694.172,-269.313C755.533,-262.151 846.778,-247.812 872,-224 887.906,-208.984 893.144,-184.026 894.712,-165.392"/>
<polygon fill="midnightblue" stroke="midnightblue" points="898.214,-165.451 895.264,-155.275 891.224,-165.069 898.214,-165.451"/>
</g>
<!-- Node26 -->
<g id="node26" class="node"><title>Node26</title>
<g id="a_node26"><a xlink:href="synchronous__interface_8h.html" target="_top" xlink:title="shad/runtime/synchronous\l_interface.h">
<polygon fill="white" stroke="black" points="352.5,-193 352.5,-223 483.5,-223 483.5,-193 352.5,-193"/>
<text text-anchor="start" x="360.5" y="-211" font-family="Helvetica,sans-Serif" font-size="10.00">shad/runtime/synchronous</text>
<text text-anchor="middle" x="418" y="-200" font-family="Helvetica,sans-Serif" font-size="10.00">_interface.h</text>
</a>
</g>
</g>
<!-- Node16&#45;&gt;Node26 -->
<g id="edge40" class="edge"><title>Node16&#45;&gt;Node26</title>
<path fill="none" stroke="midnightblue" d="M607.5,-266.372C573.772,-256.16 516.811,-238.915 474.125,-225.992"/>
<polygon fill="midnightblue" stroke="midnightblue" points="475.013,-222.604 464.428,-223.056 472.985,-229.304 475.013,-222.604"/>
</g>
<!-- Node24&#45;&gt;Node6 -->
<g id="edge32" class="edge"><title>Node24&#45;&gt;Node6</title>
<path fill="none" stroke="midnightblue" d="M1010.28,-198.372C1050.22,-186.604 1121.86,-165.496 1166.22,-152.426"/>
<polygon fill="midnightblue" stroke="midnightblue" points="1167.46,-155.71 1176.06,-149.526 1165.48,-148.995 1167.46,-155.71"/>
</g>
<!-- Node24&#45;&gt;Node12 -->
<g id="edge33" class="edge"><title>Node24&#45;&gt;Node12</title>
<path fill="none" stroke="midnightblue" d="M984.811,-198.408C995.494,-172.858 1022.58,-96.6144 985,-56 950.471,-18.6831 610.917,-12.2348 468.432,-11.1782"/>
<polygon fill="midnightblue" stroke="midnightblue" points="468.137,-7.67618 458.113,-11.1086 468.089,-14.676 468.137,-7.67618"/>
</g>
<!-- Node24&#45;&gt;Node13 -->
<g id="edge34" class="edge"><title>Node24&#45;&gt;Node13</title>
<path fill="none" stroke="midnightblue" d="M938.389,-198.465C825.093,-175.772 515.738,-113.809 378.774,-86.3748"/>
<polygon fill="midnightblue" stroke="midnightblue" points="379.314,-82.9135 368.821,-84.3812 377.939,-89.7771 379.314,-82.9135"/>
</g>
<!-- Node24&#45;&gt;Node15 -->
<g id="edge35" class="edge"><title>Node24&#45;&gt;Node15</title>
<path fill="none" stroke="midnightblue" d="M980.848,-198.372C980.215,-182.562 977.17,-148.338 963,-124 956.147,-112.229 945.634,-101.702 935.494,-93.3133"/>
<polygon fill="midnightblue" stroke="midnightblue" points="937.549,-90.4767 927.52,-87.0607 933.23,-95.9853 937.549,-90.4767"/>
</g>
<!-- Node25&#45;&gt;Node15 -->
<g id="edge39" class="edge"><title>Node25&#45;&gt;Node15</title>
<path fill="none" stroke="midnightblue" d="M897.387,-124.679C898.713,-116.722 900.399,-106.605 901.927,-97.4356"/>
<polygon fill="midnightblue" stroke="midnightblue" points="905.426,-97.7324 903.618,-87.2931 898.521,-96.5816 905.426,-97.7324"/>
</g>
<!-- Node26&#45;&gt;Node10 -->
<g id="edge44" class="edge"><title>Node26&#45;&gt;Node10</title>
<path fill="none" stroke="midnightblue" d="M393.759,-192.841C374.476,-181.579 347.654,-165.913 328.554,-154.757"/>
<polygon fill="midnightblue" stroke="midnightblue" points="330.265,-151.703 319.864,-149.682 326.734,-157.748 330.265,-151.703"/>
</g>
<!-- Node26&#45;&gt;Node11 -->
<g id="edge42" class="edge"><title>Node26&#45;&gt;Node11</title>
<path fill="none" stroke="midnightblue" d="M424.134,-192.898C428.394,-182.762 434,-168.7 438,-156 444.801,-134.405 450.606,-109.03 454.183,-92.0748"/>
<polygon fill="midnightblue" stroke="midnightblue" points="457.703,-92.3314 456.288,-81.8316 450.847,-90.9224 457.703,-92.3314"/>
</g>
<!-- Node26&#45;&gt;Node17 -->
<g id="edge41" class="edge"><title>Node26&#45;&gt;Node17</title>
<path fill="none" stroke="midnightblue" d="M415.179,-192.679C413.273,-182.999 410.736,-170.123 408.672,-159.645"/>
<polygon fill="midnightblue" stroke="midnightblue" points="412.106,-158.963 406.739,-149.828 405.238,-160.316 412.106,-158.963"/>
</g>
<!-- Node26&#45;&gt;Node20 -->
<g id="edge43" class="edge"><title>Node26&#45;&gt;Node20</title>
<path fill="none" stroke="midnightblue" d="M438.397,-192.679C454.014,-181.713 475.475,-166.645 491.194,-155.609"/>
<polygon fill="midnightblue" stroke="midnightblue" points="493.525,-158.249 499.698,-149.638 489.502,-152.52 493.525,-158.249"/>
</g>
<!-- Node27&#45;&gt;Node4 -->
<g id="edge47" class="edge"><title>Node27&#45;&gt;Node4</title>
<path fill="none" stroke="midnightblue" d="M664.242,-334.751C578.446,-329.697 385.253,-315.971 324,-292 301.483,-283.188 301.075,-271.854 280,-260 271.623,-255.288 221.997,-234.916 188.675,-221.389"/>
<polygon fill="midnightblue" stroke="midnightblue" points="189.921,-218.118 179.339,-217.605 187.292,-224.605 189.921,-218.118"/>
</g>
<!-- Node27&#45;&gt;Node5 -->
<g id="edge48" class="edge"><title>Node27&#45;&gt;Node5</title>
<path fill="none" stroke="midnightblue" d="M747.755,-335.645C814.203,-332.603 947.579,-322.854 1056,-292 1058.35,-291.331 1060.74,-290.521 1063.12,-289.627"/>
<polygon fill="midnightblue" stroke="midnightblue" points="1064.73,-292.746 1072.58,-285.63 1062.01,-286.297 1064.73,-292.746"/>
</g>
<!-- Node27&#45;&gt;Node6 -->
<g id="edge49" class="edge"><title>Node27&#45;&gt;Node6</title>
<path fill="none" stroke="midnightblue" d="M747.801,-331.645C798.995,-324.638 888.137,-310.979 963,-292 965.882,-291.269 1163.78,-225.977 1166,-224 1185.29,-206.832 1195.79,-178.107 1200.9,-159.357"/>
<polygon fill="midnightblue" stroke="midnightblue" points="1204.3,-160.181 1203.3,-149.633 1197.5,-158.498 1204.3,-160.181"/>
</g>
<!-- Node27&#45;&gt;Node7 -->
<g id="edge51" class="edge"><title>Node27&#45;&gt;Node7</title>
<path fill="none" stroke="midnightblue" d="M746.253,-328.483C819.257,-312.408 977.723,-274.614 1105,-224 1106.64,-223.347 1108.32,-222.645 1110,-221.913"/>
<polygon fill="midnightblue" stroke="midnightblue" points="1111.85,-224.913 1119.47,-217.545 1108.92,-218.557 1111.85,-224.913"/>
</g>
<!-- Node27&#45;&gt;Node9 -->
<g id="edge52" class="edge"><title>Node27&#45;&gt;Node9</title>
<path fill="none" stroke="midnightblue" d="M664.407,-333.802C588.802,-327.709 423.908,-313.134 286,-292 284.708,-291.802 283.404,-291.597 282.092,-291.386"/>
<polygon fill="midnightblue" stroke="midnightblue" points="282.351,-287.88 271.907,-289.662 281.182,-294.782 282.351,-287.88"/>
</g>
<!-- Node27&#45;&gt;Node16 -->
<g id="edge53" class="edge"><title>Node27&#45;&gt;Node16</title>
<path fill="none" stroke="midnightblue" d="M695.971,-328.403C684.951,-318.958 667.04,-303.606 653.657,-292.134"/>
<polygon fill="midnightblue" stroke="midnightblue" points="655.881,-289.431 646.011,-285.581 651.325,-294.746 655.881,-289.431"/>
</g>
<!-- Node27&#45;&gt;Node17 -->
<g id="edge46" class="edge"><title>Node27&#45;&gt;Node17</title>
<path fill="none" stroke="midnightblue" d="M664.167,-330.603C575.58,-316.114 373.896,-277.815 334,-224 325.53,-212.575 327.509,-204.655 334,-192 342.604,-175.226 359.575,-162.722 374.767,-154.294"/>
<polygon fill="midnightblue" stroke="midnightblue" points="376.629,-157.272 383.906,-149.572 373.416,-151.053 376.629,-157.272"/>
</g>
<!-- Node27&#45;&gt;Node23 -->
<g id="edge50" class="edge"><title>Node27&#45;&gt;Node23</title>
<path fill="none" stroke="midnightblue" d="M728.435,-328.433C767.364,-313.688 850.064,-282.892 921,-260 976.02,-242.245 992.141,-245.016 1046,-224 1047.6,-223.374 1049.24,-222.693 1050.87,-221.977"/>
<polygon fill="midnightblue" stroke="midnightblue" points="1052.5,-225.079 1060.05,-217.651 1049.52,-218.747 1052.5,-225.079"/>
</g>
</g>
</svg>
