<?xml version="1.0" encoding="UTF-8" standalone="no"?>
<!DOCTYPE svg PUBLIC "-//W3C//DTD SVG 1.1//EN"
 "http://www.w3.org/Graphics/SVG/1.1/DTD/svg11.dtd">
<!-- Generated by graphviz version 2.36.0 (20140111.2315)
 -->
<!-- Title: include/shad/core/impl/minimum_maximum_ops.h Pages: 1 -->
<svg width="1319pt" height="424pt"
 viewBox="0.00 0.00 1319.21 424.00" xmlns="http://www.w3.org/2000/svg" xmlns:xlink="http://www.w3.org/1999/xlink">
<g id="graph0" class="graph" transform="scale(1 1) rotate(0) translate(4 420)">
<title>include/shad/core/impl/minimum_maximum_ops.h</title>
<polygon fill="white" stroke="none" points="-4,4 -4,-420 1315.21,-420 1315.21,4 -4,4"/>
<!-- Node1 -->
<g id="node1" class="node"><title>Node1</title>
<polygon fill="#bfbfbf" stroke="black" points="629.5,-385 629.5,-415 766.5,-415 766.5,-385 629.5,-385"/>
<text text-anchor="start" x="637.5" y="-403" font-family="Helvetica,sans-Serif" font-size="10.00">include/shad/core/impl</text>
<text text-anchor="middle" x="698" y="-392" font-family="Helvetica,sans-Serif" font-size="10.00">/minimum_maximum_ops.h</text>
</g>
<!-- Node2 -->
<g id="node2" class="node"><title>Node2</title>
<polygon fill="white" stroke="#bfbfbf" points="68,-328.5 68,-347.5 124,-347.5 124,-328.5 68,-328.5"/>
<text text-anchor="middle" x="96" y="-335.5" font-family="Helvetica,sans-Serif" font-size="10.00">algorithm</text>
</g>
<!-- Node1&#45;&gt;Node2 -->
<g id="edge1" class="edge"><title>Node1&#45;&gt;Node2</title>
<path fill="none" stroke="midnightblue" d="M629.144,-395.403C523.167,-389.264 313.897,-374.757 138,-348 136.756,-347.811 135.493,-347.607 134.22,-347.392"/>
<polygon fill="midnightblue" stroke="midnightblue" points="134.852,-343.95 124.381,-345.565 133.574,-350.832 134.852,-343.95"/>
</g>
<!-- Node3 -->
<g id="node3" class="node"><title>Node3</title>
<polygon fill="white" stroke="#bfbfbf" points="105.5,-198.5 105.5,-217.5 164.5,-217.5 164.5,-198.5 105.5,-198.5"/>
<text text-anchor="middle" x="135" y="-205.5" font-family="Helvetica,sans-Serif" font-size="10.00">functional</text>
</g>
<!-- Node1&#45;&gt;Node3 -->
<g id="edge2" class="edge"><title>Node1&#45;&gt;Node3</title>
<path fill="none" stroke="midnightblue" d="M629.442,-393.865C502.286,-382.968 236.828,-353.337 171,-292 152.451,-274.717 142.981,-246.231 138.515,-227.541"/>
<polygon fill="midnightblue" stroke="midnightblue" points="141.902,-226.639 136.389,-217.592 135.056,-228.102 141.902,-226.639"/>
</g>
<!-- Node4 -->
<g id="node4" class="node"><title>Node4</title>
<polygon fill="white" stroke="#bfbfbf" points="182.5,-198.5 182.5,-217.5 229.5,-217.5 229.5,-198.5 182.5,-198.5"/>
<text text-anchor="middle" x="206" y="-205.5" font-family="Helvetica,sans-Serif" font-size="10.00">iterator</text>
</g>
<!-- Node1&#45;&gt;Node4 -->
<g id="edge3" class="edge"><title>Node1&#45;&gt;Node4</title>
<path fill="none" stroke="midnightblue" d="M658.726,-384.841C603.155,-364.709 498.482,-326.428 410,-292 347.75,-267.779 275.462,-237.964 235.824,-221.469"/>
<polygon fill="midnightblue" stroke="midnightblue" points="237.052,-218.189 226.475,-217.574 234.36,-224.651 237.052,-218.189"/>
</g>
<!-- Node5 -->
<g id="node5" class="node"><title>Node5</title>
<polygon fill="white" stroke="#bfbfbf" points="1074,-266.5 1074,-285.5 1112,-285.5 1112,-266.5 1074,-266.5"/>
<text text-anchor="middle" x="1093" y="-273.5" font-family="Helvetica,sans-Serif" font-size="10.00">tuple</text>
</g>
<!-- Node1&#45;&gt;Node5 -->
<g id="edge4" class="edge"><title>Node1&#45;&gt;Node5</title>
<path fill="none" stroke="midnightblue" d="M754.296,-384.965C826.17,-366.456 953.927,-331.565 1060,-292 1061.9,-291.291 1063.85,-290.522 1065.8,-289.72"/>
<polygon fill="midnightblue" stroke="midnightblue" points="1067.6,-292.752 1075.38,-285.557 1064.81,-286.332 1067.6,-292.752"/>
</g>
<!-- Node6 -->
<g id="node6" class="node"><title>Node6</title>
<polygon fill="white" stroke="#bfbfbf" points="1222,-130.5 1222,-149.5 1284,-149.5 1284,-130.5 1222,-130.5"/>
<text text-anchor="middle" x="1253" y="-137.5" font-family="Helvetica,sans-Serif" font-size="10.00">type_traits</text>
</g>
<!-- Node1&#45;&gt;Node6 -->
<g id="edge5" class="edge"><title>Node1&#45;&gt;Node6</title>
<path fill="none" stroke="midnightblue" d="M766.697,-398.184C915.122,-395.706 1255.22,-385.91 1290,-348 1339.38,-294.189 1288.99,-198.075 1264.61,-158.631"/>
<polygon fill="midnightblue" stroke="midnightblue" points="1267.36,-156.445 1259.04,-149.885 1261.46,-160.201 1267.36,-156.445"/>
</g>
<!-- Node7 -->
<g id="node7" class="node"><title>Node7</title>
<polygon fill="white" stroke="#bfbfbf" points="1162,-198.5 1162,-217.5 1206,-217.5 1206,-198.5 1162,-198.5"/>
<text text-anchor="middle" x="1184" y="-205.5" font-family="Helvetica,sans-Serif" font-size="10.00">vector</text>
</g>
<!-- Node1&#45;&gt;Node7 -->
<g id="edge6" class="edge"><title>Node1&#45;&gt;Node7</title>
<path fill="none" stroke="midnightblue" d="M766.724,-396.318C855.852,-389.763 1012.7,-367.452 1121,-292 1145.41,-274.995 1164.46,-245.588 1174.96,-226.729"/>
<polygon fill="midnightblue" stroke="midnightblue" points="1178.15,-228.186 1179.77,-217.717 1171.97,-224.888 1178.15,-228.186"/>
</g>
<!-- Node8 -->
<g id="node8" class="node"><title>Node8</title>
<g id="a_node8"><a xlink:href="execution_8h.html" target="_top" xlink:title="shad/core/execution.h">
<polygon fill="white" stroke="black" points="1168.5,-328.5 1168.5,-347.5 1281.5,-347.5 1281.5,-328.5 1168.5,-328.5"/>
<text text-anchor="middle" x="1225" y="-335.5" font-family="Helvetica,sans-Serif" font-size="10.00">shad/core/execution.h</text>
</a>
</g>
</g>
<!-- Node1&#45;&gt;Node8 -->
<g id="edge7" class="edge"><title>Node1&#45;&gt;Node8</title>
<path fill="none" stroke="midnightblue" d="M766.792,-391.625C856.094,-381.978 1016.76,-364.372 1154,-348 1155.47,-347.825 1156.95,-347.647 1158.44,-347.467"/>
<polygon fill="midnightblue" stroke="midnightblue" points="1158.93,-350.934 1168.43,-346.247 1158.08,-343.985 1158.93,-350.934"/>
</g>
<!-- Node9 -->
<g id="node9" class="node"><title>Node9</title>
<g id="a_node9"><a xlink:href="distributed__iterator__traits_8h.html" target="_top" xlink:title="shad/distributed_iterator\l_traits.h">
<polygon fill="white" stroke="black" points="180.5,-261 180.5,-291 301.5,-291 301.5,-261 180.5,-261"/>
<text text-anchor="start" x="188.5" y="-279" font-family="Helvetica,sans-Serif" font-size="10.00">shad/distributed_iterator</text>
<text text-anchor="middle" x="241" y="-268" font-family="Helvetica,sans-Serif" font-size="10.00">_traits.h</text>
</a>
</g>
</g>
<!-- Node1&#45;&gt;Node9 -->
<g id="edge9" class="edge"><title>Node1&#45;&gt;Node9</title>
<path fill="none" stroke="midnightblue" d="M629.394,-394.021C564.411,-387.892 464.737,-374.799 382,-348 342.411,-335.177 300.182,-312.588 272.372,-296.329"/>
<polygon fill="midnightblue" stroke="midnightblue" points="273.905,-293.169 263.518,-291.081 270.336,-299.191 273.905,-293.169"/>
</g>
<!-- Node17 -->
<g id="node17" class="node"><title>Node17</title>
<g id="a_node17"><a xlink:href="runtime_8h.html" target="_top" xlink:title="shad/runtime/runtime.h">
<polygon fill="white" stroke="black" points="605,-266.5 605,-285.5 721,-285.5 721,-266.5 605,-266.5"/>
<text text-anchor="middle" x="663" y="-273.5" font-family="Helvetica,sans-Serif" font-size="10.00">shad/runtime/runtime.h</text>
</a>
</g>
</g>
<!-- Node1&#45;&gt;Node17 -->
<g id="edge19" class="edge"><title>Node1&#45;&gt;Node17</title>
<path fill="none" stroke="midnightblue" d="M693.354,-384.76C690.07,-374.559 685.624,-360.476 682,-348 676.888,-330.403 671.532,-310.206 667.815,-295.863"/>
<polygon fill="midnightblue" stroke="midnightblue" points="671.101,-294.591 665.221,-285.778 664.322,-296.334 671.101,-294.591"/>
</g>
<!-- Node28 -->
<g id="node28" class="node"><title>Node28</title>
<g id="a_node28"><a xlink:href="impl__patterns_8h.html" target="_top" xlink:title="impl_patterns.h">
<polygon fill="white" stroke="black" points="691.5,-328.5 691.5,-347.5 774.5,-347.5 774.5,-328.5 691.5,-328.5"/>
<text text-anchor="middle" x="733" y="-335.5" font-family="Helvetica,sans-Serif" font-size="10.00">impl_patterns.h</text>
</a>
</g>
</g>
<!-- Node1&#45;&gt;Node28 -->
<g id="edge46" class="edge"><title>Node1&#45;&gt;Node28</title>
<path fill="none" stroke="midnightblue" d="M706.295,-384.781C711.223,-376.332 717.514,-365.548 722.751,-356.569"/>
<polygon fill="midnightblue" stroke="midnightblue" points="725.892,-358.132 727.907,-347.731 719.845,-354.605 725.892,-358.132"/>
</g>
<!-- Node8&#45;&gt;Node6 -->
<g id="edge8" class="edge"><title>Node8&#45;&gt;Node6</title>
<path fill="none" stroke="midnightblue" d="M1227.21,-328.28C1231.9,-309.407 1242.84,-263.303 1248,-224 1250.87,-202.137 1252.09,-176.814 1252.62,-159.944"/>
<polygon fill="midnightblue" stroke="midnightblue" points="1256.12,-159.848 1252.88,-149.762 1249.12,-159.669 1256.12,-159.848"/>
</g>
<!-- Node9&#45;&gt;Node4 -->
<g id="edge11" class="edge"><title>Node9&#45;&gt;Node4</title>
<path fill="none" stroke="midnightblue" d="M233.406,-260.679C228.164,-250.796 221.156,-237.579 215.538,-226.986"/>
<polygon fill="midnightblue" stroke="midnightblue" points="218.459,-225.023 210.682,-217.828 212.275,-228.303 218.459,-225.023"/>
</g>
<!-- Node10 -->
<g id="node10" class="node"><title>Node10</title>
<polygon fill="white" stroke="#bfbfbf" points="-0.5,-198.5 -0.5,-217.5 48.5,-217.5 48.5,-198.5 -0.5,-198.5"/>
<text text-anchor="middle" x="24" y="-205.5" font-family="Helvetica,sans-Serif" font-size="10.00">cassert</text>
</g>
<!-- Node9&#45;&gt;Node10 -->
<g id="edge10" class="edge"><title>Node9&#45;&gt;Node10</title>
<path fill="none" stroke="midnightblue" d="M187.268,-260.931C151.752,-251.308 104.304,-237.83 63,-224 60.3817,-223.123 57.6798,-222.176 54.9771,-221.198"/>
<polygon fill="midnightblue" stroke="midnightblue" points="55.9259,-217.816 45.3333,-217.595 53.476,-224.373 55.9259,-217.816"/>
</g>
<!-- Node11 -->
<g id="node11" class="node"><title>Node11</title>
<g id="a_node11"><a xlink:href="locality_8h.html" target="_top" xlink:title="shad/runtime/locality.h">
<polygon fill="white" stroke="black" points="324.5,-130.5 324.5,-149.5 439.5,-149.5 439.5,-130.5 324.5,-130.5"/>
<text text-anchor="middle" x="382" y="-137.5" font-family="Helvetica,sans-Serif" font-size="10.00">shad/runtime/locality.h</text>
</a>
</g>
</g>
<!-- Node9&#45;&gt;Node11 -->
<g id="edge12" class="edge"><title>Node9&#45;&gt;Node11</title>
<path fill="none" stroke="midnightblue" d="M180.093,-263.148C128.313,-250.369 66.6684,-227.025 96,-192 123.255,-159.455 238.325,-147.659 313.94,-143.396"/>
<polygon fill="midnightblue" stroke="midnightblue" points="314.535,-146.87 324.335,-142.844 314.163,-139.88 314.535,-146.87"/>
</g>
<!-- Node12 -->
<g id="node12" class="node"><title>Node12</title>
<polygon fill="white" stroke="#bfbfbf" points="273,-62.5 273,-81.5 319,-81.5 319,-62.5 273,-62.5"/>
<text text-anchor="middle" x="296" y="-69.5" font-family="Helvetica,sans-Serif" font-size="10.00">cstdint</text>
</g>
<!-- Node11&#45;&gt;Node12 -->
<g id="edge13" class="edge"><title>Node11&#45;&gt;Node12</title>
<path fill="none" stroke="midnightblue" d="M370.757,-130.372C356.722,-119.6 332.488,-101.002 315.424,-87.9065"/>
<polygon fill="midnightblue" stroke="midnightblue" points="317.31,-84.9421 307.246,-81.6305 313.048,-90.4953 317.31,-84.9421"/>
</g>
<!-- Node13 -->
<g id="node13" class="node"><title>Node13</title>
<polygon fill="white" stroke="#bfbfbf" points="693,-0.5 693,-19.5 797,-19.5 797,-0.5 693,-0.5"/>
<text text-anchor="middle" x="745" y="-7.5" font-family="Helvetica,sans-Serif" font-size="10.00">shad/config/config.h</text>
</g>
<!-- Node11&#45;&gt;Node13 -->
<g id="edge14" class="edge"><title>Node11&#45;&gt;Node13</title>
<path fill="none" stroke="midnightblue" d="M401.755,-130.498C438.716,-114.747 521.007,-80.4138 592,-56 629.049,-43.259 671.887,-30.8542 702.794,-22.3068"/>
<polygon fill="midnightblue" stroke="midnightblue" points="704.077,-25.5842 712.793,-19.561 702.223,-18.8341 704.077,-25.5842"/>
</g>
<!-- Node14 -->
<g id="node14" class="node"><title>Node14</title>
<g id="a_node14"><a xlink:href="mapping__traits_8h.html" target="_top" xlink:title="shad/runtime/mapping\l_traits.h">
<polygon fill="white" stroke="black" points="923.5,-57 923.5,-87 1036.5,-87 1036.5,-57 923.5,-57"/>
<text text-anchor="start" x="931.5" y="-75" font-family="Helvetica,sans-Serif" font-size="10.00">shad/runtime/mapping</text>
<text text-anchor="middle" x="980" y="-64" font-family="Helvetica,sans-Serif" font-size="10.00">_traits.h</text>
</a>
</g>
</g>
<!-- Node11&#45;&gt;Node14 -->
<g id="edge15" class="edge"><title>Node11&#45;&gt;Node14</title>
<path fill="none" stroke="midnightblue" d="M416.271,-130.466C426.726,-128.095 438.288,-125.707 449,-124 536.734,-110.021 791.207,-88.3504 913.22,-78.3682"/>
<polygon fill="midnightblue" stroke="midnightblue" points="913.508,-81.8565 923.19,-77.5545 912.938,-74.8797 913.508,-81.8565"/>
</g>
<!-- Node16 -->
<g id="node16" class="node"><title>Node16</title>
<g id="a_node16"><a xlink:href="available__traits__mappings_8h.html" target="_top" xlink:title="shad/runtime/mappings\l/available_traits_mappings.h">
<polygon fill="white" stroke="black" points="634,-57 634,-87 774,-87 774,-57 634,-57"/>
<text text-anchor="start" x="642" y="-75" font-family="Helvetica,sans-Serif" font-size="10.00">shad/runtime/mappings</text>
<text text-anchor="middle" x="704" y="-64" font-family="Helvetica,sans-Serif" font-size="10.00">/available_traits_mappings.h</text>
</a>
</g>
</g>
<!-- Node11&#45;&gt;Node16 -->
<g id="edge18" class="edge"><title>Node11&#45;&gt;Node16</title>
<path fill="none" stroke="midnightblue" d="M419.529,-130.439C429.127,-128.293 439.438,-126.026 449,-124 507.486,-111.606 573.697,-98.3881 623.991,-88.5148"/>
<polygon fill="midnightblue" stroke="midnightblue" points="624.69,-91.9444 633.83,-86.586 623.344,-85.0751 624.69,-91.9444"/>
</g>
<!-- Node14&#45;&gt;Node13 -->
<g id="edge17" class="edge"><title>Node14&#45;&gt;Node13</title>
<path fill="none" stroke="midnightblue" d="M924.903,-56.9327C883.184,-46.2811 826.68,-31.8545 788.202,-22.0302"/>
<polygon fill="midnightblue" stroke="midnightblue" points="788.896,-18.5954 778.341,-19.5127 787.165,-25.3778 788.896,-18.5954"/>
</g>
<!-- Node15 -->
<g id="node15" class="node"><title>Node15</title>
<polygon fill="white" stroke="#bfbfbf" points="959.5,-0.5 959.5,-19.5 1000.5,-19.5 1000.5,-0.5 959.5,-0.5"/>
<text text-anchor="middle" x="980" y="-7.5" font-family="Helvetica,sans-Serif" font-size="10.00">string</text>
</g>
<!-- Node14&#45;&gt;Node15 -->
<g id="edge16" class="edge"><title>Node14&#45;&gt;Node15</title>
<path fill="none" stroke="midnightblue" d="M980,-56.7808C980,-48.7812 980,-38.6887 980,-30.0168"/>
<polygon fill="midnightblue" stroke="midnightblue" points="983.5,-29.7305 980,-19.7305 976.5,-29.7306 983.5,-29.7305"/>
</g>
<!-- Node17&#45;&gt;Node3 -->
<g id="edge22" class="edge"><title>Node17&#45;&gt;Node3</title>
<path fill="none" stroke="midnightblue" d="M604.8,-274.038C512.124,-271.374 325.869,-261.383 173,-224 169.762,-223.208 166.432,-222.201 163.153,-221.085"/>
<polygon fill="midnightblue" stroke="midnightblue" points="164.204,-217.742 153.612,-217.515 161.751,-224.298 164.204,-217.742"/>
</g>
<!-- Node17&#45;&gt;Node4 -->
<g id="edge24" class="edge"><title>Node17&#45;&gt;Node4</title>
<path fill="none" stroke="midnightblue" d="M604.934,-269.776C506.476,-260.611 310.944,-240.99 244,-224 240.936,-223.223 237.788,-222.261 234.677,-221.204"/>
<polygon fill="midnightblue" stroke="midnightblue" points="235.61,-217.816 225.017,-217.604 233.166,-224.376 235.61,-217.816"/>
</g>
<!-- Node17&#45;&gt;Node7 -->
<g id="edge30" class="edge"><title>Node17&#45;&gt;Node7</title>
<path fill="none" stroke="midnightblue" d="M721.26,-271.47C832.952,-264.285 1073.2,-246.703 1153,-224 1155.2,-223.375 1157.43,-222.603 1159.63,-221.741"/>
<polygon fill="midnightblue" stroke="midnightblue" points="1161.26,-224.847 1168.96,-217.57 1158.41,-218.456 1161.26,-224.847"/>
</g>
<!-- Node17&#45;&gt;Node11 -->
<g id="edge37" class="edge"><title>Node17&#45;&gt;Node11</title>
<path fill="none" stroke="midnightblue" d="M604.852,-270.59C510.749,-262.856 333.665,-245.599 315,-224 294.44,-200.207 330.632,-171.461 357.336,-154.8"/>
<polygon fill="midnightblue" stroke="midnightblue" points="359.161,-157.787 365.932,-149.638 355.557,-151.786 359.161,-157.787"/>
</g>
<!-- Node17&#45;&gt;Node12 -->
<g id="edge21" class="edge"><title>Node17&#45;&gt;Node12</title>
<path fill="none" stroke="midnightblue" d="M604.971,-270.618C508.938,-262.802 325.454,-245.267 305,-224 270.639,-188.275 282.054,-123.146 290.423,-91.392"/>
<polygon fill="midnightblue" stroke="midnightblue" points="293.823,-92.2299 293.176,-81.6549 287.087,-90.3253 293.823,-92.2299"/>
</g>
<!-- Node17&#45;&gt;Node13 -->
<g id="edge31" class="edge"><title>Node17&#45;&gt;Node13</title>
<path fill="none" stroke="midnightblue" d="M657.302,-266.093C637.771,-234.327 577.303,-124.826 625,-56 638.358,-36.7242 661.059,-25.6927 683.144,-19.3845"/>
<polygon fill="midnightblue" stroke="midnightblue" points="684.063,-22.7622 692.877,-16.8828 682.32,-15.9826 684.063,-22.7622"/>
</g>
<!-- Node17&#45;&gt;Node14 -->
<g id="edge38" class="edge"><title>Node17&#45;&gt;Node14</title>
<path fill="none" stroke="midnightblue" d="M721.112,-269.479C827.8,-259.066 1045.06,-236.453 1056,-224 1091.06,-184.096 1038.56,-125.14 1004.78,-94.0169"/>
<polygon fill="midnightblue" stroke="midnightblue" points="1006.85,-91.1718 997.073,-87.0924 1002.17,-96.379 1006.85,-91.1718"/>
</g>
<!-- Node18 -->
<g id="node18" class="node"><title>Node18</title>
<polygon fill="white" stroke="#bfbfbf" points="528.5,-130.5 528.5,-149.5 577.5,-149.5 577.5,-130.5 528.5,-130.5"/>
<text text-anchor="middle" x="553" y="-137.5" font-family="Helvetica,sans-Serif" font-size="10.00">cstddef</text>
</g>
<!-- Node17&#45;&gt;Node18 -->
<g id="edge20" class="edge"><title>Node17&#45;&gt;Node18</title>
<path fill="none" stroke="midnightblue" d="M642.875,-266.492C625.146,-258.065 599.759,-243.588 584,-224 568.669,-204.944 560.424,-177.541 556.376,-159.511"/>
<polygon fill="midnightblue" stroke="midnightblue" points="559.794,-158.757 554.373,-149.654 552.935,-160.151 559.794,-158.757"/>
</g>
<!-- Node19 -->
<g id="node19" class="node"><title>Node19</title>
<polygon fill="white" stroke="#bfbfbf" points="664,-198.5 664,-217.5 718,-217.5 718,-198.5 664,-198.5"/>
<text text-anchor="middle" x="691" y="-205.5" font-family="Helvetica,sans-Serif" font-size="10.00">iostream</text>
</g>
<!-- Node17&#45;&gt;Node19 -->
<g id="edge23" class="edge"><title>Node17&#45;&gt;Node19</title>
<path fill="none" stroke="midnightblue" d="M666.661,-266.372C670.871,-256.446 677.902,-239.874 683.327,-227.086"/>
<polygon fill="midnightblue" stroke="midnightblue" points="686.566,-228.414 687.249,-217.841 680.122,-225.68 686.566,-228.414"/>
</g>
<!-- Node20 -->
<g id="node20" class="node"><title>Node20</title>
<polygon fill="white" stroke="#bfbfbf" points="736.5,-198.5 736.5,-217.5 771.5,-217.5 771.5,-198.5 736.5,-198.5"/>
<text text-anchor="middle" x="754" y="-205.5" font-family="Helvetica,sans-Serif" font-size="10.00">map</text>
</g>
<!-- Node17&#45;&gt;Node20 -->
<g id="edge25" class="edge"><title>Node17&#45;&gt;Node20</title>
<path fill="none" stroke="midnightblue" d="M674.897,-266.372C689.884,-255.502 715.862,-236.66 733.942,-223.547"/>
<polygon fill="midnightblue" stroke="midnightblue" points="736.06,-226.335 742.1,-217.63 731.95,-220.668 736.06,-226.335"/>
</g>
<!-- Node21 -->
<g id="node21" class="node"><title>Node21</title>
<polygon fill="white" stroke="#bfbfbf" points="458,-130.5 458,-149.5 510,-149.5 510,-130.5 458,-130.5"/>
<text text-anchor="middle" x="484" y="-137.5" font-family="Helvetica,sans-Serif" font-size="10.00">memory</text>
</g>
<!-- Node17&#45;&gt;Node21 -->
<g id="edge26" class="edge"><title>Node17&#45;&gt;Node21</title>
<path fill="none" stroke="midnightblue" d="M641.108,-266.394C619.99,-257.522 587.682,-242.41 563,-224 536.689,-204.375 511.476,-175.568 496.876,-157.568"/>
<polygon fill="midnightblue" stroke="midnightblue" points="499.569,-155.331 490.603,-149.687 494.092,-159.691 499.569,-155.331"/>
</g>
<!-- Node22 -->
<g id="node22" class="node"><title>Node22</title>
<polygon fill="white" stroke="#bfbfbf" points="790,-198.5 790,-217.5 820,-217.5 820,-198.5 790,-198.5"/>
<text text-anchor="middle" x="805" y="-205.5" font-family="Helvetica,sans-Serif" font-size="10.00">set</text>
</g>
<!-- Node17&#45;&gt;Node22 -->
<g id="edge27" class="edge"><title>Node17&#45;&gt;Node22</title>
<path fill="none" stroke="midnightblue" d="M684.955,-266.423C708.764,-256.893 747.696,-240.644 780,-224 780.827,-223.574 781.664,-223.132 782.505,-222.678"/>
<polygon fill="midnightblue" stroke="midnightblue" points="784.483,-225.579 791.427,-217.578 781.008,-219.502 784.483,-225.579"/>
</g>
<!-- Node23 -->
<g id="node23" class="node"><title>Node23</title>
<polygon fill="white" stroke="#bfbfbf" points="838,-198.5 838,-217.5 916,-217.5 916,-198.5 838,-198.5"/>
<text text-anchor="middle" x="877" y="-205.5" font-family="Helvetica,sans-Serif" font-size="10.00">unordered_set</text>
</g>
<!-- Node17&#45;&gt;Node23 -->
<g id="edge28" class="edge"><title>Node17&#45;&gt;Node23</title>
<path fill="none" stroke="midnightblue" d="M690.977,-266.372C729.051,-254.629 797.285,-233.585 839.685,-220.508"/>
<polygon fill="midnightblue" stroke="midnightblue" points="840.831,-223.818 849.355,-217.526 838.768,-217.129 840.831,-223.818"/>
</g>
<!-- Node24 -->
<g id="node24" class="node"><title>Node24</title>
<polygon fill="white" stroke="#bfbfbf" points="1104,-198.5 1104,-217.5 1144,-217.5 1144,-198.5 1104,-198.5"/>
<text text-anchor="middle" x="1124" y="-205.5" font-family="Helvetica,sans-Serif" font-size="10.00">utility</text>
</g>
<!-- Node17&#45;&gt;Node24 -->
<g id="edge29" class="edge"><title>Node17&#45;&gt;Node24</title>
<path fill="none" stroke="midnightblue" d="M721.054,-270.21C821.11,-261.598 1021.86,-242.652 1090,-224 1092.5,-223.314 1095.06,-222.474 1097.59,-221.543"/>
<polygon fill="midnightblue" stroke="midnightblue" points="1099.15,-224.689 1107.07,-217.651 1096.49,-218.215 1099.15,-224.689"/>
</g>
<!-- Node25 -->
<g id="node25" class="node"><title>Node25</title>
<g id="a_node25"><a xlink:href="handle_8h.html" target="_top" xlink:title="shad/runtime/handle.h">
<polygon fill="white" stroke="black" points="934.5,-198.5 934.5,-217.5 1047.5,-217.5 1047.5,-198.5 934.5,-198.5"/>
<text text-anchor="middle" x="991" y="-205.5" font-family="Helvetica,sans-Serif" font-size="10.00">shad/runtime/handle.h</text>
</a>
</g>
</g>
<!-- Node17&#45;&gt;Node25 -->
<g id="edge32" class="edge"><title>Node17&#45;&gt;Node25</title>
<path fill="none" stroke="midnightblue" d="M708.996,-266.496C761.384,-256.707 849.505,-239.923 925,-224 931.263,-222.679 937.848,-221.241 944.336,-219.796"/>
<polygon fill="midnightblue" stroke="midnightblue" points="945.401,-223.144 954.389,-217.535 943.865,-216.315 945.401,-223.144"/>
</g>
<!-- Node26 -->
<g id="node26" class="node"><title>Node26</title>
<g id="a_node26"><a xlink:href="available__mappings_8h.html" target="_top" xlink:title="shad/runtime/mappings\l/available_mappings.h">
<polygon fill="white" stroke="black" points="639,-125 639,-155 757,-155 757,-125 639,-125"/>
<text text-anchor="start" x="647" y="-143" font-family="Helvetica,sans-Serif" font-size="10.00">shad/runtime/mappings</text>
<text text-anchor="middle" x="698" y="-132" font-family="Helvetica,sans-Serif" font-size="10.00">/available_mappings.h</text>
</a>
</g>
</g>
<!-- Node17&#45;&gt;Node26 -->
<g id="edge39" class="edge"><title>Node17&#45;&gt;Node26</title>
<path fill="none" stroke="midnightblue" d="M659.797,-266.446C654.54,-251.041 645.562,-217.835 655,-192 658.975,-181.118 666.409,-170.954 673.992,-162.607"/>
<polygon fill="midnightblue" stroke="midnightblue" points="676.735,-164.807 681.2,-155.198 671.718,-159.926 676.735,-164.807"/>
</g>
<!-- Node27 -->
<g id="node27" class="node"><title>Node27</title>
<g id="a_node27"><a xlink:href="synchronous__interface_8h.html" target="_top" xlink:title="shad/runtime/synchronous\l_interface.h">
<polygon fill="white" stroke="black" points="324.5,-193 324.5,-223 455.5,-223 455.5,-193 324.5,-193"/>
<text text-anchor="start" x="332.5" y="-211" font-family="Helvetica,sans-Serif" font-size="10.00">shad/runtime/synchronous</text>
<text text-anchor="middle" x="390" y="-200" font-family="Helvetica,sans-Serif" font-size="10.00">_interface.h</text>
</a>
</g>
</g>
<!-- Node17&#45;&gt;Node27 -->
<g id="edge41" class="edge"><title>Node17&#45;&gt;Node27</title>
<path fill="none" stroke="midnightblue" d="M627.59,-266.439C584.739,-256.08 511.65,-238.41 457.826,-225.397"/>
<polygon fill="midnightblue" stroke="midnightblue" points="458.554,-221.973 448.011,-223.025 456.909,-228.777 458.554,-221.973"/>
</g>
<!-- Node25&#45;&gt;Node6 -->
<g id="edge33" class="edge"><title>Node25&#45;&gt;Node6</title>
<path fill="none" stroke="midnightblue" d="M1024.98,-198.439C1073.01,-186.341 1160.62,-164.271 1212.13,-151.294"/>
<polygon fill="midnightblue" stroke="midnightblue" points="1213.09,-154.663 1221.93,-148.826 1211.38,-147.875 1213.09,-154.663"/>
</g>
<!-- Node25&#45;&gt;Node13 -->
<g id="edge34" class="edge"><title>Node25&#45;&gt;Node13</title>
<path fill="none" stroke="midnightblue" d="M980.112,-198.325C941.692,-167.714 812.161,-64.5103 763.597,-25.8169"/>
<polygon fill="midnightblue" stroke="midnightblue" points="765.764,-23.0687 755.762,-19.5746 761.402,-28.5434 765.764,-23.0687"/>
</g>
<!-- Node25&#45;&gt;Node14 -->
<g id="edge35" class="edge"><title>Node25&#45;&gt;Node14</title>
<path fill="none" stroke="midnightblue" d="M990.278,-198.208C988.618,-177.984 984.48,-127.575 981.99,-97.2443"/>
<polygon fill="midnightblue" stroke="midnightblue" points="985.462,-96.7514 981.155,-87.0713 978.485,-97.3242 985.462,-96.7514"/>
</g>
<!-- Node25&#45;&gt;Node16 -->
<g id="edge36" class="edge"><title>Node25&#45;&gt;Node16</title>
<path fill="none" stroke="midnightblue" d="M969.589,-198.35C945.455,-188.496 905.132,-171.718 871,-156 825.303,-134.956 773.552,-108.878 739.933,-91.6315"/>
<polygon fill="midnightblue" stroke="midnightblue" points="741.445,-88.4736 730.951,-87.0127 738.244,-94.6986 741.445,-88.4736"/>
</g>
<!-- Node26&#45;&gt;Node16 -->
<g id="edge40" class="edge"><title>Node26&#45;&gt;Node16</title>
<path fill="none" stroke="midnightblue" d="M699.302,-124.679C700.025,-116.722 700.945,-106.605 701.779,-97.4356"/>
<polygon fill="midnightblue" stroke="midnightblue" points="705.281,-97.5689 702.701,-87.2931 698.31,-96.9351 705.281,-97.5689"/>
</g>
<!-- Node27&#45;&gt;Node11 -->
<g id="edge45" class="edge"><title>Node27&#45;&gt;Node11</title>
<path fill="none" stroke="midnightblue" d="M388.264,-192.679C387.103,-183.101 385.563,-170.394 384.3,-159.977"/>
<polygon fill="midnightblue" stroke="midnightblue" points="387.748,-159.334 383.07,-149.828 380.799,-160.177 387.748,-159.334"/>
</g>
<!-- Node27&#45;&gt;Node12 -->
<g id="edge43" class="edge"><title>Node27&#45;&gt;Node12</title>
<path fill="none" stroke="midnightblue" d="M359.15,-192.956C343.666,-184.39 325.925,-171.992 315,-156 301.804,-136.684 297.662,-109.532 296.423,-91.6137"/>
<polygon fill="midnightblue" stroke="midnightblue" points="299.917,-91.4053 295.967,-81.5746 292.925,-91.7232 299.917,-91.4053"/>
</g>
<!-- Node27&#45;&gt;Node18 -->
<g id="edge42" class="edge"><title>Node27&#45;&gt;Node18</title>
<path fill="none" stroke="midnightblue" d="M426.574,-192.978C452.484,-182.938 488.005,-168.958 519,-156 520.83,-155.235 522.712,-154.437 524.605,-153.625"/>
<polygon fill="midnightblue" stroke="midnightblue" points="526.221,-156.739 533.995,-149.541 523.429,-150.32 526.221,-156.739"/>
</g>
<!-- Node27&#45;&gt;Node21 -->
<g id="edge44" class="edge"><title>Node27&#45;&gt;Node21</title>
<path fill="none" stroke="midnightblue" d="M410.397,-192.679C426.014,-181.713 447.475,-166.645 463.194,-155.609"/>
<polygon fill="midnightblue" stroke="midnightblue" points="465.525,-158.249 471.698,-149.638 461.502,-152.52 465.525,-158.249"/>
</g>
<!-- Node28&#45;&gt;Node4 -->
<g id="edge48" class="edge"><title>Node28&#45;&gt;Node4</title>
<path fill="none" stroke="midnightblue" d="M691.194,-330.164C645.761,-322.381 571.194,-308.575 508,-292 463.68,-280.376 454.224,-271.982 410,-260 337.134,-240.258 316.237,-245.931 244,-224 241.2,-223.15 238.317,-222.185 235.448,-221.163"/>
<polygon fill="midnightblue" stroke="midnightblue" points="236.492,-217.816 225.9,-217.559 234.02,-224.365 236.492,-217.816"/>
</g>
<!-- Node28&#45;&gt;Node5 -->
<g id="edge49" class="edge"><title>Node28&#45;&gt;Node5</title>
<path fill="none" stroke="midnightblue" d="M774.578,-335.131C837.479,-331.448 960.089,-320.913 1060,-292 1062.35,-291.321 1064.74,-290.503 1067.11,-289.604"/>
<polygon fill="midnightblue" stroke="midnightblue" points="1068.73,-292.721 1076.57,-285.599 1066,-286.275 1068.73,-292.721"/>
</g>
<!-- Node28&#45;&gt;Node6 -->
<g id="edge50" class="edge"><title>Node28&#45;&gt;Node6</title>
<path fill="none" stroke="midnightblue" d="M774.891,-333.073C827.087,-327.435 918.597,-315.084 994,-292 1027.1,-281.868 1032.26,-271.224 1065,-260 1129.45,-237.907 1161.21,-267.066 1214,-224 1234.11,-207.594 1244.42,-178.429 1249.26,-159.405"/>
<polygon fill="midnightblue" stroke="midnightblue" points="1252.7,-160.077 1251.51,-149.549 1245.87,-158.52 1252.7,-160.077"/>
</g>
<!-- Node28&#45;&gt;Node7 -->
<g id="edge52" class="edge"><title>Node28&#45;&gt;Node7</title>
<path fill="none" stroke="midnightblue" d="M773.325,-328.483C812.703,-319.969 874.234,-306.143 927,-292 974.122,-279.37 985.286,-274.067 1032,-260 1085.72,-243.822 1100.69,-244.285 1153,-224 1154.65,-223.361 1156.33,-222.67 1158.01,-221.946"/>
<polygon fill="midnightblue" stroke="midnightblue" points="1159.86,-224.951 1167.49,-217.6 1156.94,-218.588 1159.86,-224.951"/>
</g>
<!-- Node28&#45;&gt;Node9 -->
<g id="edge53" class="edge"><title>Node28&#45;&gt;Node9</title>
<path fill="none" stroke="midnightblue" d="M691.476,-331.936C607.4,-321.683 416.184,-298.364 311.955,-285.653"/>
<polygon fill="midnightblue" stroke="midnightblue" points="312.189,-282.156 301.839,-284.419 311.341,-289.104 312.189,-282.156"/>
</g>
<!-- Node28&#45;&gt;Node17 -->
<g id="edge54" class="edge"><title>Node28&#45;&gt;Node17</title>
<path fill="none" stroke="midnightblue" d="M722.971,-328.403C711.951,-318.958 694.04,-303.606 680.657,-292.134"/>
<polygon fill="midnightblue" stroke="midnightblue" points="682.881,-289.431 673.011,-285.581 678.325,-294.746 682.881,-289.431"/>
</g>
<!-- Node28&#45;&gt;Node18 -->
<g id="edge47" class="edge"><title>Node28&#45;&gt;Node18</title>
<path fill="none" stroke="midnightblue" d="M691.305,-332.035C661.717,-326.599 622.675,-315.31 596,-292 557.429,-258.295 552.315,-192.706 552.322,-160.205"/>
<polygon fill="midnightblue" stroke="midnightblue" points="555.828,-159.909 552.504,-149.849 548.829,-159.786 555.828,-159.909"/>
</g>
<!-- Node28&#45;&gt;Node24 -->
<g id="edge51" class="edge"><title>Node28&#45;&gt;Node24</title>
<path fill="none" stroke="midnightblue" d="M756.6,-328.435C797.546,-313.693 884.513,-282.901 959,-260 1016.71,-242.255 1033.11,-244.241 1090,-224 1092.12,-223.244 1094.3,-222.416 1096.48,-221.548"/>
<polygon fill="midnightblue" stroke="midnightblue" points="1097.99,-224.707 1105.85,-217.598 1095.27,-218.257 1097.99,-224.707"/>
</g>
</g>
</svg>
