<?xml version="1.0" encoding="UTF-8" standalone="no"?>
<!DOCTYPE svg PUBLIC "-//W3C//DTD SVG 1.1//EN"
 "http://www.w3.org/Graphics/SVG/1.1/DTD/svg11.dtd">
<!-- Generated by graphviz version 2.36.0 (20140111.2315)
 -->
<!-- Title: include/shad/core/impl/modifyng_sequence_ops.h Pages: 1 -->
<svg width="1328pt" height="492pt"
 viewBox="0.00 0.00 1327.70 492.00" xmlns="http://www.w3.org/2000/svg" xmlns:xlink="http://www.w3.org/1999/xlink">
<g id="graph0" class="graph" transform="scale(1 1) rotate(0) translate(4 488)">
<title>include/shad/core/impl/modifyng_sequence_ops.h</title>
<polygon fill="white" stroke="none" points="-4,4 -4,-488 1323.7,-488 1323.7,4 -4,4"/>
<!-- Node1 -->
<g id="node1" class="node"><title>Node1</title>
<polygon fill="#bfbfbf" stroke="black" points="763,-453 763,-483 899,-483 899,-453 763,-453"/>
<text text-anchor="start" x="771" y="-471" font-family="Helvetica,sans-Serif" font-size="10.00">include/shad/core/impl</text>
<text text-anchor="middle" x="831" y="-460" font-family="Helvetica,sans-Serif" font-size="10.00">/modifyng_sequence_ops.h</text>
</g>
<!-- Node2 -->
<g id="node2" class="node"><title>Node2</title>
<polygon fill="white" stroke="#bfbfbf" points="57,-334.5 57,-353.5 113,-353.5 113,-334.5 57,-334.5"/>
<text text-anchor="middle" x="85" y="-341.5" font-family="Helvetica,sans-Serif" font-size="10.00">algorithm</text>
</g>
<!-- Node1&#45;&gt;Node2 -->
<g id="edge1" class="edge"><title>Node1&#45;&gt;Node2</title>
<path fill="none" stroke="midnightblue" d="M762.671,-461.018C635.887,-448.952 356.263,-417.791 127,-360 123.41,-359.095 119.696,-358.005 116.03,-356.83"/>
<polygon fill="midnightblue" stroke="midnightblue" points="117.148,-353.514 106.553,-353.593 114.885,-360.138 117.148,-353.514"/>
</g>
<!-- Node3 -->
<g id="node3" class="node"><title>Node3</title>
<polygon fill="white" stroke="#bfbfbf" points="1267,-396.5 1267,-415.5 1313,-415.5 1313,-396.5 1267,-396.5"/>
<text text-anchor="middle" x="1290" y="-403.5" font-family="Helvetica,sans-Serif" font-size="10.00">cstring</text>
</g>
<!-- Node1&#45;&gt;Node3 -->
<g id="edge2" class="edge"><title>Node1&#45;&gt;Node3</title>
<path fill="none" stroke="midnightblue" d="M899.359,-461.934C981.845,-455.124 1124.79,-441.1 1256.78,-415.745"/>
<polygon fill="midnightblue" stroke="midnightblue" points="1257.52,-419.167 1266.66,-413.82 1256.18,-412.296 1257.52,-419.167"/>
</g>
<!-- Node4 -->
<g id="node4" class="node"><title>Node4</title>
<polygon fill="white" stroke="#bfbfbf" points="-0.5,-198.5 -0.5,-217.5 58.5,-217.5 58.5,-198.5 -0.5,-198.5"/>
<text text-anchor="middle" x="29" y="-205.5" font-family="Helvetica,sans-Serif" font-size="10.00">functional</text>
</g>
<!-- Node1&#45;&gt;Node4 -->
<g id="edge3" class="edge"><title>Node1&#45;&gt;Node4</title>
<path fill="none" stroke="midnightblue" d="M762.814,-462.633C581.119,-450.321 95.836,-412.758 48,-360 14.6481,-323.216 20.0231,-259.069 25.2405,-227.552"/>
<polygon fill="midnightblue" stroke="midnightblue" points="28.7174,-227.997 27.0835,-217.528 21.8328,-226.731 28.7174,-227.997"/>
</g>
<!-- Node5 -->
<g id="node5" class="node"><title>Node5</title>
<polygon fill="white" stroke="#bfbfbf" points="899.5,-198.5 899.5,-217.5 946.5,-217.5 946.5,-198.5 899.5,-198.5"/>
<text text-anchor="middle" x="923" y="-205.5" font-family="Helvetica,sans-Serif" font-size="10.00">iterator</text>
</g>
<!-- Node1&#45;&gt;Node5 -->
<g id="edge4" class="edge"><title>Node1&#45;&gt;Node5</title>
<path fill="none" stroke="midnightblue" d="M828.497,-452.986C822.96,-417.768 812.929,-323.815 850,-260 859.711,-243.283 877.352,-230.729 892.86,-222.26"/>
<polygon fill="midnightblue" stroke="midnightblue" points="894.837,-225.18 902.15,-217.513 891.653,-218.946 894.837,-225.18"/>
</g>
<!-- Node6 -->
<g id="node6" class="node"><title>Node6</title>
<polygon fill="white" stroke="#bfbfbf" points="1267,-266.5 1267,-285.5 1305,-285.5 1305,-266.5 1267,-266.5"/>
<text text-anchor="middle" x="1286" y="-273.5" font-family="Helvetica,sans-Serif" font-size="10.00">tuple</text>
</g>
<!-- Node1&#45;&gt;Node6 -->
<g id="edge5" class="edge"><title>Node1&#45;&gt;Node6</title>
<path fill="none" stroke="midnightblue" d="M866.09,-452.962C891.4,-442.797 926.361,-428.672 957,-416 1068.35,-369.946 1200.23,-313.713 1257.31,-289.294"/>
<polygon fill="midnightblue" stroke="midnightblue" points="1258.94,-292.402 1266.76,-285.249 1256.19,-285.966 1258.94,-292.402"/>
</g>
<!-- Node7 -->
<g id="node7" class="node"><title>Node7</title>
<g id="a_node7"><a xlink:href="execution_8h.html" target="_top" xlink:title="shad/core/execution.h">
<polygon fill="white" stroke="black" points="1135.5,-396.5 1135.5,-415.5 1248.5,-415.5 1248.5,-396.5 1135.5,-396.5"/>
<text text-anchor="middle" x="1192" y="-403.5" font-family="Helvetica,sans-Serif" font-size="10.00">shad/core/execution.h</text>
</a>
</g>
</g>
<!-- Node1&#45;&gt;Node7 -->
<g id="edge6" class="edge"><title>Node1&#45;&gt;Node7</title>
<path fill="none" stroke="midnightblue" d="M899.326,-455.644C966.072,-444.55 1066.72,-427.822 1130.88,-417.158"/>
<polygon fill="midnightblue" stroke="midnightblue" points="1131.57,-420.592 1140.86,-415.5 1130.42,-413.687 1131.57,-420.592"/>
</g>
<!-- Node9 -->
<g id="node9" class="node"><title>Node9</title>
<g id="a_node9"><a xlink:href="impl__patterns_8h.html" target="_top" xlink:title="shad/core/impl/impl\l_patterns.h">
<polygon fill="white" stroke="black" points="977.5,-329 977.5,-359 1078.5,-359 1078.5,-329 977.5,-329"/>
<text text-anchor="start" x="985.5" y="-347" font-family="Helvetica,sans-Serif" font-size="10.00">shad/core/impl/impl</text>
<text text-anchor="middle" x="1028" y="-336" font-family="Helvetica,sans-Serif" font-size="10.00">_patterns.h</text>
</a>
</g>
</g>
<!-- Node1&#45;&gt;Node9 -->
<g id="edge8" class="edge"><title>Node1&#45;&gt;Node9</title>
<path fill="none" stroke="midnightblue" d="M860.424,-452.813C879.953,-443.088 905.95,-429.541 928,-416 953.762,-400.179 981.709,-380.067 1001.49,-365.29"/>
<polygon fill="midnightblue" stroke="midnightblue" points="1003.82,-367.92 1009.71,-359.112 999.61,-362.326 1003.82,-367.92"/>
</g>
<!-- Node13 -->
<g id="node13" class="node"><title>Node13</title>
<g id="a_node13"><a xlink:href="distributed__iterator__traits_8h.html" target="_top" xlink:title="shad/distributed_iterator\l_traits.h">
<polygon fill="white" stroke="black" points="859.5,-261 859.5,-291 980.5,-291 980.5,-261 859.5,-261"/>
<text text-anchor="start" x="867.5" y="-279" font-family="Helvetica,sans-Serif" font-size="10.00">shad/distributed_iterator</text>
<text text-anchor="middle" x="920" y="-268" font-family="Helvetica,sans-Serif" font-size="10.00">_traits.h</text>
</a>
</g>
</g>
<!-- Node1&#45;&gt;Node13 -->
<g id="edge64" class="edge"><title>Node1&#45;&gt;Node13</title>
<path fill="none" stroke="midnightblue" d="M837.689,-452.719C852.932,-420.179 890.363,-340.27 909.036,-300.406"/>
<polygon fill="midnightblue" stroke="midnightblue" points="912.282,-301.728 913.354,-291.187 905.943,-298.758 912.282,-301.728"/>
</g>
<!-- Node22 -->
<g id="node22" class="node"><title>Node22</title>
<g id="a_node22"><a xlink:href="runtime_8h.html" target="_top" xlink:title="shad/runtime/runtime.h">
<polygon fill="white" stroke="black" points="571,-266.5 571,-285.5 687,-285.5 687,-266.5 571,-266.5"/>
<text text-anchor="middle" x="629" y="-273.5" font-family="Helvetica,sans-Serif" font-size="10.00">shad/runtime/runtime.h</text>
</a>
</g>
</g>
<!-- Node1&#45;&gt;Node22 -->
<g id="edge65" class="edge"><title>Node1&#45;&gt;Node22</title>
<path fill="none" stroke="midnightblue" d="M820.869,-452.619C801.442,-425.755 756.635,-367.134 709,-328 691.659,-313.753 670.114,-300.224 653.752,-290.685"/>
<polygon fill="midnightblue" stroke="midnightblue" points="655.207,-287.485 644.789,-285.554 651.729,-293.56 655.207,-287.485"/>
</g>
<!-- Node30 -->
<g id="node30" class="node"><title>Node30</title>
<g id="a_node30"><a xlink:href="utils_8h.html" target="_top" xlink:title="shad/core/impl/utils.h">
<polygon fill="white" stroke="black" points="655,-396.5 655,-415.5 765,-415.5 765,-396.5 655,-396.5"/>
<text text-anchor="middle" x="710" y="-403.5" font-family="Helvetica,sans-Serif" font-size="10.00">shad/core/impl/utils.h</text>
</a>
</g>
</g>
<!-- Node1&#45;&gt;Node30 -->
<g id="edge53" class="edge"><title>Node1&#45;&gt;Node30</title>
<path fill="none" stroke="midnightblue" d="M802.631,-452.933C782.581,-442.991 755.899,-429.76 736.323,-420.053"/>
<polygon fill="midnightblue" stroke="midnightblue" points="737.857,-416.907 727.343,-415.6 734.748,-423.178 737.857,-416.907"/>
</g>
<!-- Node31 -->
<g id="node31" class="node"><title>Node31</title>
<g id="a_node31"><a xlink:href="iterator_8h.html" target="_top" xlink:title="shad/core/iterator.h">
<polygon fill="white" stroke="black" points="578.5,-334.5 578.5,-353.5 679.5,-353.5 679.5,-334.5 578.5,-334.5"/>
<text text-anchor="middle" x="629" y="-341.5" font-family="Helvetica,sans-Serif" font-size="10.00">shad/core/iterator.h</text>
</a>
</g>
</g>
<!-- Node1&#45;&gt;Node31 -->
<g id="edge63" class="edge"><title>Node1&#45;&gt;Node31</title>
<path fill="none" stroke="midnightblue" d="M762.995,-464.786C723.701,-459.904 676.217,-447.261 646,-416 632.674,-402.213 629.161,-379.927 628.517,-364.001"/>
<polygon fill="midnightblue" stroke="midnightblue" points="632.015,-363.72 628.456,-353.741 625.016,-363.761 632.015,-363.72"/>
</g>
<!-- Node8 -->
<g id="node8" class="node"><title>Node8</title>
<polygon fill="white" stroke="#bfbfbf" points="1208,-130.5 1208,-149.5 1270,-149.5 1270,-130.5 1208,-130.5"/>
<text text-anchor="middle" x="1239" y="-137.5" font-family="Helvetica,sans-Serif" font-size="10.00">type_traits</text>
</g>
<!-- Node7&#45;&gt;Node8 -->
<g id="edge7" class="edge"><title>Node7&#45;&gt;Node8</title>
<path fill="none" stroke="midnightblue" d="M1207.77,-396.364C1235.48,-380.164 1292.04,-342.267 1314,-292 1336.06,-241.492 1285.09,-183.592 1256.59,-156.5"/>
<polygon fill="midnightblue" stroke="midnightblue" points="1258.95,-153.915 1249.23,-149.707 1254.21,-159.06 1258.95,-153.915"/>
</g>
<!-- Node9&#45;&gt;Node5 -->
<g id="edge10" class="edge"><title>Node9&#45;&gt;Node5</title>
<path fill="none" stroke="midnightblue" d="M1023.69,-328.955C1017.85,-311.485 1006.14,-281.361 989,-260 977.107,-245.175 960.061,-232.146 946.271,-222.968"/>
<polygon fill="midnightblue" stroke="midnightblue" points="948.073,-219.966 937.767,-217.512 944.294,-225.858 948.073,-219.966"/>
</g>
<!-- Node9&#45;&gt;Node6 -->
<g id="edge11" class="edge"><title>Node9&#45;&gt;Node6</title>
<path fill="none" stroke="midnightblue" d="M1078.74,-331.263C1083.56,-330.157 1088.37,-329.055 1093,-328 1164.07,-311.805 1183.9,-315.203 1253,-292 1255.13,-291.284 1257.31,-290.475 1259.49,-289.614"/>
<polygon fill="midnightblue" stroke="midnightblue" points="1260.99,-292.779 1268.8,-285.623 1258.23,-286.345 1260.99,-292.779"/>
</g>
<!-- Node9&#45;&gt;Node8 -->
<g id="edge12" class="edge"><title>Node9&#45;&gt;Node8</title>
<path fill="none" stroke="midnightblue" d="M1078.87,-330.57C1132.63,-317.219 1210.32,-297.214 1215,-292 1248.15,-255.041 1245.67,-191.487 1241.93,-159.926"/>
<polygon fill="midnightblue" stroke="midnightblue" points="1245.38,-159.291 1240.56,-149.855 1238.44,-160.235 1245.38,-159.291"/>
</g>
<!-- Node10 -->
<g id="node10" class="node"><title>Node10</title>
<polygon fill="white" stroke="#bfbfbf" points="364.5,-130.5 364.5,-149.5 413.5,-149.5 413.5,-130.5 364.5,-130.5"/>
<text text-anchor="middle" x="389" y="-137.5" font-family="Helvetica,sans-Serif" font-size="10.00">cstddef</text>
</g>
<!-- Node9&#45;&gt;Node10 -->
<g id="edge9" class="edge"><title>Node9&#45;&gt;Node10</title>
<path fill="none" stroke="midnightblue" d="M1061.63,-328.925C1120.23,-302.564 1230.31,-243.732 1181,-192 1123.36,-131.53 511.886,-172.541 430,-156 426.1,-155.212 422.075,-154.117 418.14,-152.873"/>
<polygon fill="midnightblue" stroke="midnightblue" points="419.264,-149.558 408.669,-149.566 416.956,-156.167 419.264,-149.558"/>
</g>
<!-- Node11 -->
<g id="node11" class="node"><title>Node11</title>
<polygon fill="white" stroke="#bfbfbf" points="965,-198.5 965,-217.5 1005,-217.5 1005,-198.5 965,-198.5"/>
<text text-anchor="middle" x="985" y="-205.5" font-family="Helvetica,sans-Serif" font-size="10.00">utility</text>
</g>
<!-- Node9&#45;&gt;Node11 -->
<g id="edge13" class="edge"><title>Node9&#45;&gt;Node11</title>
<path fill="none" stroke="midnightblue" d="M1029.54,-328.997C1030.86,-312.089 1031.42,-283.051 1023,-260 1018.3,-247.136 1009.23,-234.766 1001.14,-225.43"/>
<polygon fill="midnightblue" stroke="midnightblue" points="1003.46,-222.788 994.125,-217.783 998.303,-227.519 1003.46,-222.788"/>
</g>
<!-- Node12 -->
<g id="node12" class="node"><title>Node12</title>
<polygon fill="white" stroke="#bfbfbf" points="1023,-198.5 1023,-217.5 1067,-217.5 1067,-198.5 1023,-198.5"/>
<text text-anchor="middle" x="1045" y="-205.5" font-family="Helvetica,sans-Serif" font-size="10.00">vector</text>
</g>
<!-- Node9&#45;&gt;Node12 -->
<g id="edge14" class="edge"><title>Node9&#45;&gt;Node12</title>
<path fill="none" stroke="midnightblue" d="M1040.28,-328.955C1047.88,-319.289 1056.94,-305.755 1061,-292 1067.47,-270.088 1060.15,-244.13 1053.43,-227.152"/>
<polygon fill="midnightblue" stroke="midnightblue" points="1056.6,-225.669 1049.44,-217.857 1050.16,-228.427 1056.6,-225.669"/>
</g>
<!-- Node9&#45;&gt;Node13 -->
<g id="edge15" class="edge"><title>Node9&#45;&gt;Node13</title>
<path fill="none" stroke="midnightblue" d="M1004.83,-328.841C989.456,-319.446 969.066,-306.985 952.13,-296.635"/>
<polygon fill="midnightblue" stroke="midnightblue" points="953.488,-293.363 943.13,-291.135 949.838,-299.336 953.488,-293.363"/>
</g>
<!-- Node9&#45;&gt;Node22 -->
<g id="edge26" class="edge"><title>Node9&#45;&gt;Node22</title>
<path fill="none" stroke="midnightblue" d="M977.466,-334.641C904.516,-322.574 769.826,-300.295 690.973,-287.251"/>
<polygon fill="midnightblue" stroke="midnightblue" points="691.138,-283.731 680.701,-285.552 689.995,-290.637 691.138,-283.731"/>
</g>
<!-- Node13&#45;&gt;Node5 -->
<g id="edge17" class="edge"><title>Node13&#45;&gt;Node5</title>
<path fill="none" stroke="midnightblue" d="M920.651,-260.679C921.086,-251.101 921.664,-238.394 922.137,-227.977"/>
<polygon fill="midnightblue" stroke="midnightblue" points="925.641,-227.977 922.599,-217.828 918.648,-227.659 925.641,-227.977"/>
</g>
<!-- Node14 -->
<g id="node14" class="node"><title>Node14</title>
<polygon fill="white" stroke="#bfbfbf" points="1123.5,-198.5 1123.5,-217.5 1172.5,-217.5 1172.5,-198.5 1123.5,-198.5"/>
<text text-anchor="middle" x="1148" y="-205.5" font-family="Helvetica,sans-Serif" font-size="10.00">cassert</text>
</g>
<!-- Node13&#45;&gt;Node14 -->
<g id="edge16" class="edge"><title>Node13&#45;&gt;Node14</title>
<path fill="none" stroke="midnightblue" d="M978.362,-260.916C1015.95,-251.437 1065.7,-238.125 1109,-224 1111.63,-223.144 1114.33,-222.21 1117.04,-221.242"/>
<polygon fill="midnightblue" stroke="midnightblue" points="1118.53,-224.42 1126.69,-217.655 1116.09,-217.859 1118.53,-224.42"/>
</g>
<!-- Node15 -->
<g id="node15" class="node"><title>Node15</title>
<g id="a_node15"><a xlink:href="locality_8h.html" target="_top" xlink:title="shad/runtime/locality.h">
<polygon fill="white" stroke="black" points="439.5,-130.5 439.5,-149.5 554.5,-149.5 554.5,-130.5 439.5,-130.5"/>
<text text-anchor="middle" x="497" y="-137.5" font-family="Helvetica,sans-Serif" font-size="10.00">shad/runtime/locality.h</text>
</a>
</g>
</g>
<!-- Node13&#45;&gt;Node15 -->
<g id="edge18" class="edge"><title>Node13&#45;&gt;Node15</title>
<path fill="none" stroke="midnightblue" d="M980.681,-264.374C1037.4,-251.946 1108.67,-228.325 1075,-192 1039.17,-153.342 654.395,-161.73 602,-156 588.945,-154.572 575.014,-152.776 561.709,-150.927"/>
<polygon fill="midnightblue" stroke="midnightblue" points="562.073,-147.444 551.682,-149.508 561.093,-154.375 562.073,-147.444"/>
</g>
<!-- Node16 -->
<g id="node16" class="node"><title>Node16</title>
<polygon fill="white" stroke="#bfbfbf" points="172,-62.5 172,-81.5 218,-81.5 218,-62.5 172,-62.5"/>
<text text-anchor="middle" x="195" y="-69.5" font-family="Helvetica,sans-Serif" font-size="10.00">cstdint</text>
</g>
<!-- Node15&#45;&gt;Node16 -->
<g id="edge19" class="edge"><title>Node15&#45;&gt;Node16</title>
<path fill="none" stroke="midnightblue" d="M457.828,-130.439C397.855,-117.332 284.336,-92.5237 228.177,-80.2506"/>
<polygon fill="midnightblue" stroke="midnightblue" points="228.58,-76.7562 218.064,-78.0404 227.086,-83.5948 228.58,-76.7562"/>
</g>
<!-- Node17 -->
<g id="node17" class="node"><title>Node17</title>
<polygon fill="white" stroke="#bfbfbf" points="326,-62.5 326,-81.5 380,-81.5 380,-62.5 326,-62.5"/>
<text text-anchor="middle" x="353" y="-69.5" font-family="Helvetica,sans-Serif" font-size="10.00">iostream</text>
</g>
<!-- Node15&#45;&gt;Node17 -->
<g id="edge20" class="edge"><title>Node15&#45;&gt;Node17</title>
<path fill="none" stroke="midnightblue" d="M478.175,-130.372C453.488,-119.057 409.957,-99.1053 381.293,-85.9678"/>
<polygon fill="midnightblue" stroke="midnightblue" points="382.379,-82.6153 371.83,-81.6305 379.462,-88.9788 382.379,-82.6153"/>
</g>
<!-- Node18 -->
<g id="node18" class="node"><title>Node18</title>
<polygon fill="white" stroke="#bfbfbf" points="629,-0.5 629,-19.5 733,-19.5 733,-0.5 629,-0.5"/>
<text text-anchor="middle" x="681" y="-7.5" font-family="Helvetica,sans-Serif" font-size="10.00">shad/config/config.h</text>
</g>
<!-- Node15&#45;&gt;Node18 -->
<g id="edge21" class="edge"><title>Node15&#45;&gt;Node18</title>
<path fill="none" stroke="midnightblue" d="M502.488,-130.276C513.32,-113.691 539.018,-77.3661 569,-56 590.014,-41.0247 616.727,-30.0441 638.793,-22.6802"/>
<polygon fill="midnightblue" stroke="midnightblue" points="640.111,-25.9332 648.567,-19.5499 637.976,-19.2667 640.111,-25.9332"/>
</g>
<!-- Node19 -->
<g id="node19" class="node"><title>Node19</title>
<g id="a_node19"><a xlink:href="mapping__traits_8h.html" target="_top" xlink:title="shad/runtime/mapping\l_traits.h">
<polygon fill="white" stroke="black" points="814.5,-57 814.5,-87 927.5,-87 927.5,-57 814.5,-57"/>
<text text-anchor="start" x="822.5" y="-75" font-family="Helvetica,sans-Serif" font-size="10.00">shad/runtime/mapping</text>
<text text-anchor="middle" x="871" y="-64" font-family="Helvetica,sans-Serif" font-size="10.00">_traits.h</text>
</a>
</g>
</g>
<!-- Node15&#45;&gt;Node19 -->
<g id="edge22" class="edge"><title>Node15&#45;&gt;Node19</title>
<path fill="none" stroke="midnightblue" d="M545.511,-130.439C611.485,-118.797 729.782,-97.9208 804.136,-84.7996"/>
<polygon fill="midnightblue" stroke="midnightblue" points="805.086,-88.186 814.326,-83.0014 803.87,-81.2925 805.086,-88.186"/>
</g>
<!-- Node21 -->
<g id="node21" class="node"><title>Node21</title>
<g id="a_node21"><a xlink:href="available__traits__mappings_8h.html" target="_top" xlink:title="shad/runtime/mappings\l/available_traits_mappings.h">
<polygon fill="white" stroke="black" points="611,-57 611,-87 751,-87 751,-57 611,-57"/>
<text text-anchor="start" x="619" y="-75" font-family="Helvetica,sans-Serif" font-size="10.00">shad/runtime/mappings</text>
<text text-anchor="middle" x="681" y="-64" font-family="Helvetica,sans-Serif" font-size="10.00">/available_traits_mappings.h</text>
</a>
</g>
</g>
<!-- Node15&#45;&gt;Node21 -->
<g id="edge25" class="edge"><title>Node15&#45;&gt;Node21</title>
<path fill="none" stroke="midnightblue" d="M521.055,-130.372C549.103,-120.311 596.187,-103.422 632.028,-90.5662"/>
<polygon fill="midnightblue" stroke="midnightblue" points="633.582,-93.7271 641.813,-87.0562 631.218,-87.1381 633.582,-93.7271"/>
</g>
<!-- Node19&#45;&gt;Node18 -->
<g id="edge24" class="edge"><title>Node19&#45;&gt;Node18</title>
<path fill="none" stroke="midnightblue" d="M826.453,-56.9327C793.298,-46.4624 748.591,-32.3445 717.53,-22.5358"/>
<polygon fill="midnightblue" stroke="midnightblue" points="718.547,-19.1865 707.957,-19.5127 716.439,-25.8616 718.547,-19.1865"/>
</g>
<!-- Node20 -->
<g id="node20" class="node"><title>Node20</title>
<polygon fill="white" stroke="#bfbfbf" points="850.5,-0.5 850.5,-19.5 891.5,-19.5 891.5,-0.5 850.5,-0.5"/>
<text text-anchor="middle" x="871" y="-7.5" font-family="Helvetica,sans-Serif" font-size="10.00">string</text>
</g>
<!-- Node19&#45;&gt;Node20 -->
<g id="edge23" class="edge"><title>Node19&#45;&gt;Node20</title>
<path fill="none" stroke="midnightblue" d="M871,-56.7808C871,-48.7812 871,-38.6887 871,-30.0168"/>
<polygon fill="midnightblue" stroke="midnightblue" points="874.5,-29.7305 871,-19.7305 867.5,-29.7306 874.5,-29.7305"/>
</g>
<!-- Node22&#45;&gt;Node4 -->
<g id="edge29" class="edge"><title>Node22&#45;&gt;Node4</title>
<path fill="none" stroke="midnightblue" d="M570.692,-274.178C468.69,-271.739 251.704,-262.092 73,-224 68.8264,-223.11 64.4999,-221.948 60.2616,-220.664"/>
<polygon fill="midnightblue" stroke="midnightblue" points="61.2384,-217.301 50.6458,-217.518 59.0615,-223.954 61.2384,-217.301"/>
</g>
<!-- Node22&#45;&gt;Node5 -->
<g id="edge31" class="edge"><title>Node22&#45;&gt;Node5</title>
<path fill="none" stroke="midnightblue" d="M670.296,-266.451C680.645,-264.327 691.726,-262.066 702,-260 783.265,-243.658 805.454,-247.314 885,-224 887.808,-223.177 890.697,-222.23 893.569,-221.22"/>
<polygon fill="midnightblue" stroke="midnightblue" points="894.991,-224.425 903.122,-217.633 892.53,-217.872 894.991,-224.425"/>
</g>
<!-- Node22&#45;&gt;Node10 -->
<g id="edge27" class="edge"><title>Node22&#45;&gt;Node10</title>
<path fill="none" stroke="midnightblue" d="M570.872,-268.586C513.302,-261.045 430.568,-246.608 408,-224 391.143,-207.113 387.99,-178.524 387.961,-159.703"/>
<polygon fill="midnightblue" stroke="midnightblue" points="391.46,-159.769 388.238,-149.676 384.463,-159.575 391.46,-159.769"/>
</g>
<!-- Node22&#45;&gt;Node11 -->
<g id="edge36" class="edge"><title>Node22&#45;&gt;Node11</title>
<path fill="none" stroke="midnightblue" d="M687.065,-271.332C753.243,-265.92 864.013,-253.087 955,-224 956.914,-223.388 958.856,-222.669 960.785,-221.882"/>
<polygon fill="midnightblue" stroke="midnightblue" points="962.509,-224.941 970.121,-217.572 959.575,-218.586 962.509,-224.941"/>
</g>
<!-- Node22&#45;&gt;Node12 -->
<g id="edge37" class="edge"><title>Node22&#45;&gt;Node12</title>
<path fill="none" stroke="midnightblue" d="M687.278,-273.038C763.751,-269.17 901.459,-257.728 1014,-224 1016.14,-223.358 1018.32,-222.585 1020.47,-221.731"/>
<polygon fill="midnightblue" stroke="midnightblue" points="1021.92,-224.916 1029.62,-217.636 1019.06,-218.527 1021.92,-224.916"/>
</g>
<!-- Node22&#45;&gt;Node15 -->
<g id="edge44" class="edge"><title>Node22&#45;&gt;Node15</title>
<path fill="none" stroke="midnightblue" d="M628.881,-266.142C628.204,-249.65 624.533,-213.926 606,-192 589.846,-172.889 564.947,-160.496 543.023,-152.72"/>
<polygon fill="midnightblue" stroke="midnightblue" points="544.117,-149.395 533.523,-149.564 541.909,-156.038 544.117,-149.395"/>
</g>
<!-- Node22&#45;&gt;Node16 -->
<g id="edge28" class="edge"><title>Node22&#45;&gt;Node16</title>
<path fill="none" stroke="midnightblue" d="M570.729,-274.418C460.504,-272.399 226.303,-263.447 157,-224 113.641,-199.32 80.9846,-167.166 106,-124 118.047,-103.211 142.117,-90.169 162.191,-82.4826"/>
<polygon fill="midnightblue" stroke="midnightblue" points="163.397,-85.7684 171.654,-79.129 161.059,-79.1704 163.397,-85.7684"/>
</g>
<!-- Node22&#45;&gt;Node17 -->
<g id="edge30" class="edge"><title>Node22&#45;&gt;Node17</title>
<path fill="none" stroke="midnightblue" d="M570.616,-271.932C463.142,-265.684 242.824,-249.847 220,-224 175.032,-173.077 275.13,-112.386 325.848,-86.1519"/>
<polygon fill="midnightblue" stroke="midnightblue" points="327.649,-89.1632 334.987,-81.5209 324.484,-82.9191 327.649,-89.1632"/>
</g>
<!-- Node22&#45;&gt;Node18 -->
<g id="edge38" class="edge"><title>Node22&#45;&gt;Node18</title>
<path fill="none" stroke="midnightblue" d="M630.546,-266.479C632.975,-251.127 636.581,-218.001 628,-192 621.815,-173.258 608.072,-174.779 602,-156 588.326,-113.711 579.666,-94.4252 602,-56 610.736,-40.9696 626.578,-30.5428 641.795,-23.5405"/>
<polygon fill="midnightblue" stroke="midnightblue" points="643.262,-26.7202 651.119,-19.6125 640.545,-20.2692 643.262,-26.7202"/>
</g>
<!-- Node22&#45;&gt;Node19 -->
<g id="edge45" class="edge"><title>Node22&#45;&gt;Node19</title>
<path fill="none" stroke="midnightblue" d="M666.328,-266.494C729.471,-252.097 850.606,-224.432 851,-224 882.502,-189.384 880.005,-130.455 875.462,-97.3787"/>
<polygon fill="midnightblue" stroke="midnightblue" points="878.879,-96.5715 873.89,-87.225 871.962,-97.6429 878.879,-96.5715"/>
</g>
<!-- Node23 -->
<g id="node23" class="node"><title>Node23</title>
<polygon fill="white" stroke="#bfbfbf" points="417.5,-198.5 417.5,-217.5 452.5,-217.5 452.5,-198.5 417.5,-198.5"/>
<text text-anchor="middle" x="435" y="-205.5" font-family="Helvetica,sans-Serif" font-size="10.00">map</text>
</g>
<!-- Node22&#45;&gt;Node23 -->
<g id="edge32" class="edge"><title>Node22&#45;&gt;Node23</title>
<path fill="none" stroke="midnightblue" d="M593.372,-266.451C559.028,-257.671 505.944,-242.67 462,-224 460.643,-223.423 459.266,-222.798 457.888,-222.14"/>
<polygon fill="midnightblue" stroke="midnightblue" points="459.497,-219.031 449.011,-217.517 456.264,-225.24 459.497,-219.031"/>
</g>
<!-- Node24 -->
<g id="node24" class="node"><title>Node24</title>
<polygon fill="white" stroke="#bfbfbf" points="115,-130.5 115,-149.5 167,-149.5 167,-130.5 115,-130.5"/>
<text text-anchor="middle" x="141" y="-137.5" font-family="Helvetica,sans-Serif" font-size="10.00">memory</text>
</g>
<!-- Node22&#45;&gt;Node24 -->
<g id="edge33" class="edge"><title>Node22&#45;&gt;Node24</title>
<path fill="none" stroke="midnightblue" d="M570.67,-274.753C465.305,-273.268 248.467,-265.137 187,-224 164.463,-208.917 151.89,-178.914 145.785,-159.414"/>
<polygon fill="midnightblue" stroke="midnightblue" points="149.088,-158.234 142.974,-149.581 142.357,-160.158 149.088,-158.234"/>
</g>
<!-- Node25 -->
<g id="node25" class="node"><title>Node25</title>
<polygon fill="white" stroke="#bfbfbf" points="471,-198.5 471,-217.5 501,-217.5 501,-198.5 471,-198.5"/>
<text text-anchor="middle" x="486" y="-205.5" font-family="Helvetica,sans-Serif" font-size="10.00">set</text>
</g>
<!-- Node22&#45;&gt;Node25 -->
<g id="edge34" class="edge"><title>Node22&#45;&gt;Node25</title>
<path fill="none" stroke="midnightblue" d="M606.151,-266.419C581.834,-257.01 542.468,-240.975 510,-224 509.314,-223.641 508.622,-223.27 507.927,-222.889"/>
<polygon fill="midnightblue" stroke="midnightblue" points="509.383,-219.685 498.99,-217.625 505.83,-225.716 509.383,-219.685"/>
</g>
<!-- Node26 -->
<g id="node26" class="node"><title>Node26</title>
<polygon fill="white" stroke="#bfbfbf" points="519,-198.5 519,-217.5 597,-217.5 597,-198.5 519,-198.5"/>
<text text-anchor="middle" x="558" y="-205.5" font-family="Helvetica,sans-Serif" font-size="10.00">unordered_set</text>
</g>
<!-- Node22&#45;&gt;Node26 -->
<g id="edge35" class="edge"><title>Node22&#45;&gt;Node26</title>
<path fill="none" stroke="midnightblue" d="M619.718,-266.372C608.406,-255.856 589.07,-237.882 575.05,-224.85"/>
<polygon fill="midnightblue" stroke="midnightblue" points="577.218,-222.086 567.511,-217.841 572.452,-227.213 577.218,-222.086"/>
</g>
<!-- Node27 -->
<g id="node27" class="node"><title>Node27</title>
<g id="a_node27"><a xlink:href="handle_8h.html" target="_top" xlink:title="shad/runtime/handle.h">
<polygon fill="white" stroke="black" points="729.5,-198.5 729.5,-217.5 842.5,-217.5 842.5,-198.5 729.5,-198.5"/>
<text text-anchor="middle" x="786" y="-205.5" font-family="Helvetica,sans-Serif" font-size="10.00">shad/runtime/handle.h</text>
</a>
</g>
</g>
<!-- Node22&#45;&gt;Node27 -->
<g id="edge39" class="edge"><title>Node22&#45;&gt;Node27</title>
<path fill="none" stroke="midnightblue" d="M649.525,-266.372C676.676,-254.958 724.732,-234.756 755.967,-221.625"/>
<polygon fill="midnightblue" stroke="midnightblue" points="757.608,-224.732 765.47,-217.63 754.895,-218.279 757.608,-224.732"/>
</g>
<!-- Node28 -->
<g id="node28" class="node"><title>Node28</title>
<g id="a_node28"><a xlink:href="available__mappings_8h.html" target="_top" xlink:title="shad/runtime/mappings\l/available_mappings.h">
<polygon fill="white" stroke="black" points="611,-125 611,-155 729,-155 729,-125 611,-125"/>
<text text-anchor="start" x="619" y="-143" font-family="Helvetica,sans-Serif" font-size="10.00">shad/runtime/mappings</text>
<text text-anchor="middle" x="670" y="-132" font-family="Helvetica,sans-Serif" font-size="10.00">/available_mappings.h</text>
</a>
</g>
</g>
<!-- Node22&#45;&gt;Node28 -->
<g id="edge46" class="edge"><title>Node22&#45;&gt;Node28</title>
<path fill="none" stroke="midnightblue" d="M641.162,-266.493C652.871,-257.485 669.828,-242.084 677,-224 684.505,-205.076 681.639,-181.864 677.538,-164.804"/>
<polygon fill="midnightblue" stroke="midnightblue" points="680.895,-163.811 674.907,-155.07 674.138,-165.637 680.895,-163.811"/>
</g>
<!-- Node29 -->
<g id="node29" class="node"><title>Node29</title>
<g id="a_node29"><a xlink:href="synchronous__interface_8h.html" target="_top" xlink:title="shad/runtime/synchronous\l_interface.h">
<polygon fill="white" stroke="black" points="229.5,-193 229.5,-223 360.5,-223 360.5,-193 229.5,-193"/>
<text text-anchor="start" x="237.5" y="-211" font-family="Helvetica,sans-Serif" font-size="10.00">shad/runtime/synchronous</text>
<text text-anchor="middle" x="295" y="-200" font-family="Helvetica,sans-Serif" font-size="10.00">_interface.h</text>
</a>
</g>
</g>
<!-- Node22&#45;&gt;Node29 -->
<g id="edge48" class="edge"><title>Node22&#45;&gt;Node29</title>
<path fill="none" stroke="midnightblue" d="M585.678,-266.439C531.281,-255.69 437.056,-237.071 370.657,-223.95"/>
<polygon fill="midnightblue" stroke="midnightblue" points="371.15,-220.48 360.661,-221.975 369.792,-227.347 371.15,-220.48"/>
</g>
<!-- Node27&#45;&gt;Node8 -->
<g id="edge40" class="edge"><title>Node27&#45;&gt;Node8</title>
<path fill="none" stroke="midnightblue" d="M842.914,-198.708C935.36,-185.239 1116,-158.921 1197.43,-147.056"/>
<polygon fill="midnightblue" stroke="midnightblue" points="1198.39,-150.453 1207.78,-145.548 1197.38,-143.527 1198.39,-150.453"/>
</g>
<!-- Node27&#45;&gt;Node18 -->
<g id="edge41" class="edge"><title>Node27&#45;&gt;Node18</title>
<path fill="none" stroke="midnightblue" d="M786.921,-198.202C789.054,-173.356 791.93,-101.513 760,-56 749.64,-41.233 732.787,-30.6826 717.301,-23.5269"/>
<polygon fill="midnightblue" stroke="midnightblue" points="718.477,-20.223 707.907,-19.5028 715.721,-26.6576 718.477,-20.223"/>
</g>
<!-- Node27&#45;&gt;Node19 -->
<g id="edge42" class="edge"><title>Node27&#45;&gt;Node19</title>
<path fill="none" stroke="midnightblue" d="M791.577,-198.208C804.631,-177.629 837.509,-125.797 856.622,-95.6667"/>
<polygon fill="midnightblue" stroke="midnightblue" points="859.673,-97.3905 862.074,-87.0713 853.762,-93.6409 859.673,-97.3905"/>
</g>
<!-- Node27&#45;&gt;Node21 -->
<g id="edge43" class="edge"><title>Node27&#45;&gt;Node21</title>
<path fill="none" stroke="midnightblue" d="M782.167,-198.436C774.904,-182.73 758.056,-148.67 738,-124 729.077,-113.025 717.711,-102.353 707.479,-93.632"/>
<polygon fill="midnightblue" stroke="midnightblue" points="709.518,-90.7757 699.586,-87.088 705.05,-96.1647 709.518,-90.7757"/>
</g>
<!-- Node28&#45;&gt;Node21 -->
<g id="edge47" class="edge"><title>Node28&#45;&gt;Node21</title>
<path fill="none" stroke="midnightblue" d="M672.387,-124.679C673.713,-116.722 675.399,-106.605 676.927,-97.4356"/>
<polygon fill="midnightblue" stroke="midnightblue" points="680.426,-97.7324 678.618,-87.2931 673.521,-96.5816 680.426,-97.7324"/>
</g>
<!-- Node29&#45;&gt;Node10 -->
<g id="edge49" class="edge"><title>Node29&#45;&gt;Node10</title>
<path fill="none" stroke="midnightblue" d="M315.397,-192.679C331.014,-181.713 352.475,-166.645 368.194,-155.609"/>
<polygon fill="midnightblue" stroke="midnightblue" points="370.525,-158.249 376.698,-149.638 366.502,-152.52 370.525,-158.249"/>
</g>
<!-- Node29&#45;&gt;Node15 -->
<g id="edge52" class="edge"><title>Node29&#45;&gt;Node15</title>
<path fill="none" stroke="midnightblue" d="M338.334,-192.841C374.946,-180.879 426.762,-163.949 461.095,-152.731"/>
<polygon fill="midnightblue" stroke="midnightblue" points="462.301,-156.02 470.719,-149.587 460.127,-149.366 462.301,-156.02"/>
</g>
<!-- Node29&#45;&gt;Node16 -->
<g id="edge50" class="edge"><title>Node29&#45;&gt;Node16</title>
<path fill="none" stroke="midnightblue" d="M284.298,-192.66C265.729,-167.777 227.624,-116.716 207.729,-90.0567"/>
<polygon fill="midnightblue" stroke="midnightblue" points="210.299,-87.6486 201.513,-81.7275 204.689,-91.8352 210.299,-87.6486"/>
</g>
<!-- Node29&#45;&gt;Node24 -->
<g id="edge51" class="edge"><title>Node29&#45;&gt;Node24</title>
<path fill="none" stroke="midnightblue" d="M261.963,-192.841C234.848,-181.221 196.794,-164.912 170.648,-153.706"/>
<polygon fill="midnightblue" stroke="midnightblue" points="171.828,-150.404 161.258,-149.682 169.07,-156.838 171.828,-150.404"/>
</g>
<!-- Node30&#45;&gt;Node2 -->
<g id="edge54" class="edge"><title>Node30&#45;&gt;Node2</title>
<path fill="none" stroke="midnightblue" d="M654.649,-405.588C550.252,-405.631 317.628,-400.637 127,-360 123.107,-359.17 119.084,-358.069 115.14,-356.838"/>
<polygon fill="midnightblue" stroke="midnightblue" points="116.213,-353.506 105.619,-353.595 113.956,-360.133 116.213,-353.506"/>
</g>
<!-- Node30&#45;&gt;Node4 -->
<g id="edge55" class="edge"><title>Node30&#45;&gt;Node4</title>
<path fill="none" stroke="midnightblue" d="M658.015,-396.452C567.135,-380.768 374.091,-344.152 217,-292 157.264,-272.169 90.5805,-240.254 54.8921,-222.328"/>
<polygon fill="midnightblue" stroke="midnightblue" points="56.1824,-219.058 45.6796,-217.664 53.0208,-225.303 56.1824,-219.058"/>
</g>
<!-- Node30&#45;&gt;Node5 -->
<g id="edge56" class="edge"><title>Node30&#45;&gt;Node5</title>
<path fill="none" stroke="midnightblue" d="M714.403,-396.35C727.192,-371.961 766.643,-301.71 817,-260 829.256,-249.848 865.88,-233.154 892.656,-221.646"/>
<polygon fill="midnightblue" stroke="midnightblue" points="894.183,-224.8 902.013,-217.663 891.441,-218.36 894.183,-224.8"/>
</g>
<!-- Node30&#45;&gt;Node13 -->
<g id="edge61" class="edge"><title>Node30&#45;&gt;Node13</title>
<path fill="none" stroke="midnightblue" d="M724.105,-396.403C757.384,-376.119 841.479,-324.86 887.934,-296.545"/>
<polygon fill="midnightblue" stroke="midnightblue" points="889.98,-299.397 896.697,-291.204 886.337,-293.42 889.98,-299.397"/>
</g>
<!-- Node30&#45;&gt;Node22 -->
<g id="edge62" class="edge"><title>Node30&#45;&gt;Node22</title>
<path fill="none" stroke="midnightblue" d="M709.145,-396.251C707.336,-381.231 702.064,-350.031 688,-328 678.679,-313.398 663.938,-300.653 651.522,-291.556"/>
<polygon fill="midnightblue" stroke="midnightblue" points="653.205,-288.462 643.004,-285.602 649.195,-294.199 653.205,-288.462"/>
</g>
<!-- Node30&#45;&gt;Node31 -->
<g id="edge57" class="edge"><title>Node30&#45;&gt;Node31</title>
<path fill="none" stroke="midnightblue" d="M698.395,-396.403C685.523,-386.869 664.526,-371.315 648.994,-359.811"/>
<polygon fill="midnightblue" stroke="midnightblue" points="650.703,-356.72 640.584,-353.581 646.536,-362.345 650.703,-356.72"/>
</g>
<!-- Node31&#45;&gt;Node5 -->
<g id="edge58" class="edge"><title>Node31&#45;&gt;Node5</title>
<path fill="none" stroke="midnightblue" d="M639.986,-334.475C665.976,-314.363 729.895,-265.247 741,-260 800.648,-231.819 822.184,-244.154 885,-224 887.632,-223.156 890.343,-222.221 893.048,-221.242"/>
<polygon fill="midnightblue" stroke="midnightblue" points="894.559,-224.413 902.668,-217.594 892.076,-217.868 894.559,-224.413"/>
</g>
<!-- Node31&#45;&gt;Node22 -->
<g id="edge60" class="edge"><title>Node31&#45;&gt;Node22</title>
<path fill="none" stroke="midnightblue" d="M629,-334.372C629,-324.643 629,-308.528 629,-295.85"/>
<polygon fill="midnightblue" stroke="midnightblue" points="632.5,-295.841 629,-285.841 625.5,-295.841 632.5,-295.841"/>
</g>
<!-- Node31&#45;&gt;Node24 -->
<g id="edge59" class="edge"><title>Node31&#45;&gt;Node24</title>
<path fill="none" stroke="midnightblue" d="M578.224,-337.07C468.567,-323.218 214.826,-285.191 157,-224 140.807,-206.864 138.637,-178.548 139.267,-159.832"/>
<polygon fill="midnightblue" stroke="midnightblue" points="142.775,-159.809 139.92,-149.606 135.789,-159.362 142.775,-159.809"/>
</g>
</g>
</svg>
