<?xml version="1.0" encoding="UTF-8" standalone="no"?>
<!DOCTYPE svg PUBLIC "-//W3C//DTD SVG 1.1//EN"
 "http://www.w3.org/Graphics/SVG/1.1/DTD/svg11.dtd">
<!-- Generated by graphviz version 2.36.0 (20140111.2315)
 -->
<!-- Title: include/shad/core/impl/modifyng_sequence_ops.h Pages: 1 -->
<svg width="1362pt" height="492pt"
 viewBox="0.00 0.00 1362.26 492.00" xmlns="http://www.w3.org/2000/svg" xmlns:xlink="http://www.w3.org/1999/xlink">
<g id="graph0" class="graph" transform="scale(1 1) rotate(0) translate(4 488)">
<title>include/shad/core/impl/modifyng_sequence_ops.h</title>
<polygon fill="white" stroke="none" points="-4,4 -4,-488 1358.26,-488 1358.26,4 -4,4"/>
<!-- Node1 -->
<g id="node1" class="node"><title>Node1</title>
<polygon fill="#bfbfbf" stroke="black" points="782,-453 782,-483 918,-483 918,-453 782,-453"/>
<text text-anchor="start" x="790" y="-471" font-family="Helvetica,sans-Serif" font-size="10.00">include/shad/core/impl</text>
<text text-anchor="middle" x="850" y="-460" font-family="Helvetica,sans-Serif" font-size="10.00">/modifyng_sequence_ops.h</text>
</g>
<!-- Node2 -->
<g id="node2" class="node"><title>Node2</title>
<polygon fill="white" stroke="#bfbfbf" points="57,-334.5 57,-353.5 113,-353.5 113,-334.5 57,-334.5"/>
<text text-anchor="middle" x="85" y="-341.5" font-family="Helvetica,sans-Serif" font-size="10.00">algorithm</text>
</g>
<!-- Node1&#45;&gt;Node2 -->
<g id="edge1" class="edge"><title>Node1&#45;&gt;Node2</title>
<path fill="none" stroke="midnightblue" d="M781.852,-461.405C652.614,-449.811 363.659,-419.164 127,-360 123.409,-359.102 119.694,-358.016 116.026,-356.844"/>
<polygon fill="midnightblue" stroke="midnightblue" points="117.144,-353.527 106.549,-353.61 114.883,-360.152 117.144,-353.527"/>
</g>
<!-- Node3 -->
<g id="node3" class="node"><title>Node3</title>
<polygon fill="white" stroke="#bfbfbf" points="1286,-396.5 1286,-415.5 1332,-415.5 1332,-396.5 1286,-396.5"/>
<text text-anchor="middle" x="1309" y="-403.5" font-family="Helvetica,sans-Serif" font-size="10.00">cstring</text>
</g>
<!-- Node1&#45;&gt;Node3 -->
<g id="edge2" class="edge"><title>Node1&#45;&gt;Node3</title>
<path fill="none" stroke="midnightblue" d="M918.359,-461.934C1000.84,-455.124 1143.79,-441.1 1275.78,-415.745"/>
<polygon fill="midnightblue" stroke="midnightblue" points="1276.52,-419.167 1285.66,-413.82 1275.18,-412.296 1276.52,-419.167"/>
</g>
<!-- Node4 -->
<g id="node4" class="node"><title>Node4</title>
<polygon fill="white" stroke="#bfbfbf" points="-0.5,-198.5 -0.5,-217.5 58.5,-217.5 58.5,-198.5 -0.5,-198.5"/>
<text text-anchor="middle" x="29" y="-205.5" font-family="Helvetica,sans-Serif" font-size="10.00">functional</text>
</g>
<!-- Node1&#45;&gt;Node4 -->
<g id="edge3" class="edge"><title>Node1&#45;&gt;Node4</title>
<path fill="none" stroke="midnightblue" d="M781.841,-462.865C597.087,-450.978 97.2391,-414.072 48,-360 14.5694,-323.288 19.9813,-259.107 25.2238,-227.567"/>
<polygon fill="midnightblue" stroke="midnightblue" points="28.7021,-228.005 27.0754,-217.536 21.8183,-226.735 28.7021,-228.005"/>
</g>
<!-- Node5 -->
<g id="node5" class="node"><title>Node5</title>
<polygon fill="white" stroke="#bfbfbf" points="933.5,-198.5 933.5,-217.5 980.5,-217.5 980.5,-198.5 933.5,-198.5"/>
<text text-anchor="middle" x="957" y="-205.5" font-family="Helvetica,sans-Serif" font-size="10.00">iterator</text>
</g>
<!-- Node1&#45;&gt;Node5 -->
<g id="edge4" class="edge"><title>Node1&#45;&gt;Node5</title>
<path fill="none" stroke="midnightblue" d="M847.173,-452.789C840.889,-417.114 829.265,-322.191 869,-260 881.525,-240.396 904.464,-227.463 923.781,-219.527"/>
<polygon fill="midnightblue" stroke="midnightblue" points="925.107,-222.767 933.195,-215.924 922.604,-216.23 925.107,-222.767"/>
</g>
<!-- Node6 -->
<g id="node6" class="node"><title>Node6</title>
<polygon fill="white" stroke="#bfbfbf" points="1301,-266.5 1301,-285.5 1339,-285.5 1339,-266.5 1301,-266.5"/>
<text text-anchor="middle" x="1320" y="-273.5" font-family="Helvetica,sans-Serif" font-size="10.00">tuple</text>
</g>
<!-- Node1&#45;&gt;Node6 -->
<g id="edge5" class="edge"><title>Node1&#45;&gt;Node6</title>
<path fill="none" stroke="midnightblue" d="M885.051,-452.959C910.56,-442.732 945.931,-428.533 977,-416 1093.6,-368.963 1232.35,-312.62 1291.27,-288.68"/>
<polygon fill="midnightblue" stroke="midnightblue" points="1292.72,-291.866 1300.67,-284.859 1290.09,-285.382 1292.72,-291.866"/>
</g>
<!-- Node7 -->
<g id="node7" class="node"><title>Node7</title>
<g id="a_node7"><a xlink:href="execution_8h.html" target="_top" xlink:title="shad/core/execution.h">
<polygon fill="white" stroke="black" points="1154.5,-396.5 1154.5,-415.5 1267.5,-415.5 1267.5,-396.5 1154.5,-396.5"/>
<text text-anchor="middle" x="1211" y="-403.5" font-family="Helvetica,sans-Serif" font-size="10.00">shad/core/execution.h</text>
</a>
</g>
</g>
<!-- Node1&#45;&gt;Node7 -->
<g id="edge6" class="edge"><title>Node1&#45;&gt;Node7</title>
<path fill="none" stroke="midnightblue" d="M918.326,-455.644C985.072,-444.55 1085.72,-427.822 1149.88,-417.158"/>
<polygon fill="midnightblue" stroke="midnightblue" points="1150.57,-420.592 1159.86,-415.5 1149.42,-413.687 1150.57,-420.592"/>
</g>
<!-- Node9 -->
<g id="node9" class="node"><title>Node9</title>
<g id="a_node9"><a xlink:href="impl__patterns_8h.html" target="_top" xlink:title="shad/core/impl/impl\l_patterns.h">
<polygon fill="white" stroke="black" points="996.5,-329 996.5,-359 1097.5,-359 1097.5,-329 996.5,-329"/>
<text text-anchor="start" x="1004.5" y="-347" font-family="Helvetica,sans-Serif" font-size="10.00">shad/core/impl/impl</text>
<text text-anchor="middle" x="1047" y="-336" font-family="Helvetica,sans-Serif" font-size="10.00">_patterns.h</text>
</a>
</g>
</g>
<!-- Node1&#45;&gt;Node9 -->
<g id="edge8" class="edge"><title>Node1&#45;&gt;Node9</title>
<path fill="none" stroke="midnightblue" d="M880.101,-452.967C900.061,-443.306 926.602,-429.774 949,-416 974.411,-400.374 1001.78,-380.24 1021.12,-365.406"/>
<polygon fill="midnightblue" stroke="midnightblue" points="1023.38,-368.086 1029.15,-359.2 1019.09,-362.548 1023.38,-368.086"/>
</g>
<!-- Node13 -->
<g id="node13" class="node"><title>Node13</title>
<g id="a_node13"><a xlink:href="distributed__iterator__traits_8h.html" target="_top" xlink:title="shad/distributed_iterator\l_traits.h">
<polygon fill="white" stroke="black" points="878.5,-261 878.5,-291 999.5,-291 999.5,-261 878.5,-261"/>
<text text-anchor="start" x="886.5" y="-279" font-family="Helvetica,sans-Serif" font-size="10.00">shad/distributed_iterator</text>
<text text-anchor="middle" x="939" y="-268" font-family="Helvetica,sans-Serif" font-size="10.00">_traits.h</text>
</a>
</g>
</g>
<!-- Node1&#45;&gt;Node13 -->
<g id="edge63" class="edge"><title>Node1&#45;&gt;Node13</title>
<path fill="none" stroke="midnightblue" d="M856.689,-452.719C871.932,-420.179 909.363,-340.27 928.036,-300.406"/>
<polygon fill="midnightblue" stroke="midnightblue" points="931.282,-301.728 932.354,-291.187 924.943,-298.758 931.282,-301.728"/>
</g>
<!-- Node21 -->
<g id="node21" class="node"><title>Node21</title>
<g id="a_node21"><a xlink:href="runtime_8h.html" target="_top" xlink:title="shad/runtime/runtime.h">
<polygon fill="white" stroke="black" points="589,-266.5 589,-285.5 705,-285.5 705,-266.5 589,-266.5"/>
<text text-anchor="middle" x="647" y="-273.5" font-family="Helvetica,sans-Serif" font-size="10.00">shad/runtime/runtime.h</text>
</a>
</g>
</g>
<!-- Node1&#45;&gt;Node21 -->
<g id="edge64" class="edge"><title>Node1&#45;&gt;Node21</title>
<path fill="none" stroke="midnightblue" d="M839.89,-452.594C820.497,-425.688 775.744,-367 728,-328 710.464,-313.676 688.648,-300.151 672.076,-290.634"/>
<polygon fill="midnightblue" stroke="midnightblue" points="673.427,-287.378 662.997,-285.517 669.991,-293.476 673.427,-287.378"/>
</g>
<!-- Node30 -->
<g id="node30" class="node"><title>Node30</title>
<g id="a_node30"><a xlink:href="utils_8h.html" target="_top" xlink:title="shad/core/impl/utils.h">
<polygon fill="white" stroke="black" points="674,-396.5 674,-415.5 784,-415.5 784,-396.5 674,-396.5"/>
<text text-anchor="middle" x="729" y="-403.5" font-family="Helvetica,sans-Serif" font-size="10.00">shad/core/impl/utils.h</text>
</a>
</g>
</g>
<!-- Node1&#45;&gt;Node30 -->
<g id="edge52" class="edge"><title>Node1&#45;&gt;Node30</title>
<path fill="none" stroke="midnightblue" d="M821.631,-452.933C801.581,-442.991 774.899,-429.76 755.323,-420.053"/>
<polygon fill="midnightblue" stroke="midnightblue" points="756.857,-416.907 746.343,-415.6 753.748,-423.178 756.857,-416.907"/>
</g>
<!-- Node31 -->
<g id="node31" class="node"><title>Node31</title>
<g id="a_node31"><a xlink:href="iterator_8h.html" target="_top" xlink:title="shad/core/iterator.h">
<polygon fill="white" stroke="black" points="596.5,-334.5 596.5,-353.5 697.5,-353.5 697.5,-334.5 596.5,-334.5"/>
<text text-anchor="middle" x="647" y="-341.5" font-family="Helvetica,sans-Serif" font-size="10.00">shad/core/iterator.h</text>
</a>
</g>
</g>
<!-- Node1&#45;&gt;Node31 -->
<g id="edge62" class="edge"><title>Node1&#45;&gt;Node31</title>
<path fill="none" stroke="midnightblue" d="M781.693,-464.584C742.54,-459.609 695.307,-446.941 665,-416 651.539,-402.257 647.701,-379.963 646.814,-364.023"/>
<polygon fill="midnightblue" stroke="midnightblue" points="650.308,-363.675 646.594,-353.752 643.309,-363.825 650.308,-363.675"/>
</g>
<!-- Node8 -->
<g id="node8" class="node"><title>Node8</title>
<polygon fill="white" stroke="#bfbfbf" points="1242,-130.5 1242,-149.5 1304,-149.5 1304,-130.5 1242,-130.5"/>
<text text-anchor="middle" x="1273" y="-137.5" font-family="Helvetica,sans-Serif" font-size="10.00">type_traits</text>
</g>
<!-- Node7&#45;&gt;Node8 -->
<g id="edge7" class="edge"><title>Node7&#45;&gt;Node8</title>
<path fill="none" stroke="midnightblue" d="M1229.63,-396.414C1260.98,-380.794 1323.28,-344.429 1348,-292 1371.5,-242.147 1319.86,-183.938 1290.89,-156.637"/>
<polygon fill="midnightblue" stroke="midnightblue" points="1293.15,-153.956 1283.41,-149.789 1288.42,-159.121 1293.15,-153.956"/>
</g>
<!-- Node9&#45;&gt;Node5 -->
<g id="edge10" class="edge"><title>Node9&#45;&gt;Node5</title>
<path fill="none" stroke="midnightblue" d="M1042.13,-328.994C1035.79,-311.828 1023.65,-282.279 1008,-260 998.686,-246.74 985.757,-233.854 975.247,-224.352"/>
<polygon fill="midnightblue" stroke="midnightblue" points="977.278,-221.478 967.453,-217.515 972.662,-226.74 977.278,-221.478"/>
</g>
<!-- Node9&#45;&gt;Node6 -->
<g id="edge11" class="edge"><title>Node9&#45;&gt;Node6</title>
<path fill="none" stroke="midnightblue" d="M1097.72,-331.173C1102.54,-330.085 1107.36,-329.012 1112,-328 1189.58,-311.071 1211.49,-316.583 1287,-292 1289.27,-291.26 1291.6,-290.41 1293.91,-289.498"/>
<polygon fill="midnightblue" stroke="midnightblue" points="1295.35,-292.687 1303.16,-285.53 1292.59,-286.254 1295.35,-292.687"/>
</g>
<!-- Node9&#45;&gt;Node8 -->
<g id="edge12" class="edge"><title>Node9&#45;&gt;Node8</title>
<path fill="none" stroke="midnightblue" d="M1097.64,-330.934C1156.62,-316.778 1246.38,-294.862 1249,-292 1282.66,-255.182 1279.83,-191.05 1275.95,-159.545"/>
<polygon fill="midnightblue" stroke="midnightblue" points="1279.4,-158.939 1274.54,-149.525 1272.47,-159.916 1279.4,-158.939"/>
</g>
<!-- Node10 -->
<g id="node10" class="node"><title>Node10</title>
<polygon fill="white" stroke="#bfbfbf" points="364.5,-130.5 364.5,-149.5 413.5,-149.5 413.5,-130.5 364.5,-130.5"/>
<text text-anchor="middle" x="389" y="-137.5" font-family="Helvetica,sans-Serif" font-size="10.00">cstddef</text>
</g>
<!-- Node9&#45;&gt;Node10 -->
<g id="edge9" class="edge"><title>Node9&#45;&gt;Node10</title>
<path fill="none" stroke="midnightblue" d="M1084.73,-328.932C1148.63,-303.162 1266.43,-246.055 1215,-192 1187.32,-162.903 532.974,-159.871 493,-156 469.807,-153.754 443.866,-150.015 423.695,-146.832"/>
<polygon fill="midnightblue" stroke="midnightblue" points="424.146,-143.36 413.717,-145.229 423.035,-150.271 424.146,-143.36"/>
</g>
<!-- Node11 -->
<g id="node11" class="node"><title>Node11</title>
<polygon fill="white" stroke="#bfbfbf" points="999,-198.5 999,-217.5 1039,-217.5 1039,-198.5 999,-198.5"/>
<text text-anchor="middle" x="1019" y="-205.5" font-family="Helvetica,sans-Serif" font-size="10.00">utility</text>
</g>
<!-- Node9&#45;&gt;Node11 -->
<g id="edge13" class="edge"><title>Node9&#45;&gt;Node11</title>
<path fill="none" stroke="midnightblue" d="M1047.69,-328.964C1048.15,-312.271 1047.84,-283.686 1042,-260 1039.13,-248.382 1033.7,-236.134 1028.83,-226.554"/>
<polygon fill="midnightblue" stroke="midnightblue" points="1031.89,-224.851 1024.1,-217.674 1025.71,-228.145 1031.89,-224.851"/>
</g>
<!-- Node12 -->
<g id="node12" class="node"><title>Node12</title>
<polygon fill="white" stroke="#bfbfbf" points="1057,-198.5 1057,-217.5 1101,-217.5 1101,-198.5 1057,-198.5"/>
<text text-anchor="middle" x="1079" y="-205.5" font-family="Helvetica,sans-Serif" font-size="10.00">vector</text>
</g>
<!-- Node9&#45;&gt;Node12 -->
<g id="edge14" class="edge"><title>Node9&#45;&gt;Node12</title>
<path fill="none" stroke="midnightblue" d="M1050.42,-328.66C1056.26,-304.211 1068.14,-254.492 1074.59,-227.476"/>
<polygon fill="midnightblue" stroke="midnightblue" points="1078,-228.267 1076.92,-217.728 1071.19,-226.641 1078,-228.267"/>
</g>
<!-- Node9&#45;&gt;Node13 -->
<g id="edge15" class="edge"><title>Node9&#45;&gt;Node13</title>
<path fill="none" stroke="midnightblue" d="M1023.83,-328.841C1008.46,-319.446 988.066,-306.985 971.13,-296.635"/>
<polygon fill="midnightblue" stroke="midnightblue" points="972.488,-293.363 962.13,-291.135 968.838,-299.336 972.488,-293.363"/>
</g>
<!-- Node9&#45;&gt;Node21 -->
<g id="edge25" class="edge"><title>Node9&#45;&gt;Node21</title>
<path fill="none" stroke="midnightblue" d="M996.34,-334.641C923.207,-322.574 788.179,-300.295 709.129,-287.251"/>
<polygon fill="midnightblue" stroke="midnightblue" points="709.267,-283.727 698.83,-285.552 708.127,-290.633 709.267,-283.727"/>
</g>
<!-- Node13&#45;&gt;Node5 -->
<g id="edge17" class="edge"><title>Node13&#45;&gt;Node5</title>
<path fill="none" stroke="midnightblue" d="M942.906,-260.679C945.546,-250.999 949.057,-238.123 951.915,-227.645"/>
<polygon fill="midnightblue" stroke="midnightblue" points="955.338,-228.397 954.592,-217.828 948.584,-226.555 955.338,-228.397"/>
</g>
<!-- Node14 -->
<g id="node14" class="node"><title>Node14</title>
<polygon fill="white" stroke="#bfbfbf" points="1157.5,-198.5 1157.5,-217.5 1206.5,-217.5 1206.5,-198.5 1157.5,-198.5"/>
<text text-anchor="middle" x="1182" y="-205.5" font-family="Helvetica,sans-Serif" font-size="10.00">cassert</text>
</g>
<!-- Node13&#45;&gt;Node14 -->
<g id="edge16" class="edge"><title>Node13&#45;&gt;Node14</title>
<path fill="none" stroke="midnightblue" d="M999.794,-261.852C1040.64,-252.518 1095.48,-239.015 1143,-224 1145.79,-223.119 1148.67,-222.143 1151.53,-221.125"/>
<polygon fill="midnightblue" stroke="midnightblue" points="1152.96,-224.33 1161.12,-217.572 1150.52,-217.767 1152.96,-224.33"/>
</g>
<!-- Node15 -->
<g id="node15" class="node"><title>Node15</title>
<g id="a_node15"><a xlink:href="locality_8h.html" target="_top" xlink:title="shad/runtime/locality.h">
<polygon fill="white" stroke="black" points="502.5,-130.5 502.5,-149.5 617.5,-149.5 617.5,-130.5 502.5,-130.5"/>
<text text-anchor="middle" x="560" y="-137.5" font-family="Helvetica,sans-Serif" font-size="10.00">shad/runtime/locality.h</text>
</a>
</g>
</g>
<!-- Node13&#45;&gt;Node15 -->
<g id="edge18" class="edge"><title>Node13&#45;&gt;Node15</title>
<path fill="none" stroke="midnightblue" d="M999.602,-266.507C1062.35,-255.343 1146.37,-232.263 1109,-192 1072.47,-152.636 680.122,-163.887 627,-156 619.376,-154.868 611.328,-153.351 603.558,-151.715"/>
<polygon fill="midnightblue" stroke="midnightblue" points="604.08,-148.246 593.561,-149.519 602.578,-155.083 604.08,-148.246"/>
</g>
<!-- Node16 -->
<g id="node16" class="node"><title>Node16</title>
<polygon fill="white" stroke="#bfbfbf" points="272,-62.5 272,-81.5 318,-81.5 318,-62.5 272,-62.5"/>
<text text-anchor="middle" x="295" y="-69.5" font-family="Helvetica,sans-Serif" font-size="10.00">cstdint</text>
</g>
<!-- Node15&#45;&gt;Node16 -->
<g id="edge19" class="edge"><title>Node15&#45;&gt;Node16</title>
<path fill="none" stroke="midnightblue" d="M525.628,-130.439C474.269,-117.648 378.16,-93.7115 327.758,-81.1585"/>
<polygon fill="midnightblue" stroke="midnightblue" points="328.57,-77.7541 318.021,-78.7335 326.879,-84.5466 328.57,-77.7541"/>
</g>
<!-- Node17 -->
<g id="node17" class="node"><title>Node17</title>
<polygon fill="white" stroke="#bfbfbf" points="644,-0.5 644,-19.5 748,-19.5 748,-0.5 644,-0.5"/>
<text text-anchor="middle" x="696" y="-7.5" font-family="Helvetica,sans-Serif" font-size="10.00">shad/config/config.h</text>
</g>
<!-- Node15&#45;&gt;Node17 -->
<g id="edge20" class="edge"><title>Node15&#45;&gt;Node17</title>
<path fill="none" stroke="midnightblue" d="M564.149,-130.273C572.231,-113.999 591.462,-78.6229 616,-56 630.456,-42.6718 649.562,-31.7375 665.477,-23.9858"/>
<polygon fill="midnightblue" stroke="midnightblue" points="667.328,-26.984 674.904,-19.5776 664.363,-20.6431 667.328,-26.984"/>
</g>
<!-- Node18 -->
<g id="node18" class="node"><title>Node18</title>
<g id="a_node18"><a xlink:href="mapping__traits_8h.html" target="_top" xlink:title="shad/runtime/mapping\l_traits.h">
<polygon fill="white" stroke="black" points="848.5,-57 848.5,-87 961.5,-87 961.5,-57 848.5,-57"/>
<text text-anchor="start" x="856.5" y="-75" font-family="Helvetica,sans-Serif" font-size="10.00">shad/runtime/mapping</text>
<text text-anchor="middle" x="905" y="-64" font-family="Helvetica,sans-Serif" font-size="10.00">_traits.h</text>
</a>
</g>
</g>
<!-- Node15&#45;&gt;Node18 -->
<g id="edge21" class="edge"><title>Node15&#45;&gt;Node18</title>
<path fill="none" stroke="midnightblue" d="M596.806,-130.49C606.602,-128.299 617.189,-125.997 627,-124 699.122,-109.317 782.165,-94.3318 838.573,-84.4393"/>
<polygon fill="midnightblue" stroke="midnightblue" points="839.19,-87.8846 848.437,-82.7136 837.984,-80.9893 839.19,-87.8846"/>
</g>
<!-- Node20 -->
<g id="node20" class="node"><title>Node20</title>
<g id="a_node20"><a xlink:href="available__traits__mappings_8h.html" target="_top" xlink:title="shad/runtime/mappings\l/available_traits_mappings.h">
<polygon fill="white" stroke="black" points="625,-57 625,-87 765,-87 765,-57 625,-57"/>
<text text-anchor="start" x="633" y="-75" font-family="Helvetica,sans-Serif" font-size="10.00">shad/runtime/mappings</text>
<text text-anchor="middle" x="695" y="-64" font-family="Helvetica,sans-Serif" font-size="10.00">/available_traits_mappings.h</text>
</a>
</g>
</g>
<!-- Node15&#45;&gt;Node20 -->
<g id="edge24" class="edge"><title>Node15&#45;&gt;Node20</title>
<path fill="none" stroke="midnightblue" d="M577.649,-130.372C597.7,-120.569 631.011,-104.283 657.03,-91.5629"/>
<polygon fill="midnightblue" stroke="midnightblue" points="658.802,-94.5927 666.249,-87.0562 655.728,-88.304 658.802,-94.5927"/>
</g>
<!-- Node18&#45;&gt;Node17 -->
<g id="edge23" class="edge"><title>Node18&#45;&gt;Node17</title>
<path fill="none" stroke="midnightblue" d="M855.999,-56.9327C819.212,-46.3717 769.498,-32.0998 735.299,-22.282"/>
<polygon fill="midnightblue" stroke="midnightblue" points="736.23,-18.908 725.653,-19.5127 734.299,-25.6362 736.23,-18.908"/>
</g>
<!-- Node19 -->
<g id="node19" class="node"><title>Node19</title>
<polygon fill="white" stroke="#bfbfbf" points="884.5,-0.5 884.5,-19.5 925.5,-19.5 925.5,-0.5 884.5,-0.5"/>
<text text-anchor="middle" x="905" y="-7.5" font-family="Helvetica,sans-Serif" font-size="10.00">string</text>
</g>
<!-- Node18&#45;&gt;Node19 -->
<g id="edge22" class="edge"><title>Node18&#45;&gt;Node19</title>
<path fill="none" stroke="midnightblue" d="M905,-56.7808C905,-48.7812 905,-38.6887 905,-30.0168"/>
<polygon fill="midnightblue" stroke="midnightblue" points="908.5,-29.7305 905,-19.7305 901.5,-29.7306 908.5,-29.7305"/>
</g>
<!-- Node21&#45;&gt;Node4 -->
<g id="edge28" class="edge"><title>Node21&#45;&gt;Node4</title>
<path fill="none" stroke="midnightblue" d="M588.908,-271.119C490.335,-264.165 284.141,-248.028 111,-224 97.0637,-222.066 81.8865,-219.438 68.4206,-216.921"/>
<polygon fill="midnightblue" stroke="midnightblue" points="68.9841,-213.466 58.5057,-215.032 67.6739,-220.342 68.9841,-213.466"/>
</g>
<!-- Node21&#45;&gt;Node5 -->
<g id="edge30" class="edge"><title>Node21&#45;&gt;Node5</title>
<path fill="none" stroke="midnightblue" d="M688.457,-266.443C699.058,-264.297 710.444,-262.029 721,-260 808.834,-243.115 832.989,-248.538 919,-224 921.973,-223.152 925.036,-222.157 928.071,-221.091"/>
<polygon fill="midnightblue" stroke="midnightblue" points="929.404,-224.33 937.531,-217.533 926.939,-217.778 929.404,-224.33"/>
</g>
<!-- Node21&#45;&gt;Node10 -->
<g id="edge26" class="edge"><title>Node21&#45;&gt;Node10</title>
<path fill="none" stroke="midnightblue" d="M588.734,-269.717C526.41,-262.865 433.122,-248.753 408,-224 391.003,-207.253 387.887,-178.627 387.904,-159.76"/>
<polygon fill="midnightblue" stroke="midnightblue" points="391.404,-159.807 388.209,-149.705 384.407,-159.594 391.404,-159.807"/>
</g>
<!-- Node21&#45;&gt;Node11 -->
<g id="edge35" class="edge"><title>Node21&#45;&gt;Node11</title>
<path fill="none" stroke="midnightblue" d="M705.129,-271.917C774.198,-266.989 892.255,-254.547 989,-224 990.916,-223.395 992.86,-222.681 994.79,-221.898"/>
<polygon fill="midnightblue" stroke="midnightblue" points="996.511,-224.958 1004.13,-217.595 993.582,-218.601 996.511,-224.958"/>
</g>
<!-- Node21&#45;&gt;Node12 -->
<g id="edge36" class="edge"><title>Node21&#45;&gt;Node12</title>
<path fill="none" stroke="midnightblue" d="M705.316,-273.47C784.46,-270.075 929.593,-259.151 1048,-224 1050.14,-223.364 1052.32,-222.594 1054.48,-221.743"/>
<polygon fill="midnightblue" stroke="midnightblue" points="1055.92,-224.929 1063.63,-217.653 1053.07,-218.539 1055.92,-224.929"/>
</g>
<!-- Node21&#45;&gt;Node15 -->
<g id="edge43" class="edge"><title>Node21&#45;&gt;Node15</title>
<path fill="none" stroke="midnightblue" d="M655.101,-266.413C668.938,-250.67 694.136,-216.552 678,-192 668.765,-177.948 629.516,-162.768 598.787,-152.656"/>
<polygon fill="midnightblue" stroke="midnightblue" points="599.75,-149.29 589.159,-149.56 597.607,-155.953 599.75,-149.29"/>
</g>
<!-- Node21&#45;&gt;Node16 -->
<g id="edge27" class="edge"><title>Node21&#45;&gt;Node16</title>
<path fill="none" stroke="midnightblue" d="M588.751,-275.771C482.461,-275.995 262.672,-270.614 205,-224 169.532,-195.333 157.259,-162.31 182,-124 199.421,-97.0241 234.917,-84.1689 261.502,-78.1378"/>
<polygon fill="midnightblue" stroke="midnightblue" points="262.461,-81.5143 271.555,-76.0797 261.057,-74.6566 262.461,-81.5143"/>
</g>
<!-- Node21&#45;&gt;Node17 -->
<g id="edge37" class="edge"><title>Node21&#45;&gt;Node17</title>
<path fill="none" stroke="midnightblue" d="M588.729,-272.723C468.767,-267.47 202.976,-252.696 174,-224 142.32,-192.626 145.423,-163.554 166,-124 190.298,-77.2928 213.679,-74.4231 263,-56 329.311,-31.2307 530.407,-18.6164 633.54,-13.6306"/>
<polygon fill="midnightblue" stroke="midnightblue" points="633.987,-17.1134 643.81,-13.1437 633.655,-10.1213 633.987,-17.1134"/>
</g>
<!-- Node21&#45;&gt;Node18 -->
<g id="edge44" class="edge"><title>Node21&#45;&gt;Node18</title>
<path fill="none" stroke="midnightblue" d="M684.895,-266.428C694.393,-264.303 704.565,-262.049 714,-260 789.896,-243.516 832.203,-280.96 885,-224 916.818,-189.674 914.199,-130.634 909.553,-97.4616"/>
<polygon fill="midnightblue" stroke="midnightblue" points="912.962,-96.6088 907.946,-87.2764 906.047,-97.6997 912.962,-96.6088"/>
</g>
<!-- Node22 -->
<g id="node22" class="node"><title>Node22</title>
<polygon fill="white" stroke="#bfbfbf" points="417,-198.5 417,-217.5 471,-217.5 471,-198.5 417,-198.5"/>
<text text-anchor="middle" x="444" y="-205.5" font-family="Helvetica,sans-Serif" font-size="10.00">iostream</text>
</g>
<!-- Node21&#45;&gt;Node22 -->
<g id="edge29" class="edge"><title>Node21&#45;&gt;Node22</title>
<path fill="none" stroke="midnightblue" d="M615.922,-266.499C582.158,-257.035 526.777,-240.842 480,-224 477.742,-223.187 475.42,-222.312 473.094,-221.407"/>
<polygon fill="midnightblue" stroke="midnightblue" points="474.252,-218.1 463.669,-217.606 471.634,-224.592 474.252,-218.1"/>
</g>
<!-- Node23 -->
<g id="node23" class="node"><title>Node23</title>
<polygon fill="white" stroke="#bfbfbf" points="489.5,-198.5 489.5,-217.5 524.5,-217.5 524.5,-198.5 489.5,-198.5"/>
<text text-anchor="middle" x="507" y="-205.5" font-family="Helvetica,sans-Serif" font-size="10.00">map</text>
</g>
<!-- Node21&#45;&gt;Node23 -->
<g id="edge31" class="edge"><title>Node21&#45;&gt;Node23</title>
<path fill="none" stroke="midnightblue" d="M626.759,-266.469C603.962,-256.721 565.927,-240.039 534,-224 533.018,-223.507 532.02,-222.996 531.014,-222.474"/>
<polygon fill="midnightblue" stroke="midnightblue" points="532.483,-219.29 522.019,-217.633 529.166,-225.454 532.483,-219.29"/>
</g>
<!-- Node24 -->
<g id="node24" class="node"><title>Node24</title>
<polygon fill="white" stroke="#bfbfbf" points="191,-130.5 191,-149.5 243,-149.5 243,-130.5 191,-130.5"/>
<text text-anchor="middle" x="217" y="-137.5" font-family="Helvetica,sans-Serif" font-size="10.00">memory</text>
</g>
<!-- Node21&#45;&gt;Node24 -->
<g id="edge32" class="edge"><title>Node21&#45;&gt;Node24</title>
<path fill="none" stroke="midnightblue" d="M588.739,-272.186C477.696,-266.233 244.555,-250.675 220,-224 204.163,-206.795 207.187,-178.08 211.531,-159.343"/>
<polygon fill="midnightblue" stroke="midnightblue" points="214.928,-160.189 214.109,-149.625 208.162,-158.394 214.928,-160.189"/>
</g>
<!-- Node25 -->
<g id="node25" class="node"><title>Node25</title>
<polygon fill="white" stroke="#bfbfbf" points="543,-198.5 543,-217.5 573,-217.5 573,-198.5 543,-198.5"/>
<text text-anchor="middle" x="558" y="-205.5" font-family="Helvetica,sans-Serif" font-size="10.00">set</text>
</g>
<!-- Node21&#45;&gt;Node25 -->
<g id="edge33" class="edge"><title>Node21&#45;&gt;Node25</title>
<path fill="none" stroke="midnightblue" d="M635.365,-266.372C620.84,-255.6 595.76,-237.002 578.101,-223.906"/>
<polygon fill="midnightblue" stroke="midnightblue" points="579.755,-220.776 569.638,-217.63 575.586,-226.398 579.755,-220.776"/>
</g>
<!-- Node26 -->
<g id="node26" class="node"><title>Node26</title>
<polygon fill="white" stroke="#bfbfbf" points="591,-198.5 591,-217.5 669,-217.5 669,-198.5 591,-198.5"/>
<text text-anchor="middle" x="630" y="-205.5" font-family="Helvetica,sans-Serif" font-size="10.00">unordered_set</text>
</g>
<!-- Node21&#45;&gt;Node26 -->
<g id="edge34" class="edge"><title>Node21&#45;&gt;Node26</title>
<path fill="none" stroke="midnightblue" d="M644.778,-266.372C642.272,-256.643 638.121,-240.528 634.855,-227.85"/>
<polygon fill="midnightblue" stroke="midnightblue" points="638.161,-226.652 632.277,-217.841 631.382,-228.398 638.161,-226.652"/>
</g>
<!-- Node27 -->
<g id="node27" class="node"><title>Node27</title>
<g id="a_node27"><a xlink:href="handle_8h.html" target="_top" xlink:title="shad/runtime/handle.h">
<polygon fill="white" stroke="black" points="763.5,-198.5 763.5,-217.5 876.5,-217.5 876.5,-198.5 763.5,-198.5"/>
<text text-anchor="middle" x="820" y="-205.5" font-family="Helvetica,sans-Serif" font-size="10.00">shad/runtime/handle.h</text>
</a>
</g>
</g>
<!-- Node21&#45;&gt;Node27 -->
<g id="edge38" class="edge"><title>Node21&#45;&gt;Node27</title>
<path fill="none" stroke="midnightblue" d="M669.617,-266.372C699.877,-254.827 753.703,-234.293 788.081,-221.177"/>
<polygon fill="midnightblue" stroke="midnightblue" points="789.556,-224.36 797.652,-217.526 787.061,-217.82 789.556,-224.36"/>
</g>
<!-- Node28 -->
<g id="node28" class="node"><title>Node28</title>
<g id="a_node28"><a xlink:href="available__mappings_8h.html" target="_top" xlink:title="shad/runtime/mappings\l/available_mappings.h">
<polygon fill="white" stroke="black" points="636,-125 636,-155 754,-155 754,-125 636,-125"/>
<text text-anchor="start" x="644" y="-143" font-family="Helvetica,sans-Serif" font-size="10.00">shad/runtime/mappings</text>
<text text-anchor="middle" x="695" y="-132" font-family="Helvetica,sans-Serif" font-size="10.00">/available_mappings.h</text>
</a>
</g>
</g>
<!-- Node21&#45;&gt;Node28 -->
<g id="edge45" class="edge"><title>Node21&#45;&gt;Node28</title>
<path fill="none" stroke="midnightblue" d="M665.162,-266.386C680.547,-257.975 701.565,-243.583 711,-224 720.052,-205.212 714.124,-181.707 707.057,-164.51"/>
<polygon fill="midnightblue" stroke="midnightblue" points="710.163,-162.883 702.87,-155.198 703.779,-165.754 710.163,-162.883"/>
</g>
<!-- Node29 -->
<g id="node29" class="node"><title>Node29</title>
<g id="a_node29"><a xlink:href="synchronous__interface_8h.html" target="_top" xlink:title="shad/runtime/synchronous\l_interface.h">
<polygon fill="white" stroke="black" points="229.5,-193 229.5,-223 360.5,-223 360.5,-193 229.5,-193"/>
<text text-anchor="start" x="237.5" y="-211" font-family="Helvetica,sans-Serif" font-size="10.00">shad/runtime/synchronous</text>
<text text-anchor="middle" x="295" y="-200" font-family="Helvetica,sans-Serif" font-size="10.00">_interface.h</text>
</a>
</g>
</g>
<!-- Node21&#45;&gt;Node29 -->
<g id="edge47" class="edge"><title>Node21&#45;&gt;Node29</title>
<path fill="none" stroke="midnightblue" d="M601.343,-266.439C542.922,-255.485 440.911,-236.358 370.765,-223.206"/>
<polygon fill="midnightblue" stroke="midnightblue" points="371.13,-219.713 360.656,-221.31 369.84,-226.593 371.13,-219.713"/>
</g>
<!-- Node27&#45;&gt;Node8 -->
<g id="edge39" class="edge"><title>Node27&#45;&gt;Node8</title>
<path fill="none" stroke="midnightblue" d="M876.914,-198.708C969.36,-185.239 1150,-158.921 1231.43,-147.056"/>
<polygon fill="midnightblue" stroke="midnightblue" points="1232.39,-150.453 1241.78,-145.548 1231.38,-143.527 1232.39,-150.453"/>
</g>
<!-- Node27&#45;&gt;Node17 -->
<g id="edge40" class="edge"><title>Node27&#45;&gt;Node17</title>
<path fill="none" stroke="midnightblue" d="M819.547,-198.49C817.823,-173.8 809.81,-101.051 774,-56 762.641,-41.7098 745.417,-31.0937 730.041,-23.773"/>
<polygon fill="midnightblue" stroke="midnightblue" points="731.333,-20.5171 720.775,-19.6373 728.48,-26.9093 731.333,-20.5171"/>
</g>
<!-- Node27&#45;&gt;Node18 -->
<g id="edge41" class="edge"><title>Node27&#45;&gt;Node18</title>
<path fill="none" stroke="midnightblue" d="M825.577,-198.208C838.631,-177.629 871.509,-125.797 890.622,-95.6667"/>
<polygon fill="midnightblue" stroke="midnightblue" points="893.673,-97.3905 896.074,-87.0713 887.762,-93.6409 893.673,-97.3905"/>
</g>
<!-- Node27&#45;&gt;Node20 -->
<g id="edge42" class="edge"><title>Node27&#45;&gt;Node20</title>
<path fill="none" stroke="midnightblue" d="M815.312,-198.325C806.465,-182.439 786.111,-148.096 763,-124 752.068,-112.602 738.392,-101.82 726.176,-93.1322"/>
<polygon fill="midnightblue" stroke="midnightblue" points="727.815,-90.0096 717.6,-87.1969 723.831,-95.7657 727.815,-90.0096"/>
</g>
<!-- Node28&#45;&gt;Node20 -->
<g id="edge46" class="edge"><title>Node28&#45;&gt;Node20</title>
<path fill="none" stroke="midnightblue" d="M695,-124.679C695,-116.722 695,-106.605 695,-97.4356"/>
<polygon fill="midnightblue" stroke="midnightblue" points="698.5,-97.293 695,-87.2931 691.5,-97.2931 698.5,-97.293"/>
</g>
<!-- Node29&#45;&gt;Node10 -->
<g id="edge48" class="edge"><title>Node29&#45;&gt;Node10</title>
<path fill="none" stroke="midnightblue" d="M315.397,-192.679C331.014,-181.713 352.475,-166.645 368.194,-155.609"/>
<polygon fill="midnightblue" stroke="midnightblue" points="370.525,-158.249 376.698,-149.638 366.502,-152.52 370.525,-158.249"/>
</g>
<!-- Node29&#45;&gt;Node15 -->
<g id="edge51" class="edge"><title>Node29&#45;&gt;Node15</title>
<path fill="none" stroke="midnightblue" d="M351.524,-192.922C400.703,-180.674 470.973,-163.173 516.043,-151.948"/>
<polygon fill="midnightblue" stroke="midnightblue" points="516.958,-155.327 525.816,-149.514 515.266,-148.534 516.958,-155.327"/>
</g>
<!-- Node29&#45;&gt;Node16 -->
<g id="edge49" class="edge"><title>Node29&#45;&gt;Node16</title>
<path fill="none" stroke="midnightblue" d="M295,-192.66C295,-168.32 295,-118.933 295,-91.8373"/>
<polygon fill="midnightblue" stroke="midnightblue" points="298.5,-91.7275 295,-81.7275 291.5,-91.7276 298.5,-91.7275"/>
</g>
<!-- Node29&#45;&gt;Node24 -->
<g id="edge50" class="edge"><title>Node29&#45;&gt;Node24</title>
<path fill="none" stroke="midnightblue" d="M278.075,-192.679C265.432,-181.981 248.173,-167.377 235.226,-156.422"/>
<polygon fill="midnightblue" stroke="midnightblue" points="237.328,-153.616 227.433,-149.828 232.807,-158.96 237.328,-153.616"/>
</g>
<!-- Node30&#45;&gt;Node2 -->
<g id="edge53" class="edge"><title>Node30&#45;&gt;Node2</title>
<path fill="none" stroke="midnightblue" d="M673.936,-405.782C567.182,-406.226 325.137,-401.987 127,-360 123.106,-359.175 119.083,-358.076 115.138,-356.847"/>
<polygon fill="midnightblue" stroke="midnightblue" points="116.211,-353.515 105.617,-353.605 113.955,-360.142 116.211,-353.515"/>
</g>
<!-- Node30&#45;&gt;Node4 -->
<g id="edge54" class="edge"><title>Node30&#45;&gt;Node4</title>
<path fill="none" stroke="midnightblue" d="M686.354,-396.447C603.191,-379.4 413.848,-338.777 258,-292 185.855,-270.346 103.239,-238.642 59.6521,-221.357"/>
<polygon fill="midnightblue" stroke="midnightblue" points="60.7856,-218.042 50.2003,-217.592 58.1951,-224.545 60.7856,-218.042"/>
</g>
<!-- Node30&#45;&gt;Node5 -->
<g id="edge55" class="edge"><title>Node30&#45;&gt;Node5</title>
<path fill="none" stroke="midnightblue" d="M733.301,-396.222C745.818,-371.498 784.626,-300.449 836,-260 839.8,-257.008 891.759,-235.561 926.341,-221.449"/>
<polygon fill="midnightblue" stroke="midnightblue" points="928.071,-224.523 936.011,-217.509 925.43,-218.041 928.071,-224.523"/>
</g>
<!-- Node30&#45;&gt;Node13 -->
<g id="edge60" class="edge"><title>Node30&#45;&gt;Node13</title>
<path fill="none" stroke="midnightblue" d="M743.105,-396.403C776.384,-376.119 860.479,-324.86 906.934,-296.545"/>
<polygon fill="midnightblue" stroke="midnightblue" points="908.98,-299.397 915.697,-291.204 905.337,-293.42 908.98,-299.397"/>
</g>
<!-- Node30&#45;&gt;Node21 -->
<g id="edge61" class="edge"><title>Node30&#45;&gt;Node21</title>
<path fill="none" stroke="midnightblue" d="M728.009,-396.249C725.972,-381.227 720.245,-350.024 706,-328 696.592,-313.454 681.85,-300.709 669.457,-291.598"/>
<polygon fill="midnightblue" stroke="midnightblue" points="671.153,-288.512 660.957,-285.632 667.131,-294.242 671.153,-288.512"/>
</g>
<!-- Node30&#45;&gt;Node31 -->
<g id="edge56" class="edge"><title>Node30&#45;&gt;Node31</title>
<path fill="none" stroke="midnightblue" d="M717.251,-396.403C704.099,-386.78 682.566,-371.024 666.802,-359.489"/>
<polygon fill="midnightblue" stroke="midnightblue" points="668.864,-356.661 658.727,-353.581 664.73,-362.31 668.864,-356.661"/>
</g>
<!-- Node31&#45;&gt;Node5 -->
<g id="edge57" class="edge"><title>Node31&#45;&gt;Node5</title>
<path fill="none" stroke="midnightblue" d="M658.08,-334.46C684.292,-314.314 748.761,-265.128 760,-260 825.917,-229.921 849.766,-245.364 919,-224 921.796,-223.137 924.677,-222.163 927.544,-221.136"/>
<polygon fill="midnightblue" stroke="midnightblue" points="928.975,-224.336 937.089,-217.523 926.498,-217.79 928.975,-224.336"/>
</g>
<!-- Node31&#45;&gt;Node21 -->
<g id="edge59" class="edge"><title>Node31&#45;&gt;Node21</title>
<path fill="none" stroke="midnightblue" d="M647,-334.372C647,-324.643 647,-308.528 647,-295.85"/>
<polygon fill="midnightblue" stroke="midnightblue" points="650.5,-295.841 647,-285.841 643.5,-295.841 650.5,-295.841"/>
</g>
<!-- Node31&#45;&gt;Node24 -->
<g id="edge58" class="edge"><title>Node31&#45;&gt;Node24</title>
<path fill="none" stroke="midnightblue" d="M596.185,-337.007C490.49,-323.388 252.796,-286.366 205,-224 190.719,-205.366 199.19,-177.276 207.416,-159.035"/>
<polygon fill="midnightblue" stroke="midnightblue" points="210.68,-160.329 211.937,-149.809 204.394,-157.249 210.68,-160.329"/>
</g>
</g>
</svg>
