<?xml version="1.0" encoding="UTF-8" standalone="no"?>
<!DOCTYPE svg PUBLIC "-//W3C//DTD SVG 1.1//EN"
 "http://www.w3.org/Graphics/SVG/1.1/DTD/svg11.dtd">
<!-- Generated by graphviz version 2.36.0 (20140111.2315)
 -->
<!-- Title: include/shad/core/impl/modifyng_sequence_ops.h Pages: 1 -->
<svg width="1098pt" height="480pt"
 viewBox="0.00 0.00 1098.00 480.00" xmlns="http://www.w3.org/2000/svg" xmlns:xlink="http://www.w3.org/1999/xlink">
<g id="graph0" class="graph" transform="scale(1 1) rotate(0) translate(4 476)">
<title>include/shad/core/impl/modifyng_sequence_ops.h</title>
<polygon fill="white" stroke="none" points="-4,4 -4,-476 1094,-476 1094,4 -4,4"/>
<!-- Node1 -->
<g id="node1" class="node"><title>Node1</title>
<polygon fill="#bfbfbf" stroke="black" points="778,-441 778,-471 914,-471 914,-441 778,-441"/>
<text text-anchor="start" x="786" y="-459" font-family="Helvetica,sans-Serif" font-size="10.00">include/shad/core/impl</text>
<text text-anchor="middle" x="846" y="-448" font-family="Helvetica,sans-Serif" font-size="10.00">/modifyng_sequence_ops.h</text>
</g>
<!-- Node2 -->
<g id="node2" class="node"><title>Node2</title>
<polygon fill="white" stroke="#bfbfbf" points="57,-328.5 57,-347.5 113,-347.5 113,-328.5 57,-328.5"/>
<text text-anchor="middle" x="85" y="-335.5" font-family="Helvetica,sans-Serif" font-size="10.00">algorithm</text>
</g>
<!-- Node1&#45;&gt;Node2 -->
<g id="edge1" class="edge"><title>Node1&#45;&gt;Node2</title>
<path fill="none" stroke="midnightblue" d="M777.86,-446.324C649.903,-429.707 365.106,-391.184 127,-348 125.762,-347.775 124.504,-347.541 123.236,-347.3"/>
<polygon fill="midnightblue" stroke="midnightblue" points="123.909,-343.866 113.418,-345.344 122.542,-350.731 123.909,-343.866"/>
</g>
<!-- Node3 -->
<g id="node3" class="node"><title>Node3</title>
<polygon fill="white" stroke="#bfbfbf" points="950,-384.5 950,-403.5 996,-403.5 996,-384.5 950,-384.5"/>
<text text-anchor="middle" x="973" y="-391.5" font-family="Helvetica,sans-Serif" font-size="10.00">cstring</text>
</g>
<!-- Node1&#45;&gt;Node3 -->
<g id="edge2" class="edge"><title>Node1&#45;&gt;Node3</title>
<path fill="none" stroke="midnightblue" d="M875.776,-440.933C896.915,-430.946 925.079,-417.64 945.652,-407.92"/>
<polygon fill="midnightblue" stroke="midnightblue" points="947.25,-411.036 954.797,-403.6 944.26,-404.707 947.25,-411.036"/>
</g>
<!-- Node4 -->
<g id="node4" class="node"><title>Node4</title>
<polygon fill="white" stroke="#bfbfbf" points="-0.5,-198.5 -0.5,-217.5 58.5,-217.5 58.5,-198.5 -0.5,-198.5"/>
<text text-anchor="middle" x="29" y="-205.5" font-family="Helvetica,sans-Serif" font-size="10.00">functional</text>
</g>
<!-- Node1&#45;&gt;Node4 -->
<g id="edge3" class="edge"><title>Node1&#45;&gt;Node4</title>
<path fill="none" stroke="midnightblue" d="M777.961,-450.712C594.151,-438.466 98.0305,-400.788 48,-348 17.0865,-315.382 20.8641,-257.578 25.385,-227.835"/>
<polygon fill="midnightblue" stroke="midnightblue" points="28.8998,-228.048 27.1452,-217.599 22.001,-226.861 28.8998,-228.048"/>
</g>
<!-- Node5 -->
<g id="node5" class="node"><title>Node5</title>
<polygon fill="white" stroke="#bfbfbf" points="997.5,-198.5 997.5,-217.5 1044.5,-217.5 1044.5,-198.5 997.5,-198.5"/>
<text text-anchor="middle" x="1021" y="-205.5" font-family="Helvetica,sans-Serif" font-size="10.00">iterator</text>
</g>
<!-- Node1&#45;&gt;Node5 -->
<g id="edge4" class="edge"><title>Node1&#45;&gt;Node5</title>
<path fill="none" stroke="midnightblue" d="M853.086,-440.953C870.191,-407.712 916.103,-322.343 967,-260 977.658,-246.946 991.507,-233.929 1002.51,-224.313"/>
<polygon fill="midnightblue" stroke="midnightblue" points="1004.95,-226.837 1010.27,-217.679 1000.4,-221.516 1004.95,-226.837"/>
</g>
<!-- Node6 -->
<g id="node6" class="node"><title>Node6</title>
<polygon fill="white" stroke="#bfbfbf" points="1014,-384.5 1014,-403.5 1052,-403.5 1052,-384.5 1014,-384.5"/>
<text text-anchor="middle" x="1033" y="-391.5" font-family="Helvetica,sans-Serif" font-size="10.00">tuple</text>
</g>
<!-- Node1&#45;&gt;Node6 -->
<g id="edge5" class="edge"><title>Node1&#45;&gt;Node6</title>
<path fill="none" stroke="midnightblue" d="M889.87,-440.937C919.618,-431.398 960.086,-418.419 1004,-404.32"/>
<polygon fill="midnightblue" stroke="midnightblue" points="1005.27,-407.588 1013.72,-401.199 1003.13,-400.923 1005.27,-407.588"/>
</g>
<!-- Node7 -->
<g id="node7" class="node"><title>Node7</title>
<g id="a_node7"><a xlink:href="execution_8h.html" target="_top" xlink:title="shad/core/execution.h">
<polygon fill="white" stroke="black" points="976.5,-266.5 976.5,-285.5 1089.5,-285.5 1089.5,-266.5 976.5,-266.5"/>
<text text-anchor="middle" x="1033" y="-273.5" font-family="Helvetica,sans-Serif" font-size="10.00">shad/core/execution.h</text>
</a>
</g>
</g>
<!-- Node1&#45;&gt;Node7 -->
<g id="edge6" class="edge"><title>Node1&#45;&gt;Node7</title>
<path fill="none" stroke="midnightblue" d="M860.987,-440.734C895.488,-407.893 980.325,-327.139 1016.37,-292.832"/>
<polygon fill="midnightblue" stroke="midnightblue" points="1019.21,-294.954 1024.04,-285.524 1014.39,-289.884 1019.21,-294.954"/>
</g>
<!-- Node9 -->
<g id="node9" class="node"><title>Node9</title>
<g id="a_node9"><a xlink:href="utils_8h.html" target="_top" xlink:title="shad/core/impl/utils.h">
<polygon fill="white" stroke="black" points="594,-384.5 594,-403.5 704,-403.5 704,-384.5 594,-384.5"/>
<text text-anchor="middle" x="649" y="-391.5" font-family="Helvetica,sans-Serif" font-size="10.00">shad/core/impl/utils.h</text>
</a>
</g>
</g>
<!-- Node1&#45;&gt;Node9 -->
<g id="edge8" class="edge"><title>Node1&#45;&gt;Node9</title>
<path fill="none" stroke="midnightblue" d="M799.812,-440.933C765.435,-430.462 719.081,-416.345 686.876,-406.536"/>
<polygon fill="midnightblue" stroke="midnightblue" points="687.536,-403.078 676.95,-403.513 685.496,-409.774 687.536,-403.078"/>
</g>
<!-- Node12 -->
<g id="node12" class="node"><title>Node12</title>
<g id="a_node12"><a xlink:href="runtime_8h.html" target="_top" xlink:title="shad/runtime/runtime.h">
<polygon fill="white" stroke="black" points="512,-266.5 512,-285.5 628,-285.5 628,-266.5 512,-266.5"/>
<text text-anchor="middle" x="570" y="-273.5" font-family="Helvetica,sans-Serif" font-size="10.00">shad/runtime/runtime.h</text>
</a>
</g>
</g>
<!-- Node1&#45;&gt;Node12 -->
<g id="edge53" class="edge"><title>Node1&#45;&gt;Node12</title>
<path fill="none" stroke="midnightblue" d="M823.88,-440.734C772.099,-407.339 643.497,-324.4 591.917,-291.135"/>
<polygon fill="midnightblue" stroke="midnightblue" points="593.518,-288.003 583.218,-285.524 589.725,-293.886 593.518,-288.003"/>
</g>
<!-- Node29 -->
<g id="node29" class="node"><title>Node29</title>
<g id="a_node29"><a xlink:href="distributed__iterator__traits_8h.html" target="_top" xlink:title="shad/distributed_iterator\l_traits.h">
<polygon fill="white" stroke="black" points="684.5,-261 684.5,-291 805.5,-291 805.5,-261 684.5,-261"/>
<text text-anchor="start" x="692.5" y="-279" font-family="Helvetica,sans-Serif" font-size="10.00">shad/distributed_iterator</text>
<text text-anchor="middle" x="745" y="-268" font-family="Helvetica,sans-Serif" font-size="10.00">_traits.h</text>
</a>
</g>
</g>
<!-- Node1&#45;&gt;Node29 -->
<g id="edge52" class="edge"><title>Node1&#45;&gt;Node29</title>
<path fill="none" stroke="midnightblue" d="M837.905,-440.734C820.545,-410.139 779.59,-337.961 758.33,-300.492"/>
<polygon fill="midnightblue" stroke="midnightblue" points="761.112,-298.304 753.133,-291.334 755.024,-301.758 761.112,-298.304"/>
</g>
<!-- Node8 -->
<g id="node8" class="node"><title>Node8</title>
<polygon fill="white" stroke="#bfbfbf" points="1003,-62.5 1003,-81.5 1065,-81.5 1065,-62.5 1003,-62.5"/>
<text text-anchor="middle" x="1034" y="-69.5" font-family="Helvetica,sans-Serif" font-size="10.00">type_traits</text>
</g>
<!-- Node7&#45;&gt;Node8 -->
<g id="edge7" class="edge"><title>Node7&#45;&gt;Node8</title>
<path fill="none" stroke="midnightblue" d="M1037.59,-266.274C1042.53,-256.352 1050.07,-239.513 1053,-224 1061.97,-176.556 1048.45,-119.903 1039.98,-91.3635"/>
<polygon fill="midnightblue" stroke="midnightblue" points="1043.25,-90.083 1036.94,-81.5718 1036.56,-92.16 1043.25,-90.083"/>
</g>
<!-- Node9&#45;&gt;Node2 -->
<g id="edge9" class="edge"><title>Node9&#45;&gt;Node2</title>
<path fill="none" stroke="midnightblue" d="M593.873,-390.519C498.365,-385.714 296.124,-373.309 127,-348 125.755,-347.814 124.492,-347.613 123.219,-347.4"/>
<polygon fill="midnightblue" stroke="midnightblue" points="123.848,-343.957 113.378,-345.584 122.577,-350.841 123.848,-343.957"/>
</g>
<!-- Node9&#45;&gt;Node4 -->
<g id="edge10" class="edge"><title>Node9&#45;&gt;Node4</title>
<path fill="none" stroke="midnightblue" d="M593.882,-384.658C508.38,-370.808 339.325,-339.771 202,-292 146.445,-272.674 85.2256,-240.522 52.5841,-222.431"/>
<polygon fill="midnightblue" stroke="midnightblue" points="54.2223,-219.337 43.7861,-217.511 50.8054,-225.447 54.2223,-219.337"/>
</g>
<!-- Node9&#45;&gt;Node5 -->
<g id="edge11" class="edge"><title>Node9&#45;&gt;Node5</title>
<path fill="none" stroke="midnightblue" d="M662.822,-384.443C707.78,-356.646 848.21,-270.092 870,-260 909.025,-241.926 956.325,-226.999 987.466,-218.06"/>
<polygon fill="midnightblue" stroke="midnightblue" points="988.7,-221.349 997.372,-215.263 986.797,-214.612 988.7,-221.349"/>
</g>
<!-- Node10 -->
<g id="node10" class="node"><title>Node10</title>
<g id="a_node10"><a xlink:href="iterator_8h.html" target="_top" xlink:title="shad/core/iterator.h">
<polygon fill="white" stroke="black" points="519.5,-328.5 519.5,-347.5 620.5,-347.5 620.5,-328.5 519.5,-328.5"/>
<text text-anchor="middle" x="570" y="-335.5" font-family="Helvetica,sans-Serif" font-size="10.00">shad/core/iterator.h</text>
</a>
</g>
</g>
<!-- Node9&#45;&gt;Node10 -->
<g id="edge12" class="edge"><title>Node9&#45;&gt;Node10</title>
<path fill="none" stroke="midnightblue" d="M636.307,-384.324C624.099,-375.979 605.422,-363.212 590.997,-353.352"/>
<polygon fill="midnightblue" stroke="midnightblue" points="592.892,-350.408 582.661,-347.655 588.942,-356.187 592.892,-350.408"/>
</g>
<!-- Node9&#45;&gt;Node12 -->
<g id="edge51" class="edge"><title>Node9&#45;&gt;Node12</title>
<path fill="none" stroke="midnightblue" d="M647.897,-384.357C645.899,-371.256 640.745,-345.995 629,-328 619.532,-313.493 604.79,-300.748 592.412,-291.627"/>
<polygon fill="midnightblue" stroke="midnightblue" points="594.117,-288.547 583.925,-285.653 590.087,-294.271 594.117,-288.547"/>
</g>
<!-- Node9&#45;&gt;Node29 -->
<g id="edge48" class="edge"><title>Node9&#45;&gt;Node29</title>
<path fill="none" stroke="midnightblue" d="M656.216,-384.281C671.089,-366.309 705.548,-324.671 726.897,-298.875"/>
<polygon fill="midnightblue" stroke="midnightblue" points="729.647,-301.042 733.326,-291.106 724.254,-296.579 729.647,-301.042"/>
</g>
<!-- Node10&#45;&gt;Node5 -->
<g id="edge13" class="edge"><title>Node10&#45;&gt;Node5</title>
<path fill="none" stroke="midnightblue" d="M583.39,-328.373C596.898,-319.554 618.239,-305.301 636,-292 653.947,-278.56 654.364,-268.767 675,-260 801.848,-206.109 849.334,-257.584 983,-224 986.065,-223.23 989.215,-222.273 992.327,-221.219"/>
<polygon fill="midnightblue" stroke="midnightblue" points="993.836,-224.391 1001.99,-217.623 991.395,-217.831 993.836,-224.391"/>
</g>
<!-- Node11 -->
<g id="node11" class="node"><title>Node11</title>
<polygon fill="white" stroke="#bfbfbf" points="99,-130.5 99,-149.5 151,-149.5 151,-130.5 99,-130.5"/>
<text text-anchor="middle" x="125" y="-137.5" font-family="Helvetica,sans-Serif" font-size="10.00">memory</text>
</g>
<!-- Node10&#45;&gt;Node11 -->
<g id="edge14" class="edge"><title>Node10&#45;&gt;Node11</title>
<path fill="none" stroke="midnightblue" d="M519.404,-330.362C417.709,-315.987 193.807,-278.798 142,-224 125.766,-206.828 123.212,-178.521 123.562,-159.817"/>
<polygon fill="midnightblue" stroke="midnightblue" points="127.069,-159.756 124.059,-149.598 120.077,-159.417 127.069,-159.756"/>
</g>
<!-- Node10&#45;&gt;Node12 -->
<g id="edge15" class="edge"><title>Node10&#45;&gt;Node12</title>
<path fill="none" stroke="midnightblue" d="M570,-328.403C570,-319.938 570,-306.728 570,-295.82"/>
<polygon fill="midnightblue" stroke="midnightblue" points="573.5,-295.581 570,-285.581 566.5,-295.581 573.5,-295.581"/>
</g>
<!-- Node12&#45;&gt;Node4 -->
<g id="edge18" class="edge"><title>Node12&#45;&gt;Node4</title>
<path fill="none" stroke="midnightblue" d="M511.866,-269.861C424.581,-261.848 254.582,-245.083 111,-224 97.0794,-221.956 81.9059,-219.301 68.4388,-216.794"/>
<polygon fill="midnightblue" stroke="midnightblue" points="68.9982,-213.338 58.5219,-214.919 67.6972,-220.216 68.9982,-213.338"/>
</g>
<!-- Node12&#45;&gt;Node5 -->
<g id="edge20" class="edge"><title>Node12&#45;&gt;Node5</title>
<path fill="none" stroke="midnightblue" d="M607.611,-266.422C618.65,-264.106 630.773,-261.758 642,-260 792.564,-236.429 834.991,-260.31 983,-224 986.238,-223.206 989.567,-222.198 992.846,-221.081"/>
<polygon fill="midnightblue" stroke="midnightblue" points="994.248,-224.293 1002.39,-217.51 991.794,-217.737 994.248,-224.293"/>
</g>
<!-- Node12&#45;&gt;Node11 -->
<g id="edge22" class="edge"><title>Node12&#45;&gt;Node11</title>
<path fill="none" stroke="midnightblue" d="M511.793,-273.833C415.019,-270.875 226.285,-260.465 172,-224 149.372,-208.8 136.412,-178.831 130.042,-159.37"/>
<polygon fill="midnightblue" stroke="midnightblue" points="133.324,-158.129 127.095,-149.558 126.619,-160.142 133.324,-158.129"/>
</g>
<!-- Node13 -->
<g id="node13" class="node"><title>Node13</title>
<polygon fill="white" stroke="#bfbfbf" points="202.5,-130.5 202.5,-149.5 251.5,-149.5 251.5,-130.5 202.5,-130.5"/>
<text text-anchor="middle" x="227" y="-137.5" font-family="Helvetica,sans-Serif" font-size="10.00">cstddef</text>
</g>
<!-- Node12&#45;&gt;Node13 -->
<g id="edge16" class="edge"><title>Node12&#45;&gt;Node13</title>
<path fill="none" stroke="midnightblue" d="M511.799,-271.523C408.846,-264.774 203.393,-248.389 182,-224 163.76,-203.206 189.12,-173.761 208.525,-156.105"/>
<polygon fill="midnightblue" stroke="midnightblue" points="210.832,-158.738 216.078,-149.533 206.237,-153.458 210.832,-158.738"/>
</g>
<!-- Node14 -->
<g id="node14" class="node"><title>Node14</title>
<polygon fill="white" stroke="#bfbfbf" points="315,-62.5 315,-81.5 361,-81.5 361,-62.5 315,-62.5"/>
<text text-anchor="middle" x="338" y="-69.5" font-family="Helvetica,sans-Serif" font-size="10.00">cstdint</text>
</g>
<!-- Node12&#45;&gt;Node14 -->
<g id="edge17" class="edge"><title>Node12&#45;&gt;Node14</title>
<path fill="none" stroke="midnightblue" d="M511.777,-266.473C461.499,-257.944 394.027,-243.324 375,-224 339.414,-187.857 336.135,-123.41 336.908,-91.6882"/>
<polygon fill="midnightblue" stroke="midnightblue" points="340.409,-91.7308 337.324,-81.5952 333.415,-91.4426 340.409,-91.7308"/>
</g>
<!-- Node15 -->
<g id="node15" class="node"><title>Node15</title>
<polygon fill="white" stroke="#bfbfbf" points="455,-198.5 455,-217.5 509,-217.5 509,-198.5 455,-198.5"/>
<text text-anchor="middle" x="482" y="-205.5" font-family="Helvetica,sans-Serif" font-size="10.00">iostream</text>
</g>
<!-- Node12&#45;&gt;Node15 -->
<g id="edge19" class="edge"><title>Node12&#45;&gt;Node15</title>
<path fill="none" stroke="midnightblue" d="M558.496,-266.372C544.134,-255.6 519.336,-237.002 501.875,-223.906"/>
<polygon fill="midnightblue" stroke="midnightblue" points="503.607,-220.83 493.507,-217.63 499.407,-226.431 503.607,-220.83"/>
</g>
<!-- Node16 -->
<g id="node16" class="node"><title>Node16</title>
<polygon fill="white" stroke="#bfbfbf" points="527.5,-198.5 527.5,-217.5 562.5,-217.5 562.5,-198.5 527.5,-198.5"/>
<text text-anchor="middle" x="545" y="-205.5" font-family="Helvetica,sans-Serif" font-size="10.00">map</text>
</g>
<!-- Node12&#45;&gt;Node16 -->
<g id="edge21" class="edge"><title>Node12&#45;&gt;Node16</title>
<path fill="none" stroke="midnightblue" d="M566.732,-266.372C563.009,-256.544 556.819,-240.202 551.995,-227.467"/>
<polygon fill="midnightblue" stroke="midnightblue" points="555.164,-225.953 548.349,-217.841 548.618,-228.433 555.164,-225.953"/>
</g>
<!-- Node17 -->
<g id="node17" class="node"><title>Node17</title>
<polygon fill="white" stroke="#bfbfbf" points="581,-198.5 581,-217.5 611,-217.5 611,-198.5 581,-198.5"/>
<text text-anchor="middle" x="596" y="-205.5" font-family="Helvetica,sans-Serif" font-size="10.00">set</text>
</g>
<!-- Node12&#45;&gt;Node17 -->
<g id="edge23" class="edge"><title>Node12&#45;&gt;Node17</title>
<path fill="none" stroke="midnightblue" d="M573.399,-266.372C577.27,-256.544 583.708,-240.202 588.725,-227.467"/>
<polygon fill="midnightblue" stroke="midnightblue" points="592.108,-228.428 592.517,-217.841 585.595,-225.862 592.108,-228.428"/>
</g>
<!-- Node18 -->
<g id="node18" class="node"><title>Node18</title>
<polygon fill="white" stroke="#bfbfbf" points="629,-198.5 629,-217.5 707,-217.5 707,-198.5 629,-198.5"/>
<text text-anchor="middle" x="668" y="-205.5" font-family="Helvetica,sans-Serif" font-size="10.00">unordered_set</text>
</g>
<!-- Node12&#45;&gt;Node18 -->
<g id="edge24" class="edge"><title>Node12&#45;&gt;Node18</title>
<path fill="none" stroke="midnightblue" d="M582.812,-266.372C599.026,-255.452 627.183,-236.489 646.664,-223.369"/>
<polygon fill="midnightblue" stroke="midnightblue" points="648.846,-226.12 655.185,-217.63 644.936,-220.313 648.846,-226.12"/>
</g>
<!-- Node19 -->
<g id="node19" class="node"><title>Node19</title>
<polygon fill="white" stroke="#bfbfbf" points="725,-198.5 725,-217.5 765,-217.5 765,-198.5 725,-198.5"/>
<text text-anchor="middle" x="745" y="-205.5" font-family="Helvetica,sans-Serif" font-size="10.00">utility</text>
</g>
<!-- Node12&#45;&gt;Node19 -->
<g id="edge25" class="edge"><title>Node12&#45;&gt;Node19</title>
<path fill="none" stroke="midnightblue" d="M598.165,-266.467C627.902,-257.157 675.929,-241.259 716,-224 717.399,-223.397 718.824,-222.756 720.254,-222.091"/>
<polygon fill="midnightblue" stroke="midnightblue" points="722.123,-225.071 729.542,-217.508 719.026,-218.794 722.123,-225.071"/>
</g>
<!-- Node20 -->
<g id="node20" class="node"><title>Node20</title>
<polygon fill="white" stroke="#bfbfbf" points="783,-198.5 783,-217.5 827,-217.5 827,-198.5 783,-198.5"/>
<text text-anchor="middle" x="805" y="-205.5" font-family="Helvetica,sans-Serif" font-size="10.00">vector</text>
</g>
<!-- Node12&#45;&gt;Node20 -->
<g id="edge26" class="edge"><title>Node12&#45;&gt;Node20</title>
<path fill="none" stroke="midnightblue" d="M608.039,-266.477C658.218,-255.063 743.712,-234.981 774,-224 775.855,-223.327 777.747,-222.579 779.635,-221.786"/>
<polygon fill="midnightblue" stroke="midnightblue" points="781.211,-224.914 788.862,-217.584 778.31,-218.543 781.211,-224.914"/>
</g>
<!-- Node21 -->
<g id="node21" class="node"><title>Node21</title>
<polygon fill="white" stroke="#bfbfbf" points="649,-0.5 649,-19.5 753,-19.5 753,-0.5 649,-0.5"/>
<text text-anchor="middle" x="701" y="-7.5" font-family="Helvetica,sans-Serif" font-size="10.00">shad/config/config.h</text>
</g>
<!-- Node12&#45;&gt;Node21 -->
<g id="edge27" class="edge"><title>Node12&#45;&gt;Node21</title>
<path fill="none" stroke="midnightblue" d="M511.771,-268.098C483.966,-261.547 453.095,-248.798 436,-224 427.928,-212.291 429.803,-204.801 436,-192 481.42,-98.1834 601.983,-44.8227 663.602,-22.8921"/>
<polygon fill="midnightblue" stroke="midnightblue" points="665.021,-26.1043 673.322,-19.5201 662.727,-19.491 665.021,-26.1043"/>
</g>
<!-- Node22 -->
<g id="node22" class="node"><title>Node22</title>
<g id="a_node22"><a xlink:href="handle_8h.html" target="_top" xlink:title="shad/runtime/handle.h">
<polygon fill="white" stroke="black" points="827.5,-130.5 827.5,-149.5 940.5,-149.5 940.5,-130.5 827.5,-130.5"/>
<text text-anchor="middle" x="884" y="-137.5" font-family="Helvetica,sans-Serif" font-size="10.00">shad/runtime/handle.h</text>
</a>
</g>
</g>
<!-- Node12&#45;&gt;Node22 -->
<g id="edge28" class="edge"><title>Node12&#45;&gt;Node22</title>
<path fill="none" stroke="midnightblue" d="M609.56,-266.488C620.088,-264.297 631.462,-261.996 642,-260 735.471,-242.296 779.7,-284.641 853,-224 872.319,-208.017 879.605,-178.736 882.348,-159.572"/>
<polygon fill="midnightblue" stroke="midnightblue" points="885.825,-159.971 883.495,-149.635 878.871,-159.168 885.825,-159.971"/>
</g>
<!-- Node23 -->
<g id="node23" class="node"><title>Node23</title>
<g id="a_node23"><a xlink:href="mapping__traits_8h.html" target="_top" xlink:title="shad/runtime/mapping\l_traits.h">
<polygon fill="white" stroke="black" points="830.5,-57 830.5,-87 943.5,-87 943.5,-57 830.5,-57"/>
<text text-anchor="start" x="838.5" y="-75" font-family="Helvetica,sans-Serif" font-size="10.00">shad/runtime/mapping</text>
<text text-anchor="middle" x="887" y="-64" font-family="Helvetica,sans-Serif" font-size="10.00">_traits.h</text>
</a>
</g>
</g>
<!-- Node12&#45;&gt;Node23 -->
<g id="edge40" class="edge"><title>Node12&#45;&gt;Node23</title>
<path fill="none" stroke="midnightblue" d="M602.697,-266.493C612.116,-264.205 622.432,-261.853 632,-260 740.481,-238.986 778.723,-272.516 878,-224 917.257,-204.815 931.845,-196.185 949,-156 954.584,-142.92 955.073,-136.86 949,-124 943.071,-111.446 932.37,-100.941 921.507,-92.7898"/>
<polygon fill="midnightblue" stroke="midnightblue" points="923.448,-89.8763 913.245,-87.0208 919.44,-95.6156 923.448,-89.8763"/>
</g>
<!-- Node26 -->
<g id="node26" class="node"><title>Node26</title>
<g id="a_node26"><a xlink:href="locality_8h.html" target="_top" xlink:title="shad/runtime/locality.h">
<polygon fill="white" stroke="black" points="548.5,-130.5 548.5,-149.5 663.5,-149.5 663.5,-130.5 548.5,-130.5"/>
<text text-anchor="middle" x="606" y="-137.5" font-family="Helvetica,sans-Serif" font-size="10.00">shad/runtime/locality.h</text>
</a>
</g>
</g>
<!-- Node12&#45;&gt;Node26 -->
<g id="edge35" class="edge"><title>Node12&#45;&gt;Node26</title>
<path fill="none" stroke="midnightblue" d="M532.97,-266.429C487.406,-254.093 419.174,-228.706 446,-192 467.046,-163.202 504.519,-150.281 537.911,-144.639"/>
<polygon fill="midnightblue" stroke="midnightblue" points="538.748,-148.053 548.121,-143.113 537.713,-141.13 538.748,-148.053"/>
</g>
<!-- Node27 -->
<g id="node27" class="node"><title>Node27</title>
<g id="a_node27"><a xlink:href="available__mappings_8h.html" target="_top" xlink:title="shad/runtime/mappings\l/available_mappings.h">
<polygon fill="white" stroke="black" points="685,-125 685,-155 803,-155 803,-125 685,-125"/>
<text text-anchor="start" x="693" y="-143" font-family="Helvetica,sans-Serif" font-size="10.00">shad/runtime/mappings</text>
<text text-anchor="middle" x="744" y="-132" font-family="Helvetica,sans-Serif" font-size="10.00">/available_mappings.h</text>
</a>
</g>
</g>
<!-- Node12&#45;&gt;Node27 -->
<g id="edge41" class="edge"><title>Node12&#45;&gt;Node27</title>
<path fill="none" stroke="midnightblue" d="M610.335,-266.441C620.65,-264.295 631.728,-262.028 642,-260 684.803,-251.55 807.121,-257.56 835,-224 844.088,-213.06 842.19,-204.271 835,-192 826.66,-177.766 812.733,-167.204 798.251,-159.503"/>
<polygon fill="midnightblue" stroke="midnightblue" points="799.728,-156.329 789.208,-155.071 796.647,-162.615 799.728,-156.329"/>
</g>
<!-- Node28 -->
<g id="node28" class="node"><title>Node28</title>
<g id="a_node28"><a xlink:href="synchronous__interface_8h.html" target="_top" xlink:title="shad/runtime/synchronous\l_interface.h">
<polygon fill="white" stroke="black" points="191.5,-193 191.5,-223 322.5,-223 322.5,-193 191.5,-193"/>
<text text-anchor="start" x="199.5" y="-211" font-family="Helvetica,sans-Serif" font-size="10.00">shad/runtime/synchronous</text>
<text text-anchor="middle" x="257" y="-200" font-family="Helvetica,sans-Serif" font-size="10.00">_interface.h</text>
</a>
</g>
</g>
<!-- Node12&#45;&gt;Node28 -->
<g id="edge43" class="edge"><title>Node12&#45;&gt;Node28</title>
<path fill="none" stroke="midnightblue" d="M529.402,-266.439C479.732,-255.966 394.625,-238.02 332.734,-224.969"/>
<polygon fill="midnightblue" stroke="midnightblue" points="333.13,-221.476 322.623,-222.837 331.686,-228.326 333.13,-221.476"/>
</g>
<!-- Node22&#45;&gt;Node8 -->
<g id="edge29" class="edge"><title>Node22&#45;&gt;Node8</title>
<path fill="none" stroke="midnightblue" d="M903.61,-130.372C929.438,-119.007 975.066,-98.9309 1004.92,-85.7961"/>
<polygon fill="midnightblue" stroke="midnightblue" points="1006.64,-88.8615 1014.39,-81.6305 1003.82,-82.4543 1006.64,-88.8615"/>
</g>
<!-- Node22&#45;&gt;Node21 -->
<g id="edge30" class="edge"><title>Node22&#45;&gt;Node21</title>
<path fill="none" stroke="midnightblue" d="M873.247,-130.4C860.665,-120.312 839.23,-103.052 821,-88 803.974,-73.942 801.212,-68.4834 783,-56 765.421,-43.9504 744.315,-32.4284 727.918,-24.0601"/>
<polygon fill="midnightblue" stroke="midnightblue" points="729.377,-20.8766 718.87,-19.5172 726.236,-27.1323 729.377,-20.8766"/>
</g>
<!-- Node22&#45;&gt;Node23 -->
<g id="edge31" class="edge"><title>Node22&#45;&gt;Node23</title>
<path fill="none" stroke="midnightblue" d="M884.392,-130.372C884.774,-121.971 885.372,-108.811 885.899,-97.2126"/>
<polygon fill="midnightblue" stroke="midnightblue" points="889.398,-97.3301 886.355,-87.1815 882.405,-97.0122 889.398,-97.3301"/>
</g>
<!-- Node25 -->
<g id="node25" class="node"><title>Node25</title>
<g id="a_node25"><a xlink:href="available__traits__mappings_8h.html" target="_top" xlink:title="shad/runtime/mappings\l/available_traits_mappings.h">
<polygon fill="white" stroke="black" points="634,-57 634,-87 774,-87 774,-57 634,-57"/>
<text text-anchor="start" x="642" y="-75" font-family="Helvetica,sans-Serif" font-size="10.00">shad/runtime/mappings</text>
<text text-anchor="middle" x="704" y="-64" font-family="Helvetica,sans-Serif" font-size="10.00">/available_traits_mappings.h</text>
</a>
</g>
</g>
<!-- Node22&#45;&gt;Node25 -->
<g id="edge34" class="edge"><title>Node22&#45;&gt;Node25</title>
<path fill="none" stroke="midnightblue" d="M860.468,-130.372C833.03,-120.311 786.969,-103.422 751.908,-90.5662"/>
<polygon fill="midnightblue" stroke="midnightblue" points="752.929,-87.2128 742.335,-87.0562 750.519,-93.7849 752.929,-87.2128"/>
</g>
<!-- Node23&#45;&gt;Node21 -->
<g id="edge33" class="edge"><title>Node23&#45;&gt;Node21</title>
<path fill="none" stroke="midnightblue" d="M843.391,-56.9327C811.074,-46.5077 767.547,-32.4667 737.157,-22.6635"/>
<polygon fill="midnightblue" stroke="midnightblue" points="737.981,-19.2518 727.389,-19.5127 735.832,-25.9138 737.981,-19.2518"/>
</g>
<!-- Node24 -->
<g id="node24" class="node"><title>Node24</title>
<polygon fill="white" stroke="#bfbfbf" points="866.5,-0.5 866.5,-19.5 907.5,-19.5 907.5,-0.5 866.5,-0.5"/>
<text text-anchor="middle" x="887" y="-7.5" font-family="Helvetica,sans-Serif" font-size="10.00">string</text>
</g>
<!-- Node23&#45;&gt;Node24 -->
<g id="edge32" class="edge"><title>Node23&#45;&gt;Node24</title>
<path fill="none" stroke="midnightblue" d="M887,-56.7808C887,-48.7812 887,-38.6887 887,-30.0168"/>
<polygon fill="midnightblue" stroke="midnightblue" points="890.5,-29.7305 887,-19.7305 883.5,-29.7306 890.5,-29.7305"/>
</g>
<!-- Node26&#45;&gt;Node14 -->
<g id="edge36" class="edge"><title>Node26&#45;&gt;Node14</title>
<path fill="none" stroke="midnightblue" d="M571.238,-130.439C519.298,-117.648 422.101,-93.7115 371.129,-81.1585"/>
<polygon fill="midnightblue" stroke="midnightblue" points="371.828,-77.7264 361.282,-78.7335 370.155,-84.5233 371.828,-77.7264"/>
</g>
<!-- Node26&#45;&gt;Node21 -->
<g id="edge37" class="edge"><title>Node26&#45;&gt;Node21</title>
<path fill="none" stroke="midnightblue" d="M605.831,-130.329C605.945,-114.149 608.264,-78.9233 625,-56 635.458,-41.6755 651.98,-31.1089 666.952,-23.8286"/>
<polygon fill="midnightblue" stroke="midnightblue" points="668.82,-26.8248 676.487,-19.5125 665.934,-20.4476 668.82,-26.8248"/>
</g>
<!-- Node26&#45;&gt;Node23 -->
<g id="edge38" class="edge"><title>Node26&#45;&gt;Node23</title>
<path fill="none" stroke="midnightblue" d="M642.448,-130.439C687.486,-119.861 764.978,-101.66 820.672,-88.5789"/>
<polygon fill="midnightblue" stroke="midnightblue" points="821.521,-91.9747 830.456,-86.2808 819.921,-85.1601 821.521,-91.9747"/>
</g>
<!-- Node26&#45;&gt;Node25 -->
<g id="edge39" class="edge"><title>Node26&#45;&gt;Node25</title>
<path fill="none" stroke="midnightblue" d="M618.812,-130.372C632.876,-120.9 655.926,-105.376 674.505,-92.8638"/>
<polygon fill="midnightblue" stroke="midnightblue" points="676.603,-95.6705 682.943,-87.1815 672.693,-89.8645 676.603,-95.6705"/>
</g>
<!-- Node27&#45;&gt;Node25 -->
<g id="edge42" class="edge"><title>Node27&#45;&gt;Node25</title>
<path fill="none" stroke="midnightblue" d="M735.321,-124.679C730.236,-116.29 723.696,-105.499 717.909,-95.9495"/>
<polygon fill="midnightblue" stroke="midnightblue" points="720.839,-94.031 712.662,-87.2931 714.852,-97.6591 720.839,-94.031"/>
</g>
<!-- Node28&#45;&gt;Node11 -->
<g id="edge46" class="edge"><title>Node28&#45;&gt;Node11</title>
<path fill="none" stroke="midnightblue" d="M228.683,-192.841C205.851,-181.425 173.97,-165.485 151.607,-154.303"/>
<polygon fill="midnightblue" stroke="midnightblue" points="152.873,-151.024 142.364,-149.682 149.743,-157.285 152.873,-151.024"/>
</g>
<!-- Node28&#45;&gt;Node13 -->
<g id="edge44" class="edge"><title>Node28&#45;&gt;Node13</title>
<path fill="none" stroke="midnightblue" d="M250.49,-192.679C245.998,-182.796 239.991,-169.579 235.176,-158.986"/>
<polygon fill="midnightblue" stroke="midnightblue" points="238.337,-157.484 231.013,-149.828 231.965,-160.38 238.337,-157.484"/>
</g>
<!-- Node28&#45;&gt;Node14 -->
<g id="edge45" class="edge"><title>Node28&#45;&gt;Node14</title>
<path fill="none" stroke="midnightblue" d="M265.668,-192.66C280.644,-167.885 311.305,-117.161 327.478,-90.4073"/>
<polygon fill="midnightblue" stroke="midnightblue" points="330.547,-92.0961 332.724,-81.7275 324.556,-88.4749 330.547,-92.0961"/>
</g>
<!-- Node28&#45;&gt;Node26 -->
<g id="edge47" class="edge"><title>Node28&#45;&gt;Node26</title>
<path fill="none" stroke="midnightblue" d="M322.644,-194.586C388.577,-182.117 489.029,-163.121 550.933,-151.414"/>
<polygon fill="midnightblue" stroke="midnightblue" points="551.725,-154.826 560.901,-149.529 550.425,-147.948 551.725,-154.826"/>
</g>
<!-- Node29&#45;&gt;Node5 -->
<g id="edge49" class="edge"><title>Node29&#45;&gt;Node5</title>
<path fill="none" stroke="midnightblue" d="M805.756,-262.524C870.551,-249.132 966.163,-229.089 983,-224 985.801,-223.154 988.685,-222.19 991.554,-221.17"/>
<polygon fill="midnightblue" stroke="midnightblue" points="992.982,-224.372 1001.1,-217.568 990.511,-217.823 992.982,-224.372"/>
</g>
<!-- Node29&#45;&gt;Node26 -->
<g id="edge50" class="edge"><title>Node29&#45;&gt;Node26</title>
<path fill="none" stroke="midnightblue" d="M789.724,-260.812C807.038,-252.885 825.054,-241.069 835,-224 842.161,-211.712 843.897,-203.096 835,-192 833.578,-190.227 722.702,-166.109 655.771,-151.685"/>
<polygon fill="midnightblue" stroke="midnightblue" points="656.345,-148.228 645.832,-149.544 654.871,-155.071 656.345,-148.228"/>
</g>
</g>
</svg>
