<?xml version="1.0" encoding="UTF-8" standalone="no"?>
<!DOCTYPE svg PUBLIC "-//W3C//DTD SVG 1.1//EN"
 "http://www.w3.org/Graphics/SVG/1.1/DTD/svg11.dtd">
<!-- Generated by graphviz version 2.36.0 (20140111.2315)
 -->
<!-- Title: include/shad/core/impl/non_modifyng_sequence_ops.h Pages: 1 -->
<svg width="1500pt" height="424pt"
 viewBox="0.00 0.00 1500.00 424.00" xmlns="http://www.w3.org/2000/svg" xmlns:xlink="http://www.w3.org/1999/xlink">
<g id="graph0" class="graph" transform="scale(1 1) rotate(0) translate(4 420)">
<title>include/shad/core/impl/non_modifyng_sequence_ops.h</title>
<polygon fill="white" stroke="none" points="-4,4 -4,-420 1496,-420 1496,4 -4,4"/>
<!-- Node1 -->
<g id="node1" class="node"><title>Node1</title>
<polygon fill="#bfbfbf" stroke="black" points="307.5,-385 307.5,-415 464.5,-415 464.5,-385 307.5,-385"/>
<text text-anchor="start" x="315.5" y="-403" font-family="Helvetica,sans-Serif" font-size="10.00">include/shad/core/impl</text>
<text text-anchor="middle" x="386" y="-392" font-family="Helvetica,sans-Serif" font-size="10.00">/non_modifyng_sequence_ops.h</text>
</g>
<!-- Node2 -->
<g id="node2" class="node"><title>Node2</title>
<polygon fill="white" stroke="#bfbfbf" points="0,-328.5 0,-347.5 56,-347.5 56,-328.5 0,-328.5"/>
<text text-anchor="middle" x="28" y="-335.5" font-family="Helvetica,sans-Serif" font-size="10.00">algorithm</text>
</g>
<!-- Node1&#45;&gt;Node2 -->
<g id="edge1" class="edge"><title>Node1&#45;&gt;Node2</title>
<path fill="none" stroke="midnightblue" d="M307.239,-387.431C243.191,-377.749 150.56,-363.122 70,-348 68.7632,-347.768 67.507,-347.527 66.2392,-347.28"/>
<polygon fill="midnightblue" stroke="midnightblue" points="66.9221,-343.847 56.4269,-345.297 65.5353,-350.709 66.9221,-343.847"/>
</g>
<!-- Node3 -->
<g id="node3" class="node"><title>Node3</title>
<polygon fill="white" stroke="#bfbfbf" points="1110.5,-130.5 1110.5,-149.5 1159.5,-149.5 1159.5,-130.5 1110.5,-130.5"/>
<text text-anchor="middle" x="1135" y="-137.5" font-family="Helvetica,sans-Serif" font-size="10.00">cstddef</text>
</g>
<!-- Node1&#45;&gt;Node3 -->
<g id="edge2" class="edge"><title>Node1&#45;&gt;Node3</title>
<path fill="none" stroke="midnightblue" d="M464.667,-397.481C646.906,-392.611 1091.77,-372.571 1214,-292 1256.71,-263.844 1300.14,-234.048 1271,-192 1248.42,-159.413 1202.27,-147.616 1170.03,-143.365"/>
<polygon fill="midnightblue" stroke="midnightblue" points="1170.01,-139.84 1159.68,-142.193 1169.22,-146.796 1170.01,-139.84"/>
</g>
<!-- Node4 -->
<g id="node4" class="node"><title>Node4</title>
<polygon fill="white" stroke="#bfbfbf" points="447,-62.5 447,-81.5 493,-81.5 493,-62.5 447,-62.5"/>
<text text-anchor="middle" x="470" y="-69.5" font-family="Helvetica,sans-Serif" font-size="10.00">cstdint</text>
</g>
<!-- Node1&#45;&gt;Node4 -->
<g id="edge3" class="edge"><title>Node1&#45;&gt;Node4</title>
<path fill="none" stroke="midnightblue" d="M314.43,-384.948C225.125,-365.321 84,-326.479 84,-277 84,-277 84,-277 84,-207 84,-132.633 342.927,-90.1958 436.648,-77.271"/>
<polygon fill="midnightblue" stroke="midnightblue" points="437.283,-80.717 446.723,-75.908 436.344,-73.7802 437.283,-80.717"/>
</g>
<!-- Node5 -->
<g id="node5" class="node"><title>Node5</title>
<polygon fill="white" stroke="#bfbfbf" points="112.5,-198.5 112.5,-217.5 171.5,-217.5 171.5,-198.5 112.5,-198.5"/>
<text text-anchor="middle" x="142" y="-205.5" font-family="Helvetica,sans-Serif" font-size="10.00">functional</text>
</g>
<!-- Node1&#45;&gt;Node5 -->
<g id="edge4" class="edge"><title>Node1&#45;&gt;Node5</title>
<path fill="none" stroke="midnightblue" d="M362.159,-384.844C330.214,-365.462 272.298,-328.85 227,-292 200.738,-270.636 173.209,-242.546 156.834,-225.139"/>
<polygon fill="midnightblue" stroke="midnightblue" points="159.123,-222.46 149.746,-217.527 154,-227.231 159.123,-222.46"/>
</g>
<!-- Node6 -->
<g id="node6" class="node"><title>Node6</title>
<polygon fill="white" stroke="#bfbfbf" points="295.5,-198.5 295.5,-217.5 342.5,-217.5 342.5,-198.5 295.5,-198.5"/>
<text text-anchor="middle" x="319" y="-205.5" font-family="Helvetica,sans-Serif" font-size="10.00">iterator</text>
</g>
<!-- Node1&#45;&gt;Node6 -->
<g id="edge5" class="edge"><title>Node1&#45;&gt;Node6</title>
<path fill="none" stroke="midnightblue" d="M386.653,-384.801C387.286,-358.732 385.993,-302.057 366,-260 359.474,-246.271 347.953,-233.68 337.952,-224.443"/>
<polygon fill="midnightblue" stroke="midnightblue" points="340.206,-221.764 330.382,-217.796 335.588,-227.024 340.206,-221.764"/>
</g>
<!-- Node7 -->
<g id="node7" class="node"><title>Node7</title>
<g id="a_node7"><a xlink:href="execution_8h.html" target="_top" xlink:title="shad/core/execution.h">
<polygon fill="white" stroke="black" points="1379.5,-328.5 1379.5,-347.5 1492.5,-347.5 1492.5,-328.5 1379.5,-328.5"/>
<text text-anchor="middle" x="1436" y="-335.5" font-family="Helvetica,sans-Serif" font-size="10.00">shad/core/execution.h</text>
</a>
</g>
</g>
<!-- Node1&#45;&gt;Node7 -->
<g id="edge6" class="edge"><title>Node1&#45;&gt;Node7</title>
<path fill="none" stroke="midnightblue" d="M464.5,-396.884C630.817,-391.966 1030.83,-377.843 1365,-348 1366.47,-347.869 1367.96,-347.73 1369.45,-347.586"/>
<polygon fill="midnightblue" stroke="midnightblue" points="1369.87,-351.061 1379.46,-346.55 1369.15,-344.098 1369.87,-351.061"/>
</g>
<!-- Node9 -->
<g id="node9" class="node"><title>Node9</title>
<g id="a_node9"><a xlink:href="distributed__iterator__traits_8h.html" target="_top" xlink:title="shad/distributed_iterator\l_traits.h">
<polygon fill="white" stroke="black" points="236.5,-261 236.5,-291 357.5,-291 357.5,-261 236.5,-261"/>
<text text-anchor="start" x="244.5" y="-279" font-family="Helvetica,sans-Serif" font-size="10.00">shad/distributed_iterator</text>
<text text-anchor="middle" x="297" y="-268" font-family="Helvetica,sans-Serif" font-size="10.00">_traits.h</text>
</a>
</g>
</g>
<!-- Node1&#45;&gt;Node9 -->
<g id="edge8" class="edge"><title>Node1&#45;&gt;Node9</title>
<path fill="none" stroke="midnightblue" d="M375.441,-384.526C360.036,-363.409 331.272,-323.979 313.184,-299.184"/>
<polygon fill="midnightblue" stroke="midnightblue" points="315.992,-297.095 307.271,-291.079 310.337,-301.22 315.992,-297.095"/>
</g>
<!-- Node17 -->
<g id="node17" class="node"><title>Node17</title>
<g id="a_node17"><a xlink:href="runtime_8h.html" target="_top" xlink:title="shad/runtime/runtime.h">
<polygon fill="white" stroke="black" points="682,-266.5 682,-285.5 798,-285.5 798,-266.5 682,-266.5"/>
<text text-anchor="middle" x="740" y="-273.5" font-family="Helvetica,sans-Serif" font-size="10.00">shad/runtime/runtime.h</text>
</a>
</g>
</g>
<!-- Node1&#45;&gt;Node17 -->
<g id="edge19" class="edge"><title>Node1&#45;&gt;Node17</title>
<path fill="none" stroke="midnightblue" d="M426.954,-384.886C497.411,-360.604 640.29,-311.363 705.793,-288.789"/>
<polygon fill="midnightblue" stroke="midnightblue" points="706.935,-292.097 715.249,-285.53 704.654,-285.479 706.935,-292.097"/>
</g>
<!-- Node27 -->
<g id="node27" class="node"><title>Node27</title>
<g id="a_node27"><a xlink:href="impl__patterns_8h.html" target="_top" xlink:title="impl_patterns.h">
<polygon fill="white" stroke="black" points="936.5,-328.5 936.5,-347.5 1019.5,-347.5 1019.5,-328.5 936.5,-328.5"/>
<text text-anchor="middle" x="978" y="-335.5" font-family="Helvetica,sans-Serif" font-size="10.00">impl_patterns.h</text>
</a>
</g>
</g>
<!-- Node1&#45;&gt;Node27 -->
<g id="edge46" class="edge"><title>Node1&#45;&gt;Node27</title>
<path fill="none" stroke="midnightblue" d="M464.613,-391.032C587.613,-378.566 822.227,-354.788 926.194,-344.251"/>
<polygon fill="midnightblue" stroke="midnightblue" points="926.837,-347.703 936.433,-343.213 926.131,-340.739 926.837,-347.703"/>
</g>
<!-- Node8 -->
<g id="node8" class="node"><title>Node8</title>
<polygon fill="white" stroke="#bfbfbf" points="1282,-130.5 1282,-149.5 1344,-149.5 1344,-130.5 1282,-130.5"/>
<text text-anchor="middle" x="1313" y="-137.5" font-family="Helvetica,sans-Serif" font-size="10.00">type_traits</text>
</g>
<!-- Node7&#45;&gt;Node8 -->
<g id="edge7" class="edge"><title>Node7&#45;&gt;Node8</title>
<path fill="none" stroke="midnightblue" d="M1432.92,-328.267C1424.42,-304.814 1398.96,-239.045 1365,-192 1355.33,-178.601 1341.98,-165.591 1331.23,-156.065"/>
<polygon fill="midnightblue" stroke="midnightblue" points="1333.48,-153.384 1323.62,-149.511 1328.91,-158.688 1333.48,-153.384"/>
</g>
<!-- Node9&#45;&gt;Node6 -->
<g id="edge10" class="edge"><title>Node9&#45;&gt;Node6</title>
<path fill="none" stroke="midnightblue" d="M301.774,-260.679C305,-250.999 309.292,-238.123 312.785,-227.645"/>
<polygon fill="midnightblue" stroke="midnightblue" points="316.215,-228.422 316.057,-217.828 309.574,-226.208 316.215,-228.422"/>
</g>
<!-- Node10 -->
<g id="node10" class="node"><title>Node10</title>
<polygon fill="white" stroke="#bfbfbf" points="189.5,-198.5 189.5,-217.5 238.5,-217.5 238.5,-198.5 189.5,-198.5"/>
<text text-anchor="middle" x="214" y="-205.5" font-family="Helvetica,sans-Serif" font-size="10.00">cassert</text>
</g>
<!-- Node9&#45;&gt;Node10 -->
<g id="edge9" class="edge"><title>Node9&#45;&gt;Node10</title>
<path fill="none" stroke="midnightblue" d="M278.99,-260.679C265.408,-249.879 246.821,-235.098 233.002,-224.11"/>
<polygon fill="midnightblue" stroke="midnightblue" points="235.108,-221.313 225.102,-217.828 230.751,-226.792 235.108,-221.313"/>
</g>
<!-- Node11 -->
<g id="node11" class="node"><title>Node11</title>
<g id="a_node11"><a xlink:href="locality_8h.html" target="_top" xlink:title="shad/runtime/locality.h">
<polygon fill="white" stroke="black" points="545.5,-130.5 545.5,-149.5 660.5,-149.5 660.5,-130.5 545.5,-130.5"/>
<text text-anchor="middle" x="603" y="-137.5" font-family="Helvetica,sans-Serif" font-size="10.00">shad/runtime/locality.h</text>
</a>
</g>
</g>
<!-- Node9&#45;&gt;Node11 -->
<g id="edge11" class="edge"><title>Node9&#45;&gt;Node11</title>
<path fill="none" stroke="midnightblue" d="M289.289,-260.834C280.574,-242.677 269.598,-211.252 286,-192 290.045,-187.252 443.482,-164.2 535.372,-150.769"/>
<polygon fill="midnightblue" stroke="midnightblue" points="536.046,-154.208 545.436,-149.301 535.035,-147.281 536.046,-154.208"/>
</g>
<!-- Node11&#45;&gt;Node4 -->
<g id="edge12" class="edge"><title>Node11&#45;&gt;Node4</title>
<path fill="none" stroke="midnightblue" d="M585.613,-130.372C562.911,-119.106 522.957,-99.2794 496.48,-86.1403"/>
<polygon fill="midnightblue" stroke="midnightblue" points="497.905,-82.9405 487.392,-81.6305 494.794,-89.2109 497.905,-82.9405"/>
</g>
<!-- Node12 -->
<g id="node12" class="node"><title>Node12</title>
<polygon fill="white" stroke="#bfbfbf" points="633,-62.5 633,-81.5 687,-81.5 687,-62.5 633,-62.5"/>
<text text-anchor="middle" x="660" y="-69.5" font-family="Helvetica,sans-Serif" font-size="10.00">iostream</text>
</g>
<!-- Node11&#45;&gt;Node12 -->
<g id="edge13" class="edge"><title>Node11&#45;&gt;Node12</title>
<path fill="none" stroke="midnightblue" d="M610.452,-130.372C619.363,-120.053 634.478,-102.551 645.676,-89.5854"/>
<polygon fill="midnightblue" stroke="midnightblue" points="648.477,-91.6971 652.364,-81.8411 643.179,-87.1217 648.477,-91.6971"/>
</g>
<!-- Node13 -->
<g id="node13" class="node"><title>Node13</title>
<polygon fill="white" stroke="#bfbfbf" points="693,-0.5 693,-19.5 797,-19.5 797,-0.5 693,-0.5"/>
<text text-anchor="middle" x="745" y="-7.5" font-family="Helvetica,sans-Serif" font-size="10.00">shad/config/config.h</text>
</g>
<!-- Node11&#45;&gt;Node13 -->
<g id="edge14" class="edge"><title>Node11&#45;&gt;Node13</title>
<path fill="none" stroke="midnightblue" d="M602.709,-130.274C602.635,-113.684 604.842,-77.3524 624,-56 639.316,-38.9294 661.721,-28.3158 683.1,-21.7247"/>
<polygon fill="midnightblue" stroke="midnightblue" points="684.154,-25.0639 692.822,-18.9707 682.246,-18.3289 684.154,-25.0639"/>
</g>
<!-- Node14 -->
<g id="node14" class="node"><title>Node14</title>
<g id="a_node14"><a xlink:href="mapping__traits_8h.html" target="_top" xlink:title="shad/runtime/mapping\l_traits.h">
<polygon fill="white" stroke="black" points="920.5,-57 920.5,-87 1033.5,-87 1033.5,-57 920.5,-57"/>
<text text-anchor="start" x="928.5" y="-75" font-family="Helvetica,sans-Serif" font-size="10.00">shad/runtime/mapping</text>
<text text-anchor="middle" x="977" y="-64" font-family="Helvetica,sans-Serif" font-size="10.00">_traits.h</text>
</a>
</g>
</g>
<!-- Node11&#45;&gt;Node14 -->
<g id="edge15" class="edge"><title>Node11&#45;&gt;Node14</title>
<path fill="none" stroke="midnightblue" d="M651.511,-130.439C717.485,-118.797 835.782,-97.9208 910.136,-84.7996"/>
<polygon fill="midnightblue" stroke="midnightblue" points="911.086,-88.186 920.326,-83.0014 909.87,-81.2925 911.086,-88.186"/>
</g>
<!-- Node16 -->
<g id="node16" class="node"><title>Node16</title>
<g id="a_node16"><a xlink:href="available__traits__mappings_8h.html" target="_top" xlink:title="shad/runtime/mappings\l/available_traits_mappings.h">
<polygon fill="white" stroke="black" points="706,-57 706,-87 846,-87 846,-57 706,-57"/>
<text text-anchor="start" x="714" y="-75" font-family="Helvetica,sans-Serif" font-size="10.00">shad/runtime/mappings</text>
<text text-anchor="middle" x="776" y="-64" font-family="Helvetica,sans-Serif" font-size="10.00">/available_traits_mappings.h</text>
</a>
</g>
</g>
<!-- Node11&#45;&gt;Node16 -->
<g id="edge18" class="edge"><title>Node11&#45;&gt;Node16</title>
<path fill="none" stroke="midnightblue" d="M625.617,-130.372C651.875,-120.354 695.88,-103.566 729.523,-90.7312"/>
<polygon fill="midnightblue" stroke="midnightblue" points="731.06,-93.8908 739.156,-87.0562 728.565,-87.3506 731.06,-93.8908"/>
</g>
<!-- Node14&#45;&gt;Node13 -->
<g id="edge17" class="edge"><title>Node14&#45;&gt;Node13</title>
<path fill="none" stroke="midnightblue" d="M922.606,-56.9327C881.42,-46.2811 825.637,-31.8545 787.65,-22.0302"/>
<polygon fill="midnightblue" stroke="midnightblue" points="788.474,-18.6281 777.916,-19.5127 786.721,-25.4051 788.474,-18.6281"/>
</g>
<!-- Node15 -->
<g id="node15" class="node"><title>Node15</title>
<polygon fill="white" stroke="#bfbfbf" points="956.5,-0.5 956.5,-19.5 997.5,-19.5 997.5,-0.5 956.5,-0.5"/>
<text text-anchor="middle" x="977" y="-7.5" font-family="Helvetica,sans-Serif" font-size="10.00">string</text>
</g>
<!-- Node14&#45;&gt;Node15 -->
<g id="edge16" class="edge"><title>Node14&#45;&gt;Node15</title>
<path fill="none" stroke="midnightblue" d="M977,-56.7808C977,-48.7812 977,-38.6887 977,-30.0168"/>
<polygon fill="midnightblue" stroke="midnightblue" points="980.5,-29.7305 977,-19.7305 973.5,-29.7306 980.5,-29.7305"/>
</g>
<!-- Node17&#45;&gt;Node3 -->
<g id="edge20" class="edge"><title>Node17&#45;&gt;Node3</title>
<path fill="none" stroke="midnightblue" d="M798.192,-270.272C850.477,-264.397 928.425,-251.542 991,-224 1013.13,-214.259 1014.39,-204.643 1035,-192 1058.52,-177.573 1086.61,-163.505 1107.02,-153.812"/>
<polygon fill="midnightblue" stroke="midnightblue" points="1108.53,-156.97 1116.09,-149.551 1105.55,-150.634 1108.53,-156.97"/>
</g>
<!-- Node17&#45;&gt;Node4 -->
<g id="edge21" class="edge"><title>Node17&#45;&gt;Node4</title>
<path fill="none" stroke="midnightblue" d="M681.985,-267.966C602.698,-257.871 468.295,-238.856 451,-224 416.405,-194.285 412.6,-166.926 428,-124 432.902,-110.336 443.223,-97.7172 452.406,-88.45"/>
<polygon fill="midnightblue" stroke="midnightblue" points="454.875,-90.9323 459.708,-81.5044 450.05,-85.8601 454.875,-90.9323"/>
</g>
<!-- Node17&#45;&gt;Node5 -->
<g id="edge22" class="edge"><title>Node17&#45;&gt;Node5</title>
<path fill="none" stroke="midnightblue" d="M681.891,-275.117C579.194,-274.135 359.508,-266.673 180,-224 176.757,-223.229 173.424,-222.236 170.143,-221.127"/>
<polygon fill="midnightblue" stroke="midnightblue" points="171.193,-217.783 160.6,-217.566 168.745,-224.341 171.193,-217.783"/>
</g>
<!-- Node17&#45;&gt;Node6 -->
<g id="edge24" class="edge"><title>Node17&#45;&gt;Node6</title>
<path fill="none" stroke="midnightblue" d="M681.731,-271.665C605.916,-266.324 469.807,-253.306 357,-224 353.941,-223.205 350.795,-222.233 347.686,-221.168"/>
<polygon fill="midnightblue" stroke="midnightblue" points="348.621,-217.781 338.029,-217.561 346.171,-224.339 348.621,-217.781"/>
</g>
<!-- Node17&#45;&gt;Node11 -->
<g id="edge37" class="edge"><title>Node17&#45;&gt;Node11</title>
<path fill="none" stroke="midnightblue" d="M721.768,-266.333C704.292,-257.415 677.857,-242.27 659,-224 638.869,-204.496 621.88,-176.632 612.062,-158.678"/>
<polygon fill="midnightblue" stroke="midnightblue" points="615.033,-156.809 607.256,-149.614 608.849,-160.089 615.033,-156.809"/>
</g>
<!-- Node17&#45;&gt;Node12 -->
<g id="edge23" class="edge"><title>Node17&#45;&gt;Node12</title>
<path fill="none" stroke="midnightblue" d="M729.031,-266.481C717.927,-257.241 701.13,-241.454 692,-224 685.893,-212.326 670.285,-129.481 663.377,-91.6988"/>
<polygon fill="midnightblue" stroke="midnightblue" points="666.764,-90.7619 661.533,-81.5488 659.877,-92.0135 666.764,-90.7619"/>
</g>
<!-- Node17&#45;&gt;Node13 -->
<g id="edge31" class="edge"><title>Node17&#45;&gt;Node13</title>
<path fill="none" stroke="midnightblue" d="M681.783,-269.526C594.865,-260.786 439.458,-242.745 422,-224 391.654,-191.419 409.063,-167.981 416,-124 420.949,-92.6234 413.74,-76.505 438,-56 473.928,-25.6325 603.733,-15.7555 682.595,-12.5448"/>
<polygon fill="midnightblue" stroke="midnightblue" points="683.036,-16.0305 692.896,-12.1514 682.769,-9.03564 683.036,-16.0305"/>
</g>
<!-- Node17&#45;&gt;Node14 -->
<g id="edge38" class="edge"><title>Node17&#45;&gt;Node14</title>
<path fill="none" stroke="midnightblue" d="M798.039,-268.786C854.901,-261.444 935.992,-247.201 957,-224 988.415,-189.305 985.951,-130.407 981.438,-97.3562"/>
<polygon fill="midnightblue" stroke="midnightblue" points="984.857,-96.5614 979.874,-87.211 977.938,-97.6274 984.857,-96.5614"/>
</g>
<!-- Node18 -->
<g id="node18" class="node"><title>Node18</title>
<polygon fill="white" stroke="#bfbfbf" points="1043.5,-198.5 1043.5,-217.5 1078.5,-217.5 1078.5,-198.5 1043.5,-198.5"/>
<text text-anchor="middle" x="1061" y="-205.5" font-family="Helvetica,sans-Serif" font-size="10.00">map</text>
</g>
<!-- Node17&#45;&gt;Node18 -->
<g id="edge25" class="edge"><title>Node17&#45;&gt;Node18</title>
<path fill="none" stroke="midnightblue" d="M798.1,-269.304C857.236,-262.455 951.038,-248.673 1029,-224 1031.14,-223.323 1033.32,-222.534 1035.49,-221.677"/>
<polygon fill="midnightblue" stroke="midnightblue" points="1036.96,-224.852 1044.73,-217.64 1034.16,-218.437 1036.96,-224.852"/>
</g>
<!-- Node19 -->
<g id="node19" class="node"><title>Node19</title>
<polygon fill="white" stroke="#bfbfbf" points="437,-130.5 437,-149.5 489,-149.5 489,-130.5 437,-130.5"/>
<text text-anchor="middle" x="463" y="-137.5" font-family="Helvetica,sans-Serif" font-size="10.00">memory</text>
</g>
<!-- Node17&#45;&gt;Node19 -->
<g id="edge26" class="edge"><title>Node17&#45;&gt;Node19</title>
<path fill="none" stroke="midnightblue" d="M681.822,-272.449C609.854,-267.952 493.446,-255.839 466,-224 450.803,-206.372 453.578,-177.976 457.702,-159.399"/>
<polygon fill="midnightblue" stroke="midnightblue" points="461.142,-160.074 460.229,-149.519 454.361,-158.34 461.142,-160.074"/>
</g>
<!-- Node20 -->
<g id="node20" class="node"><title>Node20</title>
<polygon fill="white" stroke="#bfbfbf" points="1097,-198.5 1097,-217.5 1127,-217.5 1127,-198.5 1097,-198.5"/>
<text text-anchor="middle" x="1112" y="-205.5" font-family="Helvetica,sans-Serif" font-size="10.00">set</text>
</g>
<!-- Node17&#45;&gt;Node20 -->
<g id="edge27" class="edge"><title>Node17&#45;&gt;Node20</title>
<path fill="none" stroke="midnightblue" d="M798.168,-273.392C868.487,-269.891 989.522,-258.83 1087,-224 1088.23,-223.559 1089.47,-223.054 1090.7,-222.503"/>
<polygon fill="midnightblue" stroke="midnightblue" points="1092.6,-225.458 1099.76,-217.652 1089.3,-219.287 1092.6,-225.458"/>
</g>
<!-- Node21 -->
<g id="node21" class="node"><title>Node21</title>
<polygon fill="white" stroke="#bfbfbf" points="701,-198.5 701,-217.5 779,-217.5 779,-198.5 701,-198.5"/>
<text text-anchor="middle" x="740" y="-205.5" font-family="Helvetica,sans-Serif" font-size="10.00">unordered_set</text>
</g>
<!-- Node17&#45;&gt;Node21 -->
<g id="edge28" class="edge"><title>Node17&#45;&gt;Node21</title>
<path fill="none" stroke="midnightblue" d="M740,-266.372C740,-256.643 740,-240.528 740,-227.85"/>
<polygon fill="midnightblue" stroke="midnightblue" points="743.5,-227.841 740,-217.841 736.5,-227.841 743.5,-227.841"/>
</g>
<!-- Node22 -->
<g id="node22" class="node"><title>Node22</title>
<polygon fill="white" stroke="#bfbfbf" points="1145,-198.5 1145,-217.5 1185,-217.5 1185,-198.5 1145,-198.5"/>
<text text-anchor="middle" x="1165" y="-205.5" font-family="Helvetica,sans-Serif" font-size="10.00">utility</text>
</g>
<!-- Node17&#45;&gt;Node22 -->
<g id="edge29" class="edge"><title>Node17&#45;&gt;Node22</title>
<path fill="none" stroke="midnightblue" d="M798.178,-273.544C876.362,-270.232 1018.93,-259.401 1135,-224 1136.92,-223.414 1138.87,-222.713 1140.8,-221.94"/>
<polygon fill="midnightblue" stroke="midnightblue" points="1142.52,-225.005 1150.15,-217.656 1139.6,-218.642 1142.52,-225.005"/>
</g>
<!-- Node23 -->
<g id="node23" class="node"><title>Node23</title>
<polygon fill="white" stroke="#bfbfbf" points="1203,-198.5 1203,-217.5 1247,-217.5 1247,-198.5 1203,-198.5"/>
<text text-anchor="middle" x="1225" y="-205.5" font-family="Helvetica,sans-Serif" font-size="10.00">vector</text>
</g>
<!-- Node17&#45;&gt;Node23 -->
<g id="edge30" class="edge"><title>Node17&#45;&gt;Node23</title>
<path fill="none" stroke="midnightblue" d="M798.043,-270.933C903.188,-263.161 1121.04,-245.08 1194,-224 1196.19,-223.366 1198.42,-222.588 1200.63,-221.722"/>
<polygon fill="midnightblue" stroke="midnightblue" points="1202.26,-224.826 1209.96,-217.544 1199.4,-218.437 1202.26,-224.826"/>
</g>
<!-- Node24 -->
<g id="node24" class="node"><title>Node24</title>
<g id="a_node24"><a xlink:href="handle_8h.html" target="_top" xlink:title="shad/runtime/handle.h">
<polygon fill="white" stroke="black" points="835.5,-198.5 835.5,-217.5 948.5,-217.5 948.5,-198.5 835.5,-198.5"/>
<text text-anchor="middle" x="892" y="-205.5" font-family="Helvetica,sans-Serif" font-size="10.00">shad/runtime/handle.h</text>
</a>
</g>
</g>
<!-- Node17&#45;&gt;Node24 -->
<g id="edge32" class="edge"><title>Node17&#45;&gt;Node24</title>
<path fill="none" stroke="midnightblue" d="M759.871,-266.372C786.157,-254.958 832.683,-234.756 862.924,-221.625"/>
<polygon fill="midnightblue" stroke="midnightblue" points="864.345,-224.824 872.124,-217.63 861.557,-218.403 864.345,-224.824"/>
</g>
<!-- Node25 -->
<g id="node25" class="node"><title>Node25</title>
<g id="a_node25"><a xlink:href="available__mappings_8h.html" target="_top" xlink:title="shad/runtime/mappings\l/available_mappings.h">
<polygon fill="white" stroke="black" points="717,-125 717,-155 835,-155 835,-125 717,-125"/>
<text text-anchor="start" x="725" y="-143" font-family="Helvetica,sans-Serif" font-size="10.00">shad/runtime/mappings</text>
<text text-anchor="middle" x="776" y="-132" font-family="Helvetica,sans-Serif" font-size="10.00">/available_mappings.h</text>
</a>
</g>
</g>
<!-- Node17&#45;&gt;Node25 -->
<g id="edge39" class="edge"><title>Node17&#45;&gt;Node25</title>
<path fill="none" stroke="midnightblue" d="M752.162,-266.493C763.871,-257.485 780.828,-242.084 788,-224 795.556,-204.947 791.173,-181.748 785.696,-164.726"/>
<polygon fill="midnightblue" stroke="midnightblue" points="788.892,-163.266 782.242,-155.018 782.297,-165.612 788.892,-163.266"/>
</g>
<!-- Node26 -->
<g id="node26" class="node"><title>Node26</title>
<g id="a_node26"><a xlink:href="synchronous__interface_8h.html" target="_top" xlink:title="shad/runtime/synchronous\l_interface.h">
<polygon fill="white" stroke="black" points="475.5,-193 475.5,-223 606.5,-223 606.5,-193 475.5,-193"/>
<text text-anchor="start" x="483.5" y="-211" font-family="Helvetica,sans-Serif" font-size="10.00">shad/runtime/synchronous</text>
<text text-anchor="middle" x="541" y="-200" font-family="Helvetica,sans-Serif" font-size="10.00">_interface.h</text>
</a>
</g>
</g>
<!-- Node17&#45;&gt;Node26 -->
<g id="edge41" class="edge"><title>Node17&#45;&gt;Node26</title>
<path fill="none" stroke="midnightblue" d="M713.984,-266.372C683.39,-256.225 631.855,-239.133 592.974,-226.237"/>
<polygon fill="midnightblue" stroke="midnightblue" points="593.975,-222.882 583.382,-223.056 591.771,-229.526 593.975,-222.882"/>
</g>
<!-- Node24&#45;&gt;Node8 -->
<g id="edge33" class="edge"><title>Node24&#45;&gt;Node8</title>
<path fill="none" stroke="midnightblue" d="M946.607,-198.439C1032.03,-185.048 1195.37,-159.441 1271.74,-147.469"/>
<polygon fill="midnightblue" stroke="midnightblue" points="1272.58,-150.88 1281.92,-145.873 1271.49,-143.964 1272.58,-150.88"/>
</g>
<!-- Node24&#45;&gt;Node13 -->
<g id="edge34" class="edge"><title>Node24&#45;&gt;Node13</title>
<path fill="none" stroke="midnightblue" d="M892.43,-198.284C893.197,-173.039 892.006,-98.9332 855,-56 840.992,-39.7484 820.215,-29.2747 800.479,-22.5664"/>
<polygon fill="midnightblue" stroke="midnightblue" points="801.497,-19.2178 790.908,-19.5669 799.404,-25.8974 801.497,-19.2178"/>
</g>
<!-- Node24&#45;&gt;Node14 -->
<g id="edge35" class="edge"><title>Node24&#45;&gt;Node14</title>
<path fill="none" stroke="midnightblue" d="M897.577,-198.208C910.631,-177.629 943.509,-125.797 962.622,-95.6667"/>
<polygon fill="midnightblue" stroke="midnightblue" points="965.673,-97.3905 968.074,-87.0713 959.762,-93.6409 965.673,-97.3905"/>
</g>
<!-- Node24&#45;&gt;Node16 -->
<g id="edge36" class="edge"><title>Node24&#45;&gt;Node16</title>
<path fill="none" stroke="midnightblue" d="M888.369,-198.264C881.436,-182.278 865.103,-147.78 844,-124 833.596,-112.276 820.119,-101.501 807.91,-92.9058"/>
<polygon fill="midnightblue" stroke="midnightblue" points="809.543,-89.7832 799.307,-87.0501 805.604,-95.5701 809.543,-89.7832"/>
</g>
<!-- Node25&#45;&gt;Node16 -->
<g id="edge40" class="edge"><title>Node25&#45;&gt;Node16</title>
<path fill="none" stroke="midnightblue" d="M776,-124.679C776,-116.722 776,-106.605 776,-97.4356"/>
<polygon fill="midnightblue" stroke="midnightblue" points="779.5,-97.293 776,-87.2931 772.5,-97.2931 779.5,-97.293"/>
</g>
<!-- Node26&#45;&gt;Node3 -->
<g id="edge42" class="edge"><title>Node26&#45;&gt;Node3</title>
<path fill="none" stroke="midnightblue" d="M606.553,-199.716C732.477,-185.725 1004.24,-155.529 1100.41,-144.843"/>
<polygon fill="midnightblue" stroke="midnightblue" points="1100.92,-148.309 1110.47,-143.726 1100.14,-141.351 1100.92,-148.309"/>
</g>
<!-- Node26&#45;&gt;Node4 -->
<g id="edge43" class="edge"><title>Node26&#45;&gt;Node4</title>
<path fill="none" stroke="midnightblue" d="M533.799,-192.847C525.341,-176.283 510.832,-148.056 498,-124 492.01,-112.771 485.133,-100.241 479.694,-90.4105"/>
<polygon fill="midnightblue" stroke="midnightblue" points="482.733,-88.6735 474.82,-81.6284 476.612,-92.0705 482.733,-88.6735"/>
</g>
<!-- Node26&#45;&gt;Node11 -->
<g id="edge45" class="edge"><title>Node26&#45;&gt;Node11</title>
<path fill="none" stroke="midnightblue" d="M554.453,-192.679C564.216,-182.286 577.441,-168.208 587.622,-157.37"/>
<polygon fill="midnightblue" stroke="midnightblue" points="590.411,-159.513 594.707,-149.828 585.309,-154.72 590.411,-159.513"/>
</g>
<!-- Node26&#45;&gt;Node19 -->
<g id="edge44" class="edge"><title>Node26&#45;&gt;Node19</title>
<path fill="none" stroke="midnightblue" d="M524.075,-192.679C511.432,-181.981 494.173,-167.377 481.226,-156.422"/>
<polygon fill="midnightblue" stroke="midnightblue" points="483.328,-153.616 473.433,-149.828 478.807,-158.96 483.328,-153.616"/>
</g>
<!-- Node27&#45;&gt;Node3 -->
<g id="edge47" class="edge"><title>Node27&#45;&gt;Node3</title>
<path fill="none" stroke="midnightblue" d="M1019.72,-334.266C1083.6,-327.543 1203.67,-304.302 1255,-224 1262.66,-212.017 1262.85,-203.861 1255,-192 1236.15,-163.5 1197.8,-150.878 1169.51,-145.318"/>
<polygon fill="midnightblue" stroke="midnightblue" points="1170.05,-141.859 1159.59,-143.573 1168.83,-148.753 1170.05,-141.859"/>
</g>
<!-- Node27&#45;&gt;Node6 -->
<g id="edge48" class="edge"><title>Node27&#45;&gt;Node6</title>
<path fill="none" stroke="midnightblue" d="M936.173,-332.722C834.988,-321.66 569.649,-288.375 357,-224 354.2,-223.152 351.315,-222.188 348.447,-221.168"/>
<polygon fill="midnightblue" stroke="midnightblue" points="349.49,-217.82 338.898,-217.565 347.019,-224.37 349.49,-217.82"/>
</g>
<!-- Node27&#45;&gt;Node8 -->
<g id="edge50" class="edge"><title>Node27&#45;&gt;Node8</title>
<path fill="none" stroke="midnightblue" d="M1019.74,-337.317C1069.34,-335.913 1153.03,-327.789 1214,-292 1265.49,-261.775 1295.16,-192.938 1306.98,-159.676"/>
<polygon fill="midnightblue" stroke="midnightblue" points="1310.41,-160.462 1310.31,-149.867 1303.78,-158.212 1310.41,-160.462"/>
</g>
<!-- Node27&#45;&gt;Node9 -->
<g id="edge53" class="edge"><title>Node27&#45;&gt;Node9</title>
<path fill="none" stroke="midnightblue" d="M936.426,-333.337C823.382,-323.377 509.419,-295.715 367.846,-283.242"/>
<polygon fill="midnightblue" stroke="midnightblue" points="367.816,-279.726 357.547,-282.335 367.201,-286.699 367.816,-279.726"/>
</g>
<!-- Node27&#45;&gt;Node17 -->
<g id="edge54" class="edge"><title>Node27&#45;&gt;Node17</title>
<path fill="none" stroke="midnightblue" d="M944.153,-328.467C901.948,-317.827 829.732,-299.622 783.472,-287.959"/>
<polygon fill="midnightblue" stroke="midnightblue" points="784.282,-284.554 773.73,-285.503 782.571,-291.342 784.282,-284.554"/>
</g>
<!-- Node27&#45;&gt;Node22 -->
<g id="edge51" class="edge"><title>Node27&#45;&gt;Node22</title>
<path fill="none" stroke="midnightblue" d="M977.487,-328.497C977.028,-312.721 978.431,-278.817 997,-260 1041.52,-214.883 1075.66,-246.295 1135,-224 1136.65,-223.38 1138.33,-222.698 1140,-221.976"/>
<polygon fill="midnightblue" stroke="midnightblue" points="1141.83,-224.987 1149.4,-217.573 1138.86,-218.649 1141.83,-224.987"/>
</g>
<!-- Node27&#45;&gt;Node23 -->
<g id="edge52" class="edge"><title>Node27&#45;&gt;Node23</title>
<path fill="none" stroke="midnightblue" d="M994.59,-328.403C1036.86,-306.497 1148.85,-248.464 1199.49,-222.22"/>
<polygon fill="midnightblue" stroke="midnightblue" points="1201.21,-225.268 1208.48,-217.56 1197.99,-219.053 1201.21,-225.268"/>
</g>
<!-- Node28 -->
<g id="node28" class="node"><title>Node28</title>
<polygon fill="white" stroke="#bfbfbf" points="1006,-266.5 1006,-285.5 1044,-285.5 1044,-266.5 1006,-266.5"/>
<text text-anchor="middle" x="1025" y="-273.5" font-family="Helvetica,sans-Serif" font-size="10.00">tuple</text>
</g>
<!-- Node27&#45;&gt;Node28 -->
<g id="edge49" class="edge"><title>Node27&#45;&gt;Node28</title>
<path fill="none" stroke="midnightblue" d="M984.734,-328.403C991.784,-319.403 1003.03,-305.041 1011.85,-293.782"/>
<polygon fill="midnightblue" stroke="midnightblue" points="1014.87,-295.611 1018.28,-285.581 1009.36,-291.295 1014.87,-295.611"/>
</g>
</g>
</svg>
