<?xml version="1.0" encoding="UTF-8" standalone="no"?>
<!DOCTYPE svg PUBLIC "-//W3C//DTD SVG 1.1//EN"
 "http://www.w3.org/Graphics/SVG/1.1/DTD/svg11.dtd">
<!-- Generated by graphviz version 2.36.0 (20140111.2315)
 -->
<!-- Title: include/shad/core/impl/non_modifyng_sequence_ops.h Pages: 1 -->
<svg width="1502pt" height="424pt"
 viewBox="0.00 0.00 1502.00 424.00" xmlns="http://www.w3.org/2000/svg" xmlns:xlink="http://www.w3.org/1999/xlink">
<g id="graph0" class="graph" transform="scale(1 1) rotate(0) translate(4 420)">
<title>include/shad/core/impl/non_modifyng_sequence_ops.h</title>
<polygon fill="white" stroke="none" points="-4,4 -4,-420 1498,-420 1498,4 -4,4"/>
<!-- Node1 -->
<g id="node1" class="node"><title>Node1</title>
<polygon fill="#bfbfbf" stroke="black" points="400.5,-385 400.5,-415 557.5,-415 557.5,-385 400.5,-385"/>
<text text-anchor="start" x="408.5" y="-403" font-family="Helvetica,sans-Serif" font-size="10.00">include/shad/core/impl</text>
<text text-anchor="middle" x="479" y="-392" font-family="Helvetica,sans-Serif" font-size="10.00">/non_modifyng_sequence_ops.h</text>
</g>
<!-- Node2 -->
<g id="node2" class="node"><title>Node2</title>
<polygon fill="white" stroke="#bfbfbf" points="0,-328.5 0,-347.5 56,-347.5 56,-328.5 0,-328.5"/>
<text text-anchor="middle" x="28" y="-335.5" font-family="Helvetica,sans-Serif" font-size="10.00">algorithm</text>
</g>
<!-- Node1&#45;&gt;Node2 -->
<g id="edge1" class="edge"><title>Node1&#45;&gt;Node2</title>
<path fill="none" stroke="midnightblue" d="M400.377,-392.056C318.997,-384.246 188.072,-369.948 66.0982,-348.017"/>
<polygon fill="midnightblue" stroke="midnightblue" points="66.6744,-344.565 56.2095,-346.219 65.4218,-351.452 66.6744,-344.565"/>
</g>
<!-- Node3 -->
<g id="node3" class="node"><title>Node3</title>
<polygon fill="white" stroke="#bfbfbf" points="1343.5,-130.5 1343.5,-149.5 1392.5,-149.5 1392.5,-130.5 1343.5,-130.5"/>
<text text-anchor="middle" x="1368" y="-137.5" font-family="Helvetica,sans-Serif" font-size="10.00">cstddef</text>
</g>
<!-- Node1&#45;&gt;Node3 -->
<g id="edge2" class="edge"><title>Node1&#45;&gt;Node3</title>
<path fill="none" stroke="midnightblue" d="M557.797,-397.509C764.882,-391.67 1315.37,-363.104 1415,-224 1431.03,-201.618 1406.42,-173.302 1387.19,-156.199"/>
<polygon fill="midnightblue" stroke="midnightblue" points="1389.31,-153.403 1379.41,-149.605 1384.78,-158.742 1389.31,-153.403"/>
</g>
<!-- Node4 -->
<g id="node4" class="node"><title>Node4</title>
<polygon fill="white" stroke="#bfbfbf" points="1171,-62.5 1171,-81.5 1217,-81.5 1217,-62.5 1171,-62.5"/>
<text text-anchor="middle" x="1194" y="-69.5" font-family="Helvetica,sans-Serif" font-size="10.00">cstdint</text>
</g>
<!-- Node1&#45;&gt;Node4 -->
<g id="edge3" class="edge"><title>Node1&#45;&gt;Node4</title>
<path fill="none" stroke="midnightblue" d="M557.801,-397.78C796.279,-393.053 1494,-371.177 1494,-277 1494,-277 1494,-277 1494,-207 1494,-91.2293 1305.45,-74.8011 1227.3,-72.9637"/>
<polygon fill="midnightblue" stroke="midnightblue" points="1227.1,-69.4599 1217.04,-72.7925 1226.98,-76.4589 1227.1,-69.4599"/>
</g>
<!-- Node5 -->
<g id="node5" class="node"><title>Node5</title>
<polygon fill="white" stroke="#bfbfbf" points="1330.5,-198.5 1330.5,-217.5 1389.5,-217.5 1389.5,-198.5 1330.5,-198.5"/>
<text text-anchor="middle" x="1360" y="-205.5" font-family="Helvetica,sans-Serif" font-size="10.00">functional</text>
</g>
<!-- Node1&#45;&gt;Node5 -->
<g id="edge4" class="edge"><title>Node1&#45;&gt;Node5</title>
<path fill="none" stroke="midnightblue" d="M557.254,-384.968C705.351,-357.877 1036.38,-294.762 1311,-224 1315.17,-222.926 1319.51,-221.722 1323.81,-220.476"/>
<polygon fill="midnightblue" stroke="midnightblue" points="1325.09,-223.746 1333.68,-217.533 1323.09,-217.039 1325.09,-223.746"/>
</g>
<!-- Node6 -->
<g id="node6" class="node"><title>Node6</title>
<polygon fill="white" stroke="#bfbfbf" points="288.5,-198.5 288.5,-217.5 335.5,-217.5 335.5,-198.5 288.5,-198.5"/>
<text text-anchor="middle" x="312" y="-205.5" font-family="Helvetica,sans-Serif" font-size="10.00">iterator</text>
</g>
<!-- Node1&#45;&gt;Node6 -->
<g id="edge5" class="edge"><title>Node1&#45;&gt;Node6</title>
<path fill="none" stroke="midnightblue" d="M401.156,-385C348.618,-371.066 283.048,-343.92 250,-292 242.363,-280.002 243.927,-272.86 250,-260 257.447,-244.231 272.426,-231.693 285.795,-222.995"/>
<polygon fill="midnightblue" stroke="midnightblue" points="287.953,-225.779 294.681,-217.594 284.318,-219.797 287.953,-225.779"/>
</g>
<!-- Node7 -->
<g id="node7" class="node"><title>Node7</title>
<g id="a_node7"><a xlink:href="execution_8h.html" target="_top" xlink:title="shad/core/execution.h">
<polygon fill="white" stroke="black" points="74.5,-328.5 74.5,-347.5 187.5,-347.5 187.5,-328.5 74.5,-328.5"/>
<text text-anchor="middle" x="131" y="-335.5" font-family="Helvetica,sans-Serif" font-size="10.00">shad/core/execution.h</text>
</a>
</g>
</g>
<!-- Node1&#45;&gt;Node7 -->
<g id="edge6" class="edge"><title>Node1&#45;&gt;Node7</title>
<path fill="none" stroke="midnightblue" d="M400.468,-385.46C336.832,-374.488 248.521,-359.262 190.594,-349.275"/>
<polygon fill="midnightblue" stroke="midnightblue" points="190.949,-345.785 180.5,-347.534 189.76,-352.683 190.949,-345.785"/>
</g>
<!-- Node9 -->
<g id="node9" class="node"><title>Node9</title>
<g id="a_node9"><a xlink:href="distributed__iterator__traits_8h.html" target="_top" xlink:title="shad/distributed_iterator\l_traits.h">
<polygon fill="white" stroke="black" points="259.5,-261 259.5,-291 380.5,-291 380.5,-261 259.5,-261"/>
<text text-anchor="start" x="267.5" y="-279" font-family="Helvetica,sans-Serif" font-size="10.00">shad/distributed_iterator</text>
<text text-anchor="middle" x="320" y="-268" font-family="Helvetica,sans-Serif" font-size="10.00">_traits.h</text>
</a>
</g>
</g>
<!-- Node1&#45;&gt;Node9 -->
<g id="edge8" class="edge"><title>Node1&#45;&gt;Node9</title>
<path fill="none" stroke="midnightblue" d="M460.449,-384.766C432.325,-363.187 378.767,-322.092 346.53,-297.357"/>
<polygon fill="midnightblue" stroke="midnightblue" points="348.497,-294.454 338.432,-291.143 344.235,-300.007 348.497,-294.454"/>
</g>
<!-- Node16 -->
<g id="node16" class="node"><title>Node16</title>
<g id="a_node16"><a xlink:href="runtime_8h.html" target="_top" xlink:title="shad/runtime/runtime.h">
<polygon fill="white" stroke="black" points="710,-266.5 710,-285.5 826,-285.5 826,-266.5 710,-266.5"/>
<text text-anchor="middle" x="768" y="-273.5" font-family="Helvetica,sans-Serif" font-size="10.00">shad/runtime/runtime.h</text>
</a>
</g>
</g>
<!-- Node1&#45;&gt;Node16 -->
<g id="edge18" class="edge"><title>Node1&#45;&gt;Node16</title>
<path fill="none" stroke="midnightblue" d="M512.434,-384.886C569.364,-360.853 684.209,-312.372 738.407,-289.493"/>
<polygon fill="midnightblue" stroke="midnightblue" points="739.942,-292.644 747.793,-285.53 737.219,-286.195 739.942,-292.644"/>
</g>
<!-- Node27 -->
<g id="node27" class="node"><title>Node27</title>
<g id="a_node27"><a xlink:href="impl__patterns_8h.html" target="_top" xlink:title="impl_patterns.h">
<polygon fill="white" stroke="black" points="437.5,-328.5 437.5,-347.5 520.5,-347.5 520.5,-328.5 437.5,-328.5"/>
<text text-anchor="middle" x="479" y="-335.5" font-family="Helvetica,sans-Serif" font-size="10.00">impl_patterns.h</text>
</a>
</g>
</g>
<!-- Node1&#45;&gt;Node27 -->
<g id="edge45" class="edge"><title>Node1&#45;&gt;Node27</title>
<path fill="none" stroke="midnightblue" d="M479,-384.781C479,-376.781 479,-366.689 479,-358.017"/>
<polygon fill="midnightblue" stroke="midnightblue" points="482.5,-357.73 479,-347.731 475.5,-357.731 482.5,-357.73"/>
</g>
<!-- Node8 -->
<g id="node8" class="node"><title>Node8</title>
<polygon fill="white" stroke="#bfbfbf" points="162,-130.5 162,-149.5 224,-149.5 224,-130.5 162,-130.5"/>
<text text-anchor="middle" x="193" y="-137.5" font-family="Helvetica,sans-Serif" font-size="10.00">type_traits</text>
</g>
<!-- Node7&#45;&gt;Node8 -->
<g id="edge7" class="edge"><title>Node7&#45;&gt;Node8</title>
<path fill="none" stroke="midnightblue" d="M133.744,-328.325C143.147,-298.601 174.2,-200.432 187.198,-159.341"/>
<polygon fill="midnightblue" stroke="midnightblue" points="190.609,-160.165 190.288,-149.575 183.935,-158.053 190.609,-160.165"/>
</g>
<!-- Node9&#45;&gt;Node6 -->
<g id="edge10" class="edge"><title>Node9&#45;&gt;Node6</title>
<path fill="none" stroke="midnightblue" d="M318.264,-260.679C317.103,-251.101 315.563,-238.394 314.3,-227.977"/>
<polygon fill="midnightblue" stroke="midnightblue" points="317.748,-227.334 313.07,-217.828 310.799,-228.177 317.748,-227.334"/>
</g>
<!-- Node10 -->
<g id="node10" class="node"><title>Node10</title>
<polygon fill="white" stroke="#bfbfbf" points="221.5,-198.5 221.5,-217.5 270.5,-217.5 270.5,-198.5 221.5,-198.5"/>
<text text-anchor="middle" x="246" y="-205.5" font-family="Helvetica,sans-Serif" font-size="10.00">cassert</text>
</g>
<!-- Node9&#45;&gt;Node10 -->
<g id="edge9" class="edge"><title>Node9&#45;&gt;Node10</title>
<path fill="none" stroke="midnightblue" d="M303.943,-260.679C292.062,-250.082 275.885,-235.655 263.644,-224.736"/>
<polygon fill="midnightblue" stroke="midnightblue" points="265.691,-221.872 255.898,-217.828 261.032,-227.097 265.691,-221.872"/>
</g>
<!-- Node11 -->
<g id="node11" class="node"><title>Node11</title>
<g id="a_node11"><a xlink:href="locality_8h.html" target="_top" xlink:title="shad/runtime/locality.h">
<polygon fill="white" stroke="black" points="809.5,-130.5 809.5,-149.5 924.5,-149.5 924.5,-130.5 809.5,-130.5"/>
<text text-anchor="middle" x="867" y="-137.5" font-family="Helvetica,sans-Serif" font-size="10.00">shad/runtime/locality.h</text>
</a>
</g>
</g>
<!-- Node9&#45;&gt;Node11 -->
<g id="edge11" class="edge"><title>Node9&#45;&gt;Node11</title>
<path fill="none" stroke="midnightblue" d="M380.688,-266.48C458.02,-255.39 587.264,-236.014 634,-224 708.852,-204.759 793.622,-171.547 837.366,-153.52"/>
<polygon fill="midnightblue" stroke="midnightblue" points="838.923,-156.663 846.817,-149.597 836.24,-150.198 838.923,-156.663"/>
</g>
<!-- Node11&#45;&gt;Node4 -->
<g id="edge12" class="edge"><title>Node11&#45;&gt;Node4</title>
<path fill="none" stroke="midnightblue" d="M904.173,-130.493C913.871,-128.325 924.318,-126.033 934,-124 1015.32,-106.924 1111.34,-88.5516 1160.82,-79.2158"/>
<polygon fill="midnightblue" stroke="midnightblue" points="1161.47,-82.655 1170.65,-77.3645 1160.18,-75.7759 1161.47,-82.655"/>
</g>
<!-- Node12 -->
<g id="node12" class="node"><title>Node12</title>
<polygon fill="white" stroke="#bfbfbf" points="539,-0.5 539,-19.5 643,-19.5 643,-0.5 539,-0.5"/>
<text text-anchor="middle" x="591" y="-7.5" font-family="Helvetica,sans-Serif" font-size="10.00">shad/config/config.h</text>
</g>
<!-- Node11&#45;&gt;Node12 -->
<g id="edge13" class="edge"><title>Node11&#45;&gt;Node12</title>
<path fill="none" stroke="midnightblue" d="M863.776,-130.318C856.919,-113.139 839.175,-74.8448 811,-56 764.206,-24.7019 700.202,-14.3947 653.293,-11.3559"/>
<polygon fill="midnightblue" stroke="midnightblue" points="653.435,-7.8585 643.257,-10.799 653.048,-14.8477 653.435,-7.8585"/>
</g>
<!-- Node13 -->
<g id="node13" class="node"><title>Node13</title>
<g id="a_node13"><a xlink:href="mapping__traits_8h.html" target="_top" xlink:title="shad/runtime/mapping\l_traits.h">
<polygon fill="white" stroke="black" points="427.5,-57 427.5,-87 540.5,-87 540.5,-57 427.5,-57"/>
<text text-anchor="start" x="435.5" y="-75" font-family="Helvetica,sans-Serif" font-size="10.00">shad/runtime/mapping</text>
<text text-anchor="middle" x="484" y="-64" font-family="Helvetica,sans-Serif" font-size="10.00">_traits.h</text>
</a>
</g>
</g>
<!-- Node11&#45;&gt;Node13 -->
<g id="edge14" class="edge"><title>Node11&#45;&gt;Node13</title>
<path fill="none" stroke="midnightblue" d="M830.572,-130.426C820.678,-128.212 809.949,-125.915 800,-124 714.274,-107.501 614.763,-92.0466 550.668,-82.5673"/>
<polygon fill="midnightblue" stroke="midnightblue" points="551.096,-79.0927 540.693,-81.098 550.076,-86.018 551.096,-79.0927"/>
</g>
<!-- Node15 -->
<g id="node15" class="node"><title>Node15</title>
<g id="a_node15"><a xlink:href="available__traits__mappings_8h.html" target="_top" xlink:title="shad/runtime/mappings\l/available_traits_mappings.h">
<polygon fill="white" stroke="black" points="662,-57 662,-87 802,-87 802,-57 662,-57"/>
<text text-anchor="start" x="670" y="-75" font-family="Helvetica,sans-Serif" font-size="10.00">shad/runtime/mappings</text>
<text text-anchor="middle" x="732" y="-64" font-family="Helvetica,sans-Serif" font-size="10.00">/available_traits_mappings.h</text>
</a>
</g>
</g>
<!-- Node11&#45;&gt;Node15 -->
<g id="edge17" class="edge"><title>Node11&#45;&gt;Node15</title>
<path fill="none" stroke="midnightblue" d="M849.351,-130.372C829.3,-120.569 795.989,-104.283 769.97,-91.5629"/>
<polygon fill="midnightblue" stroke="midnightblue" points="771.272,-88.304 760.751,-87.0562 768.198,-94.5927 771.272,-88.304"/>
</g>
<!-- Node13&#45;&gt;Node12 -->
<g id="edge16" class="edge"><title>Node13&#45;&gt;Node12</title>
<path fill="none" stroke="midnightblue" d="M509.087,-56.9327C526.494,-47.1715 549.555,-34.2401 566.772,-24.5856"/>
<polygon fill="midnightblue" stroke="midnightblue" points="568.653,-27.5439 575.663,-19.6 565.229,-21.4383 568.653,-27.5439"/>
</g>
<!-- Node14 -->
<g id="node14" class="node"><title>Node14</title>
<polygon fill="white" stroke="#bfbfbf" points="463.5,-0.5 463.5,-19.5 504.5,-19.5 504.5,-0.5 463.5,-0.5"/>
<text text-anchor="middle" x="484" y="-7.5" font-family="Helvetica,sans-Serif" font-size="10.00">string</text>
</g>
<!-- Node13&#45;&gt;Node14 -->
<g id="edge15" class="edge"><title>Node13&#45;&gt;Node14</title>
<path fill="none" stroke="midnightblue" d="M484,-56.7808C484,-48.7812 484,-38.6887 484,-30.0168"/>
<polygon fill="midnightblue" stroke="midnightblue" points="487.5,-29.7305 484,-19.7305 480.5,-29.7306 487.5,-29.7305"/>
</g>
<!-- Node16&#45;&gt;Node3 -->
<g id="edge19" class="edge"><title>Node16&#45;&gt;Node3</title>
<path fill="none" stroke="midnightblue" d="M826.25,-273.787C942.417,-270.622 1198.56,-259.697 1278,-224 1295.28,-216.236 1332.12,-179.052 1352.91,-157.176"/>
<polygon fill="midnightblue" stroke="midnightblue" points="1355.71,-159.312 1360.02,-149.635 1350.61,-154.511 1355.71,-159.312"/>
</g>
<!-- Node16&#45;&gt;Node4 -->
<g id="edge20" class="edge"><title>Node16&#45;&gt;Node4</title>
<path fill="none" stroke="midnightblue" d="M826.116,-273.054C947.169,-268.402 1217.44,-254.661 1245,-224 1280.35,-184.666 1234.49,-119.894 1208.97,-89.5954"/>
<polygon fill="midnightblue" stroke="midnightblue" points="1211.31,-86.9462 1202.11,-81.6881 1206.02,-91.5345 1211.31,-86.9462"/>
</g>
<!-- Node16&#45;&gt;Node5 -->
<g id="edge21" class="edge"><title>Node16&#45;&gt;Node5</title>
<path fill="none" stroke="midnightblue" d="M826.272,-274.068C927.139,-271.461 1140.34,-261.565 1316,-224 1320.17,-223.108 1324.5,-221.944 1328.74,-220.659"/>
<polygon fill="midnightblue" stroke="midnightblue" points="1329.94,-223.949 1338.35,-217.512 1327.76,-217.296 1329.94,-223.949"/>
</g>
<!-- Node16&#45;&gt;Node6 -->
<g id="edge23" class="edge"><title>Node16&#45;&gt;Node6</title>
<path fill="none" stroke="midnightblue" d="M709.779,-273.593C627.194,-270.343 471.956,-259.589 345,-224 342.648,-223.341 340.251,-222.537 337.876,-221.647"/>
<polygon fill="midnightblue" stroke="midnightblue" points="338.988,-218.317 328.414,-217.657 336.268,-224.767 338.988,-218.317"/>
</g>
<!-- Node16&#45;&gt;Node11 -->
<g id="edge36" class="edge"><title>Node16&#45;&gt;Node11</title>
<path fill="none" stroke="midnightblue" d="M768.579,-266.402C770.045,-250.344 775.09,-215.313 792,-192 803.825,-175.698 822.554,-162.955 838.338,-154.285"/>
<polygon fill="midnightblue" stroke="midnightblue" points="839.969,-157.382 847.216,-149.654 836.731,-151.175 839.969,-157.382"/>
</g>
<!-- Node16&#45;&gt;Node12 -->
<g id="edge30" class="edge"><title>Node16&#45;&gt;Node12</title>
<path fill="none" stroke="midnightblue" d="M759.074,-266.384C739.957,-247.61 694.33,-201.072 664,-156 635.119,-113.081 610.125,-57.1654 598.291,-28.9542"/>
<polygon fill="midnightblue" stroke="midnightblue" points="601.473,-27.4891 594.42,-19.5834 595.004,-30.1621 601.473,-27.4891"/>
</g>
<!-- Node16&#45;&gt;Node13 -->
<g id="edge37" class="edge"><title>Node16&#45;&gt;Node13</title>
<path fill="none" stroke="midnightblue" d="M709.974,-271.543C640.925,-266.156 531.495,-253.172 504,-224 471.898,-189.94 474.625,-130.799 479.366,-97.5377"/>
<polygon fill="midnightblue" stroke="midnightblue" points="482.876,-97.7517 481.004,-87.3237 475.964,-96.6434 482.876,-97.7517"/>
</g>
<!-- Node17 -->
<g id="node17" class="node"><title>Node17</title>
<polygon fill="white" stroke="#bfbfbf" points="984,-198.5 984,-217.5 1038,-217.5 1038,-198.5 984,-198.5"/>
<text text-anchor="middle" x="1011" y="-205.5" font-family="Helvetica,sans-Serif" font-size="10.00">iostream</text>
</g>
<!-- Node16&#45;&gt;Node17 -->
<g id="edge22" class="edge"><title>Node16&#45;&gt;Node17</title>
<path fill="none" stroke="midnightblue" d="M809.92,-266.459C851.895,-257.478 918.106,-242.146 974,-224 976.569,-223.166 979.213,-222.238 981.85,-221.265"/>
<polygon fill="midnightblue" stroke="midnightblue" points="983.168,-224.508 991.222,-217.624 980.633,-217.983 983.168,-224.508"/>
</g>
<!-- Node18 -->
<g id="node18" class="node"><title>Node18</title>
<polygon fill="white" stroke="#bfbfbf" points="1056.5,-198.5 1056.5,-217.5 1091.5,-217.5 1091.5,-198.5 1056.5,-198.5"/>
<text text-anchor="middle" x="1074" y="-205.5" font-family="Helvetica,sans-Serif" font-size="10.00">map</text>
</g>
<!-- Node16&#45;&gt;Node18 -->
<g id="edge24" class="edge"><title>Node16&#45;&gt;Node18</title>
<path fill="none" stroke="midnightblue" d="M826.067,-269.954C883.518,-263.68 973.294,-250.401 1047,-224 1048.45,-223.48 1049.92,-222.888 1051.38,-222.246"/>
<polygon fill="midnightblue" stroke="midnightblue" points="1053.34,-225.176 1060.67,-217.532 1050.17,-218.933 1053.34,-225.176"/>
</g>
<!-- Node19 -->
<g id="node19" class="node"><title>Node19</title>
<polygon fill="white" stroke="#bfbfbf" points="943,-130.5 943,-149.5 995,-149.5 995,-130.5 943,-130.5"/>
<text text-anchor="middle" x="969" y="-137.5" font-family="Helvetica,sans-Serif" font-size="10.00">memory</text>
</g>
<!-- Node16&#45;&gt;Node19 -->
<g id="edge25" class="edge"><title>Node16&#45;&gt;Node19</title>
<path fill="none" stroke="midnightblue" d="M771.754,-266.35C779.469,-249.566 798.701,-212.441 826,-192 866.164,-161.927 886.036,-173.66 933,-156 935.246,-155.155 937.56,-154.257 939.88,-153.337"/>
<polygon fill="midnightblue" stroke="midnightblue" points="941.352,-156.516 949.294,-149.504 938.712,-150.033 941.352,-156.516"/>
</g>
<!-- Node20 -->
<g id="node20" class="node"><title>Node20</title>
<polygon fill="white" stroke="#bfbfbf" points="1110,-198.5 1110,-217.5 1140,-217.5 1140,-198.5 1110,-198.5"/>
<text text-anchor="middle" x="1125" y="-205.5" font-family="Helvetica,sans-Serif" font-size="10.00">set</text>
</g>
<!-- Node16&#45;&gt;Node20 -->
<g id="edge26" class="edge"><title>Node16&#45;&gt;Node20</title>
<path fill="none" stroke="midnightblue" d="M826.054,-272.856C893.667,-268.833 1007.85,-257.264 1100,-224 1101.23,-223.555 1102.47,-223.047 1103.7,-222.493"/>
<polygon fill="midnightblue" stroke="midnightblue" points="1105.6,-225.446 1112.76,-217.634 1102.29,-219.277 1105.6,-225.446"/>
</g>
<!-- Node21 -->
<g id="node21" class="node"><title>Node21</title>
<polygon fill="white" stroke="#bfbfbf" points="1158,-198.5 1158,-217.5 1236,-217.5 1236,-198.5 1158,-198.5"/>
<text text-anchor="middle" x="1197" y="-205.5" font-family="Helvetica,sans-Serif" font-size="10.00">unordered_set</text>
</g>
<!-- Node16&#45;&gt;Node21 -->
<g id="edge27" class="edge"><title>Node16&#45;&gt;Node21</title>
<path fill="none" stroke="midnightblue" d="M826.131,-270.179C901.126,-263.281 1035.34,-248.63 1148,-224 1152.7,-222.973 1157.59,-221.712 1162.4,-220.36"/>
<polygon fill="midnightblue" stroke="midnightblue" points="1163.44,-223.703 1172.03,-217.506 1161.45,-216.991 1163.44,-223.703"/>
</g>
<!-- Node22 -->
<g id="node22" class="node"><title>Node22</title>
<polygon fill="white" stroke="#bfbfbf" points="354,-198.5 354,-217.5 394,-217.5 394,-198.5 354,-198.5"/>
<text text-anchor="middle" x="374" y="-205.5" font-family="Helvetica,sans-Serif" font-size="10.00">utility</text>
</g>
<!-- Node16&#45;&gt;Node22 -->
<g id="edge28" class="edge"><title>Node16&#45;&gt;Node22</title>
<path fill="none" stroke="midnightblue" d="M709.768,-272.91C636.588,-268.922 507.87,-257.372 403,-224 401.136,-223.407 399.249,-222.701 397.377,-221.924"/>
<polygon fill="midnightblue" stroke="midnightblue" points="398.872,-218.76 388.338,-217.634 395.871,-225.084 398.872,-218.76"/>
</g>
<!-- Node23 -->
<g id="node23" class="node"><title>Node23</title>
<polygon fill="white" stroke="#bfbfbf" points="412,-198.5 412,-217.5 456,-217.5 456,-198.5 412,-198.5"/>
<text text-anchor="middle" x="434" y="-205.5" font-family="Helvetica,sans-Serif" font-size="10.00">vector</text>
</g>
<!-- Node16&#45;&gt;Node23 -->
<g id="edge29" class="edge"><title>Node16&#45;&gt;Node23</title>
<path fill="none" stroke="midnightblue" d="M709.723,-268.964C649.009,-261.765 551.543,-247.638 470,-224 467.348,-223.231 464.627,-222.327 461.927,-221.349"/>
<polygon fill="midnightblue" stroke="midnightblue" points="462.985,-218.004 452.397,-217.602 460.423,-224.519 462.985,-218.004"/>
</g>
<!-- Node24 -->
<g id="node24" class="node"><title>Node24</title>
<g id="a_node24"><a xlink:href="handle_8h.html" target="_top" xlink:title="shad/runtime/handle.h">
<polygon fill="white" stroke="black" points="512.5,-198.5 512.5,-217.5 625.5,-217.5 625.5,-198.5 512.5,-198.5"/>
<text text-anchor="middle" x="569" y="-205.5" font-family="Helvetica,sans-Serif" font-size="10.00">shad/runtime/handle.h</text>
</a>
</g>
</g>
<!-- Node16&#45;&gt;Node24 -->
<g id="edge31" class="edge"><title>Node16&#45;&gt;Node24</title>
<path fill="none" stroke="midnightblue" d="M741.984,-266.372C706.728,-254.679 643.662,-233.762 604.2,-220.674"/>
<polygon fill="midnightblue" stroke="midnightblue" points="605.3,-217.352 594.707,-217.526 603.097,-223.996 605.3,-217.352"/>
</g>
<!-- Node25 -->
<g id="node25" class="node"><title>Node25</title>
<g id="a_node25"><a xlink:href="available__mappings_8h.html" target="_top" xlink:title="shad/runtime/mappings\l/available_mappings.h">
<polygon fill="white" stroke="black" points="673,-125 673,-155 791,-155 791,-125 673,-125"/>
<text text-anchor="start" x="681" y="-143" font-family="Helvetica,sans-Serif" font-size="10.00">shad/runtime/mappings</text>
<text text-anchor="middle" x="732" y="-132" font-family="Helvetica,sans-Serif" font-size="10.00">/available_mappings.h</text>
</a>
</g>
</g>
<!-- Node16&#45;&gt;Node25 -->
<g id="edge38" class="edge"><title>Node16&#45;&gt;Node25</title>
<path fill="none" stroke="midnightblue" d="M765.599,-266.343C762.792,-256.203 758.018,-238.893 754,-224 748.649,-204.165 742.684,-181.632 738.316,-165.054"/>
<polygon fill="midnightblue" stroke="midnightblue" points="741.629,-163.889 735.699,-155.109 734.859,-165.67 741.629,-163.889"/>
</g>
<!-- Node26 -->
<g id="node26" class="node"><title>Node26</title>
<g id="a_node26"><a xlink:href="synchronous__interface_8h.html" target="_top" xlink:title="shad/runtime/synchronous\l_interface.h">
<polygon fill="white" stroke="black" points="834.5,-193 834.5,-223 965.5,-223 965.5,-193 834.5,-193"/>
<text text-anchor="start" x="842.5" y="-211" font-family="Helvetica,sans-Serif" font-size="10.00">shad/runtime/synchronous</text>
<text text-anchor="middle" x="900" y="-200" font-family="Helvetica,sans-Serif" font-size="10.00">_interface.h</text>
</a>
</g>
</g>
<!-- Node16&#45;&gt;Node26 -->
<g id="edge40" class="edge"><title>Node16&#45;&gt;Node26</title>
<path fill="none" stroke="midnightblue" d="M785.257,-266.372C804.862,-256.569 837.433,-240.283 862.874,-227.563"/>
<polygon fill="midnightblue" stroke="midnightblue" points="864.509,-230.659 871.888,-223.056 861.378,-224.398 864.509,-230.659"/>
</g>
<!-- Node24&#45;&gt;Node8 -->
<g id="edge32" class="edge"><title>Node24&#45;&gt;Node8</title>
<path fill="none" stroke="midnightblue" d="M520.23,-198.439C445.574,-185.335 304.278,-160.533 234.345,-148.257"/>
<polygon fill="midnightblue" stroke="midnightblue" points="234.612,-144.751 224.158,-146.469 233.402,-151.645 234.612,-144.751"/>
</g>
<!-- Node24&#45;&gt;Node12 -->
<g id="edge33" class="edge"><title>Node24&#45;&gt;Node12</title>
<path fill="none" stroke="midnightblue" d="M569.974,-198.325C573.303,-168.664 584.282,-70.8504 588.912,-29.6044"/>
<polygon fill="midnightblue" stroke="midnightblue" points="592.4,-29.9026 590.038,-19.5746 585.444,-29.1218 592.4,-29.9026"/>
</g>
<!-- Node24&#45;&gt;Node13 -->
<g id="edge34" class="edge"><title>Node24&#45;&gt;Node13</title>
<path fill="none" stroke="midnightblue" d="M563.423,-198.208C550.369,-177.629 517.491,-125.797 498.378,-95.6667"/>
<polygon fill="midnightblue" stroke="midnightblue" points="501.238,-93.6409 492.926,-87.0713 495.327,-97.3905 501.238,-93.6409"/>
</g>
<!-- Node24&#45;&gt;Node15 -->
<g id="edge35" class="edge"><title>Node24&#45;&gt;Node15</title>
<path fill="none" stroke="midnightblue" d="M578.506,-198.274C595.383,-182.877 631.834,-150.053 664,-124 676.951,-113.51 691.709,-102.35 704.16,-93.1524"/>
<polygon fill="midnightblue" stroke="midnightblue" points="706.371,-95.8707 712.36,-87.1308 702.228,-90.2285 706.371,-95.8707"/>
</g>
<!-- Node25&#45;&gt;Node15 -->
<g id="edge39" class="edge"><title>Node25&#45;&gt;Node15</title>
<path fill="none" stroke="midnightblue" d="M732,-124.679C732,-116.722 732,-106.605 732,-97.4356"/>
<polygon fill="midnightblue" stroke="midnightblue" points="735.5,-97.293 732,-87.2931 728.5,-97.2931 735.5,-97.293"/>
</g>
<!-- Node26&#45;&gt;Node3 -->
<g id="edge41" class="edge"><title>Node26&#45;&gt;Node3</title>
<path fill="none" stroke="midnightblue" d="M965.804,-193.575C968.909,-193.024 971.986,-192.496 975,-192 1106.46,-170.351 1263.9,-152.273 1332.8,-144.75"/>
<polygon fill="midnightblue" stroke="midnightblue" points="1333.52,-148.193 1343.08,-143.635 1332.76,-141.234 1333.52,-148.193"/>
</g>
<!-- Node26&#45;&gt;Node4 -->
<g id="edge42" class="edge"><title>Node26&#45;&gt;Node4</title>
<path fill="none" stroke="midnightblue" d="M930.907,-192.913C988.347,-166.733 1110.71,-110.961 1165.93,-85.7928"/>
<polygon fill="midnightblue" stroke="midnightblue" points="1167.48,-88.9356 1175.12,-81.6034 1164.57,-82.566 1167.48,-88.9356"/>
</g>
<!-- Node26&#45;&gt;Node11 -->
<g id="edge44" class="edge"><title>Node26&#45;&gt;Node11</title>
<path fill="none" stroke="midnightblue" d="M892.839,-192.679C887.898,-182.796 881.29,-169.579 875.993,-158.986"/>
<polygon fill="midnightblue" stroke="midnightblue" points="879.017,-157.207 871.414,-149.828 872.756,-160.338 879.017,-157.207"/>
</g>
<!-- Node26&#45;&gt;Node19 -->
<g id="edge43" class="edge"><title>Node26&#45;&gt;Node19</title>
<path fill="none" stroke="midnightblue" d="M914.972,-192.679C925.944,-182.184 940.844,-167.932 952.218,-157.052"/>
<polygon fill="midnightblue" stroke="midnightblue" points="954.963,-159.27 959.77,-149.828 950.125,-154.211 954.963,-159.27"/>
</g>
<!-- Node27&#45;&gt;Node3 -->
<g id="edge46" class="edge"><title>Node27&#45;&gt;Node3</title>
<path fill="none" stroke="midnightblue" d="M520.777,-335.058C692.656,-326.647 1338.96,-290.749 1398,-224 1414.75,-205.064 1397.45,-176.058 1383.03,-157.829"/>
<polygon fill="midnightblue" stroke="midnightblue" points="1385.44,-155.262 1376.34,-149.837 1380.07,-159.753 1385.44,-155.262"/>
</g>
<!-- Node27&#45;&gt;Node6 -->
<g id="edge47" class="edge"><title>Node27&#45;&gt;Node6</title>
<path fill="none" stroke="midnightblue" d="M469.137,-328.294C449.297,-310.825 405.087,-272.137 389,-260 371.238,-246.599 350.108,-232.741 334.479,-222.859"/>
<polygon fill="midnightblue" stroke="midnightblue" points="336.313,-219.878 325.981,-217.534 332.596,-225.81 336.313,-219.878"/>
</g>
<!-- Node27&#45;&gt;Node8 -->
<g id="edge49" class="edge"><title>Node27&#45;&gt;Node8</title>
<path fill="none" stroke="midnightblue" d="M437.277,-333.015C379.617,-326.811 279.352,-313.294 250,-292 206.988,-260.796 196.422,-192.96 193.834,-159.888"/>
<polygon fill="midnightblue" stroke="midnightblue" points="197.318,-159.524 193.211,-149.757 190.332,-159.953 197.318,-159.524"/>
</g>
<!-- Node27&#45;&gt;Node9 -->
<g id="edge52" class="edge"><title>Node27&#45;&gt;Node9</title>
<path fill="none" stroke="midnightblue" d="M456.219,-328.403C432.998,-319.641 396.305,-305.794 366.849,-294.679"/>
<polygon fill="midnightblue" stroke="midnightblue" points="367.759,-291.281 357.167,-291.025 365.287,-297.831 367.759,-291.281"/>
</g>
<!-- Node27&#45;&gt;Node16 -->
<g id="edge53" class="edge"><title>Node27&#45;&gt;Node16</title>
<path fill="none" stroke="midnightblue" d="M520.1,-328.467C571.886,-317.716 660.882,-299.239 716.969,-287.595"/>
<polygon fill="midnightblue" stroke="midnightblue" points="717.962,-290.963 727.042,-285.503 716.539,-284.109 717.962,-290.963"/>
</g>
<!-- Node27&#45;&gt;Node22 -->
<g id="edge50" class="edge"><title>Node27&#45;&gt;Node22</title>
<path fill="none" stroke="midnightblue" d="M482.776,-328.058C488.594,-312.745 497.724,-281.117 484,-260 462.533,-226.967 438.511,-241.057 403,-224 401.822,-223.434 400.62,-222.848 399.409,-222.251"/>
<polygon fill="midnightblue" stroke="midnightblue" points="400.676,-218.97 390.173,-217.58 397.517,-225.216 400.676,-218.97"/>
</g>
<!-- Node27&#45;&gt;Node23 -->
<g id="edge51" class="edge"><title>Node27&#45;&gt;Node23</title>
<path fill="none" stroke="midnightblue" d="M489.714,-328.305C498.938,-320.069 511.591,-306.789 517,-292 521.885,-278.643 523.942,-272.413 517,-260 510.78,-248.878 483.121,-233.177 461.419,-222.142"/>
<polygon fill="midnightblue" stroke="midnightblue" points="462.776,-218.908 452.265,-217.58 459.654,-225.173 462.776,-218.908"/>
</g>
<!-- Node28 -->
<g id="node28" class="node"><title>Node28</title>
<polygon fill="white" stroke="#bfbfbf" points="437,-266.5 437,-285.5 475,-285.5 475,-266.5 437,-266.5"/>
<text text-anchor="middle" x="456" y="-273.5" font-family="Helvetica,sans-Serif" font-size="10.00">tuple</text>
</g>
<!-- Node27&#45;&gt;Node28 -->
<g id="edge48" class="edge"><title>Node27&#45;&gt;Node28</title>
<path fill="none" stroke="midnightblue" d="M475.705,-328.403C472.391,-319.76 467.182,-306.17 462.951,-295.134"/>
<polygon fill="midnightblue" stroke="midnightblue" points="466.137,-293.665 459.289,-285.581 459.601,-296.171 466.137,-293.665"/>
</g>
</g>
</svg>
