<?xml version="1.0" encoding="UTF-8" standalone="no"?>
<!DOCTYPE svg PUBLIC "-//W3C//DTD SVG 1.1//EN"
 "http://www.w3.org/Graphics/SVG/1.1/DTD/svg11.dtd">
<!-- Generated by graphviz version 2.36.0 (20140111.2315)
 -->
<!-- Title: include/shad/core/impl/non_modifyng_sequence_ops.h Pages: 1 -->
<svg width="1446pt" height="424pt"
 viewBox="0.00 0.00 1446.00 424.00" xmlns="http://www.w3.org/2000/svg" xmlns:xlink="http://www.w3.org/1999/xlink">
<g id="graph0" class="graph" transform="scale(1 1) rotate(0) translate(4 420)">
<title>include/shad/core/impl/non_modifyng_sequence_ops.h</title>
<polygon fill="white" stroke="none" points="-4,4 -4,-420 1442,-420 1442,4 -4,4"/>
<!-- Node1 -->
<g id="node1" class="node"><title>Node1</title>
<polygon fill="#bfbfbf" stroke="black" points="352.5,-385 352.5,-415 509.5,-415 509.5,-385 352.5,-385"/>
<text text-anchor="start" x="360.5" y="-403" font-family="Helvetica,sans-Serif" font-size="10.00">include/shad/core/impl</text>
<text text-anchor="middle" x="431" y="-392" font-family="Helvetica,sans-Serif" font-size="10.00">/non_modifyng_sequence_ops.h</text>
</g>
<!-- Node2 -->
<g id="node2" class="node"><title>Node2</title>
<polygon fill="white" stroke="#bfbfbf" points="0,-328.5 0,-347.5 56,-347.5 56,-328.5 0,-328.5"/>
<text text-anchor="middle" x="28" y="-335.5" font-family="Helvetica,sans-Serif" font-size="10.00">algorithm</text>
</g>
<!-- Node1&#45;&gt;Node2 -->
<g id="edge1" class="edge"><title>Node1&#45;&gt;Node2</title>
<path fill="none" stroke="midnightblue" d="M352.449,-390.362C280.405,-381.912 170.591,-367.709 66.2929,-348.088"/>
<polygon fill="midnightblue" stroke="midnightblue" points="66.696,-344.602 56.2182,-346.172 65.3883,-351.479 66.696,-344.602"/>
</g>
<!-- Node3 -->
<g id="node3" class="node"><title>Node3</title>
<polygon fill="white" stroke="#bfbfbf" points="378.5,-130.5 378.5,-149.5 427.5,-149.5 427.5,-130.5 378.5,-130.5"/>
<text text-anchor="middle" x="403" y="-137.5" font-family="Helvetica,sans-Serif" font-size="10.00">cstddef</text>
</g>
<!-- Node1&#45;&gt;Node3 -->
<g id="edge2" class="edge"><title>Node1&#45;&gt;Node3</title>
<path fill="none" stroke="midnightblue" d="M404.964,-384.792C389.065,-375.456 368.822,-362.345 353,-348 307.352,-306.614 298.528,-285.154 291,-224 289.262,-209.884 283.304,-203.96 291,-192 307.942,-165.669 342.189,-152.772 368.377,-146.557"/>
<polygon fill="midnightblue" stroke="midnightblue" points="369.28,-149.943 378.321,-144.419 367.808,-143.099 369.28,-149.943"/>
</g>
<!-- Node4 -->
<g id="node4" class="node"><title>Node4</title>
<polygon fill="white" stroke="#bfbfbf" points="1236,-62.5 1236,-81.5 1282,-81.5 1282,-62.5 1236,-62.5"/>
<text text-anchor="middle" x="1259" y="-69.5" font-family="Helvetica,sans-Serif" font-size="10.00">cstdint</text>
</g>
<!-- Node1&#45;&gt;Node4 -->
<g id="edge3" class="edge"><title>Node1&#45;&gt;Node4</title>
<path fill="none" stroke="midnightblue" d="M509.598,-397.707C746.594,-392.777 1438,-370.391 1438,-277 1438,-277 1438,-277 1438,-207 1438,-134.759 1343.41,-96.7373 1291.75,-81.3587"/>
<polygon fill="midnightblue" stroke="midnightblue" points="1292.61,-77.9639 1282.03,-78.5815 1290.69,-84.6945 1292.61,-77.9639"/>
</g>
<!-- Node5 -->
<g id="node5" class="node"><title>Node5</title>
<polygon fill="white" stroke="#bfbfbf" points="1350.5,-198.5 1350.5,-217.5 1409.5,-217.5 1409.5,-198.5 1350.5,-198.5"/>
<text text-anchor="middle" x="1380" y="-205.5" font-family="Helvetica,sans-Serif" font-size="10.00">functional</text>
</g>
<!-- Node1&#45;&gt;Node5 -->
<g id="edge4" class="edge"><title>Node1&#45;&gt;Node5</title>
<path fill="none" stroke="midnightblue" d="M501.994,-384.955C651.136,-355.418 1007.94,-284.597 1307,-224 1317.76,-221.819 1329.41,-219.436 1340.18,-217.224"/>
<polygon fill="midnightblue" stroke="midnightblue" points="1341.08,-220.611 1350.17,-215.167 1339.67,-213.754 1341.08,-220.611"/>
</g>
<!-- Node6 -->
<g id="node6" class="node"><title>Node6</title>
<polygon fill="white" stroke="#bfbfbf" points="308.5,-198.5 308.5,-217.5 355.5,-217.5 355.5,-198.5 308.5,-198.5"/>
<text text-anchor="middle" x="332" y="-205.5" font-family="Helvetica,sans-Serif" font-size="10.00">iterator</text>
</g>
<!-- Node1&#45;&gt;Node6 -->
<g id="edge5" class="edge"><title>Node1&#45;&gt;Node6</title>
<path fill="none" stroke="midnightblue" d="M412.087,-384.868C389.2,-366.447 351.883,-331.841 337,-292 329.202,-271.124 328.99,-245.243 330.051,-227.985"/>
<polygon fill="midnightblue" stroke="midnightblue" points="333.576,-227.837 330.912,-217.582 326.599,-227.26 333.576,-227.837"/>
</g>
<!-- Node7 -->
<g id="node7" class="node"><title>Node7</title>
<g id="a_node7"><a xlink:href="execution_8h.html" target="_top" xlink:title="shad/core/execution.h">
<polygon fill="white" stroke="black" points="74.5,-328.5 74.5,-347.5 187.5,-347.5 187.5,-328.5 74.5,-328.5"/>
<text text-anchor="middle" x="131" y="-335.5" font-family="Helvetica,sans-Serif" font-size="10.00">shad/core/execution.h</text>
</a>
</g>
</g>
<!-- Node1&#45;&gt;Node7 -->
<g id="edge6" class="edge"><title>Node1&#45;&gt;Node7</title>
<path fill="none" stroke="midnightblue" d="M360.663,-384.933C306.499,-374.1 232.812,-359.362 183.663,-349.533"/>
<polygon fill="midnightblue" stroke="midnightblue" points="184.056,-346.042 173.563,-347.513 182.683,-352.906 184.056,-346.042"/>
</g>
<!-- Node9 -->
<g id="node9" class="node"><title>Node9</title>
<g id="a_node9"><a xlink:href="distributed__iterator__traits_8h.html" target="_top" xlink:title="shad/distributed_iterator\l_traits.h">
<polygon fill="white" stroke="black" points="516.5,-261 516.5,-291 637.5,-291 637.5,-261 516.5,-261"/>
<text text-anchor="start" x="524.5" y="-279" font-family="Helvetica,sans-Serif" font-size="10.00">shad/distributed_iterator</text>
<text text-anchor="middle" x="577" y="-268" font-family="Helvetica,sans-Serif" font-size="10.00">_traits.h</text>
</a>
</g>
</g>
<!-- Node1&#45;&gt;Node9 -->
<g id="edge8" class="edge"><title>Node1&#45;&gt;Node9</title>
<path fill="none" stroke="midnightblue" d="M448.034,-384.766C473.749,-363.278 522.619,-322.441 552.26,-297.673"/>
<polygon fill="midnightblue" stroke="midnightblue" points="554.645,-300.241 560.075,-291.143 550.157,-294.87 554.645,-300.241"/>
</g>
<!-- Node15 -->
<g id="node15" class="node"><title>Node15</title>
<g id="a_node15"><a xlink:href="runtime_8h.html" target="_top" xlink:title="shad/runtime/runtime.h">
<polygon fill="white" stroke="black" points="747,-266.5 747,-285.5 863,-285.5 863,-266.5 747,-266.5"/>
<text text-anchor="middle" x="805" y="-273.5" font-family="Helvetica,sans-Serif" font-size="10.00">shad/runtime/runtime.h</text>
</a>
</g>
</g>
<!-- Node1&#45;&gt;Node15 -->
<g id="edge17" class="edge"><title>Node1&#45;&gt;Node15</title>
<path fill="none" stroke="midnightblue" d="M474.268,-384.886C548.858,-360.554 700.277,-311.161 769.286,-288.65"/>
<polygon fill="midnightblue" stroke="midnightblue" points="770.429,-291.959 778.85,-285.53 768.258,-285.304 770.429,-291.959"/>
</g>
<!-- Node26 -->
<g id="node26" class="node"><title>Node26</title>
<g id="a_node26"><a xlink:href="impl__patterns_8h.html" target="_top" xlink:title="impl_patterns.h">
<polygon fill="white" stroke="black" points="389.5,-328.5 389.5,-347.5 472.5,-347.5 472.5,-328.5 389.5,-328.5"/>
<text text-anchor="middle" x="431" y="-335.5" font-family="Helvetica,sans-Serif" font-size="10.00">impl_patterns.h</text>
</a>
</g>
</g>
<!-- Node1&#45;&gt;Node26 -->
<g id="edge44" class="edge"><title>Node1&#45;&gt;Node26</title>
<path fill="none" stroke="midnightblue" d="M431,-384.781C431,-376.781 431,-366.689 431,-358.017"/>
<polygon fill="midnightblue" stroke="midnightblue" points="434.5,-357.73 431,-347.731 427.5,-357.731 434.5,-357.73"/>
</g>
<!-- Node8 -->
<g id="node8" class="node"><title>Node8</title>
<polygon fill="white" stroke="#bfbfbf" points="211,-130.5 211,-149.5 273,-149.5 273,-130.5 211,-130.5"/>
<text text-anchor="middle" x="242" y="-137.5" font-family="Helvetica,sans-Serif" font-size="10.00">type_traits</text>
</g>
<!-- Node7&#45;&gt;Node8 -->
<g id="edge7" class="edge"><title>Node7&#45;&gt;Node8</title>
<path fill="none" stroke="midnightblue" d="M133.213,-328.232C139.429,-304.691 158.664,-238.723 190,-192 199.092,-178.443 212.238,-165.59 223.037,-156.178"/>
<polygon fill="midnightblue" stroke="midnightblue" points="225.337,-158.817 230.731,-149.697 220.828,-153.463 225.337,-158.817"/>
</g>
<!-- Node9&#45;&gt;Node6 -->
<g id="edge9" class="edge"><title>Node9&#45;&gt;Node6</title>
<path fill="none" stroke="midnightblue" d="M516.271,-263.601C473.401,-254.78 414.936,-241.18 365,-224 362.873,-223.268 360.696,-222.448 358.525,-221.579"/>
<polygon fill="midnightblue" stroke="midnightblue" points="359.786,-218.311 349.217,-217.573 357.019,-224.741 359.786,-218.311"/>
</g>
<!-- Node10 -->
<g id="node10" class="node"><title>Node10</title>
<g id="a_node10"><a xlink:href="locality_8h.html" target="_top" xlink:title="shad/runtime/locality.h">
<polygon fill="white" stroke="black" points="931.5,-130.5 931.5,-149.5 1046.5,-149.5 1046.5,-130.5 931.5,-130.5"/>
<text text-anchor="middle" x="989" y="-137.5" font-family="Helvetica,sans-Serif" font-size="10.00">shad/runtime/locality.h</text>
</a>
</g>
</g>
<!-- Node9&#45;&gt;Node10 -->
<g id="edge10" class="edge"><title>Node9&#45;&gt;Node10</title>
<path fill="none" stroke="midnightblue" d="M608.618,-260.96C658.873,-238.702 752.96,-197.278 769,-192 777.224,-189.294 878.869,-166.035 941.079,-151.878"/>
<polygon fill="midnightblue" stroke="midnightblue" points="942.105,-155.235 951.079,-149.604 940.552,-148.409 942.105,-155.235"/>
</g>
<!-- Node10&#45;&gt;Node4 -->
<g id="edge11" class="edge"><title>Node10&#45;&gt;Node4</title>
<path fill="none" stroke="midnightblue" d="M1024.02,-130.439C1076.48,-117.615 1174.77,-93.5893 1226.02,-81.0627"/>
<polygon fill="midnightblue" stroke="midnightblue" points="1227.02,-84.4193 1235.91,-78.6448 1225.36,-77.6195 1227.02,-84.4193"/>
</g>
<!-- Node11 -->
<g id="node11" class="node"><title>Node11</title>
<polygon fill="white" stroke="#bfbfbf" points="663,-0.5 663,-19.5 767,-19.5 767,-0.5 663,-0.5"/>
<text text-anchor="middle" x="715" y="-7.5" font-family="Helvetica,sans-Serif" font-size="10.00">shad/config/config.h</text>
</g>
<!-- Node10&#45;&gt;Node11 -->
<g id="edge12" class="edge"><title>Node10&#45;&gt;Node11</title>
<path fill="none" stroke="midnightblue" d="M985.773,-130.322C978.911,-113.151 961.158,-74.8702 933,-56 886.888,-25.0983 823.892,-14.7068 777.476,-11.5379"/>
<polygon fill="midnightblue" stroke="midnightblue" points="777.431,-8.02938 767.243,-10.9371 777.021,-15.0173 777.431,-8.02938"/>
</g>
<!-- Node12 -->
<g id="node12" class="node"><title>Node12</title>
<g id="a_node12"><a xlink:href="mapping__traits_8h.html" target="_top" xlink:title="shad/runtime/mapping\l_traits.h">
<polygon fill="white" stroke="black" points="532.5,-57 532.5,-87 645.5,-87 645.5,-57 532.5,-57"/>
<text text-anchor="start" x="540.5" y="-75" font-family="Helvetica,sans-Serif" font-size="10.00">shad/runtime/mapping</text>
<text text-anchor="middle" x="589" y="-64" font-family="Helvetica,sans-Serif" font-size="10.00">_traits.h</text>
</a>
</g>
</g>
<!-- Node10&#45;&gt;Node12 -->
<g id="edge13" class="edge"><title>Node10&#45;&gt;Node12</title>
<path fill="none" stroke="midnightblue" d="M952.931,-130.45C942.941,-128.212 932.074,-125.897 922,-124 830.154,-106.706 723.222,-91.131 655.823,-81.867"/>
<polygon fill="midnightblue" stroke="midnightblue" points="656.146,-78.3786 645.764,-80.4908 655.197,-85.314 656.146,-78.3786"/>
</g>
<!-- Node14 -->
<g id="node14" class="node"><title>Node14</title>
<g id="a_node14"><a xlink:href="available__traits__mappings_8h.html" target="_top" xlink:title="shad/runtime/mappings\l/available_traits_mappings.h">
<polygon fill="white" stroke="black" points="784,-57 784,-87 924,-87 924,-57 784,-57"/>
<text text-anchor="start" x="792" y="-75" font-family="Helvetica,sans-Serif" font-size="10.00">shad/runtime/mappings</text>
<text text-anchor="middle" x="854" y="-64" font-family="Helvetica,sans-Serif" font-size="10.00">/available_traits_mappings.h</text>
</a>
</g>
</g>
<!-- Node10&#45;&gt;Node14 -->
<g id="edge16" class="edge"><title>Node10&#45;&gt;Node14</title>
<path fill="none" stroke="midnightblue" d="M971.351,-130.372C951.3,-120.569 917.989,-104.283 891.97,-91.5629"/>
<polygon fill="midnightblue" stroke="midnightblue" points="893.272,-88.304 882.751,-87.0562 890.198,-94.5927 893.272,-88.304"/>
</g>
<!-- Node12&#45;&gt;Node11 -->
<g id="edge15" class="edge"><title>Node12&#45;&gt;Node11</title>
<path fill="none" stroke="midnightblue" d="M618.541,-56.9327C639.514,-46.9455 667.457,-33.6397 687.867,-23.9205"/>
<polygon fill="midnightblue" stroke="midnightblue" points="689.416,-27.0594 696.94,-19.6 686.407,-20.7394 689.416,-27.0594"/>
</g>
<!-- Node13 -->
<g id="node13" class="node"><title>Node13</title>
<polygon fill="white" stroke="#bfbfbf" points="568.5,-0.5 568.5,-19.5 609.5,-19.5 609.5,-0.5 568.5,-0.5"/>
<text text-anchor="middle" x="589" y="-7.5" font-family="Helvetica,sans-Serif" font-size="10.00">string</text>
</g>
<!-- Node12&#45;&gt;Node13 -->
<g id="edge14" class="edge"><title>Node12&#45;&gt;Node13</title>
<path fill="none" stroke="midnightblue" d="M589,-56.7808C589,-48.7812 589,-38.6887 589,-30.0168"/>
<polygon fill="midnightblue" stroke="midnightblue" points="592.5,-29.7305 589,-19.7305 585.5,-29.7306 592.5,-29.7305"/>
</g>
<!-- Node15&#45;&gt;Node3 -->
<g id="edge18" class="edge"><title>Node15&#45;&gt;Node3</title>
<path fill="none" stroke="midnightblue" d="M746.875,-271.814C689.279,-266.951 599.558,-254.714 528,-224 505.78,-214.463 504.02,-205.561 484,-192 464.793,-178.99 442.446,-165.003 426.096,-154.974"/>
<polygon fill="midnightblue" stroke="midnightblue" points="427.591,-151.786 417.232,-149.563 423.944,-157.761 427.591,-151.786"/>
</g>
<!-- Node15&#45;&gt;Node4 -->
<g id="edge19" class="edge"><title>Node15&#45;&gt;Node4</title>
<path fill="none" stroke="midnightblue" d="M863.236,-272.587C983.876,-267.051 1252.45,-251.73 1283,-224 1316.23,-193.838 1311.12,-166.597 1297,-124 1292.65,-110.868 1283.45,-98.3737 1275.2,-89.0384"/>
<polygon fill="midnightblue" stroke="midnightblue" points="1277.72,-86.615 1268.33,-81.7113 1272.61,-91.4015 1277.72,-86.615"/>
</g>
<!-- Node15&#45;&gt;Node5 -->
<g id="edge20" class="edge"><title>Node15&#45;&gt;Node5</title>
<path fill="none" stroke="midnightblue" d="M863.034,-273.83C961.403,-270.87 1166.7,-260.466 1336,-224 1339.97,-223.145 1344.08,-222.047 1348.12,-220.834"/>
<polygon fill="midnightblue" stroke="midnightblue" points="1349.47,-224.074 1357.9,-217.656 1347.31,-217.417 1349.47,-224.074"/>
</g>
<!-- Node15&#45;&gt;Node6 -->
<g id="edge22" class="edge"><title>Node15&#45;&gt;Node6</title>
<path fill="none" stroke="midnightblue" d="M746.83,-269.275C635.693,-258.187 400.982,-233.997 365,-224 362.506,-223.307 359.962,-222.45 357.448,-221.499"/>
<polygon fill="midnightblue" stroke="midnightblue" points="358.645,-218.204 348.072,-217.515 355.908,-224.647 358.645,-218.204"/>
</g>
<!-- Node15&#45;&gt;Node10 -->
<g id="edge35" class="edge"><title>Node15&#45;&gt;Node10</title>
<path fill="none" stroke="midnightblue" d="M863.246,-272.517C934.908,-268.097 1050.38,-256.072 1077,-224 1086.08,-213.056 1084.1,-204.323 1077,-192 1066.41,-173.63 1046.4,-161.273 1028.13,-153.329"/>
<polygon fill="midnightblue" stroke="midnightblue" points="1029.38,-150.058 1018.79,-149.569 1026.76,-156.551 1029.38,-150.058"/>
</g>
<!-- Node15&#45;&gt;Node11 -->
<g id="edge29" class="edge"><title>Node15&#45;&gt;Node11</title>
<path fill="none" stroke="midnightblue" d="M797.274,-266.23C789.117,-256.535 776.433,-240.145 769,-224 737.914,-156.481 722.866,-68.3529 717.451,-30.0997"/>
<polygon fill="midnightblue" stroke="midnightblue" points="720.881,-29.348 716.072,-19.9073 713.944,-30.2862 720.881,-29.348"/>
</g>
<!-- Node15&#45;&gt;Node12 -->
<g id="edge36" class="edge"><title>Node15&#45;&gt;Node12</title>
<path fill="none" stroke="midnightblue" d="M746.977,-271.055C682.633,-265.329 584.857,-252.153 562,-224 532.055,-187.118 556.955,-128.315 574.804,-96.0503"/>
<polygon fill="midnightblue" stroke="midnightblue" points="577.874,-97.7319 579.824,-87.318 571.806,-94.243 577.874,-97.7319"/>
</g>
<!-- Node16 -->
<g id="node16" class="node"><title>Node16</title>
<polygon fill="white" stroke="#bfbfbf" points="778,-198.5 778,-217.5 832,-217.5 832,-198.5 778,-198.5"/>
<text text-anchor="middle" x="805" y="-205.5" font-family="Helvetica,sans-Serif" font-size="10.00">iostream</text>
</g>
<!-- Node15&#45;&gt;Node16 -->
<g id="edge21" class="edge"><title>Node15&#45;&gt;Node16</title>
<path fill="none" stroke="midnightblue" d="M805,-266.372C805,-256.643 805,-240.528 805,-227.85"/>
<polygon fill="midnightblue" stroke="midnightblue" points="808.5,-227.841 805,-217.841 801.5,-227.841 808.5,-227.841"/>
</g>
<!-- Node17 -->
<g id="node17" class="node"><title>Node17</title>
<polygon fill="white" stroke="#bfbfbf" points="888.5,-198.5 888.5,-217.5 923.5,-217.5 923.5,-198.5 888.5,-198.5"/>
<text text-anchor="middle" x="906" y="-205.5" font-family="Helvetica,sans-Serif" font-size="10.00">map</text>
</g>
<!-- Node15&#45;&gt;Node17 -->
<g id="edge23" class="edge"><title>Node15&#45;&gt;Node17</title>
<path fill="none" stroke="midnightblue" d="M818.204,-266.372C834.99,-255.403 864.197,-236.317 884.283,-223.191"/>
<polygon fill="midnightblue" stroke="midnightblue" points="886.336,-226.031 892.793,-217.63 882.507,-220.171 886.336,-226.031"/>
</g>
<!-- Node18 -->
<g id="node18" class="node"><title>Node18</title>
<polygon fill="white" stroke="#bfbfbf" points="1236,-130.5 1236,-149.5 1288,-149.5 1288,-130.5 1236,-130.5"/>
<text text-anchor="middle" x="1262" y="-137.5" font-family="Helvetica,sans-Serif" font-size="10.00">memory</text>
</g>
<!-- Node15&#45;&gt;Node18 -->
<g id="edge24" class="edge"><title>Node15&#45;&gt;Node18</title>
<path fill="none" stroke="midnightblue" d="M863.154,-272.791C980.705,-267.727 1237.7,-253.386 1264,-224 1279.59,-206.582 1274.62,-177.924 1268.89,-159.257"/>
<polygon fill="midnightblue" stroke="midnightblue" points="1272.13,-157.906 1265.58,-149.581 1265.51,-160.175 1272.13,-157.906"/>
</g>
<!-- Node19 -->
<g id="node19" class="node"><title>Node19</title>
<polygon fill="white" stroke="#bfbfbf" points="942,-198.5 942,-217.5 972,-217.5 972,-198.5 942,-198.5"/>
<text text-anchor="middle" x="957" y="-205.5" font-family="Helvetica,sans-Serif" font-size="10.00">set</text>
</g>
<!-- Node15&#45;&gt;Node19 -->
<g id="edge25" class="edge"><title>Node15&#45;&gt;Node19</title>
<path fill="none" stroke="midnightblue" d="M829.852,-266.349C855.828,-257.001 897.529,-241.127 932,-224 932.833,-223.586 933.675,-223.154 934.521,-222.71"/>
<polygon fill="midnightblue" stroke="midnightblue" points="936.483,-225.621 943.465,-217.653 933.037,-219.528 936.483,-225.621"/>
</g>
<!-- Node20 -->
<g id="node20" class="node"><title>Node20</title>
<polygon fill="white" stroke="#bfbfbf" points="990,-198.5 990,-217.5 1068,-217.5 1068,-198.5 990,-198.5"/>
<text text-anchor="middle" x="1029" y="-205.5" font-family="Helvetica,sans-Serif" font-size="10.00">unordered_set</text>
</g>
<!-- Node15&#45;&gt;Node20 -->
<g id="edge26" class="edge"><title>Node15&#45;&gt;Node20</title>
<path fill="none" stroke="midnightblue" d="M834.762,-266.459C869.612,-256.427 929.06,-239.219 980,-224 983.776,-222.872 987.712,-221.685 991.641,-220.494"/>
<polygon fill="midnightblue" stroke="midnightblue" points="992.746,-223.816 1001.29,-217.553 990.706,-217.12 992.746,-223.816"/>
</g>
<!-- Node21 -->
<g id="node21" class="node"><title>Node21</title>
<polygon fill="white" stroke="#bfbfbf" points="374,-198.5 374,-217.5 414,-217.5 414,-198.5 374,-198.5"/>
<text text-anchor="middle" x="394" y="-205.5" font-family="Helvetica,sans-Serif" font-size="10.00">utility</text>
</g>
<!-- Node15&#45;&gt;Node21 -->
<g id="edge27" class="edge"><title>Node15&#45;&gt;Node21</title>
<path fill="none" stroke="midnightblue" d="M746.771,-269.696C655.237,-260.944 482.033,-242.587 423,-224 421.135,-223.413 419.245,-222.711 417.373,-221.937"/>
<polygon fill="midnightblue" stroke="midnightblue" points="418.867,-218.772 408.332,-217.652 415.869,-225.098 418.867,-218.772"/>
</g>
<!-- Node22 -->
<g id="node22" class="node"><title>Node22</title>
<polygon fill="white" stroke="#bfbfbf" points="432,-198.5 432,-217.5 476,-217.5 476,-198.5 432,-198.5"/>
<text text-anchor="middle" x="454" y="-205.5" font-family="Helvetica,sans-Serif" font-size="10.00">vector</text>
</g>
<!-- Node15&#45;&gt;Node22 -->
<g id="edge28" class="edge"><title>Node15&#45;&gt;Node22</title>
<path fill="none" stroke="midnightblue" d="M746.922,-269.716C683.035,-262.957 577.775,-249.017 490,-224 487.345,-223.243 484.622,-222.347 481.92,-221.375"/>
<polygon fill="midnightblue" stroke="midnightblue" points="482.975,-218.029 472.388,-217.635 480.419,-224.545 482.975,-218.029"/>
</g>
<!-- Node23 -->
<g id="node23" class="node"><title>Node23</title>
<g id="a_node23"><a xlink:href="handle_8h.html" target="_top" xlink:title="shad/runtime/handle.h">
<polygon fill="white" stroke="black" points="570.5,-198.5 570.5,-217.5 683.5,-217.5 683.5,-198.5 570.5,-198.5"/>
<text text-anchor="middle" x="627" y="-205.5" font-family="Helvetica,sans-Serif" font-size="10.00">shad/runtime/handle.h</text>
</a>
</g>
</g>
<!-- Node15&#45;&gt;Node23 -->
<g id="edge30" class="edge"><title>Node15&#45;&gt;Node23</title>
<path fill="none" stroke="midnightblue" d="M781.73,-266.372C750.462,-254.778 694.738,-234.116 659.387,-221.009"/>
<polygon fill="midnightblue" stroke="midnightblue" points="660.587,-217.721 649.994,-217.526 658.153,-224.284 660.587,-217.721"/>
</g>
<!-- Node24 -->
<g id="node24" class="node"><title>Node24</title>
<g id="a_node24"><a xlink:href="available__mappings_8h.html" target="_top" xlink:title="shad/runtime/mappings\l/available_mappings.h">
<polygon fill="white" stroke="black" points="795,-125 795,-155 913,-155 913,-125 795,-125"/>
<text text-anchor="start" x="803" y="-143" font-family="Helvetica,sans-Serif" font-size="10.00">shad/runtime/mappings</text>
<text text-anchor="middle" x="854" y="-132" font-family="Helvetica,sans-Serif" font-size="10.00">/available_mappings.h</text>
</a>
</g>
</g>
<!-- Node15&#45;&gt;Node24 -->
<g id="edge37" class="edge"><title>Node15&#45;&gt;Node24</title>
<path fill="none" stroke="midnightblue" d="M813.02,-266.357C821.428,-256.77 834.325,-240.473 841,-224 848.639,-205.149 851.813,-182.206 853.12,-165.224"/>
<polygon fill="midnightblue" stroke="midnightblue" points="856.626,-165.22 853.737,-155.027 849.639,-164.797 856.626,-165.22"/>
</g>
<!-- Node25 -->
<g id="node25" class="node"><title>Node25</title>
<g id="a_node25"><a xlink:href="synchronous__interface_8h.html" target="_top" xlink:title="shad/runtime/synchronous\l_interface.h">
<polygon fill="white" stroke="black" points="1124.5,-193 1124.5,-223 1255.5,-223 1255.5,-193 1124.5,-193"/>
<text text-anchor="start" x="1132.5" y="-211" font-family="Helvetica,sans-Serif" font-size="10.00">shad/runtime/synchronous</text>
<text text-anchor="middle" x="1190" y="-200" font-family="Helvetica,sans-Serif" font-size="10.00">_interface.h</text>
</a>
</g>
</g>
<!-- Node15&#45;&gt;Node25 -->
<g id="edge39" class="edge"><title>Node15&#45;&gt;Node25</title>
<path fill="none" stroke="midnightblue" d="M857.95,-266.47C918.825,-256.589 1021.72,-239.655 1110,-224 1111.29,-223.771 1112.59,-223.539 1113.91,-223.304"/>
<polygon fill="midnightblue" stroke="midnightblue" points="1114.88,-226.685 1124.1,-221.463 1113.63,-219.797 1114.88,-226.685"/>
</g>
<!-- Node23&#45;&gt;Node8 -->
<g id="edge31" class="edge"><title>Node23&#45;&gt;Node8</title>
<path fill="none" stroke="midnightblue" d="M577.063,-198.439C500.172,-185.258 354.244,-160.242 283.084,-148.043"/>
<polygon fill="midnightblue" stroke="midnightblue" points="283.592,-144.579 273.144,-146.339 282.409,-151.478 283.592,-144.579"/>
</g>
<!-- Node23&#45;&gt;Node11 -->
<g id="edge32" class="edge"><title>Node23&#45;&gt;Node11</title>
<path fill="none" stroke="midnightblue" d="M630.895,-198.325C644.297,-168.474 688.693,-69.5936 707,-28.8182"/>
<polygon fill="midnightblue" stroke="midnightblue" points="710.247,-30.1309 711.15,-19.5746 703.861,-27.2637 710.247,-30.1309"/>
</g>
<!-- Node23&#45;&gt;Node12 -->
<g id="edge33" class="edge"><title>Node23&#45;&gt;Node12</title>
<path fill="none" stroke="midnightblue" d="M624.507,-198.208C618.746,-177.895 604.351,-127.132 595.762,-96.8463"/>
<polygon fill="midnightblue" stroke="midnightblue" points="599.086,-95.737 592.99,-87.0713 592.351,-97.6469 599.086,-95.737"/>
</g>
<!-- Node23&#45;&gt;Node14 -->
<g id="edge34" class="edge"><title>Node23&#45;&gt;Node14</title>
<path fill="none" stroke="midnightblue" d="M641.545,-198.414C677.472,-177.206 771.121,-121.924 821.234,-92.342"/>
<polygon fill="midnightblue" stroke="midnightblue" points="823.229,-95.229 830.061,-87.1315 819.67,-89.2009 823.229,-95.229"/>
</g>
<!-- Node24&#45;&gt;Node14 -->
<g id="edge38" class="edge"><title>Node24&#45;&gt;Node14</title>
<path fill="none" stroke="midnightblue" d="M854,-124.679C854,-116.722 854,-106.605 854,-97.4356"/>
<polygon fill="midnightblue" stroke="midnightblue" points="857.5,-97.293 854,-87.2931 850.5,-97.2931 857.5,-97.293"/>
</g>
<!-- Node25&#45;&gt;Node3 -->
<g id="edge40" class="edge"><title>Node25&#45;&gt;Node3</title>
<path fill="none" stroke="midnightblue" d="M1124.35,-197.648C1108.84,-195.616 1092.35,-193.599 1077,-192 832.627,-166.556 537.147,-148.618 437.615,-142.927"/>
<polygon fill="midnightblue" stroke="midnightblue" points="437.71,-139.427 427.527,-142.354 437.312,-146.416 437.71,-139.427"/>
</g>
<!-- Node25&#45;&gt;Node4 -->
<g id="edge41" class="edge"><title>Node25&#45;&gt;Node4</title>
<path fill="none" stroke="midnightblue" d="M1195.57,-192.909C1202.35,-176.163 1214.46,-147.527 1227,-124 1233.19,-112.397 1241.02,-99.8825 1247.39,-90.1539"/>
<polygon fill="midnightblue" stroke="midnightblue" points="1250.32,-92.066 1252.94,-81.801 1244.49,-88.1898 1250.32,-92.066"/>
</g>
<!-- Node25&#45;&gt;Node10 -->
<g id="edge43" class="edge"><title>Node25&#45;&gt;Node10</title>
<path fill="none" stroke="midnightblue" d="M1146.88,-192.841C1110.45,-180.879 1058.89,-163.949 1024.73,-152.731"/>
<polygon fill="midnightblue" stroke="midnightblue" points="1025.74,-149.381 1015.15,-149.587 1023.56,-156.032 1025.74,-149.381"/>
</g>
<!-- Node25&#45;&gt;Node18 -->
<g id="edge42" class="edge"><title>Node25&#45;&gt;Node18</title>
<path fill="none" stroke="midnightblue" d="M1205.62,-192.679C1217.18,-182.082 1232.92,-167.655 1244.83,-156.736"/>
<polygon fill="midnightblue" stroke="midnightblue" points="1247.36,-159.166 1252.37,-149.828 1242.63,-154.006 1247.36,-159.166"/>
</g>
<!-- Node26&#45;&gt;Node3 -->
<g id="edge45" class="edge"><title>Node26&#45;&gt;Node3</title>
<path fill="none" stroke="midnightblue" d="M402.395,-328.487C382.226,-321.339 355.599,-309.461 337,-292 311.759,-268.304 307.726,-257.503 299,-224 295.415,-210.237 291.476,-204.069 299,-192 314.08,-167.81 344.346,-154.772 368.357,-147.953"/>
<polygon fill="midnightblue" stroke="midnightblue" points="369.403,-151.297 378.202,-145.397 367.644,-144.522 369.403,-151.297"/>
</g>
<!-- Node26&#45;&gt;Node6 -->
<g id="edge46" class="edge"><title>Node26&#45;&gt;Node6</title>
<path fill="none" stroke="midnightblue" d="M428.048,-328.25C422.698,-313.229 410.325,-282.029 393,-260 381.906,-245.895 366.349,-232.963 353.723,-223.651"/>
<polygon fill="midnightblue" stroke="midnightblue" points="355.714,-220.772 345.541,-217.813 351.648,-226.47 355.714,-220.772"/>
</g>
<!-- Node26&#45;&gt;Node8 -->
<g id="edge48" class="edge"><title>Node26&#45;&gt;Node8</title>
<path fill="none" stroke="midnightblue" d="M389.236,-330.371C363.1,-324.31 330.278,-312.952 308,-292 268.835,-255.166 251.605,-191.042 245.211,-159.542"/>
<polygon fill="midnightblue" stroke="midnightblue" points="248.614,-158.703 243.325,-149.523 241.735,-159.998 248.614,-158.703"/>
</g>
<!-- Node26&#45;&gt;Node9 -->
<g id="edge51" class="edge"><title>Node26&#45;&gt;Node9</title>
<path fill="none" stroke="midnightblue" d="M451.918,-328.403C473.056,-319.717 506.349,-306.035 533.274,-294.969"/>
<polygon fill="midnightblue" stroke="midnightblue" points="534.953,-298.064 542.872,-291.025 532.292,-291.589 534.953,-298.064"/>
</g>
<!-- Node26&#45;&gt;Node15 -->
<g id="edge52" class="edge"><title>Node26&#45;&gt;Node15</title>
<path fill="none" stroke="midnightblue" d="M472.814,-330.292C538.212,-319.8 665.13,-299.439 741.75,-287.147"/>
<polygon fill="midnightblue" stroke="midnightblue" points="742.437,-290.582 751.756,-285.542 741.328,-283.67 742.437,-290.582"/>
</g>
<!-- Node26&#45;&gt;Node21 -->
<g id="edge49" class="edge"><title>Node26&#45;&gt;Node21</title>
<path fill="none" stroke="midnightblue" d="M431.802,-328.195C432.83,-313.614 433.663,-283.709 426,-260 422.005,-247.639 414.347,-235.26 407.524,-225.793"/>
<polygon fill="midnightblue" stroke="midnightblue" points="410.219,-223.555 401.385,-217.706 404.643,-227.787 410.219,-223.555"/>
</g>
<!-- Node26&#45;&gt;Node22 -->
<g id="edge50" class="edge"><title>Node26&#45;&gt;Node22</title>
<path fill="none" stroke="midnightblue" d="M440.02,-328.34C448.072,-319.932 459.298,-306.363 464,-292 470.964,-270.728 465.908,-244.964 460.788,-227.84"/>
<polygon fill="midnightblue" stroke="midnightblue" points="463.99,-226.373 457.539,-217.968 457.341,-228.561 463.99,-226.373"/>
</g>
<!-- Node27 -->
<g id="node27" class="node"><title>Node27</title>
<polygon fill="white" stroke="#bfbfbf" points="346,-266.5 346,-285.5 384,-285.5 384,-266.5 346,-266.5"/>
<text text-anchor="middle" x="365" y="-273.5" font-family="Helvetica,sans-Serif" font-size="10.00">tuple</text>
</g>
<!-- Node26&#45;&gt;Node27 -->
<g id="edge47" class="edge"><title>Node26&#45;&gt;Node27</title>
<path fill="none" stroke="midnightblue" d="M421.544,-328.403C411.252,-319.047 394.584,-303.895 382.006,-292.46"/>
<polygon fill="midnightblue" stroke="midnightblue" points="384.192,-289.718 374.439,-285.581 379.484,-294.897 384.192,-289.718"/>
</g>
</g>
</svg>
