<?xml version="1.0" encoding="UTF-8" standalone="no"?>
<!DOCTYPE svg PUBLIC "-//W3C//DTD SVG 1.1//EN"
 "http://www.w3.org/Graphics/SVG/1.1/DTD/svg11.dtd">
<!-- Generated by graphviz version 2.36.0 (20140111.2315)
 -->
<!-- Title: include/shad/core/numeric.h Pages: 1 -->
<svg width="1403pt" height="480pt"
 viewBox="0.00 0.00 1403.00 480.00" xmlns="http://www.w3.org/2000/svg" xmlns:xlink="http://www.w3.org/1999/xlink">
<g id="graph0" class="graph" transform="scale(1 1) rotate(0) translate(4 476)">
<title>include/shad/core/numeric.h</title>
<polygon fill="white" stroke="none" points="-4,4 -4,-476 1399,-476 1399,4 -4,4"/>
<!-- Node1 -->
<g id="node1" class="node"><title>Node1</title>
<polygon fill="#bfbfbf" stroke="black" points="866.5,-452.5 866.5,-471.5 1005.5,-471.5 1005.5,-452.5 866.5,-452.5"/>
<text text-anchor="middle" x="936" y="-459.5" font-family="Helvetica,sans-Serif" font-size="10.00">include/shad/core/numeric.h</text>
</g>
<!-- Node2 -->
<g id="node2" class="node"><title>Node2</title>
<polygon fill="white" stroke="#bfbfbf" points="989.5,-198.5 989.5,-217.5 1048.5,-217.5 1048.5,-198.5 989.5,-198.5"/>
<text text-anchor="middle" x="1019" y="-205.5" font-family="Helvetica,sans-Serif" font-size="10.00">functional</text>
</g>
<!-- Node1&#45;&gt;Node2 -->
<g id="edge1" class="edge"><title>Node1&#45;&gt;Node2</title>
<path fill="none" stroke="midnightblue" d="M912.546,-452.408C896.839,-445.28 877.381,-433.458 868,-416 861.268,-403.472 864.261,-397.722 868,-384 884.814,-322.298 896.854,-306.271 941,-260 955.751,-244.539 976.044,-231.456 992.233,-222.413"/>
<polygon fill="midnightblue" stroke="midnightblue" points="994.077,-225.395 1001.22,-217.568 990.755,-219.234 994.077,-225.395"/>
</g>
<!-- Node3 -->
<g id="node3" class="node"><title>Node3</title>
<polygon fill="white" stroke="#bfbfbf" points="105.5,-198.5 105.5,-217.5 152.5,-217.5 152.5,-198.5 105.5,-198.5"/>
<text text-anchor="middle" x="129" y="-205.5" font-family="Helvetica,sans-Serif" font-size="10.00">iterator</text>
</g>
<!-- Node1&#45;&gt;Node3 -->
<g id="edge2" class="edge"><title>Node1&#45;&gt;Node3</title>
<path fill="none" stroke="midnightblue" d="M866.301,-453.124C809.247,-445.884 726.712,-433.593 656,-416 490.149,-374.738 449.439,-358.5 292,-292 241.099,-270.5 184.089,-239.883 152.79,-222.474"/>
<polygon fill="midnightblue" stroke="midnightblue" points="154.373,-219.349 143.937,-217.52 150.955,-225.458 154.373,-219.349"/>
</g>
<!-- Node4 -->
<g id="node4" class="node"><title>Node4</title>
<polygon fill="white" stroke="#bfbfbf" points="1357,-266.5 1357,-285.5 1395,-285.5 1395,-266.5 1357,-266.5"/>
<text text-anchor="middle" x="1376" y="-273.5" font-family="Helvetica,sans-Serif" font-size="10.00">tuple</text>
</g>
<!-- Node1&#45;&gt;Node4 -->
<g id="edge3" class="edge"><title>Node1&#45;&gt;Node4</title>
<path fill="none" stroke="midnightblue" d="M1005.69,-460.711C1075.79,-458.377 1185.95,-449.065 1275,-416 1326.77,-396.777 1352.72,-396.574 1379,-348 1387.69,-331.933 1385.33,-310.701 1381.79,-295.653"/>
<polygon fill="midnightblue" stroke="midnightblue" points="1385.15,-294.679 1379.14,-285.951 1378.39,-296.52 1385.15,-294.679"/>
</g>
<!-- Node5 -->
<g id="node5" class="node"><title>Node5</title>
<polygon fill="white" stroke="#bfbfbf" points="1105,-198.5 1105,-217.5 1145,-217.5 1145,-198.5 1105,-198.5"/>
<text text-anchor="middle" x="1125" y="-205.5" font-family="Helvetica,sans-Serif" font-size="10.00">utility</text>
</g>
<!-- Node1&#45;&gt;Node5 -->
<g id="edge4" class="edge"><title>Node1&#45;&gt;Node5</title>
<path fill="none" stroke="midnightblue" d="M988.135,-452.454C1044.33,-440.159 1131.06,-411.523 1171,-348 1196.15,-308 1160.52,-252.804 1139.12,-225.568"/>
<polygon fill="midnightblue" stroke="midnightblue" points="1141.8,-223.309 1132.77,-217.763 1136.37,-227.728 1141.8,-223.309"/>
</g>
<!-- Node6 -->
<g id="node6" class="node"><title>Node6</title>
<polygon fill="white" stroke="#bfbfbf" points="1163,-198.5 1163,-217.5 1207,-217.5 1207,-198.5 1163,-198.5"/>
<text text-anchor="middle" x="1185" y="-205.5" font-family="Helvetica,sans-Serif" font-size="10.00">vector</text>
</g>
<!-- Node1&#45;&gt;Node6 -->
<g id="edge5" class="edge"><title>Node1&#45;&gt;Node6</title>
<path fill="none" stroke="midnightblue" d="M1005.58,-455.357C1044.17,-449.725 1091.73,-438.474 1129,-416 1163.27,-395.339 1174,-385.485 1188,-348 1203.22,-307.24 1195.52,-254.968 1189.63,-227.602"/>
<polygon fill="midnightblue" stroke="midnightblue" points="1192.96,-226.456 1187.29,-217.505 1186.14,-228.037 1192.96,-226.456"/>
</g>
<!-- Node7 -->
<g id="node7" class="node"><title>Node7</title>
<g id="a_node7"><a xlink:href="execution_8h.html" target="_top" xlink:title="shad/core/execution.h">
<polygon fill="white" stroke="black" points="1257.5,-328.5 1257.5,-347.5 1370.5,-347.5 1370.5,-328.5 1257.5,-328.5"/>
<text text-anchor="middle" x="1314" y="-335.5" font-family="Helvetica,sans-Serif" font-size="10.00">shad/core/execution.h</text>
</a>
</g>
</g>
<!-- Node1&#45;&gt;Node7 -->
<g id="edge6" class="edge"><title>Node1&#45;&gt;Node7</title>
<path fill="none" stroke="midnightblue" d="M1005.7,-456.192C1083.28,-449.903 1202.98,-437.125 1243,-416 1269.29,-402.12 1290.96,-374.561 1303.19,-356.458"/>
<polygon fill="midnightblue" stroke="midnightblue" points="1306.18,-358.268 1308.7,-347.975 1300.31,-354.456 1306.18,-358.268"/>
</g>
<!-- Node9 -->
<g id="node9" class="node"><title>Node9</title>
<g id="a_node9"><a xlink:href="numeric__ops_8h.html" target="_top" xlink:title="shad/core/impl/numeric\l_ops.h">
<polygon fill="white" stroke="black" points="877,-385 877,-415 995,-415 995,-385 877,-385"/>
<text text-anchor="start" x="885" y="-403" font-family="Helvetica,sans-Serif" font-size="10.00">shad/core/impl/numeric</text>
<text text-anchor="middle" x="936" y="-392" font-family="Helvetica,sans-Serif" font-size="10.00">_ops.h</text>
</a>
</g>
</g>
<!-- Node1&#45;&gt;Node9 -->
<g id="edge8" class="edge"><title>Node1&#45;&gt;Node9</title>
<path fill="none" stroke="midnightblue" d="M936,-452.403C936,-445.341 936,-434.975 936,-425.399"/>
<polygon fill="midnightblue" stroke="midnightblue" points="939.5,-425.141 936,-415.141 932.5,-425.141 939.5,-425.141"/>
</g>
<!-- Node12 -->
<g id="node12" class="node"><title>Node12</title>
<g id="a_node12"><a xlink:href="distributed__iterator__traits_8h.html" target="_top" xlink:title="shad/distributed_iterator\l_traits.h">
<polygon fill="white" stroke="black" points="301.5,-261 301.5,-291 422.5,-291 422.5,-261 301.5,-261"/>
<text text-anchor="start" x="309.5" y="-279" font-family="Helvetica,sans-Serif" font-size="10.00">shad/distributed_iterator</text>
<text text-anchor="middle" x="362" y="-268" font-family="Helvetica,sans-Serif" font-size="10.00">_traits.h</text>
</a>
</g>
</g>
<!-- Node1&#45;&gt;Node12 -->
<g id="edge60" class="edge"><title>Node1&#45;&gt;Node12</title>
<path fill="none" stroke="midnightblue" d="M895.841,-452.426C858.35,-444.127 800.986,-430.678 752,-416 625.407,-378.069 479.494,-322.928 407.304,-294.86"/>
<polygon fill="midnightblue" stroke="midnightblue" points="408.205,-291.454 397.617,-291.083 405.663,-297.976 408.205,-291.454"/>
</g>
<!-- Node20 -->
<g id="node20" class="node"><title>Node20</title>
<g id="a_node20"><a xlink:href="runtime_8h.html" target="_top" xlink:title="shad/runtime/runtime.h">
<polygon fill="white" stroke="black" points="668,-266.5 668,-285.5 784,-285.5 784,-266.5 668,-266.5"/>
<text text-anchor="middle" x="726" y="-273.5" font-family="Helvetica,sans-Serif" font-size="10.00">shad/runtime/runtime.h</text>
</a>
</g>
</g>
<!-- Node1&#45;&gt;Node20 -->
<g id="edge61" class="edge"><title>Node1&#45;&gt;Node20</title>
<path fill="none" stroke="midnightblue" d="M866.359,-454.68C836.66,-448.776 803.51,-437.49 780,-416 744.743,-383.772 732.257,-325.795 728.033,-295.927"/>
<polygon fill="midnightblue" stroke="midnightblue" points="731.462,-295.135 726.754,-285.644 724.515,-295.999 731.462,-295.135"/>
</g>
<!-- Node8 -->
<g id="node8" class="node"><title>Node8</title>
<polygon fill="white" stroke="#bfbfbf" points="1204,-130.5 1204,-149.5 1266,-149.5 1266,-130.5 1204,-130.5"/>
<text text-anchor="middle" x="1235" y="-137.5" font-family="Helvetica,sans-Serif" font-size="10.00">type_traits</text>
</g>
<!-- Node7&#45;&gt;Node8 -->
<g id="edge7" class="edge"><title>Node7&#45;&gt;Node8</title>
<path fill="none" stroke="midnightblue" d="M1310.5,-328.325C1298.5,-298.538 1258.79,-200.013 1242.29,-159.079"/>
<polygon fill="midnightblue" stroke="midnightblue" points="1245.44,-157.541 1238.46,-149.575 1238.95,-160.158 1245.44,-157.541"/>
</g>
<!-- Node9&#45;&gt;Node2 -->
<g id="edge10" class="edge"><title>Node9&#45;&gt;Node2</title>
<path fill="none" stroke="midnightblue" d="M930.531,-384.745C925.762,-370.132 920.535,-346.931 927,-328 941.731,-284.861 979.149,-245.222 1001.47,-224.369"/>
<polygon fill="midnightblue" stroke="midnightblue" points="1003.9,-226.886 1008.93,-217.564 999.184,-221.712 1003.9,-226.886"/>
</g>
<!-- Node9&#45;&gt;Node3 -->
<g id="edge11" class="edge"><title>Node9&#45;&gt;Node3</title>
<path fill="none" stroke="midnightblue" d="M892.568,-384.934C805.758,-357.291 604.268,-295.495 431,-260 314.99,-236.234 281.568,-253.956 167,-224 163.942,-223.2 160.797,-222.225 157.689,-221.158"/>
<polygon fill="midnightblue" stroke="midnightblue" points="158.624,-217.772 148.032,-217.548 156.173,-224.328 158.624,-217.772"/>
</g>
<!-- Node9&#45;&gt;Node7 -->
<g id="edge13" class="edge"><title>Node9&#45;&gt;Node7</title>
<path fill="none" stroke="midnightblue" d="M995.062,-389.625C1064.33,-378.63 1178.73,-360.471 1250.04,-349.152"/>
<polygon fill="midnightblue" stroke="midnightblue" points="1250.92,-352.557 1260.24,-347.533 1249.82,-345.644 1250.92,-352.557"/>
</g>
<!-- Node10 -->
<g id="node10" class="node"><title>Node10</title>
<polygon fill="white" stroke="#bfbfbf" points="936,-328.5 936,-347.5 992,-347.5 992,-328.5 936,-328.5"/>
<text text-anchor="middle" x="964" y="-335.5" font-family="Helvetica,sans-Serif" font-size="10.00">algorithm</text>
</g>
<!-- Node9&#45;&gt;Node10 -->
<g id="edge9" class="edge"><title>Node9&#45;&gt;Node10</title>
<path fill="none" stroke="midnightblue" d="M942.636,-384.781C946.537,-376.422 951.504,-365.777 955.667,-356.856"/>
<polygon fill="midnightblue" stroke="midnightblue" points="958.868,-358.272 959.926,-347.731 952.525,-355.312 958.868,-358.272"/>
</g>
<!-- Node11 -->
<g id="node11" class="node"><title>Node11</title>
<polygon fill="white" stroke="#bfbfbf" points="1010.5,-328.5 1010.5,-347.5 1061.5,-347.5 1061.5,-328.5 1010.5,-328.5"/>
<text text-anchor="middle" x="1036" y="-335.5" font-family="Helvetica,sans-Serif" font-size="10.00">numeric</text>
</g>
<!-- Node9&#45;&gt;Node11 -->
<g id="edge12" class="edge"><title>Node9&#45;&gt;Node11</title>
<path fill="none" stroke="midnightblue" d="M959.446,-384.933C975.564,-375.262 996.868,-362.479 1012.91,-352.855"/>
<polygon fill="midnightblue" stroke="midnightblue" points="1014.89,-355.746 1021.67,-347.6 1011.29,-349.744 1014.89,-355.746"/>
</g>
<!-- Node9&#45;&gt;Node12 -->
<g id="edge14" class="edge"><title>Node9&#45;&gt;Node12</title>
<path fill="none" stroke="midnightblue" d="M876.734,-386.403C770.242,-363.769 547.002,-316.321 432.713,-292.03"/>
<polygon fill="midnightblue" stroke="midnightblue" points="433.178,-288.55 422.669,-289.895 431.722,-295.397 433.178,-288.55"/>
</g>
<!-- Node9&#45;&gt;Node20 -->
<g id="edge24" class="edge"><title>Node9&#45;&gt;Node20</title>
<path fill="none" stroke="midnightblue" d="M920.678,-384.809C903.473,-369.395 874.251,-344.739 846,-328 818.785,-311.874 785.523,-298.157 760.927,-289.023"/>
<polygon fill="midnightblue" stroke="midnightblue" points="761.886,-285.648 751.292,-285.515 759.491,-292.225 761.886,-285.648"/>
</g>
<!-- Node30 -->
<g id="node30" class="node"><title>Node30</title>
<g id="a_node30"><a xlink:href="impl__patterns_8h.html" target="_top" xlink:title="impl_patterns.h">
<polygon fill="white" stroke="black" points="1079.5,-328.5 1079.5,-347.5 1162.5,-347.5 1162.5,-328.5 1079.5,-328.5"/>
<text text-anchor="middle" x="1121" y="-335.5" font-family="Helvetica,sans-Serif" font-size="10.00">impl_patterns.h</text>
</a>
</g>
</g>
<!-- Node9&#45;&gt;Node30 -->
<g id="edge51" class="edge"><title>Node9&#45;&gt;Node30</title>
<path fill="none" stroke="midnightblue" d="M979.374,-384.933C1011.52,-374.508 1054.81,-360.467 1085.04,-350.663"/>
<polygon fill="midnightblue" stroke="midnightblue" points="1086.32,-353.927 1094.75,-347.513 1084.16,-347.269 1086.32,-353.927"/>
</g>
<!-- Node12&#45;&gt;Node3 -->
<g id="edge16" class="edge"><title>Node12&#45;&gt;Node3</title>
<path fill="none" stroke="midnightblue" d="M301.283,-261.112C262.526,-251.758 211.404,-238.513 167,-224 164.373,-223.141 161.665,-222.197 158.962,-221.212"/>
<polygon fill="midnightblue" stroke="midnightblue" points="159.937,-217.838 149.346,-217.552 157.447,-224.38 159.937,-217.838"/>
</g>
<!-- Node13 -->
<g id="node13" class="node"><title>Node13</title>
<polygon fill="white" stroke="#bfbfbf" points="-0.5,-198.5 -0.5,-217.5 48.5,-217.5 48.5,-198.5 -0.5,-198.5"/>
<text text-anchor="middle" x="24" y="-205.5" font-family="Helvetica,sans-Serif" font-size="10.00">cassert</text>
</g>
<!-- Node12&#45;&gt;Node13 -->
<g id="edge15" class="edge"><title>Node12&#45;&gt;Node13</title>
<path fill="none" stroke="midnightblue" d="M301.384,-268.242C240.43,-260.614 144.119,-246.281 63,-224 59.8521,-223.135 56.6059,-222.111 53.3931,-221.01"/>
<polygon fill="midnightblue" stroke="midnightblue" points="54.5806,-217.718 43.9869,-217.56 52.1701,-224.29 54.5806,-217.718"/>
</g>
<!-- Node14 -->
<g id="node14" class="node"><title>Node14</title>
<g id="a_node14"><a xlink:href="locality_8h.html" target="_top" xlink:title="shad/runtime/locality.h">
<polygon fill="white" stroke="black" points="497.5,-130.5 497.5,-149.5 612.5,-149.5 612.5,-130.5 497.5,-130.5"/>
<text text-anchor="middle" x="555" y="-137.5" font-family="Helvetica,sans-Serif" font-size="10.00">shad/runtime/locality.h</text>
</a>
</g>
</g>
<!-- Node12&#45;&gt;Node14 -->
<g id="edge17" class="edge"><title>Node12&#45;&gt;Node14</title>
<path fill="none" stroke="midnightblue" d="M301.156,-274.726C205.065,-272.312 35.0274,-258.829 96,-192 125.48,-159.689 444.792,-162.792 488,-156 495.451,-154.829 503.311,-153.32 510.924,-151.713"/>
<polygon fill="midnightblue" stroke="midnightblue" points="511.715,-155.122 520.734,-149.562 510.216,-148.285 511.715,-155.122"/>
</g>
<!-- Node15 -->
<g id="node15" class="node"><title>Node15</title>
<polygon fill="white" stroke="#bfbfbf" points="618,-62.5 618,-81.5 664,-81.5 664,-62.5 618,-62.5"/>
<text text-anchor="middle" x="641" y="-69.5" font-family="Helvetica,sans-Serif" font-size="10.00">cstdint</text>
</g>
<!-- Node14&#45;&gt;Node15 -->
<g id="edge18" class="edge"><title>Node14&#45;&gt;Node15</title>
<path fill="none" stroke="midnightblue" d="M566.243,-130.372C580.278,-119.6 604.512,-101.002 621.576,-87.9065"/>
<polygon fill="midnightblue" stroke="midnightblue" points="623.952,-90.4953 629.754,-81.6305 619.69,-84.9421 623.952,-90.4953"/>
</g>
<!-- Node16 -->
<g id="node16" class="node"><title>Node16</title>
<polygon fill="white" stroke="#bfbfbf" points="290,-0.5 290,-19.5 394,-19.5 394,-0.5 290,-0.5"/>
<text text-anchor="middle" x="342" y="-7.5" font-family="Helvetica,sans-Serif" font-size="10.00">shad/config/config.h</text>
</g>
<!-- Node14&#45;&gt;Node16 -->
<g id="edge19" class="edge"><title>Node14&#45;&gt;Node16</title>
<path fill="none" stroke="midnightblue" d="M553.815,-130.49C551.002,-113.62 542.322,-75.8541 519,-56 487.222,-28.9468 441.33,-17.8167 404.239,-13.3875"/>
<polygon fill="midnightblue" stroke="midnightblue" points="404.342,-9.87902 394.029,-12.3083 403.606,-16.8402 404.342,-9.87902"/>
</g>
<!-- Node17 -->
<g id="node17" class="node"><title>Node17</title>
<g id="a_node17"><a xlink:href="mapping__traits_8h.html" target="_top" xlink:title="shad/runtime/mapping\l_traits.h">
<polygon fill="white" stroke="black" points="200.5,-57 200.5,-87 313.5,-87 313.5,-57 200.5,-57"/>
<text text-anchor="start" x="208.5" y="-75" font-family="Helvetica,sans-Serif" font-size="10.00">shad/runtime/mapping</text>
<text text-anchor="middle" x="257" y="-64" font-family="Helvetica,sans-Serif" font-size="10.00">_traits.h</text>
</a>
</g>
</g>
<!-- Node14&#45;&gt;Node17 -->
<g id="edge20" class="edge"><title>Node14&#45;&gt;Node17</title>
<path fill="none" stroke="midnightblue" d="M517.091,-130.492C507.593,-128.367 497.425,-126.095 488,-124 432.721,-111.71 369.977,-97.864 323.846,-87.7035"/>
<polygon fill="midnightblue" stroke="midnightblue" points="324.488,-84.261 313.969,-85.5285 322.982,-91.0972 324.488,-84.261"/>
</g>
<!-- Node19 -->
<g id="node19" class="node"><title>Node19</title>
<g id="a_node19"><a xlink:href="available__traits__mappings_8h.html" target="_top" xlink:title="shad/runtime/mappings\l/available_traits_mappings.h">
<polygon fill="white" stroke="black" points="370,-57 370,-87 510,-87 510,-57 370,-57"/>
<text text-anchor="start" x="378" y="-75" font-family="Helvetica,sans-Serif" font-size="10.00">shad/runtime/mappings</text>
<text text-anchor="middle" x="440" y="-64" font-family="Helvetica,sans-Serif" font-size="10.00">/available_traits_mappings.h</text>
</a>
</g>
</g>
<!-- Node14&#45;&gt;Node19 -->
<g id="edge23" class="edge"><title>Node14&#45;&gt;Node19</title>
<path fill="none" stroke="midnightblue" d="M539.966,-130.372C523.163,-120.729 495.431,-104.812 473.433,-92.1874"/>
<polygon fill="midnightblue" stroke="midnightblue" points="475.125,-89.1235 464.71,-87.1815 471.641,-95.1947 475.125,-89.1235"/>
</g>
<!-- Node17&#45;&gt;Node16 -->
<g id="edge22" class="edge"><title>Node17&#45;&gt;Node16</title>
<path fill="none" stroke="midnightblue" d="M277.144,-56.7808C290.595,-47.2862 308.222,-34.8434 321.704,-25.3267"/>
<polygon fill="midnightblue" stroke="midnightblue" points="323.728,-28.182 329.879,-19.5557 319.691,-22.4632 323.728,-28.182"/>
</g>
<!-- Node18 -->
<g id="node18" class="node"><title>Node18</title>
<polygon fill="white" stroke="#bfbfbf" points="230.5,-0.5 230.5,-19.5 271.5,-19.5 271.5,-0.5 230.5,-0.5"/>
<text text-anchor="middle" x="251" y="-7.5" font-family="Helvetica,sans-Serif" font-size="10.00">string</text>
</g>
<!-- Node17&#45;&gt;Node18 -->
<g id="edge21" class="edge"><title>Node17&#45;&gt;Node18</title>
<path fill="none" stroke="midnightblue" d="M255.578,-56.7808C254.769,-48.6913 253.746,-38.4617 252.873,-29.725"/>
<polygon fill="midnightblue" stroke="midnightblue" points="256.351,-29.3326 251.873,-19.7305 249.386,-30.0292 256.351,-29.3326"/>
</g>
<!-- Node20&#45;&gt;Node2 -->
<g id="edge27" class="edge"><title>Node20&#45;&gt;Node2</title>
<path fill="none" stroke="midnightblue" d="M766.736,-266.478C776.942,-264.353 787.87,-262.085 798,-260 876.629,-243.814 897.517,-244.995 975,-224 978.642,-223.013 982.421,-221.887 986.165,-220.704"/>
<polygon fill="midnightblue" stroke="midnightblue" points="987.478,-223.957 995.88,-217.501 985.287,-217.309 987.478,-223.957"/>
</g>
<!-- Node20&#45;&gt;Node3 -->
<g id="edge29" class="edge"><title>Node20&#45;&gt;Node3</title>
<path fill="none" stroke="midnightblue" d="M689.535,-266.432C678.203,-264.031 665.633,-261.634 654,-260 439.076,-229.802 378.571,-272.395 167,-224 163.75,-223.257 160.413,-222.281 157.13,-221.183"/>
<polygon fill="midnightblue" stroke="midnightblue" points="158.177,-217.838 147.584,-217.632 155.737,-224.399 158.177,-217.838"/>
</g>
<!-- Node20&#45;&gt;Node5 -->
<g id="edge34" class="edge"><title>Node20&#45;&gt;Node5</title>
<path fill="none" stroke="midnightblue" d="M784.191,-267.187C850.449,-258.024 961.843,-241.807 1057,-224 1069.5,-221.661 1083.21,-218.712 1095.02,-216.048"/>
<polygon fill="midnightblue" stroke="midnightblue" points="1095.87,-219.445 1104.84,-213.804 1094.31,-212.621 1095.87,-219.445"/>
</g>
<!-- Node20&#45;&gt;Node6 -->
<g id="edge35" class="edge"><title>Node20&#45;&gt;Node6</title>
<path fill="none" stroke="midnightblue" d="M784.328,-274.131C867.853,-271.533 1025.62,-261.56 1154,-224 1156.19,-223.359 1158.42,-222.575 1160.62,-221.706"/>
<polygon fill="midnightblue" stroke="midnightblue" points="1162.26,-224.808 1169.95,-217.522 1159.39,-218.421 1162.26,-224.808"/>
</g>
<!-- Node20&#45;&gt;Node14 -->
<g id="edge42" class="edge"><title>Node20&#45;&gt;Node14</title>
<path fill="none" stroke="midnightblue" d="M686.06,-266.427C675.639,-264.259 664.41,-261.985 654,-260 607.921,-251.215 476.209,-259.887 446,-224 420.262,-193.425 475.27,-167.229 516.114,-152.836"/>
<polygon fill="midnightblue" stroke="midnightblue" points="517.274,-156.138 525.616,-149.605 515.021,-149.511 517.274,-156.138"/>
</g>
<!-- Node20&#45;&gt;Node15 -->
<g id="edge26" class="edge"><title>Node20&#45;&gt;Node15</title>
<path fill="none" stroke="midnightblue" d="M763.266,-266.436C819.019,-253.476 918.263,-229.778 924,-224 955.764,-192.009 970.084,-158.446 941,-124 907.122,-83.8771 744.954,-75.3146 674.17,-73.4913"/>
<polygon fill="midnightblue" stroke="midnightblue" points="674.098,-69.9888 664.021,-73.2604 673.939,-76.987 674.098,-69.9888"/>
</g>
<!-- Node20&#45;&gt;Node16 -->
<g id="edge36" class="edge"><title>Node20&#45;&gt;Node16</title>
<path fill="none" stroke="midnightblue" d="M688.121,-266.436C676.574,-264.065 663.809,-261.683 652,-260 604.315,-253.204 256.151,-255.83 220,-224 163.131,-173.928 145.715,-116.749 191,-56 202.096,-41.1153 243.877,-29.3638 280.684,-21.6076"/>
<polygon fill="midnightblue" stroke="midnightblue" points="281.804,-24.9515 290.904,-19.5266 280.407,-18.0923 281.804,-24.9515"/>
</g>
<!-- Node20&#45;&gt;Node17 -->
<g id="edge43" class="edge"><title>Node20&#45;&gt;Node17</title>
<path fill="none" stroke="midnightblue" d="M688.118,-266.463C676.57,-264.092 663.806,-261.704 652,-260 606.3,-253.403 269.203,-258.034 238,-224 206.122,-189.23 227.947,-129.518 244.076,-96.5621"/>
<polygon fill="midnightblue" stroke="midnightblue" points="247.4,-97.7484 248.832,-87.2508 241.166,-94.5639 247.4,-97.7484"/>
</g>
<!-- Node21 -->
<g id="node21" class="node"><title>Node21</title>
<polygon fill="white" stroke="#bfbfbf" points="883.5,-130.5 883.5,-149.5 932.5,-149.5 932.5,-130.5 883.5,-130.5"/>
<text text-anchor="middle" x="908" y="-137.5" font-family="Helvetica,sans-Serif" font-size="10.00">cstddef</text>
</g>
<!-- Node20&#45;&gt;Node21 -->
<g id="edge25" class="edge"><title>Node20&#45;&gt;Node21</title>
<path fill="none" stroke="midnightblue" d="M764.711,-266.42C814.378,-255.035 895.217,-235.087 904,-224 918.311,-205.935 916.319,-178.095 912.798,-159.715"/>
<polygon fill="midnightblue" stroke="midnightblue" points="916.2,-158.892 910.6,-149.898 909.369,-160.421 916.2,-158.892"/>
</g>
<!-- Node22 -->
<g id="node22" class="node"><title>Node22</title>
<polygon fill="white" stroke="#bfbfbf" points="643,-198.5 643,-217.5 697,-217.5 697,-198.5 643,-198.5"/>
<text text-anchor="middle" x="670" y="-205.5" font-family="Helvetica,sans-Serif" font-size="10.00">iostream</text>
</g>
<!-- Node20&#45;&gt;Node22 -->
<g id="edge28" class="edge"><title>Node20&#45;&gt;Node22</title>
<path fill="none" stroke="midnightblue" d="M718.679,-266.372C709.924,-256.053 695.074,-238.551 684.072,-225.585"/>
<polygon fill="midnightblue" stroke="midnightblue" points="686.64,-223.202 677.502,-217.841 681.303,-227.731 686.64,-223.202"/>
</g>
<!-- Node23 -->
<g id="node23" class="node"><title>Node23</title>
<polygon fill="white" stroke="#bfbfbf" points="715.5,-198.5 715.5,-217.5 750.5,-217.5 750.5,-198.5 715.5,-198.5"/>
<text text-anchor="middle" x="733" y="-205.5" font-family="Helvetica,sans-Serif" font-size="10.00">map</text>
</g>
<!-- Node20&#45;&gt;Node23 -->
<g id="edge30" class="edge"><title>Node20&#45;&gt;Node23</title>
<path fill="none" stroke="midnightblue" d="M726.915,-266.372C727.947,-256.643 729.656,-240.528 731.001,-227.85"/>
<polygon fill="midnightblue" stroke="midnightblue" points="734.488,-228.155 732.062,-217.841 727.527,-227.416 734.488,-228.155"/>
</g>
<!-- Node24 -->
<g id="node24" class="node"><title>Node24</title>
<polygon fill="white" stroke="#bfbfbf" points="669,-130.5 669,-149.5 721,-149.5 721,-130.5 669,-130.5"/>
<text text-anchor="middle" x="695" y="-137.5" font-family="Helvetica,sans-Serif" font-size="10.00">memory</text>
</g>
<!-- Node20&#45;&gt;Node24 -->
<g id="edge31" class="edge"><title>Node20&#45;&gt;Node24</title>
<path fill="none" stroke="midnightblue" d="M693.988,-266.485C672.899,-259.028 646.883,-245.872 634,-224 626.782,-211.746 627.978,-204.884 634,-192 641.314,-176.353 656.05,-163.817 669.207,-155.09"/>
<polygon fill="midnightblue" stroke="midnightblue" points="671.299,-157.911 677.952,-149.665 667.609,-151.963 671.299,-157.911"/>
</g>
<!-- Node25 -->
<g id="node25" class="node"><title>Node25</title>
<polygon fill="white" stroke="#bfbfbf" points="769,-198.5 769,-217.5 799,-217.5 799,-198.5 769,-198.5"/>
<text text-anchor="middle" x="784" y="-205.5" font-family="Helvetica,sans-Serif" font-size="10.00">set</text>
</g>
<!-- Node20&#45;&gt;Node25 -->
<g id="edge32" class="edge"><title>Node20&#45;&gt;Node25</title>
<path fill="none" stroke="midnightblue" d="M733.582,-266.372C742.65,-256.053 758.031,-238.551 769.425,-225.585"/>
<polygon fill="midnightblue" stroke="midnightblue" points="772.258,-227.663 776.231,-217.841 767,-223.042 772.258,-227.663"/>
</g>
<!-- Node26 -->
<g id="node26" class="node"><title>Node26</title>
<polygon fill="white" stroke="#bfbfbf" points="817,-198.5 817,-217.5 895,-217.5 895,-198.5 817,-198.5"/>
<text text-anchor="middle" x="856" y="-205.5" font-family="Helvetica,sans-Serif" font-size="10.00">unordered_set</text>
</g>
<!-- Node20&#45;&gt;Node26 -->
<g id="edge33" class="edge"><title>Node20&#45;&gt;Node26</title>
<path fill="none" stroke="midnightblue" d="M742.995,-266.372C765.087,-255.156 803.895,-235.453 829.776,-222.314"/>
<polygon fill="midnightblue" stroke="midnightblue" points="831.668,-225.278 839.001,-217.63 828.499,-219.037 831.668,-225.278"/>
</g>
<!-- Node27 -->
<g id="node27" class="node"><title>Node27</title>
<g id="a_node27"><a xlink:href="handle_8h.html" target="_top" xlink:title="shad/runtime/handle.h">
<polygon fill="white" stroke="black" points="247.5,-198.5 247.5,-217.5 360.5,-217.5 360.5,-198.5 247.5,-198.5"/>
<text text-anchor="middle" x="304" y="-205.5" font-family="Helvetica,sans-Serif" font-size="10.00">shad/runtime/handle.h</text>
</a>
</g>
</g>
<!-- Node20&#45;&gt;Node27 -->
<g id="edge37" class="edge"><title>Node20&#45;&gt;Node27</title>
<path fill="none" stroke="midnightblue" d="M687.616,-266.432C676.779,-264.168 664.954,-261.845 654,-260 530.708,-239.235 498.262,-244.939 375,-224 367.315,-222.695 359.197,-221.144 351.304,-219.543"/>
<polygon fill="midnightblue" stroke="midnightblue" points="351.98,-216.108 341.477,-217.502 350.557,-222.962 351.98,-216.108"/>
</g>
<!-- Node28 -->
<g id="node28" class="node"><title>Node28</title>
<g id="a_node28"><a xlink:href="available__mappings_8h.html" target="_top" xlink:title="shad/runtime/mappings\l/available_mappings.h">
<polygon fill="white" stroke="black" points="361,-125 361,-155 479,-155 479,-125 361,-125"/>
<text text-anchor="start" x="369" y="-143" font-family="Helvetica,sans-Serif" font-size="10.00">shad/runtime/mappings</text>
<text text-anchor="middle" x="420" y="-132" font-family="Helvetica,sans-Serif" font-size="10.00">/available_mappings.h</text>
</a>
</g>
</g>
<!-- Node20&#45;&gt;Node28 -->
<g id="edge44" class="edge"><title>Node20&#45;&gt;Node28</title>
<path fill="none" stroke="midnightblue" d="M686.447,-266.45C675.92,-264.259 664.543,-261.968 654,-260 605.733,-250.991 471.181,-258.251 436,-224 420.618,-209.024 417.591,-184.061 417.822,-165.415"/>
<polygon fill="midnightblue" stroke="midnightblue" points="421.324,-165.433 418.265,-155.289 414.331,-165.127 421.324,-165.433"/>
</g>
<!-- Node29 -->
<g id="node29" class="node"><title>Node29</title>
<g id="a_node29"><a xlink:href="synchronous__interface_8h.html" target="_top" xlink:title="shad/runtime/synchronous\l_interface.h">
<polygon fill="white" stroke="black" points="455.5,-193 455.5,-223 586.5,-223 586.5,-193 455.5,-193"/>
<text text-anchor="start" x="463.5" y="-211" font-family="Helvetica,sans-Serif" font-size="10.00">shad/runtime/synchronous</text>
<text text-anchor="middle" x="521" y="-200" font-family="Helvetica,sans-Serif" font-size="10.00">_interface.h</text>
</a>
</g>
</g>
<!-- Node20&#45;&gt;Node29 -->
<g id="edge46" class="edge"><title>Node20&#45;&gt;Node29</title>
<path fill="none" stroke="midnightblue" d="M699.2,-266.372C667.617,-256.203 614.369,-239.06 574.286,-226.156"/>
<polygon fill="midnightblue" stroke="midnightblue" points="575.251,-222.789 564.659,-223.056 573.106,-229.452 575.251,-222.789"/>
</g>
<!-- Node27&#45;&gt;Node8 -->
<g id="edge38" class="edge"><title>Node27&#45;&gt;Node8</title>
<path fill="none" stroke="midnightblue" d="M360.61,-200.486C386.602,-197.633 417.841,-194.396 446,-192 731.486,-167.705 1075.97,-149.123 1193.44,-143.089"/>
<polygon fill="midnightblue" stroke="midnightblue" points="1193.96,-146.567 1203.77,-142.561 1193.6,-139.576 1193.96,-146.567"/>
</g>
<!-- Node27&#45;&gt;Node16 -->
<g id="edge39" class="edge"><title>Node27&#45;&gt;Node16</title>
<path fill="none" stroke="midnightblue" d="M305.682,-198.325C311.432,-168.664 330.396,-70.8504 338.393,-29.6044"/>
<polygon fill="midnightblue" stroke="midnightblue" points="341.87,-30.058 340.338,-19.5746 334.998,-28.7256 341.87,-30.058"/>
</g>
<!-- Node27&#45;&gt;Node17 -->
<g id="edge40" class="edge"><title>Node27&#45;&gt;Node17</title>
<path fill="none" stroke="midnightblue" d="M299.713,-198.493C294.779,-188.492 286.635,-171.314 281,-156 273.862,-136.6 267.454,-114.034 263.058,-97.3323"/>
<polygon fill="midnightblue" stroke="midnightblue" points="266.357,-96.1072 260.473,-87.2964 259.578,-97.8534 266.357,-96.1072"/>
</g>
<!-- Node27&#45;&gt;Node19 -->
<g id="edge41" class="edge"><title>Node27&#45;&gt;Node19</title>
<path fill="none" stroke="midnightblue" d="M307.265,-198.271C313.706,-181.992 329.411,-146.61 352,-124 365.041,-110.947 382.097,-100.053 397.718,-91.7299"/>
<polygon fill="midnightblue" stroke="midnightblue" points="399.401,-94.8008 406.709,-87.1298 396.212,-88.5691 399.401,-94.8008"/>
</g>
<!-- Node28&#45;&gt;Node19 -->
<g id="edge45" class="edge"><title>Node28&#45;&gt;Node19</title>
<path fill="none" stroke="midnightblue" d="M424.34,-124.679C426.777,-116.636 429.883,-106.385 432.686,-97.1369"/>
<polygon fill="midnightblue" stroke="midnightblue" points="436.118,-97.8784 435.669,-87.2931 429.419,-95.8483 436.118,-97.8784"/>
</g>
<!-- Node29&#45;&gt;Node14 -->
<g id="edge50" class="edge"><title>Node29&#45;&gt;Node14</title>
<path fill="none" stroke="midnightblue" d="M528.377,-192.679C533.469,-182.796 540.277,-169.579 545.734,-158.986"/>
<polygon fill="midnightblue" stroke="midnightblue" points="548.984,-160.321 550.452,-149.828 542.761,-157.115 548.984,-160.321"/>
</g>
<!-- Node29&#45;&gt;Node15 -->
<g id="edge48" class="edge"><title>Node29&#45;&gt;Node15</title>
<path fill="none" stroke="midnightblue" d="M567.752,-192.905C586.839,-184.936 607.543,-173.062 621,-156 635.526,-137.583 639.735,-110.219 640.832,-92.0069"/>
<polygon fill="midnightblue" stroke="midnightblue" points="644.338,-91.892 641.179,-81.7791 637.342,-91.6546 644.338,-91.892"/>
</g>
<!-- Node29&#45;&gt;Node21 -->
<g id="edge47" class="edge"><title>Node29&#45;&gt;Node21</title>
<path fill="none" stroke="midnightblue" d="M586.649,-195.804C669.382,-181.695 808.554,-157.96 873.135,-146.946"/>
<polygon fill="midnightblue" stroke="midnightblue" points="873.936,-150.36 883.205,-145.229 872.759,-143.46 873.936,-150.36"/>
</g>
<!-- Node29&#45;&gt;Node24 -->
<g id="edge49" class="edge"><title>Node29&#45;&gt;Node24</title>
<path fill="none" stroke="midnightblue" d="M558.327,-192.841C589.459,-181.033 633.351,-164.384 662.922,-153.168"/>
<polygon fill="midnightblue" stroke="midnightblue" points="664.253,-156.406 672.362,-149.587 661.771,-149.861 664.253,-156.406"/>
</g>
<!-- Node30&#45;&gt;Node3 -->
<g id="edge53" class="edge"><title>Node30&#45;&gt;Node3</title>
<path fill="none" stroke="midnightblue" d="M1079.3,-329.335C1076.16,-328.851 1073.03,-328.399 1070,-328 888.206,-304.044 830.38,-357.207 659,-292 636.735,-283.528 638.296,-268.39 616,-260 428.629,-189.497 362.016,-269.247 167,-224 163.753,-223.247 160.417,-222.264 157.135,-221.162"/>
<polygon fill="midnightblue" stroke="midnightblue" points="158.183,-217.818 147.59,-217.608 155.74,-224.378 158.183,-217.818"/>
</g>
<!-- Node30&#45;&gt;Node4 -->
<g id="edge54" class="edge"><title>Node30&#45;&gt;Node4</title>
<path fill="none" stroke="midnightblue" d="M1157.26,-328.467C1208.27,-316.466 1300.18,-294.839 1346.96,-283.834"/>
<polygon fill="midnightblue" stroke="midnightblue" points="1347.82,-287.225 1356.76,-281.528 1346.22,-280.411 1347.82,-287.225"/>
</g>
<!-- Node30&#45;&gt;Node5 -->
<g id="edge56" class="edge"><title>Node30&#45;&gt;Node5</title>
<path fill="none" stroke="midnightblue" d="M1121.27,-328.202C1121.92,-307.551 1123.54,-255.606 1124.42,-227.594"/>
<polygon fill="midnightblue" stroke="midnightblue" points="1127.92,-227.627 1124.73,-217.522 1120.92,-227.408 1127.92,-227.627"/>
</g>
<!-- Node30&#45;&gt;Node6 -->
<g id="edge57" class="edge"><title>Node30&#45;&gt;Node6</title>
<path fill="none" stroke="midnightblue" d="M1125.4,-328.202C1135.86,-307.275 1162.39,-254.216 1176.26,-226.486"/>
<polygon fill="midnightblue" stroke="midnightblue" points="1179.4,-228.032 1180.74,-217.522 1173.14,-224.901 1179.4,-228.032"/>
</g>
<!-- Node30&#45;&gt;Node8 -->
<g id="edge55" class="edge"><title>Node30&#45;&gt;Node8</title>
<path fill="none" stroke="midnightblue" d="M1130.89,-328.496C1150.46,-311.068 1194.02,-269.122 1215,-224 1224.74,-203.052 1230.03,-176.846 1232.68,-159.549"/>
<polygon fill="midnightblue" stroke="midnightblue" points="1236.16,-160 1234.07,-149.614 1229.22,-159.037 1236.16,-160"/>
</g>
<!-- Node30&#45;&gt;Node12 -->
<g id="edge58" class="edge"><title>Node30&#45;&gt;Node12</title>
<path fill="none" stroke="midnightblue" d="M1079.3,-329.282C1076.16,-328.811 1073.03,-328.376 1070,-328 948.131,-312.898 586.921,-290.401 432.883,-281.175"/>
<polygon fill="midnightblue" stroke="midnightblue" points="432.79,-277.664 422.599,-280.561 432.372,-284.651 432.79,-277.664"/>
</g>
<!-- Node30&#45;&gt;Node20 -->
<g id="edge59" class="edge"><title>Node30&#45;&gt;Node20</title>
<path fill="none" stroke="midnightblue" d="M1079.27,-329.539C1076.13,-329.008 1073.02,-328.49 1070,-328 974.432,-312.486 863.609,-296.396 794.144,-286.54"/>
<polygon fill="midnightblue" stroke="midnightblue" points="794.594,-283.068 784.202,-285.131 793.613,-289.999 794.594,-283.068"/>
</g>
<!-- Node30&#45;&gt;Node21 -->
<g id="edge52" class="edge"><title>Node30&#45;&gt;Node21</title>
<path fill="none" stroke="midnightblue" d="M1119.67,-328.422C1115.37,-303.613 1099.58,-231.069 1057,-192 1025.19,-162.809 975.929,-150.226 942.851,-144.868"/>
<polygon fill="midnightblue" stroke="midnightblue" points="943.127,-141.371 932.723,-143.37 942.103,-148.295 943.127,-141.371"/>
</g>
</g>
</svg>
