<?xml version="1.0" encoding="UTF-8" standalone="no"?>
<!DOCTYPE svg PUBLIC "-//W3C//DTD SVG 1.1//EN"
 "http://www.w3.org/Graphics/SVG/1.1/DTD/svg11.dtd">
<!-- Generated by graphviz version 2.36.0 (20140111.2315)
 -->
<!-- Title: include/shad/core/numeric.h Pages: 1 -->
<svg width="1270pt" height="480pt"
 viewBox="0.00 0.00 1270.00 480.00" xmlns="http://www.w3.org/2000/svg" xmlns:xlink="http://www.w3.org/1999/xlink">
<g id="graph0" class="graph" transform="scale(1 1) rotate(0) translate(4 476)">
<title>include/shad/core/numeric.h</title>
<polygon fill="white" stroke="none" points="-4,4 -4,-476 1266,-476 1266,4 -4,4"/>
<!-- Node1 -->
<g id="node1" class="node"><title>Node1</title>
<polygon fill="#bfbfbf" stroke="black" points="890.5,-452.5 890.5,-471.5 1029.5,-471.5 1029.5,-452.5 890.5,-452.5"/>
<text text-anchor="middle" x="960" y="-459.5" font-family="Helvetica,sans-Serif" font-size="10.00">include/shad/core/numeric.h</text>
</g>
<!-- Node2 -->
<g id="node2" class="node"><title>Node2</title>
<polygon fill="white" stroke="#bfbfbf" points="1117.5,-198.5 1117.5,-217.5 1176.5,-217.5 1176.5,-198.5 1117.5,-198.5"/>
<text text-anchor="middle" x="1147" y="-205.5" font-family="Helvetica,sans-Serif" font-size="10.00">functional</text>
</g>
<!-- Node1&#45;&gt;Node2 -->
<g id="edge1" class="edge"><title>Node1&#45;&gt;Node2</title>
<path fill="none" stroke="midnightblue" d="M971.998,-452.188C983.122,-443.672 999.752,-430.031 1012,-416 1067.45,-352.48 1117.32,-264.496 1137.5,-227.042"/>
<polygon fill="midnightblue" stroke="midnightblue" points="1140.77,-228.351 1142.39,-217.881 1134.6,-225.058 1140.77,-228.351"/>
</g>
<!-- Node3 -->
<g id="node3" class="node"><title>Node3</title>
<polygon fill="white" stroke="#bfbfbf" points="-0.5,-198.5 -0.5,-217.5 46.5,-217.5 46.5,-198.5 -0.5,-198.5"/>
<text text-anchor="middle" x="23" y="-205.5" font-family="Helvetica,sans-Serif" font-size="10.00">iterator</text>
</g>
<!-- Node1&#45;&gt;Node3 -->
<g id="edge2" class="edge"><title>Node1&#45;&gt;Node3</title>
<path fill="none" stroke="midnightblue" d="M890.437,-457.17C813.844,-451.932 687.435,-440.259 581,-416 415.186,-378.207 377.845,-352.752 219,-292 158.643,-268.916 89.2873,-238.639 51.391,-221.768"/>
<polygon fill="midnightblue" stroke="midnightblue" points="52.5722,-218.463 42.0141,-217.581 49.7181,-224.855 52.5722,-218.463"/>
</g>
<!-- Node4 -->
<g id="node4" class="node"><title>Node4</title>
<polygon fill="white" stroke="#bfbfbf" points="941,-266.5 941,-285.5 979,-285.5 979,-266.5 941,-266.5"/>
<text text-anchor="middle" x="960" y="-273.5" font-family="Helvetica,sans-Serif" font-size="10.00">tuple</text>
</g>
<!-- Node1&#45;&gt;Node4 -->
<g id="edge3" class="edge"><title>Node1&#45;&gt;Node4</title>
<path fill="none" stroke="midnightblue" d="M960,-452.125C960,-423.769 960,-334.93 960,-295.811"/>
<polygon fill="midnightblue" stroke="midnightblue" points="963.5,-295.786 960,-285.786 956.5,-295.786 963.5,-295.786"/>
</g>
<!-- Node5 -->
<g id="node5" class="node"><title>Node5</title>
<polygon fill="white" stroke="#bfbfbf" points="959,-198.5 959,-217.5 999,-217.5 999,-198.5 959,-198.5"/>
<text text-anchor="middle" x="979" y="-205.5" font-family="Helvetica,sans-Serif" font-size="10.00">utility</text>
</g>
<!-- Node1&#45;&gt;Node5 -->
<g id="edge4" class="edge"><title>Node1&#45;&gt;Node5</title>
<path fill="none" stroke="midnightblue" d="M963.294,-452.167C966.513,-443.187 971.309,-428.811 974,-416 988.309,-347.874 994.072,-329.347 988,-260 987.053,-249.185 984.997,-237.226 983.089,-227.608"/>
<polygon fill="midnightblue" stroke="midnightblue" points="986.469,-226.671 980.992,-217.602 979.618,-228.107 986.469,-226.671"/>
</g>
<!-- Node6 -->
<g id="node6" class="node"><title>Node6</title>
<polygon fill="white" stroke="#bfbfbf" points="1017,-198.5 1017,-217.5 1061,-217.5 1061,-198.5 1017,-198.5"/>
<text text-anchor="middle" x="1039" y="-205.5" font-family="Helvetica,sans-Serif" font-size="10.00">vector</text>
</g>
<!-- Node1&#45;&gt;Node6 -->
<g id="edge5" class="edge"><title>Node1&#45;&gt;Node6</title>
<path fill="none" stroke="midnightblue" d="M967.758,-452.344C975.074,-443.727 985.814,-429.826 992,-416 1021.2,-350.74 1033.13,-265.511 1037.2,-228.058"/>
<polygon fill="midnightblue" stroke="midnightblue" points="1040.73,-227.965 1038.26,-217.663 1033.77,-227.258 1040.73,-227.965"/>
</g>
<!-- Node7 -->
<g id="node7" class="node"><title>Node7</title>
<g id="a_node7"><a xlink:href="execution_8h.html" target="_top" xlink:title="shad/core/execution.h">
<polygon fill="white" stroke="black" points="1149.5,-328.5 1149.5,-347.5 1262.5,-347.5 1262.5,-328.5 1149.5,-328.5"/>
<text text-anchor="middle" x="1206" y="-335.5" font-family="Helvetica,sans-Serif" font-size="10.00">shad/core/execution.h</text>
</a>
</g>
</g>
<!-- Node1&#45;&gt;Node7 -->
<g id="edge6" class="edge"><title>Node1&#45;&gt;Node7</title>
<path fill="none" stroke="midnightblue" d="M1029.61,-452.508C1063.23,-446.132 1103.09,-435.074 1135,-416 1160.28,-400.885 1182,-374.065 1194.54,-356.407"/>
<polygon fill="midnightblue" stroke="midnightblue" points="1197.76,-357.9 1200.52,-347.672 1191.98,-353.943 1197.76,-357.9"/>
</g>
<!-- Node9 -->
<g id="node9" class="node"><title>Node9</title>
<g id="a_node9"><a xlink:href="numeric__ops_8h.html" target="_top" xlink:title="shad/core/impl/numeric\l_ops.h">
<polygon fill="white" stroke="black" points="724,-385 724,-415 842,-415 842,-385 724,-385"/>
<text text-anchor="start" x="732" y="-403" font-family="Helvetica,sans-Serif" font-size="10.00">shad/core/impl/numeric</text>
<text text-anchor="middle" x="783" y="-392" font-family="Helvetica,sans-Serif" font-size="10.00">_ops.h</text>
</a>
</g>
</g>
<!-- Node1&#45;&gt;Node9 -->
<g id="edge8" class="edge"><title>Node1&#45;&gt;Node9</title>
<path fill="none" stroke="midnightblue" d="M934.64,-452.403C908.453,-443.526 866.875,-429.432 833.874,-418.245"/>
<polygon fill="midnightblue" stroke="midnightblue" points="834.969,-414.921 824.375,-415.025 832.722,-421.551 834.969,-414.921"/>
</g>
<!-- Node12 -->
<g id="node12" class="node"><title>Node12</title>
<g id="a_node12"><a xlink:href="distributed__iterator__traits_8h.html" target="_top" xlink:title="shad/distributed_iterator\l_traits.h">
<polygon fill="white" stroke="black" points="382.5,-261 382.5,-291 503.5,-291 503.5,-261 382.5,-261"/>
<text text-anchor="start" x="390.5" y="-279" font-family="Helvetica,sans-Serif" font-size="10.00">shad/distributed_iterator</text>
<text text-anchor="middle" x="443" y="-268" font-family="Helvetica,sans-Serif" font-size="10.00">_traits.h</text>
</a>
</g>
</g>
<!-- Node1&#45;&gt;Node12 -->
<g id="edge59" class="edge"><title>Node1&#45;&gt;Node12</title>
<path fill="none" stroke="midnightblue" d="M890.495,-460.222C824.869,-457.399 724.753,-447.623 644,-416 572.315,-387.928 501.269,-329.818 465.97,-298.355"/>
<polygon fill="midnightblue" stroke="midnightblue" points="467.956,-295.433 458.188,-291.33 463.266,-300.629 467.956,-295.433"/>
</g>
<!-- Node19 -->
<g id="node19" class="node"><title>Node19</title>
<g id="a_node19"><a xlink:href="runtime_8h.html" target="_top" xlink:title="shad/runtime/runtime.h">
<polygon fill="white" stroke="black" points="560,-266.5 560,-285.5 676,-285.5 676,-266.5 560,-266.5"/>
<text text-anchor="middle" x="618" y="-273.5" font-family="Helvetica,sans-Serif" font-size="10.00">shad/runtime/runtime.h</text>
</a>
</g>
</g>
<!-- Node1&#45;&gt;Node19 -->
<g id="edge60" class="edge"><title>Node1&#45;&gt;Node19</title>
<path fill="none" stroke="midnightblue" d="M890.346,-456.369C839.995,-451.098 771.229,-439.869 715,-416 667.204,-395.711 644.384,-393.842 620,-348 611.509,-332.037 612.088,-311.068 614.133,-296.065"/>
<polygon fill="midnightblue" stroke="midnightblue" points="617.63,-296.381 615.857,-285.936 610.729,-295.207 617.63,-296.381"/>
</g>
<!-- Node8 -->
<g id="node8" class="node"><title>Node8</title>
<polygon fill="white" stroke="#bfbfbf" points="1058,-130.5 1058,-149.5 1120,-149.5 1120,-130.5 1058,-130.5"/>
<text text-anchor="middle" x="1089" y="-137.5" font-family="Helvetica,sans-Serif" font-size="10.00">type_traits</text>
</g>
<!-- Node7&#45;&gt;Node8 -->
<g id="edge7" class="edge"><title>Node7&#45;&gt;Node8</title>
<path fill="none" stroke="midnightblue" d="M1207.27,-328.182C1210.28,-303.949 1215.45,-235.27 1185,-192 1171.84,-173.297 1149.63,-160.874 1129.89,-152.975"/>
<polygon fill="midnightblue" stroke="midnightblue" points="1131.04,-149.668 1120.44,-149.453 1128.59,-156.227 1131.04,-149.668"/>
</g>
<!-- Node9&#45;&gt;Node2 -->
<g id="edge10" class="edge"><title>Node9&#45;&gt;Node2</title>
<path fill="none" stroke="midnightblue" d="M819.197,-384.894C843.269,-375.203 875.412,-361.663 903,-348 986.873,-306.461 1082.17,-249.053 1124.59,-222.937"/>
<polygon fill="midnightblue" stroke="midnightblue" points="1126.61,-225.803 1133.28,-217.57 1122.93,-219.848 1126.61,-225.803"/>
</g>
<!-- Node9&#45;&gt;Node3 -->
<g id="edge11" class="edge"><title>Node9&#45;&gt;Node3</title>
<path fill="none" stroke="midnightblue" d="M723.797,-385.329C680.353,-375.222 619.946,-361.014 567,-348 373.217,-300.37 141.493,-240.032 56.4221,-217.767"/>
<polygon fill="midnightblue" stroke="midnightblue" points="57.1166,-214.331 46.5561,-215.183 55.3433,-221.102 57.1166,-214.331"/>
</g>
<!-- Node9&#45;&gt;Node7 -->
<g id="edge13" class="edge"><title>Node9&#45;&gt;Node7</title>
<path fill="none" stroke="midnightblue" d="M842.262,-390.594C920.403,-379.51 1057.52,-360.061 1139.24,-348.47"/>
<polygon fill="midnightblue" stroke="midnightblue" points="1139.76,-351.931 1149.17,-347.061 1138.77,-345.001 1139.76,-351.931"/>
</g>
<!-- Node10 -->
<g id="node10" class="node"><title>Node10</title>
<polygon fill="white" stroke="#bfbfbf" points="629,-328.5 629,-347.5 685,-347.5 685,-328.5 629,-328.5"/>
<text text-anchor="middle" x="657" y="-335.5" font-family="Helvetica,sans-Serif" font-size="10.00">algorithm</text>
</g>
<!-- Node9&#45;&gt;Node10 -->
<g id="edge9" class="edge"><title>Node9&#45;&gt;Node10</title>
<path fill="none" stroke="midnightblue" d="M753.459,-384.933C732.486,-374.946 704.543,-361.64 684.133,-351.92"/>
<polygon fill="midnightblue" stroke="midnightblue" points="685.593,-348.739 675.06,-347.6 682.584,-355.059 685.593,-348.739"/>
</g>
<!-- Node11 -->
<g id="node11" class="node"><title>Node11</title>
<polygon fill="white" stroke="#bfbfbf" points="703.5,-328.5 703.5,-347.5 754.5,-347.5 754.5,-328.5 703.5,-328.5"/>
<text text-anchor="middle" x="729" y="-335.5" font-family="Helvetica,sans-Serif" font-size="10.00">numeric</text>
</g>
<!-- Node9&#45;&gt;Node11 -->
<g id="edge12" class="edge"><title>Node9&#45;&gt;Node11</title>
<path fill="none" stroke="midnightblue" d="M770.203,-384.781C762.275,-375.972 752.064,-364.626 743.79,-355.433"/>
<polygon fill="midnightblue" stroke="midnightblue" points="746.149,-352.822 736.857,-347.731 740.946,-357.505 746.149,-352.822"/>
</g>
<!-- Node9&#45;&gt;Node12 -->
<g id="edge14" class="edge"><title>Node9&#45;&gt;Node12</title>
<path fill="none" stroke="midnightblue" d="M734.529,-384.918C701.935,-375.185 658.125,-361.588 620,-348 573.533,-331.439 521.199,-310.106 485.567,-295.165"/>
<polygon fill="midnightblue" stroke="midnightblue" points="486.554,-291.782 475.979,-291.129 483.838,-298.234 486.554,-291.782"/>
</g>
<!-- Node9&#45;&gt;Node19 -->
<g id="edge23" class="edge"><title>Node9&#45;&gt;Node19</title>
<path fill="none" stroke="midnightblue" d="M782.735,-384.877C781.686,-369.058 777.634,-343.596 763,-328 742.916,-306.595 713.323,-294.169 686.099,-286.958"/>
<polygon fill="midnightblue" stroke="midnightblue" points="686.745,-283.512 676.199,-284.53 685.077,-290.311 686.745,-283.512"/>
</g>
<!-- Node29 -->
<g id="node29" class="node"><title>Node29</title>
<g id="a_node29"><a xlink:href="impl__patterns_8h.html" target="_top" xlink:title="impl_patterns.h">
<polygon fill="white" stroke="black" points="811.5,-328.5 811.5,-347.5 894.5,-347.5 894.5,-328.5 811.5,-328.5"/>
<text text-anchor="middle" x="853" y="-335.5" font-family="Helvetica,sans-Serif" font-size="10.00">impl_patterns.h</text>
</a>
</g>
</g>
<!-- Node9&#45;&gt;Node29 -->
<g id="edge50" class="edge"><title>Node9&#45;&gt;Node29</title>
<path fill="none" stroke="midnightblue" d="M799.589,-384.781C810.285,-375.613 824.188,-363.696 835.128,-354.319"/>
<polygon fill="midnightblue" stroke="midnightblue" points="837.5,-356.896 842.814,-347.731 832.944,-351.581 837.5,-356.896"/>
</g>
<!-- Node12&#45;&gt;Node3 -->
<g id="edge15" class="edge"><title>Node12&#45;&gt;Node3</title>
<path fill="none" stroke="midnightblue" d="M382.36,-268.722C290.458,-258.899 120.332,-239.425 61,-224 57.941,-223.205 54.7956,-222.232 51.6865,-221.167"/>
<polygon fill="midnightblue" stroke="midnightblue" points="52.6214,-217.78 42.0289,-217.559 50.1716,-224.338 52.6214,-217.78"/>
</g>
<!-- Node13 -->
<g id="node13" class="node"><title>Node13</title>
<g id="a_node13"><a xlink:href="locality_8h.html" target="_top" xlink:title="shad/runtime/locality.h">
<polygon fill="white" stroke="black" points="307.5,-130.5 307.5,-149.5 422.5,-149.5 422.5,-130.5 307.5,-130.5"/>
<text text-anchor="middle" x="365" y="-137.5" font-family="Helvetica,sans-Serif" font-size="10.00">shad/runtime/locality.h</text>
</a>
</g>
</g>
<!-- Node12&#45;&gt;Node13 -->
<g id="edge16" class="edge"><title>Node12&#45;&gt;Node13</title>
<path fill="none" stroke="midnightblue" d="M382.35,-267.788C306.101,-258.102 183.477,-240.228 170,-224 130.623,-176.586 226.27,-155.684 297.097,-146.9"/>
<polygon fill="midnightblue" stroke="midnightblue" points="297.827,-150.338 307.348,-145.69 297.007,-143.386 297.827,-150.338"/>
</g>
<!-- Node14 -->
<g id="node14" class="node"><title>Node14</title>
<polygon fill="white" stroke="#bfbfbf" points="222,-62.5 222,-81.5 268,-81.5 268,-62.5 222,-62.5"/>
<text text-anchor="middle" x="245" y="-69.5" font-family="Helvetica,sans-Serif" font-size="10.00">cstdint</text>
</g>
<!-- Node13&#45;&gt;Node14 -->
<g id="edge17" class="edge"><title>Node13&#45;&gt;Node14</title>
<path fill="none" stroke="midnightblue" d="M349.312,-130.372C329.009,-119.205 293.412,-99.6266 269.523,-86.4876"/>
<polygon fill="midnightblue" stroke="midnightblue" points="271.141,-83.3829 260.692,-81.6305 267.767,-89.5165 271.141,-83.3829"/>
</g>
<!-- Node15 -->
<g id="node15" class="node"><title>Node15</title>
<polygon fill="white" stroke="#bfbfbf" points="601,-0.5 601,-19.5 705,-19.5 705,-0.5 601,-0.5"/>
<text text-anchor="middle" x="653" y="-7.5" font-family="Helvetica,sans-Serif" font-size="10.00">shad/config/config.h</text>
</g>
<!-- Node13&#45;&gt;Node15 -->
<g id="edge18" class="edge"><title>Node13&#45;&gt;Node15</title>
<path fill="none" stroke="midnightblue" d="M375.254,-130.43C395.651,-113.787 443.294,-76.8969 489,-56 523.433,-40.2572 564.52,-28.9948 596.955,-21.6743"/>
<polygon fill="midnightblue" stroke="midnightblue" points="597.71,-25.092 606.727,-19.5284 596.209,-18.255 597.71,-25.092"/>
</g>
<!-- Node16 -->
<g id="node16" class="node"><title>Node16</title>
<g id="a_node16"><a xlink:href="mapping__traits_8h.html" target="_top" xlink:title="shad/runtime/mapping\l_traits.h">
<polygon fill="white" stroke="black" points="498.5,-57 498.5,-87 611.5,-87 611.5,-57 498.5,-57"/>
<text text-anchor="start" x="506.5" y="-75" font-family="Helvetica,sans-Serif" font-size="10.00">shad/runtime/mapping</text>
<text text-anchor="middle" x="555" y="-64" font-family="Helvetica,sans-Serif" font-size="10.00">_traits.h</text>
</a>
</g>
</g>
<!-- Node13&#45;&gt;Node16 -->
<g id="edge19" class="edge"><title>Node13&#45;&gt;Node16</title>
<path fill="none" stroke="midnightblue" d="M389.839,-130.372C418.926,-120.268 467.838,-103.277 504.904,-90.4016"/>
<polygon fill="midnightblue" stroke="midnightblue" points="506.237,-93.6439 514.535,-87.0562 503.94,-87.0314 506.237,-93.6439"/>
</g>
<!-- Node18 -->
<g id="node18" class="node"><title>Node18</title>
<g id="a_node18"><a xlink:href="available__traits__mappings_8h.html" target="_top" xlink:title="shad/runtime/mappings\l/available_traits_mappings.h">
<polygon fill="white" stroke="black" points="723,-57 723,-87 863,-87 863,-57 723,-57"/>
<text text-anchor="start" x="731" y="-75" font-family="Helvetica,sans-Serif" font-size="10.00">shad/runtime/mappings</text>
<text text-anchor="middle" x="793" y="-64" font-family="Helvetica,sans-Serif" font-size="10.00">/available_traits_mappings.h</text>
</a>
</g>
</g>
<!-- Node13&#45;&gt;Node18 -->
<g id="edge22" class="edge"><title>Node13&#45;&gt;Node18</title>
<path fill="none" stroke="midnightblue" d="M400.168,-130.435C410.102,-128.172 420.945,-125.848 431,-124 527.433,-106.281 639.305,-91.375 712.865,-82.3397"/>
<polygon fill="midnightblue" stroke="midnightblue" points="713.483,-85.7904 722.985,-81.1041 712.635,-78.842 713.483,-85.7904"/>
</g>
<!-- Node16&#45;&gt;Node15 -->
<g id="edge21" class="edge"><title>Node16&#45;&gt;Node15</title>
<path fill="none" stroke="midnightblue" d="M578.225,-56.7808C594.028,-47.1054 614.832,-34.3684 630.483,-24.7861"/>
<polygon fill="midnightblue" stroke="midnightblue" points="632.325,-27.7623 639.026,-19.5557 628.67,-21.7923 632.325,-27.7623"/>
</g>
<!-- Node17 -->
<g id="node17" class="node"><title>Node17</title>
<polygon fill="white" stroke="#bfbfbf" points="534.5,-0.5 534.5,-19.5 575.5,-19.5 575.5,-0.5 534.5,-0.5"/>
<text text-anchor="middle" x="555" y="-7.5" font-family="Helvetica,sans-Serif" font-size="10.00">string</text>
</g>
<!-- Node16&#45;&gt;Node17 -->
<g id="edge20" class="edge"><title>Node16&#45;&gt;Node17</title>
<path fill="none" stroke="midnightblue" d="M555,-56.7808C555,-48.7812 555,-38.6887 555,-30.0168"/>
<polygon fill="midnightblue" stroke="midnightblue" points="558.5,-29.7305 555,-19.7305 551.5,-29.7306 558.5,-29.7305"/>
</g>
<!-- Node19&#45;&gt;Node2 -->
<g id="edge26" class="edge"><title>Node19&#45;&gt;Node2</title>
<path fill="none" stroke="midnightblue" d="M676.213,-269.869C762.318,-261.952 928.59,-245.407 1069,-224 1081.57,-222.084 1095.2,-219.603 1107.5,-217.212"/>
<polygon fill="midnightblue" stroke="midnightblue" points="1108.33,-220.615 1117.46,-215.239 1106.97,-213.748 1108.33,-220.615"/>
</g>
<!-- Node19&#45;&gt;Node3 -->
<g id="edge28" class="edge"><title>Node19&#45;&gt;Node3</title>
<path fill="none" stroke="midnightblue" d="M581.535,-266.434C570.203,-264.034 557.632,-261.636 546,-260 331.959,-229.893 271.699,-272.23 61,-224 57.7505,-223.256 54.4134,-222.28 51.1302,-221.182"/>
<polygon fill="midnightblue" stroke="midnightblue" points="52.1775,-217.837 41.5847,-217.631 49.737,-224.398 52.1775,-217.837"/>
</g>
<!-- Node19&#45;&gt;Node5 -->
<g id="edge33" class="edge"><title>Node19&#45;&gt;Node5</title>
<path fill="none" stroke="midnightblue" d="M676.052,-271.523C743.135,-266.263 856.201,-253.548 949,-224 950.914,-223.39 952.857,-222.673 954.787,-221.887"/>
<polygon fill="midnightblue" stroke="midnightblue" points="956.51,-224.947 964.124,-217.579 953.577,-218.591 956.51,-224.947"/>
</g>
<!-- Node19&#45;&gt;Node6 -->
<g id="edge34" class="edge"><title>Node19&#45;&gt;Node6</title>
<path fill="none" stroke="midnightblue" d="M676.037,-273.188C753.298,-269.481 893.503,-258.21 1008,-224 1010.14,-223.36 1012.32,-222.588 1014.47,-221.734"/>
<polygon fill="midnightblue" stroke="midnightblue" points="1015.92,-224.92 1023.62,-217.642 1013.06,-218.531 1015.92,-224.92"/>
</g>
<!-- Node19&#45;&gt;Node13 -->
<g id="edge41" class="edge"><title>Node19&#45;&gt;Node13</title>
<path fill="none" stroke="midnightblue" d="M629.717,-266.33C649.797,-250.453 686.71,-216.124 666,-192 631.587,-151.914 482.903,-165.861 431,-156 424.33,-154.733 417.308,-153.273 410.434,-151.773"/>
<polygon fill="midnightblue" stroke="midnightblue" points="411.047,-148.324 400.525,-149.564 409.524,-155.156 411.047,-148.324"/>
</g>
<!-- Node19&#45;&gt;Node14 -->
<g id="edge25" class="edge"><title>Node19&#45;&gt;Node14</title>
<path fill="none" stroke="midnightblue" d="M581.147,-266.478C569.911,-264.108 557.492,-261.716 546,-260 459.044,-247.013 222.417,-276.645 152,-224 115.129,-196.435 99.5996,-162.394 125,-124 144.133,-95.0793 183.336,-82.5087 211.739,-77.0764"/>
<polygon fill="midnightblue" stroke="midnightblue" points="212.391,-80.516 221.658,-75.3809 211.211,-73.616 212.391,-80.516"/>
</g>
<!-- Node19&#45;&gt;Node15 -->
<g id="edge35" class="edge"><title>Node19&#45;&gt;Node15</title>
<path fill="none" stroke="midnightblue" d="M637.024,-266.37C652.85,-258.032 674.298,-243.757 684,-224 716.52,-157.774 680.439,-67.0053 662.23,-28.9427"/>
<polygon fill="midnightblue" stroke="midnightblue" points="665.213,-27.0786 657.64,-19.6689 658.939,-30.1838 665.213,-27.0786"/>
</g>
<!-- Node19&#45;&gt;Node16 -->
<g id="edge42" class="edge"><title>Node19&#45;&gt;Node16</title>
<path fill="none" stroke="midnightblue" d="M606.212,-266.333C594.793,-257.202 578.058,-241.707 570,-224 551.147,-182.57 550.91,-128.28 552.748,-97.3616"/>
<polygon fill="midnightblue" stroke="midnightblue" points="556.26,-97.321 553.488,-87.0951 549.278,-96.8174 556.26,-97.321"/>
</g>
<!-- Node20 -->
<g id="node20" class="node"><title>Node20</title>
<polygon fill="white" stroke="#bfbfbf" points="440.5,-130.5 440.5,-149.5 489.5,-149.5 489.5,-130.5 440.5,-130.5"/>
<text text-anchor="middle" x="465" y="-137.5" font-family="Helvetica,sans-Serif" font-size="10.00">cstddef</text>
</g>
<!-- Node19&#45;&gt;Node20 -->
<g id="edge24" class="edge"><title>Node19&#45;&gt;Node20</title>
<path fill="none" stroke="midnightblue" d="M577.658,-266.475C567.344,-264.329 556.267,-262.052 546,-260 504.288,-251.662 385.102,-256.785 358,-224 348.938,-213.038 350.409,-204.027 358,-192 360.292,-188.369 405.093,-167.787 435.989,-153.906"/>
<polygon fill="midnightblue" stroke="midnightblue" points="437.764,-156.946 445.46,-149.664 434.903,-150.557 437.764,-156.946"/>
</g>
<!-- Node21 -->
<g id="node21" class="node"><title>Node21</title>
<polygon fill="white" stroke="#bfbfbf" points="367,-198.5 367,-217.5 421,-217.5 421,-198.5 367,-198.5"/>
<text text-anchor="middle" x="394" y="-205.5" font-family="Helvetica,sans-Serif" font-size="10.00">iostream</text>
</g>
<!-- Node19&#45;&gt;Node21 -->
<g id="edge27" class="edge"><title>Node19&#45;&gt;Node21</title>
<path fill="none" stroke="midnightblue" d="M580.828,-266.429C542.59,-257.261 481.513,-241.636 430,-224 427.59,-223.175 425.11,-222.268 422.634,-221.322"/>
<polygon fill="midnightblue" stroke="midnightblue" points="423.838,-218.034 413.253,-217.564 421.235,-224.532 423.838,-218.034"/>
</g>
<!-- Node22 -->
<g id="node22" class="node"><title>Node22</title>
<polygon fill="white" stroke="#bfbfbf" points="439.5,-198.5 439.5,-217.5 474.5,-217.5 474.5,-198.5 439.5,-198.5"/>
<text text-anchor="middle" x="457" y="-205.5" font-family="Helvetica,sans-Serif" font-size="10.00">map</text>
</g>
<!-- Node19&#45;&gt;Node22 -->
<g id="edge29" class="edge"><title>Node19&#45;&gt;Node22</title>
<path fill="none" stroke="midnightblue" d="M592.361,-266.473C565.054,-257.109 520.789,-241.112 484,-224 482.851,-223.466 481.685,-222.902 480.513,-222.32"/>
<polygon fill="midnightblue" stroke="midnightblue" points="482.133,-219.217 471.656,-217.642 478.864,-225.407 482.133,-219.217"/>
</g>
<!-- Node23 -->
<g id="node23" class="node"><title>Node23</title>
<polygon fill="white" stroke="#bfbfbf" points="134,-130.5 134,-149.5 186,-149.5 186,-130.5 134,-130.5"/>
<text text-anchor="middle" x="160" y="-137.5" font-family="Helvetica,sans-Serif" font-size="10.00">memory</text>
</g>
<!-- Node19&#45;&gt;Node23 -->
<g id="edge30" class="edge"><title>Node19&#45;&gt;Node23</title>
<path fill="none" stroke="midnightblue" d="M580.772,-266.431C569.634,-264.087 557.362,-261.722 546,-260 463.01,-247.421 230.074,-282.623 170,-224 153.147,-207.554 153.639,-178.615 156.26,-159.625"/>
<polygon fill="midnightblue" stroke="midnightblue" points="159.751,-159.971 157.983,-149.525 152.851,-158.794 159.751,-159.971"/>
</g>
<!-- Node24 -->
<g id="node24" class="node"><title>Node24</title>
<polygon fill="white" stroke="#bfbfbf" points="493,-198.5 493,-217.5 523,-217.5 523,-198.5 493,-198.5"/>
<text text-anchor="middle" x="508" y="-205.5" font-family="Helvetica,sans-Serif" font-size="10.00">set</text>
</g>
<!-- Node19&#45;&gt;Node24 -->
<g id="edge31" class="edge"><title>Node19&#45;&gt;Node24</title>
<path fill="none" stroke="midnightblue" d="M603.619,-266.372C585.173,-255.304 552.954,-235.972 531.063,-222.838"/>
<polygon fill="midnightblue" stroke="midnightblue" points="532.76,-219.774 522.384,-217.63 529.158,-225.777 532.76,-219.774"/>
</g>
<!-- Node25 -->
<g id="node25" class="node"><title>Node25</title>
<polygon fill="white" stroke="#bfbfbf" points="579,-198.5 579,-217.5 657,-217.5 657,-198.5 579,-198.5"/>
<text text-anchor="middle" x="618" y="-205.5" font-family="Helvetica,sans-Serif" font-size="10.00">unordered_set</text>
</g>
<!-- Node19&#45;&gt;Node25 -->
<g id="edge32" class="edge"><title>Node19&#45;&gt;Node25</title>
<path fill="none" stroke="midnightblue" d="M618,-266.372C618,-256.643 618,-240.528 618,-227.85"/>
<polygon fill="midnightblue" stroke="midnightblue" points="621.5,-227.841 618,-217.841 614.5,-227.841 621.5,-227.841"/>
</g>
<!-- Node26 -->
<g id="node26" class="node"><title>Node26</title>
<g id="a_node26"><a xlink:href="handle_8h.html" target="_top" xlink:title="shad/runtime/handle.h">
<polygon fill="white" stroke="black" points="827.5,-198.5 827.5,-217.5 940.5,-217.5 940.5,-198.5 827.5,-198.5"/>
<text text-anchor="middle" x="884" y="-205.5" font-family="Helvetica,sans-Serif" font-size="10.00">shad/runtime/handle.h</text>
</a>
</g>
</g>
<!-- Node19&#45;&gt;Node26 -->
<g id="edge36" class="edge"><title>Node19&#45;&gt;Node26</title>
<path fill="none" stroke="midnightblue" d="M652.502,-266.439C700.44,-254.545 787.219,-233.013 839.832,-219.959"/>
<polygon fill="midnightblue" stroke="midnightblue" points="840.696,-223.351 849.559,-217.546 839.01,-216.557 840.696,-223.351"/>
</g>
<!-- Node27 -->
<g id="node27" class="node"><title>Node27</title>
<g id="a_node27"><a xlink:href="available__mappings_8h.html" target="_top" xlink:title="shad/runtime/mappings\l/available_mappings.h">
<polygon fill="white" stroke="black" points="734,-125 734,-155 852,-155 852,-125 734,-125"/>
<text text-anchor="start" x="742" y="-143" font-family="Helvetica,sans-Serif" font-size="10.00">shad/runtime/mappings</text>
<text text-anchor="middle" x="793" y="-132" font-family="Helvetica,sans-Serif" font-size="10.00">/available_mappings.h</text>
</a>
</g>
</g>
<!-- Node19&#45;&gt;Node27 -->
<g id="edge43" class="edge"><title>Node19&#45;&gt;Node27</title>
<path fill="none" stroke="midnightblue" d="M651.026,-266.429C676.563,-258.563 711.713,-244.916 737,-224 756.756,-207.659 772.336,-182.597 781.994,-164.286"/>
<polygon fill="midnightblue" stroke="midnightblue" points="785.221,-165.661 786.618,-155.158 778.977,-162.498 785.221,-165.661"/>
</g>
<!-- Node28 -->
<g id="node28" class="node"><title>Node28</title>
<g id="a_node28"><a xlink:href="synchronous__interface_8h.html" target="_top" xlink:title="shad/runtime/synchronous\l_interface.h">
<polygon fill="white" stroke="black" points="179.5,-193 179.5,-223 310.5,-223 310.5,-193 179.5,-193"/>
<text text-anchor="start" x="187.5" y="-211" font-family="Helvetica,sans-Serif" font-size="10.00">shad/runtime/synchronous</text>
<text text-anchor="middle" x="245" y="-200" font-family="Helvetica,sans-Serif" font-size="10.00">_interface.h</text>
</a>
</g>
</g>
<!-- Node19&#45;&gt;Node28 -->
<g id="edge45" class="edge"><title>Node19&#45;&gt;Node28</title>
<path fill="none" stroke="midnightblue" d="M578.45,-266.435C567.922,-264.244 556.545,-261.956 546,-260 448.153,-241.847 423.024,-241.171 325,-224 323.708,-223.774 322.405,-223.544 321.093,-223.312"/>
<polygon fill="midnightblue" stroke="midnightblue" points="321.359,-219.804 310.899,-221.485 320.124,-226.694 321.359,-219.804"/>
</g>
<!-- Node26&#45;&gt;Node8 -->
<g id="edge37" class="edge"><title>Node26&#45;&gt;Node8</title>
<path fill="none" stroke="midnightblue" d="M910.8,-198.372C947.196,-186.654 1012.36,-165.674 1053,-152.591"/>
<polygon fill="midnightblue" stroke="midnightblue" points="1054.07,-155.922 1062.52,-149.526 1051.93,-149.259 1054.07,-155.922"/>
</g>
<!-- Node26&#45;&gt;Node15 -->
<g id="edge38" class="edge"><title>Node26&#45;&gt;Node15</title>
<path fill="none" stroke="midnightblue" d="M886.577,-198.356C893.651,-172.662 910.398,-96.0571 872,-56 850.747,-33.8289 772.085,-21.8729 715.111,-15.975"/>
<polygon fill="midnightblue" stroke="midnightblue" points="715.398,-12.4863 705.101,-14.9772 714.704,-19.4518 715.398,-12.4863"/>
</g>
<!-- Node26&#45;&gt;Node16 -->
<g id="edge39" class="edge"><title>Node26&#45;&gt;Node16</title>
<path fill="none" stroke="midnightblue" d="M852.755,-198.422C820.349,-189.191 768.438,-173.465 725,-156 677.091,-136.737 623.91,-109.83 590.001,-91.9327"/>
<polygon fill="midnightblue" stroke="midnightblue" points="591.442,-88.7353 580.969,-87.1376 588.16,-94.918 591.442,-88.7353"/>
</g>
<!-- Node26&#45;&gt;Node18 -->
<g id="edge40" class="edge"><title>Node26&#45;&gt;Node18</title>
<path fill="none" stroke="midnightblue" d="M883.44,-198.478C882.029,-182.545 877.182,-147.714 861,-124 852.499,-111.543 839.949,-100.904 827.937,-92.6173"/>
<polygon fill="midnightblue" stroke="midnightblue" points="829.637,-89.5471 819.351,-87.0064 825.808,-95.4068 829.637,-89.5471"/>
</g>
<!-- Node27&#45;&gt;Node18 -->
<g id="edge44" class="edge"><title>Node27&#45;&gt;Node18</title>
<path fill="none" stroke="midnightblue" d="M793,-124.679C793,-116.722 793,-106.605 793,-97.4356"/>
<polygon fill="midnightblue" stroke="midnightblue" points="796.5,-97.293 793,-87.2931 789.5,-97.2931 796.5,-97.293"/>
</g>
<!-- Node28&#45;&gt;Node13 -->
<g id="edge49" class="edge"><title>Node28&#45;&gt;Node13</title>
<path fill="none" stroke="midnightblue" d="M270.743,-192.841C291.313,-181.528 319.962,-165.771 340.263,-154.605"/>
<polygon fill="midnightblue" stroke="midnightblue" points="342.139,-157.568 349.215,-149.682 338.766,-151.434 342.139,-157.568"/>
</g>
<!-- Node28&#45;&gt;Node14 -->
<g id="edge47" class="edge"><title>Node28&#45;&gt;Node14</title>
<path fill="none" stroke="midnightblue" d="M245,-192.66C245,-168.32 245,-118.933 245,-91.8373"/>
<polygon fill="midnightblue" stroke="midnightblue" points="248.5,-91.7275 245,-81.7275 241.5,-91.7276 248.5,-91.7275"/>
</g>
<!-- Node28&#45;&gt;Node20 -->
<g id="edge46" class="edge"><title>Node28&#45;&gt;Node20</title>
<path fill="none" stroke="midnightblue" d="M305.17,-192.905C341.934,-183.702 389.67,-170.692 431,-156 433.124,-155.245 435.301,-154.417 437.478,-153.549"/>
<polygon fill="midnightblue" stroke="midnightblue" points="438.993,-156.709 446.849,-149.6 436.275,-150.258 438.993,-156.709"/>
</g>
<!-- Node28&#45;&gt;Node23 -->
<g id="edge48" class="edge"><title>Node28&#45;&gt;Node23</title>
<path fill="none" stroke="midnightblue" d="M226.556,-192.679C212.647,-181.879 193.611,-167.098 179.46,-156.11"/>
<polygon fill="midnightblue" stroke="midnightblue" points="181.415,-153.197 171.37,-149.828 177.122,-158.726 181.415,-153.197"/>
</g>
<!-- Node29&#45;&gt;Node3 -->
<g id="edge52" class="edge"><title>Node29&#45;&gt;Node3</title>
<path fill="none" stroke="midnightblue" d="M811.381,-332.05C734.156,-322.682 574.38,-302.371 551,-292 530.505,-282.908 532.794,-268.387 512,-260 325.516,-184.782 256.887,-269.413 61,-224 57.7526,-223.247 54.4168,-222.265 51.1344,-221.163"/>
<polygon fill="midnightblue" stroke="midnightblue" points="52.1825,-217.819 41.5897,-217.609 49.7396,-224.379 52.1825,-217.819"/>
</g>
<!-- Node29&#45;&gt;Node4 -->
<g id="edge53" class="edge"><title>Node29&#45;&gt;Node4</title>
<path fill="none" stroke="midnightblue" d="M868.33,-328.403C885.97,-318.512 915.16,-302.144 935.858,-290.538"/>
<polygon fill="midnightblue" stroke="midnightblue" points="937.688,-293.524 944.698,-285.581 934.264,-287.419 937.688,-293.524"/>
</g>
<!-- Node29&#45;&gt;Node5 -->
<g id="edge55" class="edge"><title>Node29&#45;&gt;Node5</title>
<path fill="none" stroke="midnightblue" d="M851.268,-328.36C848.698,-312.952 845.689,-280.436 861,-260 886.337,-226.181 910.519,-241.461 949,-224 950.359,-223.383 951.746,-222.74 953.143,-222.081"/>
<polygon fill="midnightblue" stroke="midnightblue" points="954.826,-225.155 962.288,-217.634 951.765,-218.86 954.826,-225.155"/>
</g>
<!-- Node29&#45;&gt;Node6 -->
<g id="edge56" class="edge"><title>Node29&#45;&gt;Node6</title>
<path fill="none" stroke="midnightblue" d="M855.813,-328.475C861.46,-312.662 875.67,-278.698 899,-260 938.81,-228.093 960.713,-243.152 1008,-224 1009.64,-223.336 1011.31,-222.626 1012.99,-221.889"/>
<polygon fill="midnightblue" stroke="midnightblue" points="1014.85,-224.885 1022.45,-217.505 1011.9,-218.534 1014.85,-224.885"/>
</g>
<!-- Node29&#45;&gt;Node8 -->
<g id="edge54" class="edge"><title>Node29&#45;&gt;Node8</title>
<path fill="none" stroke="midnightblue" d="M861.992,-328.207C882.591,-308.067 931.474,-260.298 932,-260 986.797,-229.005 1024.94,-268.971 1069,-224 1085.66,-206.99 1089.29,-178.641 1089.68,-159.885"/>
<polygon fill="midnightblue" stroke="midnightblue" points="1093.18,-159.602 1089.59,-149.633 1086.18,-159.662 1093.18,-159.602"/>
</g>
<!-- Node29&#45;&gt;Node12 -->
<g id="edge57" class="edge"><title>Node29&#45;&gt;Node12</title>
<path fill="none" stroke="midnightblue" d="M811.353,-332.273C747.878,-324.872 623.198,-309.567 518,-292 516.527,-291.754 515.038,-291.501 513.538,-291.241"/>
<polygon fill="midnightblue" stroke="midnightblue" points="513.981,-287.765 503.521,-289.449 512.749,-294.655 513.981,-287.765"/>
</g>
<!-- Node29&#45;&gt;Node19 -->
<g id="edge58" class="edge"><title>Node29&#45;&gt;Node19</title>
<path fill="none" stroke="midnightblue" d="M819.33,-328.403C777.798,-317.799 707.109,-299.751 661.501,-288.107"/>
<polygon fill="midnightblue" stroke="midnightblue" points="662.162,-284.663 651.607,-285.581 660.431,-291.446 662.162,-284.663"/>
</g>
<!-- Node29&#45;&gt;Node20 -->
<g id="edge51" class="edge"><title>Node29&#45;&gt;Node20</title>
<path fill="none" stroke="midnightblue" d="M845.606,-328.191C823.748,-302.759 756.42,-228.692 684,-192 623.552,-161.374 544.39,-148.832 499.684,-143.931"/>
<polygon fill="midnightblue" stroke="midnightblue" points="499.93,-140.438 489.624,-142.895 499.212,-147.401 499.93,-140.438"/>
</g>
</g>
</svg>
