<?xml version="1.0" encoding="UTF-8" standalone="no"?>
<!DOCTYPE svg PUBLIC "-//W3C//DTD SVG 1.1//EN"
 "http://www.w3.org/Graphics/SVG/1.1/DTD/svg11.dtd">
<!-- Generated by graphviz version 2.36.0 (20140111.2315)
 -->
<!-- Title: include/shad/core/impl/numeric_ops.h Pages: 1 -->
<svg width="1285pt" height="424pt"
 viewBox="0.00 0.00 1285.00 424.00" xmlns="http://www.w3.org/2000/svg" xmlns:xlink="http://www.w3.org/1999/xlink">
<g id="graph0" class="graph" transform="scale(1 1) rotate(0) translate(4 420)">
<title>include/shad/core/impl/numeric_ops.h</title>
<polygon fill="white" stroke="none" points="-4,4 -4,-420 1281,-420 1281,4 -4,4"/>
<!-- Node1 -->
<g id="node1" class="node"><title>Node1</title>
<polygon fill="#bfbfbf" stroke="black" points="165,-385 165,-415 279,-415 279,-385 165,-385"/>
<text text-anchor="start" x="173" y="-403" font-family="Helvetica,sans-Serif" font-size="10.00">include/shad/core/impl</text>
<text text-anchor="middle" x="222" y="-392" font-family="Helvetica,sans-Serif" font-size="10.00">/numeric_ops.h</text>
</g>
<!-- Node2 -->
<g id="node2" class="node"><title>Node2</title>
<polygon fill="white" stroke="#bfbfbf" points="19,-328.5 19,-347.5 75,-347.5 75,-328.5 19,-328.5"/>
<text text-anchor="middle" x="47" y="-335.5" font-family="Helvetica,sans-Serif" font-size="10.00">algorithm</text>
</g>
<!-- Node1&#45;&gt;Node2 -->
<g id="edge1" class="edge"><title>Node1&#45;&gt;Node2</title>
<path fill="none" stroke="midnightblue" d="M180.97,-384.933C150.696,-374.553 109.967,-360.589 81.3921,-350.792"/>
<polygon fill="midnightblue" stroke="midnightblue" points="82.4233,-347.445 71.8287,-347.513 80.153,-354.067 82.4233,-347.445"/>
</g>
<!-- Node3 -->
<g id="node3" class="node"><title>Node3</title>
<polygon fill="white" stroke="#bfbfbf" points="227.5,-198.5 227.5,-217.5 286.5,-217.5 286.5,-198.5 227.5,-198.5"/>
<text text-anchor="middle" x="257" y="-205.5" font-family="Helvetica,sans-Serif" font-size="10.00">functional</text>
</g>
<!-- Node1&#45;&gt;Node3 -->
<g id="edge2" class="edge"><title>Node1&#45;&gt;Node3</title>
<path fill="none" stroke="midnightblue" d="M224.631,-384.719C230.855,-350.932 246.486,-266.075 253.499,-228.004"/>
<polygon fill="midnightblue" stroke="midnightblue" points="257.01,-228.267 255.379,-217.799 250.125,-226.999 257.01,-228.267"/>
</g>
<!-- Node4 -->
<g id="node4" class="node"><title>Node4</title>
<polygon fill="white" stroke="#bfbfbf" points="162.5,-198.5 162.5,-217.5 209.5,-217.5 209.5,-198.5 162.5,-198.5"/>
<text text-anchor="middle" x="186" y="-205.5" font-family="Helvetica,sans-Serif" font-size="10.00">iterator</text>
</g>
<!-- Node1&#45;&gt;Node4 -->
<g id="edge3" class="edge"><title>Node1&#45;&gt;Node4</title>
<path fill="none" stroke="midnightblue" d="M195.755,-384.979C182.396,-376.282 167.44,-363.754 160,-348 140.849,-307.45 162.265,-253.999 176.107,-226.702"/>
<polygon fill="midnightblue" stroke="midnightblue" points="179.34,-228.076 180.94,-217.603 173.158,-224.792 179.34,-228.076"/>
</g>
<!-- Node5 -->
<g id="node5" class="node"><title>Node5</title>
<polygon fill="white" stroke="#bfbfbf" points="169.5,-328.5 169.5,-347.5 220.5,-347.5 220.5,-328.5 169.5,-328.5"/>
<text text-anchor="middle" x="195" y="-335.5" font-family="Helvetica,sans-Serif" font-size="10.00">numeric</text>
</g>
<!-- Node1&#45;&gt;Node5 -->
<g id="edge4" class="edge"><title>Node1&#45;&gt;Node5</title>
<path fill="none" stroke="midnightblue" d="M215.601,-384.781C211.84,-376.422 207.05,-365.777 203.035,-356.856"/>
<polygon fill="midnightblue" stroke="midnightblue" points="206.224,-355.413 198.929,-347.731 199.841,-358.286 206.224,-355.413"/>
</g>
<!-- Node6 -->
<g id="node6" class="node"><title>Node6</title>
<g id="a_node6"><a xlink:href="execution_8h.html" target="_top" xlink:title="shad/core/execution.h">
<polygon fill="white" stroke="black" points="-0.5,-266.5 -0.5,-285.5 112.5,-285.5 112.5,-266.5 -0.5,-266.5"/>
<text text-anchor="middle" x="56" y="-273.5" font-family="Helvetica,sans-Serif" font-size="10.00">shad/core/execution.h</text>
</a>
</g>
</g>
<!-- Node1&#45;&gt;Node6 -->
<g id="edge5" class="edge"><title>Node1&#45;&gt;Node6</title>
<path fill="none" stroke="midnightblue" d="M190.248,-384.858C171.098,-375.638 146.683,-362.626 127,-348 105.041,-331.683 83.3225,-308.689 69.8022,-293.337"/>
<polygon fill="midnightblue" stroke="midnightblue" points="72.3734,-290.959 63.1849,-285.685 67.0787,-295.538 72.3734,-290.959"/>
</g>
<!-- Node8 -->
<g id="node8" class="node"><title>Node8</title>
<g id="a_node8"><a xlink:href="distributed__iterator__traits_8h.html" target="_top" xlink:title="shad/distributed_iterator\l_traits.h">
<polygon fill="white" stroke="black" points="447.5,-261 447.5,-291 568.5,-291 568.5,-261 447.5,-261"/>
<text text-anchor="start" x="455.5" y="-279" font-family="Helvetica,sans-Serif" font-size="10.00">shad/distributed_iterator</text>
<text text-anchor="middle" x="508" y="-268" font-family="Helvetica,sans-Serif" font-size="10.00">_traits.h</text>
</a>
</g>
</g>
<!-- Node1&#45;&gt;Node8 -->
<g id="edge7" class="edge"><title>Node1&#45;&gt;Node8</title>
<path fill="none" stroke="midnightblue" d="M279.107,-391.298C320.457,-384.119 376.792,-370.959 422,-348 446.923,-335.343 471.088,-314.38 487.422,-298.505"/>
<polygon fill="midnightblue" stroke="midnightblue" points="490.163,-300.715 494.781,-291.18 485.225,-295.754 490.163,-300.715"/>
</g>
<!-- Node15 -->
<g id="node15" class="node"><title>Node15</title>
<g id="a_node15"><a xlink:href="runtime_8h.html" target="_top" xlink:title="shad/runtime/runtime.h">
<polygon fill="white" stroke="black" points="628,-266.5 628,-285.5 744,-285.5 744,-266.5 628,-266.5"/>
<text text-anchor="middle" x="686" y="-273.5" font-family="Helvetica,sans-Serif" font-size="10.00">shad/runtime/runtime.h</text>
</a>
</g>
</g>
<!-- Node1&#45;&gt;Node15 -->
<g id="edge16" class="edge"><title>Node1&#45;&gt;Node15</title>
<path fill="none" stroke="midnightblue" d="M279.219,-387.488C325.715,-377.839 392.884,-363.228 451,-348 522.292,-329.319 604.495,-303.48 650.34,-288.677"/>
<polygon fill="midnightblue" stroke="midnightblue" points="651.664,-291.927 660.098,-285.515 649.506,-285.268 651.664,-291.927"/>
</g>
<!-- Node27 -->
<g id="node27" class="node"><title>Node27</title>
<g id="a_node27"><a xlink:href="impl__patterns_8h.html" target="_top" xlink:title="impl_patterns.h">
<polygon fill="white" stroke="black" points="330.5,-328.5 330.5,-347.5 413.5,-347.5 413.5,-328.5 330.5,-328.5"/>
<text text-anchor="middle" x="372" y="-335.5" font-family="Helvetica,sans-Serif" font-size="10.00">impl_patterns.h</text>
</a>
</g>
</g>
<!-- Node1&#45;&gt;Node27 -->
<g id="edge43" class="edge"><title>Node1&#45;&gt;Node27</title>
<path fill="none" stroke="midnightblue" d="M257.168,-384.933C282.588,-374.765 316.608,-361.157 341.009,-351.396"/>
<polygon fill="midnightblue" stroke="midnightblue" points="342.515,-354.564 350.5,-347.6 339.915,-348.064 342.515,-354.564"/>
</g>
<!-- Node7 -->
<g id="node7" class="node"><title>Node7</title>
<polygon fill="white" stroke="#bfbfbf" points="103,-130.5 103,-149.5 165,-149.5 165,-130.5 103,-130.5"/>
<text text-anchor="middle" x="134" y="-137.5" font-family="Helvetica,sans-Serif" font-size="10.00">type_traits</text>
</g>
<!-- Node6&#45;&gt;Node7 -->
<g id="edge6" class="edge"><title>Node6&#45;&gt;Node7</title>
<path fill="none" stroke="midnightblue" d="M61.1178,-266.208C73.7906,-244.437 106.824,-187.686 123.721,-158.659"/>
<polygon fill="midnightblue" stroke="midnightblue" points="126.959,-160.054 128.965,-149.65 120.909,-156.532 126.959,-160.054"/>
</g>
<!-- Node8&#45;&gt;Node4 -->
<g id="edge8" class="edge"><title>Node8&#45;&gt;Node4</title>
<path fill="none" stroke="midnightblue" d="M447.417,-266.271C375.405,-255.558 259.735,-237.195 218,-224 215.861,-223.324 213.68,-222.535 211.513,-221.679"/>
<polygon fill="midnightblue" stroke="midnightblue" points="212.839,-218.439 202.274,-217.642 210.036,-224.853 212.839,-218.439"/>
</g>
<!-- Node9 -->
<g id="node9" class="node"><title>Node9</title>
<g id="a_node9"><a xlink:href="locality_8h.html" target="_top" xlink:title="shad/runtime/locality.h">
<polygon fill="white" stroke="black" points="719.5,-130.5 719.5,-149.5 834.5,-149.5 834.5,-130.5 719.5,-130.5"/>
<text text-anchor="middle" x="777" y="-137.5" font-family="Helvetica,sans-Serif" font-size="10.00">shad/runtime/locality.h</text>
</a>
</g>
</g>
<!-- Node8&#45;&gt;Node9 -->
<g id="edge9" class="edge"><title>Node8&#45;&gt;Node9</title>
<path fill="none" stroke="midnightblue" d="M532.766,-260.889C562.941,-243.874 615.64,-214.731 662,-192 690.484,-178.034 723.666,-163.498 747.046,-153.535"/>
<polygon fill="midnightblue" stroke="midnightblue" points="748.582,-156.685 756.423,-149.56 745.85,-150.24 748.582,-156.685"/>
</g>
<!-- Node10 -->
<g id="node10" class="node"><title>Node10</title>
<polygon fill="white" stroke="#bfbfbf" points="878,-62.5 878,-81.5 924,-81.5 924,-62.5 878,-62.5"/>
<text text-anchor="middle" x="901" y="-69.5" font-family="Helvetica,sans-Serif" font-size="10.00">cstdint</text>
</g>
<!-- Node9&#45;&gt;Node10 -->
<g id="edge10" class="edge"><title>Node9&#45;&gt;Node10</title>
<path fill="none" stroke="midnightblue" d="M793.211,-130.372C814.19,-119.205 850.974,-99.6266 875.66,-86.4876"/>
<polygon fill="midnightblue" stroke="midnightblue" points="877.602,-89.4186 884.785,-81.6305 874.313,-83.2394 877.602,-89.4186"/>
</g>
<!-- Node11 -->
<g id="node11" class="node"><title>Node11</title>
<polygon fill="white" stroke="#bfbfbf" points="530,-0.5 530,-19.5 634,-19.5 634,-0.5 530,-0.5"/>
<text text-anchor="middle" x="582" y="-7.5" font-family="Helvetica,sans-Serif" font-size="10.00">shad/config/config.h</text>
</g>
<!-- Node9&#45;&gt;Node11 -->
<g id="edge11" class="edge"><title>Node9&#45;&gt;Node11</title>
<path fill="none" stroke="midnightblue" d="M765.901,-130.41C752.915,-120.332 730.795,-103.081 712,-88 694.512,-73.9679 691.838,-68.1593 673,-56 653.544,-43.442 630.089,-31.9211 611.865,-23.6805"/>
<polygon fill="midnightblue" stroke="midnightblue" points="613.159,-20.4258 602.599,-19.5684 610.32,-26.824 613.159,-20.4258"/>
</g>
<!-- Node12 -->
<g id="node12" class="node"><title>Node12</title>
<g id="a_node12"><a xlink:href="mapping__traits_8h.html" target="_top" xlink:title="shad/runtime/mapping\l_traits.h">
<polygon fill="white" stroke="black" points="720.5,-57 720.5,-87 833.5,-87 833.5,-57 720.5,-57"/>
<text text-anchor="start" x="728.5" y="-75" font-family="Helvetica,sans-Serif" font-size="10.00">shad/runtime/mapping</text>
<text text-anchor="middle" x="777" y="-64" font-family="Helvetica,sans-Serif" font-size="10.00">_traits.h</text>
</a>
</g>
</g>
<!-- Node9&#45;&gt;Node12 -->
<g id="edge12" class="edge"><title>Node9&#45;&gt;Node12</title>
<path fill="none" stroke="midnightblue" d="M777,-130.372C777,-121.971 777,-108.811 777,-97.2126"/>
<polygon fill="midnightblue" stroke="midnightblue" points="780.5,-97.1814 777,-87.1815 773.5,-97.1815 780.5,-97.1814"/>
</g>
<!-- Node14 -->
<g id="node14" class="node"><title>Node14</title>
<g id="a_node14"><a xlink:href="available__traits__mappings_8h.html" target="_top" xlink:title="shad/runtime/mappings\l/available_traits_mappings.h">
<polygon fill="white" stroke="black" points="524,-57 524,-87 664,-87 664,-57 524,-57"/>
<text text-anchor="start" x="532" y="-75" font-family="Helvetica,sans-Serif" font-size="10.00">shad/runtime/mappings</text>
<text text-anchor="middle" x="594" y="-64" font-family="Helvetica,sans-Serif" font-size="10.00">/available_traits_mappings.h</text>
</a>
</g>
</g>
<!-- Node9&#45;&gt;Node14 -->
<g id="edge15" class="edge"><title>Node9&#45;&gt;Node14</title>
<path fill="none" stroke="midnightblue" d="M753.076,-130.372C725.18,-120.311 678.352,-103.422 642.706,-90.5662"/>
<polygon fill="midnightblue" stroke="midnightblue" points="643.568,-87.1565 632.974,-87.0562 641.194,-93.7414 643.568,-87.1565"/>
</g>
<!-- Node12&#45;&gt;Node11 -->
<g id="edge14" class="edge"><title>Node12&#45;&gt;Node11</title>
<path fill="none" stroke="midnightblue" d="M731.281,-56.9327C697.253,-46.4624 651.37,-32.3445 619.491,-22.5358"/>
<polygon fill="midnightblue" stroke="midnightblue" points="620.253,-19.1084 609.666,-19.5127 618.195,-25.7988 620.253,-19.1084"/>
</g>
<!-- Node13 -->
<g id="node13" class="node"><title>Node13</title>
<polygon fill="white" stroke="#bfbfbf" points="756.5,-0.5 756.5,-19.5 797.5,-19.5 797.5,-0.5 756.5,-0.5"/>
<text text-anchor="middle" x="777" y="-7.5" font-family="Helvetica,sans-Serif" font-size="10.00">string</text>
</g>
<!-- Node12&#45;&gt;Node13 -->
<g id="edge13" class="edge"><title>Node12&#45;&gt;Node13</title>
<path fill="none" stroke="midnightblue" d="M777,-56.7808C777,-48.7812 777,-38.6887 777,-30.0168"/>
<polygon fill="midnightblue" stroke="midnightblue" points="780.5,-29.7305 777,-19.7305 773.5,-29.7306 780.5,-29.7305"/>
</g>
<!-- Node15&#45;&gt;Node3 -->
<g id="edge19" class="edge"><title>Node15&#45;&gt;Node3</title>
<path fill="none" stroke="midnightblue" d="M627.748,-266.881C611.34,-264.622 593.474,-262.189 577,-260 452.187,-243.417 418.079,-254.821 296,-224 292.765,-223.183 289.433,-222.176 286.143,-221.072"/>
<polygon fill="midnightblue" stroke="midnightblue" points="287.136,-217.709 276.543,-217.569 284.737,-224.285 287.136,-217.709"/>
</g>
<!-- Node15&#45;&gt;Node4 -->
<g id="edge21" class="edge"><title>Node15&#45;&gt;Node4</title>
<path fill="none" stroke="midnightblue" d="M627.786,-266.585C611.377,-264.323 593.502,-261.962 577,-260 417.766,-241.066 372.583,-266.639 218,-224 215.654,-223.353 213.268,-222.547 210.909,-221.645"/>
<polygon fill="midnightblue" stroke="midnightblue" points="212.112,-218.352 201.546,-217.576 209.322,-224.772 212.112,-218.352"/>
</g>
<!-- Node15&#45;&gt;Node9 -->
<g id="edge34" class="edge"><title>Node15&#45;&gt;Node9</title>
<path fill="none" stroke="midnightblue" d="M738.309,-266.468C763.252,-259.487 790.887,-246.844 806,-224 819.698,-203.294 804.284,-175.395 791.221,-157.801"/>
<polygon fill="midnightblue" stroke="midnightblue" points="793.715,-155.312 784.77,-149.633 788.221,-159.65 793.715,-155.312"/>
</g>
<!-- Node15&#45;&gt;Node10 -->
<g id="edge18" class="edge"><title>Node15&#45;&gt;Node10</title>
<path fill="none" stroke="midnightblue" d="M744.28,-269.393C778.153,-263.29 819.453,-250.555 847,-224 884.668,-187.689 896.132,-123.32 899.566,-91.6525"/>
<polygon fill="midnightblue" stroke="midnightblue" points="903.062,-91.8584 900.501,-81.5777 896.092,-91.2113 903.062,-91.8584"/>
</g>
<!-- Node15&#45;&gt;Node11 -->
<g id="edge28" class="edge"><title>Node15&#45;&gt;Node11</title>
<path fill="none" stroke="midnightblue" d="M630.716,-266.486C565.952,-255.951 466.028,-237.728 455,-224 422.25,-183.231 417.859,-154.673 500,-56 512.159,-41.3939 530.338,-30.7378 546.492,-23.4726"/>
<polygon fill="midnightblue" stroke="midnightblue" points="547.856,-26.6958 555.708,-19.5826 545.134,-20.2467 547.856,-26.6958"/>
</g>
<!-- Node15&#45;&gt;Node12 -->
<g id="edge35" class="edge"><title>Node15&#45;&gt;Node12</title>
<path fill="none" stroke="midnightblue" d="M740.081,-266.455C767.976,-259.432 800.554,-246.755 822,-224 853.147,-190.951 863.017,-164.764 843,-124 836.744,-111.26 825.603,-100.799 814.236,-92.7401"/>
<polygon fill="midnightblue" stroke="midnightblue" points="815.855,-89.6158 805.576,-87.0475 812.009,-95.4652 815.855,-89.6158"/>
</g>
<!-- Node16 -->
<g id="node16" class="node"><title>Node16</title>
<polygon fill="white" stroke="#bfbfbf" points="1228.5,-130.5 1228.5,-149.5 1277.5,-149.5 1277.5,-130.5 1228.5,-130.5"/>
<text text-anchor="middle" x="1253" y="-137.5" font-family="Helvetica,sans-Serif" font-size="10.00">cstddef</text>
</g>
<!-- Node15&#45;&gt;Node16 -->
<g id="edge17" class="edge"><title>Node15&#45;&gt;Node16</title>
<path fill="none" stroke="midnightblue" d="M744.24,-272.565C873.349,-266.714 1175.21,-250.361 1213,-224 1234.6,-208.936 1244.96,-178.927 1249.6,-159.422"/>
<polygon fill="midnightblue" stroke="midnightblue" points="1253.04,-160.092 1251.68,-149.585 1246.19,-158.648 1253.04,-160.092"/>
</g>
<!-- Node17 -->
<g id="node17" class="node"><title>Node17</title>
<polygon fill="white" stroke="#bfbfbf" points="1079,-198.5 1079,-217.5 1133,-217.5 1133,-198.5 1079,-198.5"/>
<text text-anchor="middle" x="1106" y="-205.5" font-family="Helvetica,sans-Serif" font-size="10.00">iostream</text>
</g>
<!-- Node15&#45;&gt;Node17 -->
<g id="edge20" class="edge"><title>Node15&#45;&gt;Node17</title>
<path fill="none" stroke="midnightblue" d="M744.311,-271.825C820.172,-266.658 956.329,-253.824 1069,-224 1071.99,-223.21 1075.05,-222.24 1078.08,-221.177"/>
<polygon fill="midnightblue" stroke="midnightblue" points="1079.41,-224.419 1087.49,-217.572 1076.9,-217.882 1079.41,-224.419"/>
</g>
<!-- Node18 -->
<g id="node18" class="node"><title>Node18</title>
<polygon fill="white" stroke="#bfbfbf" points="1151.5,-198.5 1151.5,-217.5 1186.5,-217.5 1186.5,-198.5 1151.5,-198.5"/>
<text text-anchor="middle" x="1169" y="-205.5" font-family="Helvetica,sans-Serif" font-size="10.00">map</text>
</g>
<!-- Node15&#45;&gt;Node18 -->
<g id="edge22" class="edge"><title>Node15&#45;&gt;Node18</title>
<path fill="none" stroke="midnightblue" d="M744.023,-275.738C832.154,-275.266 1004.09,-268.062 1142,-224 1143.65,-223.473 1145.31,-222.84 1146.96,-222.136"/>
<polygon fill="midnightblue" stroke="midnightblue" points="1148.66,-225.2 1156.02,-217.575 1145.51,-218.948 1148.66,-225.2"/>
</g>
<!-- Node19 -->
<g id="node19" class="node"><title>Node19</title>
<polygon fill="white" stroke="#bfbfbf" points="996,-130.5 996,-149.5 1048,-149.5 1048,-130.5 996,-130.5"/>
<text text-anchor="middle" x="1022" y="-137.5" font-family="Helvetica,sans-Serif" font-size="10.00">memory</text>
</g>
<!-- Node15&#45;&gt;Node19 -->
<g id="edge23" class="edge"><title>Node15&#45;&gt;Node19</title>
<path fill="none" stroke="midnightblue" d="M744.136,-273.473C871.297,-269.534 1165.21,-256.927 1195,-224 1237.57,-176.948 1121.01,-153.964 1058.56,-145.281"/>
<polygon fill="midnightblue" stroke="midnightblue" points="1058.68,-141.766 1048.31,-143.916 1057.76,-148.705 1058.68,-141.766"/>
</g>
<!-- Node20 -->
<g id="node20" class="node"><title>Node20</title>
<polygon fill="white" stroke="#bfbfbf" points="671,-198.5 671,-217.5 701,-217.5 701,-198.5 671,-198.5"/>
<text text-anchor="middle" x="686" y="-205.5" font-family="Helvetica,sans-Serif" font-size="10.00">set</text>
</g>
<!-- Node15&#45;&gt;Node20 -->
<g id="edge24" class="edge"><title>Node15&#45;&gt;Node20</title>
<path fill="none" stroke="midnightblue" d="M686,-266.372C686,-256.643 686,-240.528 686,-227.85"/>
<polygon fill="midnightblue" stroke="midnightblue" points="689.5,-227.841 686,-217.841 682.5,-227.841 689.5,-227.841"/>
</g>
<!-- Node21 -->
<g id="node21" class="node"><title>Node21</title>
<polygon fill="white" stroke="#bfbfbf" points="719,-198.5 719,-217.5 797,-217.5 797,-198.5 719,-198.5"/>
<text text-anchor="middle" x="758" y="-205.5" font-family="Helvetica,sans-Serif" font-size="10.00">unordered_set</text>
</g>
<!-- Node15&#45;&gt;Node21 -->
<g id="edge25" class="edge"><title>Node15&#45;&gt;Node21</title>
<path fill="none" stroke="midnightblue" d="M695.413,-266.372C706.884,-255.856 726.492,-237.882 740.71,-224.85"/>
<polygon fill="midnightblue" stroke="midnightblue" points="743.349,-227.178 748.355,-217.841 738.619,-222.018 743.349,-227.178"/>
</g>
<!-- Node22 -->
<g id="node22" class="node"><title>Node22</title>
<polygon fill="white" stroke="#bfbfbf" points="305,-198.5 305,-217.5 345,-217.5 345,-198.5 305,-198.5"/>
<text text-anchor="middle" x="325" y="-205.5" font-family="Helvetica,sans-Serif" font-size="10.00">utility</text>
</g>
<!-- Node15&#45;&gt;Node22 -->
<g id="edge26" class="edge"><title>Node15&#45;&gt;Node22</title>
<path fill="none" stroke="midnightblue" d="M627.998,-266.588C536.311,-253.219 366.892,-228.199 354,-224 352.141,-223.394 350.256,-222.68 348.386,-221.896"/>
<polygon fill="midnightblue" stroke="midnightblue" points="349.884,-218.733 339.351,-217.592 346.874,-225.053 349.884,-218.733"/>
</g>
<!-- Node23 -->
<g id="node23" class="node"><title>Node23</title>
<polygon fill="white" stroke="#bfbfbf" points="363,-198.5 363,-217.5 407,-217.5 407,-198.5 363,-198.5"/>
<text text-anchor="middle" x="385" y="-205.5" font-family="Helvetica,sans-Serif" font-size="10.00">vector</text>
</g>
<!-- Node15&#45;&gt;Node23 -->
<g id="edge27" class="edge"><title>Node15&#45;&gt;Node23</title>
<path fill="none" stroke="midnightblue" d="M627.797,-267.303C573.547,-259.309 490.76,-245.004 421,-224 418.356,-223.204 415.641,-222.281 412.944,-221.291"/>
<polygon fill="midnightblue" stroke="midnightblue" points="414.006,-217.948 403.42,-217.526 411.432,-224.457 414.006,-217.948"/>
</g>
<!-- Node24 -->
<g id="node24" class="node"><title>Node24</title>
<g id="a_node24"><a xlink:href="handle_8h.html" target="_top" xlink:title="shad/runtime/handle.h">
<polygon fill="white" stroke="black" points="463.5,-198.5 463.5,-217.5 576.5,-217.5 576.5,-198.5 463.5,-198.5"/>
<text text-anchor="middle" x="520" y="-205.5" font-family="Helvetica,sans-Serif" font-size="10.00">shad/runtime/handle.h</text>
</a>
</g>
</g>
<!-- Node15&#45;&gt;Node24 -->
<g id="edge29" class="edge"><title>Node15&#45;&gt;Node24</title>
<path fill="none" stroke="midnightblue" d="M664.298,-266.372C635.388,-254.877 584.058,-234.469 551.053,-221.346"/>
<polygon fill="midnightblue" stroke="midnightblue" points="552.029,-217.968 541.444,-217.526 549.443,-224.473 552.029,-217.968"/>
</g>
<!-- Node25 -->
<g id="node25" class="node"><title>Node25</title>
<g id="a_node25"><a xlink:href="available__mappings_8h.html" target="_top" xlink:title="shad/runtime/mappings\l/available_mappings.h">
<polygon fill="white" stroke="black" points="545,-125 545,-155 663,-155 663,-125 545,-125"/>
<text text-anchor="start" x="553" y="-143" font-family="Helvetica,sans-Serif" font-size="10.00">shad/runtime/mappings</text>
<text text-anchor="middle" x="604" y="-132" font-family="Helvetica,sans-Serif" font-size="10.00">/available_mappings.h</text>
</a>
</g>
</g>
<!-- Node15&#45;&gt;Node25 -->
<g id="edge36" class="edge"><title>Node15&#45;&gt;Node25</title>
<path fill="none" stroke="midnightblue" d="M680.62,-266.208C668.027,-245.629 636.309,-193.797 617.871,-163.667"/>
<polygon fill="midnightblue" stroke="midnightblue" points="620.816,-161.774 612.611,-155.071 614.845,-165.428 620.816,-161.774"/>
</g>
<!-- Node26 -->
<g id="node26" class="node"><title>Node26</title>
<g id="a_node26"><a xlink:href="synchronous__interface_8h.html" target="_top" xlink:title="shad/runtime/synchronous\l_interface.h">
<polygon fill="white" stroke="black" points="929.5,-193 929.5,-223 1060.5,-223 1060.5,-193 929.5,-193"/>
<text text-anchor="start" x="937.5" y="-211" font-family="Helvetica,sans-Serif" font-size="10.00">shad/runtime/synchronous</text>
<text text-anchor="middle" x="995" y="-200" font-family="Helvetica,sans-Serif" font-size="10.00">_interface.h</text>
</a>
</g>
</g>
<!-- Node15&#45;&gt;Node26 -->
<g id="edge38" class="edge"><title>Node15&#45;&gt;Node26</title>
<path fill="none" stroke="midnightblue" d="M726.08,-266.439C774.883,-256.015 858.339,-238.19 919.365,-225.155"/>
<polygon fill="midnightblue" stroke="midnightblue" points="920.29,-228.536 929.339,-223.025 918.828,-221.691 920.29,-228.536"/>
</g>
<!-- Node24&#45;&gt;Node7 -->
<g id="edge30" class="edge"><title>Node24&#45;&gt;Node7</title>
<path fill="none" stroke="midnightblue" d="M469.933,-198.439C392.843,-185.258 246.535,-160.242 175.19,-148.043"/>
<polygon fill="midnightblue" stroke="midnightblue" points="175.672,-144.575 165.225,-146.339 174.492,-151.474 175.672,-144.575"/>
</g>
<!-- Node24&#45;&gt;Node11 -->
<g id="edge31" class="edge"><title>Node24&#45;&gt;Node11</title>
<path fill="none" stroke="midnightblue" d="M516.949,-198.492C508.865,-174.408 489.216,-104.378 515,-56 522.55,-41.8339 536.761,-31.3348 550.158,-24.0576"/>
<polygon fill="midnightblue" stroke="midnightblue" points="551.834,-27.1329 559.212,-19.5289 548.702,-20.8724 551.834,-27.1329"/>
</g>
<!-- Node24&#45;&gt;Node12 -->
<g id="edge32" class="edge"><title>Node24&#45;&gt;Node12</title>
<path fill="none" stroke="midnightblue" d="M557.492,-198.489C589.256,-190.344 635.346,-176.283 672,-156 691.618,-145.144 693.461,-137.967 711,-124 723.885,-113.739 738.35,-102.527 750.447,-93.236"/>
<polygon fill="midnightblue" stroke="midnightblue" points="752.587,-96.0061 758.395,-87.1455 748.329,-90.4499 752.587,-96.0061"/>
</g>
<!-- Node24&#45;&gt;Node14 -->
<g id="edge33" class="edge"><title>Node24&#45;&gt;Node14</title>
<path fill="none" stroke="midnightblue" d="M519.877,-198.369C520.021,-182.555 522.073,-148.325 536,-124 542.781,-112.155 553.34,-101.667 563.599,-93.329"/>
<polygon fill="midnightblue" stroke="midnightblue" points="565.887,-95.9854 571.685,-87.1182 561.623,-90.434 565.887,-95.9854"/>
</g>
<!-- Node25&#45;&gt;Node14 -->
<g id="edge37" class="edge"><title>Node25&#45;&gt;Node14</title>
<path fill="none" stroke="midnightblue" d="M601.83,-124.679C600.625,-116.722 599.092,-106.605 597.702,-97.4356"/>
<polygon fill="midnightblue" stroke="midnightblue" points="601.124,-96.6559 596.166,-87.2931 594.203,-97.7046 601.124,-96.6559"/>
</g>
<!-- Node26&#45;&gt;Node9 -->
<g id="edge42" class="edge"><title>Node26&#45;&gt;Node9</title>
<path fill="none" stroke="midnightblue" d="M948.501,-192.922C908.724,-180.88 852.175,-163.76 815.048,-152.519"/>
<polygon fill="midnightblue" stroke="midnightblue" points="815.706,-149.062 805.121,-149.514 813.678,-155.761 815.706,-149.062"/>
</g>
<!-- Node26&#45;&gt;Node10 -->
<g id="edge40" class="edge"><title>Node26&#45;&gt;Node10</title>
<path fill="none" stroke="midnightblue" d="M984.94,-192.66C967.485,-167.777 931.666,-116.716 912.965,-90.0567"/>
<polygon fill="midnightblue" stroke="midnightblue" points="915.73,-87.9041 907.122,-81.7275 910,-91.9241 915.73,-87.9041"/>
</g>
<!-- Node26&#45;&gt;Node16 -->
<g id="edge39" class="edge"><title>Node26&#45;&gt;Node16</title>
<path fill="none" stroke="midnightblue" d="M1050.03,-192.922C1101.13,-179.849 1175.63,-160.792 1218.72,-149.769"/>
<polygon fill="midnightblue" stroke="midnightblue" points="1219.63,-153.15 1228.45,-147.28 1217.89,-146.368 1219.63,-153.15"/>
</g>
<!-- Node26&#45;&gt;Node19 -->
<g id="edge41" class="edge"><title>Node26&#45;&gt;Node19</title>
<path fill="none" stroke="midnightblue" d="M1000.86,-192.679C1004.86,-182.898 1010.2,-169.852 1014.51,-159.315"/>
<polygon fill="midnightblue" stroke="midnightblue" points="1017.84,-160.409 1018.39,-149.828 1011.36,-157.759 1017.84,-160.409"/>
</g>
<!-- Node27&#45;&gt;Node4 -->
<g id="edge45" class="edge"><title>Node27&#45;&gt;Node4</title>
<path fill="none" stroke="midnightblue" d="M359.507,-328.403C328.138,-306.815 245.79,-250.146 206.904,-223.386"/>
<polygon fill="midnightblue" stroke="midnightblue" points="208.66,-220.346 198.438,-217.56 204.692,-226.112 208.66,-220.346"/>
</g>
<!-- Node27&#45;&gt;Node7 -->
<g id="edge47" class="edge"><title>Node27&#45;&gt;Node7</title>
<path fill="none" stroke="midnightblue" d="M332.164,-328.391C281.599,-315.218 195.813,-284.901 153,-224 139.547,-204.862 135.466,-177.669 134.311,-159.692"/>
<polygon fill="midnightblue" stroke="midnightblue" points="137.804,-159.468 133.908,-149.615 130.81,-159.747 137.804,-159.468"/>
</g>
<!-- Node27&#45;&gt;Node8 -->
<g id="edge50" class="edge"><title>Node27&#45;&gt;Node8</title>
<path fill="none" stroke="midnightblue" d="M391.485,-328.403C411.089,-319.755 441.916,-306.155 466.939,-295.115"/>
<polygon fill="midnightblue" stroke="midnightblue" points="468.473,-298.264 476.209,-291.025 465.647,-291.86 468.473,-298.264"/>
</g>
<!-- Node27&#45;&gt;Node15 -->
<g id="edge51" class="edge"><title>Node27&#45;&gt;Node15</title>
<path fill="none" stroke="midnightblue" d="M413.697,-329.032C469.717,-318.328 569.389,-299.282 631.355,-287.442"/>
<polygon fill="midnightblue" stroke="midnightblue" points="632.174,-290.849 641.339,-285.534 630.86,-283.973 632.174,-290.849"/>
</g>
<!-- Node27&#45;&gt;Node16 -->
<g id="edge44" class="edge"><title>Node27&#45;&gt;Node16</title>
<path fill="none" stroke="midnightblue" d="M413.651,-334.466C578.463,-324.056 1178.96,-282.356 1239,-224 1256,-207.474 1257.08,-178.557 1255.58,-159.593"/>
<polygon fill="midnightblue" stroke="midnightblue" points="1259.05,-159.067 1254.47,-149.509 1252.09,-159.831 1259.05,-159.067"/>
</g>
<!-- Node27&#45;&gt;Node22 -->
<g id="edge48" class="edge"><title>Node27&#45;&gt;Node22</title>
<path fill="none" stroke="midnightblue" d="M365.267,-328.175C358.906,-319.433 349.538,-305.442 344,-292 335.307,-270.9 330.189,-245.066 327.495,-227.88"/>
<polygon fill="midnightblue" stroke="midnightblue" points="330.894,-226.926 326.004,-217.528 323.966,-227.924 330.894,-226.926"/>
</g>
<!-- Node27&#45;&gt;Node23 -->
<g id="edge49" class="edge"><title>Node27&#45;&gt;Node23</title>
<path fill="none" stroke="midnightblue" d="M379.412,-328.411C386.276,-319.844 396.006,-305.979 400,-292 406.263,-270.08 399.36,-244.123 392.989,-227.148"/>
<polygon fill="midnightblue" stroke="midnightblue" points="396.22,-225.802 389.214,-217.855 389.735,-228.437 396.22,-225.802"/>
</g>
<!-- Node28 -->
<g id="node28" class="node"><title>Node28</title>
<polygon fill="white" stroke="#bfbfbf" points="353,-266.5 353,-285.5 391,-285.5 391,-266.5 353,-266.5"/>
<text text-anchor="middle" x="372" y="-273.5" font-family="Helvetica,sans-Serif" font-size="10.00">tuple</text>
</g>
<!-- Node27&#45;&gt;Node28 -->
<g id="edge46" class="edge"><title>Node27&#45;&gt;Node28</title>
<path fill="none" stroke="midnightblue" d="M372,-328.403C372,-319.938 372,-306.728 372,-295.82"/>
<polygon fill="midnightblue" stroke="midnightblue" points="375.5,-295.581 372,-285.581 368.5,-295.581 375.5,-295.581"/>
</g>
</g>
</svg>
