<?xml version="1.0" encoding="UTF-8" standalone="no"?>
<!DOCTYPE svg PUBLIC "-//W3C//DTD SVG 1.1//EN"
 "http://www.w3.org/Graphics/SVG/1.1/DTD/svg11.dtd">
<!-- Generated by graphviz version 2.36.0 (20140111.2315)
 -->
<!-- Title: include/shad/core/impl/numeric_ops.h Pages: 1 -->
<svg width="1399pt" height="424pt"
 viewBox="0.00 0.00 1399.00 424.00" xmlns="http://www.w3.org/2000/svg" xmlns:xlink="http://www.w3.org/1999/xlink">
<g id="graph0" class="graph" transform="scale(1 1) rotate(0) translate(4 420)">
<title>include/shad/core/impl/numeric_ops.h</title>
<polygon fill="white" stroke="none" points="-4,4 -4,-420 1395,-420 1395,4 -4,4"/>
<!-- Node1 -->
<g id="node1" class="node"><title>Node1</title>
<polygon fill="#bfbfbf" stroke="black" points="196,-385 196,-415 310,-415 310,-385 196,-385"/>
<text text-anchor="start" x="204" y="-403" font-family="Helvetica,sans-Serif" font-size="10.00">include/shad/core/impl</text>
<text text-anchor="middle" x="253" y="-392" font-family="Helvetica,sans-Serif" font-size="10.00">/numeric_ops.h</text>
</g>
<!-- Node2 -->
<g id="node2" class="node"><title>Node2</title>
<polygon fill="white" stroke="#bfbfbf" points="50,-328.5 50,-347.5 106,-347.5 106,-328.5 50,-328.5"/>
<text text-anchor="middle" x="78" y="-335.5" font-family="Helvetica,sans-Serif" font-size="10.00">algorithm</text>
</g>
<!-- Node1&#45;&gt;Node2 -->
<g id="edge1" class="edge"><title>Node1&#45;&gt;Node2</title>
<path fill="none" stroke="midnightblue" d="M211.97,-384.933C181.696,-374.553 140.967,-360.589 112.392,-350.792"/>
<polygon fill="midnightblue" stroke="midnightblue" points="113.423,-347.445 102.829,-347.513 111.153,-354.067 113.423,-347.445"/>
</g>
<!-- Node3 -->
<g id="node3" class="node"><title>Node3</title>
<polygon fill="white" stroke="#bfbfbf" points="1332.5,-198.5 1332.5,-217.5 1391.5,-217.5 1391.5,-198.5 1332.5,-198.5"/>
<text text-anchor="middle" x="1362" y="-205.5" font-family="Helvetica,sans-Serif" font-size="10.00">functional</text>
</g>
<!-- Node1&#45;&gt;Node3 -->
<g id="edge2" class="edge"><title>Node1&#45;&gt;Node3</title>
<path fill="none" stroke="midnightblue" d="M310.413,-394.19C443.618,-382.428 783.631,-348.938 1063,-292 1159.41,-272.351 1270.44,-238.495 1326.16,-220.702"/>
<polygon fill="midnightblue" stroke="midnightblue" points="1327.45,-223.963 1335.9,-217.574 1325.31,-217.298 1327.45,-223.963"/>
</g>
<!-- Node4 -->
<g id="node4" class="node"><title>Node4</title>
<polygon fill="white" stroke="#bfbfbf" points="248.5,-198.5 248.5,-217.5 295.5,-217.5 295.5,-198.5 248.5,-198.5"/>
<text text-anchor="middle" x="272" y="-205.5" font-family="Helvetica,sans-Serif" font-size="10.00">iterator</text>
</g>
<!-- Node1&#45;&gt;Node4 -->
<g id="edge3" class="edge"><title>Node1&#45;&gt;Node4</title>
<path fill="none" stroke="midnightblue" d="M255.154,-384.735C256.648,-374.522 258.611,-360.435 260,-348 264.779,-305.223 268.706,-254.857 270.66,-228.049"/>
<polygon fill="midnightblue" stroke="midnightblue" points="274.171,-228.022 271.395,-217.797 267.189,-227.521 274.171,-228.022"/>
</g>
<!-- Node5 -->
<g id="node5" class="node"><title>Node5</title>
<polygon fill="white" stroke="#bfbfbf" points="200.5,-328.5 200.5,-347.5 251.5,-347.5 251.5,-328.5 200.5,-328.5"/>
<text text-anchor="middle" x="226" y="-335.5" font-family="Helvetica,sans-Serif" font-size="10.00">numeric</text>
</g>
<!-- Node1&#45;&gt;Node5 -->
<g id="edge4" class="edge"><title>Node1&#45;&gt;Node5</title>
<path fill="none" stroke="midnightblue" d="M246.601,-384.781C242.84,-376.422 238.05,-365.777 234.035,-356.856"/>
<polygon fill="midnightblue" stroke="midnightblue" points="237.224,-355.413 229.929,-347.731 230.841,-358.286 237.224,-355.413"/>
</g>
<!-- Node6 -->
<g id="node6" class="node"><title>Node6</title>
<g id="a_node6"><a xlink:href="execution_8h.html" target="_top" xlink:title="shad/core/execution.h">
<polygon fill="white" stroke="black" points="-0.5,-266.5 -0.5,-285.5 112.5,-285.5 112.5,-266.5 -0.5,-266.5"/>
<text text-anchor="middle" x="56" y="-273.5" font-family="Helvetica,sans-Serif" font-size="10.00">shad/core/execution.h</text>
</a>
</g>
</g>
<!-- Node1&#45;&gt;Node6 -->
<g id="edge5" class="edge"><title>Node1&#45;&gt;Node6</title>
<path fill="none" stroke="midnightblue" d="M230.016,-384.766C192.028,-361.24 116.588,-314.521 78.7522,-291.09"/>
<polygon fill="midnightblue" stroke="midnightblue" points="80.3334,-287.953 69.9889,-285.663 76.6479,-293.904 80.3334,-287.953"/>
</g>
<!-- Node8 -->
<g id="node8" class="node"><title>Node8</title>
<g id="a_node8"><a xlink:href="distributed__iterator__traits_8h.html" target="_top" xlink:title="shad/distributed_iterator\l_traits.h">
<polygon fill="white" stroke="black" points="130.5,-261 130.5,-291 251.5,-291 251.5,-261 130.5,-261"/>
<text text-anchor="start" x="138.5" y="-279" font-family="Helvetica,sans-Serif" font-size="10.00">shad/distributed_iterator</text>
<text text-anchor="middle" x="191" y="-268" font-family="Helvetica,sans-Serif" font-size="10.00">_traits.h</text>
</a>
</g>
</g>
<!-- Node1&#45;&gt;Node8 -->
<g id="edge7" class="edge"><title>Node1&#45;&gt;Node8</title>
<path fill="none" stroke="midnightblue" d="M226.755,-384.979C213.396,-376.282 198.44,-363.754 191,-348 184.163,-333.523 184.264,-315.458 186.022,-301.174"/>
<polygon fill="midnightblue" stroke="midnightblue" points="189.509,-301.531 187.603,-291.109 182.594,-300.445 189.509,-301.531"/>
</g>
<!-- Node17 -->
<g id="node17" class="node"><title>Node17</title>
<g id="a_node17"><a xlink:href="runtime_8h.html" target="_top" xlink:title="shad/runtime/runtime.h">
<polygon fill="white" stroke="black" points="718,-266.5 718,-285.5 834,-285.5 834,-266.5 718,-266.5"/>
<text text-anchor="middle" x="776" y="-273.5" font-family="Helvetica,sans-Serif" font-size="10.00">shad/runtime/runtime.h</text>
</a>
</g>
</g>
<!-- Node1&#45;&gt;Node17 -->
<g id="edge18" class="edge"><title>Node1&#45;&gt;Node17</title>
<path fill="none" stroke="midnightblue" d="M310.216,-385.653C414.555,-361.314 633.796,-310.172 729.572,-287.83"/>
<polygon fill="midnightblue" stroke="midnightblue" points="730.595,-291.186 739.539,-285.505 729.005,-284.369 730.595,-291.186"/>
</g>
<!-- Node28 -->
<g id="node28" class="node"><title>Node28</title>
<g id="a_node28"><a xlink:href="impl__patterns_8h.html" target="_top" xlink:title="impl_patterns.h">
<polygon fill="white" stroke="black" points="352.5,-328.5 352.5,-347.5 435.5,-347.5 435.5,-328.5 352.5,-328.5"/>
<text text-anchor="middle" x="394" y="-335.5" font-family="Helvetica,sans-Serif" font-size="10.00">impl_patterns.h</text>
</a>
</g>
</g>
<!-- Node1&#45;&gt;Node28 -->
<g id="edge45" class="edge"><title>Node1&#45;&gt;Node28</title>
<path fill="none" stroke="midnightblue" d="M286.058,-384.933C309.847,-374.81 341.647,-361.278 364.562,-351.527"/>
<polygon fill="midnightblue" stroke="midnightblue" points="365.959,-354.736 373.79,-347.6 363.218,-348.295 365.959,-354.736"/>
</g>
<!-- Node7 -->
<g id="node7" class="node"><title>Node7</title>
<polygon fill="white" stroke="#bfbfbf" points="293,-130.5 293,-149.5 355,-149.5 355,-130.5 293,-130.5"/>
<text text-anchor="middle" x="324" y="-137.5" font-family="Helvetica,sans-Serif" font-size="10.00">type_traits</text>
</g>
<!-- Node6&#45;&gt;Node7 -->
<g id="edge6" class="edge"><title>Node6&#45;&gt;Node7</title>
<path fill="none" stroke="midnightblue" d="M64.0746,-266.414C80.2016,-249.743 118.195,-212.805 157,-192 197.244,-170.423 247.947,-156.581 282.868,-148.842"/>
<polygon fill="midnightblue" stroke="midnightblue" points="283.68,-152.247 292.722,-146.727 282.211,-145.403 283.68,-152.247"/>
</g>
<!-- Node8&#45;&gt;Node4 -->
<g id="edge9" class="edge"><title>Node8&#45;&gt;Node4</title>
<path fill="none" stroke="midnightblue" d="M208.576,-260.679C221.706,-249.981 239.628,-235.377 253.073,-224.422"/>
<polygon fill="midnightblue" stroke="midnightblue" points="255.624,-226.858 261.165,-217.828 251.202,-221.432 255.624,-226.858"/>
</g>
<!-- Node9 -->
<g id="node9" class="node"><title>Node9</title>
<polygon fill="white" stroke="#bfbfbf" points="166.5,-198.5 166.5,-217.5 215.5,-217.5 215.5,-198.5 166.5,-198.5"/>
<text text-anchor="middle" x="191" y="-205.5" font-family="Helvetica,sans-Serif" font-size="10.00">cassert</text>
</g>
<!-- Node8&#45;&gt;Node9 -->
<g id="edge8" class="edge"><title>Node8&#45;&gt;Node9</title>
<path fill="none" stroke="midnightblue" d="M191,-260.679C191,-251.101 191,-238.394 191,-227.977"/>
<polygon fill="midnightblue" stroke="midnightblue" points="194.5,-227.828 191,-217.828 187.5,-227.828 194.5,-227.828"/>
</g>
<!-- Node10 -->
<g id="node10" class="node"><title>Node10</title>
<g id="a_node10"><a xlink:href="locality_8h.html" target="_top" xlink:title="shad/runtime/locality.h">
<polygon fill="white" stroke="black" points="854.5,-130.5 854.5,-149.5 969.5,-149.5 969.5,-130.5 854.5,-130.5"/>
<text text-anchor="middle" x="912" y="-137.5" font-family="Helvetica,sans-Serif" font-size="10.00">shad/runtime/locality.h</text>
</a>
</g>
</g>
<!-- Node8&#45;&gt;Node10 -->
<g id="edge10" class="edge"><title>Node8&#45;&gt;Node10</title>
<path fill="none" stroke="midnightblue" d="M251.533,-273.316C337.434,-269.735 499.043,-258.588 632,-224 667.866,-214.67 673.822,-203.658 709,-192 737.64,-182.509 814.541,-163.872 865.041,-151.947"/>
<polygon fill="midnightblue" stroke="midnightblue" points="866.147,-155.283 875.078,-149.584 864.542,-148.469 866.147,-155.283"/>
</g>
<!-- Node11 -->
<g id="node11" class="node"><title>Node11</title>
<polygon fill="white" stroke="#bfbfbf" points="1045,-62.5 1045,-81.5 1091,-81.5 1091,-62.5 1045,-62.5"/>
<text text-anchor="middle" x="1068" y="-69.5" font-family="Helvetica,sans-Serif" font-size="10.00">cstdint</text>
</g>
<!-- Node10&#45;&gt;Node11 -->
<g id="edge11" class="edge"><title>Node10&#45;&gt;Node11</title>
<path fill="none" stroke="midnightblue" d="M932.394,-130.372C959.372,-118.958 1007.12,-98.7562 1038.16,-85.6252"/>
<polygon fill="midnightblue" stroke="midnightblue" points="1039.75,-88.7503 1047.6,-81.6305 1037.03,-82.3035 1039.75,-88.7503"/>
</g>
<!-- Node12 -->
<g id="node12" class="node"><title>Node12</title>
<polygon fill="white" stroke="#bfbfbf" points="1174,-62.5 1174,-81.5 1228,-81.5 1228,-62.5 1174,-62.5"/>
<text text-anchor="middle" x="1201" y="-69.5" font-family="Helvetica,sans-Serif" font-size="10.00">iostream</text>
</g>
<!-- Node10&#45;&gt;Node12 -->
<g id="edge12" class="edge"><title>Node10&#45;&gt;Node12</title>
<path fill="none" stroke="midnightblue" d="M949.485,-130.439C1005.01,-117.758 1108.5,-94.124 1163.84,-81.4862"/>
<polygon fill="midnightblue" stroke="midnightblue" points="1164.94,-84.8242 1173.91,-79.1856 1163.39,-77.9999 1164.94,-84.8242"/>
</g>
<!-- Node13 -->
<g id="node13" class="node"><title>Node13</title>
<polygon fill="white" stroke="#bfbfbf" points="603,-0.5 603,-19.5 707,-19.5 707,-0.5 603,-0.5"/>
<text text-anchor="middle" x="655" y="-7.5" font-family="Helvetica,sans-Serif" font-size="10.00">shad/config/config.h</text>
</g>
<!-- Node10&#45;&gt;Node13 -->
<g id="edge13" class="edge"><title>Node10&#45;&gt;Node13</title>
<path fill="none" stroke="midnightblue" d="M909.914,-130.366C905.313,-113.274 892.607,-75.1285 867,-56 843.708,-38.6009 771.28,-25.8096 717.529,-18.4035"/>
<polygon fill="midnightblue" stroke="midnightblue" points="717.764,-14.9037 707.387,-17.0389 716.831,-21.8412 717.764,-14.9037"/>
</g>
<!-- Node14 -->
<g id="node14" class="node"><title>Node14</title>
<g id="a_node14"><a xlink:href="mapping__traits_8h.html" target="_top" xlink:title="shad/runtime/mapping\l_traits.h">
<polygon fill="white" stroke="black" points="472.5,-57 472.5,-87 585.5,-87 585.5,-57 472.5,-57"/>
<text text-anchor="start" x="480.5" y="-75" font-family="Helvetica,sans-Serif" font-size="10.00">shad/runtime/mapping</text>
<text text-anchor="middle" x="529" y="-64" font-family="Helvetica,sans-Serif" font-size="10.00">_traits.h</text>
</a>
</g>
</g>
<!-- Node10&#45;&gt;Node14 -->
<g id="edge14" class="edge"><title>Node10&#45;&gt;Node14</title>
<path fill="none" stroke="midnightblue" d="M875.572,-130.426C865.678,-128.212 854.949,-125.915 845,-124 759.274,-107.501 659.763,-92.0466 595.668,-82.5673"/>
<polygon fill="midnightblue" stroke="midnightblue" points="596.096,-79.0927 585.693,-81.098 595.076,-86.018 596.096,-79.0927"/>
</g>
<!-- Node16 -->
<g id="node16" class="node"><title>Node16</title>
<g id="a_node16"><a xlink:href="available__traits__mappings_8h.html" target="_top" xlink:title="shad/runtime/mappings\l/available_traits_mappings.h">
<polygon fill="white" stroke="black" points="718,-57 718,-87 858,-87 858,-57 718,-57"/>
<text text-anchor="start" x="726" y="-75" font-family="Helvetica,sans-Serif" font-size="10.00">shad/runtime/mappings</text>
<text text-anchor="middle" x="788" y="-64" font-family="Helvetica,sans-Serif" font-size="10.00">/available_traits_mappings.h</text>
</a>
</g>
</g>
<!-- Node10&#45;&gt;Node16 -->
<g id="edge17" class="edge"><title>Node10&#45;&gt;Node16</title>
<path fill="none" stroke="midnightblue" d="M895.789,-130.372C877.591,-120.686 847.503,-104.671 823.733,-92.0192"/>
<polygon fill="midnightblue" stroke="midnightblue" points="825.116,-88.7904 814.644,-87.1815 821.827,-94.9696 825.116,-88.7904"/>
</g>
<!-- Node14&#45;&gt;Node13 -->
<g id="edge16" class="edge"><title>Node14&#45;&gt;Node13</title>
<path fill="none" stroke="midnightblue" d="M558.541,-56.9327C579.514,-46.9455 607.457,-33.6397 627.867,-23.9205"/>
<polygon fill="midnightblue" stroke="midnightblue" points="629.416,-27.0594 636.94,-19.6 626.407,-20.7394 629.416,-27.0594"/>
</g>
<!-- Node15 -->
<g id="node15" class="node"><title>Node15</title>
<polygon fill="white" stroke="#bfbfbf" points="508.5,-0.5 508.5,-19.5 549.5,-19.5 549.5,-0.5 508.5,-0.5"/>
<text text-anchor="middle" x="529" y="-7.5" font-family="Helvetica,sans-Serif" font-size="10.00">string</text>
</g>
<!-- Node14&#45;&gt;Node15 -->
<g id="edge15" class="edge"><title>Node14&#45;&gt;Node15</title>
<path fill="none" stroke="midnightblue" d="M529,-56.7808C529,-48.7812 529,-38.6887 529,-30.0168"/>
<polygon fill="midnightblue" stroke="midnightblue" points="532.5,-29.7305 529,-19.7305 525.5,-29.7306 532.5,-29.7305"/>
</g>
<!-- Node17&#45;&gt;Node3 -->
<g id="edge21" class="edge"><title>Node17&#45;&gt;Node3</title>
<path fill="none" stroke="midnightblue" d="M834.007,-270.649C927.958,-263.262 1119.13,-246.816 1280,-224 1293.93,-222.024 1309.11,-219.386 1322.57,-216.873"/>
<polygon fill="midnightblue" stroke="midnightblue" points="1323.32,-220.294 1332.49,-214.989 1322.01,-213.417 1323.32,-220.294"/>
</g>
<!-- Node17&#45;&gt;Node4 -->
<g id="edge23" class="edge"><title>Node17&#45;&gt;Node4</title>
<path fill="none" stroke="midnightblue" d="M717.984,-269.859C634.684,-262.094 476.514,-245.92 343,-224 330.692,-221.979 317.286,-219.278 305.471,-216.725"/>
<polygon fill="midnightblue" stroke="midnightblue" points="306.084,-213.277 295.565,-214.541 304.577,-220.112 306.084,-213.277"/>
</g>
<!-- Node17&#45;&gt;Node10 -->
<g id="edge36" class="edge"><title>Node17&#45;&gt;Node10</title>
<path fill="none" stroke="midnightblue" d="M775.572,-266.127C775.253,-249.611 776.881,-213.847 795,-192 811.276,-172.375 836.557,-160.089 859.46,-152.509"/>
<polygon fill="midnightblue" stroke="midnightblue" points="860.57,-155.829 869.097,-149.54 858.51,-149.139 860.57,-155.829"/>
</g>
<!-- Node17&#45;&gt;Node11 -->
<g id="edge20" class="edge"><title>Node17&#45;&gt;Node11</title>
<path fill="none" stroke="midnightblue" d="M834.006,-274.347C924.239,-272.12 1092.41,-262.728 1136,-224 1169.76,-194.007 1176.35,-163.24 1154,-124 1142.61,-104 1119.94,-91.0359 1100.74,-83.1848"/>
<polygon fill="midnightblue" stroke="midnightblue" points="1101.97,-79.9067 1091.38,-79.6341 1099.49,-86.452 1101.97,-79.9067"/>
</g>
<!-- Node17&#45;&gt;Node12 -->
<g id="edge22" class="edge"><title>Node17&#45;&gt;Node12</title>
<path fill="none" stroke="midnightblue" d="M834.172,-272.953C953.892,-268.139 1218.93,-254.162 1246,-224 1280.92,-185.087 1238.61,-120.108 1214.93,-89.6765"/>
<polygon fill="midnightblue" stroke="midnightblue" points="1217.54,-87.3402 1208.55,-81.7329 1212.08,-91.7222 1217.54,-87.3402"/>
</g>
<!-- Node17&#45;&gt;Node13 -->
<g id="edge30" class="edge"><title>Node17&#45;&gt;Node13</title>
<path fill="none" stroke="midnightblue" d="M759.075,-266.441C743.706,-257.799 721.578,-243.022 709,-224 667.621,-161.421 657.95,-69.2927 655.689,-29.9427"/>
<polygon fill="midnightblue" stroke="midnightblue" points="659.165,-29.3407 655.199,-19.5162 652.173,-29.6697 659.165,-29.3407"/>
</g>
<!-- Node17&#45;&gt;Node14 -->
<g id="edge37" class="edge"><title>Node17&#45;&gt;Node14</title>
<path fill="none" stroke="midnightblue" d="M717.954,-272.62C645.818,-268.301 528.906,-256.376 502,-224 471.636,-187.463 496.7,-128.523 514.688,-96.1452"/>
<polygon fill="midnightblue" stroke="midnightblue" points="517.78,-97.7908 519.748,-87.3804 511.717,-94.291 517.78,-97.7908"/>
</g>
<!-- Node18 -->
<g id="node18" class="node"><title>Node18</title>
<polygon fill="white" stroke="#bfbfbf" points="1096.5,-130.5 1096.5,-149.5 1145.5,-149.5 1145.5,-130.5 1096.5,-130.5"/>
<text text-anchor="middle" x="1121" y="-137.5" font-family="Helvetica,sans-Serif" font-size="10.00">cstddef</text>
</g>
<!-- Node17&#45;&gt;Node18 -->
<g id="edge19" class="edge"><title>Node17&#45;&gt;Node18</title>
<path fill="none" stroke="midnightblue" d="M834.179,-274.753C921.233,-273.041 1079.13,-264.293 1116,-224 1131.73,-206.809 1129.61,-178.299 1125.9,-159.579"/>
<polygon fill="midnightblue" stroke="midnightblue" points="1129.26,-158.563 1123.59,-149.611 1122.44,-160.143 1129.26,-158.563"/>
</g>
<!-- Node19 -->
<g id="node19" class="node"><title>Node19</title>
<polygon fill="white" stroke="#bfbfbf" points="1202.5,-198.5 1202.5,-217.5 1237.5,-217.5 1237.5,-198.5 1202.5,-198.5"/>
<text text-anchor="middle" x="1220" y="-205.5" font-family="Helvetica,sans-Serif" font-size="10.00">map</text>
</g>
<!-- Node17&#45;&gt;Node19 -->
<g id="edge24" class="edge"><title>Node17&#45;&gt;Node19</title>
<path fill="none" stroke="midnightblue" d="M834.128,-273.54C914.97,-270.226 1065.25,-259.396 1188,-224 1190.29,-223.34 1192.62,-222.536 1194.92,-221.645"/>
<polygon fill="midnightblue" stroke="midnightblue" points="1196.33,-224.851 1204.11,-217.655 1193.54,-218.431 1196.33,-224.851"/>
</g>
<!-- Node20 -->
<g id="node20" class="node"><title>Node20</title>
<polygon fill="white" stroke="#bfbfbf" points="988,-130.5 988,-149.5 1040,-149.5 1040,-130.5 988,-130.5"/>
<text text-anchor="middle" x="1014" y="-137.5" font-family="Helvetica,sans-Serif" font-size="10.00">memory</text>
</g>
<!-- Node17&#45;&gt;Node20 -->
<g id="edge25" class="edge"><title>Node17&#45;&gt;Node20</title>
<path fill="none" stroke="midnightblue" d="M804.664,-266.493C831.945,-257.792 873.662,-242.889 907,-224 941.543,-204.428 977.075,-174.559 997.259,-156.496"/>
<polygon fill="midnightblue" stroke="midnightblue" points="999.868,-158.854 1004.92,-149.542 995.164,-153.67 999.868,-158.854"/>
</g>
<!-- Node21 -->
<g id="node21" class="node"><title>Node21</title>
<polygon fill="white" stroke="#bfbfbf" points="718,-198.5 718,-217.5 748,-217.5 748,-198.5 718,-198.5"/>
<text text-anchor="middle" x="733" y="-205.5" font-family="Helvetica,sans-Serif" font-size="10.00">set</text>
</g>
<!-- Node17&#45;&gt;Node21 -->
<g id="edge26" class="edge"><title>Node17&#45;&gt;Node21</title>
<path fill="none" stroke="midnightblue" d="M770.379,-266.372C763.784,-256.25 752.686,-239.215 744.292,-226.331"/>
<polygon fill="midnightblue" stroke="midnightblue" points="747.151,-224.309 738.76,-217.841 741.286,-228.13 747.151,-224.309"/>
</g>
<!-- Node22 -->
<g id="node22" class="node"><title>Node22</title>
<polygon fill="white" stroke="#bfbfbf" points="804,-198.5 804,-217.5 882,-217.5 882,-198.5 804,-198.5"/>
<text text-anchor="middle" x="843" y="-205.5" font-family="Helvetica,sans-Serif" font-size="10.00">unordered_set</text>
</g>
<!-- Node17&#45;&gt;Node22 -->
<g id="edge27" class="edge"><title>Node17&#45;&gt;Node22</title>
<path fill="none" stroke="midnightblue" d="M784.759,-266.372C795.334,-255.955 813.34,-238.217 826.538,-225.216"/>
<polygon fill="midnightblue" stroke="midnightblue" points="829.357,-227.352 834.025,-217.841 824.445,-222.365 829.357,-227.352"/>
</g>
<!-- Node23 -->
<g id="node23" class="node"><title>Node23</title>
<polygon fill="white" stroke="#bfbfbf" points="352,-198.5 352,-217.5 392,-217.5 392,-198.5 352,-198.5"/>
<text text-anchor="middle" x="372" y="-205.5" font-family="Helvetica,sans-Serif" font-size="10.00">utility</text>
</g>
<!-- Node17&#45;&gt;Node23 -->
<g id="edge28" class="edge"><title>Node17&#45;&gt;Node23</title>
<path fill="none" stroke="midnightblue" d="M717.805,-273.216C642.916,-269.545 509.535,-258.319 401,-224 399.135,-223.41 397.247,-222.707 395.374,-221.932"/>
<polygon fill="midnightblue" stroke="midnightblue" points="396.869,-218.767 386.334,-217.645 393.87,-225.092 396.869,-218.767"/>
</g>
<!-- Node24 -->
<g id="node24" class="node"><title>Node24</title>
<polygon fill="white" stroke="#bfbfbf" points="410,-198.5 410,-217.5 454,-217.5 454,-198.5 410,-198.5"/>
<text text-anchor="middle" x="432" y="-205.5" font-family="Helvetica,sans-Serif" font-size="10.00">vector</text>
</g>
<!-- Node17&#45;&gt;Node24 -->
<g id="edge29" class="edge"><title>Node17&#45;&gt;Node24</title>
<path fill="none" stroke="midnightblue" d="M717.787,-269.41C655.19,-262.467 553.18,-248.443 468,-224 465.346,-223.238 462.624,-222.339 459.923,-221.364"/>
<polygon fill="midnightblue" stroke="midnightblue" points="460.979,-218.019 450.392,-217.622 458.42,-224.535 460.979,-218.019"/>
</g>
<!-- Node25 -->
<g id="node25" class="node"><title>Node25</title>
<g id="a_node25"><a xlink:href="handle_8h.html" target="_top" xlink:title="shad/runtime/handle.h">
<polygon fill="white" stroke="black" points="510.5,-198.5 510.5,-217.5 623.5,-217.5 623.5,-198.5 510.5,-198.5"/>
<text text-anchor="middle" x="567" y="-205.5" font-family="Helvetica,sans-Serif" font-size="10.00">shad/runtime/handle.h</text>
</a>
</g>
</g>
<!-- Node17&#45;&gt;Node25 -->
<g id="edge31" class="edge"><title>Node17&#45;&gt;Node25</title>
<path fill="none" stroke="midnightblue" d="M748.677,-266.372C711.571,-254.654 645.133,-233.674 603.706,-220.591"/>
<polygon fill="midnightblue" stroke="midnightblue" points="604.588,-217.2 593.999,-217.526 602.48,-223.875 604.588,-217.2"/>
</g>
<!-- Node26 -->
<g id="node26" class="node"><title>Node26</title>
<g id="a_node26"><a xlink:href="available__mappings_8h.html" target="_top" xlink:title="shad/runtime/mappings\l/available_mappings.h">
<polygon fill="white" stroke="black" points="718,-125 718,-155 836,-155 836,-125 718,-125"/>
<text text-anchor="start" x="726" y="-143" font-family="Helvetica,sans-Serif" font-size="10.00">shad/runtime/mappings</text>
<text text-anchor="middle" x="777" y="-132" font-family="Helvetica,sans-Serif" font-size="10.00">/available_mappings.h</text>
</a>
</g>
</g>
<!-- Node17&#45;&gt;Node26 -->
<g id="edge38" class="edge"><title>Node17&#45;&gt;Node26</title>
<path fill="none" stroke="midnightblue" d="M824.122,-266.497C848.569,-259.479 876.174,-246.794 891,-224 898.755,-212.078 898.735,-203.935 891,-192 880.456,-175.732 863.37,-164.606 845.599,-157.015"/>
<polygon fill="midnightblue" stroke="midnightblue" points="846.862,-153.751 836.274,-153.359 844.307,-160.268 846.862,-153.751"/>
</g>
<!-- Node27 -->
<g id="node27" class="node"><title>Node27</title>
<g id="a_node27"><a xlink:href="synchronous__interface_8h.html" target="_top" xlink:title="shad/runtime/synchronous\l_interface.h">
<polygon fill="white" stroke="black" points="976.5,-193 976.5,-223 1107.5,-223 1107.5,-193 976.5,-193"/>
<text text-anchor="start" x="984.5" y="-211" font-family="Helvetica,sans-Serif" font-size="10.00">shad/runtime/synchronous</text>
<text text-anchor="middle" x="1042" y="-200" font-family="Helvetica,sans-Serif" font-size="10.00">_interface.h</text>
</a>
</g>
</g>
<!-- Node17&#45;&gt;Node27 -->
<g id="edge40" class="edge"><title>Node17&#45;&gt;Node27</title>
<path fill="none" stroke="midnightblue" d="M810.502,-266.439C852.167,-256.101 923.174,-238.483 975.587,-225.478"/>
<polygon fill="midnightblue" stroke="midnightblue" points="976.613,-228.83 985.476,-223.025 974.927,-222.036 976.613,-228.83"/>
</g>
<!-- Node25&#45;&gt;Node7 -->
<g id="edge32" class="edge"><title>Node25&#45;&gt;Node7</title>
<path fill="none" stroke="midnightblue" d="M535.232,-198.372C491.514,-186.498 412.775,-165.112 364.763,-152.071"/>
<polygon fill="midnightblue" stroke="midnightblue" points="365.575,-148.665 355.007,-149.422 363.74,-155.421 365.575,-148.665"/>
</g>
<!-- Node25&#45;&gt;Node13 -->
<g id="edge33" class="edge"><title>Node25&#45;&gt;Node13</title>
<path fill="none" stroke="midnightblue" d="M570.895,-198.325C584.297,-168.474 628.693,-69.5936 647,-28.8182"/>
<polygon fill="midnightblue" stroke="midnightblue" points="650.247,-30.1309 651.15,-19.5746 643.861,-27.2637 650.247,-30.1309"/>
</g>
<!-- Node25&#45;&gt;Node14 -->
<g id="edge34" class="edge"><title>Node25&#45;&gt;Node14</title>
<path fill="none" stroke="midnightblue" d="M564.507,-198.208C558.746,-177.895 544.351,-127.132 535.762,-96.8463"/>
<polygon fill="midnightblue" stroke="midnightblue" points="539.086,-95.737 532.99,-87.0713 532.351,-97.6469 539.086,-95.737"/>
</g>
<!-- Node25&#45;&gt;Node16 -->
<g id="edge35" class="edge"><title>Node25&#45;&gt;Node16</title>
<path fill="none" stroke="midnightblue" d="M581.161,-198.414C616.138,-177.206 707.311,-121.924 756.1,-92.342"/>
<polygon fill="midnightblue" stroke="midnightblue" points="757.957,-95.3091 764.694,-87.1315 754.328,-89.3234 757.957,-95.3091"/>
</g>
<!-- Node26&#45;&gt;Node16 -->
<g id="edge39" class="edge"><title>Node26&#45;&gt;Node16</title>
<path fill="none" stroke="midnightblue" d="M779.387,-124.679C780.713,-116.722 782.399,-106.605 783.927,-97.4356"/>
<polygon fill="midnightblue" stroke="midnightblue" points="787.426,-97.7324 785.618,-87.2931 780.521,-96.5816 787.426,-97.7324"/>
</g>
<!-- Node27&#45;&gt;Node10 -->
<g id="edge44" class="edge"><title>Node27&#45;&gt;Node10</title>
<path fill="none" stroke="midnightblue" d="M1014.11,-192.841C991.626,-181.425 960.228,-165.485 938.204,-154.303"/>
<polygon fill="midnightblue" stroke="midnightblue" points="939.602,-151.088 929.101,-149.682 936.433,-157.33 939.602,-151.088"/>
</g>
<!-- Node27&#45;&gt;Node11 -->
<g id="edge42" class="edge"><title>Node27&#45;&gt;Node11</title>
<path fill="none" stroke="midnightblue" d="M1044.78,-192.66C1049.51,-168.32 1059.09,-118.933 1064.35,-91.8373"/>
<polygon fill="midnightblue" stroke="midnightblue" points="1067.84,-92.2111 1066.31,-81.7275 1060.97,-90.8777 1067.84,-92.2111"/>
</g>
<!-- Node27&#45;&gt;Node18 -->
<g id="edge41" class="edge"><title>Node27&#45;&gt;Node18</title>
<path fill="none" stroke="midnightblue" d="M1059.14,-192.679C1071.95,-181.981 1089.43,-167.377 1102.54,-156.422"/>
<polygon fill="midnightblue" stroke="midnightblue" points="1105,-158.926 1110.43,-149.828 1100.51,-153.554 1105,-158.926"/>
</g>
<!-- Node27&#45;&gt;Node20 -->
<g id="edge43" class="edge"><title>Node27&#45;&gt;Node20</title>
<path fill="none" stroke="midnightblue" d="M1035.92,-192.679C1031.77,-182.898 1026.24,-169.852 1021.77,-159.315"/>
<polygon fill="midnightblue" stroke="midnightblue" points="1024.87,-157.667 1017.75,-149.828 1018.43,-160.401 1024.87,-157.667"/>
</g>
<!-- Node28&#45;&gt;Node4 -->
<g id="edge47" class="edge"><title>Node28&#45;&gt;Node4</title>
<path fill="none" stroke="midnightblue" d="M383.209,-328.496C372.378,-319.773 355.421,-305.593 342,-292 320.572,-270.297 298.268,-242.873 284.755,-225.629"/>
<polygon fill="midnightblue" stroke="midnightblue" points="287.438,-223.377 278.541,-217.624 281.908,-227.669 287.438,-223.377"/>
</g>
<!-- Node28&#45;&gt;Node7 -->
<g id="edge49" class="edge"><title>Node28&#45;&gt;Node7</title>
<path fill="none" stroke="midnightblue" d="M389.425,-328.447C379.665,-309.9 356.588,-264.393 343,-224 335.801,-202.598 330.428,-177.186 327.266,-160.169"/>
<polygon fill="midnightblue" stroke="midnightblue" points="330.633,-159.114 325.434,-149.882 323.741,-160.341 330.633,-159.114"/>
</g>
<!-- Node28&#45;&gt;Node8 -->
<g id="edge52" class="edge"><title>Node28&#45;&gt;Node8</title>
<path fill="none" stroke="midnightblue" d="M364.915,-328.403C334.623,-319.45 286.375,-305.19 248.374,-293.958"/>
<polygon fill="midnightblue" stroke="midnightblue" points="249.034,-290.503 238.452,-291.025 247.05,-297.216 249.034,-290.503"/>
</g>
<!-- Node28&#45;&gt;Node17 -->
<g id="edge53" class="edge"><title>Node28&#45;&gt;Node17</title>
<path fill="none" stroke="midnightblue" d="M435.608,-330.465C502.045,-320.03 632.596,-299.524 711.298,-287.163"/>
<polygon fill="midnightblue" stroke="midnightblue" points="712.239,-290.558 721.575,-285.548 711.153,-283.643 712.239,-290.558"/>
</g>
<!-- Node28&#45;&gt;Node18 -->
<g id="edge46" class="edge"><title>Node28&#45;&gt;Node18</title>
<path fill="none" stroke="midnightblue" d="M435.543,-334.707C599.182,-325.251 1192.88,-286.803 1246,-224 1276.33,-188.144 1201.96,-161.628 1155.3,-149.079"/>
<polygon fill="midnightblue" stroke="midnightblue" points="1156.09,-145.668 1145.53,-146.544 1154.33,-152.444 1156.09,-145.668"/>
</g>
<!-- Node28&#45;&gt;Node23 -->
<g id="edge50" class="edge"><title>Node28&#45;&gt;Node23</title>
<path fill="none" stroke="midnightblue" d="M392.488,-328.202C388.938,-307.551 380.01,-255.606 375.196,-227.594"/>
<polygon fill="midnightblue" stroke="midnightblue" points="378.608,-226.785 373.465,-217.522 371.709,-227.971 378.608,-226.785"/>
</g>
<!-- Node28&#45;&gt;Node24 -->
<g id="edge51" class="edge"><title>Node28&#45;&gt;Node24</title>
<path fill="none" stroke="midnightblue" d="M396.612,-328.202C402.77,-307.459 418.301,-255.144 426.59,-227.222"/>
<polygon fill="midnightblue" stroke="midnightblue" points="429.979,-228.105 429.47,-217.522 423.269,-226.113 429.979,-228.105"/>
</g>
<!-- Node29 -->
<g id="node29" class="node"><title>Node29</title>
<polygon fill="white" stroke="#bfbfbf" points="460,-266.5 460,-285.5 498,-285.5 498,-266.5 460,-266.5"/>
<text text-anchor="middle" x="479" y="-273.5" font-family="Helvetica,sans-Serif" font-size="10.00">tuple</text>
</g>
<!-- Node28&#45;&gt;Node29 -->
<g id="edge48" class="edge"><title>Node28&#45;&gt;Node29</title>
<path fill="none" stroke="midnightblue" d="M406.178,-328.403C419.812,-318.78 442.132,-303.024 458.474,-291.489"/>
<polygon fill="midnightblue" stroke="midnightblue" points="460.693,-294.207 466.844,-285.581 456.656,-288.488 460.693,-294.207"/>
</g>
</g>
</svg>
