<?xml version="1.0" encoding="UTF-8" standalone="no"?>
<!DOCTYPE svg PUBLIC "-//W3C//DTD SVG 1.1//EN"
 "http://www.w3.org/Graphics/SVG/1.1/DTD/svg11.dtd">
<!-- Generated by graphviz version 2.36.0 (20140111.2315)
 -->
<!-- Title: include/shad/core/numeric.h Pages: 1 -->
<svg width="1235pt" height="480pt"
 viewBox="0.00 0.00 1235.28 480.00" xmlns="http://www.w3.org/2000/svg" xmlns:xlink="http://www.w3.org/1999/xlink">
<g id="graph0" class="graph" transform="scale(1 1) rotate(0) translate(4 476)">
<title>include/shad/core/numeric.h</title>
<polygon fill="white" stroke="none" points="-4,4 -4,-476 1231.28,-476 1231.28,4 -4,4"/>
<!-- Node1 -->
<g id="node1" class="node"><title>Node1</title>
<polygon fill="#bfbfbf" stroke="black" points="851.5,-452.5 851.5,-471.5 990.5,-471.5 990.5,-452.5 851.5,-452.5"/>
<text text-anchor="middle" x="921" y="-459.5" font-family="Helvetica,sans-Serif" font-size="10.00">include/shad/core/numeric.h</text>
</g>
<!-- Node2 -->
<g id="node2" class="node"><title>Node2</title>
<polygon fill="white" stroke="#bfbfbf" points="1151.5,-198.5 1151.5,-217.5 1210.5,-217.5 1210.5,-198.5 1151.5,-198.5"/>
<text text-anchor="middle" x="1181" y="-205.5" font-family="Helvetica,sans-Serif" font-size="10.00">functional</text>
</g>
<!-- Node1&#45;&gt;Node2 -->
<g id="edge1" class="edge"><title>Node1&#45;&gt;Node2</title>
<path fill="none" stroke="midnightblue" d="M929.95,-452.326C967.844,-415.598 1115.39,-272.588 1164.79,-224.714"/>
<polygon fill="midnightblue" stroke="midnightblue" points="1167.34,-227.111 1172.09,-217.638 1162.47,-222.084 1167.34,-227.111"/>
</g>
<!-- Node3 -->
<g id="node3" class="node"><title>Node3</title>
<polygon fill="white" stroke="#bfbfbf" points="105.5,-198.5 105.5,-217.5 152.5,-217.5 152.5,-198.5 105.5,-198.5"/>
<text text-anchor="middle" x="129" y="-205.5" font-family="Helvetica,sans-Serif" font-size="10.00">iterator</text>
</g>
<!-- Node1&#45;&gt;Node3 -->
<g id="edge2" class="edge"><title>Node1&#45;&gt;Node3</title>
<path fill="none" stroke="midnightblue" d="M851.332,-458.564C729.965,-453.719 484.879,-441.111 403,-416 295.693,-383.091 264.62,-369.045 183,-292 162.842,-272.972 146.654,-244.984 137.432,-226.873"/>
<polygon fill="midnightblue" stroke="midnightblue" points="140.487,-225.154 132.937,-217.721 134.204,-228.239 140.487,-225.154"/>
</g>
<!-- Node4 -->
<g id="node4" class="node"><title>Node4</title>
<polygon fill="white" stroke="#bfbfbf" points="919,-266.5 919,-285.5 957,-285.5 957,-266.5 919,-266.5"/>
<text text-anchor="middle" x="938" y="-273.5" font-family="Helvetica,sans-Serif" font-size="10.00">tuple</text>
</g>
<!-- Node1&#45;&gt;Node4 -->
<g id="edge3" class="edge"><title>Node1&#45;&gt;Node4</title>
<path fill="none" stroke="midnightblue" d="M921.82,-452.125C924.44,-423.769 932.648,-334.93 936.262,-295.811"/>
<polygon fill="midnightblue" stroke="midnightblue" points="939.753,-296.065 937.188,-285.786 932.783,-295.421 939.753,-296.065"/>
</g>
<!-- Node5 -->
<g id="node5" class="node"><title>Node5</title>
<polygon fill="white" stroke="#bfbfbf" points="993,-198.5 993,-217.5 1033,-217.5 1033,-198.5 993,-198.5"/>
<text text-anchor="middle" x="1013" y="-205.5" font-family="Helvetica,sans-Serif" font-size="10.00">utility</text>
</g>
<!-- Node1&#45;&gt;Node5 -->
<g id="edge4" class="edge"><title>Node1&#45;&gt;Node5</title>
<path fill="none" stroke="midnightblue" d="M924.798,-452.436C928.75,-443.429 935.041,-428.812 940,-416 966.675,-347.079 994.829,-263.783 1006.91,-227.447"/>
<polygon fill="midnightblue" stroke="midnightblue" points="1010.3,-228.339 1010.13,-217.746 1003.66,-226.137 1010.3,-228.339"/>
</g>
<!-- Node6 -->
<g id="node6" class="node"><title>Node6</title>
<polygon fill="white" stroke="#bfbfbf" points="1051,-198.5 1051,-217.5 1095,-217.5 1095,-198.5 1051,-198.5"/>
<text text-anchor="middle" x="1073" y="-205.5" font-family="Helvetica,sans-Serif" font-size="10.00">vector</text>
</g>
<!-- Node1&#45;&gt;Node6 -->
<g id="edge5" class="edge"><title>Node1&#45;&gt;Node6</title>
<path fill="none" stroke="midnightblue" d="M929.113,-452.449C937.204,-443.689 949.731,-429.481 959,-416 1004.49,-349.845 1047.04,-263.878 1064.57,-227.041"/>
<polygon fill="midnightblue" stroke="midnightblue" points="1067.91,-228.172 1069.01,-217.635 1061.58,-225.185 1067.91,-228.172"/>
</g>
<!-- Node7 -->
<g id="node7" class="node"><title>Node7</title>
<g id="a_node7"><a xlink:href="execution_8h.html" target="_top" xlink:title="shad/core/execution.h">
<polygon fill="white" stroke="black" points="1101.5,-328.5 1101.5,-347.5 1214.5,-347.5 1214.5,-328.5 1101.5,-328.5"/>
<text text-anchor="middle" x="1158" y="-335.5" font-family="Helvetica,sans-Serif" font-size="10.00">shad/core/execution.h</text>
</a>
</g>
</g>
<!-- Node1&#45;&gt;Node7 -->
<g id="edge6" class="edge"><title>Node1&#45;&gt;Node7</title>
<path fill="none" stroke="midnightblue" d="M984.232,-452.45C1016.69,-446.001 1055.85,-434.895 1087,-416 1112.19,-400.721 1133.93,-373.944 1146.5,-356.341"/>
<polygon fill="midnightblue" stroke="midnightblue" points="1149.71,-357.855 1152.5,-347.636 1143.94,-353.88 1149.71,-357.855"/>
</g>
<!-- Node9 -->
<g id="node9" class="node"><title>Node9</title>
<g id="a_node9"><a xlink:href="numeric__ops_8h.html" target="_top" xlink:title="shad/core/impl/numeric\l_ops.h">
<polygon fill="white" stroke="black" points="702,-385 702,-415 820,-415 820,-385 702,-385"/>
<text text-anchor="start" x="710" y="-403" font-family="Helvetica,sans-Serif" font-size="10.00">shad/core/impl/numeric</text>
<text text-anchor="middle" x="761" y="-392" font-family="Helvetica,sans-Serif" font-size="10.00">_ops.h</text>
</a>
</g>
</g>
<!-- Node1&#45;&gt;Node9 -->
<g id="edge8" class="edge"><title>Node1&#45;&gt;Node9</title>
<path fill="none" stroke="midnightblue" d="M898.076,-452.403C874.708,-443.641 837.784,-429.794 808.144,-418.679"/>
<polygon fill="midnightblue" stroke="midnightblue" points="808.993,-415.259 798.401,-415.025 806.535,-421.814 808.993,-415.259"/>
</g>
<!-- Node12 -->
<g id="node12" class="node"><title>Node12</title>
<g id="a_node12"><a xlink:href="distributed__iterator__traits_8h.html" target="_top" xlink:title="shad/distributed_iterator\l_traits.h">
<polygon fill="white" stroke="black" points="192.5,-261 192.5,-291 313.5,-291 313.5,-261 192.5,-261"/>
<text text-anchor="start" x="200.5" y="-279" font-family="Helvetica,sans-Serif" font-size="10.00">shad/distributed_iterator</text>
<text text-anchor="middle" x="253" y="-268" font-family="Helvetica,sans-Serif" font-size="10.00">_traits.h</text>
</a>
</g>
</g>
<!-- Node1&#45;&gt;Node12 -->
<g id="edge61" class="edge"><title>Node1&#45;&gt;Node12</title>
<path fill="none" stroke="midnightblue" d="M851.286,-454.634C710.352,-440.735 397.288,-404.338 307,-348 288.439,-336.418 273.918,-315.997 264.632,-300.02"/>
<polygon fill="midnightblue" stroke="midnightblue" points="267.675,-298.289 259.778,-291.226 261.546,-301.672 267.675,-298.289"/>
</g>
<!-- Node21 -->
<g id="node21" class="node"><title>Node21</title>
<g id="a_node21"><a xlink:href="runtime_8h.html" target="_top" xlink:title="shad/runtime/runtime.h">
<polygon fill="white" stroke="black" points="565,-266.5 565,-285.5 681,-285.5 681,-266.5 565,-266.5"/>
<text text-anchor="middle" x="623" y="-273.5" font-family="Helvetica,sans-Serif" font-size="10.00">shad/runtime/runtime.h</text>
</a>
</g>
</g>
<!-- Node1&#45;&gt;Node21 -->
<g id="edge62" class="edge"><title>Node1&#45;&gt;Node21</title>
<path fill="none" stroke="midnightblue" d="M851.472,-459.108C804.001,-455.092 741.222,-444.236 693,-416 658.722,-395.928 651.805,-383.993 635,-348 627.321,-331.554 624.493,-310.925 623.483,-296.148"/>
<polygon fill="midnightblue" stroke="midnightblue" points="626.96,-295.572 623.004,-285.744 619.967,-295.894 626.96,-295.572"/>
</g>
<!-- Node8 -->
<g id="node8" class="node"><title>Node8</title>
<polygon fill="white" stroke="#bfbfbf" points="1092,-130.5 1092,-149.5 1154,-149.5 1154,-130.5 1092,-130.5"/>
<text text-anchor="middle" x="1123" y="-137.5" font-family="Helvetica,sans-Serif" font-size="10.00">type_traits</text>
</g>
<!-- Node7&#45;&gt;Node8 -->
<g id="edge7" class="edge"><title>Node7&#45;&gt;Node8</title>
<path fill="none" stroke="midnightblue" d="M1167.05,-328.422C1190.27,-305.353 1248.13,-240.453 1219,-192 1206.91,-171.892 1183.93,-159.287 1163.48,-151.639"/>
<polygon fill="midnightblue" stroke="midnightblue" points="1164.6,-148.324 1154.01,-148.369 1162.32,-154.941 1164.6,-148.324"/>
</g>
<!-- Node9&#45;&gt;Node2 -->
<g id="edge10" class="edge"><title>Node9&#45;&gt;Node2</title>
<path fill="none" stroke="midnightblue" d="M801.261,-384.896C828.305,-375.153 864.601,-361.553 896,-348 993.848,-305.764 1106.69,-247.917 1155.89,-222.224"/>
<polygon fill="midnightblue" stroke="midnightblue" points="1157.63,-225.267 1164.86,-217.528 1154.38,-219.066 1157.63,-225.267"/>
</g>
<!-- Node9&#45;&gt;Node3 -->
<g id="edge11" class="edge"><title>Node9&#45;&gt;Node3</title>
<path fill="none" stroke="midnightblue" d="M701.888,-388.732C623.739,-373.839 482.871,-342.382 371,-292 347.284,-281.319 345.923,-270.21 322,-260 256.953,-232.24 234.52,-245.041 167,-224 164.207,-223.13 161.327,-222.15 158.461,-221.12"/>
<polygon fill="midnightblue" stroke="midnightblue" points="159.509,-217.774 148.918,-217.502 157.028,-224.319 159.509,-217.774"/>
</g>
<!-- Node9&#45;&gt;Node7 -->
<g id="edge13" class="edge"><title>Node9&#45;&gt;Node7</title>
<path fill="none" stroke="midnightblue" d="M820.006,-390.082C892.668,-379.101 1015.75,-360.498 1091.64,-349.03"/>
<polygon fill="midnightblue" stroke="midnightblue" points="1092.2,-352.484 1101.56,-347.529 1091.15,-345.563 1092.2,-352.484"/>
</g>
<!-- Node10 -->
<g id="node10" class="node"><title>Node10</title>
<polygon fill="white" stroke="#bfbfbf" points="661,-328.5 661,-347.5 717,-347.5 717,-328.5 661,-328.5"/>
<text text-anchor="middle" x="689" y="-335.5" font-family="Helvetica,sans-Serif" font-size="10.00">algorithm</text>
</g>
<!-- Node9&#45;&gt;Node10 -->
<g id="edge9" class="edge"><title>Node9&#45;&gt;Node10</title>
<path fill="none" stroke="midnightblue" d="M743.937,-384.781C732.935,-375.613 718.635,-363.696 707.382,-354.319"/>
<polygon fill="midnightblue" stroke="midnightblue" points="709.4,-351.444 699.477,-347.731 704.918,-356.821 709.4,-351.444"/>
</g>
<!-- Node11 -->
<g id="node11" class="node"><title>Node11</title>
<polygon fill="white" stroke="#bfbfbf" points="735.5,-328.5 735.5,-347.5 786.5,-347.5 786.5,-328.5 735.5,-328.5"/>
<text text-anchor="middle" x="761" y="-335.5" font-family="Helvetica,sans-Serif" font-size="10.00">numeric</text>
</g>
<!-- Node9&#45;&gt;Node11 -->
<g id="edge12" class="edge"><title>Node9&#45;&gt;Node11</title>
<path fill="none" stroke="midnightblue" d="M761,-384.781C761,-376.781 761,-366.689 761,-358.017"/>
<polygon fill="midnightblue" stroke="midnightblue" points="764.5,-357.73 761,-347.731 757.5,-357.731 764.5,-357.73"/>
</g>
<!-- Node9&#45;&gt;Node12 -->
<g id="edge14" class="edge"><title>Node9&#45;&gt;Node12</title>
<path fill="none" stroke="midnightblue" d="M701.618,-395.71C602.132,-389.542 406.438,-374.423 343,-348 315.916,-336.719 290.179,-314.885 273.22,-298.394"/>
<polygon fill="midnightblue" stroke="midnightblue" points="275.62,-295.844 266.072,-291.25 270.671,-300.795 275.62,-295.844"/>
</g>
<!-- Node9&#45;&gt;Node21 -->
<g id="edge25" class="edge"><title>Node9&#45;&gt;Node21</title>
<path fill="none" stroke="midnightblue" d="M711.92,-384.943C691.212,-376.94 668.2,-365.029 652,-348 638.116,-333.406 630.514,-311.266 626.618,-295.596"/>
<polygon fill="midnightblue" stroke="midnightblue" points="629.97,-294.541 624.399,-285.528 623.134,-296.047 629.97,-294.541"/>
</g>
<!-- Node30 -->
<g id="node30" class="node"><title>Node30</title>
<g id="a_node30"><a xlink:href="impl__patterns_8h.html" target="_top" xlink:title="impl_patterns.h">
<polygon fill="white" stroke="black" points="804.5,-328.5 804.5,-347.5 887.5,-347.5 887.5,-328.5 804.5,-328.5"/>
<text text-anchor="middle" x="846" y="-335.5" font-family="Helvetica,sans-Serif" font-size="10.00">impl_patterns.h</text>
</a>
</g>
</g>
<!-- Node9&#45;&gt;Node30 -->
<g id="edge52" class="edge"><title>Node9&#45;&gt;Node30</title>
<path fill="none" stroke="midnightblue" d="M781.144,-384.781C794.595,-375.286 812.222,-362.843 825.704,-353.327"/>
<polygon fill="midnightblue" stroke="midnightblue" points="827.728,-356.182 833.879,-347.556 823.691,-350.463 827.728,-356.182"/>
</g>
<!-- Node12&#45;&gt;Node3 -->
<g id="edge16" class="edge"><title>Node12&#45;&gt;Node3</title>
<path fill="none" stroke="midnightblue" d="M226.399,-260.841C205.047,-249.476 175.271,-233.628 154.277,-222.454"/>
<polygon fill="midnightblue" stroke="midnightblue" points="155.783,-219.291 145.311,-217.682 152.494,-225.47 155.783,-219.291"/>
</g>
<!-- Node13 -->
<g id="node13" class="node"><title>Node13</title>
<polygon fill="white" stroke="#bfbfbf" points="-0.5,-198.5 -0.5,-217.5 48.5,-217.5 48.5,-198.5 -0.5,-198.5"/>
<text text-anchor="middle" x="24" y="-205.5" font-family="Helvetica,sans-Serif" font-size="10.00">cassert</text>
</g>
<!-- Node12&#45;&gt;Node13 -->
<g id="edge15" class="edge"><title>Node12&#45;&gt;Node13</title>
<path fill="none" stroke="midnightblue" d="M194.325,-260.944C156.536,-251.476 106.518,-238.166 63,-224 60.2192,-223.095 57.3471,-222.103 54.4814,-221.074"/>
<polygon fill="midnightblue" stroke="midnightblue" points="55.4978,-217.717 44.9051,-217.504 53.0529,-224.276 55.4978,-217.717"/>
</g>
<!-- Node14 -->
<g id="node14" class="node"><title>Node14</title>
<g id="a_node14"><a xlink:href="locality_8h.html" target="_top" xlink:title="shad/runtime/locality.h">
<polygon fill="white" stroke="black" points="371.5,-130.5 371.5,-149.5 486.5,-149.5 486.5,-130.5 371.5,-130.5"/>
<text text-anchor="middle" x="429" y="-137.5" font-family="Helvetica,sans-Serif" font-size="10.00">shad/runtime/locality.h</text>
</a>
</g>
</g>
<!-- Node12&#45;&gt;Node14 -->
<g id="edge17" class="edge"><title>Node12&#45;&gt;Node14</title>
<path fill="none" stroke="midnightblue" d="M192.408,-265.085C135.421,-253.211 63.3647,-230.014 96,-192 100.312,-186.977 265.156,-163.54 361.257,-150.254"/>
<polygon fill="midnightblue" stroke="midnightblue" points="361.764,-153.718 371.192,-148.883 360.807,-146.784 361.764,-153.718"/>
</g>
<!-- Node15 -->
<g id="node15" class="node"><title>Node15</title>
<polygon fill="white" stroke="#bfbfbf" points="320,-62.5 320,-81.5 366,-81.5 366,-62.5 320,-62.5"/>
<text text-anchor="middle" x="343" y="-69.5" font-family="Helvetica,sans-Serif" font-size="10.00">cstdint</text>
</g>
<!-- Node14&#45;&gt;Node15 -->
<g id="edge18" class="edge"><title>Node14&#45;&gt;Node15</title>
<path fill="none" stroke="midnightblue" d="M417.757,-130.372C403.722,-119.6 379.488,-101.002 362.424,-87.9065"/>
<polygon fill="midnightblue" stroke="midnightblue" points="364.31,-84.9421 354.246,-81.6305 360.048,-90.4953 364.31,-84.9421"/>
</g>
<!-- Node16 -->
<g id="node16" class="node"><title>Node16</title>
<polygon fill="white" stroke="#bfbfbf" points="502,-62.5 502,-81.5 556,-81.5 556,-62.5 502,-62.5"/>
<text text-anchor="middle" x="529" y="-69.5" font-family="Helvetica,sans-Serif" font-size="10.00">iostream</text>
</g>
<!-- Node14&#45;&gt;Node16 -->
<g id="edge19" class="edge"><title>Node14&#45;&gt;Node16</title>
<path fill="none" stroke="midnightblue" d="M442.073,-130.372C458.693,-119.403 487.611,-100.317 507.498,-87.1912"/>
<polygon fill="midnightblue" stroke="midnightblue" points="509.505,-90.0601 515.924,-81.6305 505.649,-84.2178 509.505,-90.0601"/>
</g>
<!-- Node17 -->
<g id="node17" class="node"><title>Node17</title>
<polygon fill="white" stroke="#bfbfbf" points="544,-0.5 544,-19.5 648,-19.5 648,-0.5 544,-0.5"/>
<text text-anchor="middle" x="596" y="-7.5" font-family="Helvetica,sans-Serif" font-size="10.00">shad/config/config.h</text>
</g>
<!-- Node14&#45;&gt;Node17 -->
<g id="edge20" class="edge"><title>Node14&#45;&gt;Node17</title>
<path fill="none" stroke="midnightblue" d="M433.691,-130.321C443,-113.813 465.32,-77.6126 493,-56 511.902,-41.2416 536.392,-30.2827 556.749,-22.8764"/>
<polygon fill="midnightblue" stroke="midnightblue" points="558.076,-26.1204 566.368,-19.5249 555.773,-19.5101 558.076,-26.1204"/>
</g>
<!-- Node18 -->
<g id="node18" class="node"><title>Node18</title>
<g id="a_node18"><a xlink:href="mapping__traits_8h.html" target="_top" xlink:title="shad/runtime/mapping\l_traits.h">
<polygon fill="white" stroke="black" points="776.5,-57 776.5,-87 889.5,-87 889.5,-57 776.5,-57"/>
<text text-anchor="start" x="784.5" y="-75" font-family="Helvetica,sans-Serif" font-size="10.00">shad/runtime/mapping</text>
<text text-anchor="middle" x="833" y="-64" font-family="Helvetica,sans-Serif" font-size="10.00">_traits.h</text>
</a>
</g>
</g>
<!-- Node14&#45;&gt;Node18 -->
<g id="edge21" class="edge"><title>Node14&#45;&gt;Node18</title>
<path fill="none" stroke="midnightblue" d="M463.815,-130.458C473.843,-128.169 484.822,-125.826 495,-124 611.862,-103.033 645.228,-109.182 766.165,-88.0396"/>
<polygon fill="midnightblue" stroke="midnightblue" points="766.952,-91.4547 776.186,-86.2607 765.728,-84.5624 766.952,-91.4547"/>
</g>
<!-- Node20 -->
<g id="node20" class="node"><title>Node20</title>
<g id="a_node20"><a xlink:href="available__traits__mappings_8h.html" target="_top" xlink:title="shad/runtime/mappings\l/available_traits_mappings.h">
<polygon fill="white" stroke="black" points="618,-57 618,-87 758,-87 758,-57 618,-57"/>
<text text-anchor="start" x="626" y="-75" font-family="Helvetica,sans-Serif" font-size="10.00">shad/runtime/mappings</text>
<text text-anchor="middle" x="688" y="-64" font-family="Helvetica,sans-Serif" font-size="10.00">/available_traits_mappings.h</text>
</a>
</g>
</g>
<!-- Node14&#45;&gt;Node20 -->
<g id="edge24" class="edge"><title>Node14&#45;&gt;Node20</title>
<path fill="none" stroke="midnightblue" d="M462.594,-130.439C503.015,-120.139 571.795,-102.612 622.773,-89.6215"/>
<polygon fill="midnightblue" stroke="midnightblue" points="623.892,-92.9484 632.718,-87.0873 622.163,-86.1651 623.892,-92.9484"/>
</g>
<!-- Node18&#45;&gt;Node17 -->
<g id="edge23" class="edge"><title>Node18&#45;&gt;Node17</title>
<path fill="none" stroke="midnightblue" d="M777.434,-56.9327C735.36,-46.2811 678.375,-31.8545 639.569,-22.0302"/>
<polygon fill="midnightblue" stroke="midnightblue" points="640.178,-18.574 629.625,-19.5127 638.46,-25.3599 640.178,-18.574"/>
</g>
<!-- Node19 -->
<g id="node19" class="node"><title>Node19</title>
<polygon fill="white" stroke="#bfbfbf" points="812.5,-0.5 812.5,-19.5 853.5,-19.5 853.5,-0.5 812.5,-0.5"/>
<text text-anchor="middle" x="833" y="-7.5" font-family="Helvetica,sans-Serif" font-size="10.00">string</text>
</g>
<!-- Node18&#45;&gt;Node19 -->
<g id="edge22" class="edge"><title>Node18&#45;&gt;Node19</title>
<path fill="none" stroke="midnightblue" d="M833,-56.7808C833,-48.7812 833,-38.6887 833,-30.0168"/>
<polygon fill="midnightblue" stroke="midnightblue" points="836.5,-29.7305 833,-19.7305 829.5,-29.7306 836.5,-29.7305"/>
</g>
<!-- Node21&#45;&gt;Node2 -->
<g id="edge28" class="edge"><title>Node21&#45;&gt;Node2</title>
<path fill="none" stroke="midnightblue" d="M681.201,-270.407C771.704,-262.907 951.524,-246.571 1103,-224 1115.57,-222.126 1129.21,-219.657 1141.5,-217.264"/>
<polygon fill="midnightblue" stroke="midnightblue" points="1142.34,-220.666 1151.47,-215.286 1140.98,-213.8 1142.34,-220.666"/>
</g>
<!-- Node21&#45;&gt;Node3 -->
<g id="edge30" class="edge"><title>Node21&#45;&gt;Node3</title>
<path fill="none" stroke="midnightblue" d="M564.842,-270.423C459.466,-261.811 241.021,-242.402 167,-224 163.933,-223.237 160.782,-222.286 157.669,-221.234"/>
<polygon fill="midnightblue" stroke="midnightblue" points="158.601,-217.846 148.008,-217.642 156.161,-224.408 158.601,-217.846"/>
</g>
<!-- Node21&#45;&gt;Node5 -->
<g id="edge35" class="edge"><title>Node21&#45;&gt;Node5</title>
<path fill="none" stroke="midnightblue" d="M681.03,-269.079C768.029,-259.813 927.934,-241.166 983,-224 984.918,-223.402 986.864,-222.693 988.795,-221.913"/>
<polygon fill="midnightblue" stroke="midnightblue" points="990.513,-224.976 998.136,-217.618 987.588,-218.616 990.513,-224.976"/>
</g>
<!-- Node21&#45;&gt;Node6 -->
<g id="edge36" class="edge"><title>Node21&#45;&gt;Node6</title>
<path fill="none" stroke="midnightblue" d="M681.208,-270.295C779.884,-261.923 975.737,-243.478 1042,-224 1044.19,-223.356 1046.42,-222.571 1048.62,-221.7"/>
<polygon fill="midnightblue" stroke="midnightblue" points="1050.26,-224.802 1057.95,-217.514 1047.39,-218.416 1050.26,-224.802"/>
</g>
<!-- Node21&#45;&gt;Node14 -->
<g id="edge43" class="edge"><title>Node21&#45;&gt;Node14</title>
<path fill="none" stroke="midnightblue" d="M603.463,-266.48C583.123,-257.239 550.708,-241.451 525,-224 494.649,-203.397 463.169,-174.484 444.868,-156.786"/>
<polygon fill="midnightblue" stroke="midnightblue" points="447.032,-154.008 437.438,-149.514 442.136,-159.01 447.032,-154.008"/>
</g>
<!-- Node21&#45;&gt;Node15 -->
<g id="edge27" class="edge"><title>Node21&#45;&gt;Node15</title>
<path fill="none" stroke="midnightblue" d="M564.959,-270.32C468.861,-262.054 285.043,-243.857 263,-224 229.505,-193.826 222.691,-162.589 246,-124 259.819,-101.121 287.683,-87.9941 310.014,-80.8059"/>
<polygon fill="midnightblue" stroke="midnightblue" points="311.219,-84.0997 319.815,-77.9074 309.233,-77.3871 311.219,-84.0997"/>
</g>
<!-- Node21&#45;&gt;Node16 -->
<g id="edge29" class="edge"><title>Node21&#45;&gt;Node16</title>
<path fill="none" stroke="midnightblue" d="M671.122,-266.497C695.569,-259.479 723.174,-246.794 738,-224 745.755,-212.078 745.148,-204.295 738,-192 735.365,-187.467 608.107,-116.737 553.483,-86.5193"/>
<polygon fill="midnightblue" stroke="midnightblue" points="554.918,-83.313 544.473,-81.5376 551.531,-89.4391 554.918,-83.313"/>
</g>
<!-- Node21&#45;&gt;Node17 -->
<g id="edge37" class="edge"><title>Node21&#45;&gt;Node17</title>
<path fill="none" stroke="midnightblue" d="M564.969,-271.368C462.293,-264.367 257.273,-247.587 235,-224 178.735,-164.415 236.423,-89.9758 311,-56 382.855,-23.2641 474.277,-13.7808 533.926,-11.3262"/>
<polygon fill="midnightblue" stroke="midnightblue" points="534.081,-14.823 543.949,-10.9677 533.83,-7.82751 534.081,-14.823"/>
</g>
<!-- Node21&#45;&gt;Node18 -->
<g id="edge44" class="edge"><title>Node21&#45;&gt;Node18</title>
<path fill="none" stroke="midnightblue" d="M681.303,-269.738C716.148,-263.769 759.114,-251.055 788,-224 823.516,-190.735 831.402,-130.788 832.908,-97.3034"/>
<polygon fill="midnightblue" stroke="midnightblue" points="836.414,-97.136 833.204,-87.039 829.417,-96.9336 836.414,-97.136"/>
</g>
<!-- Node22 -->
<g id="node22" class="node"><title>Node22</title>
<polygon fill="white" stroke="#bfbfbf" points="504.5,-130.5 504.5,-149.5 553.5,-149.5 553.5,-130.5 504.5,-130.5"/>
<text text-anchor="middle" x="529" y="-137.5" font-family="Helvetica,sans-Serif" font-size="10.00">cstddef</text>
</g>
<!-- Node21&#45;&gt;Node22 -->
<g id="edge26" class="edge"><title>Node21&#45;&gt;Node22</title>
<path fill="none" stroke="midnightblue" d="M598.035,-266.477C578.895,-258.574 553.537,-244.853 540,-224 527.475,-204.706 526.232,-177.549 527.108,-159.623"/>
<polygon fill="midnightblue" stroke="midnightblue" points="530.604,-159.816 527.869,-149.58 523.624,-159.286 530.604,-159.816"/>
</g>
<!-- Node23 -->
<g id="node23" class="node"><title>Node23</title>
<polygon fill="white" stroke="#bfbfbf" points="549.5,-198.5 549.5,-217.5 584.5,-217.5 584.5,-198.5 549.5,-198.5"/>
<text text-anchor="middle" x="567" y="-205.5" font-family="Helvetica,sans-Serif" font-size="10.00">map</text>
</g>
<!-- Node21&#45;&gt;Node23 -->
<g id="edge31" class="edge"><title>Node21&#45;&gt;Node23</title>
<path fill="none" stroke="midnightblue" d="M615.679,-266.372C606.924,-256.053 592.074,-238.551 581.072,-225.585"/>
<polygon fill="midnightblue" stroke="midnightblue" points="583.64,-223.202 574.502,-217.841 578.303,-227.731 583.64,-223.202"/>
</g>
<!-- Node24 -->
<g id="node24" class="node"><title>Node24</title>
<polygon fill="white" stroke="#bfbfbf" points="255,-130.5 255,-149.5 307,-149.5 307,-130.5 255,-130.5"/>
<text text-anchor="middle" x="281" y="-137.5" font-family="Helvetica,sans-Serif" font-size="10.00">memory</text>
</g>
<!-- Node21&#45;&gt;Node24 -->
<g id="edge32" class="edge"><title>Node21&#45;&gt;Node24</title>
<path fill="none" stroke="midnightblue" d="M564.642,-270.546C470.713,-262.779 294.583,-245.514 276,-224 260.625,-206.2 266.846,-177.438 273.402,-158.877"/>
<polygon fill="midnightblue" stroke="midnightblue" points="276.679,-160.106 277.041,-149.518 270.155,-157.569 276.679,-160.106"/>
</g>
<!-- Node25 -->
<g id="node25" class="node"><title>Node25</title>
<polygon fill="white" stroke="#bfbfbf" points="603,-198.5 603,-217.5 633,-217.5 633,-198.5 603,-198.5"/>
<text text-anchor="middle" x="618" y="-205.5" font-family="Helvetica,sans-Serif" font-size="10.00">set</text>
</g>
<!-- Node21&#45;&gt;Node25 -->
<g id="edge33" class="edge"><title>Node21&#45;&gt;Node25</title>
<path fill="none" stroke="midnightblue" d="M622.346,-266.372C621.609,-256.643 620.388,-240.528 619.428,-227.85"/>
<polygon fill="midnightblue" stroke="midnightblue" points="622.915,-227.548 618.67,-217.841 615.935,-228.077 622.915,-227.548"/>
</g>
<!-- Node26 -->
<g id="node26" class="node"><title>Node26</title>
<polygon fill="white" stroke="#bfbfbf" points="651,-198.5 651,-217.5 729,-217.5 729,-198.5 651,-198.5"/>
<text text-anchor="middle" x="690" y="-205.5" font-family="Helvetica,sans-Serif" font-size="10.00">unordered_set</text>
</g>
<!-- Node21&#45;&gt;Node26 -->
<g id="edge34" class="edge"><title>Node21&#45;&gt;Node26</title>
<path fill="none" stroke="midnightblue" d="M631.759,-266.372C642.334,-255.955 660.34,-238.217 673.538,-225.216"/>
<polygon fill="midnightblue" stroke="midnightblue" points="676.357,-227.352 681.025,-217.841 671.445,-222.365 676.357,-227.352"/>
</g>
<!-- Node27 -->
<g id="node27" class="node"><title>Node27</title>
<g id="a_node27"><a xlink:href="handle_8h.html" target="_top" xlink:title="shad/runtime/handle.h">
<polygon fill="white" stroke="black" points="861.5,-198.5 861.5,-217.5 974.5,-217.5 974.5,-198.5 861.5,-198.5"/>
<text text-anchor="middle" x="918" y="-205.5" font-family="Helvetica,sans-Serif" font-size="10.00">shad/runtime/handle.h</text>
</a>
</g>
</g>
<!-- Node21&#45;&gt;Node27 -->
<g id="edge38" class="edge"><title>Node21&#45;&gt;Node27</title>
<path fill="none" stroke="midnightblue" d="M661.264,-266.439C714.649,-254.495 811.469,-232.834 869.742,-219.797"/>
<polygon fill="midnightblue" stroke="midnightblue" points="870.81,-223.144 879.804,-217.546 869.281,-216.313 870.81,-223.144"/>
</g>
<!-- Node28 -->
<g id="node28" class="node"><title>Node28</title>
<g id="a_node28"><a xlink:href="available__mappings_8h.html" target="_top" xlink:title="shad/runtime/mappings\l/available_mappings.h">
<polygon fill="white" stroke="black" points="687,-125 687,-155 805,-155 805,-125 687,-125"/>
<text text-anchor="start" x="695" y="-143" font-family="Helvetica,sans-Serif" font-size="10.00">shad/runtime/mappings</text>
<text text-anchor="middle" x="746" y="-132" font-family="Helvetica,sans-Serif" font-size="10.00">/available_mappings.h</text>
</a>
</g>
</g>
<!-- Node21&#45;&gt;Node28 -->
<g id="edge45" class="edge"><title>Node21&#45;&gt;Node28</title>
<path fill="none" stroke="midnightblue" d="M681.104,-270.874C713.223,-265.271 750.645,-252.544 771,-224 783.798,-206.053 773.768,-181.473 762.842,-163.725"/>
<polygon fill="midnightblue" stroke="midnightblue" points="765.598,-161.548 757.163,-155.137 759.76,-165.409 765.598,-161.548"/>
</g>
<!-- Node29 -->
<g id="node29" class="node"><title>Node29</title>
<g id="a_node29"><a xlink:href="synchronous__interface_8h.html" target="_top" xlink:title="shad/runtime/synchronous\l_interface.h">
<polygon fill="white" stroke="black" points="285.5,-193 285.5,-223 416.5,-223 416.5,-193 285.5,-193"/>
<text text-anchor="start" x="293.5" y="-211" font-family="Helvetica,sans-Serif" font-size="10.00">shad/runtime/synchronous</text>
<text text-anchor="middle" x="351" y="-200" font-family="Helvetica,sans-Serif" font-size="10.00">_interface.h</text>
</a>
</g>
</g>
<!-- Node21&#45;&gt;Node29 -->
<g id="edge47" class="edge"><title>Node21&#45;&gt;Node29</title>
<path fill="none" stroke="midnightblue" d="M587.72,-266.439C545.026,-256.08 472.205,-238.41 418.577,-225.397"/>
<polygon fill="midnightblue" stroke="midnightblue" points="419.342,-221.982 408.799,-223.025 417.692,-228.784 419.342,-221.982"/>
</g>
<!-- Node27&#45;&gt;Node8 -->
<g id="edge39" class="edge"><title>Node27&#45;&gt;Node8</title>
<path fill="none" stroke="midnightblue" d="M944.8,-198.372C981.196,-186.654 1046.36,-165.674 1087,-152.591"/>
<polygon fill="midnightblue" stroke="midnightblue" points="1088.07,-155.922 1096.52,-149.526 1085.93,-149.259 1088.07,-155.922"/>
</g>
<!-- Node27&#45;&gt;Node17 -->
<g id="edge40" class="edge"><title>Node27&#45;&gt;Node17</title>
<path fill="none" stroke="midnightblue" d="M919.991,-198.33C925.344,-172.563 937.133,-95.7736 898,-56 865.577,-23.0467 737.146,-14.1081 658.583,-11.7575"/>
<polygon fill="midnightblue" stroke="midnightblue" points="658.407,-8.25157 648.316,-11.4792 658.217,-15.249 658.407,-8.25157"/>
</g>
<!-- Node27&#45;&gt;Node18 -->
<g id="edge41" class="edge"><title>Node27&#45;&gt;Node18</title>
<path fill="none" stroke="midnightblue" d="M915.87,-198.435C911.697,-182.727 901.399,-148.664 885,-124 877.671,-112.976 867.64,-102.44 858.343,-93.8359"/>
<polygon fill="midnightblue" stroke="midnightblue" points="860.575,-91.1367 850.781,-87.0946 855.916,-96.3618 860.575,-91.1367"/>
</g>
<!-- Node27&#45;&gt;Node20 -->
<g id="edge42" class="edge"><title>Node27&#45;&gt;Node20</title>
<path fill="none" stroke="midnightblue" d="M909.197,-198.483C892.054,-182.251 852.488,-146.504 814,-124 791.183,-110.659 764.214,-99.2298 741.093,-90.593"/>
<polygon fill="midnightblue" stroke="midnightblue" points="742.036,-87.2115 731.443,-87.065 739.633,-93.7859 742.036,-87.2115"/>
</g>
<!-- Node28&#45;&gt;Node20 -->
<g id="edge46" class="edge"><title>Node28&#45;&gt;Node20</title>
<path fill="none" stroke="midnightblue" d="M733.415,-124.679C725.814,-116.03 715.971,-104.829 707.392,-95.0671"/>
<polygon fill="midnightblue" stroke="midnightblue" points="709.791,-92.4943 700.561,-87.2931 704.533,-97.1152 709.791,-92.4943"/>
</g>
<!-- Node29&#45;&gt;Node14 -->
<g id="edge51" class="edge"><title>Node29&#45;&gt;Node14</title>
<path fill="none" stroke="midnightblue" d="M367.925,-192.679C380.568,-181.981 397.827,-167.377 410.774,-156.422"/>
<polygon fill="midnightblue" stroke="midnightblue" points="413.193,-158.96 418.567,-149.828 408.672,-153.616 413.193,-158.96"/>
</g>
<!-- Node29&#45;&gt;Node15 -->
<g id="edge49" class="edge"><title>Node29&#45;&gt;Node15</title>
<path fill="none" stroke="midnightblue" d="M350.144,-192.66C348.691,-168.32 345.742,-118.933 344.125,-91.8373"/>
<polygon fill="midnightblue" stroke="midnightblue" points="347.611,-91.5011 343.521,-81.7275 340.623,-91.9184 347.611,-91.5011"/>
</g>
<!-- Node29&#45;&gt;Node22 -->
<g id="edge48" class="edge"><title>Node29&#45;&gt;Node22</title>
<path fill="none" stroke="midnightblue" d="M393.212,-192.984C422.08,-183.171 461.106,-169.457 495,-156 496.889,-155.25 498.828,-154.458 500.776,-153.644"/>
<polygon fill="midnightblue" stroke="midnightblue" points="502.596,-156.672 510.401,-149.507 499.832,-150.241 502.596,-156.672"/>
</g>
<!-- Node29&#45;&gt;Node24 -->
<g id="edge50" class="edge"><title>Node29&#45;&gt;Node24</title>
<path fill="none" stroke="midnightblue" d="M335.811,-192.679C324.572,-182.082 309.27,-167.655 297.69,-156.736"/>
<polygon fill="midnightblue" stroke="midnightblue" points="300.04,-154.142 290.363,-149.828 295.238,-159.235 300.04,-154.142"/>
</g>
<!-- Node30&#45;&gt;Node3 -->
<g id="edge54" class="edge"><title>Node30&#45;&gt;Node3</title>
<path fill="none" stroke="midnightblue" d="M804.292,-329.373C801.152,-328.881 798.028,-328.416 795,-328 633.948,-305.858 586.579,-339.151 431,-292 402.077,-283.234 399.569,-269.859 371,-260 283.969,-229.965 255.6,-249.029 167,-224 164.025,-223.159 160.96,-222.17 157.924,-221.107"/>
<polygon fill="midnightblue" stroke="midnightblue" points="159.056,-217.794 148.464,-217.553 156.594,-224.346 159.056,-217.794"/>
</g>
<!-- Node30&#45;&gt;Node4 -->
<g id="edge55" class="edge"><title>Node30&#45;&gt;Node4</title>
<path fill="none" stroke="midnightblue" d="M859.181,-328.403C874.074,-318.691 898.544,-302.732 916.273,-291.17"/>
<polygon fill="midnightblue" stroke="midnightblue" points="918.379,-293.975 924.843,-285.581 914.555,-288.112 918.379,-293.975"/>
</g>
<!-- Node30&#45;&gt;Node5 -->
<g id="edge57" class="edge"><title>Node30&#45;&gt;Node5</title>
<path fill="none" stroke="midnightblue" d="M841.714,-328.293C834.763,-312.78 823.304,-280.102 839,-260 879.599,-208.002 921.128,-246.888 983,-224 984.652,-223.389 986.333,-222.713 988.012,-221.995"/>
<polygon fill="midnightblue" stroke="midnightblue" points="989.83,-225.009 997.407,-217.604 986.866,-218.668 989.83,-225.009"/>
</g>
<!-- Node30&#45;&gt;Node6 -->
<g id="edge58" class="edge"><title>Node30&#45;&gt;Node6</title>
<path fill="none" stroke="midnightblue" d="M846.881,-328.317C848.994,-312.24 855.863,-277.855 877,-260 934.339,-211.564 971.058,-248.517 1042,-224 1043.91,-223.341 1045.85,-222.595 1047.79,-221.796"/>
<polygon fill="midnightblue" stroke="midnightblue" points="1049.55,-224.839 1057.22,-217.525 1046.66,-218.463 1049.55,-224.839"/>
</g>
<!-- Node30&#45;&gt;Node8 -->
<g id="edge56" class="edge"><title>Node30&#45;&gt;Node8</title>
<path fill="none" stroke="midnightblue" d="M852.082,-328.275C864.99,-310.01 895.16,-268.713 910,-260 985.248,-215.823 1039.72,-284.074 1103,-224 1120.44,-207.443 1123.81,-178.535 1123.94,-159.581"/>
<polygon fill="midnightblue" stroke="midnightblue" points="1127.43,-159.42 1123.71,-149.502 1120.43,-159.58 1127.43,-159.42"/>
</g>
<!-- Node30&#45;&gt;Node12 -->
<g id="edge59" class="edge"><title>Node30&#45;&gt;Node12</title>
<path fill="none" stroke="midnightblue" d="M804.297,-329.336C801.156,-328.852 798.031,-328.4 795,-328 613.647,-304.083 567.003,-310.328 385,-292 365.165,-290.003 343.677,-287.644 323.912,-285.396"/>
<polygon fill="midnightblue" stroke="midnightblue" points="324.085,-281.893 313.752,-284.233 323.289,-288.847 324.085,-281.893"/>
</g>
<!-- Node30&#45;&gt;Node21 -->
<g id="edge60" class="edge"><title>Node30&#45;&gt;Node21</title>
<path fill="none" stroke="midnightblue" d="M814.05,-328.403C774.721,-317.822 707.84,-299.827 664.553,-288.18"/>
<polygon fill="midnightblue" stroke="midnightblue" points="665.457,-284.799 654.891,-285.581 663.638,-291.559 665.457,-284.799"/>
</g>
<!-- Node30&#45;&gt;Node22 -->
<g id="edge53" class="edge"><title>Node30&#45;&gt;Node22</title>
<path fill="none" stroke="midnightblue" d="M804.266,-329.547C801.132,-329.014 798.017,-328.493 795,-328 688.988,-310.665 641.757,-356.691 556,-292 515.682,-261.586 520.281,-193.369 525.375,-160.047"/>
<polygon fill="midnightblue" stroke="midnightblue" points="528.885,-160.283 527.124,-149.836 521.986,-159.101 528.885,-160.283"/>
</g>
</g>
</svg>
