<?xml version="1.0" encoding="UTF-8" standalone="no"?>
<!DOCTYPE svg PUBLIC "-//W3C//DTD SVG 1.1//EN"
 "http://www.w3.org/Graphics/SVG/1.1/DTD/svg11.dtd">
<!-- Generated by graphviz version 2.36.0 (20140111.2315)
 -->
<!-- Title: include/shad/core/impl/numeric_ops.h Pages: 1 -->
<svg width="1351pt" height="424pt"
 viewBox="0.00 0.00 1351.24 424.00" xmlns="http://www.w3.org/2000/svg" xmlns:xlink="http://www.w3.org/1999/xlink">
<g id="graph0" class="graph" transform="scale(1 1) rotate(0) translate(4 420)">
<title>include/shad/core/impl/numeric_ops.h</title>
<polygon fill="white" stroke="none" points="-4,4 -4,-420 1347.24,-420 1347.24,4 -4,4"/>
<!-- Node1 -->
<g id="node1" class="node"><title>Node1</title>
<polygon fill="#bfbfbf" stroke="black" points="235,-385 235,-415 349,-415 349,-385 235,-385"/>
<text text-anchor="start" x="243" y="-403" font-family="Helvetica,sans-Serif" font-size="10.00">include/shad/core/impl</text>
<text text-anchor="middle" x="292" y="-392" font-family="Helvetica,sans-Serif" font-size="10.00">/numeric_ops.h</text>
</g>
<!-- Node2 -->
<g id="node2" class="node"><title>Node2</title>
<polygon fill="white" stroke="#bfbfbf" points="89,-328.5 89,-347.5 145,-347.5 145,-328.5 89,-328.5"/>
<text text-anchor="middle" x="117" y="-335.5" font-family="Helvetica,sans-Serif" font-size="10.00">algorithm</text>
</g>
<!-- Node1&#45;&gt;Node2 -->
<g id="edge1" class="edge"><title>Node1&#45;&gt;Node2</title>
<path fill="none" stroke="midnightblue" d="M250.97,-384.933C220.696,-374.553 179.967,-360.589 151.392,-350.792"/>
<polygon fill="midnightblue" stroke="midnightblue" points="152.423,-347.445 141.829,-347.513 150.153,-354.067 152.423,-347.445"/>
</g>
<!-- Node3 -->
<g id="node3" class="node"><title>Node3</title>
<polygon fill="white" stroke="#bfbfbf" points="314.5,-198.5 314.5,-217.5 373.5,-217.5 373.5,-198.5 314.5,-198.5"/>
<text text-anchor="middle" x="344" y="-205.5" font-family="Helvetica,sans-Serif" font-size="10.00">functional</text>
</g>
<!-- Node1&#45;&gt;Node3 -->
<g id="edge2" class="edge"><title>Node1&#45;&gt;Node3</title>
<path fill="none" stroke="midnightblue" d="M300.278,-384.705C305.744,-374.713 312.67,-360.901 317,-348 331.031,-306.196 338.655,-254.732 341.962,-227.669"/>
<polygon fill="midnightblue" stroke="midnightblue" points="345.447,-228 343.121,-217.663 338.494,-227.194 345.447,-228"/>
</g>
<!-- Node4 -->
<g id="node4" class="node"><title>Node4</title>
<polygon fill="white" stroke="#bfbfbf" points="249.5,-198.5 249.5,-217.5 296.5,-217.5 296.5,-198.5 249.5,-198.5"/>
<text text-anchor="middle" x="273" y="-205.5" font-family="Helvetica,sans-Serif" font-size="10.00">iterator</text>
</g>
<!-- Node1&#45;&gt;Node4 -->
<g id="edge3" class="edge"><title>Node1&#45;&gt;Node4</title>
<path fill="none" stroke="midnightblue" d="M295.294,-384.948C300.673,-359.584 309.722,-304.639 299,-260 296.11,-247.969 289.882,-235.578 284.246,-226.022"/>
<polygon fill="midnightblue" stroke="midnightblue" points="287.212,-224.165 278.952,-217.53 281.272,-227.868 287.212,-224.165"/>
</g>
<!-- Node5 -->
<g id="node5" class="node"><title>Node5</title>
<polygon fill="white" stroke="#bfbfbf" points="239.5,-328.5 239.5,-347.5 290.5,-347.5 290.5,-328.5 239.5,-328.5"/>
<text text-anchor="middle" x="265" y="-335.5" font-family="Helvetica,sans-Serif" font-size="10.00">numeric</text>
</g>
<!-- Node1&#45;&gt;Node5 -->
<g id="edge4" class="edge"><title>Node1&#45;&gt;Node5</title>
<path fill="none" stroke="midnightblue" d="M285.601,-384.781C281.84,-376.422 277.05,-365.777 273.035,-356.856"/>
<polygon fill="midnightblue" stroke="midnightblue" points="276.224,-355.413 268.929,-347.731 269.841,-358.286 276.224,-355.413"/>
</g>
<!-- Node6 -->
<g id="node6" class="node"><title>Node6</title>
<g id="a_node6"><a xlink:href="execution_8h.html" target="_top" xlink:title="shad/core/execution.h">
<polygon fill="white" stroke="black" points="-0.5,-266.5 -0.5,-285.5 112.5,-285.5 112.5,-266.5 -0.5,-266.5"/>
<text text-anchor="middle" x="56" y="-273.5" font-family="Helvetica,sans-Serif" font-size="10.00">shad/core/execution.h</text>
</a>
</g>
</g>
<!-- Node1&#45;&gt;Node6 -->
<g id="edge5" class="edge"><title>Node1&#45;&gt;Node6</title>
<path fill="none" stroke="midnightblue" d="M264.466,-384.766C218.362,-360.933 126.21,-313.295 81.5009,-290.183"/>
<polygon fill="midnightblue" stroke="midnightblue" points="82.953,-286.993 72.4625,-285.51 79.7385,-293.212 82.953,-286.993"/>
</g>
<!-- Node8 -->
<g id="node8" class="node"><title>Node8</title>
<g id="a_node8"><a xlink:href="distributed__iterator__traits_8h.html" target="_top" xlink:title="shad/distributed_iterator\l_traits.h">
<polygon fill="white" stroke="black" points="169.5,-261 169.5,-291 290.5,-291 290.5,-261 169.5,-261"/>
<text text-anchor="start" x="177.5" y="-279" font-family="Helvetica,sans-Serif" font-size="10.00">shad/distributed_iterator</text>
<text text-anchor="middle" x="230" y="-268" font-family="Helvetica,sans-Serif" font-size="10.00">_traits.h</text>
</a>
</g>
</g>
<!-- Node1&#45;&gt;Node8 -->
<g id="edge7" class="edge"><title>Node1&#45;&gt;Node8</title>
<path fill="none" stroke="midnightblue" d="M265.755,-384.979C252.396,-376.282 237.44,-363.754 230,-348 223.163,-333.523 223.264,-315.458 225.022,-301.174"/>
<polygon fill="midnightblue" stroke="midnightblue" points="228.509,-301.531 226.603,-291.109 221.594,-300.445 228.509,-301.531"/>
</g>
<!-- Node16 -->
<g id="node16" class="node"><title>Node16</title>
<g id="a_node16"><a xlink:href="runtime_8h.html" target="_top" xlink:title="shad/runtime/runtime.h">
<polygon fill="white" stroke="black" points="739,-266.5 739,-285.5 855,-285.5 855,-266.5 739,-266.5"/>
<text text-anchor="middle" x="797" y="-273.5" font-family="Helvetica,sans-Serif" font-size="10.00">shad/runtime/runtime.h</text>
</a>
</g>
</g>
<!-- Node1&#45;&gt;Node16 -->
<g id="edge17" class="edge"><title>Node1&#45;&gt;Node16</title>
<path fill="none" stroke="midnightblue" d="M349.438,-385.124C450.852,-360.624 659.606,-310.192 751.676,-287.95"/>
<polygon fill="midnightblue" stroke="midnightblue" points="752.628,-291.32 761.526,-285.57 750.984,-284.516 752.628,-291.32"/>
</g>
<!-- Node28 -->
<g id="node28" class="node"><title>Node28</title>
<g id="a_node28"><a xlink:href="impl__patterns_8h.html" target="_top" xlink:title="impl_patterns.h">
<polygon fill="white" stroke="black" points="400.5,-328.5 400.5,-347.5 483.5,-347.5 483.5,-328.5 400.5,-328.5"/>
<text text-anchor="middle" x="442" y="-335.5" font-family="Helvetica,sans-Serif" font-size="10.00">impl_patterns.h</text>
</a>
</g>
</g>
<!-- Node1&#45;&gt;Node28 -->
<g id="edge44" class="edge"><title>Node1&#45;&gt;Node28</title>
<path fill="none" stroke="midnightblue" d="M327.168,-384.933C352.588,-374.765 386.608,-361.157 411.009,-351.396"/>
<polygon fill="midnightblue" stroke="midnightblue" points="412.515,-354.564 420.5,-347.6 409.915,-348.064 412.515,-354.564"/>
</g>
<!-- Node7 -->
<g id="node7" class="node"><title>Node7</title>
<polygon fill="white" stroke="#bfbfbf" points="110,-130.5 110,-149.5 172,-149.5 172,-130.5 110,-130.5"/>
<text text-anchor="middle" x="141" y="-137.5" font-family="Helvetica,sans-Serif" font-size="10.00">type_traits</text>
</g>
<!-- Node6&#45;&gt;Node7 -->
<g id="edge6" class="edge"><title>Node6&#45;&gt;Node7</title>
<path fill="none" stroke="midnightblue" d="M61.5771,-266.208C75.4475,-244.342 111.7,-187.19 130.039,-158.28"/>
<polygon fill="midnightblue" stroke="midnightblue" points="133.112,-159.969 135.513,-149.65 127.201,-156.22 133.112,-159.969"/>
</g>
<!-- Node8&#45;&gt;Node4 -->
<g id="edge9" class="edge"><title>Node8&#45;&gt;Node4</title>
<path fill="none" stroke="midnightblue" d="M239.33,-260.679C245.902,-250.592 254.736,-237.033 261.706,-226.335"/>
<polygon fill="midnightblue" stroke="midnightblue" points="264.722,-228.118 267.248,-217.828 258.857,-224.296 264.722,-228.118"/>
</g>
<!-- Node9 -->
<g id="node9" class="node"><title>Node9</title>
<polygon fill="white" stroke="#bfbfbf" points="182.5,-198.5 182.5,-217.5 231.5,-217.5 231.5,-198.5 182.5,-198.5"/>
<text text-anchor="middle" x="207" y="-205.5" font-family="Helvetica,sans-Serif" font-size="10.00">cassert</text>
</g>
<!-- Node8&#45;&gt;Node9 -->
<g id="edge8" class="edge"><title>Node8&#45;&gt;Node9</title>
<path fill="none" stroke="midnightblue" d="M225.009,-260.679C221.601,-250.898 217.054,-237.852 213.382,-227.315"/>
<polygon fill="midnightblue" stroke="midnightblue" points="216.672,-226.12 210.077,-217.828 210.062,-228.423 216.672,-226.12"/>
</g>
<!-- Node10 -->
<g id="node10" class="node"><title>Node10</title>
<g id="a_node10"><a xlink:href="locality_8h.html" target="_top" xlink:title="shad/runtime/locality.h">
<polygon fill="white" stroke="black" points="772.5,-130.5 772.5,-149.5 887.5,-149.5 887.5,-130.5 772.5,-130.5"/>
<text text-anchor="middle" x="830" y="-137.5" font-family="Helvetica,sans-Serif" font-size="10.00">shad/runtime/locality.h</text>
</a>
</g>
</g>
<!-- Node8&#45;&gt;Node10 -->
<g id="edge10" class="edge"><title>Node8&#45;&gt;Node10</title>
<path fill="none" stroke="midnightblue" d="M290.66,-269.251C403.25,-258.396 636.386,-234.989 672,-224 724.364,-207.843 779.787,-174.396 809.049,-155.26"/>
<polygon fill="midnightblue" stroke="midnightblue" points="811.197,-158.036 817.594,-149.59 807.326,-152.203 811.197,-158.036"/>
</g>
<!-- Node11 -->
<g id="node11" class="node"><title>Node11</title>
<polygon fill="white" stroke="#bfbfbf" points="931,-62.5 931,-81.5 977,-81.5 977,-62.5 931,-62.5"/>
<text text-anchor="middle" x="954" y="-69.5" font-family="Helvetica,sans-Serif" font-size="10.00">cstdint</text>
</g>
<!-- Node10&#45;&gt;Node11 -->
<g id="edge11" class="edge"><title>Node10&#45;&gt;Node11</title>
<path fill="none" stroke="midnightblue" d="M846.211,-130.372C867.19,-119.205 903.974,-99.6266 928.66,-86.4876"/>
<polygon fill="midnightblue" stroke="midnightblue" points="930.602,-89.4186 937.785,-81.6305 927.313,-83.2394 930.602,-89.4186"/>
</g>
<!-- Node12 -->
<g id="node12" class="node"><title>Node12</title>
<polygon fill="white" stroke="#bfbfbf" points="583,-0.5 583,-19.5 687,-19.5 687,-0.5 583,-0.5"/>
<text text-anchor="middle" x="635" y="-7.5" font-family="Helvetica,sans-Serif" font-size="10.00">shad/config/config.h</text>
</g>
<!-- Node10&#45;&gt;Node12 -->
<g id="edge12" class="edge"><title>Node10&#45;&gt;Node12</title>
<path fill="none" stroke="midnightblue" d="M818.901,-130.41C805.915,-120.332 783.795,-103.081 765,-88 747.512,-73.9679 744.838,-68.1593 726,-56 706.544,-43.442 683.089,-31.9211 664.865,-23.6805"/>
<polygon fill="midnightblue" stroke="midnightblue" points="666.159,-20.4258 655.599,-19.5684 663.32,-26.824 666.159,-20.4258"/>
</g>
<!-- Node13 -->
<g id="node13" class="node"><title>Node13</title>
<g id="a_node13"><a xlink:href="mapping__traits_8h.html" target="_top" xlink:title="shad/runtime/mapping\l_traits.h">
<polygon fill="white" stroke="black" points="773.5,-57 773.5,-87 886.5,-87 886.5,-57 773.5,-57"/>
<text text-anchor="start" x="781.5" y="-75" font-family="Helvetica,sans-Serif" font-size="10.00">shad/runtime/mapping</text>
<text text-anchor="middle" x="830" y="-64" font-family="Helvetica,sans-Serif" font-size="10.00">_traits.h</text>
</a>
</g>
</g>
<!-- Node10&#45;&gt;Node13 -->
<g id="edge13" class="edge"><title>Node10&#45;&gt;Node13</title>
<path fill="none" stroke="midnightblue" d="M830,-130.372C830,-121.971 830,-108.811 830,-97.2126"/>
<polygon fill="midnightblue" stroke="midnightblue" points="833.5,-97.1814 830,-87.1815 826.5,-97.1815 833.5,-97.1814"/>
</g>
<!-- Node15 -->
<g id="node15" class="node"><title>Node15</title>
<g id="a_node15"><a xlink:href="available__traits__mappings_8h.html" target="_top" xlink:title="shad/runtime/mappings\l/available_traits_mappings.h">
<polygon fill="white" stroke="black" points="577,-57 577,-87 717,-87 717,-57 577,-57"/>
<text text-anchor="start" x="585" y="-75" font-family="Helvetica,sans-Serif" font-size="10.00">shad/runtime/mappings</text>
<text text-anchor="middle" x="647" y="-64" font-family="Helvetica,sans-Serif" font-size="10.00">/available_traits_mappings.h</text>
</a>
</g>
</g>
<!-- Node10&#45;&gt;Node15 -->
<g id="edge16" class="edge"><title>Node10&#45;&gt;Node15</title>
<path fill="none" stroke="midnightblue" d="M806.076,-130.372C778.18,-120.311 731.352,-103.422 695.706,-90.5662"/>
<polygon fill="midnightblue" stroke="midnightblue" points="696.568,-87.1565 685.974,-87.0562 694.194,-93.7414 696.568,-87.1565"/>
</g>
<!-- Node13&#45;&gt;Node12 -->
<g id="edge15" class="edge"><title>Node13&#45;&gt;Node12</title>
<path fill="none" stroke="midnightblue" d="M784.281,-56.9327C750.253,-46.4624 704.37,-32.3445 672.491,-22.5358"/>
<polygon fill="midnightblue" stroke="midnightblue" points="673.253,-19.1084 662.666,-19.5127 671.195,-25.7988 673.253,-19.1084"/>
</g>
<!-- Node14 -->
<g id="node14" class="node"><title>Node14</title>
<polygon fill="white" stroke="#bfbfbf" points="809.5,-0.5 809.5,-19.5 850.5,-19.5 850.5,-0.5 809.5,-0.5"/>
<text text-anchor="middle" x="830" y="-7.5" font-family="Helvetica,sans-Serif" font-size="10.00">string</text>
</g>
<!-- Node13&#45;&gt;Node14 -->
<g id="edge14" class="edge"><title>Node13&#45;&gt;Node14</title>
<path fill="none" stroke="midnightblue" d="M830,-56.7808C830,-48.7812 830,-38.6887 830,-30.0168"/>
<polygon fill="midnightblue" stroke="midnightblue" points="833.5,-29.7305 830,-19.7305 826.5,-29.7306 833.5,-29.7305"/>
</g>
<!-- Node16&#45;&gt;Node3 -->
<g id="edge20" class="edge"><title>Node16&#45;&gt;Node3</title>
<path fill="none" stroke="midnightblue" d="M738.927,-272.325C658.086,-267.595 507.532,-255.119 383,-224 379.763,-223.191 376.429,-222.188 373.139,-221.088"/>
<polygon fill="midnightblue" stroke="midnightblue" points="374.132,-217.724 363.538,-217.589 371.735,-224.301 374.132,-217.724"/>
</g>
<!-- Node16&#45;&gt;Node4 -->
<g id="edge22" class="edge"><title>Node16&#45;&gt;Node4</title>
<path fill="none" stroke="midnightblue" d="M738.648,-275.202C645.318,-274.145 457.457,-266.327 305,-224 302.656,-223.349 300.27,-222.54 297.911,-221.637"/>
<polygon fill="midnightblue" stroke="midnightblue" points="299.115,-218.344 288.549,-217.564 296.323,-224.763 299.115,-218.344"/>
</g>
<!-- Node16&#45;&gt;Node10 -->
<g id="edge35" class="edge"><title>Node16&#45;&gt;Node10</title>
<path fill="none" stroke="midnightblue" d="M809.162,-266.493C820.871,-257.485 837.828,-242.084 845,-224 853.494,-202.583 845.88,-176.138 838.75,-158.937"/>
<polygon fill="midnightblue" stroke="midnightblue" points="841.82,-157.229 834.522,-149.549 835.437,-160.104 841.82,-157.229"/>
</g>
<!-- Node16&#45;&gt;Node11 -->
<g id="edge19" class="edge"><title>Node16&#45;&gt;Node11</title>
<path fill="none" stroke="midnightblue" d="M819.838,-266.427C839.319,-258.127 866.96,-243.873 885,-224 921.233,-184.085 941.353,-121.895 949.564,-91.2829"/>
<polygon fill="midnightblue" stroke="midnightblue" points="952.97,-92.0886 952.058,-81.5331 946.189,-90.3537 952.97,-92.0886"/>
</g>
<!-- Node16&#45;&gt;Node12 -->
<g id="edge29" class="edge"><title>Node16&#45;&gt;Node12</title>
<path fill="none" stroke="midnightblue" d="M738.833,-271.694C671.411,-266.504 566.401,-253.765 542,-224 518.666,-195.537 474.065,-180.386 555,-56 564.716,-41.0675 581.203,-30.5952 596.694,-23.5353"/>
<polygon fill="midnightblue" stroke="midnightblue" points="598.275,-26.6679 606.141,-19.5711 595.566,-20.2131 598.275,-26.6679"/>
</g>
<!-- Node16&#45;&gt;Node13 -->
<g id="edge36" class="edge"><title>Node16&#45;&gt;Node13</title>
<path fill="none" stroke="midnightblue" d="M810.64,-266.37C824.397,-257.155 845.603,-241.494 860,-224 881.73,-197.596 887.757,-189.188 896,-156 899.428,-142.197 902.269,-136.766 896,-124 889.744,-111.26 878.603,-100.799 867.236,-92.7401"/>
<polygon fill="midnightblue" stroke="midnightblue" points="868.855,-89.6158 858.576,-87.0475 865.009,-95.4652 868.855,-89.6158"/>
</g>
<!-- Node17 -->
<g id="node17" class="node"><title>Node17</title>
<polygon fill="white" stroke="#bfbfbf" points="1229.5,-130.5 1229.5,-149.5 1278.5,-149.5 1278.5,-130.5 1229.5,-130.5"/>
<text text-anchor="middle" x="1254" y="-137.5" font-family="Helvetica,sans-Serif" font-size="10.00">cstddef</text>
</g>
<!-- Node16&#45;&gt;Node17 -->
<g id="edge18" class="edge"><title>Node16&#45;&gt;Node17</title>
<path fill="none" stroke="midnightblue" d="M855.298,-271.875C967.779,-265.319 1206.17,-248.669 1234,-224 1252,-208.048 1255.21,-178.977 1255.16,-159.824"/>
<polygon fill="midnightblue" stroke="midnightblue" points="1258.65,-159.504 1254.82,-149.626 1251.65,-159.737 1258.65,-159.504"/>
</g>
<!-- Node18 -->
<g id="node18" class="node"><title>Node18</title>
<polygon fill="white" stroke="#bfbfbf" points="1118,-198.5 1118,-217.5 1172,-217.5 1172,-198.5 1118,-198.5"/>
<text text-anchor="middle" x="1145" y="-205.5" font-family="Helvetica,sans-Serif" font-size="10.00">iostream</text>
</g>
<!-- Node16&#45;&gt;Node18 -->
<g id="edge21" class="edge"><title>Node16&#45;&gt;Node18</title>
<path fill="none" stroke="midnightblue" d="M855.157,-269.376C918.274,-262.372 1021.61,-248.267 1108,-224 1110.82,-223.209 1113.71,-222.272 1116.57,-221.257"/>
<polygon fill="midnightblue" stroke="midnightblue" points="1117.99,-224.461 1126.08,-217.614 1115.49,-217.925 1117.99,-224.461"/>
</g>
<!-- Node19 -->
<g id="node19" class="node"><title>Node19</title>
<polygon fill="white" stroke="#bfbfbf" points="1190.5,-198.5 1190.5,-217.5 1225.5,-217.5 1225.5,-198.5 1190.5,-198.5"/>
<text text-anchor="middle" x="1208" y="-205.5" font-family="Helvetica,sans-Serif" font-size="10.00">map</text>
</g>
<!-- Node16&#45;&gt;Node19 -->
<g id="edge23" class="edge"><title>Node16&#45;&gt;Node19</title>
<path fill="none" stroke="midnightblue" d="M855.101,-273.994C931.642,-271.171 1069.59,-260.868 1181,-224 1182.64,-223.456 1184.3,-222.81 1185.95,-222.097"/>
<polygon fill="midnightblue" stroke="midnightblue" points="1187.66,-225.156 1195,-217.516 1184.49,-218.911 1187.66,-225.156"/>
</g>
<!-- Node20 -->
<g id="node20" class="node"><title>Node20</title>
<polygon fill="white" stroke="#bfbfbf" points="1035,-130.5 1035,-149.5 1087,-149.5 1087,-130.5 1035,-130.5"/>
<text text-anchor="middle" x="1061" y="-137.5" font-family="Helvetica,sans-Serif" font-size="10.00">memory</text>
</g>
<!-- Node16&#45;&gt;Node20 -->
<g id="edge24" class="edge"><title>Node16&#45;&gt;Node20</title>
<path fill="none" stroke="midnightblue" d="M855.268,-273.637C985.108,-269.999 1289.24,-257.91 1320,-224 1329.56,-213.467 1329.03,-202.985 1320,-192 1305.94,-174.906 1165.64,-154.572 1097.61,-145.62"/>
<polygon fill="midnightblue" stroke="midnightblue" points="1097.71,-142.103 1087.34,-144.283 1096.81,-149.045 1097.71,-142.103"/>
</g>
<!-- Node21 -->
<g id="node21" class="node"><title>Node21</title>
<polygon fill="white" stroke="#bfbfbf" points="1282,-198.5 1282,-217.5 1312,-217.5 1312,-198.5 1282,-198.5"/>
<text text-anchor="middle" x="1297" y="-205.5" font-family="Helvetica,sans-Serif" font-size="10.00">set</text>
</g>
<!-- Node16&#45;&gt;Node21 -->
<g id="edge25" class="edge"><title>Node16&#45;&gt;Node21</title>
<path fill="none" stroke="midnightblue" d="M855.268,-275.512C945.614,-274.801 1124.08,-267.356 1268,-224 1269.91,-223.424 1271.85,-222.722 1273.77,-221.939"/>
<polygon fill="midnightblue" stroke="midnightblue" points="1275.45,-225.015 1282.99,-217.572 1272.45,-218.689 1275.45,-225.015"/>
</g>
<!-- Node22 -->
<g id="node22" class="node"><title>Node22</title>
<polygon fill="white" stroke="#bfbfbf" points="758,-198.5 758,-217.5 836,-217.5 836,-198.5 758,-198.5"/>
<text text-anchor="middle" x="797" y="-205.5" font-family="Helvetica,sans-Serif" font-size="10.00">unordered_set</text>
</g>
<!-- Node16&#45;&gt;Node22 -->
<g id="edge26" class="edge"><title>Node16&#45;&gt;Node22</title>
<path fill="none" stroke="midnightblue" d="M797,-266.372C797,-256.643 797,-240.528 797,-227.85"/>
<polygon fill="midnightblue" stroke="midnightblue" points="800.5,-227.841 797,-217.841 793.5,-227.841 800.5,-227.841"/>
</g>
<!-- Node23 -->
<g id="node23" class="node"><title>Node23</title>
<polygon fill="white" stroke="#bfbfbf" points="392,-198.5 392,-217.5 432,-217.5 432,-198.5 392,-198.5"/>
<text text-anchor="middle" x="412" y="-205.5" font-family="Helvetica,sans-Serif" font-size="10.00">utility</text>
</g>
<!-- Node16&#45;&gt;Node23 -->
<g id="edge27" class="edge"><title>Node16&#45;&gt;Node23</title>
<path fill="none" stroke="midnightblue" d="M738.951,-272.632C667.365,-268.372 542.683,-256.552 441,-224 439.138,-223.404 437.25,-222.696 435.379,-221.917"/>
<polygon fill="midnightblue" stroke="midnightblue" points="436.875,-218.753 426.341,-217.623 433.871,-225.076 436.875,-218.753"/>
</g>
<!-- Node24 -->
<g id="node24" class="node"><title>Node24</title>
<polygon fill="white" stroke="#bfbfbf" points="450,-198.5 450,-217.5 494,-217.5 494,-198.5 450,-198.5"/>
<text text-anchor="middle" x="472" y="-205.5" font-family="Helvetica,sans-Serif" font-size="10.00">vector</text>
</g>
<!-- Node16&#45;&gt;Node24 -->
<g id="edge28" class="edge"><title>Node16&#45;&gt;Node24</title>
<path fill="none" stroke="midnightblue" d="M738.841,-268.558C679.859,-261.14 586.358,-246.934 508,-224 505.35,-223.224 502.631,-222.315 499.931,-221.335"/>
<polygon fill="midnightblue" stroke="midnightblue" points="500.99,-217.99 490.403,-217.583 498.425,-224.503 500.99,-217.99"/>
</g>
<!-- Node25 -->
<g id="node25" class="node"><title>Node25</title>
<g id="a_node25"><a xlink:href="handle_8h.html" target="_top" xlink:title="shad/runtime/handle.h">
<polygon fill="white" stroke="black" points="550.5,-198.5 550.5,-217.5 663.5,-217.5 663.5,-198.5 550.5,-198.5"/>
<text text-anchor="middle" x="607" y="-205.5" font-family="Helvetica,sans-Serif" font-size="10.00">shad/runtime/handle.h</text>
</a>
</g>
</g>
<!-- Node16&#45;&gt;Node25 -->
<g id="edge30" class="edge"><title>Node16&#45;&gt;Node25</title>
<path fill="none" stroke="midnightblue" d="M772.161,-266.372C738.642,-254.728 678.795,-233.939 641.088,-220.841"/>
<polygon fill="midnightblue" stroke="midnightblue" points="642.139,-217.501 631.544,-217.526 639.842,-224.114 642.139,-217.501"/>
</g>
<!-- Node26 -->
<g id="node26" class="node"><title>Node26</title>
<g id="a_node26"><a xlink:href="available__mappings_8h.html" target="_top" xlink:title="shad/runtime/mappings\l/available_mappings.h">
<polygon fill="white" stroke="black" points="598,-125 598,-155 716,-155 716,-125 598,-125"/>
<text text-anchor="start" x="606" y="-143" font-family="Helvetica,sans-Serif" font-size="10.00">shad/runtime/mappings</text>
<text text-anchor="middle" x="657" y="-132" font-family="Helvetica,sans-Serif" font-size="10.00">/available_mappings.h</text>
</a>
</g>
</g>
<!-- Node16&#45;&gt;Node26 -->
<g id="edge37" class="edge"><title>Node16&#45;&gt;Node26</title>
<path fill="none" stroke="midnightblue" d="M787.814,-266.208C765.943,-245.274 710.284,-192 679.074,-162.128"/>
<polygon fill="midnightblue" stroke="midnightblue" points="681.346,-159.457 671.701,-155.071 676.505,-164.514 681.346,-159.457"/>
</g>
<!-- Node27 -->
<g id="node27" class="node"><title>Node27</title>
<g id="a_node27"><a xlink:href="synchronous__interface_8h.html" target="_top" xlink:title="shad/runtime/synchronous\l_interface.h">
<polygon fill="white" stroke="black" points="968.5,-193 968.5,-223 1099.5,-223 1099.5,-193 968.5,-193"/>
<text text-anchor="start" x="976.5" y="-211" font-family="Helvetica,sans-Serif" font-size="10.00">shad/runtime/synchronous</text>
<text text-anchor="middle" x="1034" y="-200" font-family="Helvetica,sans-Serif" font-size="10.00">_interface.h</text>
</a>
</g>
</g>
<!-- Node16&#45;&gt;Node27 -->
<g id="edge39" class="edge"><title>Node16&#45;&gt;Node27</title>
<path fill="none" stroke="midnightblue" d="M827.984,-266.372C864.883,-256.096 927.361,-238.697 973.86,-225.748"/>
<polygon fill="midnightblue" stroke="midnightblue" points="974.831,-229.111 983.525,-223.056 972.953,-222.367 974.831,-229.111"/>
</g>
<!-- Node25&#45;&gt;Node7 -->
<g id="edge31" class="edge"><title>Node25&#45;&gt;Node7</title>
<path fill="none" stroke="midnightblue" d="M550.33,-198.888C534.673,-196.651 517.679,-194.227 502,-192 386.303,-175.563 249.725,-156.309 182.559,-146.85"/>
<polygon fill="midnightblue" stroke="midnightblue" points="182.78,-143.346 172.389,-145.418 181.804,-150.278 182.78,-143.346"/>
</g>
<!-- Node25&#45;&gt;Node12 -->
<g id="edge32" class="edge"><title>Node25&#45;&gt;Node12</title>
<path fill="none" stroke="midnightblue" d="M600.607,-198.307C583.813,-174.321 541.512,-105.699 568,-56 575.55,-41.8339 589.761,-31.3348 603.158,-24.0576"/>
<polygon fill="midnightblue" stroke="midnightblue" points="604.834,-27.1329 612.212,-19.5289 601.702,-20.8724 604.834,-27.1329"/>
</g>
<!-- Node25&#45;&gt;Node13 -->
<g id="edge33" class="edge"><title>Node25&#45;&gt;Node13</title>
<path fill="none" stroke="midnightblue" d="M632.402,-198.371C657.001,-189.481 694.893,-174.357 725,-156 744.144,-144.328 746.461,-137.967 764,-124 776.885,-113.739 791.35,-102.527 803.447,-93.236"/>
<polygon fill="midnightblue" stroke="midnightblue" points="805.587,-96.0061 811.395,-87.1455 801.329,-90.4499 805.587,-96.0061"/>
</g>
<!-- Node25&#45;&gt;Node15 -->
<g id="edge34" class="edge"><title>Node25&#45;&gt;Node15</title>
<path fill="none" stroke="midnightblue" d="M601.726,-198.384C592.962,-182.881 577.455,-149.525 589,-124 594.494,-111.854 604.468,-101.449 614.615,-93.2663"/>
<polygon fill="midnightblue" stroke="midnightblue" points="616.813,-95.993 622.707,-87.1889 612.609,-90.3958 616.813,-95.993"/>
</g>
<!-- Node26&#45;&gt;Node15 -->
<g id="edge38" class="edge"><title>Node26&#45;&gt;Node15</title>
<path fill="none" stroke="midnightblue" d="M654.83,-124.679C653.625,-116.722 652.092,-106.605 650.702,-97.4356"/>
<polygon fill="midnightblue" stroke="midnightblue" points="654.124,-96.6559 649.166,-87.2931 647.203,-97.7046 654.124,-96.6559"/>
</g>
<!-- Node27&#45;&gt;Node10 -->
<g id="edge43" class="edge"><title>Node27&#45;&gt;Node10</title>
<path fill="none" stroke="midnightblue" d="M990.487,-192.922C953.424,-180.931 900.8,-163.906 866.051,-152.664"/>
<polygon fill="midnightblue" stroke="midnightblue" points="866.907,-149.262 856.315,-149.514 864.752,-155.922 866.907,-149.262"/>
</g>
<!-- Node27&#45;&gt;Node11 -->
<g id="edge41" class="edge"><title>Node27&#45;&gt;Node11</title>
<path fill="none" stroke="midnightblue" d="M1025.44,-192.66C1010.65,-167.885 980.365,-117.161 964.392,-90.4073"/>
<polygon fill="midnightblue" stroke="midnightblue" points="967.342,-88.5196 959.21,-81.7275 961.331,-92.1079 967.342,-88.5196"/>
</g>
<!-- Node27&#45;&gt;Node17 -->
<g id="edge40" class="edge"><title>Node27&#45;&gt;Node17</title>
<path fill="none" stroke="midnightblue" d="M1080.93,-192.922C1122.45,-180.465 1182.09,-162.573 1219.41,-151.378"/>
<polygon fill="midnightblue" stroke="midnightblue" points="1220.73,-154.634 1229.31,-148.408 1218.72,-147.929 1220.73,-154.634"/>
</g>
<!-- Node27&#45;&gt;Node20 -->
<g id="edge42" class="edge"><title>Node27&#45;&gt;Node20</title>
<path fill="none" stroke="midnightblue" d="M1039.86,-192.679C1043.86,-182.898 1049.2,-169.852 1053.51,-159.315"/>
<polygon fill="midnightblue" stroke="midnightblue" points="1056.84,-160.409 1057.39,-149.828 1050.36,-157.759 1056.84,-160.409"/>
</g>
<!-- Node28&#45;&gt;Node4 -->
<g id="edge46" class="edge"><title>Node28&#45;&gt;Node4</title>
<path fill="none" stroke="midnightblue" d="M430.649,-328.403C402.267,-306.906 327.956,-250.623 292.443,-223.726"/>
<polygon fill="midnightblue" stroke="midnightblue" points="294.386,-220.807 284.302,-217.56 290.16,-226.388 294.386,-220.807"/>
</g>
<!-- Node28&#45;&gt;Node7 -->
<g id="edge48" class="edge"><title>Node28&#45;&gt;Node7</title>
<path fill="none" stroke="midnightblue" d="M400.459,-333.118C326.116,-325.777 176.504,-309.059 160,-292 125.476,-256.315 131.4,-191.653 136.992,-159.785"/>
<polygon fill="midnightblue" stroke="midnightblue" points="140.491,-160.127 138.962,-149.643 133.619,-158.792 140.491,-160.127"/>
</g>
<!-- Node28&#45;&gt;Node8 -->
<g id="edge51" class="edge"><title>Node28&#45;&gt;Node8</title>
<path fill="none" stroke="midnightblue" d="M411.626,-328.403C379.856,-319.412 329.175,-305.068 289.412,-293.815"/>
<polygon fill="midnightblue" stroke="midnightblue" points="290.131,-290.381 279.556,-291.025 288.225,-297.116 290.131,-290.381"/>
</g>
<!-- Node28&#45;&gt;Node16 -->
<g id="edge52" class="edge"><title>Node28&#45;&gt;Node16</title>
<path fill="none" stroke="midnightblue" d="M483.767,-329.941C546.219,-319.385 664.279,-299.432 736.271,-287.264"/>
<polygon fill="midnightblue" stroke="midnightblue" points="737.269,-290.645 746.546,-285.527 736.103,-283.743 737.269,-290.645"/>
</g>
<!-- Node28&#45;&gt;Node17 -->
<g id="edge45" class="edge"><title>Node28&#45;&gt;Node17</title>
<path fill="none" stroke="midnightblue" d="M483.574,-334.952C652.375,-326.217 1280.23,-289.497 1337,-224 1346.32,-213.253 1343.94,-204.413 1337,-192 1326.55,-173.318 1306.15,-160.643 1288.19,-152.602"/>
<polygon fill="midnightblue" stroke="midnightblue" points="1289.12,-149.198 1278.54,-148.602 1286.44,-155.664 1289.12,-149.198"/>
</g>
<!-- Node28&#45;&gt;Node23 -->
<g id="edge49" class="edge"><title>Node28&#45;&gt;Node23</title>
<path fill="none" stroke="midnightblue" d="M449.581,-328.284C461.182,-313.831 480.903,-284.106 470,-260 462.996,-244.515 448.71,-231.861 436.069,-223.032"/>
<polygon fill="midnightblue" stroke="midnightblue" points="437.973,-220.095 427.69,-217.542 434.136,-225.95 437.973,-220.095"/>
</g>
<!-- Node28&#45;&gt;Node24 -->
<g id="edge50" class="edge"><title>Node28&#45;&gt;Node24</title>
<path fill="none" stroke="midnightblue" d="M454.497,-328.302C464.874,-320.251 478.887,-307.245 485,-292 493.541,-270.699 486.672,-244.228 480.109,-226.989"/>
<polygon fill="midnightblue" stroke="midnightblue" points="483.269,-225.471 476.203,-217.577 476.804,-228.155 483.269,-225.471"/>
</g>
<!-- Node29 -->
<g id="node29" class="node"><title>Node29</title>
<polygon fill="white" stroke="#bfbfbf" points="423,-266.5 423,-285.5 461,-285.5 461,-266.5 423,-266.5"/>
<text text-anchor="middle" x="442" y="-273.5" font-family="Helvetica,sans-Serif" font-size="10.00">tuple</text>
</g>
<!-- Node28&#45;&gt;Node29 -->
<g id="edge47" class="edge"><title>Node28&#45;&gt;Node29</title>
<path fill="none" stroke="midnightblue" d="M442,-328.403C442,-319.938 442,-306.728 442,-295.82"/>
<polygon fill="midnightblue" stroke="midnightblue" points="445.5,-295.581 442,-285.581 438.5,-295.581 445.5,-295.581"/>
</g>
</g>
</svg>
