<?xml version="1.0" encoding="UTF-8" standalone="no"?>
<!DOCTYPE svg PUBLIC "-//W3C//DTD SVG 1.1//EN"
 "http://www.w3.org/Graphics/SVG/1.1/DTD/svg11.dtd">
<!-- Generated by graphviz version 2.36.0 (20140111.2315)
 -->
<!-- Title: include/shad/data_structures/object_identifier.h Pages: 1 -->
<svg width="1023pt" height="356pt"
 viewBox="0.00 0.00 1022.84 356.00" xmlns="http://www.w3.org/2000/svg" xmlns:xlink="http://www.w3.org/1999/xlink">
<g id="graph0" class="graph" transform="scale(1 1) rotate(0) translate(4 352)">
<title>include/shad/data_structures/object_identifier.h</title>
<polygon fill="white" stroke="none" points="-4,4 -4,-352 1018.84,-352 1018.84,4 -4,4"/>
<!-- Node1 -->
<g id="node1" class="node"><title>Node1</title>
<polygon fill="#bfbfbf" stroke="black" points="304.841,-317 304.841,-347 446.841,-347 446.841,-317 304.841,-317"/>
<text text-anchor="start" x="312.841" y="-335" font-family="Helvetica,sans-Serif" font-size="10.00">include/shad/data_structures</text>
<text text-anchor="middle" x="375.841" y="-324" font-family="Helvetica,sans-Serif" font-size="10.00">/object_identifier.h</text>
</g>
<!-- Node2 -->
<g id="node2" class="node"><title>Node2</title>
<polygon fill="white" stroke="#bfbfbf" points="291.841,-260.5 291.841,-279.5 337.841,-279.5 337.841,-260.5 291.841,-260.5"/>
<text text-anchor="middle" x="314.841" y="-267.5" font-family="Helvetica,sans-Serif" font-size="10.00">atomic</text>
</g>
<!-- Node1&#45;&gt;Node2 -->
<g id="edge1" class="edge"><title>Node1&#45;&gt;Node2</title>
<path fill="none" stroke="midnightblue" d="M361.385,-316.781C352.247,-307.792 340.422,-296.162 330.978,-286.873"/>
<polygon fill="midnightblue" stroke="midnightblue" points="333.301,-284.248 323.717,-279.731 328.392,-289.238 333.301,-284.248"/>
</g>
<!-- Node3 -->
<g id="node3" class="node"><title>Node3</title>
<polygon fill="white" stroke="#bfbfbf" points="355.841,-260.5 355.841,-279.5 395.841,-279.5 395.841,-260.5 355.841,-260.5"/>
<text text-anchor="middle" x="375.841" y="-267.5" font-family="Helvetica,sans-Serif" font-size="10.00">limits</text>
</g>
<!-- Node1&#45;&gt;Node3 -->
<g id="edge2" class="edge"><title>Node1&#45;&gt;Node3</title>
<path fill="none" stroke="midnightblue" d="M375.841,-316.781C375.841,-308.781 375.841,-298.689 375.841,-290.017"/>
<polygon fill="midnightblue" stroke="midnightblue" points="379.341,-289.73 375.841,-279.731 372.341,-289.731 379.341,-289.73"/>
</g>
<!-- Node4 -->
<g id="node4" class="node"><title>Node4</title>
<g id="a_node4"><a xlink:href="runtime_8h.html" target="_top" xlink:title="shad/runtime/runtime.h">
<polygon fill="white" stroke="black" points="413.841,-260.5 413.841,-279.5 529.841,-279.5 529.841,-260.5 413.841,-260.5"/>
<text text-anchor="middle" x="471.841" y="-267.5" font-family="Helvetica,sans-Serif" font-size="10.00">shad/runtime/runtime.h</text>
</a>
</g>
</g>
<!-- Node1&#45;&gt;Node4 -->
<g id="edge3" class="edge"><title>Node1&#45;&gt;Node4</title>
<path fill="none" stroke="midnightblue" d="M398.592,-316.781C413.928,-307.196 434.071,-294.606 449.352,-285.056"/>
<polygon fill="midnightblue" stroke="midnightblue" points="451.527,-287.824 458.152,-279.556 447.817,-281.888 451.527,-287.824"/>
</g>
<!-- Node5 -->
<g id="node5" class="node"><title>Node5</title>
<polygon fill="white" stroke="#bfbfbf" points="36.3409,-130.5 36.3409,-149.5 85.3409,-149.5 85.3409,-130.5 36.3409,-130.5"/>
<text text-anchor="middle" x="60.8409" y="-137.5" font-family="Helvetica,sans-Serif" font-size="10.00">cstddef</text>
</g>
<!-- Node4&#45;&gt;Node5 -->
<g id="edge4" class="edge"><title>Node4&#45;&gt;Node5</title>
<path fill="none" stroke="midnightblue" d="M413.745,-261.129C410.734,-260.742 407.752,-260.363 404.841,-260 335.585,-251.354 148.026,-266.728 92.8409,-224 72.9356,-208.588 65.4053,-179.151 62.561,-159.798"/>
<polygon fill="midnightblue" stroke="midnightblue" points="66.0229,-159.27 61.3697,-149.752 59.0716,-160.094 66.0229,-159.27"/>
</g>
<!-- Node6 -->
<g id="node6" class="node"><title>Node6</title>
<polygon fill="white" stroke="#bfbfbf" points="90.8409,-62.5 90.8409,-81.5 136.841,-81.5 136.841,-62.5 90.8409,-62.5"/>
<text text-anchor="middle" x="113.841" y="-69.5" font-family="Helvetica,sans-Serif" font-size="10.00">cstdint</text>
</g>
<!-- Node4&#45;&gt;Node6 -->
<g id="edge5" class="edge"><title>Node4&#45;&gt;Node6</title>
<path fill="none" stroke="midnightblue" d="M413.748,-261.099C410.737,-260.72 407.754,-260.351 404.841,-260 330.067,-250.986 131.357,-264.472 67.8409,-224 27.3308,-198.187 2.96114,-165.679 26.8409,-124 38.4564,-103.727 61.6042,-90.7309 81.1042,-82.9344"/>
<polygon fill="midnightblue" stroke="midnightblue" points="82.4394,-86.1723 90.6021,-79.418 80.009,-79.6078 82.4394,-86.1723"/>
</g>
<!-- Node7 -->
<g id="node7" class="node"><title>Node7</title>
<polygon fill="white" stroke="#bfbfbf" points="500.341,-198.5 500.341,-217.5 559.341,-217.5 559.341,-198.5 500.341,-198.5"/>
<text text-anchor="middle" x="529.841" y="-205.5" font-family="Helvetica,sans-Serif" font-size="10.00">functional</text>
</g>
<!-- Node4&#45;&gt;Node7 -->
<g id="edge6" class="edge"><title>Node4&#45;&gt;Node7</title>
<path fill="none" stroke="midnightblue" d="M480.151,-260.403C489.109,-251.136 503.564,-236.183 514.58,-224.788"/>
<polygon fill="midnightblue" stroke="midnightblue" points="517.113,-227.203 521.546,-217.581 512.08,-222.338 517.113,-227.203"/>
</g>
<!-- Node8 -->
<g id="node8" class="node"><title>Node8</title>
<polygon fill="white" stroke="#bfbfbf" points="577.841,-198.5 577.841,-217.5 631.841,-217.5 631.841,-198.5 577.841,-198.5"/>
<text text-anchor="middle" x="604.841" y="-205.5" font-family="Helvetica,sans-Serif" font-size="10.00">iostream</text>
</g>
<!-- Node4&#45;&gt;Node8 -->
<g id="edge7" class="edge"><title>Node4&#45;&gt;Node8</title>
<path fill="none" stroke="midnightblue" d="M490.897,-260.403C513.316,-250.29 550.746,-233.404 576.554,-221.761"/>
<polygon fill="midnightblue" stroke="midnightblue" points="578.144,-224.883 585.821,-217.581 575.266,-218.502 578.144,-224.883"/>
</g>
<!-- Node9 -->
<g id="node9" class="node"><title>Node9</title>
<polygon fill="white" stroke="#bfbfbf" points="650.341,-198.5 650.341,-217.5 697.341,-217.5 697.341,-198.5 650.341,-198.5"/>
<text text-anchor="middle" x="673.841" y="-205.5" font-family="Helvetica,sans-Serif" font-size="10.00">iterator</text>
</g>
<!-- Node4&#45;&gt;Node9 -->
<g id="edge8" class="edge"><title>Node4&#45;&gt;Node9</title>
<path fill="none" stroke="midnightblue" d="M511.338,-260.448C545.954,-252.49 597.385,-239.54 640.841,-224 642.752,-223.317 644.705,-222.567 646.66,-221.78"/>
<polygon fill="midnightblue" stroke="midnightblue" points="648.453,-224.818 656.253,-217.648 645.684,-218.389 648.453,-224.818"/>
</g>
<!-- Node10 -->
<g id="node10" class="node"><title>Node10</title>
<polygon fill="white" stroke="#bfbfbf" points="715.341,-198.5 715.341,-217.5 750.341,-217.5 750.341,-198.5 715.341,-198.5"/>
<text text-anchor="middle" x="732.841" y="-205.5" font-family="Helvetica,sans-Serif" font-size="10.00">map</text>
</g>
<!-- Node4&#45;&gt;Node10 -->
<g id="edge9" class="edge"><title>Node4&#45;&gt;Node10</title>
<path fill="none" stroke="midnightblue" d="M529.943,-263.021C578.142,-256.842 647.907,-245.052 705.841,-224 707.29,-223.473 708.754,-222.876 710.211,-222.23"/>
<polygon fill="midnightblue" stroke="midnightblue" points="712.176,-225.158 719.504,-217.506 709.004,-218.918 712.176,-225.158"/>
</g>
<!-- Node11 -->
<g id="node11" class="node"><title>Node11</title>
<polygon fill="white" stroke="#bfbfbf" points="141.841,-130.5 141.841,-149.5 193.841,-149.5 193.841,-130.5 141.841,-130.5"/>
<text text-anchor="middle" x="167.841" y="-137.5" font-family="Helvetica,sans-Serif" font-size="10.00">memory</text>
</g>
<!-- Node4&#45;&gt;Node11 -->
<g id="edge10" class="edge"><title>Node4&#45;&gt;Node11</title>
<path fill="none" stroke="midnightblue" d="M446.646,-260.439C421.626,-251.784 382.275,-237.757 348.841,-224 293.173,-201.095 229.493,-170.949 194.456,-154.009"/>
<polygon fill="midnightblue" stroke="midnightblue" points="195.889,-150.814 185.364,-149.599 192.833,-157.112 195.889,-150.814"/>
</g>
<!-- Node12 -->
<g id="node12" class="node"><title>Node12</title>
<polygon fill="white" stroke="#bfbfbf" points="768.841,-198.5 768.841,-217.5 798.841,-217.5 798.841,-198.5 768.841,-198.5"/>
<text text-anchor="middle" x="783.841" y="-205.5" font-family="Helvetica,sans-Serif" font-size="10.00">set</text>
</g>
<!-- Node4&#45;&gt;Node12 -->
<g id="edge11" class="edge"><title>Node4&#45;&gt;Node12</title>
<path fill="none" stroke="midnightblue" d="M530.092,-266.409C589.254,-262.283 682.744,-251.603 758.841,-224 760.072,-223.553 761.31,-223.044 762.54,-222.489"/>
<polygon fill="midnightblue" stroke="midnightblue" points="764.442,-225.44 771.596,-217.626 761.13,-219.273 764.442,-225.44"/>
</g>
<!-- Node13 -->
<g id="node13" class="node"><title>Node13</title>
<polygon fill="white" stroke="#bfbfbf" points="816.841,-198.5 816.841,-217.5 894.841,-217.5 894.841,-198.5 816.841,-198.5"/>
<text text-anchor="middle" x="855.841" y="-205.5" font-family="Helvetica,sans-Serif" font-size="10.00">unordered_set</text>
</g>
<!-- Node4&#45;&gt;Node13 -->
<g id="edge12" class="edge"><title>Node4&#45;&gt;Node13</title>
<path fill="none" stroke="midnightblue" d="M530.142,-264.085C597.374,-257.745 710.961,-244.968 806.841,-224 811.537,-222.973 816.433,-221.711 821.236,-220.36"/>
<polygon fill="midnightblue" stroke="midnightblue" points="822.276,-223.702 830.87,-217.506 820.288,-216.991 822.276,-223.702"/>
</g>
<!-- Node14 -->
<g id="node14" class="node"><title>Node14</title>
<polygon fill="white" stroke="#bfbfbf" points="912.841,-198.5 912.841,-217.5 952.841,-217.5 952.841,-198.5 912.841,-198.5"/>
<text text-anchor="middle" x="932.841" y="-205.5" font-family="Helvetica,sans-Serif" font-size="10.00">utility</text>
</g>
<!-- Node4&#45;&gt;Node14 -->
<g id="edge13" class="edge"><title>Node4&#45;&gt;Node14</title>
<path fill="none" stroke="midnightblue" d="M530.127,-269.733C614.394,-269.282 774.342,-262.724 903.841,-224 905.755,-223.428 907.692,-222.728 909.609,-221.948"/>
<polygon fill="midnightblue" stroke="midnightblue" points="911.29,-225.025 918.832,-217.584 908.296,-218.698 911.29,-225.025"/>
</g>
<!-- Node15 -->
<g id="node15" class="node"><title>Node15</title>
<polygon fill="white" stroke="#bfbfbf" points="970.841,-198.5 970.841,-217.5 1014.84,-217.5 1014.84,-198.5 970.841,-198.5"/>
<text text-anchor="middle" x="992.841" y="-205.5" font-family="Helvetica,sans-Serif" font-size="10.00">vector</text>
</g>
<!-- Node4&#45;&gt;Node15 -->
<g id="edge14" class="edge"><title>Node4&#45;&gt;Node15</title>
<path fill="none" stroke="midnightblue" d="M530.093,-266.265C641.772,-260.592 882.003,-246.192 961.841,-224 964.041,-223.389 966.274,-222.626 968.482,-221.77"/>
<polygon fill="midnightblue" stroke="midnightblue" points="970.107,-224.878 977.815,-217.61 967.257,-218.484 970.107,-224.878"/>
</g>
<!-- Node16 -->
<g id="node16" class="node"><title>Node16</title>
<polygon fill="white" stroke="#bfbfbf" points="306.841,-0.5 306.841,-19.5 410.841,-19.5 410.841,-0.5 306.841,-0.5"/>
<text text-anchor="middle" x="358.841" y="-7.5" font-family="Helvetica,sans-Serif" font-size="10.00">shad/config/config.h</text>
</g>
<!-- Node4&#45;&gt;Node16 -->
<g id="edge15" class="edge"><title>Node4&#45;&gt;Node16</title>
<path fill="none" stroke="midnightblue" d="M413.753,-261.059C410.74,-260.69 407.756,-260.335 404.841,-260 321.232,-250.396 90.471,-280.216 27.8409,-224 -30.5251,-171.612 12.0309,-91.7446 81.8409,-56 118.37,-37.2963 226.777,-23.7219 296.642,-16.6255"/>
<polygon fill="midnightblue" stroke="midnightblue" points="297.054,-20.1019 306.657,-15.6257 296.359,-13.1365 297.054,-20.1019"/>
</g>
<!-- Node17 -->
<g id="node17" class="node"><title>Node17</title>
<g id="a_node17"><a xlink:href="handle_8h.html" target="_top" xlink:title="shad/runtime/handle.h">
<polygon fill="white" stroke="black" points="482.341,-130.5 482.341,-149.5 595.341,-149.5 595.341,-130.5 482.341,-130.5"/>
<text text-anchor="middle" x="538.841" y="-137.5" font-family="Helvetica,sans-Serif" font-size="10.00">shad/runtime/handle.h</text>
</a>
</g>
</g>
<!-- Node4&#45;&gt;Node17 -->
<g id="edge16" class="edge"><title>Node4&#45;&gt;Node17</title>
<path fill="none" stroke="midnightblue" d="M466.789,-260.321C458.832,-245.407 445.495,-214.362 457.841,-192 467.667,-174.201 486.601,-161.767 503.693,-153.634"/>
<polygon fill="midnightblue" stroke="midnightblue" points="505.198,-156.796 512.93,-149.552 502.369,-150.393 505.198,-156.796"/>
</g>
<!-- Node19 -->
<g id="node19" class="node"><title>Node19</title>
<g id="a_node19"><a xlink:href="mapping__traits_8h.html" target="_top" xlink:title="shad/runtime/mapping\l_traits.h">
<polygon fill="white" stroke="black" points="488.341,-57 488.341,-87 601.341,-87 601.341,-57 488.341,-57"/>
<text text-anchor="start" x="496.341" y="-75" font-family="Helvetica,sans-Serif" font-size="10.00">shad/runtime/mapping</text>
<text text-anchor="middle" x="544.841" y="-64" font-family="Helvetica,sans-Serif" font-size="10.00">_traits.h</text>
</a>
</g>
</g>
<!-- Node4&#45;&gt;Node19 -->
<g id="edge28" class="edge"><title>Node4&#45;&gt;Node19</title>
<path fill="none" stroke="midnightblue" d="M471.419,-260.343C471.14,-244.615 472.873,-211.204 490.841,-192 526.852,-153.51 572.737,-198.554 603.841,-156 619.382,-134.738 596.858,-110.115 575.307,-93.2436"/>
<polygon fill="midnightblue" stroke="midnightblue" points="577.285,-90.3526 567.176,-87.1799 573.1,-95.9639 577.285,-90.3526"/>
</g>
<!-- Node22 -->
<g id="node22" class="node"><title>Node22</title>
<g id="a_node22"><a xlink:href="locality_8h.html" target="_top" xlink:title="shad/runtime/locality.h">
<polygon fill="white" stroke="black" points="212.341,-130.5 212.341,-149.5 327.341,-149.5 327.341,-130.5 212.341,-130.5"/>
<text text-anchor="middle" x="269.841" y="-137.5" font-family="Helvetica,sans-Serif" font-size="10.00">shad/runtime/locality.h</text>
</a>
</g>
</g>
<!-- Node4&#45;&gt;Node22 -->
<g id="edge23" class="edge"><title>Node4&#45;&gt;Node22</title>
<path fill="none" stroke="midnightblue" d="M458.273,-260.403C424.062,-238.724 334.018,-181.667 292.011,-155.048"/>
<polygon fill="midnightblue" stroke="midnightblue" points="293.67,-151.956 283.349,-149.56 289.923,-157.869 293.67,-151.956"/>
</g>
<!-- Node23 -->
<g id="node23" class="node"><title>Node23</title>
<g id="a_node23"><a xlink:href="available__mappings_8h.html" target="_top" xlink:title="shad/runtime/mappings\l/available_mappings.h">
<polygon fill="white" stroke="black" points="345.841,-125 345.841,-155 463.841,-155 463.841,-125 345.841,-125"/>
<text text-anchor="start" x="353.841" y="-143" font-family="Helvetica,sans-Serif" font-size="10.00">shad/runtime/mappings</text>
<text text-anchor="middle" x="404.841" y="-132" font-family="Helvetica,sans-Serif" font-size="10.00">/available_mappings.h</text>
</a>
</g>
</g>
<!-- Node4&#45;&gt;Node23 -->
<g id="edge29" class="edge"><title>Node4&#45;&gt;Node23</title>
<path fill="none" stroke="midnightblue" d="M467.236,-260.202C456.983,-240.614 431.993,-192.873 416.934,-164.104"/>
<polygon fill="midnightblue" stroke="midnightblue" points="419.982,-162.38 412.244,-155.143 413.781,-165.626 419.982,-162.38"/>
</g>
<!-- Node24 -->
<g id="node24" class="node"><title>Node24</title>
<g id="a_node24"><a xlink:href="synchronous__interface_8h.html" target="_top" xlink:title="shad/runtime/synchronous\l_interface.h">
<polygon fill="white" stroke="black" points="102.341,-193 102.341,-223 233.341,-223 233.341,-193 102.341,-193"/>
<text text-anchor="start" x="110.341" y="-211" font-family="Helvetica,sans-Serif" font-size="10.00">shad/runtime/synchronous</text>
<text text-anchor="middle" x="167.841" y="-200" font-family="Helvetica,sans-Serif" font-size="10.00">_interface.h</text>
</a>
</g>
</g>
<!-- Node4&#45;&gt;Node24 -->
<g id="edge31" class="edge"><title>Node4&#45;&gt;Node24</title>
<path fill="none" stroke="midnightblue" d="M428.608,-260.467C380.493,-250.971 301.844,-235.448 243.482,-223.929"/>
<polygon fill="midnightblue" stroke="midnightblue" points="244.056,-220.475 233.567,-221.972 242.7,-227.342 244.056,-220.475"/>
</g>
<!-- Node17&#45;&gt;Node16 -->
<g id="edge18" class="edge"><title>Node17&#45;&gt;Node16</title>
<path fill="none" stroke="midnightblue" d="M528.643,-130.317C504.023,-109.36 443.183,-57.6105 440.841,-56 423.279,-43.9256 402.172,-32.4043 385.771,-24.0424"/>
<polygon fill="midnightblue" stroke="midnightblue" points="387.228,-20.8578 376.72,-19.5039 384.09,-27.1152 387.228,-20.8578"/>
</g>
<!-- Node18 -->
<g id="node18" class="node"><title>Node18</title>
<polygon fill="white" stroke="#bfbfbf" points="619.841,-62.5 619.841,-81.5 681.841,-81.5 681.841,-62.5 619.841,-62.5"/>
<text text-anchor="middle" x="650.841" y="-69.5" font-family="Helvetica,sans-Serif" font-size="10.00">type_traits</text>
</g>
<!-- Node17&#45;&gt;Node18 -->
<g id="edge17" class="edge"><title>Node17&#45;&gt;Node18</title>
<path fill="none" stroke="midnightblue" d="M553.483,-130.372C572.265,-119.304 605.069,-99.9724 627.358,-86.838"/>
<polygon fill="midnightblue" stroke="midnightblue" points="629.357,-89.7228 636.195,-81.6305 625.803,-83.692 629.357,-89.7228"/>
</g>
<!-- Node17&#45;&gt;Node19 -->
<g id="edge19" class="edge"><title>Node17&#45;&gt;Node19</title>
<path fill="none" stroke="midnightblue" d="M539.625,-130.372C540.389,-121.971 541.585,-108.811 542.64,-97.2126"/>
<polygon fill="midnightblue" stroke="midnightblue" points="546.132,-97.4573 543.552,-87.1815 539.161,-96.8235 546.132,-97.4573"/>
</g>
<!-- Node21 -->
<g id="node21" class="node"><title>Node21</title>
<g id="a_node21"><a xlink:href="available__traits__mappings_8h.html" target="_top" xlink:title="shad/runtime/mappings\l/available_traits_mappings.h">
<polygon fill="white" stroke="black" points="291.841,-57 291.841,-87 431.841,-87 431.841,-57 291.841,-57"/>
<text text-anchor="start" x="299.841" y="-75" font-family="Helvetica,sans-Serif" font-size="10.00">shad/runtime/mappings</text>
<text text-anchor="middle" x="361.841" y="-64" font-family="Helvetica,sans-Serif" font-size="10.00">/available_traits_mappings.h</text>
</a>
</g>
</g>
<!-- Node17&#45;&gt;Node21 -->
<g id="edge22" class="edge"><title>Node17&#45;&gt;Node21</title>
<path fill="none" stroke="midnightblue" d="M515.701,-130.372C488.72,-120.311 443.427,-103.422 408.95,-90.5662"/>
<polygon fill="midnightblue" stroke="midnightblue" points="410.13,-87.2707 399.537,-87.0562 407.684,-93.8295 410.13,-87.2707"/>
</g>
<!-- Node19&#45;&gt;Node16 -->
<g id="edge21" class="edge"><title>Node19&#45;&gt;Node16</title>
<path fill="none" stroke="midnightblue" d="M501.232,-56.9327C468.915,-46.5077 425.388,-32.4667 394.998,-22.6635"/>
<polygon fill="midnightblue" stroke="midnightblue" points="395.822,-19.2518 385.23,-19.5127 393.673,-25.9138 395.822,-19.2518"/>
</g>
<!-- Node20 -->
<g id="node20" class="node"><title>Node20</title>
<polygon fill="white" stroke="#bfbfbf" points="524.341,-0.5 524.341,-19.5 565.341,-19.5 565.341,-0.5 524.341,-0.5"/>
<text text-anchor="middle" x="544.841" y="-7.5" font-family="Helvetica,sans-Serif" font-size="10.00">string</text>
</g>
<!-- Node19&#45;&gt;Node20 -->
<g id="edge20" class="edge"><title>Node19&#45;&gt;Node20</title>
<path fill="none" stroke="midnightblue" d="M544.841,-56.7808C544.841,-48.7812 544.841,-38.6887 544.841,-30.0168"/>
<polygon fill="midnightblue" stroke="midnightblue" points="548.341,-29.7305 544.841,-19.7305 541.341,-29.7306 548.341,-29.7305"/>
</g>
<!-- Node22&#45;&gt;Node6 -->
<g id="edge24" class="edge"><title>Node22&#45;&gt;Node6</title>
<path fill="none" stroke="midnightblue" d="M249.447,-130.372C222.469,-118.958 174.719,-98.7562 143.682,-85.6252"/>
<polygon fill="midnightblue" stroke="midnightblue" points="144.814,-82.3035 134.24,-81.6305 142.086,-88.7503 144.814,-82.3035"/>
</g>
<!-- Node22&#45;&gt;Node16 -->
<g id="edge25" class="edge"><title>Node22&#45;&gt;Node16</title>
<path fill="none" stroke="midnightblue" d="M268.926,-130.377C267.671,-114.277 267.126,-79.1791 282.841,-56 292.652,-41.5281 308.801,-31.0206 323.695,-23.817"/>
<polygon fill="midnightblue" stroke="midnightblue" points="325.525,-26.8324 333.222,-19.5518 322.665,-20.4434 325.525,-26.8324"/>
</g>
<!-- Node22&#45;&gt;Node19 -->
<g id="edge26" class="edge"><title>Node22&#45;&gt;Node19</title>
<path fill="none" stroke="midnightblue" d="M305.51,-130.439C349.154,-119.965 423.937,-102.017 478.315,-88.9661"/>
<polygon fill="midnightblue" stroke="midnightblue" points="479.312,-92.3263 488.219,-86.5891 477.679,-85.5196 479.312,-92.3263"/>
</g>
<!-- Node22&#45;&gt;Node21 -->
<g id="edge27" class="edge"><title>Node22&#45;&gt;Node21</title>
<path fill="none" stroke="midnightblue" d="M281.868,-130.372C295.011,-120.943 316.515,-105.517 333.915,-93.0338"/>
<polygon fill="midnightblue" stroke="midnightblue" points="335.988,-95.8545 342.073,-87.1815 331.907,-90.1667 335.988,-95.8545"/>
</g>
<!-- Node23&#45;&gt;Node21 -->
<g id="edge30" class="edge"><title>Node23&#45;&gt;Node21</title>
<path fill="none" stroke="midnightblue" d="M395.51,-124.679C390.045,-116.29 383.014,-105.499 376.793,-95.9495"/>
<polygon fill="midnightblue" stroke="midnightblue" points="379.544,-93.7611 371.153,-87.2931 373.679,-97.5823 379.544,-93.7611"/>
</g>
<!-- Node24&#45;&gt;Node5 -->
<g id="edge32" class="edge"><title>Node24&#45;&gt;Node5</title>
<path fill="none" stroke="midnightblue" d="M144.887,-192.841C126.794,-181.681 101.692,-166.198 83.6392,-155.063"/>
<polygon fill="midnightblue" stroke="midnightblue" points="85.2646,-151.953 74.916,-149.682 81.5897,-157.911 85.2646,-151.953"/>
</g>
<!-- Node24&#45;&gt;Node6 -->
<g id="edge33" class="edge"><title>Node24&#45;&gt;Node6</title>
<path fill="none" stroke="midnightblue" d="M155.845,-192.704C148.217,-182.933 138.706,-169.375 132.841,-156 123.677,-135.101 118.656,-109.225 116.114,-91.9742"/>
<polygon fill="midnightblue" stroke="midnightblue" points="119.518,-91.0272 114.729,-81.5767 112.58,-91.9512 119.518,-91.0272"/>
</g>
<!-- Node24&#45;&gt;Node11 -->
<g id="edge34" class="edge"><title>Node24&#45;&gt;Node11</title>
<path fill="none" stroke="midnightblue" d="M167.841,-192.679C167.841,-183.101 167.841,-170.394 167.841,-159.977"/>
<polygon fill="midnightblue" stroke="midnightblue" points="171.341,-159.828 167.841,-149.828 164.341,-159.828 171.341,-159.828"/>
</g>
<!-- Node24&#45;&gt;Node22 -->
<g id="edge35" class="edge"><title>Node24&#45;&gt;Node22</title>
<path fill="none" stroke="midnightblue" d="M189.722,-192.841C206.812,-181.784 230.46,-166.481 247.633,-155.37"/>
<polygon fill="midnightblue" stroke="midnightblue" points="249.929,-158.053 256.423,-149.682 246.126,-152.176 249.929,-158.053"/>
</g>
</g>
</svg>
