<?xml version="1.0" encoding="UTF-8" standalone="no"?>
<!DOCTYPE svg PUBLIC "-//W3C//DTD SVG 1.1//EN"
 "http://www.w3.org/Graphics/SVG/1.1/DTD/svg11.dtd">
<!-- Generated by graphviz version 2.36.0 (20140111.2315)
 -->
<!-- Title: include/shad/data_structures/object_identifier.h Pages: 1 -->
<svg width="1159pt" height="356pt"
 viewBox="0.00 0.00 1158.90 356.00" xmlns="http://www.w3.org/2000/svg" xmlns:xlink="http://www.w3.org/1999/xlink">
<g id="graph0" class="graph" transform="scale(1 1) rotate(0) translate(4 352)">
<title>include/shad/data_structures/object_identifier.h</title>
<polygon fill="white" stroke="none" points="-4,4 -4,-352 1154.9,-352 1154.9,4 -4,4"/>
<!-- Node1 -->
<g id="node1" class="node"><title>Node1</title>
<polygon fill="#bfbfbf" stroke="black" points="227.897,-317 227.897,-347 369.897,-347 369.897,-317 227.897,-317"/>
<text text-anchor="start" x="235.897" y="-335" font-family="Helvetica,sans-Serif" font-size="10.00">include/shad/data_structures</text>
<text text-anchor="middle" x="298.897" y="-324" font-family="Helvetica,sans-Serif" font-size="10.00">/object_identifier.h</text>
</g>
<!-- Node2 -->
<g id="node2" class="node"><title>Node2</title>
<polygon fill="white" stroke="#bfbfbf" points="214.897,-260.5 214.897,-279.5 260.897,-279.5 260.897,-260.5 214.897,-260.5"/>
<text text-anchor="middle" x="237.897" y="-267.5" font-family="Helvetica,sans-Serif" font-size="10.00">atomic</text>
</g>
<!-- Node1&#45;&gt;Node2 -->
<g id="edge1" class="edge"><title>Node1&#45;&gt;Node2</title>
<path fill="none" stroke="midnightblue" d="M284.441,-316.781C275.303,-307.792 263.479,-296.162 254.035,-286.873"/>
<polygon fill="midnightblue" stroke="midnightblue" points="256.357,-284.248 246.773,-279.731 251.448,-289.238 256.357,-284.248"/>
</g>
<!-- Node3 -->
<g id="node3" class="node"><title>Node3</title>
<polygon fill="white" stroke="#bfbfbf" points="278.897,-260.5 278.897,-279.5 318.897,-279.5 318.897,-260.5 278.897,-260.5"/>
<text text-anchor="middle" x="298.897" y="-267.5" font-family="Helvetica,sans-Serif" font-size="10.00">limits</text>
</g>
<!-- Node1&#45;&gt;Node3 -->
<g id="edge2" class="edge"><title>Node1&#45;&gt;Node3</title>
<path fill="none" stroke="midnightblue" d="M298.897,-316.781C298.897,-308.781 298.897,-298.689 298.897,-290.017"/>
<polygon fill="midnightblue" stroke="midnightblue" points="302.397,-289.73 298.897,-279.731 295.397,-289.731 302.397,-289.73"/>
</g>
<!-- Node4 -->
<g id="node4" class="node"><title>Node4</title>
<g id="a_node4"><a xlink:href="runtime_8h.html" target="_top" xlink:title="shad/runtime/runtime.h">
<polygon fill="white" stroke="black" points="336.897,-260.5 336.897,-279.5 452.897,-279.5 452.897,-260.5 336.897,-260.5"/>
<text text-anchor="middle" x="394.897" y="-267.5" font-family="Helvetica,sans-Serif" font-size="10.00">shad/runtime/runtime.h</text>
</a>
</g>
</g>
<!-- Node1&#45;&gt;Node4 -->
<g id="edge3" class="edge"><title>Node1&#45;&gt;Node4</title>
<path fill="none" stroke="midnightblue" d="M321.648,-316.781C336.984,-307.196 357.127,-294.606 372.408,-285.056"/>
<polygon fill="midnightblue" stroke="midnightblue" points="374.583,-287.824 381.208,-279.556 370.873,-281.888 374.583,-287.824"/>
</g>
<!-- Node5 -->
<g id="node5" class="node"><title>Node5</title>
<polygon fill="white" stroke="#bfbfbf" points="195.397,-130.5 195.397,-149.5 244.397,-149.5 244.397,-130.5 195.397,-130.5"/>
<text text-anchor="middle" x="219.897" y="-137.5" font-family="Helvetica,sans-Serif" font-size="10.00">cstddef</text>
</g>
<!-- Node4&#45;&gt;Node5 -->
<g id="edge4" class="edge"><title>Node4&#45;&gt;Node5</title>
<path fill="none" stroke="midnightblue" d="M336.822,-260.582C264.09,-249.762 148.165,-231.481 141.897,-224 132.763,-213.098 135.13,-204.509 141.897,-192 151.292,-174.632 169.458,-162.232 185.895,-154.012"/>
<polygon fill="midnightblue" stroke="midnightblue" points="187.698,-157.034 195.295,-149.648 184.751,-150.684 187.698,-157.034"/>
</g>
<!-- Node6 -->
<g id="node6" class="node"><title>Node6</title>
<polygon fill="white" stroke="#bfbfbf" points="629.897,-62.5 629.897,-81.5 675.897,-81.5 675.897,-62.5 629.897,-62.5"/>
<text text-anchor="middle" x="652.897" y="-69.5" font-family="Helvetica,sans-Serif" font-size="10.00">cstdint</text>
</g>
<!-- Node4&#45;&gt;Node6 -->
<g id="edge5" class="edge"><title>Node4&#45;&gt;Node6</title>
<path fill="none" stroke="midnightblue" d="M453.111,-269.449C535.307,-268.698 679.057,-261.832 711.897,-224 721.22,-213.26 717.683,-204.992 711.897,-192 702.167,-170.151 684.019,-176.618 671.897,-156 660.158,-136.034 655.671,-109.417 653.957,-91.7698"/>
<polygon fill="midnightblue" stroke="midnightblue" points="657.434,-91.3324 653.182,-81.628 650.454,-91.8656 657.434,-91.3324"/>
</g>
<!-- Node7 -->
<g id="node7" class="node"><title>Node7</title>
<polygon fill="white" stroke="#bfbfbf" points="35.3972,-198.5 35.3972,-217.5 94.3972,-217.5 94.3972,-198.5 35.3972,-198.5"/>
<text text-anchor="middle" x="64.8972" y="-205.5" font-family="Helvetica,sans-Serif" font-size="10.00">functional</text>
</g>
<!-- Node4&#45;&gt;Node7 -->
<g id="edge6" class="edge"><title>Node4&#45;&gt;Node7</title>
<path fill="none" stroke="midnightblue" d="M336.59,-261.038C265.875,-251.169 150.922,-234.387 108.897,-224 105.041,-223.047 101.041,-221.906 97.0955,-220.684"/>
<polygon fill="midnightblue" stroke="midnightblue" points="98.1043,-217.332 87.5116,-217.543 95.9242,-223.984 98.1043,-217.332"/>
</g>
<!-- Node8 -->
<g id="node8" class="node"><title>Node8</title>
<polygon fill="white" stroke="#bfbfbf" points="288.897,-62.5 288.897,-81.5 342.897,-81.5 342.897,-62.5 288.897,-62.5"/>
<text text-anchor="middle" x="315.897" y="-69.5" font-family="Helvetica,sans-Serif" font-size="10.00">iostream</text>
</g>
<!-- Node4&#45;&gt;Node8 -->
<g id="edge7" class="edge"><title>Node4&#45;&gt;Node8</title>
<path fill="none" stroke="midnightblue" d="M336.799,-261.142C333.789,-260.752 330.808,-260.369 327.897,-260 260.847,-251.501 70.7704,-274.54 25.8972,-224 -51.9307,-136.344 184.515,-91.8483 278.845,-77.9203"/>
<polygon fill="midnightblue" stroke="midnightblue" points="279.432,-81.372 288.831,-76.4821 278.434,-74.4435 279.432,-81.372"/>
</g>
<!-- Node9 -->
<g id="node9" class="node"><title>Node9</title>
<polygon fill="white" stroke="#bfbfbf" points="151.397,-198.5 151.397,-217.5 198.397,-217.5 198.397,-198.5 151.397,-198.5"/>
<text text-anchor="middle" x="174.897" y="-205.5" font-family="Helvetica,sans-Serif" font-size="10.00">iterator</text>
</g>
<!-- Node4&#45;&gt;Node9 -->
<g id="edge8" class="edge"><title>Node4&#45;&gt;Node9</title>
<path fill="none" stroke="midnightblue" d="M347.781,-260.491C309.289,-252.884 253.779,-240.407 206.897,-224 204.986,-223.331 203.036,-222.586 201.089,-221.794"/>
<polygon fill="midnightblue" stroke="midnightblue" points="202.131,-218.429 191.569,-217.597 199.307,-224.834 202.131,-218.429"/>
</g>
<!-- Node10 -->
<g id="node10" class="node"><title>Node10</title>
<polygon fill="white" stroke="#bfbfbf" points="216.397,-198.5 216.397,-217.5 251.397,-217.5 251.397,-198.5 216.397,-198.5"/>
<text text-anchor="middle" x="233.897" y="-205.5" font-family="Helvetica,sans-Serif" font-size="10.00">map</text>
</g>
<!-- Node4&#45;&gt;Node10 -->
<g id="edge9" class="edge"><title>Node4&#45;&gt;Node10</title>
<path fill="none" stroke="midnightblue" d="M367.915,-260.483C341.607,-251.97 300.602,-238.144 265.897,-224 264.257,-223.331 262.579,-222.623 260.893,-221.892"/>
<polygon fill="midnightblue" stroke="midnightblue" points="261.913,-218.511 251.359,-217.581 259.029,-224.89 261.913,-218.511"/>
</g>
<!-- Node11 -->
<g id="node11" class="node"><title>Node11</title>
<polygon fill="white" stroke="#bfbfbf" points="360.897,-130.5 360.897,-149.5 412.897,-149.5 412.897,-130.5 360.897,-130.5"/>
<text text-anchor="middle" x="386.897" y="-137.5" font-family="Helvetica,sans-Serif" font-size="10.00">memory</text>
</g>
<!-- Node4&#45;&gt;Node11 -->
<g id="edge10" class="edge"><title>Node4&#45;&gt;Node11</title>
<path fill="none" stroke="midnightblue" d="M353.427,-260.497C333.311,-254.06 310.944,-242.952 298.897,-224 291.268,-211.997 291.796,-204.323 298.897,-192 310.135,-172.498 331.998,-159.773 351.12,-151.911"/>
<polygon fill="midnightblue" stroke="midnightblue" points="352.414,-155.164 360.513,-148.333 349.922,-148.622 352.414,-155.164"/>
</g>
<!-- Node12 -->
<g id="node12" class="node"><title>Node12</title>
<polygon fill="white" stroke="#bfbfbf" points="307.897,-198.5 307.897,-217.5 337.897,-217.5 337.897,-198.5 307.897,-198.5"/>
<text text-anchor="middle" x="322.897" y="-205.5" font-family="Helvetica,sans-Serif" font-size="10.00">set</text>
</g>
<!-- Node4&#45;&gt;Node12 -->
<g id="edge11" class="edge"><title>Node4&#45;&gt;Node12</title>
<path fill="none" stroke="midnightblue" d="M384.581,-260.403C373.247,-250.958 354.824,-235.606 341.058,-224.134"/>
<polygon fill="midnightblue" stroke="midnightblue" points="343.117,-221.294 333.194,-217.581 338.635,-226.671 343.117,-221.294"/>
</g>
<!-- Node13 -->
<g id="node13" class="node"><title>Node13</title>
<polygon fill="white" stroke="#bfbfbf" points="355.897,-198.5 355.897,-217.5 433.897,-217.5 433.897,-198.5 355.897,-198.5"/>
<text text-anchor="middle" x="394.897" y="-205.5" font-family="Helvetica,sans-Serif" font-size="10.00">unordered_set</text>
</g>
<!-- Node4&#45;&gt;Node13 -->
<g id="edge12" class="edge"><title>Node4&#45;&gt;Node13</title>
<path fill="none" stroke="midnightblue" d="M394.897,-260.403C394.897,-251.938 394.897,-238.728 394.897,-227.82"/>
<polygon fill="midnightblue" stroke="midnightblue" points="398.397,-227.581 394.897,-217.581 391.397,-227.581 398.397,-227.581"/>
</g>
<!-- Node14 -->
<g id="node14" class="node"><title>Node14</title>
<polygon fill="white" stroke="#bfbfbf" points="451.897,-198.5 451.897,-217.5 491.897,-217.5 491.897,-198.5 451.897,-198.5"/>
<text text-anchor="middle" x="471.897" y="-205.5" font-family="Helvetica,sans-Serif" font-size="10.00">utility</text>
</g>
<!-- Node4&#45;&gt;Node14 -->
<g id="edge13" class="edge"><title>Node4&#45;&gt;Node14</title>
<path fill="none" stroke="midnightblue" d="M405.929,-260.403C418.166,-250.869 438.126,-235.315 452.89,-223.811"/>
<polygon fill="midnightblue" stroke="midnightblue" points="455.149,-226.488 460.885,-217.581 450.846,-220.966 455.149,-226.488"/>
</g>
<!-- Node15 -->
<g id="node15" class="node"><title>Node15</title>
<polygon fill="white" stroke="#bfbfbf" points="509.897,-198.5 509.897,-217.5 553.897,-217.5 553.897,-198.5 509.897,-198.5"/>
<text text-anchor="middle" x="531.897" y="-205.5" font-family="Helvetica,sans-Serif" font-size="10.00">vector</text>
</g>
<!-- Node4&#45;&gt;Node15 -->
<g id="edge14" class="edge"><title>Node4&#45;&gt;Node15</title>
<path fill="none" stroke="midnightblue" d="M416.148,-260.339C437.645,-251.493 471.769,-237.22 500.897,-224 502.292,-223.367 503.719,-222.71 505.156,-222.041"/>
<polygon fill="midnightblue" stroke="midnightblue" points="507.057,-225.013 514.589,-217.561 504.054,-218.69 507.057,-225.013"/>
</g>
<!-- Node16 -->
<g id="node16" class="node"><title>Node16</title>
<polygon fill="white" stroke="#bfbfbf" points="775.897,-0.5 775.897,-19.5 879.897,-19.5 879.897,-0.5 775.897,-0.5"/>
<text text-anchor="middle" x="827.897" y="-7.5" font-family="Helvetica,sans-Serif" font-size="10.00">shad/config/config.h</text>
</g>
<!-- Node4&#45;&gt;Node16 -->
<g id="edge15" class="edge"><title>Node4&#45;&gt;Node16</title>
<path fill="none" stroke="midnightblue" d="M336.803,-261.117C333.792,-260.733 330.809,-260.359 327.897,-260 256.655,-251.221 54.7417,-277.51 6.89717,-224 -13.4575,-201.235 17.1473,-135.195 28.8972,-124 134.454,-23.426 596.55,-11.6968 765.633,-10.8262"/>
<polygon fill="midnightblue" stroke="midnightblue" points="765.877,-14.3254 775.862,-10.7851 765.848,-7.32545 765.877,-14.3254"/>
</g>
<!-- Node17 -->
<g id="node17" class="node"><title>Node17</title>
<g id="a_node17"><a xlink:href="handle_8h.html" target="_top" xlink:title="shad/runtime/handle.h">
<polygon fill="white" stroke="black" points="951.397,-130.5 951.397,-149.5 1064.4,-149.5 1064.4,-130.5 951.397,-130.5"/>
<text text-anchor="middle" x="1007.9" y="-137.5" font-family="Helvetica,sans-Serif" font-size="10.00">shad/runtime/handle.h</text>
</a>
</g>
</g>
<!-- Node4&#45;&gt;Node17 -->
<g id="edge16" class="edge"><title>Node4&#45;&gt;Node17</title>
<path fill="none" stroke="midnightblue" d="M453.177,-267.69C533.502,-264.741 682.225,-255.157 804.897,-224 871.295,-207.136 944.634,-172.979 982.36,-154.166"/>
<polygon fill="midnightblue" stroke="midnightblue" points="984.236,-157.14 991.591,-149.513 981.085,-150.889 984.236,-157.14"/>
</g>
<!-- Node19 -->
<g id="node19" class="node"><title>Node19</title>
<g id="a_node19"><a xlink:href="mapping__traits_8h.html" target="_top" xlink:title="shad/runtime/mapping\l_traits.h">
<polygon fill="white" stroke="black" points="957.397,-57 957.397,-87 1070.4,-87 1070.4,-57 957.397,-57"/>
<text text-anchor="start" x="965.397" y="-75" font-family="Helvetica,sans-Serif" font-size="10.00">shad/runtime/mapping</text>
<text text-anchor="middle" x="1013.9" y="-64" font-family="Helvetica,sans-Serif" font-size="10.00">_traits.h</text>
</a>
</g>
</g>
<!-- Node4&#45;&gt;Node19 -->
<g id="edge29" class="edge"><title>Node4&#45;&gt;Node19</title>
<path fill="none" stroke="midnightblue" d="M453.028,-269.147C603.772,-268.099 1000.57,-255.745 1072.9,-156 1088.36,-134.679 1065.85,-110.067 1044.32,-93.2129"/>
<polygon fill="midnightblue" stroke="midnightblue" points="1046.31,-90.3293 1036.2,-87.1565 1042.12,-95.9406 1046.31,-90.3293"/>
</g>
<!-- Node22 -->
<g id="node22" class="node"><title>Node22</title>
<g id="a_node22"><a xlink:href="locality_8h.html" target="_top" xlink:title="shad/runtime/locality.h">
<polygon fill="white" stroke="black" points="681.397,-130.5 681.397,-149.5 796.397,-149.5 796.397,-130.5 681.397,-130.5"/>
<text text-anchor="middle" x="738.897" y="-137.5" font-family="Helvetica,sans-Serif" font-size="10.00">shad/runtime/locality.h</text>
</a>
</g>
</g>
<!-- Node4&#45;&gt;Node22 -->
<g id="edge23" class="edge"><title>Node4&#45;&gt;Node22</title>
<path fill="none" stroke="midnightblue" d="M453.134,-265.678C547.903,-259.672 726.898,-245.591 745.897,-224 761.462,-206.312 754.379,-177.519 747.172,-158.921"/>
<polygon fill="midnightblue" stroke="midnightblue" points="750.32,-157.379 743.191,-149.541 743.876,-160.114 750.32,-157.379"/>
</g>
<!-- Node23 -->
<g id="node23" class="node"><title>Node23</title>
<g id="a_node23"><a xlink:href="available__mappings_8h.html" target="_top" xlink:title="shad/runtime/mappings\l/available_mappings.h">
<polygon fill="white" stroke="black" points="814.897,-125 814.897,-155 932.897,-155 932.897,-125 814.897,-125"/>
<text text-anchor="start" x="822.897" y="-143" font-family="Helvetica,sans-Serif" font-size="10.00">shad/runtime/mappings</text>
<text text-anchor="middle" x="873.897" y="-132" font-family="Helvetica,sans-Serif" font-size="10.00">/available_mappings.h</text>
</a>
</g>
</g>
<!-- Node4&#45;&gt;Node23 -->
<g id="edge30" class="edge"><title>Node4&#45;&gt;Node23</title>
<path fill="none" stroke="midnightblue" d="M453.149,-265.641C542.73,-259.852 709.743,-246.408 764.897,-224 799.483,-209.948 832.63,-181.929 853.104,-162.35"/>
<polygon fill="midnightblue" stroke="midnightblue" points="855.604,-164.801 860.306,-155.307 850.71,-159.796 855.604,-164.801"/>
</g>
<!-- Node24 -->
<g id="node24" class="node"><title>Node24</title>
<g id="a_node24"><a xlink:href="synchronous__interface_8h.html" target="_top" xlink:title="shad/runtime/synchronous\l_interface.h">
<polygon fill="white" stroke="black" points="572.397,-193 572.397,-223 703.397,-223 703.397,-193 572.397,-193"/>
<text text-anchor="start" x="580.397" y="-211" font-family="Helvetica,sans-Serif" font-size="10.00">shad/runtime/synchronous</text>
<text text-anchor="middle" x="637.897" y="-200" font-family="Helvetica,sans-Serif" font-size="10.00">_interface.h</text>
</a>
</g>
</g>
<!-- Node4&#45;&gt;Node24 -->
<g id="edge32" class="edge"><title>Node4&#45;&gt;Node24</title>
<path fill="none" stroke="midnightblue" d="M429.455,-260.467C466.199,-251.395 525.222,-236.821 571.096,-225.494"/>
<polygon fill="midnightblue" stroke="midnightblue" points="572.099,-228.852 580.968,-223.057 570.421,-222.056 572.099,-228.852"/>
</g>
<!-- Node17&#45;&gt;Node16 -->
<g id="edge18" class="edge"><title>Node17&#45;&gt;Node16</title>
<path fill="none" stroke="midnightblue" d="M997.894,-130.33C974.828,-110.369 919.175,-62.379 909.897,-56 892.335,-43.9256 871.228,-32.4043 854.827,-24.0424"/>
<polygon fill="midnightblue" stroke="midnightblue" points="856.284,-20.8578 845.776,-19.5039 853.147,-27.1152 856.284,-20.8578"/>
</g>
<!-- Node18 -->
<g id="node18" class="node"><title>Node18</title>
<polygon fill="white" stroke="#bfbfbf" points="1088.9,-62.5 1088.9,-81.5 1150.9,-81.5 1150.9,-62.5 1088.9,-62.5"/>
<text text-anchor="middle" x="1119.9" y="-69.5" font-family="Helvetica,sans-Serif" font-size="10.00">type_traits</text>
</g>
<!-- Node17&#45;&gt;Node18 -->
<g id="edge17" class="edge"><title>Node17&#45;&gt;Node18</title>
<path fill="none" stroke="midnightblue" d="M1022.54,-130.372C1041.32,-119.304 1074.13,-99.9724 1096.41,-86.838"/>
<polygon fill="midnightblue" stroke="midnightblue" points="1098.41,-89.7228 1105.25,-81.6305 1094.86,-83.692 1098.41,-89.7228"/>
</g>
<!-- Node17&#45;&gt;Node19 -->
<g id="edge19" class="edge"><title>Node17&#45;&gt;Node19</title>
<path fill="none" stroke="midnightblue" d="M1008.68,-130.372C1009.45,-121.971 1010.64,-108.811 1011.7,-97.2126"/>
<polygon fill="midnightblue" stroke="midnightblue" points="1015.19,-97.4573 1012.61,-87.1815 1008.22,-96.8235 1015.19,-97.4573"/>
</g>
<!-- Node21 -->
<g id="node21" class="node"><title>Node21</title>
<g id="a_node21"><a xlink:href="available__traits__mappings_8h.html" target="_top" xlink:title="shad/runtime/mappings\l/available_traits_mappings.h">
<polygon fill="white" stroke="black" points="760.897,-57 760.897,-87 900.897,-87 900.897,-57 760.897,-57"/>
<text text-anchor="start" x="768.897" y="-75" font-family="Helvetica,sans-Serif" font-size="10.00">shad/runtime/mappings</text>
<text text-anchor="middle" x="830.897" y="-64" font-family="Helvetica,sans-Serif" font-size="10.00">/available_traits_mappings.h</text>
</a>
</g>
</g>
<!-- Node17&#45;&gt;Node21 -->
<g id="edge22" class="edge"><title>Node17&#45;&gt;Node21</title>
<path fill="none" stroke="midnightblue" d="M984.758,-130.372C957.777,-120.311 912.483,-103.422 878.007,-90.5662"/>
<polygon fill="midnightblue" stroke="midnightblue" points="879.186,-87.2707 868.593,-87.0562 876.74,-93.8295 879.186,-87.2707"/>
</g>
<!-- Node19&#45;&gt;Node16 -->
<g id="edge21" class="edge"><title>Node19&#45;&gt;Node16</title>
<path fill="none" stroke="midnightblue" d="M970.288,-56.9327C937.971,-46.5077 894.444,-32.4667 864.054,-22.6635"/>
<polygon fill="midnightblue" stroke="midnightblue" points="864.878,-19.2518 854.287,-19.5127 862.729,-25.9138 864.878,-19.2518"/>
</g>
<!-- Node20 -->
<g id="node20" class="node"><title>Node20</title>
<polygon fill="white" stroke="#bfbfbf" points="993.397,-0.5 993.397,-19.5 1034.4,-19.5 1034.4,-0.5 993.397,-0.5"/>
<text text-anchor="middle" x="1013.9" y="-7.5" font-family="Helvetica,sans-Serif" font-size="10.00">string</text>
</g>
<!-- Node19&#45;&gt;Node20 -->
<g id="edge20" class="edge"><title>Node19&#45;&gt;Node20</title>
<path fill="none" stroke="midnightblue" d="M1013.9,-56.7808C1013.9,-48.7812 1013.9,-38.6887 1013.9,-30.0168"/>
<polygon fill="midnightblue" stroke="midnightblue" points="1017.4,-29.7305 1013.9,-19.7305 1010.4,-29.7306 1017.4,-29.7305"/>
</g>
<!-- Node22&#45;&gt;Node6 -->
<g id="edge24" class="edge"><title>Node22&#45;&gt;Node6</title>
<path fill="none" stroke="midnightblue" d="M727.654,-130.372C713.619,-119.6 689.385,-101.002 672.321,-87.9065"/>
<polygon fill="midnightblue" stroke="midnightblue" points="674.207,-84.9421 664.143,-81.6305 669.945,-90.4953 674.207,-84.9421"/>
</g>
<!-- Node22&#45;&gt;Node8 -->
<g id="edge25" class="edge"><title>Node22&#45;&gt;Node8</title>
<path fill="none" stroke="midnightblue" d="M684.031,-130.439C596.496,-116.781 427.523,-90.4167 352.883,-78.7708"/>
<polygon fill="midnightblue" stroke="midnightblue" points="353.415,-75.3116 342.995,-77.228 352.336,-82.2279 353.415,-75.3116"/>
</g>
<!-- Node22&#45;&gt;Node16 -->
<g id="edge26" class="edge"><title>Node22&#45;&gt;Node16</title>
<path fill="none" stroke="midnightblue" d="M737.982,-130.377C736.727,-114.277 736.183,-79.1791 751.897,-56 761.709,-41.5281 777.857,-31.0206 792.751,-23.817"/>
<polygon fill="midnightblue" stroke="midnightblue" points="794.581,-26.8324 802.278,-19.5518 791.721,-20.4434 794.581,-26.8324"/>
</g>
<!-- Node22&#45;&gt;Node19 -->
<g id="edge27" class="edge"><title>Node22&#45;&gt;Node19</title>
<path fill="none" stroke="midnightblue" d="M774.567,-130.439C818.21,-119.965 892.993,-102.017 947.372,-88.9661"/>
<polygon fill="midnightblue" stroke="midnightblue" points="948.369,-92.3263 957.276,-86.5891 946.735,-85.5196 948.369,-92.3263"/>
</g>
<!-- Node22&#45;&gt;Node21 -->
<g id="edge28" class="edge"><title>Node22&#45;&gt;Node21</title>
<path fill="none" stroke="midnightblue" d="M750.925,-130.372C764.068,-120.943 785.571,-105.517 802.971,-93.0338"/>
<polygon fill="midnightblue" stroke="midnightblue" points="805.044,-95.8545 811.129,-87.1815 800.963,-90.1667 805.044,-95.8545"/>
</g>
<!-- Node23&#45;&gt;Node21 -->
<g id="edge31" class="edge"><title>Node23&#45;&gt;Node21</title>
<path fill="none" stroke="midnightblue" d="M864.567,-124.679C859.101,-116.29 852.071,-105.499 845.849,-95.9495"/>
<polygon fill="midnightblue" stroke="midnightblue" points="848.601,-93.7611 840.209,-87.2931 842.736,-97.5823 848.601,-93.7611"/>
</g>
<!-- Node24&#45;&gt;Node5 -->
<g id="edge33" class="edge"><title>Node24&#45;&gt;Node5</title>
<path fill="none" stroke="midnightblue" d="M572.022,-193.802C568.601,-193.178 565.21,-192.574 561.897,-192 449.784,-172.588 316.215,-153.964 254.415,-145.603"/>
<polygon fill="midnightblue" stroke="midnightblue" points="254.806,-142.124 244.428,-144.256 253.87,-149.061 254.806,-142.124"/>
</g>
<!-- Node24&#45;&gt;Node6 -->
<g id="edge34" class="edge"><title>Node24&#45;&gt;Node6</title>
<path fill="none" stroke="midnightblue" d="M636.973,-192.818C636.144,-176.227 635.519,-147.973 638.897,-124 640.461,-112.902 643.716,-100.793 646.695,-91.1596"/>
<polygon fill="midnightblue" stroke="midnightblue" points="650.065,-92.1137 649.835,-81.5213 643.409,-89.9453 650.065,-92.1137"/>
</g>
<!-- Node24&#45;&gt;Node11 -->
<g id="edge35" class="edge"><title>Node24&#45;&gt;Node11</title>
<path fill="none" stroke="midnightblue" d="M584.359,-192.922C535.678,-180.122 465.177,-161.584 422.907,-150.469"/>
<polygon fill="midnightblue" stroke="midnightblue" points="423.616,-147.036 413.055,-147.878 421.836,-153.806 423.616,-147.036"/>
</g>
<!-- Node24&#45;&gt;Node22 -->
<g id="edge36" class="edge"><title>Node24&#45;&gt;Node22</title>
<path fill="none" stroke="midnightblue" d="M659.813,-192.679C676.75,-181.611 700.084,-166.363 717.014,-155.3"/>
<polygon fill="midnightblue" stroke="midnightblue" points="719.222,-158.038 725.679,-149.638 715.393,-152.178 719.222,-158.038"/>
</g>
</g>
</svg>
