<?xml version="1.0" encoding="UTF-8" standalone="no"?>
<!DOCTYPE svg PUBLIC "-//W3C//DTD SVG 1.1//EN"
 "http://www.w3.org/Graphics/SVG/1.1/DTD/svg11.dtd">
<!-- Generated by graphviz version 2.36.0 (20140111.2315)
 -->
<!-- Title: include/shad/data_structures/object_identifier.h Pages: 1 -->
<svg width="1088pt" height="254pt"
 viewBox="0.00 0.00 1088.00 254.00" xmlns="http://www.w3.org/2000/svg" xmlns:xlink="http://www.w3.org/1999/xlink">
<g id="graph0" class="graph" transform="scale(1 1) rotate(0) translate(4 250)">
<title>include/shad/data_structures/object_identifier.h</title>
<polygon fill="white" stroke="none" points="-4,4 -4,-250 1084,-250 1084,4 -4,4"/>
<!-- Node1 -->
<g id="node1" class="node"><title>Node1</title>
<polygon fill="#bfbfbf" stroke="black" points="544,-215 544,-245 686,-245 686,-215 544,-215"/>
<text text-anchor="start" x="552" y="-233" font-family="Helvetica,sans-Serif" font-size="10.00">include/shad/data_structures</text>
<text text-anchor="middle" x="615" y="-222" font-family="Helvetica,sans-Serif" font-size="10.00">/object_identifier.h</text>
</g>
<!-- Node2 -->
<g id="node2" class="node"><title>Node2</title>
<g id="a_node2"><a xlink:href="abstract__data__structure_8h.html" target="_top" xlink:title="include/shad/data_structures\l/abstract_data_structure.h">
<polygon fill="white" stroke="black" points="464,-147 464,-177 606,-177 606,-147 464,-147"/>
<text text-anchor="start" x="472" y="-165" font-family="Helvetica,sans-Serif" font-size="10.00">include/shad/data_structures</text>
<text text-anchor="middle" x="535" y="-154" font-family="Helvetica,sans-Serif" font-size="10.00">/abstract_data_structure.h</text>
</a>
</g>
</g>
<!-- Node1&#45;&gt;Node2 -->
<g id="edge1" class="edge"><title>Node1&#45;&gt;Node2</title>
<path fill="none" stroke="midnightblue" d="M589.92,-208.309C577.597,-198.143 563.068,-186.156 552.05,-177.066"/>
<polygon fill="midnightblue" stroke="midnightblue" points="587.7,-211.015 597.641,-214.679 592.155,-205.615 587.7,-211.015"/>
</g>
<!-- Node14 -->
<g id="node14" class="node"><title>Node14</title>
<g id="a_node14"><a xlink:href="buffer_8h.html" target="_top" xlink:title="include/shad/data_structures\l/buffer.h">
<polygon fill="white" stroke="black" points="624,-147 624,-177 766,-177 766,-147 624,-147"/>
<text text-anchor="start" x="632" y="-165" font-family="Helvetica,sans-Serif" font-size="10.00">include/shad/data_structures</text>
<text text-anchor="middle" x="695" y="-154" font-family="Helvetica,sans-Serif" font-size="10.00">/buffer.h</text>
</a>
</g>
</g>
<!-- Node1&#45;&gt;Node14 -->
<g id="edge15" class="edge"><title>Node1&#45;&gt;Node14</title>
<path fill="none" stroke="midnightblue" d="M640.08,-208.309C652.403,-198.143 666.932,-186.156 677.95,-177.066"/>
<polygon fill="midnightblue" stroke="midnightblue" points="637.845,-205.615 632.359,-214.679 642.3,-211.015 637.845,-205.615"/>
</g>
<!-- Node3 -->
<g id="node3" class="node"><title>Node3</title>
<g id="a_node3"><a xlink:href="core_2array_8h.html" target="_top" xlink:title="include/shad/core/array.h">
<polygon fill="white" stroke="black" points="160,-84.5 160,-103.5 286,-103.5 286,-84.5 160,-84.5"/>
<text text-anchor="middle" x="223" y="-91.5" font-family="Helvetica,sans-Serif" font-size="10.00">include/shad/core/array.h</text>
</a>
</g>
</g>
<!-- Node2&#45;&gt;Node3 -->
<g id="edge2" class="edge"><title>Node2&#45;&gt;Node3</title>
<path fill="none" stroke="midnightblue" d="M458.368,-144.789C396.68,-131.74 312.423,-113.916 263.247,-103.514"/>
<polygon fill="midnightblue" stroke="midnightblue" points="457.943,-148.277 468.451,-146.922 459.392,-141.428 457.943,-148.277"/>
</g>
<!-- Node4 -->
<g id="node4" class="node"><title>Node4</title>
<g id="a_node4"><a xlink:href="data__structures_2array_8h.html" target="_top" xlink:title="include/shad/data_structures\l/array.h">
<polygon fill="white" stroke="black" points="464,-79 464,-109 606,-109 606,-79 464,-79"/>
<text text-anchor="start" x="472" y="-97" font-family="Helvetica,sans-Serif" font-size="10.00">include/shad/data_structures</text>
<text text-anchor="middle" x="535" y="-86" font-family="Helvetica,sans-Serif" font-size="10.00">/array.h</text>
</a>
</g>
</g>
<!-- Node2&#45;&gt;Node4 -->
<g id="edge3" class="edge"><title>Node2&#45;&gt;Node4</title>
<path fill="none" stroke="midnightblue" d="M535,-136.532C535,-127.361 535,-117.245 535,-109.293"/>
<polygon fill="midnightblue" stroke="midnightblue" points="531.5,-136.679 535,-146.679 538.5,-136.679 531.5,-136.679"/>
</g>
<!-- Node6 -->
<g id="node6" class="node"><title>Node6</title>
<g id="a_node6"><a xlink:href="hashmap_8h.html" target="_top" xlink:title="include/shad/data_structures\l/hashmap.h">
<polygon fill="white" stroke="black" points="938,-79 938,-109 1080,-109 1080,-79 938,-79"/>
<text text-anchor="start" x="946" y="-97" font-family="Helvetica,sans-Serif" font-size="10.00">include/shad/data_structures</text>
<text text-anchor="middle" x="1009" y="-86" font-family="Helvetica,sans-Serif" font-size="10.00">/hashmap.h</text>
</a>
</g>
</g>
<!-- Node2&#45;&gt;Node6 -->
<g id="edge5" class="edge"><title>Node2&#45;&gt;Node6</title>
<path fill="none" stroke="midnightblue" d="M616.269,-145.879C755.651,-125.306 793.358,-130.466 929,-110 931.934,-109.557 934.925,-109.086 937.945,-108.595"/>
<polygon fill="midnightblue" stroke="midnightblue" points="615.428,-142.466 606.055,-147.405 616.463,-149.389 615.428,-142.466"/>
</g>
<!-- Node8 -->
<g id="node8" class="node"><title>Node8</title>
<g id="a_node8"><a xlink:href="one__per__locality_8h.html" target="_top" xlink:title="include/shad/data_structures\l/one_per_locality.h">
<polygon fill="white" stroke="black" points="0,-79 0,-109 142,-109 142,-79 0,-79"/>
<text text-anchor="start" x="8" y="-97" font-family="Helvetica,sans-Serif" font-size="10.00">include/shad/data_structures</text>
<text text-anchor="middle" x="71" y="-86" font-family="Helvetica,sans-Serif" font-size="10.00">/one_per_locality.h</text>
</a>
</g>
</g>
<!-- Node2&#45;&gt;Node8 -->
<g id="edge7" class="edge"><title>Node2&#45;&gt;Node8</title>
<path fill="none" stroke="midnightblue" d="M453.484,-151.452C375.625,-142.031 255.069,-126.655 151,-110 148.07,-109.531 145.082,-109.038 142.066,-108.528"/>
<polygon fill="midnightblue" stroke="midnightblue" points="453.36,-154.963 463.707,-152.685 454.198,-148.013 453.36,-154.963"/>
</g>
<!-- Node9 -->
<g id="node9" class="node"><title>Node9</title>
<g id="a_node9"><a xlink:href="set_8h.html" target="_top" xlink:title="include/shad/data_structures\l/set.h">
<polygon fill="white" stroke="black" points="304,-79 304,-109 446,-109 446,-79 304,-79"/>
<text text-anchor="start" x="312" y="-97" font-family="Helvetica,sans-Serif" font-size="10.00">include/shad/data_structures</text>
<text text-anchor="middle" x="375" y="-86" font-family="Helvetica,sans-Serif" font-size="10.00">/set.h</text>
</a>
</g>
</g>
<!-- Node2&#45;&gt;Node9 -->
<g id="edge8" class="edge"><title>Node2&#45;&gt;Node9</title>
<path fill="none" stroke="midnightblue" d="M491.097,-142.89C465.207,-132.21 432.935,-118.898 408.992,-109.022"/>
<polygon fill="midnightblue" stroke="midnightblue" points="490.097,-146.264 500.676,-146.841 492.766,-139.792 490.097,-146.264"/>
</g>
<!-- Node11 -->
<g id="node11" class="node"><title>Node11</title>
<g id="a_node11"><a xlink:href="vector_8h.html" target="_top" xlink:title="include/shad/data_structures\l/vector.h">
<polygon fill="white" stroke="black" points="624,-79 624,-109 766,-109 766,-79 624,-79"/>
<text text-anchor="start" x="632" y="-97" font-family="Helvetica,sans-Serif" font-size="10.00">include/shad/data_structures</text>
<text text-anchor="middle" x="695" y="-86" font-family="Helvetica,sans-Serif" font-size="10.00">/vector.h</text>
</a>
</g>
</g>
<!-- Node2&#45;&gt;Node11 -->
<g id="edge11" class="edge"><title>Node2&#45;&gt;Node11</title>
<path fill="none" stroke="midnightblue" d="M578.903,-142.89C604.793,-132.21 637.065,-118.898 661.008,-109.022"/>
<polygon fill="midnightblue" stroke="midnightblue" points="577.234,-139.792 569.324,-146.841 579.903,-146.264 577.234,-139.792"/>
</g>
<!-- Node12 -->
<g id="node12" class="node"><title>Node12</title>
<g id="a_node12"><a xlink:href="edge__index_8h.html" target="_top" xlink:title="include/shad/extensions\l/graph_library/edge_index.h">
<polygon fill="white" stroke="black" points="784,-79 784,-109 920,-109 920,-79 784,-79"/>
<text text-anchor="start" x="792" y="-97" font-family="Helvetica,sans-Serif" font-size="10.00">include/shad/extensions</text>
<text text-anchor="middle" x="852" y="-86" font-family="Helvetica,sans-Serif" font-size="10.00">/graph_library/edge_index.h</text>
</a>
</g>
</g>
<!-- Node2&#45;&gt;Node12 -->
<g id="edge12" class="edge"><title>Node2&#45;&gt;Node12</title>
<path fill="none" stroke="midnightblue" d="M612.58,-144.848C665.216,-133.889 734.12,-119.543 784.488,-109.056"/>
<polygon fill="midnightblue" stroke="midnightblue" points="611.692,-141.457 602.616,-146.922 613.119,-148.31 611.692,-141.457"/>
</g>
<!-- Node5 -->
<g id="node5" class="node"><title>Node5</title>
<g id="a_node5"><a xlink:href="sssp_8h.html" target="_top" xlink:title="include/shad/extensions\l/graph_library/algorithms\l/sssp.h">
<polygon fill="white" stroke="black" points="473.5,-0.5 473.5,-41.5 596.5,-41.5 596.5,-0.5 473.5,-0.5"/>
<text text-anchor="start" x="481.5" y="-29.5" font-family="Helvetica,sans-Serif" font-size="10.00">include/shad/extensions</text>
<text text-anchor="start" x="481.5" y="-18.5" font-family="Helvetica,sans-Serif" font-size="10.00">/graph_library/algorithms</text>
<text text-anchor="middle" x="535" y="-7.5" font-family="Helvetica,sans-Serif" font-size="10.00">/sssp.h</text>
</a>
</g>
</g>
<!-- Node4&#45;&gt;Node5 -->
<g id="edge4" class="edge"><title>Node4&#45;&gt;Node5</title>
<path fill="none" stroke="midnightblue" d="M535,-68.8534C535,-59.9872 535,-50.065 535,-41.642"/>
<polygon fill="midnightblue" stroke="midnightblue" points="531.5,-68.9727 535,-78.9727 538.5,-68.9727 531.5,-68.9727"/>
</g>
<!-- Node7 -->
<g id="node7" class="node"><title>Node7</title>
<g id="a_node7"><a xlink:href="unordered__map_8h.html" target="_top" xlink:title="include/shad/core/unordered\l_map.h">
<polygon fill="white" stroke="black" points="939.5,-6 939.5,-36 1078.5,-36 1078.5,-6 939.5,-6"/>
<text text-anchor="start" x="947.5" y="-24" font-family="Helvetica,sans-Serif" font-size="10.00">include/shad/core/unordered</text>
<text text-anchor="middle" x="1009" y="-13" font-family="Helvetica,sans-Serif" font-size="10.00">_map.h</text>
</a>
</g>
</g>
<!-- Node6&#45;&gt;Node7 -->
<g id="edge6" class="edge"><title>Node6&#45;&gt;Node7</title>
<path fill="none" stroke="midnightblue" d="M1009,-68.8976C1009,-58.1314 1009,-45.8005 1009,-36.4856"/>
<polygon fill="midnightblue" stroke="midnightblue" points="1005.5,-68.9727 1009,-78.9727 1012.5,-68.9727 1005.5,-68.9727"/>
</g>
<!-- Node9&#45;&gt;Node5 -->
<g id="edge10" class="edge"><title>Node9&#45;&gt;Node5</title>
<path fill="none" stroke="midnightblue" d="M415.764,-74.9112C438.77,-64.7023 467.529,-51.9401 491.04,-41.5075"/>
<polygon fill="midnightblue" stroke="midnightblue" points="414.332,-71.7174 406.611,-78.9727 417.171,-78.1157 414.332,-71.7174"/>
</g>
<!-- Node10 -->
<g id="node10" class="node"><title>Node10</title>
<g id="a_node10"><a xlink:href="unordered__set_8h.html" target="_top" xlink:title="include/shad/core/unordered\l_set.h">
<polygon fill="white" stroke="black" points="305.5,-6 305.5,-36 444.5,-36 444.5,-6 305.5,-6"/>
<text text-anchor="start" x="313.5" y="-24" font-family="Helvetica,sans-Serif" font-size="10.00">include/shad/core/unordered</text>
<text text-anchor="middle" x="375" y="-13" font-family="Helvetica,sans-Serif" font-size="10.00">_set.h</text>
</a>
</g>
</g>
<!-- Node9&#45;&gt;Node10 -->
<g id="edge9" class="edge"><title>Node9&#45;&gt;Node10</title>
<path fill="none" stroke="midnightblue" d="M375,-68.8976C375,-58.1314 375,-45.8005 375,-36.4856"/>
<polygon fill="midnightblue" stroke="midnightblue" points="371.5,-68.9727 375,-78.9727 378.5,-68.9727 371.5,-68.9727"/>
</g>
<!-- Node12&#45;&gt;Node5 -->
<g id="edge13" class="edge"><title>Node12&#45;&gt;Node5</title>
<path fill="none" stroke="midnightblue" d="M779.303,-76.7177C724.089,-64.3512 648.991,-47.5312 596.689,-35.8168"/>
<polygon fill="midnightblue" stroke="midnightblue" points="778.848,-80.2024 789.371,-78.9727 780.378,-73.3716 778.848,-80.2024"/>
</g>
<!-- Node13 -->
<g id="node13" class="node"><title>Node13</title>
<g id="a_node13"><a xlink:href="attributed__edge__index_8h.html" target="_top" xlink:title="include/shad/extensions\l/graph_library/attributed\l_edge_index.h">
<polygon fill="white" stroke="black" points="791,-0.5 791,-41.5 913,-41.5 913,-0.5 791,-0.5"/>
<text text-anchor="start" x="799" y="-29.5" font-family="Helvetica,sans-Serif" font-size="10.00">include/shad/extensions</text>
<text text-anchor="start" x="799" y="-18.5" font-family="Helvetica,sans-Serif" font-size="10.00">/graph_library/attributed</text>
<text text-anchor="middle" x="852" y="-7.5" font-family="Helvetica,sans-Serif" font-size="10.00">_edge_index.h</text>
</a>
</g>
</g>
<!-- Node12&#45;&gt;Node13 -->
<g id="edge14" class="edge"><title>Node12&#45;&gt;Node13</title>
<path fill="none" stroke="midnightblue" d="M852,-68.8534C852,-59.9872 852,-50.065 852,-41.642"/>
<polygon fill="midnightblue" stroke="midnightblue" points="848.5,-68.9727 852,-78.9727 855.5,-68.9727 848.5,-68.9727"/>
</g>
<!-- Node14&#45;&gt;Node4 -->
<g id="edge16" class="edge"><title>Node14&#45;&gt;Node4</title>
<path fill="none" stroke="midnightblue" d="M651.097,-142.89C625.207,-132.21 592.935,-118.898 568.992,-109.022"/>
<polygon fill="midnightblue" stroke="midnightblue" points="650.097,-146.264 660.676,-146.841 652.766,-139.792 650.097,-146.264"/>
</g>
<!-- Node14&#45;&gt;Node6 -->
<g id="edge17" class="edge"><title>Node14&#45;&gt;Node6</title>
<path fill="none" stroke="midnightblue" d="M771.846,-144.848C823.983,-133.889 892.236,-119.543 942.127,-109.056"/>
<polygon fill="midnightblue" stroke="midnightblue" points="771.042,-141.44 761.976,-146.922 772.482,-148.29 771.042,-141.44"/>
</g>
<!-- Node14&#45;&gt;Node9 -->
<g id="edge18" class="edge"><title>Node14&#45;&gt;Node9</title>
<path fill="none" stroke="midnightblue" d="M616.685,-144.848C563.552,-133.889 493.995,-119.543 443.151,-109.056"/>
<polygon fill="midnightblue" stroke="midnightblue" points="616.244,-148.33 626.744,-146.922 617.658,-141.474 616.244,-148.33"/>
</g>
<!-- Node14&#45;&gt;Node11 -->
<g id="edge19" class="edge"><title>Node14&#45;&gt;Node11</title>
<path fill="none" stroke="midnightblue" d="M695,-136.532C695,-127.361 695,-117.245 695,-109.293"/>
<polygon fill="midnightblue" stroke="midnightblue" points="691.5,-136.679 695,-146.679 698.5,-136.679 691.5,-136.679"/>
</g>
<!-- Node14&#45;&gt;Node12 -->
<g id="edge20" class="edge"><title>Node14&#45;&gt;Node12</title>
<path fill="none" stroke="midnightblue" d="M738.08,-142.89C763.485,-132.21 795.151,-118.898 818.645,-109.022"/>
<polygon fill="midnightblue" stroke="midnightblue" points="736.543,-139.739 728.68,-146.841 739.255,-146.192 736.543,-139.739"/>
</g>
</g>
</svg>
