<?xml version="1.0" encoding="UTF-8" standalone="no"?>
<!DOCTYPE svg PUBLIC "-//W3C//DTD SVG 1.1//EN"
 "http://www.w3.org/Graphics/SVG/1.1/DTD/svg11.dtd">
<!-- Generated by graphviz version 2.36.0 (20140111.2315)
 -->
<!-- Title: include/shad/data_structures/one_per_locality.h Pages: 1 -->
<svg width="988pt" height="492pt"
 viewBox="0.00 0.00 988.00 492.00" xmlns="http://www.w3.org/2000/svg" xmlns:xlink="http://www.w3.org/1999/xlink">
<g id="graph0" class="graph" transform="scale(1 1) rotate(0) translate(4 488)">
<title>include/shad/data_structures/one_per_locality.h</title>
<polygon fill="white" stroke="none" points="-4,4 -4,-488 984,-488 984,4 -4,4"/>
<!-- Node1 -->
<g id="node1" class="node"><title>Node1</title>
<polygon fill="#bfbfbf" stroke="black" points="334,-453 334,-483 476,-483 476,-453 334,-453"/>
<text text-anchor="start" x="342" y="-471" font-family="Helvetica,sans-Serif" font-size="10.00">include/shad/data_structures</text>
<text text-anchor="middle" x="405" y="-460" font-family="Helvetica,sans-Serif" font-size="10.00">/one_per_locality.h</text>
</g>
<!-- Node2 -->
<g id="node2" class="node"><title>Node2</title>
<g id="a_node2"><a xlink:href="abstract__data__structure_8h.html" target="_top" xlink:title="shad/data_structures\l/abstract_data_structure.h">
<polygon fill="white" stroke="black" points="339.5,-385 339.5,-415 470.5,-415 470.5,-385 339.5,-385"/>
<text text-anchor="start" x="347.5" y="-403" font-family="Helvetica,sans-Serif" font-size="10.00">shad/data_structures</text>
<text text-anchor="middle" x="405" y="-392" font-family="Helvetica,sans-Serif" font-size="10.00">/abstract_data_structure.h</text>
</a>
</g>
</g>
<!-- Node1&#45;&gt;Node2 -->
<g id="edge1" class="edge"><title>Node1&#45;&gt;Node2</title>
<path fill="none" stroke="midnightblue" d="M405,-452.679C405,-444.722 405,-434.605 405,-425.436"/>
<polygon fill="midnightblue" stroke="midnightblue" points="408.5,-425.293 405,-415.293 401.5,-425.293 408.5,-425.293"/>
</g>
<!-- Node3 -->
<g id="node3" class="node"><title>Node3</title>
<polygon fill="white" stroke="#bfbfbf" points="148.5,-322.5 148.5,-341.5 191.5,-341.5 191.5,-322.5 148.5,-322.5"/>
<text text-anchor="middle" x="170" y="-329.5" font-family="Helvetica,sans-Serif" font-size="10.00">deque</text>
</g>
<!-- Node2&#45;&gt;Node3 -->
<g id="edge2" class="edge"><title>Node2&#45;&gt;Node3</title>
<path fill="none" stroke="midnightblue" d="M340.689,-384.998C301.379,-375.83 250.308,-362.823 206,-348 203.584,-347.192 201.101,-346.297 198.622,-345.359"/>
<polygon fill="midnightblue" stroke="midnightblue" points="199.821,-342.069 189.236,-341.615 197.228,-348.571 199.821,-342.069"/>
</g>
<!-- Node4 -->
<g id="node4" class="node"><title>Node4</title>
<polygon fill="white" stroke="#bfbfbf" points="206,-260.5 206,-279.5 246,-279.5 246,-260.5 206,-260.5"/>
<text text-anchor="middle" x="226" y="-267.5" font-family="Helvetica,sans-Serif" font-size="10.00">limits</text>
</g>
<!-- Node2&#45;&gt;Node4 -->
<g id="edge3" class="edge"><title>Node2&#45;&gt;Node4</title>
<path fill="none" stroke="midnightblue" d="M339.433,-394.997C304.653,-389.361 264.048,-376.56 239,-348 225.127,-332.182 223.297,-307.246 224.006,-290.059"/>
<polygon fill="midnightblue" stroke="midnightblue" points="227.532,-289.839 224.786,-279.606 220.552,-289.318 227.532,-289.839"/>
</g>
<!-- Node5 -->
<g id="node5" class="node"><title>Node5</title>
<polygon fill="white" stroke="#bfbfbf" points="0,-130.5 0,-149.5 52,-149.5 52,-130.5 0,-130.5"/>
<text text-anchor="middle" x="26" y="-137.5" font-family="Helvetica,sans-Serif" font-size="10.00">memory</text>
</g>
<!-- Node2&#45;&gt;Node5 -->
<g id="edge4" class="edge"><title>Node2&#45;&gt;Node5</title>
<path fill="none" stroke="midnightblue" d="M402.042,-384.877C395.098,-355.686 374.76,-289.012 329,-260 225.267,-194.233 150.3,-301.484 55,-224 35.6944,-208.304 29.2164,-178.944 27.0575,-159.686"/>
<polygon fill="midnightblue" stroke="midnightblue" points="30.5432,-159.367 26.2212,-149.694 23.5676,-159.951 30.5432,-159.367"/>
</g>
<!-- Node6 -->
<g id="node6" class="node"><title>Node6</title>
<polygon fill="white" stroke="#bfbfbf" points="586,-322.5 586,-341.5 624,-341.5 624,-322.5 586,-322.5"/>
<text text-anchor="middle" x="605" y="-329.5" font-family="Helvetica,sans-Serif" font-size="10.00">tuple</text>
</g>
<!-- Node2&#45;&gt;Node6 -->
<g id="edge5" class="edge"><title>Node2&#45;&gt;Node6</title>
<path fill="none" stroke="midnightblue" d="M457.118,-384.975C490.357,-375.568 534.145,-362.314 572,-348 573.898,-347.282 575.842,-346.507 577.79,-345.701"/>
<polygon fill="midnightblue" stroke="midnightblue" points="579.599,-348.73 587.368,-341.527 576.802,-342.313 579.599,-348.73"/>
</g>
<!-- Node7 -->
<g id="node7" class="node"><title>Node7</title>
<polygon fill="white" stroke="#bfbfbf" points="878,-198.5 878,-217.5 918,-217.5 918,-198.5 878,-198.5"/>
<text text-anchor="middle" x="898" y="-205.5" font-family="Helvetica,sans-Serif" font-size="10.00">utility</text>
</g>
<!-- Node2&#45;&gt;Node7 -->
<g id="edge6" class="edge"><title>Node2&#45;&gt;Node7</title>
<path fill="none" stroke="midnightblue" d="M414.09,-384.893C433.754,-355.732 483.399,-289.114 544,-260 674.995,-197.068 729.901,-266.09 869,-224 870.912,-223.421 872.848,-222.718 874.764,-221.934"/>
<polygon fill="midnightblue" stroke="midnightblue" points="876.448,-225.01 883.985,-217.564 873.45,-218.684 876.448,-225.01"/>
</g>
<!-- Node8 -->
<g id="node8" class="node"><title>Node8</title>
<polygon fill="white" stroke="#bfbfbf" points="936,-198.5 936,-217.5 980,-217.5 980,-198.5 936,-198.5"/>
<text text-anchor="middle" x="958" y="-205.5" font-family="Helvetica,sans-Serif" font-size="10.00">vector</text>
</g>
<!-- Node2&#45;&gt;Node8 -->
<g id="edge7" class="edge"><title>Node2&#45;&gt;Node8</title>
<path fill="none" stroke="midnightblue" d="M430.26,-384.898C463.209,-366.953 523.028,-335.905 577,-316 727.905,-260.347 776.125,-279.733 927,-224 928.851,-223.316 930.74,-222.56 932.626,-221.76"/>
<polygon fill="midnightblue" stroke="midnightblue" points="934.207,-224.886 941.847,-217.546 931.297,-218.519 934.207,-224.886"/>
</g>
<!-- Node9 -->
<g id="node9" class="node"><title>Node9</title>
<g id="a_node9"><a xlink:href="object__identifier_8h.html" target="_top" xlink:title="shad/data_structures\l/object_identifier.h">
<polygon fill="white" stroke="black" points="248,-317 248,-347 356,-347 356,-317 248,-317"/>
<text text-anchor="start" x="256" y="-335" font-family="Helvetica,sans-Serif" font-size="10.00">shad/data_structures</text>
<text text-anchor="middle" x="302" y="-324" font-family="Helvetica,sans-Serif" font-size="10.00">/object_identifier.h</text>
</a>
</g>
</g>
<!-- Node2&#45;&gt;Node9 -->
<g id="edge8" class="edge"><title>Node2&#45;&gt;Node9</title>
<path fill="none" stroke="midnightblue" d="M382.904,-384.841C368.241,-375.446 348.795,-362.985 332.643,-352.635"/>
<polygon fill="midnightblue" stroke="midnightblue" points="334.368,-349.584 324.06,-347.135 330.591,-355.477 334.368,-349.584"/>
</g>
<!-- Node11 -->
<g id="node11" class="node"><title>Node11</title>
<g id="a_node11"><a xlink:href="runtime_8h.html" target="_top" xlink:title="shad/runtime/runtime.h">
<polygon fill="white" stroke="black" points="376,-260.5 376,-279.5 492,-279.5 492,-260.5 376,-260.5"/>
<text text-anchor="middle" x="434" y="-267.5" font-family="Helvetica,sans-Serif" font-size="10.00">shad/runtime/runtime.h</text>
</a>
</g>
</g>
<!-- Node2&#45;&gt;Node11 -->
<g id="edge45" class="edge"><title>Node2&#45;&gt;Node11</title>
<path fill="none" stroke="midnightblue" d="M408.214,-384.813C413.481,-361.566 423.947,-315.371 429.796,-289.556"/>
<polygon fill="midnightblue" stroke="midnightblue" points="433.261,-290.1 432.057,-279.574 426.434,-288.553 433.261,-290.1"/>
</g>
<!-- Node9&#45;&gt;Node4 -->
<g id="edge10" class="edge"><title>Node9&#45;&gt;Node4</title>
<path fill="none" stroke="midnightblue" d="M283.989,-316.781C272.262,-307.523 256.985,-295.462 245.055,-286.044"/>
<polygon fill="midnightblue" stroke="midnightblue" points="247.076,-283.18 237.059,-279.731 242.739,-288.674 247.076,-283.18"/>
</g>
<!-- Node10 -->
<g id="node10" class="node"><title>Node10</title>
<polygon fill="white" stroke="#bfbfbf" points="274,-260.5 274,-279.5 320,-279.5 320,-260.5 274,-260.5"/>
<text text-anchor="middle" x="297" y="-267.5" font-family="Helvetica,sans-Serif" font-size="10.00">atomic</text>
</g>
<!-- Node9&#45;&gt;Node10 -->
<g id="edge9" class="edge"><title>Node9&#45;&gt;Node10</title>
<path fill="none" stroke="midnightblue" d="M300.815,-316.781C300.141,-308.691 299.288,-298.462 298.56,-289.725"/>
<polygon fill="midnightblue" stroke="midnightblue" points="302.046,-289.405 297.728,-279.731 295.07,-289.987 302.046,-289.405"/>
</g>
<!-- Node9&#45;&gt;Node11 -->
<g id="edge11" class="edge"><title>Node9&#45;&gt;Node11</title>
<path fill="none" stroke="midnightblue" d="M332.948,-316.933C355.019,-306.9 384.458,-293.519 405.865,-283.789"/>
<polygon fill="midnightblue" stroke="midnightblue" points="407.425,-286.924 415.08,-279.6 404.528,-280.552 407.425,-286.924"/>
</g>
<!-- Node11&#45;&gt;Node5 -->
<g id="edge18" class="edge"><title>Node11&#45;&gt;Node5</title>
<path fill="none" stroke="midnightblue" d="M375.635,-261.574C279.014,-249.243 96.0634,-225.719 93,-224 66.0461,-208.872 45.7589,-178.189 34.9027,-158.665"/>
<polygon fill="midnightblue" stroke="midnightblue" points="37.8788,-156.806 30.0999,-149.613 31.6954,-160.087 37.8788,-156.806"/>
</g>
<!-- Node11&#45;&gt;Node7 -->
<g id="edge21" class="edge"><title>Node11&#45;&gt;Node7</title>
<path fill="none" stroke="midnightblue" d="M492.144,-261.603C496.83,-261.046 501.493,-260.505 506,-260 667.116,-241.944 713.557,-270.064 869,-224 870.916,-223.432 872.854,-222.737 874.772,-221.959"/>
<polygon fill="midnightblue" stroke="midnightblue" points="876.45,-225.037 883.996,-217.599 873.459,-218.708 876.45,-225.037"/>
</g>
<!-- Node11&#45;&gt;Node8 -->
<g id="edge22" class="edge"><title>Node11&#45;&gt;Node8</title>
<path fill="none" stroke="midnightblue" d="M492.424,-264.23C618.484,-253.86 906.349,-229.734 927,-224 929.2,-223.389 931.433,-222.627 933.641,-221.772"/>
<polygon fill="midnightblue" stroke="midnightblue" points="935.266,-224.879 942.975,-217.612 932.416,-218.486 935.266,-224.879"/>
</g>
<!-- Node12 -->
<g id="node12" class="node"><title>Node12</title>
<polygon fill="white" stroke="#bfbfbf" points="70.5,-130.5 70.5,-149.5 119.5,-149.5 119.5,-130.5 70.5,-130.5"/>
<text text-anchor="middle" x="95" y="-137.5" font-family="Helvetica,sans-Serif" font-size="10.00">cstddef</text>
</g>
<!-- Node11&#45;&gt;Node12 -->
<g id="edge12" class="edge"><title>Node11&#45;&gt;Node12</title>
<path fill="none" stroke="midnightblue" d="M375.831,-261.698C284.626,-250.131 117.788,-228.445 113,-224 95.4677,-207.724 92.9283,-178.74 93.4199,-159.694"/>
<polygon fill="midnightblue" stroke="midnightblue" points="96.9227,-159.741 93.9897,-149.56 89.9337,-159.348 96.9227,-159.741"/>
</g>
<!-- Node13 -->
<g id="node13" class="node"><title>Node13</title>
<polygon fill="white" stroke="#bfbfbf" points="163,-62.5 163,-81.5 209,-81.5 209,-62.5 163,-62.5"/>
<text text-anchor="middle" x="186" y="-69.5" font-family="Helvetica,sans-Serif" font-size="10.00">cstdint</text>
</g>
<!-- Node11&#45;&gt;Node13 -->
<g id="edge13" class="edge"><title>Node11&#45;&gt;Node13</title>
<path fill="none" stroke="midnightblue" d="M403.016,-260.446C376.913,-252.656 338.978,-239.948 308,-224 285.857,-212.601 282.756,-205.764 262,-192 237.029,-175.441 222.318,-180.451 205,-156 191.479,-136.91 187.414,-109.705 186.281,-91.7126"/>
<polygon fill="midnightblue" stroke="midnightblue" points="189.775,-91.484 185.893,-81.626 182.78,-91.7532 189.775,-91.484"/>
</g>
<!-- Node14 -->
<g id="node14" class="node"><title>Node14</title>
<polygon fill="white" stroke="#bfbfbf" points="538.5,-198.5 538.5,-217.5 597.5,-217.5 597.5,-198.5 538.5,-198.5"/>
<text text-anchor="middle" x="568" y="-205.5" font-family="Helvetica,sans-Serif" font-size="10.00">functional</text>
</g>
<!-- Node11&#45;&gt;Node14 -->
<g id="edge14" class="edge"><title>Node11&#45;&gt;Node14</title>
<path fill="none" stroke="midnightblue" d="M453.199,-260.403C475.787,-250.29 513.499,-233.404 539.501,-221.761"/>
<polygon fill="midnightblue" stroke="midnightblue" points="541.14,-224.862 548.837,-217.581 538.279,-218.473 541.14,-224.862"/>
</g>
<!-- Node15 -->
<g id="node15" class="node"><title>Node15</title>
<polygon fill="white" stroke="#bfbfbf" points="300,-62.5 300,-81.5 354,-81.5 354,-62.5 300,-62.5"/>
<text text-anchor="middle" x="327" y="-69.5" font-family="Helvetica,sans-Serif" font-size="10.00">iostream</text>
</g>
<!-- Node11&#45;&gt;Node15 -->
<g id="edge15" class="edge"><title>Node11&#45;&gt;Node15</title>
<path fill="none" stroke="midnightblue" d="M420.781,-260.471C409.131,-252.349 392.432,-239.139 382,-224 352.661,-181.424 336.977,-121.358 330.553,-91.4371"/>
<polygon fill="midnightblue" stroke="midnightblue" points="333.963,-90.6436 328.535,-81.545 327.104,-92.0427 333.963,-90.6436"/>
</g>
<!-- Node16 -->
<g id="node16" class="node"><title>Node16</title>
<polygon fill="white" stroke="#bfbfbf" points="615.5,-198.5 615.5,-217.5 662.5,-217.5 662.5,-198.5 615.5,-198.5"/>
<text text-anchor="middle" x="639" y="-205.5" font-family="Helvetica,sans-Serif" font-size="10.00">iterator</text>
</g>
<!-- Node11&#45;&gt;Node16 -->
<g id="edge16" class="edge"><title>Node11&#45;&gt;Node16</title>
<path fill="none" stroke="midnightblue" d="M474.555,-260.45C509.786,-252.537 561.934,-239.65 606,-224 608.12,-223.247 610.292,-222.412 612.459,-221.532"/>
<polygon fill="midnightblue" stroke="midnightblue" points="613.973,-224.691 621.76,-217.507 611.192,-218.267 613.973,-224.691"/>
</g>
<!-- Node17 -->
<g id="node17" class="node"><title>Node17</title>
<polygon fill="white" stroke="#bfbfbf" points="680.5,-198.5 680.5,-217.5 715.5,-217.5 715.5,-198.5 680.5,-198.5"/>
<text text-anchor="middle" x="698" y="-205.5" font-family="Helvetica,sans-Serif" font-size="10.00">map</text>
</g>
<!-- Node11&#45;&gt;Node17 -->
<g id="edge17" class="edge"><title>Node11&#45;&gt;Node17</title>
<path fill="none" stroke="midnightblue" d="M489.966,-260.486C549.178,-251.103 638.463,-235.78 671,-224 672.45,-223.475 673.914,-222.879 675.372,-222.234"/>
<polygon fill="midnightblue" stroke="midnightblue" points="677.336,-225.163 684.666,-217.513 674.165,-218.922 677.336,-225.163"/>
</g>
<!-- Node18 -->
<g id="node18" class="node"><title>Node18</title>
<polygon fill="white" stroke="#bfbfbf" points="734,-198.5 734,-217.5 764,-217.5 764,-198.5 734,-198.5"/>
<text text-anchor="middle" x="749" y="-205.5" font-family="Helvetica,sans-Serif" font-size="10.00">set</text>
</g>
<!-- Node11&#45;&gt;Node18 -->
<g id="edge19" class="edge"><title>Node11&#45;&gt;Node18</title>
<path fill="none" stroke="midnightblue" d="M492.093,-261.207C570.434,-250.509 702.65,-231.725 724,-224 725.232,-223.554 726.47,-223.046 727.7,-222.491"/>
<polygon fill="midnightblue" stroke="midnightblue" points="729.601,-225.443 736.757,-217.63 726.291,-219.275 729.601,-225.443"/>
</g>
<!-- Node19 -->
<g id="node19" class="node"><title>Node19</title>
<polygon fill="white" stroke="#bfbfbf" points="782,-198.5 782,-217.5 860,-217.5 860,-198.5 782,-198.5"/>
<text text-anchor="middle" x="821" y="-205.5" font-family="Helvetica,sans-Serif" font-size="10.00">unordered_set</text>
</g>
<!-- Node11&#45;&gt;Node19 -->
<g id="edge20" class="edge"><title>Node11&#45;&gt;Node19</title>
<path fill="none" stroke="midnightblue" d="M492.228,-261.501C585.29,-249.48 758.516,-226.94 772,-224 776.697,-222.976 781.593,-221.716 786.397,-220.365"/>
<polygon fill="midnightblue" stroke="midnightblue" points="787.436,-223.707 796.031,-217.512 785.449,-216.996 787.436,-223.707"/>
</g>
<!-- Node20 -->
<g id="node20" class="node"><title>Node20</title>
<polygon fill="white" stroke="#bfbfbf" points="346,-0.5 346,-19.5 450,-19.5 450,-0.5 346,-0.5"/>
<text text-anchor="middle" x="398" y="-7.5" font-family="Helvetica,sans-Serif" font-size="10.00">shad/config/config.h</text>
</g>
<!-- Node11&#45;&gt;Node20 -->
<g id="edge23" class="edge"><title>Node11&#45;&gt;Node20</title>
<path fill="none" stroke="midnightblue" d="M432.372,-260.232C428.886,-241.267 420.561,-194.995 415,-156 408.55,-110.771 402.755,-57.3488 399.89,-29.6935"/>
<polygon fill="midnightblue" stroke="midnightblue" points="403.349,-29.1093 398.849,-19.5178 396.385,-29.8223 403.349,-29.1093"/>
</g>
<!-- Node21 -->
<g id="node21" class="node"><title>Node21</title>
<g id="a_node21"><a xlink:href="handle_8h.html" target="_top" xlink:title="shad/runtime/handle.h">
<polygon fill="white" stroke="black" points="424.5,-130.5 424.5,-149.5 537.5,-149.5 537.5,-130.5 424.5,-130.5"/>
<text text-anchor="middle" x="481" y="-137.5" font-family="Helvetica,sans-Serif" font-size="10.00">shad/runtime/handle.h</text>
</a>
</g>
</g>
<!-- Node11&#45;&gt;Node21 -->
<g id="edge24" class="edge"><title>Node11&#45;&gt;Node21</title>
<path fill="none" stroke="midnightblue" d="M436.328,-260.338C440.274,-245.963 448.754,-216.348 458,-192 462.299,-180.678 467.867,-168.286 472.447,-158.553"/>
<polygon fill="midnightblue" stroke="midnightblue" points="475.606,-160.059 476.769,-149.528 469.293,-157.036 475.606,-160.059"/>
</g>
<!-- Node23 -->
<g id="node23" class="node"><title>Node23</title>
<g id="a_node23"><a xlink:href="mapping__traits_8h.html" target="_top" xlink:title="shad/runtime/mapping\l_traits.h">
<polygon fill="white" stroke="black" points="448.5,-57 448.5,-87 561.5,-87 561.5,-57 448.5,-57"/>
<text text-anchor="start" x="456.5" y="-75" font-family="Helvetica,sans-Serif" font-size="10.00">shad/runtime/mapping</text>
<text text-anchor="middle" x="505" y="-64" font-family="Helvetica,sans-Serif" font-size="10.00">_traits.h</text>
</a>
</g>
</g>
<!-- Node11&#45;&gt;Node23 -->
<g id="edge37" class="edge"><title>Node11&#45;&gt;Node23</title>
<path fill="none" stroke="midnightblue" d="M438.151,-260.489C445.886,-245.286 463.756,-213.084 486,-192 508.571,-170.607 530.678,-183.062 546,-156 557.501,-135.688 542.756,-111.709 527.844,-94.7611"/>
<polygon fill="midnightblue" stroke="midnightblue" points="530.015,-91.9589 520.624,-87.0531 524.906,-96.7442 530.015,-91.9589"/>
</g>
<!-- Node26 -->
<g id="node26" class="node"><title>Node26</title>
<g id="a_node26"><a xlink:href="locality_8h.html" target="_top" xlink:title="shad/runtime/locality.h">
<polygon fill="white" stroke="black" points="214.5,-130.5 214.5,-149.5 329.5,-149.5 329.5,-130.5 214.5,-130.5"/>
<text text-anchor="middle" x="272" y="-137.5" font-family="Helvetica,sans-Serif" font-size="10.00">shad/runtime/locality.h</text>
</a>
</g>
</g>
<!-- Node11&#45;&gt;Node26 -->
<g id="edge31" class="edge"><title>Node11&#45;&gt;Node26</title>
<path fill="none" stroke="midnightblue" d="M410.752,-260.351C391.678,-252.584 364.564,-239.958 344,-224 319.36,-204.879 296.825,-176.326 283.757,-158.189"/>
<polygon fill="midnightblue" stroke="midnightblue" points="286.442,-155.923 277.825,-149.759 280.717,-159.951 286.442,-155.923"/>
</g>
<!-- Node27 -->
<g id="node27" class="node"><title>Node27</title>
<g id="a_node27"><a xlink:href="available__mappings_8h.html" target="_top" xlink:title="shad/runtime/mappings\l/available_mappings.h">
<polygon fill="white" stroke="black" points="633,-125 633,-155 751,-155 751,-125 633,-125"/>
<text text-anchor="start" x="641" y="-143" font-family="Helvetica,sans-Serif" font-size="10.00">shad/runtime/mappings</text>
<text text-anchor="middle" x="692" y="-132" font-family="Helvetica,sans-Serif" font-size="10.00">/available_mappings.h</text>
</a>
</g>
</g>
<!-- Node11&#45;&gt;Node27 -->
<g id="edge38" class="edge"><title>Node11&#45;&gt;Node27</title>
<path fill="none" stroke="midnightblue" d="M443.677,-260.468C464.118,-242.577 511.342,-201.964 530,-192 558.976,-176.526 593.412,-164.861 623.069,-156.621"/>
<polygon fill="midnightblue" stroke="midnightblue" points="624.187,-159.945 632.928,-153.957 622.362,-153.187 624.187,-159.945"/>
</g>
<!-- Node28 -->
<g id="node28" class="node"><title>Node28</title>
<g id="a_node28"><a xlink:href="synchronous__interface_8h.html" target="_top" xlink:title="shad/runtime/synchronous\l_interface.h">
<polygon fill="white" stroke="black" points="122.5,-193 122.5,-223 253.5,-223 253.5,-193 122.5,-193"/>
<text text-anchor="start" x="130.5" y="-211" font-family="Helvetica,sans-Serif" font-size="10.00">shad/runtime/synchronous</text>
<text text-anchor="middle" x="188" y="-200" font-family="Helvetica,sans-Serif" font-size="10.00">_interface.h</text>
</a>
</g>
</g>
<!-- Node11&#45;&gt;Node28 -->
<g id="edge40" class="edge"><title>Node11&#45;&gt;Node28</title>
<path fill="none" stroke="midnightblue" d="M399.015,-260.467C361.818,-251.395 302.066,-236.821 255.625,-225.494"/>
<polygon fill="midnightblue" stroke="midnightblue" points="256.176,-222.026 245.632,-223.057 254.518,-228.826 256.176,-222.026"/>
</g>
<!-- Node21&#45;&gt;Node20 -->
<g id="edge26" class="edge"><title>Node21&#45;&gt;Node20</title>
<path fill="none" stroke="midnightblue" d="M472.999,-130.392C464.098,-120.575 449.579,-103.831 439,-88 426.161,-68.7871 414.062,-45.1239 406.382,-29.1402"/>
<polygon fill="midnightblue" stroke="midnightblue" points="409.441,-27.421 402.009,-19.8695 403.109,-30.407 409.441,-27.421"/>
</g>
<!-- Node22 -->
<g id="node22" class="node"><title>Node22</title>
<polygon fill="white" stroke="#bfbfbf" points="580,-62.5 580,-81.5 642,-81.5 642,-62.5 580,-62.5"/>
<text text-anchor="middle" x="611" y="-69.5" font-family="Helvetica,sans-Serif" font-size="10.00">type_traits</text>
</g>
<!-- Node21&#45;&gt;Node22 -->
<g id="edge25" class="edge"><title>Node21&#45;&gt;Node22</title>
<path fill="none" stroke="midnightblue" d="M497.995,-130.372C520.087,-119.156 558.895,-99.4532 584.776,-86.3136"/>
<polygon fill="midnightblue" stroke="midnightblue" points="586.668,-89.2783 594.001,-81.6305 583.499,-83.0366 586.668,-89.2783"/>
</g>
<!-- Node21&#45;&gt;Node23 -->
<g id="edge27" class="edge"><title>Node21&#45;&gt;Node23</title>
<path fill="none" stroke="midnightblue" d="M484.138,-130.372C487.223,-121.886 492.076,-108.542 496.324,-96.858"/>
<polygon fill="midnightblue" stroke="midnightblue" points="499.715,-97.7755 499.843,-87.1815 493.136,-95.3833 499.715,-97.7755"/>
</g>
<!-- Node25 -->
<g id="node25" class="node"><title>Node25</title>
<g id="a_node25"><a xlink:href="available__traits__mappings_8h.html" target="_top" xlink:title="shad/runtime/mappings\l/available_traits_mappings.h">
<polygon fill="white" stroke="black" points="660,-57 660,-87 800,-87 800,-57 660,-57"/>
<text text-anchor="start" x="668" y="-75" font-family="Helvetica,sans-Serif" font-size="10.00">shad/runtime/mappings</text>
<text text-anchor="middle" x="730" y="-64" font-family="Helvetica,sans-Serif" font-size="10.00">/available_traits_mappings.h</text>
</a>
</g>
</g>
<!-- Node21&#45;&gt;Node25 -->
<g id="edge30" class="edge"><title>Node21&#45;&gt;Node25</title>
<path fill="none" stroke="midnightblue" d="M513.297,-130.439C552.076,-120.161 618.006,-102.685 666.985,-89.7027"/>
<polygon fill="midnightblue" stroke="midnightblue" points="668.083,-93.0327 676.852,-87.0873 666.289,-86.2664 668.083,-93.0327"/>
</g>
<!-- Node23&#45;&gt;Node20 -->
<g id="edge29" class="edge"><title>Node23&#45;&gt;Node20</title>
<path fill="none" stroke="midnightblue" d="M479.913,-56.9327C462.506,-47.1715 439.445,-34.2401 422.228,-24.5856"/>
<polygon fill="midnightblue" stroke="midnightblue" points="423.771,-21.4383 413.337,-19.6 420.347,-27.5439 423.771,-21.4383"/>
</g>
<!-- Node24 -->
<g id="node24" class="node"><title>Node24</title>
<polygon fill="white" stroke="#bfbfbf" points="484.5,-0.5 484.5,-19.5 525.5,-19.5 525.5,-0.5 484.5,-0.5"/>
<text text-anchor="middle" x="505" y="-7.5" font-family="Helvetica,sans-Serif" font-size="10.00">string</text>
</g>
<!-- Node23&#45;&gt;Node24 -->
<g id="edge28" class="edge"><title>Node23&#45;&gt;Node24</title>
<path fill="none" stroke="midnightblue" d="M505,-56.7808C505,-48.7812 505,-38.6887 505,-30.0168"/>
<polygon fill="midnightblue" stroke="midnightblue" points="508.5,-29.7305 505,-19.7305 501.5,-29.7306 508.5,-29.7305"/>
</g>
<!-- Node26&#45;&gt;Node13 -->
<g id="edge32" class="edge"><title>Node26&#45;&gt;Node13</title>
<path fill="none" stroke="midnightblue" d="M260.757,-130.372C246.722,-119.6 222.488,-101.002 205.424,-87.9065"/>
<polygon fill="midnightblue" stroke="midnightblue" points="207.31,-84.9421 197.246,-81.6305 203.048,-90.4953 207.31,-84.9421"/>
</g>
<!-- Node26&#45;&gt;Node15 -->
<g id="edge33" class="edge"><title>Node26&#45;&gt;Node15</title>
<path fill="none" stroke="midnightblue" d="M279.19,-130.372C287.789,-120.053 302.374,-102.551 313.179,-89.5854"/>
<polygon fill="midnightblue" stroke="midnightblue" points="315.919,-91.764 319.632,-81.8411 310.542,-87.2827 315.919,-91.764"/>
</g>
<!-- Node26&#45;&gt;Node20 -->
<g id="edge34" class="edge"><title>Node26&#45;&gt;Node20</title>
<path fill="none" stroke="midnightblue" d="M271.545,-130.105C271.183,-113.552 272.74,-77.7287 291,-56 304.587,-39.8321 324.98,-29.3603 344.33,-22.6305"/>
<polygon fill="midnightblue" stroke="midnightblue" points="345.555,-25.9135 354.011,-19.5304 343.42,-19.247 345.555,-25.9135"/>
</g>
<!-- Node26&#45;&gt;Node23 -->
<g id="edge35" class="edge"><title>Node26&#45;&gt;Node23</title>
<path fill="none" stroke="midnightblue" d="M302.461,-130.372C338.661,-120.117 399.904,-102.77 445.588,-89.8291"/>
<polygon fill="midnightblue" stroke="midnightblue" points="446.71,-93.1492 455.377,-87.0562 444.802,-86.4142 446.71,-93.1492"/>
</g>
<!-- Node26&#45;&gt;Node25 -->
<g id="edge36" class="edge"><title>Node26&#45;&gt;Node25</title>
<path fill="none" stroke="midnightblue" d="M329.771,-132.139C402.005,-123.353 529.676,-107.138 649.693,-87.9952"/>
<polygon fill="midnightblue" stroke="midnightblue" points="650.476,-91.4143 659.795,-86.3739 649.367,-84.5028 650.476,-91.4143"/>
</g>
<!-- Node27&#45;&gt;Node25 -->
<g id="edge39" class="edge"><title>Node27&#45;&gt;Node25</title>
<path fill="none" stroke="midnightblue" d="M700.245,-124.679C705.026,-116.376 711.161,-105.721 716.616,-96.2452"/>
<polygon fill="midnightblue" stroke="midnightblue" points="719.814,-97.7057 721.771,-87.2931 713.748,-94.2129 719.814,-97.7057"/>
</g>
<!-- Node28&#45;&gt;Node5 -->
<g id="edge43" class="edge"><title>Node28&#45;&gt;Node5</title>
<path fill="none" stroke="midnightblue" d="M152.328,-192.929C126.825,-182.808 91.7233,-168.75 61,-156 59.1682,-155.24 57.2851,-154.452 55.3878,-153.653"/>
<polygon fill="midnightblue" stroke="midnightblue" points="56.5283,-150.335 45.9559,-149.646 53.7916,-156.778 56.5283,-150.335"/>
</g>
<!-- Node28&#45;&gt;Node12 -->
<g id="edge41" class="edge"><title>Node28&#45;&gt;Node12</title>
<path fill="none" stroke="midnightblue" d="M167.82,-192.679C152.369,-181.713 131.136,-166.645 115.585,-155.609"/>
<polygon fill="midnightblue" stroke="midnightblue" points="117.352,-152.571 107.172,-149.638 113.301,-158.28 117.352,-152.571"/>
</g>
<!-- Node28&#45;&gt;Node13 -->
<g id="edge42" class="edge"><title>Node28&#45;&gt;Node13</title>
<path fill="none" stroke="midnightblue" d="M182.333,-192.986C178.568,-182.891 173.967,-168.842 172,-156 169.847,-141.942 170.101,-138.095 172,-124 173.497,-112.893 176.749,-100.783 179.742,-91.152"/>
<polygon fill="midnightblue" stroke="midnightblue" points="183.112,-92.1096 182.905,-81.5168 176.461,-89.9267 183.112,-92.1096"/>
</g>
<!-- Node28&#45;&gt;Node26 -->
<g id="edge44" class="edge"><title>Node28&#45;&gt;Node26</title>
<path fill="none" stroke="midnightblue" d="M206.227,-192.679C219.973,-181.879 238.784,-167.098 252.769,-156.11"/>
<polygon fill="midnightblue" stroke="midnightblue" points="255.063,-158.759 260.764,-149.828 250.738,-153.254 255.063,-158.759"/>
</g>
</g>
</svg>
