<?xml version="1.0" encoding="UTF-8" standalone="no"?>
<!DOCTYPE svg PUBLIC "-//W3C//DTD SVG 1.1//EN"
 "http://www.w3.org/Graphics/SVG/1.1/DTD/svg11.dtd">
<!-- Generated by graphviz version 2.36.0 (20140111.2315)
 -->
<!-- Title: include/shad/core/impl/other_ops_on_sorted_ranges.h Pages: 1 -->
<svg width="1179pt" height="368pt"
 viewBox="0.00 0.00 1179.40 368.00" xmlns="http://www.w3.org/2000/svg" xmlns:xlink="http://www.w3.org/1999/xlink">
<g id="graph0" class="graph" transform="scale(1 1) rotate(0) translate(4 364)">
<title>include/shad/core/impl/other_ops_on_sorted_ranges.h</title>
<polygon fill="white" stroke="none" points="-4,4 -4,-364 1175.4,-364 1175.4,4 -4,4"/>
<!-- Node1 -->
<g id="node1" class="node"><title>Node1</title>
<polygon fill="#bfbfbf" stroke="black" points="188.5,-329 188.5,-359 341.5,-359 341.5,-329 188.5,-329"/>
<text text-anchor="start" x="196.5" y="-347" font-family="Helvetica,sans-Serif" font-size="10.00">include/shad/core/impl</text>
<text text-anchor="middle" x="265" y="-336" font-family="Helvetica,sans-Serif" font-size="10.00">/other_ops_on_sorted_ranges.h</text>
</g>
<!-- Node2 -->
<g id="node2" class="node"><title>Node2</title>
<polygon fill="white" stroke="#bfbfbf" points="0,-266.5 0,-285.5 56,-285.5 56,-266.5 0,-266.5"/>
<text text-anchor="middle" x="28" y="-273.5" font-family="Helvetica,sans-Serif" font-size="10.00">algorithm</text>
</g>
<!-- Node1&#45;&gt;Node2 -->
<g id="edge1" class="edge"><title>Node1&#45;&gt;Node2</title>
<path fill="none" stroke="midnightblue" d="M199.58,-328.955C159.934,-319.815 108.573,-306.852 64,-292 61.5831,-291.195 59.099,-290.302 56.6197,-289.365"/>
<polygon fill="midnightblue" stroke="midnightblue" points="57.8183,-286.075 47.2331,-285.624 55.2264,-292.578 57.8183,-286.075"/>
</g>
<!-- Node3 -->
<g id="node3" class="node"><title>Node3</title>
<polygon fill="white" stroke="#bfbfbf" points="293.5,-198.5 293.5,-217.5 352.5,-217.5 352.5,-198.5 293.5,-198.5"/>
<text text-anchor="middle" x="323" y="-205.5" font-family="Helvetica,sans-Serif" font-size="10.00">functional</text>
</g>
<!-- Node1&#45;&gt;Node3 -->
<g id="edge2" class="edge"><title>Node1&#45;&gt;Node3</title>
<path fill="none" stroke="midnightblue" d="M323.788,-328.893C342.805,-321.244 361.846,-309.603 373,-292 387.891,-268.501 362.677,-240.726 342.96,-224.005"/>
<polygon fill="midnightblue" stroke="midnightblue" points="344.958,-221.12 334.979,-217.561 340.56,-226.567 344.958,-221.12"/>
</g>
<!-- Node4 -->
<g id="node4" class="node"><title>Node4</title>
<polygon fill="white" stroke="#bfbfbf" points="189.5,-198.5 189.5,-217.5 236.5,-217.5 236.5,-198.5 189.5,-198.5"/>
<text text-anchor="middle" x="213" y="-205.5" font-family="Helvetica,sans-Serif" font-size="10.00">iterator</text>
</g>
<!-- Node1&#45;&gt;Node4 -->
<g id="edge3" class="edge"><title>Node1&#45;&gt;Node4</title>
<path fill="none" stroke="midnightblue" d="M258.219,-328.854C253.449,-318.697 247.043,-304.629 242,-292 233.271,-270.138 224.534,-244.495 218.968,-227.56"/>
<polygon fill="midnightblue" stroke="midnightblue" points="222.22,-226.244 215.799,-217.816 215.563,-228.409 222.22,-226.244"/>
</g>
<!-- Node5 -->
<g id="node5" class="node"><title>Node5</title>
<g id="a_node5"><a xlink:href="execution_8h.html" target="_top" xlink:title="shad/core/execution.h">
<polygon fill="white" stroke="black" points="251.5,-266.5 251.5,-285.5 364.5,-285.5 364.5,-266.5 251.5,-266.5"/>
<text text-anchor="middle" x="308" y="-273.5" font-family="Helvetica,sans-Serif" font-size="10.00">shad/core/execution.h</text>
</a>
</g>
</g>
<!-- Node1&#45;&gt;Node5 -->
<g id="edge4" class="edge"><title>Node1&#45;&gt;Node5</title>
<path fill="none" stroke="midnightblue" d="M274.33,-328.679C280.902,-318.592 289.736,-305.033 296.706,-294.335"/>
<polygon fill="midnightblue" stroke="midnightblue" points="299.722,-296.118 302.248,-285.828 293.857,-292.296 299.722,-296.118"/>
</g>
<!-- Node7 -->
<g id="node7" class="node"><title>Node7</title>
<g id="a_node7"><a xlink:href="distributed__iterator__traits_8h.html" target="_top" xlink:title="shad/distributed_iterator\l_traits.h">
<polygon fill="white" stroke="black" points="73.5,-261 73.5,-291 194.5,-291 194.5,-261 73.5,-261"/>
<text text-anchor="start" x="81.5" y="-279" font-family="Helvetica,sans-Serif" font-size="10.00">shad/distributed_iterator</text>
<text text-anchor="middle" x="134" y="-268" font-family="Helvetica,sans-Serif" font-size="10.00">_traits.h</text>
</a>
</g>
</g>
<!-- Node1&#45;&gt;Node7 -->
<g id="edge6" class="edge"><title>Node1&#45;&gt;Node7</title>
<path fill="none" stroke="midnightblue" d="M236.897,-328.841C217.644,-319.141 191.906,-306.174 170.989,-295.636"/>
<polygon fill="midnightblue" stroke="midnightblue" points="172.562,-292.509 162.056,-291.135 169.412,-298.76 172.562,-292.509"/>
</g>
<!-- Node14 -->
<g id="node14" class="node"><title>Node14</title>
<g id="a_node14"><a xlink:href="runtime_8h.html" target="_top" xlink:title="shad/runtime/runtime.h">
<polygon fill="white" stroke="black" points="562,-266.5 562,-285.5 678,-285.5 678,-266.5 562,-266.5"/>
<text text-anchor="middle" x="620" y="-273.5" font-family="Helvetica,sans-Serif" font-size="10.00">shad/runtime/runtime.h</text>
</a>
</g>
</g>
<!-- Node1&#45;&gt;Node14 -->
<g id="edge15" class="edge"><title>Node1&#45;&gt;Node14</title>
<path fill="none" stroke="midnightblue" d="M340.721,-328.922C407.71,-316.468 503.91,-298.583 564.129,-287.387"/>
<polygon fill="midnightblue" stroke="midnightblue" points="565.015,-290.783 574.206,-285.514 563.735,-283.901 565.015,-290.783"/>
</g>
<!-- Node6 -->
<g id="node6" class="node"><title>Node6</title>
<polygon fill="white" stroke="#bfbfbf" points="234,-62.5 234,-81.5 296,-81.5 296,-62.5 234,-62.5"/>
<text text-anchor="middle" x="265" y="-69.5" font-family="Helvetica,sans-Serif" font-size="10.00">type_traits</text>
</g>
<!-- Node5&#45;&gt;Node6 -->
<g id="edge5" class="edge"><title>Node5&#45;&gt;Node6</title>
<path fill="none" stroke="midnightblue" d="M302.866,-266.306C297.275,-256.413 288.528,-239.6 284,-224 270.6,-177.835 266.65,-121.022 265.486,-92.0124"/>
<polygon fill="midnightblue" stroke="midnightblue" points="268.974,-91.5847 265.146,-81.7055 261.978,-91.8154 268.974,-91.5847"/>
</g>
<!-- Node7&#45;&gt;Node4 -->
<g id="edge7" class="edge"><title>Node7&#45;&gt;Node4</title>
<path fill="none" stroke="midnightblue" d="M151.142,-260.679C163.947,-249.981 181.428,-235.377 194.54,-224.422"/>
<polygon fill="midnightblue" stroke="midnightblue" points="197.003,-226.926 202.433,-217.828 192.515,-221.554 197.003,-226.926"/>
</g>
<!-- Node8 -->
<g id="node8" class="node"><title>Node8</title>
<g id="a_node8"><a xlink:href="locality_8h.html" target="_top" xlink:title="shad/runtime/locality.h">
<polygon fill="white" stroke="black" points="620.5,-130.5 620.5,-149.5 735.5,-149.5 735.5,-130.5 620.5,-130.5"/>
<text text-anchor="middle" x="678" y="-137.5" font-family="Helvetica,sans-Serif" font-size="10.00">shad/runtime/locality.h</text>
</a>
</g>
</g>
<!-- Node7&#45;&gt;Node8 -->
<g id="edge8" class="edge"><title>Node7&#45;&gt;Node8</title>
<path fill="none" stroke="midnightblue" d="M137.443,-260.69C142.897,-241.45 155.513,-207.835 180,-192 260.707,-139.81 515.994,-170.533 611,-156 618.537,-154.847 626.491,-153.334 634.183,-151.712"/>
<polygon fill="midnightblue" stroke="midnightblue" points="635.069,-155.101 644.086,-149.539 633.569,-148.264 635.069,-155.101"/>
</g>
<!-- Node9 -->
<g id="node9" class="node"><title>Node9</title>
<polygon fill="white" stroke="#bfbfbf" points="1032,-62.5 1032,-81.5 1078,-81.5 1078,-62.5 1032,-62.5"/>
<text text-anchor="middle" x="1055" y="-69.5" font-family="Helvetica,sans-Serif" font-size="10.00">cstdint</text>
</g>
<!-- Node8&#45;&gt;Node9 -->
<g id="edge9" class="edge"><title>Node8&#45;&gt;Node9</title>
<path fill="none" stroke="midnightblue" d="M726.9,-130.439C804.815,-116.799 955.126,-90.4846 1021.78,-78.8158"/>
<polygon fill="midnightblue" stroke="midnightblue" points="1022.49,-82.2451 1031.73,-77.073 1021.28,-75.3499 1022.49,-82.2451"/>
</g>
<!-- Node10 -->
<g id="node10" class="node"><title>Node10</title>
<polygon fill="white" stroke="#bfbfbf" points="452,-0.5 452,-19.5 556,-19.5 556,-0.5 452,-0.5"/>
<text text-anchor="middle" x="504" y="-7.5" font-family="Helvetica,sans-Serif" font-size="10.00">shad/config/config.h</text>
</g>
<!-- Node8&#45;&gt;Node10 -->
<g id="edge10" class="edge"><title>Node8&#45;&gt;Node10</title>
<path fill="none" stroke="midnightblue" d="M668.943,-130.332C649.361,-111.676 603.446,-68.401 586,-56 568.74,-43.7309 547.786,-32.2846 531.381,-24.0065"/>
<polygon fill="midnightblue" stroke="midnightblue" points="532.825,-20.8157 522.31,-19.5163 529.719,-27.0893 532.825,-20.8157"/>
</g>
<!-- Node11 -->
<g id="node11" class="node"><title>Node11</title>
<g id="a_node11"><a xlink:href="mapping__traits_8h.html" target="_top" xlink:title="shad/runtime/mapping\l_traits.h">
<polygon fill="white" stroke="black" points="633.5,-57 633.5,-87 746.5,-87 746.5,-57 633.5,-57"/>
<text text-anchor="start" x="641.5" y="-75" font-family="Helvetica,sans-Serif" font-size="10.00">shad/runtime/mapping</text>
<text text-anchor="middle" x="690" y="-64" font-family="Helvetica,sans-Serif" font-size="10.00">_traits.h</text>
</a>
</g>
</g>
<!-- Node8&#45;&gt;Node11 -->
<g id="edge11" class="edge"><title>Node8&#45;&gt;Node11</title>
<path fill="none" stroke="midnightblue" d="M679.569,-130.372C681.096,-121.971 683.489,-108.811 685.598,-97.2126"/>
<polygon fill="midnightblue" stroke="midnightblue" points="689.076,-97.6463 687.422,-87.1815 682.189,-96.394 689.076,-97.6463"/>
</g>
<!-- Node13 -->
<g id="node13" class="node"><title>Node13</title>
<g id="a_node13"><a xlink:href="available__traits__mappings_8h.html" target="_top" xlink:title="shad/runtime/mappings\l/available_traits_mappings.h">
<polygon fill="white" stroke="black" points="437,-57 437,-87 577,-87 577,-57 437,-57"/>
<text text-anchor="start" x="445" y="-75" font-family="Helvetica,sans-Serif" font-size="10.00">shad/runtime/mappings</text>
<text text-anchor="middle" x="507" y="-64" font-family="Helvetica,sans-Serif" font-size="10.00">/available_traits_mappings.h</text>
</a>
</g>
</g>
<!-- Node8&#45;&gt;Node13 -->
<g id="edge14" class="edge"><title>Node8&#45;&gt;Node13</title>
<path fill="none" stroke="midnightblue" d="M655.645,-130.372C629.69,-120.354 586.194,-103.566 552.94,-90.7312"/>
<polygon fill="midnightblue" stroke="midnightblue" points="554.008,-87.3918 543.418,-87.0562 551.487,-93.9223 554.008,-87.3918"/>
</g>
<!-- Node11&#45;&gt;Node10 -->
<g id="edge13" class="edge"><title>Node11&#45;&gt;Node10</title>
<path fill="none" stroke="midnightblue" d="M646.391,-56.9327C614.074,-46.5077 570.547,-32.4667 540.157,-22.6635"/>
<polygon fill="midnightblue" stroke="midnightblue" points="540.981,-19.2518 530.389,-19.5127 538.832,-25.9138 540.981,-19.2518"/>
</g>
<!-- Node12 -->
<g id="node12" class="node"><title>Node12</title>
<polygon fill="white" stroke="#bfbfbf" points="669.5,-0.5 669.5,-19.5 710.5,-19.5 710.5,-0.5 669.5,-0.5"/>
<text text-anchor="middle" x="690" y="-7.5" font-family="Helvetica,sans-Serif" font-size="10.00">string</text>
</g>
<!-- Node11&#45;&gt;Node12 -->
<g id="edge12" class="edge"><title>Node11&#45;&gt;Node12</title>
<path fill="none" stroke="midnightblue" d="M690,-56.7808C690,-48.7812 690,-38.6887 690,-30.0168"/>
<polygon fill="midnightblue" stroke="midnightblue" points="693.5,-29.7305 690,-19.7305 686.5,-29.7306 693.5,-29.7305"/>
</g>
<!-- Node14&#45;&gt;Node3 -->
<g id="edge18" class="edge"><title>Node14&#45;&gt;Node3</title>
<path fill="none" stroke="midnightblue" d="M567.694,-266.498C516.21,-257.652 435.564,-242.514 367,-224 363.357,-223.016 359.578,-221.892 355.833,-220.711"/>
<polygon fill="midnightblue" stroke="midnightblue" points="356.711,-217.315 346.118,-217.509 354.52,-223.963 356.711,-217.315"/>
</g>
<!-- Node14&#45;&gt;Node4 -->
<g id="edge20" class="edge"><title>Node14&#45;&gt;Node4</title>
<path fill="none" stroke="midnightblue" d="M561.86,-267.211C494.736,-257.979 381.096,-241.61 284,-224 271.728,-221.774 258.329,-219.027 246.511,-216.494"/>
<polygon fill="midnightblue" stroke="midnightblue" points="247.115,-213.043 236.6,-214.342 245.629,-219.884 247.115,-213.043"/>
</g>
<!-- Node14&#45;&gt;Node8 -->
<g id="edge33" class="edge"><title>Node14&#45;&gt;Node8</title>
<path fill="none" stroke="midnightblue" d="M582.193,-266.485C559.619,-259.244 532.743,-246.335 519,-224 511.547,-211.887 510.619,-203.49 519,-192 526.048,-182.338 590.077,-163.941 634.698,-152.085"/>
<polygon fill="midnightblue" stroke="midnightblue" points="635.678,-155.446 644.456,-149.514 633.894,-148.677 635.678,-155.446"/>
</g>
<!-- Node14&#45;&gt;Node9 -->
<g id="edge17" class="edge"><title>Node14&#45;&gt;Node9</title>
<path fill="none" stroke="midnightblue" d="M678.473,-273.443C808.804,-269.399 1114.28,-256.521 1147,-224 1178.6,-192.592 1177.19,-162.04 1154,-124 1139.71,-100.561 1110.82,-87.4338 1087.91,-80.3898"/>
<polygon fill="midnightblue" stroke="midnightblue" points="1088.78,-76.9982 1078.21,-77.6486 1086.88,-83.7347 1088.78,-76.9982"/>
</g>
<!-- Node14&#45;&gt;Node10 -->
<g id="edge27" class="edge"><title>Node14&#45;&gt;Node10</title>
<path fill="none" stroke="midnightblue" d="M561.85,-269.859C494.456,-260.324 387.023,-233.174 343,-156 307.85,-94.3799 411.862,-44.8574 469.077,-23.0493"/>
<polygon fill="midnightblue" stroke="midnightblue" points="470.348,-26.3111 478.501,-19.5457 467.908,-19.7499 470.348,-26.3111"/>
</g>
<!-- Node14&#45;&gt;Node11 -->
<g id="edge34" class="edge"><title>Node14&#45;&gt;Node11</title>
<path fill="none" stroke="midnightblue" d="M603.844,-266.487C577.295,-251.421 529.515,-219.092 552,-192 607.447,-125.191 688.553,-222.809 744,-156 760.477,-136.147 739.076,-111.046 718.546,-93.6729"/>
<polygon fill="midnightblue" stroke="midnightblue" points="720.489,-90.7438 710.507,-87.1935 716.096,-96.1939 720.489,-90.7438"/>
</g>
<!-- Node15 -->
<g id="node15" class="node"><title>Node15</title>
<polygon fill="white" stroke="#bfbfbf" points="1096.5,-130.5 1096.5,-149.5 1145.5,-149.5 1145.5,-130.5 1096.5,-130.5"/>
<text text-anchor="middle" x="1121" y="-137.5" font-family="Helvetica,sans-Serif" font-size="10.00">cstddef</text>
</g>
<!-- Node14&#45;&gt;Node15 -->
<g id="edge16" class="edge"><title>Node14&#45;&gt;Node15</title>
<path fill="none" stroke="midnightblue" d="M678.136,-273.473C805.297,-269.534 1099.21,-256.927 1129,-224 1144.9,-206.429 1137.2,-177.394 1129.57,-158.74"/>
<polygon fill="midnightblue" stroke="midnightblue" points="1132.76,-157.295 1125.5,-149.582 1126.37,-160.142 1132.76,-157.295"/>
</g>
<!-- Node16 -->
<g id="node16" class="node"><title>Node16</title>
<polygon fill="white" stroke="#bfbfbf" points="561,-198.5 561,-217.5 615,-217.5 615,-198.5 561,-198.5"/>
<text text-anchor="middle" x="588" y="-205.5" font-family="Helvetica,sans-Serif" font-size="10.00">iostream</text>
</g>
<!-- Node14&#45;&gt;Node16 -->
<g id="edge19" class="edge"><title>Node14&#45;&gt;Node16</title>
<path fill="none" stroke="midnightblue" d="M615.817,-266.372C611.004,-256.446 602.969,-239.874 596.769,-227.086"/>
<polygon fill="midnightblue" stroke="midnightblue" points="599.799,-225.312 592.287,-217.841 593.5,-228.366 599.799,-225.312"/>
</g>
<!-- Node17 -->
<g id="node17" class="node"><title>Node17</title>
<polygon fill="white" stroke="#bfbfbf" points="633.5,-198.5 633.5,-217.5 668.5,-217.5 668.5,-198.5 633.5,-198.5"/>
<text text-anchor="middle" x="651" y="-205.5" font-family="Helvetica,sans-Serif" font-size="10.00">map</text>
</g>
<!-- Node14&#45;&gt;Node17 -->
<g id="edge21" class="edge"><title>Node14&#45;&gt;Node17</title>
<path fill="none" stroke="midnightblue" d="M624.053,-266.372C628.715,-256.446 636.498,-239.874 642.505,-227.086"/>
<polygon fill="midnightblue" stroke="midnightblue" points="645.764,-228.38 646.847,-217.841 639.428,-225.404 645.764,-228.38"/>
</g>
<!-- Node18 -->
<g id="node18" class="node"><title>Node18</title>
<polygon fill="white" stroke="#bfbfbf" points="955,-130.5 955,-149.5 1007,-149.5 1007,-130.5 955,-130.5"/>
<text text-anchor="middle" x="981" y="-137.5" font-family="Helvetica,sans-Serif" font-size="10.00">memory</text>
</g>
<!-- Node14&#45;&gt;Node18 -->
<g id="edge22" class="edge"><title>Node14&#45;&gt;Node18</title>
<path fill="none" stroke="midnightblue" d="M678.316,-272.137C759.292,-267.105 900.424,-254.188 941,-224 961.92,-208.436 972.416,-179.04 977.282,-159.738"/>
<polygon fill="midnightblue" stroke="midnightblue" points="980.755,-160.244 979.532,-149.721 973.925,-158.71 980.755,-160.244"/>
</g>
<!-- Node19 -->
<g id="node19" class="node"><title>Node19</title>
<polygon fill="white" stroke="#bfbfbf" points="687,-198.5 687,-217.5 717,-217.5 717,-198.5 687,-198.5"/>
<text text-anchor="middle" x="702" y="-205.5" font-family="Helvetica,sans-Serif" font-size="10.00">set</text>
</g>
<!-- Node14&#45;&gt;Node19 -->
<g id="edge23" class="edge"><title>Node14&#45;&gt;Node19</title>
<path fill="none" stroke="midnightblue" d="M630.72,-266.372C644.103,-255.6 667.209,-237.002 683.48,-223.906"/>
<polygon fill="midnightblue" stroke="midnightblue" points="685.682,-226.627 691.277,-217.63 681.293,-221.174 685.682,-226.627"/>
</g>
<!-- Node20 -->
<g id="node20" class="node"><title>Node20</title>
<polygon fill="white" stroke="#bfbfbf" points="735,-198.5 735,-217.5 813,-217.5 813,-198.5 735,-198.5"/>
<text text-anchor="middle" x="774" y="-205.5" font-family="Helvetica,sans-Serif" font-size="10.00">unordered_set</text>
</g>
<!-- Node14&#45;&gt;Node20 -->
<g id="edge24" class="edge"><title>Node14&#45;&gt;Node20</title>
<path fill="none" stroke="midnightblue" d="M640.133,-266.372C666.765,-254.958 713.902,-234.756 744.541,-221.625"/>
<polygon fill="midnightblue" stroke="midnightblue" points="746.05,-224.787 753.862,-217.63 743.292,-218.353 746.05,-224.787"/>
</g>
<!-- Node21 -->
<g id="node21" class="node"><title>Node21</title>
<polygon fill="white" stroke="#bfbfbf" points="831,-198.5 831,-217.5 871,-217.5 871,-198.5 831,-198.5"/>
<text text-anchor="middle" x="851" y="-205.5" font-family="Helvetica,sans-Serif" font-size="10.00">utility</text>
</g>
<!-- Node14&#45;&gt;Node21 -->
<g id="edge25" class="edge"><title>Node14&#45;&gt;Node21</title>
<path fill="none" stroke="midnightblue" d="M666.249,-266.484C707.801,-258.095 770.084,-243.679 822,-224 823.603,-223.392 825.233,-222.719 826.86,-222.003"/>
<polygon fill="midnightblue" stroke="midnightblue" points="828.465,-225.115 835.951,-217.617 825.423,-218.81 828.465,-225.115"/>
</g>
<!-- Node22 -->
<g id="node22" class="node"><title>Node22</title>
<polygon fill="white" stroke="#bfbfbf" points="889,-198.5 889,-217.5 933,-217.5 933,-198.5 889,-198.5"/>
<text text-anchor="middle" x="911" y="-205.5" font-family="Helvetica,sans-Serif" font-size="10.00">vector</text>
</g>
<!-- Node14&#45;&gt;Node22 -->
<g id="edge26" class="edge"><title>Node14&#45;&gt;Node22</title>
<path fill="none" stroke="midnightblue" d="M678.155,-267.954C731.583,-260.465 812.479,-246.539 880,-224 881.914,-223.361 883.862,-222.63 885.802,-221.842"/>
<polygon fill="midnightblue" stroke="midnightblue" points="887.558,-224.89 895.239,-217.593 884.684,-218.507 887.558,-224.89"/>
</g>
<!-- Node23 -->
<g id="node23" class="node"><title>Node23</title>
<g id="a_node23"><a xlink:href="handle_8h.html" target="_top" xlink:title="shad/runtime/handle.h">
<polygon fill="white" stroke="black" points="352.5,-130.5 352.5,-149.5 465.5,-149.5 465.5,-130.5 352.5,-130.5"/>
<text text-anchor="middle" x="409" y="-137.5" font-family="Helvetica,sans-Serif" font-size="10.00">shad/runtime/handle.h</text>
</a>
</g>
</g>
<!-- Node14&#45;&gt;Node23 -->
<g id="edge28" class="edge"><title>Node14&#45;&gt;Node23</title>
<path fill="none" stroke="midnightblue" d="M593.957,-266.478C569.222,-257.767 531.531,-242.858 502,-224 471.632,-204.608 441.426,-175.331 424.018,-157.23"/>
<polygon fill="midnightblue" stroke="midnightblue" points="426.38,-154.635 416.965,-149.776 421.295,-159.445 426.38,-154.635"/>
</g>
<!-- Node24 -->
<g id="node24" class="node"><title>Node24</title>
<g id="a_node24"><a xlink:href="available__mappings_8h.html" target="_top" xlink:title="shad/runtime/mappings\l/available_mappings.h">
<polygon fill="white" stroke="black" points="484,-125 484,-155 602,-155 602,-125 484,-125"/>
<text text-anchor="start" x="492" y="-143" font-family="Helvetica,sans-Serif" font-size="10.00">shad/runtime/mappings</text>
<text text-anchor="middle" x="543" y="-132" font-family="Helvetica,sans-Serif" font-size="10.00">/available_mappings.h</text>
</a>
</g>
</g>
<!-- Node14&#45;&gt;Node24 -->
<g id="edge35" class="edge"><title>Node14&#45;&gt;Node24</title>
<path fill="none" stroke="midnightblue" d="M575.596,-266.448C551.787,-259.359 524.445,-246.62 510,-224 497.807,-204.907 510.278,-180.575 523.233,-163.201"/>
<polygon fill="midnightblue" stroke="midnightblue" points="526.043,-165.291 529.526,-155.285 520.563,-160.935 526.043,-165.291"/>
</g>
<!-- Node25 -->
<g id="node25" class="node"><title>Node25</title>
<g id="a_node25"><a xlink:href="synchronous__interface_8h.html" target="_top" xlink:title="shad/runtime/synchronous\l_interface.h">
<polygon fill="white" stroke="black" points="989.5,-193 989.5,-223 1120.5,-223 1120.5,-193 989.5,-193"/>
<text text-anchor="start" x="997.5" y="-211" font-family="Helvetica,sans-Serif" font-size="10.00">shad/runtime/synchronous</text>
<text text-anchor="middle" x="1055" y="-200" font-family="Helvetica,sans-Serif" font-size="10.00">_interface.h</text>
</a>
</g>
</g>
<!-- Node14&#45;&gt;Node25 -->
<g id="edge37" class="edge"><title>Node14&#45;&gt;Node25</title>
<path fill="none" stroke="midnightblue" d="M678.227,-267.411C748.649,-258.053 870.724,-241.258 975,-224 976.294,-223.786 977.599,-223.568 978.913,-223.346"/>
<polygon fill="midnightblue" stroke="midnightblue" points="979.86,-226.734 989.118,-221.583 978.668,-219.836 979.86,-226.734"/>
</g>
<!-- Node23&#45;&gt;Node6 -->
<g id="edge29" class="edge"><title>Node23&#45;&gt;Node6</title>
<path fill="none" stroke="midnightblue" d="M390.175,-130.372C365.488,-119.057 321.957,-99.1053 293.293,-85.9678"/>
<polygon fill="midnightblue" stroke="midnightblue" points="294.379,-82.6153 283.83,-81.6305 291.462,-88.9788 294.379,-82.6153"/>
</g>
<!-- Node23&#45;&gt;Node10 -->
<g id="edge30" class="edge"><title>Node23&#45;&gt;Node10</title>
<path fill="none" stroke="midnightblue" d="M408.831,-130.329C408.945,-114.149 411.264,-78.9233 428,-56 438.458,-41.6755 454.98,-31.1089 469.952,-23.8286"/>
<polygon fill="midnightblue" stroke="midnightblue" points="471.82,-26.8248 479.487,-19.5125 468.934,-20.4476 471.82,-26.8248"/>
</g>
<!-- Node23&#45;&gt;Node11 -->
<g id="edge31" class="edge"><title>Node23&#45;&gt;Node11</title>
<path fill="none" stroke="midnightblue" d="M445.448,-130.439C490.486,-119.861 567.978,-101.66 623.672,-88.5789"/>
<polygon fill="midnightblue" stroke="midnightblue" points="624.521,-91.9747 633.456,-86.2808 622.921,-85.1601 624.521,-91.9747"/>
</g>
<!-- Node23&#45;&gt;Node13 -->
<g id="edge32" class="edge"><title>Node23&#45;&gt;Node13</title>
<path fill="none" stroke="midnightblue" d="M421.812,-130.372C435.876,-120.9 458.926,-105.376 477.505,-92.8638"/>
<polygon fill="midnightblue" stroke="midnightblue" points="479.603,-95.6705 485.943,-87.1815 475.693,-89.8645 479.603,-95.6705"/>
</g>
<!-- Node24&#45;&gt;Node13 -->
<g id="edge36" class="edge"><title>Node24&#45;&gt;Node13</title>
<path fill="none" stroke="midnightblue" d="M535.189,-124.679C530.66,-116.376 524.848,-105.721 519.679,-96.2452"/>
<polygon fill="midnightblue" stroke="midnightblue" points="522.657,-94.396 514.796,-87.2931 516.512,-97.748 522.657,-94.396"/>
</g>
<!-- Node25&#45;&gt;Node8 -->
<g id="edge41" class="edge"><title>Node25&#45;&gt;Node8</title>
<path fill="none" stroke="midnightblue" d="M989.332,-195.504C918.097,-183.033 805.409,-163.305 736.928,-151.316"/>
<polygon fill="midnightblue" stroke="midnightblue" points="737.197,-147.81 726.743,-149.533 735.99,-154.705 737.197,-147.81"/>
</g>
<!-- Node25&#45;&gt;Node9 -->
<g id="edge39" class="edge"><title>Node25&#45;&gt;Node9</title>
<path fill="none" stroke="midnightblue" d="M1055,-192.66C1055,-168.32 1055,-118.933 1055,-91.8373"/>
<polygon fill="midnightblue" stroke="midnightblue" points="1058.5,-91.7275 1055,-81.7275 1051.5,-91.7276 1058.5,-91.7275"/>
</g>
<!-- Node25&#45;&gt;Node15 -->
<g id="edge38" class="edge"><title>Node25&#45;&gt;Node15</title>
<path fill="none" stroke="midnightblue" d="M1069.32,-192.679C1079.82,-182.184 1094.07,-167.932 1104.95,-157.052"/>
<polygon fill="midnightblue" stroke="midnightblue" points="1107.58,-159.374 1112.17,-149.828 1102.63,-154.425 1107.58,-159.374"/>
</g>
<!-- Node25&#45;&gt;Node18 -->
<g id="edge40" class="edge"><title>Node25&#45;&gt;Node18</title>
<path fill="none" stroke="midnightblue" d="M1038.94,-192.679C1027.06,-182.082 1010.89,-167.655 998.644,-156.736"/>
<polygon fill="midnightblue" stroke="midnightblue" points="1000.69,-153.872 990.898,-149.828 996.032,-159.097 1000.69,-153.872"/>
</g>
</g>
</svg>
