<?xml version="1.0" encoding="UTF-8" standalone="no"?>
<!DOCTYPE svg PUBLIC "-//W3C//DTD SVG 1.1//EN"
 "http://www.w3.org/Graphics/SVG/1.1/DTD/svg11.dtd">
<!-- Generated by graphviz version 2.36.0 (20140111.2315)
 -->
<!-- Title: include/shad/runtime/runtime.h Pages: 1 -->
<svg width="1159pt" height="300pt"
 viewBox="0.00 0.00 1158.66 300.00" xmlns="http://www.w3.org/2000/svg" xmlns:xlink="http://www.w3.org/1999/xlink">
<g id="graph0" class="graph" transform="scale(1 1) rotate(0) translate(4 296)">
<title>include/shad/runtime/runtime.h</title>
<polygon fill="white" stroke="none" points="-4,4 -4,-296 1154.66,-296 1154.66,4 -4,4"/>
<!-- Node1 -->
<g id="node1" class="node"><title>Node1</title>
<polygon fill="#bfbfbf" stroke="black" points="341.163,-261 341.163,-291 448.163,-291 448.163,-261 341.163,-261"/>
<text text-anchor="start" x="349.163" y="-279" font-family="Helvetica,sans-Serif" font-size="10.00">include/shad/runtime</text>
<text text-anchor="middle" x="394.663" y="-268" font-family="Helvetica,sans-Serif" font-size="10.00">/runtime.h</text>
</g>
<!-- Node2 -->
<g id="node2" class="node"><title>Node2</title>
<polygon fill="white" stroke="#bfbfbf" points="195.163,-130.5 195.163,-149.5 244.163,-149.5 244.163,-130.5 195.163,-130.5"/>
<text text-anchor="middle" x="219.663" y="-137.5" font-family="Helvetica,sans-Serif" font-size="10.00">cstddef</text>
</g>
<!-- Node1&#45;&gt;Node2 -->
<g id="edge1" class="edge"><title>Node1&#45;&gt;Node2</title>
<path fill="none" stroke="midnightblue" d="M341.019,-271.939C274.361,-266.885 166.355,-254.165 141.663,-224 132.655,-212.995 134.897,-204.509 141.663,-192 151.059,-174.632 169.224,-162.232 185.662,-154.012"/>
<polygon fill="midnightblue" stroke="midnightblue" points="187.464,-157.034 195.061,-149.648 184.517,-150.684 187.464,-157.034"/>
</g>
<!-- Node3 -->
<g id="node3" class="node"><title>Node3</title>
<polygon fill="white" stroke="#bfbfbf" points="629.663,-62.5 629.663,-81.5 675.663,-81.5 675.663,-62.5 629.663,-62.5"/>
<text text-anchor="middle" x="652.663" y="-69.5" font-family="Helvetica,sans-Serif" font-size="10.00">cstdint</text>
</g>
<!-- Node1&#45;&gt;Node3 -->
<g id="edge2" class="edge"><title>Node1&#45;&gt;Node3</title>
<path fill="none" stroke="midnightblue" d="M448.224,-274.422C529.598,-272.279 678.45,-262.983 711.663,-224 720.887,-213.174 717.45,-204.992 711.663,-192 701.933,-170.151 683.786,-176.618 671.663,-156 659.925,-136.034 655.438,-109.417 653.723,-91.7698"/>
<polygon fill="midnightblue" stroke="midnightblue" points="657.2,-91.3324 652.948,-81.628 650.22,-91.8656 657.2,-91.3324"/>
</g>
<!-- Node4 -->
<g id="node4" class="node"><title>Node4</title>
<polygon fill="white" stroke="#bfbfbf" points="35.1634,-198.5 35.1634,-217.5 94.1634,-217.5 94.1634,-198.5 35.1634,-198.5"/>
<text text-anchor="middle" x="64.6634" y="-205.5" font-family="Helvetica,sans-Serif" font-size="10.00">functional</text>
</g>
<!-- Node1&#45;&gt;Node4 -->
<g id="edge3" class="edge"><title>Node1&#45;&gt;Node4</title>
<path fill="none" stroke="midnightblue" d="M340.903,-267.906C283.026,-259.691 188.511,-244.602 108.663,-224 105.01,-223.057 101.224,-221.959 97.4747,-220.793"/>
<polygon fill="midnightblue" stroke="midnightblue" points="98.348,-217.396 87.7553,-217.609 96.1688,-224.048 98.348,-217.396"/>
</g>
<!-- Node5 -->
<g id="node5" class="node"><title>Node5</title>
<polygon fill="white" stroke="#bfbfbf" points="288.663,-62.5 288.663,-81.5 342.663,-81.5 342.663,-62.5 288.663,-62.5"/>
<text text-anchor="middle" x="315.663" y="-69.5" font-family="Helvetica,sans-Serif" font-size="10.00">iostream</text>
</g>
<!-- Node1&#45;&gt;Node5 -->
<g id="edge4" class="edge"><title>Node1&#45;&gt;Node5</title>
<path fill="none" stroke="midnightblue" d="M341.05,-275.816C248.769,-275.948 65.917,-270.2 25.6634,-224 -51.2519,-135.723 184.049,-91.6714 278.374,-77.8873"/>
<polygon fill="midnightblue" stroke="midnightblue" points="278.957,-81.3396 288.364,-76.464 277.97,-74.4096 278.957,-81.3396"/>
</g>
<!-- Node6 -->
<g id="node6" class="node"><title>Node6</title>
<polygon fill="white" stroke="#bfbfbf" points="151.163,-198.5 151.163,-217.5 198.163,-217.5 198.163,-198.5 151.163,-198.5"/>
<text text-anchor="middle" x="174.663" y="-205.5" font-family="Helvetica,sans-Serif" font-size="10.00">iterator</text>
</g>
<!-- Node1&#45;&gt;Node6 -->
<g id="edge5" class="edge"><title>Node1&#45;&gt;Node6</title>
<path fill="none" stroke="midnightblue" d="M340.814,-263.022C302.799,-253.933 250.954,-240.249 206.663,-224 204.806,-223.318 202.908,-222.571 201.01,-221.784"/>
<polygon fill="midnightblue" stroke="midnightblue" points="202.262,-218.51 191.702,-217.655 199.424,-224.909 202.262,-218.51"/>
</g>
<!-- Node7 -->
<g id="node7" class="node"><title>Node7</title>
<polygon fill="white" stroke="#bfbfbf" points="216.163,-198.5 216.163,-217.5 251.163,-217.5 251.163,-198.5 216.163,-198.5"/>
<text text-anchor="middle" x="233.663" y="-205.5" font-family="Helvetica,sans-Serif" font-size="10.00">map</text>
</g>
<!-- Node1&#45;&gt;Node7 -->
<g id="edge6" class="edge"><title>Node1&#45;&gt;Node7</title>
<path fill="none" stroke="midnightblue" d="M357.437,-260.983C331.534,-251.06 296.288,-237.216 265.663,-224 264.037,-223.298 262.37,-222.564 260.693,-221.813"/>
<polygon fill="midnightblue" stroke="midnightblue" points="261.729,-218.437 251.18,-217.449 258.81,-224.8 261.729,-218.437"/>
</g>
<!-- Node8 -->
<g id="node8" class="node"><title>Node8</title>
<polygon fill="white" stroke="#bfbfbf" points="360.663,-130.5 360.663,-149.5 412.663,-149.5 412.663,-130.5 360.663,-130.5"/>
<text text-anchor="middle" x="386.663" y="-137.5" font-family="Helvetica,sans-Serif" font-size="10.00">memory</text>
</g>
<!-- Node1&#45;&gt;Node8 -->
<g id="edge7" class="edge"><title>Node1&#45;&gt;Node8</title>
<path fill="none" stroke="midnightblue" d="M345.782,-260.979C327.718,-253.166 309.116,-241.388 298.663,-224 291.336,-211.81 291.562,-204.323 298.663,-192 309.901,-172.498 331.765,-159.773 350.886,-151.911"/>
<polygon fill="midnightblue" stroke="midnightblue" points="352.18,-155.164 360.279,-148.333 349.688,-148.622 352.18,-155.164"/>
</g>
<!-- Node9 -->
<g id="node9" class="node"><title>Node9</title>
<polygon fill="white" stroke="#bfbfbf" points="307.663,-198.5 307.663,-217.5 337.663,-217.5 337.663,-198.5 307.663,-198.5"/>
<text text-anchor="middle" x="322.663" y="-205.5" font-family="Helvetica,sans-Serif" font-size="10.00">set</text>
</g>
<!-- Node1&#45;&gt;Node9 -->
<g id="edge8" class="edge"><title>Node1&#45;&gt;Node9</title>
<path fill="none" stroke="midnightblue" d="M379.04,-260.679C367.481,-250.082 351.741,-235.655 339.83,-224.736"/>
<polygon fill="midnightblue" stroke="midnightblue" points="342.031,-222.006 332.294,-217.828 337.301,-227.166 342.031,-222.006"/>
</g>
<!-- Node10 -->
<g id="node10" class="node"><title>Node10</title>
<polygon fill="white" stroke="#bfbfbf" points="355.663,-198.5 355.663,-217.5 433.663,-217.5 433.663,-198.5 355.663,-198.5"/>
<text text-anchor="middle" x="394.663" y="-205.5" font-family="Helvetica,sans-Serif" font-size="10.00">unordered_set</text>
</g>
<!-- Node1&#45;&gt;Node10 -->
<g id="edge9" class="edge"><title>Node1&#45;&gt;Node10</title>
<path fill="none" stroke="midnightblue" d="M394.663,-260.679C394.663,-251.101 394.663,-238.394 394.663,-227.977"/>
<polygon fill="midnightblue" stroke="midnightblue" points="398.163,-227.828 394.663,-217.828 391.163,-227.828 398.163,-227.828"/>
</g>
<!-- Node11 -->
<g id="node11" class="node"><title>Node11</title>
<polygon fill="white" stroke="#bfbfbf" points="451.663,-198.5 451.663,-217.5 491.663,-217.5 491.663,-198.5 451.663,-198.5"/>
<text text-anchor="middle" x="471.663" y="-205.5" font-family="Helvetica,sans-Serif" font-size="10.00">utility</text>
</g>
<!-- Node1&#45;&gt;Node11 -->
<g id="edge10" class="edge"><title>Node1&#45;&gt;Node11</title>
<path fill="none" stroke="midnightblue" d="M411.371,-260.679C423.853,-249.981 440.89,-235.377 453.671,-224.422"/>
<polygon fill="midnightblue" stroke="midnightblue" points="456.049,-226.994 461.364,-217.828 451.493,-221.679 456.049,-226.994"/>
</g>
<!-- Node12 -->
<g id="node12" class="node"><title>Node12</title>
<polygon fill="white" stroke="#bfbfbf" points="509.663,-198.5 509.663,-217.5 553.663,-217.5 553.663,-198.5 509.663,-198.5"/>
<text text-anchor="middle" x="531.663" y="-205.5" font-family="Helvetica,sans-Serif" font-size="10.00">vector</text>
</g>
<!-- Node1&#45;&gt;Node12 -->
<g id="edge11" class="edge"><title>Node1&#45;&gt;Node12</title>
<path fill="none" stroke="midnightblue" d="M423.917,-260.947C445.207,-250.714 474.729,-236.513 500.663,-224 502.01,-223.35 503.389,-222.685 504.781,-222.012"/>
<polygon fill="midnightblue" stroke="midnightblue" points="506.482,-225.077 513.962,-217.574 503.435,-218.775 506.482,-225.077"/>
</g>
<!-- Node13 -->
<g id="node13" class="node"><title>Node13</title>
<polygon fill="white" stroke="#bfbfbf" points="775.663,-0.5 775.663,-19.5 879.663,-19.5 879.663,-0.5 775.663,-0.5"/>
<text text-anchor="middle" x="827.663" y="-7.5" font-family="Helvetica,sans-Serif" font-size="10.00">shad/config/config.h</text>
</g>
<!-- Node1&#45;&gt;Node13 -->
<g id="edge12" class="edge"><title>Node1&#45;&gt;Node13</title>
<path fill="none" stroke="midnightblue" d="M340.844,-271.808C239.464,-265.245 28.3641,-248.74 6.66339,-224 -12.0378,-202.68 13.5619,-135.971 25.6634,-124 129.813,-20.9776 595.742,-10.801 765.519,-10.5805"/>
<polygon fill="midnightblue" stroke="midnightblue" points="765.548,-14.0806 775.547,-10.5788 765.547,-7.08062 765.548,-14.0806"/>
</g>
<!-- Node14 -->
<g id="node14" class="node"><title>Node14</title>
<g id="a_node14"><a xlink:href="handle_8h.html" target="_top" xlink:title="shad/runtime/handle.h">
<polygon fill="white" stroke="black" points="951.163,-130.5 951.163,-149.5 1064.16,-149.5 1064.16,-130.5 951.163,-130.5"/>
<text text-anchor="middle" x="1007.66" y="-137.5" font-family="Helvetica,sans-Serif" font-size="10.00">shad/runtime/handle.h</text>
</a>
</g>
</g>
<!-- Node1&#45;&gt;Node14 -->
<g id="edge13" class="edge"><title>Node1&#45;&gt;Node14</title>
<path fill="none" stroke="midnightblue" d="M448.258,-272.844C527.38,-268.654 679.583,-256.731 804.663,-224 870.768,-206.702 943.953,-172.867 981.804,-154.182"/>
<polygon fill="midnightblue" stroke="midnightblue" points="983.688,-157.154 991.075,-149.558 980.564,-150.89 983.688,-157.154"/>
</g>
<!-- Node16 -->
<g id="node16" class="node"><title>Node16</title>
<g id="a_node16"><a xlink:href="mapping__traits_8h.html" target="_top" xlink:title="shad/runtime/mapping\l_traits.h">
<polygon fill="white" stroke="black" points="957.163,-57 957.163,-87 1070.16,-87 1070.16,-57 957.163,-57"/>
<text text-anchor="start" x="965.163" y="-75" font-family="Helvetica,sans-Serif" font-size="10.00">shad/runtime/mapping</text>
<text text-anchor="middle" x="1013.66" y="-64" font-family="Helvetica,sans-Serif" font-size="10.00">_traits.h</text>
</a>
</g>
</g>
<!-- Node1&#45;&gt;Node16 -->
<g id="edge26" class="edge"><title>Node1&#45;&gt;Node16</title>
<path fill="none" stroke="midnightblue" d="M448.201,-274.645C595.271,-272.364 999.409,-256.868 1072.66,-156 1088.14,-134.69 1065.63,-110.076 1044.09,-93.2186"/>
<polygon fill="midnightblue" stroke="midnightblue" points="1046.08,-90.3336 1035.97,-87.1608 1041.9,-95.945 1046.08,-90.3336"/>
</g>
<!-- Node19 -->
<g id="node19" class="node"><title>Node19</title>
<g id="a_node19"><a xlink:href="locality_8h.html" target="_top" xlink:title="shad/runtime/locality.h">
<polygon fill="white" stroke="black" points="681.163,-130.5 681.163,-149.5 796.163,-149.5 796.163,-130.5 681.163,-130.5"/>
<text text-anchor="middle" x="738.663" y="-137.5" font-family="Helvetica,sans-Serif" font-size="10.00">shad/runtime/locality.h</text>
</a>
</g>
</g>
<!-- Node1&#45;&gt;Node19 -->
<g id="edge20" class="edge"><title>Node1&#45;&gt;Node19</title>
<path fill="none" stroke="midnightblue" d="M448.494,-275.377C537.158,-274.722 707.892,-267.657 745.663,-224 761.079,-206.182 754.037,-177.424 746.879,-158.869"/>
<polygon fill="midnightblue" stroke="midnightblue" points="750.042,-157.363 742.926,-149.514 743.594,-160.088 750.042,-157.363"/>
</g>
<!-- Node20 -->
<g id="node20" class="node"><title>Node20</title>
<g id="a_node20"><a xlink:href="available__mappings_8h.html" target="_top" xlink:title="shad/runtime/mappings\l/available_mappings.h">
<polygon fill="white" stroke="black" points="814.663,-125 814.663,-155 932.663,-155 932.663,-125 814.663,-125"/>
<text text-anchor="start" x="822.663" y="-143" font-family="Helvetica,sans-Serif" font-size="10.00">shad/runtime/mappings</text>
<text text-anchor="middle" x="873.663" y="-132" font-family="Helvetica,sans-Serif" font-size="10.00">/available_mappings.h</text>
</a>
</g>
</g>
<!-- Node1&#45;&gt;Node20 -->
<g id="edge27" class="edge"><title>Node1&#45;&gt;Node20</title>
<path fill="none" stroke="midnightblue" d="M448.256,-270.982C536.598,-263.8 708.603,-247.299 764.663,-224 799.136,-209.673 832.309,-181.716 852.819,-162.227"/>
<polygon fill="midnightblue" stroke="midnightblue" points="855.301,-164.696 860.036,-155.218 850.424,-159.674 855.301,-164.696"/>
</g>
<!-- Node21 -->
<g id="node21" class="node"><title>Node21</title>
<g id="a_node21"><a xlink:href="synchronous__interface_8h.html" target="_top" xlink:title="shad/runtime/synchronous\l_interface.h">
<polygon fill="white" stroke="black" points="572.163,-193 572.163,-223 703.163,-223 703.163,-193 572.163,-193"/>
<text text-anchor="start" x="580.163" y="-211" font-family="Helvetica,sans-Serif" font-size="10.00">shad/runtime/synchronous</text>
<text text-anchor="middle" x="637.663" y="-200" font-family="Helvetica,sans-Serif" font-size="10.00">_interface.h</text>
</a>
</g>
</g>
<!-- Node1&#45;&gt;Node21 -->
<g id="edge29" class="edge"><title>Node1&#45;&gt;Node21</title>
<path fill="none" stroke="midnightblue" d="M446.495,-260.922C484.482,-250.605 536.192,-236.56 576.254,-225.679"/>
<polygon fill="midnightblue" stroke="midnightblue" points="577.179,-229.055 585.912,-223.056 575.344,-222.3 577.179,-229.055"/>
</g>
<!-- Node14&#45;&gt;Node13 -->
<g id="edge15" class="edge"><title>Node14&#45;&gt;Node13</title>
<path fill="none" stroke="midnightblue" d="M997.66,-130.33C974.594,-110.369 918.942,-62.379 909.663,-56 892.101,-43.9256 870.995,-32.4043 854.593,-24.0424"/>
<polygon fill="midnightblue" stroke="midnightblue" points="856.051,-20.8578 845.543,-19.5039 852.913,-27.1152 856.051,-20.8578"/>
</g>
<!-- Node15 -->
<g id="node15" class="node"><title>Node15</title>
<polygon fill="white" stroke="#bfbfbf" points="1088.66,-62.5 1088.66,-81.5 1150.66,-81.5 1150.66,-62.5 1088.66,-62.5"/>
<text text-anchor="middle" x="1119.66" y="-69.5" font-family="Helvetica,sans-Serif" font-size="10.00">type_traits</text>
</g>
<!-- Node14&#45;&gt;Node15 -->
<g id="edge14" class="edge"><title>Node14&#45;&gt;Node15</title>
<path fill="none" stroke="midnightblue" d="M1022.31,-130.372C1041.09,-119.304 1073.89,-99.9724 1096.18,-86.838"/>
<polygon fill="midnightblue" stroke="midnightblue" points="1098.18,-89.7228 1105.02,-81.6305 1094.63,-83.692 1098.18,-89.7228"/>
</g>
<!-- Node14&#45;&gt;Node16 -->
<g id="edge16" class="edge"><title>Node14&#45;&gt;Node16</title>
<path fill="none" stroke="midnightblue" d="M1008.45,-130.372C1009.21,-121.971 1010.41,-108.811 1011.46,-97.2126"/>
<polygon fill="midnightblue" stroke="midnightblue" points="1014.95,-97.4573 1012.37,-87.1815 1007.98,-96.8235 1014.95,-97.4573"/>
</g>
<!-- Node18 -->
<g id="node18" class="node"><title>Node18</title>
<g id="a_node18"><a xlink:href="available__traits__mappings_8h.html" target="_top" xlink:title="shad/runtime/mappings\l/available_traits_mappings.h">
<polygon fill="white" stroke="black" points="760.663,-57 760.663,-87 900.663,-87 900.663,-57 760.663,-57"/>
<text text-anchor="start" x="768.663" y="-75" font-family="Helvetica,sans-Serif" font-size="10.00">shad/runtime/mappings</text>
<text text-anchor="middle" x="830.663" y="-64" font-family="Helvetica,sans-Serif" font-size="10.00">/available_traits_mappings.h</text>
</a>
</g>
</g>
<!-- Node14&#45;&gt;Node18 -->
<g id="edge19" class="edge"><title>Node14&#45;&gt;Node18</title>
<path fill="none" stroke="midnightblue" d="M984.524,-130.372C957.543,-120.311 912.249,-103.422 877.773,-90.5662"/>
<polygon fill="midnightblue" stroke="midnightblue" points="878.952,-87.2707 868.36,-87.0562 876.507,-93.8295 878.952,-87.2707"/>
</g>
<!-- Node16&#45;&gt;Node13 -->
<g id="edge18" class="edge"><title>Node16&#45;&gt;Node13</title>
<path fill="none" stroke="midnightblue" d="M970.055,-56.9327C937.737,-46.5077 894.21,-32.4667 863.82,-22.6635"/>
<polygon fill="midnightblue" stroke="midnightblue" points="864.644,-19.2518 854.053,-19.5127 862.495,-25.9138 864.644,-19.2518"/>
</g>
<!-- Node17 -->
<g id="node17" class="node"><title>Node17</title>
<polygon fill="white" stroke="#bfbfbf" points="993.163,-0.5 993.163,-19.5 1034.16,-19.5 1034.16,-0.5 993.163,-0.5"/>
<text text-anchor="middle" x="1013.66" y="-7.5" font-family="Helvetica,sans-Serif" font-size="10.00">string</text>
</g>
<!-- Node16&#45;&gt;Node17 -->
<g id="edge17" class="edge"><title>Node16&#45;&gt;Node17</title>
<path fill="none" stroke="midnightblue" d="M1013.66,-56.7808C1013.66,-48.7812 1013.66,-38.6887 1013.66,-30.0168"/>
<polygon fill="midnightblue" stroke="midnightblue" points="1017.16,-29.7305 1013.66,-19.7305 1010.16,-29.7306 1017.16,-29.7305"/>
</g>
<!-- Node19&#45;&gt;Node3 -->
<g id="edge21" class="edge"><title>Node19&#45;&gt;Node3</title>
<path fill="none" stroke="midnightblue" d="M727.42,-130.372C713.385,-119.6 689.151,-101.002 672.087,-87.9065"/>
<polygon fill="midnightblue" stroke="midnightblue" points="673.973,-84.9421 663.909,-81.6305 669.711,-90.4953 673.973,-84.9421"/>
</g>
<!-- Node19&#45;&gt;Node5 -->
<g id="edge22" class="edge"><title>Node19&#45;&gt;Node5</title>
<path fill="none" stroke="midnightblue" d="M683.797,-130.439C596.262,-116.781 427.289,-90.4167 352.649,-78.7708"/>
<polygon fill="midnightblue" stroke="midnightblue" points="353.181,-75.3116 342.761,-77.228 352.102,-82.2279 353.181,-75.3116"/>
</g>
<!-- Node19&#45;&gt;Node13 -->
<g id="edge23" class="edge"><title>Node19&#45;&gt;Node13</title>
<path fill="none" stroke="midnightblue" d="M737.748,-130.377C736.494,-114.277 735.949,-79.1791 751.663,-56 761.475,-41.5281 777.623,-31.0206 792.517,-23.817"/>
<polygon fill="midnightblue" stroke="midnightblue" points="794.348,-26.8324 802.045,-19.5518 791.487,-20.4434 794.348,-26.8324"/>
</g>
<!-- Node19&#45;&gt;Node16 -->
<g id="edge24" class="edge"><title>Node19&#45;&gt;Node16</title>
<path fill="none" stroke="midnightblue" d="M774.333,-130.439C817.976,-119.965 892.759,-102.017 947.138,-88.9661"/>
<polygon fill="midnightblue" stroke="midnightblue" points="948.135,-92.3263 957.042,-86.5891 946.501,-85.5196 948.135,-92.3263"/>
</g>
<!-- Node19&#45;&gt;Node18 -->
<g id="edge25" class="edge"><title>Node19&#45;&gt;Node18</title>
<path fill="none" stroke="midnightblue" d="M750.691,-130.372C763.834,-120.943 785.337,-105.517 802.737,-93.0338"/>
<polygon fill="midnightblue" stroke="midnightblue" points="804.81,-95.8545 810.895,-87.1815 800.73,-90.1667 804.81,-95.8545"/>
</g>
<!-- Node20&#45;&gt;Node18 -->
<g id="edge28" class="edge"><title>Node20&#45;&gt;Node18</title>
<path fill="none" stroke="midnightblue" d="M864.333,-124.679C858.867,-116.29 851.837,-105.499 845.615,-95.9495"/>
<polygon fill="midnightblue" stroke="midnightblue" points="848.367,-93.7611 839.976,-87.2931 842.502,-97.5823 848.367,-93.7611"/>
</g>
<!-- Node21&#45;&gt;Node2 -->
<g id="edge30" class="edge"><title>Node21&#45;&gt;Node2</title>
<path fill="none" stroke="midnightblue" d="M571.789,-193.802C568.367,-193.178 564.976,-192.574 561.663,-192 449.551,-172.588 315.981,-153.964 254.181,-145.603"/>
<polygon fill="midnightblue" stroke="midnightblue" points="254.572,-142.124 244.194,-144.256 253.637,-149.061 254.572,-142.124"/>
</g>
<!-- Node21&#45;&gt;Node3 -->
<g id="edge31" class="edge"><title>Node21&#45;&gt;Node3</title>
<path fill="none" stroke="midnightblue" d="M636.739,-192.818C635.91,-176.227 635.286,-147.973 638.663,-124 640.227,-112.902 643.482,-100.793 646.461,-91.1596"/>
<polygon fill="midnightblue" stroke="midnightblue" points="649.831,-92.1137 649.601,-81.5213 643.175,-89.9453 649.831,-92.1137"/>
</g>
<!-- Node21&#45;&gt;Node8 -->
<g id="edge32" class="edge"><title>Node21&#45;&gt;Node8</title>
<path fill="none" stroke="midnightblue" d="M584.125,-192.922C535.444,-180.122 464.943,-161.584 422.673,-150.469"/>
<polygon fill="midnightblue" stroke="midnightblue" points="423.382,-147.036 412.821,-147.878 421.602,-153.806 423.382,-147.036"/>
</g>
<!-- Node21&#45;&gt;Node19 -->
<g id="edge33" class="edge"><title>Node21&#45;&gt;Node19</title>
<path fill="none" stroke="midnightblue" d="M659.579,-192.679C676.516,-181.611 699.85,-166.363 716.78,-155.3"/>
<polygon fill="midnightblue" stroke="midnightblue" points="718.988,-158.038 725.445,-149.638 715.159,-152.178 718.988,-158.038"/>
</g>
</g>
</svg>
