<?xml version="1.0" encoding="UTF-8" standalone="no"?>
<!DOCTYPE svg PUBLIC "-//W3C//DTD SVG 1.1//EN"
 "http://www.w3.org/Graphics/SVG/1.1/DTD/svg11.dtd">
<!-- Generated by graphviz version 2.36.0 (20140111.2315)
 -->
<!-- Title: include/shad/runtime/runtime.h Pages: 1 -->
<svg width="1023pt" height="300pt"
 viewBox="0.00 0.00 1022.61 300.00" xmlns="http://www.w3.org/2000/svg" xmlns:xlink="http://www.w3.org/1999/xlink">
<g id="graph0" class="graph" transform="scale(1 1) rotate(0) translate(4 296)">
<title>include/shad/runtime/runtime.h</title>
<polygon fill="white" stroke="none" points="-4,4 -4,-296 1018.61,-296 1018.61,4 -4,4"/>
<!-- Node1 -->
<g id="node1" class="node"><title>Node1</title>
<polygon fill="#bfbfbf" stroke="black" points="418.114,-261 418.114,-291 525.114,-291 525.114,-261 418.114,-261"/>
<text text-anchor="start" x="426.114" y="-279" font-family="Helvetica,sans-Serif" font-size="10.00">include/shad/runtime</text>
<text text-anchor="middle" x="471.614" y="-268" font-family="Helvetica,sans-Serif" font-size="10.00">/runtime.h</text>
</g>
<!-- Node2 -->
<g id="node2" class="node"><title>Node2</title>
<polygon fill="white" stroke="#bfbfbf" points="36.1142,-130.5 36.1142,-149.5 85.1142,-149.5 85.1142,-130.5 36.1142,-130.5"/>
<text text-anchor="middle" x="60.6142" y="-137.5" font-family="Helvetica,sans-Serif" font-size="10.00">cstddef</text>
</g>
<!-- Node1&#45;&gt;Node2 -->
<g id="edge1" class="edge"><title>Node1&#45;&gt;Node2</title>
<path fill="none" stroke="midnightblue" d="M417.808,-274.346C325.452,-272.172 141.923,-262.928 92.6142,-224 72.8553,-208.401 65.285,-179.015 62.3923,-159.724"/>
<polygon fill="midnightblue" stroke="midnightblue" points="65.8564,-159.217 61.1729,-149.713 58.9078,-160.063 65.8564,-159.217"/>
</g>
<!-- Node3 -->
<g id="node3" class="node"><title>Node3</title>
<polygon fill="white" stroke="#bfbfbf" points="90.6142,-62.5 90.6142,-81.5 136.614,-81.5 136.614,-62.5 90.6142,-62.5"/>
<text text-anchor="middle" x="113.614" y="-69.5" font-family="Helvetica,sans-Serif" font-size="10.00">cstdint</text>
</g>
<!-- Node1&#45;&gt;Node3 -->
<g id="edge2" class="edge"><title>Node1&#45;&gt;Node3</title>
<path fill="none" stroke="midnightblue" d="M418.027,-273.939C321.755,-271.116 124.276,-260.872 67.6142,-224 27.3532,-197.801 2.73447,-165.679 26.6142,-124 38.2297,-103.727 61.3775,-90.7309 80.8775,-82.9344"/>
<polygon fill="midnightblue" stroke="midnightblue" points="82.2128,-86.1723 90.3754,-79.418 79.7823,-79.6078 82.2128,-86.1723"/>
</g>
<!-- Node4 -->
<g id="node4" class="node"><title>Node4</title>
<polygon fill="white" stroke="#bfbfbf" points="500.114,-198.5 500.114,-217.5 559.114,-217.5 559.114,-198.5 500.114,-198.5"/>
<text text-anchor="middle" x="529.614" y="-205.5" font-family="Helvetica,sans-Serif" font-size="10.00">functional</text>
</g>
<!-- Node1&#45;&gt;Node4 -->
<g id="edge3" class="edge"><title>Node1&#45;&gt;Node4</title>
<path fill="none" stroke="midnightblue" d="M484.199,-260.679C493.332,-250.286 505.704,-236.208 515.228,-225.37"/>
<polygon fill="midnightblue" stroke="midnightblue" points="517.884,-227.65 521.856,-217.828 512.626,-223.03 517.884,-227.65"/>
</g>
<!-- Node5 -->
<g id="node5" class="node"><title>Node5</title>
<polygon fill="white" stroke="#bfbfbf" points="577.614,-198.5 577.614,-217.5 631.614,-217.5 631.614,-198.5 577.614,-198.5"/>
<text text-anchor="middle" x="604.614" y="-205.5" font-family="Helvetica,sans-Serif" font-size="10.00">iostream</text>
</g>
<!-- Node1&#45;&gt;Node5 -->
<g id="edge4" class="edge"><title>Node1&#45;&gt;Node5</title>
<path fill="none" stroke="midnightblue" d="M500.146,-260.841C523.254,-249.374 555.561,-233.342 578.109,-222.153"/>
<polygon fill="midnightblue" stroke="midnightblue" points="579.717,-225.262 587.119,-217.682 576.605,-218.992 579.717,-225.262"/>
</g>
<!-- Node6 -->
<g id="node6" class="node"><title>Node6</title>
<polygon fill="white" stroke="#bfbfbf" points="650.114,-198.5 650.114,-217.5 697.114,-217.5 697.114,-198.5 650.114,-198.5"/>
<text text-anchor="middle" x="673.614" y="-205.5" font-family="Helvetica,sans-Serif" font-size="10.00">iterator</text>
</g>
<!-- Node1&#45;&gt;Node6 -->
<g id="edge5" class="edge"><title>Node1&#45;&gt;Node6</title>
<path fill="none" stroke="midnightblue" d="M524.745,-260.934C558.339,-251.558 602.464,-238.353 640.614,-224 642.514,-223.285 644.458,-222.513 646.407,-221.708"/>
<polygon fill="midnightblue" stroke="midnightblue" points="648.214,-224.738 655.986,-217.538 645.42,-218.32 648.214,-224.738"/>
</g>
<!-- Node7 -->
<g id="node7" class="node"><title>Node7</title>
<polygon fill="white" stroke="#bfbfbf" points="715.114,-198.5 715.114,-217.5 750.114,-217.5 750.114,-198.5 715.114,-198.5"/>
<text text-anchor="middle" x="732.614" y="-205.5" font-family="Helvetica,sans-Serif" font-size="10.00">map</text>
</g>
<!-- Node1&#45;&gt;Node7 -->
<g id="edge6" class="edge"><title>Node1&#45;&gt;Node7</title>
<path fill="none" stroke="midnightblue" d="M525.396,-267.857C573.667,-260.381 645.901,-246.534 705.614,-224 707.025,-223.468 708.452,-222.871 709.874,-222.231"/>
<polygon fill="midnightblue" stroke="midnightblue" points="711.655,-225.252 718.975,-217.592 708.476,-219.015 711.655,-225.252"/>
</g>
<!-- Node8 -->
<g id="node8" class="node"><title>Node8</title>
<polygon fill="white" stroke="#bfbfbf" points="141.614,-130.5 141.614,-149.5 193.614,-149.5 193.614,-130.5 141.614,-130.5"/>
<text text-anchor="middle" x="167.614" y="-137.5" font-family="Helvetica,sans-Serif" font-size="10.00">memory</text>
</g>
<!-- Node1&#45;&gt;Node8 -->
<g id="edge7" class="edge"><title>Node1&#45;&gt;Node8</title>
<path fill="none" stroke="midnightblue" d="M434.087,-260.92C408.202,-251.023 373.098,-237.238 342.614,-224 289.277,-200.838 228.145,-171.095 194.087,-154.23"/>
<polygon fill="midnightblue" stroke="midnightblue" points="195.34,-150.945 184.826,-149.631 192.226,-157.214 195.34,-150.945"/>
</g>
<!-- Node9 -->
<g id="node9" class="node"><title>Node9</title>
<polygon fill="white" stroke="#bfbfbf" points="768.614,-198.5 768.614,-217.5 798.614,-217.5 798.614,-198.5 768.614,-198.5"/>
<text text-anchor="middle" x="783.614" y="-205.5" font-family="Helvetica,sans-Serif" font-size="10.00">set</text>
</g>
<!-- Node1&#45;&gt;Node9 -->
<g id="edge8" class="edge"><title>Node1&#45;&gt;Node9</title>
<path fill="none" stroke="midnightblue" d="M525.249,-271.32C584.084,-265.957 680.529,-253.226 758.614,-224 759.841,-223.541 761.075,-223.021 762.302,-222.458"/>
<polygon fill="midnightblue" stroke="midnightblue" points="764.215,-225.403 771.349,-217.571 760.887,-219.245 764.215,-225.403"/>
</g>
<!-- Node10 -->
<g id="node10" class="node"><title>Node10</title>
<polygon fill="white" stroke="#bfbfbf" points="816.614,-198.5 816.614,-217.5 894.614,-217.5 894.614,-198.5 816.614,-198.5"/>
<text text-anchor="middle" x="855.614" y="-205.5" font-family="Helvetica,sans-Serif" font-size="10.00">unordered_set</text>
</g>
<!-- Node1&#45;&gt;Node10 -->
<g id="edge9" class="edge"><title>Node1&#45;&gt;Node10</title>
<path fill="none" stroke="midnightblue" d="M525.154,-269.293C591.668,-261.644 708.387,-246.386 806.614,-224 811.077,-222.983 815.726,-221.769 820.305,-220.478"/>
<polygon fill="midnightblue" stroke="midnightblue" points="821.522,-223.768 830.119,-217.576 819.537,-217.055 821.522,-223.768"/>
</g>
<!-- Node11 -->
<g id="node11" class="node"><title>Node11</title>
<polygon fill="white" stroke="#bfbfbf" points="912.614,-198.5 912.614,-217.5 952.614,-217.5 952.614,-198.5 912.614,-198.5"/>
<text text-anchor="middle" x="932.614" y="-205.5" font-family="Helvetica,sans-Serif" font-size="10.00">utility</text>
</g>
<!-- Node1&#45;&gt;Node11 -->
<g id="edge10" class="edge"><title>Node1&#45;&gt;Node11</title>
<path fill="none" stroke="midnightblue" d="M525.41,-274.791C608.399,-273.112 771.84,-264.392 903.614,-224 905.525,-223.414 907.459,-222.706 909.374,-221.919"/>
<polygon fill="midnightblue" stroke="midnightblue" points="911.06,-224.993 918.593,-217.542 908.058,-218.669 911.06,-224.993"/>
</g>
<!-- Node12 -->
<g id="node12" class="node"><title>Node12</title>
<polygon fill="white" stroke="#bfbfbf" points="970.614,-198.5 970.614,-217.5 1014.61,-217.5 1014.61,-198.5 970.614,-198.5"/>
<text text-anchor="middle" x="992.614" y="-205.5" font-family="Helvetica,sans-Serif" font-size="10.00">vector</text>
</g>
<!-- Node1&#45;&gt;Node12 -->
<g id="edge11" class="edge"><title>Node1&#45;&gt;Node12</title>
<path fill="none" stroke="midnightblue" d="M525.323,-275.423C616.722,-274.825 807.574,-267.826 961.614,-224 963.81,-223.375 966.041,-222.603 968.247,-221.741"/>
<polygon fill="midnightblue" stroke="midnightblue" points="969.877,-224.847 977.578,-217.57 967.02,-218.456 969.877,-224.847"/>
</g>
<!-- Node13 -->
<g id="node13" class="node"><title>Node13</title>
<polygon fill="white" stroke="#bfbfbf" points="306.614,-0.5 306.614,-19.5 410.614,-19.5 410.614,-0.5 306.614,-0.5"/>
<text text-anchor="middle" x="358.614" y="-7.5" font-family="Helvetica,sans-Serif" font-size="10.00">shad/config/config.h</text>
</g>
<!-- Node1&#45;&gt;Node13 -->
<g id="edge12" class="edge"><title>Node1&#45;&gt;Node13</title>
<path fill="none" stroke="midnightblue" d="M417.932,-272.325C306.057,-266.257 55.9493,-249.927 27.6142,-224 -30.2472,-171.055 11.8042,-91.7446 81.6142,-56 118.143,-37.2963 226.55,-23.7219 296.415,-16.6255"/>
<polygon fill="midnightblue" stroke="midnightblue" points="296.828,-20.1019 306.431,-15.6257 296.132,-13.1365 296.828,-20.1019"/>
</g>
<!-- Node14 -->
<g id="node14" class="node"><title>Node14</title>
<g id="a_node14"><a xlink:href="handle_8h.html" target="_top" xlink:title="shad/runtime/handle.h">
<polygon fill="white" stroke="black" points="482.114,-130.5 482.114,-149.5 595.114,-149.5 595.114,-130.5 482.114,-130.5"/>
<text text-anchor="middle" x="538.614" y="-137.5" font-family="Helvetica,sans-Serif" font-size="10.00">shad/runtime/handle.h</text>
</a>
</g>
</g>
<!-- Node1&#45;&gt;Node14 -->
<g id="edge13" class="edge"><title>Node1&#45;&gt;Node14</title>
<path fill="none" stroke="midnightblue" d="M464.014,-260.861C455.841,-243.56 445.537,-213.876 457.614,-192 467.44,-174.201 486.374,-161.767 503.467,-153.634"/>
<polygon fill="midnightblue" stroke="midnightblue" points="504.972,-156.796 512.703,-149.552 502.142,-150.393 504.972,-156.796"/>
</g>
<!-- Node16 -->
<g id="node16" class="node"><title>Node16</title>
<g id="a_node16"><a xlink:href="mapping__traits_8h.html" target="_top" xlink:title="shad/runtime/mapping\l_traits.h">
<polygon fill="white" stroke="black" points="488.114,-57 488.114,-87 601.114,-87 601.114,-57 488.114,-57"/>
<text text-anchor="start" x="496.114" y="-75" font-family="Helvetica,sans-Serif" font-size="10.00">shad/runtime/mapping</text>
<text text-anchor="middle" x="544.614" y="-64" font-family="Helvetica,sans-Serif" font-size="10.00">_traits.h</text>
</a>
</g>
</g>
<!-- Node1&#45;&gt;Node16 -->
<g id="edge25" class="edge"><title>Node1&#45;&gt;Node16</title>
<path fill="none" stroke="midnightblue" d="M471.055,-260.727C471.135,-242.454 474.07,-210.904 491.614,-192 527.183,-153.676 572.814,-198.252 603.614,-156 619.128,-134.718 596.608,-110.099 575.066,-93.2331"/>
<polygon fill="midnightblue" stroke="midnightblue" points="577.047,-90.3446 566.938,-87.1719 572.862,-95.9559 577.047,-90.3446"/>
</g>
<!-- Node19 -->
<g id="node19" class="node"><title>Node19</title>
<g id="a_node19"><a xlink:href="locality_8h.html" target="_top" xlink:title="shad/runtime/locality.h">
<polygon fill="white" stroke="black" points="212.114,-130.5 212.114,-149.5 327.114,-149.5 327.114,-130.5 212.114,-130.5"/>
<text text-anchor="middle" x="269.614" y="-137.5" font-family="Helvetica,sans-Serif" font-size="10.00">shad/runtime/locality.h</text>
</a>
</g>
</g>
<!-- Node1&#45;&gt;Node19 -->
<g id="edge20" class="edge"><title>Node1&#45;&gt;Node19</title>
<path fill="none" stroke="midnightblue" d="M450.378,-260.913C411.743,-235.283 330.352,-181.292 291.35,-155.419"/>
<polygon fill="midnightblue" stroke="midnightblue" points="293.099,-152.379 282.831,-149.768 289.23,-158.212 293.099,-152.379"/>
</g>
<!-- Node20 -->
<g id="node20" class="node"><title>Node20</title>
<g id="a_node20"><a xlink:href="available__mappings_8h.html" target="_top" xlink:title="shad/runtime/mappings\l/available_mappings.h">
<polygon fill="white" stroke="black" points="345.614,-125 345.614,-155 463.614,-155 463.614,-125 345.614,-125"/>
<text text-anchor="start" x="353.614" y="-143" font-family="Helvetica,sans-Serif" font-size="10.00">shad/runtime/mappings</text>
<text text-anchor="middle" x="404.614" y="-132" font-family="Helvetica,sans-Serif" font-size="10.00">/available_mappings.h</text>
</a>
</g>
</g>
<!-- Node1&#45;&gt;Node20 -->
<g id="edge26" class="edge"><title>Node1&#45;&gt;Node20</title>
<path fill="none" stroke="midnightblue" d="M464.444,-260.66C452.908,-237.589 430.121,-192.013 416.239,-164.249"/>
<polygon fill="midnightblue" stroke="midnightblue" points="419.335,-162.616 411.733,-155.237 413.074,-165.747 419.335,-162.616"/>
</g>
<!-- Node21 -->
<g id="node21" class="node"><title>Node21</title>
<g id="a_node21"><a xlink:href="synchronous__interface_8h.html" target="_top" xlink:title="shad/runtime/synchronous\l_interface.h">
<polygon fill="white" stroke="black" points="102.114,-193 102.114,-223 233.114,-223 233.114,-193 102.114,-193"/>
<text text-anchor="start" x="110.114" y="-211" font-family="Helvetica,sans-Serif" font-size="10.00">shad/runtime/synchronous</text>
<text text-anchor="middle" x="167.614" y="-200" font-family="Helvetica,sans-Serif" font-size="10.00">_interface.h</text>
</a>
</g>
</g>
<!-- Node1&#45;&gt;Node21 -->
<g id="edge28" class="edge"><title>Node1&#45;&gt;Node21</title>
<path fill="none" stroke="midnightblue" d="M417.965,-263.352C369.183,-252.762 296.717,-237.029 242.285,-225.211"/>
<polygon fill="midnightblue" stroke="midnightblue" points="242.856,-221.754 232.341,-223.052 241.37,-228.594 242.856,-221.754"/>
</g>
<!-- Node14&#45;&gt;Node13 -->
<g id="edge15" class="edge"><title>Node14&#45;&gt;Node13</title>
<path fill="none" stroke="midnightblue" d="M528.611,-130.33C505.545,-110.369 449.892,-62.379 440.614,-56 423.052,-43.9256 401.945,-32.4043 385.544,-24.0424"/>
<polygon fill="midnightblue" stroke="midnightblue" points="387.001,-20.8578 376.493,-19.5039 383.864,-27.1152 387.001,-20.8578"/>
</g>
<!-- Node15 -->
<g id="node15" class="node"><title>Node15</title>
<polygon fill="white" stroke="#bfbfbf" points="619.614,-62.5 619.614,-81.5 681.614,-81.5 681.614,-62.5 619.614,-62.5"/>
<text text-anchor="middle" x="650.614" y="-69.5" font-family="Helvetica,sans-Serif" font-size="10.00">type_traits</text>
</g>
<!-- Node14&#45;&gt;Node15 -->
<g id="edge14" class="edge"><title>Node14&#45;&gt;Node15</title>
<path fill="none" stroke="midnightblue" d="M553.256,-130.372C572.038,-119.304 604.843,-99.9724 627.132,-86.838"/>
<polygon fill="midnightblue" stroke="midnightblue" points="629.13,-89.7228 635.969,-81.6305 625.576,-83.692 629.13,-89.7228"/>
</g>
<!-- Node14&#45;&gt;Node16 -->
<g id="edge16" class="edge"><title>Node14&#45;&gt;Node16</title>
<path fill="none" stroke="midnightblue" d="M539.399,-130.372C540.162,-121.971 541.359,-108.811 542.413,-97.2126"/>
<polygon fill="midnightblue" stroke="midnightblue" points="545.905,-97.4573 543.325,-87.1815 538.934,-96.8235 545.905,-97.4573"/>
</g>
<!-- Node18 -->
<g id="node18" class="node"><title>Node18</title>
<g id="a_node18"><a xlink:href="available__traits__mappings_8h.html" target="_top" xlink:title="shad/runtime/mappings\l/available_traits_mappings.h">
<polygon fill="white" stroke="black" points="291.614,-57 291.614,-87 431.614,-87 431.614,-57 291.614,-57"/>
<text text-anchor="start" x="299.614" y="-75" font-family="Helvetica,sans-Serif" font-size="10.00">shad/runtime/mappings</text>
<text text-anchor="middle" x="361.614" y="-64" font-family="Helvetica,sans-Serif" font-size="10.00">/available_traits_mappings.h</text>
</a>
</g>
</g>
<!-- Node14&#45;&gt;Node18 -->
<g id="edge19" class="edge"><title>Node14&#45;&gt;Node18</title>
<path fill="none" stroke="midnightblue" d="M515.475,-130.372C488.494,-120.311 443.2,-103.422 408.724,-90.5662"/>
<polygon fill="midnightblue" stroke="midnightblue" points="409.903,-87.2707 399.31,-87.0562 407.457,-93.8295 409.903,-87.2707"/>
</g>
<!-- Node16&#45;&gt;Node13 -->
<g id="edge18" class="edge"><title>Node16&#45;&gt;Node13</title>
<path fill="none" stroke="midnightblue" d="M501.005,-56.9327C468.688,-46.5077 425.161,-32.4667 394.771,-22.6635"/>
<polygon fill="midnightblue" stroke="midnightblue" points="395.595,-19.2518 385.004,-19.5127 393.446,-25.9138 395.595,-19.2518"/>
</g>
<!-- Node17 -->
<g id="node17" class="node"><title>Node17</title>
<polygon fill="white" stroke="#bfbfbf" points="524.114,-0.5 524.114,-19.5 565.114,-19.5 565.114,-0.5 524.114,-0.5"/>
<text text-anchor="middle" x="544.614" y="-7.5" font-family="Helvetica,sans-Serif" font-size="10.00">string</text>
</g>
<!-- Node16&#45;&gt;Node17 -->
<g id="edge17" class="edge"><title>Node16&#45;&gt;Node17</title>
<path fill="none" stroke="midnightblue" d="M544.614,-56.7808C544.614,-48.7812 544.614,-38.6887 544.614,-30.0168"/>
<polygon fill="midnightblue" stroke="midnightblue" points="548.114,-29.7305 544.614,-19.7305 541.114,-29.7306 548.114,-29.7305"/>
</g>
<!-- Node19&#45;&gt;Node3 -->
<g id="edge21" class="edge"><title>Node19&#45;&gt;Node3</title>
<path fill="none" stroke="midnightblue" d="M249.22,-130.372C222.242,-118.958 174.492,-98.7562 143.456,-85.6252"/>
<polygon fill="midnightblue" stroke="midnightblue" points="144.587,-82.3035 134.013,-81.6305 141.859,-88.7503 144.587,-82.3035"/>
</g>
<!-- Node19&#45;&gt;Node13 -->
<g id="edge22" class="edge"><title>Node19&#45;&gt;Node13</title>
<path fill="none" stroke="midnightblue" d="M268.699,-130.377C267.444,-114.277 266.9,-79.1791 282.614,-56 292.426,-41.5281 308.574,-31.0206 323.468,-23.817"/>
<polygon fill="midnightblue" stroke="midnightblue" points="325.298,-26.8324 332.995,-19.5518 322.438,-20.4434 325.298,-26.8324"/>
</g>
<!-- Node19&#45;&gt;Node16 -->
<g id="edge23" class="edge"><title>Node19&#45;&gt;Node16</title>
<path fill="none" stroke="midnightblue" d="M305.284,-130.439C348.927,-119.965 423.71,-102.017 478.089,-88.9661"/>
<polygon fill="midnightblue" stroke="midnightblue" points="479.086,-92.3263 487.993,-86.5891 477.452,-85.5196 479.086,-92.3263"/>
</g>
<!-- Node19&#45;&gt;Node18 -->
<g id="edge24" class="edge"><title>Node19&#45;&gt;Node18</title>
<path fill="none" stroke="midnightblue" d="M281.642,-130.372C294.785,-120.943 316.288,-105.517 333.688,-93.0338"/>
<polygon fill="midnightblue" stroke="midnightblue" points="335.761,-95.8545 341.846,-87.1815 331.681,-90.1667 335.761,-95.8545"/>
</g>
<!-- Node20&#45;&gt;Node18 -->
<g id="edge27" class="edge"><title>Node20&#45;&gt;Node18</title>
<path fill="none" stroke="midnightblue" d="M395.284,-124.679C389.818,-116.29 382.788,-105.499 376.566,-95.9495"/>
<polygon fill="midnightblue" stroke="midnightblue" points="379.318,-93.7611 370.926,-87.2931 373.453,-97.5823 379.318,-93.7611"/>
</g>
<!-- Node21&#45;&gt;Node2 -->
<g id="edge29" class="edge"><title>Node21&#45;&gt;Node2</title>
<path fill="none" stroke="midnightblue" d="M144.66,-192.841C126.567,-181.681 101.465,-166.198 83.4126,-155.063"/>
<polygon fill="midnightblue" stroke="midnightblue" points="85.038,-151.953 74.6894,-149.682 81.363,-157.911 85.038,-151.953"/>
</g>
<!-- Node21&#45;&gt;Node3 -->
<g id="edge30" class="edge"><title>Node21&#45;&gt;Node3</title>
<path fill="none" stroke="midnightblue" d="M155.619,-192.704C147.991,-182.933 138.479,-169.375 132.614,-156 123.45,-135.101 118.429,-109.225 115.887,-91.9742"/>
<polygon fill="midnightblue" stroke="midnightblue" points="119.292,-91.0272 114.503,-81.5767 112.353,-91.9512 119.292,-91.0272"/>
</g>
<!-- Node21&#45;&gt;Node8 -->
<g id="edge31" class="edge"><title>Node21&#45;&gt;Node8</title>
<path fill="none" stroke="midnightblue" d="M167.614,-192.679C167.614,-183.101 167.614,-170.394 167.614,-159.977"/>
<polygon fill="midnightblue" stroke="midnightblue" points="171.114,-159.828 167.614,-149.828 164.114,-159.828 171.114,-159.828"/>
</g>
<!-- Node21&#45;&gt;Node19 -->
<g id="edge32" class="edge"><title>Node21&#45;&gt;Node19</title>
<path fill="none" stroke="midnightblue" d="M189.496,-192.841C206.585,-181.784 230.234,-166.481 247.406,-155.37"/>
<polygon fill="midnightblue" stroke="midnightblue" points="249.702,-158.053 256.197,-149.682 245.9,-152.176 249.702,-158.053"/>
</g>
</g>
</svg>
