<?xml version="1.0" encoding="UTF-8" standalone="no"?>
<!DOCTYPE svg PUBLIC "-//W3C//DTD SVG 1.1//EN"
 "http://www.w3.org/Graphics/SVG/1.1/DTD/svg11.dtd">
<!-- Generated by graphviz version 2.36.0 (20140111.2315)
 -->
<!-- Title: include/shad/data_structures/set.h Pages: 1 -->
<svg width="1574pt" height="504pt"
 viewBox="0.00 0.00 1573.79 504.00" xmlns="http://www.w3.org/2000/svg" xmlns:xlink="http://www.w3.org/1999/xlink">
<g id="graph0" class="graph" transform="scale(1 1) rotate(0) translate(4 500)">
<title>include/shad/data_structures/set.h</title>
<polygon fill="white" stroke="none" points="-4,4 -4,-500 1569.79,-500 1569.79,4 -4,4"/>
<!-- Node1 -->
<g id="node1" class="node"><title>Node1</title>
<polygon fill="#bfbfbf" stroke="black" points="658.787,-465 658.787,-495 800.787,-495 800.787,-465 658.787,-465"/>
<text text-anchor="start" x="666.787" y="-483" font-family="Helvetica,sans-Serif" font-size="10.00">include/shad/data_structures</text>
<text text-anchor="middle" x="729.787" y="-472" font-family="Helvetica,sans-Serif" font-size="10.00">/set.h</text>
</g>
<!-- Node2 -->
<g id="node2" class="node"><title>Node2</title>
<polygon fill="white" stroke="#bfbfbf" points="1131.79,-198.5 1131.79,-217.5 1187.79,-217.5 1187.79,-198.5 1131.79,-198.5"/>
<text text-anchor="middle" x="1159.79" y="-205.5" font-family="Helvetica,sans-Serif" font-size="10.00">algorithm</text>
</g>
<!-- Node1&#45;&gt;Node2 -->
<g id="edge1" class="edge"><title>Node1&#45;&gt;Node2</title>
<path fill="none" stroke="midnightblue" d="M792.934,-464.934C825.464,-456.46 865.236,-444.151 898.787,-428 994.651,-381.852 1018.6,-365.226 1095.79,-292 1117.06,-271.818 1136.91,-244.153 1148.7,-226.425"/>
<polygon fill="midnightblue" stroke="midnightblue" points="1151.85,-227.998 1154.38,-217.709 1145.99,-224.178 1151.85,-227.998"/>
</g>
<!-- Node3 -->
<g id="node3" class="node"><title>Node3</title>
<polygon fill="white" stroke="#bfbfbf" points="1460.29,-130.5 1460.29,-149.5 1519.29,-149.5 1519.29,-130.5 1460.29,-130.5"/>
<text text-anchor="middle" x="1489.79" y="-137.5" font-family="Helvetica,sans-Serif" font-size="10.00">functional</text>
</g>
<!-- Node1&#45;&gt;Node3 -->
<g id="edge2" class="edge"><title>Node1&#45;&gt;Node3</title>
<path fill="none" stroke="midnightblue" d="M801.064,-475.05C1003.23,-462.903 1565.79,-422.171 1565.79,-345 1565.79,-345 1565.79,-345 1565.79,-275 1565.79,-227.151 1528.67,-180.736 1506.31,-157.12"/>
<polygon fill="midnightblue" stroke="midnightblue" points="1508.6,-154.453 1499.11,-149.752 1503.6,-159.348 1508.6,-154.453"/>
</g>
<!-- Node4 -->
<g id="node4" class="node"><title>Node4</title>
<polygon fill="white" stroke="#bfbfbf" points="221.787,-266.5 221.787,-285.5 259.787,-285.5 259.787,-266.5 221.787,-266.5"/>
<text text-anchor="middle" x="240.787" y="-273.5" font-family="Helvetica,sans-Serif" font-size="10.00">tuple</text>
</g>
<!-- Node1&#45;&gt;Node4 -->
<g id="edge3" class="edge"><title>Node1&#45;&gt;Node4</title>
<path fill="none" stroke="midnightblue" d="M658.707,-475.014C566.609,-466.634 404.836,-440.638 294.787,-360 271.972,-343.282 256.178,-313.769 247.804,-294.813"/>
<polygon fill="midnightblue" stroke="midnightblue" points="251.004,-293.393 243.918,-285.517 244.546,-296.093 251.004,-293.393"/>
</g>
<!-- Node5 -->
<g id="node5" class="node"><title>Node5</title>
<polygon fill="white" stroke="#bfbfbf" points="13.7871,-198.5 13.7871,-217.5 53.7871,-217.5 53.7871,-198.5 13.7871,-198.5"/>
<text text-anchor="middle" x="33.7871" y="-205.5" font-family="Helvetica,sans-Serif" font-size="10.00">utility</text>
</g>
<!-- Node1&#45;&gt;Node5 -->
<g id="edge4" class="edge"><title>Node1&#45;&gt;Node5</title>
<path fill="none" stroke="midnightblue" d="M658.738,-477.466C505.107,-473.54 152.36,-461.002 109.787,-428 45.6871,-378.311 35.4102,-271.141 33.939,-227.78"/>
<polygon fill="midnightblue" stroke="midnightblue" points="37.4335,-227.48 33.7217,-217.556 30.4351,-227.628 37.4335,-227.48"/>
</g>
<!-- Node6 -->
<g id="node6" class="node"><title>Node6</title>
<polygon fill="white" stroke="#bfbfbf" points="1069.79,-198.5 1069.79,-217.5 1113.79,-217.5 1113.79,-198.5 1069.79,-198.5"/>
<text text-anchor="middle" x="1091.79" y="-205.5" font-family="Helvetica,sans-Serif" font-size="10.00">vector</text>
</g>
<!-- Node1&#45;&gt;Node6 -->
<g id="edge5" class="edge"><title>Node1&#45;&gt;Node6</title>
<path fill="none" stroke="midnightblue" d="M768.864,-464.883C818.026,-445.926 903.539,-408.893 965.787,-360 997.025,-335.463 998.31,-322.476 1023.79,-292 1042.91,-269.119 1064.71,-242.396 1078.36,-225.585"/>
<polygon fill="midnightblue" stroke="midnightblue" points="1081.12,-227.742 1084.7,-217.77 1075.68,-223.333 1081.12,-227.742"/>
</g>
<!-- Node7 -->
<g id="node7" class="node"><title>Node7</title>
<g id="a_node7"><a xlink:href="abstract__data__structure_8h.html" target="_top" xlink:title="shad/data_structures\l/abstract_data_structure.h">
<polygon fill="white" stroke="black" points="119.287,-397 119.287,-427 250.287,-427 250.287,-397 119.287,-397"/>
<text text-anchor="start" x="127.287" y="-415" font-family="Helvetica,sans-Serif" font-size="10.00">shad/data_structures</text>
<text text-anchor="middle" x="184.787" y="-404" font-family="Helvetica,sans-Serif" font-size="10.00">/abstract_data_structure.h</text>
</a>
</g>
</g>
<!-- Node1&#45;&gt;Node7 -->
<g id="edge6" class="edge"><title>Node1&#45;&gt;Node7</title>
<path fill="none" stroke="midnightblue" d="M658.67,-472.896C567.262,-464.661 403.765,-448.62 264.787,-428 263.49,-427.808 262.181,-427.609 260.864,-427.406"/>
<polygon fill="midnightblue" stroke="midnightblue" points="261.071,-423.894 250.641,-425.759 259.957,-430.805 261.071,-423.894"/>
</g>
<!-- Node13 -->
<g id="node13" class="node"><title>Node13</title>
<g id="a_node13"><a xlink:href="runtime_8h.html" target="_top" xlink:title="shad/runtime/runtime.h">
<polygon fill="white" stroke="black" points="417.787,-266.5 417.787,-285.5 533.787,-285.5 533.787,-266.5 417.787,-266.5"/>
<text text-anchor="middle" x="475.787" y="-273.5" font-family="Helvetica,sans-Serif" font-size="10.00">shad/runtime/runtime.h</text>
</a>
</g>
</g>
<!-- Node1&#45;&gt;Node13 -->
<g id="edge82" class="edge"><title>Node1&#45;&gt;Node13</title>
<path fill="none" stroke="midnightblue" d="M658.726,-465.992C630.845,-458.329 599.838,-446.391 575.787,-428 528.438,-391.793 496.378,-326.408 482.928,-294.912"/>
<polygon fill="midnightblue" stroke="midnightblue" points="486.142,-293.524 479.085,-285.621 479.673,-296.2 486.142,-293.524"/>
</g>
<!-- Node30 -->
<g id="node30" class="node"><title>Node30</title>
<g id="a_node30"><a xlink:href="buffer_8h.html" target="_top" xlink:title="shad/data_structures\l/buffer.h">
<polygon fill="white" stroke="black" points="584.787,-397 584.787,-427 692.787,-427 692.787,-397 584.787,-397"/>
<text text-anchor="start" x="592.787" y="-415" font-family="Helvetica,sans-Serif" font-size="10.00">shad/data_structures</text>
<text text-anchor="middle" x="638.787" y="-404" font-family="Helvetica,sans-Serif" font-size="10.00">/buffer.h</text>
</a>
</g>
</g>
<!-- Node1&#45;&gt;Node30 -->
<g id="edge50" class="edge"><title>Node1&#45;&gt;Node30</title>
<path fill="none" stroke="midnightblue" d="M710.041,-464.679C697.315,-455.449 680.579,-443.311 666.526,-433.118"/>
<polygon fill="midnightblue" stroke="midnightblue" points="668.332,-430.104 658.182,-427.066 664.222,-435.771 668.332,-430.104"/>
</g>
<!-- Node32 -->
<g id="node32" class="node"><title>Node32</title>
<g id="a_node32"><a xlink:href="compare__and__hash__utils_8h.html" target="_top" xlink:title="shad/data_structures\l/compare_and_hash_utils.h">
<polygon fill="white" stroke="black" points="1147.79,-261 1147.79,-291 1283.79,-291 1283.79,-261 1147.79,-261"/>
<text text-anchor="start" x="1155.79" y="-279" font-family="Helvetica,sans-Serif" font-size="10.00">shad/data_structures</text>
<text text-anchor="middle" x="1215.79" y="-268" font-family="Helvetica,sans-Serif" font-size="10.00">/compare_and_hash_utils.h</text>
</a>
</g>
</g>
<!-- Node1&#45;&gt;Node32 -->
<g id="edge57" class="edge"><title>Node1&#45;&gt;Node32</title>
<path fill="none" stroke="midnightblue" d="M801.174,-477.563C901.904,-474.275 1079.34,-463.472 1131.79,-428 1176.6,-397.691 1199.96,-335.148 1209.86,-300.828"/>
<polygon fill="midnightblue" stroke="midnightblue" points="1213.24,-301.719 1212.5,-291.15 1206.49,-299.873 1213.24,-301.719"/>
</g>
<!-- Node35 -->
<g id="node35" class="node"><title>Node35</title>
<g id="a_node35"><a xlink:href="local__set_8h.html" target="_top" xlink:title="shad/data_structures\l/local_set.h">
<polygon fill="white" stroke="black" points="675.787,-329 675.787,-359 783.787,-359 783.787,-329 675.787,-329"/>
<text text-anchor="start" x="683.787" y="-347" font-family="Helvetica,sans-Serif" font-size="10.00">shad/data_structures</text>
<text text-anchor="middle" x="729.787" y="-336" font-family="Helvetica,sans-Serif" font-size="10.00">/local_set.h</text>
</a>
</g>
</g>
<!-- Node1&#45;&gt;Node35 -->
<g id="edge67" class="edge"><title>Node1&#45;&gt;Node35</title>
<path fill="none" stroke="midnightblue" d="M729.787,-464.66C729.787,-441.891 729.787,-397.203 729.787,-369.349"/>
<polygon fill="midnightblue" stroke="midnightblue" points="733.287,-369.237 729.787,-359.237 726.287,-369.237 733.287,-369.237"/>
</g>
<!-- Node37 -->
<g id="node37" class="node"><title>Node37</title>
<g id="a_node37"><a xlink:href="distributed__iterator__traits_8h.html" target="_top" xlink:title="shad/distributed_iterator\l_traits.h">
<polygon fill="white" stroke="black" points="802.287,-329 802.287,-359 923.287,-359 923.287,-329 802.287,-329"/>
<text text-anchor="start" x="810.287" y="-347" font-family="Helvetica,sans-Serif" font-size="10.00">shad/distributed_iterator</text>
<text text-anchor="middle" x="862.787" y="-336" font-family="Helvetica,sans-Serif" font-size="10.00">_traits.h</text>
</a>
</g>
</g>
<!-- Node1&#45;&gt;Node37 -->
<g id="edge78" class="edge"><title>Node1&#45;&gt;Node37</title>
<path fill="none" stroke="midnightblue" d="M744.02,-464.66C767.419,-441.085 814.141,-394.012 841.491,-366.456"/>
<polygon fill="midnightblue" stroke="midnightblue" points="844.096,-368.8 848.656,-359.237 839.127,-363.869 844.096,-368.8"/>
</g>
<!-- Node7&#45;&gt;Node4 -->
<g id="edge10" class="edge"><title>Node7&#45;&gt;Node4</title>
<path fill="none" stroke="midnightblue" d="M195.555,-396.944C202.699,-387.058 211.822,-373.275 217.787,-360 227.339,-338.742 233.786,-312.604 237.367,-295.407"/>
<polygon fill="midnightblue" stroke="midnightblue" points="240.812,-296.026 239.311,-285.538 233.944,-294.673 240.812,-296.026"/>
</g>
<!-- Node7&#45;&gt;Node5 -->
<g id="edge11" class="edge"><title>Node7&#45;&gt;Node5</title>
<path fill="none" stroke="midnightblue" d="M174.169,-396.796C147.072,-360.547 75.4505,-264.735 46.3482,-225.804"/>
<polygon fill="midnightblue" stroke="midnightblue" points="49.0042,-223.511 40.2135,-217.597 43.3975,-227.702 49.0042,-223.511"/>
</g>
<!-- Node7&#45;&gt;Node6 -->
<g id="edge12" class="edge"><title>Node7&#45;&gt;Node6</title>
<path fill="none" stroke="midnightblue" d="M250.383,-401.837C304.503,-393.455 382.973,-379.401 449.787,-360 566.298,-326.169 585.882,-288.594 703.787,-260 858.336,-222.519 906.501,-266.35 1059.79,-224 1062.13,-223.352 1064.52,-222.545 1066.88,-221.643"/>
<polygon fill="midnightblue" stroke="midnightblue" points="1068.47,-224.77 1076.24,-217.573 1065.67,-218.35 1068.47,-224.77"/>
</g>
<!-- Node8 -->
<g id="node8" class="node"><title>Node8</title>
<polygon fill="white" stroke="#bfbfbf" points="166.287,-334.5 166.287,-353.5 209.287,-353.5 209.287,-334.5 166.287,-334.5"/>
<text text-anchor="middle" x="187.787" y="-341.5" font-family="Helvetica,sans-Serif" font-size="10.00">deque</text>
</g>
<!-- Node7&#45;&gt;Node8 -->
<g id="edge7" class="edge"><title>Node7&#45;&gt;Node8</title>
<path fill="none" stroke="midnightblue" d="M185.438,-396.679C185.873,-387.101 186.451,-374.394 186.925,-363.977"/>
<polygon fill="midnightblue" stroke="midnightblue" points="190.428,-363.977 187.386,-353.828 183.435,-363.659 190.428,-363.977"/>
</g>
<!-- Node9 -->
<g id="node9" class="node"><title>Node9</title>
<polygon fill="white" stroke="#bfbfbf" points="144.787,-266.5 144.787,-285.5 184.787,-285.5 184.787,-266.5 144.787,-266.5"/>
<text text-anchor="middle" x="164.787" y="-273.5" font-family="Helvetica,sans-Serif" font-size="10.00">limits</text>
</g>
<!-- Node7&#45;&gt;Node9 -->
<g id="edge8" class="edge"><title>Node7&#45;&gt;Node9</title>
<path fill="none" stroke="midnightblue" d="M174.347,-396.659C167.889,-386.868 160.2,-373.307 156.787,-360 151.241,-338.374 155.28,-312.683 159.369,-295.672"/>
<polygon fill="midnightblue" stroke="midnightblue" points="162.786,-296.44 161.963,-285.877 156.019,-294.648 162.786,-296.44"/>
</g>
<!-- Node10 -->
<g id="node10" class="node"><title>Node10</title>
<polygon fill="white" stroke="#bfbfbf" points="66.7871,-130.5 66.7871,-149.5 118.787,-149.5 118.787,-130.5 66.7871,-130.5"/>
<text text-anchor="middle" x="92.7871" y="-137.5" font-family="Helvetica,sans-Serif" font-size="10.00">memory</text>
</g>
<!-- Node7&#45;&gt;Node10 -->
<g id="edge9" class="edge"><title>Node7&#45;&gt;Node10</title>
<path fill="none" stroke="midnightblue" d="M162.304,-396.991C121.083,-369.746 34.8779,-305.117 4.7871,-224 -0.159341,-210.666 -2.31388,-204.323 4.7871,-192 16.025,-172.498 37.8884,-159.773 57.0102,-151.911"/>
<polygon fill="midnightblue" stroke="midnightblue" points="58.3037,-155.164 66.4028,-148.333 55.8119,-148.622 58.3037,-155.164"/>
</g>
<!-- Node11 -->
<g id="node11" class="node"><title>Node11</title>
<g id="a_node11"><a xlink:href="object__identifier_8h.html" target="_top" xlink:title="shad/data_structures\l/object_identifier.h">
<polygon fill="white" stroke="black" points="303.787,-329 303.787,-359 411.787,-359 411.787,-329 303.787,-329"/>
<text text-anchor="start" x="311.787" y="-347" font-family="Helvetica,sans-Serif" font-size="10.00">shad/data_structures</text>
<text text-anchor="middle" x="357.787" y="-336" font-family="Helvetica,sans-Serif" font-size="10.00">/object_identifier.h</text>
</a>
</g>
</g>
<!-- Node7&#45;&gt;Node11 -->
<g id="edge13" class="edge"><title>Node7&#45;&gt;Node11</title>
<path fill="none" stroke="midnightblue" d="M221.9,-396.841C248.1,-386.846 283.39,-373.383 311.44,-362.682"/>
<polygon fill="midnightblue" stroke="midnightblue" points="312.937,-365.856 321.033,-359.022 310.442,-359.316 312.937,-365.856"/>
</g>
<!-- Node7&#45;&gt;Node13 -->
<g id="edge49" class="edge"><title>Node7&#45;&gt;Node13</title>
<path fill="none" stroke="midnightblue" d="M250.327,-409.943C300.834,-406.21 370.335,-394.457 420.787,-360 444.274,-343.959 460.289,-314.253 468.735,-295.073"/>
<polygon fill="midnightblue" stroke="midnightblue" points="472.044,-296.231 472.648,-285.654 465.58,-293.546 472.044,-296.231"/>
</g>
<!-- Node11&#45;&gt;Node9 -->
<g id="edge15" class="edge"><title>Node11&#45;&gt;Node9</title>
<path fill="none" stroke="midnightblue" d="M316.384,-328.841C279.804,-316.332 227.34,-298.391 194.703,-287.23"/>
<polygon fill="midnightblue" stroke="midnightblue" points="195.443,-283.784 184.849,-283.86 193.178,-290.408 195.443,-283.784"/>
</g>
<!-- Node12 -->
<g id="node12" class="node"><title>Node12</title>
<polygon fill="white" stroke="#bfbfbf" points="277.787,-266.5 277.787,-285.5 323.787,-285.5 323.787,-266.5 277.787,-266.5"/>
<text text-anchor="middle" x="300.787" y="-273.5" font-family="Helvetica,sans-Serif" font-size="10.00">atomic</text>
</g>
<!-- Node11&#45;&gt;Node12 -->
<g id="edge14" class="edge"><title>Node11&#45;&gt;Node12</title>
<path fill="none" stroke="midnightblue" d="M345.419,-328.679C336.531,-318.388 324.523,-304.484 315.201,-293.69"/>
<polygon fill="midnightblue" stroke="midnightblue" points="317.597,-291.109 308.412,-285.828 312.299,-295.684 317.597,-291.109"/>
</g>
<!-- Node11&#45;&gt;Node13 -->
<g id="edge16" class="edge"><title>Node11&#45;&gt;Node13</title>
<path fill="none" stroke="midnightblue" d="M383.101,-328.841C403.328,-317.528 431.5,-301.771 451.462,-290.605"/>
<polygon fill="midnightblue" stroke="midnightblue" points="453.246,-293.618 460.265,-285.682 449.829,-287.509 453.246,-293.618"/>
</g>
<!-- Node13&#45;&gt;Node3 -->
<g id="edge19" class="edge"><title>Node13&#45;&gt;Node3</title>
<path fill="none" stroke="midnightblue" d="M512.638,-266.462C523.873,-264.091 536.293,-261.703 547.787,-260 726.106,-233.572 783.352,-288.232 951.787,-224 974.046,-215.512 972.587,-200.642 994.787,-192 1015.94,-183.766 1336.05,-154.673 1449.94,-144.524"/>
<polygon fill="midnightblue" stroke="midnightblue" points="1450.33,-148.003 1459.99,-143.63 1449.71,-141.03 1450.33,-148.003"/>
</g>
<!-- Node13&#45;&gt;Node5 -->
<g id="edge26" class="edge"><title>Node13&#45;&gt;Node5</title>
<path fill="none" stroke="midnightblue" d="M417.414,-267.006C315.094,-252.986 113.405,-225.317 105.787,-224 91.8882,-221.597 76.5776,-218.475 63.6617,-215.702"/>
<polygon fill="midnightblue" stroke="midnightblue" points="64.4054,-212.282 53.8895,-213.573 62.9153,-219.121 64.4054,-212.282"/>
</g>
<!-- Node13&#45;&gt;Node6 -->
<g id="edge27" class="edge"><title>Node13&#45;&gt;Node6</title>
<path fill="none" stroke="midnightblue" d="M511.879,-266.484C523.307,-264.057 536.025,-261.631 547.787,-260 773.742,-228.666 839.004,-281.38 1059.79,-224 1062.28,-223.352 1064.82,-222.513 1067.32,-221.562"/>
<polygon fill="midnightblue" stroke="midnightblue" points="1068.83,-224.723 1076.59,-217.518 1066.03,-218.307 1068.83,-224.723"/>
</g>
<!-- Node13&#45;&gt;Node10 -->
<g id="edge23" class="edge"><title>Node13&#45;&gt;Node10</title>
<path fill="none" stroke="midnightblue" d="M437.392,-266.498C426.554,-264.235 414.733,-261.896 403.787,-260 288.84,-240.092 241.45,-287.804 143.787,-224 120.372,-208.703 105.926,-178.533 98.6328,-159.089"/>
<polygon fill="midnightblue" stroke="midnightblue" points="101.905,-157.842 95.3052,-149.553 95.2954,-160.148 101.905,-157.842"/>
</g>
<!-- Node14 -->
<g id="node14" class="node"><title>Node14</title>
<polygon fill="white" stroke="#bfbfbf" points="472.287,-130.5 472.287,-149.5 521.287,-149.5 521.287,-130.5 472.287,-130.5"/>
<text text-anchor="middle" x="496.787" y="-137.5" font-family="Helvetica,sans-Serif" font-size="10.00">cstddef</text>
</g>
<!-- Node13&#45;&gt;Node14 -->
<g id="edge17" class="edge"><title>Node13&#45;&gt;Node14</title>
<path fill="none" stroke="midnightblue" d="M435.531,-266.456C372.081,-252.897 255.665,-227.61 252.787,-224 243.922,-212.879 243.818,-203.038 252.787,-192 265.94,-175.814 397.635,-155.087 461.89,-145.835"/>
<polygon fill="midnightblue" stroke="midnightblue" points="462.556,-149.275 471.962,-144.399 461.568,-142.345 462.556,-149.275"/>
</g>
<!-- Node15 -->
<g id="node15" class="node"><title>Node15</title>
<polygon fill="white" stroke="#bfbfbf" points="930.787,-62.5 930.787,-81.5 976.787,-81.5 976.787,-62.5 930.787,-62.5"/>
<text text-anchor="middle" x="953.787" y="-69.5" font-family="Helvetica,sans-Serif" font-size="10.00">cstdint</text>
</g>
<!-- Node13&#45;&gt;Node15 -->
<g id="edge18" class="edge"><title>Node13&#45;&gt;Node15</title>
<path fill="none" stroke="midnightblue" d="M513.022,-266.473C524.16,-264.131 536.43,-261.756 547.787,-260 625.931,-247.92 839.821,-273.118 901.787,-224 942.813,-191.481 951.608,-124.79 953.399,-92.0236"/>
<polygon fill="midnightblue" stroke="midnightblue" points="956.912,-91.7368 953.789,-81.6129 949.917,-91.4749 956.912,-91.7368"/>
</g>
<!-- Node16 -->
<g id="node16" class="node"><title>Node16</title>
<polygon fill="white" stroke="#bfbfbf" points="261.787,-198.5 261.787,-217.5 315.787,-217.5 315.787,-198.5 261.787,-198.5"/>
<text text-anchor="middle" x="288.787" y="-205.5" font-family="Helvetica,sans-Serif" font-size="10.00">iostream</text>
</g>
<!-- Node13&#45;&gt;Node16 -->
<g id="edge20" class="edge"><title>Node13&#45;&gt;Node16</title>
<path fill="none" stroke="midnightblue" d="M448.584,-266.438C418.196,-256.729 367.642,-240.143 324.787,-224 322.676,-223.205 320.505,-222.363 318.326,-221.499"/>
<polygon fill="midnightblue" stroke="midnightblue" points="319.454,-218.18 308.872,-217.656 316.818,-224.664 319.454,-218.18"/>
</g>
<!-- Node17 -->
<g id="node17" class="node"><title>Node17</title>
<polygon fill="white" stroke="#bfbfbf" points="1004.29,-198.5 1004.29,-217.5 1051.29,-217.5 1051.29,-198.5 1004.29,-198.5"/>
<text text-anchor="middle" x="1027.79" y="-205.5" font-family="Helvetica,sans-Serif" font-size="10.00">iterator</text>
</g>
<!-- Node13&#45;&gt;Node17 -->
<g id="edge21" class="edge"><title>Node13&#45;&gt;Node17</title>
<path fill="none" stroke="midnightblue" d="M512.26,-266.485C523.592,-264.087 536.161,-261.678 547.787,-260 742.861,-231.847 797.82,-268.667 989.787,-224 993.034,-223.245 996.369,-222.261 999.651,-221.158"/>
<polygon fill="midnightblue" stroke="midnightblue" points="1001.05,-224.374 1009.2,-217.603 998.603,-217.814 1001.05,-224.374"/>
</g>
<!-- Node18 -->
<g id="node18" class="node"><title>Node18</title>
<polygon fill="white" stroke="#bfbfbf" points="334.287,-198.5 334.287,-217.5 369.287,-217.5 369.287,-198.5 334.287,-198.5"/>
<text text-anchor="middle" x="351.787" y="-205.5" font-family="Helvetica,sans-Serif" font-size="10.00">map</text>
</g>
<!-- Node13&#45;&gt;Node18 -->
<g id="edge22" class="edge"><title>Node13&#45;&gt;Node18</title>
<path fill="none" stroke="midnightblue" d="M459.249,-266.452C439.893,-256.414 406.905,-239.2 378.787,-224 377.962,-223.554 377.123,-223.098 376.276,-222.637"/>
<polygon fill="midnightblue" stroke="midnightblue" points="377.622,-219.383 367.174,-217.628 374.248,-225.516 377.622,-219.383"/>
</g>
<!-- Node19 -->
<g id="node19" class="node"><title>Node19</title>
<polygon fill="white" stroke="#bfbfbf" points="387.787,-198.5 387.787,-217.5 417.787,-217.5 417.787,-198.5 387.787,-198.5"/>
<text text-anchor="middle" x="402.787" y="-205.5" font-family="Helvetica,sans-Serif" font-size="10.00">set</text>
</g>
<!-- Node13&#45;&gt;Node19 -->
<g id="edge24" class="edge"><title>Node13&#45;&gt;Node19</title>
<path fill="none" stroke="midnightblue" d="M466.244,-266.372C454.613,-255.856 434.732,-237.882 420.318,-224.85"/>
<polygon fill="midnightblue" stroke="midnightblue" points="422.331,-221.951 412.566,-217.841 417.636,-227.144 422.331,-221.951"/>
</g>
<!-- Node20 -->
<g id="node20" class="node"><title>Node20</title>
<polygon fill="white" stroke="#bfbfbf" points="435.787,-198.5 435.787,-217.5 513.787,-217.5 513.787,-198.5 435.787,-198.5"/>
<text text-anchor="middle" x="474.787" y="-205.5" font-family="Helvetica,sans-Serif" font-size="10.00">unordered_set</text>
</g>
<!-- Node13&#45;&gt;Node20 -->
<g id="edge25" class="edge"><title>Node13&#45;&gt;Node20</title>
<path fill="none" stroke="midnightblue" d="M475.656,-266.372C475.509,-256.643 475.265,-240.528 475.073,-227.85"/>
<polygon fill="midnightblue" stroke="midnightblue" points="478.572,-227.787 474.921,-217.841 471.573,-227.893 478.572,-227.787"/>
</g>
<!-- Node21 -->
<g id="node21" class="node"><title>Node21</title>
<polygon fill="white" stroke="#bfbfbf" points="696.787,-0.5 696.787,-19.5 800.787,-19.5 800.787,-0.5 696.787,-0.5"/>
<text text-anchor="middle" x="748.787" y="-7.5" font-family="Helvetica,sans-Serif" font-size="10.00">shad/config/config.h</text>
</g>
<!-- Node13&#45;&gt;Node21 -->
<g id="edge28" class="edge"><title>Node13&#45;&gt;Node21</title>
<path fill="none" stroke="midnightblue" d="M434.626,-266.494C365.762,-252.241 234.585,-224.983 233.787,-224 221.2,-208.484 224.688,-142.089 240.787,-124 299.43,-58.1073 564.153,-26.9924 686.469,-15.937"/>
<polygon fill="midnightblue" stroke="midnightblue" points="686.789,-19.4225 696.44,-15.0518 686.17,-12.4499 686.789,-19.4225"/>
</g>
<!-- Node22 -->
<g id="node22" class="node"><title>Node22</title>
<g id="a_node22"><a xlink:href="handle_8h.html" target="_top" xlink:title="shad/runtime/handle.h">
<polygon fill="white" stroke="black" points="758.287,-198.5 758.287,-217.5 871.287,-217.5 871.287,-198.5 758.287,-198.5"/>
<text text-anchor="middle" x="814.787" y="-205.5" font-family="Helvetica,sans-Serif" font-size="10.00">shad/runtime/handle.h</text>
</a>
</g>
</g>
<!-- Node13&#45;&gt;Node22 -->
<g id="edge29" class="edge"><title>Node13&#45;&gt;Node22</title>
<path fill="none" stroke="midnightblue" d="M516.128,-266.472C526.443,-264.326 537.52,-262.05 547.787,-260 620.611,-245.46 704.789,-229.526 758.848,-219.405"/>
<polygon fill="midnightblue" stroke="midnightblue" points="759.728,-222.801 768.914,-217.522 758.441,-215.92 759.728,-222.801"/>
</g>
<!-- Node24 -->
<g id="node24" class="node"><title>Node24</title>
<g id="a_node24"><a xlink:href="mapping__traits_8h.html" target="_top" xlink:title="shad/runtime/mapping\l_traits.h">
<polygon fill="white" stroke="black" points="799.287,-57 799.287,-87 912.287,-87 912.287,-57 799.287,-57"/>
<text text-anchor="start" x="807.287" y="-75" font-family="Helvetica,sans-Serif" font-size="10.00">shad/runtime/mapping</text>
<text text-anchor="middle" x="855.787" y="-64" font-family="Helvetica,sans-Serif" font-size="10.00">_traits.h</text>
</a>
</g>
</g>
<!-- Node13&#45;&gt;Node24 -->
<g id="edge41" class="edge"><title>Node13&#45;&gt;Node24</title>
<path fill="none" stroke="midnightblue" d="M513.401,-266.442C524.44,-264.127 536.562,-261.773 547.787,-260 621.088,-248.419 830.222,-279.231 879.787,-224 911.576,-188.578 887.062,-128.702 869.52,-96.0023"/>
<polygon fill="midnightblue" stroke="midnightblue" points="872.517,-94.1914 864.589,-87.163 866.404,-97.6013 872.517,-94.1914"/>
</g>
<!-- Node27 -->
<g id="node27" class="node"><title>Node27</title>
<g id="a_node27"><a xlink:href="locality_8h.html" target="_top" xlink:title="shad/runtime/locality.h">
<polygon fill="white" stroke="black" points="582.287,-130.5 582.287,-149.5 697.287,-149.5 697.287,-130.5 582.287,-130.5"/>
<text text-anchor="middle" x="639.787" y="-137.5" font-family="Helvetica,sans-Serif" font-size="10.00">shad/runtime/locality.h</text>
</a>
</g>
</g>
<!-- Node13&#45;&gt;Node27 -->
<g id="edge36" class="edge"><title>Node13&#45;&gt;Node27</title>
<path fill="none" stroke="midnightblue" d="M513.31,-266.476C568.825,-253.69 666.868,-230.363 671.787,-224 687.373,-203.84 669.574,-175.188 654.951,-157.365"/>
<polygon fill="midnightblue" stroke="midnightblue" points="657.385,-154.83 648.188,-149.57 652.098,-159.417 657.385,-154.83"/>
</g>
<!-- Node28 -->
<g id="node28" class="node"><title>Node28</title>
<g id="a_node28"><a xlink:href="available__mappings_8h.html" target="_top" xlink:title="shad/runtime/mappings\l/available_mappings.h">
<polygon fill="white" stroke="black" points="249.787,-125 249.787,-155 367.787,-155 367.787,-125 249.787,-125"/>
<text text-anchor="start" x="257.787" y="-143" font-family="Helvetica,sans-Serif" font-size="10.00">shad/runtime/mappings</text>
<text text-anchor="middle" x="308.787" y="-132" font-family="Helvetica,sans-Serif" font-size="10.00">/available_mappings.h</text>
</a>
</g>
</g>
<!-- Node13&#45;&gt;Node28 -->
<g id="edge42" class="edge"><title>Node13&#45;&gt;Node28</title>
<path fill="none" stroke="midnightblue" d="M435.26,-266.462C368.924,-252.441 244.31,-225.893 242.787,-224 225.441,-202.446 251.205,-177.595 275.442,-160.746"/>
<polygon fill="midnightblue" stroke="midnightblue" points="277.488,-163.589 283.878,-155.139 273.613,-157.759 277.488,-163.589"/>
</g>
<!-- Node29 -->
<g id="node29" class="node"><title>Node29</title>
<g id="a_node29"><a xlink:href="synchronous__interface_8h.html" target="_top" xlink:title="shad/runtime/synchronous\l_interface.h">
<polygon fill="white" stroke="black" points="532.287,-193 532.287,-223 663.287,-223 663.287,-193 532.287,-193"/>
<text text-anchor="start" x="540.287" y="-211" font-family="Helvetica,sans-Serif" font-size="10.00">shad/runtime/synchronous</text>
<text text-anchor="middle" x="597.787" y="-200" font-family="Helvetica,sans-Serif" font-size="10.00">_interface.h</text>
</a>
</g>
</g>
<!-- Node13&#45;&gt;Node29 -->
<g id="edge44" class="edge"><title>Node13&#45;&gt;Node29</title>
<path fill="none" stroke="midnightblue" d="M491.736,-266.372C509.641,-256.686 539.244,-240.671 562.63,-228.019"/>
<polygon fill="midnightblue" stroke="midnightblue" points="564.443,-231.018 571.573,-223.181 561.112,-224.861 564.443,-231.018"/>
</g>
<!-- Node22&#45;&gt;Node21 -->
<g id="edge31" class="edge"><title>Node22&#45;&gt;Node21</title>
<path fill="none" stroke="midnightblue" d="M811.866,-198.325C801.835,-168.538 768.659,-70.0132 754.875,-29.0787"/>
<polygon fill="midnightblue" stroke="midnightblue" points="758.183,-27.9348 751.674,-19.5746 751.549,-30.1687 758.183,-27.9348"/>
</g>
<!-- Node23 -->
<g id="node23" class="node"><title>Node23</title>
<polygon fill="white" stroke="#bfbfbf" points="1243.79,-130.5 1243.79,-149.5 1305.79,-149.5 1305.79,-130.5 1243.79,-130.5"/>
<text text-anchor="middle" x="1274.79" y="-137.5" font-family="Helvetica,sans-Serif" font-size="10.00">type_traits</text>
</g>
<!-- Node22&#45;&gt;Node23 -->
<g id="edge30" class="edge"><title>Node22&#45;&gt;Node23</title>
<path fill="none" stroke="midnightblue" d="M871.653,-198.841C965.705,-185.347 1151.43,-158.698 1233.8,-146.881"/>
<polygon fill="midnightblue" stroke="midnightblue" points="1234.38,-150.333 1243.78,-145.448 1233.39,-143.404 1234.38,-150.333"/>
</g>
<!-- Node22&#45;&gt;Node24 -->
<g id="edge32" class="edge"><title>Node22&#45;&gt;Node24</title>
<path fill="none" stroke="midnightblue" d="M817.477,-198.208C823.692,-177.895 839.224,-127.132 848.491,-96.8463"/>
<polygon fill="midnightblue" stroke="midnightblue" points="851.903,-97.6578 851.482,-87.0713 845.209,-95.6097 851.903,-97.6578"/>
</g>
<!-- Node26 -->
<g id="node26" class="node"><title>Node26</title>
<g id="a_node26"><a xlink:href="available__traits__mappings_8h.html" target="_top" xlink:title="shad/runtime/mappings\l/available_traits_mappings.h">
<polygon fill="white" stroke="black" points="564.787,-57 564.787,-87 704.787,-87 704.787,-57 564.787,-57"/>
<text text-anchor="start" x="572.787" y="-75" font-family="Helvetica,sans-Serif" font-size="10.00">shad/runtime/mappings</text>
<text text-anchor="middle" x="634.787" y="-64" font-family="Helvetica,sans-Serif" font-size="10.00">/available_traits_mappings.h</text>
</a>
</g>
</g>
<!-- Node22&#45;&gt;Node26 -->
<g id="edge35" class="edge"><title>Node22&#45;&gt;Node26</title>
<path fill="none" stroke="midnightblue" d="M803.724,-198.414C784.117,-183.233 741.929,-150.733 705.787,-124 691.774,-113.635 676.045,-102.306 662.96,-92.9638"/>
<polygon fill="midnightblue" stroke="midnightblue" points="664.963,-90.0933 654.787,-87.1417 660.901,-95.7945 664.963,-90.0933"/>
</g>
<!-- Node24&#45;&gt;Node21 -->
<g id="edge34" class="edge"><title>Node24&#45;&gt;Node21</title>
<path fill="none" stroke="midnightblue" d="M830.7,-56.9327C813.293,-47.1715 790.232,-34.2401 773.015,-24.5856"/>
<polygon fill="midnightblue" stroke="midnightblue" points="774.558,-21.4383 764.124,-19.6 771.134,-27.5439 774.558,-21.4383"/>
</g>
<!-- Node25 -->
<g id="node25" class="node"><title>Node25</title>
<polygon fill="white" stroke="#bfbfbf" points="835.287,-0.5 835.287,-19.5 876.287,-19.5 876.287,-0.5 835.287,-0.5"/>
<text text-anchor="middle" x="855.787" y="-7.5" font-family="Helvetica,sans-Serif" font-size="10.00">string</text>
</g>
<!-- Node24&#45;&gt;Node25 -->
<g id="edge33" class="edge"><title>Node24&#45;&gt;Node25</title>
<path fill="none" stroke="midnightblue" d="M855.787,-56.7808C855.787,-48.7812 855.787,-38.6887 855.787,-30.0168"/>
<polygon fill="midnightblue" stroke="midnightblue" points="859.287,-29.7305 855.787,-19.7305 852.287,-29.7306 859.287,-29.7305"/>
</g>
<!-- Node27&#45;&gt;Node15 -->
<g id="edge37" class="edge"><title>Node27&#45;&gt;Node15</title>
<path fill="none" stroke="midnightblue" d="M696.038,-130.477C765.588,-119.645 879.795,-100.819 920.787,-88 923.068,-87.2868 925.398,-86.4552 927.712,-85.5561"/>
<polygon fill="midnightblue" stroke="midnightblue" points="929.147,-88.7494 936.974,-81.6093 926.403,-82.3097 929.147,-88.7494"/>
</g>
<!-- Node27&#45;&gt;Node21 -->
<g id="edge38" class="edge"><title>Node27&#45;&gt;Node21</title>
<path fill="none" stroke="midnightblue" d="M657.373,-130.445C673.793,-121.709 698.062,-106.783 713.787,-88 728.324,-70.6357 738.048,-46.2487 743.482,-29.6018"/>
<polygon fill="midnightblue" stroke="midnightblue" points="746.862,-30.5183 746.442,-19.9318 740.168,-28.4699 746.862,-30.5183"/>
</g>
<!-- Node27&#45;&gt;Node24 -->
<g id="edge39" class="edge"><title>Node27&#45;&gt;Node24</title>
<path fill="none" stroke="midnightblue" d="M668.025,-130.372C701.444,-120.16 757.883,-102.915 800.177,-89.9921"/>
<polygon fill="midnightblue" stroke="midnightblue" points="801.244,-93.3257 809.785,-87.0562 799.199,-86.6312 801.244,-93.3257"/>
</g>
<!-- Node27&#45;&gt;Node26 -->
<g id="edge40" class="edge"><title>Node27&#45;&gt;Node26</title>
<path fill="none" stroke="midnightblue" d="M639.133,-130.372C638.497,-121.971 637.5,-108.811 636.621,-97.2126"/>
<polygon fill="midnightblue" stroke="midnightblue" points="640.107,-96.8885 635.861,-87.1815 633.127,-97.4173 640.107,-96.8885"/>
</g>
<!-- Node28&#45;&gt;Node26 -->
<g id="edge43" class="edge"><title>Node28&#45;&gt;Node26</title>
<path fill="none" stroke="midnightblue" d="M367.823,-127.048C420.379,-116.408 497.682,-100.757 555.596,-89.0326"/>
<polygon fill="midnightblue" stroke="midnightblue" points="556.337,-92.4536 565.444,-87.0389 554.948,-85.5928 556.337,-92.4536"/>
</g>
<!-- Node29&#45;&gt;Node10 -->
<g id="edge47" class="edge"><title>Node29&#45;&gt;Node10</title>
<path fill="none" stroke="midnightblue" d="M531.99,-193.534C528.883,-192.994 525.803,-192.48 522.787,-192 446.985,-179.944 218.523,-154.672 129.169,-144.939"/>
<polygon fill="midnightblue" stroke="midnightblue" points="129.301,-141.432 118.982,-143.83 128.544,-148.391 129.301,-141.432"/>
</g>
<!-- Node29&#45;&gt;Node14 -->
<g id="edge45" class="edge"><title>Node29&#45;&gt;Node14</title>
<path fill="none" stroke="midnightblue" d="M575.872,-192.679C558.934,-181.611 535.6,-166.363 518.671,-155.3"/>
<polygon fill="midnightblue" stroke="midnightblue" points="520.291,-152.178 510.006,-149.638 516.462,-158.038 520.291,-152.178"/>
</g>
<!-- Node29&#45;&gt;Node15 -->
<g id="edge46" class="edge"><title>Node29&#45;&gt;Node15</title>
<path fill="none" stroke="midnightblue" d="M638.95,-192.927C700.697,-171.572 820.734,-129.105 920.787,-88 922.428,-87.3259 924.108,-86.6184 925.797,-85.893"/>
<polygon fill="midnightblue" stroke="midnightblue" points="927.661,-88.8961 935.391,-81.6511 924.83,-82.494 927.661,-88.8961"/>
</g>
<!-- Node29&#45;&gt;Node27 -->
<g id="edge48" class="edge"><title>Node29&#45;&gt;Node27</title>
<path fill="none" stroke="midnightblue" d="M606.9,-192.679C613.32,-182.592 621.948,-169.033 628.756,-158.335"/>
<polygon fill="midnightblue" stroke="midnightblue" points="631.753,-160.144 634.169,-149.828 625.847,-156.386 631.753,-160.144"/>
</g>
<!-- Node30&#45;&gt;Node2 -->
<g id="edge51" class="edge"><title>Node30&#45;&gt;Node2</title>
<path fill="none" stroke="midnightblue" d="M692.878,-410.77C759.659,-408.675 875.471,-399.046 965.787,-360 1005.29,-342.923 1102.93,-259.054 1142.61,-224.216"/>
<polygon fill="midnightblue" stroke="midnightblue" points="1144.97,-226.805 1150.16,-217.568 1140.34,-221.553 1144.97,-226.805"/>
</g>
<!-- Node30&#45;&gt;Node6 -->
<g id="edge54" class="edge"><title>Node30&#45;&gt;Node6</title>
<path fill="none" stroke="midnightblue" d="M692.961,-411.775C754.476,-410.431 856.103,-401.316 931.787,-360 984.795,-331.063 978.997,-300.51 1023.79,-260 1038.6,-246.602 1056.76,-233.115 1070.58,-223.378"/>
<polygon fill="midnightblue" stroke="midnightblue" points="1072.75,-226.138 1078.96,-217.56 1068.75,-220.388 1072.75,-226.138"/>
</g>
<!-- Node30&#45;&gt;Node11 -->
<g id="edge55" class="edge"><title>Node30&#45;&gt;Node11</title>
<path fill="none" stroke="midnightblue" d="M584.607,-398.275C538.056,-387.341 470.863,-371.559 421.693,-360.01"/>
<polygon fill="midnightblue" stroke="midnightblue" points="422.336,-356.566 411.8,-357.686 420.735,-363.38 422.336,-356.566"/>
</g>
<!-- Node30&#45;&gt;Node12 -->
<g id="edge53" class="edge"><title>Node30&#45;&gt;Node12</title>
<path fill="none" stroke="midnightblue" d="M603.07,-396.995C546.66,-374.85 433.513,-330.326 337.787,-292 335.696,-291.163 333.539,-290.296 331.367,-289.422"/>
<polygon fill="midnightblue" stroke="midnightblue" points="332.489,-286.1 321.906,-285.599 329.867,-292.59 332.489,-286.1"/>
</g>
<!-- Node30&#45;&gt;Node13 -->
<g id="edge56" class="edge"><title>Node30&#45;&gt;Node13</title>
<path fill="none" stroke="midnightblue" d="M629.031,-396.718C616.418,-379.004 593.052,-348.627 567.787,-328 548.545,-312.291 523.778,-298.877 504.79,-289.755"/>
<polygon fill="midnightblue" stroke="midnightblue" points="506.256,-286.577 495.715,-285.508 503.289,-292.917 506.256,-286.577"/>
</g>
<!-- Node31 -->
<g id="node31" class="node"><title>Node31</title>
<polygon fill="white" stroke="#bfbfbf" points="619.787,-334.5 619.787,-353.5 657.787,-353.5 657.787,-334.5 619.787,-334.5"/>
<text text-anchor="middle" x="638.787" y="-341.5" font-family="Helvetica,sans-Serif" font-size="10.00">array</text>
</g>
<!-- Node30&#45;&gt;Node31 -->
<g id="edge52" class="edge"><title>Node30&#45;&gt;Node31</title>
<path fill="none" stroke="midnightblue" d="M638.787,-396.679C638.787,-387.101 638.787,-374.394 638.787,-363.977"/>
<polygon fill="midnightblue" stroke="midnightblue" points="642.287,-363.828 638.787,-353.828 635.287,-363.828 642.287,-363.828"/>
</g>
<!-- Node32&#45;&gt;Node2 -->
<g id="edge58" class="edge"><title>Node32&#45;&gt;Node2</title>
<path fill="none" stroke="midnightblue" d="M1203.64,-260.679C1194.9,-250.388 1183.11,-236.484 1173.95,-225.69"/>
<polygon fill="midnightblue" stroke="midnightblue" points="1176.42,-223.189 1167.28,-217.828 1171.08,-227.718 1176.42,-223.189"/>
</g>
<!-- Node32&#45;&gt;Node3 -->
<g id="edge61" class="edge"><title>Node32&#45;&gt;Node3</title>
<path fill="none" stroke="midnightblue" d="M1283.98,-269.515C1349.96,-262.806 1443.7,-249.107 1469.79,-224 1487.03,-207.41 1490.48,-178.743 1490.67,-159.824"/>
<polygon fill="midnightblue" stroke="midnightblue" points="1494.17,-159.67 1490.48,-149.738 1487.17,-159.803 1494.17,-159.67"/>
</g>
<!-- Node32&#45;&gt;Node6 -->
<g id="edge63" class="edge"><title>Node32&#45;&gt;Node6</title>
<path fill="none" stroke="midnightblue" d="M1189.19,-260.841C1167.83,-249.476 1138.06,-233.628 1117.06,-222.454"/>
<polygon fill="midnightblue" stroke="midnightblue" points="1118.57,-219.291 1108.1,-217.682 1115.28,-225.47 1118.57,-219.291"/>
</g>
<!-- Node32&#45;&gt;Node15 -->
<g id="edge59" class="edge"><title>Node32&#45;&gt;Node15</title>
<path fill="none" stroke="midnightblue" d="M1215.9,-260.796C1215.31,-242.884 1211.81,-212.017 1195.79,-192 1141.61,-124.329 1039.21,-92.2956 986.681,-79.7486"/>
<polygon fill="midnightblue" stroke="midnightblue" points="987.399,-76.3226 976.869,-77.4943 985.832,-83.1448 987.399,-76.3226"/>
</g>
<!-- Node32&#45;&gt;Node23 -->
<g id="edge62" class="edge"><title>Node32&#45;&gt;Node23</title>
<path fill="none" stroke="midnightblue" d="M1222.1,-260.66C1232.91,-236.103 1254.95,-186.049 1266.81,-159.117"/>
<polygon fill="midnightblue" stroke="midnightblue" points="1270.12,-160.29 1270.94,-149.728 1263.71,-157.469 1270.12,-160.29"/>
</g>
<!-- Node33 -->
<g id="node33" class="node"><title>Node33</title>
<polygon fill="white" stroke="#bfbfbf" points="1281.79,-198.5 1281.79,-217.5 1327.79,-217.5 1327.79,-198.5 1281.79,-198.5"/>
<text text-anchor="middle" x="1304.79" y="-205.5" font-family="Helvetica,sans-Serif" font-size="10.00">cstring</text>
</g>
<!-- Node32&#45;&gt;Node33 -->
<g id="edge60" class="edge"><title>Node32&#45;&gt;Node33</title>
<path fill="none" stroke="midnightblue" d="M1235.1,-260.679C1249.89,-249.713 1270.21,-234.645 1285.09,-223.609"/>
<polygon fill="midnightblue" stroke="midnightblue" points="1287.19,-226.406 1293.14,-217.638 1283.02,-220.783 1287.19,-226.406"/>
</g>
<!-- Node34 -->
<g id="node34" class="node"><title>Node34</title>
<g id="a_node34"><a xlink:href="type__traits_8h.html" target="_top" xlink:title="shad/core/type_traits.h">
<polygon fill="white" stroke="black" points="1345.79,-198.5 1345.79,-217.5 1461.79,-217.5 1461.79,-198.5 1345.79,-198.5"/>
<text text-anchor="middle" x="1403.79" y="-205.5" font-family="Helvetica,sans-Serif" font-size="10.00">shad/core/type_traits.h</text>
</a>
</g>
</g>
<!-- Node32&#45;&gt;Node34 -->
<g id="edge64" class="edge"><title>Node32&#45;&gt;Node34</title>
<path fill="none" stroke="midnightblue" d="M1256.12,-260.841C1289.9,-248.982 1337.59,-232.239 1369.54,-221.022"/>
<polygon fill="midnightblue" stroke="midnightblue" points="1371.05,-224.202 1379.33,-217.587 1368.73,-217.597 1371.05,-224.202"/>
</g>
<!-- Node34&#45;&gt;Node3 -->
<g id="edge65" class="edge"><title>Node34&#45;&gt;Node3</title>
<path fill="none" stroke="midnightblue" d="M1415.03,-198.372C1429.07,-187.6 1453.3,-169.002 1470.36,-155.906"/>
<polygon fill="midnightblue" stroke="midnightblue" points="1472.74,-158.495 1478.54,-149.63 1468.48,-152.942 1472.74,-158.495"/>
</g>
<!-- Node34&#45;&gt;Node23 -->
<g id="edge66" class="edge"><title>Node34&#45;&gt;Node23</title>
<path fill="none" stroke="midnightblue" d="M1386.92,-198.372C1365,-187.156 1326.49,-167.453 1300.81,-154.314"/>
<polygon fill="midnightblue" stroke="midnightblue" points="1302.15,-151.069 1291.66,-149.63 1298.96,-157.301 1302.15,-151.069"/>
</g>
<!-- Node35&#45;&gt;Node2 -->
<g id="edge68" class="edge"><title>Node35&#45;&gt;Node2</title>
<path fill="none" stroke="midnightblue" d="M728.468,-328.781C727.592,-309.965 729.244,-277.175 748.787,-260 811.339,-205.029 1040.82,-243.478 1121.79,-224 1125.03,-223.22 1128.36,-222.221 1131.64,-221.11"/>
<polygon fill="midnightblue" stroke="midnightblue" points="1133.04,-224.323 1141.18,-217.545 1130.59,-217.766 1133.04,-224.323"/>
</g>
<!-- Node35&#45;&gt;Node3 -->
<g id="edge71" class="edge"><title>Node35&#45;&gt;Node3</title>
<path fill="none" stroke="midnightblue" d="M783.973,-329.51C786.946,-328.954 789.898,-328.445 792.787,-328 1012.99,-294.087 1074.42,-336.221 1292.79,-292 1384.81,-273.365 1438.12,-300.328 1492.79,-224 1506.2,-205.273 1501.7,-177.598 1496.43,-159.434"/>
<polygon fill="midnightblue" stroke="midnightblue" points="1499.7,-158.176 1493.28,-149.749 1493.04,-160.341 1499.7,-158.176"/>
</g>
<!-- Node35&#45;&gt;Node4 -->
<g id="edge73" class="edge"><title>Node35&#45;&gt;Node4</title>
<path fill="none" stroke="midnightblue" d="M675.591,-329.574C672.621,-329.002 669.672,-328.471 666.787,-328 491.501,-299.357 438.931,-342.96 268.787,-292 267.08,-291.489 265.358,-290.868 263.652,-290.172"/>
<polygon fill="midnightblue" stroke="midnightblue" points="264.794,-286.837 254.268,-285.631 261.745,-293.138 264.794,-286.837"/>
</g>
<!-- Node35&#45;&gt;Node5 -->
<g id="edge74" class="edge"><title>Node35&#45;&gt;Node5</title>
<path fill="none" stroke="midnightblue" d="M675.571,-329.689C672.606,-329.087 669.664,-328.519 666.787,-328 538.536,-304.872 496.741,-340.511 375.787,-292 353.677,-283.132 354.844,-269 332.787,-260 222.735,-215.097 182.172,-256.305 67.7871,-224 65.288,-223.294 62.7343,-222.44 60.2049,-221.5"/>
<polygon fill="midnightblue" stroke="midnightblue" points="61.3162,-218.173 50.7371,-217.594 58.6466,-224.644 61.3162,-218.173"/>
</g>
<!-- Node35&#45;&gt;Node6 -->
<g id="edge75" class="edge"><title>Node35&#45;&gt;Node6</title>
<path fill="none" stroke="midnightblue" d="M721.16,-328.723C711.352,-310.447 698.769,-278.892 715.787,-260 767.231,-202.892 985.737,-244.598 1059.79,-224 1062.13,-223.348 1064.52,-222.538 1066.88,-221.635"/>
<polygon fill="midnightblue" stroke="midnightblue" points="1068.46,-224.76 1076.24,-217.561 1065.67,-218.342 1068.46,-224.76"/>
</g>
<!-- Node35&#45;&gt;Node10 -->
<g id="edge72" class="edge"><title>Node35&#45;&gt;Node10</title>
<path fill="none" stroke="midnightblue" d="M675.561,-329.743C672.599,-329.127 669.66,-328.541 666.787,-328 553.011,-306.568 515.121,-337.798 408.787,-292 387.877,-282.994 389.694,-269.011 368.787,-260 262.869,-214.348 196.768,-301.98 111.787,-224 94.1156,-207.784 91.2119,-178.784 91.4551,-159.718"/>
<polygon fill="midnightblue" stroke="midnightblue" points="94.9585,-159.713 91.8916,-149.572 87.9649,-159.412 94.9585,-159.713"/>
</g>
<!-- Node35&#45;&gt;Node12 -->
<g id="edge69" class="edge"><title>Node35&#45;&gt;Node12</title>
<path fill="none" stroke="midnightblue" d="M675.58,-329.64C672.613,-329.05 669.668,-328.498 666.787,-328 521.847,-302.916 480.415,-327.975 337.787,-292 334.727,-291.228 331.585,-290.256 328.487,-289.18"/>
<polygon fill="midnightblue" stroke="midnightblue" points="329.485,-285.815 318.895,-285.504 326.98,-292.351 329.485,-285.815"/>
</g>
<!-- Node35&#45;&gt;Node13 -->
<g id="edge77" class="edge"><title>Node35&#45;&gt;Node13</title>
<path fill="none" stroke="midnightblue" d="M675.609,-328.922C628.67,-316.725 561.684,-299.32 518.466,-288.09"/>
<polygon fill="midnightblue" stroke="midnightblue" points="519.111,-284.641 508.552,-285.514 517.351,-291.416 519.111,-284.641"/>
</g>
<!-- Node35&#45;&gt;Node32 -->
<g id="edge76" class="edge"><title>Node35&#45;&gt;Node32</title>
<path fill="none" stroke="midnightblue" d="M784.001,-329.678C786.966,-329.079 789.909,-328.514 792.787,-328 912.263,-306.646 1052.35,-291.714 1137.55,-283.744"/>
<polygon fill="midnightblue" stroke="midnightblue" points="1138.03,-287.215 1147.67,-282.807 1137.39,-280.245 1138.03,-287.215"/>
</g>
<!-- Node36 -->
<g id="node36" class="node"><title>Node36</title>
<polygon fill="white" stroke="#bfbfbf" points="758.287,-266.5 758.287,-285.5 807.287,-285.5 807.287,-266.5 758.287,-266.5"/>
<text text-anchor="middle" x="782.787" y="-273.5" font-family="Helvetica,sans-Serif" font-size="10.00">cassert</text>
</g>
<!-- Node35&#45;&gt;Node36 -->
<g id="edge70" class="edge"><title>Node35&#45;&gt;Node36</title>
<path fill="none" stroke="midnightblue" d="M741.287,-328.679C749.551,-318.388 760.717,-304.484 769.385,-293.69"/>
<polygon fill="midnightblue" stroke="midnightblue" points="772.165,-295.817 775.698,-285.828 766.707,-291.434 772.165,-295.817"/>
</g>
<!-- Node37&#45;&gt;Node17 -->
<g id="edge80" class="edge"><title>Node37&#45;&gt;Node17</title>
<path fill="none" stroke="midnightblue" d="M873.686,-328.871C887.694,-311.315 913.373,-281.102 939.787,-260 958.528,-245.028 982.159,-231.585 1000.21,-222.264"/>
<polygon fill="midnightblue" stroke="midnightblue" points="1002.25,-225.156 1009.6,-217.526 999.098,-218.906 1002.25,-225.156"/>
</g>
<!-- Node37&#45;&gt;Node27 -->
<g id="edge81" class="edge"><title>Node37&#45;&gt;Node27</title>
<path fill="none" stroke="midnightblue" d="M857.628,-328.8C850.532,-310.893 836.268,-280.031 815.787,-260 791.62,-236.364 777.212,-242.297 748.787,-224 715.213,-202.388 678.8,-173.43 657.709,-156.053"/>
<polygon fill="midnightblue" stroke="midnightblue" points="659.842,-153.274 649.912,-149.58 655.37,-158.66 659.842,-153.274"/>
</g>
<!-- Node37&#45;&gt;Node36 -->
<g id="edge79" class="edge"><title>Node37&#45;&gt;Node36</title>
<path fill="none" stroke="midnightblue" d="M845.428,-328.679C832.461,-317.981 814.759,-303.377 801.481,-292.422"/>
<polygon fill="midnightblue" stroke="midnightblue" points="803.429,-289.492 793.488,-285.828 798.974,-294.892 803.429,-289.492"/>
</g>
</g>
</svg>
