<?xml version="1.0" encoding="UTF-8" standalone="no"?>
<!DOCTYPE svg PUBLIC "-//W3C//DTD SVG 1.1//EN"
 "http://www.w3.org/Graphics/SVG/1.1/DTD/svg11.dtd">
<!-- Generated by graphviz version 2.36.0 (20140111.2315)
 -->
<!-- Title: include/shad/data_structures/set.h Pages: 1 -->
<svg width="1575pt" height="504pt"
 viewBox="0.00 0.00 1575.37 504.00" xmlns="http://www.w3.org/2000/svg" xmlns:xlink="http://www.w3.org/1999/xlink">
<g id="graph0" class="graph" transform="scale(1 1) rotate(0) translate(4 500)">
<title>include/shad/data_structures/set.h</title>
<polygon fill="white" stroke="none" points="-4,4 -4,-500 1571.37,-500 1571.37,4 -4,4"/>
<!-- Node1 -->
<g id="node1" class="node"><title>Node1</title>
<polygon fill="#bfbfbf" stroke="black" points="731.138,-465 731.138,-495 873.138,-495 873.138,-465 731.138,-465"/>
<text text-anchor="start" x="739.138" y="-483" font-family="Helvetica,sans-Serif" font-size="10.00">include/shad/data_structures</text>
<text text-anchor="middle" x="802.138" y="-472" font-family="Helvetica,sans-Serif" font-size="10.00">/set.h</text>
</g>
<!-- Node2 -->
<g id="node2" class="node"><title>Node2</title>
<polygon fill="white" stroke="#bfbfbf" points="1482.14,-198.5 1482.14,-217.5 1538.14,-217.5 1538.14,-198.5 1482.14,-198.5"/>
<text text-anchor="middle" x="1510.14" y="-205.5" font-family="Helvetica,sans-Serif" font-size="10.00">algorithm</text>
</g>
<!-- Node1&#45;&gt;Node2 -->
<g id="edge1" class="edge"><title>Node1&#45;&gt;Node2</title>
<path fill="none" stroke="midnightblue" d="M873.224,-472.963C940.958,-466.063 1045.33,-452.429 1133.14,-428 1286.36,-385.369 1345.33,-397.74 1464.14,-292 1484.1,-274.237 1497.23,-245.671 1504.17,-227.118"/>
<polygon fill="midnightblue" stroke="midnightblue" points="1507.54,-228.103 1507.55,-217.508 1500.93,-225.781 1507.54,-228.103"/>
</g>
<!-- Node3 -->
<g id="node3" class="node"><title>Node3</title>
<polygon fill="white" stroke="#bfbfbf" points="1386.64,-130.5 1386.64,-149.5 1445.64,-149.5 1445.64,-130.5 1386.64,-130.5"/>
<text text-anchor="middle" x="1416.14" y="-137.5" font-family="Helvetica,sans-Serif" font-size="10.00">functional</text>
</g>
<!-- Node1&#45;&gt;Node3 -->
<g id="edge2" class="edge"><title>Node1&#45;&gt;Node3</title>
<path fill="none" stroke="midnightblue" d="M873.328,-473.968C1062.99,-459.613 1566.14,-414.941 1566.14,-345 1566.14,-345 1566.14,-345 1566.14,-275 1566.14,-237.055 1571.06,-220.61 1546.14,-192 1523.13,-165.592 1484.69,-152.748 1455.56,-146.569"/>
<polygon fill="midnightblue" stroke="midnightblue" points="1456.17,-143.122 1445.69,-144.65 1454.84,-149.993 1456.17,-143.122"/>
</g>
<!-- Node4 -->
<g id="node4" class="node"><title>Node4</title>
<polygon fill="white" stroke="#bfbfbf" points="428.138,-266.5 428.138,-285.5 466.138,-285.5 466.138,-266.5 428.138,-266.5"/>
<text text-anchor="middle" x="447.138" y="-273.5" font-family="Helvetica,sans-Serif" font-size="10.00">tuple</text>
</g>
<!-- Node1&#45;&gt;Node4 -->
<g id="edge3" class="edge"><title>Node1&#45;&gt;Node4</title>
<path fill="none" stroke="midnightblue" d="M732.508,-464.951C666.54,-448.785 567.637,-416.843 499.138,-360 477.818,-342.308 462.573,-313.516 454.306,-294.919"/>
<polygon fill="midnightblue" stroke="midnightblue" points="457.46,-293.39 450.344,-285.54 451.011,-296.114 457.46,-293.39"/>
</g>
<!-- Node5 -->
<g id="node5" class="node"><title>Node5</title>
<polygon fill="white" stroke="#bfbfbf" points="14.1384,-198.5 14.1384,-217.5 54.1384,-217.5 54.1384,-198.5 14.1384,-198.5"/>
<text text-anchor="middle" x="34.1384" y="-205.5" font-family="Helvetica,sans-Serif" font-size="10.00">utility</text>
</g>
<!-- Node1&#45;&gt;Node5 -->
<g id="edge4" class="edge"><title>Node1&#45;&gt;Node5</title>
<path fill="none" stroke="midnightblue" d="M731.053,-476.964C609.33,-472.65 366.527,-460.195 288.138,-428 177.517,-382.566 80.9011,-269.066 47.0241,-225.966"/>
<polygon fill="midnightblue" stroke="midnightblue" points="49.6563,-223.649 40.7649,-217.887 44.1228,-227.936 49.6563,-223.649"/>
</g>
<!-- Node6 -->
<g id="node6" class="node"><title>Node6</title>
<polygon fill="white" stroke="#bfbfbf" points="1108.14,-198.5 1108.14,-217.5 1152.14,-217.5 1152.14,-198.5 1108.14,-198.5"/>
<text text-anchor="middle" x="1130.14" y="-205.5" font-family="Helvetica,sans-Serif" font-size="10.00">vector</text>
</g>
<!-- Node1&#45;&gt;Node6 -->
<g id="edge5" class="edge"><title>Node1&#45;&gt;Node6</title>
<path fill="none" stroke="midnightblue" d="M854.849,-464.913C883.14,-456.267 918.068,-443.807 947.138,-428 990.561,-404.388 1001.91,-396.592 1035.14,-360 1074.06,-317.132 1106.8,-256.343 1121.63,-226.671"/>
<polygon fill="midnightblue" stroke="midnightblue" points="1124.84,-228.073 1126.11,-217.554 1118.56,-224.987 1124.84,-228.073"/>
</g>
<!-- Node7 -->
<g id="node7" class="node"><title>Node7</title>
<g id="a_node7"><a xlink:href="abstract__data__structure_8h.html" target="_top" xlink:title="shad/data_structures\l/abstract_data_structure.h">
<polygon fill="white" stroke="black" points="320.638,-397 320.638,-427 451.638,-427 451.638,-397 320.638,-397"/>
<text text-anchor="start" x="328.638" y="-415" font-family="Helvetica,sans-Serif" font-size="10.00">shad/data_structures</text>
<text text-anchor="middle" x="386.138" y="-404" font-family="Helvetica,sans-Serif" font-size="10.00">/abstract_data_structure.h</text>
</a>
</g>
</g>
<!-- Node1&#45;&gt;Node7 -->
<g id="edge6" class="edge"><title>Node1&#45;&gt;Node7</title>
<path fill="none" stroke="midnightblue" d="M730.905,-468.92C662.813,-459.111 557.321,-443.464 466.138,-428 464.845,-427.781 463.541,-427.558 462.228,-427.331"/>
<polygon fill="midnightblue" stroke="midnightblue" points="462.482,-423.822 452.027,-425.542 461.272,-430.717 462.482,-423.822"/>
</g>
<!-- Node13 -->
<g id="node13" class="node"><title>Node13</title>
<g id="a_node13"><a xlink:href="runtime_8h.html" target="_top" xlink:title="shad/runtime/runtime.h">
<polygon fill="white" stroke="black" points="624.138,-266.5 624.138,-285.5 740.138,-285.5 740.138,-266.5 624.138,-266.5"/>
<text text-anchor="middle" x="682.138" y="-273.5" font-family="Helvetica,sans-Serif" font-size="10.00">shad/runtime/runtime.h</text>
</a>
</g>
</g>
<!-- Node1&#45;&gt;Node13 -->
<g id="edge80" class="edge"><title>Node1&#45;&gt;Node13</title>
<path fill="none" stroke="midnightblue" d="M793.7,-464.796C772.257,-428.7 715.728,-333.543 692.415,-294.299"/>
<polygon fill="midnightblue" stroke="midnightblue" points="695.362,-292.407 687.245,-285.597 689.344,-295.982 695.362,-292.407"/>
</g>
<!-- Node30 -->
<g id="node30" class="node"><title>Node30</title>
<g id="a_node30"><a xlink:href="buffer_8h.html" target="_top" xlink:title="shad/data_structures\l/buffer.h">
<polygon fill="white" stroke="black" points="830.138,-397 830.138,-427 938.138,-427 938.138,-397 830.138,-397"/>
<text text-anchor="start" x="838.138" y="-415" font-family="Helvetica,sans-Serif" font-size="10.00">shad/data_structures</text>
<text text-anchor="middle" x="884.138" y="-404" font-family="Helvetica,sans-Serif" font-size="10.00">/buffer.h</text>
</a>
</g>
</g>
<!-- Node1&#45;&gt;Node30 -->
<g id="edge50" class="edge"><title>Node1&#45;&gt;Node30</title>
<path fill="none" stroke="midnightblue" d="M819.931,-464.679C831.291,-455.536 846.195,-443.54 858.784,-433.407"/>
<polygon fill="midnightblue" stroke="midnightblue" points="861.066,-436.063 866.662,-427.066 856.677,-430.61 861.066,-436.063"/>
</g>
<!-- Node32 -->
<g id="node32" class="node"><title>Node32</title>
<g id="a_node32"><a xlink:href="compare__and__hash__utils_8h.html" target="_top" xlink:title="shad/data_structures\l/compare_and_hash_utils.h">
<polygon fill="white" stroke="black" points="1198.14,-261 1198.14,-291 1334.14,-291 1334.14,-261 1198.14,-261"/>
<text text-anchor="start" x="1206.14" y="-279" font-family="Helvetica,sans-Serif" font-size="10.00">shad/data_structures</text>
<text text-anchor="middle" x="1266.14" y="-268" font-family="Helvetica,sans-Serif" font-size="10.00">/compare_and_hash_utils.h</text>
</a>
</g>
</g>
<!-- Node1&#45;&gt;Node32 -->
<g id="edge57" class="edge"><title>Node1&#45;&gt;Node32</title>
<path fill="none" stroke="midnightblue" d="M873.233,-477.28C934.468,-473.358 1023.82,-461.68 1094.14,-428 1159.88,-396.51 1219.73,-332.608 1248.37,-298.92"/>
<polygon fill="midnightblue" stroke="midnightblue" points="1251.23,-300.958 1254.96,-291.044 1245.86,-296.465 1251.23,-300.958"/>
</g>
<!-- Node35 -->
<g id="node35" class="node"><title>Node35</title>
<g id="a_node35"><a xlink:href="local__set_8h.html" target="_top" xlink:title="shad/data_structures\l/local_set.h">
<polygon fill="white" stroke="black" points="748.138,-329 748.138,-359 856.138,-359 856.138,-329 748.138,-329"/>
<text text-anchor="start" x="756.138" y="-347" font-family="Helvetica,sans-Serif" font-size="10.00">shad/data_structures</text>
<text text-anchor="middle" x="802.138" y="-336" font-family="Helvetica,sans-Serif" font-size="10.00">/local_set.h</text>
</a>
</g>
</g>
<!-- Node1&#45;&gt;Node35 -->
<g id="edge67" class="edge"><title>Node1&#45;&gt;Node35</title>
<path fill="none" stroke="midnightblue" d="M802.138,-464.66C802.138,-441.891 802.138,-397.203 802.138,-369.349"/>
<polygon fill="midnightblue" stroke="midnightblue" points="805.638,-369.237 802.138,-359.237 798.638,-369.237 805.638,-369.237"/>
</g>
<!-- Node36 -->
<g id="node36" class="node"><title>Node36</title>
<g id="a_node36"><a xlink:href="distributed__iterator__traits_8h.html" target="_top" xlink:title="shad/distributed_iterator\l_traits.h">
<polygon fill="white" stroke="black" points="230.638,-261 230.638,-291 351.638,-291 351.638,-261 230.638,-261"/>
<text text-anchor="start" x="238.638" y="-279" font-family="Helvetica,sans-Serif" font-size="10.00">shad/distributed_iterator</text>
<text text-anchor="middle" x="291.138" y="-268" font-family="Helvetica,sans-Serif" font-size="10.00">_traits.h</text>
</a>
</g>
</g>
<!-- Node1&#45;&gt;Node36 -->
<g id="edge77" class="edge"><title>Node1&#45;&gt;Node36</title>
<path fill="none" stroke="midnightblue" d="M730.95,-476.408C602.073,-471.025 340.633,-456.675 311.138,-428 277.263,-395.066 280.93,-334.554 286.237,-300.998"/>
<polygon fill="midnightblue" stroke="midnightblue" points="289.689,-301.575 287.972,-291.12 282.794,-300.364 289.689,-301.575"/>
</g>
<!-- Node7&#45;&gt;Node4 -->
<g id="edge10" class="edge"><title>Node7&#45;&gt;Node4</title>
<path fill="none" stroke="midnightblue" d="M385.863,-396.732C386.081,-379.564 388.237,-350.27 399.138,-328 405.888,-314.213 417.654,-301.62 427.848,-292.398"/>
<polygon fill="midnightblue" stroke="midnightblue" points="430.26,-294.939 435.559,-285.765 425.695,-289.632 430.26,-294.939"/>
</g>
<!-- Node7&#45;&gt;Node5 -->
<g id="edge11" class="edge"><title>Node7&#45;&gt;Node5</title>
<path fill="none" stroke="midnightblue" d="M361.666,-396.956C297.008,-359.852 122.212,-259.542 58.1182,-222.761"/>
<polygon fill="midnightblue" stroke="midnightblue" points="59.5679,-219.558 49.1525,-217.616 56.0838,-225.629 59.5679,-219.558"/>
</g>
<!-- Node7&#45;&gt;Node6 -->
<g id="edge12" class="edge"><title>Node7&#45;&gt;Node6</title>
<path fill="none" stroke="midnightblue" d="M452.066,-407.712C565.009,-401.461 790.543,-386.103 865.138,-360 943.226,-332.675 949.702,-299.965 1022.14,-260 1048.08,-245.69 1078.7,-231.469 1100.7,-221.694"/>
<polygon fill="midnightblue" stroke="midnightblue" points="1102.11,-224.895 1109.86,-217.661 1099.29,-218.489 1102.11,-224.895"/>
</g>
<!-- Node8 -->
<g id="node8" class="node"><title>Node8</title>
<polygon fill="white" stroke="#bfbfbf" points="408.638,-334.5 408.638,-353.5 451.638,-353.5 451.638,-334.5 408.638,-334.5"/>
<text text-anchor="middle" x="430.138" y="-341.5" font-family="Helvetica,sans-Serif" font-size="10.00">deque</text>
</g>
<!-- Node7&#45;&gt;Node8 -->
<g id="edge7" class="edge"><title>Node7&#45;&gt;Node8</title>
<path fill="none" stroke="midnightblue" d="M395.686,-396.679C402.41,-386.592 411.45,-373.033 418.582,-362.335"/>
<polygon fill="midnightblue" stroke="midnightblue" points="421.618,-364.09 424.253,-353.828 415.794,-360.207 421.618,-364.09"/>
</g>
<!-- Node9 -->
<g id="node9" class="node"><title>Node9</title>
<polygon fill="white" stroke="#bfbfbf" points="370.138,-266.5 370.138,-285.5 410.138,-285.5 410.138,-266.5 370.138,-266.5"/>
<text text-anchor="middle" x="390.138" y="-273.5" font-family="Helvetica,sans-Serif" font-size="10.00">limits</text>
</g>
<!-- Node7&#45;&gt;Node9 -->
<g id="edge8" class="edge"><title>Node7&#45;&gt;Node9</title>
<path fill="none" stroke="midnightblue" d="M378.862,-396.702C374.198,-386.709 368.577,-372.896 366.138,-360 363.496,-346.025 363.036,-341.88 366.138,-328 368.768,-316.234 374.426,-303.981 379.587,-294.435"/>
<polygon fill="midnightblue" stroke="midnightblue" points="382.713,-296.018 384.639,-285.6 376.637,-292.544 382.713,-296.018"/>
</g>
<!-- Node10 -->
<g id="node10" class="node"><title>Node10</title>
<polygon fill="white" stroke="#bfbfbf" points="133.138,-130.5 133.138,-149.5 185.138,-149.5 185.138,-130.5 133.138,-130.5"/>
<text text-anchor="middle" x="159.138" y="-137.5" font-family="Helvetica,sans-Serif" font-size="10.00">memory</text>
</g>
<!-- Node7&#45;&gt;Node10 -->
<g id="edge9" class="edge"><title>Node7&#45;&gt;Node10</title>
<path fill="none" stroke="midnightblue" d="M320.444,-401.373C229.831,-384.087 70.3076,-338.245 5.13836,-224 -22.5142,-175.524 68.8704,-153.876 122.655,-145.518"/>
<polygon fill="midnightblue" stroke="midnightblue" points="123.479,-148.935 132.865,-144.02 122.462,-142.009 123.479,-148.935"/>
</g>
<!-- Node11 -->
<g id="node11" class="node"><title>Node11</title>
<g id="a_node11"><a xlink:href="object__identifier_8h.html" target="_top" xlink:title="shad/data_structures\l/object_identifier.h">
<polygon fill="white" stroke="black" points="508.138,-329 508.138,-359 616.138,-359 616.138,-329 508.138,-329"/>
<text text-anchor="start" x="516.138" y="-347" font-family="Helvetica,sans-Serif" font-size="10.00">shad/data_structures</text>
<text text-anchor="middle" x="562.138" y="-336" font-family="Helvetica,sans-Serif" font-size="10.00">/object_identifier.h</text>
</a>
</g>
</g>
<!-- Node7&#45;&gt;Node11 -->
<g id="edge13" class="edge"><title>Node7&#45;&gt;Node11</title>
<path fill="none" stroke="midnightblue" d="M423.895,-396.841C450.665,-386.802 486.764,-373.265 515.361,-362.542"/>
<polygon fill="midnightblue" stroke="midnightblue" points="516.612,-365.81 524.747,-359.022 514.155,-359.256 516.612,-365.81"/>
</g>
<!-- Node7&#45;&gt;Node13 -->
<g id="edge49" class="edge"><title>Node7&#45;&gt;Node13</title>
<path fill="none" stroke="midnightblue" d="M451.818,-409.941C502.916,-406.229 573.566,-394.503 625.138,-360 649.154,-343.933 665.92,-314.012 674.786,-294.825"/>
<polygon fill="midnightblue" stroke="midnightblue" points="677.993,-296.228 678.797,-285.663 671.581,-293.42 677.993,-296.228"/>
</g>
<!-- Node11&#45;&gt;Node9 -->
<g id="edge15" class="edge"><title>Node11&#45;&gt;Node9</title>
<path fill="none" stroke="midnightblue" d="M518.052,-328.989C489.474,-319.49 451.652,-306.13 419.138,-292 417.774,-291.407 416.384,-290.778 414.989,-290.126"/>
<polygon fill="midnightblue" stroke="midnightblue" points="416.423,-286.931 405.907,-285.645 413.326,-293.209 416.423,-286.931"/>
</g>
<!-- Node12 -->
<g id="node12" class="node"><title>Node12</title>
<polygon fill="white" stroke="#bfbfbf" points="484.138,-266.5 484.138,-285.5 530.138,-285.5 530.138,-266.5 484.138,-266.5"/>
<text text-anchor="middle" x="507.138" y="-273.5" font-family="Helvetica,sans-Serif" font-size="10.00">atomic</text>
</g>
<!-- Node11&#45;&gt;Node12 -->
<g id="edge14" class="edge"><title>Node11&#45;&gt;Node12</title>
<path fill="none" stroke="midnightblue" d="M550.204,-328.679C541.628,-318.388 530.042,-304.484 521.046,-293.69"/>
<polygon fill="midnightblue" stroke="midnightblue" points="523.586,-291.27 514.495,-285.828 518.208,-295.751 523.586,-291.27"/>
</g>
<!-- Node11&#45;&gt;Node13 -->
<g id="edge16" class="edge"><title>Node11&#45;&gt;Node13</title>
<path fill="none" stroke="midnightblue" d="M587.881,-328.841C608.452,-317.528 637.101,-301.771 657.401,-290.605"/>
<polygon fill="midnightblue" stroke="midnightblue" points="659.278,-293.568 666.353,-285.682 655.904,-287.434 659.278,-293.568"/>
</g>
<!-- Node13&#45;&gt;Node3 -->
<g id="edge19" class="edge"><title>Node13&#45;&gt;Node3</title>
<path fill="none" stroke="midnightblue" d="M740.268,-270.635C830.615,-263.255 1000.17,-246.852 1056.14,-224 1078.19,-214.995 1077.19,-201.269 1099.14,-192 1193.07,-152.327 1314.61,-143.311 1376.35,-141.396"/>
<polygon fill="midnightblue" stroke="midnightblue" points="1376.54,-144.893 1386.45,-141.131 1376.36,-137.895 1376.54,-144.893"/>
</g>
<!-- Node13&#45;&gt;Node5 -->
<g id="edge26" class="edge"><title>Node13&#45;&gt;Node5</title>
<path fill="none" stroke="midnightblue" d="M624.847,-266.471C607.903,-264.142 589.297,-261.775 572.138,-260 346.555,-236.667 281.467,-285.36 63.1384,-224 61.1739,-223.448 59.1884,-222.754 57.2267,-221.97"/>
<polygon fill="midnightblue" stroke="midnightblue" points="58.3604,-218.635 47.8235,-217.529 55.3706,-224.964 58.3604,-218.635"/>
</g>
<!-- Node13&#45;&gt;Node6 -->
<g id="edge27" class="edge"><title>Node13&#45;&gt;Node6</title>
<path fill="none" stroke="midnightblue" d="M740.243,-268.692C845.667,-257.117 1060.7,-232.86 1094.14,-224 1096.96,-223.252 1099.85,-222.331 1102.71,-221.315"/>
<polygon fill="midnightblue" stroke="midnightblue" points="1104.12,-224.522 1112.16,-217.617 1101.57,-218.004 1104.12,-224.522"/>
</g>
<!-- Node13&#45;&gt;Node10 -->
<g id="edge23" class="edge"><title>Node13&#45;&gt;Node10</title>
<path fill="none" stroke="midnightblue" d="M645.287,-266.468C634.051,-264.098 621.631,-261.709 610.138,-260 521.86,-246.877 286,-271.012 210.138,-224 186.364,-209.267 172.023,-178.932 164.849,-159.301"/>
<polygon fill="midnightblue" stroke="midnightblue" points="168.108,-158.013 161.586,-149.663 161.478,-160.258 168.108,-158.013"/>
</g>
<!-- Node14 -->
<g id="node14" class="node"><title>Node14</title>
<polygon fill="white" stroke="#bfbfbf" points="388.638,-130.5 388.638,-149.5 437.638,-149.5 437.638,-130.5 388.638,-130.5"/>
<text text-anchor="middle" x="413.138" y="-137.5" font-family="Helvetica,sans-Serif" font-size="10.00">cstddef</text>
</g>
<!-- Node13&#45;&gt;Node14 -->
<g id="edge17" class="edge"><title>Node13&#45;&gt;Node14</title>
<path fill="none" stroke="midnightblue" d="M644.134,-266.472C633.195,-264.184 621.223,-261.837 610.138,-260 545.856,-249.346 362.292,-272.821 319.138,-224 309.719,-213.344 311.865,-204.222 319.138,-192 322.986,-185.535 359.647,-166.81 386.026,-153.943"/>
<polygon fill="midnightblue" stroke="midnightblue" points="387.724,-157.009 395.199,-149.501 384.673,-150.709 387.724,-157.009"/>
</g>
<!-- Node15 -->
<g id="node15" class="node"><title>Node15</title>
<polygon fill="white" stroke="#bfbfbf" points="800.138,-62.5 800.138,-81.5 846.138,-81.5 846.138,-62.5 800.138,-62.5"/>
<text text-anchor="middle" x="823.138" y="-69.5" font-family="Helvetica,sans-Serif" font-size="10.00">cstdint</text>
</g>
<!-- Node13&#45;&gt;Node15 -->
<g id="edge18" class="edge"><title>Node13&#45;&gt;Node15</title>
<path fill="none" stroke="midnightblue" d="M720.073,-266.434C744.45,-259.063 775.023,-246.026 794.138,-224 826.863,-186.293 827.25,-123.085 825.083,-91.7636"/>
<polygon fill="midnightblue" stroke="midnightblue" points="828.568,-91.4368 824.225,-81.7733 821.594,-92.0362 828.568,-91.4368"/>
</g>
<!-- Node16 -->
<g id="node16" class="node"><title>Node16</title>
<polygon fill="white" stroke="#bfbfbf" points="516.138,-198.5 516.138,-217.5 570.138,-217.5 570.138,-198.5 516.138,-198.5"/>
<text text-anchor="middle" x="543.138" y="-205.5" font-family="Helvetica,sans-Serif" font-size="10.00">iostream</text>
</g>
<!-- Node13&#45;&gt;Node16 -->
<g id="edge20" class="edge"><title>Node13&#45;&gt;Node16</title>
<path fill="none" stroke="midnightblue" d="M663.967,-266.372C640.137,-255.057 598.118,-235.105 570.449,-221.968"/>
<polygon fill="midnightblue" stroke="midnightblue" points="571.849,-218.758 561.315,-217.63 568.847,-225.081 571.849,-218.758"/>
</g>
<!-- Node17 -->
<g id="node17" class="node"><title>Node17</title>
<polygon fill="white" stroke="#bfbfbf" points="72.6384,-198.5 72.6384,-217.5 119.638,-217.5 119.638,-198.5 72.6384,-198.5"/>
<text text-anchor="middle" x="96.1384" y="-205.5" font-family="Helvetica,sans-Serif" font-size="10.00">iterator</text>
</g>
<!-- Node13&#45;&gt;Node17 -->
<g id="edge21" class="edge"><title>Node13&#45;&gt;Node17</title>
<path fill="none" stroke="midnightblue" d="M623.971,-266.562C607.257,-264.275 588.992,-261.907 572.138,-260 394.773,-239.936 348.83,-249.316 172.138,-224 158.167,-221.998 142.878,-219.117 129.701,-216.413"/>
<polygon fill="midnightblue" stroke="midnightblue" points="130.156,-212.933 119.65,-214.304 128.718,-219.784 130.156,-212.933"/>
</g>
<!-- Node18 -->
<g id="node18" class="node"><title>Node18</title>
<polygon fill="white" stroke="#bfbfbf" points="588.638,-198.5 588.638,-217.5 623.638,-217.5 623.638,-198.5 588.638,-198.5"/>
<text text-anchor="middle" x="606.138" y="-205.5" font-family="Helvetica,sans-Serif" font-size="10.00">map</text>
</g>
<!-- Node13&#45;&gt;Node18 -->
<g id="edge22" class="edge"><title>Node13&#45;&gt;Node18</title>
<path fill="none" stroke="midnightblue" d="M672.203,-266.372C659.981,-255.758 639.009,-237.545 623.97,-224.485"/>
<polygon fill="midnightblue" stroke="midnightblue" points="626.164,-221.755 616.319,-217.841 621.574,-227.041 626.164,-221.755"/>
</g>
<!-- Node19 -->
<g id="node19" class="node"><title>Node19</title>
<polygon fill="white" stroke="#bfbfbf" points="642.138,-198.5 642.138,-217.5 672.138,-217.5 672.138,-198.5 642.138,-198.5"/>
<text text-anchor="middle" x="657.138" y="-205.5" font-family="Helvetica,sans-Serif" font-size="10.00">set</text>
</g>
<!-- Node13&#45;&gt;Node19 -->
<g id="edge24" class="edge"><title>Node13&#45;&gt;Node19</title>
<path fill="none" stroke="midnightblue" d="M678.87,-266.372C675.148,-256.544 668.957,-240.202 664.134,-227.467"/>
<polygon fill="midnightblue" stroke="midnightblue" points="667.303,-225.953 660.487,-217.841 660.757,-228.433 667.303,-225.953"/>
</g>
<!-- Node20 -->
<g id="node20" class="node"><title>Node20</title>
<polygon fill="white" stroke="#bfbfbf" points="690.138,-198.5 690.138,-217.5 768.138,-217.5 768.138,-198.5 690.138,-198.5"/>
<text text-anchor="middle" x="729.138" y="-205.5" font-family="Helvetica,sans-Serif" font-size="10.00">unordered_set</text>
</g>
<!-- Node13&#45;&gt;Node20 -->
<g id="edge25" class="edge"><title>Node13&#45;&gt;Node20</title>
<path fill="none" stroke="midnightblue" d="M688.283,-266.372C695.491,-256.25 707.621,-239.215 716.796,-226.331"/>
<polygon fill="midnightblue" stroke="midnightblue" points="719.893,-228.017 722.842,-217.841 714.191,-223.957 719.893,-228.017"/>
</g>
<!-- Node21 -->
<g id="node21" class="node"><title>Node21</title>
<polygon fill="white" stroke="#bfbfbf" points="783.138,-0.5 783.138,-19.5 887.138,-19.5 887.138,-0.5 783.138,-0.5"/>
<text text-anchor="middle" x="835.138" y="-7.5" font-family="Helvetica,sans-Serif" font-size="10.00">shad/config/config.h</text>
</g>
<!-- Node13&#45;&gt;Node21 -->
<g id="edge28" class="edge"><title>Node13&#45;&gt;Node21</title>
<path fill="none" stroke="midnightblue" d="M643.99,-266.497C632.797,-264.183 620.509,-261.816 609.138,-260 539.783,-248.921 356.227,-258.657 295.138,-224 251.568,-199.281 211.379,-162.74 243.138,-124 309.635,-42.8872 635.055,-19.516 773.071,-13.194"/>
<polygon fill="midnightblue" stroke="midnightblue" points="773.238,-16.6901 783.074,-12.7507 772.928,-9.69695 773.238,-16.6901"/>
</g>
<!-- Node22 -->
<g id="node22" class="node"><title>Node22</title>
<g id="a_node22"><a xlink:href="handle_8h.html" target="_top" xlink:title="shad/runtime/handle.h">
<polygon fill="white" stroke="black" points="900.638,-198.5 900.638,-217.5 1013.64,-217.5 1013.64,-198.5 900.638,-198.5"/>
<text text-anchor="middle" x="957.138" y="-205.5" font-family="Helvetica,sans-Serif" font-size="10.00">shad/runtime/handle.h</text>
</a>
</g>
</g>
<!-- Node13&#45;&gt;Node22 -->
<g id="edge29" class="edge"><title>Node13&#45;&gt;Node22</title>
<path fill="none" stroke="midnightblue" d="M717.808,-266.439C767.368,-254.545 857.083,-233.013 911.476,-219.959"/>
<polygon fill="midnightblue" stroke="midnightblue" points="912.625,-223.283 921.532,-217.546 910.991,-216.476 912.625,-223.283"/>
</g>
<!-- Node24 -->
<g id="node24" class="node"><title>Node24</title>
<g id="a_node24"><a xlink:href="mapping__traits_8h.html" target="_top" xlink:title="shad/runtime/mapping\l_traits.h">
<polygon fill="white" stroke="black" points="938.638,-57 938.638,-87 1051.64,-87 1051.64,-57 938.638,-57"/>
<text text-anchor="start" x="946.638" y="-75" font-family="Helvetica,sans-Serif" font-size="10.00">shad/runtime/mapping</text>
<text text-anchor="middle" x="995.138" y="-64" font-family="Helvetica,sans-Serif" font-size="10.00">_traits.h</text>
</a>
</g>
</g>
<!-- Node13&#45;&gt;Node24 -->
<g id="edge41" class="edge"><title>Node13&#45;&gt;Node24</title>
<path fill="none" stroke="midnightblue" d="M740.437,-270.363C832.75,-262.424 1004.03,-245.031 1022.14,-224 1053.3,-187.818 1027.56,-128.246 1009.35,-95.7976"/>
<polygon fill="midnightblue" stroke="midnightblue" points="1012.3,-93.9052 1004.23,-87.0299 1006.25,-97.4316 1012.3,-93.9052"/>
</g>
<!-- Node27 -->
<g id="node27" class="node"><title>Node27</title>
<g id="a_node27"><a xlink:href="locality_8h.html" target="_top" xlink:title="shad/runtime/locality.h">
<polygon fill="white" stroke="black" points="690.638,-130.5 690.638,-149.5 805.638,-149.5 805.638,-130.5 690.638,-130.5"/>
<text text-anchor="middle" x="748.138" y="-137.5" font-family="Helvetica,sans-Serif" font-size="10.00">shad/runtime/locality.h</text>
</a>
</g>
</g>
<!-- Node13&#45;&gt;Node27 -->
<g id="edge36" class="edge"><title>Node13&#45;&gt;Node27</title>
<path fill="none" stroke="midnightblue" d="M716.103,-266.452C737.692,-259.067 763.974,-246.009 777.138,-224 789.816,-202.806 774.884,-175.247 762.179,-157.836"/>
<polygon fill="midnightblue" stroke="midnightblue" points="764.793,-155.495 755.896,-149.743 759.264,-159.788 764.793,-155.495"/>
</g>
<!-- Node28 -->
<g id="node28" class="node"><title>Node28</title>
<g id="a_node28"><a xlink:href="available__mappings_8h.html" target="_top" xlink:title="shad/runtime/mappings\l/available_mappings.h">
<polygon fill="white" stroke="black" points="252.138,-125 252.138,-155 370.138,-155 370.138,-125 252.138,-125"/>
<text text-anchor="start" x="260.138" y="-143" font-family="Helvetica,sans-Serif" font-size="10.00">shad/runtime/mappings</text>
<text text-anchor="middle" x="311.138" y="-132" font-family="Helvetica,sans-Serif" font-size="10.00">/available_mappings.h</text>
</a>
</g>
</g>
<!-- Node13&#45;&gt;Node28 -->
<g id="edge42" class="edge"><title>Node13&#45;&gt;Node28</title>
<path fill="none" stroke="midnightblue" d="M644.139,-266.443C633.2,-264.154 621.227,-261.815 610.138,-260 543.657,-249.12 353.855,-274.384 309.138,-224 295.076,-208.156 297.82,-183.147 302.707,-164.719"/>
<polygon fill="midnightblue" stroke="midnightblue" points="306.101,-165.588 305.636,-155.004 299.399,-163.568 306.101,-165.588"/>
</g>
<!-- Node29 -->
<g id="node29" class="node"><title>Node29</title>
<g id="a_node29"><a xlink:href="synchronous__interface_8h.html" target="_top" xlink:title="shad/runtime/synchronous\l_interface.h">
<polygon fill="white" stroke="black" points="328.638,-193 328.638,-223 459.638,-223 459.638,-193 328.638,-193"/>
<text text-anchor="start" x="336.638" y="-211" font-family="Helvetica,sans-Serif" font-size="10.00">shad/runtime/synchronous</text>
<text text-anchor="middle" x="394.138" y="-200" font-family="Helvetica,sans-Serif" font-size="10.00">_interface.h</text>
</a>
</g>
</g>
<!-- Node13&#45;&gt;Node29 -->
<g id="edge44" class="edge"><title>Node13&#45;&gt;Node29</title>
<path fill="none" stroke="midnightblue" d="M644.783,-266.439C599.484,-256.058 522.153,-238.337 465.338,-225.317"/>
<polygon fill="midnightblue" stroke="midnightblue" points="465.866,-221.847 455.337,-223.025 464.303,-228.67 465.866,-221.847"/>
</g>
<!-- Node22&#45;&gt;Node21 -->
<g id="edge31" class="edge"><title>Node22&#45;&gt;Node21</title>
<path fill="none" stroke="midnightblue" d="M951.739,-198.325C933.079,-168.347 871.086,-68.7526 845.908,-28.3019"/>
<polygon fill="midnightblue" stroke="midnightblue" points="848.731,-26.2148 840.476,-19.5746 842.789,-29.9139 848.731,-26.2148"/>
</g>
<!-- Node23 -->
<g id="node23" class="node"><title>Node23</title>
<polygon fill="white" stroke="#bfbfbf" points="1149.14,-130.5 1149.14,-149.5 1211.14,-149.5 1211.14,-130.5 1149.14,-130.5"/>
<text text-anchor="middle" x="1180.14" y="-137.5" font-family="Helvetica,sans-Serif" font-size="10.00">type_traits</text>
</g>
<!-- Node22&#45;&gt;Node23 -->
<g id="edge30" class="edge"><title>Node22&#45;&gt;Node23</title>
<path fill="none" stroke="midnightblue" d="M986.292,-198.372C1026.05,-186.604 1097.37,-165.496 1141.53,-152.426"/>
<polygon fill="midnightblue" stroke="midnightblue" points="1142.74,-155.72 1151.33,-149.526 1140.75,-149.008 1142.74,-155.72"/>
</g>
<!-- Node22&#45;&gt;Node24 -->
<g id="edge32" class="edge"><title>Node22&#45;&gt;Node24</title>
<path fill="none" stroke="midnightblue" d="M959.632,-198.208C965.392,-177.895 979.787,-127.132 988.376,-96.8463"/>
<polygon fill="midnightblue" stroke="midnightblue" points="991.787,-97.6469 991.148,-87.0713 985.052,-95.737 991.787,-97.6469"/>
</g>
<!-- Node26 -->
<g id="node26" class="node"><title>Node26</title>
<g id="a_node26"><a xlink:href="available__traits__mappings_8h.html" target="_top" xlink:title="shad/runtime/mappings\l/available_traits_mappings.h">
<polygon fill="white" stroke="black" points="592.138,-57 592.138,-87 732.138,-87 732.138,-57 592.138,-57"/>
<text text-anchor="start" x="600.138" y="-75" font-family="Helvetica,sans-Serif" font-size="10.00">shad/runtime/mappings</text>
<text text-anchor="middle" x="662.138" y="-64" font-family="Helvetica,sans-Serif" font-size="10.00">/available_traits_mappings.h</text>
</a>
</g>
</g>
<!-- Node22&#45;&gt;Node26 -->
<g id="edge35" class="edge"><title>Node22&#45;&gt;Node26</title>
<path fill="none" stroke="midnightblue" d="M900.362,-203.73C828.919,-198.429 711.83,-185.42 681.138,-156 665.527,-141.036 661.553,-116.071 661.014,-97.4209"/>
<polygon fill="midnightblue" stroke="midnightblue" points="664.515,-97.2995 661.032,-87.2934 657.515,-97.2872 664.515,-97.2995"/>
</g>
<!-- Node24&#45;&gt;Node21 -->
<g id="edge34" class="edge"><title>Node24&#45;&gt;Node21</title>
<path fill="none" stroke="midnightblue" d="M957.625,-56.9327C930.27,-46.6744 893.578,-32.9148 867.504,-23.1369"/>
<polygon fill="midnightblue" stroke="midnightblue" points="868.664,-19.8342 858.072,-19.6 866.206,-26.3885 868.664,-19.8342"/>
</g>
<!-- Node25 -->
<g id="node25" class="node"><title>Node25</title>
<polygon fill="white" stroke="#bfbfbf" points="974.638,-0.5 974.638,-19.5 1015.64,-19.5 1015.64,-0.5 974.638,-0.5"/>
<text text-anchor="middle" x="995.138" y="-7.5" font-family="Helvetica,sans-Serif" font-size="10.00">string</text>
</g>
<!-- Node24&#45;&gt;Node25 -->
<g id="edge33" class="edge"><title>Node24&#45;&gt;Node25</title>
<path fill="none" stroke="midnightblue" d="M995.138,-56.7808C995.138,-48.7812 995.138,-38.6887 995.138,-30.0168"/>
<polygon fill="midnightblue" stroke="midnightblue" points="998.638,-29.7305 995.138,-19.7305 991.638,-29.7306 998.638,-29.7305"/>
</g>
<!-- Node27&#45;&gt;Node15 -->
<g id="edge37" class="edge"><title>Node27&#45;&gt;Node15</title>
<path fill="none" stroke="midnightblue" d="M757.943,-130.372C770.004,-119.758 790.7,-101.545 805.541,-88.4855"/>
<polygon fill="midnightblue" stroke="midnightblue" points="807.897,-91.0749 813.092,-81.8411 803.272,-85.8199 807.897,-91.0749"/>
</g>
<!-- Node27&#45;&gt;Node21 -->
<g id="edge38" class="edge"><title>Node27&#45;&gt;Node21</title>
<path fill="none" stroke="midnightblue" d="M751.636,-130.277C758.136,-114.603 773.07,-80.9861 791.138,-56 798.884,-45.2894 809.134,-34.653 817.792,-26.4123"/>
<polygon fill="midnightblue" stroke="midnightblue" points="820.211,-28.9426 825.179,-19.5844 815.459,-23.8023 820.211,-28.9426"/>
</g>
<!-- Node27&#45;&gt;Node24 -->
<g id="edge39" class="edge"><title>Node27&#45;&gt;Node24</title>
<path fill="none" stroke="midnightblue" d="M780.176,-130.439C818.643,-120.161 884.044,-102.685 932.63,-89.7027"/>
<polygon fill="midnightblue" stroke="midnightblue" points="933.66,-93.0503 942.418,-87.0873 931.853,-86.2875 933.66,-93.0503"/>
</g>
<!-- Node27&#45;&gt;Node26 -->
<g id="edge40" class="edge"><title>Node27&#45;&gt;Node26</title>
<path fill="none" stroke="midnightblue" d="M736.895,-130.372C724.721,-121.029 704.873,-105.797 688.688,-93.375"/>
<polygon fill="midnightblue" stroke="midnightblue" points="690.681,-90.4931 680.617,-87.1815 686.419,-96.0463 690.681,-90.4931"/>
</g>
<!-- Node28&#45;&gt;Node26 -->
<g id="edge43" class="edge"><title>Node28&#45;&gt;Node26</title>
<path fill="none" stroke="midnightblue" d="M370.448,-125.775C373.384,-125.165 376.293,-124.57 379.138,-124 447.367,-110.332 525.191,-96.4295 581.937,-86.5991"/>
<polygon fill="midnightblue" stroke="midnightblue" points="582.666,-90.0251 591.924,-84.8733 581.474,-83.1273 582.666,-90.0251"/>
</g>
<!-- Node29&#45;&gt;Node10 -->
<g id="edge47" class="edge"><title>Node29&#45;&gt;Node10</title>
<path fill="none" stroke="midnightblue" d="M344.013,-192.922C299.248,-180.35 234.776,-162.243 194.995,-151.07"/>
<polygon fill="midnightblue" stroke="midnightblue" points="195.77,-147.653 185.196,-148.318 193.878,-154.392 195.77,-147.653"/>
</g>
<!-- Node29&#45;&gt;Node14 -->
<g id="edge45" class="edge"><title>Node29&#45;&gt;Node14</title>
<path fill="none" stroke="midnightblue" d="M398.261,-192.679C401.048,-182.999 404.754,-170.123 407.771,-159.645"/>
<polygon fill="midnightblue" stroke="midnightblue" points="411.194,-160.406 410.597,-149.828 404.467,-158.47 411.194,-160.406"/>
</g>
<!-- Node29&#45;&gt;Node15 -->
<g id="edge46" class="edge"><title>Node29&#45;&gt;Node15</title>
<path fill="none" stroke="midnightblue" d="M439.238,-192.913C525.943,-165.83 714.033,-107.079 790.161,-83.3007"/>
<polygon fill="midnightblue" stroke="midnightblue" points="791.636,-86.5068 800.137,-80.1844 789.549,-79.8251 791.636,-86.5068"/>
</g>
<!-- Node29&#45;&gt;Node27 -->
<g id="edge48" class="edge"><title>Node29&#45;&gt;Node27</title>
<path fill="none" stroke="midnightblue" d="M460.058,-194.633C464.823,-193.741 469.554,-192.856 474.138,-192 549.587,-177.905 636.736,-161.696 692.118,-151.405"/>
<polygon fill="midnightblue" stroke="midnightblue" points="692.886,-154.822 702.079,-149.554 691.608,-147.94 692.886,-154.822"/>
</g>
<!-- Node30&#45;&gt;Node2 -->
<g id="edge51" class="edge"><title>Node30&#45;&gt;Node2</title>
<path fill="none" stroke="midnightblue" d="M938.155,-409.471C1040.52,-404.451 1267.07,-383.04 1430.14,-292 1459.42,-275.651 1484.65,-245.14 1498.58,-226.014"/>
<polygon fill="midnightblue" stroke="midnightblue" points="1501.58,-227.84 1504.48,-217.651 1495.86,-223.804 1501.58,-227.84"/>
</g>
<!-- Node30&#45;&gt;Node6 -->
<g id="edge54" class="edge"><title>Node30&#45;&gt;Node6</title>
<path fill="none" stroke="midnightblue" d="M899.728,-396.948C918.379,-380.239 950.657,-351.639 979.138,-328 1025.46,-289.556 1081.45,-246.221 1110.51,-223.964"/>
<polygon fill="midnightblue" stroke="midnightblue" points="1112.8,-226.617 1118.62,-217.762 1108.55,-221.056 1112.8,-226.617"/>
</g>
<!-- Node30&#45;&gt;Node11 -->
<g id="edge55" class="edge"><title>Node30&#45;&gt;Node11</title>
<path fill="none" stroke="midnightblue" d="M830.069,-400.452C778.605,-390.339 699.016,-374.51 630.138,-360 628.874,-359.734 627.597,-359.463 626.31,-359.19"/>
<polygon fill="midnightblue" stroke="midnightblue" points="626.82,-355.72 616.309,-357.046 625.353,-362.565 626.82,-355.72"/>
</g>
<!-- Node30&#45;&gt;Node12 -->
<g id="edge53" class="edge"><title>Node30&#45;&gt;Node12</title>
<path fill="none" stroke="midnightblue" d="M842.028,-396.994C777.548,-375.383 650.626,-332.194 544.138,-292 541.895,-291.153 539.582,-290.261 537.26,-289.352"/>
<polygon fill="midnightblue" stroke="midnightblue" points="538.397,-286.038 527.812,-285.587 535.806,-292.54 538.397,-286.038"/>
</g>
<!-- Node30&#45;&gt;Node13 -->
<g id="edge56" class="edge"><title>Node30&#45;&gt;Node13</title>
<path fill="none" stroke="midnightblue" d="M885,-396.951C885.319,-378.629 882.998,-346.715 865.138,-328 835.666,-297.117 789.216,-284.426 750.49,-279.425"/>
<polygon fill="midnightblue" stroke="midnightblue" points="750.643,-275.92 740.31,-278.261 749.848,-282.875 750.643,-275.92"/>
</g>
<!-- Node31 -->
<g id="node31" class="node"><title>Node31</title>
<polygon fill="white" stroke="#bfbfbf" points="988.138,-334.5 988.138,-353.5 1026.14,-353.5 1026.14,-334.5 988.138,-334.5"/>
<text text-anchor="middle" x="1007.14" y="-341.5" font-family="Helvetica,sans-Serif" font-size="10.00">array</text>
</g>
<!-- Node30&#45;&gt;Node31 -->
<g id="edge52" class="edge"><title>Node30&#45;&gt;Node31</title>
<path fill="none" stroke="midnightblue" d="M910.525,-396.841C931.705,-385.476 961.241,-369.628 982.065,-358.454"/>
<polygon fill="midnightblue" stroke="midnightblue" points="983.802,-361.494 990.958,-353.682 980.492,-355.326 983.802,-361.494"/>
</g>
<!-- Node32&#45;&gt;Node2 -->
<g id="edge58" class="edge"><title>Node32&#45;&gt;Node2</title>
<path fill="none" stroke="midnightblue" d="M1318.18,-260.922C1364.47,-248.401 1431.06,-230.391 1472.4,-219.208"/>
<polygon fill="midnightblue" stroke="midnightblue" points="1473.35,-222.578 1482.09,-216.588 1471.52,-215.82 1473.35,-222.578"/>
</g>
<!-- Node32&#45;&gt;Node3 -->
<g id="edge61" class="edge"><title>Node32&#45;&gt;Node3</title>
<path fill="none" stroke="midnightblue" d="M1334.34,-262.07C1357.24,-254.531 1381.03,-242.657 1397.14,-224 1412.58,-206.118 1416.15,-178.212 1416.65,-159.769"/>
<polygon fill="midnightblue" stroke="midnightblue" points="1420.15,-159.681 1416.64,-149.683 1413.15,-159.685 1420.15,-159.681"/>
</g>
<!-- Node32&#45;&gt;Node6 -->
<g id="edge63" class="edge"><title>Node32&#45;&gt;Node6</title>
<path fill="none" stroke="midnightblue" d="M1236.96,-260.841C1213.33,-249.374 1180.3,-233.342 1157.24,-222.153"/>
<polygon fill="midnightblue" stroke="midnightblue" points="1158.55,-218.899 1148.03,-217.682 1155.5,-225.197 1158.55,-218.899"/>
</g>
<!-- Node32&#45;&gt;Node15 -->
<g id="edge59" class="edge"><title>Node32&#45;&gt;Node15</title>
<path fill="none" stroke="midnightblue" d="M1197.95,-273.497C1103.28,-270.131 938.321,-259.234 891.138,-224 868.591,-207.163 840.767,-127.787 828.918,-91.3571"/>
<polygon fill="midnightblue" stroke="midnightblue" points="832.16,-90.0035 825.778,-81.5468 825.493,-92.1378 832.16,-90.0035"/>
</g>
<!-- Node32&#45;&gt;Node23 -->
<g id="edge62" class="edge"><title>Node32&#45;&gt;Node23</title>
<path fill="none" stroke="midnightblue" d="M1239.57,-260.879C1225.5,-252.078 1209.12,-239.481 1199.14,-224 1186.53,-204.441 1182.24,-177.55 1180.81,-159.741"/>
<polygon fill="midnightblue" stroke="midnightblue" points="1184.31,-159.526 1180.23,-149.746 1177.32,-159.932 1184.31,-159.526"/>
</g>
<!-- Node33 -->
<g id="node33" class="node"><title>Node33</title>
<polygon fill="white" stroke="#bfbfbf" points="1342.14,-198.5 1342.14,-217.5 1388.14,-217.5 1388.14,-198.5 1342.14,-198.5"/>
<text text-anchor="middle" x="1365.14" y="-205.5" font-family="Helvetica,sans-Serif" font-size="10.00">cstring</text>
</g>
<!-- Node32&#45;&gt;Node33 -->
<g id="edge60" class="edge"><title>Node32&#45;&gt;Node33</title>
<path fill="none" stroke="midnightblue" d="M1287.62,-260.679C1304.22,-249.611 1327.09,-234.363 1343.69,-223.3"/>
<polygon fill="midnightblue" stroke="midnightblue" points="1345.8,-226.097 1352.18,-217.638 1341.92,-220.273 1345.8,-226.097"/>
</g>
<!-- Node34 -->
<g id="node34" class="node"><title>Node34</title>
<g id="a_node34"><a xlink:href="type__traits_8h.html" target="_top" xlink:title="shad/core/type_traits.h">
<polygon fill="white" stroke="black" points="1208.14,-198.5 1208.14,-217.5 1324.14,-217.5 1324.14,-198.5 1208.14,-198.5"/>
<text text-anchor="middle" x="1266.14" y="-205.5" font-family="Helvetica,sans-Serif" font-size="10.00">shad/core/type_traits.h</text>
</a>
</g>
</g>
<!-- Node32&#45;&gt;Node34 -->
<g id="edge64" class="edge"><title>Node32&#45;&gt;Node34</title>
<path fill="none" stroke="midnightblue" d="M1266.14,-260.679C1266.14,-251.101 1266.14,-238.394 1266.14,-227.977"/>
<polygon fill="midnightblue" stroke="midnightblue" points="1269.64,-227.828 1266.14,-217.828 1262.64,-227.828 1269.64,-227.828"/>
</g>
<!-- Node34&#45;&gt;Node3 -->
<g id="edge65" class="edge"><title>Node34&#45;&gt;Node3</title>
<path fill="none" stroke="midnightblue" d="M1285.75,-198.372C1311.58,-187.007 1357.2,-166.931 1387.06,-153.796"/>
<polygon fill="midnightblue" stroke="midnightblue" points="1388.78,-156.862 1396.52,-149.63 1385.96,-150.454 1388.78,-156.862"/>
</g>
<!-- Node34&#45;&gt;Node23 -->
<g id="edge66" class="edge"><title>Node34&#45;&gt;Node23</title>
<path fill="none" stroke="midnightblue" d="M1254.9,-198.372C1240.86,-187.6 1216.63,-169.002 1199.56,-155.906"/>
<polygon fill="midnightblue" stroke="midnightblue" points="1201.45,-152.942 1191.38,-149.63 1197.19,-158.495 1201.45,-152.942"/>
</g>
<!-- Node35&#45;&gt;Node2 -->
<g id="edge68" class="edge"><title>Node35&#45;&gt;Node2</title>
<path fill="none" stroke="midnightblue" d="M856.347,-338.415C1001.81,-326.1 1390,-293.153 1393.14,-292 1398.59,-290.001 1458.17,-246.878 1490.14,-223.6"/>
<polygon fill="midnightblue" stroke="midnightblue" points="1492.34,-226.331 1498.36,-217.612 1488.21,-220.674 1492.34,-226.331"/>
</g>
<!-- Node35&#45;&gt;Node3 -->
<g id="edge70" class="edge"><title>Node35&#45;&gt;Node3</title>
<path fill="none" stroke="midnightblue" d="M856.185,-338.353C990.978,-326.705 1332.05,-296.846 1343.14,-292 1363.9,-282.926 1409.89,-244.689 1419.14,-224 1428.31,-203.484 1425.2,-177.184 1421.37,-159.747"/>
<polygon fill="midnightblue" stroke="midnightblue" points="1424.68,-158.573 1418.86,-149.719 1417.89,-160.269 1424.68,-158.573"/>
</g>
<!-- Node35&#45;&gt;Node4 -->
<g id="edge72" class="edge"><title>Node35&#45;&gt;Node4</title>
<path fill="none" stroke="midnightblue" d="M747.871,-340.126C681.901,-335.373 567.892,-323.074 475.138,-292 473.485,-291.446 471.812,-290.8 470.151,-290.093"/>
<polygon fill="midnightblue" stroke="midnightblue" points="471.486,-286.85 460.966,-285.596 468.408,-293.137 471.486,-286.85"/>
</g>
<!-- Node35&#45;&gt;Node5 -->
<g id="edge73" class="edge"><title>Node35&#45;&gt;Node5</title>
<path fill="none" stroke="midnightblue" d="M748.118,-333.113C692.894,-322.538 611.222,-305.472 582.138,-292 560.522,-281.987 561.453,-268.339 539.138,-260 340.402,-185.733 267.244,-281.9 63.1384,-224 61.1752,-223.443 59.1907,-222.746 57.2297,-221.96"/>
<polygon fill="midnightblue" stroke="midnightblue" points="58.3642,-218.625 47.8278,-217.514 55.3717,-224.953 58.3642,-218.625"/>
</g>
<!-- Node35&#45;&gt;Node6 -->
<g id="edge74" class="edge"><title>Node35&#45;&gt;Node6</title>
<path fill="none" stroke="midnightblue" d="M815.757,-328.749C834.643,-309.896 870.708,-277.064 908.138,-260 984.753,-225.072 1013.53,-248.318 1094.14,-224 1096.78,-223.203 1099.5,-222.278 1102.19,-221.288"/>
<polygon fill="midnightblue" stroke="midnightblue" points="1103.71,-224.454 1111.72,-217.522 1101.13,-217.945 1103.71,-224.454"/>
</g>
<!-- Node35&#45;&gt;Node10 -->
<g id="edge71" class="edge"><title>Node35&#45;&gt;Node10</title>
<path fill="none" stroke="midnightblue" d="M748.026,-334.312C709.492,-326.702 657.281,-313.433 615.138,-292 594.845,-281.679 596.259,-268.499 575.138,-260 492.959,-226.93 244.848,-282.284 178.138,-224 160.077,-208.22 157.278,-179.103 157.65,-159.893"/>
<polygon fill="midnightblue" stroke="midnightblue" points="161.157,-159.824 158.163,-149.661 154.166,-159.473 161.157,-159.824"/>
</g>
<!-- Node35&#45;&gt;Node12 -->
<g id="edge69" class="edge"><title>Node35&#45;&gt;Node12</title>
<path fill="none" stroke="midnightblue" d="M748.049,-335.375C695.339,-327.229 613.263,-312.64 544.138,-292 541.49,-291.209 538.769,-290.301 536.062,-289.331"/>
<polygon fill="midnightblue" stroke="midnightblue" points="537.067,-285.967 526.477,-285.646 534.555,-292.501 537.067,-285.967"/>
</g>
<!-- Node35&#45;&gt;Node13 -->
<g id="edge76" class="edge"><title>Node35&#45;&gt;Node13</title>
<path fill="none" stroke="midnightblue" d="M776.395,-328.841C755.825,-317.528 727.176,-301.771 706.875,-290.605"/>
<polygon fill="midnightblue" stroke="midnightblue" points="708.373,-287.434 697.924,-285.682 704.999,-293.568 708.373,-287.434"/>
</g>
<!-- Node35&#45;&gt;Node32 -->
<g id="edge75" class="edge"><title>Node35&#45;&gt;Node32</title>
<path fill="none" stroke="midnightblue" d="M856.273,-335.3C938.155,-323.653 1093.91,-301.498 1188.06,-288.106"/>
<polygon fill="midnightblue" stroke="midnightblue" points="1188.69,-291.552 1198.1,-286.678 1187.7,-284.622 1188.69,-291.552"/>
</g>
<!-- Node36&#45;&gt;Node17 -->
<g id="edge78" class="edge"><title>Node36&#45;&gt;Node17</title>
<path fill="none" stroke="midnightblue" d="M245.199,-260.901C213.762,-251.052 171.222,-237.328 134.138,-224 131.744,-223.139 129.274,-222.225 126.797,-221.29"/>
<polygon fill="midnightblue" stroke="midnightblue" points="127.944,-217.981 117.354,-217.643 125.422,-224.511 127.944,-217.981"/>
</g>
<!-- Node36&#45;&gt;Node27 -->
<g id="edge79" class="edge"><title>Node36&#45;&gt;Node27</title>
<path fill="none" stroke="midnightblue" d="M349.204,-260.971C392.434,-250.024 447.402,-234.897 468.138,-224 487.986,-213.57 486.928,-201.709 507.138,-192 537.658,-177.339 622.621,-161.303 683.004,-151.202"/>
<polygon fill="midnightblue" stroke="midnightblue" points="683.928,-154.597 693.221,-149.51 682.784,-147.691 683.928,-154.597"/>
</g>
</g>
</svg>
