<?xml version="1.0" encoding="UTF-8" standalone="no"?>
<!DOCTYPE svg PUBLIC "-//W3C//DTD SVG 1.1//EN"
 "http://www.w3.org/Graphics/SVG/1.1/DTD/svg11.dtd">
<!-- Generated by graphviz version 2.36.0 (20140111.2315)
 -->
<!-- Title: include/shad/data_structures/set.h Pages: 1 -->
<svg width="287pt" height="118pt"
 viewBox="0.00 0.00 287.00 118.00" xmlns="http://www.w3.org/2000/svg" xmlns:xlink="http://www.w3.org/1999/xlink">
<g id="graph0" class="graph" transform="scale(1 1) rotate(0) translate(4 114)">
<title>include/shad/data_structures/set.h</title>
<polygon fill="white" stroke="none" points="-4,4 -4,-114 283,-114 283,4 -4,4"/>
<!-- Node1 -->
<g id="node1" class="node"><title>Node1</title>
<polygon fill="#bfbfbf" stroke="black" points="72,-79 72,-109 214,-109 214,-79 72,-79"/>
<text text-anchor="start" x="80" y="-97" font-family="Helvetica,sans-Serif" font-size="10.00">include/shad/data_structures</text>
<text text-anchor="middle" x="143" y="-86" font-family="Helvetica,sans-Serif" font-size="10.00">/set.h</text>
</g>
<!-- Node2 -->
<g id="node2" class="node"><title>Node2</title>
<g id="a_node2"><a xlink:href="unordered__set_8h.html" target="_top" xlink:title="include/shad/core/unordered\l_set.h">
<polygon fill="white" stroke="black" points="-0.5,-6 -0.5,-36 138.5,-36 138.5,-6 -0.5,-6"/>
<text text-anchor="start" x="7.5" y="-24" font-family="Helvetica,sans-Serif" font-size="10.00">include/shad/core/unordered</text>
<text text-anchor="middle" x="69" y="-13" font-family="Helvetica,sans-Serif" font-size="10.00">_set.h</text>
</a>
</g>
</g>
<!-- Node1&#45;&gt;Node2 -->
<g id="edge1" class="edge"><title>Node1&#45;&gt;Node2</title>
<path fill="none" stroke="midnightblue" d="M120.937,-71.8313C108.959,-60.3386 94.4704,-46.4378 83.8429,-36.2412"/>
<polygon fill="midnightblue" stroke="midnightblue" points="118.741,-74.5749 128.38,-78.9727 123.587,-69.5238 118.741,-74.5749"/>
</g>
<!-- Node3 -->
<g id="node3" class="node"><title>Node3</title>
<g id="a_node3"><a xlink:href="sssp_8h.html" target="_top" xlink:title="include/shad/extensions\l/graph_library/algorithms\l/sssp.h">
<polygon fill="white" stroke="black" points="156.5,-0.5 156.5,-41.5 279.5,-41.5 279.5,-0.5 156.5,-0.5"/>
<text text-anchor="start" x="164.5" y="-29.5" font-family="Helvetica,sans-Serif" font-size="10.00">include/shad/extensions</text>
<text text-anchor="start" x="164.5" y="-18.5" font-family="Helvetica,sans-Serif" font-size="10.00">/graph_library/algorithms</text>
<text text-anchor="middle" x="218" y="-7.5" font-family="Helvetica,sans-Serif" font-size="10.00">/sssp.h</text>
</a>
</g>
</g>
<!-- Node1&#45;&gt;Node3 -->
<g id="edge2" class="edge"><title>Node1&#45;&gt;Node3</title>
<path fill="none" stroke="midnightblue" d="M165.164,-72.0178C175.316,-62.4078 187.278,-51.0831 197.251,-41.642"/>
<polygon fill="midnightblue" stroke="midnightblue" points="162.674,-69.5562 157.818,-78.9727 167.486,-74.6396 162.674,-69.5562"/>
</g>
</g>
</svg>
