<?xml version="1.0" encoding="UTF-8" standalone="no"?>
<!DOCTYPE svg PUBLIC "-//W3C//DTD SVG 1.1//EN"
 "http://www.w3.org/Graphics/SVG/1.1/DTD/svg11.dtd">
<!-- Generated by graphviz version 2.36.0 (20140111.2315)
 -->
<!-- Title: include/shad/data_structures/set.h Pages: 1 -->
<svg width="1539pt" height="504pt"
 viewBox="0.00 0.00 1539.10 504.00" xmlns="http://www.w3.org/2000/svg" xmlns:xlink="http://www.w3.org/1999/xlink">
<g id="graph0" class="graph" transform="scale(1 1) rotate(0) translate(4 500)">
<title>include/shad/data_structures/set.h</title>
<polygon fill="white" stroke="none" points="-4,4 -4,-500 1535.1,-500 1535.1,4 -4,4"/>
<!-- Node1 -->
<g id="node1" class="node"><title>Node1</title>
<polygon fill="#bfbfbf" stroke="black" points="749.1,-465 749.1,-495 891.1,-495 891.1,-465 749.1,-465"/>
<text text-anchor="start" x="757.1" y="-483" font-family="Helvetica,sans-Serif" font-size="10.00">include/shad/data_structures</text>
<text text-anchor="middle" x="820.1" y="-472" font-family="Helvetica,sans-Serif" font-size="10.00">/set.h</text>
</g>
<!-- Node2 -->
<g id="node2" class="node"><title>Node2</title>
<polygon fill="white" stroke="#bfbfbf" points="1097.1,-198.5 1097.1,-217.5 1153.1,-217.5 1153.1,-198.5 1097.1,-198.5"/>
<text text-anchor="middle" x="1125.1" y="-205.5" font-family="Helvetica,sans-Serif" font-size="10.00">algorithm</text>
</g>
<!-- Node1&#45;&gt;Node2 -->
<g id="edge1" class="edge"><title>Node1&#45;&gt;Node2</title>
<path fill="none" stroke="midnightblue" d="M891.252,-467.319C925.723,-459.597 966.766,-447.241 1000.1,-428 1069.91,-387.702 1092.68,-367.803 1120.1,-292 1127.68,-271.044 1127.94,-245.18 1126.95,-227.947"/>
<polygon fill="midnightblue" stroke="midnightblue" points="1130.4,-227.26 1126.13,-217.563 1123.42,-227.805 1130.4,-227.26"/>
</g>
<!-- Node3 -->
<g id="node3" class="node"><title>Node3</title>
<polygon fill="white" stroke="#bfbfbf" points="1367.6,-130.5 1367.6,-149.5 1426.6,-149.5 1426.6,-130.5 1367.6,-130.5"/>
<text text-anchor="middle" x="1397.1" y="-137.5" font-family="Helvetica,sans-Serif" font-size="10.00">functional</text>
</g>
<!-- Node1&#45;&gt;Node3 -->
<g id="edge2" class="edge"><title>Node1&#45;&gt;Node3</title>
<path fill="none" stroke="midnightblue" d="M891.2,-473.036C1071.27,-456.98 1531.1,-409.65 1531.1,-345 1531.1,-345 1531.1,-345 1531.1,-275 1531.1,-216.16 1465.7,-174.133 1426.28,-154.145"/>
<polygon fill="midnightblue" stroke="midnightblue" points="1427.39,-150.793 1416.87,-149.541 1424.32,-157.081 1427.39,-150.793"/>
</g>
<!-- Node4 -->
<g id="node4" class="node"><title>Node4</title>
<polygon fill="white" stroke="#bfbfbf" points="312.1,-266.5 312.1,-285.5 350.1,-285.5 350.1,-266.5 312.1,-266.5"/>
<text text-anchor="middle" x="331.1" y="-273.5" font-family="Helvetica,sans-Serif" font-size="10.00">tuple</text>
</g>
<!-- Node1&#45;&gt;Node4 -->
<g id="edge3" class="edge"><title>Node1&#45;&gt;Node4</title>
<path fill="none" stroke="midnightblue" d="M749.02,-475.014C656.922,-466.634 495.149,-440.638 385.1,-360 362.285,-343.282 346.491,-313.769 338.117,-294.813"/>
<polygon fill="midnightblue" stroke="midnightblue" points="341.317,-293.393 334.231,-285.517 334.858,-296.093 341.317,-293.393"/>
</g>
<!-- Node5 -->
<g id="node5" class="node"><title>Node5</title>
<polygon fill="white" stroke="#bfbfbf" points="14.0998,-198.5 14.0998,-217.5 54.0998,-217.5 54.0998,-198.5 14.0998,-198.5"/>
<text text-anchor="middle" x="34.0998" y="-205.5" font-family="Helvetica,sans-Serif" font-size="10.00">utility</text>
</g>
<!-- Node1&#45;&gt;Node5 -->
<g id="edge4" class="edge"><title>Node1&#45;&gt;Node5</title>
<path fill="none" stroke="midnightblue" d="M748.92,-476.304C596.308,-470.07 247.573,-453.238 200.1,-428 114.482,-382.484 60.1806,-271.204 41.4357,-227.271"/>
<polygon fill="midnightblue" stroke="midnightblue" points="44.5925,-225.746 37.5265,-217.851 38.1272,-228.429 44.5925,-225.746"/>
</g>
<!-- Node6 -->
<g id="node6" class="node"><title>Node6</title>
<polygon fill="white" stroke="#bfbfbf" points="1035.1,-198.5 1035.1,-217.5 1079.1,-217.5 1079.1,-198.5 1035.1,-198.5"/>
<text text-anchor="middle" x="1057.1" y="-205.5" font-family="Helvetica,sans-Serif" font-size="10.00">vector</text>
</g>
<!-- Node1&#45;&gt;Node6 -->
<g id="edge5" class="edge"><title>Node1&#45;&gt;Node6</title>
<path fill="none" stroke="midnightblue" d="M872.548,-464.854C924.36,-448.2 1002.18,-415.523 1047.1,-360 1078.01,-321.798 1069.09,-258.818 1062.04,-227.656"/>
<polygon fill="midnightblue" stroke="midnightblue" points="1065.39,-226.599 1059.61,-217.719 1058.59,-228.265 1065.39,-226.599"/>
</g>
<!-- Node7 -->
<g id="node7" class="node"><title>Node7</title>
<g id="a_node7"><a xlink:href="abstract__data__structure_8h.html" target="_top" xlink:title="shad/data_structures\l/abstract_data_structure.h">
<polygon fill="white" stroke="black" points="209.6,-397 209.6,-427 340.6,-427 340.6,-397 209.6,-397"/>
<text text-anchor="start" x="217.6" y="-415" font-family="Helvetica,sans-Serif" font-size="10.00">shad/data_structures</text>
<text text-anchor="middle" x="275.1" y="-404" font-family="Helvetica,sans-Serif" font-size="10.00">/abstract_data_structure.h</text>
</a>
</g>
</g>
<!-- Node1&#45;&gt;Node7 -->
<g id="edge6" class="edge"><title>Node1&#45;&gt;Node7</title>
<path fill="none" stroke="midnightblue" d="M748.983,-472.896C657.574,-464.661 494.077,-448.62 355.1,-428 353.803,-427.808 352.494,-427.609 351.177,-427.406"/>
<polygon fill="midnightblue" stroke="midnightblue" points="351.384,-423.894 340.954,-425.759 350.27,-430.805 351.384,-423.894"/>
</g>
<!-- Node13 -->
<g id="node13" class="node"><title>Node13</title>
<g id="a_node13"><a xlink:href="runtime_8h.html" target="_top" xlink:title="shad/runtime/runtime.h">
<polygon fill="white" stroke="black" points="508.1,-266.5 508.1,-285.5 624.1,-285.5 624.1,-266.5 508.1,-266.5"/>
<text text-anchor="middle" x="566.1" y="-273.5" font-family="Helvetica,sans-Serif" font-size="10.00">shad/runtime/runtime.h</text>
</a>
</g>
</g>
<!-- Node1&#45;&gt;Node13 -->
<g id="edge83" class="edge"><title>Node1&#45;&gt;Node13</title>
<path fill="none" stroke="midnightblue" d="M749.038,-465.992C721.158,-458.329 690.15,-446.391 666.1,-428 618.751,-391.793 586.691,-326.408 573.241,-294.912"/>
<polygon fill="midnightblue" stroke="midnightblue" points="576.455,-293.524 569.398,-285.621 569.986,-296.2 576.455,-293.524"/>
</g>
<!-- Node30 -->
<g id="node30" class="node"><title>Node30</title>
<g id="a_node30"><a xlink:href="buffer_8h.html" target="_top" xlink:title="shad/data_structures\l/buffer.h">
<polygon fill="white" stroke="black" points="675.1,-397 675.1,-427 783.1,-427 783.1,-397 675.1,-397"/>
<text text-anchor="start" x="683.1" y="-415" font-family="Helvetica,sans-Serif" font-size="10.00">shad/data_structures</text>
<text text-anchor="middle" x="729.1" y="-404" font-family="Helvetica,sans-Serif" font-size="10.00">/buffer.h</text>
</a>
</g>
</g>
<!-- Node1&#45;&gt;Node30 -->
<g id="edge51" class="edge"><title>Node1&#45;&gt;Node30</title>
<path fill="none" stroke="midnightblue" d="M800.354,-464.679C787.627,-455.449 770.892,-443.311 756.838,-433.118"/>
<polygon fill="midnightblue" stroke="midnightblue" points="758.644,-430.104 748.494,-427.066 754.534,-435.771 758.644,-430.104"/>
</g>
<!-- Node32 -->
<g id="node32" class="node"><title>Node32</title>
<g id="a_node32"><a xlink:href="compare__and__hash__utils_8h.html" target="_top" xlink:title="shad/data_structures\l/compare_and_hash_utils.h">
<polygon fill="white" stroke="black" points="1184.1,-261 1184.1,-291 1320.1,-291 1320.1,-261 1184.1,-261"/>
<text text-anchor="start" x="1192.1" y="-279" font-family="Helvetica,sans-Serif" font-size="10.00">shad/data_structures</text>
<text text-anchor="middle" x="1252.1" y="-268" font-family="Helvetica,sans-Serif" font-size="10.00">/compare_and_hash_utils.h</text>
</a>
</g>
</g>
<!-- Node1&#45;&gt;Node32 -->
<g id="edge58" class="edge"><title>Node1&#45;&gt;Node32</title>
<path fill="none" stroke="midnightblue" d="M891.338,-476.061C980.337,-471.139 1126.28,-458.56 1170.1,-428 1214.04,-397.357 1236.68,-335.409 1246.29,-301.149"/>
<polygon fill="midnightblue" stroke="midnightblue" points="1249.78,-301.637 1248.96,-291.074 1243.01,-299.843 1249.78,-301.637"/>
</g>
<!-- Node35 -->
<g id="node35" class="node"><title>Node35</title>
<g id="a_node35"><a xlink:href="local__set_8h.html" target="_top" xlink:title="shad/data_structures\l/local_set.h">
<polygon fill="white" stroke="black" points="766.1,-329 766.1,-359 874.1,-359 874.1,-329 766.1,-329"/>
<text text-anchor="start" x="774.1" y="-347" font-family="Helvetica,sans-Serif" font-size="10.00">shad/data_structures</text>
<text text-anchor="middle" x="820.1" y="-336" font-family="Helvetica,sans-Serif" font-size="10.00">/local_set.h</text>
</a>
</g>
</g>
<!-- Node1&#45;&gt;Node35 -->
<g id="edge68" class="edge"><title>Node1&#45;&gt;Node35</title>
<path fill="none" stroke="midnightblue" d="M820.1,-464.66C820.1,-441.891 820.1,-397.203 820.1,-369.349"/>
<polygon fill="midnightblue" stroke="midnightblue" points="823.6,-369.237 820.1,-359.237 816.6,-369.237 823.6,-369.237"/>
</g>
<!-- Node37 -->
<g id="node37" class="node"><title>Node37</title>
<g id="a_node37"><a xlink:href="distributed__iterator__traits_8h.html" target="_top" xlink:title="shad/distributed_iterator\l_traits.h">
<polygon fill="white" stroke="black" points="892.6,-329 892.6,-359 1013.6,-359 1013.6,-329 892.6,-329"/>
<text text-anchor="start" x="900.6" y="-347" font-family="Helvetica,sans-Serif" font-size="10.00">shad/distributed_iterator</text>
<text text-anchor="middle" x="953.1" y="-336" font-family="Helvetica,sans-Serif" font-size="10.00">_traits.h</text>
</a>
</g>
</g>
<!-- Node1&#45;&gt;Node37 -->
<g id="edge79" class="edge"><title>Node1&#45;&gt;Node37</title>
<path fill="none" stroke="midnightblue" d="M834.333,-464.66C857.732,-441.085 904.453,-394.012 931.804,-366.456"/>
<polygon fill="midnightblue" stroke="midnightblue" points="934.408,-368.8 938.969,-359.237 929.44,-363.869 934.408,-368.8"/>
</g>
<!-- Node7&#45;&gt;Node4 -->
<g id="edge10" class="edge"><title>Node7&#45;&gt;Node4</title>
<path fill="none" stroke="midnightblue" d="M285.868,-396.944C293.011,-387.058 302.135,-373.275 308.1,-360 317.652,-338.742 324.098,-312.604 327.68,-295.407"/>
<polygon fill="midnightblue" stroke="midnightblue" points="331.125,-296.026 329.624,-285.538 324.257,-294.673 331.125,-296.026"/>
</g>
<!-- Node7&#45;&gt;Node5 -->
<g id="edge11" class="edge"><title>Node7&#45;&gt;Node5</title>
<path fill="none" stroke="midnightblue" d="M258.153,-396.796C214.268,-360.012 97.204,-261.892 52.1346,-224.116"/>
<polygon fill="midnightblue" stroke="midnightblue" points="54.2688,-221.338 44.3566,-217.597 49.7722,-226.703 54.2688,-221.338"/>
</g>
<!-- Node7&#45;&gt;Node6 -->
<g id="edge12" class="edge"><title>Node7&#45;&gt;Node6</title>
<path fill="none" stroke="midnightblue" d="M340.82,-401.266C394.844,-392.57 473.117,-378.373 540.1,-360 666.729,-325.266 691.82,-295.983 818.1,-260 891.956,-238.955 911.998,-240.046 987.1,-224 999.509,-221.349 1013.15,-218.427 1025.07,-215.871"/>
<polygon fill="midnightblue" stroke="midnightblue" points="1025.99,-219.255 1035.03,-213.736 1024.52,-212.41 1025.99,-219.255"/>
</g>
<!-- Node8 -->
<g id="node8" class="node"><title>Node8</title>
<polygon fill="white" stroke="#bfbfbf" points="256.6,-334.5 256.6,-353.5 299.6,-353.5 299.6,-334.5 256.6,-334.5"/>
<text text-anchor="middle" x="278.1" y="-341.5" font-family="Helvetica,sans-Serif" font-size="10.00">deque</text>
</g>
<!-- Node7&#45;&gt;Node8 -->
<g id="edge7" class="edge"><title>Node7&#45;&gt;Node8</title>
<path fill="none" stroke="midnightblue" d="M275.751,-396.679C276.186,-387.101 276.764,-374.394 277.237,-363.977"/>
<polygon fill="midnightblue" stroke="midnightblue" points="280.741,-363.977 277.699,-353.828 273.748,-363.659 280.741,-363.977"/>
</g>
<!-- Node9 -->
<g id="node9" class="node"><title>Node9</title>
<polygon fill="white" stroke="#bfbfbf" points="233.1,-266.5 233.1,-285.5 273.1,-285.5 273.1,-266.5 233.1,-266.5"/>
<text text-anchor="middle" x="253.1" y="-273.5" font-family="Helvetica,sans-Serif" font-size="10.00">limits</text>
</g>
<!-- Node7&#45;&gt;Node9 -->
<g id="edge8" class="edge"><title>Node7&#45;&gt;Node9</title>
<path fill="none" stroke="midnightblue" d="M264.66,-396.659C258.201,-386.868 250.512,-373.307 247.1,-360 241.565,-338.418 244.876,-312.717 248.384,-295.693"/>
<polygon fill="midnightblue" stroke="midnightblue" points="251.809,-296.417 250.627,-285.889 244.985,-294.856 251.809,-296.417"/>
</g>
<!-- Node10 -->
<g id="node10" class="node"><title>Node10</title>
<polygon fill="white" stroke="#bfbfbf" points="67.0998,-130.5 67.0998,-149.5 119.1,-149.5 119.1,-130.5 67.0998,-130.5"/>
<text text-anchor="middle" x="93.0998" y="-137.5" font-family="Helvetica,sans-Serif" font-size="10.00">memory</text>
</g>
<!-- Node7&#45;&gt;Node10 -->
<g id="edge9" class="edge"><title>Node7&#45;&gt;Node10</title>
<path fill="none" stroke="midnightblue" d="M232.848,-396.966C169.002,-373.12 50.5692,-317.918 5.09984,-224 -1.09756,-211.199 -2.00114,-204.323 5.09984,-192 16.3377,-172.498 38.2011,-159.773 57.3229,-151.911"/>
<polygon fill="midnightblue" stroke="midnightblue" points="58.6164,-155.164 66.7156,-148.333 56.1247,-148.622 58.6164,-155.164"/>
</g>
<!-- Node11 -->
<g id="node11" class="node"><title>Node11</title>
<g id="a_node11"><a xlink:href="object__identifier_8h.html" target="_top" xlink:title="shad/data_structures\l/object_identifier.h">
<polygon fill="white" stroke="black" points="394.1,-329 394.1,-359 502.1,-359 502.1,-329 394.1,-329"/>
<text text-anchor="start" x="402.1" y="-347" font-family="Helvetica,sans-Serif" font-size="10.00">shad/data_structures</text>
<text text-anchor="middle" x="448.1" y="-336" font-family="Helvetica,sans-Serif" font-size="10.00">/object_identifier.h</text>
</a>
</g>
</g>
<!-- Node7&#45;&gt;Node11 -->
<g id="edge13" class="edge"><title>Node7&#45;&gt;Node11</title>
<path fill="none" stroke="midnightblue" d="M312.213,-396.841C338.412,-386.846 373.702,-373.383 401.753,-362.682"/>
<polygon fill="midnightblue" stroke="midnightblue" points="403.25,-365.856 411.346,-359.022 400.755,-359.316 403.25,-365.856"/>
</g>
<!-- Node7&#45;&gt;Node13 -->
<g id="edge50" class="edge"><title>Node7&#45;&gt;Node13</title>
<path fill="none" stroke="midnightblue" d="M340.64,-409.943C391.147,-406.21 460.648,-394.457 511.1,-360 534.586,-343.959 550.602,-314.253 559.048,-295.073"/>
<polygon fill="midnightblue" stroke="midnightblue" points="562.357,-296.231 562.961,-285.654 555.892,-293.546 562.357,-296.231"/>
</g>
<!-- Node11&#45;&gt;Node9 -->
<g id="edge15" class="edge"><title>Node11&#45;&gt;Node9</title>
<path fill="none" stroke="midnightblue" d="M406.267,-328.841C369.047,-316.244 315.55,-298.137 282.629,-286.995"/>
<polygon fill="midnightblue" stroke="midnightblue" points="283.708,-283.665 273.114,-283.774 281.464,-290.295 283.708,-283.665"/>
</g>
<!-- Node12 -->
<g id="node12" class="node"><title>Node12</title>
<polygon fill="white" stroke="#bfbfbf" points="368.1,-266.5 368.1,-285.5 414.1,-285.5 414.1,-266.5 368.1,-266.5"/>
<text text-anchor="middle" x="391.1" y="-273.5" font-family="Helvetica,sans-Serif" font-size="10.00">atomic</text>
</g>
<!-- Node11&#45;&gt;Node12 -->
<g id="edge14" class="edge"><title>Node11&#45;&gt;Node12</title>
<path fill="none" stroke="midnightblue" d="M435.732,-328.679C426.844,-318.388 414.836,-304.484 405.514,-293.69"/>
<polygon fill="midnightblue" stroke="midnightblue" points="407.909,-291.109 398.724,-285.828 402.612,-295.684 407.909,-291.109"/>
</g>
<!-- Node11&#45;&gt;Node13 -->
<g id="edge16" class="edge"><title>Node11&#45;&gt;Node13</title>
<path fill="none" stroke="midnightblue" d="M473.414,-328.841C493.641,-317.528 521.813,-301.771 541.775,-290.605"/>
<polygon fill="midnightblue" stroke="midnightblue" points="543.559,-293.618 550.578,-285.682 540.142,-287.509 543.559,-293.618"/>
</g>
<!-- Node13&#45;&gt;Node3 -->
<g id="edge19" class="edge"><title>Node13&#45;&gt;Node3</title>
<path fill="none" stroke="midnightblue" d="M604.882,-266.497C615.618,-264.258 627.29,-261.932 638.1,-260 744.71,-240.948 779.099,-265.577 879.1,-224 901.097,-214.854 899.919,-200.689 922.1,-192 942.299,-184.087 1246.83,-155.036 1357.38,-144.69"/>
<polygon fill="midnightblue" stroke="midnightblue" points="1357.83,-148.163 1367.46,-143.748 1357.18,-141.194 1357.83,-148.163"/>
</g>
<!-- Node13&#45;&gt;Node5 -->
<g id="edge26" class="edge"><title>Node13&#45;&gt;Node5</title>
<path fill="none" stroke="midnightblue" d="M507.916,-266.701C491.202,-264.416 472.941,-262.014 456.1,-260 300.83,-241.433 260.627,-247.979 106.1,-224 92.1616,-221.837 76.8456,-218.748 63.9363,-215.934"/>
<polygon fill="midnightblue" stroke="midnightblue" points="64.6932,-212.517 54.1715,-213.76 63.1718,-219.35 64.6932,-212.517"/>
</g>
<!-- Node13&#45;&gt;Node6 -->
<g id="edge27" class="edge"><title>Node13&#45;&gt;Node6</title>
<path fill="none" stroke="midnightblue" d="M603.336,-266.483C614.474,-264.141 626.744,-261.764 638.1,-260 792.186,-236.067 833.082,-248.372 987.1,-224 999.538,-222.032 1013.1,-219.272 1024.94,-216.655"/>
<polygon fill="midnightblue" stroke="midnightblue" points="1025.85,-220.037 1034.83,-214.416 1024.31,-213.21 1025.85,-220.037"/>
</g>
<!-- Node13&#45;&gt;Node10 -->
<g id="edge23" class="edge"><title>Node13&#45;&gt;Node10</title>
<path fill="none" stroke="midnightblue" d="M528.864,-266.481C517.726,-264.139 505.455,-261.762 494.1,-260 416.836,-248.011 210.297,-265.609 144.1,-224 120.42,-209.116 106.051,-178.825 98.8459,-159.244"/>
<polygon fill="midnightblue" stroke="midnightblue" points="102.108,-157.967 95.5662,-149.634 95.4836,-160.228 102.108,-157.967"/>
</g>
<!-- Node14 -->
<g id="node14" class="node"><title>Node14</title>
<polygon fill="white" stroke="#bfbfbf" points="264.6,-130.5 264.6,-149.5 313.6,-149.5 313.6,-130.5 264.6,-130.5"/>
<text text-anchor="middle" x="289.1" y="-137.5" font-family="Helvetica,sans-Serif" font-size="10.00">cstddef</text>
</g>
<!-- Node13&#45;&gt;Node14 -->
<g id="edge17" class="edge"><title>Node13&#45;&gt;Node14</title>
<path fill="none" stroke="midnightblue" d="M527.317,-266.497C516.582,-264.258 504.909,-261.932 494.1,-260 440.795,-250.474 288.448,-265.021 253.1,-224 236.028,-204.189 256.391,-175.038 272.716,-157.077"/>
<polygon fill="midnightblue" stroke="midnightblue" points="275.402,-159.332 279.784,-149.685 270.343,-154.494 275.402,-159.332"/>
</g>
<!-- Node15 -->
<g id="node15" class="node"><title>Node15</title>
<polygon fill="white" stroke="#bfbfbf" points="837.1,-62.5 837.1,-81.5 883.1,-81.5 883.1,-62.5 837.1,-62.5"/>
<text text-anchor="middle" x="860.1" y="-69.5" font-family="Helvetica,sans-Serif" font-size="10.00">cstdint</text>
</g>
<!-- Node13&#45;&gt;Node15 -->
<g id="edge18" class="edge"><title>Node13&#45;&gt;Node15</title>
<path fill="none" stroke="midnightblue" d="M606.781,-266.492C675.598,-252.091 807.624,-224.42 808.1,-224 847.154,-189.51 856.892,-124.288 859.309,-92.0388"/>
<polygon fill="midnightblue" stroke="midnightblue" points="862.82,-91.9543 859.909,-81.7672 855.832,-91.546 862.82,-91.9543"/>
</g>
<!-- Node16 -->
<g id="node16" class="node"><title>Node16</title>
<polygon fill="white" stroke="#bfbfbf" points="255.1,-62.5 255.1,-81.5 309.1,-81.5 309.1,-62.5 255.1,-62.5"/>
<text text-anchor="middle" x="282.1" y="-69.5" font-family="Helvetica,sans-Serif" font-size="10.00">iostream</text>
</g>
<!-- Node13&#45;&gt;Node16 -->
<g id="edge20" class="edge"><title>Node13&#45;&gt;Node16</title>
<path fill="none" stroke="midnightblue" d="M527.325,-266.455C516.589,-264.217 504.915,-261.9 494.1,-260 438.601,-250.249 280.008,-266.579 243.1,-224 209.349,-185.063 247.333,-120.567 269.048,-90.0326"/>
<polygon fill="midnightblue" stroke="midnightblue" points="272.062,-91.842 275.167,-81.7125 266.423,-87.6946 272.062,-91.842"/>
</g>
<!-- Node17 -->
<g id="node17" class="node"><title>Node17</title>
<polygon fill="white" stroke="#bfbfbf" points="931.6,-198.5 931.6,-217.5 978.6,-217.5 978.6,-198.5 931.6,-198.5"/>
<text text-anchor="middle" x="955.1" y="-205.5" font-family="Helvetica,sans-Serif" font-size="10.00">iterator</text>
</g>
<!-- Node13&#45;&gt;Node17 -->
<g id="edge21" class="edge"><title>Node13&#45;&gt;Node17</title>
<path fill="none" stroke="midnightblue" d="M604.483,-266.432C615.321,-264.168 627.146,-261.845 638.1,-260 761.391,-239.235 796.025,-255.192 917.1,-224 920.161,-223.211 923.307,-222.243 926.417,-221.181"/>
<polygon fill="midnightblue" stroke="midnightblue" points="927.93,-224.352 936.075,-217.576 925.483,-217.794 927.93,-224.352"/>
</g>
<!-- Node18 -->
<g id="node18" class="node"><title>Node18</title>
<polygon fill="white" stroke="#bfbfbf" points="411.6,-198.5 411.6,-217.5 446.6,-217.5 446.6,-198.5 411.6,-198.5"/>
<text text-anchor="middle" x="429.1" y="-205.5" font-family="Helvetica,sans-Serif" font-size="10.00">map</text>
</g>
<!-- Node13&#45;&gt;Node18 -->
<g id="edge22" class="edge"><title>Node13&#45;&gt;Node18</title>
<path fill="none" stroke="midnightblue" d="M546.42,-266.397C524.25,-256.585 487.244,-239.844 456.1,-224 455.12,-223.502 454.124,-222.987 453.121,-222.461"/>
<polygon fill="midnightblue" stroke="midnightblue" points="454.594,-219.279 444.132,-217.606 451.267,-225.438 454.594,-219.279"/>
</g>
<!-- Node19 -->
<g id="node19" class="node"><title>Node19</title>
<polygon fill="white" stroke="#bfbfbf" points="465.1,-198.5 465.1,-217.5 495.1,-217.5 495.1,-198.5 465.1,-198.5"/>
<text text-anchor="middle" x="480.1" y="-205.5" font-family="Helvetica,sans-Serif" font-size="10.00">set</text>
</g>
<!-- Node13&#45;&gt;Node19 -->
<g id="edge24" class="edge"><title>Node13&#45;&gt;Node19</title>
<path fill="none" stroke="midnightblue" d="M554.857,-266.372C540.822,-255.6 516.587,-237.002 499.523,-223.906"/>
<polygon fill="midnightblue" stroke="midnightblue" points="501.41,-220.942 491.346,-217.63 497.148,-226.495 501.41,-220.942"/>
</g>
<!-- Node20 -->
<g id="node20" class="node"><title>Node20</title>
<polygon fill="white" stroke="#bfbfbf" points="513.1,-198.5 513.1,-217.5 591.1,-217.5 591.1,-198.5 513.1,-198.5"/>
<text text-anchor="middle" x="552.1" y="-205.5" font-family="Helvetica,sans-Serif" font-size="10.00">unordered_set</text>
</g>
<!-- Node13&#45;&gt;Node20 -->
<g id="edge25" class="edge"><title>Node13&#45;&gt;Node20</title>
<path fill="none" stroke="midnightblue" d="M564.27,-266.372C562.206,-256.643 558.788,-240.528 556.098,-227.85"/>
<polygon fill="midnightblue" stroke="midnightblue" points="559.474,-226.897 553.975,-217.841 552.627,-228.35 559.474,-226.897"/>
</g>
<!-- Node21 -->
<g id="node21" class="node"><title>Node21</title>
<polygon fill="white" stroke="#bfbfbf" points="483.1,-0.5 483.1,-19.5 587.1,-19.5 587.1,-0.5 483.1,-0.5"/>
<text text-anchor="middle" x="535.1" y="-7.5" font-family="Helvetica,sans-Serif" font-size="10.00">shad/config/config.h</text>
</g>
<!-- Node13&#45;&gt;Node21 -->
<g id="edge28" class="edge"><title>Node13&#45;&gt;Node21</title>
<path fill="none" stroke="midnightblue" d="M527.171,-266.489C516.182,-264.226 504.197,-261.889 493.1,-260 434.296,-249.991 266.349,-268.918 227.1,-224 177.657,-167.415 191.691,-107.828 246.1,-56 277.748,-25.8534 397.522,-15.9025 472.586,-12.618"/>
<polygon fill="midnightblue" stroke="midnightblue" points="473.019,-16.1033 482.867,-12.1974 472.733,-9.10917 473.019,-16.1033"/>
</g>
<!-- Node22 -->
<g id="node22" class="node"><title>Node22</title>
<g id="a_node22"><a xlink:href="handle_8h.html" target="_top" xlink:title="shad/runtime/handle.h">
<polygon fill="white" stroke="black" points="647.6,-198.5 647.6,-217.5 760.6,-217.5 760.6,-198.5 647.6,-198.5"/>
<text text-anchor="middle" x="704.1" y="-205.5" font-family="Helvetica,sans-Serif" font-size="10.00">shad/runtime/handle.h</text>
</a>
</g>
</g>
<!-- Node13&#45;&gt;Node22 -->
<g id="edge29" class="edge"><title>Node13&#45;&gt;Node22</title>
<path fill="none" stroke="midnightblue" d="M584.141,-266.372C607.799,-255.057 649.516,-235.105 676.985,-221.968"/>
<polygon fill="midnightblue" stroke="midnightblue" points="678.543,-225.103 686.054,-217.63 675.523,-218.788 678.543,-225.103"/>
</g>
<!-- Node24 -->
<g id="node24" class="node"><title>Node24</title>
<g id="a_node24"><a xlink:href="mapping__traits_8h.html" target="_top" xlink:title="shad/runtime/mapping\l_traits.h">
<polygon fill="white" stroke="black" points="701.6,-57 701.6,-87 814.6,-87 814.6,-57 701.6,-57"/>
<text text-anchor="start" x="709.6" y="-75" font-family="Helvetica,sans-Serif" font-size="10.00">shad/runtime/mapping</text>
<text text-anchor="middle" x="758.1" y="-64" font-family="Helvetica,sans-Serif" font-size="10.00">_traits.h</text>
</a>
</g>
</g>
<!-- Node13&#45;&gt;Node24 -->
<g id="edge42" class="edge"><title>Node13&#45;&gt;Node24</title>
<path fill="none" stroke="midnightblue" d="M605.995,-266.449C668.877,-252.882 784.25,-227.582 787.1,-224 816.746,-186.733 790.993,-128.081 772.654,-95.9442"/>
<polygon fill="midnightblue" stroke="midnightblue" points="775.609,-94.0664 767.5,-87.2483 769.588,-97.6355 775.609,-94.0664"/>
</g>
<!-- Node27 -->
<g id="node27" class="node"><title>Node27</title>
<g id="a_node27"><a xlink:href="locality_8h.html" target="_top" xlink:title="shad/runtime/locality.h">
<polygon fill="white" stroke="black" points="607.6,-130.5 607.6,-149.5 722.6,-149.5 722.6,-130.5 607.6,-130.5"/>
<text text-anchor="middle" x="665.1" y="-137.5" font-family="Helvetica,sans-Serif" font-size="10.00">shad/runtime/locality.h</text>
</a>
</g>
</g>
<!-- Node13&#45;&gt;Node27 -->
<g id="edge36" class="edge"><title>Node13&#45;&gt;Node27</title>
<path fill="none" stroke="midnightblue" d="M605.431,-266.419C663.005,-253.672 764.002,-230.537 769.1,-224 777.846,-212.785 776.624,-204.069 769.1,-192 757.023,-172.627 735.206,-160.407 714.663,-152.806"/>
<polygon fill="midnightblue" stroke="midnightblue" points="715.636,-149.44 705.042,-149.531 713.381,-156.067 715.636,-149.44"/>
</g>
<!-- Node28 -->
<g id="node28" class="node"><title>Node28</title>
<g id="a_node28"><a xlink:href="available__mappings_8h.html" target="_top" xlink:title="shad/runtime/mappings\l/available_mappings.h">
<polygon fill="white" stroke="black" points="433.1,-125 433.1,-155 551.1,-155 551.1,-125 433.1,-125"/>
<text text-anchor="start" x="441.1" y="-143" font-family="Helvetica,sans-Serif" font-size="10.00">shad/runtime/mappings</text>
<text text-anchor="middle" x="492.1" y="-132" font-family="Helvetica,sans-Serif" font-size="10.00">/available_mappings.h</text>
</a>
</g>
</g>
<!-- Node13&#45;&gt;Node28 -->
<g id="edge43" class="edge"><title>Node13&#45;&gt;Node28</title>
<path fill="none" stroke="midnightblue" d="M574.872,-266.278C589.537,-250.606 615.936,-216.991 600.1,-192 590.776,-177.285 575.94,-166.736 560.215,-159.203"/>
<polygon fill="midnightblue" stroke="midnightblue" points="561.451,-155.923 550.888,-155.107 558.637,-162.333 561.451,-155.923"/>
</g>
<!-- Node29 -->
<g id="node29" class="node"><title>Node29</title>
<g id="a_node29"><a xlink:href="synchronous__interface_8h.html" target="_top" xlink:title="shad/runtime/synchronous\l_interface.h">
<polygon fill="white" stroke="black" points="262.6,-193 262.6,-223 393.6,-223 393.6,-193 262.6,-193"/>
<text text-anchor="start" x="270.6" y="-211" font-family="Helvetica,sans-Serif" font-size="10.00">shad/runtime/synchronous</text>
<text text-anchor="middle" x="328.1" y="-200" font-family="Helvetica,sans-Serif" font-size="10.00">_interface.h</text>
</a>
</g>
</g>
<!-- Node13&#45;&gt;Node29 -->
<g id="edge45" class="edge"><title>Node13&#45;&gt;Node29</title>
<path fill="none" stroke="midnightblue" d="M534.985,-266.372C497.931,-256.096 435.189,-238.697 388.493,-225.748"/>
<polygon fill="midnightblue" stroke="midnightblue" points="389.359,-222.356 378.787,-223.056 387.488,-229.101 389.359,-222.356"/>
</g>
<!-- Node22&#45;&gt;Node21 -->
<g id="edge31" class="edge"><title>Node22&#45;&gt;Node21</title>
<path fill="none" stroke="midnightblue" d="M647.597,-198.593C567.888,-186.464 431.252,-164.572 424.1,-156 385.027,-109.168 467.368,-50.8354 510.704,-24.7361"/>
<polygon fill="midnightblue" stroke="midnightblue" points="512.708,-27.618 519.55,-19.5289 509.157,-21.5856 512.708,-27.618"/>
</g>
<!-- Node23 -->
<g id="node23" class="node"><title>Node23</title>
<polygon fill="white" stroke="#bfbfbf" points="1150.1,-130.5 1150.1,-149.5 1212.1,-149.5 1212.1,-130.5 1150.1,-130.5"/>
<text text-anchor="middle" x="1181.1" y="-137.5" font-family="Helvetica,sans-Serif" font-size="10.00">type_traits</text>
</g>
<!-- Node22&#45;&gt;Node23 -->
<g id="edge30" class="edge"><title>Node22&#45;&gt;Node23</title>
<path fill="none" stroke="midnightblue" d="M760.691,-199.17C857.939,-185.714 1054.53,-158.513 1139.94,-146.695"/>
<polygon fill="midnightblue" stroke="midnightblue" points="1140.6,-150.137 1150.03,-145.299 1139.64,-143.203 1140.6,-150.137"/>
</g>
<!-- Node22&#45;&gt;Node24 -->
<g id="edge32" class="edge"><title>Node22&#45;&gt;Node24</title>
<path fill="none" stroke="midnightblue" d="M709.359,-198.2C715.186,-188.211 724.613,-171.313 731.1,-156 739.294,-136.657 746.531,-113.923 751.445,-97.1437"/>
<polygon fill="midnightblue" stroke="midnightblue" points="754.941,-97.6494 754.325,-87.0724 748.211,-95.7246 754.941,-97.6494"/>
</g>
<!-- Node26 -->
<g id="node26" class="node"><title>Node26</title>
<g id="a_node26"><a xlink:href="available__traits__mappings_8h.html" target="_top" xlink:title="shad/runtime/mappings\l/available_traits_mappings.h">
<polygon fill="white" stroke="black" points="497.1,-57 497.1,-87 637.1,-87 637.1,-57 497.1,-57"/>
<text text-anchor="start" x="505.1" y="-75" font-family="Helvetica,sans-Serif" font-size="10.00">shad/runtime/mappings</text>
<text text-anchor="middle" x="567.1" y="-64" font-family="Helvetica,sans-Serif" font-size="10.00">/available_traits_mappings.h</text>
</a>
</g>
</g>
<!-- Node22&#45;&gt;Node26 -->
<g id="edge35" class="edge"><title>Node22&#45;&gt;Node26</title>
<path fill="none" stroke="midnightblue" d="M671.392,-198.408C648.127,-190.766 617.652,-177.417 598.1,-156 583.015,-139.476 575.064,-114.935 571.011,-96.8211"/>
<polygon fill="midnightblue" stroke="midnightblue" points="574.442,-96.1281 569.05,-87.0078 567.577,-97.4998 574.442,-96.1281"/>
</g>
<!-- Node24&#45;&gt;Node21 -->
<g id="edge34" class="edge"><title>Node24&#45;&gt;Node21</title>
<path fill="none" stroke="midnightblue" d="M705.816,-56.9327C666.396,-46.3264 613.065,-31.9772 576.563,-22.1559"/>
<polygon fill="midnightblue" stroke="midnightblue" points="577.305,-18.7311 566.739,-19.5127 575.486,-25.4908 577.305,-18.7311"/>
</g>
<!-- Node25 -->
<g id="node25" class="node"><title>Node25</title>
<polygon fill="white" stroke="#bfbfbf" points="737.6,-0.5 737.6,-19.5 778.6,-19.5 778.6,-0.5 737.6,-0.5"/>
<text text-anchor="middle" x="758.1" y="-7.5" font-family="Helvetica,sans-Serif" font-size="10.00">string</text>
</g>
<!-- Node24&#45;&gt;Node25 -->
<g id="edge33" class="edge"><title>Node24&#45;&gt;Node25</title>
<path fill="none" stroke="midnightblue" d="M758.1,-56.7808C758.1,-48.7812 758.1,-38.6887 758.1,-30.0168"/>
<polygon fill="midnightblue" stroke="midnightblue" points="761.6,-29.7305 758.1,-19.7305 754.6,-29.7306 761.6,-29.7305"/>
</g>
<!-- Node27&#45;&gt;Node15 -->
<g id="edge37" class="edge"><title>Node27&#45;&gt;Node15</title>
<path fill="none" stroke="midnightblue" d="M693.567,-130.496C725.367,-120.839 778.267,-104.299 823.1,-88 825.494,-87.1297 827.963,-86.2001 830.436,-85.2462"/>
<polygon fill="midnightblue" stroke="midnightblue" points="831.837,-88.456 839.847,-81.5208 829.261,-81.9474 831.837,-88.456"/>
</g>
<!-- Node27&#45;&gt;Node16 -->
<g id="edge38" class="edge"><title>Node27&#45;&gt;Node16</title>
<path fill="none" stroke="midnightblue" d="M615.422,-130.439C537.644,-117.036 388.855,-91.3965 319.46,-79.4381"/>
<polygon fill="midnightblue" stroke="midnightblue" points="319.87,-75.9572 309.421,-77.7081 318.681,-82.8555 319.87,-75.9572"/>
</g>
<!-- Node27&#45;&gt;Node21 -->
<g id="edge39" class="edge"><title>Node27&#45;&gt;Node21</title>
<path fill="none" stroke="midnightblue" d="M665.581,-130.083C665.987,-113.493 664.5,-77.6101 646.1,-56 632.198,-39.6727 611.484,-29.1974 591.702,-22.5088"/>
<polygon fill="midnightblue" stroke="midnightblue" points="592.688,-19.1502 582.1,-19.5205 590.608,-25.834 592.688,-19.1502"/>
</g>
<!-- Node27&#45;&gt;Node24 -->
<g id="edge40" class="edge"><title>Node27&#45;&gt;Node24</title>
<path fill="none" stroke="midnightblue" d="M677.258,-130.372C690.544,-120.943 712.281,-105.517 729.87,-93.0338"/>
<polygon fill="midnightblue" stroke="midnightblue" points="731.987,-95.8232 738.117,-87.1815 727.936,-90.1147 731.987,-95.8232"/>
</g>
<!-- Node27&#45;&gt;Node26 -->
<g id="edge41" class="edge"><title>Node27&#45;&gt;Node26</title>
<path fill="none" stroke="midnightblue" d="M652.288,-130.372C638.224,-120.9 615.174,-105.376 596.595,-92.8638"/>
<polygon fill="midnightblue" stroke="midnightblue" points="598.407,-89.8645 588.157,-87.1815 594.496,-95.6705 598.407,-89.8645"/>
</g>
<!-- Node28&#45;&gt;Node26 -->
<g id="edge44" class="edge"><title>Node28&#45;&gt;Node26</title>
<path fill="none" stroke="midnightblue" d="M508.374,-124.679C518.665,-115.623 532.136,-103.768 543.58,-93.697"/>
<polygon fill="midnightblue" stroke="midnightblue" points="545.92,-96.3001 551.115,-87.0663 541.296,-91.0451 545.92,-96.3001"/>
</g>
<!-- Node29&#45;&gt;Node10 -->
<g id="edge48" class="edge"><title>Node29&#45;&gt;Node10</title>
<path fill="none" stroke="midnightblue" d="M277.975,-192.922C233.209,-180.35 168.737,-162.243 128.956,-151.07"/>
<polygon fill="midnightblue" stroke="midnightblue" points="129.732,-147.653 119.158,-148.318 127.839,-154.392 129.732,-147.653"/>
</g>
<!-- Node29&#45;&gt;Node14 -->
<g id="edge46" class="edge"><title>Node29&#45;&gt;Node14</title>
<path fill="none" stroke="midnightblue" d="M319.637,-192.679C313.737,-182.694 305.826,-169.307 299.535,-158.66"/>
<polygon fill="midnightblue" stroke="midnightblue" points="302.417,-156.657 294.317,-149.828 296.391,-160.218 302.417,-156.657"/>
</g>
<!-- Node29&#45;&gt;Node15 -->
<g id="edge47" class="edge"><title>Node29&#45;&gt;Node15</title>
<path fill="none" stroke="midnightblue" d="M393.812,-193.357C396.608,-192.879 399.38,-192.424 402.1,-192 547.443,-169.365 592.443,-205.104 731.1,-156 774.921,-140.481 818.961,-107.534 842.546,-88.1428"/>
<polygon fill="midnightblue" stroke="midnightblue" points="844.854,-90.7747 850.271,-81.6693 840.359,-85.4093 844.854,-90.7747"/>
</g>
<!-- Node29&#45;&gt;Node27 -->
<g id="edge49" class="edge"><title>Node29&#45;&gt;Node27</title>
<path fill="none" stroke="midnightblue" d="M393.862,-193.64C396.644,-193.084 399.4,-192.535 402.1,-192 474.104,-177.721 557.289,-161.664 610.5,-151.448"/>
<polygon fill="midnightblue" stroke="midnightblue" points="611.243,-154.87 620.404,-149.548 609.923,-147.995 611.243,-154.87"/>
</g>
<!-- Node30&#45;&gt;Node2 -->
<g id="edge52" class="edge"><title>Node30&#45;&gt;Node2</title>
<path fill="none" stroke="midnightblue" d="M783.12,-408.158C862.543,-403.024 1005.88,-389.833 1047.1,-360 1092.43,-327.192 1113.4,-260.128 1121.23,-227.565"/>
<polygon fill="midnightblue" stroke="midnightblue" points="1124.69,-228.122 1123.47,-217.598 1117.86,-226.588 1124.69,-228.122"/>
</g>
<!-- Node30&#45;&gt;Node6 -->
<g id="edge55" class="edge"><title>Node30&#45;&gt;Node6</title>
<path fill="none" stroke="midnightblue" d="M783.251,-408.572C858.293,-404.073 988.484,-391.803 1022.1,-360 1058.84,-325.246 1060.5,-260.148 1058.78,-227.983"/>
<polygon fill="midnightblue" stroke="midnightblue" points="1062.26,-227.467 1058.06,-217.74 1055.27,-227.962 1062.26,-227.467"/>
</g>
<!-- Node30&#45;&gt;Node11 -->
<g id="edge56" class="edge"><title>Node30&#45;&gt;Node11</title>
<path fill="none" stroke="midnightblue" d="M674.92,-398.275C628.369,-387.341 561.176,-371.559 512.006,-360.01"/>
<polygon fill="midnightblue" stroke="midnightblue" points="512.649,-356.566 502.113,-357.686 511.048,-363.38 512.649,-356.566"/>
</g>
<!-- Node30&#45;&gt;Node12 -->
<g id="edge54" class="edge"><title>Node30&#45;&gt;Node12</title>
<path fill="none" stroke="midnightblue" d="M693.382,-396.995C636.973,-374.85 523.826,-330.326 428.1,-292 426.009,-291.163 423.852,-290.296 421.68,-289.422"/>
<polygon fill="midnightblue" stroke="midnightblue" points="422.802,-286.1 412.219,-285.599 420.179,-292.59 422.802,-286.1"/>
</g>
<!-- Node30&#45;&gt;Node13 -->
<g id="edge57" class="edge"><title>Node30&#45;&gt;Node13</title>
<path fill="none" stroke="midnightblue" d="M719.344,-396.718C706.731,-379.004 683.365,-348.627 658.1,-328 638.858,-312.291 614.091,-298.877 595.103,-289.755"/>
<polygon fill="midnightblue" stroke="midnightblue" points="596.569,-286.577 586.028,-285.508 593.602,-292.917 596.569,-286.577"/>
</g>
<!-- Node31 -->
<g id="node31" class="node"><title>Node31</title>
<polygon fill="white" stroke="#bfbfbf" points="710.1,-334.5 710.1,-353.5 748.1,-353.5 748.1,-334.5 710.1,-334.5"/>
<text text-anchor="middle" x="729.1" y="-341.5" font-family="Helvetica,sans-Serif" font-size="10.00">array</text>
</g>
<!-- Node30&#45;&gt;Node31 -->
<g id="edge53" class="edge"><title>Node30&#45;&gt;Node31</title>
<path fill="none" stroke="midnightblue" d="M729.1,-396.679C729.1,-387.101 729.1,-374.394 729.1,-363.977"/>
<polygon fill="midnightblue" stroke="midnightblue" points="732.6,-363.828 729.1,-353.828 725.6,-363.828 732.6,-363.828"/>
</g>
<!-- Node32&#45;&gt;Node2 -->
<g id="edge59" class="edge"><title>Node32&#45;&gt;Node2</title>
<path fill="none" stroke="midnightblue" d="M1224.86,-260.841C1202.89,-249.425 1172.22,-233.485 1150.7,-222.303"/>
<polygon fill="midnightblue" stroke="midnightblue" points="1152.29,-219.188 1141.81,-217.682 1149.07,-225.399 1152.29,-219.188"/>
</g>
<!-- Node32&#45;&gt;Node3 -->
<g id="edge62" class="edge"><title>Node32&#45;&gt;Node3</title>
<path fill="none" stroke="midnightblue" d="M1320.29,-268.456C1349.22,-261.914 1380.3,-249.067 1398.1,-224 1411.43,-205.228 1407.73,-177.564 1403.07,-159.415"/>
<polygon fill="midnightblue" stroke="midnightblue" points="1406.41,-158.366 1400.26,-149.739 1399.69,-160.318 1406.41,-158.366"/>
</g>
<!-- Node32&#45;&gt;Node6 -->
<g id="edge64" class="edge"><title>Node32&#45;&gt;Node6</title>
<path fill="none" stroke="midnightblue" d="M1200.08,-260.975C1167.49,-251.662 1124.85,-238.51 1088.1,-224 1086.46,-223.351 1084.78,-222.652 1083.1,-221.922"/>
<polygon fill="midnightblue" stroke="midnightblue" points="1084.18,-218.566 1073.63,-217.561 1081.25,-224.924 1084.18,-218.566"/>
</g>
<!-- Node32&#45;&gt;Node15 -->
<g id="edge60" class="edge"><title>Node32&#45;&gt;Node15</title>
<path fill="none" stroke="midnightblue" d="M1320.4,-269.247C1353.74,-262.999 1391.98,-250.174 1417.1,-224 1448.37,-191.42 1465.59,-157.313 1435.1,-124 1398.4,-83.8978 1010.85,-75.1374 893.551,-73.3984"/>
<polygon fill="midnightblue" stroke="midnightblue" points="893.423,-69.8963 883.375,-73.2553 893.324,-76.8956 893.423,-69.8963"/>
</g>
<!-- Node32&#45;&gt;Node23 -->
<g id="edge63" class="edge"><title>Node32&#45;&gt;Node23</title>
<path fill="none" stroke="midnightblue" d="M1233.05,-260.948C1221.82,-251.671 1208.25,-238.567 1200.1,-224 1188.79,-203.787 1184.21,-177.226 1182.35,-159.658"/>
<polygon fill="midnightblue" stroke="midnightblue" points="1185.83,-159.233 1181.49,-149.57 1178.86,-159.833 1185.83,-159.233"/>
</g>
<!-- Node33 -->
<g id="node33" class="node"><title>Node33</title>
<polygon fill="white" stroke="#bfbfbf" points="1343.1,-198.5 1343.1,-217.5 1389.1,-217.5 1389.1,-198.5 1343.1,-198.5"/>
<text text-anchor="middle" x="1366.1" y="-205.5" font-family="Helvetica,sans-Serif" font-size="10.00">cstring</text>
</g>
<!-- Node32&#45;&gt;Node33 -->
<g id="edge61" class="edge"><title>Node32&#45;&gt;Node33</title>
<path fill="none" stroke="midnightblue" d="M1276.56,-260.841C1296.01,-249.579 1323.07,-233.913 1342.34,-222.757"/>
<polygon fill="midnightblue" stroke="midnightblue" points="1344.2,-225.721 1351.1,-217.682 1340.7,-219.663 1344.2,-225.721"/>
</g>
<!-- Node34 -->
<g id="node34" class="node"><title>Node34</title>
<g id="a_node34"><a xlink:href="type__traits_8h.html" target="_top" xlink:title="shad/core/type_traits.h">
<polygon fill="white" stroke="black" points="1209.1,-198.5 1209.1,-217.5 1325.1,-217.5 1325.1,-198.5 1209.1,-198.5"/>
<text text-anchor="middle" x="1267.1" y="-205.5" font-family="Helvetica,sans-Serif" font-size="10.00">shad/core/type_traits.h</text>
</a>
</g>
</g>
<!-- Node32&#45;&gt;Node34 -->
<g id="edge65" class="edge"><title>Node32&#45;&gt;Node34</title>
<path fill="none" stroke="midnightblue" d="M1255.35,-260.679C1257.55,-250.999 1260.48,-238.123 1262.86,-227.645"/>
<polygon fill="midnightblue" stroke="midnightblue" points="1266.29,-228.355 1265.09,-217.828 1259.46,-226.804 1266.29,-228.355"/>
</g>
<!-- Node34&#45;&gt;Node3 -->
<g id="edge66" class="edge"><title>Node34&#45;&gt;Node3</title>
<path fill="none" stroke="midnightblue" d="M1284.1,-198.372C1306.19,-187.156 1345,-167.453 1370.88,-154.314"/>
<polygon fill="midnightblue" stroke="midnightblue" points="1372.77,-157.278 1380.1,-149.63 1369.6,-151.037 1372.77,-157.278"/>
</g>
<!-- Node34&#45;&gt;Node23 -->
<g id="edge67" class="edge"><title>Node34&#45;&gt;Node23</title>
<path fill="none" stroke="midnightblue" d="M1255.86,-198.372C1241.82,-187.6 1217.59,-169.002 1200.52,-155.906"/>
<polygon fill="midnightblue" stroke="midnightblue" points="1202.41,-152.942 1192.35,-149.63 1198.15,-158.495 1202.41,-152.942"/>
</g>
<!-- Node35&#45;&gt;Node2 -->
<g id="edge69" class="edge"><title>Node35&#45;&gt;Node2</title>
<path fill="none" stroke="midnightblue" d="M824.578,-328.942C831.393,-309.995 846.267,-276.717 871.1,-260 951.836,-205.652 993.316,-250.011 1087.1,-224 1090.08,-223.174 1093.15,-222.194 1096.18,-221.137"/>
<polygon fill="midnightblue" stroke="midnightblue" points="1097.51,-224.377 1105.65,-217.59 1095.05,-217.822 1097.51,-224.377"/>
</g>
<!-- Node35&#45;&gt;Node3 -->
<g id="edge72" class="edge"><title>Node35&#45;&gt;Node3</title>
<path fill="none" stroke="midnightblue" d="M874.291,-329.541C877.262,-328.977 880.213,-328.457 883.1,-328 1079.52,-296.878 1143.63,-363.768 1329.1,-292 1375.2,-274.162 1395.31,-268.367 1417.1,-224 1427.48,-202.868 1417.28,-176.009 1408.04,-158.663"/>
<polygon fill="midnightblue" stroke="midnightblue" points="1410.89,-156.596 1402.88,-149.665 1404.82,-160.08 1410.89,-156.596"/>
</g>
<!-- Node35&#45;&gt;Node4 -->
<g id="edge74" class="edge"><title>Node35&#45;&gt;Node4</title>
<path fill="none" stroke="midnightblue" d="M765.904,-329.574C762.934,-329.002 759.985,-328.471 757.1,-328 581.814,-299.357 529.243,-342.96 359.1,-292 357.393,-291.489 355.671,-290.868 353.964,-290.172"/>
<polygon fill="midnightblue" stroke="midnightblue" points="355.107,-286.837 344.581,-285.631 352.058,-293.138 355.107,-286.837"/>
</g>
<!-- Node35&#45;&gt;Node5 -->
<g id="edge75" class="edge"><title>Node35&#45;&gt;Node5</title>
<path fill="none" stroke="midnightblue" d="M765.884,-329.689C762.919,-329.087 759.977,-328.519 757.1,-328 628.849,-304.872 587.054,-340.511 466.1,-292 443.989,-283.132 445.307,-268.624 423.1,-260 275.269,-202.591 221.427,-264.506 68.0998,-224 65.443,-223.298 62.729,-222.415 60.0504,-221.429"/>
<polygon fill="midnightblue" stroke="midnightblue" points="61.2488,-218.137 50.6699,-217.557 58.5779,-224.608 61.2488,-218.137"/>
</g>
<!-- Node35&#45;&gt;Node6 -->
<g id="edge76" class="edge"><title>Node35&#45;&gt;Node6</title>
<path fill="none" stroke="midnightblue" d="M818.928,-328.852C818.231,-310.42 819.994,-278.384 838.1,-260 841.411,-256.638 964.695,-229.252 1024.8,-216.057"/>
<polygon fill="midnightblue" stroke="midnightblue" points="1025.89,-219.402 1034.91,-213.842 1024.39,-212.564 1025.89,-219.402"/>
</g>
<!-- Node35&#45;&gt;Node10 -->
<g id="edge73" class="edge"><title>Node35&#45;&gt;Node10</title>
<path fill="none" stroke="midnightblue" d="M765.874,-329.743C762.912,-329.127 759.973,-328.541 757.1,-328 643.323,-306.568 605.434,-337.798 499.1,-292 478.19,-282.994 480.165,-268.636 459.1,-260 387.369,-230.593 170.149,-275.384 112.1,-224 94.141,-208.103 91.3141,-179.018 91.6522,-159.846"/>
<polygon fill="midnightblue" stroke="midnightblue" points="95.1587,-159.795 92.1455,-149.637 88.1669,-159.457 95.1587,-159.795"/>
</g>
<!-- Node35&#45;&gt;Node12 -->
<g id="edge70" class="edge"><title>Node35&#45;&gt;Node12</title>
<path fill="none" stroke="midnightblue" d="M765.893,-329.64C762.925,-329.05 759.98,-328.498 757.1,-328 612.159,-302.916 570.728,-327.975 428.1,-292 425.04,-291.228 421.898,-290.256 418.8,-289.18"/>
<polygon fill="midnightblue" stroke="midnightblue" points="419.798,-285.815 409.208,-285.504 417.293,-292.351 419.798,-285.815"/>
</g>
<!-- Node35&#45;&gt;Node13 -->
<g id="edge78" class="edge"><title>Node35&#45;&gt;Node13</title>
<path fill="none" stroke="midnightblue" d="M765.922,-328.922C718.982,-316.725 651.997,-299.32 608.778,-288.09"/>
<polygon fill="midnightblue" stroke="midnightblue" points="609.424,-284.641 598.865,-285.514 607.663,-291.416 609.424,-284.641"/>
</g>
<!-- Node35&#45;&gt;Node32 -->
<g id="edge77" class="edge"><title>Node35&#45;&gt;Node32</title>
<path fill="none" stroke="midnightblue" d="M874.325,-329.739C877.287,-329.124 880.227,-328.539 883.1,-328 982.658,-309.313 1098.53,-294.401 1173.47,-285.64"/>
<polygon fill="midnightblue" stroke="midnightblue" points="1174.24,-289.074 1183.77,-284.445 1173.43,-282.121 1174.24,-289.074"/>
</g>
<!-- Node36 -->
<g id="node36" class="node"><title>Node36</title>
<polygon fill="white" stroke="#bfbfbf" points="880.6,-266.5 880.6,-285.5 929.6,-285.5 929.6,-266.5 880.6,-266.5"/>
<text text-anchor="middle" x="905.1" y="-273.5" font-family="Helvetica,sans-Serif" font-size="10.00">cassert</text>
</g>
<!-- Node35&#45;&gt;Node36 -->
<g id="edge71" class="edge"><title>Node35&#45;&gt;Node36</title>
<path fill="none" stroke="midnightblue" d="M838.544,-328.679C852.453,-317.879 871.488,-303.098 885.64,-292.11"/>
<polygon fill="midnightblue" stroke="midnightblue" points="887.978,-294.726 893.73,-285.828 883.685,-289.197 887.978,-294.726"/>
</g>
<!-- Node37&#45;&gt;Node17 -->
<g id="edge81" class="edge"><title>Node37&#45;&gt;Node17</title>
<path fill="none" stroke="midnightblue" d="M953.314,-328.66C953.677,-304.32 954.414,-254.933 954.819,-227.837"/>
<polygon fill="midnightblue" stroke="midnightblue" points="958.32,-227.779 954.97,-217.728 951.321,-227.674 958.32,-227.779"/>
</g>
<!-- Node37&#45;&gt;Node27 -->
<g id="edge82" class="edge"><title>Node37&#45;&gt;Node27</title>
<path fill="none" stroke="midnightblue" d="M963.464,-328.604C983.203,-299.287 1021.31,-232.049 987.1,-192 955.089,-154.52 817.589,-144.432 732.956,-141.813"/>
<polygon fill="midnightblue" stroke="midnightblue" points="733.002,-138.313 722.907,-141.529 732.805,-145.31 733.002,-138.313"/>
</g>
<!-- Node37&#45;&gt;Node36 -->
<g id="edge80" class="edge"><title>Node37&#45;&gt;Node36</title>
<path fill="none" stroke="midnightblue" d="M942.685,-328.679C935.274,-318.49 925.288,-304.759 917.472,-294.011"/>
<polygon fill="midnightblue" stroke="midnightblue" points="920.233,-291.857 911.52,-285.828 914.572,-295.974 920.233,-291.857"/>
</g>
</g>
</svg>
