<?xml version="1.0" encoding="UTF-8" standalone="no"?>
<!DOCTYPE svg PUBLIC "-//W3C//DTD SVG 1.1//EN"
 "http://www.w3.org/Graphics/SVG/1.1/DTD/svg11.dtd">
<!-- Generated by graphviz version 2.36.0 (20140111.2315)
 -->
<!-- Title: include/shad/shad.h Pages: 1 -->
<svg width="1023pt" height="344pt"
 viewBox="0.00 0.00 1022.77 344.00" xmlns="http://www.w3.org/2000/svg" xmlns:xlink="http://www.w3.org/1999/xlink">
<g id="graph0" class="graph" transform="scale(1 1) rotate(0) translate(4 340)">
<title>include/shad/shad.h</title>
<polygon fill="white" stroke="none" points="-4,4 -4,-340 1018.77,-340 1018.77,4 -4,4"/>
<!-- Node1 -->
<g id="node1" class="node"><title>Node1</title>
<polygon fill="#bfbfbf" stroke="black" points="484.772,-316.5 484.772,-335.5 588.772,-335.5 588.772,-316.5 484.772,-316.5"/>
<text text-anchor="middle" x="536.772" y="-323.5" font-family="Helvetica,sans-Serif" font-size="10.00">include/shad/shad.h</text>
</g>
<!-- Node2 -->
<g id="node2" class="node"><title>Node2</title>
<g id="a_node2"><a xlink:href="runtime_8h.html" target="_top" xlink:title="shad/runtime/runtime.h">
<polygon fill="white" stroke="black" points="413.772,-260.5 413.772,-279.5 529.772,-279.5 529.772,-260.5 413.772,-260.5"/>
<text text-anchor="middle" x="471.772" y="-267.5" font-family="Helvetica,sans-Serif" font-size="10.00">shad/runtime/runtime.h</text>
</a>
</g>
</g>
<!-- Node1&#45;&gt;Node2 -->
<g id="edge1" class="edge"><title>Node1&#45;&gt;Node2</title>
<path fill="none" stroke="midnightblue" d="M526.329,-316.324C516.626,-308.263 501.957,-296.077 490.273,-286.369"/>
<polygon fill="midnightblue" stroke="midnightblue" points="492.334,-283.532 482.406,-279.834 487.861,-288.916 492.334,-283.532"/>
</g>
<!-- Node23 -->
<g id="node23" class="node"><title>Node23</title>
<g id="a_node23"><a xlink:href="shadmain_8h.html" target="_top" xlink:title="shad/util/shadmain.h">
<polygon fill="white" stroke="black" points="548.272,-260.5 548.272,-279.5 655.272,-279.5 655.272,-260.5 548.272,-260.5"/>
<text text-anchor="middle" x="601.772" y="-267.5" font-family="Helvetica,sans-Serif" font-size="10.00">shad/util/shadmain.h</text>
</a>
</g>
</g>
<!-- Node1&#45;&gt;Node23 -->
<g id="edge34" class="edge"><title>Node1&#45;&gt;Node23</title>
<path fill="none" stroke="midnightblue" d="M547.216,-316.324C556.919,-308.263 571.588,-296.077 583.272,-286.369"/>
<polygon fill="midnightblue" stroke="midnightblue" points="585.684,-288.916 591.139,-279.834 581.211,-283.532 585.684,-288.916"/>
</g>
<!-- Node3 -->
<g id="node3" class="node"><title>Node3</title>
<polygon fill="white" stroke="#bfbfbf" points="36.2724,-130.5 36.2724,-149.5 85.2724,-149.5 85.2724,-130.5 36.2724,-130.5"/>
<text text-anchor="middle" x="60.7724" y="-137.5" font-family="Helvetica,sans-Serif" font-size="10.00">cstddef</text>
</g>
<!-- Node2&#45;&gt;Node3 -->
<g id="edge2" class="edge"><title>Node2&#45;&gt;Node3</title>
<path fill="none" stroke="midnightblue" d="M413.551,-269.23C319.935,-268.448 141.5,-261.857 92.7724,-224 72.8927,-208.555 65.3554,-179.127 62.5027,-159.785"/>
<polygon fill="midnightblue" stroke="midnightblue" points="65.965,-159.261 61.3065,-149.745 59.0141,-160.089 65.965,-159.261"/>
</g>
<!-- Node4 -->
<g id="node4" class="node"><title>Node4</title>
<polygon fill="white" stroke="#bfbfbf" points="90.7724,-62.5 90.7724,-81.5 136.772,-81.5 136.772,-62.5 90.7724,-62.5"/>
<text text-anchor="middle" x="113.772" y="-69.5" font-family="Helvetica,sans-Serif" font-size="10.00">cstdint</text>
</g>
<!-- Node2&#45;&gt;Node4 -->
<g id="edge3" class="edge"><title>Node2&#45;&gt;Node4</title>
<path fill="none" stroke="midnightblue" d="M413.616,-268.74C315.841,-267.294 123.712,-259.822 67.7724,-224 27.3207,-198.096 2.89273,-165.679 26.7724,-124 38.388,-103.727 61.5358,-90.7309 81.0358,-82.9344"/>
<polygon fill="midnightblue" stroke="midnightblue" points="82.371,-86.1723 90.5337,-79.418 79.9406,-79.6078 82.371,-86.1723"/>
</g>
<!-- Node5 -->
<g id="node5" class="node"><title>Node5</title>
<polygon fill="white" stroke="#bfbfbf" points="500.272,-198.5 500.272,-217.5 559.272,-217.5 559.272,-198.5 500.272,-198.5"/>
<text text-anchor="middle" x="529.772" y="-205.5" font-family="Helvetica,sans-Serif" font-size="10.00">functional</text>
</g>
<!-- Node2&#45;&gt;Node5 -->
<g id="edge4" class="edge"><title>Node2&#45;&gt;Node5</title>
<path fill="none" stroke="midnightblue" d="M480.082,-260.403C489.041,-251.136 503.496,-236.183 514.511,-224.788"/>
<polygon fill="midnightblue" stroke="midnightblue" points="517.044,-227.203 521.478,-217.581 512.011,-222.338 517.044,-227.203"/>
</g>
<!-- Node6 -->
<g id="node6" class="node"><title>Node6</title>
<polygon fill="white" stroke="#bfbfbf" points="577.772,-198.5 577.772,-217.5 631.772,-217.5 631.772,-198.5 577.772,-198.5"/>
<text text-anchor="middle" x="604.772" y="-205.5" font-family="Helvetica,sans-Serif" font-size="10.00">iostream</text>
</g>
<!-- Node2&#45;&gt;Node6 -->
<g id="edge5" class="edge"><title>Node2&#45;&gt;Node6</title>
<path fill="none" stroke="midnightblue" d="M490.828,-260.403C513.247,-250.29 550.678,-233.404 576.486,-221.761"/>
<polygon fill="midnightblue" stroke="midnightblue" points="578.076,-224.883 585.752,-217.581 575.197,-218.502 578.076,-224.883"/>
</g>
<!-- Node7 -->
<g id="node7" class="node"><title>Node7</title>
<polygon fill="white" stroke="#bfbfbf" points="650.272,-198.5 650.272,-217.5 697.272,-217.5 697.272,-198.5 650.272,-198.5"/>
<text text-anchor="middle" x="673.772" y="-205.5" font-family="Helvetica,sans-Serif" font-size="10.00">iterator</text>
</g>
<!-- Node2&#45;&gt;Node7 -->
<g id="edge6" class="edge"><title>Node2&#45;&gt;Node7</title>
<path fill="none" stroke="midnightblue" d="M511.269,-260.448C545.885,-252.49 597.316,-239.54 640.772,-224 642.684,-223.317 644.637,-222.567 646.591,-221.78"/>
<polygon fill="midnightblue" stroke="midnightblue" points="648.385,-224.818 656.185,-217.648 645.616,-218.389 648.385,-224.818"/>
</g>
<!-- Node8 -->
<g id="node8" class="node"><title>Node8</title>
<polygon fill="white" stroke="#bfbfbf" points="715.272,-198.5 715.272,-217.5 750.272,-217.5 750.272,-198.5 715.272,-198.5"/>
<text text-anchor="middle" x="732.772" y="-205.5" font-family="Helvetica,sans-Serif" font-size="10.00">map</text>
</g>
<!-- Node2&#45;&gt;Node8 -->
<g id="edge7" class="edge"><title>Node2&#45;&gt;Node8</title>
<path fill="none" stroke="midnightblue" d="M526.764,-260.488C585.225,-251.074 673.598,-235.692 705.772,-224 707.221,-223.473 708.685,-222.876 710.143,-222.23"/>
<polygon fill="midnightblue" stroke="midnightblue" points="712.108,-225.158 719.436,-217.506 708.936,-218.918 712.108,-225.158"/>
</g>
<!-- Node9 -->
<g id="node9" class="node"><title>Node9</title>
<polygon fill="white" stroke="#bfbfbf" points="141.772,-130.5 141.772,-149.5 193.772,-149.5 193.772,-130.5 141.772,-130.5"/>
<text text-anchor="middle" x="167.772" y="-137.5" font-family="Helvetica,sans-Serif" font-size="10.00">memory</text>
</g>
<!-- Node2&#45;&gt;Node9 -->
<g id="edge8" class="edge"><title>Node2&#45;&gt;Node9</title>
<path fill="none" stroke="midnightblue" d="M446.578,-260.439C421.558,-251.784 382.207,-237.757 348.772,-224 293.104,-201.095 229.425,-170.949 194.388,-154.009"/>
<polygon fill="midnightblue" stroke="midnightblue" points="195.82,-150.814 185.295,-149.599 192.765,-157.112 195.82,-150.814"/>
</g>
<!-- Node10 -->
<g id="node10" class="node"><title>Node10</title>
<polygon fill="white" stroke="#bfbfbf" points="768.772,-198.5 768.772,-217.5 798.772,-217.5 798.772,-198.5 768.772,-198.5"/>
<text text-anchor="middle" x="783.772" y="-205.5" font-family="Helvetica,sans-Serif" font-size="10.00">set</text>
</g>
<!-- Node2&#45;&gt;Node10 -->
<g id="edge9" class="edge"><title>Node2&#45;&gt;Node10</title>
<path fill="none" stroke="midnightblue" d="M529.918,-261.099C607.529,-250.367 737.704,-231.642 758.772,-224 760.004,-223.553 761.241,-223.044 762.472,-222.489"/>
<polygon fill="midnightblue" stroke="midnightblue" points="764.373,-225.44 771.528,-217.626 761.062,-219.273 764.373,-225.44"/>
</g>
<!-- Node11 -->
<g id="node11" class="node"><title>Node11</title>
<polygon fill="white" stroke="#bfbfbf" points="816.772,-198.5 816.772,-217.5 894.772,-217.5 894.772,-198.5 816.772,-198.5"/>
<text text-anchor="middle" x="855.772" y="-205.5" font-family="Helvetica,sans-Serif" font-size="10.00">unordered_set</text>
</g>
<!-- Node2&#45;&gt;Node11 -->
<g id="edge10" class="edge"><title>Node2&#45;&gt;Node11</title>
<path fill="none" stroke="midnightblue" d="M529.791,-261.267C624.791,-248.596 803.409,-224.736 806.772,-224 811.468,-222.973 816.365,-221.711 821.168,-220.36"/>
<polygon fill="midnightblue" stroke="midnightblue" points="822.208,-223.702 830.802,-217.506 820.22,-216.991 822.208,-223.702"/>
</g>
<!-- Node12 -->
<g id="node12" class="node"><title>Node12</title>
<polygon fill="white" stroke="#bfbfbf" points="912.772,-198.5 912.772,-217.5 952.772,-217.5 952.772,-198.5 912.772,-198.5"/>
<text text-anchor="middle" x="932.772" y="-205.5" font-family="Helvetica,sans-Serif" font-size="10.00">utility</text>
</g>
<!-- Node2&#45;&gt;Node12 -->
<g id="edge11" class="edge"><title>Node2&#45;&gt;Node12</title>
<path fill="none" stroke="midnightblue" d="M529.995,-261.166C533.302,-260.761 536.578,-260.369 539.772,-260 701.264,-241.332 747.899,-270.169 903.772,-224 905.688,-223.433 907.626,-222.737 909.544,-221.959"/>
<polygon fill="midnightblue" stroke="midnightblue" points="911.223,-225.037 918.769,-217.6 908.232,-218.708 911.223,-225.037"/>
</g>
<!-- Node13 -->
<g id="node13" class="node"><title>Node13</title>
<polygon fill="white" stroke="#bfbfbf" points="970.772,-198.5 970.772,-217.5 1014.77,-217.5 1014.77,-198.5 970.772,-198.5"/>
<text text-anchor="middle" x="992.772" y="-205.5" font-family="Helvetica,sans-Serif" font-size="10.00">vector</text>
</g>
<!-- Node2&#45;&gt;Node13 -->
<g id="edge12" class="edge"><title>Node2&#45;&gt;Node13</title>
<path fill="none" stroke="midnightblue" d="M529.99,-261.114C533.297,-260.722 536.576,-260.348 539.772,-260 726.905,-239.645 780.249,-273.824 961.772,-224 963.974,-223.396 966.209,-222.638 968.418,-221.786"/>
<polygon fill="midnightblue" stroke="midnightblue" points="970.04,-224.895 977.753,-217.631 967.194,-218.5 970.04,-224.895"/>
</g>
<!-- Node14 -->
<g id="node14" class="node"><title>Node14</title>
<polygon fill="white" stroke="#bfbfbf" points="306.772,-0.5 306.772,-19.5 410.772,-19.5 410.772,-0.5 306.772,-0.5"/>
<text text-anchor="middle" x="358.772" y="-7.5" font-family="Helvetica,sans-Serif" font-size="10.00">shad/config/config.h</text>
</g>
<!-- Node2&#45;&gt;Node14 -->
<g id="edge13" class="edge"><title>Node2&#45;&gt;Node14</title>
<path fill="none" stroke="midnightblue" d="M413.372,-266.882C299.372,-262.205 55.8435,-249.344 27.7724,-224 -30.4413,-171.443 11.9625,-91.7446 81.7724,-56 118.301,-37.2963 226.708,-23.7219 296.574,-16.6255"/>
<polygon fill="midnightblue" stroke="midnightblue" points="296.986,-20.1019 306.589,-15.6257 296.291,-13.1365 296.986,-20.1019"/>
</g>
<!-- Node15 -->
<g id="node15" class="node"><title>Node15</title>
<g id="a_node15"><a xlink:href="handle_8h.html" target="_top" xlink:title="shad/runtime/handle.h">
<polygon fill="white" stroke="black" points="482.272,-130.5 482.272,-149.5 595.272,-149.5 595.272,-130.5 482.272,-130.5"/>
<text text-anchor="middle" x="538.772" y="-137.5" font-family="Helvetica,sans-Serif" font-size="10.00">shad/runtime/handle.h</text>
</a>
</g>
</g>
<!-- Node2&#45;&gt;Node15 -->
<g id="edge14" class="edge"><title>Node2&#45;&gt;Node15</title>
<path fill="none" stroke="midnightblue" d="M466.721,-260.321C458.764,-245.407 445.427,-214.362 457.772,-192 467.599,-174.201 486.533,-161.767 503.625,-153.634"/>
<polygon fill="midnightblue" stroke="midnightblue" points="505.13,-156.796 512.862,-149.552 502.3,-150.393 505.13,-156.796"/>
</g>
<!-- Node17 -->
<g id="node17" class="node"><title>Node17</title>
<g id="a_node17"><a xlink:href="mapping__traits_8h.html" target="_top" xlink:title="shad/runtime/mapping\l_traits.h">
<polygon fill="white" stroke="black" points="488.272,-57 488.272,-87 601.272,-87 601.272,-57 488.272,-57"/>
<text text-anchor="start" x="496.272" y="-75" font-family="Helvetica,sans-Serif" font-size="10.00">shad/runtime/mapping</text>
<text text-anchor="middle" x="544.772" y="-64" font-family="Helvetica,sans-Serif" font-size="10.00">_traits.h</text>
</a>
</g>
</g>
<!-- Node2&#45;&gt;Node17 -->
<g id="edge26" class="edge"><title>Node2&#45;&gt;Node17</title>
<path fill="none" stroke="midnightblue" d="M471.482,-260.337C471.44,-244.601 473.657,-211.176 491.772,-192 527.678,-153.992 572.973,-198.252 603.772,-156 619.286,-134.718 596.766,-110.099 575.224,-93.2331"/>
<polygon fill="midnightblue" stroke="midnightblue" points="577.205,-90.3446 567.097,-87.1719 573.02,-95.9559 577.205,-90.3446"/>
</g>
<!-- Node20 -->
<g id="node20" class="node"><title>Node20</title>
<g id="a_node20"><a xlink:href="locality_8h.html" target="_top" xlink:title="shad/runtime/locality.h">
<polygon fill="white" stroke="black" points="212.272,-130.5 212.272,-149.5 327.272,-149.5 327.272,-130.5 212.272,-130.5"/>
<text text-anchor="middle" x="269.772" y="-137.5" font-family="Helvetica,sans-Serif" font-size="10.00">shad/runtime/locality.h</text>
</a>
</g>
</g>
<!-- Node2&#45;&gt;Node20 -->
<g id="edge21" class="edge"><title>Node2&#45;&gt;Node20</title>
<path fill="none" stroke="midnightblue" d="M458.205,-260.403C423.994,-238.724 333.95,-181.667 291.943,-155.048"/>
<polygon fill="midnightblue" stroke="midnightblue" points="293.601,-151.956 283.281,-149.56 289.854,-157.869 293.601,-151.956"/>
</g>
<!-- Node21 -->
<g id="node21" class="node"><title>Node21</title>
<g id="a_node21"><a xlink:href="available__mappings_8h.html" target="_top" xlink:title="shad/runtime/mappings\l/available_mappings.h">
<polygon fill="white" stroke="black" points="345.772,-125 345.772,-155 463.772,-155 463.772,-125 345.772,-125"/>
<text text-anchor="start" x="353.772" y="-143" font-family="Helvetica,sans-Serif" font-size="10.00">shad/runtime/mappings</text>
<text text-anchor="middle" x="404.772" y="-132" font-family="Helvetica,sans-Serif" font-size="10.00">/available_mappings.h</text>
</a>
</g>
</g>
<!-- Node2&#45;&gt;Node21 -->
<g id="edge27" class="edge"><title>Node2&#45;&gt;Node21</title>
<path fill="none" stroke="midnightblue" d="M467.167,-260.202C456.914,-240.614 431.925,-192.873 416.866,-164.104"/>
<polygon fill="midnightblue" stroke="midnightblue" points="419.914,-162.38 412.175,-155.143 413.712,-165.626 419.914,-162.38"/>
</g>
<!-- Node22 -->
<g id="node22" class="node"><title>Node22</title>
<g id="a_node22"><a xlink:href="synchronous__interface_8h.html" target="_top" xlink:title="shad/runtime/synchronous\l_interface.h">
<polygon fill="white" stroke="black" points="102.272,-193 102.272,-223 233.272,-223 233.272,-193 102.272,-193"/>
<text text-anchor="start" x="110.272" y="-211" font-family="Helvetica,sans-Serif" font-size="10.00">shad/runtime/synchronous</text>
<text text-anchor="middle" x="167.772" y="-200" font-family="Helvetica,sans-Serif" font-size="10.00">_interface.h</text>
</a>
</g>
</g>
<!-- Node2&#45;&gt;Node22 -->
<g id="edge29" class="edge"><title>Node2&#45;&gt;Node22</title>
<path fill="none" stroke="midnightblue" d="M428.54,-260.467C380.425,-250.971 301.775,-235.448 243.414,-223.929"/>
<polygon fill="midnightblue" stroke="midnightblue" points="243.987,-220.475 233.499,-221.972 242.632,-227.342 243.987,-220.475"/>
</g>
<!-- Node15&#45;&gt;Node14 -->
<g id="edge16" class="edge"><title>Node15&#45;&gt;Node14</title>
<path fill="none" stroke="midnightblue" d="M528.769,-130.33C505.703,-110.369 450.051,-62.379 440.772,-56 423.211,-43.9256 402.104,-32.4043 385.702,-24.0424"/>
<polygon fill="midnightblue" stroke="midnightblue" points="387.16,-20.8578 376.652,-19.5039 384.022,-27.1152 387.16,-20.8578"/>
</g>
<!-- Node16 -->
<g id="node16" class="node"><title>Node16</title>
<polygon fill="white" stroke="#bfbfbf" points="619.772,-62.5 619.772,-81.5 681.772,-81.5 681.772,-62.5 619.772,-62.5"/>
<text text-anchor="middle" x="650.772" y="-69.5" font-family="Helvetica,sans-Serif" font-size="10.00">type_traits</text>
</g>
<!-- Node15&#45;&gt;Node16 -->
<g id="edge15" class="edge"><title>Node15&#45;&gt;Node16</title>
<path fill="none" stroke="midnightblue" d="M553.414,-130.372C572.196,-119.304 605.001,-99.9724 627.29,-86.838"/>
<polygon fill="midnightblue" stroke="midnightblue" points="629.288,-89.7228 636.127,-81.6305 625.734,-83.692 629.288,-89.7228"/>
</g>
<!-- Node15&#45;&gt;Node17 -->
<g id="edge17" class="edge"><title>Node15&#45;&gt;Node17</title>
<path fill="none" stroke="midnightblue" d="M539.557,-130.372C540.32,-121.971 541.517,-108.811 542.571,-97.2126"/>
<polygon fill="midnightblue" stroke="midnightblue" points="546.063,-97.4573 543.483,-87.1815 539.092,-96.8235 546.063,-97.4573"/>
</g>
<!-- Node19 -->
<g id="node19" class="node"><title>Node19</title>
<g id="a_node19"><a xlink:href="available__traits__mappings_8h.html" target="_top" xlink:title="shad/runtime/mappings\l/available_traits_mappings.h">
<polygon fill="white" stroke="black" points="291.772,-57 291.772,-87 431.772,-87 431.772,-57 291.772,-57"/>
<text text-anchor="start" x="299.772" y="-75" font-family="Helvetica,sans-Serif" font-size="10.00">shad/runtime/mappings</text>
<text text-anchor="middle" x="361.772" y="-64" font-family="Helvetica,sans-Serif" font-size="10.00">/available_traits_mappings.h</text>
</a>
</g>
</g>
<!-- Node15&#45;&gt;Node19 -->
<g id="edge20" class="edge"><title>Node15&#45;&gt;Node19</title>
<path fill="none" stroke="midnightblue" d="M515.633,-130.372C488.652,-120.311 443.358,-103.422 408.882,-90.5662"/>
<polygon fill="midnightblue" stroke="midnightblue" points="410.061,-87.2707 399.469,-87.0562 407.616,-93.8295 410.061,-87.2707"/>
</g>
<!-- Node17&#45;&gt;Node14 -->
<g id="edge19" class="edge"><title>Node17&#45;&gt;Node14</title>
<path fill="none" stroke="midnightblue" d="M501.164,-56.9327C468.846,-46.5077 425.319,-32.4667 394.929,-22.6635"/>
<polygon fill="midnightblue" stroke="midnightblue" points="395.753,-19.2518 385.162,-19.5127 393.604,-25.9138 395.753,-19.2518"/>
</g>
<!-- Node18 -->
<g id="node18" class="node"><title>Node18</title>
<polygon fill="white" stroke="#bfbfbf" points="524.272,-0.5 524.272,-19.5 565.272,-19.5 565.272,-0.5 524.272,-0.5"/>
<text text-anchor="middle" x="544.772" y="-7.5" font-family="Helvetica,sans-Serif" font-size="10.00">string</text>
</g>
<!-- Node17&#45;&gt;Node18 -->
<g id="edge18" class="edge"><title>Node17&#45;&gt;Node18</title>
<path fill="none" stroke="midnightblue" d="M544.772,-56.7808C544.772,-48.7812 544.772,-38.6887 544.772,-30.0168"/>
<polygon fill="midnightblue" stroke="midnightblue" points="548.273,-29.7305 544.772,-19.7305 541.273,-29.7306 548.273,-29.7305"/>
</g>
<!-- Node20&#45;&gt;Node4 -->
<g id="edge22" class="edge"><title>Node20&#45;&gt;Node4</title>
<path fill="none" stroke="midnightblue" d="M249.378,-130.372C222.401,-118.958 174.651,-98.7562 143.614,-85.6252"/>
<polygon fill="midnightblue" stroke="midnightblue" points="144.745,-82.3035 134.172,-81.6305 142.018,-88.7503 144.745,-82.3035"/>
</g>
<!-- Node20&#45;&gt;Node14 -->
<g id="edge23" class="edge"><title>Node20&#45;&gt;Node14</title>
<path fill="none" stroke="midnightblue" d="M268.857,-130.377C267.603,-114.277 267.058,-79.1791 282.772,-56 292.584,-41.5281 308.732,-31.0206 323.627,-23.817"/>
<polygon fill="midnightblue" stroke="midnightblue" points="325.457,-26.8324 333.154,-19.5518 322.596,-20.4434 325.457,-26.8324"/>
</g>
<!-- Node20&#45;&gt;Node17 -->
<g id="edge24" class="edge"><title>Node20&#45;&gt;Node17</title>
<path fill="none" stroke="midnightblue" d="M305.442,-130.439C349.085,-119.965 423.868,-102.017 478.247,-88.9661"/>
<polygon fill="midnightblue" stroke="midnightblue" points="479.244,-92.3263 488.151,-86.5891 477.61,-85.5196 479.244,-92.3263"/>
</g>
<!-- Node20&#45;&gt;Node19 -->
<g id="edge25" class="edge"><title>Node20&#45;&gt;Node19</title>
<path fill="none" stroke="midnightblue" d="M281.8,-130.372C294.943,-120.943 316.446,-105.517 333.847,-93.0338"/>
<polygon fill="midnightblue" stroke="midnightblue" points="335.919,-95.8545 342.004,-87.1815 331.839,-90.1667 335.919,-95.8545"/>
</g>
<!-- Node21&#45;&gt;Node19 -->
<g id="edge28" class="edge"><title>Node21&#45;&gt;Node19</title>
<path fill="none" stroke="midnightblue" d="M395.442,-124.679C389.976,-116.29 382.946,-105.499 376.724,-95.9495"/>
<polygon fill="midnightblue" stroke="midnightblue" points="379.476,-93.7611 371.085,-87.2931 373.611,-97.5823 379.476,-93.7611"/>
</g>
<!-- Node22&#45;&gt;Node3 -->
<g id="edge30" class="edge"><title>Node22&#45;&gt;Node3</title>
<path fill="none" stroke="midnightblue" d="M144.818,-192.841C126.725,-181.681 101.623,-166.198 83.5708,-155.063"/>
<polygon fill="midnightblue" stroke="midnightblue" points="85.1962,-151.953 74.8476,-149.682 81.5213,-157.911 85.1962,-151.953"/>
</g>
<!-- Node22&#45;&gt;Node4 -->
<g id="edge31" class="edge"><title>Node22&#45;&gt;Node4</title>
<path fill="none" stroke="midnightblue" d="M155.777,-192.704C148.149,-182.933 138.637,-169.375 132.772,-156 123.608,-135.101 118.587,-109.225 116.045,-91.9742"/>
<polygon fill="midnightblue" stroke="midnightblue" points="119.45,-91.0272 114.661,-81.5767 112.511,-91.9512 119.45,-91.0272"/>
</g>
<!-- Node22&#45;&gt;Node9 -->
<g id="edge32" class="edge"><title>Node22&#45;&gt;Node9</title>
<path fill="none" stroke="midnightblue" d="M167.772,-192.679C167.772,-183.101 167.772,-170.394 167.772,-159.977"/>
<polygon fill="midnightblue" stroke="midnightblue" points="171.273,-159.828 167.772,-149.828 164.273,-159.828 171.273,-159.828"/>
</g>
<!-- Node22&#45;&gt;Node20 -->
<g id="edge33" class="edge"><title>Node22&#45;&gt;Node20</title>
<path fill="none" stroke="midnightblue" d="M189.654,-192.841C206.743,-181.784 230.392,-166.481 247.564,-155.37"/>
<polygon fill="midnightblue" stroke="midnightblue" points="249.861,-158.053 256.355,-149.682 246.058,-152.176 249.861,-158.053"/>
</g>
</g>
</svg>
