<?xml version="1.0" encoding="UTF-8" standalone="no"?>
<!DOCTYPE svg PUBLIC "-//W3C//DTD SVG 1.1//EN"
 "http://www.w3.org/Graphics/SVG/1.1/DTD/svg11.dtd">
<!-- Generated by graphviz version 2.36.0 (20140111.2315)
 -->
<!-- Title: src/util/shad.cc Pages: 1 -->
<svg width="1428pt" height="344pt"
 viewBox="0.00 0.00 1428.00 344.00" xmlns="http://www.w3.org/2000/svg" xmlns:xlink="http://www.w3.org/1999/xlink">
<g id="graph0" class="graph" transform="scale(1 1) rotate(0) translate(4 340)">
<title>src/util/shad.cc</title>
<polygon fill="white" stroke="none" points="-4,4 -4,-340 1424,-340 1424,4 -4,4"/>
<!-- Node1 -->
<g id="node1" class="node"><title>Node1</title>
<polygon fill="#bfbfbf" stroke="black" points="861.5,-316.5 861.5,-335.5 944.5,-335.5 944.5,-316.5 861.5,-316.5"/>
<text text-anchor="middle" x="903" y="-323.5" font-family="Helvetica,sans-Serif" font-size="10.00">src/util/shad.cc</text>
</g>
<!-- Node2 -->
<g id="node2" class="node"><title>Node2</title>
<polygon fill="white" stroke="#bfbfbf" points="0,-130.5 0,-149.5 52,-149.5 52,-130.5 0,-130.5"/>
<text text-anchor="middle" x="26" y="-137.5" font-family="Helvetica,sans-Serif" font-size="10.00">memory</text>
</g>
<!-- Node1&#45;&gt;Node2 -->
<g id="edge1" class="edge"><title>Node1&#45;&gt;Node2</title>
<path fill="none" stroke="midnightblue" d="M861.353,-323.419C694.446,-316.66 80.2009,-287.594 24,-224 8.52062,-206.484 13.4557,-177.853 19.1527,-159.217"/>
<polygon fill="midnightblue" stroke="midnightblue" points="22.531,-160.154 22.4465,-149.56 15.9057,-157.895 22.531,-160.154"/>
</g>
<!-- Node3 -->
<g id="node3" class="node"><title>Node3</title>
<polygon fill="white" stroke="#bfbfbf" points="980,-0.5 980,-19.5 1084,-19.5 1084,-0.5 980,-0.5"/>
<text text-anchor="middle" x="1032" y="-7.5" font-family="Helvetica,sans-Serif" font-size="10.00">shad/config/config.h</text>
</g>
<!-- Node1&#45;&gt;Node3 -->
<g id="edge2" class="edge"><title>Node1&#45;&gt;Node3</title>
<path fill="none" stroke="midnightblue" d="M944.608,-321.263C1043.61,-311.226 1285,-279.523 1285,-209 1285,-209 1285,-209 1285,-139 1285,-101.055 1292.44,-82.2113 1265,-56 1258.75,-50.0278 1160.49,-32.5359 1093.59,-21.2018"/>
<polygon fill="midnightblue" stroke="midnightblue" points="1094,-17.7206 1083.55,-19.5073 1092.83,-24.623 1094,-17.7206"/>
</g>
<!-- Node4 -->
<g id="node4" class="node"><title>Node4</title>
<g id="a_node4"><a xlink:href="runtime_8h.html" target="_top" xlink:title="shad/runtime/runtime.h">
<polygon fill="white" stroke="black" points="485,-260.5 485,-279.5 601,-279.5 601,-260.5 485,-260.5"/>
<text text-anchor="middle" x="543" y="-267.5" font-family="Helvetica,sans-Serif" font-size="10.00">shad/runtime/runtime.h</text>
</a>
</g>
</g>
<!-- Node1&#45;&gt;Node4 -->
<g id="edge3" class="edge"><title>Node1&#45;&gt;Node4</title>
<path fill="none" stroke="midnightblue" d="M861.352,-318.753C799.747,-309.512 683.7,-292.105 610.029,-281.054"/>
<polygon fill="midnightblue" stroke="midnightblue" points="610.334,-277.561 599.925,-279.539 609.296,-284.484 610.334,-277.561"/>
</g>
<!-- Node23 -->
<g id="node23" class="node"><title>Node23</title>
<g id="a_node23"><a xlink:href="shadmain_8h.html" target="_top" xlink:title="shad/util/shadmain.h">
<polygon fill="white" stroke="black" points="1313.5,-260.5 1313.5,-279.5 1420.5,-279.5 1420.5,-260.5 1313.5,-260.5"/>
<text text-anchor="middle" x="1367" y="-267.5" font-family="Helvetica,sans-Serif" font-size="10.00">shad/util/shadmain.h</text>
</a>
</g>
</g>
<!-- Node1&#45;&gt;Node23 -->
<g id="edge37" class="edge"><title>Node1&#45;&gt;Node23</title>
<path fill="none" stroke="midnightblue" d="M944.649,-320.523C1016.85,-312.704 1169.89,-295.878 1299,-280 1300.3,-279.841 1301.61,-279.678 1302.93,-279.514"/>
<polygon fill="midnightblue" stroke="midnightblue" points="1303.71,-282.943 1313.19,-278.215 1302.83,-275.998 1303.71,-282.943"/>
</g>
<!-- Node4&#45;&gt;Node2 -->
<g id="edge10" class="edge"><title>Node4&#45;&gt;Node2</title>
<path fill="none" stroke="midnightblue" d="M484.766,-267.526C360.408,-263.843 77.5279,-252.411 45,-224 26.9361,-208.223 24.1374,-179.105 24.5102,-159.894"/>
<polygon fill="midnightblue" stroke="midnightblue" points="28.018,-159.825 25.0242,-149.662 21.0268,-159.474 28.018,-159.825"/>
</g>
<!-- Node4&#45;&gt;Node3 -->
<g id="edge15" class="edge"><title>Node4&#45;&gt;Node3</title>
<path fill="none" stroke="midnightblue" d="M601.269,-262.329C649.64,-255.518 713.143,-243.193 730,-224 779.555,-167.578 696.256,-110.421 748,-56 777.568,-24.9028 895.498,-15.2781 969.779,-12.3105"/>
<polygon fill="midnightblue" stroke="midnightblue" points="970.093,-15.8014 979.956,-11.9344 969.834,-8.80614 970.093,-15.8014"/>
</g>
<!-- Node5 -->
<g id="node5" class="node"><title>Node5</title>
<polygon fill="white" stroke="#bfbfbf" points="565.5,-130.5 565.5,-149.5 614.5,-149.5 614.5,-130.5 565.5,-130.5"/>
<text text-anchor="middle" x="590" y="-137.5" font-family="Helvetica,sans-Serif" font-size="10.00">cstddef</text>
</g>
<!-- Node4&#45;&gt;Node5 -->
<g id="edge4" class="edge"><title>Node4&#45;&gt;Node5</title>
<path fill="none" stroke="midnightblue" d="M546.231,-260.202C553.847,-239.459 573.056,-187.144 583.309,-159.222"/>
<polygon fill="midnightblue" stroke="midnightblue" points="586.709,-160.116 586.871,-149.522 580.138,-157.703 586.709,-160.116"/>
</g>
<!-- Node6 -->
<g id="node6" class="node"><title>Node6</title>
<polygon fill="white" stroke="#bfbfbf" points="633,-62.5 633,-81.5 679,-81.5 679,-62.5 633,-62.5"/>
<text text-anchor="middle" x="656" y="-69.5" font-family="Helvetica,sans-Serif" font-size="10.00">cstdint</text>
</g>
<!-- Node4&#45;&gt;Node6 -->
<g id="edge5" class="edge"><title>Node4&#45;&gt;Node6</title>
<path fill="none" stroke="midnightblue" d="M541.095,-260.213C536.379,-236.057 526.564,-167.557 556,-124 571.399,-101.214 600.207,-88.0517 622.962,-80.8274"/>
<polygon fill="midnightblue" stroke="midnightblue" points="623.994,-84.1724 632.604,-77.9983 622.023,-77.4556 623.994,-84.1724"/>
</g>
<!-- Node7 -->
<g id="node7" class="node"><title>Node7</title>
<polygon fill="white" stroke="#bfbfbf" points="54.5,-198.5 54.5,-217.5 113.5,-217.5 113.5,-198.5 54.5,-198.5"/>
<text text-anchor="middle" x="84" y="-205.5" font-family="Helvetica,sans-Serif" font-size="10.00">functional</text>
</g>
<!-- Node4&#45;&gt;Node7 -->
<g id="edge6" class="edge"><title>Node4&#45;&gt;Node7</title>
<path fill="none" stroke="midnightblue" d="M484.951,-267.718C402.96,-264.803 249.053,-255.257 122,-224 118.763,-223.204 115.434,-222.194 112.155,-221.077"/>
<polygon fill="midnightblue" stroke="midnightblue" points="113.207,-217.733 102.615,-217.505 110.753,-224.289 113.207,-217.733"/>
</g>
<!-- Node8 -->
<g id="node8" class="node"><title>Node8</title>
<polygon fill="white" stroke="#bfbfbf" points="757,-62.5 757,-81.5 811,-81.5 811,-62.5 757,-62.5"/>
<text text-anchor="middle" x="784" y="-69.5" font-family="Helvetica,sans-Serif" font-size="10.00">iostream</text>
</g>
<!-- Node4&#45;&gt;Node8 -->
<g id="edge7" class="edge"><title>Node4&#45;&gt;Node8</title>
<path fill="none" stroke="midnightblue" d="M601.221,-264.685C659.099,-259.123 742.296,-247.26 764,-224 781.5,-205.245 783.962,-128.196 784.128,-91.9783"/>
<polygon fill="midnightblue" stroke="midnightblue" points="787.628,-91.7758 784.118,-81.7795 780.628,-91.7831 787.628,-91.7758"/>
</g>
<!-- Node9 -->
<g id="node9" class="node"><title>Node9</title>
<polygon fill="white" stroke="#bfbfbf" points="131.5,-198.5 131.5,-217.5 178.5,-217.5 178.5,-198.5 131.5,-198.5"/>
<text text-anchor="middle" x="155" y="-205.5" font-family="Helvetica,sans-Serif" font-size="10.00">iterator</text>
</g>
<!-- Node4&#45;&gt;Node9 -->
<g id="edge8" class="edge"><title>Node4&#45;&gt;Node9</title>
<path fill="none" stroke="midnightblue" d="M484.848,-267.202C413.424,-263.737 289.17,-253.605 187,-224 184.713,-223.337 182.383,-222.531 180.077,-221.639"/>
<polygon fill="midnightblue" stroke="midnightblue" points="181.463,-218.425 170.897,-217.646 178.671,-224.844 181.463,-218.425"/>
</g>
<!-- Node10 -->
<g id="node10" class="node"><title>Node10</title>
<polygon fill="white" stroke="#bfbfbf" points="196.5,-198.5 196.5,-217.5 231.5,-217.5 231.5,-198.5 196.5,-198.5"/>
<text text-anchor="middle" x="214" y="-205.5" font-family="Helvetica,sans-Serif" font-size="10.00">map</text>
</g>
<!-- Node4&#45;&gt;Node10 -->
<g id="edge9" class="edge"><title>Node4&#45;&gt;Node10</title>
<path fill="none" stroke="midnightblue" d="M484.781,-266.503C422.876,-262.439 322.813,-251.795 241,-224 239.54,-223.504 238.068,-222.93 236.604,-222.303"/>
<polygon fill="midnightblue" stroke="midnightblue" points="237.801,-218.987 227.294,-217.627 234.66,-225.243 237.801,-218.987"/>
</g>
<!-- Node11 -->
<g id="node11" class="node"><title>Node11</title>
<polygon fill="white" stroke="#bfbfbf" points="250,-198.5 250,-217.5 280,-217.5 280,-198.5 250,-198.5"/>
<text text-anchor="middle" x="265" y="-205.5" font-family="Helvetica,sans-Serif" font-size="10.00">set</text>
</g>
<!-- Node4&#45;&gt;Node11 -->
<g id="edge11" class="edge"><title>Node4&#45;&gt;Node11</title>
<path fill="none" stroke="midnightblue" d="M484.822,-265.046C432.216,-260.003 353.375,-248.745 289,-224 287.945,-223.595 286.886,-223.141 285.832,-222.651"/>
<polygon fill="midnightblue" stroke="midnightblue" points="287.173,-219.392 276.734,-217.584 283.767,-225.507 287.173,-219.392"/>
</g>
<!-- Node12 -->
<g id="node12" class="node"><title>Node12</title>
<polygon fill="white" stroke="#bfbfbf" points="298,-198.5 298,-217.5 376,-217.5 376,-198.5 298,-198.5"/>
<text text-anchor="middle" x="337" y="-205.5" font-family="Helvetica,sans-Serif" font-size="10.00">unordered_set</text>
</g>
<!-- Node4&#45;&gt;Node12 -->
<g id="edge12" class="edge"><title>Node4&#45;&gt;Node12</title>
<path fill="none" stroke="midnightblue" d="M512.052,-260.436C480.149,-251.55 429,-237.138 385,-224 381.248,-222.88 377.338,-221.692 373.44,-220.494"/>
<polygon fill="midnightblue" stroke="midnightblue" points="374.461,-217.146 363.873,-217.53 372.389,-223.833 374.461,-217.146"/>
</g>
<!-- Node13 -->
<g id="node13" class="node"><title>Node13</title>
<polygon fill="white" stroke="#bfbfbf" points="394,-198.5 394,-217.5 434,-217.5 434,-198.5 394,-198.5"/>
<text text-anchor="middle" x="414" y="-205.5" font-family="Helvetica,sans-Serif" font-size="10.00">utility</text>
</g>
<!-- Node4&#45;&gt;Node13 -->
<g id="edge13" class="edge"><title>Node4&#45;&gt;Node13</title>
<path fill="none" stroke="midnightblue" d="M522.93,-260.352C502.633,-251.517 470.427,-237.252 443,-224 441.823,-223.431 440.623,-222.843 439.413,-222.244"/>
<polygon fill="midnightblue" stroke="midnightblue" points="440.682,-218.964 430.18,-217.566 437.518,-225.208 440.682,-218.964"/>
</g>
<!-- Node14 -->
<g id="node14" class="node"><title>Node14</title>
<polygon fill="white" stroke="#bfbfbf" points="452,-198.5 452,-217.5 496,-217.5 496,-198.5 452,-198.5"/>
<text text-anchor="middle" x="474" y="-205.5" font-family="Helvetica,sans-Serif" font-size="10.00">vector</text>
</g>
<!-- Node4&#45;&gt;Node14 -->
<g id="edge14" class="edge"><title>Node4&#45;&gt;Node14</title>
<path fill="none" stroke="midnightblue" d="M533.114,-260.403C522.354,-251.047 504.929,-235.895 491.779,-224.46"/>
<polygon fill="midnightblue" stroke="midnightblue" points="493.71,-221.501 483.868,-217.581 489.117,-226.784 493.71,-221.501"/>
</g>
<!-- Node15 -->
<g id="node15" class="node"><title>Node15</title>
<g id="a_node15"><a xlink:href="handle_8h.html" target="_top" xlink:title="shad/runtime/handle.h">
<polygon fill="white" stroke="black" points="1064.5,-130.5 1064.5,-149.5 1177.5,-149.5 1177.5,-130.5 1064.5,-130.5"/>
<text text-anchor="middle" x="1121" y="-137.5" font-family="Helvetica,sans-Serif" font-size="10.00">shad/runtime/handle.h</text>
</a>
</g>
</g>
<!-- Node4&#45;&gt;Node15 -->
<g id="edge16" class="edge"><title>Node4&#45;&gt;Node15</title>
<path fill="none" stroke="midnightblue" d="M601.18,-264.768C668.863,-259.033 783.641,-246.787 880,-224 958.071,-205.538 1046.43,-171.6 1091.35,-153.364"/>
<polygon fill="midnightblue" stroke="midnightblue" points="1092.84,-156.535 1100.77,-149.509 1090.19,-150.056 1092.84,-156.535"/>
</g>
<!-- Node17 -->
<g id="node17" class="node"><title>Node17</title>
<g id="a_node17"><a xlink:href="mapping__traits_8h.html" target="_top" xlink:title="shad/runtime/mapping\l_traits.h">
<polygon fill="white" stroke="black" points="1063.5,-57 1063.5,-87 1176.5,-87 1176.5,-57 1063.5,-57"/>
<text text-anchor="start" x="1071.5" y="-75" font-family="Helvetica,sans-Serif" font-size="10.00">shad/runtime/mapping</text>
<text text-anchor="middle" x="1120" y="-64" font-family="Helvetica,sans-Serif" font-size="10.00">_traits.h</text>
</a>
</g>
</g>
<!-- Node4&#45;&gt;Node17 -->
<g id="edge29" class="edge"><title>Node4&#45;&gt;Node17</title>
<path fill="none" stroke="midnightblue" d="M601.061,-268.376C745.801,-265.416 1116.04,-248.749 1186,-156 1194.56,-144.646 1192.27,-136.766 1186,-124 1179.74,-111.26 1168.6,-100.799 1157.24,-92.7401"/>
<polygon fill="midnightblue" stroke="midnightblue" points="1158.85,-89.6158 1148.58,-87.0475 1155.01,-95.4652 1158.85,-89.6158"/>
</g>
<!-- Node20 -->
<g id="node20" class="node"><title>Node20</title>
<g id="a_node20"><a xlink:href="locality_8h.html" target="_top" xlink:title="shad/runtime/locality.h">
<polygon fill="white" stroke="black" points="794.5,-130.5 794.5,-149.5 909.5,-149.5 909.5,-130.5 794.5,-130.5"/>
<text text-anchor="middle" x="852" y="-137.5" font-family="Helvetica,sans-Serif" font-size="10.00">shad/runtime/locality.h</text>
</a>
</g>
</g>
<!-- Node4&#45;&gt;Node20 -->
<g id="edge23" class="edge"><title>Node4&#45;&gt;Node20</title>
<path fill="none" stroke="midnightblue" d="M601.088,-264.516C667.193,-258.456 770.131,-245.818 802,-224 824.839,-208.365 838.974,-178.543 846.159,-159.228"/>
<polygon fill="midnightblue" stroke="midnightblue" points="849.481,-160.33 849.447,-149.735 842.867,-158.039 849.481,-160.33"/>
</g>
<!-- Node21 -->
<g id="node21" class="node"><title>Node21</title>
<g id="a_node21"><a xlink:href="available__mappings_8h.html" target="_top" xlink:title="shad/runtime/mappings\l/available_mappings.h">
<polygon fill="white" stroke="black" points="928,-125 928,-155 1046,-155 1046,-125 928,-125"/>
<text text-anchor="start" x="936" y="-143" font-family="Helvetica,sans-Serif" font-size="10.00">shad/runtime/mappings</text>
<text text-anchor="middle" x="987" y="-132" font-family="Helvetica,sans-Serif" font-size="10.00">/available_mappings.h</text>
</a>
</g>
</g>
<!-- Node4&#45;&gt;Node21 -->
<g id="edge30" class="edge"><title>Node4&#45;&gt;Node21</title>
<path fill="none" stroke="midnightblue" d="M601.227,-265.523C660.168,-260.704 753.304,-249.495 830,-224 876.867,-208.421 926.553,-179.841 957.181,-160.63"/>
<polygon fill="midnightblue" stroke="midnightblue" points="959.108,-163.552 965.672,-155.236 955.355,-157.643 959.108,-163.552"/>
</g>
<!-- Node22 -->
<g id="node22" class="node"><title>Node22</title>
<g id="a_node22"><a xlink:href="synchronous__interface_8h.html" target="_top" xlink:title="shad/runtime/synchronous\l_interface.h">
<polygon fill="white" stroke="black" points="590.5,-193 590.5,-223 721.5,-223 721.5,-193 590.5,-193"/>
<text text-anchor="start" x="598.5" y="-211" font-family="Helvetica,sans-Serif" font-size="10.00">shad/runtime/synchronous</text>
<text text-anchor="middle" x="656" y="-200" font-family="Helvetica,sans-Serif" font-size="10.00">_interface.h</text>
</a>
</g>
</g>
<!-- Node4&#45;&gt;Node22 -->
<g id="edge32" class="edge"><title>Node4&#45;&gt;Node22</title>
<path fill="none" stroke="midnightblue" d="M559.19,-260.403C575.067,-251.974 599.803,-238.839 620.298,-227.957"/>
<polygon fill="midnightblue" stroke="midnightblue" points="622.177,-230.922 629.368,-223.141 618.895,-224.739 622.177,-230.922"/>
</g>
<!-- Node15&#45;&gt;Node3 -->
<g id="edge18" class="edge"><title>Node15&#45;&gt;Node3</title>
<path fill="none" stroke="midnightblue" d="M1104.2,-130.354C1088.93,-121.65 1066.86,-106.831 1054,-88 1042.02,-70.4633 1036.51,-46.4402 1034,-29.9147"/>
<polygon fill="midnightblue" stroke="midnightblue" points="1037.46,-29.3169 1032.71,-19.8438 1030.51,-30.208 1037.46,-29.3169"/>
</g>
<!-- Node16 -->
<g id="node16" class="node"><title>Node16</title>
<polygon fill="white" stroke="#bfbfbf" points="1195,-62.5 1195,-81.5 1257,-81.5 1257,-62.5 1195,-62.5"/>
<text text-anchor="middle" x="1226" y="-69.5" font-family="Helvetica,sans-Serif" font-size="10.00">type_traits</text>
</g>
<!-- Node15&#45;&gt;Node16 -->
<g id="edge17" class="edge"><title>Node15&#45;&gt;Node16</title>
<path fill="none" stroke="midnightblue" d="M1134.73,-130.372C1152.26,-119.353 1182.81,-100.145 1203.7,-87.0142"/>
<polygon fill="midnightblue" stroke="midnightblue" points="1205.67,-89.9155 1212.27,-81.6305 1201.94,-83.989 1205.67,-89.9155"/>
</g>
<!-- Node15&#45;&gt;Node17 -->
<g id="edge19" class="edge"><title>Node15&#45;&gt;Node17</title>
<path fill="none" stroke="midnightblue" d="M1120.87,-130.372C1120.74,-121.971 1120.54,-108.811 1120.37,-97.2126"/>
<polygon fill="midnightblue" stroke="midnightblue" points="1123.87,-97.1272 1120.21,-87.1815 1116.87,-97.2334 1123.87,-97.1272"/>
</g>
<!-- Node19 -->
<g id="node19" class="node"><title>Node19</title>
<g id="a_node19"><a xlink:href="available__traits__mappings_8h.html" target="_top" xlink:title="shad/runtime/mappings\l/available_traits_mappings.h">
<polygon fill="white" stroke="black" points="867,-57 867,-87 1007,-87 1007,-57 867,-57"/>
<text text-anchor="start" x="875" y="-75" font-family="Helvetica,sans-Serif" font-size="10.00">shad/runtime/mappings</text>
<text text-anchor="middle" x="937" y="-64" font-family="Helvetica,sans-Serif" font-size="10.00">/available_traits_mappings.h</text>
</a>
</g>
</g>
<!-- Node15&#45;&gt;Node19 -->
<g id="edge22" class="edge"><title>Node15&#45;&gt;Node19</title>
<path fill="none" stroke="midnightblue" d="M1096.95,-130.372C1068.9,-120.311 1021.81,-103.422 985.972,-90.5662"/>
<polygon fill="midnightblue" stroke="midnightblue" points="986.782,-87.1381 976.187,-87.0562 984.418,-93.7271 986.782,-87.1381"/>
</g>
<!-- Node17&#45;&gt;Node3 -->
<g id="edge21" class="edge"><title>Node17&#45;&gt;Node3</title>
<path fill="none" stroke="midnightblue" d="M1099.15,-56.7808C1085.22,-47.2862 1066.97,-34.8434 1053.01,-25.3267"/>
<polygon fill="midnightblue" stroke="midnightblue" points="1054.78,-22.2973 1044.55,-19.5557 1050.84,-28.0809 1054.78,-22.2973"/>
</g>
<!-- Node18 -->
<g id="node18" class="node"><title>Node18</title>
<polygon fill="white" stroke="#bfbfbf" points="1102.5,-0.5 1102.5,-19.5 1143.5,-19.5 1143.5,-0.5 1102.5,-0.5"/>
<text text-anchor="middle" x="1123" y="-7.5" font-family="Helvetica,sans-Serif" font-size="10.00">string</text>
</g>
<!-- Node17&#45;&gt;Node18 -->
<g id="edge20" class="edge"><title>Node17&#45;&gt;Node18</title>
<path fill="none" stroke="midnightblue" d="M1120.71,-56.7808C1121.12,-48.6913 1121.63,-38.4617 1122.06,-29.725"/>
<polygon fill="midnightblue" stroke="midnightblue" points="1125.56,-29.8929 1122.56,-19.7305 1118.57,-29.5432 1125.56,-29.8929"/>
</g>
<!-- Node20&#45;&gt;Node3 -->
<g id="edge26" class="edge"><title>Node20&#45;&gt;Node3</title>
<path fill="none" stroke="midnightblue" d="M849.667,-130.285C845.802,-113.716 840.145,-77.4169 858,-56 872.412,-38.7129 925.837,-26.619 969.728,-19.355"/>
<polygon fill="midnightblue" stroke="midnightblue" points="970.467,-22.7814 979.788,-17.7453 969.361,-15.8693 970.467,-22.7814"/>
</g>
<!-- Node20&#45;&gt;Node6 -->
<g id="edge24" class="edge"><title>Node20&#45;&gt;Node6</title>
<path fill="none" stroke="midnightblue" d="M826.376,-130.372C791.133,-118.504 727.671,-97.1342 688.94,-84.092"/>
<polygon fill="midnightblue" stroke="midnightblue" points="689.781,-80.6822 679.187,-80.8078 687.547,-87.3162 689.781,-80.6822"/>
</g>
<!-- Node20&#45;&gt;Node8 -->
<g id="edge25" class="edge"><title>Node20&#45;&gt;Node8</title>
<path fill="none" stroke="midnightblue" d="M843.11,-130.372C832.276,-119.856 813.757,-101.882 800.33,-88.8496"/>
<polygon fill="midnightblue" stroke="midnightblue" points="802.723,-86.2944 793.109,-81.8411 797.847,-91.3174 802.723,-86.2944"/>
</g>
<!-- Node20&#45;&gt;Node17 -->
<g id="edge27" class="edge"><title>Node20&#45;&gt;Node17</title>
<path fill="none" stroke="midnightblue" d="M886.762,-130.439C928.807,-120.085 1000.51,-102.427 1053.34,-89.4167"/>
<polygon fill="midnightblue" stroke="midnightblue" points="1054.43,-92.752 1063.3,-86.9622 1052.76,-85.9551 1054.43,-92.752"/>
</g>
<!-- Node20&#45;&gt;Node19 -->
<g id="edge28" class="edge"><title>Node20&#45;&gt;Node19</title>
<path fill="none" stroke="midnightblue" d="M863.112,-130.372C875.145,-121.029 894.762,-105.797 910.76,-93.375"/>
<polygon fill="midnightblue" stroke="midnightblue" points="912.984,-96.079 918.736,-87.1815 908.691,-90.55 912.984,-96.079"/>
</g>
<!-- Node21&#45;&gt;Node19 -->
<g id="edge31" class="edge"><title>Node21&#45;&gt;Node19</title>
<path fill="none" stroke="midnightblue" d="M976.151,-124.679C969.664,-116.117 961.283,-105.053 953.94,-95.3604"/>
<polygon fill="midnightblue" stroke="midnightblue" points="956.657,-93.1505 947.828,-87.2931 951.077,-97.3775 956.657,-93.1505"/>
</g>
<!-- Node22&#45;&gt;Node2 -->
<g id="edge35" class="edge"><title>Node22&#45;&gt;Node2</title>
<path fill="none" stroke="midnightblue" d="M590.362,-200.124C458.412,-186.3 164.875,-155.549 62.2586,-144.799"/>
<polygon fill="midnightblue" stroke="midnightblue" points="62.4072,-141.295 52.0969,-143.734 61.6778,-148.257 62.4072,-141.295"/>
</g>
<!-- Node22&#45;&gt;Node5 -->
<g id="edge33" class="edge"><title>Node22&#45;&gt;Node5</title>
<path fill="none" stroke="midnightblue" d="M641.679,-192.679C631.184,-182.184 616.932,-167.932 606.052,-157.052"/>
<polygon fill="midnightblue" stroke="midnightblue" points="608.374,-154.425 598.828,-149.828 603.425,-159.374 608.374,-154.425"/>
</g>
<!-- Node22&#45;&gt;Node6 -->
<g id="edge34" class="edge"><title>Node22&#45;&gt;Node6</title>
<path fill="none" stroke="midnightblue" d="M656,-192.66C656,-168.32 656,-118.933 656,-91.8373"/>
<polygon fill="midnightblue" stroke="midnightblue" points="659.5,-91.7275 656,-81.7275 652.5,-91.7276 659.5,-91.7275"/>
</g>
<!-- Node22&#45;&gt;Node20 -->
<g id="edge36" class="edge"><title>Node22&#45;&gt;Node20</title>
<path fill="none" stroke="midnightblue" d="M698.047,-192.841C733.419,-180.93 783.417,-164.094 816.731,-152.876"/>
<polygon fill="midnightblue" stroke="midnightblue" points="818.14,-156.095 826.5,-149.587 815.906,-149.461 818.14,-156.095"/>
</g>
</g>
</svg>
