<?xml version="1.0" encoding="UTF-8" standalone="no"?>
<!DOCTYPE svg PUBLIC "-//W3C//DTD SVG 1.1//EN"
 "http://www.w3.org/Graphics/SVG/1.1/DTD/svg11.dtd">
<!-- Generated by graphviz version 2.36.0 (20140111.2315)
 -->
<!-- Title: src/util/shad.cc Pages: 1 -->
<svg width="1315pt" height="344pt"
 viewBox="0.00 0.00 1315.00 344.00" xmlns="http://www.w3.org/2000/svg" xmlns:xlink="http://www.w3.org/1999/xlink">
<g id="graph0" class="graph" transform="scale(1 1) rotate(0) translate(4 340)">
<title>src/util/shad.cc</title>
<polygon fill="white" stroke="none" points="-4,4 -4,-340 1311,-340 1311,4 -4,4"/>
<!-- Node1 -->
<g id="node1" class="node"><title>Node1</title>
<polygon fill="#bfbfbf" stroke="black" points="245.5,-316.5 245.5,-335.5 328.5,-335.5 328.5,-316.5 245.5,-316.5"/>
<text text-anchor="middle" x="287" y="-323.5" font-family="Helvetica,sans-Serif" font-size="10.00">src/util/shad.cc</text>
</g>
<!-- Node2 -->
<g id="node2" class="node"><title>Node2</title>
<polygon fill="white" stroke="#bfbfbf" points="591,-130.5 591,-149.5 643,-149.5 643,-130.5 591,-130.5"/>
<text text-anchor="middle" x="617" y="-137.5" font-family="Helvetica,sans-Serif" font-size="10.00">memory</text>
</g>
<!-- Node1&#45;&gt;Node2 -->
<g id="edge1" class="edge"><title>Node1&#45;&gt;Node2</title>
<path fill="none" stroke="midnightblue" d="M252.554,-316.491C183.96,-298.033 41.3309,-251.168 95,-192 127.595,-156.065 467.711,-144.616 580.722,-141.789"/>
<polygon fill="midnightblue" stroke="midnightblue" points="581.019,-145.282 590.931,-141.541 580.849,-138.284 581.019,-145.282"/>
</g>
<!-- Node3 -->
<g id="node3" class="node"><title>Node3</title>
<polygon fill="white" stroke="#bfbfbf" points="838,-0.5 838,-19.5 942,-19.5 942,-0.5 838,-0.5"/>
<text text-anchor="middle" x="890" y="-7.5" font-family="Helvetica,sans-Serif" font-size="10.00">shad/config/config.h</text>
</g>
<!-- Node1&#45;&gt;Node3 -->
<g id="edge2" class="edge"><title>Node1&#45;&gt;Node3</title>
<path fill="none" stroke="midnightblue" d="M245.268,-317.182C165.669,-301.072 0,-261.264 0,-209 0,-209 0,-209 0,-139 0,-55.2336 625.667,-21.9513 827.822,-13.3839"/>
<polygon fill="midnightblue" stroke="midnightblue" points="828.131,-16.8741 837.976,-12.9593 827.839,-9.88025 828.131,-16.8741"/>
</g>
<!-- Node4 -->
<g id="node4" class="node"><title>Node4</title>
<g id="a_node4"><a xlink:href="runtime_8h.html" target="_top" xlink:title="shad/runtime/runtime.h">
<polygon fill="white" stroke="black" points="479,-260.5 479,-279.5 595,-279.5 595,-260.5 479,-260.5"/>
<text text-anchor="middle" x="537" y="-267.5" font-family="Helvetica,sans-Serif" font-size="10.00">shad/runtime/runtime.h</text>
</a>
</g>
</g>
<!-- Node1&#45;&gt;Node4 -->
<g id="edge3" class="edge"><title>Node1&#45;&gt;Node4</title>
<path fill="none" stroke="midnightblue" d="M326.613,-316.444C370.225,-307.023 440.4,-291.866 487.578,-281.675"/>
<polygon fill="midnightblue" stroke="midnightblue" points="488.536,-285.049 497.572,-279.516 487.059,-278.207 488.536,-285.049"/>
</g>
<!-- Node23 -->
<g id="node23" class="node"><title>Node23</title>
<g id="a_node23"><a xlink:href="shadmain_8h.html" target="_top" xlink:title="shad/util/shadmain.h">
<polygon fill="white" stroke="black" points="613.5,-260.5 613.5,-279.5 720.5,-279.5 720.5,-260.5 613.5,-260.5"/>
<text text-anchor="middle" x="667" y="-267.5" font-family="Helvetica,sans-Serif" font-size="10.00">shad/util/shadmain.h</text>
</a>
</g>
</g>
<!-- Node1&#45;&gt;Node23 -->
<g id="edge36" class="edge"><title>Node1&#45;&gt;Node23</title>
<path fill="none" stroke="midnightblue" d="M328.754,-319.067C395.087,-309.64 525.008,-291.178 603.104,-280.08"/>
<polygon fill="midnightblue" stroke="midnightblue" points="603.892,-283.503 613.3,-278.631 602.907,-276.573 603.892,-283.503"/>
</g>
<!-- Node4&#45;&gt;Node2 -->
<g id="edge10" class="edge"><title>Node4&#45;&gt;Node2</title>
<path fill="none" stroke="midnightblue" d="M574.102,-260.458C593.445,-253.918 615.428,-242.724 627,-224 639.247,-204.184 632.207,-176.591 625.25,-158.761"/>
<polygon fill="midnightblue" stroke="midnightblue" points="628.452,-157.349 621.309,-149.524 622.014,-160.095 628.452,-157.349"/>
</g>
<!-- Node4&#45;&gt;Node3 -->
<g id="edge15" class="edge"><title>Node4&#45;&gt;Node3</title>
<path fill="none" stroke="midnightblue" d="M595.144,-261.191C690.785,-248.343 870.837,-224.14 871,-224 927.634,-175.387 907.036,-71.7709 895.581,-29.5178"/>
<polygon fill="midnightblue" stroke="midnightblue" points="898.901,-28.3984 892.79,-19.7434 892.17,-30.3201 898.901,-28.3984"/>
</g>
<!-- Node5 -->
<g id="node5" class="node"><title>Node5</title>
<polygon fill="white" stroke="#bfbfbf" points="661.5,-130.5 661.5,-149.5 710.5,-149.5 710.5,-130.5 661.5,-130.5"/>
<text text-anchor="middle" x="686" y="-137.5" font-family="Helvetica,sans-Serif" font-size="10.00">cstddef</text>
</g>
<!-- Node4&#45;&gt;Node5 -->
<g id="edge4" class="edge"><title>Node4&#45;&gt;Node5</title>
<path fill="none" stroke="midnightblue" d="M574.705,-260.465C597.341,-253.734 625.444,-242.343 645,-224 663.913,-206.261 675.271,-177.915 681.086,-159.378"/>
<polygon fill="midnightblue" stroke="midnightblue" points="684.454,-160.33 683.884,-149.75 677.732,-158.376 684.454,-160.33"/>
</g>
<!-- Node6 -->
<g id="node6" class="node"><title>Node6</title>
<polygon fill="white" stroke="#bfbfbf" points="716,-62.5 716,-81.5 762,-81.5 762,-62.5 716,-62.5"/>
<text text-anchor="middle" x="739" y="-69.5" font-family="Helvetica,sans-Serif" font-size="10.00">cstdint</text>
</g>
<!-- Node4&#45;&gt;Node6 -->
<g id="edge5" class="edge"><title>Node4&#45;&gt;Node6</title>
<path fill="none" stroke="midnightblue" d="M478.844,-267.335C364.717,-263.466 120.271,-251.974 95,-224 85.4663,-213.446 85.9028,-202.932 95,-192 174.244,-96.7716 585.245,-77.4388 705.756,-73.7946"/>
<polygon fill="midnightblue" stroke="midnightblue" points="705.96,-77.2902 715.856,-73.5058 705.76,-70.2931 705.96,-77.2902"/>
</g>
<!-- Node7 -->
<g id="node7" class="node"><title>Node7</title>
<polygon fill="white" stroke="#bfbfbf" points="104.5,-198.5 104.5,-217.5 163.5,-217.5 163.5,-198.5 104.5,-198.5"/>
<text text-anchor="middle" x="134" y="-205.5" font-family="Helvetica,sans-Serif" font-size="10.00">functional</text>
</g>
<!-- Node4&#45;&gt;Node7 -->
<g id="edge6" class="edge"><title>Node4&#45;&gt;Node7</title>
<path fill="none" stroke="midnightblue" d="M478.833,-266.189C406.299,-261.688 278.94,-250.497 173,-224 169.763,-223.19 166.43,-222.187 163.14,-221.087"/>
<polygon fill="midnightblue" stroke="midnightblue" points="164.132,-217.723 153.538,-217.587 161.735,-224.3 164.132,-217.723"/>
</g>
<!-- Node8 -->
<g id="node8" class="node"><title>Node8</title>
<polygon fill="white" stroke="#bfbfbf" points="182,-198.5 182,-217.5 236,-217.5 236,-198.5 182,-198.5"/>
<text text-anchor="middle" x="209" y="-205.5" font-family="Helvetica,sans-Serif" font-size="10.00">iostream</text>
</g>
<!-- Node4&#45;&gt;Node8 -->
<g id="edge7" class="edge"><title>Node4&#45;&gt;Node8</title>
<path fill="none" stroke="midnightblue" d="M478.778,-264.208C419.205,-258.337 324.381,-246.299 245,-224 242.189,-223.21 239.303,-222.261 236.448,-221.228"/>
<polygon fill="midnightblue" stroke="midnightblue" points="237.597,-217.919 227.01,-217.507 235.029,-224.431 237.597,-217.919"/>
</g>
<!-- Node9 -->
<g id="node9" class="node"><title>Node9</title>
<polygon fill="white" stroke="#bfbfbf" points="254.5,-198.5 254.5,-217.5 301.5,-217.5 301.5,-198.5 254.5,-198.5"/>
<text text-anchor="middle" x="278" y="-205.5" font-family="Helvetica,sans-Serif" font-size="10.00">iterator</text>
</g>
<!-- Node4&#45;&gt;Node9 -->
<g id="edge8" class="edge"><title>Node4&#45;&gt;Node9</title>
<path fill="none" stroke="midnightblue" d="M478.631,-261.415C432.183,-254.433 365.926,-242.348 310,-224 307.868,-223.301 305.693,-222.495 303.53,-221.628"/>
<polygon fill="midnightblue" stroke="midnightblue" points="304.86,-218.39 294.297,-217.57 302.044,-224.798 304.86,-218.39"/>
</g>
<!-- Node10 -->
<g id="node10" class="node"><title>Node10</title>
<polygon fill="white" stroke="#bfbfbf" points="319.5,-198.5 319.5,-217.5 354.5,-217.5 354.5,-198.5 319.5,-198.5"/>
<text text-anchor="middle" x="337" y="-205.5" font-family="Helvetica,sans-Serif" font-size="10.00">map</text>
</g>
<!-- Node4&#45;&gt;Node10 -->
<g id="edge9" class="edge"><title>Node4&#45;&gt;Node10</title>
<path fill="none" stroke="midnightblue" d="M491.56,-260.466C456.074,-253.024 405.92,-240.782 364,-224 362.631,-223.452 361.245,-222.849 359.86,-222.208"/>
<polygon fill="midnightblue" stroke="midnightblue" points="361.456,-219.093 350.962,-217.635 358.257,-225.319 361.456,-219.093"/>
</g>
<!-- Node11 -->
<g id="node11" class="node"><title>Node11</title>
<polygon fill="white" stroke="#bfbfbf" points="373,-198.5 373,-217.5 403,-217.5 403,-198.5 373,-198.5"/>
<text text-anchor="middle" x="388" y="-205.5" font-family="Helvetica,sans-Serif" font-size="10.00">set</text>
</g>
<!-- Node4&#45;&gt;Node11 -->
<g id="edge11" class="edge"><title>Node4&#45;&gt;Node11</title>
<path fill="none" stroke="midnightblue" d="M507.994,-260.494C482.193,-252.478 443.744,-239.416 412,-224 411.304,-223.662 410.603,-223.309 409.899,-222.943"/>
<polygon fill="midnightblue" stroke="midnightblue" points="411.329,-219.728 400.916,-217.773 407.837,-225.795 411.329,-219.728"/>
</g>
<!-- Node12 -->
<g id="node12" class="node"><title>Node12</title>
<polygon fill="white" stroke="#bfbfbf" points="421,-198.5 421,-217.5 499,-217.5 499,-198.5 421,-198.5"/>
<text text-anchor="middle" x="460" y="-205.5" font-family="Helvetica,sans-Serif" font-size="10.00">unordered_set</text>
</g>
<!-- Node4&#45;&gt;Node12 -->
<g id="edge12" class="edge"><title>Node4&#45;&gt;Node12</title>
<path fill="none" stroke="midnightblue" d="M525.968,-260.403C513.732,-250.869 493.771,-235.315 479.007,-223.811"/>
<polygon fill="midnightblue" stroke="midnightblue" points="481.051,-220.966 471.012,-217.581 476.748,-226.488 481.051,-220.966"/>
</g>
<!-- Node13 -->
<g id="node13" class="node"><title>Node13</title>
<polygon fill="white" stroke="#bfbfbf" points="517,-198.5 517,-217.5 557,-217.5 557,-198.5 517,-198.5"/>
<text text-anchor="middle" x="537" y="-205.5" font-family="Helvetica,sans-Serif" font-size="10.00">utility</text>
</g>
<!-- Node4&#45;&gt;Node13 -->
<g id="edge13" class="edge"><title>Node4&#45;&gt;Node13</title>
<path fill="none" stroke="midnightblue" d="M537,-260.403C537,-251.938 537,-238.728 537,-227.82"/>
<polygon fill="midnightblue" stroke="midnightblue" points="540.5,-227.581 537,-217.581 533.5,-227.581 540.5,-227.581"/>
</g>
<!-- Node14 -->
<g id="node14" class="node"><title>Node14</title>
<polygon fill="white" stroke="#bfbfbf" points="575,-198.5 575,-217.5 619,-217.5 619,-198.5 575,-198.5"/>
<text text-anchor="middle" x="597" y="-205.5" font-family="Helvetica,sans-Serif" font-size="10.00">vector</text>
</g>
<!-- Node4&#45;&gt;Node14 -->
<g id="edge14" class="edge"><title>Node4&#45;&gt;Node14</title>
<path fill="none" stroke="midnightblue" d="M545.597,-260.403C554.864,-251.136 569.817,-236.183 581.212,-224.788"/>
<polygon fill="midnightblue" stroke="midnightblue" points="583.823,-227.127 588.419,-217.581 578.873,-222.177 583.823,-227.127"/>
</g>
<!-- Node15 -->
<g id="node15" class="node"><title>Node15</title>
<g id="a_node15"><a xlink:href="handle_8h.html" target="_top" xlink:title="shad/runtime/handle.h">
<polygon fill="white" stroke="black" points="1075.5,-130.5 1075.5,-149.5 1188.5,-149.5 1188.5,-130.5 1075.5,-130.5"/>
<text text-anchor="middle" x="1132" y="-137.5" font-family="Helvetica,sans-Serif" font-size="10.00">shad/runtime/handle.h</text>
</a>
</g>
</g>
<!-- Node4&#45;&gt;Node15 -->
<g id="edge16" class="edge"><title>Node4&#45;&gt;Node15</title>
<path fill="none" stroke="midnightblue" d="M595.09,-261.08C598.102,-260.706 601.086,-260.344 604,-260 761.056,-241.47 805.721,-266.672 958,-224 1015.49,-207.89 1077.35,-173.928 1109.57,-154.818"/>
<polygon fill="midnightblue" stroke="midnightblue" points="1111.45,-157.775 1118.22,-149.624 1107.84,-151.775 1111.45,-157.775"/>
</g>
<!-- Node17 -->
<g id="node17" class="node"><title>Node17</title>
<g id="a_node17"><a xlink:href="mapping__traits_8h.html" target="_top" xlink:title="shad/runtime/mapping\l_traits.h">
<polygon fill="white" stroke="black" points="1194.5,-57 1194.5,-87 1307.5,-87 1307.5,-57 1194.5,-57"/>
<text text-anchor="start" x="1202.5" y="-75" font-family="Helvetica,sans-Serif" font-size="10.00">shad/runtime/mapping</text>
<text text-anchor="middle" x="1251" y="-64" font-family="Helvetica,sans-Serif" font-size="10.00">_traits.h</text>
</a>
</g>
</g>
<!-- Node4&#45;&gt;Node17 -->
<g id="edge28" class="edge"><title>Node4&#45;&gt;Node17</title>
<path fill="none" stroke="midnightblue" d="M595.085,-261.033C598.098,-260.671 601.084,-260.324 604,-260 784.922,-239.877 834.355,-263.748 1012,-224 1097.49,-204.872 1128.51,-210.613 1197,-156 1216.94,-140.102 1231.9,-114.76 1240.96,-96.2562"/>
<polygon fill="midnightblue" stroke="midnightblue" points="1244.21,-97.5784 1245.27,-87.0369 1237.86,-94.6157 1244.21,-97.5784"/>
</g>
<!-- Node20 -->
<g id="node20" class="node"><title>Node20</title>
<g id="a_node20"><a xlink:href="locality_8h.html" target="_top" xlink:title="shad/runtime/locality.h">
<polygon fill="white" stroke="black" points="767.5,-130.5 767.5,-149.5 882.5,-149.5 882.5,-130.5 767.5,-130.5"/>
<text text-anchor="middle" x="825" y="-137.5" font-family="Helvetica,sans-Serif" font-size="10.00">shad/runtime/locality.h</text>
</a>
</g>
</g>
<!-- Node4&#45;&gt;Node20 -->
<g id="edge23" class="edge"><title>Node4&#45;&gt;Node20</title>
<path fill="none" stroke="midnightblue" d="M595.089,-260.968C686.055,-248.358 851.946,-225.215 853,-224 869.445,-205.047 853.059,-176.046 839.333,-157.823"/>
<polygon fill="midnightblue" stroke="midnightblue" points="841.934,-155.471 832.963,-149.834 836.46,-159.835 841.934,-155.471"/>
</g>
<!-- Node21 -->
<g id="node21" class="node"><title>Node21</title>
<g id="a_node21"><a xlink:href="available__mappings_8h.html" target="_top" xlink:title="shad/runtime/mappings\l/available_mappings.h">
<polygon fill="white" stroke="black" points="939,-125 939,-155 1057,-155 1057,-125 939,-125"/>
<text text-anchor="start" x="947" y="-143" font-family="Helvetica,sans-Serif" font-size="10.00">shad/runtime/mappings</text>
<text text-anchor="middle" x="998" y="-132" font-family="Helvetica,sans-Serif" font-size="10.00">/available_mappings.h</text>
</a>
</g>
</g>
<!-- Node4&#45;&gt;Node21 -->
<g id="edge29" class="edge"><title>Node4&#45;&gt;Node21</title>
<path fill="none" stroke="midnightblue" d="M595.095,-261.117C598.106,-260.733 601.088,-260.359 604,-260 675.242,-251.221 861.349,-257.182 925,-224 951.149,-210.369 972.208,-183.197 984.866,-163.651"/>
<polygon fill="midnightblue" stroke="midnightblue" points="987.923,-165.362 990.235,-155.023 981.98,-161.664 987.923,-165.362"/>
</g>
<!-- Node22 -->
<g id="node22" class="node"><title>Node22</title>
<g id="a_node22"><a xlink:href="synchronous__interface_8h.html" target="_top" xlink:title="shad/runtime/synchronous\l_interface.h">
<polygon fill="white" stroke="black" points="713.5,-193 713.5,-223 844.5,-223 844.5,-193 713.5,-193"/>
<text text-anchor="start" x="721.5" y="-211" font-family="Helvetica,sans-Serif" font-size="10.00">shad/runtime/synchronous</text>
<text text-anchor="middle" x="779" y="-200" font-family="Helvetica,sans-Serif" font-size="10.00">_interface.h</text>
</a>
</g>
</g>
<!-- Node4&#45;&gt;Node22 -->
<g id="edge31" class="edge"><title>Node4&#45;&gt;Node22</title>
<path fill="none" stroke="midnightblue" d="M571.416,-260.467C608.009,-251.395 666.788,-236.821 712.474,-225.494"/>
<polygon fill="midnightblue" stroke="midnightblue" points="713.441,-228.86 722.305,-223.057 711.757,-222.066 713.441,-228.86"/>
</g>
<!-- Node15&#45;&gt;Node3 -->
<g id="edge18" class="edge"><title>Node15&#45;&gt;Node3</title>
<path fill="none" stroke="midnightblue" d="M1137.42,-130.319C1146.97,-113.807 1164.13,-77.6004 1146,-56 1121.75,-27.1127 1020.01,-16.7638 952.321,-13.06"/>
<polygon fill="midnightblue" stroke="midnightblue" points="952.347,-9.5568 942.181,-12.5405 951.989,-16.5476 952.347,-9.5568"/>
</g>
<!-- Node16 -->
<g id="node16" class="node"><title>Node16</title>
<polygon fill="white" stroke="#bfbfbf" points="1076,-62.5 1076,-81.5 1138,-81.5 1138,-62.5 1076,-62.5"/>
<text text-anchor="middle" x="1107" y="-69.5" font-family="Helvetica,sans-Serif" font-size="10.00">type_traits</text>
</g>
<!-- Node15&#45;&gt;Node16 -->
<g id="edge17" class="edge"><title>Node15&#45;&gt;Node16</title>
<path fill="none" stroke="midnightblue" d="M1128.73,-130.372C1125.01,-120.544 1118.82,-104.202 1114,-91.4673"/>
<polygon fill="midnightblue" stroke="midnightblue" points="1117.16,-89.9529 1110.35,-81.8411 1110.62,-92.4325 1117.16,-89.9529"/>
</g>
<!-- Node15&#45;&gt;Node17 -->
<g id="edge19" class="edge"><title>Node15&#45;&gt;Node17</title>
<path fill="none" stroke="midnightblue" d="M1147.56,-130.372C1164.94,-120.729 1193.64,-104.812 1216.4,-92.1874"/>
<polygon fill="midnightblue" stroke="midnightblue" points="1218.38,-95.0925 1225.43,-87.1815 1214.99,-88.9709 1218.38,-95.0925"/>
</g>
<!-- Node19 -->
<g id="node19" class="node"><title>Node19</title>
<g id="a_node19"><a xlink:href="available__traits__mappings_8h.html" target="_top" xlink:title="shad/runtime/mappings\l/available_traits_mappings.h">
<polygon fill="white" stroke="black" points="918,-57 918,-87 1058,-87 1058,-57 918,-57"/>
<text text-anchor="start" x="926" y="-75" font-family="Helvetica,sans-Serif" font-size="10.00">shad/runtime/mappings</text>
<text text-anchor="middle" x="988" y="-64" font-family="Helvetica,sans-Serif" font-size="10.00">/available_traits_mappings.h</text>
</a>
</g>
</g>
<!-- Node15&#45;&gt;Node19 -->
<g id="edge22" class="edge"><title>Node15&#45;&gt;Node19</title>
<path fill="none" stroke="midnightblue" d="M1113.17,-130.372C1091.6,-120.483 1055.63,-103.997 1027.77,-91.2289"/>
<polygon fill="midnightblue" stroke="midnightblue" points="1029.22,-88.0411 1018.67,-87.0562 1026.3,-94.4046 1029.22,-88.0411"/>
</g>
<!-- Node17&#45;&gt;Node3 -->
<g id="edge21" class="edge"><title>Node17&#45;&gt;Node3</title>
<path fill="none" stroke="midnightblue" d="M1194.47,-58.769C1189.58,-57.7989 1184.71,-56.8622 1180,-56 1101.75,-41.6748 1011.09,-28.0853 952.249,-19.6623"/>
<polygon fill="midnightblue" stroke="midnightblue" points="952.399,-16.1483 942.005,-18.2019 951.411,-23.0783 952.399,-16.1483"/>
</g>
<!-- Node18 -->
<g id="node18" class="node"><title>Node18</title>
<polygon fill="white" stroke="#bfbfbf" points="1230.5,-0.5 1230.5,-19.5 1271.5,-19.5 1271.5,-0.5 1230.5,-0.5"/>
<text text-anchor="middle" x="1251" y="-7.5" font-family="Helvetica,sans-Serif" font-size="10.00">string</text>
</g>
<!-- Node17&#45;&gt;Node18 -->
<g id="edge20" class="edge"><title>Node17&#45;&gt;Node18</title>
<path fill="none" stroke="midnightblue" d="M1251,-56.7808C1251,-48.7812 1251,-38.6887 1251,-30.0168"/>
<polygon fill="midnightblue" stroke="midnightblue" points="1254.5,-29.7305 1251,-19.7305 1247.5,-29.7306 1254.5,-29.7305"/>
</g>
<!-- Node20&#45;&gt;Node3 -->
<g id="edge25" class="edge"><title>Node20&#45;&gt;Node3</title>
<path fill="none" stroke="midnightblue" d="M829.468,-130.202C840.095,-109.275 867.039,-56.2157 881.12,-28.4861"/>
<polygon fill="midnightblue" stroke="midnightblue" points="884.265,-30.0234 885.672,-19.5224 878.024,-26.8539 884.265,-30.0234"/>
</g>
<!-- Node20&#45;&gt;Node6 -->
<g id="edge24" class="edge"><title>Node20&#45;&gt;Node6</title>
<path fill="none" stroke="midnightblue" d="M813.757,-130.372C799.722,-119.6 775.488,-101.002 758.424,-87.9065"/>
<polygon fill="midnightblue" stroke="midnightblue" points="760.31,-84.9421 750.246,-81.6305 756.048,-90.4953 760.31,-84.9421"/>
</g>
<!-- Node20&#45;&gt;Node17 -->
<g id="edge26" class="edge"><title>Node20&#45;&gt;Node17</title>
<path fill="none" stroke="midnightblue" d="M880.255,-130.439C958.352,-118.34 1100.81,-96.2682 1184.57,-83.2918"/>
<polygon fill="midnightblue" stroke="midnightblue" points="1185.14,-86.7455 1194.49,-81.7556 1184.07,-79.828 1185.14,-86.7455"/>
</g>
<!-- Node20&#45;&gt;Node19 -->
<g id="edge27" class="edge"><title>Node20&#45;&gt;Node19</title>
<path fill="none" stroke="midnightblue" d="M846.309,-130.372C870.944,-120.397 912.155,-103.71 943.801,-90.8967"/>
<polygon fill="midnightblue" stroke="midnightblue" points="945.33,-94.0535 953.285,-87.0562 942.703,-87.5652 945.33,-94.0535"/>
</g>
<!-- Node21&#45;&gt;Node19 -->
<g id="edge30" class="edge"><title>Node21&#45;&gt;Node19</title>
<path fill="none" stroke="midnightblue" d="M995.83,-124.679C994.625,-116.722 993.092,-106.605 991.702,-97.4356"/>
<polygon fill="midnightblue" stroke="midnightblue" points="995.124,-96.6559 990.166,-87.2931 988.203,-97.7046 995.124,-96.6559"/>
</g>
<!-- Node22&#45;&gt;Node2 -->
<g id="edge34" class="edge"><title>Node22&#45;&gt;Node2</title>
<path fill="none" stroke="midnightblue" d="M743.328,-192.929C717.825,-182.808 682.723,-168.75 652,-156 650.168,-155.24 648.285,-154.452 646.388,-153.653"/>
<polygon fill="midnightblue" stroke="midnightblue" points="647.528,-150.335 636.956,-149.646 644.792,-156.778 647.528,-150.335"/>
</g>
<!-- Node22&#45;&gt;Node5 -->
<g id="edge32" class="edge"><title>Node22&#45;&gt;Node5</title>
<path fill="none" stroke="midnightblue" d="M758.82,-192.679C743.369,-181.713 722.136,-166.645 706.585,-155.609"/>
<polygon fill="midnightblue" stroke="midnightblue" points="708.352,-152.571 698.172,-149.638 704.301,-158.28 708.352,-152.571"/>
</g>
<!-- Node22&#45;&gt;Node6 -->
<g id="edge33" class="edge"><title>Node22&#45;&gt;Node6</title>
<path fill="none" stroke="midnightblue" d="M772.474,-192.945C767.961,-182.83 762.062,-168.775 758,-156 751.159,-134.481 745.717,-109.092 742.44,-92.1122"/>
<polygon fill="midnightblue" stroke="midnightblue" points="745.801,-91.0405 740.527,-81.8515 738.92,-92.3236 745.801,-91.0405"/>
</g>
<!-- Node22&#45;&gt;Node20 -->
<g id="edge35" class="edge"><title>Node22&#45;&gt;Node20</title>
<path fill="none" stroke="midnightblue" d="M788.981,-192.679C796.012,-182.592 805.462,-169.033 812.918,-158.335"/>
<polygon fill="midnightblue" stroke="midnightblue" points="816,-160.034 818.847,-149.828 810.258,-156.031 816,-160.034"/>
</g>
</g>
</svg>
