<?xml version="1.0" encoding="UTF-8" standalone="no"?>
<!DOCTYPE svg PUBLIC "-//W3C//DTD SVG 1.1//EN"
 "http://www.w3.org/Graphics/SVG/1.1/DTD/svg11.dtd">
<!-- Generated by graphviz version 2.36.0 (20140111.2315)
 -->
<!-- Title: include/shad/shad.h Pages: 1 -->
<svg width="1159pt" height="344pt"
 viewBox="0.00 0.00 1158.87 344.00" xmlns="http://www.w3.org/2000/svg" xmlns:xlink="http://www.w3.org/1999/xlink">
<g id="graph0" class="graph" transform="scale(1 1) rotate(0) translate(4 340)">
<title>include/shad/shad.h</title>
<polygon fill="white" stroke="none" points="-4,4 -4,-340 1154.87,-340 1154.87,4 -4,4"/>
<!-- Node1 -->
<g id="node1" class="node"><title>Node1</title>
<polygon fill="#bfbfbf" stroke="black" points="407.871,-316.5 407.871,-335.5 511.871,-335.5 511.871,-316.5 407.871,-316.5"/>
<text text-anchor="middle" x="459.871" y="-323.5" font-family="Helvetica,sans-Serif" font-size="10.00">include/shad/shad.h</text>
</g>
<!-- Node2 -->
<g id="node2" class="node"><title>Node2</title>
<g id="a_node2"><a xlink:href="runtime_8h.html" target="_top" xlink:title="shad/runtime/runtime.h">
<polygon fill="white" stroke="black" points="336.871,-260.5 336.871,-279.5 452.871,-279.5 452.871,-260.5 336.871,-260.5"/>
<text text-anchor="middle" x="394.871" y="-267.5" font-family="Helvetica,sans-Serif" font-size="10.00">shad/runtime/runtime.h</text>
</a>
</g>
</g>
<!-- Node1&#45;&gt;Node2 -->
<g id="edge1" class="edge"><title>Node1&#45;&gt;Node2</title>
<path fill="none" stroke="midnightblue" d="M449.428,-316.324C439.725,-308.263 425.056,-296.077 413.371,-286.369"/>
<polygon fill="midnightblue" stroke="midnightblue" points="415.433,-283.532 405.504,-279.834 410.96,-288.916 415.433,-283.532"/>
</g>
<!-- Node23 -->
<g id="node23" class="node"><title>Node23</title>
<g id="a_node23"><a xlink:href="shadmain_8h.html" target="_top" xlink:title="shad/util/shadmain.h">
<polygon fill="white" stroke="black" points="471.371,-260.5 471.371,-279.5 578.371,-279.5 578.371,-260.5 471.371,-260.5"/>
<text text-anchor="middle" x="524.871" y="-267.5" font-family="Helvetica,sans-Serif" font-size="10.00">shad/util/shadmain.h</text>
</a>
</g>
</g>
<!-- Node1&#45;&gt;Node23 -->
<g id="edge35" class="edge"><title>Node1&#45;&gt;Node23</title>
<path fill="none" stroke="midnightblue" d="M470.314,-316.324C480.017,-308.263 494.686,-296.077 506.371,-286.369"/>
<polygon fill="midnightblue" stroke="midnightblue" points="508.782,-288.916 514.238,-279.834 504.309,-283.532 508.782,-288.916"/>
</g>
<!-- Node3 -->
<g id="node3" class="node"><title>Node3</title>
<polygon fill="white" stroke="#bfbfbf" points="195.371,-130.5 195.371,-149.5 244.371,-149.5 244.371,-130.5 195.371,-130.5"/>
<text text-anchor="middle" x="219.871" y="-137.5" font-family="Helvetica,sans-Serif" font-size="10.00">cstddef</text>
</g>
<!-- Node2&#45;&gt;Node3 -->
<g id="edge2" class="edge"><title>Node2&#45;&gt;Node3</title>
<path fill="none" stroke="midnightblue" d="M336.643,-267.018C269.801,-263.374 166.225,-253.067 141.871,-224 132.737,-213.098 135.104,-204.509 141.871,-192 151.266,-174.632 169.431,-162.232 185.869,-154.012"/>
<polygon fill="midnightblue" stroke="midnightblue" points="187.672,-157.034 195.269,-149.648 184.725,-150.684 187.672,-157.034"/>
</g>
<!-- Node4 -->
<g id="node4" class="node"><title>Node4</title>
<polygon fill="white" stroke="#bfbfbf" points="629.871,-62.5 629.871,-81.5 675.871,-81.5 675.871,-62.5 629.871,-62.5"/>
<text text-anchor="middle" x="652.871" y="-69.5" font-family="Helvetica,sans-Serif" font-size="10.00">cstdint</text>
</g>
<!-- Node2&#45;&gt;Node4 -->
<g id="edge3" class="edge"><title>Node2&#45;&gt;Node4</title>
<path fill="none" stroke="midnightblue" d="M453.144,-260.969C544.398,-248.36 710.813,-225.218 711.871,-224 721.194,-213.26 717.657,-204.992 711.871,-192 702.14,-170.151 683.993,-176.618 671.871,-156 660.132,-136.034 655.645,-109.417 653.931,-91.7698"/>
<polygon fill="midnightblue" stroke="midnightblue" points="657.408,-91.3324 653.156,-81.628 650.428,-91.8656 657.408,-91.3324"/>
</g>
<!-- Node5 -->
<g id="node5" class="node"><title>Node5</title>
<polygon fill="white" stroke="#bfbfbf" points="35.371,-198.5 35.371,-217.5 94.371,-217.5 94.371,-198.5 35.371,-198.5"/>
<text text-anchor="middle" x="64.871" y="-205.5" font-family="Helvetica,sans-Serif" font-size="10.00">functional</text>
</g>
<!-- Node2&#45;&gt;Node5 -->
<g id="edge4" class="edge"><title>Node2&#45;&gt;Node5</title>
<path fill="none" stroke="midnightblue" d="M336.769,-262.838C278.568,-255.971 186.699,-243.236 108.871,-224 105.015,-223.047 101.015,-221.906 97.0693,-220.684"/>
<polygon fill="midnightblue" stroke="midnightblue" points="98.0782,-217.332 87.4854,-217.543 95.8981,-223.984 98.0782,-217.332"/>
</g>
<!-- Node6 -->
<g id="node6" class="node"><title>Node6</title>
<polygon fill="white" stroke="#bfbfbf" points="288.871,-62.5 288.871,-81.5 342.871,-81.5 342.871,-62.5 288.871,-62.5"/>
<text text-anchor="middle" x="315.871" y="-69.5" font-family="Helvetica,sans-Serif" font-size="10.00">iostream</text>
</g>
<!-- Node2&#45;&gt;Node6 -->
<g id="edge5" class="edge"><title>Node2&#45;&gt;Node6</title>
<path fill="none" stroke="midnightblue" d="M336.821,-266.08C238.086,-260.514 46.1129,-246.86 25.871,-224 -51.8382,-136.238 184.534,-91.8076 278.833,-77.9085"/>
<polygon fill="midnightblue" stroke="midnightblue" points="279.414,-81.3609 288.814,-76.4734 278.418,-74.4321 279.414,-81.3609"/>
</g>
<!-- Node7 -->
<g id="node7" class="node"><title>Node7</title>
<polygon fill="white" stroke="#bfbfbf" points="151.371,-198.5 151.371,-217.5 198.371,-217.5 198.371,-198.5 151.371,-198.5"/>
<text text-anchor="middle" x="174.871" y="-205.5" font-family="Helvetica,sans-Serif" font-size="10.00">iterator</text>
</g>
<!-- Node2&#45;&gt;Node7 -->
<g id="edge6" class="edge"><title>Node2&#45;&gt;Node7</title>
<path fill="none" stroke="midnightblue" d="M347.755,-260.491C309.263,-252.884 253.753,-240.407 206.871,-224 204.96,-223.331 203.01,-222.586 201.062,-221.794"/>
<polygon fill="midnightblue" stroke="midnightblue" points="202.105,-218.429 191.543,-217.597 199.281,-224.834 202.105,-218.429"/>
</g>
<!-- Node8 -->
<g id="node8" class="node"><title>Node8</title>
<polygon fill="white" stroke="#bfbfbf" points="216.371,-198.5 216.371,-217.5 251.371,-217.5 251.371,-198.5 216.371,-198.5"/>
<text text-anchor="middle" x="233.871" y="-205.5" font-family="Helvetica,sans-Serif" font-size="10.00">map</text>
</g>
<!-- Node2&#45;&gt;Node8 -->
<g id="edge7" class="edge"><title>Node2&#45;&gt;Node8</title>
<path fill="none" stroke="midnightblue" d="M367.889,-260.483C341.581,-251.97 300.576,-238.144 265.871,-224 264.23,-223.331 262.553,-222.623 260.867,-221.892"/>
<polygon fill="midnightblue" stroke="midnightblue" points="261.886,-218.511 251.333,-217.581 259.003,-224.89 261.886,-218.511"/>
</g>
<!-- Node9 -->
<g id="node9" class="node"><title>Node9</title>
<polygon fill="white" stroke="#bfbfbf" points="360.871,-130.5 360.871,-149.5 412.871,-149.5 412.871,-130.5 360.871,-130.5"/>
<text text-anchor="middle" x="386.871" y="-137.5" font-family="Helvetica,sans-Serif" font-size="10.00">memory</text>
</g>
<!-- Node2&#45;&gt;Node9 -->
<g id="edge8" class="edge"><title>Node2&#45;&gt;Node9</title>
<path fill="none" stroke="midnightblue" d="M353.401,-260.497C333.285,-254.06 310.918,-242.952 298.871,-224 291.241,-211.997 291.77,-204.323 298.871,-192 310.109,-172.498 331.972,-159.773 351.094,-151.911"/>
<polygon fill="midnightblue" stroke="midnightblue" points="352.388,-155.164 360.487,-148.333 349.896,-148.622 352.388,-155.164"/>
</g>
<!-- Node10 -->
<g id="node10" class="node"><title>Node10</title>
<polygon fill="white" stroke="#bfbfbf" points="307.871,-198.5 307.871,-217.5 337.871,-217.5 337.871,-198.5 307.871,-198.5"/>
<text text-anchor="middle" x="322.871" y="-205.5" font-family="Helvetica,sans-Serif" font-size="10.00">set</text>
</g>
<!-- Node2&#45;&gt;Node10 -->
<g id="edge9" class="edge"><title>Node2&#45;&gt;Node10</title>
<path fill="none" stroke="midnightblue" d="M384.555,-260.403C373.22,-250.958 354.798,-235.606 341.032,-224.134"/>
<polygon fill="midnightblue" stroke="midnightblue" points="343.091,-221.294 333.168,-217.581 338.609,-226.671 343.091,-221.294"/>
</g>
<!-- Node11 -->
<g id="node11" class="node"><title>Node11</title>
<polygon fill="white" stroke="#bfbfbf" points="355.871,-198.5 355.871,-217.5 433.871,-217.5 433.871,-198.5 355.871,-198.5"/>
<text text-anchor="middle" x="394.871" y="-205.5" font-family="Helvetica,sans-Serif" font-size="10.00">unordered_set</text>
</g>
<!-- Node2&#45;&gt;Node11 -->
<g id="edge10" class="edge"><title>Node2&#45;&gt;Node11</title>
<path fill="none" stroke="midnightblue" d="M394.871,-260.403C394.871,-251.938 394.871,-238.728 394.871,-227.82"/>
<polygon fill="midnightblue" stroke="midnightblue" points="398.371,-227.581 394.871,-217.581 391.371,-227.581 398.371,-227.581"/>
</g>
<!-- Node12 -->
<g id="node12" class="node"><title>Node12</title>
<polygon fill="white" stroke="#bfbfbf" points="451.871,-198.5 451.871,-217.5 491.871,-217.5 491.871,-198.5 451.871,-198.5"/>
<text text-anchor="middle" x="471.871" y="-205.5" font-family="Helvetica,sans-Serif" font-size="10.00">utility</text>
</g>
<!-- Node2&#45;&gt;Node12 -->
<g id="edge11" class="edge"><title>Node2&#45;&gt;Node12</title>
<path fill="none" stroke="midnightblue" d="M405.903,-260.403C418.139,-250.869 438.1,-235.315 452.864,-223.811"/>
<polygon fill="midnightblue" stroke="midnightblue" points="455.123,-226.488 460.859,-217.581 450.82,-220.966 455.123,-226.488"/>
</g>
<!-- Node13 -->
<g id="node13" class="node"><title>Node13</title>
<polygon fill="white" stroke="#bfbfbf" points="509.871,-198.5 509.871,-217.5 553.871,-217.5 553.871,-198.5 509.871,-198.5"/>
<text text-anchor="middle" x="531.871" y="-205.5" font-family="Helvetica,sans-Serif" font-size="10.00">vector</text>
</g>
<!-- Node2&#45;&gt;Node13 -->
<g id="edge12" class="edge"><title>Node2&#45;&gt;Node13</title>
<path fill="none" stroke="midnightblue" d="M416.122,-260.339C437.619,-251.493 471.743,-237.22 500.871,-224 502.266,-223.367 503.693,-222.71 505.13,-222.041"/>
<polygon fill="midnightblue" stroke="midnightblue" points="507.031,-225.013 514.563,-217.561 504.028,-218.69 507.031,-225.013"/>
</g>
<!-- Node14 -->
<g id="node14" class="node"><title>Node14</title>
<polygon fill="white" stroke="#bfbfbf" points="775.871,-0.5 775.871,-19.5 879.871,-19.5 879.871,-0.5 775.871,-0.5"/>
<text text-anchor="middle" x="827.871" y="-7.5" font-family="Helvetica,sans-Serif" font-size="10.00">shad/config/config.h</text>
</g>
<!-- Node2&#45;&gt;Node14 -->
<g id="edge13" class="edge"><title>Node2&#45;&gt;Node14</title>
<path fill="none" stroke="midnightblue" d="M336.698,-266.446C233.79,-261.328 28.4083,-248.179 6.87103,-224 -13.4419,-201.195 17.2145,-135.106 28.871,-124 134.428,-23.426 596.523,-11.6968 765.607,-10.8262"/>
<polygon fill="midnightblue" stroke="midnightblue" points="765.851,-14.3254 775.836,-10.7851 765.822,-7.32545 765.851,-14.3254"/>
</g>
<!-- Node15 -->
<g id="node15" class="node"><title>Node15</title>
<g id="a_node15"><a xlink:href="handle_8h.html" target="_top" xlink:title="shad/runtime/handle.h">
<polygon fill="white" stroke="black" points="951.371,-130.5 951.371,-149.5 1064.37,-149.5 1064.37,-130.5 951.371,-130.5"/>
<text text-anchor="middle" x="1007.87" y="-137.5" font-family="Helvetica,sans-Serif" font-size="10.00">shad/runtime/handle.h</text>
</a>
</g>
</g>
<!-- Node2&#45;&gt;Node15 -->
<g id="edge14" class="edge"><title>Node2&#45;&gt;Node15</title>
<path fill="none" stroke="midnightblue" d="M452.963,-261.092C455.974,-260.715 458.958,-260.348 461.871,-260 614.068,-241.795 656.217,-261.38 804.871,-224 871.308,-207.294 944.632,-173.072 982.345,-154.208"/>
<polygon fill="midnightblue" stroke="midnightblue" points="984.227,-157.178 991.572,-149.542 981.068,-150.931 984.227,-157.178"/>
</g>
<!-- Node17 -->
<g id="node17" class="node"><title>Node17</title>
<g id="a_node17"><a xlink:href="mapping__traits_8h.html" target="_top" xlink:title="shad/runtime/mapping\l_traits.h">
<polygon fill="white" stroke="black" points="957.371,-57 957.371,-87 1070.37,-87 1070.37,-57 957.371,-57"/>
<text text-anchor="start" x="965.371" y="-75" font-family="Helvetica,sans-Serif" font-size="10.00">shad/runtime/mapping</text>
<text text-anchor="middle" x="1013.87" y="-64" font-family="Helvetica,sans-Serif" font-size="10.00">_traits.h</text>
</a>
</g>
</g>
<!-- Node2&#45;&gt;Node17 -->
<g id="edge27" class="edge"><title>Node2&#45;&gt;Node17</title>
<path fill="none" stroke="midnightblue" d="M452.956,-261.038C455.97,-260.675 458.955,-260.326 461.871,-260 598.748,-244.686 991.937,-267.443 1072.87,-156 1088.35,-134.69 1065.83,-110.076 1044.3,-93.2186"/>
<polygon fill="midnightblue" stroke="midnightblue" points="1046.29,-90.3336 1036.18,-87.1608 1042.1,-95.945 1046.29,-90.3336"/>
</g>
<!-- Node20 -->
<g id="node20" class="node"><title>Node20</title>
<g id="a_node20"><a xlink:href="locality_8h.html" target="_top" xlink:title="shad/runtime/locality.h">
<polygon fill="white" stroke="black" points="681.371,-130.5 681.371,-149.5 796.371,-149.5 796.371,-130.5 681.371,-130.5"/>
<text text-anchor="middle" x="738.871" y="-137.5" font-family="Helvetica,sans-Serif" font-size="10.00">shad/runtime/locality.h</text>
</a>
</g>
</g>
<!-- Node2&#45;&gt;Node20 -->
<g id="edge21" class="edge"><title>Node2&#45;&gt;Node20</title>
<path fill="none" stroke="midnightblue" d="M452.972,-261.168C455.981,-260.771 458.962,-260.38 461.871,-260 524.952,-251.765 703.811,-271.728 745.871,-224 761.448,-206.323 754.362,-177.527 747.151,-158.925"/>
<polygon fill="midnightblue" stroke="midnightblue" points="750.297,-157.38 743.168,-149.543 743.854,-160.116 750.297,-157.38"/>
</g>
<!-- Node21 -->
<g id="node21" class="node"><title>Node21</title>
<g id="a_node21"><a xlink:href="available__mappings_8h.html" target="_top" xlink:title="shad/runtime/mappings\l/available_mappings.h">
<polygon fill="white" stroke="black" points="814.871,-125 814.871,-155 932.871,-155 932.871,-125 814.871,-125"/>
<text text-anchor="start" x="822.871" y="-143" font-family="Helvetica,sans-Serif" font-size="10.00">shad/runtime/mappings</text>
<text text-anchor="middle" x="873.871" y="-132" font-family="Helvetica,sans-Serif" font-size="10.00">/available_mappings.h</text>
</a>
</g>
</g>
<!-- Node2&#45;&gt;Node21 -->
<g id="edge28" class="edge"><title>Node2&#45;&gt;Node21</title>
<path fill="none" stroke="midnightblue" d="M452.969,-261.141C455.979,-260.751 458.96,-260.368 461.871,-260 596.412,-242.972 639.16,-274.872 764.871,-224 799.476,-209.996 832.619,-181.966 853.086,-162.372"/>
<polygon fill="midnightblue" stroke="midnightblue" points="855.59,-164.819 860.287,-155.322 850.693,-159.817 855.59,-164.819"/>
</g>
<!-- Node22 -->
<g id="node22" class="node"><title>Node22</title>
<g id="a_node22"><a xlink:href="synchronous__interface_8h.html" target="_top" xlink:title="shad/runtime/synchronous\l_interface.h">
<polygon fill="white" stroke="black" points="572.371,-193 572.371,-223 703.371,-223 703.371,-193 572.371,-193"/>
<text text-anchor="start" x="580.371" y="-211" font-family="Helvetica,sans-Serif" font-size="10.00">shad/runtime/synchronous</text>
<text text-anchor="middle" x="637.871" y="-200" font-family="Helvetica,sans-Serif" font-size="10.00">_interface.h</text>
</a>
</g>
</g>
<!-- Node2&#45;&gt;Node22 -->
<g id="edge30" class="edge"><title>Node2&#45;&gt;Node22</title>
<path fill="none" stroke="midnightblue" d="M429.429,-260.467C466.173,-251.395 525.196,-236.821 571.07,-225.494"/>
<polygon fill="midnightblue" stroke="midnightblue" points="572.073,-228.852 580.942,-223.057 570.395,-222.056 572.073,-228.852"/>
</g>
<!-- Node15&#45;&gt;Node14 -->
<g id="edge16" class="edge"><title>Node15&#45;&gt;Node14</title>
<path fill="none" stroke="midnightblue" d="M997.868,-130.33C974.802,-110.369 919.149,-62.379 909.871,-56 892.309,-43.9256 871.202,-32.4043 854.801,-24.0424"/>
<polygon fill="midnightblue" stroke="midnightblue" points="856.258,-20.8578 845.75,-19.5039 853.12,-27.1152 856.258,-20.8578"/>
</g>
<!-- Node16 -->
<g id="node16" class="node"><title>Node16</title>
<polygon fill="white" stroke="#bfbfbf" points="1088.87,-62.5 1088.87,-81.5 1150.87,-81.5 1150.87,-62.5 1088.87,-62.5"/>
<text text-anchor="middle" x="1119.87" y="-69.5" font-family="Helvetica,sans-Serif" font-size="10.00">type_traits</text>
</g>
<!-- Node15&#45;&gt;Node16 -->
<g id="edge15" class="edge"><title>Node15&#45;&gt;Node16</title>
<path fill="none" stroke="midnightblue" d="M1022.51,-130.372C1041.29,-119.304 1074.1,-99.9724 1096.39,-86.838"/>
<polygon fill="midnightblue" stroke="midnightblue" points="1098.39,-89.7228 1105.23,-81.6305 1094.83,-83.692 1098.39,-89.7228"/>
</g>
<!-- Node15&#45;&gt;Node17 -->
<g id="edge17" class="edge"><title>Node15&#45;&gt;Node17</title>
<path fill="none" stroke="midnightblue" d="M1008.66,-130.372C1009.42,-121.971 1010.62,-108.811 1011.67,-97.2126"/>
<polygon fill="midnightblue" stroke="midnightblue" points="1015.16,-97.4573 1012.58,-87.1815 1008.19,-96.8235 1015.16,-97.4573"/>
</g>
<!-- Node19 -->
<g id="node19" class="node"><title>Node19</title>
<g id="a_node19"><a xlink:href="available__traits__mappings_8h.html" target="_top" xlink:title="shad/runtime/mappings\l/available_traits_mappings.h">
<polygon fill="white" stroke="black" points="760.871,-57 760.871,-87 900.871,-87 900.871,-57 760.871,-57"/>
<text text-anchor="start" x="768.871" y="-75" font-family="Helvetica,sans-Serif" font-size="10.00">shad/runtime/mappings</text>
<text text-anchor="middle" x="830.871" y="-64" font-family="Helvetica,sans-Serif" font-size="10.00">/available_traits_mappings.h</text>
</a>
</g>
</g>
<!-- Node15&#45;&gt;Node19 -->
<g id="edge20" class="edge"><title>Node15&#45;&gt;Node19</title>
<path fill="none" stroke="midnightblue" d="M984.731,-130.372C957.75,-120.311 912.457,-103.422 877.98,-90.5662"/>
<polygon fill="midnightblue" stroke="midnightblue" points="879.16,-87.2707 868.567,-87.0562 876.714,-93.8295 879.16,-87.2707"/>
</g>
<!-- Node17&#45;&gt;Node14 -->
<g id="edge19" class="edge"><title>Node17&#45;&gt;Node14</title>
<path fill="none" stroke="midnightblue" d="M970.262,-56.9327C937.945,-46.5077 894.418,-32.4667 864.028,-22.6635"/>
<polygon fill="midnightblue" stroke="midnightblue" points="864.852,-19.2518 854.26,-19.5127 862.703,-25.9138 864.852,-19.2518"/>
</g>
<!-- Node18 -->
<g id="node18" class="node"><title>Node18</title>
<polygon fill="white" stroke="#bfbfbf" points="993.371,-0.5 993.371,-19.5 1034.37,-19.5 1034.37,-0.5 993.371,-0.5"/>
<text text-anchor="middle" x="1013.87" y="-7.5" font-family="Helvetica,sans-Serif" font-size="10.00">string</text>
</g>
<!-- Node17&#45;&gt;Node18 -->
<g id="edge18" class="edge"><title>Node17&#45;&gt;Node18</title>
<path fill="none" stroke="midnightblue" d="M1013.87,-56.7808C1013.87,-48.7812 1013.87,-38.6887 1013.87,-30.0168"/>
<polygon fill="midnightblue" stroke="midnightblue" points="1017.37,-29.7305 1013.87,-19.7305 1010.37,-29.7306 1017.37,-29.7305"/>
</g>
<!-- Node20&#45;&gt;Node4 -->
<g id="edge22" class="edge"><title>Node20&#45;&gt;Node4</title>
<path fill="none" stroke="midnightblue" d="M727.628,-130.372C713.593,-119.6 689.359,-101.002 672.295,-87.9065"/>
<polygon fill="midnightblue" stroke="midnightblue" points="674.181,-84.9421 664.117,-81.6305 669.919,-90.4953 674.181,-84.9421"/>
</g>
<!-- Node20&#45;&gt;Node6 -->
<g id="edge23" class="edge"><title>Node20&#45;&gt;Node6</title>
<path fill="none" stroke="midnightblue" d="M684.005,-130.439C596.47,-116.781 427.497,-90.4167 352.856,-78.7708"/>
<polygon fill="midnightblue" stroke="midnightblue" points="353.389,-75.3116 342.969,-77.228 352.31,-82.2279 353.389,-75.3116"/>
</g>
<!-- Node20&#45;&gt;Node14 -->
<g id="edge24" class="edge"><title>Node20&#45;&gt;Node14</title>
<path fill="none" stroke="midnightblue" d="M737.956,-130.377C736.701,-114.277 736.156,-79.1791 751.871,-56 761.682,-41.5281 777.831,-31.0206 792.725,-23.817"/>
<polygon fill="midnightblue" stroke="midnightblue" points="794.555,-26.8324 802.252,-19.5518 791.695,-20.4434 794.555,-26.8324"/>
</g>
<!-- Node20&#45;&gt;Node17 -->
<g id="edge25" class="edge"><title>Node20&#45;&gt;Node17</title>
<path fill="none" stroke="midnightblue" d="M774.541,-130.439C818.184,-119.965 892.967,-102.017 947.346,-88.9661"/>
<polygon fill="midnightblue" stroke="midnightblue" points="948.343,-92.3263 957.25,-86.5891 946.709,-85.5196 948.343,-92.3263"/>
</g>
<!-- Node20&#45;&gt;Node19 -->
<g id="edge26" class="edge"><title>Node20&#45;&gt;Node19</title>
<path fill="none" stroke="midnightblue" d="M750.898,-130.372C764.042,-120.943 785.545,-105.517 802.945,-93.0338"/>
<polygon fill="midnightblue" stroke="midnightblue" points="805.018,-95.8545 811.103,-87.1815 800.937,-90.1667 805.018,-95.8545"/>
</g>
<!-- Node21&#45;&gt;Node19 -->
<g id="edge29" class="edge"><title>Node21&#45;&gt;Node19</title>
<path fill="none" stroke="midnightblue" d="M864.541,-124.679C859.075,-116.29 852.045,-105.499 845.823,-95.9495"/>
<polygon fill="midnightblue" stroke="midnightblue" points="848.575,-93.7611 840.183,-87.2931 842.71,-97.5823 848.575,-93.7611"/>
</g>
<!-- Node22&#45;&gt;Node3 -->
<g id="edge31" class="edge"><title>Node22&#45;&gt;Node3</title>
<path fill="none" stroke="midnightblue" d="M571.996,-193.802C568.575,-193.178 565.184,-192.574 561.871,-192 449.758,-172.588 316.188,-153.964 254.388,-145.603"/>
<polygon fill="midnightblue" stroke="midnightblue" points="254.779,-142.124 244.402,-144.256 253.844,-149.061 254.779,-142.124"/>
</g>
<!-- Node22&#45;&gt;Node4 -->
<g id="edge32" class="edge"><title>Node22&#45;&gt;Node4</title>
<path fill="none" stroke="midnightblue" d="M636.947,-192.818C636.118,-176.227 635.493,-147.973 638.871,-124 640.435,-112.902 643.69,-100.793 646.668,-91.1596"/>
<polygon fill="midnightblue" stroke="midnightblue" points="650.039,-92.1137 649.808,-81.5213 643.383,-89.9453 650.039,-92.1137"/>
</g>
<!-- Node22&#45;&gt;Node9 -->
<g id="edge33" class="edge"><title>Node22&#45;&gt;Node9</title>
<path fill="none" stroke="midnightblue" d="M584.333,-192.922C535.652,-180.122 465.151,-161.584 422.881,-150.469"/>
<polygon fill="midnightblue" stroke="midnightblue" points="423.59,-147.036 413.029,-147.878 421.81,-153.806 423.59,-147.036"/>
</g>
<!-- Node22&#45;&gt;Node20 -->
<g id="edge34" class="edge"><title>Node22&#45;&gt;Node20</title>
<path fill="none" stroke="midnightblue" d="M659.787,-192.679C676.724,-181.611 700.058,-166.363 716.987,-155.3"/>
<polygon fill="midnightblue" stroke="midnightblue" points="719.196,-158.038 725.652,-149.638 715.367,-152.178 719.196,-158.038"/>
</g>
</g>
</svg>
