<?xml version="1.0" encoding="UTF-8" standalone="no"?>
<!DOCTYPE svg PUBLIC "-//W3C//DTD SVG 1.1//EN"
 "http://www.w3.org/Graphics/SVG/1.1/DTD/svg11.dtd">
<!-- Generated by graphviz version 2.36.0 (20140111.2315)
 -->
<!-- Title: include/shad/util/shadmain.h Pages: 1 -->
<svg width="213pt" height="84pt"
 viewBox="0.00 0.00 213.00 84.00" xmlns="http://www.w3.org/2000/svg" xmlns:xlink="http://www.w3.org/1999/xlink">
<g id="graph0" class="graph" transform="scale(1 1) rotate(0) translate(4 80)">
<title>include/shad/util/shadmain.h</title>
<polygon fill="white" stroke="none" points="-4,4 -4,-80 209,-80 209,4 -4,4"/>
<!-- Node1 -->
<g id="node1" class="node"><title>Node1</title>
<polygon fill="#bfbfbf" stroke="black" points="38,-56.5 38,-75.5 178,-75.5 178,-56.5 38,-56.5"/>
<text text-anchor="middle" x="108" y="-63.5" font-family="Helvetica,sans-Serif" font-size="10.00">include/shad/util/shadmain.h</text>
</g>
<!-- Node2 -->
<g id="node2" class="node"><title>Node2</title>
<g id="a_node2"><a xlink:href="shad_8h.html" target="_top" xlink:title="The API to the shad library. ">
<polygon fill="white" stroke="black" points="0,-0.5 0,-19.5 104,-19.5 104,-0.5 0,-0.5"/>
<text text-anchor="middle" x="52" y="-7.5" font-family="Helvetica,sans-Serif" font-size="10.00">include/shad/shad.h</text>
</a>
</g>
</g>
<!-- Node1&#45;&gt;Node2 -->
<g id="edge1" class="edge"><title>Node1&#45;&gt;Node2</title>
<path fill="none" stroke="midnightblue" d="M91.6701,-49.2533C81.735,-39.6731 69.4125,-27.7906 61.1611,-19.8339"/>
<polygon fill="midnightblue" stroke="midnightblue" points="89.3747,-51.902 99.0026,-56.324 94.2336,-46.8631 89.3747,-51.902"/>
</g>
<!-- Node3 -->
<g id="node3" class="node"><title>Node3</title>
<g id="a_node3"><a xlink:href="shad_8cc.html" target="_top" xlink:title="src/util/shad.cc">
<polygon fill="white" stroke="black" points="122.5,-0.5 122.5,-19.5 205.5,-19.5 205.5,-0.5 122.5,-0.5"/>
<text text-anchor="middle" x="164" y="-7.5" font-family="Helvetica,sans-Serif" font-size="10.00">src/util/shad.cc</text>
</a>
</g>
</g>
<!-- Node1&#45;&gt;Node3 -->
<g id="edge2" class="edge"><title>Node1&#45;&gt;Node3</title>
<path fill="none" stroke="midnightblue" d="M124.33,-49.2533C134.265,-39.6731 146.588,-27.7906 154.839,-19.8339"/>
<polygon fill="midnightblue" stroke="midnightblue" points="121.766,-46.8631 116.997,-56.324 126.625,-51.902 121.766,-46.8631"/>
</g>
</g>
</svg>
