<?xml version="1.0" encoding="UTF-8" standalone="no"?>
<!DOCTYPE svg PUBLIC "-//W3C//DTD SVG 1.1//EN"
 "http://www.w3.org/Graphics/SVG/1.1/DTD/svg11.dtd">
<!-- Generated by graphviz version 2.36.0 (20140111.2315)
 -->
<!-- Title: include/shad/core/impl/sorting_ops.h Pages: 1 -->
<svg width="1358pt" height="368pt"
 viewBox="0.00 0.00 1358.00 368.00" xmlns="http://www.w3.org/2000/svg" xmlns:xlink="http://www.w3.org/1999/xlink">
<g id="graph0" class="graph" transform="scale(1 1) rotate(0) translate(4 364)">
<title>include/shad/core/impl/sorting_ops.h</title>
<polygon fill="white" stroke="none" points="-4,4 -4,-364 1354,-364 1354,4 -4,4"/>
<!-- Node1 -->
<g id="node1" class="node"><title>Node1</title>
<polygon fill="#bfbfbf" stroke="black" points="185,-329 185,-359 299,-359 299,-329 185,-329"/>
<text text-anchor="start" x="193" y="-347" font-family="Helvetica,sans-Serif" font-size="10.00">include/shad/core/impl</text>
<text text-anchor="middle" x="242" y="-336" font-family="Helvetica,sans-Serif" font-size="10.00">/sorting_ops.h</text>
</g>
<!-- Node2 -->
<g id="node2" class="node"><title>Node2</title>
<polygon fill="white" stroke="#bfbfbf" points="0,-266.5 0,-285.5 56,-285.5 56,-266.5 0,-266.5"/>
<text text-anchor="middle" x="28" y="-273.5" font-family="Helvetica,sans-Serif" font-size="10.00">algorithm</text>
</g>
<!-- Node1&#45;&gt;Node2 -->
<g id="edge1" class="edge"><title>Node1&#45;&gt;Node2</title>
<path fill="none" stroke="midnightblue" d="M186.952,-328.994C151.518,-319.546 104.654,-306.24 64,-292 61.5957,-291.158 59.1205,-290.239 56.6472,-289.285"/>
<polygon fill="midnightblue" stroke="midnightblue" points="57.8549,-285.998 47.2712,-285.512 55.2419,-292.492 57.8549,-285.998"/>
</g>
<!-- Node3 -->
<g id="node3" class="node"><title>Node3</title>
<polygon fill="white" stroke="#bfbfbf" points="227.5,-198.5 227.5,-217.5 286.5,-217.5 286.5,-198.5 227.5,-198.5"/>
<text text-anchor="middle" x="257" y="-205.5" font-family="Helvetica,sans-Serif" font-size="10.00">functional</text>
</g>
<!-- Node1&#45;&gt;Node3 -->
<g id="edge2" class="edge"><title>Node1&#45;&gt;Node3</title>
<path fill="none" stroke="midnightblue" d="M243.605,-328.66C246.33,-304.32 251.858,-254.933 254.891,-227.837"/>
<polygon fill="midnightblue" stroke="midnightblue" points="258.389,-228.055 256.023,-217.728 251.432,-227.276 258.389,-228.055"/>
</g>
<!-- Node4 -->
<g id="node4" class="node"><title>Node4</title>
<polygon fill="white" stroke="#bfbfbf" points="162.5,-198.5 162.5,-217.5 209.5,-217.5 209.5,-198.5 162.5,-198.5"/>
<text text-anchor="middle" x="186" y="-205.5" font-family="Helvetica,sans-Serif" font-size="10.00">iterator</text>
</g>
<!-- Node1&#45;&gt;Node4 -->
<g id="edge3" class="edge"><title>Node1&#45;&gt;Node4</title>
<path fill="none" stroke="midnightblue" d="M236.007,-328.66C225.744,-304.103 204.827,-254.049 193.571,-227.117"/>
<polygon fill="midnightblue" stroke="midnightblue" points="196.733,-225.605 189.647,-217.728 190.274,-228.304 196.733,-225.605"/>
</g>
<!-- Node5 -->
<g id="node5" class="node"><title>Node5</title>
<g id="a_node5"><a xlink:href="execution_8h.html" target="_top" xlink:title="shad/core/execution.h">
<polygon fill="white" stroke="black" points="990.5,-266.5 990.5,-285.5 1103.5,-285.5 1103.5,-266.5 990.5,-266.5"/>
<text text-anchor="middle" x="1047" y="-273.5" font-family="Helvetica,sans-Serif" font-size="10.00">shad/core/execution.h</text>
</a>
</g>
</g>
<!-- Node1&#45;&gt;Node5 -->
<g id="edge4" class="edge"><title>Node1&#45;&gt;Node5</title>
<path fill="none" stroke="midnightblue" d="M299.248,-338.306C444.177,-326.424 825.05,-295.197 979.995,-282.494"/>
<polygon fill="midnightblue" stroke="midnightblue" points="980.632,-285.953 990.312,-281.648 980.06,-278.977 980.632,-285.953"/>
</g>
<!-- Node7 -->
<g id="node7" class="node"><title>Node7</title>
<g id="a_node7"><a xlink:href="distributed__iterator__traits_8h.html" target="_top" xlink:title="shad/distributed_iterator\l_traits.h">
<polygon fill="white" stroke="black" points="73.5,-261 73.5,-291 194.5,-291 194.5,-261 73.5,-261"/>
<text text-anchor="start" x="81.5" y="-279" font-family="Helvetica,sans-Serif" font-size="10.00">shad/distributed_iterator</text>
<text text-anchor="middle" x="134" y="-268" font-family="Helvetica,sans-Serif" font-size="10.00">_traits.h</text>
</a>
</g>
</g>
<!-- Node1&#45;&gt;Node7 -->
<g id="edge6" class="edge"><title>Node1&#45;&gt;Node7</title>
<path fill="none" stroke="midnightblue" d="M218.831,-328.841C203.456,-319.446 183.066,-306.985 166.13,-296.635"/>
<polygon fill="midnightblue" stroke="midnightblue" points="167.488,-293.363 157.13,-291.135 163.838,-299.336 167.488,-293.363"/>
</g>
<!-- Node15 -->
<g id="node15" class="node"><title>Node15</title>
<g id="a_node15"><a xlink:href="runtime_8h.html" target="_top" xlink:title="shad/runtime/runtime.h">
<polygon fill="white" stroke="black" points="605,-266.5 605,-285.5 721,-285.5 721,-266.5 605,-266.5"/>
<text text-anchor="middle" x="663" y="-273.5" font-family="Helvetica,sans-Serif" font-size="10.00">shad/runtime/runtime.h</text>
</a>
</g>
</g>
<!-- Node1&#45;&gt;Node15 -->
<g id="edge16" class="edge"><title>Node1&#45;&gt;Node15</title>
<path fill="none" stroke="midnightblue" d="M299.216,-334.03C377.264,-321.795 516.715,-299.933 598.422,-287.124"/>
<polygon fill="midnightblue" stroke="midnightblue" points="599.243,-290.538 608.58,-285.531 598.158,-283.623 599.243,-290.538"/>
</g>
<!-- Node6 -->
<g id="node6" class="node"><title>Node6</title>
<polygon fill="white" stroke="#bfbfbf" points="1288,-62.5 1288,-81.5 1350,-81.5 1350,-62.5 1288,-62.5"/>
<text text-anchor="middle" x="1319" y="-69.5" font-family="Helvetica,sans-Serif" font-size="10.00">type_traits</text>
</g>
<!-- Node5&#45;&gt;Node6 -->
<g id="edge5" class="edge"><title>Node5&#45;&gt;Node6</title>
<path fill="none" stroke="midnightblue" d="M1103.65,-271.464C1171.04,-265.995 1277.75,-252.927 1304,-224 1337.27,-187.339 1329.78,-123.134 1323.44,-91.5784"/>
<polygon fill="midnightblue" stroke="midnightblue" points="1326.8,-90.5573 1321.24,-81.5413 1319.96,-92.0594 1326.8,-90.5573"/>
</g>
<!-- Node7&#45;&gt;Node4 -->
<g id="edge8" class="edge"><title>Node7&#45;&gt;Node4</title>
<path fill="none" stroke="midnightblue" d="M145.283,-260.679C153.391,-250.388 164.346,-236.484 172.851,-225.69"/>
<polygon fill="midnightblue" stroke="midnightblue" points="175.605,-227.849 179.044,-217.828 170.106,-223.517 175.605,-227.849"/>
</g>
<!-- Node8 -->
<g id="node8" class="node"><title>Node8</title>
<polygon fill="white" stroke="#bfbfbf" points="56.5,-198.5 56.5,-217.5 105.5,-217.5 105.5,-198.5 56.5,-198.5"/>
<text text-anchor="middle" x="81" y="-205.5" font-family="Helvetica,sans-Serif" font-size="10.00">cassert</text>
</g>
<!-- Node7&#45;&gt;Node8 -->
<g id="edge7" class="edge"><title>Node7&#45;&gt;Node8</title>
<path fill="none" stroke="midnightblue" d="M122.5,-260.679C114.236,-250.388 103.07,-236.484 94.4023,-225.69"/>
<polygon fill="midnightblue" stroke="midnightblue" points="97.0798,-223.434 88.0894,-217.828 91.6218,-227.817 97.0798,-223.434"/>
</g>
<!-- Node9 -->
<g id="node9" class="node"><title>Node9</title>
<g id="a_node9"><a xlink:href="locality_8h.html" target="_top" xlink:title="shad/runtime/locality.h">
<polygon fill="white" stroke="black" points="808.5,-130.5 808.5,-149.5 923.5,-149.5 923.5,-130.5 808.5,-130.5"/>
<text text-anchor="middle" x="866" y="-137.5" font-family="Helvetica,sans-Serif" font-size="10.00">shad/runtime/locality.h</text>
</a>
</g>
</g>
<!-- Node7&#45;&gt;Node9 -->
<g id="edge9" class="edge"><title>Node7&#45;&gt;Node9</title>
<path fill="none" stroke="midnightblue" d="M132.606,-260.996C131.592,-242.112 133.03,-208.906 153,-192 204.566,-148.346 692.774,-162.739 760,-156 773.617,-154.635 788.169,-152.814 801.992,-150.913"/>
<polygon fill="midnightblue" stroke="midnightblue" points="802.49,-154.378 811.906,-149.52 801.516,-147.446 802.49,-154.378"/>
</g>
<!-- Node10 -->
<g id="node10" class="node"><title>Node10</title>
<polygon fill="white" stroke="#bfbfbf" points="757,-62.5 757,-81.5 803,-81.5 803,-62.5 757,-62.5"/>
<text text-anchor="middle" x="780" y="-69.5" font-family="Helvetica,sans-Serif" font-size="10.00">cstdint</text>
</g>
<!-- Node9&#45;&gt;Node10 -->
<g id="edge10" class="edge"><title>Node9&#45;&gt;Node10</title>
<path fill="none" stroke="midnightblue" d="M854.757,-130.372C840.722,-119.6 816.488,-101.002 799.424,-87.9065"/>
<polygon fill="midnightblue" stroke="midnightblue" points="801.31,-84.9421 791.246,-81.6305 797.048,-90.4953 801.31,-84.9421"/>
</g>
<!-- Node11 -->
<g id="node11" class="node"><title>Node11</title>
<polygon fill="white" stroke="#bfbfbf" points="952,-0.5 952,-19.5 1056,-19.5 1056,-0.5 952,-0.5"/>
<text text-anchor="middle" x="1004" y="-7.5" font-family="Helvetica,sans-Serif" font-size="10.00">shad/config/config.h</text>
</g>
<!-- Node9&#45;&gt;Node11 -->
<g id="edge11" class="edge"><title>Node9&#45;&gt;Node11</title>
<path fill="none" stroke="midnightblue" d="M873.162,-130.256C886.226,-114.55 915.152,-80.8834 943,-56 955.356,-44.9598 970.313,-33.8943 982.324,-25.4988"/>
<polygon fill="midnightblue" stroke="midnightblue" points="984.584,-28.1924 990.843,-19.6438 980.619,-22.4236 984.584,-28.1924"/>
</g>
<!-- Node12 -->
<g id="node12" class="node"><title>Node12</title>
<g id="a_node12"><a xlink:href="mapping__traits_8h.html" target="_top" xlink:title="shad/runtime/mapping\l_traits.h">
<polygon fill="white" stroke="black" points="1148.5,-57 1148.5,-87 1261.5,-87 1261.5,-57 1148.5,-57"/>
<text text-anchor="start" x="1156.5" y="-75" font-family="Helvetica,sans-Serif" font-size="10.00">shad/runtime/mapping</text>
<text text-anchor="middle" x="1205" y="-64" font-family="Helvetica,sans-Serif" font-size="10.00">_traits.h</text>
</a>
</g>
</g>
<!-- Node9&#45;&gt;Node12 -->
<g id="edge12" class="edge"><title>Node9&#45;&gt;Node12</title>
<path fill="none" stroke="midnightblue" d="M903.161,-130.438C912.859,-128.27 923.309,-125.993 933,-124 1002.89,-109.629 1083.23,-94.769 1138.37,-84.8232"/>
<polygon fill="midnightblue" stroke="midnightblue" points="1139.14,-88.2404 1148.36,-83.0245 1137.9,-81.351 1139.14,-88.2404"/>
</g>
<!-- Node14 -->
<g id="node14" class="node"><title>Node14</title>
<g id="a_node14"><a xlink:href="available__traits__mappings_8h.html" target="_top" xlink:title="shad/runtime/mappings\l/available_traits_mappings.h">
<polygon fill="white" stroke="black" points="952,-57 952,-87 1092,-87 1092,-57 952,-57"/>
<text text-anchor="start" x="960" y="-75" font-family="Helvetica,sans-Serif" font-size="10.00">shad/runtime/mappings</text>
<text text-anchor="middle" x="1022" y="-64" font-family="Helvetica,sans-Serif" font-size="10.00">/available_traits_mappings.h</text>
</a>
</g>
</g>
<!-- Node9&#45;&gt;Node14 -->
<g id="edge15" class="edge"><title>Node9&#45;&gt;Node14</title>
<path fill="none" stroke="midnightblue" d="M886.394,-130.372C909.869,-120.44 949.073,-103.854 979.307,-91.0626"/>
<polygon fill="midnightblue" stroke="midnightblue" points="980.93,-94.1761 988.776,-87.0562 978.203,-87.7293 980.93,-94.1761"/>
</g>
<!-- Node12&#45;&gt;Node11 -->
<g id="edge14" class="edge"><title>Node12&#45;&gt;Node11</title>
<path fill="none" stroke="midnightblue" d="M1157.87,-56.9327C1122.65,-46.4171 1075.09,-32.2222 1042.22,-22.4087"/>
<polygon fill="midnightblue" stroke="midnightblue" points="1043.1,-19.0194 1032.52,-19.5127 1041.1,-25.7269 1043.1,-19.0194"/>
</g>
<!-- Node13 -->
<g id="node13" class="node"><title>Node13</title>
<polygon fill="white" stroke="#bfbfbf" points="1184.5,-0.5 1184.5,-19.5 1225.5,-19.5 1225.5,-0.5 1184.5,-0.5"/>
<text text-anchor="middle" x="1205" y="-7.5" font-family="Helvetica,sans-Serif" font-size="10.00">string</text>
</g>
<!-- Node12&#45;&gt;Node13 -->
<g id="edge13" class="edge"><title>Node12&#45;&gt;Node13</title>
<path fill="none" stroke="midnightblue" d="M1205,-56.7808C1205,-48.7812 1205,-38.6887 1205,-30.0168"/>
<polygon fill="midnightblue" stroke="midnightblue" points="1208.5,-29.7305 1205,-19.7305 1201.5,-29.7306 1208.5,-29.7305"/>
</g>
<!-- Node15&#45;&gt;Node3 -->
<g id="edge19" class="edge"><title>Node15&#45;&gt;Node3</title>
<path fill="none" stroke="midnightblue" d="M604.69,-270.198C532.62,-263.484 406.566,-249.192 301,-224 297.136,-223.078 293.132,-221.956 289.184,-220.745"/>
<polygon fill="midnightblue" stroke="midnightblue" points="290.189,-217.392 279.597,-217.615 288.017,-224.046 290.189,-217.392"/>
</g>
<!-- Node15&#45;&gt;Node4 -->
<g id="edge21" class="edge"><title>Node15&#45;&gt;Node4</title>
<path fill="none" stroke="midnightblue" d="M604.951,-274.297C518.878,-271.933 353.041,-262.28 218,-224 215.659,-223.336 213.276,-222.518 210.919,-221.61"/>
<polygon fill="midnightblue" stroke="midnightblue" points="212.124,-218.317 201.559,-217.528 209.326,-224.734 212.124,-218.317"/>
</g>
<!-- Node15&#45;&gt;Node9 -->
<g id="edge34" class="edge"><title>Node15&#45;&gt;Node9</title>
<path fill="none" stroke="midnightblue" d="M721.304,-273.124C796.364,-269.34 920.544,-257.979 949,-224 958.131,-213.096 955.942,-204.413 949,-192 938.97,-174.065 919.765,-161.666 902.353,-153.589"/>
<polygon fill="midnightblue" stroke="midnightblue" points="903.503,-150.273 892.933,-149.538 900.737,-156.704 903.503,-150.273"/>
</g>
<!-- Node15&#45;&gt;Node10 -->
<g id="edge18" class="edge"><title>Node15&#45;&gt;Node10</title>
<path fill="none" stroke="midnightblue" d="M604.651,-274.684C519.657,-272.843 368.179,-263.885 334,-224 324.746,-213.201 325.336,-203.279 334,-192 385.238,-125.298 652.312,-87.974 746.818,-76.6966"/>
<polygon fill="midnightblue" stroke="midnightblue" points="747.429,-80.1491 756.954,-75.5086 746.614,-73.1967 747.429,-80.1491"/>
</g>
<!-- Node15&#45;&gt;Node11 -->
<g id="edge28" class="edge"><title>Node15&#45;&gt;Node11</title>
<path fill="none" stroke="midnightblue" d="M679.495,-266.43C693.986,-257.873 714.106,-243.233 723,-224 728.97,-211.091 727.842,-205.373 723,-192 715.91,-172.417 700.09,-175.583 693,-156 688.158,-142.627 688.256,-137.408 693,-124 705.965,-87.3553 714.509,-75.7291 748,-56 780.017,-37.1397 876.787,-23.9221 941.747,-16.8926"/>
<polygon fill="midnightblue" stroke="midnightblue" points="942.309,-20.3527 951.884,-15.8176 941.571,-13.3917 942.309,-20.3527"/>
</g>
<!-- Node15&#45;&gt;Node12 -->
<g id="edge35" class="edge"><title>Node15&#45;&gt;Node12</title>
<path fill="none" stroke="midnightblue" d="M721.159,-273.297C860.571,-267.796 1206.94,-245.234 1270,-156 1278.21,-144.385 1276.22,-136.789 1270,-124 1263.85,-111.357 1252.88,-100.92 1241.68,-92.8517"/>
<polygon fill="midnightblue" stroke="midnightblue" points="1243.41,-89.7967 1233.15,-87.1468 1239.52,-95.6153 1243.41,-89.7967"/>
</g>
<!-- Node16 -->
<g id="node16" class="node"><title>Node16</title>
<polygon fill="white" stroke="#bfbfbf" points="702.5,-130.5 702.5,-149.5 751.5,-149.5 751.5,-130.5 702.5,-130.5"/>
<text text-anchor="middle" x="727" y="-137.5" font-family="Helvetica,sans-Serif" font-size="10.00">cstddef</text>
</g>
<!-- Node15&#45;&gt;Node16 -->
<g id="edge17" class="edge"><title>Node15&#45;&gt;Node16</title>
<path fill="none" stroke="midnightblue" d="M696.618,-266.354C717.985,-258.927 743.991,-245.858 757,-224 769.679,-202.697 754.348,-175.167 741.348,-157.792"/>
<polygon fill="midnightblue" stroke="midnightblue" points="743.888,-155.363 734.923,-149.717 738.411,-159.722 743.888,-155.363"/>
</g>
<!-- Node17 -->
<g id="node17" class="node"><title>Node17</title>
<polygon fill="white" stroke="#bfbfbf" points="343,-198.5 343,-217.5 397,-217.5 397,-198.5 343,-198.5"/>
<text text-anchor="middle" x="370" y="-205.5" font-family="Helvetica,sans-Serif" font-size="10.00">iostream</text>
</g>
<!-- Node15&#45;&gt;Node17 -->
<g id="edge20" class="edge"><title>Node15&#45;&gt;Node17</title>
<path fill="none" stroke="midnightblue" d="M604.775,-266.834C552.15,-258.657 472.91,-244.357 406,-224 403.358,-223.196 400.645,-222.268 397.949,-221.275"/>
<polygon fill="midnightblue" stroke="midnightblue" points="399.012,-217.932 388.426,-217.504 396.435,-224.44 399.012,-217.932"/>
</g>
<!-- Node18 -->
<g id="node18" class="node"><title>Node18</title>
<polygon fill="white" stroke="#bfbfbf" points="415.5,-198.5 415.5,-217.5 450.5,-217.5 450.5,-198.5 415.5,-198.5"/>
<text text-anchor="middle" x="433" y="-205.5" font-family="Helvetica,sans-Serif" font-size="10.00">map</text>
</g>
<!-- Node15&#45;&gt;Node18 -->
<g id="edge22" class="edge"><title>Node15&#45;&gt;Node18</title>
<path fill="none" stroke="midnightblue" d="M614.315,-266.484C572.483,-258.298 511.025,-244.18 460,-224 458.598,-223.445 457.177,-222.831 455.76,-222.178"/>
<polygon fill="midnightblue" stroke="midnightblue" points="457.167,-218.966 446.674,-217.503 453.965,-225.19 457.167,-218.966"/>
</g>
<!-- Node19 -->
<g id="node19" class="node"><title>Node19</title>
<polygon fill="white" stroke="#bfbfbf" points="942,-130.5 942,-149.5 994,-149.5 994,-130.5 942,-130.5"/>
<text text-anchor="middle" x="968" y="-137.5" font-family="Helvetica,sans-Serif" font-size="10.00">memory</text>
</g>
<!-- Node15&#45;&gt;Node19 -->
<g id="edge23" class="edge"><title>Node15&#45;&gt;Node19</title>
<path fill="none" stroke="midnightblue" d="M721.171,-273.781C800.388,-270.758 935.928,-260.274 967,-224 982.204,-206.251 978.546,-177.682 973.823,-159.123"/>
<polygon fill="midnightblue" stroke="midnightblue" points="977.185,-158.151 971.053,-149.511 970.458,-160.089 977.185,-158.151"/>
</g>
<!-- Node20 -->
<g id="node20" class="node"><title>Node20</title>
<polygon fill="white" stroke="#bfbfbf" points="469,-198.5 469,-217.5 499,-217.5 499,-198.5 469,-198.5"/>
<text text-anchor="middle" x="484" y="-205.5" font-family="Helvetica,sans-Serif" font-size="10.00">set</text>
</g>
<!-- Node15&#45;&gt;Node20 -->
<g id="edge24" class="edge"><title>Node15&#45;&gt;Node20</title>
<path fill="none" stroke="midnightblue" d="M629.456,-266.485C597.447,-257.779 548.273,-242.873 508,-224 507.021,-223.541 506.033,-223.051 505.045,-222.537"/>
<polygon fill="midnightblue" stroke="midnightblue" points="506.793,-219.504 496.383,-217.531 503.29,-225.565 506.793,-219.504"/>
</g>
<!-- Node21 -->
<g id="node21" class="node"><title>Node21</title>
<polygon fill="white" stroke="#bfbfbf" points="517,-198.5 517,-217.5 595,-217.5 595,-198.5 517,-198.5"/>
<text text-anchor="middle" x="556" y="-205.5" font-family="Helvetica,sans-Serif" font-size="10.00">unordered_set</text>
</g>
<!-- Node15&#45;&gt;Node21 -->
<g id="edge25" class="edge"><title>Node15&#45;&gt;Node21</title>
<path fill="none" stroke="midnightblue" d="M649.012,-266.372C631.149,-255.353 600.008,-236.145 578.72,-223.014"/>
<polygon fill="midnightblue" stroke="midnightblue" points="580.34,-219.901 569.992,-217.63 576.665,-225.859 580.34,-219.901"/>
</g>
<!-- Node22 -->
<g id="node22" class="node"><title>Node22</title>
<polygon fill="white" stroke="#bfbfbf" points="613,-198.5 613,-217.5 653,-217.5 653,-198.5 613,-198.5"/>
<text text-anchor="middle" x="633" y="-205.5" font-family="Helvetica,sans-Serif" font-size="10.00">utility</text>
</g>
<!-- Node15&#45;&gt;Node22 -->
<g id="edge26" class="edge"><title>Node15&#45;&gt;Node22</title>
<path fill="none" stroke="midnightblue" d="M659.078,-266.372C654.566,-256.446 647.034,-239.874 641.221,-227.086"/>
<polygon fill="midnightblue" stroke="midnightblue" points="644.343,-225.496 637.019,-217.841 637.97,-228.393 644.343,-225.496"/>
</g>
<!-- Node23 -->
<g id="node23" class="node"><title>Node23</title>
<polygon fill="white" stroke="#bfbfbf" points="671,-198.5 671,-217.5 715,-217.5 715,-198.5 671,-198.5"/>
<text text-anchor="middle" x="693" y="-205.5" font-family="Helvetica,sans-Serif" font-size="10.00">vector</text>
</g>
<!-- Node15&#45;&gt;Node23 -->
<g id="edge27" class="edge"><title>Node15&#45;&gt;Node23</title>
<path fill="none" stroke="midnightblue" d="M666.922,-266.372C671.434,-256.446 678.966,-239.874 684.779,-227.086"/>
<polygon fill="midnightblue" stroke="midnightblue" points="688.03,-228.393 688.981,-217.841 681.657,-225.496 688.03,-228.393"/>
</g>
<!-- Node24 -->
<g id="node24" class="node"><title>Node24</title>
<g id="a_node24"><a xlink:href="handle_8h.html" target="_top" xlink:title="shad/runtime/handle.h">
<polygon fill="white" stroke="black" points="1148.5,-130.5 1148.5,-149.5 1261.5,-149.5 1261.5,-130.5 1148.5,-130.5"/>
<text text-anchor="middle" x="1205" y="-137.5" font-family="Helvetica,sans-Serif" font-size="10.00">shad/runtime/handle.h</text>
</a>
</g>
</g>
<!-- Node15&#45;&gt;Node24 -->
<g id="edge29" class="edge"><title>Node15&#45;&gt;Node24</title>
<path fill="none" stroke="midnightblue" d="M721.269,-271.824C793.188,-266.748 918.648,-254.107 1022,-224 1081.7,-206.609 1146.98,-173.199 1181.13,-154.507"/>
<polygon fill="midnightblue" stroke="midnightblue" points="1182.85,-157.555 1189.91,-149.651 1179.46,-151.431 1182.85,-157.555"/>
</g>
<!-- Node25 -->
<g id="node25" class="node"><title>Node25</title>
<g id="a_node25"><a xlink:href="available__mappings_8h.html" target="_top" xlink:title="shad/runtime/mappings\l/available_mappings.h">
<polygon fill="white" stroke="black" points="1012,-125 1012,-155 1130,-155 1130,-125 1012,-125"/>
<text text-anchor="start" x="1020" y="-143" font-family="Helvetica,sans-Serif" font-size="10.00">shad/runtime/mappings</text>
<text text-anchor="middle" x="1071" y="-132" font-family="Helvetica,sans-Serif" font-size="10.00">/available_mappings.h</text>
</a>
</g>
</g>
<!-- Node15&#45;&gt;Node25 -->
<g id="edge36" class="edge"><title>Node15&#45;&gt;Node25</title>
<path fill="none" stroke="midnightblue" d="M721.294,-270.139C801.621,-262.714 941.575,-246.947 987,-224 1015.21,-209.747 1039.91,-182.555 1055.1,-163.18"/>
<polygon fill="midnightblue" stroke="midnightblue" points="1057.93,-165.239 1061.19,-155.16 1052.35,-161.003 1057.93,-165.239"/>
</g>
<!-- Node26 -->
<g id="node26" class="node"><title>Node26</title>
<g id="a_node26"><a xlink:href="synchronous__interface_8h.html" target="_top" xlink:title="shad/runtime/synchronous\l_interface.h">
<polygon fill="white" stroke="black" points="809.5,-193 809.5,-223 940.5,-223 940.5,-193 809.5,-193"/>
<text text-anchor="start" x="817.5" y="-211" font-family="Helvetica,sans-Serif" font-size="10.00">shad/runtime/synchronous</text>
<text text-anchor="middle" x="875" y="-200" font-family="Helvetica,sans-Serif" font-size="10.00">_interface.h</text>
</a>
</g>
</g>
<!-- Node15&#45;&gt;Node26 -->
<g id="edge38" class="edge"><title>Node15&#45;&gt;Node26</title>
<path fill="none" stroke="midnightblue" d="M690.715,-266.372C723.446,-256.182 778.676,-238.988 820.157,-226.074"/>
<polygon fill="midnightblue" stroke="midnightblue" points="821.342,-229.371 829.85,-223.056 819.261,-222.687 821.342,-229.371"/>
</g>
<!-- Node24&#45;&gt;Node6 -->
<g id="edge30" class="edge"><title>Node24&#45;&gt;Node6</title>
<path fill="none" stroke="midnightblue" d="M1219.9,-130.372C1239.11,-119.254 1272.71,-99.7997 1295.4,-86.6624"/>
<polygon fill="midnightblue" stroke="midnightblue" points="1297.19,-89.6699 1304.09,-81.6305 1293.68,-83.6119 1297.19,-89.6699"/>
</g>
<!-- Node24&#45;&gt;Node11 -->
<g id="edge31" class="edge"><title>Node24&#45;&gt;Node11</title>
<path fill="none" stroke="midnightblue" d="M1193.68,-130.479C1180.44,-120.466 1157.93,-103.276 1139,-88 1121.82,-74.1356 1119.62,-67.8614 1101,-56 1080.51,-42.9467 1055.61,-31.478 1036.17,-23.3856"/>
<polygon fill="midnightblue" stroke="midnightblue" points="1037.42,-20.1133 1026.84,-19.5818 1034.78,-26.596 1037.42,-20.1133"/>
</g>
<!-- Node24&#45;&gt;Node12 -->
<g id="edge32" class="edge"><title>Node24&#45;&gt;Node12</title>
<path fill="none" stroke="midnightblue" d="M1205,-130.372C1205,-121.971 1205,-108.811 1205,-97.2126"/>
<polygon fill="midnightblue" stroke="midnightblue" points="1208.5,-97.1814 1205,-87.1815 1201.5,-97.1815 1208.5,-97.1814"/>
</g>
<!-- Node24&#45;&gt;Node14 -->
<g id="edge33" class="edge"><title>Node24&#45;&gt;Node14</title>
<path fill="none" stroke="midnightblue" d="M1181.08,-130.372C1153.18,-120.311 1106.35,-103.422 1070.71,-90.5662"/>
<polygon fill="midnightblue" stroke="midnightblue" points="1071.57,-87.1565 1060.97,-87.0562 1069.19,-93.7414 1071.57,-87.1565"/>
</g>
<!-- Node25&#45;&gt;Node14 -->
<g id="edge37" class="edge"><title>Node25&#45;&gt;Node14</title>
<path fill="none" stroke="midnightblue" d="M1060.37,-124.679C1054.01,-116.117 1045.8,-105.053 1038.6,-95.3604"/>
<polygon fill="midnightblue" stroke="midnightblue" points="1041.38,-93.2358 1032.61,-87.2931 1035.76,-97.4086 1041.38,-93.2358"/>
</g>
<!-- Node26&#45;&gt;Node9 -->
<g id="edge42" class="edge"><title>Node26&#45;&gt;Node9</title>
<path fill="none" stroke="midnightblue" d="M873.047,-192.679C871.741,-183.101 870.008,-170.394 868.588,-159.977"/>
<polygon fill="midnightblue" stroke="midnightblue" points="872.023,-159.264 867.204,-149.828 865.087,-160.21 872.023,-159.264"/>
</g>
<!-- Node26&#45;&gt;Node10 -->
<g id="edge40" class="edge"><title>Node26&#45;&gt;Node10</title>
<path fill="none" stroke="midnightblue" d="M843.359,-192.838C827.76,-184.305 809.984,-171.973 799,-156 785.745,-136.725 781.617,-109.563 780.397,-91.6314"/>
<polygon fill="midnightblue" stroke="midnightblue" points="783.891,-91.4195 779.953,-81.5838 776.898,-91.7286 783.891,-91.4195"/>
</g>
<!-- Node26&#45;&gt;Node16 -->
<g id="edge39" class="edge"><title>Node26&#45;&gt;Node16</title>
<path fill="none" stroke="midnightblue" d="M843.25,-192.841C817.306,-181.272 780.943,-165.055 755.826,-153.855"/>
<polygon fill="midnightblue" stroke="midnightblue" points="757.027,-150.558 746.468,-149.682 754.176,-156.951 757.027,-150.558"/>
</g>
<!-- Node26&#45;&gt;Node19 -->
<g id="edge41" class="edge"><title>Node26&#45;&gt;Node19</title>
<path fill="none" stroke="midnightblue" d="M895.18,-192.679C910.631,-181.713 931.864,-166.645 947.415,-155.609"/>
<polygon fill="midnightblue" stroke="midnightblue" points="949.699,-158.28 955.828,-149.638 945.648,-152.571 949.699,-158.28"/>
</g>
</g>
</svg>
