<?xml version="1.0" encoding="UTF-8" standalone="no"?>
<!DOCTYPE svg PUBLIC "-//W3C//DTD SVG 1.1//EN"
 "http://www.w3.org/Graphics/SVG/1.1/DTD/svg11.dtd">
<!-- Generated by graphviz version 2.36.0 (20140111.2315)
 -->
<!-- Title: include/shad/extensions/graph_library/algorithms/sssp.h Pages: 1 -->
<svg width="2504pt" height="582pt"
 viewBox="0.00 0.00 2504.19 582.00" xmlns="http://www.w3.org/2000/svg" xmlns:xlink="http://www.w3.org/1999/xlink">
<g id="graph0" class="graph" transform="scale(1 1) rotate(0) translate(4 578)">
<title>include/shad/extensions/graph_library/algorithms/sssp.h</title>
<polygon fill="white" stroke="none" points="-4,4 -4,-578 2500.19,-578 2500.19,4 -4,4"/>
<!-- Node1 -->
<g id="node1" class="node"><title>Node1</title>
<polygon fill="#bfbfbf" stroke="black" points="2051.69,-532.5 2051.69,-573.5 2174.69,-573.5 2174.69,-532.5 2051.69,-532.5"/>
<text text-anchor="start" x="2059.69" y="-561.5" font-family="Helvetica,sans-Serif" font-size="10.00">include/shad/extensions</text>
<text text-anchor="start" x="2059.69" y="-550.5" font-family="Helvetica,sans-Serif" font-size="10.00">/graph_library/algorithms</text>
<text text-anchor="middle" x="2113.19" y="-539.5" font-family="Helvetica,sans-Serif" font-size="10.00">/sssp.h</text>
</g>
<!-- Node2 -->
<g id="node2" class="node"><title>Node2</title>
<polygon fill="white" stroke="#bfbfbf" points="600.191,-266.5 600.191,-285.5 646.191,-285.5 646.191,-266.5 600.191,-266.5"/>
<text text-anchor="middle" x="623.191" y="-273.5" font-family="Helvetica,sans-Serif" font-size="10.00">atomic</text>
</g>
<!-- Node1&#45;&gt;Node2 -->
<g id="edge1" class="edge"><title>Node1&#45;&gt;Node2</title>
<path fill="none" stroke="midnightblue" d="M2051.44,-550.861C1825.3,-546.46 1042.77,-529.133 795.191,-496 611.579,-471.427 485.876,-524.76 401.191,-360 363.708,-287.075 519.09,-277.389 589.796,-276.678"/>
<polygon fill="midnightblue" stroke="midnightblue" points="589.994,-280.177 599.978,-276.632 589.962,-273.177 589.994,-280.177"/>
</g>
<!-- Node3 -->
<g id="node3" class="node"><title>Node3</title>
<polygon fill="white" stroke="#bfbfbf" points="2376.19,-470.5 2376.19,-489.5 2426.19,-489.5 2426.19,-470.5 2376.19,-470.5"/>
<text text-anchor="middle" x="2401.19" y="-477.5" font-family="Helvetica,sans-Serif" font-size="10.00">fstream</text>
</g>
<!-- Node1&#45;&gt;Node3 -->
<g id="edge2" class="edge"><title>Node1&#45;&gt;Node3</title>
<path fill="none" stroke="midnightblue" d="M2174.73,-540.762C2225.52,-530.867 2299.22,-515.08 2362.19,-496 2365.15,-495.103 2368.21,-494.089 2371.24,-493.022"/>
<polygon fill="midnightblue" stroke="midnightblue" points="2372.58,-496.261 2380.74,-489.51 2370.15,-489.695 2372.58,-496.261"/>
</g>
<!-- Node4 -->
<g id="node4" class="node"><title>Node4</title>
<polygon fill="white" stroke="#bfbfbf" points="2177.19,-198.5 2177.19,-217.5 2231.19,-217.5 2231.19,-198.5 2177.19,-198.5"/>
<text text-anchor="middle" x="2204.19" y="-205.5" font-family="Helvetica,sans-Serif" font-size="10.00">iostream</text>
</g>
<!-- Node1&#45;&gt;Node4 -->
<g id="edge3" class="edge"><title>Node1&#45;&gt;Node4</title>
<path fill="none" stroke="midnightblue" d="M2174.93,-542.761C2244.56,-528.437 2348.19,-493.582 2348.19,-413 2348.19,-413 2348.19,-413 2348.19,-343 2348.19,-305.055 2352.88,-288.812 2328.19,-260 2306.13,-234.262 2269.05,-221.303 2241.17,-214.913"/>
<polygon fill="midnightblue" stroke="midnightblue" points="2241.87,-211.483 2231.36,-212.845 2240.42,-218.333 2241.87,-211.483"/>
</g>
<!-- Node5 -->
<g id="node5" class="node"><title>Node5</title>
<polygon fill="white" stroke="#bfbfbf" points="2444.19,-470.5 2444.19,-489.5 2496.19,-489.5 2496.19,-470.5 2444.19,-470.5"/>
<text text-anchor="middle" x="2470.19" y="-477.5" font-family="Helvetica,sans-Serif" font-size="10.00">sstream</text>
</g>
<!-- Node1&#45;&gt;Node5 -->
<g id="edge4" class="edge"><title>Node1&#45;&gt;Node5</title>
<path fill="none" stroke="midnightblue" d="M2174.7,-545.618C2240.23,-537.825 2346.53,-522.318 2435.19,-496 2437.69,-495.259 2440.24,-494.392 2442.78,-493.453"/>
<polygon fill="midnightblue" stroke="midnightblue" points="2444.36,-496.592 2452.32,-489.606 2441.74,-490.1 2444.36,-496.592"/>
</g>
<!-- Node6 -->
<g id="node6" class="node"><title>Node6</title>
<polygon fill="white" stroke="#bfbfbf" points="1958.19,-198.5 1958.19,-217.5 1998.19,-217.5 1998.19,-198.5 1958.19,-198.5"/>
<text text-anchor="middle" x="1978.19" y="-205.5" font-family="Helvetica,sans-Serif" font-size="10.00">utility</text>
</g>
<!-- Node1&#45;&gt;Node6 -->
<g id="edge5" class="edge"><title>Node1&#45;&gt;Node6</title>
<path fill="none" stroke="midnightblue" d="M2110.97,-532.225C2104.74,-483.081 2083.85,-352.697 2029.19,-260 2020.98,-246.076 2008.08,-233.226 1997.31,-223.908"/>
<polygon fill="midnightblue" stroke="midnightblue" points="1999.53,-221.203 1989.6,-217.511 1995.06,-226.59 1999.53,-221.203"/>
</g>
<!-- Node7 -->
<g id="node7" class="node"><title>Node7</title>
<g id="a_node7"><a xlink:href="data__structures_2array_8h.html" target="_top" xlink:title="shad/data_structures\l/array.h">
<polygon fill="white" stroke="black" points="1610.19,-465 1610.19,-495 1718.19,-495 1718.19,-465 1610.19,-465"/>
<text text-anchor="start" x="1618.19" y="-483" font-family="Helvetica,sans-Serif" font-size="10.00">shad/data_structures</text>
<text text-anchor="middle" x="1664.19" y="-472" font-family="Helvetica,sans-Serif" font-size="10.00">/array.h</text>
</a>
</g>
</g>
<!-- Node1&#45;&gt;Node7 -->
<g id="edge6" class="edge"><title>Node1&#45;&gt;Node7</title>
<path fill="none" stroke="midnightblue" d="M2051.23,-542.202C1966.3,-528.773 1814.49,-504.767 1728.4,-491.153"/>
<polygon fill="midnightblue" stroke="midnightblue" points="1728.92,-487.691 1718.49,-489.586 1727.82,-494.605 1728.92,-487.691"/>
</g>
<!-- Node19 -->
<g id="node19" class="node"><title>Node19</title>
<g id="a_node19"><a xlink:href="runtime_8h.html" target="_top" xlink:title="shad/runtime/runtime.h">
<polygon fill="white" stroke="black" points="1532.19,-266.5 1532.19,-285.5 1648.19,-285.5 1648.19,-266.5 1532.19,-266.5"/>
<text text-anchor="middle" x="1590.19" y="-273.5" font-family="Helvetica,sans-Serif" font-size="10.00">shad/runtime/runtime.h</text>
</a>
</g>
</g>
<!-- Node1&#45;&gt;Node19 -->
<g id="edge130" class="edge"><title>Node1&#45;&gt;Node19</title>
<path fill="none" stroke="midnightblue" d="M2101.45,-532.398C2073.55,-487.729 1998.49,-378.362 1904.19,-328 1862.81,-305.902 1738.09,-290.675 1658.85,-282.93"/>
<polygon fill="midnightblue" stroke="midnightblue" points="1658.75,-279.404 1648.46,-281.932 1658.08,-286.372 1658.75,-279.404"/>
</g>
<!-- Node36 -->
<g id="node36" class="node"><title>Node36</title>
<g id="a_node36"><a xlink:href="set_8h.html" target="_top" xlink:title="shad/data_structures\l/set.h">
<polygon fill="white" stroke="black" points="1017.19,-465 1017.19,-495 1125.19,-495 1125.19,-465 1017.19,-465"/>
<text text-anchor="start" x="1025.19" y="-483" font-family="Helvetica,sans-Serif" font-size="10.00">shad/data_structures</text>
<text text-anchor="middle" x="1071.19" y="-472" font-family="Helvetica,sans-Serif" font-size="10.00">/set.h</text>
</a>
</g>
</g>
<!-- Node1&#45;&gt;Node36 -->
<g id="edge67" class="edge"><title>Node1&#45;&gt;Node36</title>
<path fill="none" stroke="midnightblue" d="M2051.52,-547.798C1867.44,-535.255 1323.17,-498.169 1135.59,-485.388"/>
<polygon fill="midnightblue" stroke="midnightblue" points="1135.55,-481.878 1125.34,-484.69 1135.08,-488.861 1135.55,-481.878"/>
</g>
<!-- Node41 -->
<g id="node41" class="node"><title>Node41</title>
<g id="a_node41"><a xlink:href="edge__index_8h.html" target="_top" xlink:title="shad/extensions/graph\l_library/edge_index.h">
<polygon fill="white" stroke="black" points="804.691,-465 804.691,-495 919.691,-495 919.691,-465 804.691,-465"/>
<text text-anchor="start" x="812.691" y="-483" font-family="Helvetica,sans-Serif" font-size="10.00">shad/extensions/graph</text>
<text text-anchor="middle" x="862.191" y="-472" font-family="Helvetica,sans-Serif" font-size="10.00">_library/edge_index.h</text>
</a>
</g>
</g>
<!-- Node1&#45;&gt;Node41 -->
<g id="edge99" class="edge"><title>Node1&#45;&gt;Node41</title>
<path fill="none" stroke="midnightblue" d="M2051.42,-549.991C1883.59,-544.291 1405.13,-526.428 1008.19,-496 982.624,-494.04 954.596,-491.303 929.994,-488.703"/>
<polygon fill="midnightblue" stroke="midnightblue" points="930.35,-485.221 920.035,-487.638 929.606,-492.181 930.35,-485.221"/>
</g>
<!-- Node44 -->
<g id="node44" class="node"><title>Node44</title>
<g id="a_node44"><a xlink:href="measure_8h.html" target="_top" xlink:title="shad/util/measure.h">
<polygon fill="white" stroke="black" points="2160.19,-470.5 2160.19,-489.5 2262.19,-489.5 2262.19,-470.5 2160.19,-470.5"/>
<text text-anchor="middle" x="2211.19" y="-477.5" font-family="Helvetica,sans-Serif" font-size="10.00">shad/util/measure.h</text>
</a>
</g>
</g>
<!-- Node1&#45;&gt;Node44 -->
<g id="edge131" class="edge"><title>Node1&#45;&gt;Node44</title>
<path fill="none" stroke="midnightblue" d="M2140.23,-532.411C2156.28,-520.786 2176.28,-506.291 2190.96,-495.658"/>
<polygon fill="midnightblue" stroke="midnightblue" points="2193.28,-498.298 2199.33,-489.597 2189.17,-492.63 2193.28,-498.298"/>
</g>
<!-- Node7&#45;&gt;Node6 -->
<g id="edge13" class="edge"><title>Node7&#45;&gt;Node6</title>
<path fill="none" stroke="midnightblue" d="M1718.43,-476.328C1800.31,-471.359 1950.57,-458.31 1994.19,-428 2033.24,-400.869 2042.24,-374.471 2032.19,-328 2023.88,-289.561 2002.06,-248.615 1988.84,-226.183"/>
<polygon fill="midnightblue" stroke="midnightblue" points="1991.77,-224.263 1983.61,-217.508 1985.78,-227.879 1991.77,-224.263"/>
</g>
<!-- Node8 -->
<g id="node8" class="node"><title>Node8</title>
<polygon fill="white" stroke="#bfbfbf" points="354.191,-198.5 354.191,-217.5 410.191,-217.5 410.191,-198.5 354.191,-198.5"/>
<text text-anchor="middle" x="382.191" y="-205.5" font-family="Helvetica,sans-Serif" font-size="10.00">algorithm</text>
</g>
<!-- Node7&#45;&gt;Node8 -->
<g id="edge7" class="edge"><title>Node7&#45;&gt;Node8</title>
<path fill="none" stroke="midnightblue" d="M1610.04,-477.64C1428.2,-472.86 840.421,-455.609 653.191,-428 528.635,-409.633 461.47,-454.426 378.191,-360 345.451,-322.877 363.163,-258.412 374.729,-227.103"/>
<polygon fill="midnightblue" stroke="midnightblue" points="378.098,-228.098 378.471,-217.51 371.576,-225.554 378.098,-228.098"/>
</g>
<!-- Node9 -->
<g id="node9" class="node"><title>Node9</title>
<polygon fill="white" stroke="#bfbfbf" points="778.191,-198.5 778.191,-217.5 824.191,-217.5 824.191,-198.5 778.191,-198.5"/>
<text text-anchor="middle" x="801.191" y="-205.5" font-family="Helvetica,sans-Serif" font-size="10.00">cstring</text>
</g>
<!-- Node7&#45;&gt;Node9 -->
<g id="edge8" class="edge"><title>Node7&#45;&gt;Node9</title>
<path fill="none" stroke="midnightblue" d="M1665.95,-464.912C1668.79,-435.575 1670.94,-367.389 1636.19,-328 1601.32,-288.473 1569.34,-317.462 1523.19,-292 1503.86,-281.334 1505.66,-268.285 1485.19,-260 1378.23,-216.703 1082.21,-233.193 967.191,-224 921.122,-220.318 867.924,-215.392 834.424,-212.207"/>
<polygon fill="midnightblue" stroke="midnightblue" points="834.561,-208.704 824.273,-211.238 833.895,-215.673 834.561,-208.704"/>
</g>
<!-- Node10 -->
<g id="node10" class="node"><title>Node10</title>
<polygon fill="white" stroke="#bfbfbf" points="166.691,-130.5 166.691,-149.5 225.691,-149.5 225.691,-130.5 166.691,-130.5"/>
<text text-anchor="middle" x="196.191" y="-137.5" font-family="Helvetica,sans-Serif" font-size="10.00">functional</text>
</g>
<!-- Node7&#45;&gt;Node10 -->
<g id="edge9" class="edge"><title>Node7&#45;&gt;Node10</title>
<path fill="none" stroke="midnightblue" d="M1609.81,-477.396C1377.05,-470.452 473.845,-442.67 415.191,-428 280.202,-394.237 207.189,-409.84 133.191,-292 104.594,-246.459 152.745,-185.697 179.771,-157.131"/>
<polygon fill="midnightblue" stroke="midnightblue" points="182.585,-159.259 187.063,-149.658 177.575,-154.371 182.585,-159.259"/>
</g>
<!-- Node11 -->
<g id="node11" class="node"><title>Node11</title>
<polygon fill="white" stroke="#bfbfbf" points="2111.69,-198.5 2111.69,-217.5 2158.69,-217.5 2158.69,-198.5 2111.69,-198.5"/>
<text text-anchor="middle" x="2135.19" y="-205.5" font-family="Helvetica,sans-Serif" font-size="10.00">iterator</text>
</g>
<!-- Node7&#45;&gt;Node11 -->
<g id="edge10" class="edge"><title>Node7&#45;&gt;Node11</title>
<path fill="none" stroke="midnightblue" d="M1718.45,-477.354C1806.68,-473.7 1976.26,-462.305 2024.19,-428 2094.19,-377.898 2122.83,-270.554 2131.8,-227.463"/>
<polygon fill="midnightblue" stroke="midnightblue" points="2135.25,-228.023 2133.75,-217.536 2128.39,-226.675 2135.25,-228.023"/>
</g>
<!-- Node12 -->
<g id="node12" class="node"><title>Node12</title>
<polygon fill="white" stroke="#bfbfbf" points="1082.19,-130.5 1082.19,-149.5 1134.19,-149.5 1134.19,-130.5 1082.19,-130.5"/>
<text text-anchor="middle" x="1108.19" y="-137.5" font-family="Helvetica,sans-Serif" font-size="10.00">memory</text>
</g>
<!-- Node7&#45;&gt;Node12 -->
<g id="edge11" class="edge"><title>Node7&#45;&gt;Node12</title>
<path fill="none" stroke="midnightblue" d="M1718.42,-475.227C1781.89,-469.551 1881.27,-456.303 1904.19,-428 1932.16,-393.461 1931.14,-363.339 1904.19,-328 1785.74,-172.693 1653.14,-308.816 1477.19,-224 1457.3,-214.412 1459.29,-201.132 1439.19,-192 1339.61,-146.763 1207.64,-140.471 1144.66,-140.314"/>
<polygon fill="midnightblue" stroke="midnightblue" points="1144.44,-136.814 1134.44,-140.342 1144.45,-143.814 1144.44,-136.814"/>
</g>
<!-- Node13 -->
<g id="node13" class="node"><title>Node13</title>
<polygon fill="white" stroke="#bfbfbf" points="930.191,-266.5 930.191,-285.5 968.191,-285.5 968.191,-266.5 930.191,-266.5"/>
<text text-anchor="middle" x="949.191" y="-273.5" font-family="Helvetica,sans-Serif" font-size="10.00">tuple</text>
</g>
<!-- Node7&#45;&gt;Node13 -->
<g id="edge12" class="edge"><title>Node7&#45;&gt;Node13</title>
<path fill="none" stroke="midnightblue" d="M1609.96,-476.874C1471.48,-471.096 1112.35,-453.785 1065.19,-428 1009.7,-397.663 972.37,-328.348 957.042,-295.248"/>
<polygon fill="midnightblue" stroke="midnightblue" points="960.124,-293.566 952.844,-285.869 953.735,-296.426 960.124,-293.566"/>
</g>
<!-- Node14 -->
<g id="node14" class="node"><title>Node14</title>
<polygon fill="white" stroke="#bfbfbf" points="976.191,-198.5 976.191,-217.5 1020.19,-217.5 1020.19,-198.5 976.191,-198.5"/>
<text text-anchor="middle" x="998.191" y="-205.5" font-family="Helvetica,sans-Serif" font-size="10.00">vector</text>
</g>
<!-- Node7&#45;&gt;Node14 -->
<g id="edge14" class="edge"><title>Node7&#45;&gt;Node14</title>
<path fill="none" stroke="midnightblue" d="M1609.97,-474.358C1553.1,-468.27 1461.79,-455.012 1387.19,-428 1367.5,-420.869 1103.59,-269.569 1022.03,-222.71"/>
<polygon fill="midnightblue" stroke="midnightblue" points="1023.43,-219.478 1013.02,-217.53 1019.95,-225.547 1023.43,-219.478"/>
</g>
<!-- Node15 -->
<g id="node15" class="node"><title>Node15</title>
<g id="a_node15"><a xlink:href="abstract__data__structure_8h.html" target="_top" xlink:title="shad/data_structures\l/abstract_data_structure.h">
<polygon fill="white" stroke="black" points="1396.69,-397 1396.69,-427 1527.69,-427 1527.69,-397 1396.69,-397"/>
<text text-anchor="start" x="1404.69" y="-415" font-family="Helvetica,sans-Serif" font-size="10.00">shad/data_structures</text>
<text text-anchor="middle" x="1462.19" y="-404" font-family="Helvetica,sans-Serif" font-size="10.00">/abstract_data_structure.h</text>
</a>
</g>
</g>
<!-- Node7&#45;&gt;Node15 -->
<g id="edge15" class="edge"><title>Node7&#45;&gt;Node15</title>
<path fill="none" stroke="midnightblue" d="M1620.86,-464.841C1589.87,-454.715 1547.98,-441.03 1515.02,-430.262"/>
<polygon fill="midnightblue" stroke="midnightblue" points="1515.7,-426.801 1505.11,-427.022 1513.53,-433.455 1515.7,-426.801"/>
</g>
<!-- Node7&#45;&gt;Node19 -->
<g id="edge66" class="edge"><title>Node7&#45;&gt;Node19</title>
<path fill="none" stroke="midnightblue" d="M1718.41,-473.79C1775.67,-467.035 1860.37,-453.04 1880.19,-428 1907.77,-393.149 1908.94,-361.891 1880.19,-328 1848.43,-290.559 1710.46,-301.009 1662.19,-292 1654.86,-290.632 1647.13,-289.107 1639.56,-287.568"/>
<polygon fill="midnightblue" stroke="midnightblue" points="1640.24,-284.137 1629.74,-285.55 1638.83,-290.993 1640.24,-284.137"/>
</g>
<!-- Node34 -->
<g id="node34" class="node"><title>Node34</title>
<g id="a_node34"><a xlink:href="buffer_8h.html" target="_top" xlink:title="shad/data_structures\l/buffer.h">
<polygon fill="white" stroke="black" points="1074.19,-397 1074.19,-427 1182.19,-427 1182.19,-397 1074.19,-397"/>
<text text-anchor="start" x="1082.19" y="-415" font-family="Helvetica,sans-Serif" font-size="10.00">shad/data_structures</text>
<text text-anchor="middle" x="1128.19" y="-404" font-family="Helvetica,sans-Serif" font-size="10.00">/buffer.h</text>
</a>
</g>
</g>
<!-- Node7&#45;&gt;Node34 -->
<g id="edge59" class="edge"><title>Node7&#45;&gt;Node34</title>
<path fill="none" stroke="midnightblue" d="M1609.97,-474.245C1524.37,-466.442 1352.76,-449.608 1208.19,-428 1203.08,-427.236 1197.8,-426.385 1192.5,-425.486"/>
<polygon fill="midnightblue" stroke="midnightblue" points="1192.77,-421.981 1182.32,-423.71 1191.57,-428.877 1192.77,-421.981"/>
</g>
<!-- Node15&#45;&gt;Node6 -->
<g id="edge20" class="edge"><title>Node15&#45;&gt;Node6</title>
<path fill="none" stroke="midnightblue" d="M1527.8,-398.272C1565.37,-389.812 1612.91,-377.094 1653.19,-360 1707.15,-337.103 1716.68,-323.376 1766.19,-292 1787.85,-278.275 1790.98,-270.888 1814.19,-260 1864.99,-236.173 1881.8,-241.245 1935.19,-224 1939.54,-222.595 1944.12,-221.06 1948.6,-219.525"/>
<polygon fill="midnightblue" stroke="midnightblue" points="1949.83,-222.802 1958.13,-216.215 1947.54,-216.189 1949.83,-222.802"/>
</g>
<!-- Node15&#45;&gt;Node12 -->
<g id="edge18" class="edge"><title>Node15&#45;&gt;Node12</title>
<path fill="none" stroke="midnightblue" d="M1460.64,-396.808C1458.02,-378.909 1451.22,-348.056 1434.19,-328 1392.5,-278.893 1366.35,-283.045 1306.19,-260 1244.18,-236.246 1215.12,-262.74 1161.19,-224 1138.35,-207.589 1122.97,-177.988 1114.9,-158.931"/>
<polygon fill="midnightblue" stroke="midnightblue" points="1118.13,-157.569 1111.17,-149.579 1111.63,-160.164 1118.13,-157.569"/>
</g>
<!-- Node15&#45;&gt;Node13 -->
<g id="edge19" class="edge"><title>Node15&#45;&gt;Node13</title>
<path fill="none" stroke="midnightblue" d="M1404.74,-396.986C1368.39,-387.63 1320.62,-374.428 1279.19,-360 1244.58,-347.945 1238.22,-338.773 1203.19,-328 1123.46,-303.48 1025.93,-287.72 978.248,-280.897"/>
<polygon fill="midnightblue" stroke="midnightblue" points="978.704,-277.426 968.314,-279.502 977.73,-284.358 978.704,-277.426"/>
</g>
<!-- Node15&#45;&gt;Node14 -->
<g id="edge21" class="edge"><title>Node15&#45;&gt;Node14</title>
<path fill="none" stroke="midnightblue" d="M1455.7,-396.764C1446.73,-378.532 1428.92,-347.025 1405.19,-328 1342.02,-277.357 1313.61,-283.68 1236.19,-260 1164.02,-237.927 1076.72,-221.831 1030.52,-214.115"/>
<polygon fill="midnightblue" stroke="midnightblue" points="1030.93,-210.636 1020.5,-212.465 1029.8,-217.543 1030.93,-210.636"/>
</g>
<!-- Node16 -->
<g id="node16" class="node"><title>Node16</title>
<polygon fill="white" stroke="#bfbfbf" points="1566.69,-334.5 1566.69,-353.5 1609.69,-353.5 1609.69,-334.5 1566.69,-334.5"/>
<text text-anchor="middle" x="1588.19" y="-341.5" font-family="Helvetica,sans-Serif" font-size="10.00">deque</text>
</g>
<!-- Node15&#45;&gt;Node16 -->
<g id="edge16" class="edge"><title>Node15&#45;&gt;Node16</title>
<path fill="none" stroke="midnightblue" d="M1489.22,-396.841C1510.92,-385.476 1541.17,-369.628 1562.51,-358.454"/>
<polygon fill="midnightblue" stroke="midnightblue" points="1564.38,-361.422 1571.62,-353.682 1561.13,-355.222 1564.38,-361.422"/>
</g>
<!-- Node17 -->
<g id="node17" class="node"><title>Node17</title>
<polygon fill="white" stroke="#bfbfbf" points="1436.19,-266.5 1436.19,-285.5 1476.19,-285.5 1476.19,-266.5 1436.19,-266.5"/>
<text text-anchor="middle" x="1456.19" y="-273.5" font-family="Helvetica,sans-Serif" font-size="10.00">limits</text>
</g>
<!-- Node15&#45;&gt;Node17 -->
<g id="edge17" class="edge"><title>Node15&#45;&gt;Node17</title>
<path fill="none" stroke="midnightblue" d="M1527.71,-400.475C1582.43,-388.768 1647.18,-366.27 1618.19,-328 1582.51,-280.894 1545.81,-311.977 1490.19,-292 1488.07,-291.238 1485.89,-290.405 1483.72,-289.534"/>
<polygon fill="midnightblue" stroke="midnightblue" points="1484.92,-286.243 1474.35,-285.578 1482.2,-292.692 1484.92,-286.243"/>
</g>
<!-- Node18 -->
<g id="node18" class="node"><title>Node18</title>
<g id="a_node18"><a xlink:href="object__identifier_8h.html" target="_top" xlink:title="shad/data_structures\l/object_identifier.h">
<polygon fill="white" stroke="black" points="1288.19,-329 1288.19,-359 1396.19,-359 1396.19,-329 1288.19,-329"/>
<text text-anchor="start" x="1296.19" y="-347" font-family="Helvetica,sans-Serif" font-size="10.00">shad/data_structures</text>
<text text-anchor="middle" x="1342.19" y="-336" font-family="Helvetica,sans-Serif" font-size="10.00">/object_identifier.h</text>
</a>
</g>
</g>
<!-- Node15&#45;&gt;Node18 -->
<g id="edge22" class="edge"><title>Node15&#45;&gt;Node18</title>
<path fill="none" stroke="midnightblue" d="M1436.45,-396.841C1419.05,-387.272 1395.87,-374.523 1376.85,-364.062"/>
<polygon fill="midnightblue" stroke="midnightblue" points="1378.34,-360.888 1367.89,-359.135 1374.97,-367.021 1378.34,-360.888"/>
</g>
<!-- Node15&#45;&gt;Node19 -->
<g id="edge58" class="edge"><title>Node15&#45;&gt;Node19</title>
<path fill="none" stroke="midnightblue" d="M1527.93,-400.125C1571.45,-391.43 1622.89,-377.763 1636.19,-360 1652.61,-338.078 1628.3,-309.624 1609.24,-292.368"/>
<polygon fill="midnightblue" stroke="midnightblue" points="1611.39,-289.595 1601.53,-285.71 1606.81,-294.894 1611.39,-289.595"/>
</g>
<!-- Node18&#45;&gt;Node2 -->
<g id="edge23" class="edge"><title>Node18&#45;&gt;Node2</title>
<path fill="none" stroke="midnightblue" d="M1288.09,-336.91C1262.38,-334.081 1231.21,-330.744 1203.19,-328 995.346,-307.649 745.219,-286.929 656.428,-279.691"/>
<polygon fill="midnightblue" stroke="midnightblue" points="656.664,-276.199 646.413,-278.876 656.096,-283.175 656.664,-276.199"/>
</g>
<!-- Node18&#45;&gt;Node17 -->
<g id="edge24" class="edge"><title>Node18&#45;&gt;Node17</title>
<path fill="none" stroke="midnightblue" d="M1366.65,-328.841C1386.1,-317.579 1413.16,-301.913 1432.43,-290.757"/>
<polygon fill="midnightblue" stroke="midnightblue" points="1434.29,-293.721 1441.2,-285.682 1430.79,-287.663 1434.29,-293.721"/>
</g>
<!-- Node18&#45;&gt;Node19 -->
<g id="edge25" class="edge"><title>Node18&#45;&gt;Node19</title>
<path fill="none" stroke="midnightblue" d="M1395.09,-328.922C1440.92,-316.725 1506.32,-299.32 1548.52,-288.09"/>
<polygon fill="midnightblue" stroke="midnightblue" points="1549.44,-291.468 1558.2,-285.514 1547.64,-284.703 1549.44,-291.468"/>
</g>
<!-- Node19&#45;&gt;Node4 -->
<g id="edge29" class="edge"><title>Node19&#45;&gt;Node4</title>
<path fill="none" stroke="midnightblue" d="M1648.43,-275.511C1753.58,-275.192 1981.45,-268.798 2167.19,-224 2170.26,-223.26 2173.41,-222.309 2176.51,-221.245"/>
<polygon fill="midnightblue" stroke="midnightblue" points="2178.01,-224.418 2186.1,-217.583 2175.51,-217.879 2178.01,-224.418"/>
</g>
<!-- Node19&#45;&gt;Node6 -->
<g id="edge35" class="edge"><title>Node19&#45;&gt;Node6</title>
<path fill="none" stroke="midnightblue" d="M1648.5,-267.021C1745.33,-253.71 1930.15,-228.028 1944.19,-224 1946.69,-223.284 1949.24,-222.423 1951.77,-221.479"/>
<polygon fill="midnightblue" stroke="midnightblue" points="1953.33,-224.621 1961.23,-217.566 1950.65,-218.152 1953.33,-224.621"/>
</g>
<!-- Node19&#45;&gt;Node10 -->
<g id="edge28" class="edge"><title>Node19&#45;&gt;Node10</title>
<path fill="none" stroke="midnightblue" d="M1552.96,-266.467C1541.82,-264.124 1529.55,-261.751 1518.19,-260 1360.58,-235.704 1318.41,-250.714 1161.19,-224 1101.25,-213.816 1088.38,-200.62 1028.19,-192 700.922,-145.125 613.886,-191.535 285.191,-156 268.99,-154.248 251.263,-151.444 235.925,-148.732"/>
<polygon fill="midnightblue" stroke="midnightblue" points="236.2,-145.225 225.736,-146.883 234.95,-152.113 236.2,-145.225"/>
</g>
<!-- Node19&#45;&gt;Node11 -->
<g id="edge30" class="edge"><title>Node19&#45;&gt;Node11</title>
<path fill="none" stroke="midnightblue" d="M1648.26,-267.968C1762.1,-254.182 2011.37,-223.994 2101.68,-213.058"/>
<polygon fill="midnightblue" stroke="midnightblue" points="2102.14,-216.529 2111.64,-211.852 2101.29,-209.58 2102.14,-216.529"/>
</g>
<!-- Node19&#45;&gt;Node12 -->
<g id="edge32" class="edge"><title>Node19&#45;&gt;Node12</title>
<path fill="none" stroke="midnightblue" d="M1552.57,-266.497C1541.53,-264.182 1529.41,-261.816 1518.19,-260 1381.27,-237.833 1335.72,-278.549 1208.19,-224 1189.54,-216.023 1147.76,-178.308 1124.54,-156.563"/>
<polygon fill="midnightblue" stroke="midnightblue" points="1126.85,-153.926 1117.17,-149.612 1122.04,-159.019 1126.85,-153.926"/>
</g>
<!-- Node19&#45;&gt;Node14 -->
<g id="edge36" class="edge"><title>Node19&#45;&gt;Node14</title>
<path fill="none" stroke="midnightblue" d="M1553.34,-266.491C1542.1,-264.122 1529.68,-261.727 1518.19,-260 1347.81,-234.389 1303.59,-241.585 1132.19,-224 1097.45,-220.436 1057.69,-215.931 1030.56,-212.793"/>
<polygon fill="midnightblue" stroke="midnightblue" points="1030.8,-209.298 1020.47,-211.621 1029.99,-216.251 1030.8,-209.298"/>
</g>
<!-- Node20 -->
<g id="node20" class="node"><title>Node20</title>
<polygon fill="white" stroke="#bfbfbf" points="1547.69,-130.5 1547.69,-149.5 1596.69,-149.5 1596.69,-130.5 1547.69,-130.5"/>
<text text-anchor="middle" x="1572.19" y="-137.5" font-family="Helvetica,sans-Serif" font-size="10.00">cstddef</text>
</g>
<!-- Node19&#45;&gt;Node20 -->
<g id="edge26" class="edge"><title>Node19&#45;&gt;Node20</title>
<path fill="none" stroke="midnightblue" d="M1598.94,-266.282C1612.99,-251.168 1637.88,-219.117 1626.19,-192 1619.74,-177.039 1606.51,-164.424 1594.75,-155.483"/>
<polygon fill="midnightblue" stroke="midnightblue" points="1596.75,-152.606 1586.58,-149.641 1592.68,-158.302 1596.75,-152.606"/>
</g>
<!-- Node21 -->
<g id="node21" class="node"><title>Node21</title>
<polygon fill="white" stroke="#bfbfbf" points="1288.19,-62.5 1288.19,-81.5 1334.19,-81.5 1334.19,-62.5 1288.19,-62.5"/>
<text text-anchor="middle" x="1311.19" y="-69.5" font-family="Helvetica,sans-Serif" font-size="10.00">cstdint</text>
</g>
<!-- Node19&#45;&gt;Node21 -->
<g id="edge27" class="edge"><title>Node19&#45;&gt;Node21</title>
<path fill="none" stroke="midnightblue" d="M1551.81,-266.438C1540.97,-264.175 1529.14,-261.85 1518.19,-260 1456.98,-249.662 1282.16,-270.635 1241.19,-224 1204.6,-182.351 1262.17,-118.319 1293.32,-88.8452"/>
<polygon fill="midnightblue" stroke="midnightblue" points="1295.97,-91.1631 1300.95,-81.8123 1291.22,-86.0158 1295.97,-91.1631"/>
</g>
<!-- Node22 -->
<g id="node22" class="node"><title>Node22</title>
<polygon fill="white" stroke="#bfbfbf" points="1250.69,-198.5 1250.69,-217.5 1285.69,-217.5 1285.69,-198.5 1250.69,-198.5"/>
<text text-anchor="middle" x="1268.19" y="-205.5" font-family="Helvetica,sans-Serif" font-size="10.00">map</text>
</g>
<!-- Node19&#45;&gt;Node22 -->
<g id="edge31" class="edge"><title>Node19&#45;&gt;Node22</title>
<path fill="none" stroke="midnightblue" d="M1550.64,-266.424C1540.12,-264.234 1528.74,-261.949 1518.19,-260 1419.47,-241.757 1390.05,-256.872 1295.19,-224 1293.73,-223.495 1292.26,-222.915 1290.8,-222.282"/>
<polygon fill="midnightblue" stroke="midnightblue" points="1292,-218.967 1281.5,-217.592 1288.85,-225.218 1292,-218.967"/>
</g>
<!-- Node23 -->
<g id="node23" class="node"><title>Node23</title>
<polygon fill="white" stroke="#bfbfbf" points="1304.19,-198.5 1304.19,-217.5 1334.19,-217.5 1334.19,-198.5 1304.19,-198.5"/>
<text text-anchor="middle" x="1319.19" y="-205.5" font-family="Helvetica,sans-Serif" font-size="10.00">set</text>
</g>
<!-- Node19&#45;&gt;Node23 -->
<g id="edge33" class="edge"><title>Node19&#45;&gt;Node23</title>
<path fill="none" stroke="midnightblue" d="M1549.45,-266.494C1539.25,-264.368 1528.32,-262.097 1518.19,-260 1440.43,-243.902 1416.91,-253.508 1343.19,-224 1342.14,-223.58 1341.09,-223.114 1340.04,-222.615"/>
<polygon fill="midnightblue" stroke="midnightblue" points="1341.39,-219.358 1330.95,-217.512 1337.96,-225.461 1341.39,-219.358"/>
</g>
<!-- Node24 -->
<g id="node24" class="node"><title>Node24</title>
<polygon fill="white" stroke="#bfbfbf" points="1352.19,-198.5 1352.19,-217.5 1430.19,-217.5 1430.19,-198.5 1352.19,-198.5"/>
<text text-anchor="middle" x="1391.19" y="-205.5" font-family="Helvetica,sans-Serif" font-size="10.00">unordered_set</text>
</g>
<!-- Node19&#45;&gt;Node24 -->
<g id="edge34" class="edge"><title>Node19&#45;&gt;Node24</title>
<path fill="none" stroke="midnightblue" d="M1564.18,-266.372C1528.92,-254.679 1465.85,-233.762 1426.39,-220.674"/>
<polygon fill="midnightblue" stroke="midnightblue" points="1427.49,-217.352 1416.9,-217.526 1425.29,-223.996 1427.49,-217.352"/>
</g>
<!-- Node25 -->
<g id="node25" class="node"><title>Node25</title>
<polygon fill="white" stroke="#bfbfbf" points="1770.19,-0.5 1770.19,-19.5 1874.19,-19.5 1874.19,-0.5 1770.19,-0.5"/>
<text text-anchor="middle" x="1822.19" y="-7.5" font-family="Helvetica,sans-Serif" font-size="10.00">shad/config/config.h</text>
</g>
<!-- Node19&#45;&gt;Node25 -->
<g id="edge37" class="edge"><title>Node19&#45;&gt;Node25</title>
<path fill="none" stroke="midnightblue" d="M1600.65,-266.369C1611.83,-256.793 1629.64,-240.505 1642.19,-224 1693.86,-156.077 1674,-115.489 1735.19,-56 1749.87,-41.7314 1769.98,-30.9319 1787.17,-23.4938"/>
<polygon fill="midnightblue" stroke="midnightblue" points="1788.97,-26.5386 1796.89,-19.5019 1786.31,-20.0634 1788.97,-26.5386"/>
</g>
<!-- Node26 -->
<g id="node26" class="node"><title>Node26</title>
<g id="a_node26"><a xlink:href="handle_8h.html" target="_top" xlink:title="shad/runtime/handle.h">
<polygon fill="white" stroke="black" points="1712.69,-198.5 1712.69,-217.5 1825.69,-217.5 1825.69,-198.5 1712.69,-198.5"/>
<text text-anchor="middle" x="1769.19" y="-205.5" font-family="Helvetica,sans-Serif" font-size="10.00">shad/runtime/handle.h</text>
</a>
</g>
</g>
<!-- Node19&#45;&gt;Node26 -->
<g id="edge38" class="edge"><title>Node19&#45;&gt;Node26</title>
<path fill="none" stroke="midnightblue" d="M1613.59,-266.372C1645.04,-254.778 1701.07,-234.116 1736.62,-221.009"/>
<polygon fill="midnightblue" stroke="midnightblue" points="1737.9,-224.269 1746.07,-217.526 1735.47,-217.702 1737.9,-224.269"/>
</g>
<!-- Node28 -->
<g id="node28" class="node"><title>Node28</title>
<g id="a_node28"><a xlink:href="mapping__traits_8h.html" target="_top" xlink:title="shad/runtime/mapping\l_traits.h">
<polygon fill="white" stroke="black" points="1981.69,-57 1981.69,-87 2094.69,-87 2094.69,-57 1981.69,-57"/>
<text text-anchor="start" x="1989.69" y="-75" font-family="Helvetica,sans-Serif" font-size="10.00">shad/runtime/mapping</text>
<text text-anchor="middle" x="2038.19" y="-64" font-family="Helvetica,sans-Serif" font-size="10.00">_traits.h</text>
</a>
</g>
</g>
<!-- Node19&#45;&gt;Node28 -->
<g id="edge50" class="edge"><title>Node19&#45;&gt;Node28</title>
<path fill="none" stroke="midnightblue" d="M1623.21,-266.434C1632.55,-264.17 1642.74,-261.846 1652.19,-260 1758.48,-239.246 1790.87,-259.474 1893.19,-224 1920.28,-214.61 1923.16,-204.011 1949.19,-192 1992.08,-172.208 2022.03,-194.646 2049.19,-156 2061.34,-138.721 2056.15,-114.32 2049.4,-96.4471"/>
<polygon fill="midnightblue" stroke="midnightblue" points="2052.55,-94.9121 2045.47,-87.0289 2046.09,-97.6057 2052.55,-94.9121"/>
</g>
<!-- Node31 -->
<g id="node31" class="node"><title>Node31</title>
<g id="a_node31"><a xlink:href="locality_8h.html" target="_top" xlink:title="shad/runtime/locality.h">
<polygon fill="white" stroke="black" points="1904.69,-130.5 1904.69,-149.5 2019.69,-149.5 2019.69,-130.5 1904.69,-130.5"/>
<text text-anchor="middle" x="1962.19" y="-137.5" font-family="Helvetica,sans-Serif" font-size="10.00">shad/runtime/locality.h</text>
</a>
</g>
</g>
<!-- Node19&#45;&gt;Node31 -->
<g id="edge45" class="edge"><title>Node19&#45;&gt;Node31</title>
<path fill="none" stroke="midnightblue" d="M1648.24,-266.9C1714.2,-257.147 1817.32,-240.067 1853.19,-224 1890.39,-207.334 1926.64,-175.782 1946.53,-156.746"/>
<polygon fill="midnightblue" stroke="midnightblue" points="1949.08,-159.154 1953.78,-149.662 1944.19,-154.146 1949.08,-159.154"/>
</g>
<!-- Node32 -->
<g id="node32" class="node"><title>Node32</title>
<g id="a_node32"><a xlink:href="available__mappings_8h.html" target="_top" xlink:title="shad/runtime/mappings\l/available_mappings.h">
<polygon fill="white" stroke="black" points="1768.19,-125 1768.19,-155 1886.19,-155 1886.19,-125 1768.19,-125"/>
<text text-anchor="start" x="1776.19" y="-143" font-family="Helvetica,sans-Serif" font-size="10.00">shad/runtime/mappings</text>
<text text-anchor="middle" x="1827.19" y="-132" font-family="Helvetica,sans-Serif" font-size="10.00">/available_mappings.h</text>
</a>
</g>
</g>
<!-- Node19&#45;&gt;Node32 -->
<g id="edge51" class="edge"><title>Node19&#45;&gt;Node32</title>
<path fill="none" stroke="midnightblue" d="M1648.27,-266.75C1716.65,-256.447 1822.47,-238.421 1834.19,-224 1847.52,-207.6 1843.35,-182.878 1837.32,-164.678"/>
<polygon fill="midnightblue" stroke="midnightblue" points="1840.52,-163.248 1833.77,-155.081 1833.95,-165.675 1840.52,-163.248"/>
</g>
<!-- Node33 -->
<g id="node33" class="node"><title>Node33</title>
<g id="a_node33"><a xlink:href="synchronous__interface_8h.html" target="_top" xlink:title="shad/runtime/synchronous\l_interface.h">
<polygon fill="white" stroke="black" points="1486.69,-193 1486.69,-223 1617.69,-223 1617.69,-193 1486.69,-193"/>
<text text-anchor="start" x="1494.69" y="-211" font-family="Helvetica,sans-Serif" font-size="10.00">shad/runtime/synchronous</text>
<text text-anchor="middle" x="1552.19" y="-200" font-family="Helvetica,sans-Serif" font-size="10.00">_interface.h</text>
</a>
</g>
</g>
<!-- Node19&#45;&gt;Node33 -->
<g id="edge53" class="edge"><title>Node19&#45;&gt;Node33</title>
<path fill="none" stroke="midnightblue" d="M1585.22,-266.372C1580.24,-257.714 1572.34,-244.001 1565.52,-232.152"/>
<polygon fill="midnightblue" stroke="midnightblue" points="1568.38,-230.101 1560.36,-223.181 1562.31,-233.594 1568.38,-230.101"/>
</g>
<!-- Node26&#45;&gt;Node25 -->
<g id="edge40" class="edge"><title>Node26&#45;&gt;Node25</title>
<path fill="none" stroke="midnightblue" d="M1764.59,-198.476C1752.23,-174.349 1721.08,-104.218 1748.19,-56 1756.41,-41.3782 1771.52,-30.9543 1785.95,-23.8465"/>
<polygon fill="midnightblue" stroke="midnightblue" points="1787.59,-26.9491 1795.26,-19.6437 1784.71,-20.5693 1787.59,-26.9491"/>
</g>
<!-- Node27 -->
<g id="node27" class="node"><title>Node27</title>
<polygon fill="white" stroke="#bfbfbf" points="294.191,-130.5 294.191,-149.5 356.191,-149.5 356.191,-130.5 294.191,-130.5"/>
<text text-anchor="middle" x="325.191" y="-137.5" font-family="Helvetica,sans-Serif" font-size="10.00">type_traits</text>
</g>
<!-- Node26&#45;&gt;Node27 -->
<g id="edge39" class="edge"><title>Node26&#45;&gt;Node27</title>
<path fill="none" stroke="midnightblue" d="M1712.55,-200.198C1686.31,-197.269 1654.7,-194.052 1626.19,-192 1131.41,-156.39 528.847,-144.354 366.905,-141.644"/>
<polygon fill="midnightblue" stroke="midnightblue" points="366.503,-138.137 356.447,-141.472 366.388,-145.136 366.503,-138.137"/>
</g>
<!-- Node26&#45;&gt;Node28 -->
<g id="edge41" class="edge"><title>Node26&#45;&gt;Node28</title>
<path fill="none" stroke="midnightblue" d="M1825.86,-199.415C1897.87,-189.237 2014.51,-170.738 2028.19,-156 2042.64,-140.438 2043.84,-115.558 2042.21,-97.0914"/>
<polygon fill="midnightblue" stroke="midnightblue" points="2045.68,-96.5896 2041.01,-87.0785 2038.73,-97.4247 2045.68,-96.5896"/>
</g>
<!-- Node30 -->
<g id="node30" class="node"><title>Node30</title>
<g id="a_node30"><a xlink:href="available__traits__mappings_8h.html" target="_top" xlink:title="shad/runtime/mappings\l/available_traits_mappings.h">
<polygon fill="white" stroke="black" points="1757.19,-57 1757.19,-87 1897.19,-87 1897.19,-57 1757.19,-57"/>
<text text-anchor="start" x="1765.19" y="-75" font-family="Helvetica,sans-Serif" font-size="10.00">shad/runtime/mappings</text>
<text text-anchor="middle" x="1827.19" y="-64" font-family="Helvetica,sans-Serif" font-size="10.00">/available_traits_mappings.h</text>
</a>
</g>
</g>
<!-- Node26&#45;&gt;Node30 -->
<g id="edge44" class="edge"><title>Node26&#45;&gt;Node30</title>
<path fill="none" stroke="midnightblue" d="M1765.19,-198.46C1758.46,-182.794 1746.79,-148.795 1759.19,-124 1765.67,-111.042 1777.18,-100.523 1788.91,-92.4768"/>
<polygon fill="midnightblue" stroke="midnightblue" points="1790.87,-95.3801 1797.42,-87.0558 1787.11,-89.476 1790.87,-95.3801"/>
</g>
<!-- Node28&#45;&gt;Node25 -->
<g id="edge43" class="edge"><title>Node28&#45;&gt;Node25</title>
<path fill="none" stroke="midnightblue" d="M1987.55,-56.9327C1949.53,-46.3717 1898.15,-32.0998 1862.81,-22.282"/>
<polygon fill="midnightblue" stroke="midnightblue" points="1863.41,-18.8169 1852.84,-19.5127 1861.54,-25.5615 1863.41,-18.8169"/>
</g>
<!-- Node29 -->
<g id="node29" class="node"><title>Node29</title>
<polygon fill="white" stroke="#bfbfbf" points="2017.69,-0.5 2017.69,-19.5 2058.69,-19.5 2058.69,-0.5 2017.69,-0.5"/>
<text text-anchor="middle" x="2038.19" y="-7.5" font-family="Helvetica,sans-Serif" font-size="10.00">string</text>
</g>
<!-- Node28&#45;&gt;Node29 -->
<g id="edge42" class="edge"><title>Node28&#45;&gt;Node29</title>
<path fill="none" stroke="midnightblue" d="M2038.19,-56.7808C2038.19,-48.7812 2038.19,-38.6887 2038.19,-30.0168"/>
<polygon fill="midnightblue" stroke="midnightblue" points="2041.69,-29.7305 2038.19,-19.7305 2034.69,-29.7306 2041.69,-29.7305"/>
</g>
<!-- Node31&#45;&gt;Node21 -->
<g id="edge46" class="edge"><title>Node31&#45;&gt;Node21</title>
<path fill="none" stroke="midnightblue" d="M1928.27,-130.486C1917.73,-128.088 1906.03,-125.679 1895.19,-124 1687.16,-91.776 1434.05,-78.3303 1344.51,-74.3548"/>
<polygon fill="midnightblue" stroke="midnightblue" points="1344.56,-70.8537 1334.42,-73.9163 1344.26,-77.8471 1344.56,-70.8537"/>
</g>
<!-- Node31&#45;&gt;Node25 -->
<g id="edge47" class="edge"><title>Node31&#45;&gt;Node25</title>
<path fill="none" stroke="midnightblue" d="M1958.09,-130.225C1950.08,-113.872 1930.96,-78.3692 1906.19,-56 1891,-42.2814 1870.87,-31.3125 1854.13,-23.6397"/>
<polygon fill="midnightblue" stroke="midnightblue" points="1855.29,-20.3257 1844.73,-19.507 1852.47,-26.7343 1855.29,-20.3257"/>
</g>
<!-- Node31&#45;&gt;Node28 -->
<g id="edge48" class="edge"><title>Node31&#45;&gt;Node28</title>
<path fill="none" stroke="midnightblue" d="M1972.13,-130.372C1982.69,-121.2 1999.78,-106.354 2013.94,-94.0615"/>
<polygon fill="midnightblue" stroke="midnightblue" points="2016.61,-96.381 2021.86,-87.1815 2012.02,-91.0957 2016.61,-96.381"/>
</g>
<!-- Node31&#45;&gt;Node30 -->
<g id="edge49" class="edge"><title>Node31&#45;&gt;Node30</title>
<path fill="none" stroke="midnightblue" d="M1944.54,-130.372C1924.49,-120.569 1891.18,-104.283 1865.16,-91.5629"/>
<polygon fill="midnightblue" stroke="midnightblue" points="1866.46,-88.304 1855.94,-87.0562 1863.39,-94.5927 1866.46,-88.304"/>
</g>
<!-- Node32&#45;&gt;Node30 -->
<g id="edge52" class="edge"><title>Node32&#45;&gt;Node30</title>
<path fill="none" stroke="midnightblue" d="M1827.19,-124.679C1827.19,-116.722 1827.19,-106.605 1827.19,-97.4356"/>
<polygon fill="midnightblue" stroke="midnightblue" points="1830.69,-97.293 1827.19,-87.2931 1823.69,-97.2931 1830.69,-97.293"/>
</g>
<!-- Node33&#45;&gt;Node12 -->
<g id="edge56" class="edge"><title>Node33&#45;&gt;Node12</title>
<path fill="none" stroke="midnightblue" d="M1486.31,-194.399C1481.54,-193.562 1476.79,-192.753 1472.19,-192 1352.59,-172.419 1210.1,-153.821 1144.52,-145.525"/>
<polygon fill="midnightblue" stroke="midnightblue" points="1144.65,-142.015 1134.29,-144.237 1143.78,-148.96 1144.65,-142.015"/>
</g>
<!-- Node33&#45;&gt;Node20 -->
<g id="edge54" class="edge"><title>Node33&#45;&gt;Node20</title>
<path fill="none" stroke="midnightblue" d="M1556.53,-192.679C1559.46,-182.999 1563.37,-170.123 1566.54,-159.645"/>
<polygon fill="midnightblue" stroke="midnightblue" points="1569.97,-160.414 1569.52,-149.828 1563.27,-158.383 1569.97,-160.414"/>
</g>
<!-- Node33&#45;&gt;Node21 -->
<g id="edge55" class="edge"><title>Node33&#45;&gt;Node21</title>
<path fill="none" stroke="midnightblue" d="M1526.86,-192.913C1480.26,-167.004 1381.54,-112.113 1335.62,-86.5842"/>
<polygon fill="midnightblue" stroke="midnightblue" points="1337.11,-83.404 1326.66,-81.6034 1333.7,-89.5219 1337.11,-83.404"/>
</g>
<!-- Node33&#45;&gt;Node31 -->
<g id="edge57" class="edge"><title>Node33&#45;&gt;Node31</title>
<path fill="none" stroke="midnightblue" d="M1617.86,-198.678C1687.08,-189.571 1799.16,-173.865 1895.19,-156 1902.04,-154.726 1909.26,-153.251 1916.31,-151.735"/>
<polygon fill="midnightblue" stroke="midnightblue" points="1917.46,-155.066 1926.48,-149.501 1915.96,-148.229 1917.46,-155.066"/>
</g>
<!-- Node34&#45;&gt;Node2 -->
<g id="edge62" class="edge"><title>Node34&#45;&gt;Node2</title>
<path fill="none" stroke="midnightblue" d="M1073.95,-407.682C942.947,-399.41 618.885,-377.292 603.191,-360 586.735,-341.868 599.847,-312.573 611.218,-294.074"/>
<polygon fill="midnightblue" stroke="midnightblue" points="614.283,-295.782 616.84,-285.5 608.429,-291.943 614.283,-295.782"/>
</g>
<!-- Node34&#45;&gt;Node8 -->
<g id="edge60" class="edge"><title>Node34&#45;&gt;Node8</title>
<path fill="none" stroke="midnightblue" d="M1116.28,-396.815C1087.01,-362.367 1011.48,-275.951 977.191,-260 926.84,-236.575 543.996,-216.637 420.478,-210.757"/>
<polygon fill="midnightblue" stroke="midnightblue" points="420.508,-207.255 410.354,-210.279 420.178,-214.247 420.508,-207.255"/>
</g>
<!-- Node34&#45;&gt;Node14 -->
<g id="edge63" class="edge"><title>Node34&#45;&gt;Node14</title>
<path fill="none" stroke="midnightblue" d="M1122.36,-396.895C1110.59,-369.22 1082.16,-306.46 1048.19,-260 1038.72,-247.047 1026.05,-234.158 1015.83,-224.578"/>
<polygon fill="midnightblue" stroke="midnightblue" points="1018.01,-221.831 1008.27,-217.666 1013.29,-226.997 1018.01,-221.831"/>
</g>
<!-- Node34&#45;&gt;Node18 -->
<g id="edge64" class="edge"><title>Node34&#45;&gt;Node18</title>
<path fill="none" stroke="midnightblue" d="M1173.84,-396.922C1206.94,-386.714 1251.87,-372.857 1286.99,-362.025"/>
<polygon fill="midnightblue" stroke="midnightblue" points="1288.09,-365.348 1296.62,-359.056 1286.03,-358.659 1288.09,-365.348"/>
</g>
<!-- Node34&#45;&gt;Node19 -->
<g id="edge65" class="edge"><title>Node34&#45;&gt;Node19</title>
<path fill="none" stroke="midnightblue" d="M1182.21,-404.948C1238.72,-397.72 1329.56,-383.554 1405.19,-360 1464.79,-341.439 1530.59,-308.767 1565.4,-290.439"/>
<polygon fill="midnightblue" stroke="midnightblue" points="1567.18,-293.458 1574.37,-285.674 1563.89,-287.276 1567.18,-293.458"/>
</g>
<!-- Node35 -->
<g id="node35" class="node"><title>Node35</title>
<polygon fill="white" stroke="#bfbfbf" points="1156.19,-334.5 1156.19,-353.5 1194.19,-353.5 1194.19,-334.5 1156.19,-334.5"/>
<text text-anchor="middle" x="1175.19" y="-341.5" font-family="Helvetica,sans-Serif" font-size="10.00">array</text>
</g>
<!-- Node34&#45;&gt;Node35 -->
<g id="edge61" class="edge"><title>Node34&#45;&gt;Node35</title>
<path fill="none" stroke="midnightblue" d="M1138.39,-396.679C1145.65,-386.49 1155.42,-372.759 1163.08,-362.011"/>
<polygon fill="midnightblue" stroke="midnightblue" points="1165.95,-364.004 1168.9,-353.828 1160.25,-359.944 1165.95,-364.004"/>
</g>
<!-- Node36&#45;&gt;Node6 -->
<g id="edge71" class="edge"><title>Node36&#45;&gt;Node6</title>
<path fill="none" stroke="midnightblue" d="M1125.41,-478.255C1290.76,-475.591 1781.12,-464.653 1842.19,-428 1920.02,-381.288 1959.89,-271.137 1973.1,-227.383"/>
<polygon fill="midnightblue" stroke="midnightblue" points="1976.46,-228.348 1975.89,-217.768 1969.74,-226.396 1976.46,-228.348"/>
</g>
<!-- Node36&#45;&gt;Node8 -->
<g id="edge68" class="edge"><title>Node36&#45;&gt;Node8</title>
<path fill="none" stroke="midnightblue" d="M1016.92,-472.734C990.223,-469.798 957.547,-466.422 928.191,-464 861.852,-458.527 375.824,-476.462 330.191,-428 279.005,-373.639 301.283,-328.843 330.191,-260 336.355,-245.321 349.034,-232.744 360.329,-223.753"/>
<polygon fill="midnightblue" stroke="midnightblue" points="362.648,-226.389 368.565,-217.601 358.459,-220.781 362.648,-226.389"/>
</g>
<!-- Node36&#45;&gt;Node10 -->
<g id="edge69" class="edge"><title>Node36&#45;&gt;Node10</title>
<path fill="none" stroke="midnightblue" d="M1016.94,-472.549C990.241,-469.569 957.564,-466.21 928.191,-464 840.791,-457.425 215.01,-473.652 140.191,-428 49.3769,-372.588 45.3827,-283.18 100.191,-192 112.53,-171.473 136.226,-158.765 156.987,-151.168"/>
<polygon fill="midnightblue" stroke="midnightblue" points="158.218,-154.446 166.574,-147.932 155.98,-147.814 158.218,-154.446"/>
</g>
<!-- Node36&#45;&gt;Node13 -->
<g id="edge70" class="edge"><title>Node36&#45;&gt;Node13</title>
<path fill="none" stroke="midnightblue" d="M1016.97,-466.122C996.527,-458.468 975.109,-446.501 962.191,-428 934.276,-388.018 939.965,-326.79 945.234,-296.03"/>
<polygon fill="midnightblue" stroke="midnightblue" points="948.741,-296.317 947.162,-285.841 941.863,-295.016 948.741,-296.317"/>
</g>
<!-- Node36&#45;&gt;Node14 -->
<g id="edge72" class="edge"><title>Node36&#45;&gt;Node14</title>
<path fill="none" stroke="midnightblue" d="M1067.37,-464.864C1055.15,-419.671 1017.03,-278.689 1003.24,-227.668"/>
<polygon fill="midnightblue" stroke="midnightblue" points="1006.54,-226.455 1000.55,-217.716 999.779,-228.282 1006.54,-226.455"/>
</g>
<!-- Node36&#45;&gt;Node15 -->
<g id="edge73" class="edge"><title>Node36&#45;&gt;Node15</title>
<path fill="none" stroke="midnightblue" d="M1125.56,-469.823C1193.44,-458.365 1309.91,-438.704 1386.49,-425.778"/>
<polygon fill="midnightblue" stroke="midnightblue" points="1387.28,-429.195 1396.55,-424.079 1386.11,-422.293 1387.28,-429.195"/>
</g>
<!-- Node36&#45;&gt;Node19 -->
<g id="edge98" class="edge"><title>Node36&#45;&gt;Node19</title>
<path fill="none" stroke="midnightblue" d="M1125.42,-479.159C1281.41,-479.055 1722.88,-474.611 1766.19,-428 1796.45,-395.443 1792.89,-363.532 1766.19,-328 1758.32,-317.531 1687.77,-299.431 1638.42,-287.847"/>
<polygon fill="midnightblue" stroke="midnightblue" points="1639.08,-284.408 1628.55,-285.55 1637.49,-291.225 1639.08,-284.408"/>
</g>
<!-- Node36&#45;&gt;Node34 -->
<g id="edge74" class="edge"><title>Node36&#45;&gt;Node34</title>
<path fill="none" stroke="midnightblue" d="M1083.56,-464.679C1091.03,-456.03 1100.7,-444.829 1109.13,-435.067"/>
<polygon fill="midnightblue" stroke="midnightblue" points="1111.96,-437.149 1115.85,-427.293 1106.66,-432.574 1111.96,-437.149"/>
</g>
<!-- Node37 -->
<g id="node37" class="node"><title>Node37</title>
<g id="a_node37"><a xlink:href="compare__and__hash__utils_8h.html" target="_top" xlink:title="shad/data_structures\l/compare_and_hash_utils.h">
<polygon fill="white" stroke="black" points="142.191,-261 142.191,-291 278.191,-291 278.191,-261 142.191,-261"/>
<text text-anchor="start" x="150.191" y="-279" font-family="Helvetica,sans-Serif" font-size="10.00">shad/data_structures</text>
<text text-anchor="middle" x="210.191" y="-268" font-family="Helvetica,sans-Serif" font-size="10.00">/compare_and_hash_utils.h</text>
</a>
</g>
</g>
<!-- Node36&#45;&gt;Node37 -->
<g id="edge75" class="edge"><title>Node36&#45;&gt;Node37</title>
<path fill="none" stroke="midnightblue" d="M1016.92,-472.688C990.228,-469.742 957.552,-466.369 928.191,-464 857.641,-458.306 352.202,-465.53 292.191,-428 246.578,-399.474 224.536,-336.202 215.492,-301.295"/>
<polygon fill="midnightblue" stroke="midnightblue" points="218.859,-300.33 213.091,-291.443 212.058,-301.987 218.859,-300.33"/>
</g>
<!-- Node39 -->
<g id="node39" class="node"><title>Node39</title>
<g id="a_node39"><a xlink:href="local__set_8h.html" target="_top" xlink:title="shad/data_structures\l/local_set.h">
<polygon fill="white" stroke="black" points="410.191,-329 410.191,-359 518.191,-359 518.191,-329 410.191,-329"/>
<text text-anchor="start" x="418.191" y="-347" font-family="Helvetica,sans-Serif" font-size="10.00">shad/data_structures</text>
<text text-anchor="middle" x="464.191" y="-336" font-family="Helvetica,sans-Serif" font-size="10.00">/local_set.h</text>
</a>
</g>
</g>
<!-- Node36&#45;&gt;Node39 -->
<g id="edge85" class="edge"><title>Node36&#45;&gt;Node39</title>
<path fill="none" stroke="midnightblue" d="M1017.16,-473.298C912.101,-462.082 687.563,-437.424 653.191,-428 596.796,-412.538 535.508,-383.066 498.476,-363.726"/>
<polygon fill="midnightblue" stroke="midnightblue" points="500.079,-360.615 489.602,-359.042 496.812,-366.805 500.079,-360.615"/>
</g>
<!-- Node40 -->
<g id="node40" class="node"><title>Node40</title>
<g id="a_node40"><a xlink:href="distributed__iterator__traits_8h.html" target="_top" xlink:title="shad/distributed_iterator\l_traits.h">
<polygon fill="white" stroke="black" points="2198.69,-261 2198.69,-291 2319.69,-291 2319.69,-261 2198.69,-261"/>
<text text-anchor="start" x="2206.69" y="-279" font-family="Helvetica,sans-Serif" font-size="10.00">shad/distributed_iterator</text>
<text text-anchor="middle" x="2259.19" y="-268" font-family="Helvetica,sans-Serif" font-size="10.00">_traits.h</text>
</a>
</g>
</g>
<!-- Node36&#45;&gt;Node40 -->
<g id="edge95" class="edge"><title>Node36&#45;&gt;Node40</title>
<path fill="none" stroke="midnightblue" d="M1125.35,-478.249C1287.44,-475.606 1766.82,-464.804 1918.19,-428 2037.63,-398.961 2167.45,-329.951 2226.57,-296.223"/>
<polygon fill="midnightblue" stroke="midnightblue" points="2228.52,-299.142 2235.44,-291.124 2225.03,-293.074 2228.52,-299.142"/>
</g>
<!-- Node37&#45;&gt;Node8 -->
<g id="edge76" class="edge"><title>Node37&#45;&gt;Node8</title>
<path fill="none" stroke="midnightblue" d="M247.09,-260.841C277.774,-249.067 321.001,-232.48 350.229,-221.265"/>
<polygon fill="midnightblue" stroke="midnightblue" points="351.483,-224.532 359.566,-217.682 348.976,-217.997 351.483,-224.532"/>
</g>
<!-- Node37&#45;&gt;Node9 -->
<g id="edge78" class="edge"><title>Node37&#45;&gt;Node9</title>
<path fill="none" stroke="midnightblue" d="M278.275,-267.397C405.261,-253.216 673.877,-223.218 767.869,-212.721"/>
<polygon fill="midnightblue" stroke="midnightblue" points="768.39,-216.185 777.94,-211.597 767.613,-209.228 768.39,-216.185"/>
</g>
<!-- Node37&#45;&gt;Node10 -->
<g id="edge79" class="edge"><title>Node37&#45;&gt;Node10</title>
<path fill="none" stroke="midnightblue" d="M195.699,-260.86C187.041,-251.359 176.848,-238.044 172.191,-224 164.772,-201.625 175.507,-175.442 184.902,-158.559"/>
<polygon fill="midnightblue" stroke="midnightblue" points="188.015,-160.173 190.132,-149.792 182.003,-156.587 188.015,-160.173"/>
</g>
<!-- Node37&#45;&gt;Node14 -->
<g id="edge81" class="edge"><title>Node37&#45;&gt;Node14</title>
<path fill="none" stroke="midnightblue" d="M278.427,-269.616C393.058,-260.525 631.55,-241.419 833.191,-224 879.349,-220.013 932.741,-215.105 965.992,-212.013"/>
<polygon fill="midnightblue" stroke="midnightblue" points="966.413,-215.489 976.046,-211.077 965.764,-208.52 966.413,-215.489"/>
</g>
<!-- Node37&#45;&gt;Node21 -->
<g id="edge77" class="edge"><title>Node37&#45;&gt;Node21</title>
<path fill="none" stroke="midnightblue" d="M193.669,-260.608C184.01,-251.203 172.51,-238.084 166.191,-224 147.925,-183.286 126.342,-156.243 157.191,-124 196.951,-82.444 1092.33,-74.411 1277.76,-73.1912"/>
<polygon fill="midnightblue" stroke="midnightblue" points="1278.01,-76.6898 1287.99,-73.1262 1277.96,-69.6899 1278.01,-76.6898"/>
</g>
<!-- Node37&#45;&gt;Node27 -->
<g id="edge80" class="edge"><title>Node37&#45;&gt;Node27</title>
<path fill="none" stroke="midnightblue" d="M253.419,-260.927C271.888,-252.855 292.153,-240.894 305.191,-224 319.522,-205.431 323.778,-178.103 324.939,-159.94"/>
<polygon fill="midnightblue" stroke="midnightblue" points="328.444,-159.87 325.326,-149.744 321.449,-159.604 328.444,-159.87"/>
</g>
<!-- Node38 -->
<g id="node38" class="node"><title>Node38</title>
<g id="a_node38"><a xlink:href="type__traits_8h.html" target="_top" xlink:title="shad/core/type_traits.h">
<polygon fill="white" stroke="black" points="181.191,-198.5 181.191,-217.5 297.191,-217.5 297.191,-198.5 181.191,-198.5"/>
<text text-anchor="middle" x="239.191" y="-205.5" font-family="Helvetica,sans-Serif" font-size="10.00">shad/core/type_traits.h</text>
</a>
</g>
</g>
<!-- Node37&#45;&gt;Node38 -->
<g id="edge82" class="edge"><title>Node37&#45;&gt;Node38</title>
<path fill="none" stroke="midnightblue" d="M216.484,-260.679C220.827,-250.796 226.634,-237.579 231.288,-226.986"/>
<polygon fill="midnightblue" stroke="midnightblue" points="234.494,-228.391 235.312,-217.828 228.085,-225.576 234.494,-228.391"/>
</g>
<!-- Node38&#45;&gt;Node10 -->
<g id="edge83" class="edge"><title>Node38&#45;&gt;Node10</title>
<path fill="none" stroke="midnightblue" d="M233.57,-198.372C226.975,-188.25 215.877,-171.215 207.483,-158.331"/>
<polygon fill="midnightblue" stroke="midnightblue" points="210.343,-156.309 201.951,-149.841 204.478,-160.13 210.343,-156.309"/>
</g>
<!-- Node38&#45;&gt;Node27 -->
<g id="edge84" class="edge"><title>Node38&#45;&gt;Node27</title>
<path fill="none" stroke="midnightblue" d="M250.434,-198.372C264.47,-187.6 288.704,-169.002 305.768,-155.906"/>
<polygon fill="midnightblue" stroke="midnightblue" points="308.143,-158.495 313.946,-149.63 303.882,-152.942 308.143,-158.495"/>
</g>
<!-- Node39&#45;&gt;Node2 -->
<g id="edge87" class="edge"><title>Node39&#45;&gt;Node2</title>
<path fill="none" stroke="midnightblue" d="M498.301,-328.841C526.42,-317.169 565.932,-300.768 592.937,-289.558"/>
<polygon fill="midnightblue" stroke="midnightblue" points="594.382,-292.748 602.276,-285.682 591.698,-286.283 594.382,-292.748"/>
</g>
<!-- Node39&#45;&gt;Node6 -->
<g id="edge91" class="edge"><title>Node39&#45;&gt;Node6</title>
<path fill="none" stroke="midnightblue" d="M489.932,-328.877C507.302,-319.071 530.55,-305.408 550.191,-292 569.282,-278.967 569.445,-267.836 591.191,-260 721.179,-213.162 1696.33,-233.164 1834.19,-224 1873.5,-221.387 1918.66,-216.35 1947.77,-212.837"/>
<polygon fill="midnightblue" stroke="midnightblue" points="1948.22,-216.308 1957.72,-211.619 1947.37,-209.36 1948.22,-216.308"/>
</g>
<!-- Node39&#45;&gt;Node8 -->
<g id="edge86" class="edge"><title>Node39&#45;&gt;Node8</title>
<path fill="none" stroke="midnightblue" d="M455.416,-328.66C440.255,-303.885 409.215,-253.161 392.844,-226.407"/>
<polygon fill="midnightblue" stroke="midnightblue" points="395.737,-224.43 387.532,-217.728 389.766,-228.084 395.737,-224.43"/>
</g>
<!-- Node39&#45;&gt;Node10 -->
<g id="edge88" class="edge"><title>Node39&#45;&gt;Node10</title>
<path fill="none" stroke="midnightblue" d="M464.289,-328.958C463.691,-299.097 457.877,-229.005 418.191,-192 404.897,-179.604 296.184,-158.706 235.972,-147.913"/>
<polygon fill="midnightblue" stroke="midnightblue" points="236.496,-144.452 226.037,-146.145 235.269,-151.343 236.496,-144.452"/>
</g>
<!-- Node39&#45;&gt;Node12 -->
<g id="edge89" class="edge"><title>Node39&#45;&gt;Node12</title>
<path fill="none" stroke="midnightblue" d="M468.329,-328.737C474.444,-310.177 487.671,-278.001 510.191,-260 598.592,-189.337 956.512,-153.697 1072.05,-143.872"/>
<polygon fill="midnightblue" stroke="midnightblue" points="1072.47,-147.349 1082.14,-143.027 1071.88,-140.373 1072.47,-147.349"/>
</g>
<!-- Node39&#45;&gt;Node13 -->
<g id="edge90" class="edge"><title>Node39&#45;&gt;Node13</title>
<path fill="none" stroke="midnightblue" d="M518.415,-335.621C621.111,-321.646 840.783,-291.752 919.974,-280.976"/>
<polygon fill="midnightblue" stroke="midnightblue" points="920.752,-284.402 930.189,-279.586 919.808,-277.466 920.752,-284.402"/>
</g>
<!-- Node39&#45;&gt;Node14 -->
<g id="edge92" class="edge"><title>Node39&#45;&gt;Node14</title>
<path fill="none" stroke="midnightblue" d="M475.196,-328.974C491.178,-309.742 522.797,-275.779 558.191,-260 576.849,-251.682 867.723,-222.031 966.021,-212.196"/>
<polygon fill="midnightblue" stroke="midnightblue" points="966.374,-215.678 975.977,-211.202 965.679,-208.713 966.374,-215.678"/>
</g>
<!-- Node39&#45;&gt;Node19 -->
<g id="edge94" class="edge"><title>Node39&#45;&gt;Node19</title>
<path fill="none" stroke="midnightblue" d="M518.244,-336.32C543.941,-333.361 575.113,-330.086 603.191,-328 994.44,-298.937 1094.5,-327.787 1485.19,-292 1499.06,-290.729 1513.9,-288.9 1527.93,-286.953"/>
<polygon fill="midnightblue" stroke="midnightblue" points="1528.57,-290.398 1537.97,-285.521 1527.58,-283.468 1528.57,-290.398"/>
</g>
<!-- Node39&#45;&gt;Node37 -->
<g id="edge93" class="edge"><title>Node39&#45;&gt;Node37</title>
<path fill="none" stroke="midnightblue" d="M410.013,-328.922C370.223,-318.583 316.027,-304.501 274.115,-293.61"/>
<polygon fill="midnightblue" stroke="midnightblue" points="274.845,-290.184 264.286,-291.056 273.084,-296.959 274.845,-290.184"/>
</g>
<!-- Node40&#45;&gt;Node11 -->
<g id="edge96" class="edge"><title>Node40&#45;&gt;Node11</title>
<path fill="none" stroke="midnightblue" d="M2232.59,-260.841C2211.24,-249.476 2181.46,-233.628 2160.47,-222.454"/>
<polygon fill="midnightblue" stroke="midnightblue" points="2161.97,-219.291 2151.5,-217.682 2158.69,-225.47 2161.97,-219.291"/>
</g>
<!-- Node40&#45;&gt;Node31 -->
<g id="edge97" class="edge"><title>Node40&#45;&gt;Node31</title>
<path fill="none" stroke="midnightblue" d="M2260.3,-260.703C2260.9,-242.106 2258.88,-209.889 2240.19,-192 2210.8,-163.862 2102.82,-150.778 2030.41,-145.051"/>
<polygon fill="midnightblue" stroke="midnightblue" points="2030.23,-141.528 2020,-144.259 2029.7,-148.508 2030.23,-141.528"/>
</g>
<!-- Node41&#45;&gt;Node6 -->
<g id="edge103" class="edge"><title>Node41&#45;&gt;Node6</title>
<path fill="none" stroke="midnightblue" d="M919.696,-472.542C946.558,-469.667 978.987,-466.396 1008.19,-464 1138.22,-453.331 1469.17,-465.286 1594.19,-428 1747.81,-382.187 1906.38,-265.343 1959.56,-223.875"/>
<polygon fill="midnightblue" stroke="midnightblue" points="1961.75,-226.609 1967.44,-217.676 1957.42,-221.107 1961.75,-226.609"/>
</g>
<!-- Node41&#45;&gt;Node8 -->
<g id="edge100" class="edge"><title>Node41&#45;&gt;Node8</title>
<path fill="none" stroke="midnightblue" d="M804.528,-479.213C641.552,-479.232 186.338,-475.036 140.191,-428 87.8551,-374.655 85.9463,-317.902 133.191,-260 134.866,-257.947 274.289,-230.247 343.747,-216.555"/>
<polygon fill="midnightblue" stroke="midnightblue" points="344.728,-219.929 353.863,-214.562 343.375,-213.061 344.728,-219.929"/>
</g>
<!-- Node41&#45;&gt;Node10 -->
<g id="edge101" class="edge"><title>Node41&#45;&gt;Node10</title>
<path fill="none" stroke="midnightblue" d="M804.487,-479.24C651.581,-479.219 239.024,-474.705 112.191,-428 54.0513,-406.591 0.191303,-406.957 0.191303,-345 0.191303,-345 0.191303,-345 0.191303,-275 0.191303,-236.6 -2.86955,-219.245 24.1913,-192 59.2007,-156.753 117.356,-145.629 156.223,-142.252"/>
<polygon fill="midnightblue" stroke="midnightblue" points="156.92,-145.71 166.639,-141.491 156.41,-138.729 156.92,-145.71"/>
</g>
<!-- Node41&#45;&gt;Node13 -->
<g id="edge102" class="edge"><title>Node41&#45;&gt;Node13</title>
<path fill="none" stroke="midnightblue" d="M867.694,-464.71C878.156,-437.749 901.871,-377.622 924.191,-328 929.235,-316.787 935.296,-304.398 940.187,-294.639"/>
<polygon fill="midnightblue" stroke="midnightblue" points="943.379,-296.084 944.769,-285.58 937.132,-292.924 943.379,-296.084"/>
</g>
<!-- Node41&#45;&gt;Node14 -->
<g id="edge104" class="edge"><title>Node41&#45;&gt;Node14</title>
<path fill="none" stroke="midnightblue" d="M862.49,-464.903C863.956,-427.668 872.458,-325.091 921.191,-260 933.482,-243.584 952.711,-230.841 968.878,-222.198"/>
<polygon fill="midnightblue" stroke="midnightblue" points="970.633,-225.233 977.968,-217.587 967.466,-218.99 970.633,-225.233"/>
</g>
<!-- Node41&#45;&gt;Node15 -->
<g id="edge105" class="edge"><title>Node41&#45;&gt;Node15</title>
<path fill="none" stroke="midnightblue" d="M919.722,-472.672C1028.56,-460.699 1264.57,-434.738 1386.25,-421.353"/>
<polygon fill="midnightblue" stroke="midnightblue" points="1386.68,-424.827 1396.24,-420.255 1385.92,-417.869 1386.68,-424.827"/>
</g>
<!-- Node41&#45;&gt;Node19 -->
<g id="edge129" class="edge"><title>Node41&#45;&gt;Node19</title>
<path fill="none" stroke="midnightblue" d="M919.703,-472.631C946.567,-469.775 978.995,-466.494 1008.19,-464 1125.37,-453.989 1423.74,-462.449 1536.19,-428 1593.7,-410.383 1623.19,-412.13 1653.19,-360 1660.28,-347.673 1659.32,-340.836 1653.19,-328 1645.54,-311.955 1630.1,-299.327 1616.42,-290.65"/>
<polygon fill="midnightblue" stroke="midnightblue" points="1618.17,-287.618 1607.78,-285.522 1614.59,-293.637 1618.17,-287.618"/>
</g>
<!-- Node41&#45;&gt;Node34 -->
<g id="edge106" class="edge"><title>Node41&#45;&gt;Node34</title>
<path fill="none" stroke="midnightblue" d="M918.929,-464.922C961.484,-454.363 1019.77,-439.901 1064.03,-428.921"/>
<polygon fill="midnightblue" stroke="midnightblue" points="1064.95,-432.298 1073.81,-426.492 1063.26,-425.504 1064.95,-432.298"/>
</g>
<!-- Node41&#45;&gt;Node37 -->
<g id="edge107" class="edge"><title>Node41&#45;&gt;Node37</title>
<path fill="none" stroke="midnightblue" d="M804.686,-478.722C654.01,-477.409 256.547,-469.964 216.191,-428 183.864,-394.384 193.539,-334.646 202.472,-301.271"/>
<polygon fill="midnightblue" stroke="midnightblue" points="205.902,-302.005 205.292,-291.428 199.173,-300.077 205.902,-302.005"/>
</g>
<!-- Node41&#45;&gt;Node39 -->
<g id="edge108" class="edge"><title>Node41&#45;&gt;Node39</title>
<path fill="none" stroke="midnightblue" d="M804.445,-474.818C723.27,-468.132 580.286,-453.161 535.191,-428 509.889,-413.882 489.496,-387.047 477.167,-367.707"/>
<polygon fill="midnightblue" stroke="midnightblue" points="480.139,-365.858 471.929,-359.162 474.171,-369.517 480.139,-365.858"/>
</g>
<!-- Node42 -->
<g id="node42" class="node"><title>Node42</title>
<g id="a_node42"><a xlink:href="local__edge__index_8h.html" target="_top" xlink:title="shad/extensions/graph\l_library/local_edge_index.h">
<polygon fill="white" stroke="black" points="662.191,-397 662.191,-427 796.191,-427 796.191,-397 662.191,-397"/>
<text text-anchor="start" x="670.191" y="-415" font-family="Helvetica,sans-Serif" font-size="10.00">shad/extensions/graph</text>
<text text-anchor="middle" x="729.191" y="-404" font-family="Helvetica,sans-Serif" font-size="10.00">_library/local_edge_index.h</text>
</a>
</g>
</g>
<!-- Node41&#45;&gt;Node42 -->
<g id="edge109" class="edge"><title>Node41&#45;&gt;Node42</title>
<path fill="none" stroke="midnightblue" d="M833.659,-464.841C814.112,-455.141 787.982,-442.174 766.745,-431.636"/>
<polygon fill="midnightblue" stroke="midnightblue" points="768.189,-428.445 757.676,-427.135 765.078,-434.716 768.189,-428.445"/>
</g>
<!-- Node42&#45;&gt;Node2 -->
<g id="edge111" class="edge"><title>Node42&#45;&gt;Node2</title>
<path fill="none" stroke="midnightblue" d="M662.051,-407.333C628.73,-401.706 591.204,-388.808 570.191,-360 553.38,-336.953 580.997,-308.69 602.27,-291.801"/>
<polygon fill="midnightblue" stroke="midnightblue" points="604.439,-294.549 610.288,-285.715 600.206,-288.974 604.439,-294.549"/>
</g>
<!-- Node42&#45;&gt;Node6 -->
<g id="edge114" class="edge"><title>Node42&#45;&gt;Node6</title>
<path fill="none" stroke="midnightblue" d="M796.229,-409.125C918.063,-405.012 1183.69,-392.794 1405.19,-360 1422.42,-357.45 1694.97,-298.343 1711.19,-292 1737.53,-281.699 1739.81,-270.185 1766.19,-260 1837.83,-232.343 1861.23,-244.688 1935.19,-224 1939.39,-222.826 1943.77,-221.462 1948.07,-220.044"/>
<polygon fill="midnightblue" stroke="midnightblue" points="1949.48,-223.261 1957.8,-216.703 1947.2,-216.64 1949.48,-223.261"/>
</g>
<!-- Node42&#45;&gt;Node8 -->
<g id="edge110" class="edge"><title>Node42&#45;&gt;Node8</title>
<path fill="none" stroke="midnightblue" d="M662.012,-409.777C576.699,-406.722 436.325,-396.171 401.191,-360 366.596,-324.383 372.553,-259.689 378.168,-227.8"/>
<polygon fill="midnightblue" stroke="midnightblue" points="381.668,-228.135 380.145,-217.65 374.798,-226.796 381.668,-228.135"/>
</g>
<!-- Node42&#45;&gt;Node12 -->
<g id="edge112" class="edge"><title>Node42&#45;&gt;Node12</title>
<path fill="none" stroke="midnightblue" d="M734.765,-396.974C741.963,-379.787 755.563,-350.218 772.191,-328 798.372,-293.019 807.956,-285.838 843.191,-260 916.741,-206.067 1018.62,-168.948 1072.1,-151.802"/>
<polygon fill="midnightblue" stroke="midnightblue" points="1073.33,-155.083 1081.82,-148.736 1071.23,-148.407 1073.33,-155.083"/>
</g>
<!-- Node42&#45;&gt;Node13 -->
<g id="edge113" class="edge"><title>Node42&#45;&gt;Node13</title>
<path fill="none" stroke="midnightblue" d="M752.319,-396.913C794.678,-371.113 884.223,-316.572 926.36,-290.906"/>
<polygon fill="midnightblue" stroke="midnightblue" points="928.347,-293.795 935.066,-285.603 924.705,-287.816 928.347,-293.795"/>
</g>
<!-- Node42&#45;&gt;Node14 -->
<g id="edge115" class="edge"><title>Node42&#45;&gt;Node14</title>
<path fill="none" stroke="midnightblue" d="M740.985,-396.697C765.648,-367.551 825.598,-300.614 888.191,-260 913.11,-243.831 943.982,-229.991 966.671,-220.825"/>
<polygon fill="midnightblue" stroke="midnightblue" points="968.15,-224.004 976.161,-217.071 965.574,-217.495 968.15,-224.004"/>
</g>
<!-- Node42&#45;&gt;Node19 -->
<g id="edge128" class="edge"><title>Node42&#45;&gt;Node19</title>
<path fill="none" stroke="midnightblue" d="M790.853,-396.949C872.13,-378.845 1019.74,-347.401 1147.19,-328 1296.54,-305.265 1335.28,-310.685 1485.19,-292 1497.52,-290.463 1510.64,-288.695 1523.28,-286.924"/>
<polygon fill="midnightblue" stroke="midnightblue" points="1523.88,-290.374 1533.3,-285.507 1522.9,-283.443 1523.88,-290.374"/>
</g>
<!-- Node42&#45;&gt;Node37 -->
<g id="edge116" class="edge"><title>Node42&#45;&gt;Node37</title>
<path fill="none" stroke="midnightblue" d="M662.118,-408.382C588.455,-403.943 467.436,-392.012 368.191,-360 320.685,-344.677 270.401,-315.771 239.647,-296.445"/>
<polygon fill="midnightblue" stroke="midnightblue" points="241.447,-293.442 231.132,-291.024 237.688,-299.347 241.447,-293.442"/>
</g>
<!-- Node42&#45;&gt;Node39 -->
<g id="edge127" class="edge"><title>Node42&#45;&gt;Node39</title>
<path fill="none" stroke="midnightblue" d="M672.667,-396.922C630.271,-386.363 572.202,-371.901 528.115,-360.921"/>
<polygon fill="midnightblue" stroke="midnightblue" points="528.914,-357.513 518.365,-358.492 527.223,-364.305 528.914,-357.513"/>
</g>
<!-- Node43 -->
<g id="node43" class="node"><title>Node43</title>
<g id="a_node43"><a xlink:href="local__hashmap_8h.html" target="_top" xlink:title="shad/data_structures\l/local_hashmap.h">
<polygon fill="white" stroke="black" points="612.191,-329 612.191,-359 720.191,-359 720.191,-329 612.191,-329"/>
<text text-anchor="start" x="620.191" y="-347" font-family="Helvetica,sans-Serif" font-size="10.00">shad/data_structures</text>
<text text-anchor="middle" x="666.191" y="-336" font-family="Helvetica,sans-Serif" font-size="10.00">/local_hashmap.h</text>
</a>
</g>
</g>
<!-- Node42&#45;&gt;Node43 -->
<g id="edge117" class="edge"><title>Node42&#45;&gt;Node43</title>
<path fill="none" stroke="midnightblue" d="M715.521,-396.679C707.183,-387.944 696.36,-376.605 686.976,-366.775"/>
<polygon fill="midnightblue" stroke="midnightblue" points="689.271,-364.11 679.835,-359.293 684.208,-368.943 689.271,-364.11"/>
</g>
<!-- Node43&#45;&gt;Node2 -->
<g id="edge119" class="edge"><title>Node43&#45;&gt;Node2</title>
<path fill="none" stroke="midnightblue" d="M656.861,-328.679C650.289,-318.592 641.455,-305.033 634.485,-294.335"/>
<polygon fill="midnightblue" stroke="midnightblue" points="637.334,-292.296 628.943,-285.828 631.469,-296.118 637.334,-292.296"/>
</g>
<!-- Node43&#45;&gt;Node6 -->
<g id="edge123" class="edge"><title>Node43&#45;&gt;Node6</title>
<path fill="none" stroke="midnightblue" d="M720.422,-341.221C914.055,-334.73 1564.7,-311.67 1656.19,-292 1694.44,-283.777 1700.51,-270.531 1738.19,-260 1827.7,-234.982 1855.24,-250.956 1944.19,-224 1946.62,-223.263 1949.11,-222.398 1951.58,-221.462"/>
<polygon fill="midnightblue" stroke="midnightblue" points="1952.96,-224.68 1960.85,-217.617 1950.27,-218.214 1952.96,-224.68"/>
</g>
<!-- Node43&#45;&gt;Node8 -->
<g id="edge118" class="edge"><title>Node43&#45;&gt;Node8</title>
<path fill="none" stroke="midnightblue" d="M668.842,-328.873C671.409,-310.466 672.696,-278.457 655.191,-260 623.618,-226.71 488.105,-214.73 420.647,-210.775"/>
<polygon fill="midnightblue" stroke="midnightblue" points="420.61,-207.267 410.431,-210.207 420.222,-214.256 420.61,-207.267"/>
</g>
<!-- Node43&#45;&gt;Node10 -->
<g id="edge120" class="edge"><title>Node43&#45;&gt;Node10</title>
<path fill="none" stroke="midnightblue" d="M673.41,-328.821C681.385,-310.936 691.243,-280.097 676.191,-260 649.298,-224.093 346.365,-167.496 236.056,-147.927"/>
<polygon fill="midnightblue" stroke="midnightblue" points="236.455,-144.444 225.998,-146.151 235.237,-151.337 236.455,-144.444"/>
</g>
<!-- Node43&#45;&gt;Node12 -->
<g id="edge121" class="edge"><title>Node43&#45;&gt;Node12</title>
<path fill="none" stroke="midnightblue" d="M687.239,-328.912C699.852,-319.621 715.469,-306.516 726.191,-292 754.935,-253.086 730.884,-221.548 769.191,-192 816.001,-155.894 994.3,-145.114 1071.83,-142.096"/>
<polygon fill="midnightblue" stroke="midnightblue" points="1072.21,-145.584 1082.08,-141.719 1071.95,-138.589 1072.21,-145.584"/>
</g>
<!-- Node43&#45;&gt;Node13 -->
<g id="edge122" class="edge"><title>Node43&#45;&gt;Node13</title>
<path fill="none" stroke="midnightblue" d="M720.422,-330.353C779.957,-316.468 873.307,-294.697 920.224,-283.756"/>
<polygon fill="midnightblue" stroke="midnightblue" points="921.094,-287.147 930.038,-281.467 919.504,-280.33 921.094,-287.147"/>
</g>
<!-- Node43&#45;&gt;Node14 -->
<g id="edge124" class="edge"><title>Node43&#45;&gt;Node14</title>
<path fill="none" stroke="midnightblue" d="M695.154,-328.936C731.106,-311.712 794.492,-282.105 850.191,-260 889.794,-244.283 936.398,-228.689 966.574,-218.962"/>
<polygon fill="midnightblue" stroke="midnightblue" points="967.689,-222.28 976.144,-215.897 965.553,-215.614 967.689,-222.28"/>
</g>
<!-- Node43&#45;&gt;Node19 -->
<g id="edge126" class="edge"><title>Node43&#45;&gt;Node19</title>
<path fill="none" stroke="midnightblue" d="M720.46,-341.117C851.934,-336.231 1197.85,-321.424 1485.19,-292 1498.48,-290.64 1512.66,-288.847 1526.17,-286.975"/>
<polygon fill="midnightblue" stroke="midnightblue" points="1526.93,-290.402 1536.34,-285.534 1525.94,-283.471 1526.93,-290.402"/>
</g>
<!-- Node43&#45;&gt;Node37 -->
<g id="edge125" class="edge"><title>Node43&#45;&gt;Node37</title>
<path fill="none" stroke="midnightblue" d="M612.091,-335.17C531.822,-323.552 380.752,-301.686 288.43,-288.324"/>
<polygon fill="midnightblue" stroke="midnightblue" points="288.7,-284.827 278.301,-286.858 287.697,-291.754 288.7,-284.827"/>
</g>
<!-- Node44&#45;&gt;Node6 -->
<g id="edge133" class="edge"><title>Node44&#45;&gt;Node6</title>
<path fill="none" stroke="midnightblue" d="M2209.48,-470.095C2202.73,-437.395 2175.05,-322.603 2108.19,-260 2080.14,-233.731 2036.97,-220.439 2008.18,-214.125"/>
<polygon fill="midnightblue" stroke="midnightblue" points="2008.77,-210.674 1998.27,-212.104 2007.37,-217.533 2008.77,-210.674"/>
</g>
<!-- Node45 -->
<g id="node45" class="node"><title>Node45</title>
<polygon fill="white" stroke="#bfbfbf" points="2236.19,-402.5 2236.19,-421.5 2282.19,-421.5 2282.19,-402.5 2236.19,-402.5"/>
<text text-anchor="middle" x="2259.19" y="-409.5" font-family="Helvetica,sans-Serif" font-size="10.00">chrono</text>
</g>
<!-- Node44&#45;&gt;Node45 -->
<g id="edge132" class="edge"><title>Node44&#45;&gt;Node45</title>
<path fill="none" stroke="midnightblue" d="M2217.47,-470.372C2224.9,-460.151 2237.46,-442.884 2246.86,-429.957"/>
<polygon fill="midnightblue" stroke="midnightblue" points="2249.71,-431.987 2252.76,-421.841 2244.05,-427.87 2249.71,-431.987"/>
</g>
</g>
</svg>
