<?xml version="1.0" encoding="UTF-8" standalone="no"?>
<!DOCTYPE svg PUBLIC "-//W3C//DTD SVG 1.1//EN"
 "http://www.w3.org/Graphics/SVG/1.1/DTD/svg11.dtd">
<!-- Generated by graphviz version 2.36.0 (20140111.2315)
 -->
<!-- Title: shad::distributed_iterator_traits&lt; Iterator &gt; Pages: 1 -->
<svg width="134pt" height="186pt"
 viewBox="0.00 0.00 134.00 186.00" xmlns="http://www.w3.org/2000/svg" xmlns:xlink="http://www.w3.org/1999/xlink">
<g id="graph0" class="graph" transform="scale(1 1) rotate(0) translate(4 182)">
<title>shad::distributed_iterator_traits&lt; Iterator &gt;</title>
<polygon fill="white" stroke="none" points="-4,4 -4,-182 130,-182 130,4 -4,4"/>
<!-- Node1 -->
<g id="node1" class="node"><title>Node1</title>
<polygon fill="#bfbfbf" stroke="black" points="1,-79 1,-109 125,-109 125,-79 1,-79"/>
<text text-anchor="start" x="9" y="-97" font-family="Helvetica,sans-Serif" font-size="10.00">shad::distributed_iterator</text>
<text text-anchor="middle" x="63" y="-86" font-family="Helvetica,sans-Serif" font-size="10.00">_traits&lt; Iterator &gt;</text>
</g>
<!-- Node3 -->
<g id="node3" class="node"><title>Node3</title>
<g id="a_node3"><a xlink:href="structshad_1_1distributed__random__access__iterator__trait.html" target="_top" xlink:title="shad::distributed_random\l_access_iterator_trait\l\&lt; Iterator \&gt;">
<polygon fill="white" stroke="black" points="0,-0.5 0,-41.5 126,-41.5 126,-0.5 0,-0.5"/>
<text text-anchor="start" x="8" y="-29.5" font-family="Helvetica,sans-Serif" font-size="10.00">shad::distributed_random</text>
<text text-anchor="start" x="8" y="-18.5" font-family="Helvetica,sans-Serif" font-size="10.00">_access_iterator_trait</text>
<text text-anchor="middle" x="63" y="-7.5" font-family="Helvetica,sans-Serif" font-size="10.00">&lt; Iterator &gt;</text>
</a>
</g>
</g>
<!-- Node1&#45;&gt;Node3 -->
<g id="edge2" class="edge"><title>Node1&#45;&gt;Node3</title>
<path fill="none" stroke="midnightblue" d="M63,-68.8534C63,-59.9872 63,-50.065 63,-41.642"/>
<polygon fill="midnightblue" stroke="midnightblue" points="59.5001,-68.9727 63,-78.9727 66.5001,-68.9727 59.5001,-68.9727"/>
</g>
<!-- Node2 -->
<g id="node2" class="node"><title>Node2</title>
<polygon fill="white" stroke="#bfbfbf" points="16.5,-147 16.5,-177 109.5,-177 109.5,-147 16.5,-147"/>
<text text-anchor="start" x="24.5" y="-165" font-family="Helvetica,sans-Serif" font-size="10.00">std::iterator_traits</text>
<text text-anchor="middle" x="63" y="-154" font-family="Helvetica,sans-Serif" font-size="10.00">&lt; Iterator &gt;</text>
</g>
<!-- Node2&#45;&gt;Node1 -->
<g id="edge1" class="edge"><title>Node2&#45;&gt;Node1</title>
<path fill="none" stroke="midnightblue" d="M63,-136.532C63,-127.361 63,-117.245 63,-109.293"/>
<polygon fill="midnightblue" stroke="midnightblue" points="59.5001,-136.679 63,-146.679 66.5001,-136.679 59.5001,-136.679"/>
</g>
</g>
</svg>
