<?xml version="1.0" encoding="UTF-8" standalone="no"?>
<!DOCTYPE svg PUBLIC "-//W3C//DTD SVG 1.1//EN"
 "http://www.w3.org/Graphics/SVG/1.1/DTD/svg11.dtd">
<!-- Generated by graphviz version 2.36.0 (20140111.2315)
 -->
<!-- Title: shad::local_iterator_traits&lt; Iterator &gt; Pages: 1 -->
<svg width="106pt" height="108pt"
 viewBox="0.00 0.00 106.00 108.00" xmlns="http://www.w3.org/2000/svg" xmlns:xlink="http://www.w3.org/1999/xlink">
<g id="graph0" class="graph" transform="scale(1 1) rotate(0) translate(4 104)">
<title>shad::local_iterator_traits&lt; Iterator &gt;</title>
<polygon fill="white" stroke="none" points="-4,4 -4,-104 102,-104 102,4 -4,4"/>
<!-- Node1 -->
<g id="node1" class="node"><title>Node1</title>
<polygon fill="#bfbfbf" stroke="black" points="-0.5,-1 -0.5,-31 98.5,-31 98.5,-1 -0.5,-1"/>
<text text-anchor="start" x="7.5" y="-19" font-family="Helvetica,sans-Serif" font-size="10.00">shad::local_iterator</text>
<text text-anchor="middle" x="49" y="-8" font-family="Helvetica,sans-Serif" font-size="10.00">_traits&lt; Iterator &gt;</text>
</g>
<!-- Node2 -->
<g id="node2" class="node"><title>Node2</title>
<polygon fill="white" stroke="#bfbfbf" points="2.5,-69 2.5,-99 95.5,-99 95.5,-69 2.5,-69"/>
<text text-anchor="start" x="10.5" y="-87" font-family="Helvetica,sans-Serif" font-size="10.00">std::iterator_traits</text>
<text text-anchor="middle" x="49" y="-76" font-family="Helvetica,sans-Serif" font-size="10.00">&lt; Iterator &gt;</text>
</g>
<!-- Node2&#45;&gt;Node1 -->
<g id="edge1" class="edge"><title>Node2&#45;&gt;Node1</title>
<path fill="none" stroke="midnightblue" d="M49,-58.5322C49,-49.3606 49,-39.2449 49,-31.2931"/>
<polygon fill="midnightblue" stroke="midnightblue" points="45.5001,-58.6789 49,-68.679 52.5001,-58.679 45.5001,-58.6789"/>
</g>
</g>
</svg>
