<?xml version="1.0" encoding="UTF-8" standalone="no"?>
<!DOCTYPE svg PUBLIC "-//W3C//DTD SVG 1.1//EN"
 "http://www.w3.org/Graphics/SVG/1.1/DTD/svg11.dtd">
<!-- Generated by graphviz version 2.36.0 (20140111.2315)
 -->
<!-- Title: shad::DefaultEdgeIndexStorage&lt; SrcT, DestT, NeighborsStorageT &gt;::LocalEdgeListChunk Pages: 1 -->
<svg width="178pt" height="130pt"
 viewBox="0.00 0.00 178.00 130.00" xmlns="http://www.w3.org/2000/svg" xmlns:xlink="http://www.w3.org/1999/xlink">
<g id="graph0" class="graph" transform="scale(1 1) rotate(0) translate(4 126)">
<title>shad::DefaultEdgeIndexStorage&lt; SrcT, DestT, NeighborsStorageT &gt;::LocalEdgeListChunk</title>
<polygon fill="white" stroke="none" points="-4,4 -4,-126 174,-126 174,4 -4,4"/>
<!-- Node1 -->
<g id="node1" class="node"><title>Node1</title>
<polygon fill="#bfbfbf" stroke="black" points="0,-0.5 0,-41.5 170,-41.5 170,-0.5 0,-0.5"/>
<text text-anchor="start" x="8" y="-29.5" font-family="Helvetica,sans-Serif" font-size="10.00">shad::DefaultEdgeIndexStorage</text>
<text text-anchor="start" x="8" y="-18.5" font-family="Helvetica,sans-Serif" font-size="10.00">&lt; SrcT, DestT, NeighborsStorageT</text>
<text text-anchor="middle" x="85" y="-7.5" font-family="Helvetica,sans-Serif" font-size="10.00"> &gt;::LocalEdgeListChunk</text>
</g>
<!-- Node2 -->
<g id="node2" class="node"><title>Node2</title>
<polygon fill="white" stroke="#bfbfbf" points="22.5,-91 22.5,-121 147.5,-121 147.5,-91 22.5,-91"/>
<text text-anchor="start" x="30.5" y="-109" font-family="Helvetica,sans-Serif" font-size="10.00">std::array&lt; DestT,</text>
<text text-anchor="middle" x="85" y="-98" font-family="Helvetica,sans-Serif" font-size="10.00"> kEdgeListChunkSize_ &gt;</text>
</g>
<!-- Node2&#45;&gt;Node1 -->
<g id="edge1" class="edge"><title>Node2&#45;&gt;Node1</title>
<path fill="none" stroke="#9a32cd" stroke-dasharray="5,2" d="M85,-80.8051C85,-68.3941 85,-53.4676 85,-41.7587"/>
<polygon fill="#9a32cd" stroke="#9a32cd" points="81.5001,-80.9201 85,-90.9202 88.5001,-80.9202 81.5001,-80.9201"/>
<text text-anchor="middle" x="113" y="-63.5" font-family="Helvetica,sans-Serif" font-size="10.00"> destinations</text>
</g>
</g>
</svg>
