<?xml version="1.0" encoding="UTF-8" standalone="no"?>
<!DOCTYPE svg PUBLIC "-//W3C//DTD SVG 1.1//EN"
 "http://www.w3.org/Graphics/SVG/1.1/DTD/svg11.dtd">
<!-- Generated by graphviz version 2.36.0 (20140111.2315)
 -->
<!-- Title: shad::is_execution_policy&lt; ExecutionPolicy &gt; Pages: 1 -->
<svg width="370pt" height="82pt"
 viewBox="0.00 0.00 370.00 82.00" xmlns="http://www.w3.org/2000/svg" xmlns:xlink="http://www.w3.org/1999/xlink">
<g id="graph0" class="graph" transform="scale(1 1) rotate(0) translate(4 78)">
<title>shad::is_execution_policy&lt; ExecutionPolicy &gt;</title>
<polygon fill="white" stroke="none" points="-4,4 -4,-78 366,-78 366,4 -4,4"/>
<!-- Node1 -->
<g id="node1" class="node"><title>Node1</title>
<polygon fill="#bfbfbf" stroke="black" points="226,-22 226,-52 362,-52 362,-22 226,-22"/>
<text text-anchor="start" x="234" y="-40" font-family="Helvetica,sans-Serif" font-size="10.00">shad::is_execution</text>
<text text-anchor="middle" x="294" y="-29" font-family="Helvetica,sans-Serif" font-size="10.00">_policy&lt; ExecutionPolicy &gt;</text>
</g>
<!-- Node2 -->
<g id="node2" class="node"><title>Node2</title>
<polygon fill="white" stroke="#bfbfbf" points="0,-0 0,-74 190,-74 190,-0 0,-0"/>
<text text-anchor="start" x="8" y="-62" font-family="Helvetica,sans-Serif" font-size="10.00">std::integral_constant</text>
<text text-anchor="start" x="8" y="-51" font-family="Helvetica,sans-Serif" font-size="10.00">&lt; bool, std::is_same&lt;</text>
<text text-anchor="start" x="8" y="-40" font-family="Helvetica,sans-Serif" font-size="10.00"> ExecutionPolicy, distributed</text>
<text text-anchor="start" x="8" y="-29" font-family="Helvetica,sans-Serif" font-size="10.00">_sequential_tag &gt;::value||std</text>
<text text-anchor="start" x="8" y="-18" font-family="Helvetica,sans-Serif" font-size="10.00">::is_same&lt; ExecutionPolicy, distributed</text>
<text text-anchor="middle" x="95" y="-7" font-family="Helvetica,sans-Serif" font-size="10.00">_parallel_tag &gt;::value &gt;</text>
</g>
<!-- Node2&#45;&gt;Node1 -->
<g id="edge1" class="edge"><title>Node2&#45;&gt;Node1</title>
<path fill="none" stroke="midnightblue" d="M200.36,-37C209.028,-37 217.636,-37 225.913,-37"/>
<polygon fill="midnightblue" stroke="midnightblue" points="200.173,-33.5001 190.173,-37 200.173,-40.5001 200.173,-33.5001"/>
</g>
</g>
</svg>
