<?xml version="1.0" encoding="UTF-8" standalone="no"?>
<!DOCTYPE svg PUBLIC "-//W3C//DTD SVG 1.1//EN"
 "http://www.w3.org/Graphics/SVG/1.1/DTD/svg11.dtd">
<!-- Generated by graphviz version 2.36.0 (20140111.2315)
 -->
<!-- Title: shad::is_std_hashable&lt; T &gt; Pages: 1 -->
<svg width="320pt" height="72pt"
 viewBox="0.00 0.00 320.00 72.00" xmlns="http://www.w3.org/2000/svg" xmlns:xlink="http://www.w3.org/1999/xlink">
<g id="graph0" class="graph" transform="scale(1 1) rotate(0) translate(4 68)">
<title>shad::is_std_hashable&lt; T &gt;</title>
<polygon fill="white" stroke="none" points="-4,4 -4,-68 316,-68 316,4 -4,4"/>
<!-- Node1 -->
<g id="node1" class="node"><title>Node1</title>
<polygon fill="#bfbfbf" stroke="black" points="174,-22.5 174,-41.5 312,-41.5 312,-22.5 174,-22.5"/>
<text text-anchor="middle" x="243" y="-29.5" font-family="Helvetica,sans-Serif" font-size="10.00">shad::is_std_hashable&lt; T &gt;</text>
</g>
<!-- Node2 -->
<g id="node2" class="node"><title>Node2</title>
<polygon fill="white" stroke="#bfbfbf" points="0.5,-0.5 0.5,-63.5 137.5,-63.5 137.5,-0.5 0.5,-0.5"/>
<text text-anchor="start" x="8.5" y="-51.5" font-family="Helvetica,sans-Serif" font-size="10.00">std::integral_constant</text>
<text text-anchor="start" x="8.5" y="-40.5" font-family="Helvetica,sans-Serif" font-size="10.00">&lt; bool, std::is_arithmetic</text>
<text text-anchor="start" x="8.5" y="-29.5" font-family="Helvetica,sans-Serif" font-size="10.00">&lt; T &gt;::value||std::is_pointer</text>
<text text-anchor="start" x="8.5" y="-18.5" font-family="Helvetica,sans-Serif" font-size="10.00">&lt; T &gt;::value||std::is_same&lt;</text>
<text text-anchor="middle" x="69" y="-7.5" font-family="Helvetica,sans-Serif" font-size="10.00"> T, std::string &gt;::value &gt;</text>
</g>
<!-- Node2&#45;&gt;Node1 -->
<g id="edge1" class="edge"><title>Node2&#45;&gt;Node1</title>
<path fill="none" stroke="midnightblue" d="M148.054,-32C156.696,-32 165.446,-32 173.952,-32"/>
<polygon fill="midnightblue" stroke="midnightblue" points="147.979,-28.5001 137.979,-32 147.979,-35.5001 147.979,-28.5001"/>
</g>
</g>
</svg>
