<?xml version="1.0" encoding="UTF-8" standalone="no"?>
<!DOCTYPE svg PUBLIC "-//W3C//DTD SVG 1.1//EN"
 "http://www.w3.org/Graphics/SVG/1.1/DTD/svg11.dtd">
<!-- Generated by graphviz version 2.36.0 (20140111.2315)
 -->
<!-- Title: include/shad/runtime/synchronous_interface.h Pages: 1 -->
<svg width="532pt" height="220pt"
 viewBox="0.00 0.00 532.00 220.00" xmlns="http://www.w3.org/2000/svg" xmlns:xlink="http://www.w3.org/1999/xlink">
<g id="graph0" class="graph" transform="scale(1 1) rotate(0) translate(4 216)">
<title>include/shad/runtime/synchronous_interface.h</title>
<polygon fill="white" stroke="none" points="-4,4 -4,-216 528,-216 528,4 -4,4"/>
<!-- Node1 -->
<g id="node1" class="node"><title>Node1</title>
<polygon fill="#bfbfbf" stroke="black" points="41,-181 41,-211 167,-211 167,-181 41,-181"/>
<text text-anchor="start" x="49" y="-199" font-family="Helvetica,sans-Serif" font-size="10.00">include/shad/runtime</text>
<text text-anchor="middle" x="104" y="-188" font-family="Helvetica,sans-Serif" font-size="10.00">/synchronous_interface.h</text>
</g>
<!-- Node2 -->
<g id="node2" class="node"><title>Node2</title>
<polygon fill="white" stroke="#bfbfbf" points="-0.5,-124.5 -0.5,-143.5 48.5,-143.5 48.5,-124.5 -0.5,-124.5"/>
<text text-anchor="middle" x="24" y="-131.5" font-family="Helvetica,sans-Serif" font-size="10.00">cstddef</text>
</g>
<!-- Node1&#45;&gt;Node2 -->
<g id="edge1" class="edge"><title>Node1&#45;&gt;Node2</title>
<path fill="none" stroke="midnightblue" d="M85.0411,-180.781C72.5773,-171.433 56.3031,-159.227 43.6933,-149.77"/>
<polygon fill="midnightblue" stroke="midnightblue" points="45.7407,-146.931 35.6407,-143.731 41.5407,-152.531 45.7407,-146.931"/>
</g>
<!-- Node3 -->
<g id="node3" class="node"><title>Node3</title>
<polygon fill="white" stroke="#bfbfbf" points="62,-62.5 62,-81.5 108,-81.5 108,-62.5 62,-62.5"/>
<text text-anchor="middle" x="85" y="-69.5" font-family="Helvetica,sans-Serif" font-size="10.00">cstdint</text>
</g>
<!-- Node1&#45;&gt;Node3 -->
<g id="edge2" class="edge"><title>Node1&#45;&gt;Node3</title>
<path fill="none" stroke="midnightblue" d="M101.751,-180.712C100.144,-170.488 97.9327,-156.398 96,-144 93.2408,-126.301 90.1156,-106.116 87.9034,-91.8042"/>
<polygon fill="midnightblue" stroke="midnightblue" points="91.3353,-91.0935 86.3495,-81.7452 84.4173,-92.1623 91.3353,-91.0935"/>
</g>
<!-- Node4 -->
<g id="node4" class="node"><title>Node4</title>
<polygon fill="white" stroke="#bfbfbf" points="105,-124.5 105,-143.5 157,-143.5 157,-124.5 105,-124.5"/>
<text text-anchor="middle" x="131" y="-131.5" font-family="Helvetica,sans-Serif" font-size="10.00">memory</text>
</g>
<!-- Node1&#45;&gt;Node4 -->
<g id="edge3" class="edge"><title>Node1&#45;&gt;Node4</title>
<path fill="none" stroke="midnightblue" d="M110.399,-180.781C114.16,-172.422 118.95,-161.777 122.965,-152.856"/>
<polygon fill="midnightblue" stroke="midnightblue" points="126.159,-154.286 127.071,-143.731 119.776,-151.413 126.159,-154.286"/>
</g>
<!-- Node5 -->
<g id="node5" class="node"><title>Node5</title>
<g id="a_node5"><a xlink:href="locality_8h.html" target="_top" xlink:title="shad/runtime/locality.h">
<polygon fill="white" stroke="black" points="175.5,-124.5 175.5,-143.5 290.5,-143.5 290.5,-124.5 175.5,-124.5"/>
<text text-anchor="middle" x="233" y="-131.5" font-family="Helvetica,sans-Serif" font-size="10.00">shad/runtime/locality.h</text>
</a>
</g>
</g>
<!-- Node1&#45;&gt;Node5 -->
<g id="edge4" class="edge"><title>Node1&#45;&gt;Node5</title>
<path fill="none" stroke="midnightblue" d="M134.245,-180.933C155.717,-170.946 184.325,-157.64 205.221,-147.92"/>
<polygon fill="midnightblue" stroke="midnightblue" points="206.919,-150.991 214.51,-143.6 203.967,-144.644 206.919,-150.991"/>
</g>
<!-- Node5&#45;&gt;Node3 -->
<g id="edge5" class="edge"><title>Node5&#45;&gt;Node3</title>
<path fill="none" stroke="midnightblue" d="M211.795,-124.403C186.628,-114.2 144.46,-97.1055 115.721,-85.4544"/>
<polygon fill="midnightblue" stroke="midnightblue" points="116.748,-82.0941 106.165,-81.5806 114.118,-88.5813 116.748,-82.0941"/>
</g>
<!-- Node6 -->
<g id="node6" class="node"><title>Node6</title>
<polygon fill="white" stroke="#bfbfbf" points="142,-62.5 142,-81.5 196,-81.5 196,-62.5 142,-62.5"/>
<text text-anchor="middle" x="169" y="-69.5" font-family="Helvetica,sans-Serif" font-size="10.00">iostream</text>
</g>
<!-- Node5&#45;&gt;Node6 -->
<g id="edge6" class="edge"><title>Node5&#45;&gt;Node6</title>
<path fill="none" stroke="midnightblue" d="M223.83,-124.403C213.85,-115.047 197.688,-99.8948 185.491,-88.4599"/>
<polygon fill="midnightblue" stroke="midnightblue" points="187.842,-85.8666 178.153,-81.5806 183.054,-90.9734 187.842,-85.8666"/>
</g>
<!-- Node7 -->
<g id="node7" class="node"><title>Node7</title>
<polygon fill="white" stroke="#bfbfbf" points="172,-0.5 172,-19.5 276,-19.5 276,-0.5 172,-0.5"/>
<text text-anchor="middle" x="224" y="-7.5" font-family="Helvetica,sans-Serif" font-size="10.00">shad/config/config.h</text>
</g>
<!-- Node5&#45;&gt;Node7 -->
<g id="edge7" class="edge"><title>Node5&#45;&gt;Node7</title>
<path fill="none" stroke="midnightblue" d="M232.353,-124.226C230.9,-104.53 227.352,-56.4371 225.38,-29.7004"/>
<polygon fill="midnightblue" stroke="midnightblue" points="228.868,-29.4098 224.641,-19.6944 221.887,-29.9249 228.868,-29.4098"/>
</g>
<!-- Node8 -->
<g id="node8" class="node"><title>Node8</title>
<g id="a_node8"><a xlink:href="mapping__traits_8h.html" target="_top" xlink:title="shad/runtime/mapping\l_traits.h">
<polygon fill="white" stroke="black" points="252.5,-57 252.5,-87 365.5,-87 365.5,-57 252.5,-57"/>
<text text-anchor="start" x="260.5" y="-75" font-family="Helvetica,sans-Serif" font-size="10.00">shad/runtime/mapping</text>
<text text-anchor="middle" x="309" y="-64" font-family="Helvetica,sans-Serif" font-size="10.00">_traits.h</text>
</a>
</g>
</g>
<!-- Node5&#45;&gt;Node8 -->
<g id="edge8" class="edge"><title>Node5&#45;&gt;Node8</title>
<path fill="none" stroke="midnightblue" d="M243.889,-124.403C254.086,-116.353 269.717,-104.013 283.109,-93.4406"/>
<polygon fill="midnightblue" stroke="midnightblue" points="285.408,-96.0844 291.088,-87.1408 281.071,-90.5902 285.408,-96.0844"/>
</g>
<!-- Node10 -->
<g id="node10" class="node"><title>Node10</title>
<g id="a_node10"><a xlink:href="available__traits__mappings_8h.html" target="_top" xlink:title="shad/runtime/mappings\l/available_traits_mappings.h">
<polygon fill="white" stroke="black" points="384,-57 384,-87 524,-87 524,-57 384,-57"/>
<text text-anchor="start" x="392" y="-75" font-family="Helvetica,sans-Serif" font-size="10.00">shad/runtime/mappings</text>
<text text-anchor="middle" x="454" y="-64" font-family="Helvetica,sans-Serif" font-size="10.00">/available_traits_mappings.h</text>
</a>
</g>
</g>
<!-- Node5&#45;&gt;Node10 -->
<g id="edge11" class="edge"><title>Node5&#45;&gt;Node10</title>
<path fill="none" stroke="midnightblue" d="M264.664,-124.403C297.923,-115.374 351.063,-100.947 392.592,-89.6718"/>
<polygon fill="midnightblue" stroke="midnightblue" points="393.606,-93.0232 402.34,-87.0253 391.772,-86.2677 393.606,-93.0232"/>
</g>
<!-- Node8&#45;&gt;Node7 -->
<g id="edge10" class="edge"><title>Node8&#45;&gt;Node7</title>
<path fill="none" stroke="midnightblue" d="M288.856,-56.7808C275.405,-47.2862 257.778,-34.8434 244.296,-25.3267"/>
<polygon fill="midnightblue" stroke="midnightblue" points="246.309,-22.4632 236.121,-19.5557 242.272,-28.182 246.309,-22.4632"/>
</g>
<!-- Node9 -->
<g id="node9" class="node"><title>Node9</title>
<polygon fill="white" stroke="#bfbfbf" points="294.5,-0.5 294.5,-19.5 335.5,-19.5 335.5,-0.5 294.5,-0.5"/>
<text text-anchor="middle" x="315" y="-7.5" font-family="Helvetica,sans-Serif" font-size="10.00">string</text>
</g>
<!-- Node8&#45;&gt;Node9 -->
<g id="edge9" class="edge"><title>Node8&#45;&gt;Node9</title>
<path fill="none" stroke="midnightblue" d="M310.422,-56.7808C311.231,-48.6913 312.254,-38.4617 313.127,-29.725"/>
<polygon fill="midnightblue" stroke="midnightblue" points="316.614,-30.0292 314.127,-19.7305 309.649,-29.3326 316.614,-30.0292"/>
</g>
</g>
</svg>
