<?xml version="1.0" encoding="UTF-8" standalone="no"?>
<!DOCTYPE svg PUBLIC "-//W3C//DTD SVG 1.1//EN"
 "http://www.w3.org/Graphics/SVG/1.1/DTD/svg11.dtd">
<!-- Generated by graphviz version 2.36.0 (20140111.2315)
 -->
<!-- Title: include/shad/runtime/synchronous_interface.h Pages: 1 -->
<svg width="456pt" height="220pt"
 viewBox="0.00 0.00 456.00 220.00" xmlns="http://www.w3.org/2000/svg" xmlns:xlink="http://www.w3.org/1999/xlink">
<g id="graph0" class="graph" transform="scale(1 1) rotate(0) translate(4 216)">
<title>include/shad/runtime/synchronous_interface.h</title>
<polygon fill="white" stroke="none" points="-4,4 -4,-216 452,-216 452,4 -4,4"/>
<!-- Node1 -->
<g id="node1" class="node"><title>Node1</title>
<polygon fill="#bfbfbf" stroke="black" points="41,-181 41,-211 167,-211 167,-181 41,-181"/>
<text text-anchor="start" x="49" y="-199" font-family="Helvetica,sans-Serif" font-size="10.00">include/shad/runtime</text>
<text text-anchor="middle" x="104" y="-188" font-family="Helvetica,sans-Serif" font-size="10.00">/synchronous_interface.h</text>
</g>
<!-- Node2 -->
<g id="node2" class="node"><title>Node2</title>
<polygon fill="white" stroke="#bfbfbf" points="-0.5,-124.5 -0.5,-143.5 48.5,-143.5 48.5,-124.5 -0.5,-124.5"/>
<text text-anchor="middle" x="24" y="-131.5" font-family="Helvetica,sans-Serif" font-size="10.00">cstddef</text>
</g>
<!-- Node1&#45;&gt;Node2 -->
<g id="edge1" class="edge"><title>Node1&#45;&gt;Node2</title>
<path fill="none" stroke="midnightblue" d="M85.0411,-180.781C72.5773,-171.433 56.3031,-159.227 43.6933,-149.77"/>
<polygon fill="midnightblue" stroke="midnightblue" points="45.7407,-146.931 35.6407,-143.731 41.5407,-152.531 45.7407,-146.931"/>
</g>
<!-- Node3 -->
<g id="node3" class="node"><title>Node3</title>
<polygon fill="white" stroke="#bfbfbf" points="64,-62.5 64,-81.5 110,-81.5 110,-62.5 64,-62.5"/>
<text text-anchor="middle" x="87" y="-69.5" font-family="Helvetica,sans-Serif" font-size="10.00">cstdint</text>
</g>
<!-- Node1&#45;&gt;Node3 -->
<g id="edge2" class="edge"><title>Node1&#45;&gt;Node3</title>
<path fill="none" stroke="midnightblue" d="M101.646,-180.728C99.9888,-170.511 97.7614,-156.423 96,-144 93.4952,-126.333 90.9684,-106.144 89.2326,-91.8229"/>
<polygon fill="midnightblue" stroke="midnightblue" points="92.6912,-91.2677 88.0256,-81.7555 85.7409,-92.101 92.6912,-91.2677"/>
</g>
<!-- Node4 -->
<g id="node4" class="node"><title>Node4</title>
<polygon fill="white" stroke="#bfbfbf" points="105,-124.5 105,-143.5 157,-143.5 157,-124.5 105,-124.5"/>
<text text-anchor="middle" x="131" y="-131.5" font-family="Helvetica,sans-Serif" font-size="10.00">memory</text>
</g>
<!-- Node1&#45;&gt;Node4 -->
<g id="edge3" class="edge"><title>Node1&#45;&gt;Node4</title>
<path fill="none" stroke="midnightblue" d="M110.399,-180.781C114.16,-172.422 118.95,-161.777 122.965,-152.856"/>
<polygon fill="midnightblue" stroke="midnightblue" points="126.159,-154.286 127.071,-143.731 119.776,-151.413 126.159,-154.286"/>
</g>
<!-- Node5 -->
<g id="node5" class="node"><title>Node5</title>
<g id="a_node5"><a xlink:href="locality_8h.html" target="_top" xlink:title="shad/runtime/locality.h">
<polygon fill="white" stroke="black" points="175.5,-124.5 175.5,-143.5 290.5,-143.5 290.5,-124.5 175.5,-124.5"/>
<text text-anchor="middle" x="233" y="-131.5" font-family="Helvetica,sans-Serif" font-size="10.00">shad/runtime/locality.h</text>
</a>
</g>
</g>
<!-- Node1&#45;&gt;Node5 -->
<g id="edge4" class="edge"><title>Node1&#45;&gt;Node5</title>
<path fill="none" stroke="midnightblue" d="M134.245,-180.933C155.717,-170.946 184.325,-157.64 205.221,-147.92"/>
<polygon fill="midnightblue" stroke="midnightblue" points="206.919,-150.991 214.51,-143.6 203.967,-144.644 206.919,-150.991"/>
</g>
<!-- Node5&#45;&gt;Node3 -->
<g id="edge5" class="edge"><title>Node5&#45;&gt;Node3</title>
<path fill="none" stroke="midnightblue" d="M212.082,-124.403C187.254,-114.2 145.657,-97.1055 117.306,-85.4544"/>
<polygon fill="midnightblue" stroke="midnightblue" points="118.459,-82.1445 107.879,-81.5806 115.798,-88.6191 118.459,-82.1445"/>
</g>
<!-- Node6 -->
<g id="node6" class="node"><title>Node6</title>
<polygon fill="white" stroke="#bfbfbf" points="96,-0.5 96,-19.5 200,-19.5 200,-0.5 96,-0.5"/>
<text text-anchor="middle" x="148" y="-7.5" font-family="Helvetica,sans-Serif" font-size="10.00">shad/config/config.h</text>
</g>
<!-- Node5&#45;&gt;Node6 -->
<g id="edge6" class="edge"><title>Node5&#45;&gt;Node6</title>
<path fill="none" stroke="midnightblue" d="M213.314,-124.425C198.394,-116.927 178.552,-104.629 167,-88 155.001,-70.7267 150.556,-46.6526 148.923,-30.0433"/>
<polygon fill="midnightblue" stroke="midnightblue" points="152.403,-29.6309 148.183,-19.9124 145.421,-30.1408 152.403,-29.6309"/>
</g>
<!-- Node7 -->
<g id="node7" class="node"><title>Node7</title>
<g id="a_node7"><a xlink:href="mapping__traits_8h.html" target="_top" xlink:title="shad/runtime/mapping\l_traits.h">
<polygon fill="white" stroke="black" points="176.5,-57 176.5,-87 289.5,-87 289.5,-57 176.5,-57"/>
<text text-anchor="start" x="184.5" y="-75" font-family="Helvetica,sans-Serif" font-size="10.00">shad/runtime/mapping</text>
<text text-anchor="middle" x="233" y="-64" font-family="Helvetica,sans-Serif" font-size="10.00">_traits.h</text>
</a>
</g>
</g>
<!-- Node5&#45;&gt;Node7 -->
<g id="edge7" class="edge"><title>Node5&#45;&gt;Node7</title>
<path fill="none" stroke="midnightblue" d="M233,-124.403C233,-117.341 233,-106.975 233,-97.399"/>
<polygon fill="midnightblue" stroke="midnightblue" points="236.5,-97.1408 233,-87.1408 229.5,-97.1408 236.5,-97.1408"/>
</g>
<!-- Node9 -->
<g id="node9" class="node"><title>Node9</title>
<g id="a_node9"><a xlink:href="available__traits__mappings_8h.html" target="_top" xlink:title="shad/runtime/mappings\l/available_traits_mappings.h">
<polygon fill="white" stroke="black" points="308,-57 308,-87 448,-87 448,-57 308,-57"/>
<text text-anchor="start" x="316" y="-75" font-family="Helvetica,sans-Serif" font-size="10.00">shad/runtime/mappings</text>
<text text-anchor="middle" x="378" y="-64" font-family="Helvetica,sans-Serif" font-size="10.00">/available_traits_mappings.h</text>
</a>
</g>
</g>
<!-- Node5&#45;&gt;Node9 -->
<g id="edge10" class="edge"><title>Node5&#45;&gt;Node9</title>
<path fill="none" stroke="midnightblue" d="M253.775,-124.403C274.768,-115.717 307.833,-102.035 334.574,-90.9694"/>
<polygon fill="midnightblue" stroke="midnightblue" points="336.204,-94.083 344.105,-87.0253 333.527,-87.6148 336.204,-94.083"/>
</g>
<!-- Node7&#45;&gt;Node6 -->
<g id="edge9" class="edge"><title>Node7&#45;&gt;Node6</title>
<path fill="none" stroke="midnightblue" d="M212.856,-56.7808C199.405,-47.2862 181.778,-34.8434 168.296,-25.3267"/>
<polygon fill="midnightblue" stroke="midnightblue" points="170.309,-22.4632 160.121,-19.5557 166.272,-28.182 170.309,-22.4632"/>
</g>
<!-- Node8 -->
<g id="node8" class="node"><title>Node8</title>
<polygon fill="white" stroke="#bfbfbf" points="218.5,-0.5 218.5,-19.5 259.5,-19.5 259.5,-0.5 218.5,-0.5"/>
<text text-anchor="middle" x="239" y="-7.5" font-family="Helvetica,sans-Serif" font-size="10.00">string</text>
</g>
<!-- Node7&#45;&gt;Node8 -->
<g id="edge8" class="edge"><title>Node7&#45;&gt;Node8</title>
<path fill="none" stroke="midnightblue" d="M234.422,-56.7808C235.231,-48.6913 236.254,-38.4617 237.127,-29.725"/>
<polygon fill="midnightblue" stroke="midnightblue" points="240.614,-30.0292 238.127,-19.7305 233.649,-29.3326 240.614,-30.0292"/>
</g>
</g>
</svg>
