<?xml version="1.0" encoding="UTF-8" standalone="no"?>
<!DOCTYPE svg PUBLIC "-//W3C//DTD SVG 1.1//EN"
 "http://www.w3.org/Graphics/SVG/1.1/DTD/svg11.dtd">
<!-- Generated by graphviz version 2.36.0 (20140111.2315)
 -->
<!-- Title: include/shad/runtime/mappings/tbb/tbb_synchronous_interface.h Pages: 1 -->
<svg width="982pt" height="298pt"
 viewBox="0.00 0.00 982.00 298.00" xmlns="http://www.w3.org/2000/svg" xmlns:xlink="http://www.w3.org/1999/xlink">
<g id="graph0" class="graph" transform="scale(1 1) rotate(0) translate(4 294)">
<title>include/shad/runtime/mappings/tbb/tbb_synchronous_interface.h</title>
<polygon fill="white" stroke="none" points="-4,4 -4,-294 978,-294 978,4 -4,4"/>
<!-- Node1 -->
<g id="node1" class="node"><title>Node1</title>
<polygon fill="#bfbfbf" stroke="black" points="300.5,-248.5 300.5,-289.5 455.5,-289.5 455.5,-248.5 300.5,-248.5"/>
<text text-anchor="start" x="308.5" y="-277.5" font-family="Helvetica,sans-Serif" font-size="10.00">include/shad/runtime</text>
<text text-anchor="start" x="308.5" y="-266.5" font-family="Helvetica,sans-Serif" font-size="10.00">/mappings/tbb/tbb_synchronous</text>
<text text-anchor="middle" x="378" y="-255.5" font-family="Helvetica,sans-Serif" font-size="10.00">_interface.h</text>
</g>
<!-- Node2 -->
<g id="node2" class="node"><title>Node2</title>
<polygon fill="white" stroke="#bfbfbf" points="309,-124.5 309,-143.5 361,-143.5 361,-124.5 309,-124.5"/>
<text text-anchor="middle" x="335" y="-131.5" font-family="Helvetica,sans-Serif" font-size="10.00">memory</text>
</g>
<!-- Node1&#45;&gt;Node2 -->
<g id="edge1" class="edge"><title>Node1&#45;&gt;Node2</title>
<path fill="none" stroke="midnightblue" d="M368.645,-248.349C363.837,-237.745 358.135,-224.336 354,-212 347.451,-192.46 342.065,-169.448 338.721,-153.703"/>
<polygon fill="midnightblue" stroke="midnightblue" points="342.102,-152.766 336.659,-143.676 335.245,-154.176 342.102,-152.766"/>
</g>
<!-- Node3 -->
<g id="node3" class="node"><title>Node3</title>
<polygon fill="white" stroke="#bfbfbf" points="728,-186.5 728,-205.5 768,-205.5 768,-186.5 728,-186.5"/>
<text text-anchor="middle" x="748" y="-193.5" font-family="Helvetica,sans-Serif" font-size="10.00">utility</text>
</g>
<!-- Node1&#45;&gt;Node3 -->
<g id="edge2" class="edge"><title>Node1&#45;&gt;Node3</title>
<path fill="none" stroke="midnightblue" d="M455.518,-261.908C525.466,-254.854 630.503,-240.36 718,-212 719.911,-211.381 721.852,-210.656 723.78,-209.865"/>
<polygon fill="midnightblue" stroke="midnightblue" points="725.507,-212.922 733.113,-205.547 722.568,-206.569 725.507,-212.922"/>
</g>
<!-- Node4 -->
<g id="node4" class="node"><title>Node4</title>
<g id="a_node4"><a xlink:href="locality_8h.html" target="_top" xlink:title="shad/runtime/locality.h">
<polygon fill="white" stroke="black" points="69.5,-124.5 69.5,-143.5 184.5,-143.5 184.5,-124.5 69.5,-124.5"/>
<text text-anchor="middle" x="127" y="-131.5" font-family="Helvetica,sans-Serif" font-size="10.00">shad/runtime/locality.h</text>
</a>
</g>
</g>
<!-- Node1&#45;&gt;Node4 -->
<g id="edge3" class="edge"><title>Node1&#45;&gt;Node4</title>
<path fill="none" stroke="midnightblue" d="M300.414,-262.983C256.885,-256.643 203.885,-242.643 166,-212 147.475,-197.016 136.917,-170.942 131.576,-153.333"/>
<polygon fill="midnightblue" stroke="midnightblue" points="134.934,-152.347 128.899,-143.639 128.187,-154.21 134.934,-152.347"/>
</g>
<!-- Node11 -->
<g id="node11" class="node"><title>Node11</title>
<g id="a_node11"><a xlink:href="tbb__traits__mapping_8h.html" target="_top" xlink:title="shad/runtime/mappings\l/tbb/tbb_traits_mapping.h">
<polygon fill="white" stroke="black" points="582.5,-181 582.5,-211 709.5,-211 709.5,-181 582.5,-181"/>
<text text-anchor="start" x="590.5" y="-199" font-family="Helvetica,sans-Serif" font-size="10.00">shad/runtime/mappings</text>
<text text-anchor="middle" x="646" y="-188" font-family="Helvetica,sans-Serif" font-size="10.00">/tbb/tbb_traits_mapping.h</text>
</a>
</g>
</g>
<!-- Node1&#45;&gt;Node11 -->
<g id="edge11" class="edge"><title>Node1&#45;&gt;Node11</title>
<path fill="none" stroke="midnightblue" d="M451.942,-248.411C493.22,-237.475 544.084,-224 583.382,-213.589"/>
<polygon fill="midnightblue" stroke="midnightblue" points="584.34,-216.956 593.111,-211.012 582.548,-210.189 584.34,-216.956"/>
</g>
<!-- Node16 -->
<g id="node16" class="node"><title>Node16</title>
<g id="a_node16"><a xlink:href="tbb__utility_8h.html" target="_top" xlink:title="shad/runtime/mappings\l/tbb/tbb_utility.h">
<polygon fill="white" stroke="black" points="363,-181 363,-211 481,-211 481,-181 363,-181"/>
<text text-anchor="start" x="371" y="-199" font-family="Helvetica,sans-Serif" font-size="10.00">shad/runtime/mappings</text>
<text text-anchor="middle" x="422" y="-188" font-family="Helvetica,sans-Serif" font-size="10.00">/tbb/tbb_utility.h</text>
</a>
</g>
</g>
<!-- Node1&#45;&gt;Node16 -->
<g id="edge20" class="edge"><title>Node1&#45;&gt;Node16</title>
<path fill="none" stroke="midnightblue" d="M390.256,-248.223C395.749,-239.36 402.257,-228.858 407.946,-219.678"/>
<polygon fill="midnightblue" stroke="midnightblue" points="411.001,-221.392 413.294,-211.049 405.051,-217.705 411.001,-221.392"/>
</g>
<!-- Node20 -->
<g id="node20" class="node"><title>Node20</title>
<g id="a_node20"><a xlink:href="synchronous__interface_8h.html" target="_top" xlink:title="shad/runtime/synchronous\l_interface.h">
<polygon fill="white" stroke="black" points="175.5,-181 175.5,-211 306.5,-211 306.5,-181 175.5,-181"/>
<text text-anchor="start" x="183.5" y="-199" font-family="Helvetica,sans-Serif" font-size="10.00">shad/runtime/synchronous</text>
<text text-anchor="middle" x="241" y="-188" font-family="Helvetica,sans-Serif" font-size="10.00">_interface.h</text>
</a>
</g>
</g>
<!-- Node1&#45;&gt;Node20 -->
<g id="edge26" class="edge"><title>Node1&#45;&gt;Node20</title>
<path fill="none" stroke="midnightblue" d="M340.201,-248.411C320.599,-238.252 296.767,-225.901 277.376,-215.852"/>
<polygon fill="midnightblue" stroke="midnightblue" points="278.74,-212.617 268.251,-211.123 275.519,-218.832 278.74,-212.617"/>
</g>
<!-- Node5 -->
<g id="node5" class="node"><title>Node5</title>
<polygon fill="white" stroke="#bfbfbf" points="387,-62.5 387,-81.5 433,-81.5 433,-62.5 387,-62.5"/>
<text text-anchor="middle" x="410" y="-69.5" font-family="Helvetica,sans-Serif" font-size="10.00">cstdint</text>
</g>
<!-- Node4&#45;&gt;Node5 -->
<g id="edge4" class="edge"><title>Node4&#45;&gt;Node5</title>
<path fill="none" stroke="midnightblue" d="M167.246,-124.467C223.496,-112.542 324.573,-91.1116 376.779,-80.0434"/>
<polygon fill="midnightblue" stroke="midnightblue" points="377.785,-83.4079 386.842,-77.9099 376.333,-76.5601 377.785,-83.4079"/>
</g>
<!-- Node6 -->
<g id="node6" class="node"><title>Node6</title>
<polygon fill="white" stroke="#bfbfbf" points="158,-62.5 158,-81.5 212,-81.5 212,-62.5 158,-62.5"/>
<text text-anchor="middle" x="185" y="-69.5" font-family="Helvetica,sans-Serif" font-size="10.00">iostream</text>
</g>
<!-- Node4&#45;&gt;Node6 -->
<g id="edge5" class="edge"><title>Node4&#45;&gt;Node6</title>
<path fill="none" stroke="midnightblue" d="M135.31,-124.403C144.268,-115.136 158.723,-100.183 169.739,-88.7876"/>
<polygon fill="midnightblue" stroke="midnightblue" points="172.272,-91.2031 176.705,-81.5806 167.239,-86.3379 172.272,-91.2031"/>
</g>
<!-- Node7 -->
<g id="node7" class="node"><title>Node7</title>
<polygon fill="white" stroke="#bfbfbf" points="367,-0.5 367,-19.5 471,-19.5 471,-0.5 367,-0.5"/>
<text text-anchor="middle" x="419" y="-7.5" font-family="Helvetica,sans-Serif" font-size="10.00">shad/config/config.h</text>
</g>
<!-- Node4&#45;&gt;Node7 -->
<g id="edge6" class="edge"><title>Node4&#45;&gt;Node7</title>
<path fill="none" stroke="midnightblue" d="M147.533,-124.421C198.215,-103.246 329.448,-48.4156 388.918,-23.5683"/>
<polygon fill="midnightblue" stroke="midnightblue" points="390.612,-26.654 398.49,-19.5693 387.913,-20.195 390.612,-26.654"/>
</g>
<!-- Node8 -->
<g id="node8" class="node"><title>Node8</title>
<g id="a_node8"><a xlink:href="mapping__traits_8h.html" target="_top" xlink:title="shad/runtime/mapping\l_traits.h">
<polygon fill="white" stroke="black" points="499.5,-57 499.5,-87 612.5,-87 612.5,-57 499.5,-57"/>
<text text-anchor="start" x="507.5" y="-75" font-family="Helvetica,sans-Serif" font-size="10.00">shad/runtime/mapping</text>
<text text-anchor="middle" x="556" y="-64" font-family="Helvetica,sans-Serif" font-size="10.00">_traits.h</text>
</a>
</g>
</g>
<!-- Node4&#45;&gt;Node8 -->
<g id="edge7" class="edge"><title>Node4&#45;&gt;Node8</title>
<path fill="none" stroke="midnightblue" d="M184.857,-124.908C264.005,-113.838 405.717,-94.0185 489.259,-82.3344"/>
<polygon fill="midnightblue" stroke="midnightblue" points="489.982,-85.7675 499.4,-80.916 489.012,-78.835 489.982,-85.7675"/>
</g>
<!-- Node10 -->
<g id="node10" class="node"><title>Node10</title>
<g id="a_node10"><a xlink:href="available__traits__mappings_8h.html" target="_top" xlink:title="shad/runtime/mappings\l/available_traits_mappings.h">
<polygon fill="white" stroke="black" points="0,-57 0,-87 140,-87 140,-57 0,-57"/>
<text text-anchor="start" x="8" y="-75" font-family="Helvetica,sans-Serif" font-size="10.00">shad/runtime/mappings</text>
<text text-anchor="middle" x="70" y="-64" font-family="Helvetica,sans-Serif" font-size="10.00">/available_traits_mappings.h</text>
</a>
</g>
</g>
<!-- Node4&#45;&gt;Node10 -->
<g id="edge10" class="edge"><title>Node4&#45;&gt;Node10</title>
<path fill="none" stroke="midnightblue" d="M118.833,-124.403C111.474,-116.657 100.341,-104.938 90.5625,-94.6447"/>
<polygon fill="midnightblue" stroke="midnightblue" points="92.8588,-91.9802 83.4338,-87.1408 87.7838,-96.8015 92.8588,-91.9802"/>
</g>
<!-- Node8&#45;&gt;Node7 -->
<g id="edge9" class="edge"><title>Node8&#45;&gt;Node7</title>
<path fill="none" stroke="midnightblue" d="M523.88,-56.9327C500.869,-46.8552 470.144,-33.3986 447.901,-23.6575"/>
<polygon fill="midnightblue" stroke="midnightblue" points="449.201,-20.4058 438.637,-19.6 446.393,-26.8178 449.201,-20.4058"/>
</g>
<!-- Node9 -->
<g id="node9" class="node"><title>Node9</title>
<polygon fill="white" stroke="#bfbfbf" points="589.5,-0.5 589.5,-19.5 630.5,-19.5 630.5,-0.5 589.5,-0.5"/>
<text text-anchor="middle" x="610" y="-7.5" font-family="Helvetica,sans-Serif" font-size="10.00">string</text>
</g>
<!-- Node8&#45;&gt;Node9 -->
<g id="edge8" class="edge"><title>Node8&#45;&gt;Node9</title>
<path fill="none" stroke="midnightblue" d="M568.797,-56.7808C576.725,-47.9722 586.936,-36.6262 595.21,-27.4332"/>
<polygon fill="midnightblue" stroke="midnightblue" points="598.054,-29.5049 602.143,-19.7305 592.851,-24.8221 598.054,-29.5049"/>
</g>
<!-- Node11&#45;&gt;Node2 -->
<g id="edge14" class="edge"><title>Node11&#45;&gt;Node2</title>
<path fill="none" stroke="midnightblue" d="M582.444,-184.538C528.642,-175.389 449.28,-161.21 371.32,-144.178"/>
<polygon fill="midnightblue" stroke="midnightblue" points="371.845,-140.71 361.327,-141.977 370.34,-147.546 371.845,-140.71"/>
</g>
<!-- Node11&#45;&gt;Node5 -->
<g id="edge12" class="edge"><title>Node11&#45;&gt;Node5</title>
<path fill="none" stroke="midnightblue" d="M629.786,-180.909C611.258,-165.355 579.538,-140.358 549,-124 514.542,-105.543 471.974,-91.0176 443.089,-82.2658"/>
<polygon fill="midnightblue" stroke="midnightblue" points="444.062,-78.9035 433.479,-79.414 442.07,-85.6143 444.062,-78.9035"/>
</g>
<!-- Node11&#45;&gt;Node8 -->
<g id="edge19" class="edge"><title>Node11&#45;&gt;Node8</title>
<path fill="none" stroke="midnightblue" d="M638.539,-180.86C630.521,-166.136 617.027,-142.661 603,-124 595.278,-113.727 585.825,-103.155 577.427,-94.3189"/>
<polygon fill="midnightblue" stroke="midnightblue" points="579.859,-91.7998 570.388,-87.0519 574.831,-96.67 579.859,-91.7998"/>
</g>
<!-- Node11&#45;&gt;Node9 -->
<g id="edge16" class="edge"><title>Node11&#45;&gt;Node9</title>
<path fill="none" stroke="midnightblue" d="M643.733,-180.736C639.656,-155.493 630.608,-101.334 621,-56 619.143,-47.2373 616.82,-37.5817 614.787,-29.4688"/>
<polygon fill="midnightblue" stroke="midnightblue" points="618.131,-28.4152 612.268,-19.5906 611.348,-30.1454 618.131,-28.4152"/>
</g>
<!-- Node12 -->
<g id="node12" class="node"><title>Node12</title>
<polygon fill="white" stroke="#bfbfbf" points="693,-124.5 693,-143.5 733,-143.5 733,-124.5 693,-124.5"/>
<text text-anchor="middle" x="713" y="-131.5" font-family="Helvetica,sans-Serif" font-size="10.00">limits</text>
</g>
<!-- Node11&#45;&gt;Node12 -->
<g id="edge13" class="edge"><title>Node11&#45;&gt;Node12</title>
<path fill="none" stroke="midnightblue" d="M661.878,-180.781C672.015,-171.703 685.162,-159.929 695.585,-150.595"/>
<polygon fill="midnightblue" stroke="midnightblue" points="698.136,-153.009 703.251,-143.731 693.466,-147.794 698.136,-153.009"/>
</g>
<!-- Node13 -->
<g id="node13" class="node"><title>Node13</title>
<polygon fill="white" stroke="#bfbfbf" points="751,-124.5 751,-143.5 795,-143.5 795,-124.5 751,-124.5"/>
<text text-anchor="middle" x="773" y="-131.5" font-family="Helvetica,sans-Serif" font-size="10.00">mutex</text>
</g>
<!-- Node11&#45;&gt;Node13 -->
<g id="edge15" class="edge"><title>Node11&#45;&gt;Node13</title>
<path fill="none" stroke="midnightblue" d="M675.776,-180.933C696.915,-170.946 725.079,-157.64 745.652,-147.92"/>
<polygon fill="midnightblue" stroke="midnightblue" points="747.25,-151.036 754.797,-143.6 744.26,-144.707 747.25,-151.036"/>
</g>
<!-- Node14 -->
<g id="node14" class="node"><title>Node14</title>
<polygon fill="white" stroke="#bfbfbf" points="812.5,-124.5 812.5,-143.5 901.5,-143.5 901.5,-124.5 812.5,-124.5"/>
<text text-anchor="middle" x="857" y="-131.5" font-family="Helvetica,sans-Serif" font-size="10.00">tbb/task_group.h</text>
</g>
<!-- Node11&#45;&gt;Node14 -->
<g id="edge17" class="edge"><title>Node11&#45;&gt;Node14</title>
<path fill="none" stroke="midnightblue" d="M695.47,-180.933C732.609,-170.372 782.799,-156.1 817.325,-146.282"/>
<polygon fill="midnightblue" stroke="midnightblue" points="818.402,-149.614 827.064,-143.513 816.488,-142.881 818.402,-149.614"/>
</g>
<!-- Node15 -->
<g id="node15" class="node"><title>Node15</title>
<polygon fill="white" stroke="#bfbfbf" points="919.5,-124.5 919.5,-143.5 974.5,-143.5 974.5,-124.5 919.5,-124.5"/>
<text text-anchor="middle" x="947" y="-131.5" font-family="Helvetica,sans-Serif" font-size="10.00">tbb/tbb.h</text>
</g>
<!-- Node11&#45;&gt;Node15 -->
<g id="edge18" class="edge"><title>Node11&#45;&gt;Node15</title>
<path fill="none" stroke="midnightblue" d="M709.689,-181.849C712.836,-181.22 715.953,-180.6 719,-180 800.693,-163.909 823.901,-162.314 909.285,-144.063"/>
<polygon fill="midnightblue" stroke="midnightblue" points="910.116,-147.464 919.156,-141.938 908.643,-140.621 910.116,-147.464"/>
</g>
<!-- Node16&#45;&gt;Node4 -->
<g id="edge25" class="edge"><title>Node16&#45;&gt;Node4</title>
<path fill="none" stroke="midnightblue" d="M362.657,-182.93C308.869,-171.99 230.377,-156.026 179,-145.576"/>
<polygon fill="midnightblue" stroke="midnightblue" points="179.599,-142.126 169.102,-143.563 178.203,-148.986 179.599,-142.126"/>
</g>
<!-- Node16&#45;&gt;Node5 -->
<g id="edge22" class="edge"><title>Node16&#45;&gt;Node5</title>
<path fill="none" stroke="midnightblue" d="M479.777,-180.917C514.837,-169.372 549.699,-150.582 532,-124 512.397,-94.5579 472.197,-82.0818 443.294,-76.8144"/>
<polygon fill="midnightblue" stroke="midnightblue" points="443.647,-73.326 433.216,-75.1818 442.528,-80.2359 443.647,-73.326"/>
</g>
<!-- Node17 -->
<g id="node17" class="node"><title>Node17</title>
<polygon fill="white" stroke="#bfbfbf" points="241.5,-124.5 241.5,-143.5 290.5,-143.5 290.5,-124.5 241.5,-124.5"/>
<text text-anchor="middle" x="266" y="-131.5" font-family="Helvetica,sans-Serif" font-size="10.00">cstddef</text>
</g>
<!-- Node16&#45;&gt;Node17 -->
<g id="edge21" class="edge"><title>Node16&#45;&gt;Node17</title>
<path fill="none" stroke="midnightblue" d="M385.425,-180.933C358.871,-170.72 323.294,-157.036 297.893,-147.266"/>
<polygon fill="midnightblue" stroke="midnightblue" points="298.95,-143.923 288.36,-143.6 296.437,-150.457 298.95,-143.923"/>
</g>
<!-- Node18 -->
<g id="node18" class="node"><title>Node18</title>
<polygon fill="white" stroke="#bfbfbf" points="379,-124.5 379,-143.5 431,-143.5 431,-124.5 379,-124.5"/>
<text text-anchor="middle" x="405" y="-131.5" font-family="Helvetica,sans-Serif" font-size="10.00">sstream</text>
</g>
<!-- Node16&#45;&gt;Node18 -->
<g id="edge23" class="edge"><title>Node16&#45;&gt;Node18</title>
<path fill="none" stroke="midnightblue" d="M417.971,-180.781C415.654,-172.601 412.716,-162.234 410.223,-153.434"/>
<polygon fill="midnightblue" stroke="midnightblue" points="413.567,-152.398 407.474,-143.731 406.832,-154.306 413.567,-152.398"/>
</g>
<!-- Node19 -->
<g id="node19" class="node"><title>Node19</title>
<polygon fill="white" stroke="#bfbfbf" points="449,-124.5 449,-143.5 523,-143.5 523,-124.5 449,-124.5"/>
<text text-anchor="middle" x="486" y="-131.5" font-family="Helvetica,sans-Serif" font-size="10.00">system_error</text>
</g>
<!-- Node16&#45;&gt;Node19 -->
<g id="edge24" class="edge"><title>Node16&#45;&gt;Node19</title>
<path fill="none" stroke="midnightblue" d="M437.167,-180.781C446.851,-171.703 459.409,-159.929 469.365,-150.595"/>
<polygon fill="midnightblue" stroke="midnightblue" points="471.786,-153.123 476.687,-143.731 466.998,-148.017 471.786,-153.123"/>
</g>
<!-- Node20&#45;&gt;Node2 -->
<g id="edge29" class="edge"><title>Node20&#45;&gt;Node2</title>
<path fill="none" stroke="midnightblue" d="M263.277,-180.781C278.293,-171.196 298.017,-158.606 312.98,-149.056"/>
<polygon fill="midnightblue" stroke="midnightblue" points="315.05,-151.886 321.596,-143.556 311.284,-145.986 315.05,-151.886"/>
</g>
<!-- Node20&#45;&gt;Node4 -->
<g id="edge30" class="edge"><title>Node20&#45;&gt;Node4</title>
<path fill="none" stroke="midnightblue" d="M214.272,-180.933C195.554,-171.081 170.701,-158 152.305,-148.318"/>
<polygon fill="midnightblue" stroke="midnightblue" points="153.819,-145.16 143.34,-143.6 150.559,-151.355 153.819,-145.16"/>
</g>
<!-- Node20&#45;&gt;Node5 -->
<g id="edge28" class="edge"><title>Node20&#45;&gt;Node5</title>
<path fill="none" stroke="midnightblue" d="M233.842,-180.951C227.055,-165.435 219.585,-140.471 232,-124 249.404,-100.91 330.245,-85.087 376.773,-77.72"/>
<polygon fill="midnightblue" stroke="midnightblue" points="377.347,-81.173 386.699,-76.1941 376.283,-74.2542 377.347,-81.173"/>
</g>
<!-- Node20&#45;&gt;Node17 -->
<g id="edge27" class="edge"><title>Node20&#45;&gt;Node17</title>
<path fill="none" stroke="midnightblue" d="M246.925,-180.781C250.37,-172.512 254.748,-162.006 258.44,-153.145"/>
<polygon fill="midnightblue" stroke="midnightblue" points="261.747,-154.307 262.362,-143.731 255.285,-151.615 261.747,-154.307"/>
</g>
</g>
</svg>
