<?xml version="1.0" encoding="UTF-8" standalone="no"?>
<!DOCTYPE svg PUBLIC "-//W3C//DTD SVG 1.1//EN"
 "http://www.w3.org/Graphics/SVG/1.1/DTD/svg11.dtd">
<!-- Generated by graphviz version 2.36.0 (20140111.2315)
 -->
<!-- Title: include/shad/runtime/mappings/tbb/tbb_utility.h Pages: 1 -->
<svg width="341pt" height="118pt"
 viewBox="0.00 0.00 341.00 118.00" xmlns="http://www.w3.org/2000/svg" xmlns:xlink="http://www.w3.org/1999/xlink">
<g id="graph0" class="graph" transform="scale(1 1) rotate(0) translate(4 114)">
<title>include/shad/runtime/mappings/tbb/tbb_utility.h</title>
<polygon fill="white" stroke="none" points="-4,4 -4,-114 337,-114 337,4 -4,4"/>
<!-- Node1 -->
<g id="node1" class="node"><title>Node1</title>
<polygon fill="#bfbfbf" stroke="black" points="102.5,-79 102.5,-109 233.5,-109 233.5,-79 102.5,-79"/>
<text text-anchor="start" x="110.5" y="-97" font-family="Helvetica,sans-Serif" font-size="10.00">include/shad/runtime</text>
<text text-anchor="middle" x="168" y="-86" font-family="Helvetica,sans-Serif" font-size="10.00">/mappings/tbb/tbb_utility.h</text>
</g>
<!-- Node2 -->
<g id="node2" class="node"><title>Node2</title>
<g id="a_node2"><a xlink:href="tbb__asynchronous__interface_8h.html" target="_top" xlink:title="include/shad/runtime\l/mappings/tbb/tbb_asynchronous\l_interface.h">
<polygon fill="white" stroke="black" points="-0.5,-0.5 -0.5,-41.5 160.5,-41.5 160.5,-0.5 -0.5,-0.5"/>
<text text-anchor="start" x="7.5" y="-29.5" font-family="Helvetica,sans-Serif" font-size="10.00">include/shad/runtime</text>
<text text-anchor="start" x="7.5" y="-18.5" font-family="Helvetica,sans-Serif" font-size="10.00">/mappings/tbb/tbb_asynchronous</text>
<text text-anchor="middle" x="80" y="-7.5" font-family="Helvetica,sans-Serif" font-size="10.00">_interface.h</text>
</a>
</g>
</g>
<!-- Node1&#45;&gt;Node2 -->
<g id="edge1" class="edge"><title>Node1&#45;&gt;Node2</title>
<path fill="none" stroke="midnightblue" d="M142.692,-72.581C130.634,-62.8527 116.276,-51.2683 104.345,-41.642"/>
<polygon fill="midnightblue" stroke="midnightblue" points="140.634,-75.4174 150.614,-78.9727 145.029,-69.9694 140.634,-75.4174"/>
</g>
<!-- Node3 -->
<g id="node3" class="node"><title>Node3</title>
<g id="a_node3"><a xlink:href="tbb__synchronous__interface_8h.html" target="_top" xlink:title="include/shad/runtime\l/mappings/tbb/tbb_synchronous\l_interface.h">
<polygon fill="white" stroke="black" points="178.5,-0.5 178.5,-41.5 333.5,-41.5 333.5,-0.5 178.5,-0.5"/>
<text text-anchor="start" x="186.5" y="-29.5" font-family="Helvetica,sans-Serif" font-size="10.00">include/shad/runtime</text>
<text text-anchor="start" x="186.5" y="-18.5" font-family="Helvetica,sans-Serif" font-size="10.00">/mappings/tbb/tbb_synchronous</text>
<text text-anchor="middle" x="256" y="-7.5" font-family="Helvetica,sans-Serif" font-size="10.00">_interface.h</text>
</a>
</g>
</g>
<!-- Node1&#45;&gt;Node3 -->
<g id="edge2" class="edge"><title>Node1&#45;&gt;Node3</title>
<path fill="none" stroke="midnightblue" d="M193.308,-72.581C205.366,-62.8527 219.724,-51.2683 231.655,-41.642"/>
<polygon fill="midnightblue" stroke="midnightblue" points="190.971,-69.9694 185.386,-78.9727 195.366,-75.4174 190.971,-69.9694"/>
</g>
</g>
</svg>
