<?xml version="1.0" encoding="UTF-8" standalone="no"?>
<!DOCTYPE svg PUBLIC "-//W3C//DTD SVG 1.1//EN"
 "http://www.w3.org/Graphics/SVG/1.1/DTD/svg11.dtd">
<!-- Generated by graphviz version 2.36.0 (20140111.2315)
 -->
<!-- Title: include/shad/runtime/mappings/tbb/tbb_traits_mapping.h Pages: 1 -->
<svg width="593pt" height="174pt"
 viewBox="0.00 0.00 593.00 174.00" xmlns="http://www.w3.org/2000/svg" xmlns:xlink="http://www.w3.org/1999/xlink">
<g id="graph0" class="graph" transform="scale(1 1) rotate(0) translate(4 170)">
<title>include/shad/runtime/mappings/tbb/tbb_traits_mapping.h</title>
<polygon fill="white" stroke="none" points="-4,4 -4,-170 589,-170 589,4 -4,4"/>
<!-- Node1 -->
<g id="node1" class="node"><title>Node1</title>
<polygon fill="#bfbfbf" stroke="black" points="178,-124.5 178,-165.5 300,-165.5 300,-124.5 178,-124.5"/>
<text text-anchor="start" x="186" y="-153.5" font-family="Helvetica,sans-Serif" font-size="10.00">include/shad/runtime</text>
<text text-anchor="start" x="186" y="-142.5" font-family="Helvetica,sans-Serif" font-size="10.00">/mappings/tbb/tbb_traits</text>
<text text-anchor="middle" x="239" y="-131.5" font-family="Helvetica,sans-Serif" font-size="10.00">_mapping.h</text>
</g>
<!-- Node2 -->
<g id="node2" class="node"><title>Node2</title>
<polygon fill="white" stroke="#bfbfbf" points="0,-62.5 0,-81.5 46,-81.5 46,-62.5 0,-62.5"/>
<text text-anchor="middle" x="23" y="-69.5" font-family="Helvetica,sans-Serif" font-size="10.00">cstdint</text>
</g>
<!-- Node1&#45;&gt;Node2 -->
<g id="edge1" class="edge"><title>Node1&#45;&gt;Node2</title>
<path fill="none" stroke="midnightblue" d="M177.765,-127.736C141.615,-117.55 95.2079,-103.451 55,-88 53.153,-87.2902 51.2634,-86.5212 49.3714,-85.7191"/>
<polygon fill="midnightblue" stroke="midnightblue" points="50.6333,-82.4493 40.0763,-81.5549 47.7713,-88.8375 50.6333,-82.4493"/>
</g>
<!-- Node3 -->
<g id="node3" class="node"><title>Node3</title>
<polygon fill="white" stroke="#bfbfbf" points="64,-62.5 64,-81.5 104,-81.5 104,-62.5 64,-62.5"/>
<text text-anchor="middle" x="84" y="-69.5" font-family="Helvetica,sans-Serif" font-size="10.00">limits</text>
</g>
<!-- Node1&#45;&gt;Node3 -->
<g id="edge2" class="edge"><title>Node1&#45;&gt;Node3</title>
<path fill="none" stroke="midnightblue" d="M193.212,-124.426C169.175,-113.956 139.325,-100.645 113,-88 111.822,-87.434 110.62,-86.8482 109.409,-86.2509"/>
<polygon fill="midnightblue" stroke="midnightblue" points="110.676,-82.9695 100.173,-81.5798 107.517,-89.2162 110.676,-82.9695"/>
</g>
<!-- Node4 -->
<g id="node4" class="node"><title>Node4</title>
<polygon fill="white" stroke="#bfbfbf" points="122,-62.5 122,-81.5 174,-81.5 174,-62.5 122,-62.5"/>
<text text-anchor="middle" x="148" y="-69.5" font-family="Helvetica,sans-Serif" font-size="10.00">memory</text>
</g>
<!-- Node1&#45;&gt;Node4 -->
<g id="edge3" class="edge"><title>Node1&#45;&gt;Node4</title>
<path fill="none" stroke="midnightblue" d="M213.651,-124.223C198.984,-112.778 180.815,-98.6027 167.312,-88.0672"/>
<polygon fill="midnightblue" stroke="midnightblue" points="169.233,-85.1269 159.195,-81.7349 164.927,-90.6458 169.233,-85.1269"/>
</g>
<!-- Node5 -->
<g id="node5" class="node"><title>Node5</title>
<polygon fill="white" stroke="#bfbfbf" points="192,-62.5 192,-81.5 236,-81.5 236,-62.5 192,-62.5"/>
<text text-anchor="middle" x="214" y="-69.5" font-family="Helvetica,sans-Serif" font-size="10.00">mutex</text>
</g>
<!-- Node1&#45;&gt;Node5 -->
<g id="edge4" class="edge"><title>Node1&#45;&gt;Node5</title>
<path fill="none" stroke="midnightblue" d="M232.036,-124.223C228.39,-113.868 223.957,-101.278 220.398,-91.1709"/>
<polygon fill="midnightblue" stroke="midnightblue" points="223.698,-90.0048 217.076,-81.7349 217.096,-92.3297 223.698,-90.0048"/>
</g>
<!-- Node6 -->
<g id="node6" class="node"><title>Node6</title>
<polygon fill="white" stroke="#bfbfbf" points="330.5,-0.5 330.5,-19.5 371.5,-19.5 371.5,-0.5 330.5,-0.5"/>
<text text-anchor="middle" x="351" y="-7.5" font-family="Helvetica,sans-Serif" font-size="10.00">string</text>
</g>
<!-- Node1&#45;&gt;Node6 -->
<g id="edge5" class="edge"><title>Node1&#45;&gt;Node6</title>
<path fill="none" stroke="midnightblue" d="M245.684,-124.46C252.914,-105.408 265.886,-76.4031 284,-56 295.413,-43.1442 311.275,-32.2751 324.701,-24.4412"/>
<polygon fill="midnightblue" stroke="midnightblue" points="326.497,-27.4469 333.521,-19.5155 323.084,-21.3353 326.497,-27.4469"/>
</g>
<!-- Node7 -->
<g id="node7" class="node"><title>Node7</title>
<polygon fill="white" stroke="#bfbfbf" points="292.5,-62.5 292.5,-81.5 381.5,-81.5 381.5,-62.5 292.5,-62.5"/>
<text text-anchor="middle" x="337" y="-69.5" font-family="Helvetica,sans-Serif" font-size="10.00">tbb/task_group.h</text>
</g>
<!-- Node1&#45;&gt;Node7 -->
<g id="edge6" class="edge"><title>Node1&#45;&gt;Node7</title>
<path fill="none" stroke="midnightblue" d="M266.038,-124.411C282.084,-112.786 302.091,-98.2909 316.768,-87.658"/>
<polygon fill="midnightblue" stroke="midnightblue" points="319.089,-90.2982 325.134,-81.5968 314.982,-84.6295 319.089,-90.2982"/>
</g>
<!-- Node8 -->
<g id="node8" class="node"><title>Node8</title>
<polygon fill="white" stroke="#bfbfbf" points="399.5,-62.5 399.5,-81.5 454.5,-81.5 454.5,-62.5 399.5,-62.5"/>
<text text-anchor="middle" x="427" y="-69.5" font-family="Helvetica,sans-Serif" font-size="10.00">tbb/tbb.h</text>
</g>
<!-- Node1&#45;&gt;Node8 -->
<g id="edge7" class="edge"><title>Node1&#45;&gt;Node8</title>
<path fill="none" stroke="midnightblue" d="M292.96,-124.434C321.828,-113.855 357.938,-100.441 390,-88 392.235,-87.1326 394.542,-86.2257 396.861,-85.3058"/>
<polygon fill="midnightblue" stroke="midnightblue" points="398.322,-88.4907 406.3,-81.5193 395.716,-81.9938 398.322,-88.4907"/>
</g>
<!-- Node9 -->
<g id="node9" class="node"><title>Node9</title>
<g id="a_node9"><a xlink:href="mapping__traits_8h.html" target="_top" xlink:title="shad/runtime/mapping\l_traits.h">
<polygon fill="white" stroke="black" points="472.5,-57 472.5,-87 585.5,-87 585.5,-57 472.5,-57"/>
<text text-anchor="start" x="480.5" y="-75" font-family="Helvetica,sans-Serif" font-size="10.00">shad/runtime/mapping</text>
<text text-anchor="middle" x="529" y="-64" font-family="Helvetica,sans-Serif" font-size="10.00">_traits.h</text>
</a>
</g>
</g>
<!-- Node1&#45;&gt;Node9 -->
<g id="edge8" class="edge"><title>Node1&#45;&gt;Node9</title>
<path fill="none" stroke="midnightblue" d="M300.147,-129.029C347.72,-117.382 413.64,-101.243 462.518,-89.2767"/>
<polygon fill="midnightblue" stroke="midnightblue" points="463.485,-92.6434 472.366,-86.8657 461.82,-85.8442 463.485,-92.6434"/>
</g>
<!-- Node9&#45;&gt;Node6 -->
<g id="edge9" class="edge"><title>Node9&#45;&gt;Node6</title>
<path fill="none" stroke="midnightblue" d="M487.267,-56.9327C454.728,-45.9643 410.313,-30.9932 381.16,-21.1662"/>
<polygon fill="midnightblue" stroke="midnightblue" points="382.123,-17.7975 371.529,-17.9198 379.887,-24.4307 382.123,-17.7975"/>
</g>
<!-- Node10 -->
<g id="node10" class="node"><title>Node10</title>
<polygon fill="white" stroke="#bfbfbf" points="477,-0.5 477,-19.5 581,-19.5 581,-0.5 477,-0.5"/>
<text text-anchor="middle" x="529" y="-7.5" font-family="Helvetica,sans-Serif" font-size="10.00">shad/config/config.h</text>
</g>
<!-- Node9&#45;&gt;Node10 -->
<g id="edge10" class="edge"><title>Node9&#45;&gt;Node10</title>
<path fill="none" stroke="midnightblue" d="M529,-56.7808C529,-48.7812 529,-38.6887 529,-30.0168"/>
<polygon fill="midnightblue" stroke="midnightblue" points="532.5,-29.7305 529,-19.7305 525.5,-29.7306 532.5,-29.7305"/>
</g>
</g>
</svg>
