<?xml version="1.0" encoding="UTF-8" standalone="no"?>
<!DOCTYPE svg PUBLIC "-//W3C//DTD SVG 1.1//EN"
 "http://www.w3.org/Graphics/SVG/1.1/DTD/svg11.dtd">
<!-- Generated by graphviz version 2.36.0 (20140111.2315)
 -->
<!-- Title: include/shad/runtime/mappings/tbb/tbb_asynchronous_interface.h Pages: 1 -->
<svg width="740pt" height="298pt"
 viewBox="0.00 0.00 739.85 298.00" xmlns="http://www.w3.org/2000/svg" xmlns:xlink="http://www.w3.org/1999/xlink">
<g id="graph0" class="graph" transform="scale(1 1) rotate(0) translate(4 294)">
<title>include/shad/runtime/mappings/tbb/tbb_asynchronous_interface.h</title>
<polygon fill="white" stroke="none" points="-4,4 -4,-294 735.846,-294 735.846,4 -4,4"/>
<!-- Node1 -->
<g id="node1" class="node"><title>Node1</title>
<polygon fill="#bfbfbf" stroke="black" points="331.346,-248.5 331.346,-289.5 492.346,-289.5 492.346,-248.5 331.346,-248.5"/>
<text text-anchor="start" x="339.346" y="-277.5" font-family="Helvetica,sans-Serif" font-size="10.00">include/shad/runtime</text>
<text text-anchor="start" x="339.346" y="-266.5" font-family="Helvetica,sans-Serif" font-size="10.00">/mappings/tbb/tbb_asynchronous</text>
<text text-anchor="middle" x="411.846" y="-255.5" font-family="Helvetica,sans-Serif" font-size="10.00">_interface.h</text>
</g>
<!-- Node2 -->
<g id="node2" class="node"><title>Node2</title>
<polygon fill="white" stroke="#bfbfbf" points="213.346,-124.5 213.346,-143.5 262.346,-143.5 262.346,-124.5 213.346,-124.5"/>
<text text-anchor="middle" x="237.846" y="-131.5" font-family="Helvetica,sans-Serif" font-size="10.00">cstddef</text>
</g>
<!-- Node1&#45;&gt;Node2 -->
<g id="edge1" class="edge"><title>Node1&#45;&gt;Node2</title>
<path fill="none" stroke="midnightblue" d="M379.253,-248.305C362.854,-238.016 342.892,-224.905 325.846,-212 299.697,-192.203 271.504,-166.725 254.262,-150.622"/>
<polygon fill="midnightblue" stroke="midnightblue" points="256.414,-147.842 246.734,-143.536 251.616,-152.939 256.414,-147.842"/>
</g>
<!-- Node3 -->
<g id="node3" class="node"><title>Node3</title>
<polygon fill="white" stroke="#bfbfbf" points="191.846,-62.5 191.846,-81.5 237.846,-81.5 237.846,-62.5 191.846,-62.5"/>
<text text-anchor="middle" x="214.846" y="-69.5" font-family="Helvetica,sans-Serif" font-size="10.00">cstdint</text>
</g>
<!-- Node1&#45;&gt;Node3 -->
<g id="edge2" class="edge"><title>Node1&#45;&gt;Node3</title>
<path fill="none" stroke="midnightblue" d="M331.168,-260.322C270.902,-252.767 187.306,-238.385 117.846,-212 62.6955,-191.05 32.9796,-195.3 3.84623,-144 -0.543308,-136.271 -1.65146,-130.985 3.84623,-124 25.5891,-96.3757 127.701,-81.9287 181.496,-76.1239"/>
<polygon fill="midnightblue" stroke="midnightblue" points="181.988,-79.5917 191.572,-75.0768 181.264,-72.6292 181.988,-79.5917"/>
</g>
<!-- Node4 -->
<g id="node4" class="node"><title>Node4</title>
<polygon fill="white" stroke="#bfbfbf" points="583.846,-124.5 583.846,-143.5 635.846,-143.5 635.846,-124.5 583.846,-124.5"/>
<text text-anchor="middle" x="609.846" y="-131.5" font-family="Helvetica,sans-Serif" font-size="10.00">memory</text>
</g>
<!-- Node1&#45;&gt;Node4 -->
<g id="edge3" class="edge"><title>Node1&#45;&gt;Node4</title>
<path fill="none" stroke="midnightblue" d="M448.864,-248.417C467.52,-238.157 490.276,-225.037 509.846,-212 539.71,-192.106 572.288,-166.154 591.887,-150.036"/>
<polygon fill="midnightblue" stroke="midnightblue" points="594.215,-152.652 599.684,-143.578 589.75,-147.261 594.215,-152.652"/>
</g>
<!-- Node5 -->
<g id="node5" class="node"><title>Node5</title>
<polygon fill="white" stroke="#bfbfbf" points="691.846,-186.5 691.846,-205.5 731.846,-205.5 731.846,-186.5 691.846,-186.5"/>
<text text-anchor="middle" x="711.846" y="-193.5" font-family="Helvetica,sans-Serif" font-size="10.00">utility</text>
</g>
<!-- Node1&#45;&gt;Node5 -->
<g id="edge4" class="edge"><title>Node1&#45;&gt;Node5</title>
<path fill="none" stroke="midnightblue" d="M492.417,-255.537C545.761,-246.192 616.865,-231.635 677.846,-212 680.126,-211.266 682.46,-210.429 684.784,-209.535"/>
<polygon fill="midnightblue" stroke="midnightblue" points="686.23,-212.725 694.119,-205.653 683.542,-206.261 686.23,-212.725"/>
</g>
<!-- Node6 -->
<g id="node6" class="node"><title>Node6</title>
<g id="a_node6"><a xlink:href="asynchronous__interface_8h.html" target="_top" xlink:title="shad/runtime/asynchronous\l_interface.h">
<polygon fill="white" stroke="black" points="343.346,-181 343.346,-211 480.346,-211 480.346,-181 343.346,-181"/>
<text text-anchor="start" x="351.346" y="-199" font-family="Helvetica,sans-Serif" font-size="10.00">shad/runtime/asynchronous</text>
<text text-anchor="middle" x="411.846" y="-188" font-family="Helvetica,sans-Serif" font-size="10.00">_interface.h</text>
</a>
</g>
</g>
<!-- Node1&#45;&gt;Node6 -->
<g id="edge5" class="edge"><title>Node1&#45;&gt;Node6</title>
<path fill="none" stroke="midnightblue" d="M411.846,-248.223C411.846,-239.821 411.846,-229.948 411.846,-221.123"/>
<polygon fill="midnightblue" stroke="midnightblue" points="415.346,-221.048 411.846,-211.049 408.346,-221.049 415.346,-221.048"/>
</g>
<!-- Node7 -->
<g id="node7" class="node"><title>Node7</title>
<g id="a_node7"><a xlink:href="handle_8h.html" target="_top" xlink:title="shad/runtime/handle.h">
<polygon fill="white" stroke="black" points="452.346,-124.5 452.346,-143.5 565.346,-143.5 565.346,-124.5 452.346,-124.5"/>
<text text-anchor="middle" x="508.846" y="-131.5" font-family="Helvetica,sans-Serif" font-size="10.00">shad/runtime/handle.h</text>
</a>
</g>
</g>
<!-- Node1&#45;&gt;Node7 -->
<g id="edge21" class="edge"><title>Node1&#45;&gt;Node7</title>
<path fill="none" stroke="midnightblue" d="M449.218,-248.284C463.52,-239.025 478.795,-226.753 488.846,-212 500.725,-194.565 505.549,-170.522 507.507,-153.964"/>
<polygon fill="midnightblue" stroke="midnightblue" points="511.005,-154.154 508.457,-143.87 504.036,-153.498 511.005,-154.154"/>
</g>
<!-- Node10 -->
<g id="node10" class="node"><title>Node10</title>
<g id="a_node10"><a xlink:href="mapping__traits_8h.html" target="_top" xlink:title="shad/runtime/mapping\l_traits.h">
<polygon fill="white" stroke="black" points="520.346,-57 520.346,-87 633.346,-87 633.346,-57 520.346,-57"/>
<text text-anchor="start" x="528.346" y="-75" font-family="Helvetica,sans-Serif" font-size="10.00">shad/runtime/mapping</text>
<text text-anchor="middle" x="576.846" y="-64" font-family="Helvetica,sans-Serif" font-size="10.00">_traits.h</text>
</a>
</g>
</g>
<!-- Node1&#45;&gt;Node10 -->
<g id="edge23" class="edge"><title>Node1&#45;&gt;Node10</title>
<path fill="none" stroke="midnightblue" d="M492.442,-250.026C547.128,-232.985 614.755,-201.175 644.846,-144 655.488,-123.78 636.403,-105.291 615.773,-92.2527"/>
<polygon fill="midnightblue" stroke="midnightblue" points="617.306,-89.0933 606.918,-87.0093 613.739,-95.1164 617.306,-89.0933"/>
</g>
<!-- Node13 -->
<g id="node13" class="node"><title>Node13</title>
<g id="a_node13"><a xlink:href="locality_8h.html" target="_top" xlink:title="shad/runtime/locality.h">
<polygon fill="white" stroke="black" points="319.346,-124.5 319.346,-143.5 434.346,-143.5 434.346,-124.5 319.346,-124.5"/>
<text text-anchor="middle" x="376.846" y="-131.5" font-family="Helvetica,sans-Serif" font-size="10.00">shad/runtime/locality.h</text>
</a>
</g>
</g>
<!-- Node1&#45;&gt;Node13 -->
<g id="edge22" class="edge"><title>Node1&#45;&gt;Node13</title>
<path fill="none" stroke="midnightblue" d="M369.965,-248.272C355.842,-239.326 341.685,-227.277 333.846,-212 327.354,-199.346 328.553,-193.201 333.846,-180 338.526,-168.328 347.837,-157.969 356.602,-150.141"/>
<polygon fill="midnightblue" stroke="midnightblue" points="358.898,-152.783 364.349,-143.698 354.422,-147.401 358.898,-152.783"/>
</g>
<!-- Node14 -->
<g id="node14" class="node"><title>Node14</title>
<g id="a_node14"><a xlink:href="tbb__utility_8h.html" target="_top" xlink:title="shad/runtime/mappings\l/tbb/tbb_utility.h">
<polygon fill="white" stroke="black" points="126.846,-181 126.846,-211 244.846,-211 244.846,-181 126.846,-181"/>
<text text-anchor="start" x="134.846" y="-199" font-family="Helvetica,sans-Serif" font-size="10.00">shad/runtime/mappings</text>
<text text-anchor="middle" x="185.846" y="-188" font-family="Helvetica,sans-Serif" font-size="10.00">/tbb/tbb_utility.h</text>
</a>
</g>
</g>
<!-- Node1&#45;&gt;Node14 -->
<g id="edge24" class="edge"><title>Node1&#45;&gt;Node14</title>
<path fill="none" stroke="midnightblue" d="M349.492,-248.411C315.273,-237.661 273.242,-224.456 240.345,-214.121"/>
<polygon fill="midnightblue" stroke="midnightblue" points="241.036,-210.67 230.447,-211.012 238.938,-217.348 241.036,-210.67"/>
</g>
<!-- Node6&#45;&gt;Node2 -->
<g id="edge6" class="edge"><title>Node6&#45;&gt;Node2</title>
<path fill="none" stroke="midnightblue" d="M371.051,-180.933C340.95,-170.553 300.454,-156.589 272.042,-146.792"/>
<polygon fill="midnightblue" stroke="midnightblue" points="273.128,-143.464 262.533,-143.513 270.846,-150.081 273.128,-143.464"/>
</g>
<!-- Node6&#45;&gt;Node3 -->
<g id="edge7" class="edge"><title>Node6&#45;&gt;Node3</title>
<path fill="none" stroke="midnightblue" d="M380.272,-180.995C359.716,-171.448 332.594,-158.033 309.846,-144 281.707,-126.642 251.493,-103.126 232.877,-88.0065"/>
<polygon fill="midnightblue" stroke="midnightblue" points="234.911,-85.148 224.959,-81.5124 230.472,-90.5604 234.911,-85.148"/>
</g>
<!-- Node6&#45;&gt;Node4 -->
<g id="edge8" class="edge"><title>Node6&#45;&gt;Node4</title>
<path fill="none" stroke="midnightblue" d="M458.268,-180.933C493.542,-170.244 541.361,-155.753 573.788,-145.927"/>
<polygon fill="midnightblue" stroke="midnightblue" points="575.185,-149.161 583.74,-142.911 573.155,-142.462 575.185,-149.161"/>
</g>
<!-- Node6&#45;&gt;Node7 -->
<g id="edge9" class="edge"><title>Node6&#45;&gt;Node7</title>
<path fill="none" stroke="midnightblue" d="M434.834,-180.781C450.33,-171.196 470.683,-158.606 486.123,-149.056"/>
<polygon fill="midnightblue" stroke="midnightblue" points="488.351,-151.793 495.015,-143.556 484.669,-145.84 488.351,-151.793"/>
</g>
<!-- Node6&#45;&gt;Node13 -->
<g id="edge16" class="edge"><title>Node6&#45;&gt;Node13</title>
<path fill="none" stroke="midnightblue" d="M403.552,-180.781C398.623,-172.332 392.333,-161.548 387.095,-152.569"/>
<polygon fill="midnightblue" stroke="midnightblue" points="390.001,-150.605 381.939,-143.731 383.955,-154.132 390.001,-150.605"/>
</g>
<!-- Node8 -->
<g id="node8" class="node"><title>Node8</title>
<polygon fill="white" stroke="#bfbfbf" points="651.846,-62.5 651.846,-81.5 713.846,-81.5 713.846,-62.5 651.846,-62.5"/>
<text text-anchor="middle" x="682.846" y="-69.5" font-family="Helvetica,sans-Serif" font-size="10.00">type_traits</text>
</g>
<!-- Node7&#45;&gt;Node8 -->
<g id="edge10" class="edge"><title>Node7&#45;&gt;Node8</title>
<path fill="none" stroke="midnightblue" d="M534.906,-124.392C561.767,-115.471 604.828,-101.032 641.846,-88 644.594,-87.0326 647.441,-86.0175 650.296,-84.9909"/>
<polygon fill="midnightblue" stroke="midnightblue" points="651.689,-88.2088 659.896,-81.5086 649.302,-81.6283 651.689,-88.2088"/>
</g>
<!-- Node9 -->
<g id="node9" class="node"><title>Node9</title>
<polygon fill="white" stroke="#bfbfbf" points="436.846,-0.5 436.846,-19.5 540.846,-19.5 540.846,-0.5 436.846,-0.5"/>
<text text-anchor="middle" x="488.846" y="-7.5" font-family="Helvetica,sans-Serif" font-size="10.00">shad/config/config.h</text>
</g>
<!-- Node7&#45;&gt;Node9 -->
<g id="edge11" class="edge"><title>Node7&#45;&gt;Node9</title>
<path fill="none" stroke="midnightblue" d="M507.408,-124.226C504.179,-104.53 496.295,-56.4371 491.912,-29.7004"/>
<polygon fill="midnightblue" stroke="midnightblue" points="495.343,-28.9965 490.272,-19.6944 488.435,-30.129 495.343,-28.9965"/>
</g>
<!-- Node7&#45;&gt;Node10 -->
<g id="edge12" class="edge"><title>Node7&#45;&gt;Node10</title>
<path fill="none" stroke="midnightblue" d="M518.589,-124.403C527.54,-116.505 541.173,-104.477 553,-94.0409"/>
<polygon fill="midnightblue" stroke="midnightblue" points="555.637,-96.3815 560.82,-87.1408 551.006,-91.1326 555.637,-96.3815"/>
</g>
<!-- Node12 -->
<g id="node12" class="node"><title>Node12</title>
<g id="a_node12"><a xlink:href="available__traits__mappings_8h.html" target="_top" xlink:title="shad/runtime/mappings\l/available_traits_mappings.h">
<polygon fill="white" stroke="black" points="323.846,-57 323.846,-87 463.846,-87 463.846,-57 323.846,-57"/>
<text text-anchor="start" x="331.846" y="-75" font-family="Helvetica,sans-Serif" font-size="10.00">shad/runtime/mappings</text>
<text text-anchor="middle" x="393.846" y="-64" font-family="Helvetica,sans-Serif" font-size="10.00">/available_traits_mappings.h</text>
</a>
</g>
</g>
<!-- Node7&#45;&gt;Node12 -->
<g id="edge15" class="edge"><title>Node7&#45;&gt;Node12</title>
<path fill="none" stroke="midnightblue" d="M492.37,-124.403C476.139,-115.936 450.81,-102.72 429.899,-91.8101"/>
<polygon fill="midnightblue" stroke="midnightblue" points="431.434,-88.6635 420.949,-87.1408 428.196,-94.8696 431.434,-88.6635"/>
</g>
<!-- Node10&#45;&gt;Node9 -->
<g id="edge14" class="edge"><title>Node10&#45;&gt;Node9</title>
<path fill="none" stroke="midnightblue" d="M555.991,-56.7808C542.066,-47.2862 523.817,-34.8434 509.859,-25.3267"/>
<polygon fill="midnightblue" stroke="midnightblue" points="511.629,-22.2973 501.395,-19.5557 507.685,-28.0809 511.629,-22.2973"/>
</g>
<!-- Node11 -->
<g id="node11" class="node"><title>Node11</title>
<polygon fill="white" stroke="#bfbfbf" points="559.346,-0.5 559.346,-19.5 600.346,-19.5 600.346,-0.5 559.346,-0.5"/>
<text text-anchor="middle" x="579.846" y="-7.5" font-family="Helvetica,sans-Serif" font-size="10.00">string</text>
</g>
<!-- Node10&#45;&gt;Node11 -->
<g id="edge13" class="edge"><title>Node10&#45;&gt;Node11</title>
<path fill="none" stroke="midnightblue" d="M577.557,-56.7808C577.962,-48.6913 578.473,-38.4617 578.91,-29.725"/>
<polygon fill="midnightblue" stroke="midnightblue" points="582.406,-29.8929 579.41,-19.7305 575.415,-29.5432 582.406,-29.8929"/>
</g>
<!-- Node13&#45;&gt;Node3 -->
<g id="edge17" class="edge"><title>Node13&#45;&gt;Node3</title>
<path fill="none" stroke="midnightblue" d="M353.636,-124.403C325.847,-114.111 279.123,-96.8064 247.652,-85.1504"/>
<polygon fill="midnightblue" stroke="midnightblue" points="248.607,-81.7717 238.014,-81.5806 246.176,-88.3359 248.607,-81.7717"/>
</g>
<!-- Node13&#45;&gt;Node9 -->
<g id="edge18" class="edge"><title>Node13&#45;&gt;Node9</title>
<path fill="none" stroke="midnightblue" d="M356.624,-124.495C342.075,-117.168 323.545,-105.063 314.846,-88 308.386,-75.3295 306.139,-67.2454 314.846,-56 328.669,-38.147 382.475,-26.0977 426.637,-18.9959"/>
<polygon fill="midnightblue" stroke="midnightblue" points="427.413,-22.4175 436.758,-17.4259 426.34,-15.5002 427.413,-22.4175"/>
</g>
<!-- Node13&#45;&gt;Node10 -->
<g id="edge19" class="edge"><title>Node13&#45;&gt;Node10</title>
<path fill="none" stroke="midnightblue" d="M405.501,-124.403C435.346,-115.45 482.88,-101.19 520.32,-89.9579"/>
<polygon fill="midnightblue" stroke="midnightblue" points="521.523,-93.2513 530.095,-87.0253 519.511,-86.5465 521.523,-93.2513"/>
</g>
<!-- Node13&#45;&gt;Node12 -->
<g id="edge20" class="edge"><title>Node13&#45;&gt;Node12</title>
<path fill="none" stroke="midnightblue" d="M379.282,-124.403C381.326,-117.189 384.347,-106.528 387.108,-96.7823"/>
<polygon fill="midnightblue" stroke="midnightblue" points="390.481,-97.7162 389.84,-87.1408 383.746,-95.8079 390.481,-97.7162"/>
</g>
<!-- Node14&#45;&gt;Node2 -->
<g id="edge25" class="edge"><title>Node14&#45;&gt;Node2</title>
<path fill="none" stroke="midnightblue" d="M198.17,-180.781C205.804,-171.972 215.637,-160.626 223.604,-151.433"/>
<polygon fill="midnightblue" stroke="midnightblue" points="226.375,-153.58 230.28,-143.731 221.086,-148.995 226.375,-153.58"/>
</g>
<!-- Node14&#45;&gt;Node3 -->
<g id="edge26" class="edge"><title>Node14&#45;&gt;Node3</title>
<path fill="none" stroke="midnightblue" d="M189.287,-180.526C194.569,-158.303 204.673,-115.798 210.469,-91.4136"/>
<polygon fill="midnightblue" stroke="midnightblue" points="213.889,-92.1612 212.797,-81.6228 207.079,-90.5423 213.889,-92.1612"/>
</g>
<!-- Node14&#45;&gt;Node13 -->
<g id="edge29" class="edge"><title>Node14&#45;&gt;Node13</title>
<path fill="none" stroke="midnightblue" d="M230.627,-180.933C263.958,-170.462 308.899,-156.345 340.124,-146.536"/>
<polygon fill="midnightblue" stroke="midnightblue" points="341.256,-149.849 349.747,-143.513 339.158,-143.171 341.256,-149.849"/>
</g>
<!-- Node15 -->
<g id="node15" class="node"><title>Node15</title>
<polygon fill="white" stroke="#bfbfbf" points="12.8462,-124.5 12.8462,-143.5 64.8462,-143.5 64.8462,-124.5 12.8462,-124.5"/>
<text text-anchor="middle" x="38.8462" y="-131.5" font-family="Helvetica,sans-Serif" font-size="10.00">sstream</text>
</g>
<!-- Node14&#45;&gt;Node15 -->
<g id="edge27" class="edge"><title>Node14&#45;&gt;Node15</title>
<path fill="none" stroke="midnightblue" d="M151.381,-180.933C126.47,-170.765 93.1308,-157.157 69.2172,-147.396"/>
<polygon fill="midnightblue" stroke="midnightblue" points="70.4974,-144.139 59.9163,-143.6 67.8521,-150.62 70.4974,-144.139"/>
</g>
<!-- Node16 -->
<g id="node16" class="node"><title>Node16</title>
<polygon fill="white" stroke="#bfbfbf" points="82.8462,-124.5 82.8462,-143.5 156.846,-143.5 156.846,-124.5 82.8462,-124.5"/>
<text text-anchor="middle" x="119.846" y="-131.5" font-family="Helvetica,sans-Serif" font-size="10.00">system_error</text>
</g>
<!-- Node14&#45;&gt;Node16 -->
<g id="edge28" class="edge"><title>Node14&#45;&gt;Node16</title>
<path fill="none" stroke="midnightblue" d="M170.205,-180.781C160.219,-171.703 147.268,-159.929 137.001,-150.595"/>
<polygon fill="midnightblue" stroke="midnightblue" points="139.204,-147.867 129.45,-143.731 134.495,-153.047 139.204,-147.867"/>
</g>
</g>
</svg>
