<?xml version="1.0" encoding="UTF-8" standalone="no"?>
<!DOCTYPE svg PUBLIC "-//W3C//DTD SVG 1.1//EN"
 "http://www.w3.org/Graphics/SVG/1.1/DTD/svg11.dtd">
<!-- Generated by graphviz version 2.36.0 (20140111.2315)
 -->
<!-- Title: include/shad/runtime/mappings/tbb/tbb_synchronous_interface.h Pages: 1 -->
<svg width="925pt" height="298pt"
 viewBox="0.00 0.00 925.00 298.00" xmlns="http://www.w3.org/2000/svg" xmlns:xlink="http://www.w3.org/1999/xlink">
<g id="graph0" class="graph" transform="scale(1 1) rotate(0) translate(4 294)">
<title>include/shad/runtime/mappings/tbb/tbb_synchronous_interface.h</title>
<polygon fill="white" stroke="none" points="-4,4 -4,-294 921,-294 921,4 -4,4"/>
<!-- Node1 -->
<g id="node1" class="node"><title>Node1</title>
<polygon fill="#bfbfbf" stroke="black" points="243.5,-248.5 243.5,-289.5 398.5,-289.5 398.5,-248.5 243.5,-248.5"/>
<text text-anchor="start" x="251.5" y="-277.5" font-family="Helvetica,sans-Serif" font-size="10.00">include/shad/runtime</text>
<text text-anchor="start" x="251.5" y="-266.5" font-family="Helvetica,sans-Serif" font-size="10.00">/mappings/tbb/tbb_synchronous</text>
<text text-anchor="middle" x="321" y="-255.5" font-family="Helvetica,sans-Serif" font-size="10.00">_interface.h</text>
</g>
<!-- Node2 -->
<g id="node2" class="node"><title>Node2</title>
<polygon fill="white" stroke="#bfbfbf" points="252,-124.5 252,-143.5 304,-143.5 304,-124.5 252,-124.5"/>
<text text-anchor="middle" x="278" y="-131.5" font-family="Helvetica,sans-Serif" font-size="10.00">memory</text>
</g>
<!-- Node1&#45;&gt;Node2 -->
<g id="edge1" class="edge"><title>Node1&#45;&gt;Node2</title>
<path fill="none" stroke="midnightblue" d="M311.645,-248.349C306.837,-237.745 301.135,-224.336 297,-212 290.451,-192.46 285.065,-169.448 281.721,-153.703"/>
<polygon fill="midnightblue" stroke="midnightblue" points="285.102,-152.766 279.659,-143.676 278.245,-154.176 285.102,-152.766"/>
</g>
<!-- Node3 -->
<g id="node3" class="node"><title>Node3</title>
<polygon fill="white" stroke="#bfbfbf" points="671,-186.5 671,-205.5 711,-205.5 711,-186.5 671,-186.5"/>
<text text-anchor="middle" x="691" y="-193.5" font-family="Helvetica,sans-Serif" font-size="10.00">utility</text>
</g>
<!-- Node1&#45;&gt;Node3 -->
<g id="edge2" class="edge"><title>Node1&#45;&gt;Node3</title>
<path fill="none" stroke="midnightblue" d="M398.518,-261.908C468.466,-254.854 573.503,-240.36 661,-212 662.911,-211.381 664.852,-210.656 666.78,-209.865"/>
<polygon fill="midnightblue" stroke="midnightblue" points="668.507,-212.922 676.113,-205.547 665.568,-206.569 668.507,-212.922"/>
</g>
<!-- Node4 -->
<g id="node4" class="node"><title>Node4</title>
<g id="a_node4"><a xlink:href="locality_8h.html" target="_top" xlink:title="shad/runtime/locality.h">
<polygon fill="white" stroke="black" points="12.5,-124.5 12.5,-143.5 127.5,-143.5 127.5,-124.5 12.5,-124.5"/>
<text text-anchor="middle" x="70" y="-131.5" font-family="Helvetica,sans-Serif" font-size="10.00">shad/runtime/locality.h</text>
</a>
</g>
</g>
<!-- Node1&#45;&gt;Node4 -->
<g id="edge3" class="edge"><title>Node1&#45;&gt;Node4</title>
<path fill="none" stroke="midnightblue" d="M243.414,-262.983C199.885,-256.643 146.885,-242.643 109,-212 90.4751,-197.016 79.9171,-170.942 74.5757,-153.333"/>
<polygon fill="midnightblue" stroke="midnightblue" points="77.9343,-152.347 71.8994,-143.639 71.1867,-154.21 77.9343,-152.347"/>
</g>
<!-- Node10 -->
<g id="node10" class="node"><title>Node10</title>
<g id="a_node10"><a xlink:href="tbb__traits__mapping_8h.html" target="_top" xlink:title="shad/runtime/mappings\l/tbb/tbb_traits_mapping.h">
<polygon fill="white" stroke="black" points="525.5,-181 525.5,-211 652.5,-211 652.5,-181 525.5,-181"/>
<text text-anchor="start" x="533.5" y="-199" font-family="Helvetica,sans-Serif" font-size="10.00">shad/runtime/mappings</text>
<text text-anchor="middle" x="589" y="-188" font-family="Helvetica,sans-Serif" font-size="10.00">/tbb/tbb_traits_mapping.h</text>
</a>
</g>
</g>
<!-- Node1&#45;&gt;Node10 -->
<g id="edge10" class="edge"><title>Node1&#45;&gt;Node10</title>
<path fill="none" stroke="midnightblue" d="M394.942,-248.411C436.22,-237.475 487.084,-224 526.382,-213.589"/>
<polygon fill="midnightblue" stroke="midnightblue" points="527.34,-216.956 536.111,-211.012 525.548,-210.189 527.34,-216.956"/>
</g>
<!-- Node15 -->
<g id="node15" class="node"><title>Node15</title>
<g id="a_node15"><a xlink:href="tbb__utility_8h.html" target="_top" xlink:title="shad/runtime/mappings\l/tbb/tbb_utility.h">
<polygon fill="white" stroke="black" points="306,-181 306,-211 424,-211 424,-181 306,-181"/>
<text text-anchor="start" x="314" y="-199" font-family="Helvetica,sans-Serif" font-size="10.00">shad/runtime/mappings</text>
<text text-anchor="middle" x="365" y="-188" font-family="Helvetica,sans-Serif" font-size="10.00">/tbb/tbb_utility.h</text>
</a>
</g>
</g>
<!-- Node1&#45;&gt;Node15 -->
<g id="edge19" class="edge"><title>Node1&#45;&gt;Node15</title>
<path fill="none" stroke="midnightblue" d="M333.256,-248.223C338.749,-239.36 345.257,-228.858 350.946,-219.678"/>
<polygon fill="midnightblue" stroke="midnightblue" points="354.001,-221.392 356.294,-211.049 348.051,-217.705 354.001,-221.392"/>
</g>
<!-- Node19 -->
<g id="node19" class="node"><title>Node19</title>
<g id="a_node19"><a xlink:href="synchronous__interface_8h.html" target="_top" xlink:title="shad/runtime/synchronous\l_interface.h">
<polygon fill="white" stroke="black" points="118.5,-181 118.5,-211 249.5,-211 249.5,-181 118.5,-181"/>
<text text-anchor="start" x="126.5" y="-199" font-family="Helvetica,sans-Serif" font-size="10.00">shad/runtime/synchronous</text>
<text text-anchor="middle" x="184" y="-188" font-family="Helvetica,sans-Serif" font-size="10.00">_interface.h</text>
</a>
</g>
</g>
<!-- Node1&#45;&gt;Node19 -->
<g id="edge25" class="edge"><title>Node1&#45;&gt;Node19</title>
<path fill="none" stroke="midnightblue" d="M283.201,-248.411C263.599,-238.252 239.767,-225.901 220.376,-215.852"/>
<polygon fill="midnightblue" stroke="midnightblue" points="221.74,-212.617 211.251,-211.123 218.519,-218.832 221.74,-212.617"/>
</g>
<!-- Node5 -->
<g id="node5" class="node"><title>Node5</title>
<polygon fill="white" stroke="#bfbfbf" points="325,-62.5 325,-81.5 371,-81.5 371,-62.5 325,-62.5"/>
<text text-anchor="middle" x="348" y="-69.5" font-family="Helvetica,sans-Serif" font-size="10.00">cstdint</text>
</g>
<!-- Node4&#45;&gt;Node5 -->
<g id="edge4" class="edge"><title>Node4&#45;&gt;Node5</title>
<path fill="none" stroke="midnightblue" d="M109.535,-124.467C164.651,-112.572 263.579,-91.2203 314.974,-80.1279"/>
<polygon fill="midnightblue" stroke="midnightblue" points="315.853,-83.5188 324.89,-77.9878 314.376,-76.6764 315.853,-83.5188"/>
</g>
<!-- Node6 -->
<g id="node6" class="node"><title>Node6</title>
<polygon fill="white" stroke="#bfbfbf" points="303,-0.5 303,-19.5 407,-19.5 407,-0.5 303,-0.5"/>
<text text-anchor="middle" x="355" y="-7.5" font-family="Helvetica,sans-Serif" font-size="10.00">shad/config/config.h</text>
</g>
<!-- Node4&#45;&gt;Node6 -->
<g id="edge5" class="edge"><title>Node4&#45;&gt;Node6</title>
<path fill="none" stroke="midnightblue" d="M90.0406,-124.421C139.507,-103.246 267.595,-48.4156 325.64,-23.5683"/>
<polygon fill="midnightblue" stroke="midnightblue" points="327.166,-26.7223 334.981,-19.5693 324.411,-20.2871 327.166,-26.7223"/>
</g>
<!-- Node7 -->
<g id="node7" class="node"><title>Node7</title>
<g id="a_node7"><a xlink:href="mapping__traits_8h.html" target="_top" xlink:title="shad/runtime/mapping\l_traits.h">
<polygon fill="white" stroke="black" points="440.5,-57 440.5,-87 553.5,-87 553.5,-57 440.5,-57"/>
<text text-anchor="start" x="448.5" y="-75" font-family="Helvetica,sans-Serif" font-size="10.00">shad/runtime/mapping</text>
<text text-anchor="middle" x="497" y="-64" font-family="Helvetica,sans-Serif" font-size="10.00">_traits.h</text>
</a>
</g>
</g>
<!-- Node4&#45;&gt;Node7 -->
<g id="edge6" class="edge"><title>Node4&#45;&gt;Node7</title>
<path fill="none" stroke="midnightblue" d="M127.587,-124.908C206.257,-113.854 347.027,-94.0735 430.224,-82.383"/>
<polygon fill="midnightblue" stroke="midnightblue" points="430.91,-85.8212 440.325,-80.9637 429.935,-78.8893 430.91,-85.8212"/>
</g>
<!-- Node9 -->
<g id="node9" class="node"><title>Node9</title>
<g id="a_node9"><a xlink:href="available__traits__mappings_8h.html" target="_top" xlink:title="shad/runtime/mappings\l/available_traits_mappings.h">
<polygon fill="white" stroke="black" points="0,-57 0,-87 140,-87 140,-57 0,-57"/>
<text text-anchor="start" x="8" y="-75" font-family="Helvetica,sans-Serif" font-size="10.00">shad/runtime/mappings</text>
<text text-anchor="middle" x="70" y="-64" font-family="Helvetica,sans-Serif" font-size="10.00">/available_traits_mappings.h</text>
</a>
</g>
</g>
<!-- Node4&#45;&gt;Node9 -->
<g id="edge9" class="edge"><title>Node4&#45;&gt;Node9</title>
<path fill="none" stroke="midnightblue" d="M70,-124.403C70,-117.341 70,-106.975 70,-97.399"/>
<polygon fill="midnightblue" stroke="midnightblue" points="73.5001,-97.1408 70,-87.1408 66.5001,-97.1408 73.5001,-97.1408"/>
</g>
<!-- Node7&#45;&gt;Node6 -->
<g id="edge8" class="edge"><title>Node7&#45;&gt;Node6</title>
<path fill="none" stroke="midnightblue" d="M463.707,-56.9327C439.75,-46.81 407.724,-33.2779 384.646,-23.5267"/>
<polygon fill="midnightblue" stroke="midnightblue" points="385.927,-20.2682 375.353,-19.6 383.203,-26.7163 385.927,-20.2682"/>
</g>
<!-- Node8 -->
<g id="node8" class="node"><title>Node8</title>
<polygon fill="white" stroke="#bfbfbf" points="531.5,-0.5 531.5,-19.5 572.5,-19.5 572.5,-0.5 531.5,-0.5"/>
<text text-anchor="middle" x="552" y="-7.5" font-family="Helvetica,sans-Serif" font-size="10.00">string</text>
</g>
<!-- Node7&#45;&gt;Node8 -->
<g id="edge7" class="edge"><title>Node7&#45;&gt;Node8</title>
<path fill="none" stroke="midnightblue" d="M510.034,-56.7808C518.191,-47.8824 528.722,-36.3943 537.194,-27.1524"/>
<polygon fill="midnightblue" stroke="midnightblue" points="539.82,-29.4671 543.997,-19.7305 534.66,-24.7371 539.82,-29.4671"/>
</g>
<!-- Node10&#45;&gt;Node2 -->
<g id="edge13" class="edge"><title>Node10&#45;&gt;Node2</title>
<path fill="none" stroke="midnightblue" d="M525.444,-184.538C471.642,-175.389 392.28,-161.21 314.32,-144.178"/>
<polygon fill="midnightblue" stroke="midnightblue" points="314.845,-140.71 304.327,-141.977 313.34,-147.546 314.845,-140.71"/>
</g>
<!-- Node10&#45;&gt;Node5 -->
<g id="edge11" class="edge"><title>Node10&#45;&gt;Node5</title>
<path fill="none" stroke="midnightblue" d="M572.82,-180.845C554.322,-165.234 522.63,-140.185 492,-124 455.816,-104.88 410.935,-90.2803 380.987,-81.6982"/>
<polygon fill="midnightblue" stroke="midnightblue" points="381.629,-78.2434 371.056,-78.916 379.741,-84.9839 381.629,-78.2434"/>
</g>
<!-- Node10&#45;&gt;Node7 -->
<g id="edge18" class="edge"><title>Node10&#45;&gt;Node7</title>
<path fill="none" stroke="midnightblue" d="M581.617,-180.801C573.663,-166.029 560.221,-142.514 546,-124 538.133,-113.757 528.458,-103.321 519.789,-94.5804"/>
<polygon fill="midnightblue" stroke="midnightblue" points="522.075,-91.9192 512.501,-87.3828 517.157,-96.8998 522.075,-91.9192"/>
</g>
<!-- Node10&#45;&gt;Node8 -->
<g id="edge15" class="edge"><title>Node10&#45;&gt;Node8</title>
<path fill="none" stroke="midnightblue" d="M586.366,-180.768C581.674,-155.573 571.47,-101.487 562,-56 560.183,-47.2737 558.055,-37.6229 556.229,-29.5037"/>
<polygon fill="midnightblue" stroke="midnightblue" points="559.611,-28.5902 553.986,-19.612 552.784,-30.1385 559.611,-28.5902"/>
</g>
<!-- Node11 -->
<g id="node11" class="node"><title>Node11</title>
<polygon fill="white" stroke="#bfbfbf" points="636,-124.5 636,-143.5 676,-143.5 676,-124.5 636,-124.5"/>
<text text-anchor="middle" x="656" y="-131.5" font-family="Helvetica,sans-Serif" font-size="10.00">limits</text>
</g>
<!-- Node10&#45;&gt;Node11 -->
<g id="edge12" class="edge"><title>Node10&#45;&gt;Node11</title>
<path fill="none" stroke="midnightblue" d="M604.878,-180.781C615.015,-171.703 628.162,-159.929 638.585,-150.595"/>
<polygon fill="midnightblue" stroke="midnightblue" points="641.136,-153.009 646.251,-143.731 636.466,-147.794 641.136,-153.009"/>
</g>
<!-- Node12 -->
<g id="node12" class="node"><title>Node12</title>
<polygon fill="white" stroke="#bfbfbf" points="694,-124.5 694,-143.5 738,-143.5 738,-124.5 694,-124.5"/>
<text text-anchor="middle" x="716" y="-131.5" font-family="Helvetica,sans-Serif" font-size="10.00">mutex</text>
</g>
<!-- Node10&#45;&gt;Node12 -->
<g id="edge14" class="edge"><title>Node10&#45;&gt;Node12</title>
<path fill="none" stroke="midnightblue" d="M618.776,-180.933C639.915,-170.946 668.079,-157.64 688.652,-147.92"/>
<polygon fill="midnightblue" stroke="midnightblue" points="690.25,-151.036 697.797,-143.6 687.26,-144.707 690.25,-151.036"/>
</g>
<!-- Node13 -->
<g id="node13" class="node"><title>Node13</title>
<polygon fill="white" stroke="#bfbfbf" points="755.5,-124.5 755.5,-143.5 844.5,-143.5 844.5,-124.5 755.5,-124.5"/>
<text text-anchor="middle" x="800" y="-131.5" font-family="Helvetica,sans-Serif" font-size="10.00">tbb/task_group.h</text>
</g>
<!-- Node10&#45;&gt;Node13 -->
<g id="edge16" class="edge"><title>Node10&#45;&gt;Node13</title>
<path fill="none" stroke="midnightblue" d="M638.47,-180.933C675.609,-170.372 725.799,-156.1 760.325,-146.282"/>
<polygon fill="midnightblue" stroke="midnightblue" points="761.402,-149.614 770.064,-143.513 759.488,-142.881 761.402,-149.614"/>
</g>
<!-- Node14 -->
<g id="node14" class="node"><title>Node14</title>
<polygon fill="white" stroke="#bfbfbf" points="862.5,-124.5 862.5,-143.5 917.5,-143.5 917.5,-124.5 862.5,-124.5"/>
<text text-anchor="middle" x="890" y="-131.5" font-family="Helvetica,sans-Serif" font-size="10.00">tbb/tbb.h</text>
</g>
<!-- Node10&#45;&gt;Node14 -->
<g id="edge17" class="edge"><title>Node10&#45;&gt;Node14</title>
<path fill="none" stroke="midnightblue" d="M652.689,-181.849C655.836,-181.22 658.953,-180.6 662,-180 743.693,-163.909 766.901,-162.314 852.285,-144.063"/>
<polygon fill="midnightblue" stroke="midnightblue" points="853.116,-147.464 862.156,-141.938 851.643,-140.621 853.116,-147.464"/>
</g>
<!-- Node15&#45;&gt;Node4 -->
<g id="edge24" class="edge"><title>Node15&#45;&gt;Node4</title>
<path fill="none" stroke="midnightblue" d="M305.657,-182.93C251.869,-171.99 173.377,-156.026 122,-145.576"/>
<polygon fill="midnightblue" stroke="midnightblue" points="122.599,-142.126 112.102,-143.563 121.203,-148.986 122.599,-142.126"/>
</g>
<!-- Node15&#45;&gt;Node5 -->
<g id="edge21" class="edge"><title>Node15&#45;&gt;Node5</title>
<path fill="none" stroke="midnightblue" d="M422.516,-180.963C457.757,-169.393 492.95,-150.551 475,-124 454.169,-93.1862 411.325,-80.9872 381.179,-76.1593"/>
<polygon fill="midnightblue" stroke="midnightblue" points="381.493,-72.669 371.103,-74.7406 380.517,-79.6007 381.493,-72.669"/>
</g>
<!-- Node16 -->
<g id="node16" class="node"><title>Node16</title>
<polygon fill="white" stroke="#bfbfbf" points="184.5,-124.5 184.5,-143.5 233.5,-143.5 233.5,-124.5 184.5,-124.5"/>
<text text-anchor="middle" x="209" y="-131.5" font-family="Helvetica,sans-Serif" font-size="10.00">cstddef</text>
</g>
<!-- Node15&#45;&gt;Node16 -->
<g id="edge20" class="edge"><title>Node15&#45;&gt;Node16</title>
<path fill="none" stroke="midnightblue" d="M328.425,-180.933C301.871,-170.72 266.294,-157.036 240.893,-147.266"/>
<polygon fill="midnightblue" stroke="midnightblue" points="241.95,-143.923 231.36,-143.6 239.437,-150.457 241.95,-143.923"/>
</g>
<!-- Node17 -->
<g id="node17" class="node"><title>Node17</title>
<polygon fill="white" stroke="#bfbfbf" points="414,-124.5 414,-143.5 466,-143.5 466,-124.5 414,-124.5"/>
<text text-anchor="middle" x="440" y="-131.5" font-family="Helvetica,sans-Serif" font-size="10.00">sstream</text>
</g>
<!-- Node15&#45;&gt;Node17 -->
<g id="edge22" class="edge"><title>Node15&#45;&gt;Node17</title>
<path fill="none" stroke="midnightblue" d="M382.774,-180.781C394.346,-171.523 409.423,-159.462 421.196,-150.044"/>
<polygon fill="midnightblue" stroke="midnightblue" points="423.465,-152.711 429.087,-143.731 419.092,-147.244 423.465,-152.711"/>
</g>
<!-- Node18 -->
<g id="node18" class="node"><title>Node18</title>
<polygon fill="white" stroke="#bfbfbf" points="322,-124.5 322,-143.5 396,-143.5 396,-124.5 322,-124.5"/>
<text text-anchor="middle" x="359" y="-131.5" font-family="Helvetica,sans-Serif" font-size="10.00">system_error</text>
</g>
<!-- Node15&#45;&gt;Node18 -->
<g id="edge23" class="edge"><title>Node15&#45;&gt;Node18</title>
<path fill="none" stroke="midnightblue" d="M363.578,-180.781C362.769,-172.691 361.746,-162.462 360.873,-153.725"/>
<polygon fill="midnightblue" stroke="midnightblue" points="364.351,-153.333 359.873,-143.731 357.386,-154.029 364.351,-153.333"/>
</g>
<!-- Node19&#45;&gt;Node2 -->
<g id="edge28" class="edge"><title>Node19&#45;&gt;Node2</title>
<path fill="none" stroke="midnightblue" d="M206.277,-180.781C221.293,-171.196 241.017,-158.606 255.98,-149.056"/>
<polygon fill="midnightblue" stroke="midnightblue" points="258.05,-151.886 264.596,-143.556 254.284,-145.986 258.05,-151.886"/>
</g>
<!-- Node19&#45;&gt;Node4 -->
<g id="edge29" class="edge"><title>Node19&#45;&gt;Node4</title>
<path fill="none" stroke="midnightblue" d="M157.272,-180.933C138.554,-171.081 113.701,-158 95.3047,-148.318"/>
<polygon fill="midnightblue" stroke="midnightblue" points="96.8194,-145.16 86.3401,-143.6 93.5591,-151.355 96.8194,-145.16"/>
</g>
<!-- Node19&#45;&gt;Node5 -->
<g id="edge27" class="edge"><title>Node19&#45;&gt;Node5</title>
<path fill="none" stroke="midnightblue" d="M176.865,-180.969C170.1,-165.468 162.648,-140.518 175,-124 191.744,-101.607 269.319,-85.6377 314.704,-78.0272"/>
<polygon fill="midnightblue" stroke="midnightblue" points="315.372,-81.4645 324.679,-76.4018 314.247,-74.5556 315.372,-81.4645"/>
</g>
<!-- Node19&#45;&gt;Node16 -->
<g id="edge26" class="edge"><title>Node19&#45;&gt;Node16</title>
<path fill="none" stroke="midnightblue" d="M189.925,-180.781C193.37,-172.512 197.748,-162.006 201.44,-153.145"/>
<polygon fill="midnightblue" stroke="midnightblue" points="204.747,-154.307 205.362,-143.731 198.285,-151.615 204.747,-154.307"/>
</g>
</g>
</svg>
