<?xml version="1.0" encoding="UTF-8" standalone="no"?>
<!DOCTYPE svg PUBLIC "-//W3C//DTD SVG 1.1//EN"
 "http://www.w3.org/Graphics/SVG/1.1/DTD/svg11.dtd">
<!-- Generated by graphviz version 2.36.0 (20140111.2315)
 -->
<!-- Title: include/shad/runtime/mappings/tbb/tbb_traits_mapping.h Pages: 1 -->
<svg width="162pt" height="128pt"
 viewBox="0.00 0.00 162.00 128.00" xmlns="http://www.w3.org/2000/svg" xmlns:xlink="http://www.w3.org/1999/xlink">
<g id="graph0" class="graph" transform="scale(1 1) rotate(0) translate(4 124)">
<title>include/shad/runtime/mappings/tbb/tbb_traits_mapping.h</title>
<polygon fill="white" stroke="none" points="-4,4 -4,-124 158,-124 158,4 -4,4"/>
<!-- Node1 -->
<g id="node1" class="node"><title>Node1</title>
<polygon fill="#bfbfbf" stroke="black" points="16,-78.5 16,-119.5 138,-119.5 138,-78.5 16,-78.5"/>
<text text-anchor="start" x="24" y="-107.5" font-family="Helvetica,sans-Serif" font-size="10.00">include/shad/runtime</text>
<text text-anchor="start" x="24" y="-96.5" font-family="Helvetica,sans-Serif" font-size="10.00">/mappings/tbb/tbb_traits</text>
<text text-anchor="middle" x="77" y="-85.5" font-family="Helvetica,sans-Serif" font-size="10.00">_mapping.h</text>
</g>
<!-- Node2 -->
<g id="node2" class="node"><title>Node2</title>
<g id="a_node2"><a xlink:href="tbb__synchronous__interface_8h.html" target="_top" xlink:title="include/shad/runtime\l/mappings/tbb/tbb_synchronous\l_interface.h">
<polygon fill="white" stroke="black" points="-0.5,-0.5 -0.5,-41.5 154.5,-41.5 154.5,-0.5 -0.5,-0.5"/>
<text text-anchor="start" x="7.5" y="-29.5" font-family="Helvetica,sans-Serif" font-size="10.00">include/shad/runtime</text>
<text text-anchor="start" x="7.5" y="-18.5" font-family="Helvetica,sans-Serif" font-size="10.00">/mappings/tbb/tbb_synchronous</text>
<text text-anchor="middle" x="77" y="-7.5" font-family="Helvetica,sans-Serif" font-size="10.00">_interface.h</text>
</a>
</g>
</g>
<!-- Node1&#45;&gt;Node2 -->
<g id="edge1" class="edge"><title>Node1&#45;&gt;Node2</title>
<path fill="none" stroke="midnightblue" d="M77,-68.2965C77,-59.3009 77,-49.6532 77,-41.5056"/>
<polygon fill="midnightblue" stroke="midnightblue" points="73.5001,-68.4281 77,-78.4281 80.5001,-68.4281 73.5001,-68.4281"/>
</g>
</g>
</svg>
