<?xml version="1.0" encoding="UTF-8" standalone="no"?>
<!DOCTYPE svg PUBLIC "-//W3C//DTD SVG 1.1//EN"
 "http://www.w3.org/Graphics/SVG/1.1/DTD/svg11.dtd">
<!-- Generated by graphviz version 2.36.0 (20140111.2315)
 -->
<!-- Title: include/shad/runtime/mappings/tbb/tbb_asynchronous_interface.h Pages: 1 -->
<svg width="738pt" height="298pt"
 viewBox="0.00 0.00 738.47 298.00" xmlns="http://www.w3.org/2000/svg" xmlns:xlink="http://www.w3.org/1999/xlink">
<g id="graph0" class="graph" transform="scale(1 1) rotate(0) translate(4 294)">
<title>include/shad/runtime/mappings/tbb/tbb_asynchronous_interface.h</title>
<polygon fill="white" stroke="none" points="-4,4 -4,-294 734.467,-294 734.467,4 -4,4"/>
<!-- Node1 -->
<g id="node1" class="node"><title>Node1</title>
<polygon fill="#bfbfbf" stroke="black" points="237.967,-248.5 237.967,-289.5 398.967,-289.5 398.967,-248.5 237.967,-248.5"/>
<text text-anchor="start" x="245.967" y="-277.5" font-family="Helvetica,sans-Serif" font-size="10.00">include/shad/runtime</text>
<text text-anchor="start" x="245.967" y="-266.5" font-family="Helvetica,sans-Serif" font-size="10.00">/mappings/tbb/tbb_asynchronous</text>
<text text-anchor="middle" x="318.467" y="-255.5" font-family="Helvetica,sans-Serif" font-size="10.00">_interface.h</text>
</g>
<!-- Node2 -->
<g id="node2" class="node"><title>Node2</title>
<polygon fill="white" stroke="#bfbfbf" points="119.967,-124.5 119.967,-143.5 168.967,-143.5 168.967,-124.5 119.967,-124.5"/>
<text text-anchor="middle" x="144.467" y="-131.5" font-family="Helvetica,sans-Serif" font-size="10.00">cstddef</text>
</g>
<!-- Node1&#45;&gt;Node2 -->
<g id="edge1" class="edge"><title>Node1&#45;&gt;Node2</title>
<path fill="none" stroke="midnightblue" d="M237.852,-258.331C181.123,-249.676 112.26,-234.788 94.4674,-212 85.7149,-200.79 88.6812,-192.992 94.4674,-180 100.035,-167.498 110.983,-157.012 121.218,-149.317"/>
<polygon fill="midnightblue" stroke="midnightblue" points="123.318,-152.119 129.515,-143.526 119.312,-146.379 123.318,-152.119"/>
</g>
<!-- Node3 -->
<g id="node3" class="node"><title>Node3</title>
<polygon fill="white" stroke="#bfbfbf" points="116.467,-62.5 116.467,-81.5 162.467,-81.5 162.467,-62.5 116.467,-62.5"/>
<text text-anchor="middle" x="139.467" y="-69.5" font-family="Helvetica,sans-Serif" font-size="10.00">cstdint</text>
</g>
<!-- Node1&#45;&gt;Node3 -->
<g id="edge2" class="edge"><title>Node1&#45;&gt;Node3</title>
<path fill="none" stroke="midnightblue" d="M237.753,-266.965C154.798,-260.766 33.5066,-235.687 2.46739,-144 -12.9931,-98.3309 61.0014,-81.7833 106.31,-75.9828"/>
<polygon fill="midnightblue" stroke="midnightblue" points="106.793,-79.4502 116.32,-74.8142 105.982,-72.4974 106.793,-79.4502"/>
</g>
<!-- Node4 -->
<g id="node4" class="node"><title>Node4</title>
<polygon fill="white" stroke="#bfbfbf" points="11.4674,-124.5 11.4674,-143.5 63.4674,-143.5 63.4674,-124.5 11.4674,-124.5"/>
<text text-anchor="middle" x="37.4674" y="-131.5" font-family="Helvetica,sans-Serif" font-size="10.00">memory</text>
</g>
<!-- Node1&#45;&gt;Node4 -->
<g id="edge3" class="edge"><title>Node1&#45;&gt;Node4</title>
<path fill="none" stroke="midnightblue" d="M237.959,-263.814C189.883,-257.841 129.762,-243.932 85.4674,-212 65.1497,-197.353 51.554,-171.197 44.1681,-153.478"/>
<polygon fill="midnightblue" stroke="midnightblue" points="47.2565,-151.764 40.3672,-143.715 40.7334,-154.303 47.2565,-151.764"/>
</g>
<!-- Node5 -->
<g id="node5" class="node"><title>Node5</title>
<polygon fill="white" stroke="#bfbfbf" points="690.467,-186.5 690.467,-205.5 730.467,-205.5 730.467,-186.5 690.467,-186.5"/>
<text text-anchor="middle" x="710.467" y="-193.5" font-family="Helvetica,sans-Serif" font-size="10.00">utility</text>
</g>
<!-- Node1&#45;&gt;Node5 -->
<g id="edge4" class="edge"><title>Node1&#45;&gt;Node5</title>
<path fill="none" stroke="midnightblue" d="M399.047,-261.437C472.477,-254.043 583.354,-239.313 676.467,-212 678.959,-211.269 681.508,-210.397 684.034,-209.447"/>
<polygon fill="midnightblue" stroke="midnightblue" points="685.6,-212.587 693.497,-205.524 682.919,-206.12 685.6,-212.587"/>
</g>
<!-- Node6 -->
<g id="node6" class="node"><title>Node6</title>
<g id="a_node6"><a xlink:href="asynchronous__interface_8h.html" target="_top" xlink:title="shad/runtime/asynchronous\l_interface.h">
<polygon fill="white" stroke="black" points="103.967,-181 103.967,-211 240.967,-211 240.967,-181 103.967,-181"/>
<text text-anchor="start" x="111.967" y="-199" font-family="Helvetica,sans-Serif" font-size="10.00">shad/runtime/asynchronous</text>
<text text-anchor="middle" x="172.467" y="-188" font-family="Helvetica,sans-Serif" font-size="10.00">_interface.h</text>
</a>
</g>
</g>
<!-- Node1&#45;&gt;Node6 -->
<g id="edge5" class="edge"><title>Node1&#45;&gt;Node6</title>
<path fill="none" stroke="midnightblue" d="M278.186,-248.411C257.106,-238.16 231.436,-225.677 210.671,-215.578"/>
<polygon fill="midnightblue" stroke="midnightblue" points="212.032,-212.349 201.509,-211.123 208.971,-218.644 212.032,-212.349"/>
</g>
<!-- Node7 -->
<g id="node7" class="node"><title>Node7</title>
<g id="a_node7"><a xlink:href="handle_8h.html" target="_top" xlink:title="shad/runtime/handle.h">
<polygon fill="white" stroke="black" points="450.967,-124.5 450.967,-143.5 563.967,-143.5 563.967,-124.5 450.967,-124.5"/>
<text text-anchor="middle" x="507.467" y="-131.5" font-family="Helvetica,sans-Serif" font-size="10.00">shad/runtime/handle.h</text>
</a>
</g>
</g>
<!-- Node1&#45;&gt;Node7 -->
<g id="edge22" class="edge"><title>Node1&#45;&gt;Node7</title>
<path fill="none" stroke="midnightblue" d="M349.029,-248.442C365.332,-237.865 385.651,-224.451 403.467,-212 433.599,-190.944 467.699,-165.348 488.386,-149.617"/>
<polygon fill="midnightblue" stroke="midnightblue" points="490.55,-152.368 496.379,-143.521 486.305,-146.802 490.55,-152.368"/>
</g>
<!-- Node10 -->
<g id="node10" class="node"><title>Node10</title>
<g id="a_node10"><a xlink:href="mapping__traits_8h.html" target="_top" xlink:title="shad/runtime/mapping\l_traits.h">
<polygon fill="white" stroke="black" points="535.967,-57 535.967,-87 648.967,-87 648.967,-57 535.967,-57"/>
<text text-anchor="start" x="543.967" y="-75" font-family="Helvetica,sans-Serif" font-size="10.00">shad/runtime/mapping</text>
<text text-anchor="middle" x="592.467" y="-64" font-family="Helvetica,sans-Serif" font-size="10.00">_traits.h</text>
</a>
</g>
</g>
<!-- Node1&#45;&gt;Node10 -->
<g id="edge24" class="edge"><title>Node1&#45;&gt;Node10</title>
<path fill="none" stroke="midnightblue" d="M399.265,-262.192C476.467,-251.851 588.914,-223.203 643.467,-144 655.305,-126.814 639.713,-107.607 622.743,-93.5079"/>
<polygon fill="midnightblue" stroke="midnightblue" points="624.457,-90.4069 614.415,-87.0281 620.158,-95.9315 624.457,-90.4069"/>
</g>
<!-- Node13 -->
<g id="node13" class="node"><title>Node13</title>
<g id="a_node13"><a xlink:href="locality_8h.html" target="_top" xlink:title="shad/runtime/locality.h">
<polygon fill="white" stroke="black" points="317.967,-124.5 317.967,-143.5 432.967,-143.5 432.967,-124.5 317.967,-124.5"/>
<text text-anchor="middle" x="375.467" y="-131.5" font-family="Helvetica,sans-Serif" font-size="10.00">shad/runtime/locality.h</text>
</a>
</g>
</g>
<!-- Node1&#45;&gt;Node13 -->
<g id="edge23" class="edge"><title>Node1&#45;&gt;Node13</title>
<path fill="none" stroke="midnightblue" d="M353.303,-248.468C366.214,-239.238 379.418,-226.937 386.467,-212 395.355,-193.167 389.543,-169.08 383.516,-152.905"/>
<polygon fill="midnightblue" stroke="midnightblue" points="386.712,-151.474 379.677,-143.553 380.237,-154.133 386.712,-151.474"/>
</g>
<!-- Node15 -->
<g id="node15" class="node"><title>Node15</title>
<g id="a_node15"><a xlink:href="tbb__utility_8h.html" target="_top" xlink:title="shad/runtime/mappings\l/tbb/tbb_utility.h">
<polygon fill="white" stroke="black" points="259.467,-181 259.467,-211 377.467,-211 377.467,-181 259.467,-181"/>
<text text-anchor="start" x="267.467" y="-199" font-family="Helvetica,sans-Serif" font-size="10.00">shad/runtime/mappings</text>
<text text-anchor="middle" x="318.467" y="-188" font-family="Helvetica,sans-Serif" font-size="10.00">/tbb/tbb_utility.h</text>
</a>
</g>
</g>
<!-- Node1&#45;&gt;Node15 -->
<g id="edge25" class="edge"><title>Node1&#45;&gt;Node15</title>
<path fill="none" stroke="midnightblue" d="M318.467,-248.223C318.467,-239.821 318.467,-229.948 318.467,-221.123"/>
<polygon fill="midnightblue" stroke="midnightblue" points="321.967,-221.048 318.467,-211.049 314.967,-221.049 321.967,-221.048"/>
</g>
<!-- Node6&#45;&gt;Node2 -->
<g id="edge6" class="edge"><title>Node6&#45;&gt;Node2</title>
<path fill="none" stroke="midnightblue" d="M165.832,-180.781C161.931,-172.422 156.963,-161.777 152.8,-152.856"/>
<polygon fill="midnightblue" stroke="midnightblue" points="155.942,-151.312 148.542,-143.731 149.599,-154.272 155.942,-151.312"/>
</g>
<!-- Node6&#45;&gt;Node3 -->
<g id="edge7" class="edge"><title>Node6&#45;&gt;Node3</title>
<path fill="none" stroke="midnightblue" d="M146.222,-180.979C132.864,-172.282 117.907,-159.754 110.467,-144 101.897,-125.854 113.471,-104.464 124.439,-89.9406"/>
<polygon fill="midnightblue" stroke="midnightblue" points="127.406,-91.84 131.005,-81.8751 121.977,-87.4207 127.406,-91.84"/>
</g>
<!-- Node6&#45;&gt;Node4 -->
<g id="edge8" class="edge"><title>Node6&#45;&gt;Node4</title>
<path fill="none" stroke="midnightblue" d="M140.816,-180.933C118.243,-170.9 88.1357,-157.519 66.2421,-147.789"/>
<polygon fill="midnightblue" stroke="midnightblue" points="67.3771,-144.463 56.8175,-143.6 64.5341,-150.86 67.3771,-144.463"/>
</g>
<!-- Node6&#45;&gt;Node7 -->
<g id="edge9" class="edge"><title>Node6&#45;&gt;Node7</title>
<path fill="none" stroke="midnightblue" d="M241.359,-181.687C244.437,-181.113 247.484,-180.548 250.467,-180 317.712,-167.648 395.002,-154.218 447.116,-145.275"/>
<polygon fill="midnightblue" stroke="midnightblue" points="447.928,-148.687 457.193,-143.548 446.745,-141.788 447.928,-148.687"/>
</g>
<!-- Node6&#45;&gt;Node13 -->
<g id="edge16" class="edge"><title>Node6&#45;&gt;Node13</title>
<path fill="none" stroke="midnightblue" d="M220.062,-180.933C255.64,-170.417 303.665,-156.222 336.868,-146.409"/>
<polygon fill="midnightblue" stroke="midnightblue" points="338.068,-149.704 346.666,-143.513 336.084,-142.991 338.068,-149.704"/>
</g>
<!-- Node8 -->
<g id="node8" class="node"><title>Node8</title>
<polygon fill="white" stroke="#bfbfbf" points="667.467,-62.5 667.467,-81.5 729.467,-81.5 729.467,-62.5 667.467,-62.5"/>
<text text-anchor="middle" x="698.467" y="-69.5" font-family="Helvetica,sans-Serif" font-size="10.00">type_traits</text>
</g>
<!-- Node7&#45;&gt;Node8 -->
<g id="edge10" class="edge"><title>Node7&#45;&gt;Node8</title>
<path fill="none" stroke="midnightblue" d="M537.8,-124.472C568.217,-115.787 616.318,-101.686 657.467,-88 660.232,-87.0805 663.09,-86.099 665.953,-85.0948"/>
<polygon fill="midnightblue" stroke="midnightblue" points="667.332,-88.3184 675.566,-81.6504 664.971,-81.7286 667.332,-88.3184"/>
</g>
<!-- Node9 -->
<g id="node9" class="node"><title>Node9</title>
<polygon fill="white" stroke="#bfbfbf" points="452.467,-0.5 452.467,-19.5 556.467,-19.5 556.467,-0.5 452.467,-0.5"/>
<text text-anchor="middle" x="504.467" y="-7.5" font-family="Helvetica,sans-Serif" font-size="10.00">shad/config/config.h</text>
</g>
<!-- Node7&#45;&gt;Node9 -->
<g id="edge11" class="edge"><title>Node7&#45;&gt;Node9</title>
<path fill="none" stroke="midnightblue" d="M507.252,-124.226C506.767,-104.53 505.585,-56.4371 504.927,-29.7004"/>
<polygon fill="midnightblue" stroke="midnightblue" points="508.426,-29.6053 504.681,-19.6944 501.428,-29.7775 508.426,-29.6053"/>
</g>
<!-- Node7&#45;&gt;Node10 -->
<g id="edge12" class="edge"><title>Node7&#45;&gt;Node10</title>
<path fill="none" stroke="midnightblue" d="M519.646,-124.403C531.158,-116.277 548.863,-103.779 563.933,-93.1419"/>
<polygon fill="midnightblue" stroke="midnightblue" points="566.283,-95.7671 572.435,-87.1408 562.246,-90.0483 566.283,-95.7671"/>
</g>
<!-- Node12 -->
<g id="node12" class="node"><title>Node12</title>
<g id="a_node12"><a xlink:href="available__traits__mappings_8h.html" target="_top" xlink:title="shad/runtime/mappings\l/available_traits_mappings.h">
<polygon fill="white" stroke="black" points="339.467,-57 339.467,-87 479.467,-87 479.467,-57 339.467,-57"/>
<text text-anchor="start" x="347.467" y="-75" font-family="Helvetica,sans-Serif" font-size="10.00">shad/runtime/mappings</text>
<text text-anchor="middle" x="409.467" y="-64" font-family="Helvetica,sans-Serif" font-size="10.00">/available_traits_mappings.h</text>
</a>
</g>
</g>
<!-- Node7&#45;&gt;Node12 -->
<g id="edge15" class="edge"><title>Node7&#45;&gt;Node12</title>
<path fill="none" stroke="midnightblue" d="M493.426,-124.403C479.906,-116.125 458.975,-103.311 441.395,-92.5474"/>
<polygon fill="midnightblue" stroke="midnightblue" points="442.92,-89.3774 432.564,-87.1408 439.265,-95.3474 442.92,-89.3774"/>
</g>
<!-- Node10&#45;&gt;Node9 -->
<g id="edge14" class="edge"><title>Node10&#45;&gt;Node9</title>
<path fill="none" stroke="midnightblue" d="M571.613,-56.7808C557.687,-47.2862 539.438,-34.8434 525.48,-25.3267"/>
<polygon fill="midnightblue" stroke="midnightblue" points="527.25,-22.2973 517.016,-19.5557 523.306,-28.0809 527.25,-22.2973"/>
</g>
<!-- Node11 -->
<g id="node11" class="node"><title>Node11</title>
<polygon fill="white" stroke="#bfbfbf" points="574.967,-0.5 574.967,-19.5 615.967,-19.5 615.967,-0.5 574.967,-0.5"/>
<text text-anchor="middle" x="595.467" y="-7.5" font-family="Helvetica,sans-Serif" font-size="10.00">string</text>
</g>
<!-- Node10&#45;&gt;Node11 -->
<g id="edge13" class="edge"><title>Node10&#45;&gt;Node11</title>
<path fill="none" stroke="midnightblue" d="M593.178,-56.7808C593.583,-48.6913 594.094,-38.4617 594.531,-29.725"/>
<polygon fill="midnightblue" stroke="midnightblue" points="598.027,-29.8929 595.031,-19.7305 591.036,-29.5432 598.027,-29.8929"/>
</g>
<!-- Node13&#45;&gt;Node3 -->
<g id="edge17" class="edge"><title>Node13&#45;&gt;Node3</title>
<path fill="none" stroke="midnightblue" d="M341.905,-124.467C296.806,-113.001 217.15,-92.7499 172.384,-81.3686"/>
<polygon fill="midnightblue" stroke="midnightblue" points="173.145,-77.9508 162.591,-78.8788 171.42,-84.735 173.145,-77.9508"/>
</g>
<!-- Node13&#45;&gt;Node9 -->
<g id="edge19" class="edge"><title>Node13&#45;&gt;Node9</title>
<path fill="none" stroke="midnightblue" d="M363.857,-124.459C345.269,-109.754 312.646,-79.0163 330.467,-56 344.291,-38.147 398.096,-26.0977 442.258,-18.9959"/>
<polygon fill="midnightblue" stroke="midnightblue" points="443.034,-22.4175 452.38,-17.4259 441.961,-15.5002 443.034,-22.4175"/>
</g>
<!-- Node13&#45;&gt;Node10 -->
<g id="edge20" class="edge"><title>Node13&#45;&gt;Node10</title>
<path fill="none" stroke="midnightblue" d="M406.558,-124.403C439.146,-115.393 491.174,-101.007 531.913,-89.7432"/>
<polygon fill="midnightblue" stroke="midnightblue" points="533.037,-93.0638 541.743,-87.0253 531.171,-86.3169 533.037,-93.0638"/>
</g>
<!-- Node13&#45;&gt;Node12 -->
<g id="edge21" class="edge"><title>Node13&#45;&gt;Node12</title>
<path fill="none" stroke="midnightblue" d="M380.339,-124.403C384.556,-116.961 390.852,-105.851 396.512,-95.8619"/>
<polygon fill="midnightblue" stroke="midnightblue" points="399.569,-97.5666 401.454,-87.1408 393.479,-94.1155 399.569,-97.5666"/>
</g>
<!-- Node14 -->
<g id="node14" class="node"><title>Node14</title>
<polygon fill="white" stroke="#bfbfbf" points="229.467,-62.5 229.467,-81.5 283.467,-81.5 283.467,-62.5 229.467,-62.5"/>
<text text-anchor="middle" x="256.467" y="-69.5" font-family="Helvetica,sans-Serif" font-size="10.00">iostream</text>
</g>
<!-- Node13&#45;&gt;Node14 -->
<g id="edge18" class="edge"><title>Node13&#45;&gt;Node14</title>
<path fill="none" stroke="midnightblue" d="M358.418,-124.403C338.623,-114.423 305.751,-97.8487 282.698,-86.2253"/>
<polygon fill="midnightblue" stroke="midnightblue" points="283.991,-82.9575 273.486,-81.5806 280.839,-89.208 283.991,-82.9575"/>
</g>
<!-- Node15&#45;&gt;Node2 -->
<g id="edge26" class="edge"><title>Node15&#45;&gt;Node2</title>
<path fill="none" stroke="midnightblue" d="M277.672,-180.933C247.571,-170.553 207.075,-156.589 178.663,-146.792"/>
<polygon fill="midnightblue" stroke="midnightblue" points="179.749,-143.464 169.154,-143.513 177.467,-150.081 179.749,-143.464"/>
</g>
<!-- Node15&#45;&gt;Node3 -->
<g id="edge27" class="edge"><title>Node15&#45;&gt;Node3</title>
<path fill="none" stroke="midnightblue" d="M284.526,-180.936C264.02,-171.745 237.811,-158.736 216.467,-144 192.984,-127.787 169.355,-104.769 154.585,-89.3832"/>
<polygon fill="midnightblue" stroke="midnightblue" points="156.756,-86.5841 147.347,-81.7123 151.664,-91.3879 156.756,-86.5841"/>
</g>
<!-- Node15&#45;&gt;Node13 -->
<g id="edge30" class="edge"><title>Node15&#45;&gt;Node13</title>
<path fill="none" stroke="midnightblue" d="M331.976,-180.781C340.429,-171.882 351.343,-160.394 360.123,-151.152"/>
<polygon fill="midnightblue" stroke="midnightblue" points="362.823,-153.391 367.173,-143.731 357.748,-148.57 362.823,-153.391"/>
</g>
<!-- Node16 -->
<g id="node16" class="node"><title>Node16</title>
<polygon fill="white" stroke="#bfbfbf" points="582.467,-124.5 582.467,-143.5 634.467,-143.5 634.467,-124.5 582.467,-124.5"/>
<text text-anchor="middle" x="608.467" y="-131.5" font-family="Helvetica,sans-Serif" font-size="10.00">sstream</text>
</g>
<!-- Node15&#45;&gt;Node16 -->
<g id="edge28" class="edge"><title>Node15&#45;&gt;Node16</title>
<path fill="none" stroke="midnightblue" d="M377.656,-183.929C427.024,-174.51 499.443,-160.263 572.336,-143.94"/>
<polygon fill="midnightblue" stroke="midnightblue" points="573.168,-147.34 582.155,-141.729 571.631,-140.511 573.168,-147.34"/>
</g>
<!-- Node17 -->
<g id="node17" class="node"><title>Node17</title>
<polygon fill="white" stroke="#bfbfbf" points="225.467,-124.5 225.467,-143.5 299.467,-143.5 299.467,-124.5 225.467,-124.5"/>
<text text-anchor="middle" x="262.467" y="-131.5" font-family="Helvetica,sans-Serif" font-size="10.00">system_error</text>
</g>
<!-- Node15&#45;&gt;Node17 -->
<g id="edge29" class="edge"><title>Node15&#45;&gt;Node17</title>
<path fill="none" stroke="midnightblue" d="M305.196,-180.781C296.891,-171.882 286.169,-160.394 277.543,-151.152"/>
<polygon fill="midnightblue" stroke="midnightblue" points="279.998,-148.653 270.616,-143.731 274.88,-153.429 279.998,-148.653"/>
</g>
</g>
</svg>
