<?xml version="1.0" encoding="UTF-8" standalone="no"?>
<!DOCTYPE svg PUBLIC "-//W3C//DTD SVG 1.1//EN"
 "http://www.w3.org/Graphics/SVG/1.1/DTD/svg11.dtd">
<!-- Generated by graphviz version 2.36.0 (20140111.2315)
 -->
<!-- Title: include/shad/core/type_traits.h Pages: 1 -->
<svg width="147pt" height="96pt"
 viewBox="0.00 0.00 147.00 96.00" xmlns="http://www.w3.org/2000/svg" xmlns:xlink="http://www.w3.org/1999/xlink">
<g id="graph0" class="graph" transform="scale(1 1) rotate(0) translate(4 92)">
<title>include/shad/core/type_traits.h</title>
<polygon fill="white" stroke="none" points="-4,4 -4,-92 143,-92 143,4 -4,4"/>
<!-- Node1 -->
<g id="node1" class="node"><title>Node1</title>
<polygon fill="#bfbfbf" stroke="black" points="10.5,-57 10.5,-87 125.5,-87 125.5,-57 10.5,-57"/>
<text text-anchor="start" x="18.5" y="-75" font-family="Helvetica,sans-Serif" font-size="10.00">include/shad/core/type</text>
<text text-anchor="middle" x="68" y="-64" font-family="Helvetica,sans-Serif" font-size="10.00">_traits.h</text>
</g>
<!-- Node2 -->
<g id="node2" class="node"><title>Node2</title>
<polygon fill="white" stroke="#bfbfbf" points="-0.5,-0.5 -0.5,-19.5 58.5,-19.5 58.5,-0.5 -0.5,-0.5"/>
<text text-anchor="middle" x="29" y="-7.5" font-family="Helvetica,sans-Serif" font-size="10.00">functional</text>
</g>
<!-- Node1&#45;&gt;Node2 -->
<g id="edge1" class="edge"><title>Node1&#45;&gt;Node2</title>
<path fill="none" stroke="midnightblue" d="M58.7575,-56.7808C53.2072,-48.2419 46.107,-37.3184 40.2342,-28.2834"/>
<polygon fill="midnightblue" stroke="midnightblue" points="43.0593,-26.2075 34.6748,-19.7305 37.1902,-30.0225 43.0593,-26.2075"/>
</g>
<!-- Node3 -->
<g id="node3" class="node"><title>Node3</title>
<polygon fill="white" stroke="#bfbfbf" points="77,-0.5 77,-19.5 139,-19.5 139,-0.5 77,-0.5"/>
<text text-anchor="middle" x="108" y="-7.5" font-family="Helvetica,sans-Serif" font-size="10.00">type_traits</text>
</g>
<!-- Node1&#45;&gt;Node3 -->
<g id="edge2" class="edge"><title>Node1&#45;&gt;Node3</title>
<path fill="none" stroke="midnightblue" d="M77.4794,-56.7808C83.1721,-48.2419 90.4544,-37.3184 96.4778,-28.2834"/>
<polygon fill="midnightblue" stroke="midnightblue" points="99.5448,-29.9925 102.18,-19.7305 93.7204,-26.1096 99.5448,-29.9925"/>
</g>
</g>
</svg>
