<?xml version="1.0" encoding="UTF-8" standalone="no"?>
<!DOCTYPE svg PUBLIC "-//W3C//DTD SVG 1.1//EN"
 "http://www.w3.org/Graphics/SVG/1.1/DTD/svg11.dtd">
<!-- Generated by graphviz version 2.36.0 (20140111.2315)
 -->
<!-- Title: include/shad/core/type_traits.h Pages: 1 -->
<svg width="787pt" height="400pt"
 viewBox="0.00 0.00 787.00 400.00" xmlns="http://www.w3.org/2000/svg" xmlns:xlink="http://www.w3.org/1999/xlink">
<g id="graph0" class="graph" transform="scale(1 1) rotate(0) translate(4 396)">
<title>include/shad/core/type_traits.h</title>
<polygon fill="white" stroke="none" points="-4,4 -4,-396 783,-396 783,4 -4,4"/>
<!-- Node1 -->
<g id="node1" class="node"><title>Node1</title>
<polygon fill="#bfbfbf" stroke="black" points="257.5,-361 257.5,-391 372.5,-391 372.5,-361 257.5,-361"/>
<text text-anchor="start" x="265.5" y="-379" font-family="Helvetica,sans-Serif" font-size="10.00">include/shad/core/type</text>
<text text-anchor="middle" x="315" y="-368" font-family="Helvetica,sans-Serif" font-size="10.00">_traits.h</text>
</g>
<!-- Node2 -->
<g id="node2" class="node"><title>Node2</title>
<g id="a_node2"><a xlink:href="compare__and__hash__utils_8h.html" target="_top" xlink:title="include/shad/data_structures\l/compare_and_hash_utils.h">
<polygon fill="white" stroke="black" points="244,-293 244,-323 386,-323 386,-293 244,-293"/>
<text text-anchor="start" x="252" y="-311" font-family="Helvetica,sans-Serif" font-size="10.00">include/shad/data_structures</text>
<text text-anchor="middle" x="315" y="-300" font-family="Helvetica,sans-Serif" font-size="10.00">/compare_and_hash_utils.h</text>
</a>
</g>
</g>
<!-- Node1&#45;&gt;Node2 -->
<g id="edge1" class="edge"><title>Node1&#45;&gt;Node2</title>
<path fill="none" stroke="midnightblue" d="M315,-350.532C315,-341.361 315,-331.245 315,-323.293"/>
<polygon fill="midnightblue" stroke="midnightblue" points="311.5,-350.679 315,-360.679 318.5,-350.679 311.5,-350.679"/>
</g>
<!-- Node3 -->
<g id="node3" class="node"><title>Node3</title>
<g id="a_node3"><a xlink:href="unordered__map_8h.html" target="_top" xlink:title="include/shad/core/unordered\l_map.h">
<polygon fill="white" stroke="black" points="-0.5,-79 -0.5,-109 138.5,-109 138.5,-79 -0.5,-79"/>
<text text-anchor="start" x="7.5" y="-97" font-family="Helvetica,sans-Serif" font-size="10.00">include/shad/core/unordered</text>
<text text-anchor="middle" x="69" y="-86" font-family="Helvetica,sans-Serif" font-size="10.00">_map.h</text>
</a>
</g>
</g>
<!-- Node2&#45;&gt;Node3 -->
<g id="edge2" class="edge"><title>Node2&#45;&gt;Node3</title>
<path fill="none" stroke="midnightblue" d="M233.863,-302.988C187.633,-297.409 130.449,-284.667 87,-256 55.9067,-235.485 49.442,-223.45 38,-188 32.2664,-170.236 32.9656,-163.975 38,-146 41.8006,-132.43 50.312,-118.885 57.4565,-109.168"/>
<polygon fill="midnightblue" stroke="midnightblue" points="233.526,-306.472 243.852,-304.104 234.303,-299.515 233.526,-306.472"/>
</g>
<!-- Node4 -->
<g id="node4" class="node"><title>Node4</title>
<g id="a_node4"><a xlink:href="unordered__set_8h.html" target="_top" xlink:title="include/shad/core/unordered\l_set.h">
<polygon fill="white" stroke="black" points="640.5,-79 640.5,-109 779.5,-109 779.5,-79 640.5,-79"/>
<text text-anchor="start" x="648.5" y="-97" font-family="Helvetica,sans-Serif" font-size="10.00">include/shad/core/unordered</text>
<text text-anchor="middle" x="710" y="-86" font-family="Helvetica,sans-Serif" font-size="10.00">_set.h</text>
</a>
</g>
</g>
<!-- Node2&#45;&gt;Node4 -->
<g id="edge3" class="edge"><title>Node2&#45;&gt;Node4</title>
<path fill="none" stroke="midnightblue" d="M396.288,-295.903C444.97,-287.851 507.574,-274.996 561,-256 622.808,-234.024 652.741,-240.554 692,-188 709.519,-164.548 711.378,-128.747 710.884,-109.108"/>
<polygon fill="midnightblue" stroke="midnightblue" points="395.431,-292.496 386.119,-297.549 396.55,-299.406 395.431,-292.496"/>
</g>
<!-- Node5 -->
<g id="node5" class="node"><title>Node5</title>
<g id="a_node5"><a xlink:href="hashmap_8h.html" target="_top" xlink:title="include/shad/data_structures\l/hashmap.h">
<polygon fill="white" stroke="black" points="47,-152 47,-182 189,-182 189,-152 47,-152"/>
<text text-anchor="start" x="55" y="-170" font-family="Helvetica,sans-Serif" font-size="10.00">include/shad/data_structures</text>
<text text-anchor="middle" x="118" y="-159" font-family="Helvetica,sans-Serif" font-size="10.00">/hashmap.h</text>
</a>
</g>
</g>
<!-- Node2&#45;&gt;Node5 -->
<g id="edge4" class="edge"><title>Node2&#45;&gt;Node5</title>
<path fill="none" stroke="midnightblue" d="M233.743,-298.391C179.457,-290.769 114.996,-277.453 98,-256 80.877,-234.386 96.7512,-200.898 108.345,-182.078"/>
<polygon fill="midnightblue" stroke="midnightblue" points="233.368,-301.872 243.748,-299.748 234.309,-294.935 233.368,-301.872"/>
</g>
<!-- Node6 -->
<g id="node6" class="node"><title>Node6</title>
<g id="a_node6"><a xlink:href="local__hashmap_8h.html" target="_top" xlink:title="include/shad/data_structures\l/local_hashmap.h">
<polygon fill="white" stroke="black" points="107,-225 107,-255 249,-255 249,-225 107,-225"/>
<text text-anchor="start" x="115" y="-243" font-family="Helvetica,sans-Serif" font-size="10.00">include/shad/data_structures</text>
<text text-anchor="middle" x="178" y="-232" font-family="Helvetica,sans-Serif" font-size="10.00">/local_hashmap.h</text>
</a>
</g>
</g>
<!-- Node2&#45;&gt;Node6 -->
<g id="edge6" class="edge"><title>Node2&#45;&gt;Node6</title>
<path fill="none" stroke="midnightblue" d="M276.558,-288.48C254.622,-277.913 227.556,-264.874 207.341,-255.135"/>
<polygon fill="midnightblue" stroke="midnightblue" points="275.082,-291.654 285.61,-292.841 278.12,-285.348 275.082,-291.654"/>
</g>
<!-- Node7 -->
<g id="node7" class="node"><title>Node7</title>
<g id="a_node7"><a xlink:href="attributed__edge__index_8h.html" target="_top" xlink:title="include/shad/extensions\l/graph_library/attributed\l_edge_index.h">
<polygon fill="white" stroke="black" points="285,-0.5 285,-41.5 407,-41.5 407,-0.5 285,-0.5"/>
<text text-anchor="start" x="293" y="-29.5" font-family="Helvetica,sans-Serif" font-size="10.00">include/shad/extensions</text>
<text text-anchor="start" x="293" y="-18.5" font-family="Helvetica,sans-Serif" font-size="10.00">/graph_library/attributed</text>
<text text-anchor="middle" x="346" y="-7.5" font-family="Helvetica,sans-Serif" font-size="10.00">_edge_index.h</text>
</a>
</g>
</g>
<!-- Node2&#45;&gt;Node7 -->
<g id="edge22" class="edge"><title>Node2&#45;&gt;Node7</title>
<path fill="none" stroke="midnightblue" d="M301.571,-283.92C285.078,-252.611 260.815,-194.966 274,-146 284.874,-105.617 312.484,-64.8344 330.18,-41.5681"/>
<polygon fill="midnightblue" stroke="midnightblue" points="298.528,-285.65 306.39,-292.752 304.673,-282.297 298.528,-285.65"/>
</g>
<!-- Node8 -->
<g id="node8" class="node"><title>Node8</title>
<g id="a_node8"><a xlink:href="local__edge__index_8h.html" target="_top" xlink:title="include/shad/extensions\l/graph_library/local_edge\l_index.h">
<polygon fill="white" stroke="black" points="283.5,-146.5 283.5,-187.5 408.5,-187.5 408.5,-146.5 283.5,-146.5"/>
<text text-anchor="start" x="291.5" y="-175.5" font-family="Helvetica,sans-Serif" font-size="10.00">include/shad/extensions</text>
<text text-anchor="start" x="291.5" y="-164.5" font-family="Helvetica,sans-Serif" font-size="10.00">/graph_library/local_edge</text>
<text text-anchor="middle" x="346" y="-153.5" font-family="Helvetica,sans-Serif" font-size="10.00">_index.h</text>
</a>
</g>
</g>
<!-- Node2&#45;&gt;Node8 -->
<g id="edge24" class="edge"><title>Node2&#45;&gt;Node8</title>
<path fill="none" stroke="midnightblue" d="M320.399,-282.79C326.399,-255.889 335.975,-212.953 341.557,-187.92"/>
<polygon fill="midnightblue" stroke="midnightblue" points="316.904,-282.385 318.143,-292.907 323.736,-283.909 316.904,-282.385"/>
</g>
<!-- Node9 -->
<g id="node9" class="node"><title>Node9</title>
<g id="a_node9"><a xlink:href="edge__index_8h.html" target="_top" xlink:title="include/shad/extensions\l/graph_library/edge_index.h">
<polygon fill="white" stroke="black" points="446,-79 446,-109 582,-109 582,-79 446,-79"/>
<text text-anchor="start" x="454" y="-97" font-family="Helvetica,sans-Serif" font-size="10.00">include/shad/extensions</text>
<text text-anchor="middle" x="514" y="-86" font-family="Helvetica,sans-Serif" font-size="10.00">/graph_library/edge_index.h</text>
</a>
</g>
</g>
<!-- Node2&#45;&gt;Node9 -->
<g id="edge23" class="edge"><title>Node2&#45;&gt;Node9</title>
<path fill="none" stroke="midnightblue" d="M396.378,-303.261C431.46,-297.303 469.89,-284.141 494,-256 530.468,-213.435 522.325,-139.759 516.891,-109.06"/>
<polygon fill="midnightblue" stroke="midnightblue" points="395.465,-299.859 386.104,-304.822 396.517,-306.78 395.465,-299.859"/>
</g>
<!-- Node11 -->
<g id="node11" class="node"><title>Node11</title>
<g id="a_node11"><a xlink:href="local__set_8h.html" target="_top" xlink:title="include/shad/data_structures\l/local_set.h">
<polygon fill="white" stroke="black" points="343,-225 343,-255 485,-255 485,-225 343,-225"/>
<text text-anchor="start" x="351" y="-243" font-family="Helvetica,sans-Serif" font-size="10.00">include/shad/data_structures</text>
<text text-anchor="middle" x="414" y="-232" font-family="Helvetica,sans-Serif" font-size="10.00">/local_set.h</text>
</a>
</g>
</g>
<!-- Node2&#45;&gt;Node11 -->
<g id="edge14" class="edge"><title>Node2&#45;&gt;Node11</title>
<path fill="none" stroke="midnightblue" d="M345.167,-286.888C360.6,-276.6 379.006,-264.329 392.901,-255.066"/>
<polygon fill="midnightblue" stroke="midnightblue" points="342.861,-284.22 336.482,-292.679 346.744,-290.044 342.861,-284.22"/>
</g>
<!-- Node12 -->
<g id="node12" class="node"><title>Node12</title>
<g id="a_node12"><a xlink:href="set_8h.html" target="_top" xlink:title="include/shad/data_structures\l/set.h">
<polygon fill="white" stroke="black" points="541,-152 541,-182 683,-182 683,-152 541,-152"/>
<text text-anchor="start" x="549" y="-170" font-family="Helvetica,sans-Serif" font-size="10.00">include/shad/data_structures</text>
<text text-anchor="middle" x="612" y="-159" font-family="Helvetica,sans-Serif" font-size="10.00">/set.h</text>
</a>
</g>
</g>
<!-- Node2&#45;&gt;Node12 -->
<g id="edge21" class="edge"><title>Node2&#45;&gt;Node12</title>
<path fill="none" stroke="midnightblue" d="M396.491,-298.382C437.682,-291.378 487.229,-278.74 527,-256 559.822,-237.233 588.095,-202.019 602.277,-182.303"/>
<polygon fill="midnightblue" stroke="midnightblue" points="395.794,-294.949 386.482,-300.003 396.913,-301.859 395.794,-294.949"/>
</g>
<!-- Node5&#45;&gt;Node3 -->
<g id="edge5" class="edge"><title>Node5&#45;&gt;Node3</title>
<path fill="none" stroke="midnightblue" d="M102.518,-143.566C94.8279,-132.424 85.7606,-119.286 78.9971,-109.486"/>
<polygon fill="midnightblue" stroke="midnightblue" points="99.7585,-145.73 108.319,-151.973 105.52,-141.754 99.7585,-145.73"/>
</g>
<!-- Node6&#45;&gt;Node5 -->
<g id="edge7" class="edge"><title>Node6&#45;&gt;Node5</title>
<path fill="none" stroke="midnightblue" d="M159.599,-217.226C150.067,-205.946 138.687,-192.48 130.241,-182.486"/>
<polygon fill="midnightblue" stroke="midnightblue" points="157.018,-219.594 166.146,-224.973 162.365,-215.076 157.018,-219.594"/>
</g>
<!-- Node6&#45;&gt;Node7 -->
<g id="edge8" class="edge"><title>Node6&#45;&gt;Node7</title>
<path fill="none" stroke="midnightblue" d="M187.303,-215.292C190.675,-206.697 194.511,-196.911 198,-188 217.138,-139.121 206.123,-117.229 241,-78 254.864,-62.4057 274.133,-50.3996 292.383,-41.5777"/>
<polygon fill="midnightblue" stroke="midnightblue" points="184.002,-214.125 183.608,-224.712 190.518,-216.681 184.002,-214.125"/>
</g>
<!-- Node6&#45;&gt;Node8 -->
<g id="edge9" class="edge"><title>Node6&#45;&gt;Node8</title>
<path fill="none" stroke="midnightblue" d="M220.48,-221.047C244.689,-210.816 275.046,-197.986 299.842,-187.507"/>
<polygon fill="midnightblue" stroke="midnightblue" points="219.04,-217.856 211.191,-224.973 221.765,-224.304 219.04,-217.856"/>
</g>
<!-- Node8&#45;&gt;Node7 -->
<g id="edge10" class="edge"><title>Node8&#45;&gt;Node7</title>
<path fill="none" stroke="midnightblue" d="M346,-136.179C346,-107.952 346,-66.3654 346,-41.9446"/>
<polygon fill="midnightblue" stroke="midnightblue" points="342.5,-136.279 346,-146.279 349.5,-136.279 342.5,-136.279"/>
</g>
<!-- Node8&#45;&gt;Node9 -->
<g id="edge11" class="edge"><title>Node8&#45;&gt;Node9</title>
<path fill="none" stroke="midnightblue" d="M401.793,-142.421C427.989,-131.35 458.326,-118.529 480.845,-109.012"/>
<polygon fill="midnightblue" stroke="midnightblue" points="400.2,-139.294 392.351,-146.411 402.925,-145.742 400.2,-139.294"/>
</g>
<!-- Node9&#45;&gt;Node7 -->
<g id="edge13" class="edge"><title>Node9&#45;&gt;Node7</title>
<path fill="none" stroke="midnightblue" d="M471.52,-75.0471C447.311,-64.8157 416.954,-51.9864 392.158,-41.5075"/>
<polygon fill="midnightblue" stroke="midnightblue" points="470.235,-78.3037 480.809,-78.9727 472.96,-71.8559 470.235,-78.3037"/>
</g>
<!-- Node10 -->
<g id="node10" class="node"><title>Node10</title>
<g id="a_node10"><a xlink:href="sssp_8h.html" target="_top" xlink:title="include/shad/extensions\l/graph_library/algorithms\l/sssp.h">
<polygon fill="white" stroke="black" points="500.5,-0.5 500.5,-41.5 623.5,-41.5 623.5,-0.5 500.5,-0.5"/>
<text text-anchor="start" x="508.5" y="-29.5" font-family="Helvetica,sans-Serif" font-size="10.00">include/shad/extensions</text>
<text text-anchor="start" x="508.5" y="-18.5" font-family="Helvetica,sans-Serif" font-size="10.00">/graph_library/algorithms</text>
<text text-anchor="middle" x="562" y="-7.5" font-family="Helvetica,sans-Serif" font-size="10.00">/sssp.h</text>
</a>
</g>
</g>
<!-- Node9&#45;&gt;Node10 -->
<g id="edge12" class="edge"><title>Node9&#45;&gt;Node10</title>
<path fill="none" stroke="midnightblue" d="M529.149,-70.5926C535.43,-61.3021 542.651,-50.6203 548.721,-41.642"/>
<polygon fill="midnightblue" stroke="midnightblue" points="526.184,-68.728 523.483,-78.9727 531.984,-72.6485 526.184,-68.728"/>
</g>
<!-- Node11&#45;&gt;Node7 -->
<g id="edge18" class="edge"><title>Node11&#45;&gt;Node7</title>
<path fill="none" stroke="midnightblue" d="M418.537,-214.92C421.232,-195.885 423.069,-168.813 417,-146 406.286,-105.725 379.057,-64.9087 361.603,-41.6064"/>
<polygon fill="midnightblue" stroke="midnightblue" points="415.072,-214.421 416.95,-224.848 421.985,-215.526 415.072,-214.421"/>
</g>
<!-- Node11&#45;&gt;Node8 -->
<g id="edge20" class="edge"><title>Node11&#45;&gt;Node8</title>
<path fill="none" stroke="midnightblue" d="M393.633,-217.735C384.488,-208.186 373.766,-196.991 364.812,-187.642"/>
<polygon fill="midnightblue" stroke="midnightblue" points="391.121,-220.172 400.565,-224.973 396.176,-215.33 391.121,-220.172"/>
</g>
<!-- Node11&#45;&gt;Node9 -->
<g id="edge19" class="edge"><title>Node11&#45;&gt;Node9</title>
<path fill="none" stroke="midnightblue" d="M430.55,-216.517C436.997,-207.674 444.406,-197.404 451,-188 470.369,-160.376 492.331,-127.616 504.535,-109.277"/>
<polygon fill="midnightblue" stroke="midnightblue" points="427.57,-214.662 424.49,-224.799 433.22,-218.795 427.57,-214.662"/>
</g>
<!-- Node11&#45;&gt;Node12 -->
<g id="edge15" class="edge"><title>Node11&#45;&gt;Node12</title>
<path fill="none" stroke="midnightblue" d="M462.8,-221.501C496.618,-209.374 541.063,-193.437 572.624,-182.12"/>
<polygon fill="midnightblue" stroke="midnightblue" points="461.35,-218.303 453.118,-224.973 463.713,-224.892 461.35,-218.303"/>
</g>
<!-- Node12&#45;&gt;Node4 -->
<g id="edge16" class="edge"><title>Node12&#45;&gt;Node4</title>
<path fill="none" stroke="midnightblue" d="M639.867,-145.81C655.981,-134.136 675.867,-119.729 690.343,-109.241"/>
<polygon fill="midnightblue" stroke="midnightblue" points="637.406,-143.271 631.362,-151.973 641.513,-148.94 637.406,-143.271"/>
</g>
<!-- Node12&#45;&gt;Node10 -->
<g id="edge17" class="edge"><title>Node12&#45;&gt;Node10</title>
<path fill="none" stroke="midnightblue" d="M607.921,-142.045C604.473,-124.082 598.835,-99.0681 591,-78 586.344,-65.4805 579.54,-52.1754 573.692,-41.6768"/>
<polygon fill="midnightblue" stroke="midnightblue" points="604.496,-142.768 609.742,-151.973 611.381,-141.505 604.496,-142.768"/>
</g>
</g>
</svg>
