<?xml version="1.0" encoding="UTF-8" standalone="no"?>
<!DOCTYPE svg PUBLIC "-//W3C//DTD SVG 1.1//EN"
 "http://www.w3.org/Graphics/SVG/1.1/DTD/svg11.dtd">
<!-- Generated by graphviz version 2.36.0 (20140111.2315)
 -->
<!-- Title: include/shad/core/unordered_map.h Pages: 1 -->
<svg width="1860pt" height="572pt"
 viewBox="0.00 0.00 1860.25 572.00" xmlns="http://www.w3.org/2000/svg" xmlns:xlink="http://www.w3.org/1999/xlink">
<g id="graph0" class="graph" transform="scale(1 1) rotate(0) translate(4 568)">
<title>include/shad/core/unordered_map.h</title>
<polygon fill="white" stroke="none" points="-4,4 -4,-568 1856.25,-568 1856.25,4 -4,4"/>
<!-- Node1 -->
<g id="node1" class="node"><title>Node1</title>
<polygon fill="#bfbfbf" stroke="black" points="605.746,-533 605.746,-563 744.746,-563 744.746,-533 605.746,-533"/>
<text text-anchor="start" x="613.746" y="-551" font-family="Helvetica,sans-Serif" font-size="10.00">include/shad/core/unordered</text>
<text text-anchor="middle" x="675.246" y="-540" font-family="Helvetica,sans-Serif" font-size="10.00">_map.h</text>
</g>
<!-- Node2 -->
<g id="node2" class="node"><title>Node2</title>
<g id="a_node2"><a xlink:href="iterator_8h.html" target="_top" xlink:title="shad/core/iterator.h">
<polygon fill="white" stroke="black" points="1421.75,-334.5 1421.75,-353.5 1522.75,-353.5 1522.75,-334.5 1421.75,-334.5"/>
<text text-anchor="middle" x="1472.25" y="-341.5" font-family="Helvetica,sans-Serif" font-size="10.00">shad/core/iterator.h</text>
</a>
</g>
</g>
<!-- Node1&#45;&gt;Node2 -->
<g id="edge1" class="edge"><title>Node1&#45;&gt;Node2</title>
<path fill="none" stroke="midnightblue" d="M745.19,-541.942C866.639,-531.481 1122.99,-501.934 1326.25,-428 1374.25,-410.539 1424.93,-378.104 1452.14,-359.369"/>
<polygon fill="midnightblue" stroke="midnightblue" points="1454.23,-362.175 1460.43,-353.581 1450.23,-356.436 1454.23,-362.175"/>
</g>
<!-- Node24 -->
<g id="node24" class="node"><title>Node24</title>
<g id="a_node24"><a xlink:href="compare__and__hash__utils_8h.html" target="_top" xlink:title="shad/data_structures\l/compare_and_hash_utils.h">
<polygon fill="white" stroke="black" points="207.246,-329 207.246,-359 343.246,-359 343.246,-329 207.246,-329"/>
<text text-anchor="start" x="215.246" y="-347" font-family="Helvetica,sans-Serif" font-size="10.00">shad/data_structures</text>
<text text-anchor="middle" x="275.246" y="-336" font-family="Helvetica,sans-Serif" font-size="10.00">/compare_and_hash_utils.h</text>
</a>
</g>
</g>
<!-- Node1&#45;&gt;Node24 -->
<g id="edge37" class="edge"><title>Node1&#45;&gt;Node24</title>
<path fill="none" stroke="midnightblue" d="M605.699,-540.743C526.109,-530.177 396.101,-502.078 313.246,-428 295.882,-412.475 285.93,-387.419 280.604,-368.893"/>
<polygon fill="midnightblue" stroke="midnightblue" points="283.963,-367.904 278.042,-359.118 277.192,-369.679 283.963,-367.904"/>
</g>
<!-- Node28 -->
<g id="node28" class="node"><title>Node28</title>
<g id="a_node28"><a xlink:href="hashmap_8h.html" target="_top" xlink:title="shad/data_structures\l/hashmap.h">
<polygon fill="white" stroke="black" points="621.246,-465 621.246,-495 729.246,-495 729.246,-465 621.246,-465"/>
<text text-anchor="start" x="629.246" y="-483" font-family="Helvetica,sans-Serif" font-size="10.00">shad/data_structures</text>
<text text-anchor="middle" x="675.246" y="-472" font-family="Helvetica,sans-Serif" font-size="10.00">/hashmap.h</text>
</a>
</g>
</g>
<!-- Node1&#45;&gt;Node28 -->
<g id="edge47" class="edge"><title>Node1&#45;&gt;Node28</title>
<path fill="none" stroke="midnightblue" d="M675.246,-532.679C675.246,-524.722 675.246,-514.605 675.246,-505.436"/>
<polygon fill="midnightblue" stroke="midnightblue" points="678.746,-505.293 675.246,-495.293 671.746,-505.293 678.746,-505.293"/>
</g>
<!-- Node3 -->
<g id="node3" class="node"><title>Node3</title>
<polygon fill="white" stroke="#bfbfbf" points="1767.75,-198.5 1767.75,-217.5 1814.75,-217.5 1814.75,-198.5 1767.75,-198.5"/>
<text text-anchor="middle" x="1791.25" y="-205.5" font-family="Helvetica,sans-Serif" font-size="10.00">iterator</text>
</g>
<!-- Node2&#45;&gt;Node3 -->
<g id="edge2" class="edge"><title>Node2&#45;&gt;Node3</title>
<path fill="none" stroke="midnightblue" d="M1492.69,-334.414C1547.38,-311.44 1697.26,-248.481 1761.44,-221.521"/>
<polygon fill="midnightblue" stroke="midnightblue" points="1763.11,-224.614 1770.98,-217.515 1760.4,-218.161 1763.11,-224.614"/>
</g>
<!-- Node4 -->
<g id="node4" class="node"><title>Node4</title>
<polygon fill="white" stroke="#bfbfbf" points="865.246,-130.5 865.246,-149.5 917.246,-149.5 917.246,-130.5 865.246,-130.5"/>
<text text-anchor="middle" x="891.246" y="-137.5" font-family="Helvetica,sans-Serif" font-size="10.00">memory</text>
</g>
<!-- Node2&#45;&gt;Node4 -->
<g id="edge3" class="edge"><title>Node2&#45;&gt;Node4</title>
<path fill="none" stroke="midnightblue" d="M1463.08,-334.306C1444.82,-317.444 1401.94,-280.189 1359.25,-260 1300.78,-232.349 1275.76,-253.576 1218.25,-224 1198.61,-213.903 1200.25,-201.35 1180.25,-192 1095.69,-152.475 984.16,-143.402 927.559,-141.438"/>
<polygon fill="midnightblue" stroke="midnightblue" points="927.42,-137.933 917.322,-141.141 927.216,-144.93 927.42,-137.933"/>
</g>
<!-- Node5 -->
<g id="node5" class="node"><title>Node5</title>
<g id="a_node5"><a xlink:href="runtime_8h.html" target="_top" xlink:title="shad/runtime/runtime.h">
<polygon fill="white" stroke="black" points="1235.25,-266.5 1235.25,-285.5 1351.25,-285.5 1351.25,-266.5 1235.25,-266.5"/>
<text text-anchor="middle" x="1293.25" y="-273.5" font-family="Helvetica,sans-Serif" font-size="10.00">shad/runtime/runtime.h</text>
</a>
</g>
</g>
<!-- Node2&#45;&gt;Node5 -->
<g id="edge4" class="edge"><title>Node2&#45;&gt;Node5</title>
<path fill="none" stroke="midnightblue" d="M1448.84,-334.372C1417.4,-322.778 1361.36,-302.116 1325.81,-289.009"/>
<polygon fill="midnightblue" stroke="midnightblue" points="1326.96,-285.702 1316.37,-285.526 1324.54,-292.269 1326.96,-285.702"/>
</g>
<!-- Node5&#45;&gt;Node3 -->
<g id="edge9" class="edge"><title>Node5&#45;&gt;Node3</title>
<path fill="none" stroke="midnightblue" d="M1351.48,-273.479C1439.64,-270.075 1611.7,-259.117 1753.25,-224 1756.31,-223.239 1759.46,-222.288 1762.58,-221.237"/>
<polygon fill="midnightblue" stroke="midnightblue" points="1764.08,-224.411 1772.24,-217.646 1761.65,-217.849 1764.08,-224.411"/>
</g>
<!-- Node5&#45;&gt;Node4 -->
<g id="edge11" class="edge"><title>Node5&#45;&gt;Node4</title>
<path fill="none" stroke="midnightblue" d="M1255.62,-266.494C1244.58,-264.18 1232.46,-261.814 1221.25,-260 1152.57,-248.894 962.066,-270.422 910.246,-224 892.382,-207.997 889.529,-178.94 889.836,-159.803"/>
<polygon fill="midnightblue" stroke="midnightblue" points="893.342,-159.768 890.311,-149.616 886.349,-159.442 893.342,-159.768"/>
</g>
<!-- Node6 -->
<g id="node6" class="node"><title>Node6</title>
<polygon fill="white" stroke="#bfbfbf" points="1201.75,-130.5 1201.75,-149.5 1250.75,-149.5 1250.75,-130.5 1201.75,-130.5"/>
<text text-anchor="middle" x="1226.25" y="-137.5" font-family="Helvetica,sans-Serif" font-size="10.00">cstddef</text>
</g>
<!-- Node5&#45;&gt;Node6 -->
<g id="edge5" class="edge"><title>Node5&#45;&gt;Node6</title>
<path fill="none" stroke="midnightblue" d="M1315.91,-266.343C1333.45,-258.295 1356.51,-244.443 1367.25,-224 1373.86,-211.409 1375.46,-203.61 1367.25,-192 1339.48,-152.755 1310.35,-172.63 1265.25,-156 1262.72,-155.068 1260.1,-154.09 1257.48,-153.1"/>
<polygon fill="midnightblue" stroke="midnightblue" points="1258.66,-149.806 1248.07,-149.517 1256.17,-156.347 1258.66,-149.806"/>
</g>
<!-- Node7 -->
<g id="node7" class="node"><title>Node7</title>
<polygon fill="white" stroke="#bfbfbf" points="1203.25,-62.5 1203.25,-81.5 1249.25,-81.5 1249.25,-62.5 1203.25,-62.5"/>
<text text-anchor="middle" x="1226.25" y="-69.5" font-family="Helvetica,sans-Serif" font-size="10.00">cstdint</text>
</g>
<!-- Node5&#45;&gt;Node7 -->
<g id="edge6" class="edge"><title>Node5&#45;&gt;Node7</title>
<path fill="none" stroke="midnightblue" d="M1324.92,-266.39C1345.79,-258.889 1371.52,-245.72 1384.25,-224 1391.44,-211.729 1392.13,-203.84 1384.25,-192 1361.29,-157.504 1331.82,-180.289 1298.25,-156 1272.73,-137.538 1250.18,-108.366 1237.38,-89.9777"/>
<polygon fill="midnightblue" stroke="midnightblue" points="1240.27,-88.0007 1231.76,-81.6849 1234.47,-91.9269 1240.27,-88.0007"/>
</g>
<!-- Node8 -->
<g id="node8" class="node"><title>Node8</title>
<polygon fill="white" stroke="#bfbfbf" points="265.746,-198.5 265.746,-217.5 324.746,-217.5 324.746,-198.5 265.746,-198.5"/>
<text text-anchor="middle" x="295.246" y="-205.5" font-family="Helvetica,sans-Serif" font-size="10.00">functional</text>
</g>
<!-- Node5&#45;&gt;Node8 -->
<g id="edge7" class="edge"><title>Node5&#45;&gt;Node8</title>
<path fill="none" stroke="midnightblue" d="M1235.13,-269.006C1205.29,-266.05 1168.35,-262.575 1135.25,-260 976.621,-247.659 479.892,-219.402 335.18,-211.243"/>
<polygon fill="midnightblue" stroke="midnightblue" points="335.169,-207.737 324.988,-210.669 334.775,-214.726 335.169,-207.737"/>
</g>
<!-- Node9 -->
<g id="node9" class="node"><title>Node9</title>
<polygon fill="white" stroke="#bfbfbf" points="919.246,-198.5 919.246,-217.5 973.246,-217.5 973.246,-198.5 919.246,-198.5"/>
<text text-anchor="middle" x="946.246" y="-205.5" font-family="Helvetica,sans-Serif" font-size="10.00">iostream</text>
</g>
<!-- Node5&#45;&gt;Node9 -->
<g id="edge8" class="edge"><title>Node5&#45;&gt;Node9</title>
<path fill="none" stroke="midnightblue" d="M1254.09,-266.427C1243.45,-264.213 1231.93,-261.916 1221.25,-260 1115.51,-241.038 1085.71,-252.875 982.246,-224 979.433,-223.215 976.547,-222.269 973.691,-221.238"/>
<polygon fill="midnightblue" stroke="midnightblue" points="974.839,-217.929 964.252,-217.519 972.273,-224.441 974.839,-217.929"/>
</g>
<!-- Node10 -->
<g id="node10" class="node"><title>Node10</title>
<polygon fill="white" stroke="#bfbfbf" points="991.746,-198.5 991.746,-217.5 1026.75,-217.5 1026.75,-198.5 991.746,-198.5"/>
<text text-anchor="middle" x="1009.25" y="-205.5" font-family="Helvetica,sans-Serif" font-size="10.00">map</text>
</g>
<!-- Node5&#45;&gt;Node10 -->
<g id="edge10" class="edge"><title>Node5&#45;&gt;Node10</title>
<path fill="none" stroke="midnightblue" d="M1252.9,-266.497C1242.59,-264.35 1231.51,-262.068 1221.25,-260 1139.13,-243.458 1114.94,-252.695 1036.25,-224 1034.83,-223.483 1033.4,-222.899 1031.97,-222.269"/>
<polygon fill="midnightblue" stroke="midnightblue" points="1033.36,-219.051 1022.86,-217.656 1030.2,-225.296 1033.36,-219.051"/>
</g>
<!-- Node11 -->
<g id="node11" class="node"><title>Node11</title>
<polygon fill="white" stroke="#bfbfbf" points="1045.25,-198.5 1045.25,-217.5 1075.25,-217.5 1075.25,-198.5 1045.25,-198.5"/>
<text text-anchor="middle" x="1060.25" y="-205.5" font-family="Helvetica,sans-Serif" font-size="10.00">set</text>
</g>
<!-- Node5&#45;&gt;Node11 -->
<g id="edge12" class="edge"><title>Node5&#45;&gt;Node11</title>
<path fill="none" stroke="midnightblue" d="M1251.42,-266.446C1199.49,-255.538 1114.1,-236.587 1084.25,-224 1083.37,-223.633 1082.5,-223.236 1081.62,-222.816"/>
<polygon fill="midnightblue" stroke="midnightblue" points="1082.98,-219.562 1072.54,-217.731 1079.56,-225.67 1082.98,-219.562"/>
</g>
<!-- Node12 -->
<g id="node12" class="node"><title>Node12</title>
<polygon fill="white" stroke="#bfbfbf" points="1093.25,-198.5 1093.25,-217.5 1171.25,-217.5 1171.25,-198.5 1093.25,-198.5"/>
<text text-anchor="middle" x="1132.25" y="-205.5" font-family="Helvetica,sans-Serif" font-size="10.00">unordered_set</text>
</g>
<!-- Node5&#45;&gt;Node12 -->
<g id="edge13" class="edge"><title>Node5&#45;&gt;Node12</title>
<path fill="none" stroke="midnightblue" d="M1272.2,-266.372C1244.16,-254.877 1194.37,-234.469 1162.36,-221.346"/>
<polygon fill="midnightblue" stroke="midnightblue" points="1163.62,-218.081 1153.04,-217.526 1160.97,-224.557 1163.62,-218.081"/>
</g>
<!-- Node13 -->
<g id="node13" class="node"><title>Node13</title>
<polygon fill="white" stroke="#bfbfbf" points="572.246,-198.5 572.246,-217.5 612.246,-217.5 612.246,-198.5 572.246,-198.5"/>
<text text-anchor="middle" x="592.246" y="-205.5" font-family="Helvetica,sans-Serif" font-size="10.00">utility</text>
</g>
<!-- Node5&#45;&gt;Node13 -->
<g id="edge14" class="edge"><title>Node5&#45;&gt;Node13</title>
<path fill="none" stroke="midnightblue" d="M1235.12,-269.141C1205.28,-266.22 1168.34,-262.736 1135.25,-260 908.346,-241.24 844.596,-281.283 624.246,-224 621.752,-223.352 619.215,-222.512 616.716,-221.562"/>
<polygon fill="midnightblue" stroke="midnightblue" points="618.006,-218.306 607.44,-217.517 615.208,-224.723 618.006,-218.306"/>
</g>
<!-- Node14 -->
<g id="node14" class="node"><title>Node14</title>
<polygon fill="white" stroke="#bfbfbf" points="633.246,-198.5 633.246,-217.5 677.246,-217.5 677.246,-198.5 633.246,-198.5"/>
<text text-anchor="middle" x="655.246" y="-205.5" font-family="Helvetica,sans-Serif" font-size="10.00">vector</text>
</g>
<!-- Node5&#45;&gt;Node14 -->
<g id="edge15" class="edge"><title>Node5&#45;&gt;Node14</title>
<path fill="none" stroke="midnightblue" d="M1256.39,-266.469C1245.16,-264.099 1232.74,-261.709 1221.25,-260 1116.86,-244.477 791.682,-219.283 687.623,-211.422"/>
<polygon fill="midnightblue" stroke="midnightblue" points="687.66,-207.915 677.425,-210.653 687.134,-214.895 687.66,-207.915"/>
</g>
<!-- Node15 -->
<g id="node15" class="node"><title>Node15</title>
<polygon fill="white" stroke="#bfbfbf" points="1526.25,-0.5 1526.25,-19.5 1630.25,-19.5 1630.25,-0.5 1526.25,-0.5"/>
<text text-anchor="middle" x="1578.25" y="-7.5" font-family="Helvetica,sans-Serif" font-size="10.00">shad/config/config.h</text>
</g>
<!-- Node5&#45;&gt;Node15 -->
<g id="edge16" class="edge"><title>Node5&#45;&gt;Node15</title>
<path fill="none" stroke="midnightblue" d="M1351.37,-274.351C1445.85,-272.157 1627.11,-262.846 1676.25,-224 1737.56,-175.525 1774.9,-118.708 1728.25,-56 1717.23,-41.1957 1675.73,-29.4394 1639.16,-21.6608"/>
<polygon fill="midnightblue" stroke="midnightblue" points="1639.51,-18.1591 1629.01,-19.5731 1638.1,-25.0156 1639.51,-18.1591"/>
</g>
<!-- Node16 -->
<g id="node16" class="node"><title>Node16</title>
<g id="a_node16"><a xlink:href="handle_8h.html" target="_top" xlink:title="shad/runtime/handle.h">
<polygon fill="white" stroke="black" points="1530.75,-198.5 1530.75,-217.5 1643.75,-217.5 1643.75,-198.5 1530.75,-198.5"/>
<text text-anchor="middle" x="1587.25" y="-205.5" font-family="Helvetica,sans-Serif" font-size="10.00">shad/runtime/handle.h</text>
</a>
</g>
</g>
<!-- Node5&#45;&gt;Node16 -->
<g id="edge17" class="edge"><title>Node5&#45;&gt;Node16</title>
<path fill="none" stroke="midnightblue" d="M1331.38,-266.439C1384.58,-254.495 1481.08,-232.834 1539.15,-219.797"/>
<polygon fill="midnightblue" stroke="midnightblue" points="1540.19,-223.151 1549.18,-217.546 1538.66,-216.321 1540.19,-223.151"/>
</g>
<!-- Node18 -->
<g id="node18" class="node"><title>Node18</title>
<g id="a_node18"><a xlink:href="mapping__traits_8h.html" target="_top" xlink:title="shad/runtime/mapping\l_traits.h">
<polygon fill="white" stroke="black" points="1606.75,-57 1606.75,-87 1719.75,-87 1719.75,-57 1606.75,-57"/>
<text text-anchor="start" x="1614.75" y="-75" font-family="Helvetica,sans-Serif" font-size="10.00">shad/runtime/mapping</text>
<text text-anchor="middle" x="1663.25" y="-64" font-family="Helvetica,sans-Serif" font-size="10.00">_traits.h</text>
</a>
</g>
</g>
<!-- Node5&#45;&gt;Node18 -->
<g id="edge29" class="edge"><title>Node5&#45;&gt;Node18</title>
<path fill="none" stroke="midnightblue" d="M1351.38,-275.022C1442.2,-273.746 1611.57,-265.667 1652.25,-224 1685.05,-190.397 1677.42,-130.149 1669.82,-96.8152"/>
<polygon fill="midnightblue" stroke="midnightblue" points="1673.2,-95.8788 1667.41,-87.006 1666.4,-97.5529 1673.2,-95.8788"/>
</g>
<!-- Node21 -->
<g id="node21" class="node"><title>Node21</title>
<g id="a_node21"><a xlink:href="locality_8h.html" target="_top" xlink:title="shad/runtime/locality.h">
<polygon fill="white" stroke="black" points="1307.75,-130.5 1307.75,-149.5 1422.75,-149.5 1422.75,-130.5 1307.75,-130.5"/>
<text text-anchor="middle" x="1365.25" y="-137.5" font-family="Helvetica,sans-Serif" font-size="10.00">shad/runtime/locality.h</text>
</a>
</g>
</g>
<!-- Node5&#45;&gt;Node21 -->
<g id="edge24" class="edge"><title>Node5&#45;&gt;Node21</title>
<path fill="none" stroke="midnightblue" d="M1351.32,-270.517C1382.85,-264.773 1419.35,-252.023 1439.25,-224 1447.48,-212.403 1445.86,-204.591 1439.25,-192 1430.27,-174.911 1412.69,-162.428 1396.91,-154.09"/>
<polygon fill="midnightblue" stroke="midnightblue" points="1398.43,-150.936 1387.91,-149.657 1395.33,-157.215 1398.43,-150.936"/>
</g>
<!-- Node22 -->
<g id="node22" class="node"><title>Node22</title>
<g id="a_node22"><a xlink:href="available__mappings_8h.html" target="_top" xlink:title="shad/runtime/mappings\l/available_mappings.h">
<polygon fill="white" stroke="black" points="1441.25,-125 1441.25,-155 1559.25,-155 1559.25,-125 1441.25,-125"/>
<text text-anchor="start" x="1449.25" y="-143" font-family="Helvetica,sans-Serif" font-size="10.00">shad/runtime/mappings</text>
<text text-anchor="middle" x="1500.25" y="-132" font-family="Helvetica,sans-Serif" font-size="10.00">/available_mappings.h</text>
</a>
</g>
</g>
<!-- Node5&#45;&gt;Node22 -->
<g id="edge30" class="edge"><title>Node5&#45;&gt;Node22</title>
<path fill="none" stroke="midnightblue" d="M1351.29,-268C1385.03,-261.401 1426.6,-248.634 1456.25,-224 1474.77,-208.61 1486.56,-183.361 1493.23,-164.746"/>
<polygon fill="midnightblue" stroke="midnightblue" points="1496.57,-165.785 1496.41,-155.192 1489.93,-163.571 1496.57,-165.785"/>
</g>
<!-- Node23 -->
<g id="node23" class="node"><title>Node23</title>
<g id="a_node23"><a xlink:href="synchronous__interface_8h.html" target="_top" xlink:title="shad/runtime/synchronous\l_interface.h">
<polygon fill="white" stroke="black" points="1227.75,-193 1227.75,-223 1358.75,-223 1358.75,-193 1227.75,-193"/>
<text text-anchor="start" x="1235.75" y="-211" font-family="Helvetica,sans-Serif" font-size="10.00">shad/runtime/synchronous</text>
<text text-anchor="middle" x="1293.25" y="-200" font-family="Helvetica,sans-Serif" font-size="10.00">_interface.h</text>
</a>
</g>
</g>
<!-- Node5&#45;&gt;Node23 -->
<g id="edge32" class="edge"><title>Node5&#45;&gt;Node23</title>
<path fill="none" stroke="midnightblue" d="M1293.25,-266.372C1293.25,-257.971 1293.25,-244.811 1293.25,-233.213"/>
<polygon fill="midnightblue" stroke="midnightblue" points="1296.75,-233.181 1293.25,-223.181 1289.75,-233.181 1296.75,-233.181"/>
</g>
<!-- Node16&#45;&gt;Node15 -->
<g id="edge19" class="edge"><title>Node16&#45;&gt;Node15</title>
<path fill="none" stroke="midnightblue" d="M1587.91,-198.344C1588.65,-188.204 1589.81,-170.894 1590.25,-156 1590.66,-141.784 1591,-138.202 1590.25,-124 1588.49,-90.7827 1583.84,-52.3025 1580.87,-29.9015"/>
<polygon fill="midnightblue" stroke="midnightblue" points="1584.31,-29.2047 1579.5,-19.7659 1577.37,-30.1457 1584.31,-29.2047"/>
</g>
<!-- Node17 -->
<g id="node17" class="node"><title>Node17</title>
<polygon fill="white" stroke="#bfbfbf" points="76.2459,-130.5 76.2459,-149.5 138.246,-149.5 138.246,-130.5 76.2459,-130.5"/>
<text text-anchor="middle" x="107.246" y="-137.5" font-family="Helvetica,sans-Serif" font-size="10.00">type_traits</text>
</g>
<!-- Node16&#45;&gt;Node17 -->
<g id="edge18" class="edge"><title>Node16&#45;&gt;Node17</title>
<path fill="none" stroke="midnightblue" d="M1530.29,-202.683C1485.89,-199.423 1422.67,-195.011 1367.25,-192 888.565,-165.999 306.922,-147.165 148.665,-142.261"/>
<polygon fill="midnightblue" stroke="midnightblue" points="148.536,-138.755 138.433,-141.945 148.32,-145.752 148.536,-138.755"/>
</g>
<!-- Node16&#45;&gt;Node18 -->
<g id="edge20" class="edge"><title>Node16&#45;&gt;Node18</title>
<path fill="none" stroke="midnightblue" d="M1599.32,-198.192C1611.15,-188.95 1628.87,-173.371 1639.25,-156 1650.14,-137.762 1656.32,-114.304 1659.68,-96.9821"/>
<polygon fill="midnightblue" stroke="midnightblue" points="1663.13,-97.5459 1661.41,-87.0909 1656.24,-96.3337 1663.13,-97.5459"/>
</g>
<!-- Node20 -->
<g id="node20" class="node"><title>Node20</title>
<g id="a_node20"><a xlink:href="available__traits__mappings_8h.html" target="_top" xlink:title="shad/runtime/mappings\l/available_traits_mappings.h">
<polygon fill="white" stroke="black" points="1410.25,-57 1410.25,-87 1550.25,-87 1550.25,-57 1410.25,-57"/>
<text text-anchor="start" x="1418.25" y="-75" font-family="Helvetica,sans-Serif" font-size="10.00">shad/runtime/mappings</text>
<text text-anchor="middle" x="1480.25" y="-64" font-family="Helvetica,sans-Serif" font-size="10.00">/available_traits_mappings.h</text>
</a>
</g>
</g>
<!-- Node16&#45;&gt;Node20 -->
<g id="edge23" class="edge"><title>Node16&#45;&gt;Node20</title>
<path fill="none" stroke="midnightblue" d="M1587.44,-198.315C1587.35,-182.11 1585.09,-146.845 1568.25,-124 1558.09,-110.229 1543.02,-99.5765 1528.21,-91.6546"/>
<polygon fill="midnightblue" stroke="midnightblue" points="1529.57,-88.4231 1519.06,-87.0715 1526.43,-94.6812 1529.57,-88.4231"/>
</g>
<!-- Node18&#45;&gt;Node15 -->
<g id="edge22" class="edge"><title>Node18&#45;&gt;Node15</title>
<path fill="none" stroke="midnightblue" d="M1643.1,-56.7808C1629.65,-47.2862 1612.02,-34.8434 1598.54,-25.3267"/>
<polygon fill="midnightblue" stroke="midnightblue" points="1600.55,-22.4632 1590.37,-19.5557 1596.52,-28.182 1600.55,-22.4632"/>
</g>
<!-- Node19 -->
<g id="node19" class="node"><title>Node19</title>
<polygon fill="white" stroke="#bfbfbf" points="1648.75,-0.5 1648.75,-19.5 1689.75,-19.5 1689.75,-0.5 1648.75,-0.5"/>
<text text-anchor="middle" x="1669.25" y="-7.5" font-family="Helvetica,sans-Serif" font-size="10.00">string</text>
</g>
<!-- Node18&#45;&gt;Node19 -->
<g id="edge21" class="edge"><title>Node18&#45;&gt;Node19</title>
<path fill="none" stroke="midnightblue" d="M1664.67,-56.7808C1665.48,-48.6913 1666.5,-38.4617 1667.37,-29.725"/>
<polygon fill="midnightblue" stroke="midnightblue" points="1670.86,-30.0292 1668.37,-19.7305 1663.9,-29.3326 1670.86,-30.0292"/>
</g>
<!-- Node21&#45;&gt;Node7 -->
<g id="edge25" class="edge"><title>Node21&#45;&gt;Node7</title>
<path fill="none" stroke="midnightblue" d="M1347.07,-130.372C1323.24,-119.057 1281.23,-99.1053 1253.56,-85.9678"/>
<polygon fill="midnightblue" stroke="midnightblue" points="1254.96,-82.7581 1244.42,-81.6305 1251.95,-89.0815 1254.96,-82.7581"/>
</g>
<!-- Node21&#45;&gt;Node15 -->
<g id="edge26" class="edge"><title>Node21&#45;&gt;Node15</title>
<path fill="none" stroke="midnightblue" d="M1366.43,-130.49C1369.24,-113.62 1377.92,-75.8541 1401.25,-56 1433.02,-28.9468 1478.92,-17.8167 1516.01,-13.3875"/>
<polygon fill="midnightblue" stroke="midnightblue" points="1516.64,-16.8402 1526.22,-12.3083 1515.9,-9.87902 1516.64,-16.8402"/>
</g>
<!-- Node21&#45;&gt;Node18 -->
<g id="edge27" class="edge"><title>Node21&#45;&gt;Node18</title>
<path fill="none" stroke="midnightblue" d="M1403.15,-130.492C1412.65,-128.367 1422.82,-126.095 1432.25,-124 1487.52,-111.71 1550.27,-97.864 1596.4,-87.7035"/>
<polygon fill="midnightblue" stroke="midnightblue" points="1597.26,-91.0972 1606.28,-85.5285 1595.76,-84.261 1597.26,-91.0972"/>
</g>
<!-- Node21&#45;&gt;Node20 -->
<g id="edge28" class="edge"><title>Node21&#45;&gt;Node20</title>
<path fill="none" stroke="midnightblue" d="M1380.28,-130.372C1397.08,-120.729 1424.82,-104.812 1446.81,-92.1874"/>
<polygon fill="midnightblue" stroke="midnightblue" points="1448.6,-95.1947 1455.54,-87.1815 1445.12,-89.1235 1448.6,-95.1947"/>
</g>
<!-- Node22&#45;&gt;Node20 -->
<g id="edge31" class="edge"><title>Node22&#45;&gt;Node20</title>
<path fill="none" stroke="midnightblue" d="M1495.91,-124.679C1493.47,-116.636 1490.36,-106.385 1487.56,-97.1369"/>
<polygon fill="midnightblue" stroke="midnightblue" points="1490.83,-95.8483 1484.58,-87.2931 1484.13,-97.8784 1490.83,-95.8483"/>
</g>
<!-- Node23&#45;&gt;Node4 -->
<g id="edge35" class="edge"><title>Node23&#45;&gt;Node4</title>
<path fill="none" stroke="midnightblue" d="M1227.35,-194.492C1222.58,-193.633 1217.84,-192.795 1213.25,-192 1109.86,-174.124 987.366,-155.396 927.644,-146.422"/>
<polygon fill="midnightblue" stroke="midnightblue" points="927.991,-142.935 917.583,-144.913 926.953,-149.858 927.991,-142.935"/>
</g>
<!-- Node23&#45;&gt;Node6 -->
<g id="edge33" class="edge"><title>Node23&#45;&gt;Node6</title>
<path fill="none" stroke="midnightblue" d="M1278.71,-192.679C1268.05,-182.184 1253.59,-167.932 1242.54,-157.052"/>
<polygon fill="midnightblue" stroke="midnightblue" points="1244.79,-154.353 1235.21,-149.828 1239.88,-159.339 1244.79,-154.353"/>
</g>
<!-- Node23&#45;&gt;Node7 -->
<g id="edge34" class="edge"><title>Node23&#45;&gt;Node7</title>
<path fill="none" stroke="midnightblue" d="M1240.3,-192.925C1221.81,-185.191 1203,-173.483 1192.25,-156 1178.92,-134.345 1196.43,-106.549 1210.85,-89.2544"/>
<polygon fill="midnightblue" stroke="midnightblue" points="1213.54,-91.4939 1217.54,-81.6811 1208.3,-86.8608 1213.54,-91.4939"/>
</g>
<!-- Node23&#45;&gt;Node21 -->
<g id="edge36" class="edge"><title>Node23&#45;&gt;Node21</title>
<path fill="none" stroke="midnightblue" d="M1308.87,-192.679C1320.43,-182.082 1336.17,-167.655 1348.08,-156.736"/>
<polygon fill="midnightblue" stroke="midnightblue" points="1350.61,-159.166 1355.62,-149.828 1345.88,-154.006 1350.61,-159.166"/>
</g>
<!-- Node24&#45;&gt;Node7 -->
<g id="edge39" class="edge"><title>Node24&#45;&gt;Node7</title>
<path fill="none" stroke="midnightblue" d="M207.14,-338.581C141.155,-332.711 47.8352,-319.663 25.2459,-292 -23.4344,-232.386 3.44388,-167.045 67.2459,-124 115.129,-91.6949 1008.08,-76.3313 1192.93,-73.4901"/>
<polygon fill="midnightblue" stroke="midnightblue" points="1193.17,-76.9869 1203.12,-73.3352 1193.07,-69.9877 1193.17,-76.9869"/>
</g>
<!-- Node24&#45;&gt;Node8 -->
<g id="edge41" class="edge"><title>Node24&#45;&gt;Node8</title>
<path fill="none" stroke="midnightblue" d="M277.386,-328.66C281.019,-304.32 288.39,-254.933 292.434,-227.837"/>
<polygon fill="midnightblue" stroke="midnightblue" points="295.929,-228.135 293.943,-217.728 289.005,-227.101 295.929,-228.135"/>
</g>
<!-- Node24&#45;&gt;Node14 -->
<g id="edge43" class="edge"><title>Node24&#45;&gt;Node14</title>
<path fill="none" stroke="midnightblue" d="M313.632,-328.988C359.888,-312.195 440.03,-283.394 509.246,-260 558.779,-243.259 572.372,-242.578 621.246,-224 623.146,-223.278 625.093,-222.506 627.046,-221.709"/>
<polygon fill="midnightblue" stroke="midnightblue" points="628.854,-224.743 636.686,-217.607 626.114,-218.302 628.854,-224.743"/>
</g>
<!-- Node24&#45;&gt;Node17 -->
<g id="edge42" class="edge"><title>Node24&#45;&gt;Node17</title>
<path fill="none" stroke="midnightblue" d="M207.106,-337.558C145.344,-331.042 60.9141,-317.635 40.2459,-292 5.70938,-249.164 60.5694,-185.724 90.2297,-156.622"/>
<polygon fill="midnightblue" stroke="midnightblue" points="92.6817,-159.12 97.4957,-149.682 87.8468,-154.058 92.6817,-159.12"/>
</g>
<!-- Node25 -->
<g id="node25" class="node"><title>Node25</title>
<polygon fill="white" stroke="#bfbfbf" points="618.246,-266.5 618.246,-285.5 674.246,-285.5 674.246,-266.5 618.246,-266.5"/>
<text text-anchor="middle" x="646.246" y="-273.5" font-family="Helvetica,sans-Serif" font-size="10.00">algorithm</text>
</g>
<!-- Node24&#45;&gt;Node25 -->
<g id="edge38" class="edge"><title>Node24&#45;&gt;Node25</title>
<path fill="none" stroke="midnightblue" d="M343.293,-330.895C421.008,-317.069 545.447,-294.932 607.887,-283.824"/>
<polygon fill="midnightblue" stroke="midnightblue" points="608.848,-287.208 618.08,-282.011 607.621,-280.316 608.848,-287.208"/>
</g>
<!-- Node26 -->
<g id="node26" class="node"><title>Node26</title>
<polygon fill="white" stroke="#bfbfbf" points="221.246,-266.5 221.246,-285.5 267.246,-285.5 267.246,-266.5 221.246,-266.5"/>
<text text-anchor="middle" x="244.246" y="-273.5" font-family="Helvetica,sans-Serif" font-size="10.00">cstring</text>
</g>
<!-- Node24&#45;&gt;Node26 -->
<g id="edge40" class="edge"><title>Node24&#45;&gt;Node26</title>
<path fill="none" stroke="midnightblue" d="M268.519,-328.679C263.877,-318.796 257.67,-305.579 252.694,-294.986"/>
<polygon fill="midnightblue" stroke="midnightblue" points="255.812,-293.392 248.393,-285.828 249.476,-296.368 255.812,-293.392"/>
</g>
<!-- Node27 -->
<g id="node27" class="node"><title>Node27</title>
<g id="a_node27"><a xlink:href="type__traits_8h.html" target="_top" xlink:title="shad/core/type_traits.h">
<polygon fill="white" stroke="black" points="49.2459,-266.5 49.2459,-285.5 165.246,-285.5 165.246,-266.5 49.2459,-266.5"/>
<text text-anchor="middle" x="107.246" y="-273.5" font-family="Helvetica,sans-Serif" font-size="10.00">shad/core/type_traits.h</text>
</a>
</g>
</g>
<!-- Node24&#45;&gt;Node27 -->
<g id="edge44" class="edge"><title>Node24&#45;&gt;Node27</title>
<path fill="none" stroke="midnightblue" d="M239.206,-328.841C209.365,-317.118 167.38,-300.624 138.838,-289.411"/>
<polygon fill="midnightblue" stroke="midnightblue" points="139.933,-286.081 129.345,-285.682 137.373,-292.596 139.933,-286.081"/>
</g>
<!-- Node27&#45;&gt;Node8 -->
<g id="edge45" class="edge"><title>Node27&#45;&gt;Node8</title>
<path fill="none" stroke="midnightblue" d="M131.824,-266.372C164.989,-254.728 224.206,-233.939 261.517,-220.841"/>
<polygon fill="midnightblue" stroke="midnightblue" points="262.684,-224.141 270.96,-217.526 260.365,-217.536 262.684,-224.141"/>
</g>
<!-- Node27&#45;&gt;Node17 -->
<g id="edge46" class="edge"><title>Node27&#45;&gt;Node17</title>
<path fill="none" stroke="midnightblue" d="M107.246,-266.208C107.246,-244.722 107.246,-189.167 107.246,-159.814"/>
<polygon fill="midnightblue" stroke="midnightblue" points="110.746,-159.65 107.246,-149.65 103.746,-159.65 110.746,-159.65"/>
</g>
<!-- Node28&#45;&gt;Node5 -->
<g id="edge86" class="edge"><title>Node28&#45;&gt;Node5</title>
<path fill="none" stroke="midnightblue" d="M729.422,-479.241C859.926,-479.07 1188.16,-473.941 1286.25,-428 1334.69,-405.308 1375.7,-376.557 1353.25,-328 1346.02,-312.373 1331.38,-299.779 1318.37,-291.015"/>
<polygon fill="midnightblue" stroke="midnightblue" points="1320.07,-287.944 1309.74,-285.57 1316.33,-293.865 1320.07,-287.944"/>
</g>
<!-- Node28&#45;&gt;Node8 -->
<g id="edge49" class="edge"><title>Node28&#45;&gt;Node8</title>
<path fill="none" stroke="midnightblue" d="M620.939,-477.943C548.741,-475.072 418.068,-464.724 313.246,-428 257.208,-408.367 227.667,-411.576 198.246,-360 185.832,-338.238 206.847,-267.701 212.246,-260 224.369,-242.707 244.415,-230.149 261.768,-221.823"/>
<polygon fill="midnightblue" stroke="midnightblue" points="263.389,-224.931 271.065,-217.629 260.511,-218.55 263.389,-224.931"/>
</g>
<!-- Node28&#45;&gt;Node13 -->
<g id="edge51" class="edge"><title>Node28&#45;&gt;Node13</title>
<path fill="none" stroke="midnightblue" d="M620.866,-470.32C575.402,-461.821 515.729,-447.338 501.246,-428 455.63,-367.095 489.642,-321.65 534.246,-260 544.365,-246.013 558.976,-233.195 571.002,-223.908"/>
<polygon fill="midnightblue" stroke="midnightblue" points="573.269,-226.584 579.2,-217.804 569.089,-220.969 573.269,-226.584"/>
</g>
<!-- Node28&#45;&gt;Node14 -->
<g id="edge52" class="edge"><title>Node28&#45;&gt;Node14</title>
<path fill="none" stroke="midnightblue" d="M621.181,-477.076C585.381,-472.643 540.827,-460.391 517.246,-428 463.35,-353.969 582.682,-259.042 633.623,-223.386"/>
<polygon fill="midnightblue" stroke="midnightblue" points="635.749,-226.171 642.007,-217.621 631.784,-220.403 635.749,-226.171"/>
</g>
<!-- Node28&#45;&gt;Node24 -->
<g id="edge72" class="edge"><title>Node28&#45;&gt;Node24</title>
<path fill="none" stroke="midnightblue" d="M620.942,-474.395C542.576,-467.061 402.24,-451.153 357.246,-428 329.6,-413.774 305.627,-386.769 290.862,-367.423"/>
<polygon fill="midnightblue" stroke="midnightblue" points="293.503,-365.109 284.745,-359.147 287.874,-369.27 293.503,-365.109"/>
</g>
<!-- Node28&#45;&gt;Node25 -->
<g id="edge48" class="edge"><title>Node28&#45;&gt;Node25</title>
<path fill="none" stroke="midnightblue" d="M673.207,-464.796C668.08,-429.083 654.652,-335.552 648.911,-295.565"/>
<polygon fill="midnightblue" stroke="midnightblue" points="652.366,-294.998 647.48,-285.597 645.437,-295.993 652.366,-294.998"/>
</g>
<!-- Node29 -->
<g id="node29" class="node"><title>Node29</title>
<polygon fill="white" stroke="#bfbfbf" points="703.246,-334.5 703.246,-353.5 741.246,-353.5 741.246,-334.5 703.246,-334.5"/>
<text text-anchor="middle" x="722.246" y="-341.5" font-family="Helvetica,sans-Serif" font-size="10.00">tuple</text>
</g>
<!-- Node28&#45;&gt;Node29 -->
<g id="edge50" class="edge"><title>Node28&#45;&gt;Node29</title>
<path fill="none" stroke="midnightblue" d="M680.276,-464.66C688.851,-440.211 706.29,-390.492 715.766,-363.476"/>
<polygon fill="midnightblue" stroke="midnightblue" points="719.178,-364.322 719.185,-353.728 712.572,-362.005 719.178,-364.322"/>
</g>
<!-- Node30 -->
<g id="node30" class="node"><title>Node30</title>
<g id="a_node30"><a xlink:href="abstract__data__structure_8h.html" target="_top" xlink:title="shad/data_structures\l/abstract_data_structure.h">
<polygon fill="white" stroke="black" points="829.746,-397 829.746,-427 960.746,-427 960.746,-397 829.746,-397"/>
<text text-anchor="start" x="837.746" y="-415" font-family="Helvetica,sans-Serif" font-size="10.00">shad/data_structures</text>
<text text-anchor="middle" x="895.246" y="-404" font-family="Helvetica,sans-Serif" font-size="10.00">/abstract_data_structure.h</text>
</a>
</g>
</g>
<!-- Node28&#45;&gt;Node30 -->
<g id="edge53" class="edge"><title>Node28&#45;&gt;Node30</title>
<path fill="none" stroke="midnightblue" d="M722.172,-464.922C756.2,-454.714 802.391,-440.857 838.495,-430.025"/>
<polygon fill="midnightblue" stroke="midnightblue" points="839.82,-433.282 848.392,-427.056 837.808,-426.577 839.82,-433.282"/>
</g>
<!-- Node35 -->
<g id="node35" class="node"><title>Node35</title>
<g id="a_node35"><a xlink:href="buffer_8h.html" target="_top" xlink:title="shad/data_structures\l/buffer.h">
<polygon fill="white" stroke="black" points="1169.25,-397 1169.25,-427 1277.25,-427 1277.25,-397 1169.25,-397"/>
<text text-anchor="start" x="1177.25" y="-415" font-family="Helvetica,sans-Serif" font-size="10.00">shad/data_structures</text>
<text text-anchor="middle" x="1223.25" y="-404" font-family="Helvetica,sans-Serif" font-size="10.00">/buffer.h</text>
</a>
</g>
</g>
<!-- Node28&#45;&gt;Node35 -->
<g id="edge65" class="edge"><title>Node28&#45;&gt;Node35</title>
<path fill="none" stroke="midnightblue" d="M729.29,-472.491C830.916,-460.251 1050.04,-433.861 1159.01,-420.737"/>
<polygon fill="midnightblue" stroke="midnightblue" points="1159.69,-424.18 1169.2,-419.509 1158.86,-417.23 1159.69,-424.18"/>
</g>
<!-- Node37 -->
<g id="node37" class="node"><title>Node37</title>
<g id="a_node37"><a xlink:href="local__hashmap_8h.html" target="_top" xlink:title="shad/data_structures\l/local_hashmap.h">
<polygon fill="white" stroke="black" points="526.246,-397 526.246,-427 634.246,-427 634.246,-397 526.246,-397"/>
<text text-anchor="start" x="534.246" y="-415" font-family="Helvetica,sans-Serif" font-size="10.00">shad/data_structures</text>
<text text-anchor="middle" x="580.246" y="-404" font-family="Helvetica,sans-Serif" font-size="10.00">/local_hashmap.h</text>
</a>
</g>
</g>
<!-- Node28&#45;&gt;Node37 -->
<g id="edge73" class="edge"><title>Node28&#45;&gt;Node37</title>
<path fill="none" stroke="midnightblue" d="M654.632,-464.679C641.221,-455.361 623.545,-443.082 608.789,-432.83"/>
<polygon fill="midnightblue" stroke="midnightblue" points="610.702,-429.898 600.493,-427.066 606.708,-435.646 610.702,-429.898"/>
</g>
<!-- Node38 -->
<g id="node38" class="node"><title>Node38</title>
<g id="a_node38"><a xlink:href="distributed__iterator__traits_8h.html" target="_top" xlink:title="shad/distributed_iterator\l_traits.h">
<polygon fill="white" stroke="black" points="1730.75,-261 1730.75,-291 1851.75,-291 1851.75,-261 1730.75,-261"/>
<text text-anchor="start" x="1738.75" y="-279" font-family="Helvetica,sans-Serif" font-size="10.00">shad/distributed_iterator</text>
<text text-anchor="middle" x="1791.25" y="-268" font-family="Helvetica,sans-Serif" font-size="10.00">_traits.h</text>
</a>
</g>
</g>
<!-- Node28&#45;&gt;Node38 -->
<g id="edge83" class="edge"><title>Node28&#45;&gt;Node38</title>
<path fill="none" stroke="midnightblue" d="M729.419,-479.046C841.803,-478.206 1108.03,-471.347 1326.25,-428 1485.65,-396.337 1666.72,-327.57 1747.88,-294.912"/>
<polygon fill="midnightblue" stroke="midnightblue" points="1749.32,-298.107 1757.28,-291.114 1746.7,-291.618 1749.32,-298.107"/>
</g>
<!-- Node30&#45;&gt;Node4 -->
<g id="edge56" class="edge"><title>Node30&#45;&gt;Node4</title>
<path fill="none" stroke="midnightblue" d="M906.422,-396.773C913.338,-387.031 921.575,-373.48 925.246,-360 941.674,-299.671 899.616,-285.66 889.246,-224 886.887,-209.975 888.967,-206.219 889.246,-192 889.456,-181.302 889.912,-169.35 890.337,-159.706"/>
<polygon fill="midnightblue" stroke="midnightblue" points="893.835,-159.811 890.803,-149.66 886.843,-159.487 893.835,-159.811"/>
</g>
<!-- Node30&#45;&gt;Node5 -->
<g id="edge64" class="edge"><title>Node30&#45;&gt;Node5</title>
<path fill="none" stroke="midnightblue" d="M960.769,-405.914C1016.94,-399.874 1099.18,-386.978 1166.25,-360 1208.5,-343.004 1251.61,-311.102 1275.15,-292.184"/>
<polygon fill="midnightblue" stroke="midnightblue" points="1277.64,-294.667 1283.17,-285.627 1273.21,-289.247 1277.64,-294.667"/>
</g>
<!-- Node30&#45;&gt;Node13 -->
<g id="edge58" class="edge"><title>Node30&#45;&gt;Node13</title>
<path fill="none" stroke="midnightblue" d="M876.595,-396.806C840.084,-369.241 756.273,-307.045 682.246,-260 660.819,-246.383 635.614,-232.254 617.336,-222.33"/>
<polygon fill="midnightblue" stroke="midnightblue" points="618.929,-219.213 608.466,-217.549 615.608,-225.375 618.929,-219.213"/>
</g>
<!-- Node30&#45;&gt;Node14 -->
<g id="edge59" class="edge"><title>Node30&#45;&gt;Node14</title>
<path fill="none" stroke="midnightblue" d="M886.208,-396.861C864.543,-363.314 809.501,-280.204 783.246,-260 754.5,-237.879 714.902,-224.071 687.391,-216.489"/>
<polygon fill="midnightblue" stroke="midnightblue" points="688.049,-213.043 677.487,-213.883 686.268,-219.812 688.049,-213.043"/>
</g>
<!-- Node30&#45;&gt;Node29 -->
<g id="edge57" class="edge"><title>Node30&#45;&gt;Node29</title>
<path fill="none" stroke="midnightblue" d="M854.189,-396.984C826.115,-387.171 788.171,-373.456 755.246,-360 753.411,-359.25 751.528,-358.457 749.636,-357.644"/>
<polygon fill="midnightblue" stroke="midnightblue" points="750.852,-354.355 740.292,-353.506 748.018,-360.756 750.852,-354.355"/>
</g>
<!-- Node31 -->
<g id="node31" class="node"><title>Node31</title>
<polygon fill="white" stroke="#bfbfbf" points="873.746,-334.5 873.746,-353.5 916.746,-353.5 916.746,-334.5 873.746,-334.5"/>
<text text-anchor="middle" x="895.246" y="-341.5" font-family="Helvetica,sans-Serif" font-size="10.00">deque</text>
</g>
<!-- Node30&#45;&gt;Node31 -->
<g id="edge54" class="edge"><title>Node30&#45;&gt;Node31</title>
<path fill="none" stroke="midnightblue" d="M895.246,-396.679C895.246,-387.101 895.246,-374.394 895.246,-363.977"/>
<polygon fill="midnightblue" stroke="midnightblue" points="898.746,-363.828 895.246,-353.828 891.746,-363.828 898.746,-363.828"/>
</g>
<!-- Node32 -->
<g id="node32" class="node"><title>Node32</title>
<polygon fill="white" stroke="#bfbfbf" points="1012.25,-266.5 1012.25,-285.5 1052.25,-285.5 1052.25,-266.5 1012.25,-266.5"/>
<text text-anchor="middle" x="1032.25" y="-273.5" font-family="Helvetica,sans-Serif" font-size="10.00">limits</text>
</g>
<!-- Node30&#45;&gt;Node32 -->
<g id="edge55" class="edge"><title>Node30&#45;&gt;Node32</title>
<path fill="none" stroke="midnightblue" d="M914.741,-396.888C927.814,-387.087 945.153,-373.425 959.246,-360 981.727,-338.584 1004.95,-311.085 1019,-293.746"/>
<polygon fill="midnightblue" stroke="midnightblue" points="1021.93,-295.683 1025.46,-285.691 1016.47,-291.304 1021.93,-295.683"/>
</g>
<!-- Node33 -->
<g id="node33" class="node"><title>Node33</title>
<g id="a_node33"><a xlink:href="object__identifier_8h.html" target="_top" xlink:title="shad/data_structures\l/object_identifier.h">
<polygon fill="white" stroke="black" points="1049.25,-329 1049.25,-359 1157.25,-359 1157.25,-329 1049.25,-329"/>
<text text-anchor="start" x="1057.25" y="-347" font-family="Helvetica,sans-Serif" font-size="10.00">shad/data_structures</text>
<text text-anchor="middle" x="1103.25" y="-336" font-family="Helvetica,sans-Serif" font-size="10.00">/object_identifier.h</text>
</a>
</g>
</g>
<!-- Node30&#45;&gt;Node33 -->
<g id="edge60" class="edge"><title>Node30&#45;&gt;Node33</title>
<path fill="none" stroke="midnightblue" d="M939.612,-396.922C971.647,-386.757 1015.08,-372.975 1049.15,-362.164"/>
<polygon fill="midnightblue" stroke="midnightblue" points="1050.47,-365.417 1058.95,-359.056 1048.36,-358.745 1050.47,-365.417"/>
</g>
<!-- Node33&#45;&gt;Node5 -->
<g id="edge63" class="edge"><title>Node33&#45;&gt;Node5</title>
<path fill="none" stroke="midnightblue" d="M1144.01,-328.841C1178.3,-316.93 1226.76,-300.094 1259.06,-288.876"/>
<polygon fill="midnightblue" stroke="midnightblue" points="1260.23,-292.174 1268.53,-285.587 1257.93,-285.562 1260.23,-292.174"/>
</g>
<!-- Node33&#45;&gt;Node32 -->
<g id="edge62" class="edge"><title>Node33&#45;&gt;Node32</title>
<path fill="none" stroke="midnightblue" d="M1087.84,-328.679C1076.44,-318.082 1060.92,-303.655 1049.17,-292.736"/>
<polygon fill="midnightblue" stroke="midnightblue" points="1051.45,-290.073 1041.74,-285.828 1046.68,-295.2 1051.45,-290.073"/>
</g>
<!-- Node34 -->
<g id="node34" class="node"><title>Node34</title>
<polygon fill="white" stroke="#bfbfbf" points="1080.25,-266.5 1080.25,-285.5 1126.25,-285.5 1126.25,-266.5 1080.25,-266.5"/>
<text text-anchor="middle" x="1103.25" y="-273.5" font-family="Helvetica,sans-Serif" font-size="10.00">atomic</text>
</g>
<!-- Node33&#45;&gt;Node34 -->
<g id="edge61" class="edge"><title>Node33&#45;&gt;Node34</title>
<path fill="none" stroke="midnightblue" d="M1103.25,-328.679C1103.25,-319.101 1103.25,-306.394 1103.25,-295.977"/>
<polygon fill="midnightblue" stroke="midnightblue" points="1106.75,-295.828 1103.25,-285.828 1099.75,-295.828 1106.75,-295.828"/>
</g>
<!-- Node35&#45;&gt;Node5 -->
<g id="edge71" class="edge"><title>Node35&#45;&gt;Node5</title>
<path fill="none" stroke="midnightblue" d="M1277.28,-400.164C1299.49,-392.763 1323.05,-380.431 1336.25,-360 1350.75,-337.538 1328.77,-309.608 1311.26,-292.553"/>
<polygon fill="midnightblue" stroke="midnightblue" points="1313.4,-289.76 1303.68,-285.541 1308.65,-294.9 1313.4,-289.76"/>
</g>
<!-- Node35&#45;&gt;Node14 -->
<g id="edge69" class="edge"><title>Node35&#45;&gt;Node14</title>
<path fill="none" stroke="midnightblue" d="M1220.16,-396.548C1212.44,-364.546 1188.93,-288.304 1135.25,-260 1095.73,-239.164 789.03,-217.655 687.653,-211.05"/>
<polygon fill="midnightblue" stroke="midnightblue" points="687.617,-207.541 677.412,-210.388 687.166,-214.526 687.617,-207.541"/>
</g>
<!-- Node35&#45;&gt;Node25 -->
<g id="edge66" class="edge"><title>Node35&#45;&gt;Node25</title>
<path fill="none" stroke="midnightblue" d="M1172.85,-396.957C1088.08,-373.333 926.019,-328.178 925.246,-328 839.997,-308.379 738.703,-291.43 684.69,-282.893"/>
<polygon fill="midnightblue" stroke="midnightblue" points="684.958,-279.392 674.536,-281.3 683.873,-286.308 684.958,-279.392"/>
</g>
<!-- Node35&#45;&gt;Node33 -->
<g id="edge70" class="edge"><title>Node35&#45;&gt;Node33</title>
<path fill="none" stroke="midnightblue" d="M1197.5,-396.841C1180.1,-387.272 1156.92,-374.523 1137.9,-364.062"/>
<polygon fill="midnightblue" stroke="midnightblue" points="1139.4,-360.888 1128.95,-359.135 1136.02,-367.021 1139.4,-360.888"/>
</g>
<!-- Node35&#45;&gt;Node34 -->
<g id="edge68" class="edge"><title>Node35&#45;&gt;Node34</title>
<path fill="none" stroke="midnightblue" d="M1215.28,-396.886C1205.15,-379.611 1186.53,-349.952 1166.25,-328 1153.67,-314.397 1137.38,-301.3 1124.51,-291.785"/>
<polygon fill="midnightblue" stroke="midnightblue" points="1126.39,-288.826 1116.23,-285.807 1122.29,-294.5 1126.39,-288.826"/>
</g>
<!-- Node36 -->
<g id="node36" class="node"><title>Node36</title>
<polygon fill="white" stroke="#bfbfbf" points="1289.25,-334.5 1289.25,-353.5 1327.25,-353.5 1327.25,-334.5 1289.25,-334.5"/>
<text text-anchor="middle" x="1308.25" y="-341.5" font-family="Helvetica,sans-Serif" font-size="10.00">array</text>
</g>
<!-- Node35&#45;&gt;Node36 -->
<g id="edge67" class="edge"><title>Node35&#45;&gt;Node36</title>
<path fill="none" stroke="midnightblue" d="M1241.69,-396.679C1255.6,-385.879 1274.63,-371.098 1288.79,-360.11"/>
<polygon fill="midnightblue" stroke="midnightblue" points="1291.12,-362.726 1296.88,-353.828 1286.83,-357.197 1291.12,-362.726"/>
</g>
<!-- Node37&#45;&gt;Node4 -->
<g id="edge77" class="edge"><title>Node37&#45;&gt;Node4</title>
<path fill="none" stroke="midnightblue" d="M562.756,-396.928C552.654,-387.643 540.865,-374.538 535.246,-360 507.955,-289.394 503.491,-238.469 563.246,-192 608.215,-157.03 779.347,-145.656 854.959,-142.289"/>
<polygon fill="midnightblue" stroke="midnightblue" points="855.128,-145.785 864.971,-141.866 854.832,-138.792 855.128,-145.785"/>
</g>
<!-- Node37&#45;&gt;Node5 -->
<g id="edge82" class="edge"><title>Node37&#45;&gt;Node5</title>
<path fill="none" stroke="midnightblue" d="M626.787,-396.938C701.151,-374.539 840.811,-332.783 864.246,-328 931.544,-314.265 1122.13,-294.079 1225.15,-283.702"/>
<polygon fill="midnightblue" stroke="midnightblue" points="1225.54,-287.181 1235.14,-282.699 1224.84,-280.216 1225.54,-287.181"/>
</g>
<!-- Node37&#45;&gt;Node8 -->
<g id="edge76" class="edge"><title>Node37&#45;&gt;Node8</title>
<path fill="none" stroke="midnightblue" d="M525.969,-399.092C496.873,-391.059 461.338,-378.491 433.246,-360 376.522,-322.662 327.543,-256.855 306.387,-225.941"/>
<polygon fill="midnightblue" stroke="midnightblue" points="309.221,-223.884 300.737,-217.538 303.412,-227.789 309.221,-223.884"/>
</g>
<!-- Node37&#45;&gt;Node13 -->
<g id="edge79" class="edge"><title>Node37&#45;&gt;Node13</title>
<path fill="none" stroke="midnightblue" d="M567.968,-396.955C560.368,-387.289 551.308,-373.755 547.246,-360 534.658,-317.375 531.527,-301.572 547.246,-260 552.466,-246.194 563.317,-233.711 573.056,-224.551"/>
<polygon fill="midnightblue" stroke="midnightblue" points="575.652,-226.927 580.826,-217.681 571.016,-221.682 575.652,-226.927"/>
</g>
<!-- Node37&#45;&gt;Node14 -->
<g id="edge80" class="edge"><title>Node37&#45;&gt;Node14</title>
<path fill="none" stroke="midnightblue" d="M580.465,-396.877C581.415,-369.173 586.171,-306.362 609.246,-260 615.97,-246.49 627.289,-233.873 637.015,-224.568"/>
<polygon fill="midnightblue" stroke="midnightblue" points="639.644,-226.908 644.676,-217.584 634.928,-221.735 639.644,-226.908"/>
</g>
<!-- Node37&#45;&gt;Node24 -->
<g id="edge81" class="edge"><title>Node37&#45;&gt;Node24</title>
<path fill="none" stroke="midnightblue" d="M526.069,-399.277C477.079,-388.675 404.49,-372.968 349.99,-361.174"/>
<polygon fill="midnightblue" stroke="midnightblue" points="350.548,-357.714 340.033,-359.02 349.067,-364.555 350.548,-357.714"/>
</g>
<!-- Node37&#45;&gt;Node25 -->
<g id="edge74" class="edge"><title>Node37&#45;&gt;Node25</title>
<path fill="none" stroke="midnightblue" d="M587.309,-396.66C599.458,-371.994 624.276,-321.606 637.498,-294.761"/>
<polygon fill="midnightblue" stroke="midnightblue" points="640.669,-296.245 641.947,-285.728 634.389,-293.152 640.669,-296.245"/>
</g>
<!-- Node37&#45;&gt;Node29 -->
<g id="edge78" class="edge"><title>Node37&#45;&gt;Node29</title>
<path fill="none" stroke="midnightblue" d="M610.708,-396.841C635.491,-385.323 670.182,-369.199 694.268,-358.004"/>
<polygon fill="midnightblue" stroke="midnightblue" points="695.974,-361.071 703.567,-353.682 693.023,-354.723 695.974,-361.071"/>
</g>
<!-- Node37&#45;&gt;Node34 -->
<g id="edge75" class="edge"><title>Node37&#45;&gt;Node34</title>
<path fill="none" stroke="midnightblue" d="M594.203,-396.895C614.312,-377.57 653.517,-343.496 694.246,-328 847.428,-269.72 901.317,-327.831 1061.25,-292 1065.13,-291.13 1069.15,-290.004 1073.09,-288.761"/>
<polygon fill="midnightblue" stroke="midnightblue" points="1074.28,-292.053 1082.61,-285.506 1072.01,-285.43 1074.28,-292.053"/>
</g>
<!-- Node38&#45;&gt;Node3 -->
<g id="edge84" class="edge"><title>Node38&#45;&gt;Node3</title>
<path fill="none" stroke="midnightblue" d="M1791.25,-260.679C1791.25,-251.101 1791.25,-238.394 1791.25,-227.977"/>
<polygon fill="midnightblue" stroke="midnightblue" points="1794.75,-227.828 1791.25,-217.828 1787.75,-227.828 1794.75,-227.828"/>
</g>
<!-- Node38&#45;&gt;Node21 -->
<g id="edge85" class="edge"><title>Node38&#45;&gt;Node21</title>
<path fill="none" stroke="midnightblue" d="M1804.83,-260.708C1820.31,-242.704 1841.25,-211.739 1823.25,-192 1793.84,-159.767 1475.34,-162.78 1432.25,-156 1424.8,-154.828 1416.93,-153.319 1409.32,-151.711"/>
<polygon fill="midnightblue" stroke="midnightblue" points="1410.03,-148.283 1399.51,-149.561 1408.53,-155.121 1410.03,-148.283"/>
</g>
</g>
</svg>
