<?xml version="1.0" encoding="UTF-8" standalone="no"?>
<!DOCTYPE svg PUBLIC "-//W3C//DTD SVG 1.1//EN"
 "http://www.w3.org/Graphics/SVG/1.1/DTD/svg11.dtd">
<!-- Generated by graphviz version 2.36.0 (20140111.2315)
 -->
<!-- Title: include/shad/core/unordered_set.h Pages: 1 -->
<svg width="1539pt" height="572pt"
 viewBox="0.00 0.00 1538.86 572.00" xmlns="http://www.w3.org/2000/svg" xmlns:xlink="http://www.w3.org/1999/xlink">
<g id="graph0" class="graph" transform="scale(1 1) rotate(0) translate(4 568)">
<title>include/shad/core/unordered_set.h</title>
<polygon fill="white" stroke="none" points="-4,4 -4,-568 1534.86,-568 1534.86,4 -4,4"/>
<!-- Node1 -->
<g id="node1" class="node"><title>Node1</title>
<polygon fill="#bfbfbf" stroke="black" points="988.353,-533 988.353,-563 1127.35,-563 1127.35,-533 988.353,-533"/>
<text text-anchor="start" x="996.353" y="-551" font-family="Helvetica,sans-Serif" font-size="10.00">include/shad/core/unordered</text>
<text text-anchor="middle" x="1057.85" y="-540" font-family="Helvetica,sans-Serif" font-size="10.00">_set.h</text>
</g>
<!-- Node2 -->
<g id="node2" class="node"><title>Node2</title>
<polygon fill="white" stroke="#bfbfbf" points="1105.85,-266.5 1105.85,-285.5 1161.85,-285.5 1161.85,-266.5 1105.85,-266.5"/>
<text text-anchor="middle" x="1133.85" y="-273.5" font-family="Helvetica,sans-Serif" font-size="10.00">algorithm</text>
</g>
<!-- Node1&#45;&gt;Node2 -->
<g id="edge1" class="edge"><title>Node1&#45;&gt;Node2</title>
<path fill="none" stroke="midnightblue" d="M1069.48,-532.885C1086.58,-511.475 1118.45,-468.939 1136.85,-428 1149.67,-399.485 1150.82,-391.002 1154.85,-360 1156.69,-345.897 1157.61,-341.952 1154.85,-328 1152.59,-316.549 1147.72,-304.439 1143.24,-294.894"/>
<polygon fill="midnightblue" stroke="midnightblue" points="1146.25,-293.097 1138.67,-285.696 1139.98,-296.21 1146.25,-293.097"/>
</g>
<!-- Node3 -->
<g id="node3" class="node"><title>Node3</title>
<g id="a_node3"><a xlink:href="iterator_8h.html" target="_top" xlink:title="shad/core/iterator.h">
<polygon fill="white" stroke="black" points="161.353,-334.5 161.353,-353.5 262.353,-353.5 262.353,-334.5 161.353,-334.5"/>
<text text-anchor="middle" x="211.853" y="-341.5" font-family="Helvetica,sans-Serif" font-size="10.00">shad/core/iterator.h</text>
</a>
</g>
</g>
<!-- Node1&#45;&gt;Node3 -->
<g id="edge2" class="edge"><title>Node1&#45;&gt;Node3</title>
<path fill="none" stroke="midnightblue" d="M988.042,-542.179C795.514,-528.194 267.794,-484.968 215.853,-428 200.164,-410.792 202.67,-382.287 206.663,-363.572"/>
<polygon fill="midnightblue" stroke="midnightblue" points="210.124,-364.155 209.125,-353.608 203.328,-362.476 210.124,-364.155"/>
</g>
<!-- Node25 -->
<g id="node25" class="node"><title>Node25</title>
<g id="a_node25"><a xlink:href="compare__and__hash__utils_8h.html" target="_top" xlink:title="shad/data_structures\l/compare_and_hash_utils.h">
<polygon fill="white" stroke="black" points="1248.85,-329 1248.85,-359 1384.85,-359 1384.85,-329 1248.85,-329"/>
<text text-anchor="start" x="1256.85" y="-347" font-family="Helvetica,sans-Serif" font-size="10.00">shad/data_structures</text>
<text text-anchor="middle" x="1316.85" y="-336" font-family="Helvetica,sans-Serif" font-size="10.00">/compare_and_hash_utils.h</text>
</a>
</g>
</g>
<!-- Node1&#45;&gt;Node25 -->
<g id="edge38" class="edge"><title>Node1&#45;&gt;Node25</title>
<path fill="none" stroke="midnightblue" d="M1127.56,-537.116C1179.5,-528.443 1244.77,-514.35 1264.85,-496 1301.26,-462.73 1312.18,-402.785 1315.45,-369.302"/>
<polygon fill="midnightblue" stroke="midnightblue" points="1318.97,-369.291 1316.3,-359.038 1311.99,-368.718 1318.97,-369.291"/>
</g>
<!-- Node28 -->
<g id="node28" class="node"><title>Node28</title>
<g id="a_node28"><a xlink:href="set_8h.html" target="_top" xlink:title="shad/data_structures\l/set.h">
<polygon fill="white" stroke="black" points="747.853,-465 747.853,-495 855.853,-495 855.853,-465 747.853,-465"/>
<text text-anchor="start" x="755.853" y="-483" font-family="Helvetica,sans-Serif" font-size="10.00">shad/data_structures</text>
<text text-anchor="middle" x="801.853" y="-472" font-family="Helvetica,sans-Serif" font-size="10.00">/set.h</text>
</a>
</g>
</g>
<!-- Node1&#45;&gt;Node28 -->
<g id="edge48" class="edge"><title>Node1&#45;&gt;Node28</title>
<path fill="none" stroke="midnightblue" d="M1003.25,-532.922C963.009,-522.548 908.152,-508.405 865.852,-497.5"/>
<polygon fill="midnightblue" stroke="midnightblue" points="866.491,-494.05 855.934,-494.943 864.744,-500.828 866.491,-494.05"/>
</g>
<!-- Node4 -->
<g id="node4" class="node"><title>Node4</title>
<polygon fill="white" stroke="#bfbfbf" points="204.353,-198.5 204.353,-217.5 251.353,-217.5 251.353,-198.5 204.353,-198.5"/>
<text text-anchor="middle" x="227.853" y="-205.5" font-family="Helvetica,sans-Serif" font-size="10.00">iterator</text>
</g>
<!-- Node3&#45;&gt;Node4 -->
<g id="edge3" class="edge"><title>Node3&#45;&gt;Node4</title>
<path fill="none" stroke="midnightblue" d="M212.903,-334.208C215.469,-312.722 222.102,-257.167 225.607,-227.814"/>
<polygon fill="midnightblue" stroke="midnightblue" points="229.11,-227.995 226.82,-217.65 222.159,-227.165 229.11,-227.995"/>
</g>
<!-- Node5 -->
<g id="node5" class="node"><title>Node5</title>
<polygon fill="white" stroke="#bfbfbf" points="253.853,-130.5 253.853,-149.5 305.853,-149.5 305.853,-130.5 253.853,-130.5"/>
<text text-anchor="middle" x="279.853" y="-137.5" font-family="Helvetica,sans-Serif" font-size="10.00">memory</text>
</g>
<!-- Node3&#45;&gt;Node5 -->
<g id="edge4" class="edge"><title>Node3&#45;&gt;Node5</title>
<path fill="none" stroke="midnightblue" d="M206.568,-334.43C192.358,-310.184 156.282,-239.766 184.853,-192 197.628,-170.642 222.755,-157.713 243.96,-150.219"/>
<polygon fill="midnightblue" stroke="midnightblue" points="245.25,-153.479 253.675,-147.055 243.082,-146.824 245.25,-153.479"/>
</g>
<!-- Node6 -->
<g id="node6" class="node"><title>Node6</title>
<g id="a_node6"><a xlink:href="runtime_8h.html" target="_top" xlink:title="shad/runtime/runtime.h">
<polygon fill="white" stroke="black" points="534.853,-266.5 534.853,-285.5 650.853,-285.5 650.853,-266.5 534.853,-266.5"/>
<text text-anchor="middle" x="592.853" y="-273.5" font-family="Helvetica,sans-Serif" font-size="10.00">shad/runtime/runtime.h</text>
</a>
</g>
</g>
<!-- Node3&#45;&gt;Node6 -->
<g id="edge5" class="edge"><title>Node3&#45;&gt;Node6</title>
<path fill="none" stroke="midnightblue" d="M261.272,-334.439C331.077,-322.347 458.381,-300.294 533.309,-287.315"/>
<polygon fill="midnightblue" stroke="midnightblue" points="534.267,-290.701 543.522,-285.546 533.072,-283.804 534.267,-290.701"/>
</g>
<!-- Node6&#45;&gt;Node4 -->
<g id="edge10" class="edge"><title>Node6&#45;&gt;Node4</title>
<path fill="none" stroke="midnightblue" d="M542.677,-266.462C484.991,-256.572 387.49,-239.632 303.853,-224 289.98,-221.407 274.709,-218.419 261.518,-215.796"/>
<polygon fill="midnightblue" stroke="midnightblue" points="261.943,-212.312 251.451,-213.785 260.572,-219.176 261.943,-212.312"/>
</g>
<!-- Node6&#45;&gt;Node5 -->
<g id="edge12" class="edge"><title>Node6&#45;&gt;Node5</title>
<path fill="none" stroke="midnightblue" d="M540.936,-266.485C472.421,-254.938 358.497,-234.547 341.853,-224 316.741,-208.086 298.21,-178.12 288.231,-158.883"/>
<polygon fill="midnightblue" stroke="midnightblue" points="291.258,-157.109 283.69,-149.694 284.982,-160.21 291.258,-157.109"/>
</g>
<!-- Node7 -->
<g id="node7" class="node"><title>Node7</title>
<polygon fill="white" stroke="#bfbfbf" points="520.353,-130.5 520.353,-149.5 569.353,-149.5 569.353,-130.5 520.353,-130.5"/>
<text text-anchor="middle" x="544.853" y="-137.5" font-family="Helvetica,sans-Serif" font-size="10.00">cstddef</text>
</g>
<!-- Node6&#45;&gt;Node7 -->
<g id="edge6" class="edge"><title>Node6&#45;&gt;Node7</title>
<path fill="none" stroke="midnightblue" d="M554.415,-266.441C516.682,-257.168 463.06,-241.354 450.853,-224 442.671,-212.367 443.58,-204.222 450.853,-192 454.701,-185.535 491.362,-166.81 517.741,-153.943"/>
<polygon fill="midnightblue" stroke="midnightblue" points="519.439,-157.009 526.914,-149.501 516.388,-150.709 519.439,-157.009"/>
</g>
<!-- Node8 -->
<g id="node8" class="node"><title>Node8</title>
<polygon fill="white" stroke="#bfbfbf" points="910.853,-62.5 910.853,-81.5 956.853,-81.5 956.853,-62.5 910.853,-62.5"/>
<text text-anchor="middle" x="933.853" y="-69.5" font-family="Helvetica,sans-Serif" font-size="10.00">cstdint</text>
</g>
<!-- Node6&#45;&gt;Node8 -->
<g id="edge7" class="edge"><title>Node6&#45;&gt;Node8</title>
<path fill="none" stroke="midnightblue" d="M632.025,-266.498C642.657,-264.283 654.18,-261.968 664.853,-260 714.434,-250.856 850.958,-257.254 888.853,-224 927.491,-190.094 933.652,-124.599 934.196,-92.1628"/>
<polygon fill="midnightblue" stroke="midnightblue" points="937.696,-91.8267 934.192,-81.828 930.696,-91.8294 937.696,-91.8267"/>
</g>
<!-- Node9 -->
<g id="node9" class="node"><title>Node9</title>
<polygon fill="white" stroke="#bfbfbf" points="1188.35,-198.5 1188.35,-217.5 1247.35,-217.5 1247.35,-198.5 1188.35,-198.5"/>
<text text-anchor="middle" x="1217.85" y="-205.5" font-family="Helvetica,sans-Serif" font-size="10.00">functional</text>
</g>
<!-- Node6&#45;&gt;Node9 -->
<g id="edge8" class="edge"><title>Node6&#45;&gt;Node9</title>
<path fill="none" stroke="midnightblue" d="M651.069,-266.718C668.942,-264.343 688.686,-261.888 706.853,-260 915.673,-238.298 972.857,-269.309 1177.85,-224 1181.36,-223.224 1184.98,-222.204 1188.53,-221.061"/>
<polygon fill="midnightblue" stroke="midnightblue" points="1190,-224.255 1198.25,-217.61 1187.66,-217.658 1190,-224.255"/>
</g>
<!-- Node10 -->
<g id="node10" class="node"><title>Node10</title>
<polygon fill="white" stroke="#bfbfbf" points="609.853,-198.5 609.853,-217.5 663.853,-217.5 663.853,-198.5 609.853,-198.5"/>
<text text-anchor="middle" x="636.853" y="-205.5" font-family="Helvetica,sans-Serif" font-size="10.00">iostream</text>
</g>
<!-- Node6&#45;&gt;Node10 -->
<g id="edge9" class="edge"><title>Node6&#45;&gt;Node10</title>
<path fill="none" stroke="midnightblue" d="M598.606,-266.372C605.354,-256.25 616.71,-239.215 625.299,-226.331"/>
<polygon fill="midnightblue" stroke="midnightblue" points="628.324,-228.103 630.959,-217.841 622.5,-224.22 628.324,-228.103"/>
</g>
<!-- Node11 -->
<g id="node11" class="node"><title>Node11</title>
<polygon fill="white" stroke="#bfbfbf" points="682.353,-198.5 682.353,-217.5 717.353,-217.5 717.353,-198.5 682.353,-198.5"/>
<text text-anchor="middle" x="699.853" y="-205.5" font-family="Helvetica,sans-Serif" font-size="10.00">map</text>
</g>
<!-- Node6&#45;&gt;Node11 -->
<g id="edge11" class="edge"><title>Node6&#45;&gt;Node11</title>
<path fill="none" stroke="midnightblue" d="M606.842,-266.372C624.705,-255.353 655.846,-236.145 677.133,-223.014"/>
<polygon fill="midnightblue" stroke="midnightblue" points="679.188,-225.859 685.862,-217.63 675.513,-219.901 679.188,-225.859"/>
</g>
<!-- Node12 -->
<g id="node12" class="node"><title>Node12</title>
<polygon fill="white" stroke="#bfbfbf" points="735.853,-198.5 735.853,-217.5 765.853,-217.5 765.853,-198.5 735.853,-198.5"/>
<text text-anchor="middle" x="750.853" y="-205.5" font-family="Helvetica,sans-Serif" font-size="10.00">set</text>
</g>
<!-- Node6&#45;&gt;Node12 -->
<g id="edge13" class="edge"><title>Node6&#45;&gt;Node12</title>
<path fill="none" stroke="midnightblue" d="M619.165,-266.432C646.414,-257.21 689.948,-241.49 725.853,-224 726.832,-223.523 727.822,-223.021 728.815,-222.501"/>
<polygon fill="midnightblue" stroke="midnightblue" points="730.615,-225.504 737.599,-217.537 727.171,-219.41 730.615,-225.504"/>
</g>
<!-- Node13 -->
<g id="node13" class="node"><title>Node13</title>
<polygon fill="white" stroke="#bfbfbf" points="783.853,-198.5 783.853,-217.5 861.853,-217.5 861.853,-198.5 783.853,-198.5"/>
<text text-anchor="middle" x="822.853" y="-205.5" font-family="Helvetica,sans-Serif" font-size="10.00">unordered_set</text>
</g>
<!-- Node6&#45;&gt;Node13 -->
<g id="edge14" class="edge"><title>Node6&#45;&gt;Node13</title>
<path fill="none" stroke="midnightblue" d="M623.981,-266.457C660.092,-256.495 721.388,-239.42 773.853,-224 777.681,-222.875 781.671,-221.684 785.65,-220.484"/>
<polygon fill="midnightblue" stroke="midnightblue" points="786.864,-223.773 795.415,-217.518 784.83,-217.076 786.864,-223.773"/>
</g>
<!-- Node14 -->
<g id="node14" class="node"><title>Node14</title>
<polygon fill="white" stroke="#bfbfbf" points="46.8533,-198.5 46.8533,-217.5 86.8533,-217.5 86.8533,-198.5 46.8533,-198.5"/>
<text text-anchor="middle" x="66.8533" y="-205.5" font-family="Helvetica,sans-Serif" font-size="10.00">utility</text>
</g>
<!-- Node6&#45;&gt;Node14 -->
<g id="edge15" class="edge"><title>Node6&#45;&gt;Node14</title>
<path fill="none" stroke="midnightblue" d="M534.805,-267.716C423.093,-253.699 181.763,-223.418 97.0165,-212.785"/>
<polygon fill="midnightblue" stroke="midnightblue" points="97.3823,-209.303 87.0243,-211.531 96.5108,-216.249 97.3823,-209.303"/>
</g>
<!-- Node15 -->
<g id="node15" class="node"><title>Node15</title>
<polygon fill="white" stroke="#bfbfbf" points="1125.85,-198.5 1125.85,-217.5 1169.85,-217.5 1169.85,-198.5 1125.85,-198.5"/>
<text text-anchor="middle" x="1147.85" y="-205.5" font-family="Helvetica,sans-Serif" font-size="10.00">vector</text>
</g>
<!-- Node6&#45;&gt;Node15 -->
<g id="edge16" class="edge"><title>Node6&#45;&gt;Node15</title>
<path fill="none" stroke="midnightblue" d="M629.325,-266.479C640.657,-264.08 653.226,-261.673 664.853,-260 862.132,-231.62 918.142,-270.907 1111.85,-224 1114.85,-223.274 1117.92,-222.333 1120.94,-221.274"/>
<polygon fill="midnightblue" stroke="midnightblue" points="1122.24,-224.522 1130.28,-217.618 1119.69,-218.004 1122.24,-224.522"/>
</g>
<!-- Node16 -->
<g id="node16" class="node"><title>Node16</title>
<polygon fill="white" stroke="#bfbfbf" points="842.853,-0.5 842.853,-19.5 946.853,-19.5 946.853,-0.5 842.853,-0.5"/>
<text text-anchor="middle" x="894.853" y="-7.5" font-family="Helvetica,sans-Serif" font-size="10.00">shad/config/config.h</text>
</g>
<!-- Node6&#45;&gt;Node16 -->
<g id="edge17" class="edge"><title>Node6&#45;&gt;Node16</title>
<path fill="none" stroke="midnightblue" d="M624.205,-266.432C633.961,-264.032 644.797,-261.635 654.853,-260 701.412,-252.432 1045.94,-258.74 1077.85,-224 1127.79,-169.628 1117.6,-167.916 989.853,-56 973.137,-41.3557 950.829,-30.4612 932.03,-23.0627"/>
<polygon fill="midnightblue" stroke="midnightblue" points="933.16,-19.7484 922.568,-19.5111 930.7,-26.302 933.16,-19.7484"/>
</g>
<!-- Node17 -->
<g id="node17" class="node"><title>Node17</title>
<g id="a_node17"><a xlink:href="handle_8h.html" target="_top" xlink:title="shad/runtime/handle.h">
<polygon fill="white" stroke="black" points="956.353,-198.5 956.353,-217.5 1069.35,-217.5 1069.35,-198.5 956.353,-198.5"/>
<text text-anchor="middle" x="1012.85" y="-205.5" font-family="Helvetica,sans-Serif" font-size="10.00">shad/runtime/handle.h</text>
</a>
</g>
</g>
<!-- Node6&#45;&gt;Node17 -->
<g id="edge18" class="edge"><title>Node6&#45;&gt;Node17</title>
<path fill="none" stroke="midnightblue" d="M631.238,-266.438C642.076,-264.175 653.9,-261.85 664.853,-260 787.266,-239.325 819.47,-244.847 941.853,-224 949.366,-222.72 957.293,-221.208 965.018,-219.644"/>
<polygon fill="midnightblue" stroke="midnightblue" points="965.925,-223.031 975.007,-217.574 964.505,-216.176 965.925,-223.031"/>
</g>
<!-- Node19 -->
<g id="node19" class="node"><title>Node19</title>
<g id="a_node19"><a xlink:href="mapping__traits_8h.html" target="_top" xlink:title="shad/runtime/mapping\l_traits.h">
<polygon fill="white" stroke="black" points="583.353,-57 583.353,-87 696.353,-87 696.353,-57 583.353,-57"/>
<text text-anchor="start" x="591.353" y="-75" font-family="Helvetica,sans-Serif" font-size="10.00">shad/runtime/mapping</text>
<text text-anchor="middle" x="639.853" y="-64" font-family="Helvetica,sans-Serif" font-size="10.00">_traits.h</text>
</a>
</g>
</g>
<!-- Node6&#45;&gt;Node19 -->
<g id="edge30" class="edge"><title>Node6&#45;&gt;Node19</title>
<path fill="none" stroke="midnightblue" d="M537.933,-266.432C504.235,-259.204 461.448,-246.326 428.853,-224 387.182,-195.456 342.689,-162.945 374.853,-124 399.522,-94.1315 502.897,-81.5702 573.002,-76.4197"/>
<polygon fill="midnightblue" stroke="midnightblue" points="573.36,-79.9033 583.091,-75.7123 572.871,-72.9204 573.36,-79.9033"/>
</g>
<!-- Node22 -->
<g id="node22" class="node"><title>Node22</title>
<g id="a_node22"><a xlink:href="locality_8h.html" target="_top" xlink:title="shad/runtime/locality.h">
<polygon fill="white" stroke="black" points="667.353,-130.5 667.353,-149.5 782.353,-149.5 782.353,-130.5 667.353,-130.5"/>
<text text-anchor="middle" x="724.853" y="-137.5" font-family="Helvetica,sans-Serif" font-size="10.00">shad/runtime/locality.h</text>
</a>
</g>
</g>
<!-- Node6&#45;&gt;Node22 -->
<g id="edge25" class="edge"><title>Node6&#45;&gt;Node22</title>
<path fill="none" stroke="midnightblue" d="M632.795,-266.439C643.217,-264.271 654.445,-261.993 664.853,-260 710.496,-251.26 840.955,-259.577 870.853,-224 901.165,-187.932 835.044,-164.328 782.15,-151.824"/>
<polygon fill="midnightblue" stroke="midnightblue" points="782.644,-148.347 772.117,-149.544 781.093,-155.173 782.644,-148.347"/>
</g>
<!-- Node23 -->
<g id="node23" class="node"><title>Node23</title>
<g id="a_node23"><a xlink:href="available__mappings_8h.html" target="_top" xlink:title="shad/runtime/mappings\l/available_mappings.h">
<polygon fill="white" stroke="black" points="383.853,-125 383.853,-155 501.853,-155 501.853,-125 383.853,-125"/>
<text text-anchor="start" x="391.853" y="-143" font-family="Helvetica,sans-Serif" font-size="10.00">shad/runtime/mappings</text>
<text text-anchor="middle" x="442.853" y="-132" font-family="Helvetica,sans-Serif" font-size="10.00">/available_mappings.h</text>
</a>
</g>
</g>
<!-- Node6&#45;&gt;Node23 -->
<g id="edge31" class="edge"><title>Node6&#45;&gt;Node23</title>
<path fill="none" stroke="midnightblue" d="M550.521,-266.45C510.518,-257.409 454.761,-241.983 441.853,-224 429.701,-207.069 431.598,-182.78 435.549,-164.849"/>
<polygon fill="midnightblue" stroke="midnightblue" points="438.948,-165.684 438.022,-155.13 432.164,-163.958 438.948,-165.684"/>
</g>
<!-- Node24 -->
<g id="node24" class="node"><title>Node24</title>
<g id="a_node24"><a xlink:href="synchronous__interface_8h.html" target="_top" xlink:title="shad/runtime/synchronous\l_interface.h">
<polygon fill="white" stroke="black" points="460.353,-193 460.353,-223 591.353,-223 591.353,-193 460.353,-193"/>
<text text-anchor="start" x="468.353" y="-211" font-family="Helvetica,sans-Serif" font-size="10.00">shad/runtime/synchronous</text>
<text text-anchor="middle" x="525.853" y="-200" font-family="Helvetica,sans-Serif" font-size="10.00">_interface.h</text>
</a>
</g>
</g>
<!-- Node6&#45;&gt;Node24 -->
<g id="edge33" class="edge"><title>Node6&#45;&gt;Node24</title>
<path fill="none" stroke="midnightblue" d="M584.094,-266.372C574.871,-257.286 559.994,-242.631 547.584,-230.407"/>
<polygon fill="midnightblue" stroke="midnightblue" points="549.83,-227.706 540.25,-223.181 544.918,-232.693 549.83,-227.706"/>
</g>
<!-- Node17&#45;&gt;Node16 -->
<g id="edge20" class="edge"><title>Node17&#45;&gt;Node16</title>
<path fill="none" stroke="midnightblue" d="M1012.21,-198.206C1010,-173.369 1000.75,-101.548 965.853,-56 955.295,-42.2215 939.221,-31.5321 925.036,-24.0358"/>
<polygon fill="midnightblue" stroke="midnightblue" points="926.576,-20.8927 916.064,-19.5704 923.457,-27.1595 926.576,-20.8927"/>
</g>
<!-- Node18 -->
<g id="node18" class="node"><title>Node18</title>
<polygon fill="white" stroke="#bfbfbf" points="1422.85,-130.5 1422.85,-149.5 1484.85,-149.5 1484.85,-130.5 1422.85,-130.5"/>
<text text-anchor="middle" x="1453.85" y="-137.5" font-family="Helvetica,sans-Serif" font-size="10.00">type_traits</text>
</g>
<!-- Node17&#45;&gt;Node18 -->
<g id="edge19" class="edge"><title>Node17&#45;&gt;Node18</title>
<path fill="none" stroke="midnightblue" d="M1069.6,-198.507C1159.66,-185.029 1333.2,-159.057 1412.5,-147.189"/>
<polygon fill="midnightblue" stroke="midnightblue" points="1413.22,-150.62 1422.59,-145.678 1412.19,-143.697 1413.22,-150.62"/>
</g>
<!-- Node17&#45;&gt;Node19 -->
<g id="edge21" class="edge"><title>Node17&#45;&gt;Node19</title>
<path fill="none" stroke="midnightblue" d="M990.567,-198.398C950.665,-183.056 864.318,-150.132 790.853,-124 758.179,-112.378 721.306,-99.9113 692.176,-90.2132"/>
<polygon fill="midnightblue" stroke="midnightblue" points="693.205,-86.8669 682.611,-87.0356 690.998,-93.5099 693.205,-86.8669"/>
</g>
<!-- Node21 -->
<g id="node21" class="node"><title>Node21</title>
<g id="a_node21"><a xlink:href="available__traits__mappings_8h.html" target="_top" xlink:title="shad/runtime/mappings\l/available_traits_mappings.h">
<polygon fill="white" stroke="black" points="752.853,-57 752.853,-87 892.853,-87 892.853,-57 752.853,-57"/>
<text text-anchor="start" x="760.853" y="-75" font-family="Helvetica,sans-Serif" font-size="10.00">shad/runtime/mappings</text>
<text text-anchor="middle" x="822.853" y="-64" font-family="Helvetica,sans-Serif" font-size="10.00">/available_traits_mappings.h</text>
</a>
</g>
</g>
<!-- Node17&#45;&gt;Node21 -->
<g id="edge24" class="edge"><title>Node17&#45;&gt;Node21</title>
<path fill="none" stroke="midnightblue" d="M1000.68,-198.414C970.795,-177.338 893.198,-122.611 851.066,-92.8974"/>
<polygon fill="midnightblue" stroke="midnightblue" points="853.08,-90.0347 842.891,-87.1315 849.045,-95.7552 853.08,-90.0347"/>
</g>
<!-- Node19&#45;&gt;Node16 -->
<g id="edge23" class="edge"><title>Node19&#45;&gt;Node16</title>
<path fill="none" stroke="midnightblue" d="M696.446,-57.6841C742.224,-46.9129 805.883,-31.9343 848.633,-21.8754"/>
<polygon fill="midnightblue" stroke="midnightblue" points="849.559,-25.2531 858.492,-19.5557 847.956,-18.4392 849.559,-25.2531"/>
</g>
<!-- Node20 -->
<g id="node20" class="node"><title>Node20</title>
<polygon fill="white" stroke="#bfbfbf" points="619.353,-0.5 619.353,-19.5 660.353,-19.5 660.353,-0.5 619.353,-0.5"/>
<text text-anchor="middle" x="639.853" y="-7.5" font-family="Helvetica,sans-Serif" font-size="10.00">string</text>
</g>
<!-- Node19&#45;&gt;Node20 -->
<g id="edge22" class="edge"><title>Node19&#45;&gt;Node20</title>
<path fill="none" stroke="midnightblue" d="M639.853,-56.7808C639.853,-48.7812 639.853,-38.6887 639.853,-30.0168"/>
<polygon fill="midnightblue" stroke="midnightblue" points="643.353,-29.7305 639.853,-19.7305 636.353,-29.7306 643.353,-29.7305"/>
</g>
<!-- Node22&#45;&gt;Node8 -->
<g id="edge26" class="edge"><title>Node22&#45;&gt;Node8</title>
<path fill="none" stroke="midnightblue" d="M760.651,-130.456C796.79,-121.42 853.956,-105.998 901.853,-88 903.706,-87.304 905.599,-86.5453 907.494,-85.7507"/>
<polygon fill="midnightblue" stroke="midnightblue" points="909.087,-88.8724 916.796,-81.6035 906.237,-82.4791 909.087,-88.8724"/>
</g>
<!-- Node22&#45;&gt;Node16 -->
<g id="edge27" class="edge"><title>Node22&#45;&gt;Node16</title>
<path fill="none" stroke="midnightblue" d="M724.206,-130.435C723.442,-113.8 724.24,-76.9226 743.853,-56 766.628,-31.7045 801.889,-20.3397 832.611,-15.1017"/>
<polygon fill="midnightblue" stroke="midnightblue" points="833.469,-18.5115 842.831,-13.5504 832.419,-11.5908 833.469,-18.5115"/>
</g>
<!-- Node22&#45;&gt;Node19 -->
<g id="edge28" class="edge"><title>Node22&#45;&gt;Node19</title>
<path fill="none" stroke="midnightblue" d="M713.741,-130.372C701.708,-121.029 682.091,-105.797 666.094,-93.375"/>
<polygon fill="midnightblue" stroke="midnightblue" points="668.162,-90.55 658.117,-87.1815 663.869,-96.079 668.162,-90.55"/>
</g>
<!-- Node22&#45;&gt;Node21 -->
<g id="edge29" class="edge"><title>Node22&#45;&gt;Node21</title>
<path fill="none" stroke="midnightblue" d="M737.665,-130.372C751.729,-120.9 774.779,-105.376 793.359,-92.8638"/>
<polygon fill="midnightblue" stroke="midnightblue" points="795.457,-95.6705 801.796,-87.1815 791.547,-89.8645 795.457,-95.6705"/>
</g>
<!-- Node23&#45;&gt;Node21 -->
<g id="edge32" class="edge"><title>Node23&#45;&gt;Node21</title>
<path fill="none" stroke="midnightblue" d="M502.152,-125.718C505.091,-125.123 508.004,-124.547 510.853,-124 589.392,-108.931 679.599,-94.4938 742.75,-84.8513"/>
<polygon fill="midnightblue" stroke="midnightblue" points="743.287,-88.3099 752.647,-83.3455 742.234,-81.3895 743.287,-88.3099"/>
</g>
<!-- Node24&#45;&gt;Node5 -->
<g id="edge36" class="edge"><title>Node24&#45;&gt;Node5</title>
<path fill="none" stroke="midnightblue" d="M473.382,-192.922C425.931,-180.192 357.329,-161.786 315.827,-150.652"/>
<polygon fill="midnightblue" stroke="midnightblue" points="316.707,-147.264 306.141,-148.053 314.893,-154.025 316.707,-147.264"/>
</g>
<!-- Node24&#45;&gt;Node7 -->
<g id="edge34" class="edge"><title>Node24&#45;&gt;Node7</title>
<path fill="none" stroke="midnightblue" d="M529.976,-192.679C532.763,-182.999 536.469,-170.123 539.486,-159.645"/>
<polygon fill="midnightblue" stroke="midnightblue" points="542.909,-160.406 542.312,-149.828 536.182,-158.47 542.909,-160.406"/>
</g>
<!-- Node24&#45;&gt;Node8 -->
<g id="edge35" class="edge"><title>Node24&#45;&gt;Node8</title>
<path fill="none" stroke="midnightblue" d="M591.696,-193.792C594.791,-193.184 597.856,-192.584 600.853,-192 685.216,-175.572 710.313,-186.001 790.853,-156 837.775,-138.522 887.146,-106.327 913.843,-87.5855"/>
<polygon fill="midnightblue" stroke="midnightblue" points="916.184,-90.2153 922.3,-81.5637 912.124,-84.5133 916.184,-90.2153"/>
</g>
<!-- Node24&#45;&gt;Node22 -->
<g id="edge37" class="edge"><title>Node24&#45;&gt;Node22</title>
<path fill="none" stroke="midnightblue" d="M568.544,-192.841C604.458,-180.93 655.221,-164.094 689.045,-152.876"/>
<polygon fill="midnightblue" stroke="midnightblue" points="690.573,-156.057 698.963,-149.587 688.369,-149.413 690.573,-156.057"/>
</g>
<!-- Node25&#45;&gt;Node2 -->
<g id="edge39" class="edge"><title>Node25&#45;&gt;Node2</title>
<path fill="none" stroke="midnightblue" d="M1277.6,-328.841C1244.71,-316.982 1198.29,-300.239 1167.19,-289.022"/>
<polygon fill="midnightblue" stroke="midnightblue" points="1168.26,-285.687 1157.66,-285.587 1165.88,-292.272 1168.26,-285.687"/>
</g>
<!-- Node25&#45;&gt;Node8 -->
<g id="edge40" class="edge"><title>Node25&#45;&gt;Node8</title>
<path fill="none" stroke="midnightblue" d="M1306.48,-328.872C1299.59,-318.955 1290.75,-305.163 1284.85,-292 1265.93,-249.771 1287.38,-225.874 1255.85,-192 1177,-107.282 1032.5,-82.6172 967.314,-75.6456"/>
<polygon fill="midnightblue" stroke="midnightblue" points="967.487,-72.1456 957.19,-74.6384 966.794,-79.1113 967.487,-72.1456"/>
</g>
<!-- Node25&#45;&gt;Node9 -->
<g id="edge42" class="edge"><title>Node25&#45;&gt;Node9</title>
<path fill="none" stroke="midnightblue" d="M1330.02,-328.835C1344.47,-311.509 1363.76,-281.799 1348.85,-260 1328.49,-230.225 1287.98,-217.832 1257.37,-212.674"/>
<polygon fill="midnightblue" stroke="midnightblue" points="1257.82,-209.202 1247.41,-211.187 1256.78,-216.125 1257.82,-209.202"/>
</g>
<!-- Node25&#45;&gt;Node15 -->
<g id="edge44" class="edge"><title>Node25&#45;&gt;Node15</title>
<path fill="none" stroke="midnightblue" d="M1298.89,-328.969C1285.82,-318.747 1267.71,-304.55 1251.85,-292 1221.9,-268.294 1187.24,-240.579 1166.46,-223.928"/>
<polygon fill="midnightblue" stroke="midnightblue" points="1168.45,-221.036 1158.46,-217.512 1164.07,-226.498 1168.45,-221.036"/>
</g>
<!-- Node25&#45;&gt;Node18 -->
<g id="edge43" class="edge"><title>Node25&#45;&gt;Node18</title>
<path fill="none" stroke="midnightblue" d="M1384.87,-334.907C1437.17,-327.122 1503.21,-313.348 1519.85,-292 1553.46,-248.9 1500.16,-186.037 1470.94,-156.909"/>
<polygon fill="midnightblue" stroke="midnightblue" points="1473.05,-154.077 1463.43,-149.632 1468.17,-159.104 1473.05,-154.077"/>
</g>
<!-- Node26 -->
<g id="node26" class="node"><title>Node26</title>
<polygon fill="white" stroke="#bfbfbf" points="1293.85,-266.5 1293.85,-285.5 1339.85,-285.5 1339.85,-266.5 1293.85,-266.5"/>
<text text-anchor="middle" x="1316.85" y="-273.5" font-family="Helvetica,sans-Serif" font-size="10.00">cstring</text>
</g>
<!-- Node25&#45;&gt;Node26 -->
<g id="edge41" class="edge"><title>Node25&#45;&gt;Node26</title>
<path fill="none" stroke="midnightblue" d="M1316.85,-328.679C1316.85,-319.101 1316.85,-306.394 1316.85,-295.977"/>
<polygon fill="midnightblue" stroke="midnightblue" points="1320.35,-295.828 1316.85,-285.828 1313.35,-295.828 1320.35,-295.828"/>
</g>
<!-- Node27 -->
<g id="node27" class="node"><title>Node27</title>
<g id="a_node27"><a xlink:href="type__traits_8h.html" target="_top" xlink:title="shad/core/type_traits.h">
<polygon fill="white" stroke="black" points="1395.85,-266.5 1395.85,-285.5 1511.85,-285.5 1511.85,-266.5 1395.85,-266.5"/>
<text text-anchor="middle" x="1453.85" y="-273.5" font-family="Helvetica,sans-Serif" font-size="10.00">shad/core/type_traits.h</text>
</a>
</g>
</g>
<!-- Node25&#45;&gt;Node27 -->
<g id="edge45" class="edge"><title>Node25&#45;&gt;Node27</title>
<path fill="none" stroke="midnightblue" d="M1346.24,-328.841C1370.05,-317.374 1403.33,-301.342 1426.55,-290.153"/>
<polygon fill="midnightblue" stroke="midnightblue" points="1428.34,-293.175 1435.83,-285.682 1425.3,-286.869 1428.34,-293.175"/>
</g>
<!-- Node27&#45;&gt;Node9 -->
<g id="edge46" class="edge"><title>Node27&#45;&gt;Node9</title>
<path fill="none" stroke="midnightblue" d="M1423,-266.372C1380.51,-254.49 1303.97,-233.084 1257.35,-220.046"/>
<polygon fill="midnightblue" stroke="midnightblue" points="1258.17,-216.641 1247.6,-217.318 1256.29,-223.382 1258.17,-216.641"/>
</g>
<!-- Node27&#45;&gt;Node18 -->
<g id="edge47" class="edge"><title>Node27&#45;&gt;Node18</title>
<path fill="none" stroke="midnightblue" d="M1453.85,-266.208C1453.85,-244.722 1453.85,-189.167 1453.85,-159.814"/>
<polygon fill="midnightblue" stroke="midnightblue" points="1457.35,-159.65 1453.85,-149.65 1450.35,-159.65 1457.35,-159.65"/>
</g>
<!-- Node28&#45;&gt;Node2 -->
<g id="edge49" class="edge"><title>Node28&#45;&gt;Node2</title>
<path fill="none" stroke="midnightblue" d="M856.072,-477.612C935.559,-474.377 1078.08,-463.633 1112.85,-428 1147.59,-392.404 1142.65,-327.7 1137.56,-295.804"/>
<polygon fill="midnightblue" stroke="midnightblue" points="1140.95,-294.884 1135.75,-285.652 1134.06,-296.111 1140.95,-294.884"/>
</g>
<!-- Node28&#45;&gt;Node6 -->
<g id="edge87" class="edge"><title>Node28&#45;&gt;Node6</title>
<path fill="none" stroke="midnightblue" d="M747.793,-470.673C688.276,-458.238 595.744,-428.455 555.853,-360 542.883,-337.743 561.51,-310.112 576.704,-293.017"/>
<polygon fill="midnightblue" stroke="midnightblue" points="579.434,-295.224 583.734,-285.541 574.334,-290.429 579.434,-295.224"/>
</g>
<!-- Node28&#45;&gt;Node9 -->
<g id="edge50" class="edge"><title>Node28&#45;&gt;Node9</title>
<path fill="none" stroke="midnightblue" d="M856.148,-477.296C939.772,-473.611 1094.84,-462.239 1136.85,-428 1199.89,-376.625 1213.87,-271.287 1216.97,-228.107"/>
<polygon fill="midnightblue" stroke="midnightblue" points="1220.48,-228.077 1217.58,-217.887 1213.49,-227.662 1220.48,-228.077"/>
</g>
<!-- Node28&#45;&gt;Node14 -->
<g id="edge52" class="edge"><title>Node28&#45;&gt;Node14</title>
<path fill="none" stroke="midnightblue" d="M747.774,-479.177C643.523,-478.45 408.062,-471.606 215.853,-428 132.049,-408.987 84.2978,-430.285 34.8533,-360 9.27985,-323.648 21.2651,-302.627 33.8533,-260 37.5655,-247.43 45.4509,-235.045 52.5827,-225.628"/>
<polygon fill="midnightblue" stroke="midnightblue" points="55.4972,-227.588 59.0287,-217.599 50.0388,-223.206 55.4972,-227.588"/>
</g>
<!-- Node28&#45;&gt;Node15 -->
<g id="edge53" class="edge"><title>Node28&#45;&gt;Node15</title>
<path fill="none" stroke="midnightblue" d="M853.013,-464.887C906.296,-447.866 989.196,-414.533 1041.85,-360 1077.09,-323.511 1066.39,-300.56 1096.85,-260 1106.58,-247.043 1119.51,-234.154 1129.91,-224.574"/>
<polygon fill="midnightblue" stroke="midnightblue" points="1132.5,-226.95 1137.61,-217.664 1127.83,-221.742 1132.5,-226.95"/>
</g>
<!-- Node28&#45;&gt;Node25 -->
<g id="edge73" class="edge"><title>Node28&#45;&gt;Node25</title>
<path fill="none" stroke="midnightblue" d="M855.897,-479.306C932.382,-478.103 1075.51,-469.779 1188.85,-428 1228.2,-413.497 1267.84,-385.184 1292.36,-365.692"/>
<polygon fill="midnightblue" stroke="midnightblue" points="1294.8,-368.214 1300.37,-359.202 1290.4,-362.774 1294.8,-368.214"/>
</g>
<!-- Node29 -->
<g id="node29" class="node"><title>Node29</title>
<polygon fill="white" stroke="#bfbfbf" points="356.853,-334.5 356.853,-353.5 394.853,-353.5 394.853,-334.5 356.853,-334.5"/>
<text text-anchor="middle" x="375.853" y="-341.5" font-family="Helvetica,sans-Serif" font-size="10.00">tuple</text>
</g>
<!-- Node28&#45;&gt;Node29 -->
<g id="edge51" class="edge"><title>Node28&#45;&gt;Node29</title>
<path fill="none" stroke="midnightblue" d="M747.624,-478.584C652.448,-476.798 460.528,-468.163 408.853,-428 388.895,-412.488 380.974,-383.078 377.853,-363.759"/>
<polygon fill="midnightblue" stroke="midnightblue" points="381.307,-363.18 376.515,-353.731 374.368,-364.106 381.307,-363.18"/>
</g>
<!-- Node30 -->
<g id="node30" class="node"><title>Node30</title>
<g id="a_node30"><a xlink:href="abstract__data__structure_8h.html" target="_top" xlink:title="shad/data_structures\l/abstract_data_structure.h">
<polygon fill="white" stroke="black" points="225.353,-397 225.353,-427 356.353,-427 356.353,-397 225.353,-397"/>
<text text-anchor="start" x="233.353" y="-415" font-family="Helvetica,sans-Serif" font-size="10.00">shad/data_structures</text>
<text text-anchor="middle" x="290.853" y="-404" font-family="Helvetica,sans-Serif" font-size="10.00">/abstract_data_structure.h</text>
</a>
</g>
</g>
<!-- Node28&#45;&gt;Node30 -->
<g id="edge54" class="edge"><title>Node28&#45;&gt;Node30</title>
<path fill="none" stroke="midnightblue" d="M747.603,-473.769C665.743,-465.607 505.857,-448.62 370.853,-428 369.557,-427.802 368.249,-427.599 366.933,-427.391"/>
<polygon fill="midnightblue" stroke="midnightblue" points="367.149,-423.879 356.714,-425.714 366.016,-430.787 367.149,-423.879"/>
</g>
<!-- Node35 -->
<g id="node35" class="node"><title>Node35</title>
<g id="a_node35"><a xlink:href="buffer_8h.html" target="_top" xlink:title="shad/data_structures\l/buffer.h">
<polygon fill="white" stroke="black" points="810.853,-397 810.853,-427 918.853,-427 918.853,-397 810.853,-397"/>
<text text-anchor="start" x="818.853" y="-415" font-family="Helvetica,sans-Serif" font-size="10.00">shad/data_structures</text>
<text text-anchor="middle" x="864.853" y="-404" font-family="Helvetica,sans-Serif" font-size="10.00">/buffer.h</text>
</a>
</g>
</g>
<!-- Node28&#45;&gt;Node35 -->
<g id="edge66" class="edge"><title>Node28&#45;&gt;Node35</title>
<path fill="none" stroke="midnightblue" d="M815.523,-464.679C823.862,-455.944 834.685,-444.605 844.068,-434.775"/>
<polygon fill="midnightblue" stroke="midnightblue" points="846.837,-436.943 851.21,-427.293 841.773,-432.11 846.837,-436.943"/>
</g>
<!-- Node37 -->
<g id="node37" class="node"><title>Node37</title>
<g id="a_node37"><a xlink:href="local__set_8h.html" target="_top" xlink:title="shad/data_structures\l/local_set.h">
<polygon fill="white" stroke="black" points="684.853,-397 684.853,-427 792.853,-427 792.853,-397 684.853,-397"/>
<text text-anchor="start" x="692.853" y="-415" font-family="Helvetica,sans-Serif" font-size="10.00">shad/data_structures</text>
<text text-anchor="middle" x="738.853" y="-404" font-family="Helvetica,sans-Serif" font-size="10.00">/local_set.h</text>
</a>
</g>
</g>
<!-- Node28&#45;&gt;Node37 -->
<g id="edge74" class="edge"><title>Node28&#45;&gt;Node37</title>
<path fill="none" stroke="midnightblue" d="M788.183,-464.679C779.845,-455.944 769.022,-444.605 759.638,-434.775"/>
<polygon fill="midnightblue" stroke="midnightblue" points="761.933,-432.11 752.497,-427.293 756.87,-436.943 761.933,-432.11"/>
</g>
<!-- Node38 -->
<g id="node38" class="node"><title>Node38</title>
<g id="a_node38"><a xlink:href="distributed__iterator__traits_8h.html" target="_top" xlink:title="shad/distributed_iterator\l_traits.h">
<polygon fill="white" stroke="black" points="329.353,-261 329.353,-291 450.353,-291 450.353,-261 329.353,-261"/>
<text text-anchor="start" x="337.353" y="-279" font-family="Helvetica,sans-Serif" font-size="10.00">shad/distributed_iterator</text>
<text text-anchor="middle" x="389.853" y="-268" font-family="Helvetica,sans-Serif" font-size="10.00">_traits.h</text>
</a>
</g>
</g>
<!-- Node28&#45;&gt;Node38 -->
<g id="edge84" class="edge"><title>Node28&#45;&gt;Node38</title>
<path fill="none" stroke="midnightblue" d="M747.667,-473.153C701.743,-466.654 635.06,-453.512 581.853,-428 511.761,-394.391 443.606,-331.494 410.551,-298.483"/>
<polygon fill="midnightblue" stroke="midnightblue" points="412.817,-295.796 403.295,-291.15 407.841,-300.72 412.817,-295.796"/>
</g>
<!-- Node30&#45;&gt;Node5 -->
<g id="edge57" class="edge"><title>Node30&#45;&gt;Node5</title>
<path fill="none" stroke="midnightblue" d="M225.261,-407.089C157.609,-401.533 58.7066,-388.642 34.8533,-360 -12.9369,-302.616 -10.877,-248.588 37.8533,-192 64.218,-161.384 182.609,-148.22 243.469,-143.394"/>
<polygon fill="midnightblue" stroke="midnightblue" points="244.07,-146.859 253.777,-142.614 243.541,-139.879 244.07,-146.859"/>
</g>
<!-- Node30&#45;&gt;Node6 -->
<g id="edge65" class="edge"><title>Node30&#45;&gt;Node6</title>
<path fill="none" stroke="midnightblue" d="M296.57,-396.743C304.903,-377.883 322.24,-345.043 347.853,-328 376.335,-309.048 462.49,-294.114 524.583,-285.426"/>
<polygon fill="midnightblue" stroke="midnightblue" points="525.285,-288.862 534.715,-284.033 524.332,-281.927 525.285,-288.862"/>
</g>
<!-- Node30&#45;&gt;Node14 -->
<g id="edge59" class="edge"><title>Node30&#45;&gt;Node14</title>
<path fill="none" stroke="midnightblue" d="M225.124,-406.083C162.052,-399.836 73.3032,-386.51 51.8533,-360 20.5888,-321.36 43.5557,-257.657 57.7988,-226.822"/>
<polygon fill="midnightblue" stroke="midnightblue" points="61.0032,-228.235 62.2037,-217.708 54.7007,-225.189 61.0032,-228.235"/>
</g>
<!-- Node30&#45;&gt;Node15 -->
<g id="edge60" class="edge"><title>Node30&#45;&gt;Node15</title>
<path fill="none" stroke="midnightblue" d="M335.581,-396.897C430.326,-366.975 643.835,-299.262 658.853,-292 681.936,-280.839 682.667,-268.51 706.853,-260 877.319,-200.02 936.397,-267.258 1111.85,-224 1114.85,-223.262 1117.91,-222.312 1120.93,-221.249"/>
<polygon fill="midnightblue" stroke="midnightblue" points="1122.24,-224.496 1130.27,-217.588 1119.69,-217.979 1122.24,-224.496"/>
</g>
<!-- Node30&#45;&gt;Node29 -->
<g id="edge58" class="edge"><title>Node30&#45;&gt;Node29</title>
<path fill="none" stroke="midnightblue" d="M309.297,-396.679C323.207,-385.879 342.242,-371.098 356.393,-360.11"/>
<polygon fill="midnightblue" stroke="midnightblue" points="358.732,-362.726 364.484,-353.828 354.438,-357.197 358.732,-362.726"/>
</g>
<!-- Node31 -->
<g id="node31" class="node"><title>Node31</title>
<polygon fill="white" stroke="#bfbfbf" points="61.3533,-334.5 61.3533,-353.5 104.353,-353.5 104.353,-334.5 61.3533,-334.5"/>
<text text-anchor="middle" x="82.8533" y="-341.5" font-family="Helvetica,sans-Serif" font-size="10.00">deque</text>
</g>
<!-- Node30&#45;&gt;Node31 -->
<g id="edge55" class="edge"><title>Node30&#45;&gt;Node31</title>
<path fill="none" stroke="midnightblue" d="M238.072,-396.922C203.799,-387.396 158.325,-374.03 118.853,-360 116.593,-359.196 114.268,-358.328 111.94,-357.428"/>
<polygon fill="midnightblue" stroke="midnightblue" points="113.095,-354.12 102.512,-353.635 110.483,-360.614 113.095,-354.12"/>
</g>
<!-- Node32 -->
<g id="node32" class="node"><title>Node32</title>
<polygon fill="white" stroke="#bfbfbf" points="270.853,-266.5 270.853,-285.5 310.853,-285.5 310.853,-266.5 270.853,-266.5"/>
<text text-anchor="middle" x="290.853" y="-273.5" font-family="Helvetica,sans-Serif" font-size="10.00">limits</text>
</g>
<!-- Node30&#45;&gt;Node32 -->
<g id="edge56" class="edge"><title>Node30&#45;&gt;Node32</title>
<path fill="none" stroke="midnightblue" d="M290.853,-396.66C290.853,-372.32 290.853,-322.933 290.853,-295.837"/>
<polygon fill="midnightblue" stroke="midnightblue" points="294.353,-295.727 290.853,-285.728 287.353,-295.728 294.353,-295.727"/>
</g>
<!-- Node33 -->
<g id="node33" class="node"><title>Node33</title>
<g id="a_node33"><a xlink:href="object__identifier_8h.html" target="_top" xlink:title="shad/data_structures\l/object_identifier.h">
<polygon fill="white" stroke="black" points="564.853,-329 564.853,-359 672.853,-359 672.853,-329 564.853,-329"/>
<text text-anchor="start" x="572.853" y="-347" font-family="Helvetica,sans-Serif" font-size="10.00">shad/data_structures</text>
<text text-anchor="middle" x="618.853" y="-336" font-family="Helvetica,sans-Serif" font-size="10.00">/object_identifier.h</text>
</a>
</g>
</g>
<!-- Node30&#45;&gt;Node33 -->
<g id="edge61" class="edge"><title>Node30&#45;&gt;Node33</title>
<path fill="none" stroke="midnightblue" d="M356.441,-397.803C414.111,-386.198 497.545,-369.41 554.764,-357.896"/>
<polygon fill="midnightblue" stroke="midnightblue" points="555.663,-361.285 564.776,-355.882 554.282,-354.423 555.663,-361.285"/>
</g>
<!-- Node33&#45;&gt;Node6 -->
<g id="edge64" class="edge"><title>Node33&#45;&gt;Node6</title>
<path fill="none" stroke="midnightblue" d="M613.212,-328.679C609.358,-318.898 604.219,-305.852 600.068,-295.315"/>
<polygon fill="midnightblue" stroke="midnightblue" points="603.253,-293.85 596.331,-285.828 596.74,-296.415 603.253,-293.85"/>
</g>
<!-- Node33&#45;&gt;Node32 -->
<g id="edge63" class="edge"><title>Node33&#45;&gt;Node32</title>
<path fill="none" stroke="midnightblue" d="M564.706,-338.814C503.856,-332.962 402.744,-319.758 319.853,-292 317.999,-291.379 316.118,-290.653 314.251,-289.861"/>
<polygon fill="midnightblue" stroke="midnightblue" points="315.752,-286.7 305.221,-285.542 312.731,-293.015 315.752,-286.7"/>
</g>
<!-- Node34 -->
<g id="node34" class="node"><title>Node34</title>
<polygon fill="white" stroke="#bfbfbf" points="715.853,-266.5 715.853,-285.5 761.853,-285.5 761.853,-266.5 715.853,-266.5"/>
<text text-anchor="middle" x="738.853" y="-273.5" font-family="Helvetica,sans-Serif" font-size="10.00">atomic</text>
</g>
<!-- Node33&#45;&gt;Node34 -->
<g id="edge62" class="edge"><title>Node33&#45;&gt;Node34</title>
<path fill="none" stroke="midnightblue" d="M644.596,-328.841C665.167,-317.528 693.816,-301.771 714.116,-290.605"/>
<polygon fill="midnightblue" stroke="midnightblue" points="715.993,-293.568 723.068,-285.682 712.619,-287.434 715.993,-293.568"/>
</g>
<!-- Node35&#45;&gt;Node2 -->
<g id="edge67" class="edge"><title>Node35&#45;&gt;Node2</title>
<path fill="none" stroke="midnightblue" d="M919.211,-401.982C955.56,-394.393 1003.56,-381.284 1041.85,-360 1073.49,-342.419 1103.27,-312.1 1119.98,-293.378"/>
<polygon fill="midnightblue" stroke="midnightblue" points="1122.76,-295.516 1126.7,-285.679 1117.49,-290.915 1122.76,-295.516"/>
</g>
<!-- Node35&#45;&gt;Node6 -->
<g id="edge72" class="edge"><title>Node35&#45;&gt;Node6</title>
<path fill="none" stroke="midnightblue" d="M839.938,-396.856C809.579,-379.809 756.549,-350.634 709.853,-328 680.891,-313.962 647.129,-299.435 623.338,-289.494"/>
<polygon fill="midnightblue" stroke="midnightblue" points="624.373,-286.134 613.795,-285.529 621.687,-292.598 624.373,-286.134"/>
</g>
<!-- Node35&#45;&gt;Node15 -->
<g id="edge70" class="edge"><title>Node35&#45;&gt;Node15</title>
<path fill="none" stroke="midnightblue" d="M882.239,-396.834C916.281,-369.318 994.469,-307.202 1063.85,-260 1083.61,-246.559 1106.89,-232.559 1123.93,-222.636"/>
<polygon fill="midnightblue" stroke="midnightblue" points="1125.78,-225.607 1132.69,-217.572 1122.28,-219.547 1125.78,-225.607"/>
</g>
<!-- Node35&#45;&gt;Node33 -->
<g id="edge71" class="edge"><title>Node35&#45;&gt;Node33</title>
<path fill="none" stroke="midnightblue" d="M812.382,-396.922C773.926,-386.605 721.577,-372.56 681.021,-361.679"/>
<polygon fill="midnightblue" stroke="midnightblue" points="681.81,-358.267 671.244,-359.056 679.996,-365.028 681.81,-358.267"/>
</g>
<!-- Node35&#45;&gt;Node34 -->
<g id="edge69" class="edge"><title>Node35&#45;&gt;Node34</title>
<path fill="none" stroke="midnightblue" d="M852.824,-396.939C838.406,-380.221 813.368,-351.612 790.853,-328 779.423,-316.013 766.077,-302.941 755.767,-293.032"/>
<polygon fill="midnightblue" stroke="midnightblue" points="757.893,-290.223 748.244,-285.845 753.057,-295.284 757.893,-290.223"/>
</g>
<!-- Node36 -->
<g id="node36" class="node"><title>Node36</title>
<polygon fill="white" stroke="#bfbfbf" points="994.853,-334.5 994.853,-353.5 1032.85,-353.5 1032.85,-334.5 994.853,-334.5"/>
<text text-anchor="middle" x="1013.85" y="-341.5" font-family="Helvetica,sans-Serif" font-size="10.00">array</text>
</g>
<!-- Node35&#45;&gt;Node36 -->
<g id="edge68" class="edge"><title>Node35&#45;&gt;Node36</title>
<path fill="none" stroke="midnightblue" d="M897.402,-396.818C920.68,-386.645 952.736,-372.571 980.853,-360 982.433,-359.294 984.055,-358.566 985.69,-357.83"/>
<polygon fill="midnightblue" stroke="midnightblue" points="987.356,-360.918 995.024,-353.607 984.471,-354.54 987.356,-360.918"/>
</g>
<!-- Node37&#45;&gt;Node2 -->
<g id="edge75" class="edge"><title>Node37&#45;&gt;Node2</title>
<path fill="none" stroke="midnightblue" d="M788.211,-396.936C821.401,-387.209 866.017,-373.614 904.853,-360 941.382,-347.195 949.547,-341.42 985.853,-328 1024.1,-313.863 1068.35,-298.778 1098.43,-288.713"/>
<polygon fill="midnightblue" stroke="midnightblue" points="1099.68,-291.986 1108.06,-285.501 1097.47,-285.346 1099.68,-291.986"/>
</g>
<!-- Node37&#45;&gt;Node5 -->
<g id="edge78" class="edge"><title>Node37&#45;&gt;Node5</title>
<path fill="none" stroke="midnightblue" d="M684.633,-403.606C646.556,-396.631 595.547,-383.589 555.853,-360 502.625,-328.367 512.714,-290.543 458.853,-260 398.087,-225.541 357.007,-271.574 305.853,-224 288.005,-207.401 282.328,-178.737 280.569,-159.821"/>
<polygon fill="midnightblue" stroke="midnightblue" points="284.055,-159.489 279.915,-149.736 277.07,-159.942 284.055,-159.489"/>
</g>
<!-- Node37&#45;&gt;Node6 -->
<g id="edge83" class="edge"><title>Node37&#45;&gt;Node6</title>
<path fill="none" stroke="midnightblue" d="M731.776,-396.947C722.303,-379.195 704.09,-348.496 681.853,-328 664.458,-311.966 641.15,-298.84 622.751,-289.921"/>
<polygon fill="midnightblue" stroke="midnightblue" points="624.174,-286.723 613.634,-285.647 621.203,-293.061 624.174,-286.723"/>
</g>
<!-- Node37&#45;&gt;Node9 -->
<g id="edge77" class="edge"><title>Node37&#45;&gt;Node9</title>
<path fill="none" stroke="midnightblue" d="M764.915,-396.947C797.282,-379.734 854.398,-350.138 904.853,-328 918.387,-322.062 1107.95,-250.459 1185.32,-221.268"/>
<polygon fill="midnightblue" stroke="midnightblue" points="1186.92,-224.407 1195.04,-217.603 1184.45,-217.858 1186.92,-224.407"/>
</g>
<!-- Node37&#45;&gt;Node14 -->
<g id="edge80" class="edge"><title>Node37&#45;&gt;Node14</title>
<path fill="none" stroke="midnightblue" d="M684.496,-409.152C547.535,-404.094 196.03,-388.465 151.853,-360 103.687,-328.965 80.1409,-260.523 71.2425,-227.517"/>
<polygon fill="midnightblue" stroke="midnightblue" points="74.6255,-226.618 68.7719,-217.787 67.8408,-228.341 74.6255,-226.618"/>
</g>
<!-- Node37&#45;&gt;Node15 -->
<g id="edge81" class="edge"><title>Node37&#45;&gt;Node15</title>
<path fill="none" stroke="midnightblue" d="M747.063,-396.833C765.714,-366.088 814.536,-293.334 876.853,-260 970.024,-210.162 1010.11,-252.53 1111.85,-224 1114.66,-223.212 1117.55,-222.263 1120.41,-221.231"/>
<polygon fill="midnightblue" stroke="midnightblue" points="1121.82,-224.434 1129.84,-217.51 1119.26,-217.922 1121.82,-224.434"/>
</g>
<!-- Node37&#45;&gt;Node25 -->
<g id="edge82" class="edge"><title>Node37&#45;&gt;Node25</title>
<path fill="none" stroke="midnightblue" d="M793.055,-397.604C796.023,-397.024 798.97,-396.484 801.853,-396 955.411,-370.237 1137.07,-355.983 1238.42,-349.463"/>
<polygon fill="midnightblue" stroke="midnightblue" points="1238.81,-352.945 1248.57,-348.818 1238.37,-345.959 1238.81,-352.945"/>
</g>
<!-- Node37&#45;&gt;Node29 -->
<g id="edge79" class="edge"><title>Node37&#45;&gt;Node29</title>
<path fill="none" stroke="midnightblue" d="M684.509,-401.119C606.518,-386.939 465.579,-361.314 404.913,-350.284"/>
<polygon fill="midnightblue" stroke="midnightblue" points="405.349,-346.806 394.885,-348.46 404.097,-353.693 405.349,-346.806"/>
</g>
<!-- Node37&#45;&gt;Node34 -->
<g id="edge76" class="edge"><title>Node37&#45;&gt;Node34</title>
<path fill="none" stroke="midnightblue" d="M738.853,-396.66C738.853,-372.32 738.853,-322.933 738.853,-295.837"/>
<polygon fill="midnightblue" stroke="midnightblue" points="742.353,-295.727 738.853,-285.728 735.353,-295.728 742.353,-295.727"/>
</g>
<!-- Node38&#45;&gt;Node4 -->
<g id="edge85" class="edge"><title>Node38&#45;&gt;Node4</title>
<path fill="none" stroke="midnightblue" d="M355.1,-260.841C326.451,-249.169 286.193,-232.768 258.679,-221.558"/>
<polygon fill="midnightblue" stroke="midnightblue" points="259.745,-218.214 249.163,-217.682 257.104,-224.696 259.745,-218.214"/>
</g>
<!-- Node38&#45;&gt;Node22 -->
<g id="edge86" class="edge"><title>Node38&#45;&gt;Node22</title>
<path fill="none" stroke="midnightblue" d="M329.174,-261.015C273.53,-247.903 199.11,-229.514 194.853,-224 186.162,-212.743 185.279,-202.517 194.853,-192 223.628,-160.393 535.314,-160.17 577.853,-156 603.771,-153.46 632.248,-150.575 657.18,-148.019"/>
<polygon fill="midnightblue" stroke="midnightblue" points="657.678,-151.487 667.268,-146.983 656.962,-144.523 657.678,-151.487"/>
</g>
</g>
</svg>
