<?xml version="1.0" encoding="UTF-8" standalone="no"?>
<!DOCTYPE svg PUBLIC "-//W3C//DTD SVG 1.1//EN"
 "http://www.w3.org/Graphics/SVG/1.1/DTD/svg11.dtd">
<!-- Generated by graphviz version 2.36.0 (20140111.2315)
 -->
<!-- Title: include/shad/core/impl/utils.h Pages: 1 -->
<svg width="1165pt" height="424pt"
 viewBox="0.00 0.00 1165.00 424.00" xmlns="http://www.w3.org/2000/svg" xmlns:xlink="http://www.w3.org/1999/xlink">
<g id="graph0" class="graph" transform="scale(1 1) rotate(0) translate(4 420)">
<title>include/shad/core/impl/utils.h</title>
<polygon fill="white" stroke="none" points="-4,4 -4,-420 1161,-420 1161,4 -4,4"/>
<!-- Node1 -->
<g id="node1" class="node"><title>Node1</title>
<polygon fill="#bfbfbf" stroke="black" points="131,-385 131,-415 245,-415 245,-385 131,-385"/>
<text text-anchor="start" x="139" y="-403" font-family="Helvetica,sans-Serif" font-size="10.00">include/shad/core/impl</text>
<text text-anchor="middle" x="188" y="-392" font-family="Helvetica,sans-Serif" font-size="10.00">/utils.h</text>
</g>
<!-- Node2 -->
<g id="node2" class="node"><title>Node2</title>
<polygon fill="white" stroke="#bfbfbf" points="27,-328.5 27,-347.5 83,-347.5 83,-328.5 27,-328.5"/>
<text text-anchor="middle" x="55" y="-335.5" font-family="Helvetica,sans-Serif" font-size="10.00">algorithm</text>
</g>
<!-- Node1&#45;&gt;Node2 -->
<g id="edge1" class="edge"><title>Node1&#45;&gt;Node2</title>
<path fill="none" stroke="midnightblue" d="M156.817,-384.933C134.579,-374.9 104.918,-361.519 83.3484,-351.789"/>
<polygon fill="midnightblue" stroke="midnightblue" points="84.6181,-348.522 74.0634,-347.6 81.7395,-354.903 84.6181,-348.522"/>
</g>
<!-- Node3 -->
<g id="node3" class="node"><title>Node3</title>
<polygon fill="white" stroke="#bfbfbf" points="253.5,-198.5 253.5,-217.5 312.5,-217.5 312.5,-198.5 253.5,-198.5"/>
<text text-anchor="middle" x="283" y="-205.5" font-family="Helvetica,sans-Serif" font-size="10.00">functional</text>
</g>
<!-- Node1&#45;&gt;Node3 -->
<g id="edge2" class="edge"><title>Node1&#45;&gt;Node3</title>
<path fill="none" stroke="midnightblue" d="M239.407,-384.903C257.701,-377.138 276.381,-365.415 287,-348 309.967,-310.332 298.107,-255.613 289.438,-227.38"/>
<polygon fill="midnightblue" stroke="midnightblue" points="292.685,-226.05 286.243,-217.638 286.033,-228.231 292.685,-226.05"/>
</g>
<!-- Node4 -->
<g id="node4" class="node"><title>Node4</title>
<polygon fill="white" stroke="#bfbfbf" points="147.5,-198.5 147.5,-217.5 194.5,-217.5 194.5,-198.5 147.5,-198.5"/>
<text text-anchor="middle" x="171" y="-205.5" font-family="Helvetica,sans-Serif" font-size="10.00">iterator</text>
</g>
<!-- Node1&#45;&gt;Node4 -->
<g id="edge3" class="edge"><title>Node1&#45;&gt;Node4</title>
<path fill="none" stroke="midnightblue" d="M180.724,-384.702C176.06,-374.709 170.438,-360.896 168,-348 159.956,-305.457 164.658,-254.289 168.193,-227.47"/>
<polygon fill="midnightblue" stroke="midnightblue" points="171.659,-227.955 169.596,-217.563 164.728,-226.973 171.659,-227.955"/>
</g>
<!-- Node5 -->
<g id="node5" class="node"><title>Node5</title>
<g id="a_node5"><a xlink:href="iterator_8h.html" target="_top" xlink:title="shad/core/iterator.h">
<polygon fill="white" stroke="black" points="177.5,-328.5 177.5,-347.5 278.5,-347.5 278.5,-328.5 177.5,-328.5"/>
<text text-anchor="middle" x="228" y="-335.5" font-family="Helvetica,sans-Serif" font-size="10.00">shad/core/iterator.h</text>
</a>
</g>
</g>
<!-- Node1&#45;&gt;Node5 -->
<g id="edge4" class="edge"><title>Node1&#45;&gt;Node5</title>
<path fill="none" stroke="midnightblue" d="M197.479,-384.781C203.172,-376.242 210.454,-365.318 216.478,-356.283"/>
<polygon fill="midnightblue" stroke="midnightblue" points="219.545,-357.993 222.18,-347.731 213.72,-354.11 219.545,-357.993"/>
</g>
<!-- Node7 -->
<g id="node7" class="node"><title>Node7</title>
<g id="a_node7"><a xlink:href="runtime_8h.html" target="_top" xlink:title="shad/runtime/runtime.h">
<polygon fill="white" stroke="black" points="585,-266.5 585,-285.5 701,-285.5 701,-266.5 585,-266.5"/>
<text text-anchor="middle" x="643" y="-273.5" font-family="Helvetica,sans-Serif" font-size="10.00">shad/runtime/runtime.h</text>
</a>
</g>
</g>
<!-- Node1&#45;&gt;Node7 -->
<g id="edge44" class="edge"><title>Node1&#45;&gt;Node7</title>
<path fill="none" stroke="midnightblue" d="M240.639,-384.886C332.035,-360.38 518.243,-310.451 601.341,-288.17"/>
<polygon fill="midnightblue" stroke="midnightblue" points="602.434,-291.501 611.187,-285.53 600.622,-284.739 602.434,-291.501"/>
</g>
<!-- Node25 -->
<g id="node25" class="node"><title>Node25</title>
<g id="a_node25"><a xlink:href="distributed__iterator__traits_8h.html" target="_top" xlink:title="shad/distributed_iterator\l_traits.h">
<polygon fill="white" stroke="black" points="-0.5,-261 -0.5,-291 120.5,-291 120.5,-261 -0.5,-261"/>
<text text-anchor="start" x="7.5" y="-279" font-family="Helvetica,sans-Serif" font-size="10.00">shad/distributed_iterator</text>
<text text-anchor="middle" x="60" y="-268" font-family="Helvetica,sans-Serif" font-size="10.00">_traits.h</text>
</a>
</g>
</g>
<!-- Node1&#45;&gt;Node25 -->
<g id="edge40" class="edge"><title>Node1&#45;&gt;Node25</title>
<path fill="none" stroke="midnightblue" d="M173.066,-384.766C150.714,-363.462 108.407,-323.138 82.36,-298.312"/>
<polygon fill="midnightblue" stroke="midnightblue" points="84.4921,-295.509 74.8386,-291.143 79.6625,-300.576 84.4921,-295.509"/>
</g>
<!-- Node5&#45;&gt;Node4 -->
<g id="edge5" class="edge"><title>Node5&#45;&gt;Node4</title>
<path fill="none" stroke="midnightblue" d="M224.082,-328.202C214.804,-307.367 191.342,-254.681 178.95,-226.852"/>
<polygon fill="midnightblue" stroke="midnightblue" points="182.061,-225.234 174.795,-217.522 175.666,-228.081 182.061,-225.234"/>
</g>
<!-- Node6 -->
<g id="node6" class="node"><title>Node6</title>
<polygon fill="white" stroke="#bfbfbf" points="268,-130.5 268,-149.5 320,-149.5 320,-130.5 268,-130.5"/>
<text text-anchor="middle" x="294" y="-137.5" font-family="Helvetica,sans-Serif" font-size="10.00">memory</text>
</g>
<!-- Node5&#45;&gt;Node6 -->
<g id="edge6" class="edge"><title>Node5&#45;&gt;Node6</title>
<path fill="none" stroke="midnightblue" d="M227.066,-328.303C224.942,-304.939 221.542,-239.372 244,-192 250.772,-177.715 263.201,-165.008 273.973,-155.852"/>
<polygon fill="midnightblue" stroke="midnightblue" points="276.173,-158.573 281.765,-149.574 271.782,-153.122 276.173,-158.573"/>
</g>
<!-- Node5&#45;&gt;Node7 -->
<g id="edge7" class="edge"><title>Node5&#45;&gt;Node7</title>
<path fill="none" stroke="midnightblue" d="M278.887,-329.643C353.166,-318.904 491.458,-298.91 574.577,-286.892"/>
<polygon fill="midnightblue" stroke="midnightblue" points="575.285,-290.327 584.681,-285.432 574.283,-283.399 575.285,-290.327"/>
</g>
<!-- Node7&#45;&gt;Node3 -->
<g id="edge10" class="edge"><title>Node7&#45;&gt;Node3</title>
<path fill="none" stroke="midnightblue" d="M584.745,-268.585C520.885,-260.863 415.7,-246.11 327,-224 323.146,-223.039 319.147,-221.894 315.202,-220.669"/>
<polygon fill="midnightblue" stroke="midnightblue" points="316.212,-217.317 305.619,-217.526 314.03,-223.968 316.212,-217.317"/>
</g>
<!-- Node7&#45;&gt;Node4 -->
<g id="edge12" class="edge"><title>Node7&#45;&gt;Node4</title>
<path fill="none" stroke="midnightblue" d="M584.983,-268.975C507.146,-260.574 364.725,-244.089 244,-224 231.038,-221.843 216.871,-219.037 204.495,-216.436"/>
<polygon fill="midnightblue" stroke="midnightblue" points="205.097,-212.985 194.587,-214.318 203.634,-219.831 205.097,-212.985"/>
</g>
<!-- Node7&#45;&gt;Node6 -->
<g id="edge14" class="edge"><title>Node7&#45;&gt;Node6</title>
<path fill="none" stroke="midnightblue" d="M584.85,-275.425C525.772,-273.423 433.469,-263.412 365,-224 337.585,-208.219 315.751,-177.762 303.865,-158.456"/>
<polygon fill="midnightblue" stroke="midnightblue" points="306.818,-156.574 298.714,-149.75 300.794,-160.138 306.818,-156.574"/>
</g>
<!-- Node8 -->
<g id="node8" class="node"><title>Node8</title>
<polygon fill="white" stroke="#bfbfbf" points="547.5,-130.5 547.5,-149.5 596.5,-149.5 596.5,-130.5 547.5,-130.5"/>
<text text-anchor="middle" x="572" y="-137.5" font-family="Helvetica,sans-Serif" font-size="10.00">cstddef</text>
</g>
<!-- Node7&#45;&gt;Node8 -->
<g id="edge8" class="edge"><title>Node7&#45;&gt;Node8</title>
<path fill="none" stroke="midnightblue" d="M638.341,-266.208C626.806,-244.437 596.737,-187.686 581.356,-158.659"/>
<polygon fill="midnightblue" stroke="midnightblue" points="584.358,-156.848 576.583,-149.65 578.173,-160.125 584.358,-156.848"/>
</g>
<!-- Node9 -->
<g id="node9" class="node"><title>Node9</title>
<polygon fill="white" stroke="#bfbfbf" points="363,-62.5 363,-81.5 409,-81.5 409,-62.5 363,-62.5"/>
<text text-anchor="middle" x="386" y="-69.5" font-family="Helvetica,sans-Serif" font-size="10.00">cstdint</text>
</g>
<!-- Node7&#45;&gt;Node9 -->
<g id="edge9" class="edge"><title>Node7&#45;&gt;Node9</title>
<path fill="none" stroke="midnightblue" d="M584.942,-270.354C521.057,-263.994 424.074,-250.246 399,-224 364.694,-188.09 373.908,-123.049 381.117,-91.3537"/>
<polygon fill="midnightblue" stroke="midnightblue" points="384.518,-92.1824 383.509,-81.6357 377.72,-90.5095 384.518,-92.1824"/>
</g>
<!-- Node10 -->
<g id="node10" class="node"><title>Node10</title>
<polygon fill="white" stroke="#bfbfbf" points="709,-198.5 709,-217.5 763,-217.5 763,-198.5 709,-198.5"/>
<text text-anchor="middle" x="736" y="-205.5" font-family="Helvetica,sans-Serif" font-size="10.00">iostream</text>
</g>
<!-- Node7&#45;&gt;Node10 -->
<g id="edge11" class="edge"><title>Node7&#45;&gt;Node10</title>
<path fill="none" stroke="midnightblue" d="M655.158,-266.372C670.475,-255.502 697.024,-236.66 715.501,-223.547"/>
<polygon fill="midnightblue" stroke="midnightblue" points="717.709,-226.272 723.839,-217.63 713.658,-220.564 717.709,-226.272"/>
</g>
<!-- Node11 -->
<g id="node11" class="node"><title>Node11</title>
<polygon fill="white" stroke="#bfbfbf" points="781.5,-198.5 781.5,-217.5 816.5,-217.5 816.5,-198.5 781.5,-198.5"/>
<text text-anchor="middle" x="799" y="-205.5" font-family="Helvetica,sans-Serif" font-size="10.00">map</text>
</g>
<!-- Node7&#45;&gt;Node11 -->
<g id="edge13" class="edge"><title>Node7&#45;&gt;Node11</title>
<path fill="none" stroke="midnightblue" d="M667.655,-266.343C693.92,-256.87 736.514,-240.784 772,-224 773.145,-223.458 774.309,-222.889 775.478,-222.301"/>
<polygon fill="midnightblue" stroke="midnightblue" points="777.134,-225.385 784.328,-217.607 773.853,-219.201 777.134,-225.385"/>
</g>
<!-- Node12 -->
<g id="node12" class="node"><title>Node12</title>
<polygon fill="white" stroke="#bfbfbf" points="835,-198.5 835,-217.5 865,-217.5 865,-198.5 835,-198.5"/>
<text text-anchor="middle" x="850" y="-205.5" font-family="Helvetica,sans-Serif" font-size="10.00">set</text>
</g>
<!-- Node7&#45;&gt;Node12 -->
<g id="edge15" class="edge"><title>Node7&#45;&gt;Node12</title>
<path fill="none" stroke="midnightblue" d="M685.656,-266.442C723.254,-258.109 779.042,-243.801 825,-224 826.023,-223.559 827.054,-223.084 828.086,-222.582"/>
<polygon fill="midnightblue" stroke="midnightblue" points="830.035,-225.505 837.116,-217.624 826.666,-219.369 830.035,-225.505"/>
</g>
<!-- Node13 -->
<g id="node13" class="node"><title>Node13</title>
<polygon fill="white" stroke="#bfbfbf" points="959,-198.5 959,-217.5 1037,-217.5 1037,-198.5 959,-198.5"/>
<text text-anchor="middle" x="998" y="-205.5" font-family="Helvetica,sans-Serif" font-size="10.00">unordered_set</text>
</g>
<!-- Node7&#45;&gt;Node13 -->
<g id="edge16" class="edge"><title>Node7&#45;&gt;Node13</title>
<path fill="none" stroke="midnightblue" d="M701.261,-267.077C762.351,-258.324 860.965,-242.929 945,-224 950.003,-222.873 955.235,-221.56 960.382,-220.189"/>
<polygon fill="midnightblue" stroke="midnightblue" points="961.379,-223.544 970.089,-217.512 959.519,-216.796 961.379,-223.544"/>
</g>
<!-- Node14 -->
<g id="node14" class="node"><title>Node14</title>
<polygon fill="white" stroke="#bfbfbf" points="1055,-198.5 1055,-217.5 1095,-217.5 1095,-198.5 1055,-198.5"/>
<text text-anchor="middle" x="1075" y="-205.5" font-family="Helvetica,sans-Serif" font-size="10.00">utility</text>
</g>
<!-- Node7&#45;&gt;Node14 -->
<g id="edge17" class="edge"><title>Node7&#45;&gt;Node14</title>
<path fill="none" stroke="midnightblue" d="M701.07,-273.997C780.616,-271.208 927.145,-260.976 1046,-224 1047.91,-223.406 1049.84,-222.692 1051.75,-221.901"/>
<polygon fill="midnightblue" stroke="midnightblue" points="1053.44,-224.973 1060.97,-217.516 1050.44,-218.652 1053.44,-224.973"/>
</g>
<!-- Node15 -->
<g id="node15" class="node"><title>Node15</title>
<polygon fill="white" stroke="#bfbfbf" points="1113,-198.5 1113,-217.5 1157,-217.5 1157,-198.5 1113,-198.5"/>
<text text-anchor="middle" x="1135" y="-205.5" font-family="Helvetica,sans-Serif" font-size="10.00">vector</text>
</g>
<!-- Node7&#45;&gt;Node15 -->
<g id="edge18" class="edge"><title>Node7&#45;&gt;Node15</title>
<path fill="none" stroke="midnightblue" d="M701.354,-274.84C790.057,-273.202 963.366,-264.504 1104,-224 1106.19,-223.368 1108.42,-222.591 1110.63,-221.726"/>
<polygon fill="midnightblue" stroke="midnightblue" points="1112.26,-224.83 1119.96,-217.549 1109.4,-218.441 1112.26,-224.83"/>
</g>
<!-- Node16 -->
<g id="node16" class="node"><title>Node16</title>
<polygon fill="white" stroke="#bfbfbf" points="629,-0.5 629,-19.5 733,-19.5 733,-0.5 629,-0.5"/>
<text text-anchor="middle" x="681" y="-7.5" font-family="Helvetica,sans-Serif" font-size="10.00">shad/config/config.h</text>
</g>
<!-- Node7&#45;&gt;Node16 -->
<g id="edge19" class="edge"><title>Node7&#45;&gt;Node16</title>
<path fill="none" stroke="midnightblue" d="M701.094,-270.999C767.211,-265.166 869.377,-251.831 895,-224 936.222,-179.225 907.438,-148.757 911,-88 911.832,-73.8022 920.04,-66.9798 911,-56 905.604,-49.4456 809.449,-32.3051 743.193,-21.1713"/>
<polygon fill="midnightblue" stroke="midnightblue" points="743.682,-17.7046 733.242,-19.5064 742.527,-24.6086 743.682,-17.7046"/>
</g>
<!-- Node17 -->
<g id="node17" class="node"><title>Node17</title>
<g id="a_node17"><a xlink:href="handle_8h.html" target="_top" xlink:title="shad/runtime/handle.h">
<polygon fill="white" stroke="black" points="751.5,-130.5 751.5,-149.5 864.5,-149.5 864.5,-130.5 751.5,-130.5"/>
<text text-anchor="middle" x="808" y="-137.5" font-family="Helvetica,sans-Serif" font-size="10.00">shad/runtime/handle.h</text>
</a>
</g>
</g>
<!-- Node7&#45;&gt;Node17 -->
<g id="edge20" class="edge"><title>Node7&#45;&gt;Node17</title>
<path fill="none" stroke="midnightblue" d="M647.114,-266.11C655.158,-249.564 674.441,-213.752 700,-192 720.633,-174.44 748.339,-161.519 770.523,-153.077"/>
<polygon fill="midnightblue" stroke="midnightblue" points="771.779,-156.344 779.968,-149.622 769.374,-149.77 771.779,-156.344"/>
</g>
<!-- Node19 -->
<g id="node19" class="node"><title>Node19</title>
<g id="a_node19"><a xlink:href="mapping__traits_8h.html" target="_top" xlink:title="shad/runtime/mapping\l_traits.h">
<polygon fill="white" stroke="black" points="709.5,-57 709.5,-87 822.5,-87 822.5,-57 709.5,-57"/>
<text text-anchor="start" x="717.5" y="-75" font-family="Helvetica,sans-Serif" font-size="10.00">shad/runtime/mapping</text>
<text text-anchor="middle" x="766" y="-64" font-family="Helvetica,sans-Serif" font-size="10.00">_traits.h</text>
</a>
</g>
</g>
<!-- Node7&#45;&gt;Node19 -->
<g id="edge32" class="edge"><title>Node7&#45;&gt;Node19</title>
<path fill="none" stroke="midnightblue" d="M701.243,-270.253C762.167,-263.937 851.848,-250.356 873,-224 900.818,-189.338 896.721,-161.585 873,-124 863.497,-108.944 848.196,-98.239 832.101,-90.6644"/>
<polygon fill="midnightblue" stroke="midnightblue" points="833.139,-87.3008 822.571,-86.5571 830.369,-93.7292 833.139,-87.3008"/>
</g>
<!-- Node22 -->
<g id="node22" class="node"><title>Node22</title>
<g id="a_node22"><a xlink:href="locality_8h.html" target="_top" xlink:title="shad/runtime/locality.h">
<polygon fill="white" stroke="black" points="414.5,-130.5 414.5,-149.5 529.5,-149.5 529.5,-130.5 414.5,-130.5"/>
<text text-anchor="middle" x="472" y="-137.5" font-family="Helvetica,sans-Serif" font-size="10.00">shad/runtime/locality.h</text>
</a>
</g>
</g>
<!-- Node7&#45;&gt;Node22 -->
<g id="edge27" class="edge"><title>Node7&#45;&gt;Node22</title>
<path fill="none" stroke="midnightblue" d="M633.767,-266.379C616.998,-250.869 580.197,-217.501 547,-192 529.834,-178.814 509.477,-165.083 494.307,-155.195"/>
<polygon fill="midnightblue" stroke="midnightblue" points="495.904,-152.06 485.606,-149.574 492.106,-157.94 495.904,-152.06"/>
</g>
<!-- Node23 -->
<g id="node23" class="node"><title>Node23</title>
<g id="a_node23"><a xlink:href="available__mappings_8h.html" target="_top" xlink:title="shad/runtime/mappings\l/available_mappings.h">
<polygon fill="white" stroke="black" points="615,-125 615,-155 733,-155 733,-125 615,-125"/>
<text text-anchor="start" x="623" y="-143" font-family="Helvetica,sans-Serif" font-size="10.00">shad/runtime/mappings</text>
<text text-anchor="middle" x="674" y="-132" font-family="Helvetica,sans-Serif" font-size="10.00">/available_mappings.h</text>
</a>
</g>
</g>
<!-- Node7&#45;&gt;Node23 -->
<g id="edge33" class="edge"><title>Node7&#45;&gt;Node23</title>
<path fill="none" stroke="midnightblue" d="M645.034,-266.208C649.733,-245.895 661.477,-195.132 668.483,-164.846"/>
<polygon fill="midnightblue" stroke="midnightblue" points="671.901,-165.603 670.745,-155.071 665.081,-164.025 671.901,-165.603"/>
</g>
<!-- Node24 -->
<g id="node24" class="node"><title>Node24</title>
<g id="a_node24"><a xlink:href="synchronous__interface_8h.html" target="_top" xlink:title="shad/runtime/synchronous\l_interface.h">
<polygon fill="white" stroke="black" points="407.5,-193 407.5,-223 538.5,-223 538.5,-193 407.5,-193"/>
<text text-anchor="start" x="415.5" y="-211" font-family="Helvetica,sans-Serif" font-size="10.00">shad/runtime/synchronous</text>
<text text-anchor="middle" x="473" y="-200" font-family="Helvetica,sans-Serif" font-size="10.00">_interface.h</text>
</a>
</g>
</g>
<!-- Node7&#45;&gt;Node24 -->
<g id="edge35" class="edge"><title>Node7&#45;&gt;Node24</title>
<path fill="none" stroke="midnightblue" d="M620.775,-266.372C594.972,-256.354 551.731,-239.566 518.671,-226.731"/>
<polygon fill="midnightblue" stroke="midnightblue" points="519.794,-223.413 509.205,-223.056 517.261,-229.938 519.794,-223.413"/>
</g>
<!-- Node17&#45;&gt;Node16 -->
<g id="edge22" class="edge"><title>Node17&#45;&gt;Node16</title>
<path fill="none" stroke="midnightblue" d="M772.28,-130.442C748.759,-123.01 719.078,-109.901 701,-88 687.427,-71.5567 682.951,-46.9445 681.536,-29.995"/>
<polygon fill="midnightblue" stroke="midnightblue" points="685.013,-29.4733 680.971,-19.6795 678.023,-29.8558 685.013,-29.4733"/>
</g>
<!-- Node18 -->
<g id="node18" class="node"><title>Node18</title>
<polygon fill="white" stroke="#bfbfbf" points="841,-62.5 841,-81.5 903,-81.5 903,-62.5 841,-62.5"/>
<text text-anchor="middle" x="872" y="-69.5" font-family="Helvetica,sans-Serif" font-size="10.00">type_traits</text>
</g>
<!-- Node17&#45;&gt;Node18 -->
<g id="edge21" class="edge"><title>Node17&#45;&gt;Node18</title>
<path fill="none" stroke="midnightblue" d="M816.367,-130.372C826.468,-119.955 843.668,-102.217 856.275,-89.2162"/>
<polygon fill="midnightblue" stroke="midnightblue" points="858.978,-91.4567 863.427,-81.8411 853.953,-86.5836 858.978,-91.4567"/>
</g>
<!-- Node17&#45;&gt;Node19 -->
<g id="edge23" class="edge"><title>Node17&#45;&gt;Node19</title>
<path fill="none" stroke="midnightblue" d="M802.509,-130.372C796.945,-121.629 788.1,-107.729 780.509,-95.8006"/>
<polygon fill="midnightblue" stroke="midnightblue" points="783.346,-93.739 775.025,-87.1815 777.441,-97.4972 783.346,-93.739"/>
</g>
<!-- Node21 -->
<g id="node21" class="node"><title>Node21</title>
<g id="a_node21"><a xlink:href="available__traits__mappings_8h.html" target="_top" xlink:title="shad/runtime/mappings\l/available_traits_mappings.h">
<polygon fill="white" stroke="black" points="513,-57 513,-87 653,-87 653,-57 513,-57"/>
<text text-anchor="start" x="521" y="-75" font-family="Helvetica,sans-Serif" font-size="10.00">shad/runtime/mappings</text>
<text text-anchor="middle" x="583" y="-64" font-family="Helvetica,sans-Serif" font-size="10.00">/available_traits_mappings.h</text>
</a>
</g>
</g>
<!-- Node17&#45;&gt;Node21 -->
<g id="edge26" class="edge"><title>Node17&#45;&gt;Node21</title>
<path fill="none" stroke="midnightblue" d="M778.585,-130.372C743.701,-120.139 684.736,-102.842 640.65,-89.9105"/>
<polygon fill="midnightblue" stroke="midnightblue" points="641.5,-86.5125 630.919,-87.0562 639.529,-93.2295 641.5,-86.5125"/>
</g>
<!-- Node19&#45;&gt;Node16 -->
<g id="edge25" class="edge"><title>Node19&#45;&gt;Node16</title>
<path fill="none" stroke="midnightblue" d="M745.856,-56.7808C732.405,-47.2862 714.778,-34.8434 701.296,-25.3267"/>
<polygon fill="midnightblue" stroke="midnightblue" points="703.309,-22.4632 693.121,-19.5557 699.272,-28.182 703.309,-22.4632"/>
</g>
<!-- Node20 -->
<g id="node20" class="node"><title>Node20</title>
<polygon fill="white" stroke="#bfbfbf" points="751.5,-0.5 751.5,-19.5 792.5,-19.5 792.5,-0.5 751.5,-0.5"/>
<text text-anchor="middle" x="772" y="-7.5" font-family="Helvetica,sans-Serif" font-size="10.00">string</text>
</g>
<!-- Node19&#45;&gt;Node20 -->
<g id="edge24" class="edge"><title>Node19&#45;&gt;Node20</title>
<path fill="none" stroke="midnightblue" d="M767.422,-56.7808C768.231,-48.6913 769.254,-38.4617 770.127,-29.725"/>
<polygon fill="midnightblue" stroke="midnightblue" points="773.614,-30.0292 771.127,-19.7305 766.649,-29.3326 773.614,-30.0292"/>
</g>
<!-- Node22&#45;&gt;Node9 -->
<g id="edge28" class="edge"><title>Node22&#45;&gt;Node9</title>
<path fill="none" stroke="midnightblue" d="M460.757,-130.372C446.722,-119.6 422.488,-101.002 405.424,-87.9065"/>
<polygon fill="midnightblue" stroke="midnightblue" points="407.31,-84.9421 397.246,-81.6305 403.048,-90.4953 407.31,-84.9421"/>
</g>
<!-- Node22&#45;&gt;Node16 -->
<g id="edge29" class="edge"><title>Node22&#45;&gt;Node16</title>
<path fill="none" stroke="midnightblue" d="M472.779,-130.253C474.769,-113.298 481.592,-75.8878 504,-56 535.213,-28.297 581.121,-17.1853 618.361,-12.9273"/>
<polygon fill="midnightblue" stroke="midnightblue" points="619.014,-16.3795 628.616,-11.9 618.317,-9.41438 619.014,-16.3795"/>
</g>
<!-- Node22&#45;&gt;Node19 -->
<g id="edge30" class="edge"><title>Node22&#45;&gt;Node19</title>
<path fill="none" stroke="midnightblue" d="M510.134,-130.439C558.014,-119.691 640.952,-101.072 699.399,-87.9512"/>
<polygon fill="midnightblue" stroke="midnightblue" points="700.295,-91.3373 709.285,-85.7319 698.761,-84.5073 700.295,-91.3373"/>
</g>
<!-- Node22&#45;&gt;Node21 -->
<g id="edge31" class="edge"><title>Node22&#45;&gt;Node21</title>
<path fill="none" stroke="midnightblue" d="M486.511,-130.372C502.657,-120.771 529.26,-104.954 550.447,-92.3559"/>
<polygon fill="midnightblue" stroke="midnightblue" points="552.343,-95.3006 559.149,-87.1815 548.765,-89.2839 552.343,-95.3006"/>
</g>
<!-- Node23&#45;&gt;Node21 -->
<g id="edge34" class="edge"><title>Node23&#45;&gt;Node21</title>
<path fill="none" stroke="midnightblue" d="M654.254,-124.679C641.527,-115.449 624.792,-103.311 610.739,-93.1181"/>
<polygon fill="midnightblue" stroke="midnightblue" points="612.544,-90.1042 602.394,-87.0663 608.435,-95.7708 612.544,-90.1042"/>
</g>
<!-- Node24&#45;&gt;Node6 -->
<g id="edge38" class="edge"><title>Node24&#45;&gt;Node6</title>
<path fill="none" stroke="midnightblue" d="M434.6,-192.841C402.574,-181.033 357.42,-164.384 327,-153.168"/>
<polygon fill="midnightblue" stroke="midnightblue" points="327.882,-149.762 317.289,-149.587 325.46,-156.33 327.882,-149.762"/>
</g>
<!-- Node24&#45;&gt;Node8 -->
<g id="edge36" class="edge"><title>Node24&#45;&gt;Node8</title>
<path fill="none" stroke="midnightblue" d="M494.482,-192.679C511.084,-181.611 533.956,-166.363 550.55,-155.3"/>
<polygon fill="midnightblue" stroke="midnightblue" points="552.664,-158.097 559.043,-149.638 548.781,-152.273 552.664,-158.097"/>
</g>
<!-- Node24&#45;&gt;Node9 -->
<g id="edge37" class="edge"><title>Node24&#45;&gt;Node9</title>
<path fill="none" stroke="midnightblue" d="M446.504,-192.835C432.456,-184.02 416.068,-171.424 406,-156 393.239,-136.451 388.61,-109.54 386.937,-91.7251"/>
<polygon fill="midnightblue" stroke="midnightblue" points="390.41,-91.2264 386.208,-81.5005 383.428,-91.724 390.41,-91.2264"/>
</g>
<!-- Node24&#45;&gt;Node22 -->
<g id="edge39" class="edge"><title>Node24&#45;&gt;Node22</title>
<path fill="none" stroke="midnightblue" d="M472.783,-192.679C472.638,-183.101 472.445,-170.394 472.288,-159.977"/>
<polygon fill="midnightblue" stroke="midnightblue" points="475.785,-159.774 472.134,-149.828 468.786,-159.88 475.785,-159.774"/>
</g>
<!-- Node25&#45;&gt;Node4 -->
<g id="edge42" class="edge"><title>Node25&#45;&gt;Node4</title>
<path fill="none" stroke="midnightblue" d="M83.8123,-260.841C102.668,-249.63 128.861,-234.056 147.607,-222.91"/>
<polygon fill="midnightblue" stroke="midnightblue" points="149.592,-225.801 156.399,-217.682 146.014,-219.784 149.592,-225.801"/>
</g>
<!-- Node25&#45;&gt;Node22 -->
<g id="edge43" class="edge"><title>Node25&#45;&gt;Node22</title>
<path fill="none" stroke="midnightblue" d="M68.8486,-260.819C81.592,-241.729 107.02,-208.286 138,-192 161.115,-179.849 313.683,-159.925 404.423,-148.922"/>
<polygon fill="midnightblue" stroke="midnightblue" points="404.849,-152.396 414.357,-147.723 404.01,-145.447 404.849,-152.396"/>
</g>
<!-- Node26 -->
<g id="node26" class="node"><title>Node26</title>
<polygon fill="white" stroke="#bfbfbf" points="35.5,-198.5 35.5,-217.5 84.5,-217.5 84.5,-198.5 35.5,-198.5"/>
<text text-anchor="middle" x="60" y="-205.5" font-family="Helvetica,sans-Serif" font-size="10.00">cassert</text>
</g>
<!-- Node25&#45;&gt;Node26 -->
<g id="edge41" class="edge"><title>Node25&#45;&gt;Node26</title>
<path fill="none" stroke="midnightblue" d="M60,-260.679C60,-251.101 60,-238.394 60,-227.977"/>
<polygon fill="midnightblue" stroke="midnightblue" points="63.5001,-227.828 60,-217.828 56.5001,-227.828 63.5001,-227.828"/>
</g>
</g>
</svg>
