<?xml version="1.0" encoding="UTF-8" standalone="no"?>
<!DOCTYPE svg PUBLIC "-//W3C//DTD SVG 1.1//EN"
 "http://www.w3.org/Graphics/SVG/1.1/DTD/svg11.dtd">
<!-- Generated by graphviz version 2.36.0 (20140111.2315)
 -->
<!-- Title: include/shad/core/impl/utils.h Pages: 1 -->
<svg width="1123pt" height="424pt"
 viewBox="0.00 0.00 1123.00 424.00" xmlns="http://www.w3.org/2000/svg" xmlns:xlink="http://www.w3.org/1999/xlink">
<g id="graph0" class="graph" transform="scale(1 1) rotate(0) translate(4 420)">
<title>include/shad/core/impl/utils.h</title>
<polygon fill="white" stroke="none" points="-4,4 -4,-420 1119,-420 1119,4 -4,4"/>
<!-- Node1 -->
<g id="node1" class="node"><title>Node1</title>
<polygon fill="#bfbfbf" stroke="black" points="147,-385 147,-415 261,-415 261,-385 147,-385"/>
<text text-anchor="start" x="155" y="-403" font-family="Helvetica,sans-Serif" font-size="10.00">include/shad/core/impl</text>
<text text-anchor="middle" x="204" y="-392" font-family="Helvetica,sans-Serif" font-size="10.00">/utils.h</text>
</g>
<!-- Node2 -->
<g id="node2" class="node"><title>Node2</title>
<polygon fill="white" stroke="#bfbfbf" points="44,-328.5 44,-347.5 100,-347.5 100,-328.5 44,-328.5"/>
<text text-anchor="middle" x="72" y="-335.5" font-family="Helvetica,sans-Serif" font-size="10.00">algorithm</text>
</g>
<!-- Node1&#45;&gt;Node2 -->
<g id="edge1" class="edge"><title>Node1&#45;&gt;Node2</title>
<path fill="none" stroke="midnightblue" d="M173.052,-384.933C150.981,-374.9 121.542,-361.519 100.135,-351.789"/>
<polygon fill="midnightblue" stroke="midnightblue" points="101.472,-348.552 90.9201,-347.6 98.5754,-354.924 101.472,-348.552"/>
</g>
<!-- Node3 -->
<g id="node3" class="node"><title>Node3</title>
<polygon fill="white" stroke="#bfbfbf" points="170.5,-198.5 170.5,-217.5 229.5,-217.5 229.5,-198.5 170.5,-198.5"/>
<text text-anchor="middle" x="200" y="-205.5" font-family="Helvetica,sans-Serif" font-size="10.00">functional</text>
</g>
<!-- Node1&#45;&gt;Node3 -->
<g id="edge2" class="edge"><title>Node1&#45;&gt;Node3</title>
<path fill="none" stroke="midnightblue" d="M203.699,-384.719C202.988,-350.932 201.202,-266.075 200.4,-228.004"/>
<polygon fill="midnightblue" stroke="midnightblue" points="203.895,-227.723 200.185,-217.799 196.897,-227.87 203.895,-227.723"/>
</g>
<!-- Node4 -->
<g id="node4" class="node"><title>Node4</title>
<polygon fill="white" stroke="#bfbfbf" points="105.5,-198.5 105.5,-217.5 152.5,-217.5 152.5,-198.5 105.5,-198.5"/>
<text text-anchor="middle" x="129" y="-205.5" font-family="Helvetica,sans-Serif" font-size="10.00">iterator</text>
</g>
<!-- Node1&#45;&gt;Node4 -->
<g id="edge3" class="edge"><title>Node1&#45;&gt;Node4</title>
<path fill="none" stroke="midnightblue" d="M198.363,-384.719C184.968,-350.786 151.24,-265.342 136.308,-227.514"/>
<polygon fill="midnightblue" stroke="midnightblue" points="139.4,-225.815 132.473,-217.799 132.889,-228.385 139.4,-225.815"/>
</g>
<!-- Node5 -->
<g id="node5" class="node"><title>Node5</title>
<g id="a_node5"><a xlink:href="iterator_8h.html" target="_top" xlink:title="shad/core/iterator.h">
<polygon fill="white" stroke="black" points="304.5,-328.5 304.5,-347.5 405.5,-347.5 405.5,-328.5 304.5,-328.5"/>
<text text-anchor="middle" x="355" y="-335.5" font-family="Helvetica,sans-Serif" font-size="10.00">shad/core/iterator.h</text>
</a>
</g>
</g>
<!-- Node1&#45;&gt;Node5 -->
<g id="edge4" class="edge"><title>Node1&#45;&gt;Node5</title>
<path fill="none" stroke="midnightblue" d="M239.403,-384.933C264.992,-374.765 299.238,-361.157 323.803,-351.396"/>
<polygon fill="midnightblue" stroke="midnightblue" points="325.356,-354.545 333.357,-347.6 322.771,-348.04 325.356,-354.545"/>
</g>
<!-- Node7 -->
<g id="node7" class="node"><title>Node7</title>
<g id="a_node7"><a xlink:href="runtime_8h.html" target="_top" xlink:title="shad/runtime/runtime.h">
<polygon fill="white" stroke="black" points="480,-266.5 480,-285.5 596,-285.5 596,-266.5 480,-266.5"/>
<text text-anchor="middle" x="538" y="-273.5" font-family="Helvetica,sans-Serif" font-size="10.00">shad/runtime/runtime.h</text>
</a>
</g>
</g>
<!-- Node1&#45;&gt;Node7 -->
<g id="edge45" class="edge"><title>Node1&#45;&gt;Node7</title>
<path fill="none" stroke="midnightblue" d="M261.044,-389.654C304.057,-381.538 363.985,-367.926 414,-348 452.248,-332.762 493.021,-307.44 516.969,-291.514"/>
<polygon fill="midnightblue" stroke="midnightblue" points="519.237,-294.206 525.572,-285.714 515.323,-288.402 519.237,-294.206"/>
</g>
<!-- Node25 -->
<g id="node25" class="node"><title>Node25</title>
<g id="a_node25"><a xlink:href="distributed__iterator__traits_8h.html" target="_top" xlink:title="shad/distributed_iterator\l_traits.h">
<polygon fill="white" stroke="black" points="16.5,-261 16.5,-291 137.5,-291 137.5,-261 16.5,-261"/>
<text text-anchor="start" x="24.5" y="-279" font-family="Helvetica,sans-Serif" font-size="10.00">shad/distributed_iterator</text>
<text text-anchor="middle" x="77" y="-268" font-family="Helvetica,sans-Serif" font-size="10.00">_traits.h</text>
</a>
</g>
</g>
<!-- Node1&#45;&gt;Node25 -->
<g id="edge41" class="edge"><title>Node1&#45;&gt;Node25</title>
<path fill="none" stroke="midnightblue" d="M188.933,-384.526C166.663,-363.133 124.826,-322.943 99.0872,-298.218"/>
<polygon fill="midnightblue" stroke="midnightblue" points="101.292,-295.482 91.6557,-291.079 96.4426,-300.53 101.292,-295.482"/>
</g>
<!-- Node5&#45;&gt;Node4 -->
<g id="edge5" class="edge"><title>Node5&#45;&gt;Node4</title>
<path fill="none" stroke="midnightblue" d="M339.821,-328.403C301.303,-306.588 199.53,-248.946 152.922,-222.549"/>
<polygon fill="midnightblue" stroke="midnightblue" points="154.54,-219.443 144.113,-217.56 151.09,-225.533 154.54,-219.443"/>
</g>
<!-- Node6 -->
<g id="node6" class="node"><title>Node6</title>
<polygon fill="white" stroke="#bfbfbf" points="758,-130.5 758,-149.5 810,-149.5 810,-130.5 758,-130.5"/>
<text text-anchor="middle" x="784" y="-137.5" font-family="Helvetica,sans-Serif" font-size="10.00">memory</text>
</g>
<!-- Node5&#45;&gt;Node6 -->
<g id="edge6" class="edge"><title>Node5&#45;&gt;Node6</title>
<path fill="none" stroke="midnightblue" d="M405.535,-336.818C550.893,-335.117 964.996,-321.635 1048,-224 1142.25,-113.138 1160.81,-215.84 857,-156 845.022,-153.641 831.956,-150.983 820.231,-148.567"/>
<polygon fill="midnightblue" stroke="midnightblue" points="820.836,-145.118 810.335,-146.52 819.418,-151.973 820.836,-145.118"/>
</g>
<!-- Node5&#45;&gt;Node7 -->
<g id="edge7" class="edge"><title>Node5&#45;&gt;Node7</title>
<path fill="none" stroke="midnightblue" d="M381.219,-328.403C413.018,-317.978 466.765,-300.356 502.317,-288.699"/>
<polygon fill="midnightblue" stroke="midnightblue" points="503.417,-292.022 511.829,-285.581 501.236,-285.37 503.417,-292.022"/>
</g>
<!-- Node7&#45;&gt;Node3 -->
<g id="edge10" class="edge"><title>Node7&#45;&gt;Node3</title>
<path fill="none" stroke="midnightblue" d="M479.973,-267.673C420.259,-259.496 324.808,-244.647 244,-224 240.344,-223.066 236.557,-221.973 232.807,-220.81"/>
<polygon fill="midnightblue" stroke="midnightblue" points="233.679,-217.413 223.087,-217.63 231.502,-224.066 233.679,-217.413"/>
</g>
<!-- Node7&#45;&gt;Node4 -->
<g id="edge12" class="edge"><title>Node7&#45;&gt;Node4</title>
<path fill="none" stroke="midnightblue" d="M479.7,-272.591C404.629,-268.256 270.766,-256.326 161,-224 158.716,-223.327 156.388,-222.514 154.084,-221.618"/>
<polygon fill="midnightblue" stroke="midnightblue" points="155.471,-218.404 144.905,-217.617 152.674,-224.821 155.471,-218.404"/>
</g>
<!-- Node7&#45;&gt;Node6 -->
<g id="edge14" class="edge"><title>Node7&#45;&gt;Node6</title>
<path fill="none" stroke="midnightblue" d="M596.095,-271.751C663.767,-266.61 769.46,-253.911 794,-224 808.914,-205.822 800.948,-177.413 793.087,-159.001"/>
<polygon fill="midnightblue" stroke="midnightblue" points="796.261,-157.527 788.877,-149.929 789.912,-160.473 796.261,-157.527"/>
</g>
<!-- Node8 -->
<g id="node8" class="node"><title>Node8</title>
<polygon fill="white" stroke="#bfbfbf" points="652.5,-130.5 652.5,-149.5 701.5,-149.5 701.5,-130.5 652.5,-130.5"/>
<text text-anchor="middle" x="677" y="-137.5" font-family="Helvetica,sans-Serif" font-size="10.00">cstddef</text>
</g>
<!-- Node7&#45;&gt;Node8 -->
<g id="edge8" class="edge"><title>Node7&#45;&gt;Node8</title>
<path fill="none" stroke="midnightblue" d="M547.12,-266.208C570.197,-243.961 631.16,-185.191 660.613,-156.798"/>
<polygon fill="midnightblue" stroke="midnightblue" points="663.257,-159.11 668.027,-149.65 658.398,-154.071 663.257,-159.11"/>
</g>
<!-- Node9 -->
<g id="node9" class="node"><title>Node9</title>
<polygon fill="white" stroke="#bfbfbf" points="707,-62.5 707,-81.5 753,-81.5 753,-62.5 707,-62.5"/>
<text text-anchor="middle" x="730" y="-69.5" font-family="Helvetica,sans-Serif" font-size="10.00">cstdint</text>
</g>
<!-- Node7&#45;&gt;Node9 -->
<g id="edge9" class="edge"><title>Node7&#45;&gt;Node9</title>
<path fill="none" stroke="midnightblue" d="M596.165,-272.14C667.81,-267.319 783.552,-254.865 812,-224 842.195,-191.24 841.339,-162.548 819,-124 806.953,-103.211 782.883,-90.169 762.809,-82.4826"/>
<polygon fill="midnightblue" stroke="midnightblue" points="763.941,-79.1704 753.346,-79.129 761.603,-85.7684 763.941,-79.1704"/>
</g>
<!-- Node10 -->
<g id="node10" class="node"><title>Node10</title>
<polygon fill="white" stroke="#bfbfbf" points="346,-62.5 346,-81.5 400,-81.5 400,-62.5 346,-62.5"/>
<text text-anchor="middle" x="373" y="-69.5" font-family="Helvetica,sans-Serif" font-size="10.00">iostream</text>
</g>
<!-- Node7&#45;&gt;Node10 -->
<g id="edge11" class="edge"><title>Node7&#45;&gt;Node10</title>
<path fill="none" stroke="midnightblue" d="M479.936,-268.014C427.575,-260.379 356.219,-246.189 339,-224 307.782,-183.773 341.408,-120.365 360.987,-90.134"/>
<polygon fill="midnightblue" stroke="midnightblue" points="364.078,-91.8084 366.75,-81.5559 358.268,-87.9047 364.078,-91.8084"/>
</g>
<!-- Node11 -->
<g id="node11" class="node"><title>Node11</title>
<polygon fill="white" stroke="#bfbfbf" points="956.5,-198.5 956.5,-217.5 991.5,-217.5 991.5,-198.5 956.5,-198.5"/>
<text text-anchor="middle" x="974" y="-205.5" font-family="Helvetica,sans-Serif" font-size="10.00">map</text>
</g>
<!-- Node7&#45;&gt;Node11 -->
<g id="edge13" class="edge"><title>Node7&#45;&gt;Node11</title>
<path fill="none" stroke="midnightblue" d="M596.011,-273.344C675.522,-269.805 822.149,-258.717 942,-224 944.287,-223.337 946.617,-222.531 948.923,-221.639"/>
<polygon fill="midnightblue" stroke="midnightblue" points="950.329,-224.845 958.103,-217.647 947.537,-218.425 950.329,-224.845"/>
</g>
<!-- Node12 -->
<g id="node12" class="node"><title>Node12</title>
<polygon fill="white" stroke="#bfbfbf" points="1010,-198.5 1010,-217.5 1040,-217.5 1040,-198.5 1010,-198.5"/>
<text text-anchor="middle" x="1025" y="-205.5" font-family="Helvetica,sans-Serif" font-size="10.00">set</text>
</g>
<!-- Node7&#45;&gt;Node12 -->
<g id="edge15" class="edge"><title>Node7&#45;&gt;Node12</title>
<path fill="none" stroke="midnightblue" d="M596.006,-271.698C702.84,-265.105 926.497,-248.782 1000,-224 1001.41,-223.525 1002.82,-222.961 1004.22,-222.336"/>
<polygon fill="midnightblue" stroke="midnightblue" points="1005.9,-225.408 1013.05,-217.592 1002.59,-219.242 1005.9,-225.408"/>
</g>
<!-- Node13 -->
<g id="node13" class="node"><title>Node13</title>
<polygon fill="white" stroke="#bfbfbf" points="362,-198.5 362,-217.5 440,-217.5 440,-198.5 362,-198.5"/>
<text text-anchor="middle" x="401" y="-205.5" font-family="Helvetica,sans-Serif" font-size="10.00">unordered_set</text>
</g>
<!-- Node7&#45;&gt;Node13 -->
<g id="edge16" class="edge"><title>Node7&#45;&gt;Node13</title>
<path fill="none" stroke="midnightblue" d="M520.09,-266.372C496.705,-255.106 455.55,-235.279 428.276,-222.14"/>
<polygon fill="midnightblue" stroke="midnightblue" points="429.443,-218.817 418.915,-217.63 426.405,-225.124 429.443,-218.817"/>
</g>
<!-- Node14 -->
<g id="node14" class="node"><title>Node14</title>
<polygon fill="white" stroke="#bfbfbf" points="458,-198.5 458,-217.5 498,-217.5 498,-198.5 458,-198.5"/>
<text text-anchor="middle" x="478" y="-205.5" font-family="Helvetica,sans-Serif" font-size="10.00">utility</text>
</g>
<!-- Node7&#45;&gt;Node14 -->
<g id="edge17" class="edge"><title>Node7&#45;&gt;Node14</title>
<path fill="none" stroke="midnightblue" d="M530.156,-266.372C520.775,-256.053 504.865,-238.551 493.078,-225.585"/>
<polygon fill="midnightblue" stroke="midnightblue" points="495.354,-222.886 486.037,-217.841 490.174,-227.595 495.354,-222.886"/>
</g>
<!-- Node15 -->
<g id="node15" class="node"><title>Node15</title>
<polygon fill="white" stroke="#bfbfbf" points="516,-198.5 516,-217.5 560,-217.5 560,-198.5 516,-198.5"/>
<text text-anchor="middle" x="538" y="-205.5" font-family="Helvetica,sans-Serif" font-size="10.00">vector</text>
</g>
<!-- Node7&#45;&gt;Node15 -->
<g id="edge18" class="edge"><title>Node7&#45;&gt;Node15</title>
<path fill="none" stroke="midnightblue" d="M538,-266.372C538,-256.643 538,-240.528 538,-227.85"/>
<polygon fill="midnightblue" stroke="midnightblue" points="541.5,-227.841 538,-217.841 534.5,-227.841 541.5,-227.841"/>
</g>
<!-- Node16 -->
<g id="node16" class="node"><title>Node16</title>
<polygon fill="white" stroke="#bfbfbf" points="568,-0.5 568,-19.5 672,-19.5 672,-0.5 568,-0.5"/>
<text text-anchor="middle" x="620" y="-7.5" font-family="Helvetica,sans-Serif" font-size="10.00">shad/config/config.h</text>
</g>
<!-- Node7&#45;&gt;Node16 -->
<g id="edge19" class="edge"><title>Node7&#45;&gt;Node16</title>
<path fill="none" stroke="midnightblue" d="M479.856,-269.249C422.999,-262.281 342.241,-248.339 323,-224 276.534,-165.223 284.33,-109.289 337,-56 338.946,-54.031 475.116,-33.0278 557.836,-20.4234"/>
<polygon fill="midnightblue" stroke="midnightblue" points="558.535,-23.8574 567.894,-18.892 557.481,-16.9371 558.535,-23.8574"/>
</g>
<!-- Node17 -->
<g id="node17" class="node"><title>Node17</title>
<g id="a_node17"><a xlink:href="handle_8h.html" target="_top" xlink:title="shad/runtime/handle.h">
<polygon fill="white" stroke="black" points="1002.5,-130.5 1002.5,-149.5 1115.5,-149.5 1115.5,-130.5 1002.5,-130.5"/>
<text text-anchor="middle" x="1059" y="-137.5" font-family="Helvetica,sans-Serif" font-size="10.00">shad/runtime/handle.h</text>
</a>
</g>
</g>
<!-- Node7&#45;&gt;Node17 -->
<g id="edge20" class="edge"><title>Node7&#45;&gt;Node17</title>
<path fill="none" stroke="midnightblue" d="M596.269,-273.773C668.382,-270.666 794.012,-260.012 895,-224 920.918,-214.758 923.682,-204.875 948,-192 974.939,-177.737 1006.62,-163.413 1029.22,-153.593"/>
<polygon fill="midnightblue" stroke="midnightblue" points="1030.82,-156.717 1038.62,-149.544 1028.05,-150.288 1030.82,-156.717"/>
</g>
<!-- Node19 -->
<g id="node19" class="node"><title>Node19</title>
<g id="a_node19"><a xlink:href="mapping__traits_8h.html" target="_top" xlink:title="shad/runtime/mapping\l_traits.h">
<polygon fill="white" stroke="black" points="478.5,-57 478.5,-87 591.5,-87 591.5,-57 478.5,-57"/>
<text text-anchor="start" x="486.5" y="-75" font-family="Helvetica,sans-Serif" font-size="10.00">shad/runtime/mapping</text>
<text text-anchor="middle" x="535" y="-64" font-family="Helvetica,sans-Serif" font-size="10.00">_traits.h</text>
</a>
</g>
</g>
<!-- Node7&#45;&gt;Node19 -->
<g id="edge33" class="edge"><title>Node7&#45;&gt;Node19</title>
<path fill="none" stroke="midnightblue" d="M479.755,-266.722C431.507,-258.532 368.443,-244.276 353,-224 308.899,-166.097 413.159,-115.976 481.447,-90.6272"/>
<polygon fill="midnightblue" stroke="midnightblue" points="483.036,-93.7738 491.24,-87.069 480.646,-87.1946 483.036,-93.7738"/>
</g>
<!-- Node22 -->
<g id="node22" class="node"><title>Node22</title>
<g id="a_node22"><a xlink:href="locality_8h.html" target="_top" xlink:title="shad/runtime/locality.h">
<polygon fill="white" stroke="black" points="519.5,-130.5 519.5,-149.5 634.5,-149.5 634.5,-130.5 519.5,-130.5"/>
<text text-anchor="middle" x="577" y="-137.5" font-family="Helvetica,sans-Serif" font-size="10.00">shad/runtime/locality.h</text>
</a>
</g>
</g>
<!-- Node7&#45;&gt;Node22 -->
<g id="edge27" class="edge"><title>Node7&#45;&gt;Node22</title>
<path fill="none" stroke="midnightblue" d="M544.786,-266.17C551.881,-256.425 562.703,-239.992 568,-224 574.962,-202.983 576.82,-177.497 577.186,-160.357"/>
<polygon fill="midnightblue" stroke="midnightblue" points="580.688,-160.002 577.246,-149.982 573.688,-159.962 580.688,-160.002"/>
</g>
<!-- Node23 -->
<g id="node23" class="node"><title>Node23</title>
<g id="a_node23"><a xlink:href="available__mappings_8h.html" target="_top" xlink:title="shad/runtime/mappings\l/available_mappings.h">
<polygon fill="white" stroke="black" points="866,-125 866,-155 984,-155 984,-125 866,-125"/>
<text text-anchor="start" x="874" y="-143" font-family="Helvetica,sans-Serif" font-size="10.00">shad/runtime/mappings</text>
<text text-anchor="middle" x="925" y="-132" font-family="Helvetica,sans-Serif" font-size="10.00">/available_mappings.h</text>
</a>
</g>
</g>
<!-- Node7&#45;&gt;Node23 -->
<g id="edge34" class="edge"><title>Node7&#45;&gt;Node23</title>
<path fill="none" stroke="midnightblue" d="M596.236,-271.368C678.046,-265.364 821.941,-251.228 866,-224 888.772,-209.927 905.247,-183.465 914.907,-164.192"/>
<polygon fill="midnightblue" stroke="midnightblue" points="918.081,-165.668 919.217,-155.134 911.76,-162.66 918.081,-165.668"/>
</g>
<!-- Node24 -->
<g id="node24" class="node"><title>Node24</title>
<g id="a_node24"><a xlink:href="synchronous__interface_8h.html" target="_top" xlink:title="shad/runtime/synchronous\l_interface.h">
<polygon fill="white" stroke="black" points="654.5,-193 654.5,-223 785.5,-223 785.5,-193 654.5,-193"/>
<text text-anchor="start" x="662.5" y="-211" font-family="Helvetica,sans-Serif" font-size="10.00">shad/runtime/synchronous</text>
<text text-anchor="middle" x="720" y="-200" font-family="Helvetica,sans-Serif" font-size="10.00">_interface.h</text>
</a>
</g>
</g>
<!-- Node7&#45;&gt;Node24 -->
<g id="edge36" class="edge"><title>Node7&#45;&gt;Node24</title>
<path fill="none" stroke="midnightblue" d="M561.793,-266.372C589.537,-256.311 636.109,-239.422 671.56,-226.566"/>
<polygon fill="midnightblue" stroke="midnightblue" points="673.031,-229.756 681.239,-223.056 670.645,-223.175 673.031,-229.756"/>
</g>
<!-- Node17&#45;&gt;Node16 -->
<g id="edge22" class="edge"><title>Node17&#45;&gt;Node16</title>
<path fill="none" stroke="midnightblue" d="M1062.59,-130.405C1068.93,-113.717 1079.74,-76.7522 1061,-56 1036.09,-28.4181 797.678,-16.8392 682.151,-12.817"/>
<polygon fill="midnightblue" stroke="midnightblue" points="682.149,-9.31505 672.036,-12.4733 681.912,-16.311 682.149,-9.31505"/>
</g>
<!-- Node18 -->
<g id="node18" class="node"><title>Node18</title>
<polygon fill="white" stroke="#bfbfbf" points="991,-62.5 991,-81.5 1053,-81.5 1053,-62.5 991,-62.5"/>
<text text-anchor="middle" x="1022" y="-69.5" font-family="Helvetica,sans-Serif" font-size="10.00">type_traits</text>
</g>
<!-- Node17&#45;&gt;Node18 -->
<g id="edge21" class="edge"><title>Node17&#45;&gt;Node18</title>
<path fill="none" stroke="midnightblue" d="M1054.16,-130.372C1048.54,-120.348 1039.12,-103.546 1031.93,-90.7076"/>
<polygon fill="midnightblue" stroke="midnightblue" points="1034.9,-88.8524 1026.96,-81.8411 1028.79,-92.2755 1034.9,-88.8524"/>
</g>
<!-- Node17&#45;&gt;Node19 -->
<g id="edge23" class="edge"><title>Node17&#45;&gt;Node19</title>
<path fill="none" stroke="midnightblue" d="M1024.89,-130.478C1014.68,-128.136 1003.43,-125.76 993,-124 919.441,-111.586 710.015,-90.1952 601.702,-79.4933"/>
<polygon fill="midnightblue" stroke="midnightblue" points="601.838,-75.9899 591.543,-78.4917 601.151,-82.9561 601.838,-75.9899"/>
</g>
<!-- Node21 -->
<g id="node21" class="node"><title>Node21</title>
<g id="a_node21"><a xlink:href="available__traits__mappings_8h.html" target="_top" xlink:title="shad/runtime/mappings\l/available_traits_mappings.h">
<polygon fill="white" stroke="black" points="833,-57 833,-87 973,-87 973,-57 833,-57"/>
<text text-anchor="start" x="841" y="-75" font-family="Helvetica,sans-Serif" font-size="10.00">shad/runtime/mappings</text>
<text text-anchor="middle" x="903" y="-64" font-family="Helvetica,sans-Serif" font-size="10.00">/available_traits_mappings.h</text>
</a>
</g>
</g>
<!-- Node17&#45;&gt;Node21 -->
<g id="edge26" class="edge"><title>Node17&#45;&gt;Node21</title>
<path fill="none" stroke="midnightblue" d="M1038.61,-130.372C1015.13,-120.44 975.927,-103.854 945.693,-91.0626"/>
<polygon fill="midnightblue" stroke="midnightblue" points="946.797,-87.7293 936.224,-87.0562 944.07,-94.1761 946.797,-87.7293"/>
</g>
<!-- Node19&#45;&gt;Node16 -->
<g id="edge25" class="edge"><title>Node19&#45;&gt;Node16</title>
<path fill="none" stroke="midnightblue" d="M555.144,-56.7808C568.595,-47.2862 586.222,-34.8434 599.704,-25.3267"/>
<polygon fill="midnightblue" stroke="midnightblue" points="601.728,-28.182 607.879,-19.5557 597.691,-22.4632 601.728,-28.182"/>
</g>
<!-- Node20 -->
<g id="node20" class="node"><title>Node20</title>
<polygon fill="white" stroke="#bfbfbf" points="508.5,-0.5 508.5,-19.5 549.5,-19.5 549.5,-0.5 508.5,-0.5"/>
<text text-anchor="middle" x="529" y="-7.5" font-family="Helvetica,sans-Serif" font-size="10.00">string</text>
</g>
<!-- Node19&#45;&gt;Node20 -->
<g id="edge24" class="edge"><title>Node19&#45;&gt;Node20</title>
<path fill="none" stroke="midnightblue" d="M533.578,-56.7808C532.769,-48.6913 531.746,-38.4617 530.873,-29.725"/>
<polygon fill="midnightblue" stroke="midnightblue" points="534.351,-29.3326 529.873,-19.7305 527.386,-30.0292 534.351,-29.3326"/>
</g>
<!-- Node22&#45;&gt;Node9 -->
<g id="edge28" class="edge"><title>Node22&#45;&gt;Node9</title>
<path fill="none" stroke="midnightblue" d="M597.002,-130.372C623.461,-118.958 670.293,-98.7562 700.732,-85.6252"/>
<polygon fill="midnightblue" stroke="midnightblue" points="702.197,-88.8052 709.993,-81.6305 699.425,-82.3777 702.197,-88.8052"/>
</g>
<!-- Node22&#45;&gt;Node10 -->
<g id="edge29" class="edge"><title>Node22&#45;&gt;Node10</title>
<path fill="none" stroke="midnightblue" d="M550.331,-130.372C514.189,-118.679 449.538,-97.7623 409.084,-84.6743"/>
<polygon fill="midnightblue" stroke="midnightblue" points="409.945,-81.2741 399.353,-81.5259 407.79,-87.9342 409.945,-81.2741"/>
</g>
<!-- Node22&#45;&gt;Node16 -->
<g id="edge30" class="edge"><title>Node22&#45;&gt;Node16</title>
<path fill="none" stroke="midnightblue" d="M581.542,-130.16C586.56,-120.136 594.64,-103.206 600,-88 606.872,-68.5037 612.545,-45.4843 616.072,-29.7257"/>
<polygon fill="midnightblue" stroke="midnightblue" points="619.55,-30.2029 618.247,-19.6884 612.709,-28.7202 619.55,-30.2029"/>
</g>
<!-- Node22&#45;&gt;Node19 -->
<g id="edge31" class="edge"><title>Node22&#45;&gt;Node19</title>
<path fill="none" stroke="midnightblue" d="M571.509,-130.372C565.945,-121.629 557.1,-107.729 549.509,-95.8006"/>
<polygon fill="midnightblue" stroke="midnightblue" points="552.346,-93.739 544.025,-87.1815 546.441,-97.4972 552.346,-93.739"/>
</g>
<!-- Node22&#45;&gt;Node21 -->
<g id="edge32" class="edge"><title>Node22&#45;&gt;Node21</title>
<path fill="none" stroke="midnightblue" d="M614.174,-130.498C623.872,-128.329 634.318,-126.037 644,-124 703.808,-111.419 771.589,-98.1056 822.807,-88.2372"/>
<polygon fill="midnightblue" stroke="midnightblue" points="823.663,-91.6366 832.822,-86.3106 822.341,-84.7627 823.663,-91.6366"/>
</g>
<!-- Node23&#45;&gt;Node21 -->
<g id="edge35" class="edge"><title>Node23&#45;&gt;Node21</title>
<path fill="none" stroke="midnightblue" d="M920.226,-124.679C917.516,-116.549 914.055,-106.164 910.946,-96.8389"/>
<polygon fill="midnightblue" stroke="midnightblue" points="914.247,-95.6731 907.764,-87.2931 907.606,-97.8867 914.247,-95.6731"/>
</g>
<!-- Node24&#45;&gt;Node6 -->
<g id="edge39" class="edge"><title>Node24&#45;&gt;Node6</title>
<path fill="none" stroke="midnightblue" d="M733.887,-192.679C744.064,-182.184 757.884,-167.932 768.434,-157.052"/>
<polygon fill="midnightblue" stroke="midnightblue" points="770.99,-159.444 775.439,-149.828 765.965,-154.571 770.99,-159.444"/>
</g>
<!-- Node24&#45;&gt;Node8 -->
<g id="edge37" class="edge"><title>Node24&#45;&gt;Node8</title>
<path fill="none" stroke="midnightblue" d="M710.67,-192.679C704.098,-182.592 695.264,-169.033 688.294,-158.335"/>
<polygon fill="midnightblue" stroke="midnightblue" points="691.143,-156.296 682.752,-149.828 685.278,-160.118 691.143,-156.296"/>
</g>
<!-- Node24&#45;&gt;Node9 -->
<g id="edge38" class="edge"><title>Node24&#45;&gt;Node9</title>
<path fill="none" stroke="midnightblue" d="M721.07,-192.66C722.887,-168.32 726.572,-118.933 728.594,-91.8373"/>
<polygon fill="midnightblue" stroke="midnightblue" points="732.095,-91.9603 729.349,-81.7275 725.114,-91.4393 732.095,-91.9603"/>
</g>
<!-- Node24&#45;&gt;Node22 -->
<g id="edge40" class="edge"><title>Node24&#45;&gt;Node22</title>
<path fill="none" stroke="midnightblue" d="M689.323,-192.841C664.366,-181.323 629.431,-165.199 605.175,-154.004"/>
<polygon fill="midnightblue" stroke="midnightblue" points="606.357,-150.695 595.811,-149.682 603.424,-157.05 606.357,-150.695"/>
</g>
<!-- Node25&#45;&gt;Node4 -->
<g id="edge43" class="edge"><title>Node25&#45;&gt;Node4</title>
<path fill="none" stroke="midnightblue" d="M88.2832,-260.679C96.3912,-250.388 107.346,-236.484 115.851,-225.69"/>
<polygon fill="midnightblue" stroke="midnightblue" points="118.605,-227.849 122.044,-217.828 113.106,-223.517 118.605,-227.849"/>
</g>
<!-- Node25&#45;&gt;Node22 -->
<g id="edge44" class="edge"><title>Node25&#45;&gt;Node22</title>
<path fill="none" stroke="midnightblue" d="M75.705,-260.808C74.8559,-242.022 76.5382,-209.266 96,-192 126.282,-165.134 383.849,-149.805 509.12,-143.876"/>
<polygon fill="midnightblue" stroke="midnightblue" points="509.538,-147.36 519.364,-143.398 509.212,-140.368 509.538,-147.36"/>
</g>
<!-- Node26 -->
<g id="node26" class="node"><title>Node26</title>
<polygon fill="white" stroke="#bfbfbf" points="-0.5,-198.5 -0.5,-217.5 48.5,-217.5 48.5,-198.5 -0.5,-198.5"/>
<text text-anchor="middle" x="24" y="-205.5" font-family="Helvetica,sans-Serif" font-size="10.00">cassert</text>
</g>
<!-- Node25&#45;&gt;Node26 -->
<g id="edge42" class="edge"><title>Node25&#45;&gt;Node26</title>
<path fill="none" stroke="midnightblue" d="M65.4998,-260.679C57.2359,-250.388 46.0703,-236.484 37.4023,-225.69"/>
<polygon fill="midnightblue" stroke="midnightblue" points="40.0798,-223.434 31.0894,-217.828 34.6218,-227.817 40.0798,-223.434"/>
</g>
</g>
</svg>
