<?xml version="1.0" encoding="UTF-8" standalone="no"?>
<!DOCTYPE svg PUBLIC "-//W3C//DTD SVG 1.1//EN"
 "http://www.w3.org/Graphics/SVG/1.1/DTD/svg11.dtd">
<!-- Generated by graphviz version 2.36.0 (20140111.2315)
 -->
<!-- Title: include/shad/core/impl/utils.h Pages: 1 -->
<svg width="152pt" height="164pt"
 viewBox="0.00 0.00 152.00 164.00" xmlns="http://www.w3.org/2000/svg" xmlns:xlink="http://www.w3.org/1999/xlink">
<g id="graph0" class="graph" transform="scale(1 1) rotate(0) translate(4 160)">
<title>include/shad/core/impl/utils.h</title>
<polygon fill="white" stroke="none" points="-4,4 -4,-160 148,-160 148,4 -4,4"/>
<!-- Node1 -->
<g id="node1" class="node"><title>Node1</title>
<polygon fill="#bfbfbf" stroke="black" points="15,-125 15,-155 129,-155 129,-125 15,-125"/>
<text text-anchor="start" x="23" y="-143" font-family="Helvetica,sans-Serif" font-size="10.00">include/shad/core/impl</text>
<text text-anchor="middle" x="72" y="-132" font-family="Helvetica,sans-Serif" font-size="10.00">/utils.h</text>
</g>
<!-- Node2 -->
<g id="node2" class="node"><title>Node2</title>
<g id="a_node2"><a xlink:href="modifyng__sequence__ops_8h.html" target="_top" xlink:title="include/shad/core/impl\l/modifyng_sequence_ops.h">
<polygon fill="white" stroke="black" points="4,-57 4,-87 140,-87 140,-57 4,-57"/>
<text text-anchor="start" x="12" y="-75" font-family="Helvetica,sans-Serif" font-size="10.00">include/shad/core/impl</text>
<text text-anchor="middle" x="72" y="-64" font-family="Helvetica,sans-Serif" font-size="10.00">/modifyng_sequence_ops.h</text>
</a>
</g>
</g>
<!-- Node1&#45;&gt;Node2 -->
<g id="edge1" class="edge"><title>Node1&#45;&gt;Node2</title>
<path fill="none" stroke="midnightblue" d="M72,-114.532C72,-105.361 72,-95.2449 72,-87.2931"/>
<polygon fill="midnightblue" stroke="midnightblue" points="68.5001,-114.679 72,-124.679 75.5001,-114.679 68.5001,-114.679"/>
</g>
<!-- Node3 -->
<g id="node3" class="node"><title>Node3</title>
<g id="a_node3"><a xlink:href="algorithm_8h.html" target="_top" xlink:title="include/shad/core/algorithm.h">
<polygon fill="white" stroke="black" points="0,-0.5 0,-19.5 144,-19.5 144,-0.5 0,-0.5"/>
<text text-anchor="middle" x="72" y="-7.5" font-family="Helvetica,sans-Serif" font-size="10.00">include/shad/core/algorithm.h</text>
</a>
</g>
</g>
<!-- Node2&#45;&gt;Node3 -->
<g id="edge2" class="edge"><title>Node2&#45;&gt;Node3</title>
<path fill="none" stroke="midnightblue" d="M72,-46.5858C72,-37.0743 72,-26.7864 72,-19.7305"/>
<polygon fill="midnightblue" stroke="midnightblue" points="68.5001,-46.7808 72,-56.7808 75.5001,-46.7809 68.5001,-46.7808"/>
</g>
</g>
</svg>
