<?xml version="1.0" encoding="UTF-8" standalone="no"?>
<!DOCTYPE svg PUBLIC "-//W3C//DTD SVG 1.1//EN"
 "http://www.w3.org/Graphics/SVG/1.1/DTD/svg11.dtd">
<!-- Generated by graphviz version 2.36.0 (20140111.2315)
 -->
<!-- Title: include/shad/core/impl/utils.h Pages: 1 -->
<svg width="1050pt" height="424pt"
 viewBox="0.00 0.00 1050.31 424.00" xmlns="http://www.w3.org/2000/svg" xmlns:xlink="http://www.w3.org/1999/xlink">
<g id="graph0" class="graph" transform="scale(1 1) rotate(0) translate(4 420)">
<title>include/shad/core/impl/utils.h</title>
<polygon fill="white" stroke="none" points="-4,4 -4,-420 1046.31,-420 1046.31,4 -4,4"/>
<!-- Node1 -->
<g id="node1" class="node"><title>Node1</title>
<polygon fill="#bfbfbf" stroke="black" points="147,-385 147,-415 261,-415 261,-385 147,-385"/>
<text text-anchor="start" x="155" y="-403" font-family="Helvetica,sans-Serif" font-size="10.00">include/shad/core/impl</text>
<text text-anchor="middle" x="204" y="-392" font-family="Helvetica,sans-Serif" font-size="10.00">/utils.h</text>
</g>
<!-- Node2 -->
<g id="node2" class="node"><title>Node2</title>
<polygon fill="white" stroke="#bfbfbf" points="0,-328.5 0,-347.5 56,-347.5 56,-328.5 0,-328.5"/>
<text text-anchor="middle" x="28" y="-335.5" font-family="Helvetica,sans-Serif" font-size="10.00">algorithm</text>
</g>
<!-- Node1&#45;&gt;Node2 -->
<g id="edge1" class="edge"><title>Node1&#45;&gt;Node2</title>
<path fill="none" stroke="midnightblue" d="M162.736,-384.933C132.289,-374.553 91.3269,-360.589 62.5886,-350.792"/>
<polygon fill="midnightblue" stroke="midnightblue" points="63.5651,-347.427 52.9706,-347.513 61.3063,-354.052 63.5651,-347.427"/>
</g>
<!-- Node3 -->
<g id="node3" class="node"><title>Node3</title>
<polygon fill="white" stroke="#bfbfbf" points="114.5,-198.5 114.5,-217.5 173.5,-217.5 173.5,-198.5 114.5,-198.5"/>
<text text-anchor="middle" x="144" y="-205.5" font-family="Helvetica,sans-Serif" font-size="10.00">functional</text>
</g>
<!-- Node1&#45;&gt;Node3 -->
<g id="edge2" class="edge"><title>Node1&#45;&gt;Node3</title>
<path fill="none" stroke="midnightblue" d="M199.49,-384.719C188.775,-350.786 161.792,-265.342 149.846,-227.514"/>
<polygon fill="midnightblue" stroke="midnightblue" points="153.127,-226.281 146.779,-217.799 146.452,-228.389 153.127,-226.281"/>
</g>
<!-- Node4 -->
<g id="node4" class="node"><title>Node4</title>
<polygon fill="white" stroke="#bfbfbf" points="49.5,-198.5 49.5,-217.5 96.5,-217.5 96.5,-198.5 49.5,-198.5"/>
<text text-anchor="middle" x="73" y="-205.5" font-family="Helvetica,sans-Serif" font-size="10.00">iterator</text>
</g>
<!-- Node1&#45;&gt;Node4 -->
<g id="edge3" class="edge"><title>Node1&#45;&gt;Node4</title>
<path fill="none" stroke="midnightblue" d="M193.971,-384.863C179.51,-364.44 152.01,-325.458 129,-292 113.52,-269.491 95.9417,-243.339 84.6752,-226.499"/>
<polygon fill="midnightblue" stroke="midnightblue" points="87.3006,-224.128 78.8347,-217.758 81.4803,-228.017 87.3006,-224.128"/>
</g>
<!-- Node5 -->
<g id="node5" class="node"><title>Node5</title>
<g id="a_node5"><a xlink:href="iterator_8h.html" target="_top" xlink:title="shad/core/iterator.h">
<polygon fill="white" stroke="black" points="277.5,-328.5 277.5,-347.5 378.5,-347.5 378.5,-328.5 277.5,-328.5"/>
<text text-anchor="middle" x="328" y="-335.5" font-family="Helvetica,sans-Serif" font-size="10.00">shad/core/iterator.h</text>
</a>
</g>
</g>
<!-- Node1&#45;&gt;Node5 -->
<g id="edge4" class="edge"><title>Node1&#45;&gt;Node5</title>
<path fill="none" stroke="midnightblue" d="M233.072,-384.933C253.619,-374.991 280.963,-361.76 301.025,-352.053"/>
<polygon fill="midnightblue" stroke="midnightblue" points="302.749,-355.106 310.227,-347.6 299.701,-348.805 302.749,-355.106"/>
</g>
<!-- Node7 -->
<g id="node7" class="node"><title>Node7</title>
<g id="a_node7"><a xlink:href="runtime_8h.html" target="_top" xlink:title="shad/runtime/runtime.h">
<polygon fill="white" stroke="black" points="427,-266.5 427,-285.5 543,-285.5 543,-266.5 427,-266.5"/>
<text text-anchor="middle" x="485" y="-273.5" font-family="Helvetica,sans-Serif" font-size="10.00">shad/runtime/runtime.h</text>
</a>
</g>
</g>
<!-- Node1&#45;&gt;Node7 -->
<g id="edge43" class="edge"><title>Node1&#45;&gt;Node7</title>
<path fill="none" stroke="midnightblue" d="M261.123,-388.553C298.198,-380.467 346.896,-367.342 387,-348 417.852,-333.12 449.154,-308.397 467.82,-292.403"/>
<polygon fill="midnightblue" stroke="midnightblue" points="470.227,-294.948 475.46,-285.735 465.625,-289.674 470.227,-294.948"/>
</g>
<!-- Node25 -->
<g id="node25" class="node"><title>Node25</title>
<g id="a_node25"><a xlink:href="distributed__iterator__traits_8h.html" target="_top" xlink:title="shad/distributed_iterator\l_traits.h">
<polygon fill="white" stroke="black" points="188.5,-261 188.5,-291 309.5,-291 309.5,-261 188.5,-261"/>
<text text-anchor="start" x="196.5" y="-279" font-family="Helvetica,sans-Serif" font-size="10.00">shad/distributed_iterator</text>
<text text-anchor="middle" x="249" y="-268" font-family="Helvetica,sans-Serif" font-size="10.00">_traits.h</text>
</a>
</g>
</g>
<!-- Node1&#45;&gt;Node25 -->
<g id="edge40" class="edge"><title>Node1&#45;&gt;Node25</title>
<path fill="none" stroke="midnightblue" d="M209.339,-384.526C216.992,-363.778 231.166,-325.351 240.333,-300.497"/>
<polygon fill="midnightblue" stroke="midnightblue" points="243.63,-301.672 243.807,-291.079 237.063,-299.25 243.63,-301.672"/>
</g>
<!-- Node5&#45;&gt;Node4 -->
<g id="edge5" class="edge"><title>Node5&#45;&gt;Node4</title>
<path fill="none" stroke="midnightblue" d="M284.956,-328.467C254.287,-321.338 212.697,-309.492 179,-292 143.786,-273.721 108.665,-243.189 88.9973,-224.691"/>
<polygon fill="midnightblue" stroke="midnightblue" points="91.2031,-221.958 81.559,-217.571 86.3626,-227.014 91.2031,-221.958"/>
</g>
<!-- Node6 -->
<g id="node6" class="node"><title>Node6</title>
<polygon fill="white" stroke="#bfbfbf" points="856,-130.5 856,-149.5 908,-149.5 908,-130.5 856,-130.5"/>
<text text-anchor="middle" x="882" y="-137.5" font-family="Helvetica,sans-Serif" font-size="10.00">memory</text>
</g>
<!-- Node5&#45;&gt;Node6 -->
<g id="edge6" class="edge"><title>Node5&#45;&gt;Node6</title>
<path fill="none" stroke="midnightblue" d="M378.706,-336.894C525.075,-335.406 943.179,-322.459 1027,-224 1061.62,-183.332 971.423,-158.226 918.052,-147.336"/>
<polygon fill="midnightblue" stroke="midnightblue" points="918.722,-143.901 908.235,-145.407 917.372,-150.769 918.722,-143.901"/>
</g>
<!-- Node5&#45;&gt;Node7 -->
<g id="edge7" class="edge"><title>Node5&#45;&gt;Node7</title>
<path fill="none" stroke="midnightblue" d="M350.494,-328.403C377.309,-318.156 422.315,-300.956 452.809,-289.302"/>
<polygon fill="midnightblue" stroke="midnightblue" points="454.456,-292.42 462.547,-285.581 451.957,-285.881 454.456,-292.42"/>
</g>
<!-- Node7&#45;&gt;Node3 -->
<g id="edge10" class="edge"><title>Node7&#45;&gt;Node3</title>
<path fill="none" stroke="midnightblue" d="M426.939,-267.804C366.652,-259.688 269.88,-244.847 188,-224 184.344,-223.069 180.555,-221.978 176.805,-220.816"/>
<polygon fill="midnightblue" stroke="midnightblue" points="177.677,-217.419 167.085,-217.637 175.501,-224.072 177.677,-217.419"/>
</g>
<!-- Node7&#45;&gt;Node4 -->
<g id="edge12" class="edge"><title>Node7&#45;&gt;Node4</title>
<path fill="none" stroke="midnightblue" d="M426.787,-269.377C335.75,-260.214 163.993,-241.34 105,-224 102.715,-223.328 100.388,-222.516 98.083,-221.62"/>
<polygon fill="midnightblue" stroke="midnightblue" points="99.4699,-218.407 88.9042,-217.621 96.6737,-224.824 99.4699,-218.407"/>
</g>
<!-- Node7&#45;&gt;Node6 -->
<g id="edge14" class="edge"><title>Node7&#45;&gt;Node6</title>
<path fill="none" stroke="midnightblue" d="M543.267,-274.473C635.893,-272.439 810.978,-263.337 857,-224 875.561,-208.136 880.636,-179.041 881.865,-159.859"/>
<polygon fill="midnightblue" stroke="midnightblue" points="885.37,-159.759 882.218,-149.644 878.375,-159.517 885.37,-159.759"/>
</g>
<!-- Node8 -->
<g id="node8" class="node"><title>Node8</title>
<polygon fill="white" stroke="#bfbfbf" points="788.5,-130.5 788.5,-149.5 837.5,-149.5 837.5,-130.5 788.5,-130.5"/>
<text text-anchor="middle" x="813" y="-137.5" font-family="Helvetica,sans-Serif" font-size="10.00">cstddef</text>
</g>
<!-- Node7&#45;&gt;Node8 -->
<g id="edge8" class="edge"><title>Node7&#45;&gt;Node8</title>
<path fill="none" stroke="midnightblue" d="M543.069,-275.451C633.685,-274.777 802.281,-267.525 840,-224 856.374,-205.105 840.425,-176.087 827.017,-157.845"/>
<polygon fill="midnightblue" stroke="midnightblue" points="829.695,-155.588 820.791,-149.846 824.171,-159.887 829.695,-155.588"/>
</g>
<!-- Node9 -->
<g id="node9" class="node"><title>Node9</title>
<polygon fill="white" stroke="#bfbfbf" points="737,-62.5 737,-81.5 783,-81.5 783,-62.5 737,-62.5"/>
<text text-anchor="middle" x="760" y="-69.5" font-family="Helvetica,sans-Serif" font-size="10.00">cstdint</text>
</g>
<!-- Node7&#45;&gt;Node9 -->
<g id="edge9" class="edge"><title>Node7&#45;&gt;Node9</title>
<path fill="none" stroke="midnightblue" d="M543.381,-273.849C676.774,-270.616 994.91,-259.251 1027,-224 1101.41,-142.261 879.637,-93.8038 793.05,-78.393"/>
<polygon fill="midnightblue" stroke="midnightblue" points="793.642,-74.9435 783.19,-76.6774 792.442,-81.8399 793.642,-74.9435"/>
</g>
<!-- Node10 -->
<g id="node10" class="node"><title>Node10</title>
<polygon fill="white" stroke="#bfbfbf" points="964,-198.5 964,-217.5 1018,-217.5 1018,-198.5 964,-198.5"/>
<text text-anchor="middle" x="991" y="-205.5" font-family="Helvetica,sans-Serif" font-size="10.00">iostream</text>
</g>
<!-- Node7&#45;&gt;Node10 -->
<g id="edge11" class="edge"><title>Node7&#45;&gt;Node10</title>
<path fill="none" stroke="midnightblue" d="M543.024,-273.126C631.772,-269.257 806.084,-257.695 950,-224 953.501,-223.18 957.112,-222.149 960.673,-221.014"/>
<polygon fill="midnightblue" stroke="midnightblue" points="962.14,-224.209 970.439,-217.624 959.844,-217.596 962.14,-224.209"/>
</g>
<!-- Node11 -->
<g id="node11" class="node"><title>Node11</title>
<polygon fill="white" stroke="#bfbfbf" points="344.5,-198.5 344.5,-217.5 379.5,-217.5 379.5,-198.5 344.5,-198.5"/>
<text text-anchor="middle" x="362" y="-205.5" font-family="Helvetica,sans-Serif" font-size="10.00">map</text>
</g>
<!-- Node7&#45;&gt;Node11 -->
<g id="edge13" class="edge"><title>Node7&#45;&gt;Node11</title>
<path fill="none" stroke="midnightblue" d="M468.643,-266.43C449.497,-256.371 416.859,-239.137 389,-224 388.175,-223.552 387.337,-223.095 386.492,-222.633"/>
<polygon fill="midnightblue" stroke="midnightblue" points="387.84,-219.38 377.393,-217.617 384.461,-225.51 387.84,-219.38"/>
</g>
<!-- Node12 -->
<g id="node12" class="node"><title>Node12</title>
<polygon fill="white" stroke="#bfbfbf" points="398,-198.5 398,-217.5 428,-217.5 428,-198.5 398,-198.5"/>
<text text-anchor="middle" x="413" y="-205.5" font-family="Helvetica,sans-Serif" font-size="10.00">set</text>
</g>
<!-- Node7&#45;&gt;Node12 -->
<g id="edge15" class="edge"><title>Node7&#45;&gt;Node12</title>
<path fill="none" stroke="midnightblue" d="M475.587,-266.372C464.116,-255.856 444.508,-237.882 430.29,-224.85"/>
<polygon fill="midnightblue" stroke="midnightblue" points="432.381,-222.018 422.645,-217.841 427.651,-227.178 432.381,-222.018"/>
</g>
<!-- Node13 -->
<g id="node13" class="node"><title>Node13</title>
<polygon fill="white" stroke="#bfbfbf" points="446,-198.5 446,-217.5 524,-217.5 524,-198.5 446,-198.5"/>
<text text-anchor="middle" x="485" y="-205.5" font-family="Helvetica,sans-Serif" font-size="10.00">unordered_set</text>
</g>
<!-- Node7&#45;&gt;Node13 -->
<g id="edge16" class="edge"><title>Node7&#45;&gt;Node13</title>
<path fill="none" stroke="midnightblue" d="M485,-266.372C485,-256.643 485,-240.528 485,-227.85"/>
<polygon fill="midnightblue" stroke="midnightblue" points="488.5,-227.841 485,-217.841 481.5,-227.841 488.5,-227.841"/>
</g>
<!-- Node14 -->
<g id="node14" class="node"><title>Node14</title>
<polygon fill="white" stroke="#bfbfbf" points="542,-198.5 542,-217.5 582,-217.5 582,-198.5 542,-198.5"/>
<text text-anchor="middle" x="562" y="-205.5" font-family="Helvetica,sans-Serif" font-size="10.00">utility</text>
</g>
<!-- Node7&#45;&gt;Node14 -->
<g id="edge17" class="edge"><title>Node7&#45;&gt;Node14</title>
<path fill="none" stroke="midnightblue" d="M495.066,-266.372C507.449,-255.758 528.697,-237.545 543.934,-224.485"/>
<polygon fill="midnightblue" stroke="midnightblue" points="546.371,-227.006 551.685,-217.841 541.815,-221.692 546.371,-227.006"/>
</g>
<!-- Node15 -->
<g id="node15" class="node"><title>Node15</title>
<polygon fill="white" stroke="#bfbfbf" points="600,-198.5 600,-217.5 644,-217.5 644,-198.5 600,-198.5"/>
<text text-anchor="middle" x="622" y="-205.5" font-family="Helvetica,sans-Serif" font-size="10.00">vector</text>
</g>
<!-- Node7&#45;&gt;Node15 -->
<g id="edge18" class="edge"><title>Node7&#45;&gt;Node15</title>
<path fill="none" stroke="midnightblue" d="M503.011,-266.349C524.106,-256.214 560.1,-238.909 591,-224 592.346,-223.35 593.725,-222.685 595.118,-222.012"/>
<polygon fill="midnightblue" stroke="midnightblue" points="596.819,-225.077 604.298,-217.574 593.772,-218.775 596.819,-225.077"/>
</g>
<!-- Node16 -->
<g id="node16" class="node"><title>Node16</title>
<polygon fill="white" stroke="#bfbfbf" points="355,-0.5 355,-19.5 459,-19.5 459,-0.5 355,-0.5"/>
<text text-anchor="middle" x="407" y="-7.5" font-family="Helvetica,sans-Serif" font-size="10.00">shad/config/config.h</text>
</g>
<!-- Node7&#45;&gt;Node16 -->
<g id="edge19" class="edge"><title>Node7&#45;&gt;Node16</title>
<path fill="none" stroke="midnightblue" d="M426.757,-267.324C366.115,-255.604 276.352,-226.583 250,-156 233.678,-112.283 247.485,-87.4051 282,-56 300.13,-39.5036 324.749,-28.9486 347.345,-22.2448"/>
<polygon fill="midnightblue" stroke="midnightblue" points="348.511,-25.5539 357.216,-19.515 346.645,-18.8071 348.511,-25.5539"/>
</g>
<!-- Node17 -->
<g id="node17" class="node"><title>Node17</title>
<g id="a_node17"><a xlink:href="handle_8h.html" target="_top" xlink:title="shad/runtime/handle.h">
<polygon fill="white" stroke="black" points="259.5,-130.5 259.5,-149.5 372.5,-149.5 372.5,-130.5 259.5,-130.5"/>
<text text-anchor="middle" x="316" y="-137.5" font-family="Helvetica,sans-Serif" font-size="10.00">shad/runtime/handle.h</text>
</a>
</g>
</g>
<!-- Node7&#45;&gt;Node17 -->
<g id="edge20" class="edge"><title>Node7&#45;&gt;Node17</title>
<path fill="none" stroke="midnightblue" d="M426.678,-271.788C391.764,-266.618 349.536,-254.026 325,-224 310.417,-206.155 310.477,-178.459 312.616,-160.032"/>
<polygon fill="midnightblue" stroke="midnightblue" points="316.11,-160.332 314.105,-149.928 309.185,-159.312 316.11,-160.332"/>
</g>
<!-- Node19 -->
<g id="node19" class="node"><title>Node19</title>
<g id="a_node19"><a xlink:href="mapping__traits_8h.html" target="_top" xlink:title="shad/runtime/mapping\l_traits.h">
<polygon fill="white" stroke="black" points="576.5,-57 576.5,-87 689.5,-87 689.5,-57 576.5,-57"/>
<text text-anchor="start" x="584.5" y="-75" font-family="Helvetica,sans-Serif" font-size="10.00">shad/runtime/mapping</text>
<text text-anchor="middle" x="633" y="-64" font-family="Helvetica,sans-Serif" font-size="10.00">_traits.h</text>
</a>
</g>
</g>
<!-- Node7&#45;&gt;Node19 -->
<g id="edge32" class="edge"><title>Node7&#45;&gt;Node19</title>
<path fill="none" stroke="midnightblue" d="M543.22,-273.867C639.482,-270.959 826.515,-260.626 880,-224 908.388,-204.56 908.516,-189.344 917,-156 920.507,-142.217 926.125,-134.909 917,-124 913.491,-119.804 782.493,-97.5812 699.656,-83.8915"/>
<polygon fill="midnightblue" stroke="midnightblue" points="699.992,-80.3996 689.555,-82.225 698.852,-87.3062 699.992,-80.3996"/>
</g>
<!-- Node22 -->
<g id="node22" class="node"><title>Node22</title>
<g id="a_node22"><a xlink:href="locality_8h.html" target="_top" xlink:title="shad/runtime/locality.h">
<polygon fill="white" stroke="black" points="575.5,-130.5 575.5,-149.5 690.5,-149.5 690.5,-130.5 575.5,-130.5"/>
<text text-anchor="middle" x="633" y="-137.5" font-family="Helvetica,sans-Serif" font-size="10.00">shad/runtime/locality.h</text>
</a>
</g>
</g>
<!-- Node7&#45;&gt;Node22 -->
<g id="edge27" class="edge"><title>Node7&#45;&gt;Node22</title>
<path fill="none" stroke="midnightblue" d="M543.28,-273.87C580.864,-269.73 627.201,-257.503 652,-224 666.248,-204.752 654.854,-176.627 644.567,-158.568"/>
<polygon fill="midnightblue" stroke="midnightblue" points="647.34,-156.394 639.135,-149.691 641.369,-160.048 647.34,-156.394"/>
</g>
<!-- Node23 -->
<g id="node23" class="node"><title>Node23</title>
<g id="a_node23"><a xlink:href="available__mappings_8h.html" target="_top" xlink:title="shad/runtime/mappings\l/available_mappings.h">
<polygon fill="white" stroke="black" points="391,-125 391,-155 509,-155 509,-125 391,-125"/>
<text text-anchor="start" x="399" y="-143" font-family="Helvetica,sans-Serif" font-size="10.00">shad/runtime/mappings</text>
<text text-anchor="middle" x="450" y="-132" font-family="Helvetica,sans-Serif" font-size="10.00">/available_mappings.h</text>
</a>
</g>
</g>
<!-- Node7&#45;&gt;Node23 -->
<g id="edge33" class="edge"><title>Node7&#45;&gt;Node23</title>
<path fill="none" stroke="midnightblue" d="M426.89,-271.05C394.474,-265.52 356.587,-252.807 336,-224 327.731,-212.429 328.265,-203.935 336,-192 346.544,-175.732 363.63,-164.606 381.401,-157.015"/>
<polygon fill="midnightblue" stroke="midnightblue" points="382.693,-160.268 390.726,-153.359 380.138,-153.751 382.693,-160.268"/>
</g>
<!-- Node24 -->
<g id="node24" class="node"><title>Node24</title>
<g id="a_node24"><a xlink:href="synchronous__interface_8h.html" target="_top" xlink:title="shad/runtime/synchronous\l_interface.h">
<polygon fill="white" stroke="black" points="700.5,-193 700.5,-223 831.5,-223 831.5,-193 700.5,-193"/>
<text text-anchor="start" x="708.5" y="-211" font-family="Helvetica,sans-Serif" font-size="10.00">shad/runtime/synchronous</text>
<text text-anchor="middle" x="766" y="-200" font-family="Helvetica,sans-Serif" font-size="10.00">_interface.h</text>
</a>
</g>
</g>
<!-- Node7&#45;&gt;Node24 -->
<g id="edge35" class="edge"><title>Node7&#45;&gt;Node24</title>
<path fill="none" stroke="midnightblue" d="M521.448,-266.439C565.646,-256.058 641.097,-238.337 696.531,-225.317"/>
<polygon fill="midnightblue" stroke="midnightblue" points="697.354,-228.719 706.289,-223.025 695.753,-221.904 697.354,-228.719"/>
</g>
<!-- Node17&#45;&gt;Node16 -->
<g id="edge22" class="edge"><title>Node17&#45;&gt;Node16</title>
<path fill="none" stroke="midnightblue" d="M308.843,-130.252C296.67,-114.246 274.761,-79.7174 291,-56 303.431,-37.8435 324.337,-27.0113 345.004,-20.5494"/>
<polygon fill="midnightblue" stroke="midnightblue" points="346.095,-23.8783 354.77,-17.7964 344.196,-17.1408 346.095,-23.8783"/>
</g>
<!-- Node18 -->
<g id="node18" class="node"><title>Node18</title>
<polygon fill="white" stroke="#bfbfbf" points="300,-62.5 300,-81.5 362,-81.5 362,-62.5 300,-62.5"/>
<text text-anchor="middle" x="331" y="-69.5" font-family="Helvetica,sans-Serif" font-size="10.00">type_traits</text>
</g>
<!-- Node17&#45;&gt;Node18 -->
<g id="edge21" class="edge"><title>Node17&#45;&gt;Node18</title>
<path fill="none" stroke="midnightblue" d="M317.961,-130.372C320.172,-120.643 323.835,-104.528 326.716,-91.8504"/>
<polygon fill="midnightblue" stroke="midnightblue" points="330.187,-92.3682 328.991,-81.8411 323.361,-90.8167 330.187,-92.3682"/>
</g>
<!-- Node17&#45;&gt;Node19 -->
<g id="edge23" class="edge"><title>Node17&#45;&gt;Node19</title>
<path fill="none" stroke="midnightblue" d="M352.968,-130.441C362.423,-128.295 372.58,-126.027 382,-124 444.355,-110.581 515.633,-96.1888 566.26,-86.1263"/>
<polygon fill="midnightblue" stroke="midnightblue" points="566.974,-89.553 576.101,-84.1732 565.611,-82.6869 566.974,-89.553"/>
</g>
<!-- Node21 -->
<g id="node21" class="node"><title>Node21</title>
<g id="a_node21"><a xlink:href="available__traits__mappings_8h.html" target="_top" xlink:title="shad/runtime/mappings\l/available_traits_mappings.h">
<polygon fill="white" stroke="black" points="380,-57 380,-87 520,-87 520,-57 380,-57"/>
<text text-anchor="start" x="388" y="-75" font-family="Helvetica,sans-Serif" font-size="10.00">shad/runtime/mappings</text>
<text text-anchor="middle" x="450" y="-64" font-family="Helvetica,sans-Serif" font-size="10.00">/available_traits_mappings.h</text>
</a>
</g>
</g>
<!-- Node17&#45;&gt;Node21 -->
<g id="edge26" class="edge"><title>Node17&#45;&gt;Node21</title>
<path fill="none" stroke="midnightblue" d="M333.518,-130.372C353.421,-120.569 386.485,-104.283 412.312,-91.5629"/>
<polygon fill="midnightblue" stroke="midnightblue" points="414.037,-94.6146 421.462,-87.0562 410.944,-88.335 414.037,-94.6146"/>
</g>
<!-- Node19&#45;&gt;Node16 -->
<g id="edge25" class="edge"><title>Node19&#45;&gt;Node16</title>
<path fill="none" stroke="midnightblue" d="M580.013,-56.9327C540.063,-46.3264 486.014,-31.9772 449.02,-22.1559"/>
<polygon fill="midnightblue" stroke="midnightblue" points="449.628,-18.6959 439.064,-19.5127 447.832,-25.4616 449.628,-18.6959"/>
</g>
<!-- Node20 -->
<g id="node20" class="node"><title>Node20</title>
<polygon fill="white" stroke="#bfbfbf" points="612.5,-0.5 612.5,-19.5 653.5,-19.5 653.5,-0.5 612.5,-0.5"/>
<text text-anchor="middle" x="633" y="-7.5" font-family="Helvetica,sans-Serif" font-size="10.00">string</text>
</g>
<!-- Node19&#45;&gt;Node20 -->
<g id="edge24" class="edge"><title>Node19&#45;&gt;Node20</title>
<path fill="none" stroke="midnightblue" d="M633,-56.7808C633,-48.7812 633,-38.6887 633,-30.0168"/>
<polygon fill="midnightblue" stroke="midnightblue" points="636.5,-29.7305 633,-19.7305 629.5,-29.7306 636.5,-29.7305"/>
</g>
<!-- Node22&#45;&gt;Node9 -->
<g id="edge28" class="edge"><title>Node22&#45;&gt;Node9</title>
<path fill="none" stroke="midnightblue" d="M649.603,-130.372C671.185,-119.156 709.098,-99.4532 734.381,-86.3136"/>
<polygon fill="midnightblue" stroke="midnightblue" points="736.134,-89.3475 743.393,-81.6305 732.906,-83.1362 736.134,-89.3475"/>
</g>
<!-- Node22&#45;&gt;Node16 -->
<g id="edge29" class="edge"><title>Node22&#45;&gt;Node16</title>
<path fill="none" stroke="midnightblue" d="M621.901,-130.41C608.915,-120.332 586.795,-103.081 568,-88 550.512,-73.9679 548.455,-67.1455 529,-56 503.692,-41.5011 472.855,-30.1751 448.515,-22.5124"/>
<polygon fill="midnightblue" stroke="midnightblue" points="449.443,-19.1362 438.857,-19.5551 447.394,-25.8295 449.443,-19.1362"/>
</g>
<!-- Node22&#45;&gt;Node19 -->
<g id="edge30" class="edge"><title>Node22&#45;&gt;Node19</title>
<path fill="none" stroke="midnightblue" d="M633,-130.372C633,-121.971 633,-108.811 633,-97.2126"/>
<polygon fill="midnightblue" stroke="midnightblue" points="636.5,-97.1814 633,-87.1815 629.5,-97.1815 636.5,-97.1814"/>
</g>
<!-- Node22&#45;&gt;Node21 -->
<g id="edge31" class="edge"><title>Node22&#45;&gt;Node21</title>
<path fill="none" stroke="midnightblue" d="M609.076,-130.372C581.18,-120.311 534.352,-103.422 498.706,-90.5662"/>
<polygon fill="midnightblue" stroke="midnightblue" points="499.568,-87.1565 488.974,-87.0562 497.194,-93.7414 499.568,-87.1565"/>
</g>
<!-- Node23&#45;&gt;Node21 -->
<g id="edge34" class="edge"><title>Node23&#45;&gt;Node21</title>
<path fill="none" stroke="midnightblue" d="M450,-124.679C450,-116.722 450,-106.605 450,-97.4356"/>
<polygon fill="midnightblue" stroke="midnightblue" points="453.5,-97.293 450,-87.2931 446.5,-97.2931 453.5,-97.293"/>
</g>
<!-- Node24&#45;&gt;Node6 -->
<g id="edge38" class="edge"><title>Node24&#45;&gt;Node6</title>
<path fill="none" stroke="midnightblue" d="M790.885,-192.841C810.68,-181.579 838.213,-165.913 857.821,-154.757"/>
<polygon fill="midnightblue" stroke="midnightblue" points="859.78,-157.669 866.741,-149.682 856.318,-151.585 859.78,-157.669"/>
</g>
<!-- Node24&#45;&gt;Node8 -->
<g id="edge36" class="edge"><title>Node24&#45;&gt;Node8</title>
<path fill="none" stroke="midnightblue" d="M776.198,-192.679C783.454,-182.49 793.232,-168.759 800.886,-158.011"/>
<polygon fill="midnightblue" stroke="midnightblue" points="803.763,-160.004 806.713,-149.828 798.061,-155.944 803.763,-160.004"/>
</g>
<!-- Node24&#45;&gt;Node9 -->
<g id="edge37" class="edge"><title>Node24&#45;&gt;Node9</title>
<path fill="none" stroke="midnightblue" d="M765.358,-192.66C764.268,-168.32 762.057,-118.933 760.843,-91.8373"/>
<polygon fill="midnightblue" stroke="midnightblue" points="764.335,-91.5609 760.391,-81.7275 757.342,-91.8741 764.335,-91.5609"/>
</g>
<!-- Node24&#45;&gt;Node22 -->
<g id="edge39" class="edge"><title>Node24&#45;&gt;Node22</title>
<path fill="none" stroke="midnightblue" d="M737.468,-192.841C714.36,-181.374 682.053,-165.342 659.506,-154.153"/>
<polygon fill="midnightblue" stroke="midnightblue" points="661.009,-150.992 650.495,-149.682 657.897,-157.262 661.009,-150.992"/>
</g>
<!-- Node25&#45;&gt;Node4 -->
<g id="edge41" class="edge"><title>Node25&#45;&gt;Node4</title>
<path fill="none" stroke="midnightblue" d="M205.738,-260.913C176.925,-251.23 138.37,-237.692 105,-224 103.361,-223.327 101.685,-222.616 100,-221.882"/>
<polygon fill="midnightblue" stroke="midnightblue" points="101.021,-218.503 90.4678,-217.565 98.1332,-224.879 101.021,-218.503"/>
</g>
<!-- Node25&#45;&gt;Node22 -->
<g id="edge42" class="edge"><title>Node25&#45;&gt;Node22</title>
<path fill="none" stroke="midnightblue" d="M259.311,-260.909C274.037,-241.923 302.99,-208.601 336,-192 356.142,-181.871 483.818,-162.259 565.08,-150.528"/>
<polygon fill="midnightblue" stroke="midnightblue" points="565.84,-153.954 575.24,-149.067 564.844,-147.026 565.84,-153.954"/>
</g>
</g>
</svg>
