<?xml version="1.0" encoding="UTF-8" standalone="no"?>
<!DOCTYPE svg PUBLIC "-//W3C//DTD SVG 1.1//EN"
 "http://www.w3.org/Graphics/SVG/1.1/DTD/svg11.dtd">
<!-- Generated by graphviz version 2.36.0 (20140111.2315)
 -->
<!-- Title: include/shad/data_structures/vector.h Pages: 1 -->
<svg width="1174pt" height="492pt"
 viewBox="0.00 0.00 1174.00 492.00" xmlns="http://www.w3.org/2000/svg" xmlns:xlink="http://www.w3.org/1999/xlink">
<g id="graph0" class="graph" transform="scale(1 1) rotate(0) translate(4 488)">
<title>include/shad/data_structures/vector.h</title>
<polygon fill="white" stroke="none" points="-4,4 -4,-488 1170,-488 1170,4 -4,4"/>
<!-- Node1 -->
<g id="node1" class="node"><title>Node1</title>
<polygon fill="#bfbfbf" stroke="black" points="696,-453 696,-483 838,-483 838,-453 696,-453"/>
<text text-anchor="start" x="704" y="-471" font-family="Helvetica,sans-Serif" font-size="10.00">include/shad/data_structures</text>
<text text-anchor="middle" x="767" y="-460" font-family="Helvetica,sans-Serif" font-size="10.00">/vector.h</text>
</g>
<!-- Node2 -->
<g id="node2" class="node"><title>Node2</title>
<polygon fill="white" stroke="#bfbfbf" points="201,-322.5 201,-341.5 257,-341.5 257,-322.5 201,-322.5"/>
<text text-anchor="middle" x="229" y="-329.5" font-family="Helvetica,sans-Serif" font-size="10.00">algorithm</text>
</g>
<!-- Node1&#45;&gt;Node2 -->
<g id="edge1" class="edge"><title>Node1&#45;&gt;Node2</title>
<path fill="none" stroke="midnightblue" d="M695.627,-464.451C585.929,-459.614 381.674,-446.697 316,-416 283.857,-400.976 256.045,-369.314 240.982,-349.731"/>
<polygon fill="midnightblue" stroke="midnightblue" points="243.77,-347.614 234.989,-341.686 238.156,-351.796 243.77,-347.614"/>
</g>
<!-- Node3 -->
<g id="node3" class="node"><title>Node3</title>
<polygon fill="white" stroke="#bfbfbf" points="262,-260.5 262,-279.5 308,-279.5 308,-260.5 262,-260.5"/>
<text text-anchor="middle" x="285" y="-267.5" font-family="Helvetica,sans-Serif" font-size="10.00">atomic</text>
</g>
<!-- Node1&#45;&gt;Node3 -->
<g id="edge2" class="edge"><title>Node1&#45;&gt;Node3</title>
<path fill="none" stroke="midnightblue" d="M695.786,-464.973C577.147,-460.723 344.689,-448.43 270,-416 218.298,-393.551 162.056,-363.754 192,-316 205.02,-295.236 230.636,-283.817 251.693,-277.684"/>
<polygon fill="midnightblue" stroke="midnightblue" points="252.808,-281.009 261.588,-275.079 251.026,-274.24 252.808,-281.009"/>
</g>
<!-- Node4 -->
<g id="node4" class="node"><title>Node4</title>
<polygon fill="white" stroke="#bfbfbf" points="150,-62.5 150,-81.5 196,-81.5 196,-62.5 150,-62.5"/>
<text text-anchor="middle" x="173" y="-69.5" font-family="Helvetica,sans-Serif" font-size="10.00">cstdint</text>
</g>
<!-- Node1&#45;&gt;Node4 -->
<g id="edge3" class="edge"><title>Node1&#45;&gt;Node4</title>
<path fill="none" stroke="midnightblue" d="M695.786,-467.029C588.52,-465.616 379.763,-457.184 208,-416 111.211,-392.793 0,-432.533 0,-333 0,-333 0,-333 0,-207 0,-136.982 89.6664,-98.3279 139.892,-82.1685"/>
<polygon fill="midnightblue" stroke="midnightblue" points="141.148,-85.4435 149.668,-79.146 139.081,-78.7558 141.148,-85.4435"/>
</g>
<!-- Node5 -->
<g id="node5" class="node"><title>Node5</title>
<polygon fill="white" stroke="#bfbfbf" points="932.5,-198.5 932.5,-217.5 979.5,-217.5 979.5,-198.5 932.5,-198.5"/>
<text text-anchor="middle" x="956" y="-205.5" font-family="Helvetica,sans-Serif" font-size="10.00">iterator</text>
</g>
<!-- Node1&#45;&gt;Node5 -->
<g id="edge4" class="edge"><title>Node1&#45;&gt;Node5</title>
<path fill="none" stroke="midnightblue" d="M838.216,-453.306C865.155,-445.596 894.866,-433.805 918,-416 946.719,-393.896 952.557,-382.703 963,-348 975.489,-306.497 967.04,-254.912 960.863,-227.75"/>
<polygon fill="midnightblue" stroke="midnightblue" points="964.184,-226.595 958.422,-217.704 957.382,-228.248 964.184,-226.595"/>
</g>
<!-- Node6 -->
<g id="node6" class="node"><title>Node6</title>
<polygon fill="white" stroke="#bfbfbf" points="637,-260.5 637,-279.5 677,-279.5 677,-260.5 637,-260.5"/>
<text text-anchor="middle" x="657" y="-267.5" font-family="Helvetica,sans-Serif" font-size="10.00">limits</text>
</g>
<!-- Node1&#45;&gt;Node6 -->
<g id="edge5" class="edge"><title>Node1&#45;&gt;Node6</title>
<path fill="none" stroke="midnightblue" d="M736.227,-452.904C720.764,-444.323 703.019,-431.927 692,-416 664.945,-376.894 658.695,-319.286 657.323,-289.839"/>
<polygon fill="midnightblue" stroke="midnightblue" points="660.817,-289.592 656.998,-279.709 653.821,-289.817 660.817,-289.592"/>
</g>
<!-- Node7 -->
<g id="node7" class="node"><title>Node7</title>
<polygon fill="white" stroke="#bfbfbf" points="948,-130.5 948,-149.5 1000,-149.5 1000,-130.5 948,-130.5"/>
<text text-anchor="middle" x="974" y="-137.5" font-family="Helvetica,sans-Serif" font-size="10.00">memory</text>
</g>
<!-- Node1&#45;&gt;Node7 -->
<g id="edge6" class="edge"><title>Node1&#45;&gt;Node7</title>
<path fill="none" stroke="midnightblue" d="M838.188,-466.382C930.272,-461.389 1079,-437.196 1079,-333 1079,-333 1079,-333 1079,-269 1079,-231.94 1070.23,-220.877 1047,-192 1034.48,-176.438 1016.01,-163.594 1000.78,-154.689"/>
<polygon fill="midnightblue" stroke="midnightblue" points="1002.23,-151.492 991.795,-149.664 998.813,-157.601 1002.23,-151.492"/>
</g>
<!-- Node8 -->
<g id="node8" class="node"><title>Node8</title>
<polygon fill="white" stroke="#bfbfbf" points="1107.5,-390.5 1107.5,-409.5 1166.5,-409.5 1166.5,-390.5 1107.5,-390.5"/>
<text text-anchor="middle" x="1137" y="-397.5" font-family="Helvetica,sans-Serif" font-size="10.00">stdexcept</text>
</g>
<!-- Node1&#45;&gt;Node8 -->
<g id="edge7" class="edge"><title>Node1&#45;&gt;Node8</title>
<path fill="none" stroke="midnightblue" d="M838.292,-459.456C904.813,-451.569 1006.51,-437.336 1093,-416 1096.86,-415.049 1100.86,-413.909 1104.8,-412.688"/>
<polygon fill="midnightblue" stroke="midnightblue" points="1105.97,-415.987 1114.39,-409.547 1103.79,-409.335 1105.97,-415.987"/>
</g>
<!-- Node9 -->
<g id="node9" class="node"><title>Node9</title>
<polygon fill="white" stroke="#bfbfbf" points="899,-322.5 899,-341.5 937,-341.5 937,-322.5 899,-322.5"/>
<text text-anchor="middle" x="918" y="-329.5" font-family="Helvetica,sans-Serif" font-size="10.00">tuple</text>
</g>
<!-- Node1&#45;&gt;Node9 -->
<g id="edge8" class="edge"><title>Node1&#45;&gt;Node9</title>
<path fill="none" stroke="midnightblue" d="M790.291,-452.826C805.362,-443.209 825.069,-429.78 841,-416 865.179,-395.085 889.716,-367.242 904.396,-349.718"/>
<polygon fill="midnightblue" stroke="midnightblue" points="907.445,-351.522 911.12,-341.585 902.05,-347.062 907.445,-351.522"/>
</g>
<!-- Node10 -->
<g id="node10" class="node"><title>Node10</title>
<polygon fill="white" stroke="#bfbfbf" points="998,-198.5 998,-217.5 1038,-217.5 1038,-198.5 998,-198.5"/>
<text text-anchor="middle" x="1018" y="-205.5" font-family="Helvetica,sans-Serif" font-size="10.00">utility</text>
</g>
<!-- Node1&#45;&gt;Node10 -->
<g id="edge9" class="edge"><title>Node1&#45;&gt;Node10</title>
<path fill="none" stroke="midnightblue" d="M838.433,-460.947C874.728,-454.638 917.484,-441.85 948,-416 1005.68,-367.139 1015.98,-268.926 1017.71,-227.795"/>
<polygon fill="midnightblue" stroke="midnightblue" points="1021.21,-227.894 1018,-217.795 1014.21,-227.688 1021.21,-227.894"/>
</g>
<!-- Node11 -->
<g id="node11" class="node"><title>Node11</title>
<polygon fill="white" stroke="#bfbfbf" points="832,-198.5 832,-217.5 876,-217.5 876,-198.5 832,-198.5"/>
<text text-anchor="middle" x="854" y="-205.5" font-family="Helvetica,sans-Serif" font-size="10.00">vector</text>
</g>
<!-- Node1&#45;&gt;Node11 -->
<g id="edge10" class="edge"><title>Node1&#45;&gt;Node11</title>
<path fill="none" stroke="midnightblue" d="M812.185,-452.849C856.734,-436.039 921.582,-403.099 946,-348 967.849,-298.697 909.142,-247.52 875.578,-223.321"/>
<polygon fill="midnightblue" stroke="midnightblue" points="877.458,-220.365 867.258,-217.5 873.445,-226.101 877.458,-220.365"/>
</g>
<!-- Node12 -->
<g id="node12" class="node"><title>Node12</title>
<g id="a_node12"><a xlink:href="abstract__data__structure_8h.html" target="_top" xlink:title="shad/data_structures\l/abstract_data_structure.h">
<polygon fill="white" stroke="black" points="701.5,-385 701.5,-415 832.5,-415 832.5,-385 701.5,-385"/>
<text text-anchor="start" x="709.5" y="-403" font-family="Helvetica,sans-Serif" font-size="10.00">shad/data_structures</text>
<text text-anchor="middle" x="767" y="-392" font-family="Helvetica,sans-Serif" font-size="10.00">/abstract_data_structure.h</text>
</a>
</g>
</g>
<!-- Node1&#45;&gt;Node12 -->
<g id="edge11" class="edge"><title>Node1&#45;&gt;Node12</title>
<path fill="none" stroke="midnightblue" d="M767,-452.679C767,-444.722 767,-434.605 767,-425.436"/>
<polygon fill="midnightblue" stroke="midnightblue" points="770.5,-425.293 767,-415.293 763.5,-425.293 770.5,-425.293"/>
</g>
<!-- Node15 -->
<g id="node15" class="node"><title>Node15</title>
<g id="a_node15"><a xlink:href="runtime_8h.html" target="_top" xlink:title="shad/runtime/runtime.h">
<polygon fill="white" stroke="black" points="437,-260.5 437,-279.5 553,-279.5 553,-260.5 437,-260.5"/>
<text text-anchor="middle" x="495" y="-267.5" font-family="Helvetica,sans-Serif" font-size="10.00">shad/runtime/runtime.h</text>
</a>
</g>
</g>
<!-- Node1&#45;&gt;Node15 -->
<g id="edge63" class="edge"><title>Node1&#45;&gt;Node15</title>
<path fill="none" stroke="midnightblue" d="M737.525,-452.924C718.352,-443.349 693.087,-429.928 672,-416 608.98,-374.376 541.94,-314.601 511.61,-286.594"/>
<polygon fill="midnightblue" stroke="midnightblue" points="513.77,-283.824 504.063,-279.579 509.004,-288.951 513.77,-283.824"/>
</g>
<!-- Node31 -->
<g id="node31" class="node"><title>Node31</title>
<g id="a_node31"><a xlink:href="buffer_8h.html" target="_top" xlink:title="shad/data_structures\l/buffer.h">
<polygon fill="white" stroke="black" points="325,-385 325,-415 433,-415 433,-385 325,-385"/>
<text text-anchor="start" x="333" y="-403" font-family="Helvetica,sans-Serif" font-size="10.00">shad/data_structures</text>
<text text-anchor="middle" x="379" y="-392" font-family="Helvetica,sans-Serif" font-size="10.00">/buffer.h</text>
</a>
</g>
</g>
<!-- Node1&#45;&gt;Node31 -->
<g id="edge56" class="edge"><title>Node1&#45;&gt;Node31</title>
<path fill="none" stroke="midnightblue" d="M695.835,-454.895C623.583,-442.604 512.716,-423.745 443.111,-411.906"/>
<polygon fill="midnightblue" stroke="midnightblue" points="443.596,-408.438 433.151,-410.211 442.422,-415.339 443.596,-408.438"/>
</g>
<!-- Node12&#45;&gt;Node6 -->
<g id="edge13" class="edge"><title>Node12&#45;&gt;Node6</title>
<path fill="none" stroke="midnightblue" d="M753.251,-384.983C743.487,-374.886 730.18,-360.837 719,-348 701.474,-327.876 682.366,-303.793 670.063,-287.983"/>
<polygon fill="midnightblue" stroke="midnightblue" points="672.558,-285.488 663.669,-279.723 667.023,-289.773 672.558,-285.488"/>
</g>
<!-- Node12&#45;&gt;Node7 -->
<g id="edge14" class="edge"><title>Node12&#45;&gt;Node7</title>
<path fill="none" stroke="midnightblue" d="M780.764,-384.677C790.165,-374.672 802.73,-360.856 813,-348 865.95,-281.716 868.361,-256.899 923,-192 933.563,-179.453 946.669,-166.394 956.949,-156.632"/>
<polygon fill="midnightblue" stroke="midnightblue" points="959.573,-158.97 964.486,-149.582 954.792,-153.857 959.573,-158.97"/>
</g>
<!-- Node12&#45;&gt;Node9 -->
<g id="edge15" class="edge"><title>Node12&#45;&gt;Node9</title>
<path fill="none" stroke="midnightblue" d="M799.88,-384.984C823.591,-374.829 856.334,-360.708 885,-348 886.582,-347.299 888.205,-346.575 889.842,-345.841"/>
<polygon fill="midnightblue" stroke="midnightblue" points="891.505,-348.931 899.18,-341.628 888.626,-342.551 891.505,-348.931"/>
</g>
<!-- Node12&#45;&gt;Node10 -->
<g id="edge16" class="edge"><title>Node12&#45;&gt;Node10</title>
<path fill="none" stroke="midnightblue" d="M790.573,-384.96C806.76,-375.081 828.567,-361.3 847,-348 905.42,-305.848 970.413,-250.504 1000.7,-224.179"/>
<polygon fill="midnightblue" stroke="midnightblue" points="1003.06,-226.77 1008.29,-217.559 998.456,-221.495 1003.06,-226.77"/>
</g>
<!-- Node12&#45;&gt;Node11 -->
<g id="edge17" class="edge"><title>Node12&#45;&gt;Node11</title>
<path fill="none" stroke="midnightblue" d="M759.794,-384.718C752.287,-367.788 742.804,-338.975 752,-316 768.139,-275.681 807.509,-241.912 832.347,-223.651"/>
<polygon fill="midnightblue" stroke="midnightblue" points="834.662,-226.299 840.77,-217.642 830.597,-220.6 834.662,-226.299"/>
</g>
<!-- Node13 -->
<g id="node13" class="node"><title>Node13</title>
<polygon fill="white" stroke="#bfbfbf" points="761.5,-322.5 761.5,-341.5 804.5,-341.5 804.5,-322.5 761.5,-322.5"/>
<text text-anchor="middle" x="783" y="-329.5" font-family="Helvetica,sans-Serif" font-size="10.00">deque</text>
</g>
<!-- Node12&#45;&gt;Node13 -->
<g id="edge12" class="edge"><title>Node12&#45;&gt;Node13</title>
<path fill="none" stroke="midnightblue" d="M770.472,-384.679C772.818,-374.999 775.94,-362.123 778.48,-351.645"/>
<polygon fill="midnightblue" stroke="midnightblue" points="781.905,-352.371 780.86,-341.828 775.102,-350.722 781.905,-352.371"/>
</g>
<!-- Node14 -->
<g id="node14" class="node"><title>Node14</title>
<g id="a_node14"><a xlink:href="object__identifier_8h.html" target="_top" xlink:title="shad/data_structures\l/object_identifier.h">
<polygon fill="white" stroke="black" points="407,-317 407,-347 515,-347 515,-317 407,-317"/>
<text text-anchor="start" x="415" y="-335" font-family="Helvetica,sans-Serif" font-size="10.00">shad/data_structures</text>
<text text-anchor="middle" x="461" y="-324" font-family="Helvetica,sans-Serif" font-size="10.00">/object_identifier.h</text>
</a>
</g>
</g>
<!-- Node12&#45;&gt;Node14 -->
<g id="edge18" class="edge"><title>Node12&#45;&gt;Node14</title>
<path fill="none" stroke="midnightblue" d="M701.731,-384.922C649.731,-373.707 577.312,-358.087 525.512,-346.914"/>
<polygon fill="midnightblue" stroke="midnightblue" points="525.953,-343.429 515.439,-344.742 524.477,-350.272 525.953,-343.429"/>
</g>
<!-- Node12&#45;&gt;Node15 -->
<g id="edge55" class="edge"><title>Node12&#45;&gt;Node15</title>
<path fill="none" stroke="midnightblue" d="M737.113,-384.936C683.957,-359.921 573.755,-308.061 522.422,-283.905"/>
<polygon fill="midnightblue" stroke="midnightblue" points="523.8,-280.685 513.262,-279.594 520.819,-287.019 523.8,-280.685"/>
</g>
<!-- Node14&#45;&gt;Node3 -->
<g id="edge19" class="edge"><title>Node14&#45;&gt;Node3</title>
<path fill="none" stroke="midnightblue" d="M419.736,-316.933C388.653,-306.336 346.611,-292.004 317.803,-282.183"/>
<polygon fill="midnightblue" stroke="midnightblue" points="318.8,-278.825 308.205,-278.911 316.541,-285.451 318.8,-278.825"/>
</g>
<!-- Node14&#45;&gt;Node6 -->
<g id="edge20" class="edge"><title>Node14&#45;&gt;Node6</title>
<path fill="none" stroke="midnightblue" d="M506.953,-316.933C544.117,-305.556 595.348,-289.873 627.304,-280.091"/>
<polygon fill="midnightblue" stroke="midnightblue" points="628.422,-283.409 636.96,-277.135 626.373,-276.715 628.422,-283.409"/>
</g>
<!-- Node14&#45;&gt;Node15 -->
<g id="edge21" class="edge"><title>Node14&#45;&gt;Node15</title>
<path fill="none" stroke="midnightblue" d="M469.058,-316.781C473.845,-308.332 479.956,-297.548 485.044,-288.569"/>
<polygon fill="midnightblue" stroke="midnightblue" points="488.168,-290.156 490.053,-279.731 482.077,-286.705 488.168,-290.156"/>
</g>
<!-- Node15&#45;&gt;Node4 -->
<g id="edge23" class="edge"><title>Node15&#45;&gt;Node4</title>
<path fill="none" stroke="midnightblue" d="M436.611,-265.065C320.268,-256.944 69.5639,-237.921 57,-224 13.9001,-176.245 103.348,-113.842 148.74,-86.6532"/>
<polygon fill="midnightblue" stroke="midnightblue" points="150.582,-89.6304 157.436,-81.5514 147.04,-83.5926 150.582,-89.6304"/>
</g>
<!-- Node15&#45;&gt;Node5 -->
<g id="edge26" class="edge"><title>Node15&#45;&gt;Node5</title>
<path fill="none" stroke="midnightblue" d="M553.222,-263.918C629.481,-256.883 767.222,-242.879 884,-224 896.576,-221.967 910.286,-219.24 922.336,-216.669"/>
<polygon fill="midnightblue" stroke="midnightblue" points="923.401,-220.019 932.427,-214.471 921.911,-213.18 923.401,-220.019"/>
</g>
<!-- Node15&#45;&gt;Node7 -->
<g id="edge28" class="edge"><title>Node15&#45;&gt;Node7</title>
<path fill="none" stroke="midnightblue" d="M553.18,-261.332C630.421,-250.919 759.511,-232.619 780,-224 801.959,-214.763 801.833,-202.931 823,-192 869.081,-168.203 885.04,-173.11 934,-156 936.601,-155.091 939.29,-154.13 941.987,-153.151"/>
<polygon fill="midnightblue" stroke="midnightblue" points="943.47,-156.334 951.64,-149.588 941.046,-149.767 943.47,-156.334"/>
</g>
<!-- Node15&#45;&gt;Node10 -->
<g id="edge31" class="edge"><title>Node15&#45;&gt;Node10</title>
<path fill="none" stroke="midnightblue" d="M553.15,-264.911C674.544,-256.197 947.082,-235.648 988,-224 989.974,-223.438 991.974,-222.746 993.954,-221.971"/>
<polygon fill="midnightblue" stroke="midnightblue" points="995.846,-224.955 1003.49,-217.618 992.938,-218.588 995.846,-224.955"/>
</g>
<!-- Node15&#45;&gt;Node11 -->
<g id="edge32" class="edge"><title>Node15&#45;&gt;Node11</title>
<path fill="none" stroke="midnightblue" d="M553.072,-261.73C639.117,-250.832 793.047,-230.815 818,-224 820.817,-223.231 823.706,-222.295 826.564,-221.271"/>
<polygon fill="midnightblue" stroke="midnightblue" points="827.978,-224.475 836.005,-217.56 825.418,-217.96 827.978,-224.475"/>
</g>
<!-- Node16 -->
<g id="node16" class="node"><title>Node16</title>
<polygon fill="white" stroke="#bfbfbf" points="402.5,-130.5 402.5,-149.5 451.5,-149.5 451.5,-130.5 402.5,-130.5"/>
<text text-anchor="middle" x="427" y="-137.5" font-family="Helvetica,sans-Serif" font-size="10.00">cstddef</text>
</g>
<!-- Node15&#45;&gt;Node16 -->
<g id="edge22" class="edge"><title>Node15&#45;&gt;Node16</title>
<path fill="none" stroke="midnightblue" d="M481.678,-260.269C470.442,-252.197 454.822,-239.179 446,-224 434.362,-203.975 429.852,-177.372 428.105,-159.743"/>
<polygon fill="midnightblue" stroke="midnightblue" points="431.582,-159.309 427.309,-149.614 424.603,-159.858 431.582,-159.309"/>
</g>
<!-- Node17 -->
<g id="node17" class="node"><title>Node17</title>
<polygon fill="white" stroke="#bfbfbf" points="66.5,-198.5 66.5,-217.5 125.5,-217.5 125.5,-198.5 66.5,-198.5"/>
<text text-anchor="middle" x="96" y="-205.5" font-family="Helvetica,sans-Serif" font-size="10.00">functional</text>
</g>
<!-- Node15&#45;&gt;Node17 -->
<g id="edge24" class="edge"><title>Node15&#45;&gt;Node17</title>
<path fill="none" stroke="midnightblue" d="M436.959,-266.268C364.93,-261.853 238.797,-250.758 134,-224 130.938,-223.218 127.79,-222.254 124.679,-221.195"/>
<polygon fill="midnightblue" stroke="midnightblue" points="125.613,-217.807 115.02,-217.593 123.167,-224.366 125.613,-217.807"/>
</g>
<!-- Node18 -->
<g id="node18" class="node"><title>Node18</title>
<polygon fill="white" stroke="#bfbfbf" points="349,-62.5 349,-81.5 403,-81.5 403,-62.5 349,-62.5"/>
<text text-anchor="middle" x="376" y="-69.5" font-family="Helvetica,sans-Serif" font-size="10.00">iostream</text>
</g>
<!-- Node15&#45;&gt;Node18 -->
<g id="edge25" class="edge"><title>Node15&#45;&gt;Node18</title>
<path fill="none" stroke="midnightblue" d="M458.333,-260.392C437.768,-253.741 413.257,-242.459 398,-224 366.434,-185.808 369.249,-122.823 373.057,-91.658"/>
<polygon fill="midnightblue" stroke="midnightblue" points="376.528,-92.1081 374.443,-81.7205 369.595,-91.1411 376.528,-92.1081"/>
</g>
<!-- Node19 -->
<g id="node19" class="node"><title>Node19</title>
<polygon fill="white" stroke="#bfbfbf" points="143.5,-198.5 143.5,-217.5 178.5,-217.5 178.5,-198.5 143.5,-198.5"/>
<text text-anchor="middle" x="161" y="-205.5" font-family="Helvetica,sans-Serif" font-size="10.00">map</text>
</g>
<!-- Node15&#45;&gt;Node19 -->
<g id="edge27" class="edge"><title>Node15&#45;&gt;Node19</title>
<path fill="none" stroke="midnightblue" d="M436.973,-266.714C374.139,-262.823 271.682,-252.32 188,-224 186.54,-223.506 185.067,-222.933 183.603,-222.307"/>
<polygon fill="midnightblue" stroke="midnightblue" points="184.799,-218.991 174.292,-217.634 181.659,-225.247 184.799,-218.991"/>
</g>
<!-- Node20 -->
<g id="node20" class="node"><title>Node20</title>
<polygon fill="white" stroke="#bfbfbf" points="197,-198.5 197,-217.5 227,-217.5 227,-198.5 197,-198.5"/>
<text text-anchor="middle" x="212" y="-205.5" font-family="Helvetica,sans-Serif" font-size="10.00">set</text>
</g>
<!-- Node15&#45;&gt;Node20 -->
<g id="edge29" class="edge"><title>Node15&#45;&gt;Node20</title>
<path fill="none" stroke="midnightblue" d="M436.98,-265.338C383.344,-260.473 302.179,-249.312 236,-224 234.944,-223.596 233.885,-223.144 232.83,-222.655"/>
<polygon fill="midnightblue" stroke="midnightblue" points="234.171,-219.396 223.731,-217.592 230.768,-225.513 234.171,-219.396"/>
</g>
<!-- Node21 -->
<g id="node21" class="node"><title>Node21</title>
<polygon fill="white" stroke="#bfbfbf" points="245,-198.5 245,-217.5 323,-217.5 323,-198.5 245,-198.5"/>
<text text-anchor="middle" x="284" y="-205.5" font-family="Helvetica,sans-Serif" font-size="10.00">unordered_set</text>
</g>
<!-- Node15&#45;&gt;Node21 -->
<g id="edge30" class="edge"><title>Node15&#45;&gt;Node21</title>
<path fill="none" stroke="midnightblue" d="M464.769,-260.403C427.713,-249.866 364.807,-231.978 323.836,-220.328"/>
<polygon fill="midnightblue" stroke="midnightblue" points="324.751,-216.949 314.175,-217.581 322.836,-223.682 324.751,-216.949"/>
</g>
<!-- Node22 -->
<g id="node22" class="node"><title>Node22</title>
<polygon fill="white" stroke="#bfbfbf" points="653,-0.5 653,-19.5 757,-19.5 757,-0.5 653,-0.5"/>
<text text-anchor="middle" x="705" y="-7.5" font-family="Helvetica,sans-Serif" font-size="10.00">shad/config/config.h</text>
</g>
<!-- Node15&#45;&gt;Node22 -->
<g id="edge33" class="edge"><title>Node15&#45;&gt;Node22</title>
<path fill="none" stroke="midnightblue" d="M544.883,-260.428C586.765,-252.667 647.931,-240.01 700,-224 736.603,-212.746 743.847,-204.626 780,-192 832.568,-173.642 866.762,-200.673 900,-156 909.873,-142.73 915.905,-77.8906 898,-56 881.544,-35.8807 817.284,-23.8351 767.38,-17.3413"/>
<polygon fill="midnightblue" stroke="midnightblue" points="767.648,-13.8476 757.291,-16.0774 766.778,-20.7933 767.648,-13.8476"/>
</g>
<!-- Node23 -->
<g id="node23" class="node"><title>Node23</title>
<g id="a_node23"><a xlink:href="handle_8h.html" target="_top" xlink:title="shad/runtime/handle.h">
<polygon fill="white" stroke="black" points="778.5,-130.5 778.5,-149.5 891.5,-149.5 891.5,-130.5 778.5,-130.5"/>
<text text-anchor="middle" x="835" y="-137.5" font-family="Helvetica,sans-Serif" font-size="10.00">shad/runtime/handle.h</text>
</a>
</g>
</g>
<!-- Node15&#45;&gt;Node23 -->
<g id="edge34" class="edge"><title>Node15&#45;&gt;Node23</title>
<path fill="none" stroke="midnightblue" d="M527.783,-260.495C558.63,-252.196 605.939,-238.701 646,-224 705.044,-202.332 771.958,-171.365 808.203,-154.032"/>
<polygon fill="midnightblue" stroke="midnightblue" points="810.084,-157.011 817.58,-149.524 807.051,-150.703 810.084,-157.011"/>
</g>
<!-- Node25 -->
<g id="node25" class="node"><title>Node25</title>
<g id="a_node25"><a xlink:href="mapping__traits_8h.html" target="_top" xlink:title="shad/runtime/mapping\l_traits.h">
<polygon fill="white" stroke="black" points="462.5,-57 462.5,-87 575.5,-87 575.5,-57 462.5,-57"/>
<text text-anchor="start" x="470.5" y="-75" font-family="Helvetica,sans-Serif" font-size="10.00">shad/runtime/mapping</text>
<text text-anchor="middle" x="519" y="-64" font-family="Helvetica,sans-Serif" font-size="10.00">_traits.h</text>
</a>
</g>
</g>
<!-- Node15&#45;&gt;Node25 -->
<g id="edge47" class="edge"><title>Node15&#45;&gt;Node25</title>
<path fill="none" stroke="midnightblue" d="M480.531,-260.421C444.78,-238.127 357.648,-176.447 393,-124 406.619,-103.795 429.748,-91.5926 452.501,-84.2237"/>
<polygon fill="midnightblue" stroke="midnightblue" points="453.606,-87.547 462.201,-81.3523 451.619,-80.835 453.606,-87.547"/>
</g>
<!-- Node28 -->
<g id="node28" class="node"><title>Node28</title>
<g id="a_node28"><a xlink:href="locality_8h.html" target="_top" xlink:title="shad/runtime/locality.h">
<polygon fill="white" stroke="black" points="508.5,-130.5 508.5,-149.5 623.5,-149.5 623.5,-130.5 508.5,-130.5"/>
<text text-anchor="middle" x="566" y="-137.5" font-family="Helvetica,sans-Serif" font-size="10.00">shad/runtime/locality.h</text>
</a>
</g>
</g>
<!-- Node15&#45;&gt;Node28 -->
<g id="edge41" class="edge"><title>Node15&#45;&gt;Node28</title>
<path fill="none" stroke="midnightblue" d="M539.696,-260.476C560.226,-254.086 582.699,-243.025 595,-224 608.48,-203.152 593.125,-175.291 580.134,-157.744"/>
<polygon fill="midnightblue" stroke="midnightblue" points="582.657,-155.292 573.721,-149.6 577.158,-159.622 582.657,-155.292"/>
</g>
<!-- Node29 -->
<g id="node29" class="node"><title>Node29</title>
<g id="a_node29"><a xlink:href="available__mappings_8h.html" target="_top" xlink:title="shad/runtime/mappings\l/available_mappings.h">
<polygon fill="white" stroke="black" points="642,-125 642,-155 760,-155 760,-125 642,-125"/>
<text text-anchor="start" x="650" y="-143" font-family="Helvetica,sans-Serif" font-size="10.00">shad/runtime/mappings</text>
<text text-anchor="middle" x="701" y="-132" font-family="Helvetica,sans-Serif" font-size="10.00">/available_mappings.h</text>
</a>
</g>
</g>
<!-- Node15&#45;&gt;Node29 -->
<g id="edge48" class="edge"><title>Node15&#45;&gt;Node29</title>
<path fill="none" stroke="midnightblue" d="M526.571,-260.47C551.028,-253.03 585.152,-240.789 612,-224 639.03,-207.097 665.116,-181.285 681.98,-162.938"/>
<polygon fill="midnightblue" stroke="midnightblue" points="684.955,-164.864 689.05,-155.092 679.755,-160.178 684.955,-164.864"/>
</g>
<!-- Node30 -->
<g id="node30" class="node"><title>Node30</title>
<g id="a_node30"><a xlink:href="synchronous__interface_8h.html" target="_top" xlink:title="shad/runtime/synchronous\l_interface.h">
<polygon fill="white" stroke="black" points="455.5,-193 455.5,-223 586.5,-223 586.5,-193 455.5,-193"/>
<text text-anchor="start" x="463.5" y="-211" font-family="Helvetica,sans-Serif" font-size="10.00">shad/runtime/synchronous</text>
<text text-anchor="middle" x="521" y="-200" font-family="Helvetica,sans-Serif" font-size="10.00">_interface.h</text>
</a>
</g>
</g>
<!-- Node15&#45;&gt;Node30 -->
<g id="edge50" class="edge"><title>Node15&#45;&gt;Node30</title>
<path fill="none" stroke="midnightblue" d="M498.725,-260.403C501.884,-253.113 506.569,-242.303 510.828,-232.475"/>
<polygon fill="midnightblue" stroke="midnightblue" points="514.108,-233.708 514.872,-223.141 507.685,-230.925 514.108,-233.708"/>
</g>
<!-- Node23&#45;&gt;Node22 -->
<g id="edge36" class="edge"><title>Node23&#45;&gt;Node22</title>
<path fill="none" stroke="midnightblue" d="M831.03,-130.314C823.288,-114.108 804.827,-78.8416 781,-56 767.25,-42.8185 748.95,-31.834 733.753,-24.0179"/>
<polygon fill="midnightblue" stroke="midnightblue" points="735.275,-20.8661 724.76,-19.5694 732.171,-27.1404 735.275,-20.8661"/>
</g>
<!-- Node24 -->
<g id="node24" class="node"><title>Node24</title>
<polygon fill="white" stroke="#bfbfbf" points="828,-62.5 828,-81.5 890,-81.5 890,-62.5 828,-62.5"/>
<text text-anchor="middle" x="859" y="-69.5" font-family="Helvetica,sans-Serif" font-size="10.00">type_traits</text>
</g>
<!-- Node23&#45;&gt;Node24 -->
<g id="edge35" class="edge"><title>Node23&#45;&gt;Node24</title>
<path fill="none" stroke="midnightblue" d="M838.138,-130.372C841.711,-120.544 847.654,-104.202 852.285,-91.4673"/>
<polygon fill="midnightblue" stroke="midnightblue" points="855.657,-92.4352 855.785,-81.8411 849.078,-90.0429 855.657,-92.4352"/>
</g>
<!-- Node23&#45;&gt;Node25 -->
<g id="edge37" class="edge"><title>Node23&#45;&gt;Node25</title>
<path fill="none" stroke="midnightblue" d="M798.031,-130.446C788.576,-128.3 778.419,-126.031 769,-124 707.019,-110.636 636.191,-96.2726 585.787,-86.2051"/>
<polygon fill="midnightblue" stroke="midnightblue" points="586.162,-82.7109 575.67,-84.1872 584.792,-89.5756 586.162,-82.7109"/>
</g>
<!-- Node27 -->
<g id="node27" class="node"><title>Node27</title>
<g id="a_node27"><a xlink:href="available__traits__mappings_8h.html" target="_top" xlink:title="shad/runtime/mappings\l/available_traits_mappings.h">
<polygon fill="white" stroke="black" points="632,-57 632,-87 772,-87 772,-57 632,-57"/>
<text text-anchor="start" x="640" y="-75" font-family="Helvetica,sans-Serif" font-size="10.00">shad/runtime/mappings</text>
<text text-anchor="middle" x="702" y="-64" font-family="Helvetica,sans-Serif" font-size="10.00">/available_traits_mappings.h</text>
</a>
</g>
</g>
<!-- Node23&#45;&gt;Node27 -->
<g id="edge40" class="edge"><title>Node23&#45;&gt;Node27</title>
<path fill="none" stroke="midnightblue" d="M817.613,-130.372C797.859,-120.569 765.041,-104.283 739.407,-91.5629"/>
<polygon fill="midnightblue" stroke="midnightblue" points="740.839,-88.3663 730.325,-87.0562 737.727,-94.6367 740.839,-88.3663"/>
</g>
<!-- Node25&#45;&gt;Node22 -->
<g id="edge39" class="edge"><title>Node25&#45;&gt;Node22</title>
<path fill="none" stroke="midnightblue" d="M562.609,-56.9327C594.926,-46.5077 638.453,-32.4667 668.843,-22.6635"/>
<polygon fill="midnightblue" stroke="midnightblue" points="670.168,-25.9138 678.611,-19.5127 668.019,-19.2518 670.168,-25.9138"/>
</g>
<!-- Node26 -->
<g id="node26" class="node"><title>Node26</title>
<polygon fill="white" stroke="#bfbfbf" points="498.5,-0.5 498.5,-19.5 539.5,-19.5 539.5,-0.5 498.5,-0.5"/>
<text text-anchor="middle" x="519" y="-7.5" font-family="Helvetica,sans-Serif" font-size="10.00">string</text>
</g>
<!-- Node25&#45;&gt;Node26 -->
<g id="edge38" class="edge"><title>Node25&#45;&gt;Node26</title>
<path fill="none" stroke="midnightblue" d="M519,-56.7808C519,-48.7812 519,-38.6887 519,-30.0168"/>
<polygon fill="midnightblue" stroke="midnightblue" points="522.5,-29.7305 519,-19.7305 515.5,-29.7306 522.5,-29.7305"/>
</g>
<!-- Node28&#45;&gt;Node4 -->
<g id="edge42" class="edge"><title>Node28&#45;&gt;Node4</title>
<path fill="none" stroke="midnightblue" d="M526.831,-130.485C516.199,-128.271 504.675,-125.959 494,-124 389.24,-104.777 264.457,-86.1755 206.127,-77.7293"/>
<polygon fill="midnightblue" stroke="midnightblue" points="206.427,-74.2363 196.029,-76.2726 205.427,-81.1646 206.427,-74.2363"/>
</g>
<!-- Node28&#45;&gt;Node18 -->
<g id="edge43" class="edge"><title>Node28&#45;&gt;Node18</title>
<path fill="none" stroke="midnightblue" d="M541.161,-130.372C507.642,-118.728 447.795,-97.9394 410.088,-84.8411"/>
<polygon fill="midnightblue" stroke="midnightblue" points="411.139,-81.5011 400.544,-81.5259 408.842,-88.1135 411.139,-81.5011"/>
</g>
<!-- Node28&#45;&gt;Node22 -->
<g id="edge44" class="edge"><title>Node28&#45;&gt;Node22</title>
<path fill="none" stroke="midnightblue" d="M570.24,-130.253C578.494,-113.947 598.113,-78.5181 623,-56 637.998,-42.4295 657.813,-31.4117 674.207,-23.6751"/>
<polygon fill="midnightblue" stroke="midnightblue" points="675.741,-26.8227 683.402,-19.5045 672.85,-20.4477 675.741,-26.8227"/>
</g>
<!-- Node28&#45;&gt;Node25 -->
<g id="edge45" class="edge"><title>Node28&#45;&gt;Node25</title>
<path fill="none" stroke="midnightblue" d="M559.856,-130.372C553.568,-121.543 543.537,-107.456 534.987,-95.4503"/>
<polygon fill="midnightblue" stroke="midnightblue" points="537.751,-93.2969 529.099,-87.1815 532.049,-97.3574 537.751,-93.2969"/>
</g>
<!-- Node28&#45;&gt;Node27 -->
<g id="edge46" class="edge"><title>Node28&#45;&gt;Node27</title>
<path fill="none" stroke="midnightblue" d="M583.78,-130.372C603.979,-120.569 637.537,-104.283 663.749,-91.5629"/>
<polygon fill="midnightblue" stroke="midnightblue" points="665.567,-94.5711 673.036,-87.0562 662.511,-88.2735 665.567,-94.5711"/>
</g>
<!-- Node29&#45;&gt;Node27 -->
<g id="edge49" class="edge"><title>Node29&#45;&gt;Node27</title>
<path fill="none" stroke="midnightblue" d="M701.217,-124.679C701.338,-116.722 701.491,-106.605 701.63,-97.4356"/>
<polygon fill="midnightblue" stroke="midnightblue" points="705.131,-97.345 701.783,-87.2931 698.132,-97.2389 705.131,-97.345"/>
</g>
<!-- Node30&#45;&gt;Node4 -->
<g id="edge52" class="edge"><title>Node30&#45;&gt;Node4</title>
<path fill="none" stroke="midnightblue" d="M514.837,-192.942C505.749,-173.995 486.878,-140.718 460,-124 417.971,-97.858 272.605,-81.8898 206.361,-75.8109"/>
<polygon fill="midnightblue" stroke="midnightblue" points="206.337,-72.2948 196.065,-74.8875 205.712,-79.2668 206.337,-72.2948"/>
</g>
<!-- Node30&#45;&gt;Node7 -->
<g id="edge53" class="edge"><title>Node30&#45;&gt;Node7</title>
<path fill="none" stroke="midnightblue" d="M586.589,-199.512C662.311,-190.557 790.502,-174.444 900,-156 912.297,-153.929 925.674,-151.325 937.63,-148.871"/>
<polygon fill="midnightblue" stroke="midnightblue" points="938.632,-152.238 947.708,-146.771 937.204,-145.385 938.632,-152.238"/>
</g>
<!-- Node30&#45;&gt;Node16 -->
<g id="edge51" class="edge"><title>Node30&#45;&gt;Node16</title>
<path fill="none" stroke="midnightblue" d="M500.603,-192.679C484.986,-181.713 463.525,-166.645 447.806,-155.609"/>
<polygon fill="midnightblue" stroke="midnightblue" points="449.498,-152.52 439.302,-149.638 445.475,-158.249 449.498,-152.52"/>
</g>
<!-- Node30&#45;&gt;Node28 -->
<g id="edge54" class="edge"><title>Node30&#45;&gt;Node28</title>
<path fill="none" stroke="midnightblue" d="M530.764,-192.679C537.642,-182.592 546.887,-169.033 554.181,-158.335"/>
<polygon fill="midnightblue" stroke="midnightblue" points="557.239,-160.062 559.981,-149.828 551.455,-156.119 557.239,-160.062"/>
</g>
<!-- Node31&#45;&gt;Node2 -->
<g id="edge57" class="edge"><title>Node31&#45;&gt;Node2</title>
<path fill="none" stroke="midnightblue" d="M346.821,-384.841C320.527,-373.272 283.672,-357.055 258.215,-345.855"/>
<polygon fill="midnightblue" stroke="midnightblue" points="259.294,-342.506 248.732,-341.682 256.475,-348.913 259.294,-342.506"/>
</g>
<!-- Node31&#45;&gt;Node3 -->
<g id="edge59" class="edge"><title>Node31&#45;&gt;Node3</title>
<path fill="none" stroke="midnightblue" d="M348.259,-384.881C332.805,-376.294 315.06,-363.899 304,-348 291.99,-330.734 287.548,-306.659 285.918,-290.047"/>
<polygon fill="midnightblue" stroke="midnightblue" points="289.397,-289.634 285.181,-279.914 282.416,-290.142 289.397,-289.634"/>
</g>
<!-- Node31&#45;&gt;Node11 -->
<g id="edge60" class="edge"><title>Node31&#45;&gt;Node11</title>
<path fill="none" stroke="midnightblue" d="M433.029,-385.114C461.215,-376.625 495.635,-364.249 524,-348 576.538,-317.902 573.367,-286.104 628,-260 704.762,-223.323 734.3,-247.721 816,-224 818.81,-223.184 821.7,-222.242 824.573,-221.235"/>
<polygon fill="midnightblue" stroke="midnightblue" points="825.993,-224.441 834.128,-217.653 823.536,-217.886 825.993,-224.441"/>
</g>
<!-- Node31&#45;&gt;Node14 -->
<g id="edge61" class="edge"><title>Node31&#45;&gt;Node14</title>
<path fill="none" stroke="midnightblue" d="M396.793,-384.679C408.153,-375.536 423.057,-363.54 435.646,-353.407"/>
<polygon fill="midnightblue" stroke="midnightblue" points="437.928,-356.063 443.524,-347.066 433.539,-350.61 437.928,-356.063"/>
</g>
<!-- Node31&#45;&gt;Node15 -->
<g id="edge62" class="edge"><title>Node31&#45;&gt;Node15</title>
<path fill="none" stroke="midnightblue" d="M378.621,-384.75C378.886,-366.791 381.905,-335.874 398,-316 410.618,-300.419 429.854,-289.976 447.878,-283.108"/>
<polygon fill="midnightblue" stroke="midnightblue" points="449.442,-286.268 457.716,-279.651 447.121,-279.664 449.442,-286.268"/>
</g>
<!-- Node32 -->
<g id="node32" class="node"><title>Node32</title>
<polygon fill="white" stroke="#bfbfbf" points="313,-322.5 313,-341.5 351,-341.5 351,-322.5 313,-322.5"/>
<text text-anchor="middle" x="332" y="-329.5" font-family="Helvetica,sans-Serif" font-size="10.00">array</text>
</g>
<!-- Node31&#45;&gt;Node32 -->
<g id="edge58" class="edge"><title>Node31&#45;&gt;Node32</title>
<path fill="none" stroke="midnightblue" d="M368.802,-384.679C361.546,-374.49 351.768,-360.759 344.114,-350.011"/>
<polygon fill="midnightblue" stroke="midnightblue" points="346.939,-347.944 338.287,-341.828 341.237,-352.004 346.939,-347.944"/>
</g>
</g>
</svg>
