<?xml version="1.0" encoding="UTF-8" standalone="no"?>
<!DOCTYPE svg PUBLIC "-//W3C//DTD SVG 1.1//EN"
 "http://www.w3.org/Graphics/SVG/1.1/DTD/svg11.dtd">
<!-- Generated by graphviz version 2.36.0 (20140111.2315)
 -->
<!-- Title: include/shad/data_structures/vector.h Pages: 1 -->
<svg width="1350pt" height="492pt"
 viewBox="0.00 0.00 1349.90 492.00" xmlns="http://www.w3.org/2000/svg" xmlns:xlink="http://www.w3.org/1999/xlink">
<g id="graph0" class="graph" transform="scale(1 1) rotate(0) translate(4 488)">
<title>include/shad/data_structures/vector.h</title>
<polygon fill="white" stroke="none" points="-4,4 -4,-488 1345.9,-488 1345.9,4 -4,4"/>
<!-- Node1 -->
<g id="node1" class="node"><title>Node1</title>
<polygon fill="#bfbfbf" stroke="black" points="984.897,-453 984.897,-483 1126.9,-483 1126.9,-453 984.897,-453"/>
<text text-anchor="start" x="992.897" y="-471" font-family="Helvetica,sans-Serif" font-size="10.00">include/shad/data_structures</text>
<text text-anchor="middle" x="1055.9" y="-460" font-family="Helvetica,sans-Serif" font-size="10.00">/vector.h</text>
</g>
<!-- Node2 -->
<g id="node2" class="node"><title>Node2</title>
<polygon fill="white" stroke="#bfbfbf" points="376.897,-322.5 376.897,-341.5 432.897,-341.5 432.897,-322.5 376.897,-322.5"/>
<text text-anchor="middle" x="404.897" y="-329.5" font-family="Helvetica,sans-Serif" font-size="10.00">algorithm</text>
</g>
<!-- Node1&#45;&gt;Node2 -->
<g id="edge1" class="edge"><title>Node1&#45;&gt;Node2</title>
<path fill="none" stroke="midnightblue" d="M984.657,-466.357C853.192,-464.226 578.011,-455.081 491.897,-416 459.587,-401.337 431.829,-369.557 416.822,-349.853"/>
<polygon fill="midnightblue" stroke="midnightblue" points="419.604,-347.728 410.854,-341.754 413.969,-351.881 419.604,-347.728"/>
</g>
<!-- Node3 -->
<g id="node3" class="node"><title>Node3</title>
<polygon fill="white" stroke="#bfbfbf" points="437.897,-260.5 437.897,-279.5 483.897,-279.5 483.897,-260.5 437.897,-260.5"/>
<text text-anchor="middle" x="460.897" y="-267.5" font-family="Helvetica,sans-Serif" font-size="10.00">atomic</text>
</g>
<!-- Node1&#45;&gt;Node3 -->
<g id="edge2" class="edge"><title>Node1&#45;&gt;Node3</title>
<path fill="none" stroke="midnightblue" d="M984.738,-465.698C822.505,-462.146 435.546,-450.157 387.897,-416 350.286,-389.039 333.627,-354.767 358.897,-316 373.995,-292.836 404.007,-281.511 427.585,-276.026"/>
<polygon fill="midnightblue" stroke="midnightblue" points="428.481,-279.415 437.561,-273.955 427.058,-272.561 428.481,-279.415"/>
</g>
<!-- Node4 -->
<g id="node4" class="node"><title>Node4</title>
<polygon fill="white" stroke="#bfbfbf" points="782.897,-62.5 782.897,-81.5 828.897,-81.5 828.897,-62.5 782.897,-62.5"/>
<text text-anchor="middle" x="805.897" y="-69.5" font-family="Helvetica,sans-Serif" font-size="10.00">cstdint</text>
</g>
<!-- Node1&#45;&gt;Node4 -->
<g id="edge3" class="edge"><title>Node1&#45;&gt;Node4</title>
<path fill="none" stroke="midnightblue" d="M1127.12,-453.826C1153.95,-446.185 1183.38,-434.306 1205.9,-416 1239.14,-388.977 1254.9,-375.838 1254.9,-333 1254.9,-333 1254.9,-333 1254.9,-207 1254.9,-120.28 943.467,-85.0629 839.344,-75.7118"/>
<polygon fill="midnightblue" stroke="midnightblue" points="839.358,-72.1998 829.091,-74.8151 838.748,-79.1732 839.358,-72.1998"/>
</g>
<!-- Node5 -->
<g id="node5" class="node"><title>Node5</title>
<polygon fill="white" stroke="#bfbfbf" points="953.397,-198.5 953.397,-217.5 1000.4,-217.5 1000.4,-198.5 953.397,-198.5"/>
<text text-anchor="middle" x="976.897" y="-205.5" font-family="Helvetica,sans-Serif" font-size="10.00">iterator</text>
</g>
<!-- Node1&#45;&gt;Node5 -->
<g id="edge4" class="edge"><title>Node1&#45;&gt;Node5</title>
<path fill="none" stroke="midnightblue" d="M1081.73,-452.884C1094.88,-444.158 1109.59,-431.632 1116.9,-416 1135.72,-375.736 1136.59,-355.842 1116.9,-316 1094.13,-269.949 1040.99,-238.273 1007.12,-221.928"/>
<polygon fill="midnightblue" stroke="midnightblue" points="1008.25,-218.59 997.706,-217.537 1005.29,-224.935 1008.25,-218.59"/>
</g>
<!-- Node6 -->
<g id="node6" class="node"><title>Node6</title>
<polygon fill="white" stroke="#bfbfbf" points="746.897,-260.5 746.897,-279.5 786.897,-279.5 786.897,-260.5 746.897,-260.5"/>
<text text-anchor="middle" x="766.897" y="-267.5" font-family="Helvetica,sans-Serif" font-size="10.00">limits</text>
</g>
<!-- Node1&#45;&gt;Node6 -->
<g id="edge5" class="edge"><title>Node1&#45;&gt;Node6</title>
<path fill="none" stroke="midnightblue" d="M984.748,-461.135C944.532,-454.93 895.032,-442.18 857.897,-416 812.048,-383.678 784.34,-320.196 772.945,-289.072"/>
<polygon fill="midnightblue" stroke="midnightblue" points="776.206,-287.794 769.592,-279.516 769.601,-290.111 776.206,-287.794"/>
</g>
<!-- Node7 -->
<g id="node7" class="node"><title>Node7</title>
<polygon fill="white" stroke="#bfbfbf" points="927.897,-130.5 927.897,-149.5 979.897,-149.5 979.897,-130.5 927.897,-130.5"/>
<text text-anchor="middle" x="953.897" y="-137.5" font-family="Helvetica,sans-Serif" font-size="10.00">memory</text>
</g>
<!-- Node1&#45;&gt;Node7 -->
<g id="edge6" class="edge"><title>Node1&#45;&gt;Node7</title>
<path fill="none" stroke="midnightblue" d="M1112.5,-452.983C1135.02,-445.121 1159.82,-433.307 1177.9,-416 1207.33,-387.81 1216.9,-373.758 1216.9,-333 1216.9,-333 1216.9,-333 1216.9,-269 1216.9,-169.296 1062.19,-147.237 990.086,-142.37"/>
<polygon fill="midnightblue" stroke="midnightblue" points="990.267,-138.875 980.076,-141.77 989.848,-145.862 990.267,-138.875"/>
</g>
<!-- Node8 -->
<g id="node8" class="node"><title>Node8</title>
<polygon fill="white" stroke="#bfbfbf" points="1283.4,-390.5 1283.4,-409.5 1342.4,-409.5 1342.4,-390.5 1283.4,-390.5"/>
<text text-anchor="middle" x="1312.9" y="-397.5" font-family="Helvetica,sans-Serif" font-size="10.00">stdexcept</text>
</g>
<!-- Node1&#45;&gt;Node8 -->
<g id="edge7" class="edge"><title>Node1&#45;&gt;Node8</title>
<path fill="none" stroke="midnightblue" d="M1121.57,-452.945C1163.89,-443.478 1219.95,-430.168 1268.9,-416 1272.44,-414.975 1276.12,-413.838 1279.77,-412.661"/>
<polygon fill="midnightblue" stroke="midnightblue" points="1280.89,-415.978 1289.28,-409.506 1278.68,-409.335 1280.89,-415.978"/>
</g>
<!-- Node9 -->
<g id="node9" class="node"><title>Node9</title>
<polygon fill="white" stroke="#bfbfbf" points="1036.9,-322.5 1036.9,-341.5 1074.9,-341.5 1074.9,-322.5 1036.9,-322.5"/>
<text text-anchor="middle" x="1055.9" y="-329.5" font-family="Helvetica,sans-Serif" font-size="10.00">tuple</text>
</g>
<!-- Node1&#45;&gt;Node9 -->
<g id="edge8" class="edge"><title>Node1&#45;&gt;Node9</title>
<path fill="none" stroke="midnightblue" d="M1055.9,-452.66C1055.9,-428.32 1055.9,-378.933 1055.9,-351.837"/>
<polygon fill="midnightblue" stroke="midnightblue" points="1059.4,-351.727 1055.9,-341.728 1052.4,-351.728 1059.4,-351.727"/>
</g>
<!-- Node10 -->
<g id="node10" class="node"><title>Node10</title>
<polygon fill="white" stroke="#bfbfbf" points="1056.9,-198.5 1056.9,-217.5 1096.9,-217.5 1096.9,-198.5 1056.9,-198.5"/>
<text text-anchor="middle" x="1076.9" y="-205.5" font-family="Helvetica,sans-Serif" font-size="10.00">utility</text>
</g>
<!-- Node1&#45;&gt;Node10 -->
<g id="edge9" class="edge"><title>Node1&#45;&gt;Node10</title>
<path fill="none" stroke="midnightblue" d="M1107.3,-452.903C1125.6,-445.138 1144.28,-433.415 1154.9,-416 1190.99,-356.803 1187.88,-320.983 1154.9,-260 1144.63,-241.029 1123.91,-227.986 1106.4,-219.841"/>
<polygon fill="midnightblue" stroke="midnightblue" points="1107.66,-216.572 1097.09,-215.814 1104.88,-222.997 1107.66,-216.572"/>
</g>
<!-- Node11 -->
<g id="node11" class="node"><title>Node11</title>
<polygon fill="white" stroke="#bfbfbf" points="890.897,-198.5 890.897,-217.5 934.897,-217.5 934.897,-198.5 890.897,-198.5"/>
<text text-anchor="middle" x="912.897" y="-205.5" font-family="Helvetica,sans-Serif" font-size="10.00">vector</text>
</g>
<!-- Node1&#45;&gt;Node11 -->
<g id="edge10" class="edge"><title>Node1&#45;&gt;Node11</title>
<path fill="none" stroke="midnightblue" d="M1064.44,-452.681C1079.96,-424.633 1108.96,-361.247 1083.9,-316 1075.7,-301.199 982.43,-247.768 937.202,-222.466"/>
<polygon fill="midnightblue" stroke="midnightblue" points="938.766,-219.331 928.328,-217.517 935.357,-225.444 938.766,-219.331"/>
</g>
<!-- Node12 -->
<g id="node12" class="node"><title>Node12</title>
<g id="a_node12"><a xlink:href="abstract__data__structure_8h.html" target="_top" xlink:title="shad/data_structures\l/abstract_data_structure.h">
<polygon fill="white" stroke="black" points="867.397,-385 867.397,-415 998.397,-415 998.397,-385 867.397,-385"/>
<text text-anchor="start" x="875.397" y="-403" font-family="Helvetica,sans-Serif" font-size="10.00">shad/data_structures</text>
<text text-anchor="middle" x="932.897" y="-392" font-family="Helvetica,sans-Serif" font-size="10.00">/abstract_data_structure.h</text>
</a>
</g>
</g>
<!-- Node1&#45;&gt;Node12 -->
<g id="edge11" class="edge"><title>Node1&#45;&gt;Node12</title>
<path fill="none" stroke="midnightblue" d="M1029.51,-452.841C1011.59,-443.228 987.7,-430.407 968.156,-419.92"/>
<polygon fill="midnightblue" stroke="midnightblue" points="969.706,-416.779 959.239,-415.135 966.396,-422.948 969.706,-416.779"/>
</g>
<!-- Node15 -->
<g id="node15" class="node"><title>Node15</title>
<g id="a_node15"><a xlink:href="runtime_8h.html" target="_top" xlink:title="shad/runtime/runtime.h">
<polygon fill="white" stroke="black" points="538.897,-260.5 538.897,-279.5 654.897,-279.5 654.897,-260.5 538.897,-260.5"/>
<text text-anchor="middle" x="596.897" y="-267.5" font-family="Helvetica,sans-Serif" font-size="10.00">shad/runtime/runtime.h</text>
</a>
</g>
</g>
<!-- Node1&#45;&gt;Node15 -->
<g id="edge62" class="edge"><title>Node1&#45;&gt;Node15</title>
<path fill="none" stroke="midnightblue" d="M984.753,-466.569C845.305,-464.83 541.324,-456.37 445.897,-416 403.54,-398.081 386.939,-389.864 367.897,-348 362.008,-335.054 358.861,-326.983 367.897,-316 378.189,-303.488 465.01,-289.045 528.715,-279.968"/>
<polygon fill="midnightblue" stroke="midnightblue" points="529.312,-283.418 538.726,-278.558 528.336,-276.487 529.312,-283.418"/>
</g>
<!-- Node31 -->
<g id="node31" class="node"><title>Node31</title>
<g id="a_node31"><a xlink:href="buffer_8h.html" target="_top" xlink:title="shad/data_structures\l/buffer.h">
<polygon fill="white" stroke="black" points="500.897,-385 500.897,-415 608.897,-415 608.897,-385 500.897,-385"/>
<text text-anchor="start" x="508.897" y="-403" font-family="Helvetica,sans-Serif" font-size="10.00">shad/data_structures</text>
<text text-anchor="middle" x="554.897" y="-392" font-family="Helvetica,sans-Serif" font-size="10.00">/buffer.h</text>
</a>
</g>
</g>
<!-- Node1&#45;&gt;Node31 -->
<g id="edge55" class="edge"><title>Node1&#45;&gt;Node31</title>
<path fill="none" stroke="midnightblue" d="M984.648,-457.614C886.903,-444.737 712.693,-421.788 618.903,-409.432"/>
<polygon fill="midnightblue" stroke="midnightblue" points="619.35,-405.961 608.978,-408.125 618.435,-412.901 619.35,-405.961"/>
</g>
<!-- Node12&#45;&gt;Node6 -->
<g id="edge13" class="edge"><title>Node12&#45;&gt;Node6</title>
<path fill="none" stroke="midnightblue" d="M908.057,-384.891C891.637,-375.199 869.902,-361.659 851.897,-348 826.267,-328.557 799.133,-302.987 782.601,-286.767"/>
<polygon fill="midnightblue" stroke="midnightblue" points="784.957,-284.175 775.39,-279.623 780.031,-289.148 784.957,-284.175"/>
</g>
<!-- Node12&#45;&gt;Node7 -->
<g id="edge14" class="edge"><title>Node12&#45;&gt;Node7</title>
<path fill="none" stroke="midnightblue" d="M941.547,-384.699C958.538,-355.676 995.757,-287.24 1008.9,-224 1011.79,-210.075 1014.59,-205.035 1008.9,-192 1002.32,-176.922 988.835,-164.306 976.868,-155.393"/>
<polygon fill="midnightblue" stroke="midnightblue" points="978.743,-152.434 968.541,-149.576 974.734,-158.172 978.743,-152.434"/>
</g>
<!-- Node12&#45;&gt;Node9 -->
<g id="edge15" class="edge"><title>Node12&#45;&gt;Node9</title>
<path fill="none" stroke="midnightblue" d="M959.283,-384.841C980.463,-373.476 1010,-357.628 1030.82,-346.454"/>
<polygon fill="midnightblue" stroke="midnightblue" points="1032.56,-349.494 1039.72,-341.682 1029.25,-343.326 1032.56,-349.494"/>
</g>
<!-- Node12&#45;&gt;Node10 -->
<g id="edge16" class="edge"><title>Node12&#45;&gt;Node10</title>
<path fill="none" stroke="midnightblue" d="M948.649,-384.954C959.363,-375.073 973.59,-361.292 984.897,-348 1019.3,-307.559 1051.64,-253.691 1067.21,-226.412"/>
<polygon fill="midnightblue" stroke="midnightblue" points="1070.29,-228.069 1072.16,-217.64 1064.2,-224.63 1070.29,-228.069"/>
</g>
<!-- Node12&#45;&gt;Node11 -->
<g id="edge17" class="edge"><title>Node12&#45;&gt;Node11</title>
<path fill="none" stroke="midnightblue" d="M931.393,-384.719C927.837,-350.932 918.904,-266.075 914.897,-228.004"/>
<polygon fill="midnightblue" stroke="midnightblue" points="918.35,-227.377 913.823,-217.799 911.389,-228.11 918.35,-227.377"/>
</g>
<!-- Node13 -->
<g id="node13" class="node"><title>Node13</title>
<polygon fill="white" stroke="#bfbfbf" points="861.397,-322.5 861.397,-341.5 904.397,-341.5 904.397,-322.5 861.397,-322.5"/>
<text text-anchor="middle" x="882.897" y="-329.5" font-family="Helvetica,sans-Serif" font-size="10.00">deque</text>
</g>
<!-- Node12&#45;&gt;Node13 -->
<g id="edge12" class="edge"><title>Node12&#45;&gt;Node13</title>
<path fill="none" stroke="midnightblue" d="M922.047,-384.679C914.328,-374.49 903.926,-360.759 895.784,-350.011"/>
<polygon fill="midnightblue" stroke="midnightblue" points="898.413,-347.686 889.585,-341.828 892.833,-351.913 898.413,-347.686"/>
</g>
<!-- Node14 -->
<g id="node14" class="node"><title>Node14</title>
<g id="a_node14"><a xlink:href="object__identifier_8h.html" target="_top" xlink:title="shad/data_structures\l/object_identifier.h">
<polygon fill="white" stroke="black" points="582.897,-317 582.897,-347 690.897,-347 690.897,-317 582.897,-317"/>
<text text-anchor="start" x="590.897" y="-335" font-family="Helvetica,sans-Serif" font-size="10.00">shad/data_structures</text>
<text text-anchor="middle" x="636.897" y="-324" font-family="Helvetica,sans-Serif" font-size="10.00">/object_identifier.h</text>
</a>
</g>
</g>
<!-- Node12&#45;&gt;Node14 -->
<g id="edge18" class="edge"><title>Node12&#45;&gt;Node14</title>
<path fill="none" stroke="midnightblue" d="M869.76,-384.922C820.042,-373.836 751.024,-358.447 701.046,-347.304"/>
<polygon fill="midnightblue" stroke="midnightblue" points="701.522,-343.824 691,-345.064 699.998,-350.656 701.522,-343.824"/>
</g>
<!-- Node12&#45;&gt;Node15 -->
<g id="edge54" class="edge"><title>Node12&#45;&gt;Node15</title>
<path fill="none" stroke="midnightblue" d="M895.978,-384.936C829.632,-359.661 691.345,-306.98 628.817,-283.16"/>
<polygon fill="midnightblue" stroke="midnightblue" points="630.046,-279.883 619.455,-279.594 627.554,-286.424 630.046,-279.883"/>
</g>
<!-- Node14&#45;&gt;Node3 -->
<g id="edge19" class="edge"><title>Node14&#45;&gt;Node3</title>
<path fill="none" stroke="midnightblue" d="M595.632,-316.933C564.549,-306.336 522.507,-292.004 493.7,-282.183"/>
<polygon fill="midnightblue" stroke="midnightblue" points="494.697,-278.825 484.102,-278.911 492.438,-285.451 494.697,-278.825"/>
</g>
<!-- Node14&#45;&gt;Node6 -->
<g id="edge20" class="edge"><title>Node14&#45;&gt;Node6</title>
<path fill="none" stroke="midnightblue" d="M667.376,-316.933C689.015,-306.946 717.844,-293.64 738.902,-283.92"/>
<polygon fill="midnightblue" stroke="midnightblue" points="740.65,-286.969 748.263,-279.6 737.717,-280.613 740.65,-286.969"/>
</g>
<!-- Node14&#45;&gt;Node15 -->
<g id="edge21" class="edge"><title>Node14&#45;&gt;Node15</title>
<path fill="none" stroke="midnightblue" d="M627.417,-316.781C621.724,-308.242 614.442,-297.318 608.419,-288.283"/>
<polygon fill="midnightblue" stroke="midnightblue" points="611.176,-286.11 602.717,-279.731 605.352,-289.993 611.176,-286.11"/>
</g>
<!-- Node15&#45;&gt;Node4 -->
<g id="edge23" class="edge"><title>Node15&#45;&gt;Node4</title>
<path fill="none" stroke="midnightblue" d="M655.188,-262.376C704.053,-255.566 768.549,-243.215 785.897,-224 819.198,-187.114 814.385,-123.014 809.471,-91.5306"/>
<polygon fill="midnightblue" stroke="midnightblue" points="812.891,-90.7685 807.726,-81.5178 805.995,-91.9703 812.891,-90.7685"/>
</g>
<!-- Node15&#45;&gt;Node5 -->
<g id="edge26" class="edge"><title>Node15&#45;&gt;Node5</title>
<path fill="none" stroke="midnightblue" d="M655.147,-266.503C724.739,-262.364 844.153,-251.585 942.897,-224 945.398,-223.301 947.953,-222.452 950.483,-221.515"/>
<polygon fill="midnightblue" stroke="midnightblue" points="952.039,-224.66 959.952,-217.614 949.373,-218.187 952.039,-224.66"/>
</g>
<!-- Node15&#45;&gt;Node7 -->
<g id="edge28" class="edge"><title>Node15&#45;&gt;Node7</title>
<path fill="none" stroke="midnightblue" d="M655.29,-265.581C705.705,-260.917 779.567,-249.914 838.897,-224 860.727,-214.465 862.62,-205.997 881.897,-192 899.141,-179.478 918.907,-165.504 933.361,-155.354"/>
<polygon fill="midnightblue" stroke="midnightblue" points="935.425,-158.182 941.604,-149.576 931.407,-152.45 935.425,-158.182"/>
</g>
<!-- Node15&#45;&gt;Node10 -->
<g id="edge31" class="edge"><title>Node15&#45;&gt;Node10</title>
<path fill="none" stroke="midnightblue" d="M655.162,-264.637C735.222,-258.187 883.582,-244.603 1008.9,-224 1021.44,-221.937 1035.16,-219.037 1046.97,-216.336"/>
<polygon fill="midnightblue" stroke="midnightblue" points="1047.84,-219.727 1056.77,-214.04 1046.24,-212.912 1047.84,-219.727"/>
</g>
<!-- Node15&#45;&gt;Node11 -->
<g id="edge32" class="edge"><title>Node15&#45;&gt;Node11</title>
<path fill="none" stroke="midnightblue" d="M655.141,-263.679C712.387,-257.51 801.836,-245.346 876.897,-224 879.552,-223.245 882.276,-222.349 884.978,-221.378"/>
<polygon fill="midnightblue" stroke="midnightblue" points="886.478,-224.549 894.51,-217.639 883.922,-218.032 886.478,-224.549"/>
</g>
<!-- Node16 -->
<g id="node16" class="node"><title>Node16</title>
<polygon fill="white" stroke="#bfbfbf" points="421.397,-130.5 421.397,-149.5 470.397,-149.5 470.397,-130.5 421.397,-130.5"/>
<text text-anchor="middle" x="445.897" y="-137.5" font-family="Helvetica,sans-Serif" font-size="10.00">cstddef</text>
</g>
<!-- Node15&#45;&gt;Node16 -->
<g id="edge22" class="edge"><title>Node15&#45;&gt;Node16</title>
<path fill="none" stroke="midnightblue" d="M538.692,-262.953C447.311,-253.18 279.612,-234.001 270.897,-224 261.553,-213.278 262.172,-203.232 270.897,-192 310.572,-140.922 350.767,-177.125 411.897,-156 414.16,-155.218 416.483,-154.347 418.799,-153.429"/>
<polygon fill="midnightblue" stroke="midnightblue" points="420.262,-156.611 428.12,-149.505 417.546,-150.16 420.262,-156.611"/>
</g>
<!-- Node17 -->
<g id="node17" class="node"><title>Node17</title>
<polygon fill="white" stroke="#bfbfbf" points="429.397,-198.5 429.397,-217.5 488.397,-217.5 488.397,-198.5 429.397,-198.5"/>
<text text-anchor="middle" x="458.897" y="-205.5" font-family="Helvetica,sans-Serif" font-size="10.00">functional</text>
</g>
<!-- Node15&#45;&gt;Node17 -->
<g id="edge24" class="edge"><title>Node15&#45;&gt;Node17</title>
<path fill="none" stroke="midnightblue" d="M577.125,-260.403C553.76,-250.245 514.682,-233.255 487.894,-221.607"/>
<polygon fill="midnightblue" stroke="midnightblue" points="489.198,-218.358 478.632,-217.581 486.407,-224.778 489.198,-218.358"/>
</g>
<!-- Node18 -->
<g id="node18" class="node"><title>Node18</title>
<polygon fill="white" stroke="#bfbfbf" points="506.897,-198.5 506.897,-217.5 560.897,-217.5 560.897,-198.5 506.897,-198.5"/>
<text text-anchor="middle" x="533.897" y="-205.5" font-family="Helvetica,sans-Serif" font-size="10.00">iostream</text>
</g>
<!-- Node15&#45;&gt;Node18 -->
<g id="edge25" class="edge"><title>Node15&#45;&gt;Node18</title>
<path fill="none" stroke="midnightblue" d="M587.87,-260.403C578.139,-251.136 562.439,-236.183 550.474,-224.788"/>
<polygon fill="midnightblue" stroke="midnightblue" points="552.561,-221.943 542.906,-217.581 547.734,-227.012 552.561,-221.943"/>
</g>
<!-- Node19 -->
<g id="node19" class="node"><title>Node19</title>
<polygon fill="white" stroke="#bfbfbf" points="579.397,-198.5 579.397,-217.5 614.397,-217.5 614.397,-198.5 579.397,-198.5"/>
<text text-anchor="middle" x="596.897" y="-205.5" font-family="Helvetica,sans-Serif" font-size="10.00">map</text>
</g>
<!-- Node15&#45;&gt;Node19 -->
<g id="edge27" class="edge"><title>Node15&#45;&gt;Node19</title>
<path fill="none" stroke="midnightblue" d="M596.897,-260.403C596.897,-251.938 596.897,-238.728 596.897,-227.82"/>
<polygon fill="midnightblue" stroke="midnightblue" points="600.397,-227.581 596.897,-217.581 593.397,-227.581 600.397,-227.581"/>
</g>
<!-- Node20 -->
<g id="node20" class="node"><title>Node20</title>
<polygon fill="white" stroke="#bfbfbf" points="632.897,-198.5 632.897,-217.5 662.897,-217.5 662.897,-198.5 632.897,-198.5"/>
<text text-anchor="middle" x="647.897" y="-205.5" font-family="Helvetica,sans-Serif" font-size="10.00">set</text>
</g>
<!-- Node15&#45;&gt;Node20 -->
<g id="edge29" class="edge"><title>Node15&#45;&gt;Node20</title>
<path fill="none" stroke="midnightblue" d="M604.204,-260.403C611.929,-251.314 624.304,-236.756 633.915,-225.449"/>
<polygon fill="midnightblue" stroke="midnightblue" points="636.793,-227.467 640.603,-217.581 631.46,-222.933 636.793,-227.467"/>
</g>
<!-- Node21 -->
<g id="node21" class="node"><title>Node21</title>
<polygon fill="white" stroke="#bfbfbf" points="680.897,-198.5 680.897,-217.5 758.897,-217.5 758.897,-198.5 680.897,-198.5"/>
<text text-anchor="middle" x="719.897" y="-205.5" font-family="Helvetica,sans-Serif" font-size="10.00">unordered_set</text>
</g>
<!-- Node15&#45;&gt;Node21 -->
<g id="edge30" class="edge"><title>Node15&#45;&gt;Node21</title>
<path fill="none" stroke="midnightblue" d="M614.519,-260.403C635.07,-250.379 669.26,-233.701 693.103,-222.07"/>
<polygon fill="midnightblue" stroke="midnightblue" points="694.853,-225.111 702.306,-217.581 691.784,-218.819 694.853,-225.111"/>
</g>
<!-- Node22 -->
<g id="node22" class="node"><title>Node22</title>
<polygon fill="white" stroke="#bfbfbf" points="114.897,-0.5 114.897,-19.5 218.897,-19.5 218.897,-0.5 114.897,-0.5"/>
<text text-anchor="middle" x="166.897" y="-7.5" font-family="Helvetica,sans-Serif" font-size="10.00">shad/config/config.h</text>
</g>
<!-- Node15&#45;&gt;Node22 -->
<g id="edge33" class="edge"><title>Node15&#45;&gt;Node22</title>
<path fill="none" stroke="midnightblue" d="M538.617,-263.63C422.367,-252.844 171.195,-229.139 152.897,-224 85.5289,-205.079 48.1901,-215.208 10.8965,-156 -13.9027,-116.628 7.67035,-87.5231 41.8965,-56 59.7786,-39.5303 84.1255,-28.9943 106.582,-22.2977"/>
<polygon fill="midnightblue" stroke="midnightblue" points="107.703,-25.6192 116.401,-19.5703 105.829,-18.8746 107.703,-25.6192"/>
</g>
<!-- Node23 -->
<g id="node23" class="node"><title>Node23</title>
<g id="a_node23"><a xlink:href="handle_8h.html" target="_top" xlink:title="shad/runtime/handle.h">
<polygon fill="white" stroke="black" points="20.3965,-130.5 20.3965,-149.5 133.397,-149.5 133.397,-130.5 20.3965,-130.5"/>
<text text-anchor="middle" x="76.8965" y="-137.5" font-family="Helvetica,sans-Serif" font-size="10.00">shad/runtime/handle.h</text>
</a>
</g>
</g>
<!-- Node15&#45;&gt;Node23 -->
<g id="edge34" class="edge"><title>Node15&#45;&gt;Node23</title>
<path fill="none" stroke="midnightblue" d="M538.709,-263.276C441.107,-253.485 252.167,-233.646 222.897,-224 174.133,-207.93 123.374,-174.696 96.4372,-155.514"/>
<polygon fill="midnightblue" stroke="midnightblue" points="98.4063,-152.619 88.2528,-149.593 94.3032,-158.29 98.4063,-152.619"/>
</g>
<!-- Node25 -->
<g id="node25" class="node"><title>Node25</title>
<g id="a_node25"><a xlink:href="mapping__traits_8h.html" target="_top" xlink:title="shad/runtime/mapping\l_traits.h">
<polygon fill="white" stroke="black" points="336.397,-57 336.397,-87 449.397,-87 449.397,-57 336.397,-57"/>
<text text-anchor="start" x="344.397" y="-75" font-family="Helvetica,sans-Serif" font-size="10.00">shad/runtime/mapping</text>
<text text-anchor="middle" x="392.897" y="-64" font-family="Helvetica,sans-Serif" font-size="10.00">_traits.h</text>
</a>
</g>
</g>
<!-- Node15&#45;&gt;Node25 -->
<g id="edge46" class="edge"><title>Node15&#45;&gt;Node25</title>
<path fill="none" stroke="midnightblue" d="M655.074,-263.607C716.461,-255.508 800.199,-236.141 767.897,-192 731.178,-141.825 557.029,-102.831 459.49,-84.4906"/>
<polygon fill="midnightblue" stroke="midnightblue" points="459.903,-81.0075 449.432,-82.6215 458.624,-87.8897 459.903,-81.0075"/>
</g>
<!-- Node28 -->
<g id="node28" class="node"><title>Node28</title>
<g id="a_node28"><a xlink:href="locality_8h.html" target="_top" xlink:title="shad/runtime/locality.h">
<polygon fill="white" stroke="black" points="288.397,-130.5 288.397,-149.5 403.397,-149.5 403.397,-130.5 288.397,-130.5"/>
<text text-anchor="middle" x="345.897" y="-137.5" font-family="Helvetica,sans-Serif" font-size="10.00">shad/runtime/locality.h</text>
</a>
</g>
</g>
<!-- Node15&#45;&gt;Node28 -->
<g id="edge41" class="edge"><title>Node15&#45;&gt;Node28</title>
<path fill="none" stroke="midnightblue" d="M538.801,-263.211C445.064,-253.592 269.956,-234.353 260.897,-224 251.531,-213.297 253.889,-204.376 260.897,-192 271.127,-173.931 290.596,-161.565 308.322,-153.541"/>
<polygon fill="midnightblue" stroke="midnightblue" points="310.049,-156.612 317.92,-149.521 307.345,-150.155 310.049,-156.612"/>
</g>
<!-- Node29 -->
<g id="node29" class="node"><title>Node29</title>
<g id="a_node29"><a xlink:href="available__mappings_8h.html" target="_top" xlink:title="shad/runtime/mappings\l/available_mappings.h">
<polygon fill="white" stroke="black" points="151.897,-125 151.897,-155 269.897,-155 269.897,-125 151.897,-125"/>
<text text-anchor="start" x="159.897" y="-143" font-family="Helvetica,sans-Serif" font-size="10.00">shad/runtime/mappings</text>
<text text-anchor="middle" x="210.897" y="-132" font-family="Helvetica,sans-Serif" font-size="10.00">/available_mappings.h</text>
</a>
</g>
</g>
<!-- Node15&#45;&gt;Node29 -->
<g id="edge47" class="edge"><title>Node15&#45;&gt;Node29</title>
<path fill="none" stroke="midnightblue" d="M538.689,-262.885C443.146,-252.643 262.421,-232.324 250.897,-224 231.531,-210.013 221.147,-184.098 215.856,-164.932"/>
<polygon fill="midnightblue" stroke="midnightblue" points="219.221,-163.961 213.416,-155.098 212.427,-165.647 219.221,-163.961"/>
</g>
<!-- Node30 -->
<g id="node30" class="node"><title>Node30</title>
<g id="a_node30"><a xlink:href="synchronous__interface_8h.html" target="_top" xlink:title="shad/runtime/synchronous\l_interface.h">
<polygon fill="white" stroke="black" points="280.397,-193 280.397,-223 411.397,-223 411.397,-193 280.397,-193"/>
<text text-anchor="start" x="288.397" y="-211" font-family="Helvetica,sans-Serif" font-size="10.00">shad/runtime/synchronous</text>
<text text-anchor="middle" x="345.897" y="-200" font-family="Helvetica,sans-Serif" font-size="10.00">_interface.h</text>
</a>
</g>
</g>
<!-- Node15&#45;&gt;Node30 -->
<g id="edge49" class="edge"><title>Node15&#45;&gt;Node30</title>
<path fill="none" stroke="midnightblue" d="M561.201,-260.467C523.167,-251.376 462.026,-236.76 414.599,-225.423"/>
<polygon fill="midnightblue" stroke="midnightblue" points="415.239,-221.977 404.7,-223.057 413.612,-228.786 415.239,-221.977"/>
</g>
<!-- Node23&#45;&gt;Node22 -->
<g id="edge36" class="edge"><title>Node23&#45;&gt;Node22</title>
<path fill="none" stroke="midnightblue" d="M69.5679,-130.267C57.0954,-114.287 34.6027,-79.7978 50.8965,-56 63.3279,-37.8435 84.2333,-27.0113 104.9,-20.5494"/>
<polygon fill="midnightblue" stroke="midnightblue" points="105.992,-23.8783 114.667,-17.7964 104.093,-17.1408 105.992,-23.8783"/>
</g>
<!-- Node24 -->
<g id="node24" class="node"><title>Node24</title>
<polygon fill="white" stroke="#bfbfbf" points="59.8965,-62.5 59.8965,-81.5 121.897,-81.5 121.897,-62.5 59.8965,-62.5"/>
<text text-anchor="middle" x="90.8965" y="-69.5" font-family="Helvetica,sans-Serif" font-size="10.00">type_traits</text>
</g>
<!-- Node23&#45;&gt;Node24 -->
<g id="edge35" class="edge"><title>Node23&#45;&gt;Node24</title>
<path fill="none" stroke="midnightblue" d="M78.7268,-130.372C80.7905,-120.643 84.2088,-104.528 86.898,-91.8504"/>
<polygon fill="midnightblue" stroke="midnightblue" points="90.3699,-92.3498 89.0212,-81.8411 83.5222,-90.8972 90.3699,-92.3498"/>
</g>
<!-- Node23&#45;&gt;Node25 -->
<g id="edge37" class="edge"><title>Node23&#45;&gt;Node25</title>
<path fill="none" stroke="midnightblue" d="M113.866,-130.446C123.321,-128.3 133.478,-126.031 142.897,-124 204.878,-110.636 275.705,-96.2726 326.109,-86.2051"/>
<polygon fill="midnightblue" stroke="midnightblue" points="327.104,-89.5756 336.226,-84.1872 325.735,-82.7109 327.104,-89.5756"/>
</g>
<!-- Node27 -->
<g id="node27" class="node"><title>Node27</title>
<g id="a_node27"><a xlink:href="available__traits__mappings_8h.html" target="_top" xlink:title="shad/runtime/mappings\l/available_traits_mappings.h">
<polygon fill="white" stroke="black" points="139.897,-57 139.897,-87 279.897,-87 279.897,-57 139.897,-57"/>
<text text-anchor="start" x="147.897" y="-75" font-family="Helvetica,sans-Serif" font-size="10.00">shad/runtime/mappings</text>
<text text-anchor="middle" x="209.897" y="-64" font-family="Helvetica,sans-Serif" font-size="10.00">/available_traits_mappings.h</text>
</a>
</g>
</g>
<!-- Node23&#45;&gt;Node27 -->
<g id="edge40" class="edge"><title>Node23&#45;&gt;Node27</title>
<path fill="none" stroke="midnightblue" d="M94.284,-130.372C114.038,-120.569 146.856,-104.283 172.49,-91.5629"/>
<polygon fill="midnightblue" stroke="midnightblue" points="174.169,-94.6367 181.571,-87.0562 171.058,-88.3663 174.169,-94.6367"/>
</g>
<!-- Node25&#45;&gt;Node22 -->
<g id="edge39" class="edge"><title>Node25&#45;&gt;Node22</title>
<path fill="none" stroke="midnightblue" d="M339.91,-56.9327C299.959,-46.3264 245.911,-31.9772 208.917,-22.1559"/>
<polygon fill="midnightblue" stroke="midnightblue" points="209.524,-18.6959 198.961,-19.5127 207.728,-25.4616 209.524,-18.6959"/>
</g>
<!-- Node26 -->
<g id="node26" class="node"><title>Node26</title>
<polygon fill="white" stroke="#bfbfbf" points="372.397,-0.5 372.397,-19.5 413.397,-19.5 413.397,-0.5 372.397,-0.5"/>
<text text-anchor="middle" x="392.897" y="-7.5" font-family="Helvetica,sans-Serif" font-size="10.00">string</text>
</g>
<!-- Node25&#45;&gt;Node26 -->
<g id="edge38" class="edge"><title>Node25&#45;&gt;Node26</title>
<path fill="none" stroke="midnightblue" d="M392.897,-56.7808C392.897,-48.7812 392.897,-38.6887 392.897,-30.0168"/>
<polygon fill="midnightblue" stroke="midnightblue" points="396.397,-29.7305 392.897,-19.7305 389.397,-29.7306 396.397,-29.7305"/>
</g>
<!-- Node28&#45;&gt;Node4 -->
<g id="edge42" class="edge"><title>Node28&#45;&gt;Node4</title>
<path fill="none" stroke="midnightblue" d="M380.709,-130.439C390.736,-128.15 401.716,-125.812 411.897,-124 544.681,-100.372 704.488,-83.0844 772.566,-76.2366"/>
<polygon fill="midnightblue" stroke="midnightblue" points="773.083,-79.7025 782.687,-75.2278 772.389,-72.737 773.083,-79.7025"/>
</g>
<!-- Node28&#45;&gt;Node22 -->
<g id="edge43" class="edge"><title>Node28&#45;&gt;Node22</title>
<path fill="none" stroke="midnightblue" d="M342.196,-130.417C334.595,-113.752 315.662,-76.8241 288.897,-56 268.317,-39.9886 241.473,-29.2649 218.207,-22.3169"/>
<polygon fill="midnightblue" stroke="midnightblue" points="219.059,-18.9205 208.484,-19.5659 217.153,-25.6562 219.059,-18.9205"/>
</g>
<!-- Node28&#45;&gt;Node25 -->
<g id="edge44" class="edge"><title>Node28&#45;&gt;Node25</title>
<path fill="none" stroke="midnightblue" d="M352.041,-130.372C358.328,-121.543 368.36,-107.456 376.909,-95.4503"/>
<polygon fill="midnightblue" stroke="midnightblue" points="379.848,-97.3574 382.798,-87.1815 374.146,-93.2969 379.848,-97.3574"/>
</g>
<!-- Node28&#45;&gt;Node27 -->
<g id="edge45" class="edge"><title>Node28&#45;&gt;Node27</title>
<path fill="none" stroke="midnightblue" d="M328.117,-130.372C307.917,-120.569 274.36,-104.283 248.147,-91.5629"/>
<polygon fill="midnightblue" stroke="midnightblue" points="249.386,-88.2735 238.861,-87.0562 246.329,-94.5711 249.386,-88.2735"/>
</g>
<!-- Node29&#45;&gt;Node27 -->
<g id="edge48" class="edge"><title>Node29&#45;&gt;Node27</title>
<path fill="none" stroke="midnightblue" d="M210.68,-124.679C210.559,-116.722 210.406,-106.605 210.267,-97.4356"/>
<polygon fill="midnightblue" stroke="midnightblue" points="213.764,-97.2389 210.113,-87.2931 206.765,-97.345 213.764,-97.2389"/>
</g>
<!-- Node30&#45;&gt;Node4 -->
<g id="edge51" class="edge"><title>Node30&#45;&gt;Node4</title>
<path fill="none" stroke="midnightblue" d="M394.255,-192.913C488.078,-165.582 692.615,-105.999 772.751,-82.6555"/>
<polygon fill="midnightblue" stroke="midnightblue" points="774.149,-85.8937 782.771,-79.7366 772.191,-79.1731 774.149,-85.8937"/>
</g>
<!-- Node30&#45;&gt;Node7 -->
<g id="edge52" class="edge"><title>Node30&#45;&gt;Node7</title>
<path fill="none" stroke="midnightblue" d="M411.6,-193.306C414.399,-192.842 417.173,-192.403 419.897,-192 588.147,-167.07 631.592,-172.298 800.897,-156 840.703,-152.168 886.325,-147.683 917.319,-144.623"/>
<polygon fill="midnightblue" stroke="midnightblue" points="918.031,-148.069 927.638,-143.603 917.342,-141.103 918.031,-148.069"/>
</g>
<!-- Node30&#45;&gt;Node16 -->
<g id="edge50" class="edge"><title>Node30&#45;&gt;Node16</title>
<path fill="none" stroke="midnightblue" d="M367.595,-192.679C384.365,-181.611 407.468,-166.363 424.23,-155.3"/>
<polygon fill="midnightblue" stroke="midnightblue" points="426.391,-158.067 432.809,-149.638 422.535,-152.225 426.391,-158.067"/>
</g>
<!-- Node30&#45;&gt;Node28 -->
<g id="edge53" class="edge"><title>Node30&#45;&gt;Node28</title>
<path fill="none" stroke="midnightblue" d="M345.897,-192.679C345.897,-183.101 345.897,-170.394 345.897,-159.977"/>
<polygon fill="midnightblue" stroke="midnightblue" points="349.397,-159.828 345.897,-149.828 342.397,-159.828 349.397,-159.828"/>
</g>
<!-- Node31&#45;&gt;Node2 -->
<g id="edge56" class="edge"><title>Node31&#45;&gt;Node2</title>
<path fill="none" stroke="midnightblue" d="M522.718,-384.841C496.423,-373.272 459.568,-357.055 434.112,-345.855"/>
<polygon fill="midnightblue" stroke="midnightblue" points="435.191,-342.506 424.628,-341.682 432.372,-348.913 435.191,-342.506"/>
</g>
<!-- Node31&#45;&gt;Node3 -->
<g id="edge58" class="edge"><title>Node31&#45;&gt;Node3</title>
<path fill="none" stroke="midnightblue" d="M524.156,-384.881C508.702,-376.294 490.956,-363.899 479.897,-348 467.886,-330.734 463.444,-306.659 461.815,-290.047"/>
<polygon fill="midnightblue" stroke="midnightblue" points="465.294,-289.634 461.077,-279.914 458.312,-290.142 465.294,-289.634"/>
</g>
<!-- Node31&#45;&gt;Node11 -->
<g id="edge59" class="edge"><title>Node31&#45;&gt;Node11</title>
<path fill="none" stroke="midnightblue" d="M609.016,-390.894C638.953,-383.95 675.018,-371.209 699.897,-348 731.048,-318.94 705.591,-287.771 737.897,-260 785.637,-218.96 815.067,-243.592 874.897,-224 877.523,-223.14 880.231,-222.194 882.934,-221.208"/>
<polygon fill="midnightblue" stroke="midnightblue" points="884.449,-224.377 892.549,-217.548 881.958,-217.835 884.449,-224.377"/>
</g>
<!-- Node31&#45;&gt;Node14 -->
<g id="edge60" class="edge"><title>Node31&#45;&gt;Node14</title>
<path fill="none" stroke="midnightblue" d="M572.689,-384.679C584.049,-375.536 598.953,-363.54 611.542,-353.407"/>
<polygon fill="midnightblue" stroke="midnightblue" points="613.825,-356.063 619.42,-347.066 609.436,-350.61 613.825,-356.063"/>
</g>
<!-- Node31&#45;&gt;Node15 -->
<g id="edge61" class="edge"><title>Node31&#45;&gt;Node15</title>
<path fill="none" stroke="midnightblue" d="M557.03,-384.892C559.813,-368.13 565.359,-339.478 573.897,-316 577.307,-306.621 582.228,-296.692 586.643,-288.554"/>
<polygon fill="midnightblue" stroke="midnightblue" points="589.787,-290.104 591.643,-279.673 583.687,-286.67 589.787,-290.104"/>
</g>
<!-- Node32 -->
<g id="node32" class="node"><title>Node32</title>
<polygon fill="white" stroke="#bfbfbf" points="488.897,-322.5 488.897,-341.5 526.897,-341.5 526.897,-322.5 488.897,-322.5"/>
<text text-anchor="middle" x="507.897" y="-329.5" font-family="Helvetica,sans-Serif" font-size="10.00">array</text>
</g>
<!-- Node31&#45;&gt;Node32 -->
<g id="edge57" class="edge"><title>Node31&#45;&gt;Node32</title>
<path fill="none" stroke="midnightblue" d="M544.698,-384.679C537.442,-374.49 527.664,-360.759 520.011,-350.011"/>
<polygon fill="midnightblue" stroke="midnightblue" points="522.835,-347.944 514.183,-341.828 517.133,-352.004 522.835,-347.944"/>
</g>
</g>
</svg>
